G04 #@! TF.GenerationSoftware,KiCad,Pcbnew,(5.1.8)-1*
G04 #@! TF.CreationDate,2021-01-19T15:05:27+01:00*
G04 #@! TF.ProjectId,C64 Joykey Faceplate B1,43363420-4a6f-4796-9b65-792046616365,rev?*
G04 #@! TF.SameCoordinates,Original*
G04 #@! TF.FileFunction,Copper,L2,Bot*
G04 #@! TF.FilePolarity,Positive*
%FSLAX46Y46*%
G04 Gerber Fmt 4.6, Leading zero omitted, Abs format (unit mm)*
G04 Created by KiCad (PCBNEW (5.1.8)-1) date 2021-01-19 15:05:27*
%MOMM*%
%LPD*%
G01*
G04 APERTURE LIST*
G04 #@! TA.AperFunction,ComponentPad*
%ADD10C,3.500000*%
G04 #@! TD*
G04 #@! TA.AperFunction,Conductor*
%ADD11C,0.254000*%
G04 #@! TD*
G04 #@! TA.AperFunction,Conductor*
%ADD12C,0.100000*%
G04 #@! TD*
G04 APERTURE END LIST*
D10*
X144145000Y-154305000D03*
X237490000Y-154305000D03*
X237490000Y-85725000D03*
X144145000Y-85725000D03*
D11*
X188569513Y-83210666D02*
X188570001Y-83215310D01*
X188570000Y-92107418D01*
X188572758Y-92135419D01*
X188572731Y-92139255D01*
X188573631Y-92148426D01*
X188586586Y-92271677D01*
X188598615Y-92330274D01*
X188609822Y-92389028D01*
X188612486Y-92397850D01*
X188649133Y-92516238D01*
X188672308Y-92571368D01*
X188694722Y-92626847D01*
X188699049Y-92634983D01*
X188757992Y-92743998D01*
X188791437Y-92793582D01*
X188824197Y-92843645D01*
X188830022Y-92850786D01*
X188909018Y-92946276D01*
X188951467Y-92988430D01*
X188993315Y-93031165D01*
X189000416Y-93037039D01*
X189096455Y-93115367D01*
X189146281Y-93148472D01*
X189195638Y-93182267D01*
X189203744Y-93186650D01*
X189313167Y-93244832D01*
X189368459Y-93267621D01*
X189423455Y-93291193D01*
X189432258Y-93293918D01*
X189550899Y-93329737D01*
X189609583Y-93341357D01*
X189668094Y-93353794D01*
X189677250Y-93354756D01*
X189677255Y-93354757D01*
X189677259Y-93354757D01*
X189800597Y-93366850D01*
X189800598Y-93366850D01*
X189832581Y-93370000D01*
X233077419Y-93370000D01*
X233105419Y-93367242D01*
X233109255Y-93367269D01*
X233118426Y-93366369D01*
X233241677Y-93353414D01*
X233300274Y-93341385D01*
X233359028Y-93330178D01*
X233367850Y-93327514D01*
X233486238Y-93290867D01*
X233541368Y-93267692D01*
X233596847Y-93245278D01*
X233604983Y-93240951D01*
X233713998Y-93182008D01*
X233763582Y-93148563D01*
X233813645Y-93115803D01*
X233820786Y-93109978D01*
X233916276Y-93030982D01*
X233958430Y-92988533D01*
X234001165Y-92946685D01*
X234007039Y-92939584D01*
X234085367Y-92843545D01*
X234118472Y-92793719D01*
X234152267Y-92744362D01*
X234156650Y-92736256D01*
X234214832Y-92626833D01*
X234237621Y-92571541D01*
X234261193Y-92516545D01*
X234263918Y-92507742D01*
X234299737Y-92389101D01*
X234311359Y-92330408D01*
X234323794Y-92271906D01*
X234324756Y-92262750D01*
X234324757Y-92262745D01*
X234324757Y-92262741D01*
X234336850Y-92139403D01*
X234336850Y-92139402D01*
X234340000Y-92107419D01*
X234340000Y-87394609D01*
X235999997Y-87394609D01*
X236186073Y-87735766D01*
X236603409Y-87951513D01*
X237054815Y-88081696D01*
X237522946Y-88121313D01*
X237989811Y-88068842D01*
X238437468Y-87926297D01*
X238793927Y-87735766D01*
X238980003Y-87394609D01*
X237490000Y-85904605D01*
X235999997Y-87394609D01*
X234340000Y-87394609D01*
X234340000Y-85757946D01*
X235093687Y-85757946D01*
X235146158Y-86224811D01*
X235288703Y-86672468D01*
X235479234Y-87028927D01*
X235820391Y-87215003D01*
X237310395Y-85725000D01*
X237669605Y-85725000D01*
X239159609Y-87215003D01*
X239500766Y-87028927D01*
X239716513Y-86611591D01*
X239846696Y-86160185D01*
X239886313Y-85692054D01*
X239833842Y-85225189D01*
X239691297Y-84777532D01*
X239500766Y-84421073D01*
X239159609Y-84234997D01*
X237669605Y-85725000D01*
X237310395Y-85725000D01*
X235820391Y-84234997D01*
X235479234Y-84421073D01*
X235263487Y-84838409D01*
X235133304Y-85289815D01*
X235093687Y-85757946D01*
X234340000Y-85757946D01*
X234340000Y-84055391D01*
X235999997Y-84055391D01*
X237490000Y-85545395D01*
X238980003Y-84055391D01*
X238793927Y-83714234D01*
X238376591Y-83498487D01*
X237925185Y-83368304D01*
X237457054Y-83328687D01*
X236990189Y-83381158D01*
X236542532Y-83523703D01*
X236186073Y-83714234D01*
X235999997Y-84055391D01*
X234340000Y-84055391D01*
X234340000Y-83217275D01*
X234340666Y-83210487D01*
X234345301Y-83210000D01*
X237457722Y-83210000D01*
X237977884Y-83261002D01*
X238447188Y-83402694D01*
X238880025Y-83632837D01*
X239259927Y-83942678D01*
X239572403Y-84320397D01*
X239805569Y-84751627D01*
X239950532Y-85219928D01*
X240005000Y-85738153D01*
X240005001Y-154272712D01*
X239953998Y-154792883D01*
X239812307Y-155262186D01*
X239582161Y-155695028D01*
X239272323Y-156074927D01*
X238894600Y-156387406D01*
X238463373Y-156620569D01*
X237995073Y-156765532D01*
X237476847Y-156820000D01*
X144177278Y-156820000D01*
X143657117Y-156768998D01*
X143187814Y-156627307D01*
X142754972Y-156397161D01*
X142375073Y-156087323D01*
X142281829Y-155974609D01*
X142654997Y-155974609D01*
X142841073Y-156315766D01*
X143258409Y-156531513D01*
X143709815Y-156661696D01*
X144177946Y-156701313D01*
X144644811Y-156648842D01*
X145092468Y-156506297D01*
X145448927Y-156315766D01*
X145635003Y-155974609D01*
X235999997Y-155974609D01*
X236186073Y-156315766D01*
X236603409Y-156531513D01*
X237054815Y-156661696D01*
X237522946Y-156701313D01*
X237989811Y-156648842D01*
X238437468Y-156506297D01*
X238793927Y-156315766D01*
X238980003Y-155974609D01*
X237490000Y-154484605D01*
X235999997Y-155974609D01*
X145635003Y-155974609D01*
X144145000Y-154484605D01*
X142654997Y-155974609D01*
X142281829Y-155974609D01*
X142062594Y-155709600D01*
X141829431Y-155278373D01*
X141684468Y-154810073D01*
X141634846Y-154337946D01*
X141748687Y-154337946D01*
X141801158Y-154804811D01*
X141943703Y-155252468D01*
X142134234Y-155608927D01*
X142475391Y-155795003D01*
X143965395Y-154305000D01*
X144324605Y-154305000D01*
X145814609Y-155795003D01*
X146155766Y-155608927D01*
X146371513Y-155191591D01*
X146501696Y-154740185D01*
X146535736Y-154337946D01*
X235093687Y-154337946D01*
X235146158Y-154804811D01*
X235288703Y-155252468D01*
X235479234Y-155608927D01*
X235820391Y-155795003D01*
X237310395Y-154305000D01*
X237669605Y-154305000D01*
X239159609Y-155795003D01*
X239500766Y-155608927D01*
X239716513Y-155191591D01*
X239846696Y-154740185D01*
X239886313Y-154272054D01*
X239833842Y-153805189D01*
X239691297Y-153357532D01*
X239500766Y-153001073D01*
X239159609Y-152814997D01*
X237669605Y-154305000D01*
X237310395Y-154305000D01*
X235820391Y-152814997D01*
X235479234Y-153001073D01*
X235263487Y-153418409D01*
X235133304Y-153869815D01*
X235093687Y-154337946D01*
X146535736Y-154337946D01*
X146541313Y-154272054D01*
X146488842Y-153805189D01*
X146346297Y-153357532D01*
X146155766Y-153001073D01*
X145814609Y-152814997D01*
X144324605Y-154305000D01*
X143965395Y-154305000D01*
X142475391Y-152814997D01*
X142134234Y-153001073D01*
X141918487Y-153418409D01*
X141788304Y-153869815D01*
X141748687Y-154337946D01*
X141634846Y-154337946D01*
X141630000Y-154291847D01*
X141630000Y-152635391D01*
X142654997Y-152635391D01*
X144145000Y-154125395D01*
X145635003Y-152635391D01*
X235999997Y-152635391D01*
X237490000Y-154125395D01*
X238980003Y-152635391D01*
X238793927Y-152294234D01*
X238376591Y-152078487D01*
X237925185Y-151948304D01*
X237457054Y-151908687D01*
X236990189Y-151961158D01*
X236542532Y-152103703D01*
X236186073Y-152294234D01*
X235999997Y-152635391D01*
X145635003Y-152635391D01*
X145448927Y-152294234D01*
X145031591Y-152078487D01*
X144580185Y-151948304D01*
X144112054Y-151908687D01*
X143645189Y-151961158D01*
X143197532Y-152103703D01*
X142841073Y-152294234D01*
X142654997Y-152635391D01*
X141630000Y-152635391D01*
X141630000Y-135222582D01*
X149835000Y-135222582D01*
X149835001Y-146717419D01*
X149837758Y-146745410D01*
X149837731Y-146749255D01*
X149838631Y-146758426D01*
X149851586Y-146881677D01*
X149863615Y-146940274D01*
X149874822Y-146999028D01*
X149877486Y-147007850D01*
X149914133Y-147126238D01*
X149937308Y-147181368D01*
X149959722Y-147236847D01*
X149964049Y-147244983D01*
X150022992Y-147353998D01*
X150056437Y-147403582D01*
X150089197Y-147453645D01*
X150095022Y-147460786D01*
X150174018Y-147556276D01*
X150216467Y-147598430D01*
X150258315Y-147641165D01*
X150265416Y-147647039D01*
X150361455Y-147725367D01*
X150411281Y-147758472D01*
X150460638Y-147792267D01*
X150468744Y-147796650D01*
X150578167Y-147854832D01*
X150633459Y-147877621D01*
X150688455Y-147901193D01*
X150697258Y-147903918D01*
X150815899Y-147939737D01*
X150874583Y-147951357D01*
X150933094Y-147963794D01*
X150942250Y-147964756D01*
X150942255Y-147964757D01*
X150942259Y-147964757D01*
X151065597Y-147976850D01*
X151065598Y-147976850D01*
X151097581Y-147980000D01*
X162592419Y-147980000D01*
X162620419Y-147977242D01*
X162624255Y-147977269D01*
X162633426Y-147976369D01*
X162756677Y-147963414D01*
X162815274Y-147951385D01*
X162874028Y-147940178D01*
X162882850Y-147937514D01*
X163001238Y-147900867D01*
X163056368Y-147877692D01*
X163111847Y-147855278D01*
X163119983Y-147850951D01*
X163228998Y-147792008D01*
X163278582Y-147758563D01*
X163328645Y-147725803D01*
X163335786Y-147719978D01*
X163431276Y-147640982D01*
X163473430Y-147598533D01*
X163516165Y-147556685D01*
X163522039Y-147549584D01*
X163600367Y-147453545D01*
X163633472Y-147403719D01*
X163667267Y-147354362D01*
X163671650Y-147346256D01*
X163729832Y-147236833D01*
X163752621Y-147181541D01*
X163776193Y-147126545D01*
X163778918Y-147117742D01*
X163814737Y-146999101D01*
X163826359Y-146940408D01*
X163838794Y-146881906D01*
X163839756Y-146872750D01*
X163839757Y-146872745D01*
X163839757Y-146872741D01*
X163851850Y-146749403D01*
X163851850Y-146749402D01*
X163855000Y-146717419D01*
X163855000Y-135222582D01*
X175870000Y-135222582D01*
X175870001Y-146717419D01*
X175872758Y-146745410D01*
X175872731Y-146749255D01*
X175873631Y-146758426D01*
X175886586Y-146881677D01*
X175898615Y-146940274D01*
X175909822Y-146999028D01*
X175912486Y-147007850D01*
X175949133Y-147126238D01*
X175972308Y-147181368D01*
X175994722Y-147236847D01*
X175999049Y-147244983D01*
X176057992Y-147353998D01*
X176091437Y-147403582D01*
X176124197Y-147453645D01*
X176130022Y-147460786D01*
X176209018Y-147556276D01*
X176251467Y-147598430D01*
X176293315Y-147641165D01*
X176300416Y-147647039D01*
X176396455Y-147725367D01*
X176446281Y-147758472D01*
X176495638Y-147792267D01*
X176503744Y-147796650D01*
X176613167Y-147854832D01*
X176668459Y-147877621D01*
X176723455Y-147901193D01*
X176732258Y-147903918D01*
X176850899Y-147939737D01*
X176909583Y-147951357D01*
X176968094Y-147963794D01*
X176977250Y-147964756D01*
X176977255Y-147964757D01*
X176977259Y-147964757D01*
X177100597Y-147976850D01*
X177100598Y-147976850D01*
X177132581Y-147980000D01*
X188627419Y-147980000D01*
X188655419Y-147977242D01*
X188659255Y-147977269D01*
X188668426Y-147976369D01*
X188791677Y-147963414D01*
X188850274Y-147951385D01*
X188909028Y-147940178D01*
X188917850Y-147937514D01*
X189036238Y-147900867D01*
X189091368Y-147877692D01*
X189146847Y-147855278D01*
X189154983Y-147850951D01*
X189263998Y-147792008D01*
X189313582Y-147758563D01*
X189363645Y-147725803D01*
X189370786Y-147719978D01*
X189466276Y-147640982D01*
X189508430Y-147598533D01*
X189551165Y-147556685D01*
X189557039Y-147549584D01*
X189635367Y-147453545D01*
X189668472Y-147403719D01*
X189702267Y-147354362D01*
X189706650Y-147346256D01*
X189764832Y-147236833D01*
X189787621Y-147181541D01*
X189811193Y-147126545D01*
X189813918Y-147117742D01*
X189849737Y-146999101D01*
X189861359Y-146940408D01*
X189873794Y-146881906D01*
X189874756Y-146872750D01*
X189874757Y-146872745D01*
X189874757Y-146872741D01*
X189886850Y-146749403D01*
X189886850Y-146749402D01*
X189890000Y-146717419D01*
X189890000Y-135222582D01*
X196825000Y-135222582D01*
X196825001Y-146717419D01*
X196827758Y-146745410D01*
X196827731Y-146749255D01*
X196828631Y-146758426D01*
X196841586Y-146881677D01*
X196853615Y-146940274D01*
X196864822Y-146999028D01*
X196867486Y-147007850D01*
X196904133Y-147126238D01*
X196927308Y-147181368D01*
X196949722Y-147236847D01*
X196954049Y-147244983D01*
X197012992Y-147353998D01*
X197046437Y-147403582D01*
X197079197Y-147453645D01*
X197085022Y-147460786D01*
X197164018Y-147556276D01*
X197206467Y-147598430D01*
X197248315Y-147641165D01*
X197255416Y-147647039D01*
X197351455Y-147725367D01*
X197401281Y-147758472D01*
X197450638Y-147792267D01*
X197458744Y-147796650D01*
X197568167Y-147854832D01*
X197623459Y-147877621D01*
X197678455Y-147901193D01*
X197687258Y-147903918D01*
X197805899Y-147939737D01*
X197864583Y-147951357D01*
X197923094Y-147963794D01*
X197932250Y-147964756D01*
X197932255Y-147964757D01*
X197932259Y-147964757D01*
X198055597Y-147976850D01*
X198055598Y-147976850D01*
X198087581Y-147980000D01*
X209582419Y-147980000D01*
X209610419Y-147977242D01*
X209614255Y-147977269D01*
X209623426Y-147976369D01*
X209746677Y-147963414D01*
X209805274Y-147951385D01*
X209864028Y-147940178D01*
X209872850Y-147937514D01*
X209991238Y-147900867D01*
X210046368Y-147877692D01*
X210101847Y-147855278D01*
X210109983Y-147850951D01*
X210218998Y-147792008D01*
X210268582Y-147758563D01*
X210318645Y-147725803D01*
X210325786Y-147719978D01*
X210421276Y-147640982D01*
X210463430Y-147598533D01*
X210506165Y-147556685D01*
X210512039Y-147549584D01*
X210590367Y-147453545D01*
X210623472Y-147403719D01*
X210657267Y-147354362D01*
X210661650Y-147346256D01*
X210719832Y-147236833D01*
X210742621Y-147181541D01*
X210766193Y-147126545D01*
X210768918Y-147117742D01*
X210804737Y-146999101D01*
X210816359Y-146940408D01*
X210828794Y-146881906D01*
X210829756Y-146872750D01*
X210829757Y-146872745D01*
X210829757Y-146872741D01*
X210841850Y-146749403D01*
X210841850Y-146749402D01*
X210845000Y-146717419D01*
X210845000Y-135222582D01*
X217780000Y-135222582D01*
X217780001Y-146717419D01*
X217782758Y-146745410D01*
X217782731Y-146749255D01*
X217783631Y-146758426D01*
X217796586Y-146881677D01*
X217808615Y-146940274D01*
X217819822Y-146999028D01*
X217822486Y-147007850D01*
X217859133Y-147126238D01*
X217882308Y-147181368D01*
X217904722Y-147236847D01*
X217909049Y-147244983D01*
X217967992Y-147353998D01*
X218001437Y-147403582D01*
X218034197Y-147453645D01*
X218040022Y-147460786D01*
X218119018Y-147556276D01*
X218161467Y-147598430D01*
X218203315Y-147641165D01*
X218210416Y-147647039D01*
X218306455Y-147725367D01*
X218356281Y-147758472D01*
X218405638Y-147792267D01*
X218413744Y-147796650D01*
X218523167Y-147854832D01*
X218578459Y-147877621D01*
X218633455Y-147901193D01*
X218642258Y-147903918D01*
X218760899Y-147939737D01*
X218819583Y-147951357D01*
X218878094Y-147963794D01*
X218887250Y-147964756D01*
X218887255Y-147964757D01*
X218887259Y-147964757D01*
X219010597Y-147976850D01*
X219010598Y-147976850D01*
X219042581Y-147980000D01*
X230537419Y-147980000D01*
X230565419Y-147977242D01*
X230569255Y-147977269D01*
X230578426Y-147976369D01*
X230701677Y-147963414D01*
X230760274Y-147951385D01*
X230819028Y-147940178D01*
X230827850Y-147937514D01*
X230946238Y-147900867D01*
X231001368Y-147877692D01*
X231056847Y-147855278D01*
X231064983Y-147850951D01*
X231173998Y-147792008D01*
X231223582Y-147758563D01*
X231273645Y-147725803D01*
X231280786Y-147719978D01*
X231376276Y-147640982D01*
X231418430Y-147598533D01*
X231461165Y-147556685D01*
X231467039Y-147549584D01*
X231545367Y-147453545D01*
X231578472Y-147403719D01*
X231612267Y-147354362D01*
X231616650Y-147346256D01*
X231674832Y-147236833D01*
X231697621Y-147181541D01*
X231721193Y-147126545D01*
X231723918Y-147117742D01*
X231759737Y-146999101D01*
X231771359Y-146940408D01*
X231783794Y-146881906D01*
X231784756Y-146872750D01*
X231784757Y-146872745D01*
X231784757Y-146872741D01*
X231796850Y-146749403D01*
X231796850Y-146749402D01*
X231800000Y-146717419D01*
X231800000Y-135222581D01*
X231797242Y-135194581D01*
X231797269Y-135190745D01*
X231796369Y-135181574D01*
X231783414Y-135058323D01*
X231771387Y-134999733D01*
X231760178Y-134940971D01*
X231757514Y-134932149D01*
X231720867Y-134813762D01*
X231697692Y-134758632D01*
X231675278Y-134703153D01*
X231670951Y-134695017D01*
X231612007Y-134586002D01*
X231578565Y-134536422D01*
X231545803Y-134486355D01*
X231539978Y-134479214D01*
X231460982Y-134383724D01*
X231418566Y-134341603D01*
X231376684Y-134298834D01*
X231369584Y-134292961D01*
X231273545Y-134214633D01*
X231223703Y-134181518D01*
X231174362Y-134147733D01*
X231166256Y-134143350D01*
X231056832Y-134085168D01*
X231001554Y-134062384D01*
X230946545Y-134038807D01*
X230937741Y-134036082D01*
X230819101Y-134000262D01*
X230760372Y-133988633D01*
X230701905Y-133976206D01*
X230692747Y-133975244D01*
X230692744Y-133975243D01*
X230692741Y-133975243D01*
X230569402Y-133963150D01*
X230537419Y-133960000D01*
X219042581Y-133960000D01*
X219014581Y-133962758D01*
X219010745Y-133962731D01*
X219001574Y-133963631D01*
X218878323Y-133976586D01*
X218819733Y-133988613D01*
X218760971Y-133999822D01*
X218752149Y-134002486D01*
X218633762Y-134039133D01*
X218578632Y-134062308D01*
X218523153Y-134084722D01*
X218515017Y-134089049D01*
X218406002Y-134147993D01*
X218356422Y-134181435D01*
X218306355Y-134214197D01*
X218299214Y-134220022D01*
X218203724Y-134299018D01*
X218161603Y-134341434D01*
X218118834Y-134383316D01*
X218112961Y-134390416D01*
X218034633Y-134486455D01*
X218001518Y-134536297D01*
X217967733Y-134585638D01*
X217963350Y-134593744D01*
X217905168Y-134703168D01*
X217882384Y-134758446D01*
X217858807Y-134813455D01*
X217856082Y-134822259D01*
X217820262Y-134940899D01*
X217808641Y-134999592D01*
X217796206Y-135058095D01*
X217795244Y-135067253D01*
X217795244Y-135067254D01*
X217795243Y-135067259D01*
X217783150Y-135190598D01*
X217780000Y-135222582D01*
X210845000Y-135222582D01*
X210845000Y-135222581D01*
X210842242Y-135194581D01*
X210842269Y-135190745D01*
X210841369Y-135181574D01*
X210828414Y-135058323D01*
X210816387Y-134999733D01*
X210805178Y-134940971D01*
X210802514Y-134932149D01*
X210765867Y-134813762D01*
X210742692Y-134758632D01*
X210720278Y-134703153D01*
X210715951Y-134695017D01*
X210657007Y-134586002D01*
X210623565Y-134536422D01*
X210590803Y-134486355D01*
X210584978Y-134479214D01*
X210505982Y-134383724D01*
X210463566Y-134341603D01*
X210421684Y-134298834D01*
X210414584Y-134292961D01*
X210318545Y-134214633D01*
X210268703Y-134181518D01*
X210219362Y-134147733D01*
X210211256Y-134143350D01*
X210101832Y-134085168D01*
X210046554Y-134062384D01*
X209991545Y-134038807D01*
X209982741Y-134036082D01*
X209864101Y-134000262D01*
X209805372Y-133988633D01*
X209746905Y-133976206D01*
X209737747Y-133975244D01*
X209737744Y-133975243D01*
X209737741Y-133975243D01*
X209614402Y-133963150D01*
X209582419Y-133960000D01*
X198087581Y-133960000D01*
X198059581Y-133962758D01*
X198055745Y-133962731D01*
X198046574Y-133963631D01*
X197923323Y-133976586D01*
X197864733Y-133988613D01*
X197805971Y-133999822D01*
X197797149Y-134002486D01*
X197678762Y-134039133D01*
X197623632Y-134062308D01*
X197568153Y-134084722D01*
X197560017Y-134089049D01*
X197451002Y-134147993D01*
X197401422Y-134181435D01*
X197351355Y-134214197D01*
X197344214Y-134220022D01*
X197248724Y-134299018D01*
X197206603Y-134341434D01*
X197163834Y-134383316D01*
X197157961Y-134390416D01*
X197079633Y-134486455D01*
X197046518Y-134536297D01*
X197012733Y-134585638D01*
X197008350Y-134593744D01*
X196950168Y-134703168D01*
X196927384Y-134758446D01*
X196903807Y-134813455D01*
X196901082Y-134822259D01*
X196865262Y-134940899D01*
X196853641Y-134999592D01*
X196841206Y-135058095D01*
X196840244Y-135067253D01*
X196840244Y-135067254D01*
X196840243Y-135067259D01*
X196828150Y-135190598D01*
X196825000Y-135222582D01*
X189890000Y-135222582D01*
X189890000Y-135222581D01*
X189887242Y-135194581D01*
X189887269Y-135190745D01*
X189886369Y-135181574D01*
X189873414Y-135058323D01*
X189861387Y-134999733D01*
X189850178Y-134940971D01*
X189847514Y-134932149D01*
X189810867Y-134813762D01*
X189787692Y-134758632D01*
X189765278Y-134703153D01*
X189760951Y-134695017D01*
X189702007Y-134586002D01*
X189668565Y-134536422D01*
X189635803Y-134486355D01*
X189629978Y-134479214D01*
X189550982Y-134383724D01*
X189508566Y-134341603D01*
X189466684Y-134298834D01*
X189459584Y-134292961D01*
X189363545Y-134214633D01*
X189313703Y-134181518D01*
X189264362Y-134147733D01*
X189256256Y-134143350D01*
X189146832Y-134085168D01*
X189091554Y-134062384D01*
X189036545Y-134038807D01*
X189027741Y-134036082D01*
X188909101Y-134000262D01*
X188850372Y-133988633D01*
X188791905Y-133976206D01*
X188782747Y-133975244D01*
X188782744Y-133975243D01*
X188782741Y-133975243D01*
X188659402Y-133963150D01*
X188627419Y-133960000D01*
X177132581Y-133960000D01*
X177104581Y-133962758D01*
X177100745Y-133962731D01*
X177091574Y-133963631D01*
X176968323Y-133976586D01*
X176909733Y-133988613D01*
X176850971Y-133999822D01*
X176842149Y-134002486D01*
X176723762Y-134039133D01*
X176668632Y-134062308D01*
X176613153Y-134084722D01*
X176605017Y-134089049D01*
X176496002Y-134147993D01*
X176446422Y-134181435D01*
X176396355Y-134214197D01*
X176389214Y-134220022D01*
X176293724Y-134299018D01*
X176251603Y-134341434D01*
X176208834Y-134383316D01*
X176202961Y-134390416D01*
X176124633Y-134486455D01*
X176091518Y-134536297D01*
X176057733Y-134585638D01*
X176053350Y-134593744D01*
X175995168Y-134703168D01*
X175972384Y-134758446D01*
X175948807Y-134813455D01*
X175946082Y-134822259D01*
X175910262Y-134940899D01*
X175898641Y-134999592D01*
X175886206Y-135058095D01*
X175885244Y-135067253D01*
X175885244Y-135067254D01*
X175885243Y-135067259D01*
X175873150Y-135190598D01*
X175870000Y-135222582D01*
X163855000Y-135222582D01*
X163855000Y-135222581D01*
X163852242Y-135194581D01*
X163852269Y-135190745D01*
X163851369Y-135181574D01*
X163838414Y-135058323D01*
X163826387Y-134999733D01*
X163815178Y-134940971D01*
X163812514Y-134932149D01*
X163775867Y-134813762D01*
X163752692Y-134758632D01*
X163730278Y-134703153D01*
X163725951Y-134695017D01*
X163667007Y-134586002D01*
X163633565Y-134536422D01*
X163600803Y-134486355D01*
X163594978Y-134479214D01*
X163515982Y-134383724D01*
X163473566Y-134341603D01*
X163431684Y-134298834D01*
X163424584Y-134292961D01*
X163328545Y-134214633D01*
X163278703Y-134181518D01*
X163229362Y-134147733D01*
X163221256Y-134143350D01*
X163111832Y-134085168D01*
X163056554Y-134062384D01*
X163001545Y-134038807D01*
X162992741Y-134036082D01*
X162874101Y-134000262D01*
X162815372Y-133988633D01*
X162756905Y-133976206D01*
X162747747Y-133975244D01*
X162747744Y-133975243D01*
X162747741Y-133975243D01*
X162624402Y-133963150D01*
X162592419Y-133960000D01*
X151097581Y-133960000D01*
X151069581Y-133962758D01*
X151065745Y-133962731D01*
X151056574Y-133963631D01*
X150933323Y-133976586D01*
X150874733Y-133988613D01*
X150815971Y-133999822D01*
X150807149Y-134002486D01*
X150688762Y-134039133D01*
X150633632Y-134062308D01*
X150578153Y-134084722D01*
X150570017Y-134089049D01*
X150461002Y-134147993D01*
X150411422Y-134181435D01*
X150361355Y-134214197D01*
X150354214Y-134220022D01*
X150258724Y-134299018D01*
X150216603Y-134341434D01*
X150173834Y-134383316D01*
X150167961Y-134390416D01*
X150089633Y-134486455D01*
X150056518Y-134536297D01*
X150022733Y-134585638D01*
X150018350Y-134593744D01*
X149960168Y-134703168D01*
X149937384Y-134758446D01*
X149913807Y-134813455D01*
X149911082Y-134822259D01*
X149875262Y-134940899D01*
X149863641Y-134999592D01*
X149851206Y-135058095D01*
X149850244Y-135067253D01*
X149850244Y-135067254D01*
X149850243Y-135067259D01*
X149838150Y-135190598D01*
X149835000Y-135222582D01*
X141630000Y-135222582D01*
X141630000Y-114267582D01*
X149835000Y-114267582D01*
X149835001Y-125762419D01*
X149837758Y-125790410D01*
X149837731Y-125794255D01*
X149838631Y-125803426D01*
X149851586Y-125926677D01*
X149863615Y-125985274D01*
X149874822Y-126044028D01*
X149877486Y-126052850D01*
X149914133Y-126171238D01*
X149937308Y-126226368D01*
X149959722Y-126281847D01*
X149964049Y-126289983D01*
X150022992Y-126398998D01*
X150056437Y-126448582D01*
X150089197Y-126498645D01*
X150095022Y-126505786D01*
X150174018Y-126601276D01*
X150216467Y-126643430D01*
X150258315Y-126686165D01*
X150265416Y-126692039D01*
X150361455Y-126770367D01*
X150411281Y-126803472D01*
X150460638Y-126837267D01*
X150468744Y-126841650D01*
X150578167Y-126899832D01*
X150633459Y-126922621D01*
X150688455Y-126946193D01*
X150697258Y-126948918D01*
X150815899Y-126984737D01*
X150874583Y-126996357D01*
X150933094Y-127008794D01*
X150942250Y-127009756D01*
X150942255Y-127009757D01*
X150942259Y-127009757D01*
X151065597Y-127021850D01*
X151065598Y-127021850D01*
X151097581Y-127025000D01*
X162592419Y-127025000D01*
X162620419Y-127022242D01*
X162624255Y-127022269D01*
X162633426Y-127021369D01*
X162756677Y-127008414D01*
X162815274Y-126996385D01*
X162874028Y-126985178D01*
X162882850Y-126982514D01*
X163001238Y-126945867D01*
X163056368Y-126922692D01*
X163111847Y-126900278D01*
X163119983Y-126895951D01*
X163228998Y-126837008D01*
X163278582Y-126803563D01*
X163328645Y-126770803D01*
X163335786Y-126764978D01*
X163431276Y-126685982D01*
X163473430Y-126643533D01*
X163516165Y-126601685D01*
X163522039Y-126594584D01*
X163600367Y-126498545D01*
X163633472Y-126448719D01*
X163667267Y-126399362D01*
X163671650Y-126391256D01*
X163729832Y-126281833D01*
X163752621Y-126226541D01*
X163776193Y-126171545D01*
X163778918Y-126162742D01*
X163814737Y-126044101D01*
X163826359Y-125985408D01*
X163838794Y-125926906D01*
X163839756Y-125917750D01*
X163839757Y-125917745D01*
X163839757Y-125917741D01*
X163851850Y-125794403D01*
X163851850Y-125794402D01*
X163855000Y-125762419D01*
X163855000Y-114267582D01*
X196825000Y-114267582D01*
X196825001Y-125762419D01*
X196827758Y-125790410D01*
X196827731Y-125794255D01*
X196828631Y-125803426D01*
X196841586Y-125926677D01*
X196853615Y-125985274D01*
X196864822Y-126044028D01*
X196867486Y-126052850D01*
X196904133Y-126171238D01*
X196927308Y-126226368D01*
X196949722Y-126281847D01*
X196954049Y-126289983D01*
X197012992Y-126398998D01*
X197046437Y-126448582D01*
X197079197Y-126498645D01*
X197085022Y-126505786D01*
X197164018Y-126601276D01*
X197206467Y-126643430D01*
X197248315Y-126686165D01*
X197255416Y-126692039D01*
X197351455Y-126770367D01*
X197401281Y-126803472D01*
X197450638Y-126837267D01*
X197458744Y-126841650D01*
X197568167Y-126899832D01*
X197623459Y-126922621D01*
X197678455Y-126946193D01*
X197687258Y-126948918D01*
X197805899Y-126984737D01*
X197864583Y-126996357D01*
X197923094Y-127008794D01*
X197932250Y-127009756D01*
X197932255Y-127009757D01*
X197932259Y-127009757D01*
X198055597Y-127021850D01*
X198055598Y-127021850D01*
X198087581Y-127025000D01*
X209582419Y-127025000D01*
X209610419Y-127022242D01*
X209614255Y-127022269D01*
X209623426Y-127021369D01*
X209746677Y-127008414D01*
X209805274Y-126996385D01*
X209864028Y-126985178D01*
X209872850Y-126982514D01*
X209991238Y-126945867D01*
X210046368Y-126922692D01*
X210101847Y-126900278D01*
X210109983Y-126895951D01*
X210218998Y-126837008D01*
X210268582Y-126803563D01*
X210318645Y-126770803D01*
X210325786Y-126764978D01*
X210421276Y-126685982D01*
X210463430Y-126643533D01*
X210506165Y-126601685D01*
X210512039Y-126594584D01*
X210590367Y-126498545D01*
X210623472Y-126448719D01*
X210657267Y-126399362D01*
X210661650Y-126391256D01*
X210719832Y-126281833D01*
X210742621Y-126226541D01*
X210766193Y-126171545D01*
X210768918Y-126162742D01*
X210804737Y-126044101D01*
X210816359Y-125985408D01*
X210828794Y-125926906D01*
X210829756Y-125917750D01*
X210829757Y-125917745D01*
X210829757Y-125917741D01*
X210841850Y-125794403D01*
X210841850Y-125794402D01*
X210845000Y-125762419D01*
X210845000Y-114267581D01*
X210842242Y-114239581D01*
X210842269Y-114235745D01*
X210841369Y-114226574D01*
X210828414Y-114103323D01*
X210816387Y-114044733D01*
X210805178Y-113985971D01*
X210802514Y-113977149D01*
X210765867Y-113858762D01*
X210742692Y-113803632D01*
X210720278Y-113748153D01*
X210715951Y-113740017D01*
X210657007Y-113631002D01*
X210623565Y-113581422D01*
X210590803Y-113531355D01*
X210584978Y-113524214D01*
X210505982Y-113428724D01*
X210463566Y-113386603D01*
X210421684Y-113343834D01*
X210414584Y-113337961D01*
X210318545Y-113259633D01*
X210268703Y-113226518D01*
X210219362Y-113192733D01*
X210211256Y-113188350D01*
X210101832Y-113130168D01*
X210046554Y-113107384D01*
X209991545Y-113083807D01*
X209982741Y-113081082D01*
X209864101Y-113045262D01*
X209805372Y-113033633D01*
X209746905Y-113021206D01*
X209737747Y-113020244D01*
X209737744Y-113020243D01*
X209737741Y-113020243D01*
X209614402Y-113008150D01*
X209582419Y-113005000D01*
X198087581Y-113005000D01*
X198059581Y-113007758D01*
X198055745Y-113007731D01*
X198046574Y-113008631D01*
X197923323Y-113021586D01*
X197864733Y-113033613D01*
X197805971Y-113044822D01*
X197797149Y-113047486D01*
X197678762Y-113084133D01*
X197623632Y-113107308D01*
X197568153Y-113129722D01*
X197560017Y-113134049D01*
X197451002Y-113192993D01*
X197401422Y-113226435D01*
X197351355Y-113259197D01*
X197344214Y-113265022D01*
X197248724Y-113344018D01*
X197206603Y-113386434D01*
X197163834Y-113428316D01*
X197157961Y-113435416D01*
X197079633Y-113531455D01*
X197046518Y-113581297D01*
X197012733Y-113630638D01*
X197008350Y-113638744D01*
X196950168Y-113748168D01*
X196927384Y-113803446D01*
X196903807Y-113858455D01*
X196901082Y-113867259D01*
X196865262Y-113985899D01*
X196853641Y-114044592D01*
X196841206Y-114103095D01*
X196840244Y-114112253D01*
X196840244Y-114112254D01*
X196840243Y-114112259D01*
X196828150Y-114235598D01*
X196825000Y-114267582D01*
X163855000Y-114267582D01*
X163855000Y-114267581D01*
X163852242Y-114239581D01*
X163852269Y-114235745D01*
X163851369Y-114226574D01*
X163838414Y-114103323D01*
X163826387Y-114044733D01*
X163815178Y-113985971D01*
X163812514Y-113977149D01*
X163775867Y-113858762D01*
X163752692Y-113803632D01*
X163730278Y-113748153D01*
X163725951Y-113740017D01*
X163667007Y-113631002D01*
X163633565Y-113581422D01*
X163600803Y-113531355D01*
X163594978Y-113524214D01*
X163515982Y-113428724D01*
X163473566Y-113386603D01*
X163431684Y-113343834D01*
X163424584Y-113337961D01*
X163328545Y-113259633D01*
X163278703Y-113226518D01*
X163229362Y-113192733D01*
X163221256Y-113188350D01*
X163111832Y-113130168D01*
X163056554Y-113107384D01*
X163001545Y-113083807D01*
X162992741Y-113081082D01*
X162874101Y-113045262D01*
X162815372Y-113033633D01*
X162756905Y-113021206D01*
X162747747Y-113020244D01*
X162747744Y-113020243D01*
X162747741Y-113020243D01*
X162624402Y-113008150D01*
X162592419Y-113005000D01*
X151097581Y-113005000D01*
X151069581Y-113007758D01*
X151065745Y-113007731D01*
X151056574Y-113008631D01*
X150933323Y-113021586D01*
X150874733Y-113033613D01*
X150815971Y-113044822D01*
X150807149Y-113047486D01*
X150688762Y-113084133D01*
X150633632Y-113107308D01*
X150578153Y-113129722D01*
X150570017Y-113134049D01*
X150461002Y-113192993D01*
X150411422Y-113226435D01*
X150361355Y-113259197D01*
X150354214Y-113265022D01*
X150258724Y-113344018D01*
X150216603Y-113386434D01*
X150173834Y-113428316D01*
X150167961Y-113435416D01*
X150089633Y-113531455D01*
X150056518Y-113581297D01*
X150022733Y-113630638D01*
X150018350Y-113638744D01*
X149960168Y-113748168D01*
X149937384Y-113803446D01*
X149913807Y-113858455D01*
X149911082Y-113867259D01*
X149875262Y-113985899D01*
X149863641Y-114044592D01*
X149851206Y-114103095D01*
X149850244Y-114112253D01*
X149850244Y-114112254D01*
X149850243Y-114112259D01*
X149838150Y-114235598D01*
X149835000Y-114267582D01*
X141630000Y-114267582D01*
X141630000Y-93312582D01*
X149835000Y-93312582D01*
X149835001Y-104807419D01*
X149837758Y-104835410D01*
X149837731Y-104839255D01*
X149838631Y-104848426D01*
X149851586Y-104971677D01*
X149863615Y-105030274D01*
X149874822Y-105089028D01*
X149877486Y-105097850D01*
X149914133Y-105216238D01*
X149937308Y-105271368D01*
X149959722Y-105326847D01*
X149964049Y-105334983D01*
X150022992Y-105443998D01*
X150056437Y-105493582D01*
X150089197Y-105543645D01*
X150095022Y-105550786D01*
X150174018Y-105646276D01*
X150216467Y-105688430D01*
X150258315Y-105731165D01*
X150265416Y-105737039D01*
X150361455Y-105815367D01*
X150411281Y-105848472D01*
X150460638Y-105882267D01*
X150468744Y-105886650D01*
X150578167Y-105944832D01*
X150633459Y-105967621D01*
X150688455Y-105991193D01*
X150697258Y-105993918D01*
X150815899Y-106029737D01*
X150874583Y-106041357D01*
X150933094Y-106053794D01*
X150942250Y-106054756D01*
X150942255Y-106054757D01*
X150942259Y-106054757D01*
X151065597Y-106066850D01*
X151065598Y-106066850D01*
X151097581Y-106070000D01*
X162592419Y-106070000D01*
X162620419Y-106067242D01*
X162624255Y-106067269D01*
X162633426Y-106066369D01*
X162756677Y-106053414D01*
X162815274Y-106041385D01*
X162874028Y-106030178D01*
X162882850Y-106027514D01*
X163001238Y-105990867D01*
X163056368Y-105967692D01*
X163111847Y-105945278D01*
X163119983Y-105940951D01*
X163228998Y-105882008D01*
X163278582Y-105848563D01*
X163328645Y-105815803D01*
X163335786Y-105809978D01*
X163431276Y-105730982D01*
X163473430Y-105688533D01*
X163516165Y-105646685D01*
X163522039Y-105639584D01*
X163600367Y-105543545D01*
X163633472Y-105493719D01*
X163667267Y-105444362D01*
X163671650Y-105436256D01*
X163729832Y-105326833D01*
X163752621Y-105271541D01*
X163776193Y-105216545D01*
X163778918Y-105207742D01*
X163814737Y-105089101D01*
X163826359Y-105030408D01*
X163838794Y-104971906D01*
X163839756Y-104962750D01*
X163839757Y-104962745D01*
X163839757Y-104962741D01*
X163851850Y-104839403D01*
X163851850Y-104839402D01*
X163855000Y-104807419D01*
X163855000Y-93312581D01*
X163852242Y-93284581D01*
X163852269Y-93280745D01*
X163851369Y-93271574D01*
X163838414Y-93148323D01*
X163826387Y-93089733D01*
X163815178Y-93030971D01*
X163812514Y-93022149D01*
X163775867Y-92903762D01*
X163752692Y-92848632D01*
X163730278Y-92793153D01*
X163725951Y-92785017D01*
X163667007Y-92676002D01*
X163633565Y-92626422D01*
X163600803Y-92576355D01*
X163594978Y-92569214D01*
X163515982Y-92473724D01*
X163473566Y-92431603D01*
X163431684Y-92388834D01*
X163424584Y-92382961D01*
X163328545Y-92304633D01*
X163278703Y-92271518D01*
X163229362Y-92237733D01*
X163221256Y-92233350D01*
X163111832Y-92175168D01*
X163056554Y-92152384D01*
X163001545Y-92128807D01*
X162992741Y-92126082D01*
X162874101Y-92090262D01*
X162815372Y-92078633D01*
X162756905Y-92066206D01*
X162747747Y-92065244D01*
X162747744Y-92065243D01*
X162747741Y-92065243D01*
X162624402Y-92053150D01*
X162592419Y-92050000D01*
X151097581Y-92050000D01*
X151069581Y-92052758D01*
X151065745Y-92052731D01*
X151056574Y-92053631D01*
X150933323Y-92066586D01*
X150874733Y-92078613D01*
X150815971Y-92089822D01*
X150807149Y-92092486D01*
X150688762Y-92129133D01*
X150633632Y-92152308D01*
X150578153Y-92174722D01*
X150570017Y-92179049D01*
X150461002Y-92237993D01*
X150411422Y-92271435D01*
X150361355Y-92304197D01*
X150354214Y-92310022D01*
X150258724Y-92389018D01*
X150216603Y-92431434D01*
X150173834Y-92473316D01*
X150167961Y-92480416D01*
X150089633Y-92576455D01*
X150056518Y-92626297D01*
X150022733Y-92675638D01*
X150018350Y-92683744D01*
X149960168Y-92793168D01*
X149937390Y-92848432D01*
X149913807Y-92903455D01*
X149911082Y-92912259D01*
X149875262Y-93030899D01*
X149863641Y-93089592D01*
X149851206Y-93148095D01*
X149850244Y-93157253D01*
X149850244Y-93157254D01*
X149850243Y-93157259D01*
X149838150Y-93280598D01*
X149835000Y-93312582D01*
X141630000Y-93312582D01*
X141630000Y-87394609D01*
X142654997Y-87394609D01*
X142841073Y-87735766D01*
X143258409Y-87951513D01*
X143709815Y-88081696D01*
X144177946Y-88121313D01*
X144644811Y-88068842D01*
X145092468Y-87926297D01*
X145448927Y-87735766D01*
X145635003Y-87394609D01*
X144145000Y-85904605D01*
X142654997Y-87394609D01*
X141630000Y-87394609D01*
X141630000Y-85757946D01*
X141748687Y-85757946D01*
X141801158Y-86224811D01*
X141943703Y-86672468D01*
X142134234Y-87028927D01*
X142475391Y-87215003D01*
X143965395Y-85725000D01*
X144324605Y-85725000D01*
X145814609Y-87215003D01*
X146155766Y-87028927D01*
X146371513Y-86611591D01*
X146501696Y-86160185D01*
X146541313Y-85692054D01*
X146517850Y-85483290D01*
X150580874Y-85483290D01*
X150580874Y-85966710D01*
X150675185Y-86440842D01*
X150860182Y-86887464D01*
X151128756Y-87289414D01*
X151470586Y-87631244D01*
X151872536Y-87899818D01*
X152319158Y-88084815D01*
X152793290Y-88179126D01*
X153276710Y-88179126D01*
X153750842Y-88084815D01*
X154197464Y-87899818D01*
X154599414Y-87631244D01*
X154941244Y-87289414D01*
X155209818Y-86887464D01*
X155394815Y-86440842D01*
X155489126Y-85966710D01*
X155489126Y-85483290D01*
X158200874Y-85483290D01*
X158200874Y-85966710D01*
X158295185Y-86440842D01*
X158480182Y-86887464D01*
X158748756Y-87289414D01*
X159090586Y-87631244D01*
X159492536Y-87899818D01*
X159939158Y-88084815D01*
X160413290Y-88179126D01*
X160896710Y-88179126D01*
X161370842Y-88084815D01*
X161817464Y-87899818D01*
X162219414Y-87631244D01*
X162561244Y-87289414D01*
X162829818Y-86887464D01*
X163014815Y-86440842D01*
X163109126Y-85966710D01*
X163109126Y-85483290D01*
X163014815Y-85009158D01*
X162829818Y-84562536D01*
X162561244Y-84160586D01*
X162219414Y-83818756D01*
X161817464Y-83550182D01*
X161370842Y-83365185D01*
X160896710Y-83270874D01*
X160413290Y-83270874D01*
X159939158Y-83365185D01*
X159492536Y-83550182D01*
X159090586Y-83818756D01*
X158748756Y-84160586D01*
X158480182Y-84562536D01*
X158295185Y-85009158D01*
X158200874Y-85483290D01*
X155489126Y-85483290D01*
X155394815Y-85009158D01*
X155209818Y-84562536D01*
X154941244Y-84160586D01*
X154599414Y-83818756D01*
X154197464Y-83550182D01*
X153750842Y-83365185D01*
X153276710Y-83270874D01*
X152793290Y-83270874D01*
X152319158Y-83365185D01*
X151872536Y-83550182D01*
X151470586Y-83818756D01*
X151128756Y-84160586D01*
X150860182Y-84562536D01*
X150675185Y-85009158D01*
X150580874Y-85483290D01*
X146517850Y-85483290D01*
X146488842Y-85225189D01*
X146346297Y-84777532D01*
X146155766Y-84421073D01*
X145814609Y-84234997D01*
X144324605Y-85725000D01*
X143965395Y-85725000D01*
X142475391Y-84234997D01*
X142134234Y-84421073D01*
X141918487Y-84838409D01*
X141788304Y-85289815D01*
X141748687Y-85757946D01*
X141630000Y-85757946D01*
X141630000Y-85757278D01*
X141681002Y-85237116D01*
X141822694Y-84767812D01*
X142052837Y-84334975D01*
X142280860Y-84055391D01*
X142654997Y-84055391D01*
X144145000Y-85545395D01*
X145635003Y-84055391D01*
X145448927Y-83714234D01*
X145031591Y-83498487D01*
X144580185Y-83368304D01*
X144112054Y-83328687D01*
X143645189Y-83381158D01*
X143197532Y-83523703D01*
X142841073Y-83714234D01*
X142654997Y-84055391D01*
X142280860Y-84055391D01*
X142362678Y-83955073D01*
X142740397Y-83642597D01*
X143171627Y-83409431D01*
X143639928Y-83264468D01*
X144158153Y-83210000D01*
X188562725Y-83210000D01*
X188569513Y-83210666D01*
G04 #@! TA.AperFunction,Conductor*
D12*
G36*
X188569513Y-83210666D02*
G01*
X188570001Y-83215310D01*
X188570000Y-92107418D01*
X188572758Y-92135419D01*
X188572731Y-92139255D01*
X188573631Y-92148426D01*
X188586586Y-92271677D01*
X188598615Y-92330274D01*
X188609822Y-92389028D01*
X188612486Y-92397850D01*
X188649133Y-92516238D01*
X188672308Y-92571368D01*
X188694722Y-92626847D01*
X188699049Y-92634983D01*
X188757992Y-92743998D01*
X188791437Y-92793582D01*
X188824197Y-92843645D01*
X188830022Y-92850786D01*
X188909018Y-92946276D01*
X188951467Y-92988430D01*
X188993315Y-93031165D01*
X189000416Y-93037039D01*
X189096455Y-93115367D01*
X189146281Y-93148472D01*
X189195638Y-93182267D01*
X189203744Y-93186650D01*
X189313167Y-93244832D01*
X189368459Y-93267621D01*
X189423455Y-93291193D01*
X189432258Y-93293918D01*
X189550899Y-93329737D01*
X189609583Y-93341357D01*
X189668094Y-93353794D01*
X189677250Y-93354756D01*
X189677255Y-93354757D01*
X189677259Y-93354757D01*
X189800597Y-93366850D01*
X189800598Y-93366850D01*
X189832581Y-93370000D01*
X233077419Y-93370000D01*
X233105419Y-93367242D01*
X233109255Y-93367269D01*
X233118426Y-93366369D01*
X233241677Y-93353414D01*
X233300274Y-93341385D01*
X233359028Y-93330178D01*
X233367850Y-93327514D01*
X233486238Y-93290867D01*
X233541368Y-93267692D01*
X233596847Y-93245278D01*
X233604983Y-93240951D01*
X233713998Y-93182008D01*
X233763582Y-93148563D01*
X233813645Y-93115803D01*
X233820786Y-93109978D01*
X233916276Y-93030982D01*
X233958430Y-92988533D01*
X234001165Y-92946685D01*
X234007039Y-92939584D01*
X234085367Y-92843545D01*
X234118472Y-92793719D01*
X234152267Y-92744362D01*
X234156650Y-92736256D01*
X234214832Y-92626833D01*
X234237621Y-92571541D01*
X234261193Y-92516545D01*
X234263918Y-92507742D01*
X234299737Y-92389101D01*
X234311359Y-92330408D01*
X234323794Y-92271906D01*
X234324756Y-92262750D01*
X234324757Y-92262745D01*
X234324757Y-92262741D01*
X234336850Y-92139403D01*
X234336850Y-92139402D01*
X234340000Y-92107419D01*
X234340000Y-87394609D01*
X235999997Y-87394609D01*
X236186073Y-87735766D01*
X236603409Y-87951513D01*
X237054815Y-88081696D01*
X237522946Y-88121313D01*
X237989811Y-88068842D01*
X238437468Y-87926297D01*
X238793927Y-87735766D01*
X238980003Y-87394609D01*
X237490000Y-85904605D01*
X235999997Y-87394609D01*
X234340000Y-87394609D01*
X234340000Y-85757946D01*
X235093687Y-85757946D01*
X235146158Y-86224811D01*
X235288703Y-86672468D01*
X235479234Y-87028927D01*
X235820391Y-87215003D01*
X237310395Y-85725000D01*
X237669605Y-85725000D01*
X239159609Y-87215003D01*
X239500766Y-87028927D01*
X239716513Y-86611591D01*
X239846696Y-86160185D01*
X239886313Y-85692054D01*
X239833842Y-85225189D01*
X239691297Y-84777532D01*
X239500766Y-84421073D01*
X239159609Y-84234997D01*
X237669605Y-85725000D01*
X237310395Y-85725000D01*
X235820391Y-84234997D01*
X235479234Y-84421073D01*
X235263487Y-84838409D01*
X235133304Y-85289815D01*
X235093687Y-85757946D01*
X234340000Y-85757946D01*
X234340000Y-84055391D01*
X235999997Y-84055391D01*
X237490000Y-85545395D01*
X238980003Y-84055391D01*
X238793927Y-83714234D01*
X238376591Y-83498487D01*
X237925185Y-83368304D01*
X237457054Y-83328687D01*
X236990189Y-83381158D01*
X236542532Y-83523703D01*
X236186073Y-83714234D01*
X235999997Y-84055391D01*
X234340000Y-84055391D01*
X234340000Y-83217275D01*
X234340666Y-83210487D01*
X234345301Y-83210000D01*
X237457722Y-83210000D01*
X237977884Y-83261002D01*
X238447188Y-83402694D01*
X238880025Y-83632837D01*
X239259927Y-83942678D01*
X239572403Y-84320397D01*
X239805569Y-84751627D01*
X239950532Y-85219928D01*
X240005000Y-85738153D01*
X240005001Y-154272712D01*
X239953998Y-154792883D01*
X239812307Y-155262186D01*
X239582161Y-155695028D01*
X239272323Y-156074927D01*
X238894600Y-156387406D01*
X238463373Y-156620569D01*
X237995073Y-156765532D01*
X237476847Y-156820000D01*
X144177278Y-156820000D01*
X143657117Y-156768998D01*
X143187814Y-156627307D01*
X142754972Y-156397161D01*
X142375073Y-156087323D01*
X142281829Y-155974609D01*
X142654997Y-155974609D01*
X142841073Y-156315766D01*
X143258409Y-156531513D01*
X143709815Y-156661696D01*
X144177946Y-156701313D01*
X144644811Y-156648842D01*
X145092468Y-156506297D01*
X145448927Y-156315766D01*
X145635003Y-155974609D01*
X235999997Y-155974609D01*
X236186073Y-156315766D01*
X236603409Y-156531513D01*
X237054815Y-156661696D01*
X237522946Y-156701313D01*
X237989811Y-156648842D01*
X238437468Y-156506297D01*
X238793927Y-156315766D01*
X238980003Y-155974609D01*
X237490000Y-154484605D01*
X235999997Y-155974609D01*
X145635003Y-155974609D01*
X144145000Y-154484605D01*
X142654997Y-155974609D01*
X142281829Y-155974609D01*
X142062594Y-155709600D01*
X141829431Y-155278373D01*
X141684468Y-154810073D01*
X141634846Y-154337946D01*
X141748687Y-154337946D01*
X141801158Y-154804811D01*
X141943703Y-155252468D01*
X142134234Y-155608927D01*
X142475391Y-155795003D01*
X143965395Y-154305000D01*
X144324605Y-154305000D01*
X145814609Y-155795003D01*
X146155766Y-155608927D01*
X146371513Y-155191591D01*
X146501696Y-154740185D01*
X146535736Y-154337946D01*
X235093687Y-154337946D01*
X235146158Y-154804811D01*
X235288703Y-155252468D01*
X235479234Y-155608927D01*
X235820391Y-155795003D01*
X237310395Y-154305000D01*
X237669605Y-154305000D01*
X239159609Y-155795003D01*
X239500766Y-155608927D01*
X239716513Y-155191591D01*
X239846696Y-154740185D01*
X239886313Y-154272054D01*
X239833842Y-153805189D01*
X239691297Y-153357532D01*
X239500766Y-153001073D01*
X239159609Y-152814997D01*
X237669605Y-154305000D01*
X237310395Y-154305000D01*
X235820391Y-152814997D01*
X235479234Y-153001073D01*
X235263487Y-153418409D01*
X235133304Y-153869815D01*
X235093687Y-154337946D01*
X146535736Y-154337946D01*
X146541313Y-154272054D01*
X146488842Y-153805189D01*
X146346297Y-153357532D01*
X146155766Y-153001073D01*
X145814609Y-152814997D01*
X144324605Y-154305000D01*
X143965395Y-154305000D01*
X142475391Y-152814997D01*
X142134234Y-153001073D01*
X141918487Y-153418409D01*
X141788304Y-153869815D01*
X141748687Y-154337946D01*
X141634846Y-154337946D01*
X141630000Y-154291847D01*
X141630000Y-152635391D01*
X142654997Y-152635391D01*
X144145000Y-154125395D01*
X145635003Y-152635391D01*
X235999997Y-152635391D01*
X237490000Y-154125395D01*
X238980003Y-152635391D01*
X238793927Y-152294234D01*
X238376591Y-152078487D01*
X237925185Y-151948304D01*
X237457054Y-151908687D01*
X236990189Y-151961158D01*
X236542532Y-152103703D01*
X236186073Y-152294234D01*
X235999997Y-152635391D01*
X145635003Y-152635391D01*
X145448927Y-152294234D01*
X145031591Y-152078487D01*
X144580185Y-151948304D01*
X144112054Y-151908687D01*
X143645189Y-151961158D01*
X143197532Y-152103703D01*
X142841073Y-152294234D01*
X142654997Y-152635391D01*
X141630000Y-152635391D01*
X141630000Y-135222582D01*
X149835000Y-135222582D01*
X149835001Y-146717419D01*
X149837758Y-146745410D01*
X149837731Y-146749255D01*
X149838631Y-146758426D01*
X149851586Y-146881677D01*
X149863615Y-146940274D01*
X149874822Y-146999028D01*
X149877486Y-147007850D01*
X149914133Y-147126238D01*
X149937308Y-147181368D01*
X149959722Y-147236847D01*
X149964049Y-147244983D01*
X150022992Y-147353998D01*
X150056437Y-147403582D01*
X150089197Y-147453645D01*
X150095022Y-147460786D01*
X150174018Y-147556276D01*
X150216467Y-147598430D01*
X150258315Y-147641165D01*
X150265416Y-147647039D01*
X150361455Y-147725367D01*
X150411281Y-147758472D01*
X150460638Y-147792267D01*
X150468744Y-147796650D01*
X150578167Y-147854832D01*
X150633459Y-147877621D01*
X150688455Y-147901193D01*
X150697258Y-147903918D01*
X150815899Y-147939737D01*
X150874583Y-147951357D01*
X150933094Y-147963794D01*
X150942250Y-147964756D01*
X150942255Y-147964757D01*
X150942259Y-147964757D01*
X151065597Y-147976850D01*
X151065598Y-147976850D01*
X151097581Y-147980000D01*
X162592419Y-147980000D01*
X162620419Y-147977242D01*
X162624255Y-147977269D01*
X162633426Y-147976369D01*
X162756677Y-147963414D01*
X162815274Y-147951385D01*
X162874028Y-147940178D01*
X162882850Y-147937514D01*
X163001238Y-147900867D01*
X163056368Y-147877692D01*
X163111847Y-147855278D01*
X163119983Y-147850951D01*
X163228998Y-147792008D01*
X163278582Y-147758563D01*
X163328645Y-147725803D01*
X163335786Y-147719978D01*
X163431276Y-147640982D01*
X163473430Y-147598533D01*
X163516165Y-147556685D01*
X163522039Y-147549584D01*
X163600367Y-147453545D01*
X163633472Y-147403719D01*
X163667267Y-147354362D01*
X163671650Y-147346256D01*
X163729832Y-147236833D01*
X163752621Y-147181541D01*
X163776193Y-147126545D01*
X163778918Y-147117742D01*
X163814737Y-146999101D01*
X163826359Y-146940408D01*
X163838794Y-146881906D01*
X163839756Y-146872750D01*
X163839757Y-146872745D01*
X163839757Y-146872741D01*
X163851850Y-146749403D01*
X163851850Y-146749402D01*
X163855000Y-146717419D01*
X163855000Y-135222582D01*
X175870000Y-135222582D01*
X175870001Y-146717419D01*
X175872758Y-146745410D01*
X175872731Y-146749255D01*
X175873631Y-146758426D01*
X175886586Y-146881677D01*
X175898615Y-146940274D01*
X175909822Y-146999028D01*
X175912486Y-147007850D01*
X175949133Y-147126238D01*
X175972308Y-147181368D01*
X175994722Y-147236847D01*
X175999049Y-147244983D01*
X176057992Y-147353998D01*
X176091437Y-147403582D01*
X176124197Y-147453645D01*
X176130022Y-147460786D01*
X176209018Y-147556276D01*
X176251467Y-147598430D01*
X176293315Y-147641165D01*
X176300416Y-147647039D01*
X176396455Y-147725367D01*
X176446281Y-147758472D01*
X176495638Y-147792267D01*
X176503744Y-147796650D01*
X176613167Y-147854832D01*
X176668459Y-147877621D01*
X176723455Y-147901193D01*
X176732258Y-147903918D01*
X176850899Y-147939737D01*
X176909583Y-147951357D01*
X176968094Y-147963794D01*
X176977250Y-147964756D01*
X176977255Y-147964757D01*
X176977259Y-147964757D01*
X177100597Y-147976850D01*
X177100598Y-147976850D01*
X177132581Y-147980000D01*
X188627419Y-147980000D01*
X188655419Y-147977242D01*
X188659255Y-147977269D01*
X188668426Y-147976369D01*
X188791677Y-147963414D01*
X188850274Y-147951385D01*
X188909028Y-147940178D01*
X188917850Y-147937514D01*
X189036238Y-147900867D01*
X189091368Y-147877692D01*
X189146847Y-147855278D01*
X189154983Y-147850951D01*
X189263998Y-147792008D01*
X189313582Y-147758563D01*
X189363645Y-147725803D01*
X189370786Y-147719978D01*
X189466276Y-147640982D01*
X189508430Y-147598533D01*
X189551165Y-147556685D01*
X189557039Y-147549584D01*
X189635367Y-147453545D01*
X189668472Y-147403719D01*
X189702267Y-147354362D01*
X189706650Y-147346256D01*
X189764832Y-147236833D01*
X189787621Y-147181541D01*
X189811193Y-147126545D01*
X189813918Y-147117742D01*
X189849737Y-146999101D01*
X189861359Y-146940408D01*
X189873794Y-146881906D01*
X189874756Y-146872750D01*
X189874757Y-146872745D01*
X189874757Y-146872741D01*
X189886850Y-146749403D01*
X189886850Y-146749402D01*
X189890000Y-146717419D01*
X189890000Y-135222582D01*
X196825000Y-135222582D01*
X196825001Y-146717419D01*
X196827758Y-146745410D01*
X196827731Y-146749255D01*
X196828631Y-146758426D01*
X196841586Y-146881677D01*
X196853615Y-146940274D01*
X196864822Y-146999028D01*
X196867486Y-147007850D01*
X196904133Y-147126238D01*
X196927308Y-147181368D01*
X196949722Y-147236847D01*
X196954049Y-147244983D01*
X197012992Y-147353998D01*
X197046437Y-147403582D01*
X197079197Y-147453645D01*
X197085022Y-147460786D01*
X197164018Y-147556276D01*
X197206467Y-147598430D01*
X197248315Y-147641165D01*
X197255416Y-147647039D01*
X197351455Y-147725367D01*
X197401281Y-147758472D01*
X197450638Y-147792267D01*
X197458744Y-147796650D01*
X197568167Y-147854832D01*
X197623459Y-147877621D01*
X197678455Y-147901193D01*
X197687258Y-147903918D01*
X197805899Y-147939737D01*
X197864583Y-147951357D01*
X197923094Y-147963794D01*
X197932250Y-147964756D01*
X197932255Y-147964757D01*
X197932259Y-147964757D01*
X198055597Y-147976850D01*
X198055598Y-147976850D01*
X198087581Y-147980000D01*
X209582419Y-147980000D01*
X209610419Y-147977242D01*
X209614255Y-147977269D01*
X209623426Y-147976369D01*
X209746677Y-147963414D01*
X209805274Y-147951385D01*
X209864028Y-147940178D01*
X209872850Y-147937514D01*
X209991238Y-147900867D01*
X210046368Y-147877692D01*
X210101847Y-147855278D01*
X210109983Y-147850951D01*
X210218998Y-147792008D01*
X210268582Y-147758563D01*
X210318645Y-147725803D01*
X210325786Y-147719978D01*
X210421276Y-147640982D01*
X210463430Y-147598533D01*
X210506165Y-147556685D01*
X210512039Y-147549584D01*
X210590367Y-147453545D01*
X210623472Y-147403719D01*
X210657267Y-147354362D01*
X210661650Y-147346256D01*
X210719832Y-147236833D01*
X210742621Y-147181541D01*
X210766193Y-147126545D01*
X210768918Y-147117742D01*
X210804737Y-146999101D01*
X210816359Y-146940408D01*
X210828794Y-146881906D01*
X210829756Y-146872750D01*
X210829757Y-146872745D01*
X210829757Y-146872741D01*
X210841850Y-146749403D01*
X210841850Y-146749402D01*
X210845000Y-146717419D01*
X210845000Y-135222582D01*
X217780000Y-135222582D01*
X217780001Y-146717419D01*
X217782758Y-146745410D01*
X217782731Y-146749255D01*
X217783631Y-146758426D01*
X217796586Y-146881677D01*
X217808615Y-146940274D01*
X217819822Y-146999028D01*
X217822486Y-147007850D01*
X217859133Y-147126238D01*
X217882308Y-147181368D01*
X217904722Y-147236847D01*
X217909049Y-147244983D01*
X217967992Y-147353998D01*
X218001437Y-147403582D01*
X218034197Y-147453645D01*
X218040022Y-147460786D01*
X218119018Y-147556276D01*
X218161467Y-147598430D01*
X218203315Y-147641165D01*
X218210416Y-147647039D01*
X218306455Y-147725367D01*
X218356281Y-147758472D01*
X218405638Y-147792267D01*
X218413744Y-147796650D01*
X218523167Y-147854832D01*
X218578459Y-147877621D01*
X218633455Y-147901193D01*
X218642258Y-147903918D01*
X218760899Y-147939737D01*
X218819583Y-147951357D01*
X218878094Y-147963794D01*
X218887250Y-147964756D01*
X218887255Y-147964757D01*
X218887259Y-147964757D01*
X219010597Y-147976850D01*
X219010598Y-147976850D01*
X219042581Y-147980000D01*
X230537419Y-147980000D01*
X230565419Y-147977242D01*
X230569255Y-147977269D01*
X230578426Y-147976369D01*
X230701677Y-147963414D01*
X230760274Y-147951385D01*
X230819028Y-147940178D01*
X230827850Y-147937514D01*
X230946238Y-147900867D01*
X231001368Y-147877692D01*
X231056847Y-147855278D01*
X231064983Y-147850951D01*
X231173998Y-147792008D01*
X231223582Y-147758563D01*
X231273645Y-147725803D01*
X231280786Y-147719978D01*
X231376276Y-147640982D01*
X231418430Y-147598533D01*
X231461165Y-147556685D01*
X231467039Y-147549584D01*
X231545367Y-147453545D01*
X231578472Y-147403719D01*
X231612267Y-147354362D01*
X231616650Y-147346256D01*
X231674832Y-147236833D01*
X231697621Y-147181541D01*
X231721193Y-147126545D01*
X231723918Y-147117742D01*
X231759737Y-146999101D01*
X231771359Y-146940408D01*
X231783794Y-146881906D01*
X231784756Y-146872750D01*
X231784757Y-146872745D01*
X231784757Y-146872741D01*
X231796850Y-146749403D01*
X231796850Y-146749402D01*
X231800000Y-146717419D01*
X231800000Y-135222581D01*
X231797242Y-135194581D01*
X231797269Y-135190745D01*
X231796369Y-135181574D01*
X231783414Y-135058323D01*
X231771387Y-134999733D01*
X231760178Y-134940971D01*
X231757514Y-134932149D01*
X231720867Y-134813762D01*
X231697692Y-134758632D01*
X231675278Y-134703153D01*
X231670951Y-134695017D01*
X231612007Y-134586002D01*
X231578565Y-134536422D01*
X231545803Y-134486355D01*
X231539978Y-134479214D01*
X231460982Y-134383724D01*
X231418566Y-134341603D01*
X231376684Y-134298834D01*
X231369584Y-134292961D01*
X231273545Y-134214633D01*
X231223703Y-134181518D01*
X231174362Y-134147733D01*
X231166256Y-134143350D01*
X231056832Y-134085168D01*
X231001554Y-134062384D01*
X230946545Y-134038807D01*
X230937741Y-134036082D01*
X230819101Y-134000262D01*
X230760372Y-133988633D01*
X230701905Y-133976206D01*
X230692747Y-133975244D01*
X230692744Y-133975243D01*
X230692741Y-133975243D01*
X230569402Y-133963150D01*
X230537419Y-133960000D01*
X219042581Y-133960000D01*
X219014581Y-133962758D01*
X219010745Y-133962731D01*
X219001574Y-133963631D01*
X218878323Y-133976586D01*
X218819733Y-133988613D01*
X218760971Y-133999822D01*
X218752149Y-134002486D01*
X218633762Y-134039133D01*
X218578632Y-134062308D01*
X218523153Y-134084722D01*
X218515017Y-134089049D01*
X218406002Y-134147993D01*
X218356422Y-134181435D01*
X218306355Y-134214197D01*
X218299214Y-134220022D01*
X218203724Y-134299018D01*
X218161603Y-134341434D01*
X218118834Y-134383316D01*
X218112961Y-134390416D01*
X218034633Y-134486455D01*
X218001518Y-134536297D01*
X217967733Y-134585638D01*
X217963350Y-134593744D01*
X217905168Y-134703168D01*
X217882384Y-134758446D01*
X217858807Y-134813455D01*
X217856082Y-134822259D01*
X217820262Y-134940899D01*
X217808641Y-134999592D01*
X217796206Y-135058095D01*
X217795244Y-135067253D01*
X217795244Y-135067254D01*
X217795243Y-135067259D01*
X217783150Y-135190598D01*
X217780000Y-135222582D01*
X210845000Y-135222582D01*
X210845000Y-135222581D01*
X210842242Y-135194581D01*
X210842269Y-135190745D01*
X210841369Y-135181574D01*
X210828414Y-135058323D01*
X210816387Y-134999733D01*
X210805178Y-134940971D01*
X210802514Y-134932149D01*
X210765867Y-134813762D01*
X210742692Y-134758632D01*
X210720278Y-134703153D01*
X210715951Y-134695017D01*
X210657007Y-134586002D01*
X210623565Y-134536422D01*
X210590803Y-134486355D01*
X210584978Y-134479214D01*
X210505982Y-134383724D01*
X210463566Y-134341603D01*
X210421684Y-134298834D01*
X210414584Y-134292961D01*
X210318545Y-134214633D01*
X210268703Y-134181518D01*
X210219362Y-134147733D01*
X210211256Y-134143350D01*
X210101832Y-134085168D01*
X210046554Y-134062384D01*
X209991545Y-134038807D01*
X209982741Y-134036082D01*
X209864101Y-134000262D01*
X209805372Y-133988633D01*
X209746905Y-133976206D01*
X209737747Y-133975244D01*
X209737744Y-133975243D01*
X209737741Y-133975243D01*
X209614402Y-133963150D01*
X209582419Y-133960000D01*
X198087581Y-133960000D01*
X198059581Y-133962758D01*
X198055745Y-133962731D01*
X198046574Y-133963631D01*
X197923323Y-133976586D01*
X197864733Y-133988613D01*
X197805971Y-133999822D01*
X197797149Y-134002486D01*
X197678762Y-134039133D01*
X197623632Y-134062308D01*
X197568153Y-134084722D01*
X197560017Y-134089049D01*
X197451002Y-134147993D01*
X197401422Y-134181435D01*
X197351355Y-134214197D01*
X197344214Y-134220022D01*
X197248724Y-134299018D01*
X197206603Y-134341434D01*
X197163834Y-134383316D01*
X197157961Y-134390416D01*
X197079633Y-134486455D01*
X197046518Y-134536297D01*
X197012733Y-134585638D01*
X197008350Y-134593744D01*
X196950168Y-134703168D01*
X196927384Y-134758446D01*
X196903807Y-134813455D01*
X196901082Y-134822259D01*
X196865262Y-134940899D01*
X196853641Y-134999592D01*
X196841206Y-135058095D01*
X196840244Y-135067253D01*
X196840244Y-135067254D01*
X196840243Y-135067259D01*
X196828150Y-135190598D01*
X196825000Y-135222582D01*
X189890000Y-135222582D01*
X189890000Y-135222581D01*
X189887242Y-135194581D01*
X189887269Y-135190745D01*
X189886369Y-135181574D01*
X189873414Y-135058323D01*
X189861387Y-134999733D01*
X189850178Y-134940971D01*
X189847514Y-134932149D01*
X189810867Y-134813762D01*
X189787692Y-134758632D01*
X189765278Y-134703153D01*
X189760951Y-134695017D01*
X189702007Y-134586002D01*
X189668565Y-134536422D01*
X189635803Y-134486355D01*
X189629978Y-134479214D01*
X189550982Y-134383724D01*
X189508566Y-134341603D01*
X189466684Y-134298834D01*
X189459584Y-134292961D01*
X189363545Y-134214633D01*
X189313703Y-134181518D01*
X189264362Y-134147733D01*
X189256256Y-134143350D01*
X189146832Y-134085168D01*
X189091554Y-134062384D01*
X189036545Y-134038807D01*
X189027741Y-134036082D01*
X188909101Y-134000262D01*
X188850372Y-133988633D01*
X188791905Y-133976206D01*
X188782747Y-133975244D01*
X188782744Y-133975243D01*
X188782741Y-133975243D01*
X188659402Y-133963150D01*
X188627419Y-133960000D01*
X177132581Y-133960000D01*
X177104581Y-133962758D01*
X177100745Y-133962731D01*
X177091574Y-133963631D01*
X176968323Y-133976586D01*
X176909733Y-133988613D01*
X176850971Y-133999822D01*
X176842149Y-134002486D01*
X176723762Y-134039133D01*
X176668632Y-134062308D01*
X176613153Y-134084722D01*
X176605017Y-134089049D01*
X176496002Y-134147993D01*
X176446422Y-134181435D01*
X176396355Y-134214197D01*
X176389214Y-134220022D01*
X176293724Y-134299018D01*
X176251603Y-134341434D01*
X176208834Y-134383316D01*
X176202961Y-134390416D01*
X176124633Y-134486455D01*
X176091518Y-134536297D01*
X176057733Y-134585638D01*
X176053350Y-134593744D01*
X175995168Y-134703168D01*
X175972384Y-134758446D01*
X175948807Y-134813455D01*
X175946082Y-134822259D01*
X175910262Y-134940899D01*
X175898641Y-134999592D01*
X175886206Y-135058095D01*
X175885244Y-135067253D01*
X175885244Y-135067254D01*
X175885243Y-135067259D01*
X175873150Y-135190598D01*
X175870000Y-135222582D01*
X163855000Y-135222582D01*
X163855000Y-135222581D01*
X163852242Y-135194581D01*
X163852269Y-135190745D01*
X163851369Y-135181574D01*
X163838414Y-135058323D01*
X163826387Y-134999733D01*
X163815178Y-134940971D01*
X163812514Y-134932149D01*
X163775867Y-134813762D01*
X163752692Y-134758632D01*
X163730278Y-134703153D01*
X163725951Y-134695017D01*
X163667007Y-134586002D01*
X163633565Y-134536422D01*
X163600803Y-134486355D01*
X163594978Y-134479214D01*
X163515982Y-134383724D01*
X163473566Y-134341603D01*
X163431684Y-134298834D01*
X163424584Y-134292961D01*
X163328545Y-134214633D01*
X163278703Y-134181518D01*
X163229362Y-134147733D01*
X163221256Y-134143350D01*
X163111832Y-134085168D01*
X163056554Y-134062384D01*
X163001545Y-134038807D01*
X162992741Y-134036082D01*
X162874101Y-134000262D01*
X162815372Y-133988633D01*
X162756905Y-133976206D01*
X162747747Y-133975244D01*
X162747744Y-133975243D01*
X162747741Y-133975243D01*
X162624402Y-133963150D01*
X162592419Y-133960000D01*
X151097581Y-133960000D01*
X151069581Y-133962758D01*
X151065745Y-133962731D01*
X151056574Y-133963631D01*
X150933323Y-133976586D01*
X150874733Y-133988613D01*
X150815971Y-133999822D01*
X150807149Y-134002486D01*
X150688762Y-134039133D01*
X150633632Y-134062308D01*
X150578153Y-134084722D01*
X150570017Y-134089049D01*
X150461002Y-134147993D01*
X150411422Y-134181435D01*
X150361355Y-134214197D01*
X150354214Y-134220022D01*
X150258724Y-134299018D01*
X150216603Y-134341434D01*
X150173834Y-134383316D01*
X150167961Y-134390416D01*
X150089633Y-134486455D01*
X150056518Y-134536297D01*
X150022733Y-134585638D01*
X150018350Y-134593744D01*
X149960168Y-134703168D01*
X149937384Y-134758446D01*
X149913807Y-134813455D01*
X149911082Y-134822259D01*
X149875262Y-134940899D01*
X149863641Y-134999592D01*
X149851206Y-135058095D01*
X149850244Y-135067253D01*
X149850244Y-135067254D01*
X149850243Y-135067259D01*
X149838150Y-135190598D01*
X149835000Y-135222582D01*
X141630000Y-135222582D01*
X141630000Y-114267582D01*
X149835000Y-114267582D01*
X149835001Y-125762419D01*
X149837758Y-125790410D01*
X149837731Y-125794255D01*
X149838631Y-125803426D01*
X149851586Y-125926677D01*
X149863615Y-125985274D01*
X149874822Y-126044028D01*
X149877486Y-126052850D01*
X149914133Y-126171238D01*
X149937308Y-126226368D01*
X149959722Y-126281847D01*
X149964049Y-126289983D01*
X150022992Y-126398998D01*
X150056437Y-126448582D01*
X150089197Y-126498645D01*
X150095022Y-126505786D01*
X150174018Y-126601276D01*
X150216467Y-126643430D01*
X150258315Y-126686165D01*
X150265416Y-126692039D01*
X150361455Y-126770367D01*
X150411281Y-126803472D01*
X150460638Y-126837267D01*
X150468744Y-126841650D01*
X150578167Y-126899832D01*
X150633459Y-126922621D01*
X150688455Y-126946193D01*
X150697258Y-126948918D01*
X150815899Y-126984737D01*
X150874583Y-126996357D01*
X150933094Y-127008794D01*
X150942250Y-127009756D01*
X150942255Y-127009757D01*
X150942259Y-127009757D01*
X151065597Y-127021850D01*
X151065598Y-127021850D01*
X151097581Y-127025000D01*
X162592419Y-127025000D01*
X162620419Y-127022242D01*
X162624255Y-127022269D01*
X162633426Y-127021369D01*
X162756677Y-127008414D01*
X162815274Y-126996385D01*
X162874028Y-126985178D01*
X162882850Y-126982514D01*
X163001238Y-126945867D01*
X163056368Y-126922692D01*
X163111847Y-126900278D01*
X163119983Y-126895951D01*
X163228998Y-126837008D01*
X163278582Y-126803563D01*
X163328645Y-126770803D01*
X163335786Y-126764978D01*
X163431276Y-126685982D01*
X163473430Y-126643533D01*
X163516165Y-126601685D01*
X163522039Y-126594584D01*
X163600367Y-126498545D01*
X163633472Y-126448719D01*
X163667267Y-126399362D01*
X163671650Y-126391256D01*
X163729832Y-126281833D01*
X163752621Y-126226541D01*
X163776193Y-126171545D01*
X163778918Y-126162742D01*
X163814737Y-126044101D01*
X163826359Y-125985408D01*
X163838794Y-125926906D01*
X163839756Y-125917750D01*
X163839757Y-125917745D01*
X163839757Y-125917741D01*
X163851850Y-125794403D01*
X163851850Y-125794402D01*
X163855000Y-125762419D01*
X163855000Y-114267582D01*
X196825000Y-114267582D01*
X196825001Y-125762419D01*
X196827758Y-125790410D01*
X196827731Y-125794255D01*
X196828631Y-125803426D01*
X196841586Y-125926677D01*
X196853615Y-125985274D01*
X196864822Y-126044028D01*
X196867486Y-126052850D01*
X196904133Y-126171238D01*
X196927308Y-126226368D01*
X196949722Y-126281847D01*
X196954049Y-126289983D01*
X197012992Y-126398998D01*
X197046437Y-126448582D01*
X197079197Y-126498645D01*
X197085022Y-126505786D01*
X197164018Y-126601276D01*
X197206467Y-126643430D01*
X197248315Y-126686165D01*
X197255416Y-126692039D01*
X197351455Y-126770367D01*
X197401281Y-126803472D01*
X197450638Y-126837267D01*
X197458744Y-126841650D01*
X197568167Y-126899832D01*
X197623459Y-126922621D01*
X197678455Y-126946193D01*
X197687258Y-126948918D01*
X197805899Y-126984737D01*
X197864583Y-126996357D01*
X197923094Y-127008794D01*
X197932250Y-127009756D01*
X197932255Y-127009757D01*
X197932259Y-127009757D01*
X198055597Y-127021850D01*
X198055598Y-127021850D01*
X198087581Y-127025000D01*
X209582419Y-127025000D01*
X209610419Y-127022242D01*
X209614255Y-127022269D01*
X209623426Y-127021369D01*
X209746677Y-127008414D01*
X209805274Y-126996385D01*
X209864028Y-126985178D01*
X209872850Y-126982514D01*
X209991238Y-126945867D01*
X210046368Y-126922692D01*
X210101847Y-126900278D01*
X210109983Y-126895951D01*
X210218998Y-126837008D01*
X210268582Y-126803563D01*
X210318645Y-126770803D01*
X210325786Y-126764978D01*
X210421276Y-126685982D01*
X210463430Y-126643533D01*
X210506165Y-126601685D01*
X210512039Y-126594584D01*
X210590367Y-126498545D01*
X210623472Y-126448719D01*
X210657267Y-126399362D01*
X210661650Y-126391256D01*
X210719832Y-126281833D01*
X210742621Y-126226541D01*
X210766193Y-126171545D01*
X210768918Y-126162742D01*
X210804737Y-126044101D01*
X210816359Y-125985408D01*
X210828794Y-125926906D01*
X210829756Y-125917750D01*
X210829757Y-125917745D01*
X210829757Y-125917741D01*
X210841850Y-125794403D01*
X210841850Y-125794402D01*
X210845000Y-125762419D01*
X210845000Y-114267581D01*
X210842242Y-114239581D01*
X210842269Y-114235745D01*
X210841369Y-114226574D01*
X210828414Y-114103323D01*
X210816387Y-114044733D01*
X210805178Y-113985971D01*
X210802514Y-113977149D01*
X210765867Y-113858762D01*
X210742692Y-113803632D01*
X210720278Y-113748153D01*
X210715951Y-113740017D01*
X210657007Y-113631002D01*
X210623565Y-113581422D01*
X210590803Y-113531355D01*
X210584978Y-113524214D01*
X210505982Y-113428724D01*
X210463566Y-113386603D01*
X210421684Y-113343834D01*
X210414584Y-113337961D01*
X210318545Y-113259633D01*
X210268703Y-113226518D01*
X210219362Y-113192733D01*
X210211256Y-113188350D01*
X210101832Y-113130168D01*
X210046554Y-113107384D01*
X209991545Y-113083807D01*
X209982741Y-113081082D01*
X209864101Y-113045262D01*
X209805372Y-113033633D01*
X209746905Y-113021206D01*
X209737747Y-113020244D01*
X209737744Y-113020243D01*
X209737741Y-113020243D01*
X209614402Y-113008150D01*
X209582419Y-113005000D01*
X198087581Y-113005000D01*
X198059581Y-113007758D01*
X198055745Y-113007731D01*
X198046574Y-113008631D01*
X197923323Y-113021586D01*
X197864733Y-113033613D01*
X197805971Y-113044822D01*
X197797149Y-113047486D01*
X197678762Y-113084133D01*
X197623632Y-113107308D01*
X197568153Y-113129722D01*
X197560017Y-113134049D01*
X197451002Y-113192993D01*
X197401422Y-113226435D01*
X197351355Y-113259197D01*
X197344214Y-113265022D01*
X197248724Y-113344018D01*
X197206603Y-113386434D01*
X197163834Y-113428316D01*
X197157961Y-113435416D01*
X197079633Y-113531455D01*
X197046518Y-113581297D01*
X197012733Y-113630638D01*
X197008350Y-113638744D01*
X196950168Y-113748168D01*
X196927384Y-113803446D01*
X196903807Y-113858455D01*
X196901082Y-113867259D01*
X196865262Y-113985899D01*
X196853641Y-114044592D01*
X196841206Y-114103095D01*
X196840244Y-114112253D01*
X196840244Y-114112254D01*
X196840243Y-114112259D01*
X196828150Y-114235598D01*
X196825000Y-114267582D01*
X163855000Y-114267582D01*
X163855000Y-114267581D01*
X163852242Y-114239581D01*
X163852269Y-114235745D01*
X163851369Y-114226574D01*
X163838414Y-114103323D01*
X163826387Y-114044733D01*
X163815178Y-113985971D01*
X163812514Y-113977149D01*
X163775867Y-113858762D01*
X163752692Y-113803632D01*
X163730278Y-113748153D01*
X163725951Y-113740017D01*
X163667007Y-113631002D01*
X163633565Y-113581422D01*
X163600803Y-113531355D01*
X163594978Y-113524214D01*
X163515982Y-113428724D01*
X163473566Y-113386603D01*
X163431684Y-113343834D01*
X163424584Y-113337961D01*
X163328545Y-113259633D01*
X163278703Y-113226518D01*
X163229362Y-113192733D01*
X163221256Y-113188350D01*
X163111832Y-113130168D01*
X163056554Y-113107384D01*
X163001545Y-113083807D01*
X162992741Y-113081082D01*
X162874101Y-113045262D01*
X162815372Y-113033633D01*
X162756905Y-113021206D01*
X162747747Y-113020244D01*
X162747744Y-113020243D01*
X162747741Y-113020243D01*
X162624402Y-113008150D01*
X162592419Y-113005000D01*
X151097581Y-113005000D01*
X151069581Y-113007758D01*
X151065745Y-113007731D01*
X151056574Y-113008631D01*
X150933323Y-113021586D01*
X150874733Y-113033613D01*
X150815971Y-113044822D01*
X150807149Y-113047486D01*
X150688762Y-113084133D01*
X150633632Y-113107308D01*
X150578153Y-113129722D01*
X150570017Y-113134049D01*
X150461002Y-113192993D01*
X150411422Y-113226435D01*
X150361355Y-113259197D01*
X150354214Y-113265022D01*
X150258724Y-113344018D01*
X150216603Y-113386434D01*
X150173834Y-113428316D01*
X150167961Y-113435416D01*
X150089633Y-113531455D01*
X150056518Y-113581297D01*
X150022733Y-113630638D01*
X150018350Y-113638744D01*
X149960168Y-113748168D01*
X149937384Y-113803446D01*
X149913807Y-113858455D01*
X149911082Y-113867259D01*
X149875262Y-113985899D01*
X149863641Y-114044592D01*
X149851206Y-114103095D01*
X149850244Y-114112253D01*
X149850244Y-114112254D01*
X149850243Y-114112259D01*
X149838150Y-114235598D01*
X149835000Y-114267582D01*
X141630000Y-114267582D01*
X141630000Y-93312582D01*
X149835000Y-93312582D01*
X149835001Y-104807419D01*
X149837758Y-104835410D01*
X149837731Y-104839255D01*
X149838631Y-104848426D01*
X149851586Y-104971677D01*
X149863615Y-105030274D01*
X149874822Y-105089028D01*
X149877486Y-105097850D01*
X149914133Y-105216238D01*
X149937308Y-105271368D01*
X149959722Y-105326847D01*
X149964049Y-105334983D01*
X150022992Y-105443998D01*
X150056437Y-105493582D01*
X150089197Y-105543645D01*
X150095022Y-105550786D01*
X150174018Y-105646276D01*
X150216467Y-105688430D01*
X150258315Y-105731165D01*
X150265416Y-105737039D01*
X150361455Y-105815367D01*
X150411281Y-105848472D01*
X150460638Y-105882267D01*
X150468744Y-105886650D01*
X150578167Y-105944832D01*
X150633459Y-105967621D01*
X150688455Y-105991193D01*
X150697258Y-105993918D01*
X150815899Y-106029737D01*
X150874583Y-106041357D01*
X150933094Y-106053794D01*
X150942250Y-106054756D01*
X150942255Y-106054757D01*
X150942259Y-106054757D01*
X151065597Y-106066850D01*
X151065598Y-106066850D01*
X151097581Y-106070000D01*
X162592419Y-106070000D01*
X162620419Y-106067242D01*
X162624255Y-106067269D01*
X162633426Y-106066369D01*
X162756677Y-106053414D01*
X162815274Y-106041385D01*
X162874028Y-106030178D01*
X162882850Y-106027514D01*
X163001238Y-105990867D01*
X163056368Y-105967692D01*
X163111847Y-105945278D01*
X163119983Y-105940951D01*
X163228998Y-105882008D01*
X163278582Y-105848563D01*
X163328645Y-105815803D01*
X163335786Y-105809978D01*
X163431276Y-105730982D01*
X163473430Y-105688533D01*
X163516165Y-105646685D01*
X163522039Y-105639584D01*
X163600367Y-105543545D01*
X163633472Y-105493719D01*
X163667267Y-105444362D01*
X163671650Y-105436256D01*
X163729832Y-105326833D01*
X163752621Y-105271541D01*
X163776193Y-105216545D01*
X163778918Y-105207742D01*
X163814737Y-105089101D01*
X163826359Y-105030408D01*
X163838794Y-104971906D01*
X163839756Y-104962750D01*
X163839757Y-104962745D01*
X163839757Y-104962741D01*
X163851850Y-104839403D01*
X163851850Y-104839402D01*
X163855000Y-104807419D01*
X163855000Y-93312581D01*
X163852242Y-93284581D01*
X163852269Y-93280745D01*
X163851369Y-93271574D01*
X163838414Y-93148323D01*
X163826387Y-93089733D01*
X163815178Y-93030971D01*
X163812514Y-93022149D01*
X163775867Y-92903762D01*
X163752692Y-92848632D01*
X163730278Y-92793153D01*
X163725951Y-92785017D01*
X163667007Y-92676002D01*
X163633565Y-92626422D01*
X163600803Y-92576355D01*
X163594978Y-92569214D01*
X163515982Y-92473724D01*
X163473566Y-92431603D01*
X163431684Y-92388834D01*
X163424584Y-92382961D01*
X163328545Y-92304633D01*
X163278703Y-92271518D01*
X163229362Y-92237733D01*
X163221256Y-92233350D01*
X163111832Y-92175168D01*
X163056554Y-92152384D01*
X163001545Y-92128807D01*
X162992741Y-92126082D01*
X162874101Y-92090262D01*
X162815372Y-92078633D01*
X162756905Y-92066206D01*
X162747747Y-92065244D01*
X162747744Y-92065243D01*
X162747741Y-92065243D01*
X162624402Y-92053150D01*
X162592419Y-92050000D01*
X151097581Y-92050000D01*
X151069581Y-92052758D01*
X151065745Y-92052731D01*
X151056574Y-92053631D01*
X150933323Y-92066586D01*
X150874733Y-92078613D01*
X150815971Y-92089822D01*
X150807149Y-92092486D01*
X150688762Y-92129133D01*
X150633632Y-92152308D01*
X150578153Y-92174722D01*
X150570017Y-92179049D01*
X150461002Y-92237993D01*
X150411422Y-92271435D01*
X150361355Y-92304197D01*
X150354214Y-92310022D01*
X150258724Y-92389018D01*
X150216603Y-92431434D01*
X150173834Y-92473316D01*
X150167961Y-92480416D01*
X150089633Y-92576455D01*
X150056518Y-92626297D01*
X150022733Y-92675638D01*
X150018350Y-92683744D01*
X149960168Y-92793168D01*
X149937390Y-92848432D01*
X149913807Y-92903455D01*
X149911082Y-92912259D01*
X149875262Y-93030899D01*
X149863641Y-93089592D01*
X149851206Y-93148095D01*
X149850244Y-93157253D01*
X149850244Y-93157254D01*
X149850243Y-93157259D01*
X149838150Y-93280598D01*
X149835000Y-93312582D01*
X141630000Y-93312582D01*
X141630000Y-87394609D01*
X142654997Y-87394609D01*
X142841073Y-87735766D01*
X143258409Y-87951513D01*
X143709815Y-88081696D01*
X144177946Y-88121313D01*
X144644811Y-88068842D01*
X145092468Y-87926297D01*
X145448927Y-87735766D01*
X145635003Y-87394609D01*
X144145000Y-85904605D01*
X142654997Y-87394609D01*
X141630000Y-87394609D01*
X141630000Y-85757946D01*
X141748687Y-85757946D01*
X141801158Y-86224811D01*
X141943703Y-86672468D01*
X142134234Y-87028927D01*
X142475391Y-87215003D01*
X143965395Y-85725000D01*
X144324605Y-85725000D01*
X145814609Y-87215003D01*
X146155766Y-87028927D01*
X146371513Y-86611591D01*
X146501696Y-86160185D01*
X146541313Y-85692054D01*
X146517850Y-85483290D01*
X150580874Y-85483290D01*
X150580874Y-85966710D01*
X150675185Y-86440842D01*
X150860182Y-86887464D01*
X151128756Y-87289414D01*
X151470586Y-87631244D01*
X151872536Y-87899818D01*
X152319158Y-88084815D01*
X152793290Y-88179126D01*
X153276710Y-88179126D01*
X153750842Y-88084815D01*
X154197464Y-87899818D01*
X154599414Y-87631244D01*
X154941244Y-87289414D01*
X155209818Y-86887464D01*
X155394815Y-86440842D01*
X155489126Y-85966710D01*
X155489126Y-85483290D01*
X158200874Y-85483290D01*
X158200874Y-85966710D01*
X158295185Y-86440842D01*
X158480182Y-86887464D01*
X158748756Y-87289414D01*
X159090586Y-87631244D01*
X159492536Y-87899818D01*
X159939158Y-88084815D01*
X160413290Y-88179126D01*
X160896710Y-88179126D01*
X161370842Y-88084815D01*
X161817464Y-87899818D01*
X162219414Y-87631244D01*
X162561244Y-87289414D01*
X162829818Y-86887464D01*
X163014815Y-86440842D01*
X163109126Y-85966710D01*
X163109126Y-85483290D01*
X163014815Y-85009158D01*
X162829818Y-84562536D01*
X162561244Y-84160586D01*
X162219414Y-83818756D01*
X161817464Y-83550182D01*
X161370842Y-83365185D01*
X160896710Y-83270874D01*
X160413290Y-83270874D01*
X159939158Y-83365185D01*
X159492536Y-83550182D01*
X159090586Y-83818756D01*
X158748756Y-84160586D01*
X158480182Y-84562536D01*
X158295185Y-85009158D01*
X158200874Y-85483290D01*
X155489126Y-85483290D01*
X155394815Y-85009158D01*
X155209818Y-84562536D01*
X154941244Y-84160586D01*
X154599414Y-83818756D01*
X154197464Y-83550182D01*
X153750842Y-83365185D01*
X153276710Y-83270874D01*
X152793290Y-83270874D01*
X152319158Y-83365185D01*
X151872536Y-83550182D01*
X151470586Y-83818756D01*
X151128756Y-84160586D01*
X150860182Y-84562536D01*
X150675185Y-85009158D01*
X150580874Y-85483290D01*
X146517850Y-85483290D01*
X146488842Y-85225189D01*
X146346297Y-84777532D01*
X146155766Y-84421073D01*
X145814609Y-84234997D01*
X144324605Y-85725000D01*
X143965395Y-85725000D01*
X142475391Y-84234997D01*
X142134234Y-84421073D01*
X141918487Y-84838409D01*
X141788304Y-85289815D01*
X141748687Y-85757946D01*
X141630000Y-85757946D01*
X141630000Y-85757278D01*
X141681002Y-85237116D01*
X141822694Y-84767812D01*
X142052837Y-84334975D01*
X142280860Y-84055391D01*
X142654997Y-84055391D01*
X144145000Y-85545395D01*
X145635003Y-84055391D01*
X145448927Y-83714234D01*
X145031591Y-83498487D01*
X144580185Y-83368304D01*
X144112054Y-83328687D01*
X143645189Y-83381158D01*
X143197532Y-83523703D01*
X142841073Y-83714234D01*
X142654997Y-84055391D01*
X142280860Y-84055391D01*
X142362678Y-83955073D01*
X142740397Y-83642597D01*
X143171627Y-83409431D01*
X143639928Y-83264468D01*
X144158153Y-83210000D01*
X188562725Y-83210000D01*
X188569513Y-83210666D01*
G37*
G04 #@! TD.AperFunction*
M02*
