G04 #@! TF.GenerationSoftware,KiCad,Pcbnew,(5.1.8)-1*
G04 #@! TF.CreationDate,2021-03-09T01:58:43+01:00*
G04 #@! TF.ProjectId,C64 Joykey Faceplate B1,43363420-4a6f-4796-9b65-792046616365,rev?*
G04 #@! TF.SameCoordinates,Original*
G04 #@! TF.FileFunction,Legend,Top*
G04 #@! TF.FilePolarity,Positive*
%FSLAX46Y46*%
G04 Gerber Fmt 4.6, Leading zero omitted, Abs format (unit mm)*
G04 Created by KiCad (PCBNEW (5.1.8)-1) date 2021-03-09 01:58:43*
%MOMM*%
%LPD*%
G01*
G04 APERTURE LIST*
%ADD10C,0.150000*%
%ADD11C,0.100000*%
G04 APERTURE END LIST*
D10*
X197501190Y-94432380D02*
X197501190Y-93432380D01*
X197882142Y-93432380D01*
X197977380Y-93480000D01*
X198025000Y-93527619D01*
X198072619Y-93622857D01*
X198072619Y-93765714D01*
X198025000Y-93860952D01*
X197977380Y-93908571D01*
X197882142Y-93956190D01*
X197501190Y-93956190D01*
X198691666Y-93432380D02*
X198882142Y-93432380D01*
X198977380Y-93480000D01*
X199072619Y-93575238D01*
X199120238Y-93765714D01*
X199120238Y-94099047D01*
X199072619Y-94289523D01*
X198977380Y-94384761D01*
X198882142Y-94432380D01*
X198691666Y-94432380D01*
X198596428Y-94384761D01*
X198501190Y-94289523D01*
X198453571Y-94099047D01*
X198453571Y-93765714D01*
X198501190Y-93575238D01*
X198596428Y-93480000D01*
X198691666Y-93432380D01*
X200120238Y-94432380D02*
X199786904Y-93956190D01*
X199548809Y-94432380D02*
X199548809Y-93432380D01*
X199929761Y-93432380D01*
X200025000Y-93480000D01*
X200072619Y-93527619D01*
X200120238Y-93622857D01*
X200120238Y-93765714D01*
X200072619Y-93860952D01*
X200025000Y-93908571D01*
X199929761Y-93956190D01*
X199548809Y-93956190D01*
X200405952Y-93432380D02*
X200977380Y-93432380D01*
X200691666Y-94432380D02*
X200691666Y-93432380D01*
X202596428Y-94432380D02*
X202025000Y-94432380D01*
X202310714Y-94432380D02*
X202310714Y-93432380D01*
X202215476Y-93575238D01*
X202120238Y-93670476D01*
X202025000Y-93718095D01*
X220361190Y-94432380D02*
X220361190Y-93432380D01*
X220742142Y-93432380D01*
X220837380Y-93480000D01*
X220885000Y-93527619D01*
X220932619Y-93622857D01*
X220932619Y-93765714D01*
X220885000Y-93860952D01*
X220837380Y-93908571D01*
X220742142Y-93956190D01*
X220361190Y-93956190D01*
X221551666Y-93432380D02*
X221742142Y-93432380D01*
X221837380Y-93480000D01*
X221932619Y-93575238D01*
X221980238Y-93765714D01*
X221980238Y-94099047D01*
X221932619Y-94289523D01*
X221837380Y-94384761D01*
X221742142Y-94432380D01*
X221551666Y-94432380D01*
X221456428Y-94384761D01*
X221361190Y-94289523D01*
X221313571Y-94099047D01*
X221313571Y-93765714D01*
X221361190Y-93575238D01*
X221456428Y-93480000D01*
X221551666Y-93432380D01*
X222980238Y-94432380D02*
X222646904Y-93956190D01*
X222408809Y-94432380D02*
X222408809Y-93432380D01*
X222789761Y-93432380D01*
X222885000Y-93480000D01*
X222932619Y-93527619D01*
X222980238Y-93622857D01*
X222980238Y-93765714D01*
X222932619Y-93860952D01*
X222885000Y-93908571D01*
X222789761Y-93956190D01*
X222408809Y-93956190D01*
X223265952Y-93432380D02*
X223837380Y-93432380D01*
X223551666Y-94432380D02*
X223551666Y-93432380D01*
X224885000Y-93527619D02*
X224932619Y-93480000D01*
X225027857Y-93432380D01*
X225265952Y-93432380D01*
X225361190Y-93480000D01*
X225408809Y-93527619D01*
X225456428Y-93622857D01*
X225456428Y-93718095D01*
X225408809Y-93860952D01*
X224837380Y-94432380D01*
X225456428Y-94432380D01*
X142168571Y-100583809D02*
X142168571Y-100917142D01*
X142692380Y-100917142D02*
X141692380Y-100917142D01*
X141692380Y-100440952D01*
X142692380Y-100060000D02*
X141692380Y-100060000D01*
X142692380Y-99012380D02*
X142216190Y-99345714D01*
X142692380Y-99583809D02*
X141692380Y-99583809D01*
X141692380Y-99202857D01*
X141740000Y-99107619D01*
X141787619Y-99060000D01*
X141882857Y-99012380D01*
X142025714Y-99012380D01*
X142120952Y-99060000D01*
X142168571Y-99107619D01*
X142216190Y-99202857D01*
X142216190Y-99583809D01*
X142168571Y-98583809D02*
X142168571Y-98250476D01*
X142692380Y-98107619D02*
X142692380Y-98583809D01*
X141692380Y-98583809D01*
X141692380Y-98107619D01*
X141692380Y-97774285D02*
X141692380Y-97155238D01*
X142073333Y-97488571D01*
X142073333Y-97345714D01*
X142120952Y-97250476D01*
X142168571Y-97202857D01*
X142263809Y-97155238D01*
X142501904Y-97155238D01*
X142597142Y-97202857D01*
X142644761Y-97250476D01*
X142692380Y-97345714D01*
X142692380Y-97631428D01*
X142644761Y-97726666D01*
X142597142Y-97774285D01*
X142168571Y-121538809D02*
X142168571Y-121872142D01*
X142692380Y-121872142D02*
X141692380Y-121872142D01*
X141692380Y-121395952D01*
X142692380Y-121015000D02*
X141692380Y-121015000D01*
X142692380Y-119967380D02*
X142216190Y-120300714D01*
X142692380Y-120538809D02*
X141692380Y-120538809D01*
X141692380Y-120157857D01*
X141740000Y-120062619D01*
X141787619Y-120015000D01*
X141882857Y-119967380D01*
X142025714Y-119967380D01*
X142120952Y-120015000D01*
X142168571Y-120062619D01*
X142216190Y-120157857D01*
X142216190Y-120538809D01*
X142168571Y-119538809D02*
X142168571Y-119205476D01*
X142692380Y-119062619D02*
X142692380Y-119538809D01*
X141692380Y-119538809D01*
X141692380Y-119062619D01*
X141787619Y-118681666D02*
X141740000Y-118634047D01*
X141692380Y-118538809D01*
X141692380Y-118300714D01*
X141740000Y-118205476D01*
X141787619Y-118157857D01*
X141882857Y-118110238D01*
X141978095Y-118110238D01*
X142120952Y-118157857D01*
X142692380Y-118729285D01*
X142692380Y-118110238D01*
X142168571Y-142493809D02*
X142168571Y-142827142D01*
X142692380Y-142827142D02*
X141692380Y-142827142D01*
X141692380Y-142350952D01*
X142692380Y-141970000D02*
X141692380Y-141970000D01*
X142692380Y-140922380D02*
X142216190Y-141255714D01*
X142692380Y-141493809D02*
X141692380Y-141493809D01*
X141692380Y-141112857D01*
X141740000Y-141017619D01*
X141787619Y-140970000D01*
X141882857Y-140922380D01*
X142025714Y-140922380D01*
X142120952Y-140970000D01*
X142168571Y-141017619D01*
X142216190Y-141112857D01*
X142216190Y-141493809D01*
X142168571Y-140493809D02*
X142168571Y-140160476D01*
X142692380Y-140017619D02*
X142692380Y-140493809D01*
X141692380Y-140493809D01*
X141692380Y-140017619D01*
X142692380Y-139065238D02*
X142692380Y-139636666D01*
X142692380Y-139350952D02*
X141692380Y-139350952D01*
X141835238Y-139446190D01*
X141930476Y-139541428D01*
X141978095Y-139636666D01*
D11*
X159702619Y-89223809D02*
X159816904Y-89261904D01*
X160007380Y-89261904D01*
X160083571Y-89223809D01*
X160121666Y-89185714D01*
X160159761Y-89109523D01*
X160159761Y-89033333D01*
X160121666Y-88957142D01*
X160083571Y-88919047D01*
X160007380Y-88880952D01*
X159855000Y-88842857D01*
X159778809Y-88804761D01*
X159740714Y-88766666D01*
X159702619Y-88690476D01*
X159702619Y-88614285D01*
X159740714Y-88538095D01*
X159778809Y-88500000D01*
X159855000Y-88461904D01*
X160045476Y-88461904D01*
X160159761Y-88500000D01*
X160655000Y-88880952D02*
X160655000Y-89261904D01*
X160388333Y-88461904D02*
X160655000Y-88880952D01*
X160921666Y-88461904D01*
X161150238Y-89223809D02*
X161264523Y-89261904D01*
X161455000Y-89261904D01*
X161531190Y-89223809D01*
X161569285Y-89185714D01*
X161607380Y-89109523D01*
X161607380Y-89033333D01*
X161569285Y-88957142D01*
X161531190Y-88919047D01*
X161455000Y-88880952D01*
X161302619Y-88842857D01*
X161226428Y-88804761D01*
X161188333Y-88766666D01*
X161150238Y-88690476D01*
X161150238Y-88614285D01*
X161188333Y-88538095D01*
X161226428Y-88500000D01*
X161302619Y-88461904D01*
X161493095Y-88461904D01*
X161607380Y-88500000D01*
X151968333Y-89261904D02*
X151968333Y-88461904D01*
X152273095Y-88461904D01*
X152349285Y-88500000D01*
X152387380Y-88538095D01*
X152425476Y-88614285D01*
X152425476Y-88728571D01*
X152387380Y-88804761D01*
X152349285Y-88842857D01*
X152273095Y-88880952D01*
X151968333Y-88880952D01*
X152692142Y-88461904D02*
X152882619Y-89261904D01*
X153035000Y-88690476D01*
X153187380Y-89261904D01*
X153377857Y-88461904D01*
X154139761Y-89261904D02*
X153873095Y-88880952D01*
X153682619Y-89261904D02*
X153682619Y-88461904D01*
X153987380Y-88461904D01*
X154063571Y-88500000D01*
X154101666Y-88538095D01*
X154139761Y-88614285D01*
X154139761Y-88728571D01*
X154101666Y-88804761D01*
X154063571Y-88842857D01*
X153987380Y-88880952D01*
X153682619Y-88880952D01*
M02*
