G04 #@! TF.GenerationSoftware,KiCad,Pcbnew,(5.1.8)-1*
G04 #@! TF.CreationDate,2021-03-09T01:58:43+01:00*
G04 #@! TF.ProjectId,C64 Joykey Faceplate B1,43363420-4a6f-4796-9b65-792046616365,rev?*
G04 #@! TF.SameCoordinates,Original*
G04 #@! TF.FileFunction,Copper,L2,Bot*
G04 #@! TF.FilePolarity,Positive*
%FSLAX46Y46*%
G04 Gerber Fmt 4.6, Leading zero omitted, Abs format (unit mm)*
G04 Created by KiCad (PCBNEW (5.1.8)-1) date 2021-03-09 01:58:43*
%MOMM*%
%LPD*%
G01*
G04 APERTURE LIST*
G04 #@! TA.AperFunction,ComponentPad*
%ADD10C,3.500000*%
G04 #@! TD*
G04 #@! TA.AperFunction,Conductor*
%ADD11C,0.254000*%
G04 #@! TD*
G04 #@! TA.AperFunction,Conductor*
%ADD12C,0.100000*%
G04 #@! TD*
G04 APERTURE END LIST*
D10*
X144145000Y-154305000D03*
X237490000Y-154305000D03*
X237490000Y-85725000D03*
X144145000Y-85725000D03*
D11*
X152286066Y-83256094D02*
X151818796Y-83449643D01*
X151398265Y-83730633D01*
X151040633Y-84088265D01*
X150759643Y-84508796D01*
X150566094Y-84976066D01*
X150467423Y-85472116D01*
X150467423Y-85977884D01*
X150566094Y-86473934D01*
X150759643Y-86941204D01*
X151040633Y-87361735D01*
X151398265Y-87719367D01*
X151818796Y-88000357D01*
X152286066Y-88193906D01*
X152782116Y-88292577D01*
X153287884Y-88292577D01*
X153783934Y-88193906D01*
X154251204Y-88000357D01*
X154671735Y-87719367D01*
X155029367Y-87361735D01*
X155310357Y-86941204D01*
X155503906Y-86473934D01*
X155602577Y-85977884D01*
X155602577Y-85472116D01*
X155503906Y-84976066D01*
X155310357Y-84508796D01*
X155029367Y-84088265D01*
X154671735Y-83730633D01*
X154251204Y-83449643D01*
X153783934Y-83256094D01*
X153552205Y-83210000D01*
X160137795Y-83210000D01*
X159906066Y-83256094D01*
X159438796Y-83449643D01*
X159018265Y-83730633D01*
X158660633Y-84088265D01*
X158379643Y-84508796D01*
X158186094Y-84976066D01*
X158087423Y-85472116D01*
X158087423Y-85977884D01*
X158186094Y-86473934D01*
X158379643Y-86941204D01*
X158660633Y-87361735D01*
X159018265Y-87719367D01*
X159438796Y-88000357D01*
X159906066Y-88193906D01*
X160402116Y-88292577D01*
X160907884Y-88292577D01*
X161403934Y-88193906D01*
X161871204Y-88000357D01*
X162291735Y-87719367D01*
X162649367Y-87361735D01*
X162930357Y-86941204D01*
X163123906Y-86473934D01*
X163222577Y-85977884D01*
X163222577Y-85472116D01*
X163123906Y-84976066D01*
X162930357Y-84508796D01*
X162649367Y-84088265D01*
X162291735Y-83730633D01*
X161871204Y-83449643D01*
X161403934Y-83256094D01*
X161172205Y-83210000D01*
X188562725Y-83210000D01*
X188569513Y-83210666D01*
X188570001Y-83215310D01*
X188570000Y-92107418D01*
X188572758Y-92135419D01*
X188572731Y-92139255D01*
X188573631Y-92148426D01*
X188586586Y-92271677D01*
X188598615Y-92330274D01*
X188609822Y-92389028D01*
X188612486Y-92397850D01*
X188649133Y-92516238D01*
X188672308Y-92571368D01*
X188694722Y-92626847D01*
X188699049Y-92634983D01*
X188757992Y-92743998D01*
X188791437Y-92793582D01*
X188824197Y-92843645D01*
X188830022Y-92850786D01*
X188909018Y-92946276D01*
X188951467Y-92988430D01*
X188993315Y-93031165D01*
X189000416Y-93037039D01*
X189096455Y-93115367D01*
X189146281Y-93148472D01*
X189195638Y-93182267D01*
X189203744Y-93186650D01*
X189313167Y-93244832D01*
X189368459Y-93267621D01*
X189423455Y-93291193D01*
X189432258Y-93293918D01*
X189550899Y-93329737D01*
X189609583Y-93341357D01*
X189668094Y-93353794D01*
X189677250Y-93354756D01*
X189677255Y-93354757D01*
X189677259Y-93354757D01*
X189800597Y-93366850D01*
X189800598Y-93366850D01*
X189832581Y-93370000D01*
X233077419Y-93370000D01*
X233105419Y-93367242D01*
X233109255Y-93367269D01*
X233118426Y-93366369D01*
X233241677Y-93353414D01*
X233300274Y-93341385D01*
X233359028Y-93330178D01*
X233367850Y-93327514D01*
X233486238Y-93290867D01*
X233541368Y-93267692D01*
X233596847Y-93245278D01*
X233604983Y-93240951D01*
X233713998Y-93182008D01*
X233763582Y-93148563D01*
X233813645Y-93115803D01*
X233820786Y-93109978D01*
X233916276Y-93030982D01*
X233958430Y-92988533D01*
X234001165Y-92946685D01*
X234007039Y-92939584D01*
X234085367Y-92843545D01*
X234118472Y-92793719D01*
X234152267Y-92744362D01*
X234156650Y-92736256D01*
X234214832Y-92626833D01*
X234237621Y-92571541D01*
X234261193Y-92516545D01*
X234263918Y-92507742D01*
X234299737Y-92389101D01*
X234311359Y-92330408D01*
X234323794Y-92271906D01*
X234324756Y-92262750D01*
X234324757Y-92262745D01*
X234324757Y-92262741D01*
X234336850Y-92139403D01*
X234336850Y-92139402D01*
X234340000Y-92107419D01*
X234340000Y-87394609D01*
X235999997Y-87394609D01*
X236186073Y-87735766D01*
X236603409Y-87951513D01*
X237054815Y-88081696D01*
X237522946Y-88121313D01*
X237989811Y-88068842D01*
X238437468Y-87926297D01*
X238793927Y-87735766D01*
X238980003Y-87394609D01*
X237490000Y-85904605D01*
X235999997Y-87394609D01*
X234340000Y-87394609D01*
X234340000Y-85757946D01*
X235093687Y-85757946D01*
X235146158Y-86224811D01*
X235288703Y-86672468D01*
X235479234Y-87028927D01*
X235820391Y-87215003D01*
X237310395Y-85725000D01*
X237669605Y-85725000D01*
X239159609Y-87215003D01*
X239500766Y-87028927D01*
X239716513Y-86611591D01*
X239846696Y-86160185D01*
X239886313Y-85692054D01*
X239833842Y-85225189D01*
X239691297Y-84777532D01*
X239500766Y-84421073D01*
X239159609Y-84234997D01*
X237669605Y-85725000D01*
X237310395Y-85725000D01*
X235820391Y-84234997D01*
X235479234Y-84421073D01*
X235263487Y-84838409D01*
X235133304Y-85289815D01*
X235093687Y-85757946D01*
X234340000Y-85757946D01*
X234340000Y-84055391D01*
X235999997Y-84055391D01*
X237490000Y-85545395D01*
X238980003Y-84055391D01*
X238793927Y-83714234D01*
X238376591Y-83498487D01*
X237925185Y-83368304D01*
X237457054Y-83328687D01*
X236990189Y-83381158D01*
X236542532Y-83523703D01*
X236186073Y-83714234D01*
X235999997Y-84055391D01*
X234340000Y-84055391D01*
X234340000Y-83217275D01*
X234340666Y-83210487D01*
X234345301Y-83210000D01*
X237457722Y-83210000D01*
X237977884Y-83261002D01*
X238447188Y-83402694D01*
X238880025Y-83632837D01*
X239259927Y-83942678D01*
X239572403Y-84320397D01*
X239805569Y-84751627D01*
X239950532Y-85219928D01*
X240005000Y-85738153D01*
X240005001Y-154272712D01*
X239953998Y-154792883D01*
X239812307Y-155262186D01*
X239582161Y-155695028D01*
X239272323Y-156074927D01*
X238894600Y-156387406D01*
X238463373Y-156620569D01*
X237995073Y-156765532D01*
X237476847Y-156820000D01*
X144177278Y-156820000D01*
X143657117Y-156768998D01*
X143187814Y-156627307D01*
X142754972Y-156397161D01*
X142375073Y-156087323D01*
X142281829Y-155974609D01*
X142654997Y-155974609D01*
X142841073Y-156315766D01*
X143258409Y-156531513D01*
X143709815Y-156661696D01*
X144177946Y-156701313D01*
X144644811Y-156648842D01*
X145092468Y-156506297D01*
X145448927Y-156315766D01*
X145635003Y-155974609D01*
X235999997Y-155974609D01*
X236186073Y-156315766D01*
X236603409Y-156531513D01*
X237054815Y-156661696D01*
X237522946Y-156701313D01*
X237989811Y-156648842D01*
X238437468Y-156506297D01*
X238793927Y-156315766D01*
X238980003Y-155974609D01*
X237490000Y-154484605D01*
X235999997Y-155974609D01*
X145635003Y-155974609D01*
X144145000Y-154484605D01*
X142654997Y-155974609D01*
X142281829Y-155974609D01*
X142062594Y-155709600D01*
X141829431Y-155278373D01*
X141684468Y-154810073D01*
X141634846Y-154337946D01*
X141748687Y-154337946D01*
X141801158Y-154804811D01*
X141943703Y-155252468D01*
X142134234Y-155608927D01*
X142475391Y-155795003D01*
X143965395Y-154305000D01*
X144324605Y-154305000D01*
X145814609Y-155795003D01*
X146155766Y-155608927D01*
X146371513Y-155191591D01*
X146501696Y-154740185D01*
X146535736Y-154337946D01*
X235093687Y-154337946D01*
X235146158Y-154804811D01*
X235288703Y-155252468D01*
X235479234Y-155608927D01*
X235820391Y-155795003D01*
X237310395Y-154305000D01*
X237669605Y-154305000D01*
X239159609Y-155795003D01*
X239500766Y-155608927D01*
X239716513Y-155191591D01*
X239846696Y-154740185D01*
X239886313Y-154272054D01*
X239833842Y-153805189D01*
X239691297Y-153357532D01*
X239500766Y-153001073D01*
X239159609Y-152814997D01*
X237669605Y-154305000D01*
X237310395Y-154305000D01*
X235820391Y-152814997D01*
X235479234Y-153001073D01*
X235263487Y-153418409D01*
X235133304Y-153869815D01*
X235093687Y-154337946D01*
X146535736Y-154337946D01*
X146541313Y-154272054D01*
X146488842Y-153805189D01*
X146346297Y-153357532D01*
X146155766Y-153001073D01*
X145814609Y-152814997D01*
X144324605Y-154305000D01*
X143965395Y-154305000D01*
X142475391Y-152814997D01*
X142134234Y-153001073D01*
X141918487Y-153418409D01*
X141788304Y-153869815D01*
X141748687Y-154337946D01*
X141634846Y-154337946D01*
X141630000Y-154291847D01*
X141630000Y-152635391D01*
X142654997Y-152635391D01*
X144145000Y-154125395D01*
X145635003Y-152635391D01*
X235999997Y-152635391D01*
X237490000Y-154125395D01*
X238980003Y-152635391D01*
X238793927Y-152294234D01*
X238376591Y-152078487D01*
X237925185Y-151948304D01*
X237457054Y-151908687D01*
X236990189Y-151961158D01*
X236542532Y-152103703D01*
X236186073Y-152294234D01*
X235999997Y-152635391D01*
X145635003Y-152635391D01*
X145448927Y-152294234D01*
X145031591Y-152078487D01*
X144580185Y-151948304D01*
X144112054Y-151908687D01*
X143645189Y-151961158D01*
X143197532Y-152103703D01*
X142841073Y-152294234D01*
X142654997Y-152635391D01*
X141630000Y-152635391D01*
X141630000Y-134587582D01*
X149200000Y-134587582D01*
X149200001Y-147352419D01*
X149202758Y-147380410D01*
X149202731Y-147384255D01*
X149203631Y-147393426D01*
X149216586Y-147516677D01*
X149228615Y-147575274D01*
X149239822Y-147634028D01*
X149242486Y-147642850D01*
X149279133Y-147761238D01*
X149302308Y-147816368D01*
X149324722Y-147871847D01*
X149329049Y-147879983D01*
X149387992Y-147988998D01*
X149421437Y-148038582D01*
X149454197Y-148088645D01*
X149460022Y-148095786D01*
X149539018Y-148191276D01*
X149581467Y-148233430D01*
X149623315Y-148276165D01*
X149630416Y-148282039D01*
X149726455Y-148360367D01*
X149776281Y-148393472D01*
X149825638Y-148427267D01*
X149833744Y-148431650D01*
X149943167Y-148489832D01*
X149998459Y-148512621D01*
X150053455Y-148536193D01*
X150062258Y-148538918D01*
X150180899Y-148574737D01*
X150239583Y-148586357D01*
X150298094Y-148598794D01*
X150307250Y-148599756D01*
X150307255Y-148599757D01*
X150307259Y-148599757D01*
X150430597Y-148611850D01*
X150430598Y-148611850D01*
X150462581Y-148615000D01*
X163227419Y-148615000D01*
X163255419Y-148612242D01*
X163259255Y-148612269D01*
X163268426Y-148611369D01*
X163391677Y-148598414D01*
X163450274Y-148586385D01*
X163509028Y-148575178D01*
X163517850Y-148572514D01*
X163636238Y-148535867D01*
X163691368Y-148512692D01*
X163746847Y-148490278D01*
X163754983Y-148485951D01*
X163863998Y-148427008D01*
X163913582Y-148393563D01*
X163963645Y-148360803D01*
X163970786Y-148354978D01*
X164066276Y-148275982D01*
X164108430Y-148233533D01*
X164151165Y-148191685D01*
X164157039Y-148184584D01*
X164235367Y-148088545D01*
X164268472Y-148038719D01*
X164302267Y-147989362D01*
X164306650Y-147981256D01*
X164364832Y-147871833D01*
X164387621Y-147816541D01*
X164411193Y-147761545D01*
X164413918Y-147752742D01*
X164449737Y-147634101D01*
X164461359Y-147575408D01*
X164473794Y-147516906D01*
X164474756Y-147507750D01*
X164474757Y-147507745D01*
X164474757Y-147507741D01*
X164486850Y-147384403D01*
X164486850Y-147384402D01*
X164490000Y-147352419D01*
X164490000Y-134587582D01*
X175235000Y-134587582D01*
X175235001Y-147352419D01*
X175237758Y-147380410D01*
X175237731Y-147384255D01*
X175238631Y-147393426D01*
X175251586Y-147516677D01*
X175263615Y-147575274D01*
X175274822Y-147634028D01*
X175277486Y-147642850D01*
X175314133Y-147761238D01*
X175337308Y-147816368D01*
X175359722Y-147871847D01*
X175364049Y-147879983D01*
X175422992Y-147988998D01*
X175456437Y-148038582D01*
X175489197Y-148088645D01*
X175495022Y-148095786D01*
X175574018Y-148191276D01*
X175616467Y-148233430D01*
X175658315Y-148276165D01*
X175665416Y-148282039D01*
X175761455Y-148360367D01*
X175811281Y-148393472D01*
X175860638Y-148427267D01*
X175868744Y-148431650D01*
X175978167Y-148489832D01*
X176033459Y-148512621D01*
X176088455Y-148536193D01*
X176097258Y-148538918D01*
X176215899Y-148574737D01*
X176274583Y-148586357D01*
X176333094Y-148598794D01*
X176342250Y-148599756D01*
X176342255Y-148599757D01*
X176342259Y-148599757D01*
X176465597Y-148611850D01*
X176465598Y-148611850D01*
X176497581Y-148615000D01*
X189262419Y-148615000D01*
X189290419Y-148612242D01*
X189294255Y-148612269D01*
X189303426Y-148611369D01*
X189426677Y-148598414D01*
X189485274Y-148586385D01*
X189544028Y-148575178D01*
X189552850Y-148572514D01*
X189671238Y-148535867D01*
X189726368Y-148512692D01*
X189781847Y-148490278D01*
X189789983Y-148485951D01*
X189898998Y-148427008D01*
X189948582Y-148393563D01*
X189998645Y-148360803D01*
X190005786Y-148354978D01*
X190101276Y-148275982D01*
X190143430Y-148233533D01*
X190186165Y-148191685D01*
X190192039Y-148184584D01*
X190270367Y-148088545D01*
X190303472Y-148038719D01*
X190337267Y-147989362D01*
X190341650Y-147981256D01*
X190399832Y-147871833D01*
X190422621Y-147816541D01*
X190446193Y-147761545D01*
X190448918Y-147752742D01*
X190484737Y-147634101D01*
X190496359Y-147575408D01*
X190508794Y-147516906D01*
X190509756Y-147507750D01*
X190509757Y-147507745D01*
X190509757Y-147507741D01*
X190521850Y-147384403D01*
X190521850Y-147384402D01*
X190525000Y-147352419D01*
X190525000Y-134587582D01*
X196190000Y-134587582D01*
X196190001Y-147352419D01*
X196192758Y-147380410D01*
X196192731Y-147384255D01*
X196193631Y-147393426D01*
X196206586Y-147516677D01*
X196218615Y-147575274D01*
X196229822Y-147634028D01*
X196232486Y-147642850D01*
X196269133Y-147761238D01*
X196292308Y-147816368D01*
X196314722Y-147871847D01*
X196319049Y-147879983D01*
X196377992Y-147988998D01*
X196411437Y-148038582D01*
X196444197Y-148088645D01*
X196450022Y-148095786D01*
X196529018Y-148191276D01*
X196571467Y-148233430D01*
X196613315Y-148276165D01*
X196620416Y-148282039D01*
X196716455Y-148360367D01*
X196766281Y-148393472D01*
X196815638Y-148427267D01*
X196823744Y-148431650D01*
X196933167Y-148489832D01*
X196988459Y-148512621D01*
X197043455Y-148536193D01*
X197052258Y-148538918D01*
X197170899Y-148574737D01*
X197229583Y-148586357D01*
X197288094Y-148598794D01*
X197297250Y-148599756D01*
X197297255Y-148599757D01*
X197297259Y-148599757D01*
X197420597Y-148611850D01*
X197420598Y-148611850D01*
X197452581Y-148615000D01*
X210217419Y-148615000D01*
X210245419Y-148612242D01*
X210249255Y-148612269D01*
X210258426Y-148611369D01*
X210381677Y-148598414D01*
X210440274Y-148586385D01*
X210499028Y-148575178D01*
X210507850Y-148572514D01*
X210626238Y-148535867D01*
X210681368Y-148512692D01*
X210736847Y-148490278D01*
X210744983Y-148485951D01*
X210853998Y-148427008D01*
X210903582Y-148393563D01*
X210953645Y-148360803D01*
X210960786Y-148354978D01*
X211056276Y-148275982D01*
X211098430Y-148233533D01*
X211141165Y-148191685D01*
X211147039Y-148184584D01*
X211225367Y-148088545D01*
X211258472Y-148038719D01*
X211292267Y-147989362D01*
X211296650Y-147981256D01*
X211354832Y-147871833D01*
X211377621Y-147816541D01*
X211401193Y-147761545D01*
X211403918Y-147752742D01*
X211439737Y-147634101D01*
X211451359Y-147575408D01*
X211463794Y-147516906D01*
X211464756Y-147507750D01*
X211464757Y-147507745D01*
X211464757Y-147507741D01*
X211476850Y-147384403D01*
X211476850Y-147384402D01*
X211480000Y-147352419D01*
X211480000Y-134587582D01*
X217145000Y-134587582D01*
X217145001Y-147352419D01*
X217147758Y-147380410D01*
X217147731Y-147384255D01*
X217148631Y-147393426D01*
X217161586Y-147516677D01*
X217173615Y-147575274D01*
X217184822Y-147634028D01*
X217187486Y-147642850D01*
X217224133Y-147761238D01*
X217247308Y-147816368D01*
X217269722Y-147871847D01*
X217274049Y-147879983D01*
X217332992Y-147988998D01*
X217366437Y-148038582D01*
X217399197Y-148088645D01*
X217405022Y-148095786D01*
X217484018Y-148191276D01*
X217526467Y-148233430D01*
X217568315Y-148276165D01*
X217575416Y-148282039D01*
X217671455Y-148360367D01*
X217721281Y-148393472D01*
X217770638Y-148427267D01*
X217778744Y-148431650D01*
X217888167Y-148489832D01*
X217943459Y-148512621D01*
X217998455Y-148536193D01*
X218007258Y-148538918D01*
X218125899Y-148574737D01*
X218184583Y-148586357D01*
X218243094Y-148598794D01*
X218252250Y-148599756D01*
X218252255Y-148599757D01*
X218252259Y-148599757D01*
X218375597Y-148611850D01*
X218375598Y-148611850D01*
X218407581Y-148615000D01*
X231172419Y-148615000D01*
X231200419Y-148612242D01*
X231204255Y-148612269D01*
X231213426Y-148611369D01*
X231336677Y-148598414D01*
X231395274Y-148586385D01*
X231454028Y-148575178D01*
X231462850Y-148572514D01*
X231581238Y-148535867D01*
X231636368Y-148512692D01*
X231691847Y-148490278D01*
X231699983Y-148485951D01*
X231808998Y-148427008D01*
X231858582Y-148393563D01*
X231908645Y-148360803D01*
X231915786Y-148354978D01*
X232011276Y-148275982D01*
X232053430Y-148233533D01*
X232096165Y-148191685D01*
X232102039Y-148184584D01*
X232180367Y-148088545D01*
X232213472Y-148038719D01*
X232247267Y-147989362D01*
X232251650Y-147981256D01*
X232309832Y-147871833D01*
X232332621Y-147816541D01*
X232356193Y-147761545D01*
X232358918Y-147752742D01*
X232394737Y-147634101D01*
X232406359Y-147575408D01*
X232418794Y-147516906D01*
X232419756Y-147507750D01*
X232419757Y-147507745D01*
X232419757Y-147507741D01*
X232431850Y-147384403D01*
X232431850Y-147384402D01*
X232435000Y-147352419D01*
X232435000Y-134587581D01*
X232432242Y-134559581D01*
X232432269Y-134555745D01*
X232431369Y-134546574D01*
X232418414Y-134423323D01*
X232406387Y-134364733D01*
X232395178Y-134305971D01*
X232392514Y-134297149D01*
X232355867Y-134178762D01*
X232332692Y-134123632D01*
X232310278Y-134068153D01*
X232305951Y-134060017D01*
X232247007Y-133951002D01*
X232213565Y-133901422D01*
X232180803Y-133851355D01*
X232174978Y-133844214D01*
X232095982Y-133748724D01*
X232053566Y-133706603D01*
X232011684Y-133663834D01*
X232004584Y-133657961D01*
X231908545Y-133579633D01*
X231858703Y-133546518D01*
X231809362Y-133512733D01*
X231801256Y-133508350D01*
X231691832Y-133450168D01*
X231636554Y-133427384D01*
X231581545Y-133403807D01*
X231572741Y-133401082D01*
X231454101Y-133365262D01*
X231395372Y-133353633D01*
X231336905Y-133341206D01*
X231327747Y-133340244D01*
X231327744Y-133340243D01*
X231327741Y-133340243D01*
X231204402Y-133328150D01*
X231172419Y-133325000D01*
X226225523Y-133325000D01*
X225968076Y-133188631D01*
X225912731Y-133165921D01*
X225857715Y-133142443D01*
X225848911Y-133139733D01*
X225848905Y-133139731D01*
X225420939Y-133011255D01*
X225362284Y-132999737D01*
X225303710Y-132987383D01*
X225294544Y-132986434D01*
X224849771Y-132943530D01*
X224789926Y-132943624D01*
X224730139Y-132942883D01*
X224720963Y-132943733D01*
X224720961Y-132943733D01*
X224276327Y-132988036D01*
X224217643Y-132999752D01*
X224158847Y-133010638D01*
X224150013Y-133013253D01*
X224150007Y-133013255D01*
X223722450Y-133143076D01*
X223667201Y-133165950D01*
X223611597Y-133188066D01*
X223603437Y-133192348D01*
X223354895Y-133325002D01*
X218407582Y-133325000D01*
X218379581Y-133327758D01*
X218375745Y-133327731D01*
X218366574Y-133328631D01*
X218243323Y-133341586D01*
X218184733Y-133353613D01*
X218125971Y-133364822D01*
X218117149Y-133367486D01*
X217998762Y-133404133D01*
X217943632Y-133427308D01*
X217888153Y-133449722D01*
X217880017Y-133454049D01*
X217771002Y-133512993D01*
X217721422Y-133546435D01*
X217671355Y-133579197D01*
X217664214Y-133585022D01*
X217568724Y-133664018D01*
X217526603Y-133706434D01*
X217483834Y-133748316D01*
X217477961Y-133755416D01*
X217399633Y-133851455D01*
X217366518Y-133901297D01*
X217332733Y-133950638D01*
X217328350Y-133958744D01*
X217270168Y-134068168D01*
X217247384Y-134123446D01*
X217223807Y-134178455D01*
X217221082Y-134187259D01*
X217185262Y-134305899D01*
X217173641Y-134364592D01*
X217161206Y-134423095D01*
X217160244Y-134432253D01*
X217160244Y-134432254D01*
X217160243Y-134432259D01*
X217148150Y-134555598D01*
X217145000Y-134587582D01*
X211480000Y-134587582D01*
X211480000Y-134587581D01*
X211477242Y-134559581D01*
X211477269Y-134555745D01*
X211476369Y-134546574D01*
X211463414Y-134423323D01*
X211451387Y-134364733D01*
X211440178Y-134305971D01*
X211437514Y-134297149D01*
X211400867Y-134178762D01*
X211377692Y-134123632D01*
X211355278Y-134068153D01*
X211350951Y-134060017D01*
X211292007Y-133951002D01*
X211258565Y-133901422D01*
X211225803Y-133851355D01*
X211219978Y-133844214D01*
X211140982Y-133748724D01*
X211098566Y-133706603D01*
X211056684Y-133663834D01*
X211049584Y-133657961D01*
X210953545Y-133579633D01*
X210903703Y-133546518D01*
X210854362Y-133512733D01*
X210846256Y-133508350D01*
X210736832Y-133450168D01*
X210681554Y-133427384D01*
X210626545Y-133403807D01*
X210617741Y-133401082D01*
X210499101Y-133365262D01*
X210440372Y-133353633D01*
X210381905Y-133341206D01*
X210372747Y-133340244D01*
X210372744Y-133340243D01*
X210372741Y-133340243D01*
X210249402Y-133328150D01*
X210217419Y-133325000D01*
X205270523Y-133325000D01*
X205013076Y-133188631D01*
X204957731Y-133165921D01*
X204902715Y-133142443D01*
X204893911Y-133139733D01*
X204893905Y-133139731D01*
X204465939Y-133011255D01*
X204407284Y-132999737D01*
X204348710Y-132987383D01*
X204339544Y-132986434D01*
X203894771Y-132943530D01*
X203834926Y-132943624D01*
X203775139Y-132942883D01*
X203765963Y-132943733D01*
X203765961Y-132943733D01*
X203321327Y-132988036D01*
X203262643Y-132999752D01*
X203203847Y-133010638D01*
X203195013Y-133013253D01*
X203195007Y-133013255D01*
X202767450Y-133143076D01*
X202712201Y-133165950D01*
X202656597Y-133188066D01*
X202648437Y-133192348D01*
X202399895Y-133325002D01*
X197452582Y-133325000D01*
X197424581Y-133327758D01*
X197420745Y-133327731D01*
X197411574Y-133328631D01*
X197288323Y-133341586D01*
X197229733Y-133353613D01*
X197170971Y-133364822D01*
X197162149Y-133367486D01*
X197043762Y-133404133D01*
X196988632Y-133427308D01*
X196933153Y-133449722D01*
X196925017Y-133454049D01*
X196816002Y-133512993D01*
X196766422Y-133546435D01*
X196716355Y-133579197D01*
X196709214Y-133585022D01*
X196613724Y-133664018D01*
X196571603Y-133706434D01*
X196528834Y-133748316D01*
X196522961Y-133755416D01*
X196444633Y-133851455D01*
X196411518Y-133901297D01*
X196377733Y-133950638D01*
X196373350Y-133958744D01*
X196315168Y-134068168D01*
X196292384Y-134123446D01*
X196268807Y-134178455D01*
X196266082Y-134187259D01*
X196230262Y-134305899D01*
X196218641Y-134364592D01*
X196206206Y-134423095D01*
X196205244Y-134432253D01*
X196205244Y-134432254D01*
X196205243Y-134432259D01*
X196193150Y-134555598D01*
X196190000Y-134587582D01*
X190525000Y-134587582D01*
X190525000Y-134587581D01*
X190522242Y-134559581D01*
X190522269Y-134555745D01*
X190521369Y-134546574D01*
X190508414Y-134423323D01*
X190496387Y-134364733D01*
X190485178Y-134305971D01*
X190482514Y-134297149D01*
X190445867Y-134178762D01*
X190422692Y-134123632D01*
X190400278Y-134068153D01*
X190395951Y-134060017D01*
X190337007Y-133951002D01*
X190303565Y-133901422D01*
X190270803Y-133851355D01*
X190264978Y-133844214D01*
X190185982Y-133748724D01*
X190143566Y-133706603D01*
X190101684Y-133663834D01*
X190094584Y-133657961D01*
X189998545Y-133579633D01*
X189948703Y-133546518D01*
X189899362Y-133512733D01*
X189891256Y-133508350D01*
X189781832Y-133450168D01*
X189726554Y-133427384D01*
X189671545Y-133403807D01*
X189662741Y-133401082D01*
X189544101Y-133365262D01*
X189485372Y-133353633D01*
X189426905Y-133341206D01*
X189417747Y-133340244D01*
X189417744Y-133340243D01*
X189417741Y-133340243D01*
X189294402Y-133328150D01*
X189262419Y-133325000D01*
X184315523Y-133325000D01*
X184058076Y-133188631D01*
X184002731Y-133165921D01*
X183947715Y-133142443D01*
X183938911Y-133139733D01*
X183938905Y-133139731D01*
X183510939Y-133011255D01*
X183452284Y-132999737D01*
X183393710Y-132987383D01*
X183384544Y-132986434D01*
X182939771Y-132943530D01*
X182879926Y-132943624D01*
X182820139Y-132942883D01*
X182810963Y-132943733D01*
X182810961Y-132943733D01*
X182366327Y-132988036D01*
X182307643Y-132999752D01*
X182248847Y-133010638D01*
X182240013Y-133013253D01*
X182240007Y-133013255D01*
X181812450Y-133143076D01*
X181757201Y-133165950D01*
X181701597Y-133188066D01*
X181693437Y-133192348D01*
X181444895Y-133325002D01*
X176497582Y-133325000D01*
X176469581Y-133327758D01*
X176465745Y-133327731D01*
X176456574Y-133328631D01*
X176333323Y-133341586D01*
X176274733Y-133353613D01*
X176215971Y-133364822D01*
X176207149Y-133367486D01*
X176088762Y-133404133D01*
X176033632Y-133427308D01*
X175978153Y-133449722D01*
X175970017Y-133454049D01*
X175861002Y-133512993D01*
X175811422Y-133546435D01*
X175761355Y-133579197D01*
X175754214Y-133585022D01*
X175658724Y-133664018D01*
X175616603Y-133706434D01*
X175573834Y-133748316D01*
X175567961Y-133755416D01*
X175489633Y-133851455D01*
X175456518Y-133901297D01*
X175422733Y-133950638D01*
X175418350Y-133958744D01*
X175360168Y-134068168D01*
X175337384Y-134123446D01*
X175313807Y-134178455D01*
X175311082Y-134187259D01*
X175275262Y-134305899D01*
X175263641Y-134364592D01*
X175251206Y-134423095D01*
X175250244Y-134432253D01*
X175250244Y-134432254D01*
X175250243Y-134432259D01*
X175238150Y-134555598D01*
X175235000Y-134587582D01*
X164490000Y-134587582D01*
X164490000Y-134587581D01*
X164487242Y-134559581D01*
X164487269Y-134555745D01*
X164486369Y-134546574D01*
X164473414Y-134423323D01*
X164461387Y-134364733D01*
X164450178Y-134305971D01*
X164447514Y-134297149D01*
X164410867Y-134178762D01*
X164387692Y-134123632D01*
X164365278Y-134068153D01*
X164360951Y-134060017D01*
X164302007Y-133951002D01*
X164268565Y-133901422D01*
X164235803Y-133851355D01*
X164229978Y-133844214D01*
X164150982Y-133748724D01*
X164108566Y-133706603D01*
X164066684Y-133663834D01*
X164059584Y-133657961D01*
X163963545Y-133579633D01*
X163913703Y-133546518D01*
X163864362Y-133512733D01*
X163856256Y-133508350D01*
X163746832Y-133450168D01*
X163691554Y-133427384D01*
X163636545Y-133403807D01*
X163627741Y-133401082D01*
X163509101Y-133365262D01*
X163450372Y-133353633D01*
X163391905Y-133341206D01*
X163382747Y-133340244D01*
X163382744Y-133340243D01*
X163382741Y-133340243D01*
X163259402Y-133328150D01*
X163227419Y-133325000D01*
X158280523Y-133325000D01*
X158023076Y-133188631D01*
X157967731Y-133165921D01*
X157912715Y-133142443D01*
X157903911Y-133139733D01*
X157903905Y-133139731D01*
X157475939Y-133011255D01*
X157417284Y-132999737D01*
X157358710Y-132987383D01*
X157349544Y-132986434D01*
X156904771Y-132943530D01*
X156844926Y-132943624D01*
X156785139Y-132942883D01*
X156775963Y-132943733D01*
X156775961Y-132943733D01*
X156331327Y-132988036D01*
X156272643Y-132999752D01*
X156213847Y-133010638D01*
X156205013Y-133013253D01*
X156205007Y-133013255D01*
X155777450Y-133143076D01*
X155722201Y-133165950D01*
X155666597Y-133188066D01*
X155658437Y-133192348D01*
X155409895Y-133325002D01*
X150462582Y-133325000D01*
X150434581Y-133327758D01*
X150430745Y-133327731D01*
X150421574Y-133328631D01*
X150298323Y-133341586D01*
X150239733Y-133353613D01*
X150180971Y-133364822D01*
X150172149Y-133367486D01*
X150053762Y-133404133D01*
X149998632Y-133427308D01*
X149943153Y-133449722D01*
X149935017Y-133454049D01*
X149826002Y-133512993D01*
X149776422Y-133546435D01*
X149726355Y-133579197D01*
X149719214Y-133585022D01*
X149623724Y-133664018D01*
X149581603Y-133706434D01*
X149538834Y-133748316D01*
X149532961Y-133755416D01*
X149454633Y-133851455D01*
X149421518Y-133901297D01*
X149387733Y-133950638D01*
X149383350Y-133958744D01*
X149325168Y-134068168D01*
X149302384Y-134123446D01*
X149278807Y-134178455D01*
X149276082Y-134187259D01*
X149240262Y-134305899D01*
X149228641Y-134364592D01*
X149216206Y-134423095D01*
X149215244Y-134432253D01*
X149215244Y-134432254D01*
X149215243Y-134432259D01*
X149203150Y-134555598D01*
X149200000Y-134587582D01*
X141630000Y-134587582D01*
X141630000Y-113632582D01*
X149200000Y-113632582D01*
X149200001Y-126397419D01*
X149202758Y-126425410D01*
X149202731Y-126429255D01*
X149203631Y-126438426D01*
X149216586Y-126561677D01*
X149228615Y-126620274D01*
X149239822Y-126679028D01*
X149242486Y-126687850D01*
X149279133Y-126806238D01*
X149302308Y-126861368D01*
X149324722Y-126916847D01*
X149329049Y-126924983D01*
X149387992Y-127033998D01*
X149421437Y-127083582D01*
X149454197Y-127133645D01*
X149460022Y-127140786D01*
X149539018Y-127236276D01*
X149581467Y-127278430D01*
X149623315Y-127321165D01*
X149630416Y-127327039D01*
X149726455Y-127405367D01*
X149776281Y-127438472D01*
X149825638Y-127472267D01*
X149833744Y-127476650D01*
X149943167Y-127534832D01*
X149998459Y-127557621D01*
X150053455Y-127581193D01*
X150062258Y-127583918D01*
X150180899Y-127619737D01*
X150239583Y-127631357D01*
X150298094Y-127643794D01*
X150307250Y-127644756D01*
X150307255Y-127644757D01*
X150307259Y-127644757D01*
X150430597Y-127656850D01*
X150430598Y-127656850D01*
X150462581Y-127660000D01*
X163227419Y-127660000D01*
X163255419Y-127657242D01*
X163259255Y-127657269D01*
X163268426Y-127656369D01*
X163391677Y-127643414D01*
X163450274Y-127631385D01*
X163509028Y-127620178D01*
X163517850Y-127617514D01*
X163636238Y-127580867D01*
X163691368Y-127557692D01*
X163746847Y-127535278D01*
X163754983Y-127530951D01*
X163863998Y-127472008D01*
X163913582Y-127438563D01*
X163963645Y-127405803D01*
X163970786Y-127399978D01*
X164066276Y-127320982D01*
X164108430Y-127278533D01*
X164151165Y-127236685D01*
X164157039Y-127229584D01*
X164235367Y-127133545D01*
X164268472Y-127083719D01*
X164302267Y-127034362D01*
X164306650Y-127026256D01*
X164364832Y-126916833D01*
X164387621Y-126861541D01*
X164411193Y-126806545D01*
X164413918Y-126797742D01*
X164449737Y-126679101D01*
X164461359Y-126620408D01*
X164473794Y-126561906D01*
X164474756Y-126552750D01*
X164474757Y-126552745D01*
X164474757Y-126552741D01*
X164486850Y-126429403D01*
X164486850Y-126429402D01*
X164490000Y-126397419D01*
X164490000Y-113632582D01*
X196190000Y-113632582D01*
X196190001Y-126397419D01*
X196192758Y-126425410D01*
X196192731Y-126429255D01*
X196193631Y-126438426D01*
X196206586Y-126561677D01*
X196218615Y-126620274D01*
X196229822Y-126679028D01*
X196232486Y-126687850D01*
X196269133Y-126806238D01*
X196292308Y-126861368D01*
X196314722Y-126916847D01*
X196319049Y-126924983D01*
X196377992Y-127033998D01*
X196411437Y-127083582D01*
X196444197Y-127133645D01*
X196450022Y-127140786D01*
X196529018Y-127236276D01*
X196571467Y-127278430D01*
X196613315Y-127321165D01*
X196620416Y-127327039D01*
X196716455Y-127405367D01*
X196766281Y-127438472D01*
X196815638Y-127472267D01*
X196823744Y-127476650D01*
X196933167Y-127534832D01*
X196988459Y-127557621D01*
X197043455Y-127581193D01*
X197052258Y-127583918D01*
X197170899Y-127619737D01*
X197229583Y-127631357D01*
X197288094Y-127643794D01*
X197297250Y-127644756D01*
X197297255Y-127644757D01*
X197297259Y-127644757D01*
X197420597Y-127656850D01*
X197420598Y-127656850D01*
X197452581Y-127660000D01*
X210217419Y-127660000D01*
X210245419Y-127657242D01*
X210249255Y-127657269D01*
X210258426Y-127656369D01*
X210381677Y-127643414D01*
X210440274Y-127631385D01*
X210499028Y-127620178D01*
X210507850Y-127617514D01*
X210626238Y-127580867D01*
X210681368Y-127557692D01*
X210736847Y-127535278D01*
X210744983Y-127530951D01*
X210853998Y-127472008D01*
X210903582Y-127438563D01*
X210953645Y-127405803D01*
X210960786Y-127399978D01*
X211056276Y-127320982D01*
X211098430Y-127278533D01*
X211141165Y-127236685D01*
X211147039Y-127229584D01*
X211225367Y-127133545D01*
X211258472Y-127083719D01*
X211292267Y-127034362D01*
X211296650Y-127026256D01*
X211354832Y-126916833D01*
X211377621Y-126861541D01*
X211401193Y-126806545D01*
X211403918Y-126797742D01*
X211439737Y-126679101D01*
X211451359Y-126620408D01*
X211463794Y-126561906D01*
X211464756Y-126552750D01*
X211464757Y-126552745D01*
X211464757Y-126552741D01*
X211476850Y-126429403D01*
X211476850Y-126429402D01*
X211480000Y-126397419D01*
X211480000Y-113632581D01*
X211477242Y-113604581D01*
X211477269Y-113600745D01*
X211476369Y-113591574D01*
X211463414Y-113468323D01*
X211451387Y-113409733D01*
X211440178Y-113350971D01*
X211437514Y-113342149D01*
X211400867Y-113223762D01*
X211377692Y-113168632D01*
X211355278Y-113113153D01*
X211350951Y-113105017D01*
X211292007Y-112996002D01*
X211258565Y-112946422D01*
X211225803Y-112896355D01*
X211219978Y-112889214D01*
X211140982Y-112793724D01*
X211098566Y-112751603D01*
X211056684Y-112708834D01*
X211049584Y-112702961D01*
X210953545Y-112624633D01*
X210903703Y-112591518D01*
X210854362Y-112557733D01*
X210846256Y-112553350D01*
X210736832Y-112495168D01*
X210681554Y-112472384D01*
X210626545Y-112448807D01*
X210617741Y-112446082D01*
X210499101Y-112410262D01*
X210440372Y-112398633D01*
X210381905Y-112386206D01*
X210372747Y-112385244D01*
X210372744Y-112385243D01*
X210372741Y-112385243D01*
X210249402Y-112373150D01*
X210217419Y-112370000D01*
X205270523Y-112370000D01*
X205013076Y-112233631D01*
X204957731Y-112210921D01*
X204902715Y-112187443D01*
X204893911Y-112184733D01*
X204893905Y-112184731D01*
X204465939Y-112056255D01*
X204407284Y-112044737D01*
X204348710Y-112032383D01*
X204339544Y-112031434D01*
X203894771Y-111988530D01*
X203834926Y-111988624D01*
X203775139Y-111987883D01*
X203765963Y-111988733D01*
X203765961Y-111988733D01*
X203321327Y-112033036D01*
X203262643Y-112044752D01*
X203203847Y-112055638D01*
X203195013Y-112058253D01*
X203195007Y-112058255D01*
X202767450Y-112188076D01*
X202712201Y-112210950D01*
X202656597Y-112233066D01*
X202648437Y-112237348D01*
X202399895Y-112370002D01*
X197452582Y-112370000D01*
X197424581Y-112372758D01*
X197420745Y-112372731D01*
X197411574Y-112373631D01*
X197288323Y-112386586D01*
X197229733Y-112398613D01*
X197170971Y-112409822D01*
X197162149Y-112412486D01*
X197043762Y-112449133D01*
X196988632Y-112472308D01*
X196933153Y-112494722D01*
X196925017Y-112499049D01*
X196816002Y-112557993D01*
X196766422Y-112591435D01*
X196716355Y-112624197D01*
X196709214Y-112630022D01*
X196613724Y-112709018D01*
X196571603Y-112751434D01*
X196528834Y-112793316D01*
X196522961Y-112800416D01*
X196444633Y-112896455D01*
X196411518Y-112946297D01*
X196377733Y-112995638D01*
X196373350Y-113003744D01*
X196315168Y-113113168D01*
X196292384Y-113168446D01*
X196268807Y-113223455D01*
X196266082Y-113232259D01*
X196230262Y-113350899D01*
X196218641Y-113409592D01*
X196206206Y-113468095D01*
X196205244Y-113477253D01*
X196205244Y-113477254D01*
X196205243Y-113477259D01*
X196193150Y-113600598D01*
X196190000Y-113632582D01*
X164490000Y-113632582D01*
X164490000Y-113632581D01*
X164487242Y-113604581D01*
X164487269Y-113600745D01*
X164486369Y-113591574D01*
X164473414Y-113468323D01*
X164461387Y-113409733D01*
X164450178Y-113350971D01*
X164447514Y-113342149D01*
X164410867Y-113223762D01*
X164387692Y-113168632D01*
X164365278Y-113113153D01*
X164360951Y-113105017D01*
X164302007Y-112996002D01*
X164268565Y-112946422D01*
X164235803Y-112896355D01*
X164229978Y-112889214D01*
X164150982Y-112793724D01*
X164108566Y-112751603D01*
X164066684Y-112708834D01*
X164059584Y-112702961D01*
X163963545Y-112624633D01*
X163913703Y-112591518D01*
X163864362Y-112557733D01*
X163856256Y-112553350D01*
X163746832Y-112495168D01*
X163691554Y-112472384D01*
X163636545Y-112448807D01*
X163627741Y-112446082D01*
X163509101Y-112410262D01*
X163450372Y-112398633D01*
X163391905Y-112386206D01*
X163382747Y-112385244D01*
X163382744Y-112385243D01*
X163382741Y-112385243D01*
X163259402Y-112373150D01*
X163227419Y-112370000D01*
X158280523Y-112370000D01*
X158023076Y-112233631D01*
X157967731Y-112210921D01*
X157912715Y-112187443D01*
X157903911Y-112184733D01*
X157903905Y-112184731D01*
X157475939Y-112056255D01*
X157417284Y-112044737D01*
X157358710Y-112032383D01*
X157349544Y-112031434D01*
X156904771Y-111988530D01*
X156844926Y-111988624D01*
X156785139Y-111987883D01*
X156775963Y-111988733D01*
X156775961Y-111988733D01*
X156331327Y-112033036D01*
X156272643Y-112044752D01*
X156213847Y-112055638D01*
X156205013Y-112058253D01*
X156205007Y-112058255D01*
X155777450Y-112188076D01*
X155722201Y-112210950D01*
X155666597Y-112233066D01*
X155658437Y-112237348D01*
X155409895Y-112370002D01*
X150462582Y-112370000D01*
X150434581Y-112372758D01*
X150430745Y-112372731D01*
X150421574Y-112373631D01*
X150298323Y-112386586D01*
X150239733Y-112398613D01*
X150180971Y-112409822D01*
X150172149Y-112412486D01*
X150053762Y-112449133D01*
X149998632Y-112472308D01*
X149943153Y-112494722D01*
X149935017Y-112499049D01*
X149826002Y-112557993D01*
X149776422Y-112591435D01*
X149726355Y-112624197D01*
X149719214Y-112630022D01*
X149623724Y-112709018D01*
X149581603Y-112751434D01*
X149538834Y-112793316D01*
X149532961Y-112800416D01*
X149454633Y-112896455D01*
X149421518Y-112946297D01*
X149387733Y-112995638D01*
X149383350Y-113003744D01*
X149325168Y-113113168D01*
X149302384Y-113168446D01*
X149278807Y-113223455D01*
X149276082Y-113232259D01*
X149240262Y-113350899D01*
X149228641Y-113409592D01*
X149216206Y-113468095D01*
X149215244Y-113477253D01*
X149215244Y-113477254D01*
X149215243Y-113477259D01*
X149203150Y-113600598D01*
X149200000Y-113632582D01*
X141630000Y-113632582D01*
X141630000Y-92677582D01*
X149200000Y-92677582D01*
X149200001Y-105442419D01*
X149202758Y-105470410D01*
X149202731Y-105474255D01*
X149203631Y-105483426D01*
X149216586Y-105606677D01*
X149228615Y-105665274D01*
X149239822Y-105724028D01*
X149242486Y-105732850D01*
X149279133Y-105851238D01*
X149302308Y-105906368D01*
X149324722Y-105961847D01*
X149329049Y-105969983D01*
X149387992Y-106078998D01*
X149421437Y-106128582D01*
X149454197Y-106178645D01*
X149460022Y-106185786D01*
X149539018Y-106281276D01*
X149581467Y-106323430D01*
X149623315Y-106366165D01*
X149630416Y-106372039D01*
X149726455Y-106450367D01*
X149776281Y-106483472D01*
X149825638Y-106517267D01*
X149833744Y-106521650D01*
X149943167Y-106579832D01*
X149998459Y-106602621D01*
X150053455Y-106626193D01*
X150062258Y-106628918D01*
X150180899Y-106664737D01*
X150239583Y-106676357D01*
X150298094Y-106688794D01*
X150307250Y-106689756D01*
X150307255Y-106689757D01*
X150307259Y-106689757D01*
X150430597Y-106701850D01*
X150430598Y-106701850D01*
X150462581Y-106705000D01*
X163227419Y-106705000D01*
X163255419Y-106702242D01*
X163259255Y-106702269D01*
X163268426Y-106701369D01*
X163391677Y-106688414D01*
X163450274Y-106676385D01*
X163509028Y-106665178D01*
X163517850Y-106662514D01*
X163636238Y-106625867D01*
X163691368Y-106602692D01*
X163746847Y-106580278D01*
X163754983Y-106575951D01*
X163863998Y-106517008D01*
X163913582Y-106483563D01*
X163963645Y-106450803D01*
X163970786Y-106444978D01*
X164066276Y-106365982D01*
X164108430Y-106323533D01*
X164151165Y-106281685D01*
X164157039Y-106274584D01*
X164235367Y-106178545D01*
X164268472Y-106128719D01*
X164302267Y-106079362D01*
X164306650Y-106071256D01*
X164364832Y-105961833D01*
X164387621Y-105906541D01*
X164411193Y-105851545D01*
X164413918Y-105842742D01*
X164449737Y-105724101D01*
X164461359Y-105665408D01*
X164473794Y-105606906D01*
X164474756Y-105597750D01*
X164474757Y-105597745D01*
X164474757Y-105597741D01*
X164486850Y-105474403D01*
X164486850Y-105474402D01*
X164490000Y-105442419D01*
X164490000Y-92677581D01*
X164487242Y-92649581D01*
X164487269Y-92645745D01*
X164486369Y-92636574D01*
X164473414Y-92513323D01*
X164461387Y-92454733D01*
X164450178Y-92395971D01*
X164447514Y-92387149D01*
X164410867Y-92268762D01*
X164387692Y-92213632D01*
X164365278Y-92158153D01*
X164360951Y-92150017D01*
X164302007Y-92041002D01*
X164268565Y-91991422D01*
X164235803Y-91941355D01*
X164229978Y-91934214D01*
X164150982Y-91838724D01*
X164108566Y-91796603D01*
X164066684Y-91753834D01*
X164059584Y-91747961D01*
X163963545Y-91669633D01*
X163913703Y-91636518D01*
X163864362Y-91602733D01*
X163856256Y-91598350D01*
X163746832Y-91540168D01*
X163691554Y-91517384D01*
X163636545Y-91493807D01*
X163627741Y-91491082D01*
X163509101Y-91455262D01*
X163450372Y-91443633D01*
X163391905Y-91431206D01*
X163382747Y-91430244D01*
X163382744Y-91430243D01*
X163382741Y-91430243D01*
X163259402Y-91418150D01*
X163227419Y-91415000D01*
X158280523Y-91415000D01*
X158023076Y-91278631D01*
X157967731Y-91255921D01*
X157912715Y-91232443D01*
X157903911Y-91229733D01*
X157903905Y-91229731D01*
X157475939Y-91101255D01*
X157417284Y-91089737D01*
X157358710Y-91077383D01*
X157349544Y-91076434D01*
X156904771Y-91033530D01*
X156844926Y-91033624D01*
X156785139Y-91032883D01*
X156775963Y-91033733D01*
X156775961Y-91033733D01*
X156331327Y-91078036D01*
X156272643Y-91089752D01*
X156213847Y-91100638D01*
X156205013Y-91103253D01*
X156205007Y-91103255D01*
X155777450Y-91233076D01*
X155722201Y-91255950D01*
X155666597Y-91278066D01*
X155658437Y-91282348D01*
X155409895Y-91415002D01*
X150462582Y-91415000D01*
X150434581Y-91417758D01*
X150430745Y-91417731D01*
X150421574Y-91418631D01*
X150298323Y-91431586D01*
X150239733Y-91443613D01*
X150180971Y-91454822D01*
X150172149Y-91457486D01*
X150053762Y-91494133D01*
X149998632Y-91517308D01*
X149943153Y-91539722D01*
X149935017Y-91544049D01*
X149826002Y-91602993D01*
X149776422Y-91636435D01*
X149726355Y-91669197D01*
X149719214Y-91675022D01*
X149623724Y-91754018D01*
X149581603Y-91796434D01*
X149538834Y-91838316D01*
X149532961Y-91845416D01*
X149454633Y-91941455D01*
X149421518Y-91991297D01*
X149387733Y-92040638D01*
X149383350Y-92048744D01*
X149325168Y-92158168D01*
X149302384Y-92213446D01*
X149278807Y-92268455D01*
X149276082Y-92277259D01*
X149240262Y-92395899D01*
X149228641Y-92454592D01*
X149216206Y-92513095D01*
X149215244Y-92522253D01*
X149215244Y-92522254D01*
X149215243Y-92522259D01*
X149203151Y-92645585D01*
X149200000Y-92677582D01*
X141630000Y-92677582D01*
X141630000Y-87394609D01*
X142654997Y-87394609D01*
X142841073Y-87735766D01*
X143258409Y-87951513D01*
X143709815Y-88081696D01*
X144177946Y-88121313D01*
X144644811Y-88068842D01*
X145092468Y-87926297D01*
X145448927Y-87735766D01*
X145635003Y-87394609D01*
X144145000Y-85904605D01*
X142654997Y-87394609D01*
X141630000Y-87394609D01*
X141630000Y-85757946D01*
X141748687Y-85757946D01*
X141801158Y-86224811D01*
X141943703Y-86672468D01*
X142134234Y-87028927D01*
X142475391Y-87215003D01*
X143965395Y-85725000D01*
X144324605Y-85725000D01*
X145814609Y-87215003D01*
X146155766Y-87028927D01*
X146371513Y-86611591D01*
X146501696Y-86160185D01*
X146541313Y-85692054D01*
X146488842Y-85225189D01*
X146346297Y-84777532D01*
X146155766Y-84421073D01*
X145814609Y-84234997D01*
X144324605Y-85725000D01*
X143965395Y-85725000D01*
X142475391Y-84234997D01*
X142134234Y-84421073D01*
X141918487Y-84838409D01*
X141788304Y-85289815D01*
X141748687Y-85757946D01*
X141630000Y-85757946D01*
X141630000Y-85757278D01*
X141681002Y-85237116D01*
X141822694Y-84767812D01*
X142052837Y-84334975D01*
X142280860Y-84055391D01*
X142654997Y-84055391D01*
X144145000Y-85545395D01*
X145635003Y-84055391D01*
X145448927Y-83714234D01*
X145031591Y-83498487D01*
X144580185Y-83368304D01*
X144112054Y-83328687D01*
X143645189Y-83381158D01*
X143197532Y-83523703D01*
X142841073Y-83714234D01*
X142654997Y-84055391D01*
X142280860Y-84055391D01*
X142362678Y-83955073D01*
X142740397Y-83642597D01*
X143171627Y-83409431D01*
X143639928Y-83264468D01*
X144158153Y-83210000D01*
X152517795Y-83210000D01*
X152286066Y-83256094D01*
G04 #@! TA.AperFunction,Conductor*
D12*
G36*
X152286066Y-83256094D02*
G01*
X151818796Y-83449643D01*
X151398265Y-83730633D01*
X151040633Y-84088265D01*
X150759643Y-84508796D01*
X150566094Y-84976066D01*
X150467423Y-85472116D01*
X150467423Y-85977884D01*
X150566094Y-86473934D01*
X150759643Y-86941204D01*
X151040633Y-87361735D01*
X151398265Y-87719367D01*
X151818796Y-88000357D01*
X152286066Y-88193906D01*
X152782116Y-88292577D01*
X153287884Y-88292577D01*
X153783934Y-88193906D01*
X154251204Y-88000357D01*
X154671735Y-87719367D01*
X155029367Y-87361735D01*
X155310357Y-86941204D01*
X155503906Y-86473934D01*
X155602577Y-85977884D01*
X155602577Y-85472116D01*
X155503906Y-84976066D01*
X155310357Y-84508796D01*
X155029367Y-84088265D01*
X154671735Y-83730633D01*
X154251204Y-83449643D01*
X153783934Y-83256094D01*
X153552205Y-83210000D01*
X160137795Y-83210000D01*
X159906066Y-83256094D01*
X159438796Y-83449643D01*
X159018265Y-83730633D01*
X158660633Y-84088265D01*
X158379643Y-84508796D01*
X158186094Y-84976066D01*
X158087423Y-85472116D01*
X158087423Y-85977884D01*
X158186094Y-86473934D01*
X158379643Y-86941204D01*
X158660633Y-87361735D01*
X159018265Y-87719367D01*
X159438796Y-88000357D01*
X159906066Y-88193906D01*
X160402116Y-88292577D01*
X160907884Y-88292577D01*
X161403934Y-88193906D01*
X161871204Y-88000357D01*
X162291735Y-87719367D01*
X162649367Y-87361735D01*
X162930357Y-86941204D01*
X163123906Y-86473934D01*
X163222577Y-85977884D01*
X163222577Y-85472116D01*
X163123906Y-84976066D01*
X162930357Y-84508796D01*
X162649367Y-84088265D01*
X162291735Y-83730633D01*
X161871204Y-83449643D01*
X161403934Y-83256094D01*
X161172205Y-83210000D01*
X188562725Y-83210000D01*
X188569513Y-83210666D01*
X188570001Y-83215310D01*
X188570000Y-92107418D01*
X188572758Y-92135419D01*
X188572731Y-92139255D01*
X188573631Y-92148426D01*
X188586586Y-92271677D01*
X188598615Y-92330274D01*
X188609822Y-92389028D01*
X188612486Y-92397850D01*
X188649133Y-92516238D01*
X188672308Y-92571368D01*
X188694722Y-92626847D01*
X188699049Y-92634983D01*
X188757992Y-92743998D01*
X188791437Y-92793582D01*
X188824197Y-92843645D01*
X188830022Y-92850786D01*
X188909018Y-92946276D01*
X188951467Y-92988430D01*
X188993315Y-93031165D01*
X189000416Y-93037039D01*
X189096455Y-93115367D01*
X189146281Y-93148472D01*
X189195638Y-93182267D01*
X189203744Y-93186650D01*
X189313167Y-93244832D01*
X189368459Y-93267621D01*
X189423455Y-93291193D01*
X189432258Y-93293918D01*
X189550899Y-93329737D01*
X189609583Y-93341357D01*
X189668094Y-93353794D01*
X189677250Y-93354756D01*
X189677255Y-93354757D01*
X189677259Y-93354757D01*
X189800597Y-93366850D01*
X189800598Y-93366850D01*
X189832581Y-93370000D01*
X233077419Y-93370000D01*
X233105419Y-93367242D01*
X233109255Y-93367269D01*
X233118426Y-93366369D01*
X233241677Y-93353414D01*
X233300274Y-93341385D01*
X233359028Y-93330178D01*
X233367850Y-93327514D01*
X233486238Y-93290867D01*
X233541368Y-93267692D01*
X233596847Y-93245278D01*
X233604983Y-93240951D01*
X233713998Y-93182008D01*
X233763582Y-93148563D01*
X233813645Y-93115803D01*
X233820786Y-93109978D01*
X233916276Y-93030982D01*
X233958430Y-92988533D01*
X234001165Y-92946685D01*
X234007039Y-92939584D01*
X234085367Y-92843545D01*
X234118472Y-92793719D01*
X234152267Y-92744362D01*
X234156650Y-92736256D01*
X234214832Y-92626833D01*
X234237621Y-92571541D01*
X234261193Y-92516545D01*
X234263918Y-92507742D01*
X234299737Y-92389101D01*
X234311359Y-92330408D01*
X234323794Y-92271906D01*
X234324756Y-92262750D01*
X234324757Y-92262745D01*
X234324757Y-92262741D01*
X234336850Y-92139403D01*
X234336850Y-92139402D01*
X234340000Y-92107419D01*
X234340000Y-87394609D01*
X235999997Y-87394609D01*
X236186073Y-87735766D01*
X236603409Y-87951513D01*
X237054815Y-88081696D01*
X237522946Y-88121313D01*
X237989811Y-88068842D01*
X238437468Y-87926297D01*
X238793927Y-87735766D01*
X238980003Y-87394609D01*
X237490000Y-85904605D01*
X235999997Y-87394609D01*
X234340000Y-87394609D01*
X234340000Y-85757946D01*
X235093687Y-85757946D01*
X235146158Y-86224811D01*
X235288703Y-86672468D01*
X235479234Y-87028927D01*
X235820391Y-87215003D01*
X237310395Y-85725000D01*
X237669605Y-85725000D01*
X239159609Y-87215003D01*
X239500766Y-87028927D01*
X239716513Y-86611591D01*
X239846696Y-86160185D01*
X239886313Y-85692054D01*
X239833842Y-85225189D01*
X239691297Y-84777532D01*
X239500766Y-84421073D01*
X239159609Y-84234997D01*
X237669605Y-85725000D01*
X237310395Y-85725000D01*
X235820391Y-84234997D01*
X235479234Y-84421073D01*
X235263487Y-84838409D01*
X235133304Y-85289815D01*
X235093687Y-85757946D01*
X234340000Y-85757946D01*
X234340000Y-84055391D01*
X235999997Y-84055391D01*
X237490000Y-85545395D01*
X238980003Y-84055391D01*
X238793927Y-83714234D01*
X238376591Y-83498487D01*
X237925185Y-83368304D01*
X237457054Y-83328687D01*
X236990189Y-83381158D01*
X236542532Y-83523703D01*
X236186073Y-83714234D01*
X235999997Y-84055391D01*
X234340000Y-84055391D01*
X234340000Y-83217275D01*
X234340666Y-83210487D01*
X234345301Y-83210000D01*
X237457722Y-83210000D01*
X237977884Y-83261002D01*
X238447188Y-83402694D01*
X238880025Y-83632837D01*
X239259927Y-83942678D01*
X239572403Y-84320397D01*
X239805569Y-84751627D01*
X239950532Y-85219928D01*
X240005000Y-85738153D01*
X240005001Y-154272712D01*
X239953998Y-154792883D01*
X239812307Y-155262186D01*
X239582161Y-155695028D01*
X239272323Y-156074927D01*
X238894600Y-156387406D01*
X238463373Y-156620569D01*
X237995073Y-156765532D01*
X237476847Y-156820000D01*
X144177278Y-156820000D01*
X143657117Y-156768998D01*
X143187814Y-156627307D01*
X142754972Y-156397161D01*
X142375073Y-156087323D01*
X142281829Y-155974609D01*
X142654997Y-155974609D01*
X142841073Y-156315766D01*
X143258409Y-156531513D01*
X143709815Y-156661696D01*
X144177946Y-156701313D01*
X144644811Y-156648842D01*
X145092468Y-156506297D01*
X145448927Y-156315766D01*
X145635003Y-155974609D01*
X235999997Y-155974609D01*
X236186073Y-156315766D01*
X236603409Y-156531513D01*
X237054815Y-156661696D01*
X237522946Y-156701313D01*
X237989811Y-156648842D01*
X238437468Y-156506297D01*
X238793927Y-156315766D01*
X238980003Y-155974609D01*
X237490000Y-154484605D01*
X235999997Y-155974609D01*
X145635003Y-155974609D01*
X144145000Y-154484605D01*
X142654997Y-155974609D01*
X142281829Y-155974609D01*
X142062594Y-155709600D01*
X141829431Y-155278373D01*
X141684468Y-154810073D01*
X141634846Y-154337946D01*
X141748687Y-154337946D01*
X141801158Y-154804811D01*
X141943703Y-155252468D01*
X142134234Y-155608927D01*
X142475391Y-155795003D01*
X143965395Y-154305000D01*
X144324605Y-154305000D01*
X145814609Y-155795003D01*
X146155766Y-155608927D01*
X146371513Y-155191591D01*
X146501696Y-154740185D01*
X146535736Y-154337946D01*
X235093687Y-154337946D01*
X235146158Y-154804811D01*
X235288703Y-155252468D01*
X235479234Y-155608927D01*
X235820391Y-155795003D01*
X237310395Y-154305000D01*
X237669605Y-154305000D01*
X239159609Y-155795003D01*
X239500766Y-155608927D01*
X239716513Y-155191591D01*
X239846696Y-154740185D01*
X239886313Y-154272054D01*
X239833842Y-153805189D01*
X239691297Y-153357532D01*
X239500766Y-153001073D01*
X239159609Y-152814997D01*
X237669605Y-154305000D01*
X237310395Y-154305000D01*
X235820391Y-152814997D01*
X235479234Y-153001073D01*
X235263487Y-153418409D01*
X235133304Y-153869815D01*
X235093687Y-154337946D01*
X146535736Y-154337946D01*
X146541313Y-154272054D01*
X146488842Y-153805189D01*
X146346297Y-153357532D01*
X146155766Y-153001073D01*
X145814609Y-152814997D01*
X144324605Y-154305000D01*
X143965395Y-154305000D01*
X142475391Y-152814997D01*
X142134234Y-153001073D01*
X141918487Y-153418409D01*
X141788304Y-153869815D01*
X141748687Y-154337946D01*
X141634846Y-154337946D01*
X141630000Y-154291847D01*
X141630000Y-152635391D01*
X142654997Y-152635391D01*
X144145000Y-154125395D01*
X145635003Y-152635391D01*
X235999997Y-152635391D01*
X237490000Y-154125395D01*
X238980003Y-152635391D01*
X238793927Y-152294234D01*
X238376591Y-152078487D01*
X237925185Y-151948304D01*
X237457054Y-151908687D01*
X236990189Y-151961158D01*
X236542532Y-152103703D01*
X236186073Y-152294234D01*
X235999997Y-152635391D01*
X145635003Y-152635391D01*
X145448927Y-152294234D01*
X145031591Y-152078487D01*
X144580185Y-151948304D01*
X144112054Y-151908687D01*
X143645189Y-151961158D01*
X143197532Y-152103703D01*
X142841073Y-152294234D01*
X142654997Y-152635391D01*
X141630000Y-152635391D01*
X141630000Y-134587582D01*
X149200000Y-134587582D01*
X149200001Y-147352419D01*
X149202758Y-147380410D01*
X149202731Y-147384255D01*
X149203631Y-147393426D01*
X149216586Y-147516677D01*
X149228615Y-147575274D01*
X149239822Y-147634028D01*
X149242486Y-147642850D01*
X149279133Y-147761238D01*
X149302308Y-147816368D01*
X149324722Y-147871847D01*
X149329049Y-147879983D01*
X149387992Y-147988998D01*
X149421437Y-148038582D01*
X149454197Y-148088645D01*
X149460022Y-148095786D01*
X149539018Y-148191276D01*
X149581467Y-148233430D01*
X149623315Y-148276165D01*
X149630416Y-148282039D01*
X149726455Y-148360367D01*
X149776281Y-148393472D01*
X149825638Y-148427267D01*
X149833744Y-148431650D01*
X149943167Y-148489832D01*
X149998459Y-148512621D01*
X150053455Y-148536193D01*
X150062258Y-148538918D01*
X150180899Y-148574737D01*
X150239583Y-148586357D01*
X150298094Y-148598794D01*
X150307250Y-148599756D01*
X150307255Y-148599757D01*
X150307259Y-148599757D01*
X150430597Y-148611850D01*
X150430598Y-148611850D01*
X150462581Y-148615000D01*
X163227419Y-148615000D01*
X163255419Y-148612242D01*
X163259255Y-148612269D01*
X163268426Y-148611369D01*
X163391677Y-148598414D01*
X163450274Y-148586385D01*
X163509028Y-148575178D01*
X163517850Y-148572514D01*
X163636238Y-148535867D01*
X163691368Y-148512692D01*
X163746847Y-148490278D01*
X163754983Y-148485951D01*
X163863998Y-148427008D01*
X163913582Y-148393563D01*
X163963645Y-148360803D01*
X163970786Y-148354978D01*
X164066276Y-148275982D01*
X164108430Y-148233533D01*
X164151165Y-148191685D01*
X164157039Y-148184584D01*
X164235367Y-148088545D01*
X164268472Y-148038719D01*
X164302267Y-147989362D01*
X164306650Y-147981256D01*
X164364832Y-147871833D01*
X164387621Y-147816541D01*
X164411193Y-147761545D01*
X164413918Y-147752742D01*
X164449737Y-147634101D01*
X164461359Y-147575408D01*
X164473794Y-147516906D01*
X164474756Y-147507750D01*
X164474757Y-147507745D01*
X164474757Y-147507741D01*
X164486850Y-147384403D01*
X164486850Y-147384402D01*
X164490000Y-147352419D01*
X164490000Y-134587582D01*
X175235000Y-134587582D01*
X175235001Y-147352419D01*
X175237758Y-147380410D01*
X175237731Y-147384255D01*
X175238631Y-147393426D01*
X175251586Y-147516677D01*
X175263615Y-147575274D01*
X175274822Y-147634028D01*
X175277486Y-147642850D01*
X175314133Y-147761238D01*
X175337308Y-147816368D01*
X175359722Y-147871847D01*
X175364049Y-147879983D01*
X175422992Y-147988998D01*
X175456437Y-148038582D01*
X175489197Y-148088645D01*
X175495022Y-148095786D01*
X175574018Y-148191276D01*
X175616467Y-148233430D01*
X175658315Y-148276165D01*
X175665416Y-148282039D01*
X175761455Y-148360367D01*
X175811281Y-148393472D01*
X175860638Y-148427267D01*
X175868744Y-148431650D01*
X175978167Y-148489832D01*
X176033459Y-148512621D01*
X176088455Y-148536193D01*
X176097258Y-148538918D01*
X176215899Y-148574737D01*
X176274583Y-148586357D01*
X176333094Y-148598794D01*
X176342250Y-148599756D01*
X176342255Y-148599757D01*
X176342259Y-148599757D01*
X176465597Y-148611850D01*
X176465598Y-148611850D01*
X176497581Y-148615000D01*
X189262419Y-148615000D01*
X189290419Y-148612242D01*
X189294255Y-148612269D01*
X189303426Y-148611369D01*
X189426677Y-148598414D01*
X189485274Y-148586385D01*
X189544028Y-148575178D01*
X189552850Y-148572514D01*
X189671238Y-148535867D01*
X189726368Y-148512692D01*
X189781847Y-148490278D01*
X189789983Y-148485951D01*
X189898998Y-148427008D01*
X189948582Y-148393563D01*
X189998645Y-148360803D01*
X190005786Y-148354978D01*
X190101276Y-148275982D01*
X190143430Y-148233533D01*
X190186165Y-148191685D01*
X190192039Y-148184584D01*
X190270367Y-148088545D01*
X190303472Y-148038719D01*
X190337267Y-147989362D01*
X190341650Y-147981256D01*
X190399832Y-147871833D01*
X190422621Y-147816541D01*
X190446193Y-147761545D01*
X190448918Y-147752742D01*
X190484737Y-147634101D01*
X190496359Y-147575408D01*
X190508794Y-147516906D01*
X190509756Y-147507750D01*
X190509757Y-147507745D01*
X190509757Y-147507741D01*
X190521850Y-147384403D01*
X190521850Y-147384402D01*
X190525000Y-147352419D01*
X190525000Y-134587582D01*
X196190000Y-134587582D01*
X196190001Y-147352419D01*
X196192758Y-147380410D01*
X196192731Y-147384255D01*
X196193631Y-147393426D01*
X196206586Y-147516677D01*
X196218615Y-147575274D01*
X196229822Y-147634028D01*
X196232486Y-147642850D01*
X196269133Y-147761238D01*
X196292308Y-147816368D01*
X196314722Y-147871847D01*
X196319049Y-147879983D01*
X196377992Y-147988998D01*
X196411437Y-148038582D01*
X196444197Y-148088645D01*
X196450022Y-148095786D01*
X196529018Y-148191276D01*
X196571467Y-148233430D01*
X196613315Y-148276165D01*
X196620416Y-148282039D01*
X196716455Y-148360367D01*
X196766281Y-148393472D01*
X196815638Y-148427267D01*
X196823744Y-148431650D01*
X196933167Y-148489832D01*
X196988459Y-148512621D01*
X197043455Y-148536193D01*
X197052258Y-148538918D01*
X197170899Y-148574737D01*
X197229583Y-148586357D01*
X197288094Y-148598794D01*
X197297250Y-148599756D01*
X197297255Y-148599757D01*
X197297259Y-148599757D01*
X197420597Y-148611850D01*
X197420598Y-148611850D01*
X197452581Y-148615000D01*
X210217419Y-148615000D01*
X210245419Y-148612242D01*
X210249255Y-148612269D01*
X210258426Y-148611369D01*
X210381677Y-148598414D01*
X210440274Y-148586385D01*
X210499028Y-148575178D01*
X210507850Y-148572514D01*
X210626238Y-148535867D01*
X210681368Y-148512692D01*
X210736847Y-148490278D01*
X210744983Y-148485951D01*
X210853998Y-148427008D01*
X210903582Y-148393563D01*
X210953645Y-148360803D01*
X210960786Y-148354978D01*
X211056276Y-148275982D01*
X211098430Y-148233533D01*
X211141165Y-148191685D01*
X211147039Y-148184584D01*
X211225367Y-148088545D01*
X211258472Y-148038719D01*
X211292267Y-147989362D01*
X211296650Y-147981256D01*
X211354832Y-147871833D01*
X211377621Y-147816541D01*
X211401193Y-147761545D01*
X211403918Y-147752742D01*
X211439737Y-147634101D01*
X211451359Y-147575408D01*
X211463794Y-147516906D01*
X211464756Y-147507750D01*
X211464757Y-147507745D01*
X211464757Y-147507741D01*
X211476850Y-147384403D01*
X211476850Y-147384402D01*
X211480000Y-147352419D01*
X211480000Y-134587582D01*
X217145000Y-134587582D01*
X217145001Y-147352419D01*
X217147758Y-147380410D01*
X217147731Y-147384255D01*
X217148631Y-147393426D01*
X217161586Y-147516677D01*
X217173615Y-147575274D01*
X217184822Y-147634028D01*
X217187486Y-147642850D01*
X217224133Y-147761238D01*
X217247308Y-147816368D01*
X217269722Y-147871847D01*
X217274049Y-147879983D01*
X217332992Y-147988998D01*
X217366437Y-148038582D01*
X217399197Y-148088645D01*
X217405022Y-148095786D01*
X217484018Y-148191276D01*
X217526467Y-148233430D01*
X217568315Y-148276165D01*
X217575416Y-148282039D01*
X217671455Y-148360367D01*
X217721281Y-148393472D01*
X217770638Y-148427267D01*
X217778744Y-148431650D01*
X217888167Y-148489832D01*
X217943459Y-148512621D01*
X217998455Y-148536193D01*
X218007258Y-148538918D01*
X218125899Y-148574737D01*
X218184583Y-148586357D01*
X218243094Y-148598794D01*
X218252250Y-148599756D01*
X218252255Y-148599757D01*
X218252259Y-148599757D01*
X218375597Y-148611850D01*
X218375598Y-148611850D01*
X218407581Y-148615000D01*
X231172419Y-148615000D01*
X231200419Y-148612242D01*
X231204255Y-148612269D01*
X231213426Y-148611369D01*
X231336677Y-148598414D01*
X231395274Y-148586385D01*
X231454028Y-148575178D01*
X231462850Y-148572514D01*
X231581238Y-148535867D01*
X231636368Y-148512692D01*
X231691847Y-148490278D01*
X231699983Y-148485951D01*
X231808998Y-148427008D01*
X231858582Y-148393563D01*
X231908645Y-148360803D01*
X231915786Y-148354978D01*
X232011276Y-148275982D01*
X232053430Y-148233533D01*
X232096165Y-148191685D01*
X232102039Y-148184584D01*
X232180367Y-148088545D01*
X232213472Y-148038719D01*
X232247267Y-147989362D01*
X232251650Y-147981256D01*
X232309832Y-147871833D01*
X232332621Y-147816541D01*
X232356193Y-147761545D01*
X232358918Y-147752742D01*
X232394737Y-147634101D01*
X232406359Y-147575408D01*
X232418794Y-147516906D01*
X232419756Y-147507750D01*
X232419757Y-147507745D01*
X232419757Y-147507741D01*
X232431850Y-147384403D01*
X232431850Y-147384402D01*
X232435000Y-147352419D01*
X232435000Y-134587581D01*
X232432242Y-134559581D01*
X232432269Y-134555745D01*
X232431369Y-134546574D01*
X232418414Y-134423323D01*
X232406387Y-134364733D01*
X232395178Y-134305971D01*
X232392514Y-134297149D01*
X232355867Y-134178762D01*
X232332692Y-134123632D01*
X232310278Y-134068153D01*
X232305951Y-134060017D01*
X232247007Y-133951002D01*
X232213565Y-133901422D01*
X232180803Y-133851355D01*
X232174978Y-133844214D01*
X232095982Y-133748724D01*
X232053566Y-133706603D01*
X232011684Y-133663834D01*
X232004584Y-133657961D01*
X231908545Y-133579633D01*
X231858703Y-133546518D01*
X231809362Y-133512733D01*
X231801256Y-133508350D01*
X231691832Y-133450168D01*
X231636554Y-133427384D01*
X231581545Y-133403807D01*
X231572741Y-133401082D01*
X231454101Y-133365262D01*
X231395372Y-133353633D01*
X231336905Y-133341206D01*
X231327747Y-133340244D01*
X231327744Y-133340243D01*
X231327741Y-133340243D01*
X231204402Y-133328150D01*
X231172419Y-133325000D01*
X226225523Y-133325000D01*
X225968076Y-133188631D01*
X225912731Y-133165921D01*
X225857715Y-133142443D01*
X225848911Y-133139733D01*
X225848905Y-133139731D01*
X225420939Y-133011255D01*
X225362284Y-132999737D01*
X225303710Y-132987383D01*
X225294544Y-132986434D01*
X224849771Y-132943530D01*
X224789926Y-132943624D01*
X224730139Y-132942883D01*
X224720963Y-132943733D01*
X224720961Y-132943733D01*
X224276327Y-132988036D01*
X224217643Y-132999752D01*
X224158847Y-133010638D01*
X224150013Y-133013253D01*
X224150007Y-133013255D01*
X223722450Y-133143076D01*
X223667201Y-133165950D01*
X223611597Y-133188066D01*
X223603437Y-133192348D01*
X223354895Y-133325002D01*
X218407582Y-133325000D01*
X218379581Y-133327758D01*
X218375745Y-133327731D01*
X218366574Y-133328631D01*
X218243323Y-133341586D01*
X218184733Y-133353613D01*
X218125971Y-133364822D01*
X218117149Y-133367486D01*
X217998762Y-133404133D01*
X217943632Y-133427308D01*
X217888153Y-133449722D01*
X217880017Y-133454049D01*
X217771002Y-133512993D01*
X217721422Y-133546435D01*
X217671355Y-133579197D01*
X217664214Y-133585022D01*
X217568724Y-133664018D01*
X217526603Y-133706434D01*
X217483834Y-133748316D01*
X217477961Y-133755416D01*
X217399633Y-133851455D01*
X217366518Y-133901297D01*
X217332733Y-133950638D01*
X217328350Y-133958744D01*
X217270168Y-134068168D01*
X217247384Y-134123446D01*
X217223807Y-134178455D01*
X217221082Y-134187259D01*
X217185262Y-134305899D01*
X217173641Y-134364592D01*
X217161206Y-134423095D01*
X217160244Y-134432253D01*
X217160244Y-134432254D01*
X217160243Y-134432259D01*
X217148150Y-134555598D01*
X217145000Y-134587582D01*
X211480000Y-134587582D01*
X211480000Y-134587581D01*
X211477242Y-134559581D01*
X211477269Y-134555745D01*
X211476369Y-134546574D01*
X211463414Y-134423323D01*
X211451387Y-134364733D01*
X211440178Y-134305971D01*
X211437514Y-134297149D01*
X211400867Y-134178762D01*
X211377692Y-134123632D01*
X211355278Y-134068153D01*
X211350951Y-134060017D01*
X211292007Y-133951002D01*
X211258565Y-133901422D01*
X211225803Y-133851355D01*
X211219978Y-133844214D01*
X211140982Y-133748724D01*
X211098566Y-133706603D01*
X211056684Y-133663834D01*
X211049584Y-133657961D01*
X210953545Y-133579633D01*
X210903703Y-133546518D01*
X210854362Y-133512733D01*
X210846256Y-133508350D01*
X210736832Y-133450168D01*
X210681554Y-133427384D01*
X210626545Y-133403807D01*
X210617741Y-133401082D01*
X210499101Y-133365262D01*
X210440372Y-133353633D01*
X210381905Y-133341206D01*
X210372747Y-133340244D01*
X210372744Y-133340243D01*
X210372741Y-133340243D01*
X210249402Y-133328150D01*
X210217419Y-133325000D01*
X205270523Y-133325000D01*
X205013076Y-133188631D01*
X204957731Y-133165921D01*
X204902715Y-133142443D01*
X204893911Y-133139733D01*
X204893905Y-133139731D01*
X204465939Y-133011255D01*
X204407284Y-132999737D01*
X204348710Y-132987383D01*
X204339544Y-132986434D01*
X203894771Y-132943530D01*
X203834926Y-132943624D01*
X203775139Y-132942883D01*
X203765963Y-132943733D01*
X203765961Y-132943733D01*
X203321327Y-132988036D01*
X203262643Y-132999752D01*
X203203847Y-133010638D01*
X203195013Y-133013253D01*
X203195007Y-133013255D01*
X202767450Y-133143076D01*
X202712201Y-133165950D01*
X202656597Y-133188066D01*
X202648437Y-133192348D01*
X202399895Y-133325002D01*
X197452582Y-133325000D01*
X197424581Y-133327758D01*
X197420745Y-133327731D01*
X197411574Y-133328631D01*
X197288323Y-133341586D01*
X197229733Y-133353613D01*
X197170971Y-133364822D01*
X197162149Y-133367486D01*
X197043762Y-133404133D01*
X196988632Y-133427308D01*
X196933153Y-133449722D01*
X196925017Y-133454049D01*
X196816002Y-133512993D01*
X196766422Y-133546435D01*
X196716355Y-133579197D01*
X196709214Y-133585022D01*
X196613724Y-133664018D01*
X196571603Y-133706434D01*
X196528834Y-133748316D01*
X196522961Y-133755416D01*
X196444633Y-133851455D01*
X196411518Y-133901297D01*
X196377733Y-133950638D01*
X196373350Y-133958744D01*
X196315168Y-134068168D01*
X196292384Y-134123446D01*
X196268807Y-134178455D01*
X196266082Y-134187259D01*
X196230262Y-134305899D01*
X196218641Y-134364592D01*
X196206206Y-134423095D01*
X196205244Y-134432253D01*
X196205244Y-134432254D01*
X196205243Y-134432259D01*
X196193150Y-134555598D01*
X196190000Y-134587582D01*
X190525000Y-134587582D01*
X190525000Y-134587581D01*
X190522242Y-134559581D01*
X190522269Y-134555745D01*
X190521369Y-134546574D01*
X190508414Y-134423323D01*
X190496387Y-134364733D01*
X190485178Y-134305971D01*
X190482514Y-134297149D01*
X190445867Y-134178762D01*
X190422692Y-134123632D01*
X190400278Y-134068153D01*
X190395951Y-134060017D01*
X190337007Y-133951002D01*
X190303565Y-133901422D01*
X190270803Y-133851355D01*
X190264978Y-133844214D01*
X190185982Y-133748724D01*
X190143566Y-133706603D01*
X190101684Y-133663834D01*
X190094584Y-133657961D01*
X189998545Y-133579633D01*
X189948703Y-133546518D01*
X189899362Y-133512733D01*
X189891256Y-133508350D01*
X189781832Y-133450168D01*
X189726554Y-133427384D01*
X189671545Y-133403807D01*
X189662741Y-133401082D01*
X189544101Y-133365262D01*
X189485372Y-133353633D01*
X189426905Y-133341206D01*
X189417747Y-133340244D01*
X189417744Y-133340243D01*
X189417741Y-133340243D01*
X189294402Y-133328150D01*
X189262419Y-133325000D01*
X184315523Y-133325000D01*
X184058076Y-133188631D01*
X184002731Y-133165921D01*
X183947715Y-133142443D01*
X183938911Y-133139733D01*
X183938905Y-133139731D01*
X183510939Y-133011255D01*
X183452284Y-132999737D01*
X183393710Y-132987383D01*
X183384544Y-132986434D01*
X182939771Y-132943530D01*
X182879926Y-132943624D01*
X182820139Y-132942883D01*
X182810963Y-132943733D01*
X182810961Y-132943733D01*
X182366327Y-132988036D01*
X182307643Y-132999752D01*
X182248847Y-133010638D01*
X182240013Y-133013253D01*
X182240007Y-133013255D01*
X181812450Y-133143076D01*
X181757201Y-133165950D01*
X181701597Y-133188066D01*
X181693437Y-133192348D01*
X181444895Y-133325002D01*
X176497582Y-133325000D01*
X176469581Y-133327758D01*
X176465745Y-133327731D01*
X176456574Y-133328631D01*
X176333323Y-133341586D01*
X176274733Y-133353613D01*
X176215971Y-133364822D01*
X176207149Y-133367486D01*
X176088762Y-133404133D01*
X176033632Y-133427308D01*
X175978153Y-133449722D01*
X175970017Y-133454049D01*
X175861002Y-133512993D01*
X175811422Y-133546435D01*
X175761355Y-133579197D01*
X175754214Y-133585022D01*
X175658724Y-133664018D01*
X175616603Y-133706434D01*
X175573834Y-133748316D01*
X175567961Y-133755416D01*
X175489633Y-133851455D01*
X175456518Y-133901297D01*
X175422733Y-133950638D01*
X175418350Y-133958744D01*
X175360168Y-134068168D01*
X175337384Y-134123446D01*
X175313807Y-134178455D01*
X175311082Y-134187259D01*
X175275262Y-134305899D01*
X175263641Y-134364592D01*
X175251206Y-134423095D01*
X175250244Y-134432253D01*
X175250244Y-134432254D01*
X175250243Y-134432259D01*
X175238150Y-134555598D01*
X175235000Y-134587582D01*
X164490000Y-134587582D01*
X164490000Y-134587581D01*
X164487242Y-134559581D01*
X164487269Y-134555745D01*
X164486369Y-134546574D01*
X164473414Y-134423323D01*
X164461387Y-134364733D01*
X164450178Y-134305971D01*
X164447514Y-134297149D01*
X164410867Y-134178762D01*
X164387692Y-134123632D01*
X164365278Y-134068153D01*
X164360951Y-134060017D01*
X164302007Y-133951002D01*
X164268565Y-133901422D01*
X164235803Y-133851355D01*
X164229978Y-133844214D01*
X164150982Y-133748724D01*
X164108566Y-133706603D01*
X164066684Y-133663834D01*
X164059584Y-133657961D01*
X163963545Y-133579633D01*
X163913703Y-133546518D01*
X163864362Y-133512733D01*
X163856256Y-133508350D01*
X163746832Y-133450168D01*
X163691554Y-133427384D01*
X163636545Y-133403807D01*
X163627741Y-133401082D01*
X163509101Y-133365262D01*
X163450372Y-133353633D01*
X163391905Y-133341206D01*
X163382747Y-133340244D01*
X163382744Y-133340243D01*
X163382741Y-133340243D01*
X163259402Y-133328150D01*
X163227419Y-133325000D01*
X158280523Y-133325000D01*
X158023076Y-133188631D01*
X157967731Y-133165921D01*
X157912715Y-133142443D01*
X157903911Y-133139733D01*
X157903905Y-133139731D01*
X157475939Y-133011255D01*
X157417284Y-132999737D01*
X157358710Y-132987383D01*
X157349544Y-132986434D01*
X156904771Y-132943530D01*
X156844926Y-132943624D01*
X156785139Y-132942883D01*
X156775963Y-132943733D01*
X156775961Y-132943733D01*
X156331327Y-132988036D01*
X156272643Y-132999752D01*
X156213847Y-133010638D01*
X156205013Y-133013253D01*
X156205007Y-133013255D01*
X155777450Y-133143076D01*
X155722201Y-133165950D01*
X155666597Y-133188066D01*
X155658437Y-133192348D01*
X155409895Y-133325002D01*
X150462582Y-133325000D01*
X150434581Y-133327758D01*
X150430745Y-133327731D01*
X150421574Y-133328631D01*
X150298323Y-133341586D01*
X150239733Y-133353613D01*
X150180971Y-133364822D01*
X150172149Y-133367486D01*
X150053762Y-133404133D01*
X149998632Y-133427308D01*
X149943153Y-133449722D01*
X149935017Y-133454049D01*
X149826002Y-133512993D01*
X149776422Y-133546435D01*
X149726355Y-133579197D01*
X149719214Y-133585022D01*
X149623724Y-133664018D01*
X149581603Y-133706434D01*
X149538834Y-133748316D01*
X149532961Y-133755416D01*
X149454633Y-133851455D01*
X149421518Y-133901297D01*
X149387733Y-133950638D01*
X149383350Y-133958744D01*
X149325168Y-134068168D01*
X149302384Y-134123446D01*
X149278807Y-134178455D01*
X149276082Y-134187259D01*
X149240262Y-134305899D01*
X149228641Y-134364592D01*
X149216206Y-134423095D01*
X149215244Y-134432253D01*
X149215244Y-134432254D01*
X149215243Y-134432259D01*
X149203150Y-134555598D01*
X149200000Y-134587582D01*
X141630000Y-134587582D01*
X141630000Y-113632582D01*
X149200000Y-113632582D01*
X149200001Y-126397419D01*
X149202758Y-126425410D01*
X149202731Y-126429255D01*
X149203631Y-126438426D01*
X149216586Y-126561677D01*
X149228615Y-126620274D01*
X149239822Y-126679028D01*
X149242486Y-126687850D01*
X149279133Y-126806238D01*
X149302308Y-126861368D01*
X149324722Y-126916847D01*
X149329049Y-126924983D01*
X149387992Y-127033998D01*
X149421437Y-127083582D01*
X149454197Y-127133645D01*
X149460022Y-127140786D01*
X149539018Y-127236276D01*
X149581467Y-127278430D01*
X149623315Y-127321165D01*
X149630416Y-127327039D01*
X149726455Y-127405367D01*
X149776281Y-127438472D01*
X149825638Y-127472267D01*
X149833744Y-127476650D01*
X149943167Y-127534832D01*
X149998459Y-127557621D01*
X150053455Y-127581193D01*
X150062258Y-127583918D01*
X150180899Y-127619737D01*
X150239583Y-127631357D01*
X150298094Y-127643794D01*
X150307250Y-127644756D01*
X150307255Y-127644757D01*
X150307259Y-127644757D01*
X150430597Y-127656850D01*
X150430598Y-127656850D01*
X150462581Y-127660000D01*
X163227419Y-127660000D01*
X163255419Y-127657242D01*
X163259255Y-127657269D01*
X163268426Y-127656369D01*
X163391677Y-127643414D01*
X163450274Y-127631385D01*
X163509028Y-127620178D01*
X163517850Y-127617514D01*
X163636238Y-127580867D01*
X163691368Y-127557692D01*
X163746847Y-127535278D01*
X163754983Y-127530951D01*
X163863998Y-127472008D01*
X163913582Y-127438563D01*
X163963645Y-127405803D01*
X163970786Y-127399978D01*
X164066276Y-127320982D01*
X164108430Y-127278533D01*
X164151165Y-127236685D01*
X164157039Y-127229584D01*
X164235367Y-127133545D01*
X164268472Y-127083719D01*
X164302267Y-127034362D01*
X164306650Y-127026256D01*
X164364832Y-126916833D01*
X164387621Y-126861541D01*
X164411193Y-126806545D01*
X164413918Y-126797742D01*
X164449737Y-126679101D01*
X164461359Y-126620408D01*
X164473794Y-126561906D01*
X164474756Y-126552750D01*
X164474757Y-126552745D01*
X164474757Y-126552741D01*
X164486850Y-126429403D01*
X164486850Y-126429402D01*
X164490000Y-126397419D01*
X164490000Y-113632582D01*
X196190000Y-113632582D01*
X196190001Y-126397419D01*
X196192758Y-126425410D01*
X196192731Y-126429255D01*
X196193631Y-126438426D01*
X196206586Y-126561677D01*
X196218615Y-126620274D01*
X196229822Y-126679028D01*
X196232486Y-126687850D01*
X196269133Y-126806238D01*
X196292308Y-126861368D01*
X196314722Y-126916847D01*
X196319049Y-126924983D01*
X196377992Y-127033998D01*
X196411437Y-127083582D01*
X196444197Y-127133645D01*
X196450022Y-127140786D01*
X196529018Y-127236276D01*
X196571467Y-127278430D01*
X196613315Y-127321165D01*
X196620416Y-127327039D01*
X196716455Y-127405367D01*
X196766281Y-127438472D01*
X196815638Y-127472267D01*
X196823744Y-127476650D01*
X196933167Y-127534832D01*
X196988459Y-127557621D01*
X197043455Y-127581193D01*
X197052258Y-127583918D01*
X197170899Y-127619737D01*
X197229583Y-127631357D01*
X197288094Y-127643794D01*
X197297250Y-127644756D01*
X197297255Y-127644757D01*
X197297259Y-127644757D01*
X197420597Y-127656850D01*
X197420598Y-127656850D01*
X197452581Y-127660000D01*
X210217419Y-127660000D01*
X210245419Y-127657242D01*
X210249255Y-127657269D01*
X210258426Y-127656369D01*
X210381677Y-127643414D01*
X210440274Y-127631385D01*
X210499028Y-127620178D01*
X210507850Y-127617514D01*
X210626238Y-127580867D01*
X210681368Y-127557692D01*
X210736847Y-127535278D01*
X210744983Y-127530951D01*
X210853998Y-127472008D01*
X210903582Y-127438563D01*
X210953645Y-127405803D01*
X210960786Y-127399978D01*
X211056276Y-127320982D01*
X211098430Y-127278533D01*
X211141165Y-127236685D01*
X211147039Y-127229584D01*
X211225367Y-127133545D01*
X211258472Y-127083719D01*
X211292267Y-127034362D01*
X211296650Y-127026256D01*
X211354832Y-126916833D01*
X211377621Y-126861541D01*
X211401193Y-126806545D01*
X211403918Y-126797742D01*
X211439737Y-126679101D01*
X211451359Y-126620408D01*
X211463794Y-126561906D01*
X211464756Y-126552750D01*
X211464757Y-126552745D01*
X211464757Y-126552741D01*
X211476850Y-126429403D01*
X211476850Y-126429402D01*
X211480000Y-126397419D01*
X211480000Y-113632581D01*
X211477242Y-113604581D01*
X211477269Y-113600745D01*
X211476369Y-113591574D01*
X211463414Y-113468323D01*
X211451387Y-113409733D01*
X211440178Y-113350971D01*
X211437514Y-113342149D01*
X211400867Y-113223762D01*
X211377692Y-113168632D01*
X211355278Y-113113153D01*
X211350951Y-113105017D01*
X211292007Y-112996002D01*
X211258565Y-112946422D01*
X211225803Y-112896355D01*
X211219978Y-112889214D01*
X211140982Y-112793724D01*
X211098566Y-112751603D01*
X211056684Y-112708834D01*
X211049584Y-112702961D01*
X210953545Y-112624633D01*
X210903703Y-112591518D01*
X210854362Y-112557733D01*
X210846256Y-112553350D01*
X210736832Y-112495168D01*
X210681554Y-112472384D01*
X210626545Y-112448807D01*
X210617741Y-112446082D01*
X210499101Y-112410262D01*
X210440372Y-112398633D01*
X210381905Y-112386206D01*
X210372747Y-112385244D01*
X210372744Y-112385243D01*
X210372741Y-112385243D01*
X210249402Y-112373150D01*
X210217419Y-112370000D01*
X205270523Y-112370000D01*
X205013076Y-112233631D01*
X204957731Y-112210921D01*
X204902715Y-112187443D01*
X204893911Y-112184733D01*
X204893905Y-112184731D01*
X204465939Y-112056255D01*
X204407284Y-112044737D01*
X204348710Y-112032383D01*
X204339544Y-112031434D01*
X203894771Y-111988530D01*
X203834926Y-111988624D01*
X203775139Y-111987883D01*
X203765963Y-111988733D01*
X203765961Y-111988733D01*
X203321327Y-112033036D01*
X203262643Y-112044752D01*
X203203847Y-112055638D01*
X203195013Y-112058253D01*
X203195007Y-112058255D01*
X202767450Y-112188076D01*
X202712201Y-112210950D01*
X202656597Y-112233066D01*
X202648437Y-112237348D01*
X202399895Y-112370002D01*
X197452582Y-112370000D01*
X197424581Y-112372758D01*
X197420745Y-112372731D01*
X197411574Y-112373631D01*
X197288323Y-112386586D01*
X197229733Y-112398613D01*
X197170971Y-112409822D01*
X197162149Y-112412486D01*
X197043762Y-112449133D01*
X196988632Y-112472308D01*
X196933153Y-112494722D01*
X196925017Y-112499049D01*
X196816002Y-112557993D01*
X196766422Y-112591435D01*
X196716355Y-112624197D01*
X196709214Y-112630022D01*
X196613724Y-112709018D01*
X196571603Y-112751434D01*
X196528834Y-112793316D01*
X196522961Y-112800416D01*
X196444633Y-112896455D01*
X196411518Y-112946297D01*
X196377733Y-112995638D01*
X196373350Y-113003744D01*
X196315168Y-113113168D01*
X196292384Y-113168446D01*
X196268807Y-113223455D01*
X196266082Y-113232259D01*
X196230262Y-113350899D01*
X196218641Y-113409592D01*
X196206206Y-113468095D01*
X196205244Y-113477253D01*
X196205244Y-113477254D01*
X196205243Y-113477259D01*
X196193150Y-113600598D01*
X196190000Y-113632582D01*
X164490000Y-113632582D01*
X164490000Y-113632581D01*
X164487242Y-113604581D01*
X164487269Y-113600745D01*
X164486369Y-113591574D01*
X164473414Y-113468323D01*
X164461387Y-113409733D01*
X164450178Y-113350971D01*
X164447514Y-113342149D01*
X164410867Y-113223762D01*
X164387692Y-113168632D01*
X164365278Y-113113153D01*
X164360951Y-113105017D01*
X164302007Y-112996002D01*
X164268565Y-112946422D01*
X164235803Y-112896355D01*
X164229978Y-112889214D01*
X164150982Y-112793724D01*
X164108566Y-112751603D01*
X164066684Y-112708834D01*
X164059584Y-112702961D01*
X163963545Y-112624633D01*
X163913703Y-112591518D01*
X163864362Y-112557733D01*
X163856256Y-112553350D01*
X163746832Y-112495168D01*
X163691554Y-112472384D01*
X163636545Y-112448807D01*
X163627741Y-112446082D01*
X163509101Y-112410262D01*
X163450372Y-112398633D01*
X163391905Y-112386206D01*
X163382747Y-112385244D01*
X163382744Y-112385243D01*
X163382741Y-112385243D01*
X163259402Y-112373150D01*
X163227419Y-112370000D01*
X158280523Y-112370000D01*
X158023076Y-112233631D01*
X157967731Y-112210921D01*
X157912715Y-112187443D01*
X157903911Y-112184733D01*
X157903905Y-112184731D01*
X157475939Y-112056255D01*
X157417284Y-112044737D01*
X157358710Y-112032383D01*
X157349544Y-112031434D01*
X156904771Y-111988530D01*
X156844926Y-111988624D01*
X156785139Y-111987883D01*
X156775963Y-111988733D01*
X156775961Y-111988733D01*
X156331327Y-112033036D01*
X156272643Y-112044752D01*
X156213847Y-112055638D01*
X156205013Y-112058253D01*
X156205007Y-112058255D01*
X155777450Y-112188076D01*
X155722201Y-112210950D01*
X155666597Y-112233066D01*
X155658437Y-112237348D01*
X155409895Y-112370002D01*
X150462582Y-112370000D01*
X150434581Y-112372758D01*
X150430745Y-112372731D01*
X150421574Y-112373631D01*
X150298323Y-112386586D01*
X150239733Y-112398613D01*
X150180971Y-112409822D01*
X150172149Y-112412486D01*
X150053762Y-112449133D01*
X149998632Y-112472308D01*
X149943153Y-112494722D01*
X149935017Y-112499049D01*
X149826002Y-112557993D01*
X149776422Y-112591435D01*
X149726355Y-112624197D01*
X149719214Y-112630022D01*
X149623724Y-112709018D01*
X149581603Y-112751434D01*
X149538834Y-112793316D01*
X149532961Y-112800416D01*
X149454633Y-112896455D01*
X149421518Y-112946297D01*
X149387733Y-112995638D01*
X149383350Y-113003744D01*
X149325168Y-113113168D01*
X149302384Y-113168446D01*
X149278807Y-113223455D01*
X149276082Y-113232259D01*
X149240262Y-113350899D01*
X149228641Y-113409592D01*
X149216206Y-113468095D01*
X149215244Y-113477253D01*
X149215244Y-113477254D01*
X149215243Y-113477259D01*
X149203150Y-113600598D01*
X149200000Y-113632582D01*
X141630000Y-113632582D01*
X141630000Y-92677582D01*
X149200000Y-92677582D01*
X149200001Y-105442419D01*
X149202758Y-105470410D01*
X149202731Y-105474255D01*
X149203631Y-105483426D01*
X149216586Y-105606677D01*
X149228615Y-105665274D01*
X149239822Y-105724028D01*
X149242486Y-105732850D01*
X149279133Y-105851238D01*
X149302308Y-105906368D01*
X149324722Y-105961847D01*
X149329049Y-105969983D01*
X149387992Y-106078998D01*
X149421437Y-106128582D01*
X149454197Y-106178645D01*
X149460022Y-106185786D01*
X149539018Y-106281276D01*
X149581467Y-106323430D01*
X149623315Y-106366165D01*
X149630416Y-106372039D01*
X149726455Y-106450367D01*
X149776281Y-106483472D01*
X149825638Y-106517267D01*
X149833744Y-106521650D01*
X149943167Y-106579832D01*
X149998459Y-106602621D01*
X150053455Y-106626193D01*
X150062258Y-106628918D01*
X150180899Y-106664737D01*
X150239583Y-106676357D01*
X150298094Y-106688794D01*
X150307250Y-106689756D01*
X150307255Y-106689757D01*
X150307259Y-106689757D01*
X150430597Y-106701850D01*
X150430598Y-106701850D01*
X150462581Y-106705000D01*
X163227419Y-106705000D01*
X163255419Y-106702242D01*
X163259255Y-106702269D01*
X163268426Y-106701369D01*
X163391677Y-106688414D01*
X163450274Y-106676385D01*
X163509028Y-106665178D01*
X163517850Y-106662514D01*
X163636238Y-106625867D01*
X163691368Y-106602692D01*
X163746847Y-106580278D01*
X163754983Y-106575951D01*
X163863998Y-106517008D01*
X163913582Y-106483563D01*
X163963645Y-106450803D01*
X163970786Y-106444978D01*
X164066276Y-106365982D01*
X164108430Y-106323533D01*
X164151165Y-106281685D01*
X164157039Y-106274584D01*
X164235367Y-106178545D01*
X164268472Y-106128719D01*
X164302267Y-106079362D01*
X164306650Y-106071256D01*
X164364832Y-105961833D01*
X164387621Y-105906541D01*
X164411193Y-105851545D01*
X164413918Y-105842742D01*
X164449737Y-105724101D01*
X164461359Y-105665408D01*
X164473794Y-105606906D01*
X164474756Y-105597750D01*
X164474757Y-105597745D01*
X164474757Y-105597741D01*
X164486850Y-105474403D01*
X164486850Y-105474402D01*
X164490000Y-105442419D01*
X164490000Y-92677581D01*
X164487242Y-92649581D01*
X164487269Y-92645745D01*
X164486369Y-92636574D01*
X164473414Y-92513323D01*
X164461387Y-92454733D01*
X164450178Y-92395971D01*
X164447514Y-92387149D01*
X164410867Y-92268762D01*
X164387692Y-92213632D01*
X164365278Y-92158153D01*
X164360951Y-92150017D01*
X164302007Y-92041002D01*
X164268565Y-91991422D01*
X164235803Y-91941355D01*
X164229978Y-91934214D01*
X164150982Y-91838724D01*
X164108566Y-91796603D01*
X164066684Y-91753834D01*
X164059584Y-91747961D01*
X163963545Y-91669633D01*
X163913703Y-91636518D01*
X163864362Y-91602733D01*
X163856256Y-91598350D01*
X163746832Y-91540168D01*
X163691554Y-91517384D01*
X163636545Y-91493807D01*
X163627741Y-91491082D01*
X163509101Y-91455262D01*
X163450372Y-91443633D01*
X163391905Y-91431206D01*
X163382747Y-91430244D01*
X163382744Y-91430243D01*
X163382741Y-91430243D01*
X163259402Y-91418150D01*
X163227419Y-91415000D01*
X158280523Y-91415000D01*
X158023076Y-91278631D01*
X157967731Y-91255921D01*
X157912715Y-91232443D01*
X157903911Y-91229733D01*
X157903905Y-91229731D01*
X157475939Y-91101255D01*
X157417284Y-91089737D01*
X157358710Y-91077383D01*
X157349544Y-91076434D01*
X156904771Y-91033530D01*
X156844926Y-91033624D01*
X156785139Y-91032883D01*
X156775963Y-91033733D01*
X156775961Y-91033733D01*
X156331327Y-91078036D01*
X156272643Y-91089752D01*
X156213847Y-91100638D01*
X156205013Y-91103253D01*
X156205007Y-91103255D01*
X155777450Y-91233076D01*
X155722201Y-91255950D01*
X155666597Y-91278066D01*
X155658437Y-91282348D01*
X155409895Y-91415002D01*
X150462582Y-91415000D01*
X150434581Y-91417758D01*
X150430745Y-91417731D01*
X150421574Y-91418631D01*
X150298323Y-91431586D01*
X150239733Y-91443613D01*
X150180971Y-91454822D01*
X150172149Y-91457486D01*
X150053762Y-91494133D01*
X149998632Y-91517308D01*
X149943153Y-91539722D01*
X149935017Y-91544049D01*
X149826002Y-91602993D01*
X149776422Y-91636435D01*
X149726355Y-91669197D01*
X149719214Y-91675022D01*
X149623724Y-91754018D01*
X149581603Y-91796434D01*
X149538834Y-91838316D01*
X149532961Y-91845416D01*
X149454633Y-91941455D01*
X149421518Y-91991297D01*
X149387733Y-92040638D01*
X149383350Y-92048744D01*
X149325168Y-92158168D01*
X149302384Y-92213446D01*
X149278807Y-92268455D01*
X149276082Y-92277259D01*
X149240262Y-92395899D01*
X149228641Y-92454592D01*
X149216206Y-92513095D01*
X149215244Y-92522253D01*
X149215244Y-92522254D01*
X149215243Y-92522259D01*
X149203151Y-92645585D01*
X149200000Y-92677582D01*
X141630000Y-92677582D01*
X141630000Y-87394609D01*
X142654997Y-87394609D01*
X142841073Y-87735766D01*
X143258409Y-87951513D01*
X143709815Y-88081696D01*
X144177946Y-88121313D01*
X144644811Y-88068842D01*
X145092468Y-87926297D01*
X145448927Y-87735766D01*
X145635003Y-87394609D01*
X144145000Y-85904605D01*
X142654997Y-87394609D01*
X141630000Y-87394609D01*
X141630000Y-85757946D01*
X141748687Y-85757946D01*
X141801158Y-86224811D01*
X141943703Y-86672468D01*
X142134234Y-87028927D01*
X142475391Y-87215003D01*
X143965395Y-85725000D01*
X144324605Y-85725000D01*
X145814609Y-87215003D01*
X146155766Y-87028927D01*
X146371513Y-86611591D01*
X146501696Y-86160185D01*
X146541313Y-85692054D01*
X146488842Y-85225189D01*
X146346297Y-84777532D01*
X146155766Y-84421073D01*
X145814609Y-84234997D01*
X144324605Y-85725000D01*
X143965395Y-85725000D01*
X142475391Y-84234997D01*
X142134234Y-84421073D01*
X141918487Y-84838409D01*
X141788304Y-85289815D01*
X141748687Y-85757946D01*
X141630000Y-85757946D01*
X141630000Y-85757278D01*
X141681002Y-85237116D01*
X141822694Y-84767812D01*
X142052837Y-84334975D01*
X142280860Y-84055391D01*
X142654997Y-84055391D01*
X144145000Y-85545395D01*
X145635003Y-84055391D01*
X145448927Y-83714234D01*
X145031591Y-83498487D01*
X144580185Y-83368304D01*
X144112054Y-83328687D01*
X143645189Y-83381158D01*
X143197532Y-83523703D01*
X142841073Y-83714234D01*
X142654997Y-84055391D01*
X142280860Y-84055391D01*
X142362678Y-83955073D01*
X142740397Y-83642597D01*
X143171627Y-83409431D01*
X143639928Y-83264468D01*
X144158153Y-83210000D01*
X152517795Y-83210000D01*
X152286066Y-83256094D01*
G37*
G04 #@! TD.AperFunction*
M02*
