G04 #@! TF.GenerationSoftware,KiCad,Pcbnew,(5.1.8)-1*
G04 #@! TF.CreationDate,2021-01-19T15:05:27+01:00*
G04 #@! TF.ProjectId,C64 Joykey Faceplate B1,43363420-4a6f-4796-9b65-792046616365,rev?*
G04 #@! TF.SameCoordinates,Original*
G04 #@! TF.FileFunction,Profile,NP*
%FSLAX46Y46*%
G04 Gerber Fmt 4.6, Leading zero omitted, Abs format (unit mm)*
G04 Created by KiCad (PCBNEW (5.1.8)-1) date 2021-01-19 15:05:27*
%MOMM*%
%LPD*%
G01*
G04 APERTURE LIST*
G04 #@! TA.AperFunction,Profile*
%ADD10C,0.120000*%
G04 #@! TD*
G04 #@! TA.AperFunction,Profile*
%ADD11C,0.050000*%
G04 #@! TD*
G04 APERTURE END LIST*
D10*
X162406000Y-85725000D02*
G75*
G03*
X162406000Y-85725000I-1751000J0D01*
G01*
D11*
X198120000Y-126365000D02*
X209550000Y-126365000D01*
X197485000Y-114300000D02*
G75*
G02*
X198120000Y-113665000I635000J0D01*
G01*
X198120000Y-126365000D02*
G75*
G02*
X197485000Y-125730000I0J635000D01*
G01*
X209550000Y-113665000D02*
X198120000Y-113665000D01*
X210185000Y-125730000D02*
X210185000Y-114300000D01*
X197485000Y-114300000D02*
X197485000Y-125730000D01*
X210185000Y-125730000D02*
G75*
G02*
X209550000Y-126365000I-635000J0D01*
G01*
X209550000Y-113665000D02*
G75*
G02*
X210185000Y-114300000I0J-635000D01*
G01*
X230505000Y-134620000D02*
G75*
G02*
X231140000Y-135255000I0J-635000D01*
G01*
X218440000Y-135255000D02*
G75*
G02*
X219075000Y-134620000I635000J0D01*
G01*
X219075000Y-147320000D02*
G75*
G02*
X218440000Y-146685000I0J635000D01*
G01*
X231140000Y-146685000D02*
X231140000Y-135255000D01*
X219075000Y-147320000D02*
X230505000Y-147320000D01*
X218440000Y-135255000D02*
X218440000Y-146685000D01*
X230505000Y-134620000D02*
X219075000Y-134620000D01*
X231140000Y-146685000D02*
G75*
G02*
X230505000Y-147320000I-635000J0D01*
G01*
X209550000Y-134620000D02*
G75*
G02*
X210185000Y-135255000I0J-635000D01*
G01*
X197485000Y-135255000D02*
G75*
G02*
X198120000Y-134620000I635000J0D01*
G01*
X198120000Y-147320000D02*
G75*
G02*
X197485000Y-146685000I0J635000D01*
G01*
X210185000Y-146685000D02*
X210185000Y-135255000D01*
X198120000Y-147320000D02*
X209550000Y-147320000D01*
X197485000Y-135255000D02*
X197485000Y-146685000D01*
X209550000Y-134620000D02*
X198120000Y-134620000D01*
X210185000Y-146685000D02*
G75*
G02*
X209550000Y-147320000I-635000J0D01*
G01*
X188595000Y-134620000D02*
G75*
G02*
X189230000Y-135255000I0J-635000D01*
G01*
X176530000Y-135255000D02*
G75*
G02*
X177165000Y-134620000I635000J0D01*
G01*
X177165000Y-147320000D02*
G75*
G02*
X176530000Y-146685000I0J635000D01*
G01*
X189230000Y-146685000D02*
X189230000Y-135255000D01*
X177165000Y-147320000D02*
X188595000Y-147320000D01*
X176530000Y-135255000D02*
X176530000Y-146685000D01*
X188595000Y-134620000D02*
X177165000Y-134620000D01*
X189230000Y-146685000D02*
G75*
G02*
X188595000Y-147320000I-635000J0D01*
G01*
X162560000Y-134620000D02*
G75*
G02*
X163195000Y-135255000I0J-635000D01*
G01*
X150495000Y-135255000D02*
G75*
G02*
X151130000Y-134620000I635000J0D01*
G01*
X151130000Y-147320000D02*
G75*
G02*
X150495000Y-146685000I0J635000D01*
G01*
X163195000Y-146685000D02*
X163195000Y-135255000D01*
X151130000Y-147320000D02*
X162560000Y-147320000D01*
X150495000Y-135255000D02*
X150495000Y-146685000D01*
X162560000Y-134620000D02*
X151130000Y-134620000D01*
X163195000Y-146685000D02*
G75*
G02*
X162560000Y-147320000I-635000J0D01*
G01*
X162560000Y-113665000D02*
G75*
G02*
X163195000Y-114300000I0J-635000D01*
G01*
X150495000Y-114300000D02*
G75*
G02*
X151130000Y-113665000I635000J0D01*
G01*
X151130000Y-126365000D02*
G75*
G02*
X150495000Y-125730000I0J635000D01*
G01*
X163195000Y-125730000D02*
X163195000Y-114300000D01*
X151130000Y-126365000D02*
X162560000Y-126365000D01*
X150495000Y-114300000D02*
X150495000Y-125730000D01*
X162560000Y-113665000D02*
X151130000Y-113665000D01*
X163195000Y-125730000D02*
G75*
G02*
X162560000Y-126365000I-635000J0D01*
G01*
X163195000Y-104775000D02*
G75*
G02*
X162560000Y-105410000I-635000J0D01*
G01*
X151130000Y-105410000D02*
G75*
G02*
X150495000Y-104775000I0J635000D01*
G01*
X162560000Y-92710000D02*
G75*
G02*
X163195000Y-93345000I0J-635000D01*
G01*
X150495000Y-93345000D02*
G75*
G02*
X151130000Y-92710000I635000J0D01*
G01*
D10*
X154786000Y-85725000D02*
G75*
G03*
X154786000Y-85725000I-1751000J0D01*
G01*
D11*
X189865000Y-92710000D02*
G75*
G02*
X189230000Y-92075000I0J635000D01*
G01*
X189865000Y-92710000D02*
X233045000Y-92710000D01*
X189230000Y-92075000D02*
X189230000Y-83185000D01*
X234315000Y-82550000D02*
X237490000Y-82550000D01*
X233680000Y-92075000D02*
X233680000Y-83185000D01*
X233680000Y-83185000D02*
G75*
G02*
X234315000Y-82550000I635000J0D01*
G01*
X188595000Y-82550000D02*
G75*
G02*
X189230000Y-83185000I0J-635000D01*
G01*
X233680000Y-92075000D02*
G75*
G02*
X233045000Y-92710000I-635000J0D01*
G01*
X237490000Y-82550000D02*
G75*
G02*
X240665000Y-85725000I0J-3175000D01*
G01*
X140970000Y-85725000D02*
G75*
G02*
X144145000Y-82550000I3175000J0D01*
G01*
X150495000Y-93345000D02*
X150495000Y-104775000D01*
X162560000Y-92710000D02*
X151130000Y-92710000D01*
X163195000Y-104775000D02*
X163195000Y-93345000D01*
X151130000Y-105410000D02*
X162560000Y-105410000D01*
X240665000Y-154305000D02*
G75*
G02*
X237490000Y-157480000I-3175000J0D01*
G01*
X144145000Y-157480000D02*
G75*
G02*
X140970000Y-154305000I0J3175000D01*
G01*
X240665000Y-85725000D02*
X240665000Y-154305000D01*
X144145000Y-82550000D02*
X188595000Y-82550000D01*
X140970000Y-154305000D02*
X140970000Y-85725000D01*
X237490000Y-157480000D02*
X144145000Y-157480000D01*
M02*
