G04 #@! TF.GenerationSoftware,KiCad,Pcbnew,8.0.4*
G04 #@! TF.CreationDate,2024-12-21T03:22:47+01:00*
G04 #@! TF.ProjectId,C64 Joykey Faceplate X1,43363420-4a6f-4796-9b65-792046616365,rev?*
G04 #@! TF.SameCoordinates,Original*
G04 #@! TF.FileFunction,Legend,Bot*
G04 #@! TF.FilePolarity,Positive*
%FSLAX46Y46*%
G04 Gerber Fmt 4.6, Leading zero omitted, Abs format (unit mm)*
G04 Created by KiCad (PCBNEW 8.0.4) date 2024-12-21 03:22:47*
%MOMM*%
%LPD*%
G01*
G04 APERTURE LIST*
%ADD10C,0.120000*%
%ADD11C,0.050000*%
%ADD12C,0.150000*%
%ADD13C,0.100000*%
%ADD14C,0.010000*%
G04 APERTURE END LIST*
D10*
X170180000Y-84455000D02*
X184150000Y-84455000D01*
D11*
X205734998Y-149860002D02*
X209072999Y-149860003D01*
D10*
X235585000Y-123190000D02*
X240665000Y-123190000D01*
X231140000Y-102870000D02*
X233045000Y-102870000D01*
X193040000Y-90805000D02*
X193040000Y-84455000D01*
D11*
X155575001Y-133985003D02*
G75*
G02*
X158114998Y-133985002I1269999J-1904997D01*
G01*
D10*
X233680000Y-97790000D02*
X234950000Y-97790000D01*
X234950000Y-102870000D01*
X233680000Y-102870000D01*
X233680000Y-97790000D01*
X235585000Y-102870000D02*
X240665000Y-102870000D01*
D11*
X150495000Y-127000000D02*
G75*
G02*
X149860000Y-126365000I0J635000D01*
G01*
X163928001Y-149860003D02*
G75*
G02*
X166467998Y-149860002I1269999J-1904997D01*
G01*
X203195001Y-149860003D02*
X199857000Y-149860002D01*
X171955000Y-157480002D02*
X171955000Y-150495002D01*
X223520000Y-133985001D02*
X218440000Y-133985000D01*
X231775000Y-147320000D02*
G75*
G02*
X231140000Y-147955000I-635000J0D01*
G01*
D10*
X229870000Y-90805000D02*
X215900000Y-90805000D01*
D11*
X149860000Y-113665000D02*
X149860000Y-126365000D01*
X170440999Y-157480003D02*
X170440999Y-150495003D01*
X149860000Y-92710000D02*
X149860000Y-105410000D01*
X150495000Y-127000000D02*
X163195000Y-127000000D01*
X189230000Y-133985000D02*
G75*
G02*
X189865000Y-134620000I0J-635000D01*
G01*
X202565001Y-133985003D02*
G75*
G02*
X205104998Y-133985002I1269999J-1904997D01*
G01*
X158115000Y-133985000D02*
X163195000Y-133985000D01*
D10*
X215900000Y-84455000D02*
X229870000Y-84455000D01*
X205740000Y-90805000D02*
X205740000Y-92075000D01*
D11*
X218440000Y-147955000D02*
X231140000Y-147955000D01*
X149860000Y-92710000D02*
G75*
G02*
X150495000Y-92075000I635000J0D01*
G01*
X227195501Y-149860003D02*
X223857500Y-149860002D01*
X215195001Y-149860003D02*
X211857000Y-149860002D01*
D10*
X231140000Y-113030000D02*
X233045000Y-113030000D01*
D11*
X217734998Y-149860002D02*
X221072999Y-149860003D01*
X150495000Y-106045000D02*
X163195000Y-106045000D01*
D10*
X233680000Y-107950000D02*
X234950000Y-107950000D01*
X234950000Y-113030000D01*
X233680000Y-113030000D01*
X233680000Y-107950000D01*
D11*
X217805000Y-134620000D02*
G75*
G02*
X218440000Y-133985000I635000J0D01*
G01*
X163830000Y-147320000D02*
X163830000Y-134620000D01*
X163830000Y-126365000D02*
G75*
G02*
X163195000Y-127000000I-635000J0D01*
G01*
X155575000Y-113030001D02*
X150495000Y-113030000D01*
X210185000Y-133985000D02*
G75*
G02*
X210820000Y-134620000I0J-635000D01*
G01*
X196850000Y-134620000D02*
G75*
G02*
X197485000Y-133985000I635000J0D01*
G01*
X163195000Y-133985000D02*
G75*
G02*
X163830000Y-134620000I0J-635000D01*
G01*
X149860000Y-134620000D02*
G75*
G02*
X150495000Y-133985000I635000J0D01*
G01*
X233073499Y-149860003D02*
G75*
G02*
X233708497Y-150495003I1J-634997D01*
G01*
X163830000Y-105410000D02*
G75*
G02*
X163195000Y-106045000I-635000J0D01*
G01*
X150495000Y-106045000D02*
G75*
G02*
X149860000Y-105410000I0J635000D01*
G01*
X223520001Y-133985003D02*
G75*
G02*
X226059998Y-133985002I1269999J-1904997D01*
G01*
D10*
X233045000Y-125730000D02*
X240665000Y-125730000D01*
D11*
X189865000Y-147320000D02*
G75*
G02*
X189230000Y-147955000I-635000J0D01*
G01*
X155575000Y-133985001D02*
X150495000Y-133985000D01*
D10*
X155575000Y-85725000D02*
G75*
G02*
X150495000Y-85725000I-2540000J0D01*
G01*
X150495000Y-85725000D02*
G75*
G02*
X155575000Y-85725000I2540000J0D01*
G01*
D11*
X231140000Y-133985000D02*
G75*
G02*
X231775000Y-134620000I0J-635000D01*
G01*
X197485000Y-147955000D02*
X210185000Y-147955000D01*
X175895000Y-134620000D02*
X175895000Y-147320000D01*
D10*
X207010000Y-90805000D02*
X193040000Y-90805000D01*
D11*
X149860000Y-134620000D02*
X149860000Y-147320000D01*
X176530000Y-147955000D02*
G75*
G02*
X175895000Y-147320000I0J635000D01*
G01*
D10*
X231140000Y-111125000D02*
X231140000Y-113030000D01*
D11*
X184150000Y-133985000D02*
X189230000Y-133985000D01*
X155575001Y-92075003D02*
G75*
G02*
X158114998Y-92075002I1269999J-1904997D01*
G01*
D10*
X163195000Y-85725000D02*
G75*
G02*
X158115000Y-85725000I-2540000J0D01*
G01*
X158115000Y-85725000D02*
G75*
G02*
X163195000Y-85725000I2540000J0D01*
G01*
D11*
X181610000Y-133985001D02*
X176530000Y-133985000D01*
D10*
X184150000Y-90805000D02*
X170180000Y-90805000D01*
D11*
X189865000Y-147320000D02*
X189865000Y-134620000D01*
X149860000Y-113665000D02*
G75*
G02*
X150495000Y-113030000I635000J0D01*
G01*
X197485000Y-147955000D02*
G75*
G02*
X196850000Y-147320000I0J635000D01*
G01*
X205105000Y-133985000D02*
X210185000Y-133985000D01*
X215195001Y-149860003D02*
G75*
G02*
X217734998Y-149860002I1269999J-1904997D01*
G01*
D10*
X217170000Y-90805000D02*
X217170000Y-92075000D01*
D11*
X229735498Y-149860002D02*
X233073499Y-149860003D01*
X223222500Y-150495002D02*
G75*
G02*
X223857500Y-149860000I635000J2D01*
G01*
X150495000Y-147955000D02*
G75*
G02*
X149860000Y-147320000I0J635000D01*
G01*
X155575000Y-92075001D02*
X150495000Y-92075000D01*
D10*
X229870000Y-84455000D02*
X229870000Y-90805000D01*
X170180000Y-90805000D02*
X170180000Y-84455000D01*
X231140000Y-95250000D02*
X232410000Y-95250000D01*
X232410000Y-100330000D01*
X231140000Y-100330000D01*
X231140000Y-95250000D01*
D11*
X211222000Y-150495002D02*
G75*
G02*
X211857000Y-149860000I635000J2D01*
G01*
X178467998Y-149860002D02*
X181805999Y-149860003D01*
X223222500Y-157480002D02*
X223222500Y-150495002D01*
X147955000Y-150495000D02*
G75*
G02*
X148590000Y-149860000I635000J0D01*
G01*
D10*
X231140000Y-121285000D02*
X231140000Y-123190000D01*
D11*
X202565001Y-113030003D02*
G75*
G02*
X205104998Y-113030002I1269999J-1904997D01*
G01*
X181610001Y-133985003D02*
G75*
G02*
X184149998Y-133985002I1269999J-1904997D01*
G01*
X150495000Y-147955000D02*
X163195000Y-147955000D01*
X157805999Y-149860001D02*
X154467998Y-149860000D01*
X163195000Y-113030000D02*
G75*
G02*
X163830000Y-113665000I0J-635000D01*
G01*
X196850000Y-134620000D02*
X196850000Y-147320000D01*
X163830000Y-147320000D02*
G75*
G02*
X163195000Y-147955000I-635000J0D01*
G01*
X159955000Y-150495002D02*
G75*
G02*
X160590000Y-149860000I635000J2D01*
G01*
X163195000Y-92075000D02*
G75*
G02*
X163830000Y-92710000I0J-635000D01*
G01*
D10*
X233045000Y-105410000D02*
X240665000Y-105410000D01*
X231140000Y-125730000D02*
X232410000Y-125730000D01*
X232410000Y-130810000D01*
X231140000Y-130810000D01*
X231140000Y-125730000D01*
X231140000Y-100965000D02*
X231140000Y-102870000D01*
D11*
X218440000Y-147955000D02*
G75*
G02*
X217805000Y-147320000I0J635000D01*
G01*
X158115000Y-92075000D02*
X163195000Y-92075000D01*
X210185000Y-113030000D02*
G75*
G02*
X210820000Y-113665000I0J-635000D01*
G01*
X210820000Y-147320000D02*
X210820000Y-134620000D01*
X196850000Y-113665000D02*
G75*
G02*
X197485000Y-113030000I635000J0D01*
G01*
X176530000Y-147955000D02*
X189230000Y-147955000D01*
X182440999Y-157480003D02*
X182440999Y-150495003D01*
D10*
X193040000Y-84455000D02*
X207010000Y-84455000D01*
D11*
X197485000Y-127000000D02*
X210185000Y-127000000D01*
X175928001Y-149860003D02*
G75*
G02*
X178467998Y-149860002I1269999J-1904997D01*
G01*
X157805999Y-149860001D02*
G75*
G02*
X158440999Y-150495001I1J-634999D01*
G01*
X205105000Y-113030000D02*
X210185000Y-113030000D01*
X197485000Y-127000000D02*
G75*
G02*
X196850000Y-126365000I0J635000D01*
G01*
X209072999Y-149860003D02*
G75*
G02*
X209707997Y-150495003I1J-634997D01*
G01*
X159955000Y-157480002D02*
X159955000Y-150495002D01*
X209707999Y-157480003D02*
X209707999Y-150495003D01*
X199222000Y-157480002D02*
X199222000Y-150495002D01*
X155575001Y-113030003D02*
G75*
G02*
X158114998Y-113030002I1269999J-1904997D01*
G01*
X210820000Y-147320000D02*
G75*
G02*
X210185000Y-147955000I-635000J0D01*
G01*
X226060000Y-133985000D02*
X231140000Y-133985000D01*
X158115000Y-113030000D02*
X163195000Y-113030000D01*
X181805999Y-149860003D02*
G75*
G02*
X182440997Y-150495003I1J-634997D01*
G01*
X227195501Y-149860003D02*
G75*
G02*
X229735498Y-149860002I1269999J-1904997D01*
G01*
X175928001Y-149860003D02*
X172590000Y-149860002D01*
X210820000Y-126365000D02*
X210820000Y-113665000D01*
X221072999Y-149860003D02*
G75*
G02*
X221707997Y-150495003I1J-634997D01*
G01*
X169805999Y-149860003D02*
X166467998Y-149860002D01*
X202565000Y-133985001D02*
X197485000Y-133985000D01*
X203195001Y-149860003D02*
G75*
G02*
X205734998Y-149860002I1269999J-1904997D01*
G01*
X160590000Y-149860002D02*
X163928001Y-149860003D01*
X217805000Y-134620000D02*
X217805000Y-147320000D01*
X175895000Y-134620000D02*
G75*
G02*
X176530000Y-133985000I635000J0D01*
G01*
X151928001Y-149860001D02*
G75*
G02*
X154467998Y-149860000I1269999J-1904999D01*
G01*
X221707999Y-157480003D02*
X221707999Y-150495003D01*
X211222000Y-157480002D02*
X211222000Y-150495002D01*
D10*
X231140000Y-105410000D02*
X232410000Y-105410000D01*
X232410000Y-110490000D01*
X231140000Y-110490000D01*
X231140000Y-105410000D01*
D11*
X171955000Y-150495002D02*
G75*
G02*
X172590000Y-149860000I635000J2D01*
G01*
X233708499Y-157480003D02*
X233708499Y-150495003D01*
X147955000Y-157480000D02*
X147955000Y-150495000D01*
X163830000Y-126365000D02*
X163830000Y-113665000D01*
X148590000Y-149860000D02*
X151928001Y-149860001D01*
D10*
X215900000Y-90805000D02*
X215900000Y-84455000D01*
D11*
X199222000Y-150495002D02*
G75*
G02*
X199857000Y-149860000I635000J2D01*
G01*
X158440999Y-157480001D02*
X158440999Y-150495001D01*
D10*
X231140000Y-123190000D02*
X233045000Y-123190000D01*
X233680000Y-118110000D02*
X234950000Y-118110000D01*
X234950000Y-123190000D01*
X233680000Y-123190000D01*
X233680000Y-118110000D01*
X233045000Y-115570000D02*
X240665000Y-115570000D01*
D11*
X196850000Y-113665000D02*
X196850000Y-126365000D01*
X210820000Y-126365000D02*
G75*
G02*
X210185000Y-127000000I-635000J0D01*
G01*
D10*
X207010000Y-90805000D02*
X207010000Y-84455000D01*
X235585000Y-113030000D02*
X240665000Y-113030000D01*
D11*
X231775000Y-147320000D02*
X231775000Y-134620000D01*
X202565000Y-113030001D02*
X197485000Y-113030000D01*
D10*
X184150000Y-90805000D02*
X184150000Y-84455000D01*
X233045000Y-95250000D02*
X240665000Y-95250000D01*
X231140000Y-115570000D02*
X232410000Y-115570000D01*
X232410000Y-120650000D01*
X231140000Y-120650000D01*
X231140000Y-115570000D01*
D11*
X163830000Y-105410000D02*
X163830000Y-92710000D01*
X169805999Y-149860003D02*
G75*
G02*
X170440997Y-150495003I1J-634997D01*
G01*
D10*
X233045000Y-130810000D02*
X240665000Y-130810000D01*
D12*
G36*
X203881106Y-87205000D02*
G01*
X203881106Y-87029877D01*
X204053053Y-87029877D01*
X204053053Y-86857930D01*
X203703053Y-86857930D01*
X203703053Y-87029877D01*
X203527686Y-87029877D01*
X203527686Y-86160861D01*
X203703053Y-86160861D01*
X203703053Y-85985739D01*
X203005739Y-85985739D01*
X203005739Y-86160861D01*
X203177686Y-86160861D01*
X203177686Y-87029877D01*
X203349633Y-87029877D01*
X203349633Y-87205000D01*
X203881106Y-87205000D01*
G37*
G36*
X202481106Y-86501580D02*
G01*
X202653053Y-86501580D01*
X202653053Y-87029877D01*
X202481106Y-87029877D01*
X202481106Y-87205000D01*
X201777686Y-87205000D01*
X201777686Y-87029877D01*
X201955739Y-87029877D01*
X202303053Y-87029877D01*
X202303053Y-86504755D01*
X201955739Y-86504755D01*
X201955739Y-87029877D01*
X201777686Y-87029877D01*
X201605739Y-87029877D01*
X201605739Y-86501580D01*
X201777686Y-86501580D01*
X201777686Y-86329633D01*
X202481106Y-86329633D01*
X202481106Y-86501580D01*
G37*
G36*
X200205739Y-86329633D02*
G01*
X200205739Y-87020596D01*
X200377686Y-87020596D01*
X200377686Y-87205000D01*
X200549633Y-87205000D01*
X200549633Y-87376946D01*
X201253053Y-87376946D01*
X201253053Y-87201824D01*
X200727686Y-87201824D01*
X200727686Y-87020596D01*
X201078175Y-87020596D01*
X201078175Y-86861106D01*
X201253053Y-86861106D01*
X201253053Y-86329633D01*
X200903053Y-86329633D01*
X200903053Y-86845474D01*
X200549633Y-86845474D01*
X200549633Y-86329633D01*
X200205739Y-86329633D01*
G37*
G36*
X199853053Y-87205000D02*
G01*
X199853053Y-85985739D01*
X199503053Y-85985739D01*
X199503053Y-86329633D01*
X199325000Y-86329633D01*
X199325000Y-86157686D01*
X199149877Y-86157686D01*
X199149877Y-85985739D01*
X198805739Y-85985739D01*
X198805739Y-86160861D01*
X198977686Y-86160861D01*
X198977686Y-86329633D01*
X199149877Y-86329633D01*
X199149877Y-86501580D01*
X199325000Y-86501580D01*
X199325000Y-86689159D01*
X199149877Y-86689159D01*
X199149877Y-86861106D01*
X198977686Y-86861106D01*
X198977686Y-87029877D01*
X198805739Y-87029877D01*
X198805739Y-87205000D01*
X199149877Y-87205000D01*
X199149877Y-87029877D01*
X199325000Y-87029877D01*
X199325000Y-86861106D01*
X199503053Y-86861106D01*
X199503053Y-87205000D01*
X199853053Y-87205000D01*
G37*
G36*
X197405739Y-85985739D02*
G01*
X197405739Y-86160861D01*
X198103053Y-86160861D01*
X198103053Y-86501580D01*
X197749633Y-86501580D01*
X197749633Y-86676702D01*
X198103053Y-86676702D01*
X198103053Y-87029877D01*
X197405739Y-87029877D01*
X197405739Y-87205000D01*
X198453053Y-87205000D01*
X198453053Y-85985739D01*
X197405739Y-85985739D01*
G37*
G36*
X196699633Y-87205000D02*
G01*
X196699633Y-86677435D01*
X196881106Y-86677435D01*
X196881106Y-86517212D01*
X197053053Y-86517212D01*
X197053053Y-85985739D01*
X196703053Y-85985739D01*
X196703053Y-86501580D01*
X196349633Y-86501580D01*
X196349633Y-85985739D01*
X196005739Y-85985739D01*
X196005739Y-86517212D01*
X196177686Y-86517212D01*
X196177686Y-86677435D01*
X196349633Y-86677435D01*
X196349633Y-87205000D01*
X196699633Y-87205000D01*
G37*
G36*
X204053053Y-88885000D02*
G01*
X203703053Y-88885000D01*
X203703053Y-88356702D01*
X203180861Y-88356702D01*
X203180861Y-88181580D01*
X203355739Y-88181580D01*
X203703053Y-88181580D01*
X203703053Y-87840861D01*
X203355739Y-87840861D01*
X203355739Y-88181580D01*
X203180861Y-88181580D01*
X203005739Y-88181580D01*
X203005739Y-87837686D01*
X203180861Y-87837686D01*
X203180861Y-87665739D01*
X204053053Y-87665739D01*
X204053053Y-88885000D01*
G37*
G36*
X202481106Y-87837686D02*
G01*
X202653053Y-87837686D01*
X202653053Y-88713053D01*
X202481106Y-88713053D01*
X202481106Y-88885000D01*
X201777686Y-88885000D01*
X201777686Y-88713053D01*
X201605739Y-88713053D01*
X201605739Y-88709877D01*
X201955739Y-88709877D01*
X202303053Y-88709877D01*
X202303053Y-87840861D01*
X201955739Y-87840861D01*
X201955739Y-88709877D01*
X201605739Y-88709877D01*
X201605739Y-87837686D01*
X201777686Y-87837686D01*
X201777686Y-87665739D01*
X202481106Y-87665739D01*
X202481106Y-87837686D01*
G37*
G36*
X201253053Y-88885000D02*
G01*
X200903053Y-88885000D01*
X200903053Y-88525474D01*
X200727686Y-88525474D01*
X200727686Y-88709877D01*
X200549877Y-88709877D01*
X200549877Y-88885000D01*
X200205739Y-88885000D01*
X200205739Y-88709877D01*
X200377686Y-88709877D01*
X200377686Y-88525474D01*
X200549877Y-88525474D01*
X200549877Y-88353527D01*
X200377686Y-88353527D01*
X200377686Y-88181580D01*
X200549877Y-88181580D01*
X200903053Y-88181580D01*
X200903053Y-87840861D01*
X200549877Y-87840861D01*
X200549877Y-88181580D01*
X200377686Y-88181580D01*
X200205739Y-88181580D01*
X200205739Y-87837686D01*
X200377686Y-87837686D01*
X200377686Y-87665739D01*
X201253053Y-87665739D01*
X201253053Y-88885000D01*
G37*
G36*
X199499633Y-88885000D02*
G01*
X199499633Y-87840861D01*
X199853053Y-87840861D01*
X199853053Y-87665739D01*
X198805739Y-87665739D01*
X198805739Y-87840861D01*
X199149633Y-87840861D01*
X199149633Y-88885000D01*
X199499633Y-88885000D01*
G37*
G36*
X197053053Y-88885000D02*
G01*
X197053053Y-88709877D01*
X196699633Y-88709877D01*
X196699633Y-88184755D01*
X196876465Y-88184755D01*
X196876465Y-88009633D01*
X196699633Y-88009633D01*
X196699633Y-87665739D01*
X196349633Y-87665739D01*
X196349633Y-88709877D01*
X196005739Y-88709877D01*
X196005739Y-88885000D01*
X197053053Y-88885000D01*
G37*
D13*
X181236428Y-89042419D02*
X180998333Y-90042419D01*
X180998333Y-90042419D02*
X180807857Y-89328133D01*
X180807857Y-89328133D02*
X180617381Y-90042419D01*
X180617381Y-90042419D02*
X180379286Y-89042419D01*
X179569762Y-90042419D02*
X179569762Y-89518609D01*
X179569762Y-89518609D02*
X179617381Y-89423371D01*
X179617381Y-89423371D02*
X179712619Y-89375752D01*
X179712619Y-89375752D02*
X179903095Y-89375752D01*
X179903095Y-89375752D02*
X179998333Y-89423371D01*
X179569762Y-89994800D02*
X179665000Y-90042419D01*
X179665000Y-90042419D02*
X179903095Y-90042419D01*
X179903095Y-90042419D02*
X179998333Y-89994800D01*
X179998333Y-89994800D02*
X180045952Y-89899561D01*
X180045952Y-89899561D02*
X180045952Y-89804323D01*
X180045952Y-89804323D02*
X179998333Y-89709085D01*
X179998333Y-89709085D02*
X179903095Y-89661466D01*
X179903095Y-89661466D02*
X179665000Y-89661466D01*
X179665000Y-89661466D02*
X179569762Y-89613847D01*
X179188809Y-89375752D02*
X178950714Y-90042419D01*
X178712619Y-89375752D02*
X178950714Y-90042419D01*
X178950714Y-90042419D02*
X179045952Y-90280514D01*
X179045952Y-90280514D02*
X179093571Y-90328133D01*
X179093571Y-90328133D02*
X179188809Y-90375752D01*
X178426904Y-89042419D02*
X178188809Y-90042419D01*
X178188809Y-90042419D02*
X177998333Y-89328133D01*
X177998333Y-89328133D02*
X177807857Y-90042419D01*
X177807857Y-90042419D02*
X177569762Y-89042419D01*
X176760238Y-90042419D02*
X176760238Y-89518609D01*
X176760238Y-89518609D02*
X176807857Y-89423371D01*
X176807857Y-89423371D02*
X176903095Y-89375752D01*
X176903095Y-89375752D02*
X177093571Y-89375752D01*
X177093571Y-89375752D02*
X177188809Y-89423371D01*
X176760238Y-89994800D02*
X176855476Y-90042419D01*
X176855476Y-90042419D02*
X177093571Y-90042419D01*
X177093571Y-90042419D02*
X177188809Y-89994800D01*
X177188809Y-89994800D02*
X177236428Y-89899561D01*
X177236428Y-89899561D02*
X177236428Y-89804323D01*
X177236428Y-89804323D02*
X177188809Y-89709085D01*
X177188809Y-89709085D02*
X177093571Y-89661466D01*
X177093571Y-89661466D02*
X176855476Y-89661466D01*
X176855476Y-89661466D02*
X176760238Y-89613847D01*
X176379285Y-89375752D02*
X176141190Y-90042419D01*
X175903095Y-89375752D02*
X176141190Y-90042419D01*
X176141190Y-90042419D02*
X176236428Y-90280514D01*
X176236428Y-90280514D02*
X176284047Y-90328133D01*
X176284047Y-90328133D02*
X176379285Y-90375752D01*
X175617380Y-89042419D02*
X175379285Y-90042419D01*
X175379285Y-90042419D02*
X175188809Y-89328133D01*
X175188809Y-89328133D02*
X174998333Y-90042419D01*
X174998333Y-90042419D02*
X174760238Y-89042419D01*
X173950714Y-90042419D02*
X173950714Y-89518609D01*
X173950714Y-89518609D02*
X173998333Y-89423371D01*
X173998333Y-89423371D02*
X174093571Y-89375752D01*
X174093571Y-89375752D02*
X174284047Y-89375752D01*
X174284047Y-89375752D02*
X174379285Y-89423371D01*
X173950714Y-89994800D02*
X174045952Y-90042419D01*
X174045952Y-90042419D02*
X174284047Y-90042419D01*
X174284047Y-90042419D02*
X174379285Y-89994800D01*
X174379285Y-89994800D02*
X174426904Y-89899561D01*
X174426904Y-89899561D02*
X174426904Y-89804323D01*
X174426904Y-89804323D02*
X174379285Y-89709085D01*
X174379285Y-89709085D02*
X174284047Y-89661466D01*
X174284047Y-89661466D02*
X174045952Y-89661466D01*
X174045952Y-89661466D02*
X173950714Y-89613847D01*
X173569761Y-89375752D02*
X173331666Y-90042419D01*
X173093571Y-89375752D02*
X173331666Y-90042419D01*
X173331666Y-90042419D02*
X173426904Y-90280514D01*
X173426904Y-90280514D02*
X173474523Y-90328133D01*
X173474523Y-90328133D02*
X173569761Y-90375752D01*
X166103190Y-156879657D02*
X166141285Y-156841561D01*
X166141285Y-156841561D02*
X166217476Y-156727276D01*
X166217476Y-156727276D02*
X166255571Y-156651085D01*
X166255571Y-156651085D02*
X166293666Y-156536800D01*
X166293666Y-156536800D02*
X166331761Y-156346323D01*
X166331761Y-156346323D02*
X166331761Y-156193942D01*
X166331761Y-156193942D02*
X166293666Y-156003466D01*
X166293666Y-156003466D02*
X166255571Y-155889180D01*
X166255571Y-155889180D02*
X166217476Y-155812990D01*
X166217476Y-155812990D02*
X166141285Y-155698704D01*
X166141285Y-155698704D02*
X166103190Y-155660609D01*
X165836524Y-156536800D02*
X165722238Y-156574895D01*
X165722238Y-156574895D02*
X165531762Y-156574895D01*
X165531762Y-156574895D02*
X165455571Y-156536800D01*
X165455571Y-156536800D02*
X165417476Y-156498704D01*
X165417476Y-156498704D02*
X165379381Y-156422514D01*
X165379381Y-156422514D02*
X165379381Y-156346323D01*
X165379381Y-156346323D02*
X165417476Y-156270133D01*
X165417476Y-156270133D02*
X165455571Y-156232038D01*
X165455571Y-156232038D02*
X165531762Y-156193942D01*
X165531762Y-156193942D02*
X165684143Y-156155847D01*
X165684143Y-156155847D02*
X165760333Y-156117752D01*
X165760333Y-156117752D02*
X165798428Y-156079657D01*
X165798428Y-156079657D02*
X165836524Y-156003466D01*
X165836524Y-156003466D02*
X165836524Y-155927276D01*
X165836524Y-155927276D02*
X165798428Y-155851085D01*
X165798428Y-155851085D02*
X165760333Y-155812990D01*
X165760333Y-155812990D02*
X165684143Y-155774895D01*
X165684143Y-155774895D02*
X165493666Y-155774895D01*
X165493666Y-155774895D02*
X165379381Y-155812990D01*
X165074619Y-155851085D02*
X165036523Y-155812990D01*
X165036523Y-155812990D02*
X164960333Y-155774895D01*
X164960333Y-155774895D02*
X164769857Y-155774895D01*
X164769857Y-155774895D02*
X164693666Y-155812990D01*
X164693666Y-155812990D02*
X164655571Y-155851085D01*
X164655571Y-155851085D02*
X164617476Y-155927276D01*
X164617476Y-155927276D02*
X164617476Y-156003466D01*
X164617476Y-156003466D02*
X164655571Y-156117752D01*
X164655571Y-156117752D02*
X165112714Y-156574895D01*
X165112714Y-156574895D02*
X164617476Y-156574895D01*
X164350809Y-156879657D02*
X164312714Y-156841561D01*
X164312714Y-156841561D02*
X164236523Y-156727276D01*
X164236523Y-156727276D02*
X164198428Y-156651085D01*
X164198428Y-156651085D02*
X164160333Y-156536800D01*
X164160333Y-156536800D02*
X164122237Y-156346323D01*
X164122237Y-156346323D02*
X164122237Y-156193942D01*
X164122237Y-156193942D02*
X164160333Y-156003466D01*
X164160333Y-156003466D02*
X164198428Y-155889180D01*
X164198428Y-155889180D02*
X164236523Y-155812990D01*
X164236523Y-155812990D02*
X164312714Y-155698704D01*
X164312714Y-155698704D02*
X164350809Y-155660609D01*
D12*
G36*
X185158053Y-140165739D02*
G01*
X185158053Y-141209877D01*
X184460739Y-141209877D01*
X184460739Y-141385000D01*
X185508053Y-141385000D01*
X185508053Y-140165739D01*
X185158053Y-140165739D01*
G37*
G36*
X183060739Y-140165739D02*
G01*
X183060739Y-140340861D01*
X183758053Y-140340861D01*
X183758053Y-140681580D01*
X183404633Y-140681580D01*
X183404633Y-140856702D01*
X183758053Y-140856702D01*
X183758053Y-141209877D01*
X183060739Y-141209877D01*
X183060739Y-141385000D01*
X184108053Y-141385000D01*
X184108053Y-140165739D01*
X183060739Y-140165739D01*
G37*
G36*
X182708053Y-141385000D02*
G01*
X182708053Y-140165739D01*
X181660739Y-140165739D01*
X181660739Y-140340861D01*
X182358053Y-140340861D01*
X182358053Y-140681580D01*
X182004633Y-140681580D01*
X182004633Y-140856702D01*
X182358053Y-140856702D01*
X182358053Y-141385000D01*
X182708053Y-141385000D01*
G37*
G36*
X180954633Y-141385000D02*
G01*
X180954633Y-140340861D01*
X181308053Y-140340861D01*
X181308053Y-140165739D01*
X180260739Y-140165739D01*
X180260739Y-140340861D01*
X180604633Y-140340861D01*
X180604633Y-141385000D01*
X180954633Y-141385000D01*
G37*
D13*
X205284047Y-156879657D02*
X205322142Y-156841561D01*
X205322142Y-156841561D02*
X205398333Y-156727276D01*
X205398333Y-156727276D02*
X205436428Y-156651085D01*
X205436428Y-156651085D02*
X205474523Y-156536800D01*
X205474523Y-156536800D02*
X205512618Y-156346323D01*
X205512618Y-156346323D02*
X205512618Y-156193942D01*
X205512618Y-156193942D02*
X205474523Y-156003466D01*
X205474523Y-156003466D02*
X205436428Y-155889180D01*
X205436428Y-155889180D02*
X205398333Y-155812990D01*
X205398333Y-155812990D02*
X205322142Y-155698704D01*
X205322142Y-155698704D02*
X205284047Y-155660609D01*
X204598333Y-156574895D02*
X204979285Y-156574895D01*
X204979285Y-156574895D02*
X204979285Y-155774895D01*
X203912619Y-156574895D02*
X204369762Y-156574895D01*
X204141190Y-156574895D02*
X204141190Y-155774895D01*
X204141190Y-155774895D02*
X204217381Y-155889180D01*
X204217381Y-155889180D02*
X204293571Y-155965371D01*
X204293571Y-155965371D02*
X204369762Y-156003466D01*
X203645952Y-156879657D02*
X203607857Y-156841561D01*
X203607857Y-156841561D02*
X203531666Y-156727276D01*
X203531666Y-156727276D02*
X203493571Y-156651085D01*
X203493571Y-156651085D02*
X203455476Y-156536800D01*
X203455476Y-156536800D02*
X203417380Y-156346323D01*
X203417380Y-156346323D02*
X203417380Y-156193942D01*
X203417380Y-156193942D02*
X203455476Y-156003466D01*
X203455476Y-156003466D02*
X203493571Y-155889180D01*
X203493571Y-155889180D02*
X203531666Y-155812990D01*
X203531666Y-155812990D02*
X203607857Y-155698704D01*
X203607857Y-155698704D02*
X203645952Y-155660609D01*
D12*
G36*
X217693052Y-153245000D02*
G01*
X217343052Y-153245000D01*
X217343052Y-152716702D01*
X216820860Y-152716702D01*
X216820860Y-152541580D01*
X216995738Y-152541580D01*
X217343052Y-152541580D01*
X217343052Y-152200861D01*
X216995738Y-152200861D01*
X216995738Y-152541580D01*
X216820860Y-152541580D01*
X216645738Y-152541580D01*
X216645738Y-152197686D01*
X216820860Y-152197686D01*
X216820860Y-152025739D01*
X217693052Y-152025739D01*
X217693052Y-153245000D01*
G37*
G36*
X216293052Y-153245000D02*
G01*
X216293052Y-153069877D01*
X215939632Y-153069877D01*
X215939632Y-152544755D01*
X216116464Y-152544755D01*
X216116464Y-152369633D01*
X215939632Y-152369633D01*
X215939632Y-152025739D01*
X215589632Y-152025739D01*
X215589632Y-153069877D01*
X215245738Y-153069877D01*
X215245738Y-153245000D01*
X216293052Y-153245000D01*
G37*
G36*
X217693052Y-154925000D02*
G01*
X217693052Y-153705739D01*
X216645738Y-153705739D01*
X216645738Y-153880861D01*
X217343052Y-153880861D01*
X217343052Y-154221580D01*
X216989632Y-154221580D01*
X216989632Y-154396702D01*
X217343052Y-154396702D01*
X217343052Y-154925000D01*
X217693052Y-154925000D01*
G37*
G36*
X216121105Y-154925000D02*
G01*
X216121105Y-154749877D01*
X216293052Y-154749877D01*
X216293052Y-154577930D01*
X215943052Y-154577930D01*
X215943052Y-154749877D01*
X215595738Y-154749877D01*
X215595738Y-154224755D01*
X216293052Y-154224755D01*
X216293052Y-153705739D01*
X215245738Y-153705739D01*
X215245738Y-153880861D01*
X215943052Y-153880861D01*
X215943052Y-154049633D01*
X215417685Y-154049633D01*
X215417685Y-154218405D01*
X215245738Y-154218405D01*
X215245738Y-154749877D01*
X215417685Y-154749877D01*
X215417685Y-154925000D01*
X216121105Y-154925000D01*
G37*
D13*
X154165190Y-156879657D02*
X154203285Y-156841561D01*
X154203285Y-156841561D02*
X154279476Y-156727276D01*
X154279476Y-156727276D02*
X154317571Y-156651085D01*
X154317571Y-156651085D02*
X154355666Y-156536800D01*
X154355666Y-156536800D02*
X154393761Y-156346323D01*
X154393761Y-156346323D02*
X154393761Y-156193942D01*
X154393761Y-156193942D02*
X154355666Y-156003466D01*
X154355666Y-156003466D02*
X154317571Y-155889180D01*
X154317571Y-155889180D02*
X154279476Y-155812990D01*
X154279476Y-155812990D02*
X154203285Y-155698704D01*
X154203285Y-155698704D02*
X154165190Y-155660609D01*
X153898524Y-156536800D02*
X153784238Y-156574895D01*
X153784238Y-156574895D02*
X153593762Y-156574895D01*
X153593762Y-156574895D02*
X153517571Y-156536800D01*
X153517571Y-156536800D02*
X153479476Y-156498704D01*
X153479476Y-156498704D02*
X153441381Y-156422514D01*
X153441381Y-156422514D02*
X153441381Y-156346323D01*
X153441381Y-156346323D02*
X153479476Y-156270133D01*
X153479476Y-156270133D02*
X153517571Y-156232038D01*
X153517571Y-156232038D02*
X153593762Y-156193942D01*
X153593762Y-156193942D02*
X153746143Y-156155847D01*
X153746143Y-156155847D02*
X153822333Y-156117752D01*
X153822333Y-156117752D02*
X153860428Y-156079657D01*
X153860428Y-156079657D02*
X153898524Y-156003466D01*
X153898524Y-156003466D02*
X153898524Y-155927276D01*
X153898524Y-155927276D02*
X153860428Y-155851085D01*
X153860428Y-155851085D02*
X153822333Y-155812990D01*
X153822333Y-155812990D02*
X153746143Y-155774895D01*
X153746143Y-155774895D02*
X153555666Y-155774895D01*
X153555666Y-155774895D02*
X153441381Y-155812990D01*
X152679476Y-156574895D02*
X153136619Y-156574895D01*
X152908047Y-156574895D02*
X152908047Y-155774895D01*
X152908047Y-155774895D02*
X152984238Y-155889180D01*
X152984238Y-155889180D02*
X153060428Y-155965371D01*
X153060428Y-155965371D02*
X153136619Y-156003466D01*
X152412809Y-156879657D02*
X152374714Y-156841561D01*
X152374714Y-156841561D02*
X152298523Y-156727276D01*
X152298523Y-156727276D02*
X152260428Y-156651085D01*
X152260428Y-156651085D02*
X152222333Y-156536800D01*
X152222333Y-156536800D02*
X152184237Y-156346323D01*
X152184237Y-156346323D02*
X152184237Y-156193942D01*
X152184237Y-156193942D02*
X152222333Y-156003466D01*
X152222333Y-156003466D02*
X152260428Y-155889180D01*
X152260428Y-155889180D02*
X152298523Y-155812990D01*
X152298523Y-155812990D02*
X152374714Y-155698704D01*
X152374714Y-155698704D02*
X152412809Y-155660609D01*
D12*
G36*
X154963053Y-86140000D02*
G01*
X154613053Y-86140000D01*
X154613053Y-85611702D01*
X154090861Y-85611702D01*
X154090861Y-85436580D01*
X154265739Y-85436580D01*
X154613053Y-85436580D01*
X154613053Y-85095861D01*
X154265739Y-85095861D01*
X154265739Y-85436580D01*
X154090861Y-85436580D01*
X153915739Y-85436580D01*
X153915739Y-85092686D01*
X154090861Y-85092686D01*
X154090861Y-84920739D01*
X154963053Y-84920739D01*
X154963053Y-86140000D01*
G37*
G36*
X152337686Y-84920739D02*
G01*
X152337686Y-86140000D01*
X152687686Y-86140000D01*
X152687686Y-85968053D01*
X152859633Y-85968053D01*
X152859633Y-85780474D01*
X153031580Y-85780474D01*
X153031580Y-85968053D01*
X153213053Y-85968053D01*
X153213053Y-86140000D01*
X153563053Y-86140000D01*
X153563053Y-84920739D01*
X153213053Y-84920739D01*
X153213053Y-85624159D01*
X153031580Y-85624159D01*
X153031580Y-85436580D01*
X152859633Y-85436580D01*
X152859633Y-85624159D01*
X152687686Y-85624159D01*
X152687686Y-84920739D01*
X152337686Y-84920739D01*
G37*
G36*
X152163053Y-86140000D02*
G01*
X151813053Y-86140000D01*
X151813053Y-85780474D01*
X151637686Y-85780474D01*
X151637686Y-85964877D01*
X151459877Y-85964877D01*
X151459877Y-86140000D01*
X151115739Y-86140000D01*
X151115739Y-85964877D01*
X151287686Y-85964877D01*
X151287686Y-85780474D01*
X151459877Y-85780474D01*
X151459877Y-85608527D01*
X151287686Y-85608527D01*
X151287686Y-85436580D01*
X151459877Y-85436580D01*
X151813053Y-85436580D01*
X151813053Y-85095861D01*
X151459877Y-85095861D01*
X151459877Y-85436580D01*
X151287686Y-85436580D01*
X151115739Y-85436580D01*
X151115739Y-85092686D01*
X151287686Y-85092686D01*
X151287686Y-84920739D01*
X152163053Y-84920739D01*
X152163053Y-86140000D01*
G37*
D13*
X239115918Y-127355714D02*
X238315918Y-127355714D01*
X239115918Y-127812857D02*
X238658775Y-127469999D01*
X238315918Y-127812857D02*
X238773061Y-127355714D01*
X238696870Y-128155714D02*
X238696870Y-128422380D01*
X239115918Y-128536666D02*
X239115918Y-128155714D01*
X239115918Y-128155714D02*
X238315918Y-128155714D01*
X238315918Y-128155714D02*
X238315918Y-128536666D01*
X238734965Y-129031905D02*
X239115918Y-129031905D01*
X238315918Y-128765238D02*
X238734965Y-129031905D01*
X238734965Y-129031905D02*
X238315918Y-129298571D01*
X240403873Y-127755714D02*
X240403873Y-127374762D01*
X240403873Y-127374762D02*
X239603873Y-127374762D01*
X239984825Y-128022381D02*
X239984825Y-128289047D01*
X240403873Y-128403333D02*
X240403873Y-128022381D01*
X240403873Y-128022381D02*
X239603873Y-128022381D01*
X239603873Y-128022381D02*
X239603873Y-128403333D01*
X240403873Y-128746191D02*
X239603873Y-128746191D01*
X239603873Y-128746191D02*
X239603873Y-128936667D01*
X239603873Y-128936667D02*
X239641968Y-129050953D01*
X239641968Y-129050953D02*
X239718158Y-129127143D01*
X239718158Y-129127143D02*
X239794349Y-129165238D01*
X239794349Y-129165238D02*
X239946730Y-129203334D01*
X239946730Y-129203334D02*
X240061016Y-129203334D01*
X240061016Y-129203334D02*
X240213397Y-129165238D01*
X240213397Y-129165238D02*
X240289587Y-129127143D01*
X240289587Y-129127143D02*
X240365778Y-129050953D01*
X240365778Y-129050953D02*
X240403873Y-128936667D01*
X240403873Y-128936667D02*
X240403873Y-128746191D01*
D12*
G36*
X208833053Y-93056580D02*
G01*
X208479633Y-93056580D01*
X208479633Y-92884633D01*
X208833053Y-92884633D01*
X208833053Y-93056580D01*
G37*
G36*
X211633053Y-93056580D02*
G01*
X211279877Y-93056580D01*
X211279877Y-92715861D01*
X211633053Y-92715861D01*
X211633053Y-93056580D01*
G37*
G36*
X213033053Y-93584877D02*
G01*
X212685739Y-93584877D01*
X212685739Y-92715861D01*
X213033053Y-92715861D01*
X213033053Y-93584877D01*
G37*
G36*
X214433053Y-93056580D02*
G01*
X214085739Y-93056580D01*
X214085739Y-92715861D01*
X214433053Y-92715861D01*
X214433053Y-93056580D01*
G37*
G36*
X217522217Y-93871111D02*
G01*
X205224628Y-93871111D01*
X205224628Y-92715861D01*
X205335739Y-92715861D01*
X205679633Y-92715861D01*
X205679633Y-93760000D01*
X206029633Y-93760000D01*
X206735739Y-93760000D01*
X207085739Y-93760000D01*
X207085739Y-93416106D01*
X207259396Y-93416106D01*
X207259396Y-93244159D01*
X207433053Y-93244159D01*
X207433053Y-93760000D01*
X207783053Y-93760000D01*
X207783053Y-92884633D01*
X208135739Y-92884633D01*
X208135739Y-93056580D01*
X208135739Y-93760000D01*
X208479633Y-93760000D01*
X208479633Y-93231702D01*
X208833053Y-93231702D01*
X208833053Y-93760000D01*
X209183053Y-93760000D01*
X209183053Y-92884633D01*
X209011106Y-92884633D01*
X209011106Y-92715861D01*
X209535739Y-92715861D01*
X209879633Y-92715861D01*
X209879633Y-93760000D01*
X210229633Y-93760000D01*
X210229633Y-92715861D01*
X210583053Y-92715861D01*
X210583053Y-92712686D01*
X210935739Y-92712686D01*
X210935739Y-93056580D01*
X211107686Y-93056580D01*
X211107686Y-93228527D01*
X211279877Y-93228527D01*
X211279877Y-93400474D01*
X211107686Y-93400474D01*
X211107686Y-93584877D01*
X210935739Y-93584877D01*
X210935739Y-93760000D01*
X211279877Y-93760000D01*
X211279877Y-93584877D01*
X211457686Y-93584877D01*
X211457686Y-93400474D01*
X211633053Y-93400474D01*
X211633053Y-93760000D01*
X211983053Y-93760000D01*
X211983053Y-92712686D01*
X212335739Y-92712686D01*
X212335739Y-93584877D01*
X212335739Y-93588053D01*
X212507686Y-93588053D01*
X212507686Y-93760000D01*
X213211106Y-93760000D01*
X213211106Y-93588053D01*
X213383053Y-93588053D01*
X213383053Y-92712686D01*
X213735739Y-92712686D01*
X213735739Y-93056580D01*
X213910861Y-93056580D01*
X213910861Y-93231702D01*
X214433053Y-93231702D01*
X214433053Y-93760000D01*
X214783053Y-93760000D01*
X214957686Y-93760000D01*
X215307686Y-93760000D01*
X215307686Y-93056580D01*
X215479633Y-93056580D01*
X215479633Y-93228527D01*
X215651580Y-93228527D01*
X215651580Y-93056580D01*
X215833053Y-93056580D01*
X215833053Y-93760000D01*
X216183053Y-93760000D01*
X216183053Y-92715861D01*
X216707686Y-92715861D01*
X216889159Y-92715861D01*
X216889159Y-93584877D01*
X216707686Y-93584877D01*
X216707686Y-93760000D01*
X217411106Y-93760000D01*
X217411106Y-93584877D01*
X217239159Y-93584877D01*
X217239159Y-92715861D01*
X217411106Y-92715861D01*
X217411106Y-92540739D01*
X216707686Y-92540739D01*
X216707686Y-92715861D01*
X216183053Y-92715861D01*
X216183053Y-92540739D01*
X215833053Y-92540739D01*
X215833053Y-92712686D01*
X215651580Y-92712686D01*
X215651580Y-92884633D01*
X215479633Y-92884633D01*
X215479633Y-92712686D01*
X215307686Y-92712686D01*
X215307686Y-92540739D01*
X214957686Y-92540739D01*
X214957686Y-93760000D01*
X214783053Y-93760000D01*
X214783053Y-92540739D01*
X213910861Y-92540739D01*
X213910861Y-92712686D01*
X213735739Y-92712686D01*
X213383053Y-92712686D01*
X213211106Y-92712686D01*
X213211106Y-92540739D01*
X212507686Y-92540739D01*
X212507686Y-92712686D01*
X212335739Y-92712686D01*
X211983053Y-92712686D01*
X211983053Y-92540739D01*
X211107686Y-92540739D01*
X211107686Y-92712686D01*
X210935739Y-92712686D01*
X210583053Y-92712686D01*
X210583053Y-92540739D01*
X209535739Y-92540739D01*
X209535739Y-92715861D01*
X209011106Y-92715861D01*
X209011106Y-92712686D01*
X208829633Y-92712686D01*
X208829633Y-92540739D01*
X208479633Y-92540739D01*
X208479633Y-92712686D01*
X208307686Y-92712686D01*
X208307686Y-92884633D01*
X208135739Y-92884633D01*
X207783053Y-92884633D01*
X207783053Y-92540739D01*
X207433053Y-92540739D01*
X207433053Y-92712686D01*
X207259396Y-92712686D01*
X207259396Y-92884633D01*
X207085739Y-92884633D01*
X207085739Y-92540739D01*
X206735739Y-92540739D01*
X206735739Y-93760000D01*
X206029633Y-93760000D01*
X206029633Y-92715861D01*
X206383053Y-92715861D01*
X206383053Y-92540739D01*
X205335739Y-92540739D01*
X205335739Y-92715861D01*
X205224628Y-92715861D01*
X205224628Y-92429628D01*
X217522217Y-92429628D01*
X217522217Y-93871111D01*
G37*
X217515839Y-95544188D02*
X217039649Y-95544188D01*
X217611077Y-95829903D02*
X217277744Y-94829903D01*
X217277744Y-94829903D02*
X216944411Y-95829903D01*
X216468220Y-95829903D02*
X216563458Y-95782284D01*
X216563458Y-95782284D02*
X216611077Y-95687045D01*
X216611077Y-95687045D02*
X216611077Y-94829903D01*
X216182505Y-95163236D02*
X215992029Y-95829903D01*
X215992029Y-95829903D02*
X215801553Y-95353712D01*
X215801553Y-95353712D02*
X215611077Y-95829903D01*
X215611077Y-95829903D02*
X215420601Y-95163236D01*
X214611077Y-95829903D02*
X214611077Y-95306093D01*
X214611077Y-95306093D02*
X214658696Y-95210855D01*
X214658696Y-95210855D02*
X214753934Y-95163236D01*
X214753934Y-95163236D02*
X214944410Y-95163236D01*
X214944410Y-95163236D02*
X215039648Y-95210855D01*
X214611077Y-95782284D02*
X214706315Y-95829903D01*
X214706315Y-95829903D02*
X214944410Y-95829903D01*
X214944410Y-95829903D02*
X215039648Y-95782284D01*
X215039648Y-95782284D02*
X215087267Y-95687045D01*
X215087267Y-95687045D02*
X215087267Y-95591807D01*
X215087267Y-95591807D02*
X215039648Y-95496569D01*
X215039648Y-95496569D02*
X214944410Y-95448950D01*
X214944410Y-95448950D02*
X214706315Y-95448950D01*
X214706315Y-95448950D02*
X214611077Y-95401331D01*
X214230124Y-95163236D02*
X213992029Y-95829903D01*
X213753934Y-95163236D02*
X213992029Y-95829903D01*
X213992029Y-95829903D02*
X214087267Y-96067998D01*
X214087267Y-96067998D02*
X214134886Y-96115617D01*
X214134886Y-96115617D02*
X214230124Y-96163236D01*
X213420600Y-95782284D02*
X213325362Y-95829903D01*
X213325362Y-95829903D02*
X213134886Y-95829903D01*
X213134886Y-95829903D02*
X213039648Y-95782284D01*
X213039648Y-95782284D02*
X212992029Y-95687045D01*
X212992029Y-95687045D02*
X212992029Y-95639426D01*
X212992029Y-95639426D02*
X213039648Y-95544188D01*
X213039648Y-95544188D02*
X213134886Y-95496569D01*
X213134886Y-95496569D02*
X213277743Y-95496569D01*
X213277743Y-95496569D02*
X213372981Y-95448950D01*
X213372981Y-95448950D02*
X213420600Y-95353712D01*
X213420600Y-95353712D02*
X213420600Y-95306093D01*
X213420600Y-95306093D02*
X213372981Y-95210855D01*
X213372981Y-95210855D02*
X213277743Y-95163236D01*
X213277743Y-95163236D02*
X213134886Y-95163236D01*
X213134886Y-95163236D02*
X213039648Y-95210855D01*
X211372981Y-95782284D02*
X211468219Y-95829903D01*
X211468219Y-95829903D02*
X211658695Y-95829903D01*
X211658695Y-95829903D02*
X211753933Y-95782284D01*
X211753933Y-95782284D02*
X211801552Y-95734664D01*
X211801552Y-95734664D02*
X211849171Y-95639426D01*
X211849171Y-95639426D02*
X211849171Y-95353712D01*
X211849171Y-95353712D02*
X211801552Y-95258474D01*
X211801552Y-95258474D02*
X211753933Y-95210855D01*
X211753933Y-95210855D02*
X211658695Y-95163236D01*
X211658695Y-95163236D02*
X211468219Y-95163236D01*
X211468219Y-95163236D02*
X211372981Y-95210855D01*
X210801552Y-95829903D02*
X210896790Y-95782284D01*
X210896790Y-95782284D02*
X210944409Y-95734664D01*
X210944409Y-95734664D02*
X210992028Y-95639426D01*
X210992028Y-95639426D02*
X210992028Y-95353712D01*
X210992028Y-95353712D02*
X210944409Y-95258474D01*
X210944409Y-95258474D02*
X210896790Y-95210855D01*
X210896790Y-95210855D02*
X210801552Y-95163236D01*
X210801552Y-95163236D02*
X210658695Y-95163236D01*
X210658695Y-95163236D02*
X210563457Y-95210855D01*
X210563457Y-95210855D02*
X210515838Y-95258474D01*
X210515838Y-95258474D02*
X210468219Y-95353712D01*
X210468219Y-95353712D02*
X210468219Y-95639426D01*
X210468219Y-95639426D02*
X210515838Y-95734664D01*
X210515838Y-95734664D02*
X210563457Y-95782284D01*
X210563457Y-95782284D02*
X210658695Y-95829903D01*
X210658695Y-95829903D02*
X210801552Y-95829903D01*
X210039647Y-95163236D02*
X210039647Y-95829903D01*
X210039647Y-95258474D02*
X209992028Y-95210855D01*
X209992028Y-95210855D02*
X209896790Y-95163236D01*
X209896790Y-95163236D02*
X209753933Y-95163236D01*
X209753933Y-95163236D02*
X209658695Y-95210855D01*
X209658695Y-95210855D02*
X209611076Y-95306093D01*
X209611076Y-95306093D02*
X209611076Y-95829903D01*
X209277742Y-95163236D02*
X208896790Y-95163236D01*
X209134885Y-95829903D02*
X209134885Y-94972760D01*
X209134885Y-94972760D02*
X209087266Y-94877522D01*
X209087266Y-94877522D02*
X208992028Y-94829903D01*
X208992028Y-94829903D02*
X208896790Y-94829903D01*
X208563456Y-95829903D02*
X208563456Y-95163236D01*
X208563456Y-94829903D02*
X208611075Y-94877522D01*
X208611075Y-94877522D02*
X208563456Y-94925141D01*
X208563456Y-94925141D02*
X208515837Y-94877522D01*
X208515837Y-94877522D02*
X208563456Y-94829903D01*
X208563456Y-94829903D02*
X208563456Y-94925141D01*
X207658695Y-95163236D02*
X207658695Y-95972760D01*
X207658695Y-95972760D02*
X207706314Y-96067998D01*
X207706314Y-96067998D02*
X207753933Y-96115617D01*
X207753933Y-96115617D02*
X207849171Y-96163236D01*
X207849171Y-96163236D02*
X207992028Y-96163236D01*
X207992028Y-96163236D02*
X208087266Y-96115617D01*
X207658695Y-95782284D02*
X207753933Y-95829903D01*
X207753933Y-95829903D02*
X207944409Y-95829903D01*
X207944409Y-95829903D02*
X208039647Y-95782284D01*
X208039647Y-95782284D02*
X208087266Y-95734664D01*
X208087266Y-95734664D02*
X208134885Y-95639426D01*
X208134885Y-95639426D02*
X208134885Y-95353712D01*
X208134885Y-95353712D02*
X208087266Y-95258474D01*
X208087266Y-95258474D02*
X208039647Y-95210855D01*
X208039647Y-95210855D02*
X207944409Y-95163236D01*
X207944409Y-95163236D02*
X207753933Y-95163236D01*
X207753933Y-95163236D02*
X207658695Y-95210855D01*
X206753933Y-95163236D02*
X206753933Y-95829903D01*
X207182504Y-95163236D02*
X207182504Y-95687045D01*
X207182504Y-95687045D02*
X207134885Y-95782284D01*
X207134885Y-95782284D02*
X207039647Y-95829903D01*
X207039647Y-95829903D02*
X206896790Y-95829903D01*
X206896790Y-95829903D02*
X206801552Y-95782284D01*
X206801552Y-95782284D02*
X206753933Y-95734664D01*
X206277742Y-95829903D02*
X206277742Y-95163236D01*
X206277742Y-95353712D02*
X206230123Y-95258474D01*
X206230123Y-95258474D02*
X206182504Y-95210855D01*
X206182504Y-95210855D02*
X206087266Y-95163236D01*
X206087266Y-95163236D02*
X205992028Y-95163236D01*
X205277742Y-95782284D02*
X205372980Y-95829903D01*
X205372980Y-95829903D02*
X205563456Y-95829903D01*
X205563456Y-95829903D02*
X205658694Y-95782284D01*
X205658694Y-95782284D02*
X205706313Y-95687045D01*
X205706313Y-95687045D02*
X205706313Y-95306093D01*
X205706313Y-95306093D02*
X205658694Y-95210855D01*
X205658694Y-95210855D02*
X205563456Y-95163236D01*
X205563456Y-95163236D02*
X205372980Y-95163236D01*
X205372980Y-95163236D02*
X205277742Y-95210855D01*
X205277742Y-95210855D02*
X205230123Y-95306093D01*
X205230123Y-95306093D02*
X205230123Y-95401331D01*
X205230123Y-95401331D02*
X205706313Y-95496569D01*
X203706313Y-95306093D02*
X204039646Y-95306093D01*
X204039646Y-95829903D02*
X204039646Y-94829903D01*
X204039646Y-94829903D02*
X203563456Y-94829903D01*
X203230122Y-94925141D02*
X203182503Y-94877522D01*
X203182503Y-94877522D02*
X203087265Y-94829903D01*
X203087265Y-94829903D02*
X202849170Y-94829903D01*
X202849170Y-94829903D02*
X202753932Y-94877522D01*
X202753932Y-94877522D02*
X202706313Y-94925141D01*
X202706313Y-94925141D02*
X202658694Y-95020379D01*
X202658694Y-95020379D02*
X202658694Y-95115617D01*
X202658694Y-95115617D02*
X202706313Y-95258474D01*
X202706313Y-95258474D02*
X203277741Y-95829903D01*
X203277741Y-95829903D02*
X202658694Y-95829903D01*
X201515837Y-94782284D02*
X202372979Y-96067998D01*
X200849170Y-95306093D02*
X201182503Y-95306093D01*
X201182503Y-95829903D02*
X201182503Y-94829903D01*
X201182503Y-94829903D02*
X200706313Y-94829903D01*
X200420598Y-94829903D02*
X199801551Y-94829903D01*
X199801551Y-94829903D02*
X200134884Y-95210855D01*
X200134884Y-95210855D02*
X199992027Y-95210855D01*
X199992027Y-95210855D02*
X199896789Y-95258474D01*
X199896789Y-95258474D02*
X199849170Y-95306093D01*
X199849170Y-95306093D02*
X199801551Y-95401331D01*
X199801551Y-95401331D02*
X199801551Y-95639426D01*
X199801551Y-95639426D02*
X199849170Y-95734664D01*
X199849170Y-95734664D02*
X199896789Y-95782284D01*
X199896789Y-95782284D02*
X199992027Y-95829903D01*
X199992027Y-95829903D02*
X200277741Y-95829903D01*
X200277741Y-95829903D02*
X200372979Y-95782284D01*
X200372979Y-95782284D02*
X200420598Y-95734664D01*
X198611074Y-95163236D02*
X198611074Y-96163236D01*
X198611074Y-95210855D02*
X198515836Y-95163236D01*
X198515836Y-95163236D02*
X198325360Y-95163236D01*
X198325360Y-95163236D02*
X198230122Y-95210855D01*
X198230122Y-95210855D02*
X198182503Y-95258474D01*
X198182503Y-95258474D02*
X198134884Y-95353712D01*
X198134884Y-95353712D02*
X198134884Y-95639426D01*
X198134884Y-95639426D02*
X198182503Y-95734664D01*
X198182503Y-95734664D02*
X198230122Y-95782284D01*
X198230122Y-95782284D02*
X198325360Y-95829903D01*
X198325360Y-95829903D02*
X198515836Y-95829903D01*
X198515836Y-95829903D02*
X198611074Y-95782284D01*
X197563455Y-95829903D02*
X197658693Y-95782284D01*
X197658693Y-95782284D02*
X197706312Y-95734664D01*
X197706312Y-95734664D02*
X197753931Y-95639426D01*
X197753931Y-95639426D02*
X197753931Y-95353712D01*
X197753931Y-95353712D02*
X197706312Y-95258474D01*
X197706312Y-95258474D02*
X197658693Y-95210855D01*
X197658693Y-95210855D02*
X197563455Y-95163236D01*
X197563455Y-95163236D02*
X197420598Y-95163236D01*
X197420598Y-95163236D02*
X197325360Y-95210855D01*
X197325360Y-95210855D02*
X197277741Y-95258474D01*
X197277741Y-95258474D02*
X197230122Y-95353712D01*
X197230122Y-95353712D02*
X197230122Y-95639426D01*
X197230122Y-95639426D02*
X197277741Y-95734664D01*
X197277741Y-95734664D02*
X197325360Y-95782284D01*
X197325360Y-95782284D02*
X197420598Y-95829903D01*
X197420598Y-95829903D02*
X197563455Y-95829903D01*
X196658693Y-95829903D02*
X196753931Y-95782284D01*
X196753931Y-95782284D02*
X196801550Y-95687045D01*
X196801550Y-95687045D02*
X196801550Y-94829903D01*
X195849169Y-95829903D02*
X195849169Y-95306093D01*
X195849169Y-95306093D02*
X195896788Y-95210855D01*
X195896788Y-95210855D02*
X195992026Y-95163236D01*
X195992026Y-95163236D02*
X196182502Y-95163236D01*
X196182502Y-95163236D02*
X196277740Y-95210855D01*
X195849169Y-95782284D02*
X195944407Y-95829903D01*
X195944407Y-95829903D02*
X196182502Y-95829903D01*
X196182502Y-95829903D02*
X196277740Y-95782284D01*
X196277740Y-95782284D02*
X196325359Y-95687045D01*
X196325359Y-95687045D02*
X196325359Y-95591807D01*
X196325359Y-95591807D02*
X196277740Y-95496569D01*
X196277740Y-95496569D02*
X196182502Y-95448950D01*
X196182502Y-95448950D02*
X195944407Y-95448950D01*
X195944407Y-95448950D02*
X195849169Y-95401331D01*
X195372978Y-95829903D02*
X195372978Y-95163236D01*
X195372978Y-95353712D02*
X195325359Y-95258474D01*
X195325359Y-95258474D02*
X195277740Y-95210855D01*
X195277740Y-95210855D02*
X195182502Y-95163236D01*
X195182502Y-95163236D02*
X195087264Y-95163236D01*
X194753930Y-95829903D02*
X194753930Y-95163236D01*
X194753930Y-94829903D02*
X194801549Y-94877522D01*
X194801549Y-94877522D02*
X194753930Y-94925141D01*
X194753930Y-94925141D02*
X194706311Y-94877522D01*
X194706311Y-94877522D02*
X194753930Y-94829903D01*
X194753930Y-94829903D02*
X194753930Y-94925141D01*
X194420597Y-95163236D02*
X194039645Y-95163236D01*
X194277740Y-94829903D02*
X194277740Y-95687045D01*
X194277740Y-95687045D02*
X194230121Y-95782284D01*
X194230121Y-95782284D02*
X194134883Y-95829903D01*
X194134883Y-95829903D02*
X194039645Y-95829903D01*
X193801549Y-95163236D02*
X193563454Y-95829903D01*
X193325359Y-95163236D02*
X193563454Y-95829903D01*
X193563454Y-95829903D02*
X193658692Y-96067998D01*
X193658692Y-96067998D02*
X193706311Y-96115617D01*
X193706311Y-96115617D02*
X193801549Y-96163236D01*
X217039649Y-97439847D02*
X217039649Y-96916037D01*
X217039649Y-96916037D02*
X217087268Y-96820799D01*
X217087268Y-96820799D02*
X217182506Y-96773180D01*
X217182506Y-96773180D02*
X217372982Y-96773180D01*
X217372982Y-96773180D02*
X217468220Y-96820799D01*
X217039649Y-97392228D02*
X217134887Y-97439847D01*
X217134887Y-97439847D02*
X217372982Y-97439847D01*
X217372982Y-97439847D02*
X217468220Y-97392228D01*
X217468220Y-97392228D02*
X217515839Y-97296989D01*
X217515839Y-97296989D02*
X217515839Y-97201751D01*
X217515839Y-97201751D02*
X217468220Y-97106513D01*
X217468220Y-97106513D02*
X217372982Y-97058894D01*
X217372982Y-97058894D02*
X217134887Y-97058894D01*
X217134887Y-97058894D02*
X217039649Y-97011275D01*
X216134887Y-97392228D02*
X216230125Y-97439847D01*
X216230125Y-97439847D02*
X216420601Y-97439847D01*
X216420601Y-97439847D02*
X216515839Y-97392228D01*
X216515839Y-97392228D02*
X216563458Y-97344608D01*
X216563458Y-97344608D02*
X216611077Y-97249370D01*
X216611077Y-97249370D02*
X216611077Y-96963656D01*
X216611077Y-96963656D02*
X216563458Y-96868418D01*
X216563458Y-96868418D02*
X216515839Y-96820799D01*
X216515839Y-96820799D02*
X216420601Y-96773180D01*
X216420601Y-96773180D02*
X216230125Y-96773180D01*
X216230125Y-96773180D02*
X216134887Y-96820799D01*
X215277744Y-97392228D02*
X215372982Y-97439847D01*
X215372982Y-97439847D02*
X215563458Y-97439847D01*
X215563458Y-97439847D02*
X215658696Y-97392228D01*
X215658696Y-97392228D02*
X215706315Y-97344608D01*
X215706315Y-97344608D02*
X215753934Y-97249370D01*
X215753934Y-97249370D02*
X215753934Y-96963656D01*
X215753934Y-96963656D02*
X215706315Y-96868418D01*
X215706315Y-96868418D02*
X215658696Y-96820799D01*
X215658696Y-96820799D02*
X215563458Y-96773180D01*
X215563458Y-96773180D02*
X215372982Y-96773180D01*
X215372982Y-96773180D02*
X215277744Y-96820799D01*
X214706315Y-97439847D02*
X214801553Y-97392228D01*
X214801553Y-97392228D02*
X214849172Y-97344608D01*
X214849172Y-97344608D02*
X214896791Y-97249370D01*
X214896791Y-97249370D02*
X214896791Y-96963656D01*
X214896791Y-96963656D02*
X214849172Y-96868418D01*
X214849172Y-96868418D02*
X214801553Y-96820799D01*
X214801553Y-96820799D02*
X214706315Y-96773180D01*
X214706315Y-96773180D02*
X214563458Y-96773180D01*
X214563458Y-96773180D02*
X214468220Y-96820799D01*
X214468220Y-96820799D02*
X214420601Y-96868418D01*
X214420601Y-96868418D02*
X214372982Y-96963656D01*
X214372982Y-96963656D02*
X214372982Y-97249370D01*
X214372982Y-97249370D02*
X214420601Y-97344608D01*
X214420601Y-97344608D02*
X214468220Y-97392228D01*
X214468220Y-97392228D02*
X214563458Y-97439847D01*
X214563458Y-97439847D02*
X214706315Y-97439847D01*
X213944410Y-97439847D02*
X213944410Y-96773180D01*
X213944410Y-96963656D02*
X213896791Y-96868418D01*
X213896791Y-96868418D02*
X213849172Y-96820799D01*
X213849172Y-96820799D02*
X213753934Y-96773180D01*
X213753934Y-96773180D02*
X213658696Y-96773180D01*
X212896791Y-97439847D02*
X212896791Y-96439847D01*
X212896791Y-97392228D02*
X212992029Y-97439847D01*
X212992029Y-97439847D02*
X213182505Y-97439847D01*
X213182505Y-97439847D02*
X213277743Y-97392228D01*
X213277743Y-97392228D02*
X213325362Y-97344608D01*
X213325362Y-97344608D02*
X213372981Y-97249370D01*
X213372981Y-97249370D02*
X213372981Y-96963656D01*
X213372981Y-96963656D02*
X213325362Y-96868418D01*
X213325362Y-96868418D02*
X213277743Y-96820799D01*
X213277743Y-96820799D02*
X213182505Y-96773180D01*
X213182505Y-96773180D02*
X212992029Y-96773180D01*
X212992029Y-96773180D02*
X212896791Y-96820799D01*
X212420600Y-97439847D02*
X212420600Y-96773180D01*
X212420600Y-96439847D02*
X212468219Y-96487466D01*
X212468219Y-96487466D02*
X212420600Y-96535085D01*
X212420600Y-96535085D02*
X212372981Y-96487466D01*
X212372981Y-96487466D02*
X212420600Y-96439847D01*
X212420600Y-96439847D02*
X212420600Y-96535085D01*
X211944410Y-96773180D02*
X211944410Y-97439847D01*
X211944410Y-96868418D02*
X211896791Y-96820799D01*
X211896791Y-96820799D02*
X211801553Y-96773180D01*
X211801553Y-96773180D02*
X211658696Y-96773180D01*
X211658696Y-96773180D02*
X211563458Y-96820799D01*
X211563458Y-96820799D02*
X211515839Y-96916037D01*
X211515839Y-96916037D02*
X211515839Y-97439847D01*
X210611077Y-96773180D02*
X210611077Y-97582704D01*
X210611077Y-97582704D02*
X210658696Y-97677942D01*
X210658696Y-97677942D02*
X210706315Y-97725561D01*
X210706315Y-97725561D02*
X210801553Y-97773180D01*
X210801553Y-97773180D02*
X210944410Y-97773180D01*
X210944410Y-97773180D02*
X211039648Y-97725561D01*
X210611077Y-97392228D02*
X210706315Y-97439847D01*
X210706315Y-97439847D02*
X210896791Y-97439847D01*
X210896791Y-97439847D02*
X210992029Y-97392228D01*
X210992029Y-97392228D02*
X211039648Y-97344608D01*
X211039648Y-97344608D02*
X211087267Y-97249370D01*
X211087267Y-97249370D02*
X211087267Y-96963656D01*
X211087267Y-96963656D02*
X211039648Y-96868418D01*
X211039648Y-96868418D02*
X210992029Y-96820799D01*
X210992029Y-96820799D02*
X210896791Y-96773180D01*
X210896791Y-96773180D02*
X210706315Y-96773180D01*
X210706315Y-96773180D02*
X210611077Y-96820799D01*
X209515838Y-96773180D02*
X209134886Y-96773180D01*
X209372981Y-96439847D02*
X209372981Y-97296989D01*
X209372981Y-97296989D02*
X209325362Y-97392228D01*
X209325362Y-97392228D02*
X209230124Y-97439847D01*
X209230124Y-97439847D02*
X209134886Y-97439847D01*
X208658695Y-97439847D02*
X208753933Y-97392228D01*
X208753933Y-97392228D02*
X208801552Y-97344608D01*
X208801552Y-97344608D02*
X208849171Y-97249370D01*
X208849171Y-97249370D02*
X208849171Y-96963656D01*
X208849171Y-96963656D02*
X208801552Y-96868418D01*
X208801552Y-96868418D02*
X208753933Y-96820799D01*
X208753933Y-96820799D02*
X208658695Y-96773180D01*
X208658695Y-96773180D02*
X208515838Y-96773180D01*
X208515838Y-96773180D02*
X208420600Y-96820799D01*
X208420600Y-96820799D02*
X208372981Y-96868418D01*
X208372981Y-96868418D02*
X208325362Y-96963656D01*
X208325362Y-96963656D02*
X208325362Y-97249370D01*
X208325362Y-97249370D02*
X208372981Y-97344608D01*
X208372981Y-97344608D02*
X208420600Y-97392228D01*
X208420600Y-97392228D02*
X208515838Y-97439847D01*
X208515838Y-97439847D02*
X208658695Y-97439847D01*
X207230123Y-96773180D02*
X207039647Y-97439847D01*
X207039647Y-97439847D02*
X206849171Y-96963656D01*
X206849171Y-96963656D02*
X206658695Y-97439847D01*
X206658695Y-97439847D02*
X206468219Y-96773180D01*
X206087266Y-97439847D02*
X206087266Y-96439847D01*
X205658695Y-97439847D02*
X205658695Y-96916037D01*
X205658695Y-96916037D02*
X205706314Y-96820799D01*
X205706314Y-96820799D02*
X205801552Y-96773180D01*
X205801552Y-96773180D02*
X205944409Y-96773180D01*
X205944409Y-96773180D02*
X206039647Y-96820799D01*
X206039647Y-96820799D02*
X206087266Y-96868418D01*
X204753933Y-97439847D02*
X204753933Y-96916037D01*
X204753933Y-96916037D02*
X204801552Y-96820799D01*
X204801552Y-96820799D02*
X204896790Y-96773180D01*
X204896790Y-96773180D02*
X205087266Y-96773180D01*
X205087266Y-96773180D02*
X205182504Y-96820799D01*
X204753933Y-97392228D02*
X204849171Y-97439847D01*
X204849171Y-97439847D02*
X205087266Y-97439847D01*
X205087266Y-97439847D02*
X205182504Y-97392228D01*
X205182504Y-97392228D02*
X205230123Y-97296989D01*
X205230123Y-97296989D02*
X205230123Y-97201751D01*
X205230123Y-97201751D02*
X205182504Y-97106513D01*
X205182504Y-97106513D02*
X205087266Y-97058894D01*
X205087266Y-97058894D02*
X204849171Y-97058894D01*
X204849171Y-97058894D02*
X204753933Y-97011275D01*
X204420599Y-96773180D02*
X204039647Y-96773180D01*
X204277742Y-96439847D02*
X204277742Y-97296989D01*
X204277742Y-97296989D02*
X204230123Y-97392228D01*
X204230123Y-97392228D02*
X204134885Y-97439847D01*
X204134885Y-97439847D02*
X204039647Y-97439847D01*
X202944408Y-97439847D02*
X202944408Y-96773180D01*
X202944408Y-96439847D02*
X202992027Y-96487466D01*
X202992027Y-96487466D02*
X202944408Y-96535085D01*
X202944408Y-96535085D02*
X202896789Y-96487466D01*
X202896789Y-96487466D02*
X202944408Y-96439847D01*
X202944408Y-96439847D02*
X202944408Y-96535085D01*
X202515837Y-97392228D02*
X202420599Y-97439847D01*
X202420599Y-97439847D02*
X202230123Y-97439847D01*
X202230123Y-97439847D02*
X202134885Y-97392228D01*
X202134885Y-97392228D02*
X202087266Y-97296989D01*
X202087266Y-97296989D02*
X202087266Y-97249370D01*
X202087266Y-97249370D02*
X202134885Y-97154132D01*
X202134885Y-97154132D02*
X202230123Y-97106513D01*
X202230123Y-97106513D02*
X202372980Y-97106513D01*
X202372980Y-97106513D02*
X202468218Y-97058894D01*
X202468218Y-97058894D02*
X202515837Y-96963656D01*
X202515837Y-96963656D02*
X202515837Y-96916037D01*
X202515837Y-96916037D02*
X202468218Y-96820799D01*
X202468218Y-96820799D02*
X202372980Y-96773180D01*
X202372980Y-96773180D02*
X202230123Y-96773180D01*
X202230123Y-96773180D02*
X202134885Y-96820799D01*
X200896789Y-97439847D02*
X200896789Y-96773180D01*
X200896789Y-96963656D02*
X200849170Y-96868418D01*
X200849170Y-96868418D02*
X200801551Y-96820799D01*
X200801551Y-96820799D02*
X200706313Y-96773180D01*
X200706313Y-96773180D02*
X200611075Y-96773180D01*
X199896789Y-97392228D02*
X199992027Y-97439847D01*
X199992027Y-97439847D02*
X200182503Y-97439847D01*
X200182503Y-97439847D02*
X200277741Y-97392228D01*
X200277741Y-97392228D02*
X200325360Y-97296989D01*
X200325360Y-97296989D02*
X200325360Y-96916037D01*
X200325360Y-96916037D02*
X200277741Y-96820799D01*
X200277741Y-96820799D02*
X200182503Y-96773180D01*
X200182503Y-96773180D02*
X199992027Y-96773180D01*
X199992027Y-96773180D02*
X199896789Y-96820799D01*
X199896789Y-96820799D02*
X199849170Y-96916037D01*
X199849170Y-96916037D02*
X199849170Y-97011275D01*
X199849170Y-97011275D02*
X200325360Y-97106513D01*
X198992027Y-96773180D02*
X198992027Y-97773180D01*
X198992027Y-97392228D02*
X199087265Y-97439847D01*
X199087265Y-97439847D02*
X199277741Y-97439847D01*
X199277741Y-97439847D02*
X199372979Y-97392228D01*
X199372979Y-97392228D02*
X199420598Y-97344608D01*
X199420598Y-97344608D02*
X199468217Y-97249370D01*
X199468217Y-97249370D02*
X199468217Y-96963656D01*
X199468217Y-96963656D02*
X199420598Y-96868418D01*
X199420598Y-96868418D02*
X199372979Y-96820799D01*
X199372979Y-96820799D02*
X199277741Y-96773180D01*
X199277741Y-96773180D02*
X199087265Y-96773180D01*
X199087265Y-96773180D02*
X198992027Y-96820799D01*
X198087265Y-96773180D02*
X198087265Y-97439847D01*
X198515836Y-96773180D02*
X198515836Y-97296989D01*
X198515836Y-97296989D02*
X198468217Y-97392228D01*
X198468217Y-97392228D02*
X198372979Y-97439847D01*
X198372979Y-97439847D02*
X198230122Y-97439847D01*
X198230122Y-97439847D02*
X198134884Y-97392228D01*
X198134884Y-97392228D02*
X198087265Y-97344608D01*
X197611074Y-97439847D02*
X197611074Y-96773180D01*
X197611074Y-96439847D02*
X197658693Y-96487466D01*
X197658693Y-96487466D02*
X197611074Y-96535085D01*
X197611074Y-96535085D02*
X197563455Y-96487466D01*
X197563455Y-96487466D02*
X197611074Y-96439847D01*
X197611074Y-96439847D02*
X197611074Y-96535085D01*
X197134884Y-97439847D02*
X197134884Y-96773180D01*
X197134884Y-96963656D02*
X197087265Y-96868418D01*
X197087265Y-96868418D02*
X197039646Y-96820799D01*
X197039646Y-96820799D02*
X196944408Y-96773180D01*
X196944408Y-96773180D02*
X196849170Y-96773180D01*
X196134884Y-97392228D02*
X196230122Y-97439847D01*
X196230122Y-97439847D02*
X196420598Y-97439847D01*
X196420598Y-97439847D02*
X196515836Y-97392228D01*
X196515836Y-97392228D02*
X196563455Y-97296989D01*
X196563455Y-97296989D02*
X196563455Y-96916037D01*
X196563455Y-96916037D02*
X196515836Y-96820799D01*
X196515836Y-96820799D02*
X196420598Y-96773180D01*
X196420598Y-96773180D02*
X196230122Y-96773180D01*
X196230122Y-96773180D02*
X196134884Y-96820799D01*
X196134884Y-96820799D02*
X196087265Y-96916037D01*
X196087265Y-96916037D02*
X196087265Y-97011275D01*
X196087265Y-97011275D02*
X196563455Y-97106513D01*
X195230122Y-97439847D02*
X195230122Y-96439847D01*
X195230122Y-97392228D02*
X195325360Y-97439847D01*
X195325360Y-97439847D02*
X195515836Y-97439847D01*
X195515836Y-97439847D02*
X195611074Y-97392228D01*
X195611074Y-97392228D02*
X195658693Y-97344608D01*
X195658693Y-97344608D02*
X195706312Y-97249370D01*
X195706312Y-97249370D02*
X195706312Y-96963656D01*
X195706312Y-96963656D02*
X195658693Y-96868418D01*
X195658693Y-96868418D02*
X195611074Y-96820799D01*
X195611074Y-96820799D02*
X195515836Y-96773180D01*
X195515836Y-96773180D02*
X195325360Y-96773180D01*
X195325360Y-96773180D02*
X195230122Y-96820799D01*
X193992026Y-97439847D02*
X193992026Y-96439847D01*
X193992026Y-96820799D02*
X193896788Y-96773180D01*
X193896788Y-96773180D02*
X193706312Y-96773180D01*
X193706312Y-96773180D02*
X193611074Y-96820799D01*
X193611074Y-96820799D02*
X193563455Y-96868418D01*
X193563455Y-96868418D02*
X193515836Y-96963656D01*
X193515836Y-96963656D02*
X193515836Y-97249370D01*
X193515836Y-97249370D02*
X193563455Y-97344608D01*
X193563455Y-97344608D02*
X193611074Y-97392228D01*
X193611074Y-97392228D02*
X193706312Y-97439847D01*
X193706312Y-97439847D02*
X193896788Y-97439847D01*
X193896788Y-97439847D02*
X193992026Y-97392228D01*
X193182502Y-96773180D02*
X192944407Y-97439847D01*
X192706312Y-96773180D02*
X192944407Y-97439847D01*
X192944407Y-97439847D02*
X193039645Y-97677942D01*
X193039645Y-97677942D02*
X193087264Y-97725561D01*
X193087264Y-97725561D02*
X193182502Y-97773180D01*
X217611077Y-98383124D02*
X217230125Y-98383124D01*
X217468220Y-98049791D02*
X217468220Y-98906933D01*
X217468220Y-98906933D02*
X217420601Y-99002172D01*
X217420601Y-99002172D02*
X217325363Y-99049791D01*
X217325363Y-99049791D02*
X217230125Y-99049791D01*
X216896791Y-99049791D02*
X216896791Y-98049791D01*
X216468220Y-99049791D02*
X216468220Y-98525981D01*
X216468220Y-98525981D02*
X216515839Y-98430743D01*
X216515839Y-98430743D02*
X216611077Y-98383124D01*
X216611077Y-98383124D02*
X216753934Y-98383124D01*
X216753934Y-98383124D02*
X216849172Y-98430743D01*
X216849172Y-98430743D02*
X216896791Y-98478362D01*
X215611077Y-99002172D02*
X215706315Y-99049791D01*
X215706315Y-99049791D02*
X215896791Y-99049791D01*
X215896791Y-99049791D02*
X215992029Y-99002172D01*
X215992029Y-99002172D02*
X216039648Y-98906933D01*
X216039648Y-98906933D02*
X216039648Y-98525981D01*
X216039648Y-98525981D02*
X215992029Y-98430743D01*
X215992029Y-98430743D02*
X215896791Y-98383124D01*
X215896791Y-98383124D02*
X215706315Y-98383124D01*
X215706315Y-98383124D02*
X215611077Y-98430743D01*
X215611077Y-98430743D02*
X215563458Y-98525981D01*
X215563458Y-98525981D02*
X215563458Y-98621219D01*
X215563458Y-98621219D02*
X216039648Y-98716457D01*
X214420600Y-99002172D02*
X214325362Y-99049791D01*
X214325362Y-99049791D02*
X214134886Y-99049791D01*
X214134886Y-99049791D02*
X214039648Y-99002172D01*
X214039648Y-99002172D02*
X213992029Y-98906933D01*
X213992029Y-98906933D02*
X213992029Y-98859314D01*
X213992029Y-98859314D02*
X214039648Y-98764076D01*
X214039648Y-98764076D02*
X214134886Y-98716457D01*
X214134886Y-98716457D02*
X214277743Y-98716457D01*
X214277743Y-98716457D02*
X214372981Y-98668838D01*
X214372981Y-98668838D02*
X214420600Y-98573600D01*
X214420600Y-98573600D02*
X214420600Y-98525981D01*
X214420600Y-98525981D02*
X214372981Y-98430743D01*
X214372981Y-98430743D02*
X214277743Y-98383124D01*
X214277743Y-98383124D02*
X214134886Y-98383124D01*
X214134886Y-98383124D02*
X214039648Y-98430743D01*
X213658695Y-98383124D02*
X213420600Y-99049791D01*
X213182505Y-98383124D02*
X213420600Y-99049791D01*
X213420600Y-99049791D02*
X213515838Y-99287886D01*
X213515838Y-99287886D02*
X213563457Y-99335505D01*
X213563457Y-99335505D02*
X213658695Y-99383124D01*
X212849171Y-99002172D02*
X212753933Y-99049791D01*
X212753933Y-99049791D02*
X212563457Y-99049791D01*
X212563457Y-99049791D02*
X212468219Y-99002172D01*
X212468219Y-99002172D02*
X212420600Y-98906933D01*
X212420600Y-98906933D02*
X212420600Y-98859314D01*
X212420600Y-98859314D02*
X212468219Y-98764076D01*
X212468219Y-98764076D02*
X212563457Y-98716457D01*
X212563457Y-98716457D02*
X212706314Y-98716457D01*
X212706314Y-98716457D02*
X212801552Y-98668838D01*
X212801552Y-98668838D02*
X212849171Y-98573600D01*
X212849171Y-98573600D02*
X212849171Y-98525981D01*
X212849171Y-98525981D02*
X212801552Y-98430743D01*
X212801552Y-98430743D02*
X212706314Y-98383124D01*
X212706314Y-98383124D02*
X212563457Y-98383124D01*
X212563457Y-98383124D02*
X212468219Y-98430743D01*
X212134885Y-98383124D02*
X211753933Y-98383124D01*
X211992028Y-98049791D02*
X211992028Y-98906933D01*
X211992028Y-98906933D02*
X211944409Y-99002172D01*
X211944409Y-99002172D02*
X211849171Y-99049791D01*
X211849171Y-99049791D02*
X211753933Y-99049791D01*
X211039647Y-99002172D02*
X211134885Y-99049791D01*
X211134885Y-99049791D02*
X211325361Y-99049791D01*
X211325361Y-99049791D02*
X211420599Y-99002172D01*
X211420599Y-99002172D02*
X211468218Y-98906933D01*
X211468218Y-98906933D02*
X211468218Y-98525981D01*
X211468218Y-98525981D02*
X211420599Y-98430743D01*
X211420599Y-98430743D02*
X211325361Y-98383124D01*
X211325361Y-98383124D02*
X211134885Y-98383124D01*
X211134885Y-98383124D02*
X211039647Y-98430743D01*
X211039647Y-98430743D02*
X210992028Y-98525981D01*
X210992028Y-98525981D02*
X210992028Y-98621219D01*
X210992028Y-98621219D02*
X211468218Y-98716457D01*
X210563456Y-99049791D02*
X210563456Y-98383124D01*
X210563456Y-98478362D02*
X210515837Y-98430743D01*
X210515837Y-98430743D02*
X210420599Y-98383124D01*
X210420599Y-98383124D02*
X210277742Y-98383124D01*
X210277742Y-98383124D02*
X210182504Y-98430743D01*
X210182504Y-98430743D02*
X210134885Y-98525981D01*
X210134885Y-98525981D02*
X210134885Y-99049791D01*
X210134885Y-98525981D02*
X210087266Y-98430743D01*
X210087266Y-98430743D02*
X209992028Y-98383124D01*
X209992028Y-98383124D02*
X209849171Y-98383124D01*
X209849171Y-98383124D02*
X209753932Y-98430743D01*
X209753932Y-98430743D02*
X209706313Y-98525981D01*
X209706313Y-98525981D02*
X209706313Y-99049791D01*
X209230123Y-98954552D02*
X209182504Y-99002172D01*
X209182504Y-99002172D02*
X209230123Y-99049791D01*
X209230123Y-99049791D02*
X209277742Y-99002172D01*
X209277742Y-99002172D02*
X209230123Y-98954552D01*
X209230123Y-98954552D02*
X209230123Y-99049791D01*
X207515838Y-99049791D02*
X207992028Y-99049791D01*
X207992028Y-99049791D02*
X207992028Y-98049791D01*
X206801552Y-99002172D02*
X206896790Y-99049791D01*
X206896790Y-99049791D02*
X207087266Y-99049791D01*
X207087266Y-99049791D02*
X207182504Y-99002172D01*
X207182504Y-99002172D02*
X207230123Y-98906933D01*
X207230123Y-98906933D02*
X207230123Y-98525981D01*
X207230123Y-98525981D02*
X207182504Y-98430743D01*
X207182504Y-98430743D02*
X207087266Y-98383124D01*
X207087266Y-98383124D02*
X206896790Y-98383124D01*
X206896790Y-98383124D02*
X206801552Y-98430743D01*
X206801552Y-98430743D02*
X206753933Y-98525981D01*
X206753933Y-98525981D02*
X206753933Y-98621219D01*
X206753933Y-98621219D02*
X207230123Y-98716457D01*
X205896790Y-99049791D02*
X205896790Y-98525981D01*
X205896790Y-98525981D02*
X205944409Y-98430743D01*
X205944409Y-98430743D02*
X206039647Y-98383124D01*
X206039647Y-98383124D02*
X206230123Y-98383124D01*
X206230123Y-98383124D02*
X206325361Y-98430743D01*
X205896790Y-99002172D02*
X205992028Y-99049791D01*
X205992028Y-99049791D02*
X206230123Y-99049791D01*
X206230123Y-99049791D02*
X206325361Y-99002172D01*
X206325361Y-99002172D02*
X206372980Y-98906933D01*
X206372980Y-98906933D02*
X206372980Y-98811695D01*
X206372980Y-98811695D02*
X206325361Y-98716457D01*
X206325361Y-98716457D02*
X206230123Y-98668838D01*
X206230123Y-98668838D02*
X205992028Y-98668838D01*
X205992028Y-98668838D02*
X205896790Y-98621219D01*
X205515837Y-98383124D02*
X205277742Y-99049791D01*
X205277742Y-99049791D02*
X205039647Y-98383124D01*
X204277742Y-99002172D02*
X204372980Y-99049791D01*
X204372980Y-99049791D02*
X204563456Y-99049791D01*
X204563456Y-99049791D02*
X204658694Y-99002172D01*
X204658694Y-99002172D02*
X204706313Y-98906933D01*
X204706313Y-98906933D02*
X204706313Y-98525981D01*
X204706313Y-98525981D02*
X204658694Y-98430743D01*
X204658694Y-98430743D02*
X204563456Y-98383124D01*
X204563456Y-98383124D02*
X204372980Y-98383124D01*
X204372980Y-98383124D02*
X204277742Y-98430743D01*
X204277742Y-98430743D02*
X204230123Y-98525981D01*
X204230123Y-98525981D02*
X204230123Y-98621219D01*
X204230123Y-98621219D02*
X204706313Y-98716457D01*
X202611075Y-98383124D02*
X202611075Y-99049791D01*
X203039646Y-98383124D02*
X203039646Y-98906933D01*
X203039646Y-98906933D02*
X202992027Y-99002172D01*
X202992027Y-99002172D02*
X202896789Y-99049791D01*
X202896789Y-99049791D02*
X202753932Y-99049791D01*
X202753932Y-99049791D02*
X202658694Y-99002172D01*
X202658694Y-99002172D02*
X202611075Y-98954552D01*
X202134884Y-98383124D02*
X202134884Y-99049791D01*
X202134884Y-98478362D02*
X202087265Y-98430743D01*
X202087265Y-98430743D02*
X201992027Y-98383124D01*
X201992027Y-98383124D02*
X201849170Y-98383124D01*
X201849170Y-98383124D02*
X201753932Y-98430743D01*
X201753932Y-98430743D02*
X201706313Y-98525981D01*
X201706313Y-98525981D02*
X201706313Y-99049791D01*
X201230122Y-98383124D02*
X201230122Y-99240267D01*
X201230122Y-99240267D02*
X201277741Y-99335505D01*
X201277741Y-99335505D02*
X201372979Y-99383124D01*
X201372979Y-99383124D02*
X201420598Y-99383124D01*
X201230122Y-98049791D02*
X201277741Y-98097410D01*
X201277741Y-98097410D02*
X201230122Y-98145029D01*
X201230122Y-98145029D02*
X201182503Y-98097410D01*
X201182503Y-98097410D02*
X201230122Y-98049791D01*
X201230122Y-98049791D02*
X201230122Y-98145029D01*
X200325361Y-98383124D02*
X200325361Y-99049791D01*
X200753932Y-98383124D02*
X200753932Y-98906933D01*
X200753932Y-98906933D02*
X200706313Y-99002172D01*
X200706313Y-99002172D02*
X200611075Y-99049791D01*
X200611075Y-99049791D02*
X200468218Y-99049791D01*
X200468218Y-99049791D02*
X200372980Y-99002172D01*
X200372980Y-99002172D02*
X200325361Y-98954552D01*
X199849170Y-99049791D02*
X199849170Y-98383124D01*
X199849170Y-98478362D02*
X199801551Y-98430743D01*
X199801551Y-98430743D02*
X199706313Y-98383124D01*
X199706313Y-98383124D02*
X199563456Y-98383124D01*
X199563456Y-98383124D02*
X199468218Y-98430743D01*
X199468218Y-98430743D02*
X199420599Y-98525981D01*
X199420599Y-98525981D02*
X199420599Y-99049791D01*
X199420599Y-98525981D02*
X199372980Y-98430743D01*
X199372980Y-98430743D02*
X199277742Y-98383124D01*
X199277742Y-98383124D02*
X199134885Y-98383124D01*
X199134885Y-98383124D02*
X199039646Y-98430743D01*
X199039646Y-98430743D02*
X198992027Y-98525981D01*
X198992027Y-98525981D02*
X198992027Y-99049791D01*
X198515837Y-98383124D02*
X198515837Y-99383124D01*
X198515837Y-98430743D02*
X198420599Y-98383124D01*
X198420599Y-98383124D02*
X198230123Y-98383124D01*
X198230123Y-98383124D02*
X198134885Y-98430743D01*
X198134885Y-98430743D02*
X198087266Y-98478362D01*
X198087266Y-98478362D02*
X198039647Y-98573600D01*
X198039647Y-98573600D02*
X198039647Y-98859314D01*
X198039647Y-98859314D02*
X198087266Y-98954552D01*
X198087266Y-98954552D02*
X198134885Y-99002172D01*
X198134885Y-99002172D02*
X198230123Y-99049791D01*
X198230123Y-99049791D02*
X198420599Y-99049791D01*
X198420599Y-99049791D02*
X198515837Y-99002172D01*
X197230123Y-99002172D02*
X197325361Y-99049791D01*
X197325361Y-99049791D02*
X197515837Y-99049791D01*
X197515837Y-99049791D02*
X197611075Y-99002172D01*
X197611075Y-99002172D02*
X197658694Y-98906933D01*
X197658694Y-98906933D02*
X197658694Y-98525981D01*
X197658694Y-98525981D02*
X197611075Y-98430743D01*
X197611075Y-98430743D02*
X197515837Y-98383124D01*
X197515837Y-98383124D02*
X197325361Y-98383124D01*
X197325361Y-98383124D02*
X197230123Y-98430743D01*
X197230123Y-98430743D02*
X197182504Y-98525981D01*
X197182504Y-98525981D02*
X197182504Y-98621219D01*
X197182504Y-98621219D02*
X197658694Y-98716457D01*
X196753932Y-99049791D02*
X196753932Y-98383124D01*
X196753932Y-98573600D02*
X196706313Y-98478362D01*
X196706313Y-98478362D02*
X196658694Y-98430743D01*
X196658694Y-98430743D02*
X196563456Y-98383124D01*
X196563456Y-98383124D02*
X196468218Y-98383124D01*
X195753932Y-99002172D02*
X195849170Y-99049791D01*
X195849170Y-99049791D02*
X196039646Y-99049791D01*
X196039646Y-99049791D02*
X196134884Y-99002172D01*
X196134884Y-99002172D02*
X196182503Y-98906933D01*
X196182503Y-98906933D02*
X196182503Y-98525981D01*
X196182503Y-98525981D02*
X196134884Y-98430743D01*
X196134884Y-98430743D02*
X196039646Y-98383124D01*
X196039646Y-98383124D02*
X195849170Y-98383124D01*
X195849170Y-98383124D02*
X195753932Y-98430743D01*
X195753932Y-98430743D02*
X195706313Y-98525981D01*
X195706313Y-98525981D02*
X195706313Y-98621219D01*
X195706313Y-98621219D02*
X196182503Y-98716457D01*
X194849170Y-99049791D02*
X194849170Y-98049791D01*
X194849170Y-99002172D02*
X194944408Y-99049791D01*
X194944408Y-99049791D02*
X195134884Y-99049791D01*
X195134884Y-99049791D02*
X195230122Y-99002172D01*
X195230122Y-99002172D02*
X195277741Y-98954552D01*
X195277741Y-98954552D02*
X195325360Y-98859314D01*
X195325360Y-98859314D02*
X195325360Y-98573600D01*
X195325360Y-98573600D02*
X195277741Y-98478362D01*
X195277741Y-98478362D02*
X195230122Y-98430743D01*
X195230122Y-98430743D02*
X195134884Y-98383124D01*
X195134884Y-98383124D02*
X194944408Y-98383124D01*
X194944408Y-98383124D02*
X194849170Y-98430743D01*
X193325360Y-99430743D02*
X193372979Y-99383124D01*
X193372979Y-99383124D02*
X193468217Y-99240267D01*
X193468217Y-99240267D02*
X193515836Y-99145029D01*
X193515836Y-99145029D02*
X193563455Y-99002172D01*
X193563455Y-99002172D02*
X193611074Y-98764076D01*
X193611074Y-98764076D02*
X193611074Y-98573600D01*
X193611074Y-98573600D02*
X193563455Y-98335505D01*
X193563455Y-98335505D02*
X193515836Y-98192648D01*
X193515836Y-98192648D02*
X193468217Y-98097410D01*
X193468217Y-98097410D02*
X193372979Y-97954552D01*
X193372979Y-97954552D02*
X193325360Y-97906933D01*
X192944407Y-99049791D02*
X192944407Y-98049791D01*
X192944407Y-98049791D02*
X192372979Y-99049791D01*
X192372979Y-99049791D02*
X192372979Y-98049791D01*
X191182503Y-98002172D02*
X192039645Y-99287886D01*
X190277741Y-98954552D02*
X190325360Y-99002172D01*
X190325360Y-99002172D02*
X190468217Y-99049791D01*
X190468217Y-99049791D02*
X190563455Y-99049791D01*
X190563455Y-99049791D02*
X190706312Y-99002172D01*
X190706312Y-99002172D02*
X190801550Y-98906933D01*
X190801550Y-98906933D02*
X190849169Y-98811695D01*
X190849169Y-98811695D02*
X190896788Y-98621219D01*
X190896788Y-98621219D02*
X190896788Y-98478362D01*
X190896788Y-98478362D02*
X190849169Y-98287886D01*
X190849169Y-98287886D02*
X190801550Y-98192648D01*
X190801550Y-98192648D02*
X190706312Y-98097410D01*
X190706312Y-98097410D02*
X190563455Y-98049791D01*
X190563455Y-98049791D02*
X190468217Y-98049791D01*
X190468217Y-98049791D02*
X190325360Y-98097410D01*
X190325360Y-98097410D02*
X190277741Y-98145029D01*
X189944407Y-99430743D02*
X189896788Y-99383124D01*
X189896788Y-99383124D02*
X189801550Y-99240267D01*
X189801550Y-99240267D02*
X189753931Y-99145029D01*
X189753931Y-99145029D02*
X189706312Y-99002172D01*
X189706312Y-99002172D02*
X189658693Y-98764076D01*
X189658693Y-98764076D02*
X189658693Y-98573600D01*
X189658693Y-98573600D02*
X189706312Y-98335505D01*
X189706312Y-98335505D02*
X189753931Y-98192648D01*
X189753931Y-98192648D02*
X189801550Y-98097410D01*
X189801550Y-98097410D02*
X189896788Y-97954552D01*
X189896788Y-97954552D02*
X189944407Y-97906933D01*
X217468220Y-100659735D02*
X217468220Y-99993068D01*
X217468220Y-99659735D02*
X217515839Y-99707354D01*
X217515839Y-99707354D02*
X217468220Y-99754973D01*
X217468220Y-99754973D02*
X217420601Y-99707354D01*
X217420601Y-99707354D02*
X217468220Y-99659735D01*
X217468220Y-99659735D02*
X217468220Y-99754973D01*
X217134887Y-99993068D02*
X216753935Y-99993068D01*
X216992030Y-100659735D02*
X216992030Y-99802592D01*
X216992030Y-99802592D02*
X216944411Y-99707354D01*
X216944411Y-99707354D02*
X216849173Y-99659735D01*
X216849173Y-99659735D02*
X216753935Y-99659735D01*
X215753934Y-99993068D02*
X215515839Y-100659735D01*
X215277744Y-99993068D02*
X215515839Y-100659735D01*
X215515839Y-100659735D02*
X215611077Y-100897830D01*
X215611077Y-100897830D02*
X215658696Y-100945449D01*
X215658696Y-100945449D02*
X215753934Y-100993068D01*
X214753934Y-100659735D02*
X214849172Y-100612116D01*
X214849172Y-100612116D02*
X214896791Y-100564496D01*
X214896791Y-100564496D02*
X214944410Y-100469258D01*
X214944410Y-100469258D02*
X214944410Y-100183544D01*
X214944410Y-100183544D02*
X214896791Y-100088306D01*
X214896791Y-100088306D02*
X214849172Y-100040687D01*
X214849172Y-100040687D02*
X214753934Y-99993068D01*
X214753934Y-99993068D02*
X214611077Y-99993068D01*
X214611077Y-99993068D02*
X214515839Y-100040687D01*
X214515839Y-100040687D02*
X214468220Y-100088306D01*
X214468220Y-100088306D02*
X214420601Y-100183544D01*
X214420601Y-100183544D02*
X214420601Y-100469258D01*
X214420601Y-100469258D02*
X214468220Y-100564496D01*
X214468220Y-100564496D02*
X214515839Y-100612116D01*
X214515839Y-100612116D02*
X214611077Y-100659735D01*
X214611077Y-100659735D02*
X214753934Y-100659735D01*
X213563458Y-99993068D02*
X213563458Y-100659735D01*
X213992029Y-99993068D02*
X213992029Y-100516877D01*
X213992029Y-100516877D02*
X213944410Y-100612116D01*
X213944410Y-100612116D02*
X213849172Y-100659735D01*
X213849172Y-100659735D02*
X213706315Y-100659735D01*
X213706315Y-100659735D02*
X213611077Y-100612116D01*
X213611077Y-100612116D02*
X213563458Y-100564496D01*
X211896791Y-100659735D02*
X211896791Y-100135925D01*
X211896791Y-100135925D02*
X211944410Y-100040687D01*
X211944410Y-100040687D02*
X212039648Y-99993068D01*
X212039648Y-99993068D02*
X212230124Y-99993068D01*
X212230124Y-99993068D02*
X212325362Y-100040687D01*
X211896791Y-100612116D02*
X211992029Y-100659735D01*
X211992029Y-100659735D02*
X212230124Y-100659735D01*
X212230124Y-100659735D02*
X212325362Y-100612116D01*
X212325362Y-100612116D02*
X212372981Y-100516877D01*
X212372981Y-100516877D02*
X212372981Y-100421639D01*
X212372981Y-100421639D02*
X212325362Y-100326401D01*
X212325362Y-100326401D02*
X212230124Y-100278782D01*
X212230124Y-100278782D02*
X211992029Y-100278782D01*
X211992029Y-100278782D02*
X211896791Y-100231163D01*
X211420600Y-100659735D02*
X211420600Y-99993068D01*
X211420600Y-100183544D02*
X211372981Y-100088306D01*
X211372981Y-100088306D02*
X211325362Y-100040687D01*
X211325362Y-100040687D02*
X211230124Y-99993068D01*
X211230124Y-99993068D02*
X211134886Y-99993068D01*
X210420600Y-100612116D02*
X210515838Y-100659735D01*
X210515838Y-100659735D02*
X210706314Y-100659735D01*
X210706314Y-100659735D02*
X210801552Y-100612116D01*
X210801552Y-100612116D02*
X210849171Y-100516877D01*
X210849171Y-100516877D02*
X210849171Y-100135925D01*
X210849171Y-100135925D02*
X210801552Y-100040687D01*
X210801552Y-100040687D02*
X210706314Y-99993068D01*
X210706314Y-99993068D02*
X210515838Y-99993068D01*
X210515838Y-99993068D02*
X210420600Y-100040687D01*
X210420600Y-100040687D02*
X210372981Y-100135925D01*
X210372981Y-100135925D02*
X210372981Y-100231163D01*
X210372981Y-100231163D02*
X210849171Y-100326401D01*
X209182504Y-99993068D02*
X209182504Y-100659735D01*
X209182504Y-100088306D02*
X209134885Y-100040687D01*
X209134885Y-100040687D02*
X209039647Y-99993068D01*
X209039647Y-99993068D02*
X208896790Y-99993068D01*
X208896790Y-99993068D02*
X208801552Y-100040687D01*
X208801552Y-100040687D02*
X208753933Y-100135925D01*
X208753933Y-100135925D02*
X208753933Y-100659735D01*
X208134885Y-100659735D02*
X208230123Y-100612116D01*
X208230123Y-100612116D02*
X208277742Y-100564496D01*
X208277742Y-100564496D02*
X208325361Y-100469258D01*
X208325361Y-100469258D02*
X208325361Y-100183544D01*
X208325361Y-100183544D02*
X208277742Y-100088306D01*
X208277742Y-100088306D02*
X208230123Y-100040687D01*
X208230123Y-100040687D02*
X208134885Y-99993068D01*
X208134885Y-99993068D02*
X207992028Y-99993068D01*
X207992028Y-99993068D02*
X207896790Y-100040687D01*
X207896790Y-100040687D02*
X207849171Y-100088306D01*
X207849171Y-100088306D02*
X207801552Y-100183544D01*
X207801552Y-100183544D02*
X207801552Y-100469258D01*
X207801552Y-100469258D02*
X207849171Y-100564496D01*
X207849171Y-100564496D02*
X207896790Y-100612116D01*
X207896790Y-100612116D02*
X207992028Y-100659735D01*
X207992028Y-100659735D02*
X208134885Y-100659735D01*
X207515837Y-99993068D02*
X207134885Y-99993068D01*
X207372980Y-99659735D02*
X207372980Y-100516877D01*
X207372980Y-100516877D02*
X207325361Y-100612116D01*
X207325361Y-100612116D02*
X207230123Y-100659735D01*
X207230123Y-100659735D02*
X207134885Y-100659735D01*
X206087265Y-100612116D02*
X205992027Y-100659735D01*
X205992027Y-100659735D02*
X205801551Y-100659735D01*
X205801551Y-100659735D02*
X205706313Y-100612116D01*
X205706313Y-100612116D02*
X205658694Y-100516877D01*
X205658694Y-100516877D02*
X205658694Y-100469258D01*
X205658694Y-100469258D02*
X205706313Y-100374020D01*
X205706313Y-100374020D02*
X205801551Y-100326401D01*
X205801551Y-100326401D02*
X205944408Y-100326401D01*
X205944408Y-100326401D02*
X206039646Y-100278782D01*
X206039646Y-100278782D02*
X206087265Y-100183544D01*
X206087265Y-100183544D02*
X206087265Y-100135925D01*
X206087265Y-100135925D02*
X206039646Y-100040687D01*
X206039646Y-100040687D02*
X205944408Y-99993068D01*
X205944408Y-99993068D02*
X205801551Y-99993068D01*
X205801551Y-99993068D02*
X205706313Y-100040687D01*
X204801551Y-99993068D02*
X204801551Y-100659735D01*
X205230122Y-99993068D02*
X205230122Y-100516877D01*
X205230122Y-100516877D02*
X205182503Y-100612116D01*
X205182503Y-100612116D02*
X205087265Y-100659735D01*
X205087265Y-100659735D02*
X204944408Y-100659735D01*
X204944408Y-100659735D02*
X204849170Y-100612116D01*
X204849170Y-100612116D02*
X204801551Y-100564496D01*
X204325360Y-100659735D02*
X204325360Y-99993068D01*
X204325360Y-100183544D02*
X204277741Y-100088306D01*
X204277741Y-100088306D02*
X204230122Y-100040687D01*
X204230122Y-100040687D02*
X204134884Y-99993068D01*
X204134884Y-99993068D02*
X204039646Y-99993068D01*
X203325360Y-100612116D02*
X203420598Y-100659735D01*
X203420598Y-100659735D02*
X203611074Y-100659735D01*
X203611074Y-100659735D02*
X203706312Y-100612116D01*
X203706312Y-100612116D02*
X203753931Y-100516877D01*
X203753931Y-100516877D02*
X203753931Y-100135925D01*
X203753931Y-100135925D02*
X203706312Y-100040687D01*
X203706312Y-100040687D02*
X203611074Y-99993068D01*
X203611074Y-99993068D02*
X203420598Y-99993068D01*
X203420598Y-99993068D02*
X203325360Y-100040687D01*
X203325360Y-100040687D02*
X203277741Y-100135925D01*
X203277741Y-100135925D02*
X203277741Y-100231163D01*
X203277741Y-100231163D02*
X203753931Y-100326401D01*
X202849169Y-100564496D02*
X202801550Y-100612116D01*
X202801550Y-100612116D02*
X202849169Y-100659735D01*
X202849169Y-100659735D02*
X202896788Y-100612116D01*
X202896788Y-100612116D02*
X202849169Y-100564496D01*
X202849169Y-100564496D02*
X202849169Y-100659735D01*
G36*
X154426052Y-153244998D02*
G01*
X154076052Y-153244998D01*
X154076052Y-152716700D01*
X153553860Y-152716700D01*
X153553860Y-152541578D01*
X153728738Y-152541578D01*
X154076052Y-152541578D01*
X154076052Y-152200859D01*
X153728738Y-152200859D01*
X153728738Y-152541578D01*
X153553860Y-152541578D01*
X153378738Y-152541578D01*
X153378738Y-152197684D01*
X153553860Y-152197684D01*
X153553860Y-152025737D01*
X154426052Y-152025737D01*
X154426052Y-153244998D01*
G37*
G36*
X153026052Y-153244998D02*
G01*
X153026052Y-153069875D01*
X152672632Y-153069875D01*
X152672632Y-152544753D01*
X152849464Y-152544753D01*
X152849464Y-152369631D01*
X152672632Y-152369631D01*
X152672632Y-152025737D01*
X152322632Y-152025737D01*
X152322632Y-153069875D01*
X151978738Y-153069875D01*
X151978738Y-153244998D01*
X153026052Y-153244998D01*
G37*
G36*
X154426052Y-154924998D02*
G01*
X154426052Y-153705737D01*
X153378738Y-153705737D01*
X153378738Y-153880859D01*
X154076052Y-153880859D01*
X154076052Y-154221578D01*
X153722632Y-154221578D01*
X153722632Y-154396700D01*
X154076052Y-154396700D01*
X154076052Y-154924998D01*
X154426052Y-154924998D01*
G37*
G36*
X153026052Y-154924998D02*
G01*
X153026052Y-154749875D01*
X152672632Y-154749875D01*
X152672632Y-154224753D01*
X152849464Y-154224753D01*
X152849464Y-154049631D01*
X152672632Y-154049631D01*
X152672632Y-153705737D01*
X152322632Y-153705737D01*
X152322632Y-154749875D01*
X151978738Y-154749875D01*
X151978738Y-154924998D01*
X153026052Y-154924998D01*
G37*
D13*
X229434895Y-106883333D02*
X230234895Y-107150000D01*
X230234895Y-107150000D02*
X229434895Y-107416666D01*
X230158704Y-108140476D02*
X230196800Y-108102380D01*
X230196800Y-108102380D02*
X230234895Y-107988095D01*
X230234895Y-107988095D02*
X230234895Y-107911904D01*
X230234895Y-107911904D02*
X230196800Y-107797618D01*
X230196800Y-107797618D02*
X230120609Y-107721428D01*
X230120609Y-107721428D02*
X230044419Y-107683333D01*
X230044419Y-107683333D02*
X229892038Y-107645237D01*
X229892038Y-107645237D02*
X229777752Y-107645237D01*
X229777752Y-107645237D02*
X229625371Y-107683333D01*
X229625371Y-107683333D02*
X229549180Y-107721428D01*
X229549180Y-107721428D02*
X229472990Y-107797618D01*
X229472990Y-107797618D02*
X229434895Y-107911904D01*
X229434895Y-107911904D02*
X229434895Y-107988095D01*
X229434895Y-107988095D02*
X229472990Y-108102380D01*
X229472990Y-108102380D02*
X229511085Y-108140476D01*
X230158704Y-108940476D02*
X230196800Y-108902380D01*
X230196800Y-108902380D02*
X230234895Y-108788095D01*
X230234895Y-108788095D02*
X230234895Y-108711904D01*
X230234895Y-108711904D02*
X230196800Y-108597618D01*
X230196800Y-108597618D02*
X230120609Y-108521428D01*
X230120609Y-108521428D02*
X230044419Y-108483333D01*
X230044419Y-108483333D02*
X229892038Y-108445237D01*
X229892038Y-108445237D02*
X229777752Y-108445237D01*
X229777752Y-108445237D02*
X229625371Y-108483333D01*
X229625371Y-108483333D02*
X229549180Y-108521428D01*
X229549180Y-108521428D02*
X229472990Y-108597618D01*
X229472990Y-108597618D02*
X229434895Y-108711904D01*
X229434895Y-108711904D02*
X229434895Y-108788095D01*
X229434895Y-108788095D02*
X229472990Y-108902380D01*
X229472990Y-108902380D02*
X229511085Y-108940476D01*
D12*
G36*
X178426052Y-153245000D02*
G01*
X178076052Y-153245000D01*
X178076052Y-152716702D01*
X177553860Y-152716702D01*
X177553860Y-152541580D01*
X177728738Y-152541580D01*
X178076052Y-152541580D01*
X178076052Y-152200861D01*
X177728738Y-152200861D01*
X177728738Y-152541580D01*
X177553860Y-152541580D01*
X177378738Y-152541580D01*
X177378738Y-152197686D01*
X177553860Y-152197686D01*
X177553860Y-152025739D01*
X178426052Y-152025739D01*
X178426052Y-153245000D01*
G37*
G36*
X177026052Y-153245000D02*
G01*
X177026052Y-153069877D01*
X176672632Y-153069877D01*
X176672632Y-152544755D01*
X176849464Y-152544755D01*
X176849464Y-152369633D01*
X176672632Y-152369633D01*
X176672632Y-152025739D01*
X176322632Y-152025739D01*
X176322632Y-153069877D01*
X175978738Y-153069877D01*
X175978738Y-153245000D01*
X177026052Y-153245000D01*
G37*
G36*
X178426052Y-154925000D02*
G01*
X178426052Y-153705739D01*
X177378738Y-153705739D01*
X177378738Y-153880861D01*
X178076052Y-153880861D01*
X178076052Y-154221580D01*
X177722632Y-154221580D01*
X177722632Y-154396702D01*
X178076052Y-154396702D01*
X178076052Y-154925000D01*
X178426052Y-154925000D01*
G37*
G36*
X176854105Y-154925000D02*
G01*
X176854105Y-154749877D01*
X177026052Y-154749877D01*
X177026052Y-154577930D01*
X176676052Y-154577930D01*
X176676052Y-154749877D01*
X176328738Y-154749877D01*
X176328738Y-154396702D01*
X176676052Y-154396702D01*
X176676052Y-154221580D01*
X176328738Y-154221580D01*
X176328738Y-153880861D01*
X176676052Y-153880861D01*
X176676052Y-154052808D01*
X177026052Y-154052808D01*
X177026052Y-153877686D01*
X176854105Y-153877686D01*
X176854105Y-153705739D01*
X176150685Y-153705739D01*
X176150685Y-153877686D01*
X175978738Y-153877686D01*
X175978738Y-154221580D01*
X176150685Y-154221580D01*
X176150685Y-154405983D01*
X175978738Y-154405983D01*
X175978738Y-154749877D01*
X176150685Y-154749877D01*
X176150685Y-154925000D01*
X176854105Y-154925000D01*
G37*
D13*
X157740237Y-123224657D02*
X157778332Y-123186561D01*
X157778332Y-123186561D02*
X157854523Y-123072276D01*
X157854523Y-123072276D02*
X157892618Y-122996085D01*
X157892618Y-122996085D02*
X157930713Y-122881800D01*
X157930713Y-122881800D02*
X157968808Y-122691323D01*
X157968808Y-122691323D02*
X157968808Y-122538942D01*
X157968808Y-122538942D02*
X157930713Y-122348466D01*
X157930713Y-122348466D02*
X157892618Y-122234180D01*
X157892618Y-122234180D02*
X157854523Y-122157990D01*
X157854523Y-122157990D02*
X157778332Y-122043704D01*
X157778332Y-122043704D02*
X157740237Y-122005609D01*
X157168809Y-122500847D02*
X157054523Y-122538942D01*
X157054523Y-122538942D02*
X157016428Y-122577038D01*
X157016428Y-122577038D02*
X156978332Y-122653228D01*
X156978332Y-122653228D02*
X156978332Y-122767514D01*
X156978332Y-122767514D02*
X157016428Y-122843704D01*
X157016428Y-122843704D02*
X157054523Y-122881800D01*
X157054523Y-122881800D02*
X157130713Y-122919895D01*
X157130713Y-122919895D02*
X157435475Y-122919895D01*
X157435475Y-122919895D02*
X157435475Y-122119895D01*
X157435475Y-122119895D02*
X157168809Y-122119895D01*
X157168809Y-122119895D02*
X157092618Y-122157990D01*
X157092618Y-122157990D02*
X157054523Y-122196085D01*
X157054523Y-122196085D02*
X157016428Y-122272276D01*
X157016428Y-122272276D02*
X157016428Y-122348466D01*
X157016428Y-122348466D02*
X157054523Y-122424657D01*
X157054523Y-122424657D02*
X157092618Y-122462752D01*
X157092618Y-122462752D02*
X157168809Y-122500847D01*
X157168809Y-122500847D02*
X157435475Y-122500847D01*
X156673571Y-122196085D02*
X156635475Y-122157990D01*
X156635475Y-122157990D02*
X156559285Y-122119895D01*
X156559285Y-122119895D02*
X156368809Y-122119895D01*
X156368809Y-122119895D02*
X156292618Y-122157990D01*
X156292618Y-122157990D02*
X156254523Y-122196085D01*
X156254523Y-122196085D02*
X156216428Y-122272276D01*
X156216428Y-122272276D02*
X156216428Y-122348466D01*
X156216428Y-122348466D02*
X156254523Y-122462752D01*
X156254523Y-122462752D02*
X156711666Y-122919895D01*
X156711666Y-122919895D02*
X156216428Y-122919895D01*
X155949761Y-123224657D02*
X155911666Y-123186561D01*
X155911666Y-123186561D02*
X155835475Y-123072276D01*
X155835475Y-123072276D02*
X155797380Y-122996085D01*
X155797380Y-122996085D02*
X155759285Y-122881800D01*
X155759285Y-122881800D02*
X155721189Y-122691323D01*
X155721189Y-122691323D02*
X155721189Y-122538942D01*
X155721189Y-122538942D02*
X155759285Y-122348466D01*
X155759285Y-122348466D02*
X155797380Y-122234180D01*
X155797380Y-122234180D02*
X155835475Y-122157990D01*
X155835475Y-122157990D02*
X155911666Y-122043704D01*
X155911666Y-122043704D02*
X155949761Y-122005609D01*
X235822990Y-120040476D02*
X235784895Y-119964286D01*
X235784895Y-119964286D02*
X235784895Y-119850000D01*
X235784895Y-119850000D02*
X235822990Y-119735714D01*
X235822990Y-119735714D02*
X235899180Y-119659524D01*
X235899180Y-119659524D02*
X235975371Y-119621429D01*
X235975371Y-119621429D02*
X236127752Y-119583333D01*
X236127752Y-119583333D02*
X236242038Y-119583333D01*
X236242038Y-119583333D02*
X236394419Y-119621429D01*
X236394419Y-119621429D02*
X236470609Y-119659524D01*
X236470609Y-119659524D02*
X236546800Y-119735714D01*
X236546800Y-119735714D02*
X236584895Y-119850000D01*
X236584895Y-119850000D02*
X236584895Y-119926191D01*
X236584895Y-119926191D02*
X236546800Y-120040476D01*
X236546800Y-120040476D02*
X236508704Y-120078572D01*
X236508704Y-120078572D02*
X236242038Y-120078572D01*
X236242038Y-120078572D02*
X236242038Y-119926191D01*
X236584895Y-120421429D02*
X235784895Y-120421429D01*
X235784895Y-120421429D02*
X236584895Y-120878572D01*
X236584895Y-120878572D02*
X235784895Y-120878572D01*
X236584895Y-121259524D02*
X235784895Y-121259524D01*
X235784895Y-121259524D02*
X235784895Y-121450000D01*
X235784895Y-121450000D02*
X235822990Y-121564286D01*
X235822990Y-121564286D02*
X235899180Y-121640476D01*
X235899180Y-121640476D02*
X235975371Y-121678571D01*
X235975371Y-121678571D02*
X236127752Y-121716667D01*
X236127752Y-121716667D02*
X236242038Y-121716667D01*
X236242038Y-121716667D02*
X236394419Y-121678571D01*
X236394419Y-121678571D02*
X236470609Y-121640476D01*
X236470609Y-121640476D02*
X236546800Y-121564286D01*
X236546800Y-121564286D02*
X236584895Y-121450000D01*
X236584895Y-121450000D02*
X236584895Y-121259524D01*
D12*
G36*
X162411106Y-86140000D02*
G01*
X162411106Y-85964877D01*
X162583053Y-85964877D01*
X162583053Y-85792930D01*
X162233053Y-85792930D01*
X162233053Y-85964877D01*
X161885739Y-85964877D01*
X161885739Y-85611702D01*
X162411106Y-85611702D01*
X162411106Y-85436580D01*
X162583053Y-85436580D01*
X162583053Y-85092686D01*
X162411106Y-85092686D01*
X162411106Y-84920739D01*
X161707686Y-84920739D01*
X161707686Y-85092686D01*
X161535739Y-85092686D01*
X161535739Y-85267808D01*
X161885739Y-85267808D01*
X161885739Y-85095861D01*
X162233053Y-85095861D01*
X162233053Y-85436580D01*
X161707686Y-85436580D01*
X161707686Y-85620983D01*
X161535739Y-85620983D01*
X161535739Y-85964877D01*
X161707686Y-85964877D01*
X161707686Y-86140000D01*
X162411106Y-86140000D01*
G37*
G36*
X160829633Y-86140000D02*
G01*
X160829633Y-85612435D01*
X161011106Y-85612435D01*
X161011106Y-85452212D01*
X161183053Y-85452212D01*
X161183053Y-84920739D01*
X160833053Y-84920739D01*
X160833053Y-85436580D01*
X160479633Y-85436580D01*
X160479633Y-84920739D01*
X160135739Y-84920739D01*
X160135739Y-85452212D01*
X160307686Y-85452212D01*
X160307686Y-85612435D01*
X160479633Y-85612435D01*
X160479633Y-86140000D01*
X160829633Y-86140000D01*
G37*
G36*
X159611106Y-86140000D02*
G01*
X159611106Y-85964877D01*
X159783053Y-85964877D01*
X159783053Y-85792930D01*
X159433053Y-85792930D01*
X159433053Y-85964877D01*
X159085739Y-85964877D01*
X159085739Y-85611702D01*
X159611106Y-85611702D01*
X159611106Y-85436580D01*
X159783053Y-85436580D01*
X159783053Y-85092686D01*
X159611106Y-85092686D01*
X159611106Y-84920739D01*
X158907686Y-84920739D01*
X158907686Y-85092686D01*
X158735739Y-85092686D01*
X158735739Y-85267808D01*
X159085739Y-85267808D01*
X159085739Y-85095861D01*
X159433053Y-85095861D01*
X159433053Y-85436580D01*
X158907686Y-85436580D01*
X158907686Y-85620983D01*
X158735739Y-85620983D01*
X158735739Y-85964877D01*
X158907686Y-85964877D01*
X158907686Y-86140000D01*
X159611106Y-86140000D01*
G37*
D13*
X178060237Y-156879657D02*
X178098332Y-156841561D01*
X178098332Y-156841561D02*
X178174523Y-156727276D01*
X178174523Y-156727276D02*
X178212618Y-156651085D01*
X178212618Y-156651085D02*
X178250713Y-156536800D01*
X178250713Y-156536800D02*
X178288808Y-156346323D01*
X178288808Y-156346323D02*
X178288808Y-156193942D01*
X178288808Y-156193942D02*
X178250713Y-156003466D01*
X178250713Y-156003466D02*
X178212618Y-155889180D01*
X178212618Y-155889180D02*
X178174523Y-155812990D01*
X178174523Y-155812990D02*
X178098332Y-155698704D01*
X178098332Y-155698704D02*
X178060237Y-155660609D01*
X177488809Y-156155847D02*
X177374523Y-156193942D01*
X177374523Y-156193942D02*
X177336428Y-156232038D01*
X177336428Y-156232038D02*
X177298332Y-156308228D01*
X177298332Y-156308228D02*
X177298332Y-156422514D01*
X177298332Y-156422514D02*
X177336428Y-156498704D01*
X177336428Y-156498704D02*
X177374523Y-156536800D01*
X177374523Y-156536800D02*
X177450713Y-156574895D01*
X177450713Y-156574895D02*
X177755475Y-156574895D01*
X177755475Y-156574895D02*
X177755475Y-155774895D01*
X177755475Y-155774895D02*
X177488809Y-155774895D01*
X177488809Y-155774895D02*
X177412618Y-155812990D01*
X177412618Y-155812990D02*
X177374523Y-155851085D01*
X177374523Y-155851085D02*
X177336428Y-155927276D01*
X177336428Y-155927276D02*
X177336428Y-156003466D01*
X177336428Y-156003466D02*
X177374523Y-156079657D01*
X177374523Y-156079657D02*
X177412618Y-156117752D01*
X177412618Y-156117752D02*
X177488809Y-156155847D01*
X177488809Y-156155847D02*
X177755475Y-156155847D01*
X176612618Y-156041561D02*
X176612618Y-156574895D01*
X176803094Y-155736800D02*
X176993571Y-156308228D01*
X176993571Y-156308228D02*
X176498332Y-156308228D01*
X176269761Y-156879657D02*
X176231666Y-156841561D01*
X176231666Y-156841561D02*
X176155475Y-156727276D01*
X176155475Y-156727276D02*
X176117380Y-156651085D01*
X176117380Y-156651085D02*
X176079285Y-156536800D01*
X176079285Y-156536800D02*
X176041189Y-156346323D01*
X176041189Y-156346323D02*
X176041189Y-156193942D01*
X176041189Y-156193942D02*
X176079285Y-156003466D01*
X176079285Y-156003466D02*
X176117380Y-155889180D01*
X176117380Y-155889180D02*
X176155475Y-155812990D01*
X176155475Y-155812990D02*
X176231666Y-155698704D01*
X176231666Y-155698704D02*
X176269761Y-155660609D01*
D12*
G36*
X204891106Y-120430000D02*
G01*
X204891106Y-120258053D01*
X205063053Y-120258053D01*
X205063053Y-119210739D01*
X204713053Y-119210739D01*
X204713053Y-120254877D01*
X204365739Y-120254877D01*
X204365739Y-119210739D01*
X204015739Y-119210739D01*
X204015739Y-120258053D01*
X204187686Y-120258053D01*
X204187686Y-120430000D01*
X204891106Y-120430000D01*
G37*
G36*
X203663053Y-120430000D02*
G01*
X203313053Y-120430000D01*
X203313053Y-119901702D01*
X202790861Y-119901702D01*
X202790861Y-119726580D01*
X202965739Y-119726580D01*
X203313053Y-119726580D01*
X203313053Y-119385861D01*
X202965739Y-119385861D01*
X202965739Y-119726580D01*
X202790861Y-119726580D01*
X202615739Y-119726580D01*
X202615739Y-119382686D01*
X202790861Y-119382686D01*
X202790861Y-119210739D01*
X203663053Y-119210739D01*
X203663053Y-120430000D01*
G37*
G36*
X206463053Y-141385000D02*
G01*
X205759877Y-141385000D01*
X205759877Y-141213053D01*
X205587686Y-141213053D01*
X205587686Y-141041106D01*
X205415739Y-141041106D01*
X205415739Y-140509633D01*
X205587686Y-140509633D01*
X205759877Y-140509633D01*
X205759877Y-141041106D01*
X205937686Y-141041106D01*
X205937686Y-141209877D01*
X206113053Y-141209877D01*
X206113053Y-140340861D01*
X205937686Y-140340861D01*
X205937686Y-140509633D01*
X205759877Y-140509633D01*
X205587686Y-140509633D01*
X205587686Y-140337686D01*
X205759877Y-140337686D01*
X205759877Y-140165739D01*
X206463053Y-140165739D01*
X206463053Y-141385000D01*
G37*
G36*
X204891106Y-140337686D02*
G01*
X205063053Y-140337686D01*
X205063053Y-141213053D01*
X204891106Y-141213053D01*
X204891106Y-141385000D01*
X204187686Y-141385000D01*
X204187686Y-141213053D01*
X204015739Y-141213053D01*
X204015739Y-141209877D01*
X204365739Y-141209877D01*
X204713053Y-141209877D01*
X204713053Y-140340861D01*
X204365739Y-140340861D01*
X204365739Y-141209877D01*
X204015739Y-141209877D01*
X204015739Y-140337686D01*
X204187686Y-140337686D01*
X204187686Y-140165739D01*
X204891106Y-140165739D01*
X204891106Y-140337686D01*
G37*
G36*
X202437686Y-140165739D02*
G01*
X202437686Y-141385000D01*
X202787686Y-141385000D01*
X202787686Y-141213053D01*
X202959633Y-141213053D01*
X202959633Y-141025474D01*
X203131580Y-141025474D01*
X203131580Y-141213053D01*
X203313053Y-141213053D01*
X203313053Y-141385000D01*
X203663053Y-141385000D01*
X203663053Y-140165739D01*
X203313053Y-140165739D01*
X203313053Y-140869159D01*
X203131580Y-140869159D01*
X203131580Y-140681580D01*
X202959633Y-140681580D01*
X202959633Y-140869159D01*
X202787686Y-140869159D01*
X202787686Y-140165739D01*
X202437686Y-140165739D01*
G37*
G36*
X202263053Y-141385000D02*
G01*
X202263053Y-140165739D01*
X201913053Y-140165739D01*
X201913053Y-140337686D01*
X201739396Y-140337686D01*
X201739396Y-140509633D01*
X201565739Y-140509633D01*
X201565739Y-140165739D01*
X201215739Y-140165739D01*
X201215739Y-141385000D01*
X201565739Y-141385000D01*
X201565739Y-141041106D01*
X201739396Y-141041106D01*
X201739396Y-140869159D01*
X201913053Y-140869159D01*
X201913053Y-141385000D01*
X202263053Y-141385000D01*
G37*
D13*
X157740237Y-144179657D02*
X157778332Y-144141561D01*
X157778332Y-144141561D02*
X157854523Y-144027276D01*
X157854523Y-144027276D02*
X157892618Y-143951085D01*
X157892618Y-143951085D02*
X157930713Y-143836800D01*
X157930713Y-143836800D02*
X157968808Y-143646323D01*
X157968808Y-143646323D02*
X157968808Y-143493942D01*
X157968808Y-143493942D02*
X157930713Y-143303466D01*
X157930713Y-143303466D02*
X157892618Y-143189180D01*
X157892618Y-143189180D02*
X157854523Y-143112990D01*
X157854523Y-143112990D02*
X157778332Y-142998704D01*
X157778332Y-142998704D02*
X157740237Y-142960609D01*
X157168809Y-143455847D02*
X157054523Y-143493942D01*
X157054523Y-143493942D02*
X157016428Y-143532038D01*
X157016428Y-143532038D02*
X156978332Y-143608228D01*
X156978332Y-143608228D02*
X156978332Y-143722514D01*
X156978332Y-143722514D02*
X157016428Y-143798704D01*
X157016428Y-143798704D02*
X157054523Y-143836800D01*
X157054523Y-143836800D02*
X157130713Y-143874895D01*
X157130713Y-143874895D02*
X157435475Y-143874895D01*
X157435475Y-143874895D02*
X157435475Y-143074895D01*
X157435475Y-143074895D02*
X157168809Y-143074895D01*
X157168809Y-143074895D02*
X157092618Y-143112990D01*
X157092618Y-143112990D02*
X157054523Y-143151085D01*
X157054523Y-143151085D02*
X157016428Y-143227276D01*
X157016428Y-143227276D02*
X157016428Y-143303466D01*
X157016428Y-143303466D02*
X157054523Y-143379657D01*
X157054523Y-143379657D02*
X157092618Y-143417752D01*
X157092618Y-143417752D02*
X157168809Y-143455847D01*
X157168809Y-143455847D02*
X157435475Y-143455847D01*
X156216428Y-143874895D02*
X156673571Y-143874895D01*
X156444999Y-143874895D02*
X156444999Y-143074895D01*
X156444999Y-143074895D02*
X156521190Y-143189180D01*
X156521190Y-143189180D02*
X156597380Y-143265371D01*
X156597380Y-143265371D02*
X156673571Y-143303466D01*
X155949761Y-144179657D02*
X155911666Y-144141561D01*
X155911666Y-144141561D02*
X155835475Y-144027276D01*
X155835475Y-144027276D02*
X155797380Y-143951085D01*
X155797380Y-143951085D02*
X155759285Y-143836800D01*
X155759285Y-143836800D02*
X155721189Y-143646323D01*
X155721189Y-143646323D02*
X155721189Y-143493942D01*
X155721189Y-143493942D02*
X155759285Y-143303466D01*
X155759285Y-143303466D02*
X155797380Y-143189180D01*
X155797380Y-143189180D02*
X155835475Y-143112990D01*
X155835475Y-143112990D02*
X155911666Y-142998704D01*
X155911666Y-142998704D02*
X155949761Y-142960609D01*
D12*
G36*
X196283053Y-103109877D02*
G01*
X195935739Y-103109877D01*
X195935739Y-102584755D01*
X196283053Y-102584755D01*
X196283053Y-103109877D01*
G37*
G36*
X207483053Y-103109877D02*
G01*
X207135739Y-103109877D01*
X207135739Y-102937930D01*
X207483053Y-102937930D01*
X207483053Y-103109877D01*
G37*
G36*
X208883053Y-102765983D02*
G01*
X208535739Y-102765983D01*
X208535739Y-102584755D01*
X208883053Y-102584755D01*
X208883053Y-102765983D01*
G37*
G36*
X211683053Y-103109877D02*
G01*
X211335739Y-103109877D01*
X211335739Y-102756702D01*
X211683053Y-102756702D01*
X211683053Y-103109877D01*
G37*
G36*
X215883053Y-103109877D02*
G01*
X215535739Y-103109877D01*
X215535739Y-102584755D01*
X215883053Y-102584755D01*
X215883053Y-103109877D01*
G37*
G36*
X217744164Y-103568057D02*
G01*
X183212416Y-103568057D01*
X183212416Y-103285000D01*
X183323527Y-103285000D01*
X183673527Y-103285000D01*
X183673527Y-103109877D01*
X183323527Y-103109877D01*
X183323527Y-103285000D01*
X183212416Y-103285000D01*
X183212416Y-102769159D01*
X183323527Y-102769159D01*
X183673527Y-102769159D01*
X183673527Y-102409633D01*
X184385739Y-102409633D01*
X184385739Y-102584755D01*
X184729633Y-102584755D01*
X184729633Y-103109877D01*
X184385739Y-103109877D01*
X184385739Y-103285000D01*
X184917212Y-103285000D01*
X184917212Y-103113053D01*
X185079633Y-103113053D01*
X185079633Y-103109877D01*
X185957686Y-103109877D01*
X185957686Y-103285000D01*
X186661106Y-103285000D01*
X186661106Y-103109877D01*
X186489159Y-103109877D01*
X186489159Y-102756702D01*
X186661106Y-102756702D01*
X186661106Y-102584755D01*
X188585739Y-102584755D01*
X188757686Y-102584755D01*
X188757686Y-102757679D01*
X188929633Y-102757679D01*
X188929633Y-102934023D01*
X188757686Y-102934023D01*
X188757686Y-103109877D01*
X188585739Y-103109877D01*
X188585739Y-103285000D01*
X188929633Y-103285000D01*
X188929633Y-103109877D01*
X189283053Y-103109877D01*
X189283053Y-103285000D01*
X189633053Y-103285000D01*
X189633053Y-103109877D01*
X190157686Y-103109877D01*
X190157686Y-103285000D01*
X190861106Y-103285000D01*
X190861106Y-103109877D01*
X190689159Y-103109877D01*
X190689159Y-102756702D01*
X190861106Y-102756702D01*
X190861106Y-102581580D01*
X190339159Y-102581580D01*
X190339159Y-103109877D01*
X190157686Y-103109877D01*
X189633053Y-103109877D01*
X189461106Y-103109877D01*
X189461106Y-102934023D01*
X189279633Y-102934023D01*
X189279633Y-102757679D01*
X189461106Y-102757679D01*
X189461106Y-102584755D01*
X189633053Y-102584755D01*
X189633053Y-102412808D01*
X190339159Y-102412808D01*
X190689159Y-102412808D01*
X191385739Y-102412808D01*
X191739159Y-102412808D01*
X191739159Y-102581580D01*
X191385739Y-102581580D01*
X191385739Y-102756702D01*
X191739159Y-102756702D01*
X191739159Y-103285000D01*
X192089159Y-103285000D01*
X194185739Y-103285000D01*
X195058175Y-103285000D01*
X195058175Y-103113053D01*
X195233053Y-103113053D01*
X195233053Y-102581580D01*
X195585739Y-102581580D01*
X195585739Y-103109877D01*
X195757686Y-103109877D01*
X195757686Y-103285000D01*
X196461106Y-103285000D01*
X196461106Y-103109877D01*
X196633053Y-103109877D01*
X196633053Y-103100596D01*
X196985739Y-103100596D01*
X197157686Y-103100596D01*
X197157686Y-103285000D01*
X197329633Y-103285000D01*
X197329633Y-103456946D01*
X198033053Y-103456946D01*
X198033053Y-103285000D01*
X200139159Y-103285000D01*
X200311106Y-103285000D01*
X200311106Y-103456946D01*
X200661106Y-103456946D01*
X200661106Y-103281824D01*
X200489159Y-103281824D01*
X200489159Y-102941106D01*
X200139159Y-102941106D01*
X200139159Y-103285000D01*
X198033053Y-103285000D01*
X198033053Y-103281824D01*
X197507686Y-103281824D01*
X197507686Y-103100596D01*
X197858175Y-103100596D01*
X197858175Y-102941106D01*
X198033053Y-102941106D01*
X198033053Y-102409633D01*
X201185739Y-102409633D01*
X201185739Y-102584755D01*
X201529633Y-102584755D01*
X201529633Y-103109877D01*
X201185739Y-103109877D01*
X201185739Y-103285000D01*
X201717212Y-103285000D01*
X201717212Y-103113053D01*
X201879633Y-103113053D01*
X201879633Y-103109877D01*
X202757686Y-103109877D01*
X202757686Y-103285000D01*
X203461106Y-103285000D01*
X203461106Y-103109877D01*
X205385739Y-103109877D01*
X205385739Y-103285000D01*
X205729877Y-103285000D01*
X205729877Y-103109877D01*
X205907686Y-103109877D01*
X205907686Y-102935000D01*
X206083053Y-102935000D01*
X206083053Y-103285000D01*
X206433053Y-103285000D01*
X206433053Y-102584755D01*
X206785739Y-102584755D01*
X206785739Y-103109877D01*
X206785739Y-103285000D01*
X207661106Y-103285000D01*
X207661106Y-103109877D01*
X207833053Y-103109877D01*
X207833053Y-102937930D01*
X207661106Y-102937930D01*
X207661106Y-102765983D01*
X207135739Y-102765983D01*
X207135739Y-102584755D01*
X207661106Y-102584755D01*
X207661106Y-102581580D01*
X208185739Y-102581580D01*
X208185739Y-102765983D01*
X208185739Y-102941106D01*
X208883053Y-102941106D01*
X208883053Y-103109877D01*
X208357686Y-103109877D01*
X208357686Y-103285000D01*
X209061106Y-103285000D01*
X209061106Y-103109877D01*
X209233053Y-103109877D01*
X209233053Y-102581580D01*
X209585739Y-102581580D01*
X209585739Y-102756702D01*
X209935739Y-102756702D01*
X209935739Y-102584755D01*
X210283053Y-102584755D01*
X210283053Y-103285000D01*
X210633053Y-103285000D01*
X210633053Y-102769159D01*
X210985739Y-102769159D01*
X210985739Y-103109877D01*
X211160861Y-103109877D01*
X211160861Y-103285000D01*
X212033053Y-103285000D01*
X213785739Y-103285000D01*
X214658175Y-103285000D01*
X214658175Y-103113053D01*
X214833053Y-103113053D01*
X214833053Y-102581580D01*
X215185739Y-102581580D01*
X215185739Y-103109877D01*
X215357686Y-103109877D01*
X215357686Y-103285000D01*
X216061106Y-103285000D01*
X216061106Y-103109877D01*
X216233053Y-103109877D01*
X216233053Y-102597212D01*
X216585739Y-102597212D01*
X216757686Y-102597212D01*
X216757686Y-102757435D01*
X216929633Y-102757435D01*
X216929633Y-103285000D01*
X217279633Y-103285000D01*
X217279633Y-102757435D01*
X217461106Y-102757435D01*
X217461106Y-102597212D01*
X217633053Y-102597212D01*
X217633053Y-102065739D01*
X217283053Y-102065739D01*
X217283053Y-102581580D01*
X216929633Y-102581580D01*
X216929633Y-102065739D01*
X216585739Y-102065739D01*
X216585739Y-102597212D01*
X216233053Y-102597212D01*
X216233053Y-102581580D01*
X216061106Y-102581580D01*
X216061106Y-102409633D01*
X215357686Y-102409633D01*
X215357686Y-102581580D01*
X215185739Y-102581580D01*
X214833053Y-102581580D01*
X214833053Y-102409633D01*
X214483053Y-102409633D01*
X214483053Y-103109877D01*
X214135739Y-103109877D01*
X214135739Y-102409633D01*
X213785739Y-102409633D01*
X213785739Y-103285000D01*
X212033053Y-103285000D01*
X212033053Y-102237686D01*
X211683053Y-102237686D01*
X211683053Y-102581580D01*
X211160861Y-102581580D01*
X211160861Y-102769159D01*
X210985739Y-102769159D01*
X210633053Y-102769159D01*
X210633053Y-102409633D01*
X209760861Y-102409633D01*
X209760861Y-102581580D01*
X209585739Y-102581580D01*
X209233053Y-102581580D01*
X209061106Y-102581580D01*
X209061106Y-102409633D01*
X208357686Y-102409633D01*
X208357686Y-102581580D01*
X208185739Y-102581580D01*
X207661106Y-102581580D01*
X207661106Y-102409633D01*
X206957686Y-102409633D01*
X206957686Y-102584755D01*
X206785739Y-102584755D01*
X206433053Y-102584755D01*
X206433053Y-102237686D01*
X206083053Y-102237686D01*
X206083053Y-102765983D01*
X205907686Y-102765983D01*
X205907686Y-102581580D01*
X205557686Y-102581580D01*
X205557686Y-102756702D01*
X205729877Y-102756702D01*
X205729877Y-102935000D01*
X205557686Y-102935000D01*
X205557686Y-103109877D01*
X205385739Y-103109877D01*
X203461106Y-103109877D01*
X203289159Y-103109877D01*
X203289159Y-102756702D01*
X203461106Y-102756702D01*
X203461106Y-102581580D01*
X202939159Y-102581580D01*
X202939159Y-103109877D01*
X202757686Y-103109877D01*
X201879633Y-103109877D01*
X201879633Y-102584755D01*
X202233053Y-102584755D01*
X202233053Y-102412808D01*
X202939159Y-102412808D01*
X203289159Y-102412808D01*
X203289159Y-102237686D01*
X202939159Y-102237686D01*
X202939159Y-102412808D01*
X202233053Y-102412808D01*
X202233053Y-102409633D01*
X201879633Y-102409633D01*
X201879633Y-102237686D01*
X201529633Y-102237686D01*
X201529633Y-102409633D01*
X201185739Y-102409633D01*
X198033053Y-102409633D01*
X197683053Y-102409633D01*
X197683053Y-102925474D01*
X197329633Y-102925474D01*
X197329633Y-102409633D01*
X196985739Y-102409633D01*
X196985739Y-103100596D01*
X196633053Y-103100596D01*
X196633053Y-102581580D01*
X196461106Y-102581580D01*
X196461106Y-102409633D01*
X195757686Y-102409633D01*
X195757686Y-102581580D01*
X195585739Y-102581580D01*
X195233053Y-102581580D01*
X195233053Y-102409633D01*
X194883053Y-102409633D01*
X194883053Y-103109877D01*
X194535739Y-103109877D01*
X194535739Y-102409633D01*
X194185739Y-102409633D01*
X194185739Y-103285000D01*
X192089159Y-103285000D01*
X192089159Y-102756702D01*
X192261106Y-102756702D01*
X192261106Y-102581580D01*
X192089159Y-102581580D01*
X192089159Y-102409633D01*
X191917212Y-102409633D01*
X191917212Y-102237686D01*
X191385739Y-102237686D01*
X191385739Y-102412808D01*
X190689159Y-102412808D01*
X190689159Y-102237686D01*
X190339159Y-102237686D01*
X190339159Y-102412808D01*
X189633053Y-102412808D01*
X189633053Y-102409633D01*
X189283053Y-102409633D01*
X189283053Y-102581580D01*
X188929633Y-102581580D01*
X188929633Y-102409633D01*
X188585739Y-102409633D01*
X188585739Y-102584755D01*
X186661106Y-102584755D01*
X186661106Y-102581580D01*
X186139159Y-102581580D01*
X186139159Y-103109877D01*
X185957686Y-103109877D01*
X185079633Y-103109877D01*
X185079633Y-102584755D01*
X185433053Y-102584755D01*
X185433053Y-102412808D01*
X186139159Y-102412808D01*
X186489159Y-102412808D01*
X186489159Y-102237686D01*
X186139159Y-102237686D01*
X186139159Y-102412808D01*
X185433053Y-102412808D01*
X185433053Y-102409633D01*
X185079633Y-102409633D01*
X185079633Y-102237686D01*
X184729633Y-102237686D01*
X184729633Y-102409633D01*
X184385739Y-102409633D01*
X183673527Y-102409633D01*
X183673527Y-102065739D01*
X183323527Y-102065739D01*
X183323527Y-102769159D01*
X183212416Y-102769159D01*
X183212416Y-101954628D01*
X217744164Y-101954628D01*
X217744164Y-103568057D01*
G37*
X185340000Y-125379847D02*
X185816190Y-125379847D01*
X185816190Y-125379847D02*
X185816190Y-124379847D01*
X185006666Y-125379847D02*
X185006666Y-124713180D01*
X185006666Y-124379847D02*
X185054285Y-124427466D01*
X185054285Y-124427466D02*
X185006666Y-124475085D01*
X185006666Y-124475085D02*
X184959047Y-124427466D01*
X184959047Y-124427466D02*
X185006666Y-124379847D01*
X185006666Y-124379847D02*
X185006666Y-124475085D01*
X184101905Y-125332228D02*
X184197143Y-125379847D01*
X184197143Y-125379847D02*
X184387619Y-125379847D01*
X184387619Y-125379847D02*
X184482857Y-125332228D01*
X184482857Y-125332228D02*
X184530476Y-125284608D01*
X184530476Y-125284608D02*
X184578095Y-125189370D01*
X184578095Y-125189370D02*
X184578095Y-124903656D01*
X184578095Y-124903656D02*
X184530476Y-124808418D01*
X184530476Y-124808418D02*
X184482857Y-124760799D01*
X184482857Y-124760799D02*
X184387619Y-124713180D01*
X184387619Y-124713180D02*
X184197143Y-124713180D01*
X184197143Y-124713180D02*
X184101905Y-124760799D01*
X183292381Y-125332228D02*
X183387619Y-125379847D01*
X183387619Y-125379847D02*
X183578095Y-125379847D01*
X183578095Y-125379847D02*
X183673333Y-125332228D01*
X183673333Y-125332228D02*
X183720952Y-125236989D01*
X183720952Y-125236989D02*
X183720952Y-124856037D01*
X183720952Y-124856037D02*
X183673333Y-124760799D01*
X183673333Y-124760799D02*
X183578095Y-124713180D01*
X183578095Y-124713180D02*
X183387619Y-124713180D01*
X183387619Y-124713180D02*
X183292381Y-124760799D01*
X183292381Y-124760799D02*
X183244762Y-124856037D01*
X183244762Y-124856037D02*
X183244762Y-124951275D01*
X183244762Y-124951275D02*
X183720952Y-125046513D01*
X182816190Y-124713180D02*
X182816190Y-125379847D01*
X182816190Y-124808418D02*
X182768571Y-124760799D01*
X182768571Y-124760799D02*
X182673333Y-124713180D01*
X182673333Y-124713180D02*
X182530476Y-124713180D01*
X182530476Y-124713180D02*
X182435238Y-124760799D01*
X182435238Y-124760799D02*
X182387619Y-124856037D01*
X182387619Y-124856037D02*
X182387619Y-125379847D01*
X181959047Y-125332228D02*
X181863809Y-125379847D01*
X181863809Y-125379847D02*
X181673333Y-125379847D01*
X181673333Y-125379847D02*
X181578095Y-125332228D01*
X181578095Y-125332228D02*
X181530476Y-125236989D01*
X181530476Y-125236989D02*
X181530476Y-125189370D01*
X181530476Y-125189370D02*
X181578095Y-125094132D01*
X181578095Y-125094132D02*
X181673333Y-125046513D01*
X181673333Y-125046513D02*
X181816190Y-125046513D01*
X181816190Y-125046513D02*
X181911428Y-124998894D01*
X181911428Y-124998894D02*
X181959047Y-124903656D01*
X181959047Y-124903656D02*
X181959047Y-124856037D01*
X181959047Y-124856037D02*
X181911428Y-124760799D01*
X181911428Y-124760799D02*
X181816190Y-124713180D01*
X181816190Y-124713180D02*
X181673333Y-124713180D01*
X181673333Y-124713180D02*
X181578095Y-124760799D01*
X180720952Y-125332228D02*
X180816190Y-125379847D01*
X180816190Y-125379847D02*
X181006666Y-125379847D01*
X181006666Y-125379847D02*
X181101904Y-125332228D01*
X181101904Y-125332228D02*
X181149523Y-125236989D01*
X181149523Y-125236989D02*
X181149523Y-124856037D01*
X181149523Y-124856037D02*
X181101904Y-124760799D01*
X181101904Y-124760799D02*
X181006666Y-124713180D01*
X181006666Y-124713180D02*
X180816190Y-124713180D01*
X180816190Y-124713180D02*
X180720952Y-124760799D01*
X180720952Y-124760799D02*
X180673333Y-124856037D01*
X180673333Y-124856037D02*
X180673333Y-124951275D01*
X180673333Y-124951275D02*
X181149523Y-125046513D01*
X179816190Y-125379847D02*
X179816190Y-124379847D01*
X179816190Y-125332228D02*
X179911428Y-125379847D01*
X179911428Y-125379847D02*
X180101904Y-125379847D01*
X180101904Y-125379847D02*
X180197142Y-125332228D01*
X180197142Y-125332228D02*
X180244761Y-125284608D01*
X180244761Y-125284608D02*
X180292380Y-125189370D01*
X180292380Y-125189370D02*
X180292380Y-124903656D01*
X180292380Y-124903656D02*
X180244761Y-124808418D01*
X180244761Y-124808418D02*
X180197142Y-124760799D01*
X180197142Y-124760799D02*
X180101904Y-124713180D01*
X180101904Y-124713180D02*
X179911428Y-124713180D01*
X179911428Y-124713180D02*
X179816190Y-124760799D01*
X178149523Y-124713180D02*
X178149523Y-125379847D01*
X178578094Y-124713180D02*
X178578094Y-125236989D01*
X178578094Y-125236989D02*
X178530475Y-125332228D01*
X178530475Y-125332228D02*
X178435237Y-125379847D01*
X178435237Y-125379847D02*
X178292380Y-125379847D01*
X178292380Y-125379847D02*
X178197142Y-125332228D01*
X178197142Y-125332228D02*
X178149523Y-125284608D01*
X177673332Y-124713180D02*
X177673332Y-125379847D01*
X177673332Y-124808418D02*
X177625713Y-124760799D01*
X177625713Y-124760799D02*
X177530475Y-124713180D01*
X177530475Y-124713180D02*
X177387618Y-124713180D01*
X177387618Y-124713180D02*
X177292380Y-124760799D01*
X177292380Y-124760799D02*
X177244761Y-124856037D01*
X177244761Y-124856037D02*
X177244761Y-125379847D01*
X176339999Y-125379847D02*
X176339999Y-124379847D01*
X176339999Y-125332228D02*
X176435237Y-125379847D01*
X176435237Y-125379847D02*
X176625713Y-125379847D01*
X176625713Y-125379847D02*
X176720951Y-125332228D01*
X176720951Y-125332228D02*
X176768570Y-125284608D01*
X176768570Y-125284608D02*
X176816189Y-125189370D01*
X176816189Y-125189370D02*
X176816189Y-124903656D01*
X176816189Y-124903656D02*
X176768570Y-124808418D01*
X176768570Y-124808418D02*
X176720951Y-124760799D01*
X176720951Y-124760799D02*
X176625713Y-124713180D01*
X176625713Y-124713180D02*
X176435237Y-124713180D01*
X176435237Y-124713180D02*
X176339999Y-124760799D01*
X175482856Y-125332228D02*
X175578094Y-125379847D01*
X175578094Y-125379847D02*
X175768570Y-125379847D01*
X175768570Y-125379847D02*
X175863808Y-125332228D01*
X175863808Y-125332228D02*
X175911427Y-125236989D01*
X175911427Y-125236989D02*
X175911427Y-124856037D01*
X175911427Y-124856037D02*
X175863808Y-124760799D01*
X175863808Y-124760799D02*
X175768570Y-124713180D01*
X175768570Y-124713180D02*
X175578094Y-124713180D01*
X175578094Y-124713180D02*
X175482856Y-124760799D01*
X175482856Y-124760799D02*
X175435237Y-124856037D01*
X175435237Y-124856037D02*
X175435237Y-124951275D01*
X175435237Y-124951275D02*
X175911427Y-125046513D01*
X175006665Y-125379847D02*
X175006665Y-124713180D01*
X175006665Y-124903656D02*
X174959046Y-124808418D01*
X174959046Y-124808418D02*
X174911427Y-124760799D01*
X174911427Y-124760799D02*
X174816189Y-124713180D01*
X174816189Y-124713180D02*
X174720951Y-124713180D01*
X185292381Y-126894552D02*
X185340000Y-126942172D01*
X185340000Y-126942172D02*
X185482857Y-126989791D01*
X185482857Y-126989791D02*
X185578095Y-126989791D01*
X185578095Y-126989791D02*
X185720952Y-126942172D01*
X185720952Y-126942172D02*
X185816190Y-126846933D01*
X185816190Y-126846933D02*
X185863809Y-126751695D01*
X185863809Y-126751695D02*
X185911428Y-126561219D01*
X185911428Y-126561219D02*
X185911428Y-126418362D01*
X185911428Y-126418362D02*
X185863809Y-126227886D01*
X185863809Y-126227886D02*
X185816190Y-126132648D01*
X185816190Y-126132648D02*
X185720952Y-126037410D01*
X185720952Y-126037410D02*
X185578095Y-125989791D01*
X185578095Y-125989791D02*
X185482857Y-125989791D01*
X185482857Y-125989791D02*
X185340000Y-126037410D01*
X185340000Y-126037410D02*
X185292381Y-126085029D01*
X184863809Y-126465981D02*
X184530476Y-126465981D01*
X184387619Y-126989791D02*
X184863809Y-126989791D01*
X184863809Y-126989791D02*
X184863809Y-125989791D01*
X184863809Y-125989791D02*
X184387619Y-125989791D01*
X183387619Y-126989791D02*
X183720952Y-126513600D01*
X183959047Y-126989791D02*
X183959047Y-125989791D01*
X183959047Y-125989791D02*
X183578095Y-125989791D01*
X183578095Y-125989791D02*
X183482857Y-126037410D01*
X183482857Y-126037410D02*
X183435238Y-126085029D01*
X183435238Y-126085029D02*
X183387619Y-126180267D01*
X183387619Y-126180267D02*
X183387619Y-126323124D01*
X183387619Y-126323124D02*
X183435238Y-126418362D01*
X183435238Y-126418362D02*
X183482857Y-126465981D01*
X183482857Y-126465981D02*
X183578095Y-126513600D01*
X183578095Y-126513600D02*
X183959047Y-126513600D01*
X182959047Y-126989791D02*
X182959047Y-125989791D01*
X182959047Y-125989791D02*
X182387619Y-126989791D01*
X182387619Y-126989791D02*
X182387619Y-125989791D01*
X180959047Y-125989791D02*
X180768571Y-125989791D01*
X180768571Y-125989791D02*
X180673333Y-126037410D01*
X180673333Y-126037410D02*
X180578095Y-126132648D01*
X180578095Y-126132648D02*
X180530476Y-126323124D01*
X180530476Y-126323124D02*
X180530476Y-126656457D01*
X180530476Y-126656457D02*
X180578095Y-126846933D01*
X180578095Y-126846933D02*
X180673333Y-126942172D01*
X180673333Y-126942172D02*
X180768571Y-126989791D01*
X180768571Y-126989791D02*
X180959047Y-126989791D01*
X180959047Y-126989791D02*
X181054285Y-126942172D01*
X181054285Y-126942172D02*
X181149523Y-126846933D01*
X181149523Y-126846933D02*
X181197142Y-126656457D01*
X181197142Y-126656457D02*
X181197142Y-126323124D01*
X181197142Y-126323124D02*
X181149523Y-126132648D01*
X181149523Y-126132648D02*
X181054285Y-126037410D01*
X181054285Y-126037410D02*
X180959047Y-125989791D01*
X180101904Y-126989791D02*
X180101904Y-125989791D01*
X180101904Y-126465981D02*
X179530476Y-126465981D01*
X179530476Y-126989791D02*
X179530476Y-125989791D01*
X178578095Y-126989791D02*
X179054285Y-126989791D01*
X179054285Y-126989791D02*
X179054285Y-125989791D01*
X177578094Y-126323124D02*
X177339999Y-126989791D01*
X177339999Y-126989791D02*
X177101904Y-126323124D01*
X176197142Y-126989791D02*
X176768570Y-126989791D01*
X176482856Y-126989791D02*
X176482856Y-125989791D01*
X176482856Y-125989791D02*
X176578094Y-126132648D01*
X176578094Y-126132648D02*
X176673332Y-126227886D01*
X176673332Y-126227886D02*
X176768570Y-126275505D01*
X175768570Y-126894552D02*
X175720951Y-126942172D01*
X175720951Y-126942172D02*
X175768570Y-126989791D01*
X175768570Y-126989791D02*
X175816189Y-126942172D01*
X175816189Y-126942172D02*
X175768570Y-126894552D01*
X175768570Y-126894552D02*
X175768570Y-126989791D01*
X175339999Y-126085029D02*
X175292380Y-126037410D01*
X175292380Y-126037410D02*
X175197142Y-125989791D01*
X175197142Y-125989791D02*
X174959047Y-125989791D01*
X174959047Y-125989791D02*
X174863809Y-126037410D01*
X174863809Y-126037410D02*
X174816190Y-126085029D01*
X174816190Y-126085029D02*
X174768571Y-126180267D01*
X174768571Y-126180267D02*
X174768571Y-126275505D01*
X174768571Y-126275505D02*
X174816190Y-126418362D01*
X174816190Y-126418362D02*
X175387618Y-126989791D01*
X175387618Y-126989791D02*
X174768571Y-126989791D01*
G36*
X158073053Y-140545000D02*
G01*
X157723053Y-140545000D01*
X157723053Y-140016702D01*
X157200861Y-140016702D01*
X157200861Y-139841580D01*
X157375739Y-139841580D01*
X157723053Y-139841580D01*
X157723053Y-139500861D01*
X157375739Y-139500861D01*
X157375739Y-139841580D01*
X157200861Y-139841580D01*
X157025739Y-139841580D01*
X157025739Y-139497686D01*
X157200861Y-139497686D01*
X157200861Y-139325739D01*
X158073053Y-139325739D01*
X158073053Y-140545000D01*
G37*
G36*
X156673053Y-140545000D02*
G01*
X156673053Y-140195000D01*
X156501106Y-140195000D01*
X156501106Y-140025983D01*
X156151106Y-140025983D01*
X156151106Y-140195000D01*
X156323053Y-140195000D01*
X156323053Y-140369877D01*
X155625739Y-140369877D01*
X155625739Y-140545000D01*
X156673053Y-140545000D01*
G37*
G36*
X156147686Y-140016702D02*
G01*
X156147686Y-139841580D01*
X155975739Y-139841580D01*
X155975739Y-139500861D01*
X156323053Y-139500861D01*
X156323053Y-139672808D01*
X156673053Y-139672808D01*
X156673053Y-139497686D01*
X156501106Y-139497686D01*
X156501106Y-139325739D01*
X155797686Y-139325739D01*
X155797686Y-139497686D01*
X155625739Y-139497686D01*
X155625739Y-139841580D01*
X155797686Y-139841580D01*
X155797686Y-140016702D01*
X156147686Y-140016702D01*
G37*
G36*
X158073053Y-142225000D02*
G01*
X158073053Y-141005739D01*
X157025739Y-141005739D01*
X157025739Y-141180861D01*
X157723053Y-141180861D01*
X157723053Y-141521580D01*
X157369633Y-141521580D01*
X157369633Y-141696702D01*
X157723053Y-141696702D01*
X157723053Y-142225000D01*
X158073053Y-142225000D01*
G37*
G36*
X156673053Y-142225000D02*
G01*
X156673053Y-142049877D01*
X156319633Y-142049877D01*
X156319633Y-141524755D01*
X156496465Y-141524755D01*
X156496465Y-141349633D01*
X156319633Y-141349633D01*
X156319633Y-141005739D01*
X155969633Y-141005739D01*
X155969633Y-142049877D01*
X155625739Y-142049877D01*
X155625739Y-142225000D01*
X156673053Y-142225000D01*
G37*
G36*
X178921106Y-88045000D02*
G01*
X178921106Y-87873053D01*
X179093053Y-87873053D01*
X179093053Y-86825739D01*
X178743053Y-86825739D01*
X178743053Y-87869877D01*
X178395739Y-87869877D01*
X178395739Y-86825739D01*
X178045739Y-86825739D01*
X178045739Y-87873053D01*
X178217686Y-87873053D01*
X178217686Y-88045000D01*
X178921106Y-88045000D01*
G37*
G36*
X177521106Y-88045000D02*
G01*
X177521106Y-87869877D01*
X177693053Y-87869877D01*
X177693053Y-87697930D01*
X177343053Y-87697930D01*
X177343053Y-87869877D01*
X176995739Y-87869877D01*
X176995739Y-87516702D01*
X177521106Y-87516702D01*
X177521106Y-87341580D01*
X177693053Y-87341580D01*
X177693053Y-86997686D01*
X177521106Y-86997686D01*
X177521106Y-86825739D01*
X176817686Y-86825739D01*
X176817686Y-86997686D01*
X176645739Y-86997686D01*
X176645739Y-87172808D01*
X176995739Y-87172808D01*
X176995739Y-87000861D01*
X177343053Y-87000861D01*
X177343053Y-87341580D01*
X176817686Y-87341580D01*
X176817686Y-87525983D01*
X176645739Y-87525983D01*
X176645739Y-87869877D01*
X176817686Y-87869877D01*
X176817686Y-88045000D01*
X177521106Y-88045000D01*
G37*
G36*
X176293053Y-88045000D02*
G01*
X175420861Y-88045000D01*
X175420861Y-87869877D01*
X175595739Y-87869877D01*
X175943053Y-87869877D01*
X175943053Y-87516702D01*
X175595739Y-87516702D01*
X175595739Y-87869877D01*
X175420861Y-87869877D01*
X175245739Y-87869877D01*
X175245739Y-87529159D01*
X175420861Y-87529159D01*
X175420861Y-87341580D01*
X175595739Y-87341580D01*
X175943053Y-87341580D01*
X175943053Y-87000861D01*
X175595739Y-87000861D01*
X175595739Y-87341580D01*
X175420861Y-87341580D01*
X175245739Y-87341580D01*
X175245739Y-86997686D01*
X175420861Y-86997686D01*
X175420861Y-86825739D01*
X176293053Y-86825739D01*
X176293053Y-88045000D01*
G37*
G36*
X205693052Y-153245000D02*
G01*
X205343052Y-153245000D01*
X205343052Y-152716702D01*
X204820860Y-152716702D01*
X204820860Y-152541580D01*
X204995738Y-152541580D01*
X205343052Y-152541580D01*
X205343052Y-152200861D01*
X204995738Y-152200861D01*
X204995738Y-152541580D01*
X204820860Y-152541580D01*
X204645738Y-152541580D01*
X204645738Y-152197686D01*
X204820860Y-152197686D01*
X204820860Y-152025739D01*
X205693052Y-152025739D01*
X205693052Y-153245000D01*
G37*
G36*
X204293052Y-153245000D02*
G01*
X204293052Y-153069877D01*
X203939632Y-153069877D01*
X203939632Y-152544755D01*
X204116464Y-152544755D01*
X204116464Y-152369633D01*
X203939632Y-152369633D01*
X203939632Y-152025739D01*
X203589632Y-152025739D01*
X203589632Y-153069877D01*
X203245738Y-153069877D01*
X203245738Y-153245000D01*
X204293052Y-153245000D01*
G37*
G36*
X205693052Y-154925000D02*
G01*
X205693052Y-153705739D01*
X204645738Y-153705739D01*
X204645738Y-153880861D01*
X205343052Y-153880861D01*
X205343052Y-154221580D01*
X204989632Y-154221580D01*
X204989632Y-154396702D01*
X205343052Y-154396702D01*
X205343052Y-154925000D01*
X205693052Y-154925000D01*
G37*
G36*
X204121105Y-153877686D02*
G01*
X204293052Y-153877686D01*
X204293052Y-154749877D01*
X204121105Y-154749877D01*
X204121105Y-154925000D01*
X203417685Y-154925000D01*
X203417685Y-154749877D01*
X203595738Y-154749877D01*
X203943052Y-154749877D01*
X203943052Y-154396702D01*
X203595738Y-154396702D01*
X203595738Y-154749877D01*
X203417685Y-154749877D01*
X203245738Y-154749877D01*
X203245738Y-154409159D01*
X203417685Y-154409159D01*
X203417685Y-154221580D01*
X203943052Y-154221580D01*
X203943052Y-153880861D01*
X203595738Y-153880861D01*
X203595738Y-154052808D01*
X203245738Y-154052808D01*
X203245738Y-153877686D01*
X203417685Y-153877686D01*
X203417685Y-153705739D01*
X204121105Y-153705739D01*
X204121105Y-153877686D01*
G37*
D13*
X229815847Y-126250952D02*
X229815847Y-126517618D01*
X230234895Y-126631904D02*
X230234895Y-126250952D01*
X230234895Y-126250952D02*
X229434895Y-126250952D01*
X229434895Y-126250952D02*
X229434895Y-126631904D01*
X230234895Y-126974762D02*
X229434895Y-126974762D01*
X229434895Y-126974762D02*
X230234895Y-127431905D01*
X230234895Y-127431905D02*
X229434895Y-127431905D01*
X230006323Y-127774761D02*
X230006323Y-128155714D01*
X230234895Y-127698571D02*
X229434895Y-127965238D01*
X229434895Y-127965238D02*
X230234895Y-128231904D01*
X229815847Y-128765237D02*
X229853942Y-128879523D01*
X229853942Y-128879523D02*
X229892038Y-128917618D01*
X229892038Y-128917618D02*
X229968228Y-128955714D01*
X229968228Y-128955714D02*
X230082514Y-128955714D01*
X230082514Y-128955714D02*
X230158704Y-128917618D01*
X230158704Y-128917618D02*
X230196800Y-128879523D01*
X230196800Y-128879523D02*
X230234895Y-128803333D01*
X230234895Y-128803333D02*
X230234895Y-128498571D01*
X230234895Y-128498571D02*
X229434895Y-128498571D01*
X229434895Y-128498571D02*
X229434895Y-128765237D01*
X229434895Y-128765237D02*
X229472990Y-128841428D01*
X229472990Y-128841428D02*
X229511085Y-128879523D01*
X229511085Y-128879523D02*
X229587276Y-128917618D01*
X229587276Y-128917618D02*
X229663466Y-128917618D01*
X229663466Y-128917618D02*
X229739657Y-128879523D01*
X229739657Y-128879523D02*
X229777752Y-128841428D01*
X229777752Y-128841428D02*
X229815847Y-128765237D01*
X229815847Y-128765237D02*
X229815847Y-128498571D01*
X230234895Y-129679523D02*
X230234895Y-129298571D01*
X230234895Y-129298571D02*
X229434895Y-129298571D01*
X229815847Y-129946190D02*
X229815847Y-130212856D01*
X230234895Y-130327142D02*
X230234895Y-129946190D01*
X230234895Y-129946190D02*
X229434895Y-129946190D01*
X229434895Y-129946190D02*
X229434895Y-130327142D01*
D12*
G36*
X166426052Y-153245000D02*
G01*
X166076052Y-153245000D01*
X166076052Y-152716702D01*
X165553860Y-152716702D01*
X165553860Y-152541580D01*
X165728738Y-152541580D01*
X166076052Y-152541580D01*
X166076052Y-152200861D01*
X165728738Y-152200861D01*
X165728738Y-152541580D01*
X165553860Y-152541580D01*
X165378738Y-152541580D01*
X165378738Y-152197686D01*
X165553860Y-152197686D01*
X165553860Y-152025739D01*
X166426052Y-152025739D01*
X166426052Y-153245000D01*
G37*
G36*
X165026052Y-153245000D02*
G01*
X165026052Y-153069877D01*
X164672632Y-153069877D01*
X164672632Y-152544755D01*
X164849464Y-152544755D01*
X164849464Y-152369633D01*
X164672632Y-152369633D01*
X164672632Y-152025739D01*
X164322632Y-152025739D01*
X164322632Y-153069877D01*
X163978738Y-153069877D01*
X163978738Y-153245000D01*
X165026052Y-153245000D01*
G37*
G36*
X166426052Y-154925000D02*
G01*
X166426052Y-153705739D01*
X165378738Y-153705739D01*
X165378738Y-153880861D01*
X166076052Y-153880861D01*
X166076052Y-154221580D01*
X165722632Y-154221580D01*
X165722632Y-154396702D01*
X166076052Y-154396702D01*
X166076052Y-154925000D01*
X166426052Y-154925000D01*
G37*
G36*
X165026052Y-154925000D02*
G01*
X165026052Y-154575000D01*
X164854105Y-154575000D01*
X164854105Y-154405983D01*
X164504105Y-154405983D01*
X164504105Y-154575000D01*
X164676052Y-154575000D01*
X164676052Y-154749877D01*
X163978738Y-154749877D01*
X163978738Y-154925000D01*
X165026052Y-154925000D01*
G37*
G36*
X164500685Y-154396702D02*
G01*
X164500685Y-154221580D01*
X164328738Y-154221580D01*
X164328738Y-153880861D01*
X164676052Y-153880861D01*
X164676052Y-154052808D01*
X165026052Y-154052808D01*
X165026052Y-153877686D01*
X164854105Y-153877686D01*
X164854105Y-153705739D01*
X164150685Y-153705739D01*
X164150685Y-153877686D01*
X163978738Y-153877686D01*
X163978738Y-154221580D01*
X164150685Y-154221580D01*
X164150685Y-154396702D01*
X164500685Y-154396702D01*
G37*
D13*
X229434895Y-117043333D02*
X230234895Y-117310000D01*
X230234895Y-117310000D02*
X229434895Y-117576666D01*
X230158704Y-118300476D02*
X230196800Y-118262380D01*
X230196800Y-118262380D02*
X230234895Y-118148095D01*
X230234895Y-118148095D02*
X230234895Y-118071904D01*
X230234895Y-118071904D02*
X230196800Y-117957618D01*
X230196800Y-117957618D02*
X230120609Y-117881428D01*
X230120609Y-117881428D02*
X230044419Y-117843333D01*
X230044419Y-117843333D02*
X229892038Y-117805237D01*
X229892038Y-117805237D02*
X229777752Y-117805237D01*
X229777752Y-117805237D02*
X229625371Y-117843333D01*
X229625371Y-117843333D02*
X229549180Y-117881428D01*
X229549180Y-117881428D02*
X229472990Y-117957618D01*
X229472990Y-117957618D02*
X229434895Y-118071904D01*
X229434895Y-118071904D02*
X229434895Y-118148095D01*
X229434895Y-118148095D02*
X229472990Y-118262380D01*
X229472990Y-118262380D02*
X229511085Y-118300476D01*
X230158704Y-119100476D02*
X230196800Y-119062380D01*
X230196800Y-119062380D02*
X230234895Y-118948095D01*
X230234895Y-118948095D02*
X230234895Y-118871904D01*
X230234895Y-118871904D02*
X230196800Y-118757618D01*
X230196800Y-118757618D02*
X230120609Y-118681428D01*
X230120609Y-118681428D02*
X230044419Y-118643333D01*
X230044419Y-118643333D02*
X229892038Y-118605237D01*
X229892038Y-118605237D02*
X229777752Y-118605237D01*
X229777752Y-118605237D02*
X229625371Y-118643333D01*
X229625371Y-118643333D02*
X229549180Y-118681428D01*
X229549180Y-118681428D02*
X229472990Y-118757618D01*
X229472990Y-118757618D02*
X229434895Y-118871904D01*
X229434895Y-118871904D02*
X229434895Y-118948095D01*
X229434895Y-118948095D02*
X229472990Y-119062380D01*
X229472990Y-119062380D02*
X229511085Y-119100476D01*
D12*
G36*
X158073053Y-119590000D02*
G01*
X157723053Y-119590000D01*
X157723053Y-119061702D01*
X157200861Y-119061702D01*
X157200861Y-118886580D01*
X157375739Y-118886580D01*
X157723053Y-118886580D01*
X157723053Y-118545861D01*
X157375739Y-118545861D01*
X157375739Y-118886580D01*
X157200861Y-118886580D01*
X157025739Y-118886580D01*
X157025739Y-118542686D01*
X157200861Y-118542686D01*
X157200861Y-118370739D01*
X158073053Y-118370739D01*
X158073053Y-119590000D01*
G37*
G36*
X156673053Y-119590000D02*
G01*
X156673053Y-119240000D01*
X156501106Y-119240000D01*
X156501106Y-119070983D01*
X156151106Y-119070983D01*
X156151106Y-119240000D01*
X156323053Y-119240000D01*
X156323053Y-119414877D01*
X155625739Y-119414877D01*
X155625739Y-119590000D01*
X156673053Y-119590000D01*
G37*
G36*
X156147686Y-119061702D02*
G01*
X156147686Y-118886580D01*
X155975739Y-118886580D01*
X155975739Y-118545861D01*
X156323053Y-118545861D01*
X156323053Y-118717808D01*
X156673053Y-118717808D01*
X156673053Y-118542686D01*
X156501106Y-118542686D01*
X156501106Y-118370739D01*
X155797686Y-118370739D01*
X155797686Y-118542686D01*
X155625739Y-118542686D01*
X155625739Y-118886580D01*
X155797686Y-118886580D01*
X155797686Y-119061702D01*
X156147686Y-119061702D01*
G37*
G36*
X158073053Y-121270000D02*
G01*
X158073053Y-120050739D01*
X157025739Y-120050739D01*
X157025739Y-120225861D01*
X157723053Y-120225861D01*
X157723053Y-120566580D01*
X157369633Y-120566580D01*
X157369633Y-120741702D01*
X157723053Y-120741702D01*
X157723053Y-121270000D01*
X158073053Y-121270000D01*
G37*
G36*
X156673053Y-121270000D02*
G01*
X156673053Y-120920000D01*
X156501106Y-120920000D01*
X156501106Y-120750983D01*
X156151106Y-120750983D01*
X156151106Y-120920000D01*
X156323053Y-120920000D01*
X156323053Y-121094877D01*
X155625739Y-121094877D01*
X155625739Y-121270000D01*
X156673053Y-121270000D01*
G37*
G36*
X156147686Y-120741702D02*
G01*
X156147686Y-120566580D01*
X155975739Y-120566580D01*
X155975739Y-120225861D01*
X156323053Y-120225861D01*
X156323053Y-120397808D01*
X156673053Y-120397808D01*
X156673053Y-120222686D01*
X156501106Y-120222686D01*
X156501106Y-120050739D01*
X155797686Y-120050739D01*
X155797686Y-120222686D01*
X155625739Y-120222686D01*
X155625739Y-120566580D01*
X155797686Y-120566580D01*
X155797686Y-120741702D01*
X156147686Y-120741702D01*
G37*
D13*
X238696870Y-97840952D02*
X238696870Y-97574286D01*
X239115918Y-97574286D02*
X238315918Y-97574286D01*
X238315918Y-97574286D02*
X238315918Y-97955238D01*
X239115918Y-98260000D02*
X238315918Y-98260000D01*
X239115918Y-99098095D02*
X238734965Y-98831428D01*
X239115918Y-98640952D02*
X238315918Y-98640952D01*
X238315918Y-98640952D02*
X238315918Y-98945714D01*
X238315918Y-98945714D02*
X238354013Y-99021904D01*
X238354013Y-99021904D02*
X238392108Y-99059999D01*
X238392108Y-99059999D02*
X238468299Y-99098095D01*
X238468299Y-99098095D02*
X238582584Y-99098095D01*
X238582584Y-99098095D02*
X238658775Y-99059999D01*
X238658775Y-99059999D02*
X238696870Y-99021904D01*
X238696870Y-99021904D02*
X238734965Y-98945714D01*
X238734965Y-98945714D02*
X238734965Y-98640952D01*
X238696870Y-99440952D02*
X238696870Y-99707618D01*
X239115918Y-99821904D02*
X239115918Y-99440952D01*
X239115918Y-99440952D02*
X238315918Y-99440952D01*
X238315918Y-99440952D02*
X238315918Y-99821904D01*
X238315918Y-100088571D02*
X238315918Y-100583809D01*
X238315918Y-100583809D02*
X238620680Y-100317143D01*
X238620680Y-100317143D02*
X238620680Y-100431428D01*
X238620680Y-100431428D02*
X238658775Y-100507619D01*
X238658775Y-100507619D02*
X238696870Y-100545714D01*
X238696870Y-100545714D02*
X238773061Y-100583809D01*
X238773061Y-100583809D02*
X238963537Y-100583809D01*
X238963537Y-100583809D02*
X239039727Y-100545714D01*
X239039727Y-100545714D02*
X239077823Y-100507619D01*
X239077823Y-100507619D02*
X239115918Y-100431428D01*
X239115918Y-100431428D02*
X239115918Y-100202857D01*
X239115918Y-100202857D02*
X239077823Y-100126666D01*
X239077823Y-100126666D02*
X239039727Y-100088571D01*
X240365778Y-97079046D02*
X240403873Y-97193332D01*
X240403873Y-97193332D02*
X240403873Y-97383808D01*
X240403873Y-97383808D02*
X240365778Y-97459999D01*
X240365778Y-97459999D02*
X240327682Y-97498094D01*
X240327682Y-97498094D02*
X240251492Y-97536189D01*
X240251492Y-97536189D02*
X240175301Y-97536189D01*
X240175301Y-97536189D02*
X240099111Y-97498094D01*
X240099111Y-97498094D02*
X240061016Y-97459999D01*
X240061016Y-97459999D02*
X240022920Y-97383808D01*
X240022920Y-97383808D02*
X239984825Y-97231427D01*
X239984825Y-97231427D02*
X239946730Y-97155237D01*
X239946730Y-97155237D02*
X239908635Y-97117142D01*
X239908635Y-97117142D02*
X239832444Y-97079046D01*
X239832444Y-97079046D02*
X239756254Y-97079046D01*
X239756254Y-97079046D02*
X239680063Y-97117142D01*
X239680063Y-97117142D02*
X239641968Y-97155237D01*
X239641968Y-97155237D02*
X239603873Y-97231427D01*
X239603873Y-97231427D02*
X239603873Y-97421904D01*
X239603873Y-97421904D02*
X239641968Y-97536189D01*
X239984825Y-97879047D02*
X239984825Y-98145713D01*
X240403873Y-98259999D02*
X240403873Y-97879047D01*
X240403873Y-97879047D02*
X239603873Y-97879047D01*
X239603873Y-97879047D02*
X239603873Y-98259999D01*
X240403873Y-98983809D02*
X240403873Y-98602857D01*
X240403873Y-98602857D02*
X239603873Y-98602857D01*
X239984825Y-99250476D02*
X239984825Y-99517142D01*
X240403873Y-99631428D02*
X240403873Y-99250476D01*
X240403873Y-99250476D02*
X239603873Y-99250476D01*
X239603873Y-99250476D02*
X239603873Y-99631428D01*
X240327682Y-100431429D02*
X240365778Y-100393333D01*
X240365778Y-100393333D02*
X240403873Y-100279048D01*
X240403873Y-100279048D02*
X240403873Y-100202857D01*
X240403873Y-100202857D02*
X240365778Y-100088571D01*
X240365778Y-100088571D02*
X240289587Y-100012381D01*
X240289587Y-100012381D02*
X240213397Y-99974286D01*
X240213397Y-99974286D02*
X240061016Y-99936190D01*
X240061016Y-99936190D02*
X239946730Y-99936190D01*
X239946730Y-99936190D02*
X239794349Y-99974286D01*
X239794349Y-99974286D02*
X239718158Y-100012381D01*
X239718158Y-100012381D02*
X239641968Y-100088571D01*
X239641968Y-100088571D02*
X239603873Y-100202857D01*
X239603873Y-100202857D02*
X239603873Y-100279048D01*
X239603873Y-100279048D02*
X239641968Y-100393333D01*
X239641968Y-100393333D02*
X239680063Y-100431429D01*
X239603873Y-100660000D02*
X239603873Y-101117143D01*
X240403873Y-100888571D02*
X239603873Y-100888571D01*
X230234895Y-96170952D02*
X229434895Y-96170952D01*
X229434895Y-96170952D02*
X229434895Y-96475714D01*
X229434895Y-96475714D02*
X229472990Y-96551904D01*
X229472990Y-96551904D02*
X229511085Y-96589999D01*
X229511085Y-96589999D02*
X229587276Y-96628095D01*
X229587276Y-96628095D02*
X229701561Y-96628095D01*
X229701561Y-96628095D02*
X229777752Y-96589999D01*
X229777752Y-96589999D02*
X229815847Y-96551904D01*
X229815847Y-96551904D02*
X229853942Y-96475714D01*
X229853942Y-96475714D02*
X229853942Y-96170952D01*
X230234895Y-97389999D02*
X230234895Y-96932856D01*
X230234895Y-97161428D02*
X229434895Y-97161428D01*
X229434895Y-97161428D02*
X229549180Y-97085237D01*
X229549180Y-97085237D02*
X229625371Y-97009047D01*
X229625371Y-97009047D02*
X229663466Y-96932856D01*
X229815847Y-98609047D02*
X229815847Y-98342381D01*
X230234895Y-98342381D02*
X229434895Y-98342381D01*
X229434895Y-98342381D02*
X229434895Y-98723333D01*
X230234895Y-99447142D02*
X230234895Y-98989999D01*
X230234895Y-99218571D02*
X229434895Y-99218571D01*
X229434895Y-99218571D02*
X229549180Y-99142380D01*
X229549180Y-99142380D02*
X229625371Y-99066190D01*
X229625371Y-99066190D02*
X229663466Y-98989999D01*
X238696870Y-118160952D02*
X238696870Y-117894286D01*
X239115918Y-117894286D02*
X238315918Y-117894286D01*
X238315918Y-117894286D02*
X238315918Y-118275238D01*
X239115918Y-118580000D02*
X238315918Y-118580000D01*
X239115918Y-119418095D02*
X238734965Y-119151428D01*
X239115918Y-118960952D02*
X238315918Y-118960952D01*
X238315918Y-118960952D02*
X238315918Y-119265714D01*
X238315918Y-119265714D02*
X238354013Y-119341904D01*
X238354013Y-119341904D02*
X238392108Y-119379999D01*
X238392108Y-119379999D02*
X238468299Y-119418095D01*
X238468299Y-119418095D02*
X238582584Y-119418095D01*
X238582584Y-119418095D02*
X238658775Y-119379999D01*
X238658775Y-119379999D02*
X238696870Y-119341904D01*
X238696870Y-119341904D02*
X238734965Y-119265714D01*
X238734965Y-119265714D02*
X238734965Y-118960952D01*
X238696870Y-119760952D02*
X238696870Y-120027618D01*
X239115918Y-120141904D02*
X239115918Y-119760952D01*
X239115918Y-119760952D02*
X238315918Y-119760952D01*
X238315918Y-119760952D02*
X238315918Y-120141904D01*
X238392108Y-120446666D02*
X238354013Y-120484762D01*
X238354013Y-120484762D02*
X238315918Y-120560952D01*
X238315918Y-120560952D02*
X238315918Y-120751428D01*
X238315918Y-120751428D02*
X238354013Y-120827619D01*
X238354013Y-120827619D02*
X238392108Y-120865714D01*
X238392108Y-120865714D02*
X238468299Y-120903809D01*
X238468299Y-120903809D02*
X238544489Y-120903809D01*
X238544489Y-120903809D02*
X238658775Y-120865714D01*
X238658775Y-120865714D02*
X239115918Y-120408571D01*
X239115918Y-120408571D02*
X239115918Y-120903809D01*
X240403873Y-116846667D02*
X239603873Y-116846667D01*
X239603873Y-116846667D02*
X239603873Y-117151429D01*
X239603873Y-117151429D02*
X239641968Y-117227619D01*
X239641968Y-117227619D02*
X239680063Y-117265714D01*
X239680063Y-117265714D02*
X239756254Y-117303810D01*
X239756254Y-117303810D02*
X239870539Y-117303810D01*
X239870539Y-117303810D02*
X239946730Y-117265714D01*
X239946730Y-117265714D02*
X239984825Y-117227619D01*
X239984825Y-117227619D02*
X240022920Y-117151429D01*
X240022920Y-117151429D02*
X240022920Y-116846667D01*
X239603873Y-117799048D02*
X239603873Y-117951429D01*
X239603873Y-117951429D02*
X239641968Y-118027619D01*
X239641968Y-118027619D02*
X239718158Y-118103810D01*
X239718158Y-118103810D02*
X239870539Y-118141905D01*
X239870539Y-118141905D02*
X240137206Y-118141905D01*
X240137206Y-118141905D02*
X240289587Y-118103810D01*
X240289587Y-118103810D02*
X240365778Y-118027619D01*
X240365778Y-118027619D02*
X240403873Y-117951429D01*
X240403873Y-117951429D02*
X240403873Y-117799048D01*
X240403873Y-117799048D02*
X240365778Y-117722857D01*
X240365778Y-117722857D02*
X240289587Y-117646667D01*
X240289587Y-117646667D02*
X240137206Y-117608571D01*
X240137206Y-117608571D02*
X239870539Y-117608571D01*
X239870539Y-117608571D02*
X239718158Y-117646667D01*
X239718158Y-117646667D02*
X239641968Y-117722857D01*
X239641968Y-117722857D02*
X239603873Y-117799048D01*
X240403873Y-118865714D02*
X240403873Y-118484762D01*
X240403873Y-118484762D02*
X239603873Y-118484762D01*
X240175301Y-119094285D02*
X240175301Y-119475238D01*
X240403873Y-119018095D02*
X239603873Y-119284762D01*
X239603873Y-119284762D02*
X240403873Y-119551428D01*
X240403873Y-120275238D02*
X240022920Y-120008571D01*
X240403873Y-119818095D02*
X239603873Y-119818095D01*
X239603873Y-119818095D02*
X239603873Y-120122857D01*
X239603873Y-120122857D02*
X239641968Y-120199047D01*
X239641968Y-120199047D02*
X239680063Y-120237142D01*
X239680063Y-120237142D02*
X239756254Y-120275238D01*
X239756254Y-120275238D02*
X239870539Y-120275238D01*
X239870539Y-120275238D02*
X239946730Y-120237142D01*
X239946730Y-120237142D02*
X239984825Y-120199047D01*
X239984825Y-120199047D02*
X240022920Y-120122857D01*
X240022920Y-120122857D02*
X240022920Y-119818095D01*
X240403873Y-120618095D02*
X239603873Y-120618095D01*
X239603873Y-120884761D02*
X239603873Y-121341904D01*
X240403873Y-121113332D02*
X239603873Y-121113332D01*
X240022920Y-121760952D02*
X240403873Y-121760952D01*
X239603873Y-121494285D02*
X240022920Y-121760952D01*
X240022920Y-121760952D02*
X239603873Y-122027618D01*
X217360237Y-156879657D02*
X217398332Y-156841561D01*
X217398332Y-156841561D02*
X217474523Y-156727276D01*
X217474523Y-156727276D02*
X217512618Y-156651085D01*
X217512618Y-156651085D02*
X217550713Y-156536800D01*
X217550713Y-156536800D02*
X217588808Y-156346323D01*
X217588808Y-156346323D02*
X217588808Y-156193942D01*
X217588808Y-156193942D02*
X217550713Y-156003466D01*
X217550713Y-156003466D02*
X217512618Y-155889180D01*
X217512618Y-155889180D02*
X217474523Y-155812990D01*
X217474523Y-155812990D02*
X217398332Y-155698704D01*
X217398332Y-155698704D02*
X217360237Y-155660609D01*
X216598332Y-156574895D02*
X216864999Y-156193942D01*
X217055475Y-156574895D02*
X217055475Y-155774895D01*
X217055475Y-155774895D02*
X216750713Y-155774895D01*
X216750713Y-155774895D02*
X216674523Y-155812990D01*
X216674523Y-155812990D02*
X216636428Y-155851085D01*
X216636428Y-155851085D02*
X216598332Y-155927276D01*
X216598332Y-155927276D02*
X216598332Y-156041561D01*
X216598332Y-156041561D02*
X216636428Y-156117752D01*
X216636428Y-156117752D02*
X216674523Y-156155847D01*
X216674523Y-156155847D02*
X216750713Y-156193942D01*
X216750713Y-156193942D02*
X217055475Y-156193942D01*
X215836428Y-156574895D02*
X216293571Y-156574895D01*
X216064999Y-156574895D02*
X216064999Y-155774895D01*
X216064999Y-155774895D02*
X216141190Y-155889180D01*
X216141190Y-155889180D02*
X216217380Y-155965371D01*
X216217380Y-155965371D02*
X216293571Y-156003466D01*
X215569761Y-156879657D02*
X215531666Y-156841561D01*
X215531666Y-156841561D02*
X215455475Y-156727276D01*
X215455475Y-156727276D02*
X215417380Y-156651085D01*
X215417380Y-156651085D02*
X215379285Y-156536800D01*
X215379285Y-156536800D02*
X215341189Y-156346323D01*
X215341189Y-156346323D02*
X215341189Y-156193942D01*
X215341189Y-156193942D02*
X215379285Y-156003466D01*
X215379285Y-156003466D02*
X215417380Y-155889180D01*
X215417380Y-155889180D02*
X215455475Y-155812990D01*
X215455475Y-155812990D02*
X215531666Y-155698704D01*
X215531666Y-155698704D02*
X215569761Y-155660609D01*
X231132166Y-156879657D02*
X231170261Y-156841561D01*
X231170261Y-156841561D02*
X231246452Y-156727276D01*
X231246452Y-156727276D02*
X231284547Y-156651085D01*
X231284547Y-156651085D02*
X231322642Y-156536800D01*
X231322642Y-156536800D02*
X231360737Y-156346323D01*
X231360737Y-156346323D02*
X231360737Y-156193942D01*
X231360737Y-156193942D02*
X231322642Y-156003466D01*
X231322642Y-156003466D02*
X231284547Y-155889180D01*
X231284547Y-155889180D02*
X231246452Y-155812990D01*
X231246452Y-155812990D02*
X231170261Y-155698704D01*
X231170261Y-155698704D02*
X231132166Y-155660609D01*
X230560738Y-156155847D02*
X230827404Y-156155847D01*
X230827404Y-156574895D02*
X230827404Y-155774895D01*
X230827404Y-155774895D02*
X230446452Y-155774895D01*
X229798833Y-156041561D02*
X229798833Y-156574895D01*
X230141690Y-156041561D02*
X230141690Y-156460609D01*
X230141690Y-156460609D02*
X230103595Y-156536800D01*
X230103595Y-156536800D02*
X230027405Y-156574895D01*
X230027405Y-156574895D02*
X229913119Y-156574895D01*
X229913119Y-156574895D02*
X229836928Y-156536800D01*
X229836928Y-156536800D02*
X229798833Y-156498704D01*
X229417880Y-156041561D02*
X229417880Y-156574895D01*
X229417880Y-156117752D02*
X229379785Y-156079657D01*
X229379785Y-156079657D02*
X229303595Y-156041561D01*
X229303595Y-156041561D02*
X229189309Y-156041561D01*
X229189309Y-156041561D02*
X229113118Y-156079657D01*
X229113118Y-156079657D02*
X229075023Y-156155847D01*
X229075023Y-156155847D02*
X229075023Y-156574895D01*
X228351213Y-156536800D02*
X228427404Y-156574895D01*
X228427404Y-156574895D02*
X228579785Y-156574895D01*
X228579785Y-156574895D02*
X228655975Y-156536800D01*
X228655975Y-156536800D02*
X228694070Y-156498704D01*
X228694070Y-156498704D02*
X228732166Y-156422514D01*
X228732166Y-156422514D02*
X228732166Y-156193942D01*
X228732166Y-156193942D02*
X228694070Y-156117752D01*
X228694070Y-156117752D02*
X228655975Y-156079657D01*
X228655975Y-156079657D02*
X228579785Y-156041561D01*
X228579785Y-156041561D02*
X228427404Y-156041561D01*
X228427404Y-156041561D02*
X228351213Y-156079657D01*
X228122642Y-156041561D02*
X227817880Y-156041561D01*
X228008356Y-155774895D02*
X228008356Y-156460609D01*
X228008356Y-156460609D02*
X227970261Y-156536800D01*
X227970261Y-156536800D02*
X227894071Y-156574895D01*
X227894071Y-156574895D02*
X227817880Y-156574895D01*
X227551213Y-156574895D02*
X227551213Y-156041561D01*
X227551213Y-155774895D02*
X227589309Y-155812990D01*
X227589309Y-155812990D02*
X227551213Y-155851085D01*
X227551213Y-155851085D02*
X227513118Y-155812990D01*
X227513118Y-155812990D02*
X227551213Y-155774895D01*
X227551213Y-155774895D02*
X227551213Y-155851085D01*
X227055976Y-156574895D02*
X227132166Y-156536800D01*
X227132166Y-156536800D02*
X227170261Y-156498704D01*
X227170261Y-156498704D02*
X227208357Y-156422514D01*
X227208357Y-156422514D02*
X227208357Y-156193942D01*
X227208357Y-156193942D02*
X227170261Y-156117752D01*
X227170261Y-156117752D02*
X227132166Y-156079657D01*
X227132166Y-156079657D02*
X227055976Y-156041561D01*
X227055976Y-156041561D02*
X226941690Y-156041561D01*
X226941690Y-156041561D02*
X226865499Y-156079657D01*
X226865499Y-156079657D02*
X226827404Y-156117752D01*
X226827404Y-156117752D02*
X226789309Y-156193942D01*
X226789309Y-156193942D02*
X226789309Y-156422514D01*
X226789309Y-156422514D02*
X226827404Y-156498704D01*
X226827404Y-156498704D02*
X226865499Y-156536800D01*
X226865499Y-156536800D02*
X226941690Y-156574895D01*
X226941690Y-156574895D02*
X227055976Y-156574895D01*
X226446451Y-156041561D02*
X226446451Y-156574895D01*
X226446451Y-156117752D02*
X226408356Y-156079657D01*
X226408356Y-156079657D02*
X226332166Y-156041561D01*
X226332166Y-156041561D02*
X226217880Y-156041561D01*
X226217880Y-156041561D02*
X226141689Y-156079657D01*
X226141689Y-156079657D02*
X226103594Y-156155847D01*
X226103594Y-156155847D02*
X226103594Y-156574895D01*
X225798832Y-156879657D02*
X225760737Y-156841561D01*
X225760737Y-156841561D02*
X225684546Y-156727276D01*
X225684546Y-156727276D02*
X225646451Y-156651085D01*
X225646451Y-156651085D02*
X225608356Y-156536800D01*
X225608356Y-156536800D02*
X225570260Y-156346323D01*
X225570260Y-156346323D02*
X225570260Y-156193942D01*
X225570260Y-156193942D02*
X225608356Y-156003466D01*
X225608356Y-156003466D02*
X225646451Y-155889180D01*
X225646451Y-155889180D02*
X225684546Y-155812990D01*
X225684546Y-155812990D02*
X225760737Y-155698704D01*
X225760737Y-155698704D02*
X225798832Y-155660609D01*
X236584895Y-98710952D02*
X235784895Y-98710952D01*
X235784895Y-98710952D02*
X235784895Y-99015714D01*
X235784895Y-99015714D02*
X235822990Y-99091904D01*
X235822990Y-99091904D02*
X235861085Y-99129999D01*
X235861085Y-99129999D02*
X235937276Y-99168095D01*
X235937276Y-99168095D02*
X236051561Y-99168095D01*
X236051561Y-99168095D02*
X236127752Y-99129999D01*
X236127752Y-99129999D02*
X236165847Y-99091904D01*
X236165847Y-99091904D02*
X236203942Y-99015714D01*
X236203942Y-99015714D02*
X236203942Y-98710952D01*
X235861085Y-99472856D02*
X235822990Y-99510952D01*
X235822990Y-99510952D02*
X235784895Y-99587142D01*
X235784895Y-99587142D02*
X235784895Y-99777618D01*
X235784895Y-99777618D02*
X235822990Y-99853809D01*
X235822990Y-99853809D02*
X235861085Y-99891904D01*
X235861085Y-99891904D02*
X235937276Y-99929999D01*
X235937276Y-99929999D02*
X236013466Y-99929999D01*
X236013466Y-99929999D02*
X236127752Y-99891904D01*
X236127752Y-99891904D02*
X236584895Y-99434761D01*
X236584895Y-99434761D02*
X236584895Y-99929999D01*
X236165847Y-101149047D02*
X236165847Y-100882381D01*
X236584895Y-100882381D02*
X235784895Y-100882381D01*
X235784895Y-100882381D02*
X235784895Y-101263333D01*
X235784895Y-101491904D02*
X235784895Y-101987142D01*
X235784895Y-101987142D02*
X236089657Y-101720476D01*
X236089657Y-101720476D02*
X236089657Y-101834761D01*
X236089657Y-101834761D02*
X236127752Y-101910952D01*
X236127752Y-101910952D02*
X236165847Y-101949047D01*
X236165847Y-101949047D02*
X236242038Y-101987142D01*
X236242038Y-101987142D02*
X236432514Y-101987142D01*
X236432514Y-101987142D02*
X236508704Y-101949047D01*
X236508704Y-101949047D02*
X236546800Y-101910952D01*
X236546800Y-101910952D02*
X236584895Y-101834761D01*
X236584895Y-101834761D02*
X236584895Y-101606190D01*
X236584895Y-101606190D02*
X236546800Y-101529999D01*
X236546800Y-101529999D02*
X236508704Y-101491904D01*
D12*
G36*
X229693552Y-153245000D02*
G01*
X229343552Y-153245000D01*
X229343552Y-152716702D01*
X228821360Y-152716702D01*
X228821360Y-152541580D01*
X228996238Y-152541580D01*
X229343552Y-152541580D01*
X229343552Y-152200861D01*
X228996238Y-152200861D01*
X228996238Y-152541580D01*
X228821360Y-152541580D01*
X228646238Y-152541580D01*
X228646238Y-152197686D01*
X228821360Y-152197686D01*
X228821360Y-152025739D01*
X229693552Y-152025739D01*
X229693552Y-153245000D01*
G37*
G36*
X228293552Y-153245000D02*
G01*
X228293552Y-153069877D01*
X227940132Y-153069877D01*
X227940132Y-152544755D01*
X228116964Y-152544755D01*
X228116964Y-152369633D01*
X227940132Y-152369633D01*
X227940132Y-152025739D01*
X227590132Y-152025739D01*
X227590132Y-153069877D01*
X227246238Y-153069877D01*
X227246238Y-153245000D01*
X228293552Y-153245000D01*
G37*
G36*
X229693552Y-154925000D02*
G01*
X229693552Y-153705739D01*
X228646238Y-153705739D01*
X228646238Y-153880861D01*
X229343552Y-153880861D01*
X229343552Y-154221580D01*
X228990132Y-154221580D01*
X228990132Y-154396702D01*
X229343552Y-154396702D01*
X229343552Y-154925000D01*
X229693552Y-154925000D01*
G37*
G36*
X227596238Y-153877686D02*
G01*
X227769895Y-153877686D01*
X227769895Y-154049633D01*
X227943552Y-154049633D01*
X227943552Y-154224755D01*
X227596238Y-154224755D01*
X227596238Y-154405983D01*
X227943552Y-154405983D01*
X227943552Y-154224755D01*
X228293552Y-154224755D01*
X228293552Y-154581106D01*
X227596238Y-154581106D01*
X227596238Y-154925000D01*
X227246238Y-154925000D01*
X227246238Y-154581106D01*
X227066475Y-154581106D01*
X227066475Y-154405983D01*
X227246238Y-154405983D01*
X227246238Y-153705739D01*
X227596238Y-153705739D01*
X227596238Y-153877686D01*
G37*
G36*
X226741106Y-87205000D02*
G01*
X226741106Y-87029877D01*
X226913053Y-87029877D01*
X226913053Y-86857930D01*
X226563053Y-86857930D01*
X226563053Y-87029877D01*
X226387686Y-87029877D01*
X226387686Y-86160861D01*
X226563053Y-86160861D01*
X226563053Y-85985739D01*
X225865739Y-85985739D01*
X225865739Y-86160861D01*
X226037686Y-86160861D01*
X226037686Y-87029877D01*
X226209633Y-87029877D01*
X226209633Y-87205000D01*
X226741106Y-87205000D01*
G37*
G36*
X225341106Y-86501580D02*
G01*
X225513053Y-86501580D01*
X225513053Y-87029877D01*
X225341106Y-87029877D01*
X225341106Y-87205000D01*
X224637686Y-87205000D01*
X224637686Y-87029877D01*
X224815739Y-87029877D01*
X225163053Y-87029877D01*
X225163053Y-86504755D01*
X224815739Y-86504755D01*
X224815739Y-87029877D01*
X224637686Y-87029877D01*
X224465739Y-87029877D01*
X224465739Y-86501580D01*
X224637686Y-86501580D01*
X224637686Y-86329633D01*
X225341106Y-86329633D01*
X225341106Y-86501580D01*
G37*
G36*
X223065739Y-86329633D02*
G01*
X223065739Y-87020596D01*
X223237686Y-87020596D01*
X223237686Y-87205000D01*
X223409633Y-87205000D01*
X223409633Y-87376946D01*
X224113053Y-87376946D01*
X224113053Y-87201824D01*
X223587686Y-87201824D01*
X223587686Y-87020596D01*
X223938175Y-87020596D01*
X223938175Y-86861106D01*
X224113053Y-86861106D01*
X224113053Y-86329633D01*
X223763053Y-86329633D01*
X223763053Y-86845474D01*
X223409633Y-86845474D01*
X223409633Y-86329633D01*
X223065739Y-86329633D01*
G37*
G36*
X222713053Y-87205000D02*
G01*
X222713053Y-85985739D01*
X222363053Y-85985739D01*
X222363053Y-86329633D01*
X222185000Y-86329633D01*
X222185000Y-86157686D01*
X222009877Y-86157686D01*
X222009877Y-85985739D01*
X221665739Y-85985739D01*
X221665739Y-86160861D01*
X221837686Y-86160861D01*
X221837686Y-86329633D01*
X222009877Y-86329633D01*
X222009877Y-86501580D01*
X222185000Y-86501580D01*
X222185000Y-86689159D01*
X222009877Y-86689159D01*
X222009877Y-86861106D01*
X221837686Y-86861106D01*
X221837686Y-87029877D01*
X221665739Y-87029877D01*
X221665739Y-87205000D01*
X222009877Y-87205000D01*
X222009877Y-87029877D01*
X222185000Y-87029877D01*
X222185000Y-86861106D01*
X222363053Y-86861106D01*
X222363053Y-87205000D01*
X222713053Y-87205000D01*
G37*
G36*
X220265739Y-85985739D02*
G01*
X220265739Y-86160861D01*
X220963053Y-86160861D01*
X220963053Y-86501580D01*
X220609633Y-86501580D01*
X220609633Y-86676702D01*
X220963053Y-86676702D01*
X220963053Y-87029877D01*
X220265739Y-87029877D01*
X220265739Y-87205000D01*
X221313053Y-87205000D01*
X221313053Y-85985739D01*
X220265739Y-85985739D01*
G37*
G36*
X219559633Y-87205000D02*
G01*
X219559633Y-86677435D01*
X219741106Y-86677435D01*
X219741106Y-86517212D01*
X219913053Y-86517212D01*
X219913053Y-85985739D01*
X219563053Y-85985739D01*
X219563053Y-86501580D01*
X219209633Y-86501580D01*
X219209633Y-85985739D01*
X218865739Y-85985739D01*
X218865739Y-86517212D01*
X219037686Y-86517212D01*
X219037686Y-86677435D01*
X219209633Y-86677435D01*
X219209633Y-87205000D01*
X219559633Y-87205000D01*
G37*
G36*
X226913053Y-88885000D02*
G01*
X226563053Y-88885000D01*
X226563053Y-88356702D01*
X226040861Y-88356702D01*
X226040861Y-88181580D01*
X226215739Y-88181580D01*
X226563053Y-88181580D01*
X226563053Y-87840861D01*
X226215739Y-87840861D01*
X226215739Y-88181580D01*
X226040861Y-88181580D01*
X225865739Y-88181580D01*
X225865739Y-87837686D01*
X226040861Y-87837686D01*
X226040861Y-87665739D01*
X226913053Y-87665739D01*
X226913053Y-88885000D01*
G37*
G36*
X225341106Y-87837686D02*
G01*
X225513053Y-87837686D01*
X225513053Y-88713053D01*
X225341106Y-88713053D01*
X225341106Y-88885000D01*
X224637686Y-88885000D01*
X224637686Y-88713053D01*
X224465739Y-88713053D01*
X224465739Y-88709877D01*
X224815739Y-88709877D01*
X225163053Y-88709877D01*
X225163053Y-87840861D01*
X224815739Y-87840861D01*
X224815739Y-88709877D01*
X224465739Y-88709877D01*
X224465739Y-87837686D01*
X224637686Y-87837686D01*
X224637686Y-87665739D01*
X225341106Y-87665739D01*
X225341106Y-87837686D01*
G37*
G36*
X224113053Y-88885000D02*
G01*
X223763053Y-88885000D01*
X223763053Y-88525474D01*
X223587686Y-88525474D01*
X223587686Y-88709877D01*
X223409877Y-88709877D01*
X223409877Y-88885000D01*
X223065739Y-88885000D01*
X223065739Y-88709877D01*
X223237686Y-88709877D01*
X223237686Y-88525474D01*
X223409877Y-88525474D01*
X223409877Y-88353527D01*
X223237686Y-88353527D01*
X223237686Y-88181580D01*
X223409877Y-88181580D01*
X223763053Y-88181580D01*
X223763053Y-87840861D01*
X223409877Y-87840861D01*
X223409877Y-88181580D01*
X223237686Y-88181580D01*
X223065739Y-88181580D01*
X223065739Y-87837686D01*
X223237686Y-87837686D01*
X223237686Y-87665739D01*
X224113053Y-87665739D01*
X224113053Y-88885000D01*
G37*
G36*
X222359633Y-88885000D02*
G01*
X222359633Y-87840861D01*
X222713053Y-87840861D01*
X222713053Y-87665739D01*
X221665739Y-87665739D01*
X221665739Y-87840861D01*
X222009633Y-87840861D01*
X222009633Y-88885000D01*
X222359633Y-88885000D01*
G37*
G36*
X219913053Y-88885000D02*
G01*
X219913053Y-88535000D01*
X219741106Y-88535000D01*
X219741106Y-88365983D01*
X219391106Y-88365983D01*
X219391106Y-88535000D01*
X219563053Y-88535000D01*
X219563053Y-88709877D01*
X218865739Y-88709877D01*
X218865739Y-88885000D01*
X219913053Y-88885000D01*
G37*
G36*
X219387686Y-88356702D02*
G01*
X219387686Y-88181580D01*
X219215739Y-88181580D01*
X219215739Y-87840861D01*
X219563053Y-87840861D01*
X219563053Y-88012808D01*
X219913053Y-88012808D01*
X219913053Y-87837686D01*
X219741106Y-87837686D01*
X219741106Y-87665739D01*
X219037686Y-87665739D01*
X219037686Y-87837686D01*
X218865739Y-87837686D01*
X218865739Y-88181580D01*
X219037686Y-88181580D01*
X219037686Y-88356702D01*
X219387686Y-88356702D01*
G37*
D13*
X157740237Y-102269657D02*
X157778332Y-102231561D01*
X157778332Y-102231561D02*
X157854523Y-102117276D01*
X157854523Y-102117276D02*
X157892618Y-102041085D01*
X157892618Y-102041085D02*
X157930713Y-101926800D01*
X157930713Y-101926800D02*
X157968808Y-101736323D01*
X157968808Y-101736323D02*
X157968808Y-101583942D01*
X157968808Y-101583942D02*
X157930713Y-101393466D01*
X157930713Y-101393466D02*
X157892618Y-101279180D01*
X157892618Y-101279180D02*
X157854523Y-101202990D01*
X157854523Y-101202990D02*
X157778332Y-101088704D01*
X157778332Y-101088704D02*
X157740237Y-101050609D01*
X157168809Y-101545847D02*
X157054523Y-101583942D01*
X157054523Y-101583942D02*
X157016428Y-101622038D01*
X157016428Y-101622038D02*
X156978332Y-101698228D01*
X156978332Y-101698228D02*
X156978332Y-101812514D01*
X156978332Y-101812514D02*
X157016428Y-101888704D01*
X157016428Y-101888704D02*
X157054523Y-101926800D01*
X157054523Y-101926800D02*
X157130713Y-101964895D01*
X157130713Y-101964895D02*
X157435475Y-101964895D01*
X157435475Y-101964895D02*
X157435475Y-101164895D01*
X157435475Y-101164895D02*
X157168809Y-101164895D01*
X157168809Y-101164895D02*
X157092618Y-101202990D01*
X157092618Y-101202990D02*
X157054523Y-101241085D01*
X157054523Y-101241085D02*
X157016428Y-101317276D01*
X157016428Y-101317276D02*
X157016428Y-101393466D01*
X157016428Y-101393466D02*
X157054523Y-101469657D01*
X157054523Y-101469657D02*
X157092618Y-101507752D01*
X157092618Y-101507752D02*
X157168809Y-101545847D01*
X157168809Y-101545847D02*
X157435475Y-101545847D01*
X156711666Y-101164895D02*
X156216428Y-101164895D01*
X156216428Y-101164895D02*
X156483094Y-101469657D01*
X156483094Y-101469657D02*
X156368809Y-101469657D01*
X156368809Y-101469657D02*
X156292618Y-101507752D01*
X156292618Y-101507752D02*
X156254523Y-101545847D01*
X156254523Y-101545847D02*
X156216428Y-101622038D01*
X156216428Y-101622038D02*
X156216428Y-101812514D01*
X156216428Y-101812514D02*
X156254523Y-101888704D01*
X156254523Y-101888704D02*
X156292618Y-101926800D01*
X156292618Y-101926800D02*
X156368809Y-101964895D01*
X156368809Y-101964895D02*
X156597380Y-101964895D01*
X156597380Y-101964895D02*
X156673571Y-101926800D01*
X156673571Y-101926800D02*
X156711666Y-101888704D01*
X155949761Y-102269657D02*
X155911666Y-102231561D01*
X155911666Y-102231561D02*
X155835475Y-102117276D01*
X155835475Y-102117276D02*
X155797380Y-102041085D01*
X155797380Y-102041085D02*
X155759285Y-101926800D01*
X155759285Y-101926800D02*
X155721189Y-101736323D01*
X155721189Y-101736323D02*
X155721189Y-101583942D01*
X155721189Y-101583942D02*
X155759285Y-101393466D01*
X155759285Y-101393466D02*
X155797380Y-101279180D01*
X155797380Y-101279180D02*
X155835475Y-101202990D01*
X155835475Y-101202990D02*
X155911666Y-101088704D01*
X155911666Y-101088704D02*
X155949761Y-101050609D01*
D12*
G36*
X228118053Y-141385000D02*
G01*
X227768053Y-141385000D01*
X227768053Y-141025474D01*
X227592686Y-141025474D01*
X227592686Y-141209877D01*
X227414877Y-141209877D01*
X227414877Y-141385000D01*
X227070739Y-141385000D01*
X227070739Y-141209877D01*
X227242686Y-141209877D01*
X227242686Y-141025474D01*
X227414877Y-141025474D01*
X227414877Y-140853527D01*
X227242686Y-140853527D01*
X227242686Y-140681580D01*
X227414877Y-140681580D01*
X227768053Y-140681580D01*
X227768053Y-140340861D01*
X227414877Y-140340861D01*
X227414877Y-140681580D01*
X227242686Y-140681580D01*
X227070739Y-140681580D01*
X227070739Y-140337686D01*
X227242686Y-140337686D01*
X227242686Y-140165739D01*
X228118053Y-140165739D01*
X228118053Y-141385000D01*
G37*
G36*
X225842686Y-140165739D02*
G01*
X225842686Y-140340861D01*
X226024159Y-140340861D01*
X226024159Y-141209877D01*
X225842686Y-141209877D01*
X225842686Y-141385000D01*
X226546106Y-141385000D01*
X226546106Y-141209877D01*
X226374159Y-141209877D01*
X226374159Y-140340861D01*
X226546106Y-140340861D01*
X226546106Y-140165739D01*
X225842686Y-140165739D01*
G37*
G36*
X225146106Y-141385000D02*
G01*
X225146106Y-141213053D01*
X225318053Y-141213053D01*
X225318053Y-140337686D01*
X225146106Y-140337686D01*
X225146106Y-140165739D01*
X224442686Y-140165739D01*
X224442686Y-140337686D01*
X224270739Y-140337686D01*
X224270739Y-140512808D01*
X224620739Y-140512808D01*
X224620739Y-140340861D01*
X224968053Y-140340861D01*
X224968053Y-141209877D01*
X224620739Y-141209877D01*
X224620739Y-140856702D01*
X224794396Y-140856702D01*
X224794396Y-140681580D01*
X224270739Y-140681580D01*
X224270739Y-141213053D01*
X224442686Y-141213053D01*
X224442686Y-141385000D01*
X225146106Y-141385000D01*
G37*
G36*
X223918053Y-141385000D02*
G01*
X223918053Y-140165739D01*
X223568053Y-140165739D01*
X223568053Y-140681580D01*
X223220739Y-140681580D01*
X223220739Y-140165739D01*
X222870739Y-140165739D01*
X222870739Y-141385000D01*
X223220739Y-141385000D01*
X223220739Y-140856702D01*
X223568053Y-140856702D01*
X223568053Y-141385000D01*
X223918053Y-141385000D01*
G37*
G36*
X222164633Y-141385000D02*
G01*
X222164633Y-140340861D01*
X222518053Y-140340861D01*
X222518053Y-140165739D01*
X221470739Y-140165739D01*
X221470739Y-140340861D01*
X221814633Y-140340861D01*
X221814633Y-141385000D01*
X222164633Y-141385000D01*
G37*
G36*
X158073053Y-98635000D02*
G01*
X157723053Y-98635000D01*
X157723053Y-98106702D01*
X157200861Y-98106702D01*
X157200861Y-97931580D01*
X157375739Y-97931580D01*
X157723053Y-97931580D01*
X157723053Y-97590861D01*
X157375739Y-97590861D01*
X157375739Y-97931580D01*
X157200861Y-97931580D01*
X157025739Y-97931580D01*
X157025739Y-97587686D01*
X157200861Y-97587686D01*
X157200861Y-97415739D01*
X158073053Y-97415739D01*
X158073053Y-98635000D01*
G37*
G36*
X156673053Y-98635000D02*
G01*
X156673053Y-98285000D01*
X156501106Y-98285000D01*
X156501106Y-98115983D01*
X156151106Y-98115983D01*
X156151106Y-98285000D01*
X156323053Y-98285000D01*
X156323053Y-98459877D01*
X155625739Y-98459877D01*
X155625739Y-98635000D01*
X156673053Y-98635000D01*
G37*
G36*
X156147686Y-98106702D02*
G01*
X156147686Y-97931580D01*
X155975739Y-97931580D01*
X155975739Y-97590861D01*
X156323053Y-97590861D01*
X156323053Y-97762808D01*
X156673053Y-97762808D01*
X156673053Y-97587686D01*
X156501106Y-97587686D01*
X156501106Y-97415739D01*
X155797686Y-97415739D01*
X155797686Y-97587686D01*
X155625739Y-97587686D01*
X155625739Y-97931580D01*
X155797686Y-97931580D01*
X155797686Y-98106702D01*
X156147686Y-98106702D01*
G37*
G36*
X158073053Y-100315000D02*
G01*
X158073053Y-99095739D01*
X157025739Y-99095739D01*
X157025739Y-99270861D01*
X157723053Y-99270861D01*
X157723053Y-99611580D01*
X157369633Y-99611580D01*
X157369633Y-99786702D01*
X157723053Y-99786702D01*
X157723053Y-100315000D01*
X158073053Y-100315000D01*
G37*
G36*
X156501106Y-100315000D02*
G01*
X156501106Y-100139877D01*
X156673053Y-100139877D01*
X156673053Y-99967930D01*
X156323053Y-99967930D01*
X156323053Y-100139877D01*
X155975739Y-100139877D01*
X155975739Y-99786702D01*
X156323053Y-99786702D01*
X156323053Y-99611580D01*
X155975739Y-99611580D01*
X155975739Y-99270861D01*
X156323053Y-99270861D01*
X156323053Y-99442808D01*
X156673053Y-99442808D01*
X156673053Y-99267686D01*
X156501106Y-99267686D01*
X156501106Y-99095739D01*
X155797686Y-99095739D01*
X155797686Y-99267686D01*
X155625739Y-99267686D01*
X155625739Y-99611580D01*
X155797686Y-99611580D01*
X155797686Y-99795983D01*
X155625739Y-99795983D01*
X155625739Y-100139877D01*
X155797686Y-100139877D01*
X155797686Y-100315000D01*
X156501106Y-100315000D01*
G37*
D13*
X235822990Y-109880476D02*
X235784895Y-109804286D01*
X235784895Y-109804286D02*
X235784895Y-109690000D01*
X235784895Y-109690000D02*
X235822990Y-109575714D01*
X235822990Y-109575714D02*
X235899180Y-109499524D01*
X235899180Y-109499524D02*
X235975371Y-109461429D01*
X235975371Y-109461429D02*
X236127752Y-109423333D01*
X236127752Y-109423333D02*
X236242038Y-109423333D01*
X236242038Y-109423333D02*
X236394419Y-109461429D01*
X236394419Y-109461429D02*
X236470609Y-109499524D01*
X236470609Y-109499524D02*
X236546800Y-109575714D01*
X236546800Y-109575714D02*
X236584895Y-109690000D01*
X236584895Y-109690000D02*
X236584895Y-109766191D01*
X236584895Y-109766191D02*
X236546800Y-109880476D01*
X236546800Y-109880476D02*
X236508704Y-109918572D01*
X236508704Y-109918572D02*
X236242038Y-109918572D01*
X236242038Y-109918572D02*
X236242038Y-109766191D01*
X236584895Y-110261429D02*
X235784895Y-110261429D01*
X235784895Y-110261429D02*
X236584895Y-110718572D01*
X236584895Y-110718572D02*
X235784895Y-110718572D01*
X236584895Y-111099524D02*
X235784895Y-111099524D01*
X235784895Y-111099524D02*
X235784895Y-111290000D01*
X235784895Y-111290000D02*
X235822990Y-111404286D01*
X235822990Y-111404286D02*
X235899180Y-111480476D01*
X235899180Y-111480476D02*
X235975371Y-111518571D01*
X235975371Y-111518571D02*
X236127752Y-111556667D01*
X236127752Y-111556667D02*
X236242038Y-111556667D01*
X236242038Y-111556667D02*
X236394419Y-111518571D01*
X236394419Y-111518571D02*
X236470609Y-111480476D01*
X236470609Y-111480476D02*
X236546800Y-111404286D01*
X236546800Y-111404286D02*
X236584895Y-111290000D01*
X236584895Y-111290000D02*
X236584895Y-111099524D01*
X238696870Y-108000952D02*
X238696870Y-107734286D01*
X239115918Y-107734286D02*
X238315918Y-107734286D01*
X238315918Y-107734286D02*
X238315918Y-108115238D01*
X239115918Y-108420000D02*
X238315918Y-108420000D01*
X239115918Y-109258095D02*
X238734965Y-108991428D01*
X239115918Y-108800952D02*
X238315918Y-108800952D01*
X238315918Y-108800952D02*
X238315918Y-109105714D01*
X238315918Y-109105714D02*
X238354013Y-109181904D01*
X238354013Y-109181904D02*
X238392108Y-109219999D01*
X238392108Y-109219999D02*
X238468299Y-109258095D01*
X238468299Y-109258095D02*
X238582584Y-109258095D01*
X238582584Y-109258095D02*
X238658775Y-109219999D01*
X238658775Y-109219999D02*
X238696870Y-109181904D01*
X238696870Y-109181904D02*
X238734965Y-109105714D01*
X238734965Y-109105714D02*
X238734965Y-108800952D01*
X238696870Y-109600952D02*
X238696870Y-109867618D01*
X239115918Y-109981904D02*
X239115918Y-109600952D01*
X239115918Y-109600952D02*
X238315918Y-109600952D01*
X238315918Y-109600952D02*
X238315918Y-109981904D01*
X238315918Y-110248571D02*
X238315918Y-110743809D01*
X238315918Y-110743809D02*
X238620680Y-110477143D01*
X238620680Y-110477143D02*
X238620680Y-110591428D01*
X238620680Y-110591428D02*
X238658775Y-110667619D01*
X238658775Y-110667619D02*
X238696870Y-110705714D01*
X238696870Y-110705714D02*
X238773061Y-110743809D01*
X238773061Y-110743809D02*
X238963537Y-110743809D01*
X238963537Y-110743809D02*
X239039727Y-110705714D01*
X239039727Y-110705714D02*
X239077823Y-110667619D01*
X239077823Y-110667619D02*
X239115918Y-110591428D01*
X239115918Y-110591428D02*
X239115918Y-110362857D01*
X239115918Y-110362857D02*
X239077823Y-110286666D01*
X239077823Y-110286666D02*
X239039727Y-110248571D01*
X240403873Y-106686667D02*
X239603873Y-106686667D01*
X239603873Y-106686667D02*
X239603873Y-106991429D01*
X239603873Y-106991429D02*
X239641968Y-107067619D01*
X239641968Y-107067619D02*
X239680063Y-107105714D01*
X239680063Y-107105714D02*
X239756254Y-107143810D01*
X239756254Y-107143810D02*
X239870539Y-107143810D01*
X239870539Y-107143810D02*
X239946730Y-107105714D01*
X239946730Y-107105714D02*
X239984825Y-107067619D01*
X239984825Y-107067619D02*
X240022920Y-106991429D01*
X240022920Y-106991429D02*
X240022920Y-106686667D01*
X239603873Y-107639048D02*
X239603873Y-107791429D01*
X239603873Y-107791429D02*
X239641968Y-107867619D01*
X239641968Y-107867619D02*
X239718158Y-107943810D01*
X239718158Y-107943810D02*
X239870539Y-107981905D01*
X239870539Y-107981905D02*
X240137206Y-107981905D01*
X240137206Y-107981905D02*
X240289587Y-107943810D01*
X240289587Y-107943810D02*
X240365778Y-107867619D01*
X240365778Y-107867619D02*
X240403873Y-107791429D01*
X240403873Y-107791429D02*
X240403873Y-107639048D01*
X240403873Y-107639048D02*
X240365778Y-107562857D01*
X240365778Y-107562857D02*
X240289587Y-107486667D01*
X240289587Y-107486667D02*
X240137206Y-107448571D01*
X240137206Y-107448571D02*
X239870539Y-107448571D01*
X239870539Y-107448571D02*
X239718158Y-107486667D01*
X239718158Y-107486667D02*
X239641968Y-107562857D01*
X239641968Y-107562857D02*
X239603873Y-107639048D01*
X240403873Y-108705714D02*
X240403873Y-108324762D01*
X240403873Y-108324762D02*
X239603873Y-108324762D01*
X240175301Y-108934285D02*
X240175301Y-109315238D01*
X240403873Y-108858095D02*
X239603873Y-109124762D01*
X239603873Y-109124762D02*
X240403873Y-109391428D01*
X240403873Y-110115238D02*
X240022920Y-109848571D01*
X240403873Y-109658095D02*
X239603873Y-109658095D01*
X239603873Y-109658095D02*
X239603873Y-109962857D01*
X239603873Y-109962857D02*
X239641968Y-110039047D01*
X239641968Y-110039047D02*
X239680063Y-110077142D01*
X239680063Y-110077142D02*
X239756254Y-110115238D01*
X239756254Y-110115238D02*
X239870539Y-110115238D01*
X239870539Y-110115238D02*
X239946730Y-110077142D01*
X239946730Y-110077142D02*
X239984825Y-110039047D01*
X239984825Y-110039047D02*
X240022920Y-109962857D01*
X240022920Y-109962857D02*
X240022920Y-109658095D01*
X240403873Y-110458095D02*
X239603873Y-110458095D01*
X239603873Y-110724761D02*
X239603873Y-111181904D01*
X240403873Y-110953332D02*
X239603873Y-110953332D01*
X240022920Y-111600952D02*
X240403873Y-111600952D01*
X239603873Y-111334285D02*
X240022920Y-111600952D01*
X240022920Y-111600952D02*
X239603873Y-111867618D01*
D14*
X177060120Y-123040626D02*
X174619280Y-123040626D01*
X174619280Y-122633819D01*
X176246507Y-122633819D01*
X176246507Y-121820206D01*
X175432893Y-121820206D01*
X175432893Y-121413399D01*
X176246507Y-121413399D01*
X176246507Y-120599785D01*
X174619280Y-120599785D01*
X174619280Y-120192978D01*
X177060120Y-120192978D01*
X177060120Y-123040626D01*
G36*
X177060120Y-123040626D02*
G01*
X174619280Y-123040626D01*
X174619280Y-122633819D01*
X176246507Y-122633819D01*
X176246507Y-121820206D01*
X175432893Y-121820206D01*
X175432893Y-121413399D01*
X176246507Y-121413399D01*
X176246507Y-120599785D01*
X174619280Y-120599785D01*
X174619280Y-120192978D01*
X177060120Y-120192978D01*
X177060120Y-123040626D01*
G37*
X172585246Y-121413399D02*
X173398859Y-121413399D01*
X173398859Y-120192978D01*
X174212473Y-120192978D01*
X174212473Y-121413399D01*
X173805666Y-121413399D01*
X173805666Y-121820206D01*
X173398859Y-121820206D01*
X173398859Y-123040626D01*
X172585246Y-123040626D01*
X172585246Y-121820206D01*
X172178439Y-121820206D01*
X172178439Y-121413399D01*
X171771632Y-121413399D01*
X171771632Y-120192978D01*
X172585246Y-120192978D01*
X172585246Y-121413399D01*
G36*
X172585246Y-121413399D02*
G01*
X173398859Y-121413399D01*
X173398859Y-120192978D01*
X174212473Y-120192978D01*
X174212473Y-121413399D01*
X173805666Y-121413399D01*
X173805666Y-121820206D01*
X173398859Y-121820206D01*
X173398859Y-123040626D01*
X172585246Y-123040626D01*
X172585246Y-121820206D01*
X172178439Y-121820206D01*
X172178439Y-121413399D01*
X171771632Y-121413399D01*
X171771632Y-120192978D01*
X172585246Y-120192978D01*
X172585246Y-121413399D01*
G37*
X187637097Y-120599785D02*
X187230291Y-120599785D01*
X187230291Y-122633819D01*
X187637097Y-122633819D01*
X187637097Y-122227012D01*
X188450711Y-122227012D01*
X188450711Y-122633819D01*
X188043904Y-122633819D01*
X188043904Y-123040626D01*
X186823484Y-123040626D01*
X186823484Y-122633819D01*
X186416677Y-122633819D01*
X186416677Y-120599785D01*
X186009870Y-120599785D01*
X186009870Y-120192978D01*
X187637097Y-120192978D01*
X187637097Y-120599785D01*
G36*
X187637097Y-120599785D02*
G01*
X187230291Y-120599785D01*
X187230291Y-122633819D01*
X187637097Y-122633819D01*
X187637097Y-122227012D01*
X188450711Y-122227012D01*
X188450711Y-122633819D01*
X188043904Y-122633819D01*
X188043904Y-123040626D01*
X186823484Y-123040626D01*
X186823484Y-122633819D01*
X186416677Y-122633819D01*
X186416677Y-120599785D01*
X186009870Y-120599785D01*
X186009870Y-120192978D01*
X187637097Y-120192978D01*
X187637097Y-120599785D01*
G37*
X181128189Y-122227012D02*
X181941802Y-122227012D01*
X181941802Y-121006592D01*
X182755416Y-121006592D01*
X182755416Y-122227012D01*
X182348609Y-122227012D01*
X182348609Y-122633819D01*
X181534995Y-122633819D01*
X181534995Y-123040626D01*
X182755416Y-123040626D01*
X182755416Y-123447433D01*
X181128189Y-123447433D01*
X181128189Y-123040626D01*
X180721382Y-123040626D01*
X180721382Y-122633819D01*
X180314575Y-122633819D01*
X180314575Y-121006592D01*
X181128189Y-121006592D01*
X181128189Y-122227012D01*
G36*
X181128189Y-122227012D02*
G01*
X181941802Y-122227012D01*
X181941802Y-121006592D01*
X182755416Y-121006592D01*
X182755416Y-122227012D01*
X182348609Y-122227012D01*
X182348609Y-122633819D01*
X181534995Y-122633819D01*
X181534995Y-123040626D01*
X182755416Y-123040626D01*
X182755416Y-123447433D01*
X181128189Y-123447433D01*
X181128189Y-123040626D01*
X180721382Y-123040626D01*
X180721382Y-122633819D01*
X180314575Y-122633819D01*
X180314575Y-121006592D01*
X181128189Y-121006592D01*
X181128189Y-122227012D01*
G37*
X185603063Y-121413399D02*
X185603063Y-122633819D01*
X185196257Y-122633819D01*
X185196257Y-123040626D01*
X183569029Y-123040626D01*
X183569029Y-122633819D01*
X183162223Y-122633819D01*
X183162223Y-121413399D01*
X183569029Y-121413399D01*
X183975836Y-121413399D01*
X183975836Y-122633819D01*
X184789450Y-122633819D01*
X184789450Y-121413399D01*
X183975836Y-121413399D01*
X183569029Y-121413399D01*
X183569029Y-121006592D01*
X185196257Y-121006592D01*
X185196257Y-121413399D01*
X185603063Y-121413399D01*
G36*
X185603063Y-121413399D02*
G01*
X185603063Y-122633819D01*
X185196257Y-122633819D01*
X185196257Y-123040626D01*
X183569029Y-123040626D01*
X183569029Y-122633819D01*
X183162223Y-122633819D01*
X183162223Y-121413399D01*
X183569029Y-121413399D01*
X183975836Y-121413399D01*
X183975836Y-122633819D01*
X184789450Y-122633819D01*
X184789450Y-121413399D01*
X183975836Y-121413399D01*
X183569029Y-121413399D01*
X183569029Y-121006592D01*
X185196257Y-121006592D01*
X185196257Y-121413399D01*
X185603063Y-121413399D01*
G37*
X177060120Y-117345331D02*
X177466927Y-117345331D01*
X177466927Y-117752137D01*
X177873734Y-117752137D01*
X177873734Y-118158944D01*
X177060120Y-118158944D01*
X177060120Y-118565751D01*
X177873734Y-118565751D01*
X177873734Y-118158944D01*
X178687348Y-118158944D01*
X178687348Y-118972558D01*
X177060120Y-118972558D01*
X177060120Y-119786171D01*
X176246507Y-119786171D01*
X176246507Y-118972558D01*
X175839700Y-118972558D01*
X175839700Y-118565751D01*
X176246507Y-118565751D01*
X176246507Y-116938524D01*
X177060120Y-116938524D01*
X177060120Y-117345331D01*
G36*
X177060120Y-117345331D02*
G01*
X177466927Y-117345331D01*
X177466927Y-117752137D01*
X177873734Y-117752137D01*
X177873734Y-118158944D01*
X177060120Y-118158944D01*
X177060120Y-118565751D01*
X177873734Y-118565751D01*
X177873734Y-118158944D01*
X178687348Y-118158944D01*
X178687348Y-118972558D01*
X177060120Y-118972558D01*
X177060120Y-119786171D01*
X176246507Y-119786171D01*
X176246507Y-118972558D01*
X175839700Y-118972558D01*
X175839700Y-118565751D01*
X176246507Y-118565751D01*
X176246507Y-116938524D01*
X177060120Y-116938524D01*
X177060120Y-117345331D01*
G37*
X183975836Y-117345331D02*
X184382643Y-117345331D01*
X184382643Y-119379365D01*
X183975836Y-119379365D01*
X183975836Y-119786171D01*
X182348609Y-119786171D01*
X182348609Y-119379365D01*
X181941802Y-119379365D01*
X181941802Y-118972558D01*
X182755416Y-118972558D01*
X182755416Y-119379365D01*
X183569029Y-119379365D01*
X183569029Y-117345331D01*
X182755416Y-117345331D01*
X182755416Y-117752137D01*
X181941802Y-117752137D01*
X181941802Y-117345331D01*
X182348609Y-117345331D01*
X182348609Y-116938524D01*
X183975836Y-116938524D01*
X183975836Y-117345331D01*
G36*
X183975836Y-117345331D02*
G01*
X184382643Y-117345331D01*
X184382643Y-119379365D01*
X183975836Y-119379365D01*
X183975836Y-119786171D01*
X182348609Y-119786171D01*
X182348609Y-119379365D01*
X181941802Y-119379365D01*
X181941802Y-118972558D01*
X182755416Y-118972558D01*
X182755416Y-119379365D01*
X183569029Y-119379365D01*
X183569029Y-117345331D01*
X182755416Y-117345331D01*
X182755416Y-117752137D01*
X181941802Y-117752137D01*
X181941802Y-117345331D01*
X182348609Y-117345331D01*
X182348609Y-116938524D01*
X183975836Y-116938524D01*
X183975836Y-117345331D01*
G37*
X181534995Y-119379365D02*
X181128189Y-119379365D01*
X181128189Y-119786171D01*
X179500961Y-119786171D01*
X179500961Y-119379365D01*
X179094154Y-119379365D01*
X179094154Y-118565751D01*
X179500961Y-118565751D01*
X179907768Y-118565751D01*
X179907768Y-119379365D01*
X180721382Y-119379365D01*
X180721382Y-118565751D01*
X179907768Y-118565751D01*
X179500961Y-118565751D01*
X179500961Y-118158944D01*
X180721382Y-118158944D01*
X180721382Y-117345331D01*
X179907768Y-117345331D01*
X179907768Y-117752137D01*
X179094154Y-117752137D01*
X179094154Y-117345331D01*
X179500961Y-117345331D01*
X179500961Y-116938524D01*
X181128189Y-116938524D01*
X181128189Y-117345331D01*
X181534995Y-117345331D01*
X181534995Y-118565751D01*
X181534995Y-119379365D01*
G36*
X181534995Y-119379365D02*
G01*
X181128189Y-119379365D01*
X181128189Y-119786171D01*
X179500961Y-119786171D01*
X179500961Y-119379365D01*
X179094154Y-119379365D01*
X179094154Y-118565751D01*
X179500961Y-118565751D01*
X179907768Y-118565751D01*
X179907768Y-119379365D01*
X180721382Y-119379365D01*
X180721382Y-118565751D01*
X179907768Y-118565751D01*
X179500961Y-118565751D01*
X179500961Y-118158944D01*
X180721382Y-118158944D01*
X180721382Y-117345331D01*
X179907768Y-117345331D01*
X179907768Y-117752137D01*
X179094154Y-117752137D01*
X179094154Y-117345331D01*
X179500961Y-117345331D01*
X179500961Y-116938524D01*
X181128189Y-116938524D01*
X181128189Y-117345331D01*
X181534995Y-117345331D01*
X181534995Y-118565751D01*
X181534995Y-119379365D01*
G37*
X178280541Y-120599785D02*
X178687348Y-120599785D01*
X178687348Y-121006592D01*
X179094154Y-121006592D01*
X179094154Y-120192978D01*
X179907768Y-120192978D01*
X179907768Y-123040626D01*
X179094154Y-123040626D01*
X179094154Y-122227012D01*
X178687348Y-122227012D01*
X178687348Y-122633819D01*
X178280541Y-122633819D01*
X178280541Y-123040626D01*
X177466927Y-123040626D01*
X177466927Y-122633819D01*
X177873734Y-122633819D01*
X177873734Y-122227012D01*
X178280541Y-122227012D01*
X178280541Y-121820206D01*
X178687348Y-121820206D01*
X178687348Y-121413399D01*
X178280541Y-121413399D01*
X178280541Y-121006592D01*
X177873734Y-121006592D01*
X177873734Y-120599785D01*
X177466927Y-120599785D01*
X177466927Y-120192978D01*
X178280541Y-120192978D01*
X178280541Y-120599785D01*
G36*
X178280541Y-120599785D02*
G01*
X178687348Y-120599785D01*
X178687348Y-121006592D01*
X179094154Y-121006592D01*
X179094154Y-120192978D01*
X179907768Y-120192978D01*
X179907768Y-123040626D01*
X179094154Y-123040626D01*
X179094154Y-122227012D01*
X178687348Y-122227012D01*
X178687348Y-122633819D01*
X178280541Y-122633819D01*
X178280541Y-123040626D01*
X177466927Y-123040626D01*
X177466927Y-122633819D01*
X177873734Y-122633819D01*
X177873734Y-122227012D01*
X178280541Y-122227012D01*
X178280541Y-121820206D01*
X178687348Y-121820206D01*
X178687348Y-121413399D01*
X178280541Y-121413399D01*
X178280541Y-121006592D01*
X177873734Y-121006592D01*
X177873734Y-120599785D01*
X177466927Y-120599785D01*
X177466927Y-120192978D01*
X178280541Y-120192978D01*
X178280541Y-120599785D01*
G37*
M02*
