G04 #@! TF.GenerationSoftware,KiCad,Pcbnew,(5.1.8)-1*
G04 #@! TF.CreationDate,2021-03-21T02:14:28+01:00*
G04 #@! TF.ProjectId,C64 SkeletonKey,43363420-536b-4656-9c65-746f6e4b6579,rev?*
G04 #@! TF.SameCoordinates,Original*
G04 #@! TF.FileFunction,Legend,Bot*
G04 #@! TF.FilePolarity,Positive*
%FSLAX46Y46*%
G04 Gerber Fmt 4.6, Leading zero omitted, Abs format (unit mm)*
G04 Created by KiCad (PCBNEW (5.1.8)-1) date 2021-03-21 02:14:28*
%MOMM*%
%LPD*%
G01*
G04 APERTURE LIST*
%ADD10C,0.100000*%
%ADD11C,0.120000*%
%ADD12C,0.150000*%
G04 APERTURE END LIST*
D10*
X259181238Y-85360714D02*
X259219333Y-85398809D01*
X259333619Y-85436904D01*
X259409809Y-85436904D01*
X259524095Y-85398809D01*
X259600285Y-85322619D01*
X259638380Y-85246428D01*
X259676476Y-85094047D01*
X259676476Y-84979761D01*
X259638380Y-84827380D01*
X259600285Y-84751190D01*
X259524095Y-84675000D01*
X259409809Y-84636904D01*
X259333619Y-84636904D01*
X259219333Y-84675000D01*
X259181238Y-84713095D01*
X258495523Y-84636904D02*
X258647904Y-84636904D01*
X258724095Y-84675000D01*
X258762190Y-84713095D01*
X258838380Y-84827380D01*
X258876476Y-84979761D01*
X258876476Y-85284523D01*
X258838380Y-85360714D01*
X258800285Y-85398809D01*
X258724095Y-85436904D01*
X258571714Y-85436904D01*
X258495523Y-85398809D01*
X258457428Y-85360714D01*
X258419333Y-85284523D01*
X258419333Y-85094047D01*
X258457428Y-85017857D01*
X258495523Y-84979761D01*
X258571714Y-84941666D01*
X258724095Y-84941666D01*
X258800285Y-84979761D01*
X258838380Y-85017857D01*
X258876476Y-85094047D01*
X257733619Y-84903571D02*
X257733619Y-85436904D01*
X257924095Y-84598809D02*
X258114571Y-85170238D01*
X257619333Y-85170238D01*
X256476476Y-84636904D02*
X256476476Y-85208333D01*
X256514571Y-85322619D01*
X256590761Y-85398809D01*
X256705047Y-85436904D01*
X256781238Y-85436904D01*
X255981238Y-85436904D02*
X256057428Y-85398809D01*
X256095523Y-85360714D01*
X256133619Y-85284523D01*
X256133619Y-85055952D01*
X256095523Y-84979761D01*
X256057428Y-84941666D01*
X255981238Y-84903571D01*
X255866952Y-84903571D01*
X255790761Y-84941666D01*
X255752666Y-84979761D01*
X255714571Y-85055952D01*
X255714571Y-85284523D01*
X255752666Y-85360714D01*
X255790761Y-85398809D01*
X255866952Y-85436904D01*
X255981238Y-85436904D01*
X255447904Y-84903571D02*
X255257428Y-85436904D01*
X255066952Y-84903571D02*
X255257428Y-85436904D01*
X255333619Y-85627380D01*
X255371714Y-85665476D01*
X255447904Y-85703571D01*
X254762190Y-85436904D02*
X254762190Y-84636904D01*
X254305047Y-85436904D02*
X254647904Y-84979761D01*
X254305047Y-84636904D02*
X254762190Y-85094047D01*
X253962190Y-85017857D02*
X253695523Y-85017857D01*
X253581238Y-85436904D02*
X253962190Y-85436904D01*
X253962190Y-84636904D01*
X253581238Y-84636904D01*
X253086000Y-85055952D02*
X253086000Y-85436904D01*
X253352666Y-84636904D02*
X253086000Y-85055952D01*
X252819333Y-84636904D01*
X260057428Y-87041666D02*
X260095523Y-87003571D01*
X260171714Y-86889285D01*
X260209809Y-86813095D01*
X260247904Y-86698809D01*
X260286000Y-86508333D01*
X260286000Y-86355952D01*
X260247904Y-86165476D01*
X260209809Y-86051190D01*
X260171714Y-85975000D01*
X260095523Y-85860714D01*
X260057428Y-85822619D01*
X259790761Y-86698809D02*
X259676476Y-86736904D01*
X259486000Y-86736904D01*
X259409809Y-86698809D01*
X259371714Y-86660714D01*
X259333619Y-86584523D01*
X259333619Y-86508333D01*
X259371714Y-86432142D01*
X259409809Y-86394047D01*
X259486000Y-86355952D01*
X259638380Y-86317857D01*
X259714571Y-86279761D01*
X259752666Y-86241666D01*
X259790761Y-86165476D01*
X259790761Y-86089285D01*
X259752666Y-86013095D01*
X259714571Y-85975000D01*
X259638380Y-85936904D01*
X259447904Y-85936904D01*
X259333619Y-85975000D01*
X258990761Y-86736904D02*
X258990761Y-85936904D01*
X258914571Y-86432142D02*
X258686000Y-86736904D01*
X258686000Y-86203571D02*
X258990761Y-86508333D01*
X258038380Y-86698809D02*
X258114571Y-86736904D01*
X258266952Y-86736904D01*
X258343142Y-86698809D01*
X258381238Y-86622619D01*
X258381238Y-86317857D01*
X258343142Y-86241666D01*
X258266952Y-86203571D01*
X258114571Y-86203571D01*
X258038380Y-86241666D01*
X258000285Y-86317857D01*
X258000285Y-86394047D01*
X258381238Y-86470238D01*
X257543142Y-86736904D02*
X257619333Y-86698809D01*
X257657428Y-86622619D01*
X257657428Y-85936904D01*
X256933619Y-86698809D02*
X257009809Y-86736904D01*
X257162190Y-86736904D01*
X257238380Y-86698809D01*
X257276476Y-86622619D01*
X257276476Y-86317857D01*
X257238380Y-86241666D01*
X257162190Y-86203571D01*
X257009809Y-86203571D01*
X256933619Y-86241666D01*
X256895523Y-86317857D01*
X256895523Y-86394047D01*
X257276476Y-86470238D01*
X256666952Y-86203571D02*
X256362190Y-86203571D01*
X256552666Y-85936904D02*
X256552666Y-86622619D01*
X256514571Y-86698809D01*
X256438380Y-86736904D01*
X256362190Y-86736904D01*
X255981238Y-86736904D02*
X256057428Y-86698809D01*
X256095523Y-86660714D01*
X256133619Y-86584523D01*
X256133619Y-86355952D01*
X256095523Y-86279761D01*
X256057428Y-86241666D01*
X255981238Y-86203571D01*
X255866952Y-86203571D01*
X255790761Y-86241666D01*
X255752666Y-86279761D01*
X255714571Y-86355952D01*
X255714571Y-86584523D01*
X255752666Y-86660714D01*
X255790761Y-86698809D01*
X255866952Y-86736904D01*
X255981238Y-86736904D01*
X255371714Y-86203571D02*
X255371714Y-86736904D01*
X255371714Y-86279761D02*
X255333619Y-86241666D01*
X255257428Y-86203571D01*
X255143142Y-86203571D01*
X255066952Y-86241666D01*
X255028857Y-86317857D01*
X255028857Y-86736904D01*
X254647904Y-86736904D02*
X254647904Y-85936904D01*
X254190761Y-86736904D02*
X254533619Y-86279761D01*
X254190761Y-85936904D02*
X254647904Y-86394047D01*
X253847904Y-86317857D02*
X253581238Y-86317857D01*
X253466952Y-86736904D02*
X253847904Y-86736904D01*
X253847904Y-85936904D01*
X253466952Y-85936904D01*
X252971714Y-86355952D02*
X252971714Y-86736904D01*
X253238380Y-85936904D02*
X252971714Y-86355952D01*
X252705047Y-85936904D01*
X252514571Y-87041666D02*
X252476476Y-87003571D01*
X252400285Y-86889285D01*
X252362190Y-86813095D01*
X252324095Y-86698809D01*
X252286000Y-86508333D01*
X252286000Y-86355952D01*
X252324095Y-86165476D01*
X252362190Y-86051190D01*
X252400285Y-85975000D01*
X252476476Y-85860714D01*
X252514571Y-85822619D01*
X254279285Y-124171904D02*
X254279285Y-123371904D01*
X253822142Y-124171904D02*
X254165000Y-123714761D01*
X253822142Y-123371904D02*
X254279285Y-123829047D01*
X253479285Y-123752857D02*
X253212619Y-123752857D01*
X253098333Y-124171904D02*
X253479285Y-124171904D01*
X253479285Y-123371904D01*
X253098333Y-123371904D01*
X252603095Y-123790952D02*
X252603095Y-124171904D01*
X252869761Y-123371904D02*
X252603095Y-123790952D01*
X252336428Y-123371904D01*
X253879285Y-125471904D02*
X254260238Y-125471904D01*
X254260238Y-124671904D01*
X253612619Y-125052857D02*
X253345952Y-125052857D01*
X253231666Y-125471904D02*
X253612619Y-125471904D01*
X253612619Y-124671904D01*
X253231666Y-124671904D01*
X252888809Y-125471904D02*
X252888809Y-124671904D01*
X252698333Y-124671904D01*
X252584047Y-124710000D01*
X252507857Y-124786190D01*
X252469761Y-124862380D01*
X252431666Y-125014761D01*
X252431666Y-125129047D01*
X252469761Y-125281428D01*
X252507857Y-125357619D01*
X252584047Y-125433809D01*
X252698333Y-125471904D01*
X252888809Y-125471904D01*
X253631666Y-113592857D02*
X253898333Y-113592857D01*
X253898333Y-114011904D02*
X253898333Y-113211904D01*
X253517380Y-113211904D01*
X253250714Y-113288095D02*
X253212619Y-113250000D01*
X253136428Y-113211904D01*
X252945952Y-113211904D01*
X252869761Y-113250000D01*
X252831666Y-113288095D01*
X252793571Y-113364285D01*
X252793571Y-113440476D01*
X252831666Y-113554761D01*
X253288809Y-114011904D01*
X252793571Y-114011904D01*
X254317380Y-115311904D02*
X254317380Y-114511904D01*
X254012619Y-114511904D01*
X253936428Y-114550000D01*
X253898333Y-114588095D01*
X253860238Y-114664285D01*
X253860238Y-114778571D01*
X253898333Y-114854761D01*
X253936428Y-114892857D01*
X254012619Y-114930952D01*
X254317380Y-114930952D01*
X253365000Y-114511904D02*
X253212619Y-114511904D01*
X253136428Y-114550000D01*
X253060238Y-114626190D01*
X253022142Y-114778571D01*
X253022142Y-115045238D01*
X253060238Y-115197619D01*
X253136428Y-115273809D01*
X253212619Y-115311904D01*
X253365000Y-115311904D01*
X253441190Y-115273809D01*
X253517380Y-115197619D01*
X253555476Y-115045238D01*
X253555476Y-114778571D01*
X253517380Y-114626190D01*
X253441190Y-114550000D01*
X253365000Y-114511904D01*
X252298333Y-115311904D02*
X252679285Y-115311904D01*
X252679285Y-114511904D01*
X253631666Y-103432857D02*
X253898333Y-103432857D01*
X253898333Y-103851904D02*
X253898333Y-103051904D01*
X253517380Y-103051904D01*
X253288809Y-103051904D02*
X252793571Y-103051904D01*
X253060238Y-103356666D01*
X252945952Y-103356666D01*
X252869761Y-103394761D01*
X252831666Y-103432857D01*
X252793571Y-103509047D01*
X252793571Y-103699523D01*
X252831666Y-103775714D01*
X252869761Y-103813809D01*
X252945952Y-103851904D01*
X253174523Y-103851904D01*
X253250714Y-103813809D01*
X253288809Y-103775714D01*
X254317380Y-105151904D02*
X254317380Y-104351904D01*
X254012619Y-104351904D01*
X253936428Y-104390000D01*
X253898333Y-104428095D01*
X253860238Y-104504285D01*
X253860238Y-104618571D01*
X253898333Y-104694761D01*
X253936428Y-104732857D01*
X254012619Y-104770952D01*
X254317380Y-104770952D01*
X253365000Y-104351904D02*
X253212619Y-104351904D01*
X253136428Y-104390000D01*
X253060238Y-104466190D01*
X253022142Y-104618571D01*
X253022142Y-104885238D01*
X253060238Y-105037619D01*
X253136428Y-105113809D01*
X253212619Y-105151904D01*
X253365000Y-105151904D01*
X253441190Y-105113809D01*
X253517380Y-105037619D01*
X253555476Y-104885238D01*
X253555476Y-104618571D01*
X253517380Y-104466190D01*
X253441190Y-104390000D01*
X253365000Y-104351904D01*
X252298333Y-105151904D02*
X252679285Y-105151904D01*
X252679285Y-104351904D01*
X253631666Y-93272857D02*
X253898333Y-93272857D01*
X253898333Y-93691904D02*
X253898333Y-92891904D01*
X253517380Y-92891904D01*
X253288809Y-92891904D02*
X252793571Y-92891904D01*
X253060238Y-93196666D01*
X252945952Y-93196666D01*
X252869761Y-93234761D01*
X252831666Y-93272857D01*
X252793571Y-93349047D01*
X252793571Y-93539523D01*
X252831666Y-93615714D01*
X252869761Y-93653809D01*
X252945952Y-93691904D01*
X253174523Y-93691904D01*
X253250714Y-93653809D01*
X253288809Y-93615714D01*
X254279285Y-94953809D02*
X254165000Y-94991904D01*
X253974523Y-94991904D01*
X253898333Y-94953809D01*
X253860238Y-94915714D01*
X253822142Y-94839523D01*
X253822142Y-94763333D01*
X253860238Y-94687142D01*
X253898333Y-94649047D01*
X253974523Y-94610952D01*
X254126904Y-94572857D01*
X254203095Y-94534761D01*
X254241190Y-94496666D01*
X254279285Y-94420476D01*
X254279285Y-94344285D01*
X254241190Y-94268095D01*
X254203095Y-94230000D01*
X254126904Y-94191904D01*
X253936428Y-94191904D01*
X253822142Y-94230000D01*
X253479285Y-94572857D02*
X253212619Y-94572857D01*
X253098333Y-94991904D02*
X253479285Y-94991904D01*
X253479285Y-94191904D01*
X253098333Y-94191904D01*
X252374523Y-94991904D02*
X252755476Y-94991904D01*
X252755476Y-94191904D01*
D11*
X260410000Y-90110000D02*
X259080000Y-90110000D01*
X260410000Y-91440000D02*
X260410000Y-90110000D01*
X257810000Y-90110000D02*
X255210000Y-90110000D01*
X257810000Y-92710000D02*
X257810000Y-90110000D01*
X260410000Y-92710000D02*
X257810000Y-92710000D01*
X255210000Y-90110000D02*
X255210000Y-130870000D01*
X260410000Y-92710000D02*
X260410000Y-130870000D01*
X260410000Y-130870000D02*
X255210000Y-130870000D01*
D12*
X252095000Y-116078000D02*
X251841000Y-116078000D01*
X251841000Y-119634000D02*
X251841000Y-116078000D01*
X252095000Y-119634000D02*
X251841000Y-119634000D01*
X254889000Y-121920000D02*
X251841000Y-121920000D01*
X251841000Y-120142000D02*
X251841000Y-121920000D01*
X251841000Y-115570000D02*
X254889000Y-115570000D01*
X254889000Y-121920000D02*
X254889000Y-115570000D01*
X252095000Y-105918000D02*
X251841000Y-105918000D01*
X251841000Y-109474000D02*
X251841000Y-105918000D01*
X252095000Y-109474000D02*
X251841000Y-109474000D01*
X254889000Y-111760000D02*
X251841000Y-111760000D01*
X251841000Y-109982000D02*
X251841000Y-111760000D01*
X251841000Y-105410000D02*
X254889000Y-105410000D01*
X254889000Y-111760000D02*
X254889000Y-105410000D01*
X254889000Y-101600000D02*
X254889000Y-95250000D01*
X251841000Y-95250000D02*
X254889000Y-95250000D01*
X251841000Y-99822000D02*
X251841000Y-101600000D01*
X254889000Y-101600000D02*
X251841000Y-101600000D01*
X252095000Y-99314000D02*
X251841000Y-99314000D01*
X251841000Y-99314000D02*
X251841000Y-95758000D01*
X252095000Y-95758000D02*
X251841000Y-95758000D01*
X252095000Y-126238000D02*
X251841000Y-126238000D01*
X251841000Y-129794000D02*
X251841000Y-126238000D01*
X252095000Y-129794000D02*
X251841000Y-129794000D01*
X251841000Y-125730000D02*
X254889000Y-125730000D01*
X254889000Y-130175000D02*
X251841000Y-130175000D01*
X254889000Y-130175000D02*
X254889000Y-125730000D01*
M02*
