M48
INCH,TZ
T1C0.0394
%
G90
G05
T1
X101000Y-36000
X101000Y-37000
X101000Y-38000
X101000Y-39000
X101000Y-40000
X101000Y-41000
X101000Y-42000
X101000Y-43000
X101000Y-44000
X101000Y-45000
X101000Y-46000
X101000Y-47000
X101000Y-48000
X101000Y-49000
X101000Y-50000
X101000Y-51000
X102000Y-36000
X102000Y-37000
X102000Y-38000
X102000Y-39000
X102000Y-40000
X102000Y-41000
X102000Y-42000
X102000Y-43000
X102000Y-44000
X102000Y-45000
X102000Y-46000
X102000Y-47000
X102000Y-48000
X102000Y-49000
X102000Y-50000
X102000Y-51000
T0
M30
