G04 #@! TF.GenerationSoftware,KiCad,Pcbnew,(5.1.8)-1*
G04 #@! TF.CreationDate,2022-05-22T17:32:25+02:00*
G04 #@! TF.ProjectId,Amiga CD32,416d6967-6120-4434-9433-322e6b696361,rev?*
G04 #@! TF.SameCoordinates,Original*
G04 #@! TF.FileFunction,Copper,L2,Bot*
G04 #@! TF.FilePolarity,Positive*
%FSLAX46Y46*%
G04 Gerber Fmt 4.6, Leading zero omitted, Abs format (unit mm)*
G04 Created by KiCad (PCBNEW (5.1.8)-1) date 2022-05-22 17:32:25*
%MOMM*%
%LPD*%
G01*
G04 APERTURE LIST*
G04 #@! TA.AperFunction,ComponentPad*
%ADD10O,1.600000X1.600000*%
G04 #@! TD*
G04 #@! TA.AperFunction,ComponentPad*
%ADD11C,1.600000*%
G04 #@! TD*
G04 #@! TA.AperFunction,ComponentPad*
%ADD12R,2.400000X1.600000*%
G04 #@! TD*
G04 #@! TA.AperFunction,ComponentPad*
%ADD13O,2.400000X1.600000*%
G04 #@! TD*
G04 #@! TA.AperFunction,ComponentPad*
%ADD14R,1.600000X1.600000*%
G04 #@! TD*
G04 #@! TA.AperFunction,ComponentPad*
%ADD15R,1.600000X2.400000*%
G04 #@! TD*
G04 #@! TA.AperFunction,ComponentPad*
%ADD16O,1.600000X2.400000*%
G04 #@! TD*
G04 #@! TA.AperFunction,ComponentPad*
%ADD17O,1.727200X1.727200*%
G04 #@! TD*
G04 #@! TA.AperFunction,ComponentPad*
%ADD18R,1.727200X1.727200*%
G04 #@! TD*
G04 #@! TA.AperFunction,ComponentPad*
%ADD19C,2.000000*%
G04 #@! TD*
G04 #@! TA.AperFunction,ComponentPad*
%ADD20C,3.500000*%
G04 #@! TD*
G04 #@! TA.AperFunction,ViaPad*
%ADD21C,0.800000*%
G04 #@! TD*
G04 #@! TA.AperFunction,Conductor*
%ADD22C,0.381000*%
G04 #@! TD*
G04 #@! TA.AperFunction,Conductor*
%ADD23C,0.250000*%
G04 #@! TD*
G04 #@! TA.AperFunction,Conductor*
%ADD24C,0.254000*%
G04 #@! TD*
G04 #@! TA.AperFunction,Conductor*
%ADD25C,0.100000*%
G04 #@! TD*
G04 APERTURE END LIST*
D10*
X165608000Y-99695000D03*
D11*
X155448000Y-99695000D03*
D10*
X142240000Y-99695000D03*
D11*
X152400000Y-99695000D03*
D10*
X123825000Y-85090000D03*
D11*
X131445000Y-85090000D03*
D10*
X146050000Y-88900000D03*
D11*
X146050000Y-96520000D03*
D10*
X145415000Y-85090000D03*
D11*
X153035000Y-85090000D03*
D10*
X153670000Y-96520000D03*
D11*
X153670000Y-88900000D03*
D10*
X142240000Y-85090000D03*
D11*
X134620000Y-85090000D03*
D10*
X149860000Y-96520000D03*
D11*
X149860000Y-88900000D03*
D10*
X127000000Y-99695000D03*
D11*
X116840000Y-99695000D03*
D10*
X129540000Y-99695000D03*
D11*
X139700000Y-99695000D03*
D10*
X171450000Y-89535000D03*
D11*
X171450000Y-99695000D03*
X171450000Y-81915000D03*
X171450000Y-86915000D03*
D12*
X157480000Y-80645000D03*
D13*
X165100000Y-95885000D03*
X157480000Y-83185000D03*
X165100000Y-93345000D03*
X157480000Y-85725000D03*
X165100000Y-90805000D03*
X157480000Y-88265000D03*
X165100000Y-88265000D03*
X157480000Y-90805000D03*
X165100000Y-85725000D03*
X157480000Y-93345000D03*
X165100000Y-83185000D03*
X157480000Y-95885000D03*
X165100000Y-80645000D03*
D14*
X118745000Y-82550000D03*
D11*
X118745000Y-84550000D03*
D15*
X120650000Y-95885000D03*
D16*
X138430000Y-88265000D03*
X123190000Y-95885000D03*
X135890000Y-88265000D03*
X125730000Y-95885000D03*
X133350000Y-88265000D03*
X128270000Y-95885000D03*
X130810000Y-88265000D03*
X130810000Y-95885000D03*
X128270000Y-88265000D03*
X133350000Y-95885000D03*
X125730000Y-88265000D03*
X135890000Y-95885000D03*
X123190000Y-88265000D03*
X138430000Y-95885000D03*
X120650000Y-88265000D03*
D11*
X168275000Y-94695000D03*
X168275000Y-99695000D03*
X117475000Y-94535000D03*
X117475000Y-89535000D03*
X168275000Y-81915000D03*
D10*
X168275000Y-92075000D03*
D17*
X149225000Y-77470000D03*
X146685000Y-77470000D03*
X144145000Y-77470000D03*
X141605000Y-77470000D03*
X139065000Y-77470000D03*
X149225000Y-80010000D03*
X146685000Y-80010000D03*
X144145000Y-80010000D03*
X141605000Y-80010000D03*
D18*
X139065000Y-80010000D03*
D17*
X160655000Y-105410000D03*
X158115000Y-105410000D03*
X155575000Y-105410000D03*
X153035000Y-105410000D03*
X150495000Y-105410000D03*
X160655000Y-107950000D03*
X158115000Y-107950000D03*
X155575000Y-107950000D03*
X153035000Y-107950000D03*
D18*
X150495000Y-107950000D03*
D11*
X163830000Y-76835000D03*
X158830000Y-76835000D03*
D18*
X127635000Y-107950000D03*
D17*
X130175000Y-107950000D03*
X132715000Y-107950000D03*
X135255000Y-107950000D03*
X137795000Y-107950000D03*
X127635000Y-105410000D03*
X130175000Y-105410000D03*
X132715000Y-105410000D03*
X135255000Y-105410000D03*
X137795000Y-105410000D03*
D19*
X124385000Y-80990000D03*
X124385000Y-76490000D03*
X130885000Y-80990000D03*
X130885000Y-76490000D03*
D20*
X118745000Y-107950000D03*
X169545000Y-107950000D03*
X169545000Y-77470000D03*
X118745000Y-77455001D03*
D11*
X142240000Y-96520000D03*
D10*
X142240000Y-88900000D03*
D21*
X125730000Y-82550000D03*
X167005000Y-84455000D03*
X148336000Y-104775000D03*
X133350000Y-92620000D03*
X131355000Y-90170000D03*
X143419990Y-90170000D03*
X151130000Y-97790000D03*
X143510000Y-97790000D03*
X138909500Y-106680000D03*
X141605000Y-107315000D03*
X134620000Y-93345000D03*
X148590000Y-92165000D03*
X148078836Y-84983716D03*
X147320000Y-92165000D03*
X147320000Y-85635000D03*
X144870000Y-93417108D03*
X140335000Y-83820000D03*
X153035000Y-102870000D03*
X144145000Y-92710000D03*
X139065000Y-84365000D03*
X159385000Y-86995000D03*
X159385000Y-81915000D03*
D22*
X118745000Y-82550000D02*
X125730000Y-82550000D01*
X153670000Y-96520000D02*
X149860000Y-96520000D01*
X146050000Y-96520000D02*
X149860000Y-96520000D01*
X146050000Y-96520000D02*
X142240000Y-96520000D01*
X139700000Y-99695000D02*
X139700000Y-97790000D01*
X140970000Y-96520000D02*
X142240000Y-96520000D01*
X139700000Y-97790000D02*
X140970000Y-96520000D01*
X165100000Y-78105000D02*
X163830000Y-76835000D01*
X165100000Y-80645000D02*
X165100000Y-78105000D01*
X165100000Y-80645000D02*
X167005000Y-82550000D01*
X167005000Y-82550000D02*
X167005000Y-84455000D01*
X149606000Y-103505000D02*
X148336000Y-104775000D01*
X153035000Y-105410000D02*
X151130000Y-103505000D01*
X151130000Y-103505000D02*
X149606000Y-103505000D01*
D23*
X120650000Y-93980000D02*
X122010000Y-92620000D01*
X122010000Y-92620000D02*
X133350000Y-92620000D01*
X120650000Y-95885000D02*
X120650000Y-93980000D01*
X131355000Y-90170000D02*
X143419990Y-90170000D01*
X151130000Y-97790000D02*
X143510000Y-97790000D01*
X130810000Y-95885000D02*
X130810000Y-94615000D01*
X130810000Y-94615000D02*
X130175000Y-93980000D01*
X130175000Y-93980000D02*
X127635000Y-93980000D01*
X127000000Y-94615000D02*
X127000000Y-99695000D01*
X127635000Y-93980000D02*
X127000000Y-94615000D01*
X138909500Y-106680000D02*
X140970000Y-106680000D01*
X140970000Y-106680000D02*
X141605000Y-107315000D01*
X125730000Y-95885000D02*
X125730000Y-94435000D01*
X125730000Y-94435000D02*
X126820000Y-93345000D01*
X126820000Y-93345000D02*
X134620000Y-93345000D01*
X148078836Y-91653836D02*
X148078836Y-84983716D01*
X148590000Y-92165000D02*
X148078836Y-91653836D01*
X147320000Y-92165000D02*
X147320000Y-85635000D01*
X140335000Y-85725000D02*
X140335000Y-83820000D01*
X144145000Y-86360000D02*
X140970000Y-86360000D01*
X144780000Y-86995000D02*
X144145000Y-86360000D01*
X140970000Y-86360000D02*
X140335000Y-85725000D01*
X144780000Y-91440000D02*
X144780000Y-86995000D01*
X144870000Y-91530000D02*
X144780000Y-91440000D01*
X144870000Y-93417108D02*
X144870000Y-91530000D01*
X153035000Y-107950000D02*
X154305000Y-106680000D01*
X154305000Y-106680000D02*
X154305000Y-104140000D01*
X154305000Y-104140000D02*
X153035000Y-102870000D01*
X144145000Y-87630000D02*
X144145000Y-92710000D01*
X139700000Y-86995000D02*
X143510000Y-86995000D01*
X139065000Y-86360000D02*
X139700000Y-86995000D01*
X143510000Y-86995000D02*
X144145000Y-87630000D01*
X139065000Y-84365000D02*
X139065000Y-86360000D01*
X159385000Y-86995000D02*
X159385000Y-81915000D01*
X157480000Y-85725000D02*
X157480000Y-88265000D01*
D24*
X170156222Y-74383096D02*
X170744164Y-74560606D01*
X171286436Y-74848937D01*
X171762364Y-75237094D01*
X172153845Y-75710314D01*
X172445951Y-76250552D01*
X172627563Y-76837244D01*
X172695001Y-77478888D01*
X172695001Y-81195345D01*
X172564637Y-81000241D01*
X172364759Y-80800363D01*
X172129727Y-80643320D01*
X171868574Y-80535147D01*
X171591335Y-80480000D01*
X171308665Y-80480000D01*
X171031426Y-80535147D01*
X170770273Y-80643320D01*
X170535241Y-80800363D01*
X170335363Y-81000241D01*
X170178320Y-81235273D01*
X170070147Y-81496426D01*
X170015000Y-81773665D01*
X170015000Y-82056335D01*
X170070147Y-82333574D01*
X170178320Y-82594727D01*
X170335363Y-82829759D01*
X170535241Y-83029637D01*
X170770273Y-83186680D01*
X171031426Y-83294853D01*
X171308665Y-83350000D01*
X171591335Y-83350000D01*
X171868574Y-83294853D01*
X172129727Y-83186680D01*
X172364759Y-83029637D01*
X172564637Y-82829759D01*
X172695001Y-82634655D01*
X172695001Y-86189070D01*
X172686671Y-86173486D01*
X172442702Y-86101903D01*
X171629605Y-86915000D01*
X172442702Y-87728097D01*
X172686671Y-87656514D01*
X172695001Y-87638910D01*
X172695001Y-88815344D01*
X172564637Y-88620241D01*
X172364759Y-88420363D01*
X172129727Y-88263320D01*
X172042399Y-88227148D01*
X172066292Y-88218603D01*
X172191514Y-88151671D01*
X172263097Y-87907702D01*
X171450000Y-87094605D01*
X170636903Y-87907702D01*
X170708486Y-88151671D01*
X170863145Y-88224851D01*
X170770273Y-88263320D01*
X170535241Y-88420363D01*
X170335363Y-88620241D01*
X170178320Y-88855273D01*
X170070147Y-89116426D01*
X170015000Y-89393665D01*
X170015000Y-89676335D01*
X170070147Y-89953574D01*
X170178320Y-90214727D01*
X170335363Y-90449759D01*
X170535241Y-90649637D01*
X170770273Y-90806680D01*
X171031426Y-90914853D01*
X171308665Y-90970000D01*
X171591335Y-90970000D01*
X171868574Y-90914853D01*
X172129727Y-90806680D01*
X172364759Y-90649637D01*
X172564637Y-90449759D01*
X172695001Y-90254656D01*
X172695000Y-98975344D01*
X172564637Y-98780241D01*
X172364759Y-98580363D01*
X172129727Y-98423320D01*
X171868574Y-98315147D01*
X171591335Y-98260000D01*
X171308665Y-98260000D01*
X171031426Y-98315147D01*
X170770273Y-98423320D01*
X170535241Y-98580363D01*
X170335363Y-98780241D01*
X170178320Y-99015273D01*
X170070147Y-99276426D01*
X170015000Y-99553665D01*
X170015000Y-99836335D01*
X170070147Y-100113574D01*
X170178320Y-100374727D01*
X170335363Y-100609759D01*
X170535241Y-100809637D01*
X170770273Y-100966680D01*
X171031426Y-101074853D01*
X171308665Y-101130000D01*
X171591335Y-101130000D01*
X171868574Y-101074853D01*
X172129727Y-100966680D01*
X172364759Y-100809637D01*
X172564637Y-100609759D01*
X172695000Y-100414656D01*
X172695000Y-107917721D01*
X172631904Y-108561221D01*
X172454394Y-109149164D01*
X172166063Y-109691436D01*
X171777906Y-110167364D01*
X171304686Y-110558845D01*
X170764449Y-110850950D01*
X170177756Y-111032563D01*
X169536130Y-111100000D01*
X118777279Y-111100000D01*
X118133779Y-111036904D01*
X117545836Y-110859394D01*
X117003564Y-110571063D01*
X116527636Y-110182906D01*
X116136155Y-109709686D01*
X115844050Y-109169449D01*
X115662437Y-108582756D01*
X115595000Y-107941130D01*
X115595000Y-107715098D01*
X116360000Y-107715098D01*
X116360000Y-108184902D01*
X116451654Y-108645679D01*
X116631440Y-109079721D01*
X116892450Y-109470349D01*
X117224651Y-109802550D01*
X117615279Y-110063560D01*
X118049321Y-110243346D01*
X118510098Y-110335000D01*
X118979902Y-110335000D01*
X119440679Y-110243346D01*
X119874721Y-110063560D01*
X120265349Y-109802550D01*
X120597550Y-109470349D01*
X120858560Y-109079721D01*
X121038346Y-108645679D01*
X121130000Y-108184902D01*
X121130000Y-107715098D01*
X121038346Y-107254321D01*
X120968791Y-107086400D01*
X126133328Y-107086400D01*
X126133328Y-108813600D01*
X126145588Y-108938082D01*
X126181898Y-109057780D01*
X126240863Y-109168094D01*
X126320215Y-109264785D01*
X126416906Y-109344137D01*
X126527220Y-109403102D01*
X126646918Y-109439412D01*
X126771400Y-109451672D01*
X128498600Y-109451672D01*
X128623082Y-109439412D01*
X128742780Y-109403102D01*
X128853094Y-109344137D01*
X128949785Y-109264785D01*
X129029137Y-109168094D01*
X129088102Y-109057780D01*
X129105636Y-108999977D01*
X129219698Y-109114039D01*
X129465147Y-109278042D01*
X129737875Y-109391010D01*
X130027401Y-109448600D01*
X130322599Y-109448600D01*
X130612125Y-109391010D01*
X130884853Y-109278042D01*
X131130302Y-109114039D01*
X131339039Y-108905302D01*
X131445000Y-108746719D01*
X131550961Y-108905302D01*
X131759698Y-109114039D01*
X132005147Y-109278042D01*
X132277875Y-109391010D01*
X132567401Y-109448600D01*
X132862599Y-109448600D01*
X133152125Y-109391010D01*
X133424853Y-109278042D01*
X133670302Y-109114039D01*
X133879039Y-108905302D01*
X133985000Y-108746719D01*
X134090961Y-108905302D01*
X134299698Y-109114039D01*
X134545147Y-109278042D01*
X134817875Y-109391010D01*
X135107401Y-109448600D01*
X135402599Y-109448600D01*
X135692125Y-109391010D01*
X135964853Y-109278042D01*
X136210302Y-109114039D01*
X136419039Y-108905302D01*
X136525000Y-108746719D01*
X136630961Y-108905302D01*
X136839698Y-109114039D01*
X137085147Y-109278042D01*
X137357875Y-109391010D01*
X137647401Y-109448600D01*
X137942599Y-109448600D01*
X138232125Y-109391010D01*
X138504853Y-109278042D01*
X138750302Y-109114039D01*
X138959039Y-108905302D01*
X139123042Y-108659853D01*
X139236010Y-108387125D01*
X139293600Y-108097599D01*
X139293600Y-107802401D01*
X139263972Y-107653449D01*
X139399756Y-107597205D01*
X139569274Y-107483937D01*
X139613211Y-107440000D01*
X140574587Y-107440000D01*
X140609774Y-107616898D01*
X140687795Y-107805256D01*
X140801063Y-107974774D01*
X140945226Y-108118937D01*
X141114744Y-108232205D01*
X141303102Y-108310226D01*
X141503061Y-108350000D01*
X141706939Y-108350000D01*
X141906898Y-108310226D01*
X142095256Y-108232205D01*
X142264774Y-108118937D01*
X142408937Y-107974774D01*
X142522205Y-107805256D01*
X142600226Y-107616898D01*
X142640000Y-107416939D01*
X142640000Y-107213061D01*
X142600226Y-107013102D01*
X142522205Y-106824744D01*
X142408937Y-106655226D01*
X142264774Y-106511063D01*
X142095256Y-106397795D01*
X141906898Y-106319774D01*
X141706939Y-106280000D01*
X141644801Y-106280000D01*
X141533803Y-106169002D01*
X141510001Y-106139999D01*
X141394276Y-106045026D01*
X141262247Y-105974454D01*
X141118986Y-105930997D01*
X141007333Y-105920000D01*
X141007322Y-105920000D01*
X140970000Y-105916324D01*
X140932678Y-105920000D01*
X139613211Y-105920000D01*
X139569274Y-105876063D01*
X139399756Y-105762795D01*
X139263972Y-105706551D01*
X139293600Y-105557599D01*
X139293600Y-105262401D01*
X139236010Y-104972875D01*
X139123042Y-104700147D01*
X139104944Y-104673061D01*
X147301000Y-104673061D01*
X147301000Y-104876939D01*
X147340774Y-105076898D01*
X147418795Y-105265256D01*
X147532063Y-105434774D01*
X147676226Y-105578937D01*
X147845744Y-105692205D01*
X148034102Y-105770226D01*
X148234061Y-105810000D01*
X148437939Y-105810000D01*
X148637898Y-105770226D01*
X148826256Y-105692205D01*
X148995774Y-105578937D01*
X148999836Y-105574875D01*
X149053990Y-105847125D01*
X149166958Y-106119853D01*
X149330961Y-106365302D01*
X149445023Y-106479364D01*
X149387220Y-106496898D01*
X149276906Y-106555863D01*
X149180215Y-106635215D01*
X149100863Y-106731906D01*
X149041898Y-106842220D01*
X149005588Y-106961918D01*
X148993328Y-107086400D01*
X148993328Y-108813600D01*
X149005588Y-108938082D01*
X149041898Y-109057780D01*
X149100863Y-109168094D01*
X149180215Y-109264785D01*
X149276906Y-109344137D01*
X149387220Y-109403102D01*
X149506918Y-109439412D01*
X149631400Y-109451672D01*
X151358600Y-109451672D01*
X151483082Y-109439412D01*
X151602780Y-109403102D01*
X151713094Y-109344137D01*
X151809785Y-109264785D01*
X151889137Y-109168094D01*
X151948102Y-109057780D01*
X151965636Y-108999977D01*
X152079698Y-109114039D01*
X152325147Y-109278042D01*
X152597875Y-109391010D01*
X152887401Y-109448600D01*
X153182599Y-109448600D01*
X153472125Y-109391010D01*
X153744853Y-109278042D01*
X153990302Y-109114039D01*
X154199039Y-108905302D01*
X154305000Y-108746719D01*
X154410961Y-108905302D01*
X154619698Y-109114039D01*
X154865147Y-109278042D01*
X155137875Y-109391010D01*
X155427401Y-109448600D01*
X155722599Y-109448600D01*
X156012125Y-109391010D01*
X156284853Y-109278042D01*
X156530302Y-109114039D01*
X156739039Y-108905302D01*
X156845000Y-108746719D01*
X156950961Y-108905302D01*
X157159698Y-109114039D01*
X157405147Y-109278042D01*
X157677875Y-109391010D01*
X157967401Y-109448600D01*
X158262599Y-109448600D01*
X158552125Y-109391010D01*
X158824853Y-109278042D01*
X159070302Y-109114039D01*
X159279039Y-108905302D01*
X159385000Y-108746719D01*
X159490961Y-108905302D01*
X159699698Y-109114039D01*
X159945147Y-109278042D01*
X160217875Y-109391010D01*
X160507401Y-109448600D01*
X160802599Y-109448600D01*
X161092125Y-109391010D01*
X161364853Y-109278042D01*
X161610302Y-109114039D01*
X161819039Y-108905302D01*
X161983042Y-108659853D01*
X162096010Y-108387125D01*
X162153600Y-108097599D01*
X162153600Y-107802401D01*
X162136235Y-107715098D01*
X167160000Y-107715098D01*
X167160000Y-108184902D01*
X167251654Y-108645679D01*
X167431440Y-109079721D01*
X167692450Y-109470349D01*
X168024651Y-109802550D01*
X168415279Y-110063560D01*
X168849321Y-110243346D01*
X169310098Y-110335000D01*
X169779902Y-110335000D01*
X170240679Y-110243346D01*
X170674721Y-110063560D01*
X171065349Y-109802550D01*
X171397550Y-109470349D01*
X171658560Y-109079721D01*
X171838346Y-108645679D01*
X171930000Y-108184902D01*
X171930000Y-107715098D01*
X171838346Y-107254321D01*
X171658560Y-106820279D01*
X171397550Y-106429651D01*
X171065349Y-106097450D01*
X170674721Y-105836440D01*
X170240679Y-105656654D01*
X169779902Y-105565000D01*
X169310098Y-105565000D01*
X168849321Y-105656654D01*
X168415279Y-105836440D01*
X168024651Y-106097450D01*
X167692450Y-106429651D01*
X167431440Y-106820279D01*
X167251654Y-107254321D01*
X167160000Y-107715098D01*
X162136235Y-107715098D01*
X162096010Y-107512875D01*
X161983042Y-107240147D01*
X161819039Y-106994698D01*
X161610302Y-106785961D01*
X161451719Y-106680000D01*
X161610302Y-106574039D01*
X161819039Y-106365302D01*
X161983042Y-106119853D01*
X162096010Y-105847125D01*
X162153600Y-105557599D01*
X162153600Y-105262401D01*
X162096010Y-104972875D01*
X161983042Y-104700147D01*
X161819039Y-104454698D01*
X161610302Y-104245961D01*
X161364853Y-104081958D01*
X161092125Y-103968990D01*
X160802599Y-103911400D01*
X160507401Y-103911400D01*
X160217875Y-103968990D01*
X159945147Y-104081958D01*
X159699698Y-104245961D01*
X159490961Y-104454698D01*
X159385000Y-104613281D01*
X159279039Y-104454698D01*
X159070302Y-104245961D01*
X158824853Y-104081958D01*
X158552125Y-103968990D01*
X158262599Y-103911400D01*
X157967401Y-103911400D01*
X157677875Y-103968990D01*
X157405147Y-104081958D01*
X157159698Y-104245961D01*
X156950961Y-104454698D01*
X156840441Y-104620103D01*
X156781817Y-104521512D01*
X156585293Y-104303146D01*
X156349944Y-104127316D01*
X156084814Y-104000778D01*
X155934026Y-103955042D01*
X155702000Y-104076183D01*
X155702000Y-105283000D01*
X155722000Y-105283000D01*
X155722000Y-105537000D01*
X155702000Y-105537000D01*
X155702000Y-105557000D01*
X155448000Y-105557000D01*
X155448000Y-105537000D01*
X155428000Y-105537000D01*
X155428000Y-105283000D01*
X155448000Y-105283000D01*
X155448000Y-104076183D01*
X155215974Y-103955042D01*
X155065186Y-104000778D01*
X155055424Y-104005437D01*
X155054003Y-103991014D01*
X155010546Y-103847753D01*
X154939974Y-103715724D01*
X154845001Y-103599999D01*
X154816003Y-103576201D01*
X154070000Y-102830199D01*
X154070000Y-102768061D01*
X154030226Y-102568102D01*
X153952205Y-102379744D01*
X153838937Y-102210226D01*
X153694774Y-102066063D01*
X153525256Y-101952795D01*
X153336898Y-101874774D01*
X153136939Y-101835000D01*
X152933061Y-101835000D01*
X152733102Y-101874774D01*
X152544744Y-101952795D01*
X152375226Y-102066063D01*
X152231063Y-102210226D01*
X152117795Y-102379744D01*
X152039774Y-102568102D01*
X152000000Y-102768061D01*
X152000000Y-102971939D01*
X152039774Y-103171898D01*
X152093121Y-103300689D01*
X151742398Y-102949966D01*
X151716541Y-102918459D01*
X151590842Y-102815301D01*
X151447434Y-102738647D01*
X151291826Y-102691444D01*
X151170553Y-102679500D01*
X151170550Y-102679500D01*
X151130000Y-102675506D01*
X151089450Y-102679500D01*
X149646550Y-102679500D01*
X149605999Y-102675506D01*
X149565449Y-102679500D01*
X149565447Y-102679500D01*
X149444174Y-102691444D01*
X149288566Y-102738647D01*
X149195111Y-102788601D01*
X149145157Y-102815301D01*
X149083596Y-102865823D01*
X149019459Y-102918459D01*
X148993606Y-102949961D01*
X148195996Y-103747572D01*
X148034102Y-103779774D01*
X147845744Y-103857795D01*
X147676226Y-103971063D01*
X147532063Y-104115226D01*
X147418795Y-104284744D01*
X147340774Y-104473102D01*
X147301000Y-104673061D01*
X139104944Y-104673061D01*
X138959039Y-104454698D01*
X138750302Y-104245961D01*
X138504853Y-104081958D01*
X138232125Y-103968990D01*
X137942599Y-103911400D01*
X137647401Y-103911400D01*
X137357875Y-103968990D01*
X137085147Y-104081958D01*
X136839698Y-104245961D01*
X136630961Y-104454698D01*
X136525000Y-104613281D01*
X136419039Y-104454698D01*
X136210302Y-104245961D01*
X135964853Y-104081958D01*
X135692125Y-103968990D01*
X135402599Y-103911400D01*
X135107401Y-103911400D01*
X134817875Y-103968990D01*
X134545147Y-104081958D01*
X134299698Y-104245961D01*
X134090961Y-104454698D01*
X133980441Y-104620103D01*
X133921817Y-104521512D01*
X133725293Y-104303146D01*
X133489944Y-104127316D01*
X133224814Y-104000778D01*
X133074026Y-103955042D01*
X132842000Y-104076183D01*
X132842000Y-105283000D01*
X132862000Y-105283000D01*
X132862000Y-105537000D01*
X132842000Y-105537000D01*
X132842000Y-105557000D01*
X132588000Y-105557000D01*
X132588000Y-105537000D01*
X132568000Y-105537000D01*
X132568000Y-105283000D01*
X132588000Y-105283000D01*
X132588000Y-104076183D01*
X132355974Y-103955042D01*
X132205186Y-104000778D01*
X131940056Y-104127316D01*
X131704707Y-104303146D01*
X131508183Y-104521512D01*
X131449559Y-104620103D01*
X131339039Y-104454698D01*
X131130302Y-104245961D01*
X130884853Y-104081958D01*
X130612125Y-103968990D01*
X130322599Y-103911400D01*
X130027401Y-103911400D01*
X129737875Y-103968990D01*
X129465147Y-104081958D01*
X129219698Y-104245961D01*
X129010961Y-104454698D01*
X128905000Y-104613281D01*
X128799039Y-104454698D01*
X128590302Y-104245961D01*
X128344853Y-104081958D01*
X128072125Y-103968990D01*
X127782599Y-103911400D01*
X127487401Y-103911400D01*
X127197875Y-103968990D01*
X126925147Y-104081958D01*
X126679698Y-104245961D01*
X126470961Y-104454698D01*
X126306958Y-104700147D01*
X126193990Y-104972875D01*
X126136400Y-105262401D01*
X126136400Y-105557599D01*
X126193990Y-105847125D01*
X126306958Y-106119853D01*
X126470961Y-106365302D01*
X126585023Y-106479364D01*
X126527220Y-106496898D01*
X126416906Y-106555863D01*
X126320215Y-106635215D01*
X126240863Y-106731906D01*
X126181898Y-106842220D01*
X126145588Y-106961918D01*
X126133328Y-107086400D01*
X120968791Y-107086400D01*
X120858560Y-106820279D01*
X120597550Y-106429651D01*
X120265349Y-106097450D01*
X119874721Y-105836440D01*
X119440679Y-105656654D01*
X118979902Y-105565000D01*
X118510098Y-105565000D01*
X118049321Y-105656654D01*
X117615279Y-105836440D01*
X117224651Y-106097450D01*
X116892450Y-106429651D01*
X116631440Y-106820279D01*
X116451654Y-107254321D01*
X116360000Y-107715098D01*
X115595000Y-107715098D01*
X115595000Y-100414657D01*
X115725363Y-100609759D01*
X115925241Y-100809637D01*
X116160273Y-100966680D01*
X116421426Y-101074853D01*
X116698665Y-101130000D01*
X116981335Y-101130000D01*
X117258574Y-101074853D01*
X117519727Y-100966680D01*
X117754759Y-100809637D01*
X117954637Y-100609759D01*
X118111680Y-100374727D01*
X118219853Y-100113574D01*
X118275000Y-99836335D01*
X118275000Y-99553665D01*
X118219853Y-99276426D01*
X118111680Y-99015273D01*
X117954637Y-98780241D01*
X117754759Y-98580363D01*
X117519727Y-98423320D01*
X117258574Y-98315147D01*
X116981335Y-98260000D01*
X116698665Y-98260000D01*
X116421426Y-98315147D01*
X116160273Y-98423320D01*
X115925241Y-98580363D01*
X115725363Y-98780241D01*
X115595000Y-98975343D01*
X115595000Y-95527702D01*
X116661903Y-95527702D01*
X116733486Y-95771671D01*
X116988996Y-95892571D01*
X117263184Y-95961300D01*
X117545512Y-95975217D01*
X117825130Y-95933787D01*
X118091292Y-95838603D01*
X118216514Y-95771671D01*
X118288097Y-95527702D01*
X117475000Y-94714605D01*
X116661903Y-95527702D01*
X115595000Y-95527702D01*
X115595000Y-94605512D01*
X116034783Y-94605512D01*
X116076213Y-94885130D01*
X116171397Y-95151292D01*
X116238329Y-95276514D01*
X116482298Y-95348097D01*
X117295395Y-94535000D01*
X117654605Y-94535000D01*
X118467702Y-95348097D01*
X118711671Y-95276514D01*
X118832571Y-95021004D01*
X118901300Y-94746816D01*
X118904347Y-94685000D01*
X119211928Y-94685000D01*
X119211928Y-97085000D01*
X119224188Y-97209482D01*
X119260498Y-97329180D01*
X119319463Y-97439494D01*
X119398815Y-97536185D01*
X119495506Y-97615537D01*
X119605820Y-97674502D01*
X119725518Y-97710812D01*
X119850000Y-97723072D01*
X121450000Y-97723072D01*
X121574482Y-97710812D01*
X121694180Y-97674502D01*
X121804494Y-97615537D01*
X121901185Y-97536185D01*
X121980537Y-97439494D01*
X122039502Y-97329180D01*
X122075812Y-97209482D01*
X122077581Y-97191517D01*
X122170393Y-97304608D01*
X122388900Y-97483932D01*
X122638193Y-97617182D01*
X122908692Y-97699236D01*
X123190000Y-97726943D01*
X123471309Y-97699236D01*
X123741808Y-97617182D01*
X123991101Y-97483932D01*
X124209608Y-97304608D01*
X124388932Y-97086101D01*
X124460000Y-96953142D01*
X124531068Y-97086101D01*
X124710393Y-97304608D01*
X124928900Y-97483932D01*
X125178193Y-97617182D01*
X125448692Y-97699236D01*
X125730000Y-97726943D01*
X126011309Y-97699236D01*
X126240001Y-97629864D01*
X126240001Y-98476956D01*
X126085241Y-98580363D01*
X125885363Y-98780241D01*
X125728320Y-99015273D01*
X125620147Y-99276426D01*
X125565000Y-99553665D01*
X125565000Y-99836335D01*
X125620147Y-100113574D01*
X125728320Y-100374727D01*
X125885363Y-100609759D01*
X126085241Y-100809637D01*
X126320273Y-100966680D01*
X126581426Y-101074853D01*
X126858665Y-101130000D01*
X127141335Y-101130000D01*
X127418574Y-101074853D01*
X127679727Y-100966680D01*
X127914759Y-100809637D01*
X128114637Y-100609759D01*
X128270000Y-100377241D01*
X128425363Y-100609759D01*
X128625241Y-100809637D01*
X128860273Y-100966680D01*
X129121426Y-101074853D01*
X129398665Y-101130000D01*
X129681335Y-101130000D01*
X129958574Y-101074853D01*
X130219727Y-100966680D01*
X130454759Y-100809637D01*
X130654637Y-100609759D01*
X130811680Y-100374727D01*
X130919853Y-100113574D01*
X130975000Y-99836335D01*
X130975000Y-99553665D01*
X138265000Y-99553665D01*
X138265000Y-99836335D01*
X138320147Y-100113574D01*
X138428320Y-100374727D01*
X138585363Y-100609759D01*
X138785241Y-100809637D01*
X139020273Y-100966680D01*
X139281426Y-101074853D01*
X139558665Y-101130000D01*
X139841335Y-101130000D01*
X140118574Y-101074853D01*
X140379727Y-100966680D01*
X140614759Y-100809637D01*
X140814637Y-100609759D01*
X140970000Y-100377241D01*
X141125363Y-100609759D01*
X141325241Y-100809637D01*
X141560273Y-100966680D01*
X141821426Y-101074853D01*
X142098665Y-101130000D01*
X142381335Y-101130000D01*
X142658574Y-101074853D01*
X142919727Y-100966680D01*
X143154759Y-100809637D01*
X143354637Y-100609759D01*
X143511680Y-100374727D01*
X143619853Y-100113574D01*
X143675000Y-99836335D01*
X143675000Y-99553665D01*
X143619853Y-99276426D01*
X143511680Y-99015273D01*
X143380939Y-98819605D01*
X143408061Y-98825000D01*
X143611939Y-98825000D01*
X143811898Y-98785226D01*
X144000256Y-98707205D01*
X144169774Y-98593937D01*
X144213711Y-98550000D01*
X150426289Y-98550000D01*
X150470226Y-98593937D01*
X150639744Y-98707205D01*
X150828102Y-98785226D01*
X151028061Y-98825000D01*
X151231939Y-98825000D01*
X151259061Y-98819605D01*
X151128320Y-99015273D01*
X151020147Y-99276426D01*
X150965000Y-99553665D01*
X150965000Y-99836335D01*
X151020147Y-100113574D01*
X151128320Y-100374727D01*
X151285363Y-100609759D01*
X151485241Y-100809637D01*
X151720273Y-100966680D01*
X151981426Y-101074853D01*
X152258665Y-101130000D01*
X152541335Y-101130000D01*
X152818574Y-101074853D01*
X153079727Y-100966680D01*
X153314759Y-100809637D01*
X153514637Y-100609759D01*
X153671680Y-100374727D01*
X153779853Y-100113574D01*
X153835000Y-99836335D01*
X153835000Y-99553665D01*
X154013000Y-99553665D01*
X154013000Y-99836335D01*
X154068147Y-100113574D01*
X154176320Y-100374727D01*
X154333363Y-100609759D01*
X154533241Y-100809637D01*
X154768273Y-100966680D01*
X155029426Y-101074853D01*
X155306665Y-101130000D01*
X155589335Y-101130000D01*
X155866574Y-101074853D01*
X156127727Y-100966680D01*
X156362759Y-100809637D01*
X156562637Y-100609759D01*
X156719680Y-100374727D01*
X156827853Y-100113574D01*
X156883000Y-99836335D01*
X156883000Y-99553665D01*
X164173000Y-99553665D01*
X164173000Y-99836335D01*
X164228147Y-100113574D01*
X164336320Y-100374727D01*
X164493363Y-100609759D01*
X164693241Y-100809637D01*
X164928273Y-100966680D01*
X165189426Y-101074853D01*
X165466665Y-101130000D01*
X165749335Y-101130000D01*
X166026574Y-101074853D01*
X166287727Y-100966680D01*
X166522759Y-100809637D01*
X166722637Y-100609759D01*
X166879680Y-100374727D01*
X166941500Y-100225480D01*
X167003320Y-100374727D01*
X167160363Y-100609759D01*
X167360241Y-100809637D01*
X167595273Y-100966680D01*
X167856426Y-101074853D01*
X168133665Y-101130000D01*
X168416335Y-101130000D01*
X168693574Y-101074853D01*
X168954727Y-100966680D01*
X169189759Y-100809637D01*
X169389637Y-100609759D01*
X169546680Y-100374727D01*
X169654853Y-100113574D01*
X169710000Y-99836335D01*
X169710000Y-99553665D01*
X169654853Y-99276426D01*
X169546680Y-99015273D01*
X169389637Y-98780241D01*
X169189759Y-98580363D01*
X168954727Y-98423320D01*
X168693574Y-98315147D01*
X168416335Y-98260000D01*
X168133665Y-98260000D01*
X167856426Y-98315147D01*
X167595273Y-98423320D01*
X167360241Y-98580363D01*
X167160363Y-98780241D01*
X167003320Y-99015273D01*
X166941500Y-99164520D01*
X166879680Y-99015273D01*
X166722637Y-98780241D01*
X166522759Y-98580363D01*
X166287727Y-98423320D01*
X166026574Y-98315147D01*
X165749335Y-98260000D01*
X165466665Y-98260000D01*
X165189426Y-98315147D01*
X164928273Y-98423320D01*
X164693241Y-98580363D01*
X164493363Y-98780241D01*
X164336320Y-99015273D01*
X164228147Y-99276426D01*
X164173000Y-99553665D01*
X156883000Y-99553665D01*
X156827853Y-99276426D01*
X156719680Y-99015273D01*
X156562637Y-98780241D01*
X156362759Y-98580363D01*
X156127727Y-98423320D01*
X155866574Y-98315147D01*
X155589335Y-98260000D01*
X155306665Y-98260000D01*
X155029426Y-98315147D01*
X154768273Y-98423320D01*
X154533241Y-98580363D01*
X154333363Y-98780241D01*
X154176320Y-99015273D01*
X154068147Y-99276426D01*
X154013000Y-99553665D01*
X153835000Y-99553665D01*
X153779853Y-99276426D01*
X153671680Y-99015273D01*
X153514637Y-98780241D01*
X153314759Y-98580363D01*
X153079727Y-98423320D01*
X152818574Y-98315147D01*
X152541335Y-98260000D01*
X152258665Y-98260000D01*
X152030401Y-98305405D01*
X152047205Y-98280256D01*
X152125226Y-98091898D01*
X152165000Y-97891939D01*
X152165000Y-97688061D01*
X152125226Y-97488102D01*
X152066158Y-97345500D01*
X152495722Y-97345500D01*
X152555363Y-97434759D01*
X152755241Y-97634637D01*
X152990273Y-97791680D01*
X153251426Y-97899853D01*
X153528665Y-97955000D01*
X153811335Y-97955000D01*
X154088574Y-97899853D01*
X154349727Y-97791680D01*
X154584759Y-97634637D01*
X154784637Y-97434759D01*
X154941680Y-97199727D01*
X155049853Y-96938574D01*
X155105000Y-96661335D01*
X155105000Y-96378665D01*
X155076232Y-96234039D01*
X155688096Y-96234039D01*
X155705633Y-96316818D01*
X155816285Y-96576646D01*
X155975500Y-96809895D01*
X156177161Y-97007601D01*
X156413517Y-97162166D01*
X156675486Y-97267650D01*
X156953000Y-97320000D01*
X157353000Y-97320000D01*
X157353000Y-96012000D01*
X157607000Y-96012000D01*
X157607000Y-97320000D01*
X158007000Y-97320000D01*
X158284514Y-97267650D01*
X158546483Y-97162166D01*
X158782839Y-97007601D01*
X158984500Y-96809895D01*
X159143715Y-96576646D01*
X159254367Y-96316818D01*
X159271904Y-96234039D01*
X159149915Y-96012000D01*
X157607000Y-96012000D01*
X157353000Y-96012000D01*
X155810085Y-96012000D01*
X155688096Y-96234039D01*
X155076232Y-96234039D01*
X155049853Y-96101426D01*
X154941680Y-95840273D01*
X154784637Y-95605241D01*
X154584759Y-95405363D01*
X154349727Y-95248320D01*
X154088574Y-95140147D01*
X153811335Y-95085000D01*
X153528665Y-95085000D01*
X153251426Y-95140147D01*
X152990273Y-95248320D01*
X152755241Y-95405363D01*
X152555363Y-95605241D01*
X152495722Y-95694500D01*
X151034278Y-95694500D01*
X150974637Y-95605241D01*
X150774759Y-95405363D01*
X150539727Y-95248320D01*
X150278574Y-95140147D01*
X150001335Y-95085000D01*
X149718665Y-95085000D01*
X149441426Y-95140147D01*
X149180273Y-95248320D01*
X148945241Y-95405363D01*
X148745363Y-95605241D01*
X148685722Y-95694500D01*
X147224278Y-95694500D01*
X147164637Y-95605241D01*
X146964759Y-95405363D01*
X146729727Y-95248320D01*
X146468574Y-95140147D01*
X146191335Y-95085000D01*
X145908665Y-95085000D01*
X145631426Y-95140147D01*
X145370273Y-95248320D01*
X145135241Y-95405363D01*
X144935363Y-95605241D01*
X144875722Y-95694500D01*
X143414278Y-95694500D01*
X143354637Y-95605241D01*
X143154759Y-95405363D01*
X142919727Y-95248320D01*
X142658574Y-95140147D01*
X142381335Y-95085000D01*
X142098665Y-95085000D01*
X141821426Y-95140147D01*
X141560273Y-95248320D01*
X141325241Y-95405363D01*
X141125363Y-95605241D01*
X141065722Y-95694500D01*
X141010550Y-95694500D01*
X140969999Y-95690506D01*
X140929449Y-95694500D01*
X140929447Y-95694500D01*
X140808174Y-95706444D01*
X140652566Y-95753647D01*
X140559111Y-95803601D01*
X140509157Y-95830301D01*
X140447596Y-95880823D01*
X140383459Y-95933459D01*
X140357606Y-95964961D01*
X139854406Y-96468162D01*
X139865000Y-96412000D01*
X139865000Y-96012000D01*
X138557000Y-96012000D01*
X138557000Y-97554915D01*
X138779039Y-97676904D01*
X138861818Y-97659367D01*
X138884316Y-97649786D01*
X138870506Y-97790000D01*
X138874501Y-97830560D01*
X138874501Y-98520722D01*
X138785241Y-98580363D01*
X138585363Y-98780241D01*
X138428320Y-99015273D01*
X138320147Y-99276426D01*
X138265000Y-99553665D01*
X130975000Y-99553665D01*
X130919853Y-99276426D01*
X130811680Y-99015273D01*
X130654637Y-98780241D01*
X130454759Y-98580363D01*
X130219727Y-98423320D01*
X129958574Y-98315147D01*
X129681335Y-98260000D01*
X129398665Y-98260000D01*
X129121426Y-98315147D01*
X128860273Y-98423320D01*
X128625241Y-98580363D01*
X128425363Y-98780241D01*
X128270000Y-99012759D01*
X128114637Y-98780241D01*
X127914759Y-98580363D01*
X127760000Y-98476957D01*
X127760000Y-97629864D01*
X127988692Y-97699236D01*
X128270000Y-97726943D01*
X128551309Y-97699236D01*
X128821808Y-97617182D01*
X129071101Y-97483932D01*
X129289608Y-97304608D01*
X129468932Y-97086101D01*
X129540000Y-96953142D01*
X129611068Y-97086101D01*
X129790393Y-97304608D01*
X130008900Y-97483932D01*
X130258193Y-97617182D01*
X130528692Y-97699236D01*
X130810000Y-97726943D01*
X131091309Y-97699236D01*
X131361808Y-97617182D01*
X131611101Y-97483932D01*
X131829608Y-97304608D01*
X132008932Y-97086101D01*
X132080000Y-96953142D01*
X132151068Y-97086101D01*
X132330393Y-97304608D01*
X132548900Y-97483932D01*
X132798193Y-97617182D01*
X133068692Y-97699236D01*
X133350000Y-97726943D01*
X133631309Y-97699236D01*
X133901808Y-97617182D01*
X134151101Y-97483932D01*
X134369608Y-97304608D01*
X134548932Y-97086101D01*
X134620000Y-96953142D01*
X134691068Y-97086101D01*
X134870393Y-97304608D01*
X135088900Y-97483932D01*
X135338193Y-97617182D01*
X135608692Y-97699236D01*
X135890000Y-97726943D01*
X136171309Y-97699236D01*
X136441808Y-97617182D01*
X136691101Y-97483932D01*
X136909608Y-97304608D01*
X137088932Y-97086101D01*
X137157265Y-96958259D01*
X137307399Y-97187839D01*
X137505105Y-97389500D01*
X137738354Y-97548715D01*
X137998182Y-97659367D01*
X138080961Y-97676904D01*
X138303000Y-97554915D01*
X138303000Y-96012000D01*
X138283000Y-96012000D01*
X138283000Y-95758000D01*
X138303000Y-95758000D01*
X138303000Y-94215085D01*
X138557000Y-94215085D01*
X138557000Y-95758000D01*
X139865000Y-95758000D01*
X139865000Y-95358000D01*
X139812650Y-95080486D01*
X139707166Y-94818517D01*
X139552601Y-94582161D01*
X139354895Y-94380500D01*
X139121646Y-94221285D01*
X138861818Y-94110633D01*
X138779039Y-94093096D01*
X138557000Y-94215085D01*
X138303000Y-94215085D01*
X138080961Y-94093096D01*
X137998182Y-94110633D01*
X137738354Y-94221285D01*
X137505105Y-94380500D01*
X137307399Y-94582161D01*
X137157265Y-94811741D01*
X137088932Y-94683899D01*
X136909607Y-94465392D01*
X136691100Y-94286068D01*
X136441807Y-94152818D01*
X136171308Y-94070764D01*
X135890000Y-94043057D01*
X135608691Y-94070764D01*
X135338192Y-94152818D01*
X135088899Y-94286068D01*
X134870392Y-94465393D01*
X134691068Y-94683900D01*
X134620000Y-94816858D01*
X134548932Y-94683899D01*
X134369607Y-94465392D01*
X134151100Y-94286068D01*
X133901807Y-94152818D01*
X133744170Y-94105000D01*
X133916289Y-94105000D01*
X133960226Y-94148937D01*
X134129744Y-94262205D01*
X134318102Y-94340226D01*
X134518061Y-94380000D01*
X134721939Y-94380000D01*
X134921898Y-94340226D01*
X135110256Y-94262205D01*
X135279774Y-94148937D01*
X135423937Y-94004774D01*
X135537205Y-93835256D01*
X135615226Y-93646898D01*
X135655000Y-93446939D01*
X135655000Y-93243061D01*
X135615226Y-93043102D01*
X135537205Y-92854744D01*
X135423937Y-92685226D01*
X135279774Y-92541063D01*
X135110256Y-92427795D01*
X134921898Y-92349774D01*
X134721939Y-92310000D01*
X134518061Y-92310000D01*
X134350254Y-92343379D01*
X134345226Y-92318102D01*
X134267205Y-92129744D01*
X134153937Y-91960226D01*
X134009774Y-91816063D01*
X133840256Y-91702795D01*
X133651898Y-91624774D01*
X133451939Y-91585000D01*
X133248061Y-91585000D01*
X133048102Y-91624774D01*
X132859744Y-91702795D01*
X132690226Y-91816063D01*
X132646289Y-91860000D01*
X122047322Y-91860000D01*
X122009999Y-91856324D01*
X121972676Y-91860000D01*
X121972667Y-91860000D01*
X121861014Y-91870997D01*
X121717753Y-91914454D01*
X121585724Y-91985026D01*
X121585722Y-91985027D01*
X121585723Y-91985027D01*
X121498996Y-92056201D01*
X121498992Y-92056205D01*
X121469999Y-92079999D01*
X121446205Y-92108992D01*
X120138998Y-93416201D01*
X120110000Y-93439999D01*
X120086202Y-93468997D01*
X120086201Y-93468998D01*
X120015026Y-93555724D01*
X119944454Y-93687754D01*
X119919726Y-93769276D01*
X119900998Y-93831014D01*
X119895986Y-93881903D01*
X119886324Y-93980000D01*
X119890001Y-94017332D01*
X119890001Y-94046928D01*
X119850000Y-94046928D01*
X119725518Y-94059188D01*
X119605820Y-94095498D01*
X119495506Y-94154463D01*
X119398815Y-94233815D01*
X119319463Y-94330506D01*
X119260498Y-94440820D01*
X119224188Y-94560518D01*
X119211928Y-94685000D01*
X118904347Y-94685000D01*
X118915217Y-94464488D01*
X118873787Y-94184870D01*
X118778603Y-93918708D01*
X118711671Y-93793486D01*
X118467702Y-93721903D01*
X117654605Y-94535000D01*
X117295395Y-94535000D01*
X116482298Y-93721903D01*
X116238329Y-93793486D01*
X116117429Y-94048996D01*
X116048700Y-94323184D01*
X116034783Y-94605512D01*
X115595000Y-94605512D01*
X115595000Y-93542298D01*
X116661903Y-93542298D01*
X117475000Y-94355395D01*
X118288097Y-93542298D01*
X118216514Y-93298329D01*
X117961004Y-93177429D01*
X117686816Y-93108700D01*
X117404488Y-93094783D01*
X117124870Y-93136213D01*
X116858708Y-93231397D01*
X116733486Y-93298329D01*
X116661903Y-93542298D01*
X115595000Y-93542298D01*
X115595000Y-89393665D01*
X116040000Y-89393665D01*
X116040000Y-89676335D01*
X116095147Y-89953574D01*
X116203320Y-90214727D01*
X116360363Y-90449759D01*
X116560241Y-90649637D01*
X116795273Y-90806680D01*
X117056426Y-90914853D01*
X117333665Y-90970000D01*
X117616335Y-90970000D01*
X117893574Y-90914853D01*
X118154727Y-90806680D01*
X118389759Y-90649637D01*
X118589637Y-90449759D01*
X118746680Y-90214727D01*
X118854853Y-89953574D01*
X118910000Y-89676335D01*
X118910000Y-89393665D01*
X118854853Y-89116426D01*
X118746680Y-88855273D01*
X118589637Y-88620241D01*
X118389759Y-88420363D01*
X118154727Y-88263320D01*
X117893574Y-88155147D01*
X117616335Y-88100000D01*
X117333665Y-88100000D01*
X117056426Y-88155147D01*
X116795273Y-88263320D01*
X116560241Y-88420363D01*
X116360363Y-88620241D01*
X116203320Y-88855273D01*
X116095147Y-89116426D01*
X116040000Y-89393665D01*
X115595000Y-89393665D01*
X115595000Y-87794509D01*
X119215000Y-87794509D01*
X119215000Y-88735492D01*
X119235764Y-88946309D01*
X119317818Y-89216808D01*
X119451068Y-89466101D01*
X119630393Y-89684608D01*
X119848900Y-89863932D01*
X120098193Y-89997182D01*
X120368692Y-90079236D01*
X120650000Y-90106943D01*
X120931309Y-90079236D01*
X121201808Y-89997182D01*
X121451101Y-89863932D01*
X121669608Y-89684608D01*
X121848932Y-89466101D01*
X121917265Y-89338259D01*
X122067399Y-89567839D01*
X122265105Y-89769500D01*
X122498354Y-89928715D01*
X122758182Y-90039367D01*
X122840961Y-90056904D01*
X123063000Y-89934915D01*
X123063000Y-88392000D01*
X123043000Y-88392000D01*
X123043000Y-88138000D01*
X123063000Y-88138000D01*
X123063000Y-86595085D01*
X122840961Y-86473096D01*
X122758182Y-86490633D01*
X122498354Y-86601285D01*
X122265105Y-86760500D01*
X122067399Y-86962161D01*
X121917265Y-87191741D01*
X121848932Y-87063899D01*
X121669607Y-86845392D01*
X121451100Y-86666068D01*
X121201807Y-86532818D01*
X120931308Y-86450764D01*
X120650000Y-86423057D01*
X120368691Y-86450764D01*
X120098192Y-86532818D01*
X119848899Y-86666068D01*
X119630392Y-86845393D01*
X119451068Y-87063900D01*
X119317818Y-87313193D01*
X119235764Y-87583692D01*
X119215000Y-87794509D01*
X115595000Y-87794509D01*
X115595000Y-85542702D01*
X117931903Y-85542702D01*
X118003486Y-85786671D01*
X118258996Y-85907571D01*
X118533184Y-85976300D01*
X118815512Y-85990217D01*
X119095130Y-85948787D01*
X119361292Y-85853603D01*
X119486514Y-85786671D01*
X119558097Y-85542702D01*
X118745000Y-84729605D01*
X117931903Y-85542702D01*
X115595000Y-85542702D01*
X115595000Y-84620512D01*
X117304783Y-84620512D01*
X117346213Y-84900130D01*
X117441397Y-85166292D01*
X117508329Y-85291514D01*
X117752298Y-85363097D01*
X118565395Y-84550000D01*
X118551253Y-84535858D01*
X118730858Y-84356253D01*
X118745000Y-84370395D01*
X118759143Y-84356253D01*
X118938748Y-84535858D01*
X118924605Y-84550000D01*
X119737702Y-85363097D01*
X119981671Y-85291514D01*
X120102571Y-85036004D01*
X120124463Y-84948665D01*
X122390000Y-84948665D01*
X122390000Y-85231335D01*
X122445147Y-85508574D01*
X122553320Y-85769727D01*
X122710363Y-86004759D01*
X122910241Y-86204637D01*
X123145273Y-86361680D01*
X123406426Y-86469853D01*
X123508122Y-86490082D01*
X123317000Y-86595085D01*
X123317000Y-88138000D01*
X123337000Y-88138000D01*
X123337000Y-88392000D01*
X123317000Y-88392000D01*
X123317000Y-89934915D01*
X123539039Y-90056904D01*
X123621818Y-90039367D01*
X123881646Y-89928715D01*
X124114895Y-89769500D01*
X124312601Y-89567839D01*
X124462735Y-89338259D01*
X124531068Y-89466101D01*
X124710393Y-89684608D01*
X124928900Y-89863932D01*
X125178193Y-89997182D01*
X125448692Y-90079236D01*
X125730000Y-90106943D01*
X126011309Y-90079236D01*
X126281808Y-89997182D01*
X126531101Y-89863932D01*
X126749608Y-89684608D01*
X126928932Y-89466101D01*
X127000000Y-89333142D01*
X127071068Y-89466101D01*
X127250393Y-89684608D01*
X127468900Y-89863932D01*
X127718193Y-89997182D01*
X127988692Y-90079236D01*
X128270000Y-90106943D01*
X128551309Y-90079236D01*
X128821808Y-89997182D01*
X129071101Y-89863932D01*
X129289608Y-89684608D01*
X129468932Y-89466101D01*
X129540000Y-89333142D01*
X129611068Y-89466101D01*
X129790393Y-89684608D01*
X130008900Y-89863932D01*
X130258193Y-89997182D01*
X130329779Y-90018897D01*
X130320000Y-90068061D01*
X130320000Y-90271939D01*
X130359774Y-90471898D01*
X130437795Y-90660256D01*
X130551063Y-90829774D01*
X130695226Y-90973937D01*
X130864744Y-91087205D01*
X131053102Y-91165226D01*
X131253061Y-91205000D01*
X131456939Y-91205000D01*
X131656898Y-91165226D01*
X131845256Y-91087205D01*
X132014774Y-90973937D01*
X132058711Y-90930000D01*
X142716279Y-90930000D01*
X142760216Y-90973937D01*
X142929734Y-91087205D01*
X143118092Y-91165226D01*
X143318051Y-91205000D01*
X143385001Y-91205000D01*
X143385001Y-92006288D01*
X143341063Y-92050226D01*
X143227795Y-92219744D01*
X143149774Y-92408102D01*
X143110000Y-92608061D01*
X143110000Y-92811939D01*
X143149774Y-93011898D01*
X143227795Y-93200256D01*
X143341063Y-93369774D01*
X143485226Y-93513937D01*
X143654744Y-93627205D01*
X143843102Y-93705226D01*
X143873225Y-93711218D01*
X143874774Y-93719006D01*
X143952795Y-93907364D01*
X144066063Y-94076882D01*
X144210226Y-94221045D01*
X144379744Y-94334313D01*
X144568102Y-94412334D01*
X144768061Y-94452108D01*
X144971939Y-94452108D01*
X145171898Y-94412334D01*
X145360256Y-94334313D01*
X145529774Y-94221045D01*
X145673937Y-94076882D01*
X145787205Y-93907364D01*
X145865226Y-93719006D01*
X145905000Y-93519047D01*
X145905000Y-93345000D01*
X155638057Y-93345000D01*
X155665764Y-93626309D01*
X155747818Y-93896808D01*
X155881068Y-94146101D01*
X156060392Y-94364608D01*
X156278899Y-94543932D01*
X156406741Y-94612265D01*
X156177161Y-94762399D01*
X155975500Y-94960105D01*
X155816285Y-95193354D01*
X155705633Y-95453182D01*
X155688096Y-95535961D01*
X155810085Y-95758000D01*
X157353000Y-95758000D01*
X157353000Y-95738000D01*
X157607000Y-95738000D01*
X157607000Y-95758000D01*
X159149915Y-95758000D01*
X159271904Y-95535961D01*
X159254367Y-95453182D01*
X159143715Y-95193354D01*
X158984500Y-94960105D01*
X158782839Y-94762399D01*
X158553259Y-94612265D01*
X158681101Y-94543932D01*
X158899608Y-94364608D01*
X159078932Y-94146101D01*
X159212182Y-93896808D01*
X159294236Y-93626309D01*
X159321943Y-93345000D01*
X163258057Y-93345000D01*
X163285764Y-93626309D01*
X163367818Y-93896808D01*
X163501068Y-94146101D01*
X163680392Y-94364608D01*
X163898899Y-94543932D01*
X164031858Y-94615000D01*
X163898899Y-94686068D01*
X163680392Y-94865392D01*
X163501068Y-95083899D01*
X163367818Y-95333192D01*
X163285764Y-95603691D01*
X163258057Y-95885000D01*
X163285764Y-96166309D01*
X163367818Y-96436808D01*
X163501068Y-96686101D01*
X163680392Y-96904608D01*
X163898899Y-97083932D01*
X164148192Y-97217182D01*
X164418691Y-97299236D01*
X164629508Y-97320000D01*
X165570492Y-97320000D01*
X165781309Y-97299236D01*
X166051808Y-97217182D01*
X166301101Y-97083932D01*
X166519608Y-96904608D01*
X166698932Y-96686101D01*
X166832182Y-96436808D01*
X166914236Y-96166309D01*
X166941943Y-95885000D01*
X166922511Y-95687702D01*
X167461903Y-95687702D01*
X167533486Y-95931671D01*
X167788996Y-96052571D01*
X168063184Y-96121300D01*
X168345512Y-96135217D01*
X168625130Y-96093787D01*
X168891292Y-95998603D01*
X169016514Y-95931671D01*
X169088097Y-95687702D01*
X168275000Y-94874605D01*
X167461903Y-95687702D01*
X166922511Y-95687702D01*
X166914236Y-95603691D01*
X166832182Y-95333192D01*
X166698932Y-95083899D01*
X166519608Y-94865392D01*
X166397904Y-94765512D01*
X166834783Y-94765512D01*
X166876213Y-95045130D01*
X166971397Y-95311292D01*
X167038329Y-95436514D01*
X167282298Y-95508097D01*
X168095395Y-94695000D01*
X168454605Y-94695000D01*
X169267702Y-95508097D01*
X169511671Y-95436514D01*
X169632571Y-95181004D01*
X169701300Y-94906816D01*
X169715217Y-94624488D01*
X169673787Y-94344870D01*
X169578603Y-94078708D01*
X169511671Y-93953486D01*
X169267702Y-93881903D01*
X168454605Y-94695000D01*
X168095395Y-94695000D01*
X167282298Y-93881903D01*
X167038329Y-93953486D01*
X166917429Y-94208996D01*
X166848700Y-94483184D01*
X166834783Y-94765512D01*
X166397904Y-94765512D01*
X166301101Y-94686068D01*
X166168142Y-94615000D01*
X166301101Y-94543932D01*
X166519608Y-94364608D01*
X166698932Y-94146101D01*
X166832182Y-93896808D01*
X166914236Y-93626309D01*
X166941943Y-93345000D01*
X166914236Y-93063691D01*
X166832182Y-92793192D01*
X166698932Y-92543899D01*
X166519608Y-92325392D01*
X166301101Y-92146068D01*
X166173259Y-92077735D01*
X166393566Y-91933665D01*
X166840000Y-91933665D01*
X166840000Y-92216335D01*
X166895147Y-92493574D01*
X167003320Y-92754727D01*
X167160363Y-92989759D01*
X167360241Y-93189637D01*
X167595273Y-93346680D01*
X167682601Y-93382852D01*
X167658708Y-93391397D01*
X167533486Y-93458329D01*
X167461903Y-93702298D01*
X168275000Y-94515395D01*
X169088097Y-93702298D01*
X169016514Y-93458329D01*
X168861855Y-93385149D01*
X168954727Y-93346680D01*
X169189759Y-93189637D01*
X169389637Y-92989759D01*
X169546680Y-92754727D01*
X169654853Y-92493574D01*
X169710000Y-92216335D01*
X169710000Y-91933665D01*
X169654853Y-91656426D01*
X169546680Y-91395273D01*
X169389637Y-91160241D01*
X169189759Y-90960363D01*
X168954727Y-90803320D01*
X168693574Y-90695147D01*
X168416335Y-90640000D01*
X168133665Y-90640000D01*
X167856426Y-90695147D01*
X167595273Y-90803320D01*
X167360241Y-90960363D01*
X167160363Y-91160241D01*
X167003320Y-91395273D01*
X166895147Y-91656426D01*
X166840000Y-91933665D01*
X166393566Y-91933665D01*
X166402839Y-91927601D01*
X166604500Y-91729895D01*
X166763715Y-91496646D01*
X166874367Y-91236818D01*
X166891904Y-91154039D01*
X166769915Y-90932000D01*
X165227000Y-90932000D01*
X165227000Y-90952000D01*
X164973000Y-90952000D01*
X164973000Y-90932000D01*
X163430085Y-90932000D01*
X163308096Y-91154039D01*
X163325633Y-91236818D01*
X163436285Y-91496646D01*
X163595500Y-91729895D01*
X163797161Y-91927601D01*
X164026741Y-92077735D01*
X163898899Y-92146068D01*
X163680392Y-92325392D01*
X163501068Y-92543899D01*
X163367818Y-92793192D01*
X163285764Y-93063691D01*
X163258057Y-93345000D01*
X159321943Y-93345000D01*
X159294236Y-93063691D01*
X159212182Y-92793192D01*
X159078932Y-92543899D01*
X158899608Y-92325392D01*
X158681101Y-92146068D01*
X158553259Y-92077735D01*
X158782839Y-91927601D01*
X158984500Y-91729895D01*
X159143715Y-91496646D01*
X159254367Y-91236818D01*
X159271904Y-91154039D01*
X159149915Y-90932000D01*
X157607000Y-90932000D01*
X157607000Y-90952000D01*
X157353000Y-90952000D01*
X157353000Y-90932000D01*
X155810085Y-90932000D01*
X155688096Y-91154039D01*
X155705633Y-91236818D01*
X155816285Y-91496646D01*
X155975500Y-91729895D01*
X156177161Y-91927601D01*
X156406741Y-92077735D01*
X156278899Y-92146068D01*
X156060392Y-92325392D01*
X155881068Y-92543899D01*
X155747818Y-92793192D01*
X155665764Y-93063691D01*
X155638057Y-93345000D01*
X145905000Y-93345000D01*
X145905000Y-93315169D01*
X145865226Y-93115210D01*
X145787205Y-92926852D01*
X145673937Y-92757334D01*
X145630000Y-92713397D01*
X145630000Y-91567322D01*
X145633676Y-91529999D01*
X145630000Y-91492677D01*
X145630000Y-91492667D01*
X145619003Y-91381014D01*
X145575546Y-91237753D01*
X145540000Y-91171252D01*
X145540000Y-90241983D01*
X145631426Y-90279853D01*
X145908665Y-90335000D01*
X146191335Y-90335000D01*
X146468574Y-90279853D01*
X146560000Y-90241983D01*
X146560000Y-91461289D01*
X146516063Y-91505226D01*
X146402795Y-91674744D01*
X146324774Y-91863102D01*
X146285000Y-92063061D01*
X146285000Y-92266939D01*
X146324774Y-92466898D01*
X146402795Y-92655256D01*
X146516063Y-92824774D01*
X146660226Y-92968937D01*
X146829744Y-93082205D01*
X147018102Y-93160226D01*
X147218061Y-93200000D01*
X147421939Y-93200000D01*
X147621898Y-93160226D01*
X147810256Y-93082205D01*
X147955000Y-92985490D01*
X148099744Y-93082205D01*
X148288102Y-93160226D01*
X148488061Y-93200000D01*
X148691939Y-93200000D01*
X148891898Y-93160226D01*
X149080256Y-93082205D01*
X149249774Y-92968937D01*
X149393937Y-92824774D01*
X149507205Y-92655256D01*
X149585226Y-92466898D01*
X149625000Y-92266939D01*
X149625000Y-92063061D01*
X149585226Y-91863102D01*
X149507205Y-91674744D01*
X149393937Y-91505226D01*
X149249774Y-91361063D01*
X149080256Y-91247795D01*
X148891898Y-91169774D01*
X148838836Y-91159219D01*
X148838836Y-89908232D01*
X148945241Y-90014637D01*
X149180273Y-90171680D01*
X149441426Y-90279853D01*
X149718665Y-90335000D01*
X150001335Y-90335000D01*
X150278574Y-90279853D01*
X150539727Y-90171680D01*
X150774759Y-90014637D01*
X150974637Y-89814759D01*
X151131680Y-89579727D01*
X151239853Y-89318574D01*
X151295000Y-89041335D01*
X151295000Y-88758665D01*
X152235000Y-88758665D01*
X152235000Y-89041335D01*
X152290147Y-89318574D01*
X152398320Y-89579727D01*
X152555363Y-89814759D01*
X152755241Y-90014637D01*
X152990273Y-90171680D01*
X153251426Y-90279853D01*
X153528665Y-90335000D01*
X153811335Y-90335000D01*
X154088574Y-90279853D01*
X154349727Y-90171680D01*
X154584759Y-90014637D01*
X154784637Y-89814759D01*
X154941680Y-89579727D01*
X155049853Y-89318574D01*
X155105000Y-89041335D01*
X155105000Y-88758665D01*
X155049853Y-88481426D01*
X154941680Y-88220273D01*
X154784637Y-87985241D01*
X154584759Y-87785363D01*
X154349727Y-87628320D01*
X154088574Y-87520147D01*
X153811335Y-87465000D01*
X153528665Y-87465000D01*
X153251426Y-87520147D01*
X152990273Y-87628320D01*
X152755241Y-87785363D01*
X152555363Y-87985241D01*
X152398320Y-88220273D01*
X152290147Y-88481426D01*
X152235000Y-88758665D01*
X151295000Y-88758665D01*
X151239853Y-88481426D01*
X151131680Y-88220273D01*
X150974637Y-87985241D01*
X150774759Y-87785363D01*
X150539727Y-87628320D01*
X150278574Y-87520147D01*
X150001335Y-87465000D01*
X149718665Y-87465000D01*
X149441426Y-87520147D01*
X149180273Y-87628320D01*
X148945241Y-87785363D01*
X148838836Y-87891768D01*
X148838836Y-85687427D01*
X148882773Y-85643490D01*
X148996041Y-85473972D01*
X149074062Y-85285614D01*
X149113836Y-85085655D01*
X149113836Y-84948665D01*
X151600000Y-84948665D01*
X151600000Y-85231335D01*
X151655147Y-85508574D01*
X151763320Y-85769727D01*
X151920363Y-86004759D01*
X152120241Y-86204637D01*
X152355273Y-86361680D01*
X152616426Y-86469853D01*
X152893665Y-86525000D01*
X153176335Y-86525000D01*
X153453574Y-86469853D01*
X153714727Y-86361680D01*
X153949759Y-86204637D01*
X154149637Y-86004759D01*
X154306680Y-85769727D01*
X154414853Y-85508574D01*
X154470000Y-85231335D01*
X154470000Y-84948665D01*
X154414853Y-84671426D01*
X154306680Y-84410273D01*
X154149637Y-84175241D01*
X153949759Y-83975363D01*
X153714727Y-83818320D01*
X153453574Y-83710147D01*
X153176335Y-83655000D01*
X152893665Y-83655000D01*
X152616426Y-83710147D01*
X152355273Y-83818320D01*
X152120241Y-83975363D01*
X151920363Y-84175241D01*
X151763320Y-84410273D01*
X151655147Y-84671426D01*
X151600000Y-84948665D01*
X149113836Y-84948665D01*
X149113836Y-84881777D01*
X149074062Y-84681818D01*
X148996041Y-84493460D01*
X148882773Y-84323942D01*
X148738610Y-84179779D01*
X148569092Y-84066511D01*
X148380734Y-83988490D01*
X148180775Y-83948716D01*
X147976897Y-83948716D01*
X147776938Y-83988490D01*
X147588580Y-84066511D01*
X147419062Y-84179779D01*
X147274899Y-84323942D01*
X147161631Y-84493460D01*
X147108471Y-84621799D01*
X147018102Y-84639774D01*
X146829744Y-84717795D01*
X146804910Y-84734388D01*
X146766246Y-84606913D01*
X146646037Y-84352580D01*
X146478519Y-84126586D01*
X146270131Y-83937615D01*
X146028881Y-83792930D01*
X145764040Y-83698091D01*
X145542000Y-83819376D01*
X145542000Y-84963000D01*
X145562000Y-84963000D01*
X145562000Y-85217000D01*
X145542000Y-85217000D01*
X145542000Y-86360624D01*
X145764040Y-86481909D01*
X146028881Y-86387070D01*
X146270131Y-86242385D01*
X146401839Y-86122949D01*
X146402795Y-86125256D01*
X146516063Y-86294774D01*
X146560001Y-86338712D01*
X146560001Y-87558017D01*
X146468574Y-87520147D01*
X146191335Y-87465000D01*
X145908665Y-87465000D01*
X145631426Y-87520147D01*
X145540000Y-87558017D01*
X145540000Y-87032332D01*
X145543677Y-86995000D01*
X145529003Y-86846014D01*
X145485546Y-86702753D01*
X145414974Y-86570724D01*
X145343799Y-86483997D01*
X145320001Y-86454999D01*
X145291002Y-86431200D01*
X145244297Y-86384496D01*
X145288000Y-86360624D01*
X145288000Y-85217000D01*
X144145085Y-85217000D01*
X144023096Y-85439039D01*
X144063754Y-85573087D01*
X144076474Y-85600000D01*
X143581983Y-85600000D01*
X143619853Y-85508574D01*
X143675000Y-85231335D01*
X143675000Y-84948665D01*
X143633685Y-84740961D01*
X144023096Y-84740961D01*
X144145085Y-84963000D01*
X145288000Y-84963000D01*
X145288000Y-83819376D01*
X145065960Y-83698091D01*
X144801119Y-83792930D01*
X144559869Y-83937615D01*
X144351481Y-84126586D01*
X144183963Y-84352580D01*
X144063754Y-84606913D01*
X144023096Y-84740961D01*
X143633685Y-84740961D01*
X143619853Y-84671426D01*
X143511680Y-84410273D01*
X143354637Y-84175241D01*
X143154759Y-83975363D01*
X142919727Y-83818320D01*
X142658574Y-83710147D01*
X142381335Y-83655000D01*
X142098665Y-83655000D01*
X141821426Y-83710147D01*
X141560273Y-83818320D01*
X141364605Y-83949061D01*
X141370000Y-83921939D01*
X141370000Y-83718061D01*
X141330226Y-83518102D01*
X141252205Y-83329744D01*
X141155491Y-83185000D01*
X155638057Y-83185000D01*
X155665764Y-83466309D01*
X155747818Y-83736808D01*
X155881068Y-83986101D01*
X156060392Y-84204608D01*
X156278899Y-84383932D01*
X156411858Y-84455000D01*
X156278899Y-84526068D01*
X156060392Y-84705392D01*
X155881068Y-84923899D01*
X155747818Y-85173192D01*
X155665764Y-85443691D01*
X155638057Y-85725000D01*
X155665764Y-86006309D01*
X155747818Y-86276808D01*
X155881068Y-86526101D01*
X156060392Y-86744608D01*
X156278899Y-86923932D01*
X156411858Y-86995000D01*
X156278899Y-87066068D01*
X156060392Y-87245392D01*
X155881068Y-87463899D01*
X155747818Y-87713192D01*
X155665764Y-87983691D01*
X155638057Y-88265000D01*
X155665764Y-88546309D01*
X155747818Y-88816808D01*
X155881068Y-89066101D01*
X156060392Y-89284608D01*
X156278899Y-89463932D01*
X156406741Y-89532265D01*
X156177161Y-89682399D01*
X155975500Y-89880105D01*
X155816285Y-90113354D01*
X155705633Y-90373182D01*
X155688096Y-90455961D01*
X155810085Y-90678000D01*
X157353000Y-90678000D01*
X157353000Y-90658000D01*
X157607000Y-90658000D01*
X157607000Y-90678000D01*
X159149915Y-90678000D01*
X159271904Y-90455961D01*
X159254367Y-90373182D01*
X159143715Y-90113354D01*
X158984500Y-89880105D01*
X158782839Y-89682399D01*
X158553259Y-89532265D01*
X158681101Y-89463932D01*
X158899608Y-89284608D01*
X159078932Y-89066101D01*
X159212182Y-88816808D01*
X159294236Y-88546309D01*
X159321943Y-88265000D01*
X159298797Y-88030000D01*
X159486939Y-88030000D01*
X159686898Y-87990226D01*
X159875256Y-87912205D01*
X160044774Y-87798937D01*
X160188937Y-87654774D01*
X160302205Y-87485256D01*
X160380226Y-87296898D01*
X160420000Y-87096939D01*
X160420000Y-86893061D01*
X160380226Y-86693102D01*
X160302205Y-86504744D01*
X160188937Y-86335226D01*
X160145000Y-86291289D01*
X160145000Y-82618711D01*
X160188937Y-82574774D01*
X160302205Y-82405256D01*
X160380226Y-82216898D01*
X160420000Y-82016939D01*
X160420000Y-81813061D01*
X160380226Y-81613102D01*
X160302205Y-81424744D01*
X160188937Y-81255226D01*
X160044774Y-81111063D01*
X159875256Y-80997795D01*
X159686898Y-80919774D01*
X159486939Y-80880000D01*
X159318072Y-80880000D01*
X159318072Y-79845000D01*
X159305812Y-79720518D01*
X159269502Y-79600820D01*
X159210537Y-79490506D01*
X159131185Y-79393815D01*
X159034494Y-79314463D01*
X158924180Y-79255498D01*
X158804482Y-79219188D01*
X158680000Y-79206928D01*
X156280000Y-79206928D01*
X156155518Y-79219188D01*
X156035820Y-79255498D01*
X155925506Y-79314463D01*
X155828815Y-79393815D01*
X155749463Y-79490506D01*
X155690498Y-79600820D01*
X155654188Y-79720518D01*
X155641928Y-79845000D01*
X155641928Y-81445000D01*
X155654188Y-81569482D01*
X155690498Y-81689180D01*
X155749463Y-81799494D01*
X155828815Y-81896185D01*
X155925506Y-81975537D01*
X156035820Y-82034502D01*
X156155518Y-82070812D01*
X156173482Y-82072581D01*
X156060392Y-82165392D01*
X155881068Y-82383899D01*
X155747818Y-82633192D01*
X155665764Y-82903691D01*
X155638057Y-83185000D01*
X141155491Y-83185000D01*
X141138937Y-83160226D01*
X140994774Y-83016063D01*
X140825256Y-82902795D01*
X140636898Y-82824774D01*
X140436939Y-82785000D01*
X140233061Y-82785000D01*
X140033102Y-82824774D01*
X139844744Y-82902795D01*
X139675226Y-83016063D01*
X139531063Y-83160226D01*
X139417795Y-83329744D01*
X139396188Y-83381907D01*
X139366898Y-83369774D01*
X139166939Y-83330000D01*
X138963061Y-83330000D01*
X138763102Y-83369774D01*
X138574744Y-83447795D01*
X138405226Y-83561063D01*
X138261063Y-83705226D01*
X138147795Y-83874744D01*
X138069774Y-84063102D01*
X138030000Y-84263061D01*
X138030000Y-84466939D01*
X138069774Y-84666898D01*
X138147795Y-84855256D01*
X138261063Y-85024774D01*
X138305000Y-85068711D01*
X138305001Y-86322668D01*
X138301324Y-86360000D01*
X138305001Y-86397333D01*
X138308711Y-86435003D01*
X138148691Y-86450764D01*
X137878192Y-86532818D01*
X137628899Y-86666068D01*
X137410392Y-86845393D01*
X137231068Y-87063900D01*
X137160000Y-87196858D01*
X137088932Y-87063899D01*
X136909607Y-86845392D01*
X136691100Y-86666068D01*
X136441807Y-86532818D01*
X136171308Y-86450764D01*
X135890000Y-86423057D01*
X135608691Y-86450764D01*
X135338192Y-86532818D01*
X135088899Y-86666068D01*
X134870392Y-86845393D01*
X134691068Y-87063900D01*
X134620000Y-87196858D01*
X134548932Y-87063899D01*
X134369607Y-86845392D01*
X134151100Y-86666068D01*
X133901807Y-86532818D01*
X133631308Y-86450764D01*
X133350000Y-86423057D01*
X133068691Y-86450764D01*
X132798192Y-86532818D01*
X132548899Y-86666068D01*
X132330392Y-86845393D01*
X132151068Y-87063900D01*
X132080000Y-87196858D01*
X132008932Y-87063899D01*
X131829607Y-86845392D01*
X131611100Y-86666068D01*
X131361807Y-86532818D01*
X131336034Y-86525000D01*
X131586335Y-86525000D01*
X131863574Y-86469853D01*
X132124727Y-86361680D01*
X132359759Y-86204637D01*
X132559637Y-86004759D01*
X132716680Y-85769727D01*
X132824853Y-85508574D01*
X132880000Y-85231335D01*
X132880000Y-84948665D01*
X133185000Y-84948665D01*
X133185000Y-85231335D01*
X133240147Y-85508574D01*
X133348320Y-85769727D01*
X133505363Y-86004759D01*
X133705241Y-86204637D01*
X133940273Y-86361680D01*
X134201426Y-86469853D01*
X134478665Y-86525000D01*
X134761335Y-86525000D01*
X135038574Y-86469853D01*
X135299727Y-86361680D01*
X135534759Y-86204637D01*
X135734637Y-86004759D01*
X135891680Y-85769727D01*
X135999853Y-85508574D01*
X136055000Y-85231335D01*
X136055000Y-84948665D01*
X135999853Y-84671426D01*
X135891680Y-84410273D01*
X135734637Y-84175241D01*
X135534759Y-83975363D01*
X135299727Y-83818320D01*
X135038574Y-83710147D01*
X134761335Y-83655000D01*
X134478665Y-83655000D01*
X134201426Y-83710147D01*
X133940273Y-83818320D01*
X133705241Y-83975363D01*
X133505363Y-84175241D01*
X133348320Y-84410273D01*
X133240147Y-84671426D01*
X133185000Y-84948665D01*
X132880000Y-84948665D01*
X132824853Y-84671426D01*
X132716680Y-84410273D01*
X132559637Y-84175241D01*
X132359759Y-83975363D01*
X132124727Y-83818320D01*
X131863574Y-83710147D01*
X131586335Y-83655000D01*
X131303665Y-83655000D01*
X131026426Y-83710147D01*
X130765273Y-83818320D01*
X130530241Y-83975363D01*
X130330363Y-84175241D01*
X130173320Y-84410273D01*
X130065147Y-84671426D01*
X130010000Y-84948665D01*
X130010000Y-85231335D01*
X130065147Y-85508574D01*
X130173320Y-85769727D01*
X130330363Y-86004759D01*
X130530241Y-86204637D01*
X130765273Y-86361680D01*
X130945723Y-86436425D01*
X130810000Y-86423057D01*
X130528691Y-86450764D01*
X130258192Y-86532818D01*
X130008899Y-86666068D01*
X129790392Y-86845393D01*
X129611068Y-87063900D01*
X129540000Y-87196858D01*
X129468932Y-87063899D01*
X129289607Y-86845392D01*
X129071100Y-86666068D01*
X128821807Y-86532818D01*
X128551308Y-86450764D01*
X128270000Y-86423057D01*
X127988691Y-86450764D01*
X127718192Y-86532818D01*
X127468899Y-86666068D01*
X127250392Y-86845393D01*
X127071068Y-87063900D01*
X127000000Y-87196858D01*
X126928932Y-87063899D01*
X126749607Y-86845392D01*
X126531100Y-86666068D01*
X126281807Y-86532818D01*
X126011308Y-86450764D01*
X125730000Y-86423057D01*
X125448691Y-86450764D01*
X125178192Y-86532818D01*
X124928899Y-86666068D01*
X124710392Y-86845393D01*
X124531068Y-87063900D01*
X124462735Y-87191742D01*
X124312601Y-86962161D01*
X124114895Y-86760500D01*
X123881646Y-86601285D01*
X123702517Y-86525000D01*
X123966335Y-86525000D01*
X124243574Y-86469853D01*
X124504727Y-86361680D01*
X124739759Y-86204637D01*
X124939637Y-86004759D01*
X125096680Y-85769727D01*
X125204853Y-85508574D01*
X125260000Y-85231335D01*
X125260000Y-84948665D01*
X125204853Y-84671426D01*
X125096680Y-84410273D01*
X124939637Y-84175241D01*
X124739759Y-83975363D01*
X124504727Y-83818320D01*
X124243574Y-83710147D01*
X123966335Y-83655000D01*
X123683665Y-83655000D01*
X123406426Y-83710147D01*
X123145273Y-83818320D01*
X122910241Y-83975363D01*
X122710363Y-84175241D01*
X122553320Y-84410273D01*
X122445147Y-84671426D01*
X122390000Y-84948665D01*
X120124463Y-84948665D01*
X120171300Y-84761816D01*
X120185217Y-84479488D01*
X120143787Y-84199870D01*
X120048603Y-83933708D01*
X119983384Y-83811691D01*
X119996185Y-83801185D01*
X120075537Y-83704494D01*
X120134502Y-83594180D01*
X120170812Y-83474482D01*
X120180561Y-83375500D01*
X125102497Y-83375500D01*
X125239744Y-83467205D01*
X125428102Y-83545226D01*
X125628061Y-83585000D01*
X125831939Y-83585000D01*
X126031898Y-83545226D01*
X126220256Y-83467205D01*
X126389774Y-83353937D01*
X126533937Y-83209774D01*
X126647205Y-83040256D01*
X126725226Y-82851898D01*
X126765000Y-82651939D01*
X126765000Y-82448061D01*
X126725226Y-82248102D01*
X126647205Y-82059744D01*
X126533937Y-81890226D01*
X126389774Y-81746063D01*
X126220256Y-81632795D01*
X126031898Y-81554774D01*
X125929233Y-81534353D01*
X125957168Y-81466912D01*
X126020000Y-81151033D01*
X126020000Y-80828967D01*
X129250000Y-80828967D01*
X129250000Y-81151033D01*
X129312832Y-81466912D01*
X129436082Y-81764463D01*
X129615013Y-82032252D01*
X129842748Y-82259987D01*
X130110537Y-82438918D01*
X130408088Y-82562168D01*
X130723967Y-82625000D01*
X131046033Y-82625000D01*
X131361912Y-82562168D01*
X131659463Y-82438918D01*
X131927252Y-82259987D01*
X132154987Y-82032252D01*
X132333918Y-81764463D01*
X132457168Y-81466912D01*
X132520000Y-81151033D01*
X132520000Y-80828967D01*
X132457168Y-80513088D01*
X132333918Y-80215537D01*
X132154987Y-79947748D01*
X131927252Y-79720013D01*
X131659463Y-79541082D01*
X131361912Y-79417832D01*
X131046033Y-79355000D01*
X130723967Y-79355000D01*
X130408088Y-79417832D01*
X130110537Y-79541082D01*
X129842748Y-79720013D01*
X129615013Y-79947748D01*
X129436082Y-80215537D01*
X129312832Y-80513088D01*
X129250000Y-80828967D01*
X126020000Y-80828967D01*
X125957168Y-80513088D01*
X125833918Y-80215537D01*
X125654987Y-79947748D01*
X125427252Y-79720013D01*
X125159463Y-79541082D01*
X124861912Y-79417832D01*
X124546033Y-79355000D01*
X124223967Y-79355000D01*
X123908088Y-79417832D01*
X123610537Y-79541082D01*
X123342748Y-79720013D01*
X123115013Y-79947748D01*
X122936082Y-80215537D01*
X122812832Y-80513088D01*
X122750000Y-80828967D01*
X122750000Y-81151033D01*
X122812832Y-81466912D01*
X122919529Y-81724500D01*
X120180561Y-81724500D01*
X120170812Y-81625518D01*
X120134502Y-81505820D01*
X120075537Y-81395506D01*
X119996185Y-81298815D01*
X119899494Y-81219463D01*
X119789180Y-81160498D01*
X119669482Y-81124188D01*
X119545000Y-81111928D01*
X117945000Y-81111928D01*
X117820518Y-81124188D01*
X117700820Y-81160498D01*
X117590506Y-81219463D01*
X117493815Y-81298815D01*
X117414463Y-81395506D01*
X117355498Y-81505820D01*
X117319188Y-81625518D01*
X117306928Y-81750000D01*
X117306928Y-83350000D01*
X117319188Y-83474482D01*
X117355498Y-83594180D01*
X117414463Y-83704494D01*
X117493815Y-83801185D01*
X117506758Y-83811807D01*
X117387429Y-84063996D01*
X117318700Y-84338184D01*
X117304783Y-84620512D01*
X115595000Y-84620512D01*
X115595000Y-77502279D01*
X115622668Y-77220099D01*
X116360000Y-77220099D01*
X116360000Y-77689903D01*
X116451654Y-78150680D01*
X116631440Y-78584722D01*
X116892450Y-78975350D01*
X117224651Y-79307551D01*
X117615279Y-79568561D01*
X118049321Y-79748347D01*
X118510098Y-79840001D01*
X118979902Y-79840001D01*
X119440679Y-79748347D01*
X119874721Y-79568561D01*
X120265349Y-79307551D01*
X120426500Y-79146400D01*
X137563328Y-79146400D01*
X137563328Y-80873600D01*
X137575588Y-80998082D01*
X137611898Y-81117780D01*
X137670863Y-81228094D01*
X137750215Y-81324785D01*
X137846906Y-81404137D01*
X137957220Y-81463102D01*
X138076918Y-81499412D01*
X138201400Y-81511672D01*
X139928600Y-81511672D01*
X140053082Y-81499412D01*
X140172780Y-81463102D01*
X140283094Y-81404137D01*
X140379785Y-81324785D01*
X140459137Y-81228094D01*
X140518102Y-81117780D01*
X140535636Y-81059977D01*
X140649698Y-81174039D01*
X140895147Y-81338042D01*
X141167875Y-81451010D01*
X141457401Y-81508600D01*
X141752599Y-81508600D01*
X142042125Y-81451010D01*
X142314853Y-81338042D01*
X142560302Y-81174039D01*
X142769039Y-80965302D01*
X142875000Y-80806719D01*
X142980961Y-80965302D01*
X143189698Y-81174039D01*
X143435147Y-81338042D01*
X143707875Y-81451010D01*
X143997401Y-81508600D01*
X144292599Y-81508600D01*
X144582125Y-81451010D01*
X144854853Y-81338042D01*
X145100302Y-81174039D01*
X145309039Y-80965302D01*
X145415000Y-80806719D01*
X145520961Y-80965302D01*
X145729698Y-81174039D01*
X145975147Y-81338042D01*
X146247875Y-81451010D01*
X146537401Y-81508600D01*
X146832599Y-81508600D01*
X147122125Y-81451010D01*
X147394853Y-81338042D01*
X147640302Y-81174039D01*
X147849039Y-80965302D01*
X147955000Y-80806719D01*
X148060961Y-80965302D01*
X148269698Y-81174039D01*
X148515147Y-81338042D01*
X148787875Y-81451010D01*
X149077401Y-81508600D01*
X149372599Y-81508600D01*
X149662125Y-81451010D01*
X149934853Y-81338042D01*
X150180302Y-81174039D01*
X150389039Y-80965302D01*
X150553042Y-80719853D01*
X150666010Y-80447125D01*
X150723600Y-80157599D01*
X150723600Y-79862401D01*
X150666010Y-79572875D01*
X150553042Y-79300147D01*
X150389039Y-79054698D01*
X150180302Y-78845961D01*
X150021719Y-78740000D01*
X150180302Y-78634039D01*
X150389039Y-78425302D01*
X150553042Y-78179853D01*
X150666010Y-77907125D01*
X150681808Y-77827702D01*
X158016903Y-77827702D01*
X158088486Y-78071671D01*
X158343996Y-78192571D01*
X158618184Y-78261300D01*
X158900512Y-78275217D01*
X159180130Y-78233787D01*
X159446292Y-78138603D01*
X159571514Y-78071671D01*
X159643097Y-77827702D01*
X158830000Y-77014605D01*
X158016903Y-77827702D01*
X150681808Y-77827702D01*
X150723600Y-77617599D01*
X150723600Y-77322401D01*
X150666010Y-77032875D01*
X150613255Y-76905512D01*
X157389783Y-76905512D01*
X157431213Y-77185130D01*
X157526397Y-77451292D01*
X157593329Y-77576514D01*
X157837298Y-77648097D01*
X158650395Y-76835000D01*
X159009605Y-76835000D01*
X159822702Y-77648097D01*
X160066671Y-77576514D01*
X160187571Y-77321004D01*
X160256300Y-77046816D01*
X160270217Y-76764488D01*
X160259724Y-76693665D01*
X162395000Y-76693665D01*
X162395000Y-76976335D01*
X162450147Y-77253574D01*
X162558320Y-77514727D01*
X162715363Y-77749759D01*
X162915241Y-77949637D01*
X163150273Y-78106680D01*
X163411426Y-78214853D01*
X163688665Y-78270000D01*
X163971335Y-78270000D01*
X164076624Y-78249056D01*
X164274501Y-78446934D01*
X164274501Y-79274503D01*
X164148192Y-79312818D01*
X163898899Y-79446068D01*
X163680392Y-79625392D01*
X163501068Y-79843899D01*
X163367818Y-80093192D01*
X163285764Y-80363691D01*
X163258057Y-80645000D01*
X163285764Y-80926309D01*
X163367818Y-81196808D01*
X163501068Y-81446101D01*
X163680392Y-81664608D01*
X163898899Y-81843932D01*
X164031858Y-81915000D01*
X163898899Y-81986068D01*
X163680392Y-82165392D01*
X163501068Y-82383899D01*
X163367818Y-82633192D01*
X163285764Y-82903691D01*
X163258057Y-83185000D01*
X163285764Y-83466309D01*
X163367818Y-83736808D01*
X163501068Y-83986101D01*
X163680392Y-84204608D01*
X163898899Y-84383932D01*
X164031858Y-84455000D01*
X163898899Y-84526068D01*
X163680392Y-84705392D01*
X163501068Y-84923899D01*
X163367818Y-85173192D01*
X163285764Y-85443691D01*
X163258057Y-85725000D01*
X163285764Y-86006309D01*
X163367818Y-86276808D01*
X163501068Y-86526101D01*
X163680392Y-86744608D01*
X163898899Y-86923932D01*
X164031858Y-86995000D01*
X163898899Y-87066068D01*
X163680392Y-87245392D01*
X163501068Y-87463899D01*
X163367818Y-87713192D01*
X163285764Y-87983691D01*
X163258057Y-88265000D01*
X163285764Y-88546309D01*
X163367818Y-88816808D01*
X163501068Y-89066101D01*
X163680392Y-89284608D01*
X163898899Y-89463932D01*
X164026741Y-89532265D01*
X163797161Y-89682399D01*
X163595500Y-89880105D01*
X163436285Y-90113354D01*
X163325633Y-90373182D01*
X163308096Y-90455961D01*
X163430085Y-90678000D01*
X164973000Y-90678000D01*
X164973000Y-90658000D01*
X165227000Y-90658000D01*
X165227000Y-90678000D01*
X166769915Y-90678000D01*
X166891904Y-90455961D01*
X166874367Y-90373182D01*
X166763715Y-90113354D01*
X166604500Y-89880105D01*
X166402839Y-89682399D01*
X166173259Y-89532265D01*
X166301101Y-89463932D01*
X166519608Y-89284608D01*
X166698932Y-89066101D01*
X166832182Y-88816808D01*
X166914236Y-88546309D01*
X166941943Y-88265000D01*
X166914236Y-87983691D01*
X166832182Y-87713192D01*
X166698932Y-87463899D01*
X166519608Y-87245392D01*
X166301101Y-87066068D01*
X166168142Y-86995000D01*
X166185892Y-86985512D01*
X170009783Y-86985512D01*
X170051213Y-87265130D01*
X170146397Y-87531292D01*
X170213329Y-87656514D01*
X170457298Y-87728097D01*
X171270395Y-86915000D01*
X170457298Y-86101903D01*
X170213329Y-86173486D01*
X170092429Y-86428996D01*
X170023700Y-86703184D01*
X170009783Y-86985512D01*
X166185892Y-86985512D01*
X166301101Y-86923932D01*
X166519608Y-86744608D01*
X166698932Y-86526101D01*
X166832182Y-86276808D01*
X166914236Y-86006309D01*
X166922510Y-85922298D01*
X170636903Y-85922298D01*
X171450000Y-86735395D01*
X172263097Y-85922298D01*
X172191514Y-85678329D01*
X171936004Y-85557429D01*
X171661816Y-85488700D01*
X171379488Y-85474783D01*
X171099870Y-85516213D01*
X170833708Y-85611397D01*
X170708486Y-85678329D01*
X170636903Y-85922298D01*
X166922510Y-85922298D01*
X166941943Y-85725000D01*
X166918797Y-85490000D01*
X167106939Y-85490000D01*
X167306898Y-85450226D01*
X167495256Y-85372205D01*
X167664774Y-85258937D01*
X167808937Y-85114774D01*
X167922205Y-84945256D01*
X168000226Y-84756898D01*
X168040000Y-84556939D01*
X168040000Y-84353061D01*
X168000226Y-84153102D01*
X167922205Y-83964744D01*
X167830500Y-83827497D01*
X167830500Y-83284114D01*
X167856426Y-83294853D01*
X168133665Y-83350000D01*
X168416335Y-83350000D01*
X168693574Y-83294853D01*
X168954727Y-83186680D01*
X169189759Y-83029637D01*
X169389637Y-82829759D01*
X169546680Y-82594727D01*
X169654853Y-82333574D01*
X169710000Y-82056335D01*
X169710000Y-81773665D01*
X169654853Y-81496426D01*
X169546680Y-81235273D01*
X169389637Y-81000241D01*
X169189759Y-80800363D01*
X168954727Y-80643320D01*
X168693574Y-80535147D01*
X168416335Y-80480000D01*
X168133665Y-80480000D01*
X167856426Y-80535147D01*
X167595273Y-80643320D01*
X167360241Y-80800363D01*
X167160363Y-81000241D01*
X167003320Y-81235273D01*
X166960671Y-81338237D01*
X166827674Y-81205241D01*
X166832182Y-81196808D01*
X166914236Y-80926309D01*
X166941943Y-80645000D01*
X166914236Y-80363691D01*
X166832182Y-80093192D01*
X166698932Y-79843899D01*
X166519608Y-79625392D01*
X166301101Y-79446068D01*
X166051808Y-79312818D01*
X165925500Y-79274503D01*
X165925500Y-78145550D01*
X165929494Y-78104999D01*
X165924133Y-78050568D01*
X165913556Y-77943174D01*
X165866353Y-77787566D01*
X165816399Y-77694111D01*
X165789699Y-77644157D01*
X165712391Y-77549958D01*
X165686541Y-77518459D01*
X165655039Y-77492606D01*
X165397531Y-77235098D01*
X167160000Y-77235098D01*
X167160000Y-77704902D01*
X167251654Y-78165679D01*
X167431440Y-78599721D01*
X167692450Y-78990349D01*
X168024651Y-79322550D01*
X168415279Y-79583560D01*
X168849321Y-79763346D01*
X169310098Y-79855000D01*
X169779902Y-79855000D01*
X170240679Y-79763346D01*
X170674721Y-79583560D01*
X171065349Y-79322550D01*
X171397550Y-78990349D01*
X171658560Y-78599721D01*
X171838346Y-78165679D01*
X171930000Y-77704902D01*
X171930000Y-77235098D01*
X171838346Y-76774321D01*
X171658560Y-76340279D01*
X171397550Y-75949651D01*
X171065349Y-75617450D01*
X170674721Y-75356440D01*
X170240679Y-75176654D01*
X169779902Y-75085000D01*
X169310098Y-75085000D01*
X168849321Y-75176654D01*
X168415279Y-75356440D01*
X168024651Y-75617450D01*
X167692450Y-75949651D01*
X167431440Y-76340279D01*
X167251654Y-76774321D01*
X167160000Y-77235098D01*
X165397531Y-77235098D01*
X165244056Y-77081624D01*
X165265000Y-76976335D01*
X165265000Y-76693665D01*
X165209853Y-76416426D01*
X165101680Y-76155273D01*
X164944637Y-75920241D01*
X164744759Y-75720363D01*
X164509727Y-75563320D01*
X164248574Y-75455147D01*
X163971335Y-75400000D01*
X163688665Y-75400000D01*
X163411426Y-75455147D01*
X163150273Y-75563320D01*
X162915241Y-75720363D01*
X162715363Y-75920241D01*
X162558320Y-76155273D01*
X162450147Y-76416426D01*
X162395000Y-76693665D01*
X160259724Y-76693665D01*
X160228787Y-76484870D01*
X160133603Y-76218708D01*
X160066671Y-76093486D01*
X159822702Y-76021903D01*
X159009605Y-76835000D01*
X158650395Y-76835000D01*
X157837298Y-76021903D01*
X157593329Y-76093486D01*
X157472429Y-76348996D01*
X157403700Y-76623184D01*
X157389783Y-76905512D01*
X150613255Y-76905512D01*
X150553042Y-76760147D01*
X150389039Y-76514698D01*
X150180302Y-76305961D01*
X149934853Y-76141958D01*
X149662125Y-76028990D01*
X149372599Y-75971400D01*
X149077401Y-75971400D01*
X148787875Y-76028990D01*
X148515147Y-76141958D01*
X148269698Y-76305961D01*
X148060961Y-76514698D01*
X147955000Y-76673281D01*
X147849039Y-76514698D01*
X147640302Y-76305961D01*
X147394853Y-76141958D01*
X147122125Y-76028990D01*
X146832599Y-75971400D01*
X146537401Y-75971400D01*
X146247875Y-76028990D01*
X145975147Y-76141958D01*
X145729698Y-76305961D01*
X145520961Y-76514698D01*
X145410441Y-76680103D01*
X145351817Y-76581512D01*
X145155293Y-76363146D01*
X144919944Y-76187316D01*
X144654814Y-76060778D01*
X144504026Y-76015042D01*
X144272000Y-76136183D01*
X144272000Y-77343000D01*
X144292000Y-77343000D01*
X144292000Y-77597000D01*
X144272000Y-77597000D01*
X144272000Y-77617000D01*
X144018000Y-77617000D01*
X144018000Y-77597000D01*
X143998000Y-77597000D01*
X143998000Y-77343000D01*
X144018000Y-77343000D01*
X144018000Y-76136183D01*
X143785974Y-76015042D01*
X143635186Y-76060778D01*
X143370056Y-76187316D01*
X143134707Y-76363146D01*
X142938183Y-76581512D01*
X142879559Y-76680103D01*
X142769039Y-76514698D01*
X142560302Y-76305961D01*
X142314853Y-76141958D01*
X142042125Y-76028990D01*
X141752599Y-75971400D01*
X141457401Y-75971400D01*
X141167875Y-76028990D01*
X140895147Y-76141958D01*
X140649698Y-76305961D01*
X140440961Y-76514698D01*
X140335000Y-76673281D01*
X140229039Y-76514698D01*
X140020302Y-76305961D01*
X139774853Y-76141958D01*
X139502125Y-76028990D01*
X139212599Y-75971400D01*
X138917401Y-75971400D01*
X138627875Y-76028990D01*
X138355147Y-76141958D01*
X138109698Y-76305961D01*
X137900961Y-76514698D01*
X137736958Y-76760147D01*
X137623990Y-77032875D01*
X137566400Y-77322401D01*
X137566400Y-77617599D01*
X137623990Y-77907125D01*
X137736958Y-78179853D01*
X137900961Y-78425302D01*
X138015023Y-78539364D01*
X137957220Y-78556898D01*
X137846906Y-78615863D01*
X137750215Y-78695215D01*
X137670863Y-78791906D01*
X137611898Y-78902220D01*
X137575588Y-79021918D01*
X137563328Y-79146400D01*
X120426500Y-79146400D01*
X120597550Y-78975350D01*
X120858560Y-78584722D01*
X121038346Y-78150680D01*
X121130000Y-77689903D01*
X121130000Y-77625413D01*
X123429192Y-77625413D01*
X123524956Y-77889814D01*
X123814571Y-78030704D01*
X124126108Y-78112384D01*
X124447595Y-78131718D01*
X124766675Y-78087961D01*
X125071088Y-77982795D01*
X125245044Y-77889814D01*
X125340808Y-77625413D01*
X129929192Y-77625413D01*
X130024956Y-77889814D01*
X130314571Y-78030704D01*
X130626108Y-78112384D01*
X130947595Y-78131718D01*
X131266675Y-78087961D01*
X131571088Y-77982795D01*
X131745044Y-77889814D01*
X131840808Y-77625413D01*
X130885000Y-76669605D01*
X129929192Y-77625413D01*
X125340808Y-77625413D01*
X124385000Y-76669605D01*
X123429192Y-77625413D01*
X121130000Y-77625413D01*
X121130000Y-77220099D01*
X121038346Y-76759322D01*
X120952717Y-76552595D01*
X122743282Y-76552595D01*
X122787039Y-76871675D01*
X122892205Y-77176088D01*
X122985186Y-77350044D01*
X123249587Y-77445808D01*
X124205395Y-76490000D01*
X124564605Y-76490000D01*
X125520413Y-77445808D01*
X125784814Y-77350044D01*
X125925704Y-77060429D01*
X126007384Y-76748892D01*
X126019189Y-76552595D01*
X129243282Y-76552595D01*
X129287039Y-76871675D01*
X129392205Y-77176088D01*
X129485186Y-77350044D01*
X129749587Y-77445808D01*
X130705395Y-76490000D01*
X131064605Y-76490000D01*
X132020413Y-77445808D01*
X132284814Y-77350044D01*
X132425704Y-77060429D01*
X132507384Y-76748892D01*
X132526718Y-76427405D01*
X132482961Y-76108325D01*
X132391057Y-75842298D01*
X158016903Y-75842298D01*
X158830000Y-76655395D01*
X159643097Y-75842298D01*
X159571514Y-75598329D01*
X159316004Y-75477429D01*
X159041816Y-75408700D01*
X158759488Y-75394783D01*
X158479870Y-75436213D01*
X158213708Y-75531397D01*
X158088486Y-75598329D01*
X158016903Y-75842298D01*
X132391057Y-75842298D01*
X132377795Y-75803912D01*
X132284814Y-75629956D01*
X132020413Y-75534192D01*
X131064605Y-76490000D01*
X130705395Y-76490000D01*
X129749587Y-75534192D01*
X129485186Y-75629956D01*
X129344296Y-75919571D01*
X129262616Y-76231108D01*
X129243282Y-76552595D01*
X126019189Y-76552595D01*
X126026718Y-76427405D01*
X125982961Y-76108325D01*
X125877795Y-75803912D01*
X125784814Y-75629956D01*
X125520413Y-75534192D01*
X124564605Y-76490000D01*
X124205395Y-76490000D01*
X123249587Y-75534192D01*
X122985186Y-75629956D01*
X122844296Y-75919571D01*
X122762616Y-76231108D01*
X122743282Y-76552595D01*
X120952717Y-76552595D01*
X120858560Y-76325280D01*
X120597550Y-75934652D01*
X120265349Y-75602451D01*
X119894396Y-75354587D01*
X123429192Y-75354587D01*
X124385000Y-76310395D01*
X125340808Y-75354587D01*
X129929192Y-75354587D01*
X130885000Y-76310395D01*
X131840808Y-75354587D01*
X131745044Y-75090186D01*
X131455429Y-74949296D01*
X131143892Y-74867616D01*
X130822405Y-74848282D01*
X130503325Y-74892039D01*
X130198912Y-74997205D01*
X130024956Y-75090186D01*
X129929192Y-75354587D01*
X125340808Y-75354587D01*
X125245044Y-75090186D01*
X124955429Y-74949296D01*
X124643892Y-74867616D01*
X124322405Y-74848282D01*
X124003325Y-74892039D01*
X123698912Y-74997205D01*
X123524956Y-75090186D01*
X123429192Y-75354587D01*
X119894396Y-75354587D01*
X119874721Y-75341441D01*
X119440679Y-75161655D01*
X118979902Y-75070001D01*
X118510098Y-75070001D01*
X118049321Y-75161655D01*
X117615279Y-75341441D01*
X117224651Y-75602451D01*
X116892450Y-75934652D01*
X116631440Y-76325280D01*
X116451654Y-76759322D01*
X116360000Y-77220099D01*
X115622668Y-77220099D01*
X115658096Y-76858778D01*
X115835606Y-76270836D01*
X116123937Y-75728564D01*
X116512094Y-75252636D01*
X116985314Y-74861155D01*
X117525552Y-74569049D01*
X118112244Y-74387437D01*
X118753879Y-74320000D01*
X169512721Y-74320000D01*
X170156222Y-74383096D01*
G04 #@! TA.AperFunction,Conductor*
D25*
G36*
X170156222Y-74383096D02*
G01*
X170744164Y-74560606D01*
X171286436Y-74848937D01*
X171762364Y-75237094D01*
X172153845Y-75710314D01*
X172445951Y-76250552D01*
X172627563Y-76837244D01*
X172695001Y-77478888D01*
X172695001Y-81195345D01*
X172564637Y-81000241D01*
X172364759Y-80800363D01*
X172129727Y-80643320D01*
X171868574Y-80535147D01*
X171591335Y-80480000D01*
X171308665Y-80480000D01*
X171031426Y-80535147D01*
X170770273Y-80643320D01*
X170535241Y-80800363D01*
X170335363Y-81000241D01*
X170178320Y-81235273D01*
X170070147Y-81496426D01*
X170015000Y-81773665D01*
X170015000Y-82056335D01*
X170070147Y-82333574D01*
X170178320Y-82594727D01*
X170335363Y-82829759D01*
X170535241Y-83029637D01*
X170770273Y-83186680D01*
X171031426Y-83294853D01*
X171308665Y-83350000D01*
X171591335Y-83350000D01*
X171868574Y-83294853D01*
X172129727Y-83186680D01*
X172364759Y-83029637D01*
X172564637Y-82829759D01*
X172695001Y-82634655D01*
X172695001Y-86189070D01*
X172686671Y-86173486D01*
X172442702Y-86101903D01*
X171629605Y-86915000D01*
X172442702Y-87728097D01*
X172686671Y-87656514D01*
X172695001Y-87638910D01*
X172695001Y-88815344D01*
X172564637Y-88620241D01*
X172364759Y-88420363D01*
X172129727Y-88263320D01*
X172042399Y-88227148D01*
X172066292Y-88218603D01*
X172191514Y-88151671D01*
X172263097Y-87907702D01*
X171450000Y-87094605D01*
X170636903Y-87907702D01*
X170708486Y-88151671D01*
X170863145Y-88224851D01*
X170770273Y-88263320D01*
X170535241Y-88420363D01*
X170335363Y-88620241D01*
X170178320Y-88855273D01*
X170070147Y-89116426D01*
X170015000Y-89393665D01*
X170015000Y-89676335D01*
X170070147Y-89953574D01*
X170178320Y-90214727D01*
X170335363Y-90449759D01*
X170535241Y-90649637D01*
X170770273Y-90806680D01*
X171031426Y-90914853D01*
X171308665Y-90970000D01*
X171591335Y-90970000D01*
X171868574Y-90914853D01*
X172129727Y-90806680D01*
X172364759Y-90649637D01*
X172564637Y-90449759D01*
X172695001Y-90254656D01*
X172695000Y-98975344D01*
X172564637Y-98780241D01*
X172364759Y-98580363D01*
X172129727Y-98423320D01*
X171868574Y-98315147D01*
X171591335Y-98260000D01*
X171308665Y-98260000D01*
X171031426Y-98315147D01*
X170770273Y-98423320D01*
X170535241Y-98580363D01*
X170335363Y-98780241D01*
X170178320Y-99015273D01*
X170070147Y-99276426D01*
X170015000Y-99553665D01*
X170015000Y-99836335D01*
X170070147Y-100113574D01*
X170178320Y-100374727D01*
X170335363Y-100609759D01*
X170535241Y-100809637D01*
X170770273Y-100966680D01*
X171031426Y-101074853D01*
X171308665Y-101130000D01*
X171591335Y-101130000D01*
X171868574Y-101074853D01*
X172129727Y-100966680D01*
X172364759Y-100809637D01*
X172564637Y-100609759D01*
X172695000Y-100414656D01*
X172695000Y-107917721D01*
X172631904Y-108561221D01*
X172454394Y-109149164D01*
X172166063Y-109691436D01*
X171777906Y-110167364D01*
X171304686Y-110558845D01*
X170764449Y-110850950D01*
X170177756Y-111032563D01*
X169536130Y-111100000D01*
X118777279Y-111100000D01*
X118133779Y-111036904D01*
X117545836Y-110859394D01*
X117003564Y-110571063D01*
X116527636Y-110182906D01*
X116136155Y-109709686D01*
X115844050Y-109169449D01*
X115662437Y-108582756D01*
X115595000Y-107941130D01*
X115595000Y-107715098D01*
X116360000Y-107715098D01*
X116360000Y-108184902D01*
X116451654Y-108645679D01*
X116631440Y-109079721D01*
X116892450Y-109470349D01*
X117224651Y-109802550D01*
X117615279Y-110063560D01*
X118049321Y-110243346D01*
X118510098Y-110335000D01*
X118979902Y-110335000D01*
X119440679Y-110243346D01*
X119874721Y-110063560D01*
X120265349Y-109802550D01*
X120597550Y-109470349D01*
X120858560Y-109079721D01*
X121038346Y-108645679D01*
X121130000Y-108184902D01*
X121130000Y-107715098D01*
X121038346Y-107254321D01*
X120968791Y-107086400D01*
X126133328Y-107086400D01*
X126133328Y-108813600D01*
X126145588Y-108938082D01*
X126181898Y-109057780D01*
X126240863Y-109168094D01*
X126320215Y-109264785D01*
X126416906Y-109344137D01*
X126527220Y-109403102D01*
X126646918Y-109439412D01*
X126771400Y-109451672D01*
X128498600Y-109451672D01*
X128623082Y-109439412D01*
X128742780Y-109403102D01*
X128853094Y-109344137D01*
X128949785Y-109264785D01*
X129029137Y-109168094D01*
X129088102Y-109057780D01*
X129105636Y-108999977D01*
X129219698Y-109114039D01*
X129465147Y-109278042D01*
X129737875Y-109391010D01*
X130027401Y-109448600D01*
X130322599Y-109448600D01*
X130612125Y-109391010D01*
X130884853Y-109278042D01*
X131130302Y-109114039D01*
X131339039Y-108905302D01*
X131445000Y-108746719D01*
X131550961Y-108905302D01*
X131759698Y-109114039D01*
X132005147Y-109278042D01*
X132277875Y-109391010D01*
X132567401Y-109448600D01*
X132862599Y-109448600D01*
X133152125Y-109391010D01*
X133424853Y-109278042D01*
X133670302Y-109114039D01*
X133879039Y-108905302D01*
X133985000Y-108746719D01*
X134090961Y-108905302D01*
X134299698Y-109114039D01*
X134545147Y-109278042D01*
X134817875Y-109391010D01*
X135107401Y-109448600D01*
X135402599Y-109448600D01*
X135692125Y-109391010D01*
X135964853Y-109278042D01*
X136210302Y-109114039D01*
X136419039Y-108905302D01*
X136525000Y-108746719D01*
X136630961Y-108905302D01*
X136839698Y-109114039D01*
X137085147Y-109278042D01*
X137357875Y-109391010D01*
X137647401Y-109448600D01*
X137942599Y-109448600D01*
X138232125Y-109391010D01*
X138504853Y-109278042D01*
X138750302Y-109114039D01*
X138959039Y-108905302D01*
X139123042Y-108659853D01*
X139236010Y-108387125D01*
X139293600Y-108097599D01*
X139293600Y-107802401D01*
X139263972Y-107653449D01*
X139399756Y-107597205D01*
X139569274Y-107483937D01*
X139613211Y-107440000D01*
X140574587Y-107440000D01*
X140609774Y-107616898D01*
X140687795Y-107805256D01*
X140801063Y-107974774D01*
X140945226Y-108118937D01*
X141114744Y-108232205D01*
X141303102Y-108310226D01*
X141503061Y-108350000D01*
X141706939Y-108350000D01*
X141906898Y-108310226D01*
X142095256Y-108232205D01*
X142264774Y-108118937D01*
X142408937Y-107974774D01*
X142522205Y-107805256D01*
X142600226Y-107616898D01*
X142640000Y-107416939D01*
X142640000Y-107213061D01*
X142600226Y-107013102D01*
X142522205Y-106824744D01*
X142408937Y-106655226D01*
X142264774Y-106511063D01*
X142095256Y-106397795D01*
X141906898Y-106319774D01*
X141706939Y-106280000D01*
X141644801Y-106280000D01*
X141533803Y-106169002D01*
X141510001Y-106139999D01*
X141394276Y-106045026D01*
X141262247Y-105974454D01*
X141118986Y-105930997D01*
X141007333Y-105920000D01*
X141007322Y-105920000D01*
X140970000Y-105916324D01*
X140932678Y-105920000D01*
X139613211Y-105920000D01*
X139569274Y-105876063D01*
X139399756Y-105762795D01*
X139263972Y-105706551D01*
X139293600Y-105557599D01*
X139293600Y-105262401D01*
X139236010Y-104972875D01*
X139123042Y-104700147D01*
X139104944Y-104673061D01*
X147301000Y-104673061D01*
X147301000Y-104876939D01*
X147340774Y-105076898D01*
X147418795Y-105265256D01*
X147532063Y-105434774D01*
X147676226Y-105578937D01*
X147845744Y-105692205D01*
X148034102Y-105770226D01*
X148234061Y-105810000D01*
X148437939Y-105810000D01*
X148637898Y-105770226D01*
X148826256Y-105692205D01*
X148995774Y-105578937D01*
X148999836Y-105574875D01*
X149053990Y-105847125D01*
X149166958Y-106119853D01*
X149330961Y-106365302D01*
X149445023Y-106479364D01*
X149387220Y-106496898D01*
X149276906Y-106555863D01*
X149180215Y-106635215D01*
X149100863Y-106731906D01*
X149041898Y-106842220D01*
X149005588Y-106961918D01*
X148993328Y-107086400D01*
X148993328Y-108813600D01*
X149005588Y-108938082D01*
X149041898Y-109057780D01*
X149100863Y-109168094D01*
X149180215Y-109264785D01*
X149276906Y-109344137D01*
X149387220Y-109403102D01*
X149506918Y-109439412D01*
X149631400Y-109451672D01*
X151358600Y-109451672D01*
X151483082Y-109439412D01*
X151602780Y-109403102D01*
X151713094Y-109344137D01*
X151809785Y-109264785D01*
X151889137Y-109168094D01*
X151948102Y-109057780D01*
X151965636Y-108999977D01*
X152079698Y-109114039D01*
X152325147Y-109278042D01*
X152597875Y-109391010D01*
X152887401Y-109448600D01*
X153182599Y-109448600D01*
X153472125Y-109391010D01*
X153744853Y-109278042D01*
X153990302Y-109114039D01*
X154199039Y-108905302D01*
X154305000Y-108746719D01*
X154410961Y-108905302D01*
X154619698Y-109114039D01*
X154865147Y-109278042D01*
X155137875Y-109391010D01*
X155427401Y-109448600D01*
X155722599Y-109448600D01*
X156012125Y-109391010D01*
X156284853Y-109278042D01*
X156530302Y-109114039D01*
X156739039Y-108905302D01*
X156845000Y-108746719D01*
X156950961Y-108905302D01*
X157159698Y-109114039D01*
X157405147Y-109278042D01*
X157677875Y-109391010D01*
X157967401Y-109448600D01*
X158262599Y-109448600D01*
X158552125Y-109391010D01*
X158824853Y-109278042D01*
X159070302Y-109114039D01*
X159279039Y-108905302D01*
X159385000Y-108746719D01*
X159490961Y-108905302D01*
X159699698Y-109114039D01*
X159945147Y-109278042D01*
X160217875Y-109391010D01*
X160507401Y-109448600D01*
X160802599Y-109448600D01*
X161092125Y-109391010D01*
X161364853Y-109278042D01*
X161610302Y-109114039D01*
X161819039Y-108905302D01*
X161983042Y-108659853D01*
X162096010Y-108387125D01*
X162153600Y-108097599D01*
X162153600Y-107802401D01*
X162136235Y-107715098D01*
X167160000Y-107715098D01*
X167160000Y-108184902D01*
X167251654Y-108645679D01*
X167431440Y-109079721D01*
X167692450Y-109470349D01*
X168024651Y-109802550D01*
X168415279Y-110063560D01*
X168849321Y-110243346D01*
X169310098Y-110335000D01*
X169779902Y-110335000D01*
X170240679Y-110243346D01*
X170674721Y-110063560D01*
X171065349Y-109802550D01*
X171397550Y-109470349D01*
X171658560Y-109079721D01*
X171838346Y-108645679D01*
X171930000Y-108184902D01*
X171930000Y-107715098D01*
X171838346Y-107254321D01*
X171658560Y-106820279D01*
X171397550Y-106429651D01*
X171065349Y-106097450D01*
X170674721Y-105836440D01*
X170240679Y-105656654D01*
X169779902Y-105565000D01*
X169310098Y-105565000D01*
X168849321Y-105656654D01*
X168415279Y-105836440D01*
X168024651Y-106097450D01*
X167692450Y-106429651D01*
X167431440Y-106820279D01*
X167251654Y-107254321D01*
X167160000Y-107715098D01*
X162136235Y-107715098D01*
X162096010Y-107512875D01*
X161983042Y-107240147D01*
X161819039Y-106994698D01*
X161610302Y-106785961D01*
X161451719Y-106680000D01*
X161610302Y-106574039D01*
X161819039Y-106365302D01*
X161983042Y-106119853D01*
X162096010Y-105847125D01*
X162153600Y-105557599D01*
X162153600Y-105262401D01*
X162096010Y-104972875D01*
X161983042Y-104700147D01*
X161819039Y-104454698D01*
X161610302Y-104245961D01*
X161364853Y-104081958D01*
X161092125Y-103968990D01*
X160802599Y-103911400D01*
X160507401Y-103911400D01*
X160217875Y-103968990D01*
X159945147Y-104081958D01*
X159699698Y-104245961D01*
X159490961Y-104454698D01*
X159385000Y-104613281D01*
X159279039Y-104454698D01*
X159070302Y-104245961D01*
X158824853Y-104081958D01*
X158552125Y-103968990D01*
X158262599Y-103911400D01*
X157967401Y-103911400D01*
X157677875Y-103968990D01*
X157405147Y-104081958D01*
X157159698Y-104245961D01*
X156950961Y-104454698D01*
X156840441Y-104620103D01*
X156781817Y-104521512D01*
X156585293Y-104303146D01*
X156349944Y-104127316D01*
X156084814Y-104000778D01*
X155934026Y-103955042D01*
X155702000Y-104076183D01*
X155702000Y-105283000D01*
X155722000Y-105283000D01*
X155722000Y-105537000D01*
X155702000Y-105537000D01*
X155702000Y-105557000D01*
X155448000Y-105557000D01*
X155448000Y-105537000D01*
X155428000Y-105537000D01*
X155428000Y-105283000D01*
X155448000Y-105283000D01*
X155448000Y-104076183D01*
X155215974Y-103955042D01*
X155065186Y-104000778D01*
X155055424Y-104005437D01*
X155054003Y-103991014D01*
X155010546Y-103847753D01*
X154939974Y-103715724D01*
X154845001Y-103599999D01*
X154816003Y-103576201D01*
X154070000Y-102830199D01*
X154070000Y-102768061D01*
X154030226Y-102568102D01*
X153952205Y-102379744D01*
X153838937Y-102210226D01*
X153694774Y-102066063D01*
X153525256Y-101952795D01*
X153336898Y-101874774D01*
X153136939Y-101835000D01*
X152933061Y-101835000D01*
X152733102Y-101874774D01*
X152544744Y-101952795D01*
X152375226Y-102066063D01*
X152231063Y-102210226D01*
X152117795Y-102379744D01*
X152039774Y-102568102D01*
X152000000Y-102768061D01*
X152000000Y-102971939D01*
X152039774Y-103171898D01*
X152093121Y-103300689D01*
X151742398Y-102949966D01*
X151716541Y-102918459D01*
X151590842Y-102815301D01*
X151447434Y-102738647D01*
X151291826Y-102691444D01*
X151170553Y-102679500D01*
X151170550Y-102679500D01*
X151130000Y-102675506D01*
X151089450Y-102679500D01*
X149646550Y-102679500D01*
X149605999Y-102675506D01*
X149565449Y-102679500D01*
X149565447Y-102679500D01*
X149444174Y-102691444D01*
X149288566Y-102738647D01*
X149195111Y-102788601D01*
X149145157Y-102815301D01*
X149083596Y-102865823D01*
X149019459Y-102918459D01*
X148993606Y-102949961D01*
X148195996Y-103747572D01*
X148034102Y-103779774D01*
X147845744Y-103857795D01*
X147676226Y-103971063D01*
X147532063Y-104115226D01*
X147418795Y-104284744D01*
X147340774Y-104473102D01*
X147301000Y-104673061D01*
X139104944Y-104673061D01*
X138959039Y-104454698D01*
X138750302Y-104245961D01*
X138504853Y-104081958D01*
X138232125Y-103968990D01*
X137942599Y-103911400D01*
X137647401Y-103911400D01*
X137357875Y-103968990D01*
X137085147Y-104081958D01*
X136839698Y-104245961D01*
X136630961Y-104454698D01*
X136525000Y-104613281D01*
X136419039Y-104454698D01*
X136210302Y-104245961D01*
X135964853Y-104081958D01*
X135692125Y-103968990D01*
X135402599Y-103911400D01*
X135107401Y-103911400D01*
X134817875Y-103968990D01*
X134545147Y-104081958D01*
X134299698Y-104245961D01*
X134090961Y-104454698D01*
X133980441Y-104620103D01*
X133921817Y-104521512D01*
X133725293Y-104303146D01*
X133489944Y-104127316D01*
X133224814Y-104000778D01*
X133074026Y-103955042D01*
X132842000Y-104076183D01*
X132842000Y-105283000D01*
X132862000Y-105283000D01*
X132862000Y-105537000D01*
X132842000Y-105537000D01*
X132842000Y-105557000D01*
X132588000Y-105557000D01*
X132588000Y-105537000D01*
X132568000Y-105537000D01*
X132568000Y-105283000D01*
X132588000Y-105283000D01*
X132588000Y-104076183D01*
X132355974Y-103955042D01*
X132205186Y-104000778D01*
X131940056Y-104127316D01*
X131704707Y-104303146D01*
X131508183Y-104521512D01*
X131449559Y-104620103D01*
X131339039Y-104454698D01*
X131130302Y-104245961D01*
X130884853Y-104081958D01*
X130612125Y-103968990D01*
X130322599Y-103911400D01*
X130027401Y-103911400D01*
X129737875Y-103968990D01*
X129465147Y-104081958D01*
X129219698Y-104245961D01*
X129010961Y-104454698D01*
X128905000Y-104613281D01*
X128799039Y-104454698D01*
X128590302Y-104245961D01*
X128344853Y-104081958D01*
X128072125Y-103968990D01*
X127782599Y-103911400D01*
X127487401Y-103911400D01*
X127197875Y-103968990D01*
X126925147Y-104081958D01*
X126679698Y-104245961D01*
X126470961Y-104454698D01*
X126306958Y-104700147D01*
X126193990Y-104972875D01*
X126136400Y-105262401D01*
X126136400Y-105557599D01*
X126193990Y-105847125D01*
X126306958Y-106119853D01*
X126470961Y-106365302D01*
X126585023Y-106479364D01*
X126527220Y-106496898D01*
X126416906Y-106555863D01*
X126320215Y-106635215D01*
X126240863Y-106731906D01*
X126181898Y-106842220D01*
X126145588Y-106961918D01*
X126133328Y-107086400D01*
X120968791Y-107086400D01*
X120858560Y-106820279D01*
X120597550Y-106429651D01*
X120265349Y-106097450D01*
X119874721Y-105836440D01*
X119440679Y-105656654D01*
X118979902Y-105565000D01*
X118510098Y-105565000D01*
X118049321Y-105656654D01*
X117615279Y-105836440D01*
X117224651Y-106097450D01*
X116892450Y-106429651D01*
X116631440Y-106820279D01*
X116451654Y-107254321D01*
X116360000Y-107715098D01*
X115595000Y-107715098D01*
X115595000Y-100414657D01*
X115725363Y-100609759D01*
X115925241Y-100809637D01*
X116160273Y-100966680D01*
X116421426Y-101074853D01*
X116698665Y-101130000D01*
X116981335Y-101130000D01*
X117258574Y-101074853D01*
X117519727Y-100966680D01*
X117754759Y-100809637D01*
X117954637Y-100609759D01*
X118111680Y-100374727D01*
X118219853Y-100113574D01*
X118275000Y-99836335D01*
X118275000Y-99553665D01*
X118219853Y-99276426D01*
X118111680Y-99015273D01*
X117954637Y-98780241D01*
X117754759Y-98580363D01*
X117519727Y-98423320D01*
X117258574Y-98315147D01*
X116981335Y-98260000D01*
X116698665Y-98260000D01*
X116421426Y-98315147D01*
X116160273Y-98423320D01*
X115925241Y-98580363D01*
X115725363Y-98780241D01*
X115595000Y-98975343D01*
X115595000Y-95527702D01*
X116661903Y-95527702D01*
X116733486Y-95771671D01*
X116988996Y-95892571D01*
X117263184Y-95961300D01*
X117545512Y-95975217D01*
X117825130Y-95933787D01*
X118091292Y-95838603D01*
X118216514Y-95771671D01*
X118288097Y-95527702D01*
X117475000Y-94714605D01*
X116661903Y-95527702D01*
X115595000Y-95527702D01*
X115595000Y-94605512D01*
X116034783Y-94605512D01*
X116076213Y-94885130D01*
X116171397Y-95151292D01*
X116238329Y-95276514D01*
X116482298Y-95348097D01*
X117295395Y-94535000D01*
X117654605Y-94535000D01*
X118467702Y-95348097D01*
X118711671Y-95276514D01*
X118832571Y-95021004D01*
X118901300Y-94746816D01*
X118904347Y-94685000D01*
X119211928Y-94685000D01*
X119211928Y-97085000D01*
X119224188Y-97209482D01*
X119260498Y-97329180D01*
X119319463Y-97439494D01*
X119398815Y-97536185D01*
X119495506Y-97615537D01*
X119605820Y-97674502D01*
X119725518Y-97710812D01*
X119850000Y-97723072D01*
X121450000Y-97723072D01*
X121574482Y-97710812D01*
X121694180Y-97674502D01*
X121804494Y-97615537D01*
X121901185Y-97536185D01*
X121980537Y-97439494D01*
X122039502Y-97329180D01*
X122075812Y-97209482D01*
X122077581Y-97191517D01*
X122170393Y-97304608D01*
X122388900Y-97483932D01*
X122638193Y-97617182D01*
X122908692Y-97699236D01*
X123190000Y-97726943D01*
X123471309Y-97699236D01*
X123741808Y-97617182D01*
X123991101Y-97483932D01*
X124209608Y-97304608D01*
X124388932Y-97086101D01*
X124460000Y-96953142D01*
X124531068Y-97086101D01*
X124710393Y-97304608D01*
X124928900Y-97483932D01*
X125178193Y-97617182D01*
X125448692Y-97699236D01*
X125730000Y-97726943D01*
X126011309Y-97699236D01*
X126240001Y-97629864D01*
X126240001Y-98476956D01*
X126085241Y-98580363D01*
X125885363Y-98780241D01*
X125728320Y-99015273D01*
X125620147Y-99276426D01*
X125565000Y-99553665D01*
X125565000Y-99836335D01*
X125620147Y-100113574D01*
X125728320Y-100374727D01*
X125885363Y-100609759D01*
X126085241Y-100809637D01*
X126320273Y-100966680D01*
X126581426Y-101074853D01*
X126858665Y-101130000D01*
X127141335Y-101130000D01*
X127418574Y-101074853D01*
X127679727Y-100966680D01*
X127914759Y-100809637D01*
X128114637Y-100609759D01*
X128270000Y-100377241D01*
X128425363Y-100609759D01*
X128625241Y-100809637D01*
X128860273Y-100966680D01*
X129121426Y-101074853D01*
X129398665Y-101130000D01*
X129681335Y-101130000D01*
X129958574Y-101074853D01*
X130219727Y-100966680D01*
X130454759Y-100809637D01*
X130654637Y-100609759D01*
X130811680Y-100374727D01*
X130919853Y-100113574D01*
X130975000Y-99836335D01*
X130975000Y-99553665D01*
X138265000Y-99553665D01*
X138265000Y-99836335D01*
X138320147Y-100113574D01*
X138428320Y-100374727D01*
X138585363Y-100609759D01*
X138785241Y-100809637D01*
X139020273Y-100966680D01*
X139281426Y-101074853D01*
X139558665Y-101130000D01*
X139841335Y-101130000D01*
X140118574Y-101074853D01*
X140379727Y-100966680D01*
X140614759Y-100809637D01*
X140814637Y-100609759D01*
X140970000Y-100377241D01*
X141125363Y-100609759D01*
X141325241Y-100809637D01*
X141560273Y-100966680D01*
X141821426Y-101074853D01*
X142098665Y-101130000D01*
X142381335Y-101130000D01*
X142658574Y-101074853D01*
X142919727Y-100966680D01*
X143154759Y-100809637D01*
X143354637Y-100609759D01*
X143511680Y-100374727D01*
X143619853Y-100113574D01*
X143675000Y-99836335D01*
X143675000Y-99553665D01*
X143619853Y-99276426D01*
X143511680Y-99015273D01*
X143380939Y-98819605D01*
X143408061Y-98825000D01*
X143611939Y-98825000D01*
X143811898Y-98785226D01*
X144000256Y-98707205D01*
X144169774Y-98593937D01*
X144213711Y-98550000D01*
X150426289Y-98550000D01*
X150470226Y-98593937D01*
X150639744Y-98707205D01*
X150828102Y-98785226D01*
X151028061Y-98825000D01*
X151231939Y-98825000D01*
X151259061Y-98819605D01*
X151128320Y-99015273D01*
X151020147Y-99276426D01*
X150965000Y-99553665D01*
X150965000Y-99836335D01*
X151020147Y-100113574D01*
X151128320Y-100374727D01*
X151285363Y-100609759D01*
X151485241Y-100809637D01*
X151720273Y-100966680D01*
X151981426Y-101074853D01*
X152258665Y-101130000D01*
X152541335Y-101130000D01*
X152818574Y-101074853D01*
X153079727Y-100966680D01*
X153314759Y-100809637D01*
X153514637Y-100609759D01*
X153671680Y-100374727D01*
X153779853Y-100113574D01*
X153835000Y-99836335D01*
X153835000Y-99553665D01*
X154013000Y-99553665D01*
X154013000Y-99836335D01*
X154068147Y-100113574D01*
X154176320Y-100374727D01*
X154333363Y-100609759D01*
X154533241Y-100809637D01*
X154768273Y-100966680D01*
X155029426Y-101074853D01*
X155306665Y-101130000D01*
X155589335Y-101130000D01*
X155866574Y-101074853D01*
X156127727Y-100966680D01*
X156362759Y-100809637D01*
X156562637Y-100609759D01*
X156719680Y-100374727D01*
X156827853Y-100113574D01*
X156883000Y-99836335D01*
X156883000Y-99553665D01*
X164173000Y-99553665D01*
X164173000Y-99836335D01*
X164228147Y-100113574D01*
X164336320Y-100374727D01*
X164493363Y-100609759D01*
X164693241Y-100809637D01*
X164928273Y-100966680D01*
X165189426Y-101074853D01*
X165466665Y-101130000D01*
X165749335Y-101130000D01*
X166026574Y-101074853D01*
X166287727Y-100966680D01*
X166522759Y-100809637D01*
X166722637Y-100609759D01*
X166879680Y-100374727D01*
X166941500Y-100225480D01*
X167003320Y-100374727D01*
X167160363Y-100609759D01*
X167360241Y-100809637D01*
X167595273Y-100966680D01*
X167856426Y-101074853D01*
X168133665Y-101130000D01*
X168416335Y-101130000D01*
X168693574Y-101074853D01*
X168954727Y-100966680D01*
X169189759Y-100809637D01*
X169389637Y-100609759D01*
X169546680Y-100374727D01*
X169654853Y-100113574D01*
X169710000Y-99836335D01*
X169710000Y-99553665D01*
X169654853Y-99276426D01*
X169546680Y-99015273D01*
X169389637Y-98780241D01*
X169189759Y-98580363D01*
X168954727Y-98423320D01*
X168693574Y-98315147D01*
X168416335Y-98260000D01*
X168133665Y-98260000D01*
X167856426Y-98315147D01*
X167595273Y-98423320D01*
X167360241Y-98580363D01*
X167160363Y-98780241D01*
X167003320Y-99015273D01*
X166941500Y-99164520D01*
X166879680Y-99015273D01*
X166722637Y-98780241D01*
X166522759Y-98580363D01*
X166287727Y-98423320D01*
X166026574Y-98315147D01*
X165749335Y-98260000D01*
X165466665Y-98260000D01*
X165189426Y-98315147D01*
X164928273Y-98423320D01*
X164693241Y-98580363D01*
X164493363Y-98780241D01*
X164336320Y-99015273D01*
X164228147Y-99276426D01*
X164173000Y-99553665D01*
X156883000Y-99553665D01*
X156827853Y-99276426D01*
X156719680Y-99015273D01*
X156562637Y-98780241D01*
X156362759Y-98580363D01*
X156127727Y-98423320D01*
X155866574Y-98315147D01*
X155589335Y-98260000D01*
X155306665Y-98260000D01*
X155029426Y-98315147D01*
X154768273Y-98423320D01*
X154533241Y-98580363D01*
X154333363Y-98780241D01*
X154176320Y-99015273D01*
X154068147Y-99276426D01*
X154013000Y-99553665D01*
X153835000Y-99553665D01*
X153779853Y-99276426D01*
X153671680Y-99015273D01*
X153514637Y-98780241D01*
X153314759Y-98580363D01*
X153079727Y-98423320D01*
X152818574Y-98315147D01*
X152541335Y-98260000D01*
X152258665Y-98260000D01*
X152030401Y-98305405D01*
X152047205Y-98280256D01*
X152125226Y-98091898D01*
X152165000Y-97891939D01*
X152165000Y-97688061D01*
X152125226Y-97488102D01*
X152066158Y-97345500D01*
X152495722Y-97345500D01*
X152555363Y-97434759D01*
X152755241Y-97634637D01*
X152990273Y-97791680D01*
X153251426Y-97899853D01*
X153528665Y-97955000D01*
X153811335Y-97955000D01*
X154088574Y-97899853D01*
X154349727Y-97791680D01*
X154584759Y-97634637D01*
X154784637Y-97434759D01*
X154941680Y-97199727D01*
X155049853Y-96938574D01*
X155105000Y-96661335D01*
X155105000Y-96378665D01*
X155076232Y-96234039D01*
X155688096Y-96234039D01*
X155705633Y-96316818D01*
X155816285Y-96576646D01*
X155975500Y-96809895D01*
X156177161Y-97007601D01*
X156413517Y-97162166D01*
X156675486Y-97267650D01*
X156953000Y-97320000D01*
X157353000Y-97320000D01*
X157353000Y-96012000D01*
X157607000Y-96012000D01*
X157607000Y-97320000D01*
X158007000Y-97320000D01*
X158284514Y-97267650D01*
X158546483Y-97162166D01*
X158782839Y-97007601D01*
X158984500Y-96809895D01*
X159143715Y-96576646D01*
X159254367Y-96316818D01*
X159271904Y-96234039D01*
X159149915Y-96012000D01*
X157607000Y-96012000D01*
X157353000Y-96012000D01*
X155810085Y-96012000D01*
X155688096Y-96234039D01*
X155076232Y-96234039D01*
X155049853Y-96101426D01*
X154941680Y-95840273D01*
X154784637Y-95605241D01*
X154584759Y-95405363D01*
X154349727Y-95248320D01*
X154088574Y-95140147D01*
X153811335Y-95085000D01*
X153528665Y-95085000D01*
X153251426Y-95140147D01*
X152990273Y-95248320D01*
X152755241Y-95405363D01*
X152555363Y-95605241D01*
X152495722Y-95694500D01*
X151034278Y-95694500D01*
X150974637Y-95605241D01*
X150774759Y-95405363D01*
X150539727Y-95248320D01*
X150278574Y-95140147D01*
X150001335Y-95085000D01*
X149718665Y-95085000D01*
X149441426Y-95140147D01*
X149180273Y-95248320D01*
X148945241Y-95405363D01*
X148745363Y-95605241D01*
X148685722Y-95694500D01*
X147224278Y-95694500D01*
X147164637Y-95605241D01*
X146964759Y-95405363D01*
X146729727Y-95248320D01*
X146468574Y-95140147D01*
X146191335Y-95085000D01*
X145908665Y-95085000D01*
X145631426Y-95140147D01*
X145370273Y-95248320D01*
X145135241Y-95405363D01*
X144935363Y-95605241D01*
X144875722Y-95694500D01*
X143414278Y-95694500D01*
X143354637Y-95605241D01*
X143154759Y-95405363D01*
X142919727Y-95248320D01*
X142658574Y-95140147D01*
X142381335Y-95085000D01*
X142098665Y-95085000D01*
X141821426Y-95140147D01*
X141560273Y-95248320D01*
X141325241Y-95405363D01*
X141125363Y-95605241D01*
X141065722Y-95694500D01*
X141010550Y-95694500D01*
X140969999Y-95690506D01*
X140929449Y-95694500D01*
X140929447Y-95694500D01*
X140808174Y-95706444D01*
X140652566Y-95753647D01*
X140559111Y-95803601D01*
X140509157Y-95830301D01*
X140447596Y-95880823D01*
X140383459Y-95933459D01*
X140357606Y-95964961D01*
X139854406Y-96468162D01*
X139865000Y-96412000D01*
X139865000Y-96012000D01*
X138557000Y-96012000D01*
X138557000Y-97554915D01*
X138779039Y-97676904D01*
X138861818Y-97659367D01*
X138884316Y-97649786D01*
X138870506Y-97790000D01*
X138874501Y-97830560D01*
X138874501Y-98520722D01*
X138785241Y-98580363D01*
X138585363Y-98780241D01*
X138428320Y-99015273D01*
X138320147Y-99276426D01*
X138265000Y-99553665D01*
X130975000Y-99553665D01*
X130919853Y-99276426D01*
X130811680Y-99015273D01*
X130654637Y-98780241D01*
X130454759Y-98580363D01*
X130219727Y-98423320D01*
X129958574Y-98315147D01*
X129681335Y-98260000D01*
X129398665Y-98260000D01*
X129121426Y-98315147D01*
X128860273Y-98423320D01*
X128625241Y-98580363D01*
X128425363Y-98780241D01*
X128270000Y-99012759D01*
X128114637Y-98780241D01*
X127914759Y-98580363D01*
X127760000Y-98476957D01*
X127760000Y-97629864D01*
X127988692Y-97699236D01*
X128270000Y-97726943D01*
X128551309Y-97699236D01*
X128821808Y-97617182D01*
X129071101Y-97483932D01*
X129289608Y-97304608D01*
X129468932Y-97086101D01*
X129540000Y-96953142D01*
X129611068Y-97086101D01*
X129790393Y-97304608D01*
X130008900Y-97483932D01*
X130258193Y-97617182D01*
X130528692Y-97699236D01*
X130810000Y-97726943D01*
X131091309Y-97699236D01*
X131361808Y-97617182D01*
X131611101Y-97483932D01*
X131829608Y-97304608D01*
X132008932Y-97086101D01*
X132080000Y-96953142D01*
X132151068Y-97086101D01*
X132330393Y-97304608D01*
X132548900Y-97483932D01*
X132798193Y-97617182D01*
X133068692Y-97699236D01*
X133350000Y-97726943D01*
X133631309Y-97699236D01*
X133901808Y-97617182D01*
X134151101Y-97483932D01*
X134369608Y-97304608D01*
X134548932Y-97086101D01*
X134620000Y-96953142D01*
X134691068Y-97086101D01*
X134870393Y-97304608D01*
X135088900Y-97483932D01*
X135338193Y-97617182D01*
X135608692Y-97699236D01*
X135890000Y-97726943D01*
X136171309Y-97699236D01*
X136441808Y-97617182D01*
X136691101Y-97483932D01*
X136909608Y-97304608D01*
X137088932Y-97086101D01*
X137157265Y-96958259D01*
X137307399Y-97187839D01*
X137505105Y-97389500D01*
X137738354Y-97548715D01*
X137998182Y-97659367D01*
X138080961Y-97676904D01*
X138303000Y-97554915D01*
X138303000Y-96012000D01*
X138283000Y-96012000D01*
X138283000Y-95758000D01*
X138303000Y-95758000D01*
X138303000Y-94215085D01*
X138557000Y-94215085D01*
X138557000Y-95758000D01*
X139865000Y-95758000D01*
X139865000Y-95358000D01*
X139812650Y-95080486D01*
X139707166Y-94818517D01*
X139552601Y-94582161D01*
X139354895Y-94380500D01*
X139121646Y-94221285D01*
X138861818Y-94110633D01*
X138779039Y-94093096D01*
X138557000Y-94215085D01*
X138303000Y-94215085D01*
X138080961Y-94093096D01*
X137998182Y-94110633D01*
X137738354Y-94221285D01*
X137505105Y-94380500D01*
X137307399Y-94582161D01*
X137157265Y-94811741D01*
X137088932Y-94683899D01*
X136909607Y-94465392D01*
X136691100Y-94286068D01*
X136441807Y-94152818D01*
X136171308Y-94070764D01*
X135890000Y-94043057D01*
X135608691Y-94070764D01*
X135338192Y-94152818D01*
X135088899Y-94286068D01*
X134870392Y-94465393D01*
X134691068Y-94683900D01*
X134620000Y-94816858D01*
X134548932Y-94683899D01*
X134369607Y-94465392D01*
X134151100Y-94286068D01*
X133901807Y-94152818D01*
X133744170Y-94105000D01*
X133916289Y-94105000D01*
X133960226Y-94148937D01*
X134129744Y-94262205D01*
X134318102Y-94340226D01*
X134518061Y-94380000D01*
X134721939Y-94380000D01*
X134921898Y-94340226D01*
X135110256Y-94262205D01*
X135279774Y-94148937D01*
X135423937Y-94004774D01*
X135537205Y-93835256D01*
X135615226Y-93646898D01*
X135655000Y-93446939D01*
X135655000Y-93243061D01*
X135615226Y-93043102D01*
X135537205Y-92854744D01*
X135423937Y-92685226D01*
X135279774Y-92541063D01*
X135110256Y-92427795D01*
X134921898Y-92349774D01*
X134721939Y-92310000D01*
X134518061Y-92310000D01*
X134350254Y-92343379D01*
X134345226Y-92318102D01*
X134267205Y-92129744D01*
X134153937Y-91960226D01*
X134009774Y-91816063D01*
X133840256Y-91702795D01*
X133651898Y-91624774D01*
X133451939Y-91585000D01*
X133248061Y-91585000D01*
X133048102Y-91624774D01*
X132859744Y-91702795D01*
X132690226Y-91816063D01*
X132646289Y-91860000D01*
X122047322Y-91860000D01*
X122009999Y-91856324D01*
X121972676Y-91860000D01*
X121972667Y-91860000D01*
X121861014Y-91870997D01*
X121717753Y-91914454D01*
X121585724Y-91985026D01*
X121585722Y-91985027D01*
X121585723Y-91985027D01*
X121498996Y-92056201D01*
X121498992Y-92056205D01*
X121469999Y-92079999D01*
X121446205Y-92108992D01*
X120138998Y-93416201D01*
X120110000Y-93439999D01*
X120086202Y-93468997D01*
X120086201Y-93468998D01*
X120015026Y-93555724D01*
X119944454Y-93687754D01*
X119919726Y-93769276D01*
X119900998Y-93831014D01*
X119895986Y-93881903D01*
X119886324Y-93980000D01*
X119890001Y-94017332D01*
X119890001Y-94046928D01*
X119850000Y-94046928D01*
X119725518Y-94059188D01*
X119605820Y-94095498D01*
X119495506Y-94154463D01*
X119398815Y-94233815D01*
X119319463Y-94330506D01*
X119260498Y-94440820D01*
X119224188Y-94560518D01*
X119211928Y-94685000D01*
X118904347Y-94685000D01*
X118915217Y-94464488D01*
X118873787Y-94184870D01*
X118778603Y-93918708D01*
X118711671Y-93793486D01*
X118467702Y-93721903D01*
X117654605Y-94535000D01*
X117295395Y-94535000D01*
X116482298Y-93721903D01*
X116238329Y-93793486D01*
X116117429Y-94048996D01*
X116048700Y-94323184D01*
X116034783Y-94605512D01*
X115595000Y-94605512D01*
X115595000Y-93542298D01*
X116661903Y-93542298D01*
X117475000Y-94355395D01*
X118288097Y-93542298D01*
X118216514Y-93298329D01*
X117961004Y-93177429D01*
X117686816Y-93108700D01*
X117404488Y-93094783D01*
X117124870Y-93136213D01*
X116858708Y-93231397D01*
X116733486Y-93298329D01*
X116661903Y-93542298D01*
X115595000Y-93542298D01*
X115595000Y-89393665D01*
X116040000Y-89393665D01*
X116040000Y-89676335D01*
X116095147Y-89953574D01*
X116203320Y-90214727D01*
X116360363Y-90449759D01*
X116560241Y-90649637D01*
X116795273Y-90806680D01*
X117056426Y-90914853D01*
X117333665Y-90970000D01*
X117616335Y-90970000D01*
X117893574Y-90914853D01*
X118154727Y-90806680D01*
X118389759Y-90649637D01*
X118589637Y-90449759D01*
X118746680Y-90214727D01*
X118854853Y-89953574D01*
X118910000Y-89676335D01*
X118910000Y-89393665D01*
X118854853Y-89116426D01*
X118746680Y-88855273D01*
X118589637Y-88620241D01*
X118389759Y-88420363D01*
X118154727Y-88263320D01*
X117893574Y-88155147D01*
X117616335Y-88100000D01*
X117333665Y-88100000D01*
X117056426Y-88155147D01*
X116795273Y-88263320D01*
X116560241Y-88420363D01*
X116360363Y-88620241D01*
X116203320Y-88855273D01*
X116095147Y-89116426D01*
X116040000Y-89393665D01*
X115595000Y-89393665D01*
X115595000Y-87794509D01*
X119215000Y-87794509D01*
X119215000Y-88735492D01*
X119235764Y-88946309D01*
X119317818Y-89216808D01*
X119451068Y-89466101D01*
X119630393Y-89684608D01*
X119848900Y-89863932D01*
X120098193Y-89997182D01*
X120368692Y-90079236D01*
X120650000Y-90106943D01*
X120931309Y-90079236D01*
X121201808Y-89997182D01*
X121451101Y-89863932D01*
X121669608Y-89684608D01*
X121848932Y-89466101D01*
X121917265Y-89338259D01*
X122067399Y-89567839D01*
X122265105Y-89769500D01*
X122498354Y-89928715D01*
X122758182Y-90039367D01*
X122840961Y-90056904D01*
X123063000Y-89934915D01*
X123063000Y-88392000D01*
X123043000Y-88392000D01*
X123043000Y-88138000D01*
X123063000Y-88138000D01*
X123063000Y-86595085D01*
X122840961Y-86473096D01*
X122758182Y-86490633D01*
X122498354Y-86601285D01*
X122265105Y-86760500D01*
X122067399Y-86962161D01*
X121917265Y-87191741D01*
X121848932Y-87063899D01*
X121669607Y-86845392D01*
X121451100Y-86666068D01*
X121201807Y-86532818D01*
X120931308Y-86450764D01*
X120650000Y-86423057D01*
X120368691Y-86450764D01*
X120098192Y-86532818D01*
X119848899Y-86666068D01*
X119630392Y-86845393D01*
X119451068Y-87063900D01*
X119317818Y-87313193D01*
X119235764Y-87583692D01*
X119215000Y-87794509D01*
X115595000Y-87794509D01*
X115595000Y-85542702D01*
X117931903Y-85542702D01*
X118003486Y-85786671D01*
X118258996Y-85907571D01*
X118533184Y-85976300D01*
X118815512Y-85990217D01*
X119095130Y-85948787D01*
X119361292Y-85853603D01*
X119486514Y-85786671D01*
X119558097Y-85542702D01*
X118745000Y-84729605D01*
X117931903Y-85542702D01*
X115595000Y-85542702D01*
X115595000Y-84620512D01*
X117304783Y-84620512D01*
X117346213Y-84900130D01*
X117441397Y-85166292D01*
X117508329Y-85291514D01*
X117752298Y-85363097D01*
X118565395Y-84550000D01*
X118551253Y-84535858D01*
X118730858Y-84356253D01*
X118745000Y-84370395D01*
X118759143Y-84356253D01*
X118938748Y-84535858D01*
X118924605Y-84550000D01*
X119737702Y-85363097D01*
X119981671Y-85291514D01*
X120102571Y-85036004D01*
X120124463Y-84948665D01*
X122390000Y-84948665D01*
X122390000Y-85231335D01*
X122445147Y-85508574D01*
X122553320Y-85769727D01*
X122710363Y-86004759D01*
X122910241Y-86204637D01*
X123145273Y-86361680D01*
X123406426Y-86469853D01*
X123508122Y-86490082D01*
X123317000Y-86595085D01*
X123317000Y-88138000D01*
X123337000Y-88138000D01*
X123337000Y-88392000D01*
X123317000Y-88392000D01*
X123317000Y-89934915D01*
X123539039Y-90056904D01*
X123621818Y-90039367D01*
X123881646Y-89928715D01*
X124114895Y-89769500D01*
X124312601Y-89567839D01*
X124462735Y-89338259D01*
X124531068Y-89466101D01*
X124710393Y-89684608D01*
X124928900Y-89863932D01*
X125178193Y-89997182D01*
X125448692Y-90079236D01*
X125730000Y-90106943D01*
X126011309Y-90079236D01*
X126281808Y-89997182D01*
X126531101Y-89863932D01*
X126749608Y-89684608D01*
X126928932Y-89466101D01*
X127000000Y-89333142D01*
X127071068Y-89466101D01*
X127250393Y-89684608D01*
X127468900Y-89863932D01*
X127718193Y-89997182D01*
X127988692Y-90079236D01*
X128270000Y-90106943D01*
X128551309Y-90079236D01*
X128821808Y-89997182D01*
X129071101Y-89863932D01*
X129289608Y-89684608D01*
X129468932Y-89466101D01*
X129540000Y-89333142D01*
X129611068Y-89466101D01*
X129790393Y-89684608D01*
X130008900Y-89863932D01*
X130258193Y-89997182D01*
X130329779Y-90018897D01*
X130320000Y-90068061D01*
X130320000Y-90271939D01*
X130359774Y-90471898D01*
X130437795Y-90660256D01*
X130551063Y-90829774D01*
X130695226Y-90973937D01*
X130864744Y-91087205D01*
X131053102Y-91165226D01*
X131253061Y-91205000D01*
X131456939Y-91205000D01*
X131656898Y-91165226D01*
X131845256Y-91087205D01*
X132014774Y-90973937D01*
X132058711Y-90930000D01*
X142716279Y-90930000D01*
X142760216Y-90973937D01*
X142929734Y-91087205D01*
X143118092Y-91165226D01*
X143318051Y-91205000D01*
X143385001Y-91205000D01*
X143385001Y-92006288D01*
X143341063Y-92050226D01*
X143227795Y-92219744D01*
X143149774Y-92408102D01*
X143110000Y-92608061D01*
X143110000Y-92811939D01*
X143149774Y-93011898D01*
X143227795Y-93200256D01*
X143341063Y-93369774D01*
X143485226Y-93513937D01*
X143654744Y-93627205D01*
X143843102Y-93705226D01*
X143873225Y-93711218D01*
X143874774Y-93719006D01*
X143952795Y-93907364D01*
X144066063Y-94076882D01*
X144210226Y-94221045D01*
X144379744Y-94334313D01*
X144568102Y-94412334D01*
X144768061Y-94452108D01*
X144971939Y-94452108D01*
X145171898Y-94412334D01*
X145360256Y-94334313D01*
X145529774Y-94221045D01*
X145673937Y-94076882D01*
X145787205Y-93907364D01*
X145865226Y-93719006D01*
X145905000Y-93519047D01*
X145905000Y-93345000D01*
X155638057Y-93345000D01*
X155665764Y-93626309D01*
X155747818Y-93896808D01*
X155881068Y-94146101D01*
X156060392Y-94364608D01*
X156278899Y-94543932D01*
X156406741Y-94612265D01*
X156177161Y-94762399D01*
X155975500Y-94960105D01*
X155816285Y-95193354D01*
X155705633Y-95453182D01*
X155688096Y-95535961D01*
X155810085Y-95758000D01*
X157353000Y-95758000D01*
X157353000Y-95738000D01*
X157607000Y-95738000D01*
X157607000Y-95758000D01*
X159149915Y-95758000D01*
X159271904Y-95535961D01*
X159254367Y-95453182D01*
X159143715Y-95193354D01*
X158984500Y-94960105D01*
X158782839Y-94762399D01*
X158553259Y-94612265D01*
X158681101Y-94543932D01*
X158899608Y-94364608D01*
X159078932Y-94146101D01*
X159212182Y-93896808D01*
X159294236Y-93626309D01*
X159321943Y-93345000D01*
X163258057Y-93345000D01*
X163285764Y-93626309D01*
X163367818Y-93896808D01*
X163501068Y-94146101D01*
X163680392Y-94364608D01*
X163898899Y-94543932D01*
X164031858Y-94615000D01*
X163898899Y-94686068D01*
X163680392Y-94865392D01*
X163501068Y-95083899D01*
X163367818Y-95333192D01*
X163285764Y-95603691D01*
X163258057Y-95885000D01*
X163285764Y-96166309D01*
X163367818Y-96436808D01*
X163501068Y-96686101D01*
X163680392Y-96904608D01*
X163898899Y-97083932D01*
X164148192Y-97217182D01*
X164418691Y-97299236D01*
X164629508Y-97320000D01*
X165570492Y-97320000D01*
X165781309Y-97299236D01*
X166051808Y-97217182D01*
X166301101Y-97083932D01*
X166519608Y-96904608D01*
X166698932Y-96686101D01*
X166832182Y-96436808D01*
X166914236Y-96166309D01*
X166941943Y-95885000D01*
X166922511Y-95687702D01*
X167461903Y-95687702D01*
X167533486Y-95931671D01*
X167788996Y-96052571D01*
X168063184Y-96121300D01*
X168345512Y-96135217D01*
X168625130Y-96093787D01*
X168891292Y-95998603D01*
X169016514Y-95931671D01*
X169088097Y-95687702D01*
X168275000Y-94874605D01*
X167461903Y-95687702D01*
X166922511Y-95687702D01*
X166914236Y-95603691D01*
X166832182Y-95333192D01*
X166698932Y-95083899D01*
X166519608Y-94865392D01*
X166397904Y-94765512D01*
X166834783Y-94765512D01*
X166876213Y-95045130D01*
X166971397Y-95311292D01*
X167038329Y-95436514D01*
X167282298Y-95508097D01*
X168095395Y-94695000D01*
X168454605Y-94695000D01*
X169267702Y-95508097D01*
X169511671Y-95436514D01*
X169632571Y-95181004D01*
X169701300Y-94906816D01*
X169715217Y-94624488D01*
X169673787Y-94344870D01*
X169578603Y-94078708D01*
X169511671Y-93953486D01*
X169267702Y-93881903D01*
X168454605Y-94695000D01*
X168095395Y-94695000D01*
X167282298Y-93881903D01*
X167038329Y-93953486D01*
X166917429Y-94208996D01*
X166848700Y-94483184D01*
X166834783Y-94765512D01*
X166397904Y-94765512D01*
X166301101Y-94686068D01*
X166168142Y-94615000D01*
X166301101Y-94543932D01*
X166519608Y-94364608D01*
X166698932Y-94146101D01*
X166832182Y-93896808D01*
X166914236Y-93626309D01*
X166941943Y-93345000D01*
X166914236Y-93063691D01*
X166832182Y-92793192D01*
X166698932Y-92543899D01*
X166519608Y-92325392D01*
X166301101Y-92146068D01*
X166173259Y-92077735D01*
X166393566Y-91933665D01*
X166840000Y-91933665D01*
X166840000Y-92216335D01*
X166895147Y-92493574D01*
X167003320Y-92754727D01*
X167160363Y-92989759D01*
X167360241Y-93189637D01*
X167595273Y-93346680D01*
X167682601Y-93382852D01*
X167658708Y-93391397D01*
X167533486Y-93458329D01*
X167461903Y-93702298D01*
X168275000Y-94515395D01*
X169088097Y-93702298D01*
X169016514Y-93458329D01*
X168861855Y-93385149D01*
X168954727Y-93346680D01*
X169189759Y-93189637D01*
X169389637Y-92989759D01*
X169546680Y-92754727D01*
X169654853Y-92493574D01*
X169710000Y-92216335D01*
X169710000Y-91933665D01*
X169654853Y-91656426D01*
X169546680Y-91395273D01*
X169389637Y-91160241D01*
X169189759Y-90960363D01*
X168954727Y-90803320D01*
X168693574Y-90695147D01*
X168416335Y-90640000D01*
X168133665Y-90640000D01*
X167856426Y-90695147D01*
X167595273Y-90803320D01*
X167360241Y-90960363D01*
X167160363Y-91160241D01*
X167003320Y-91395273D01*
X166895147Y-91656426D01*
X166840000Y-91933665D01*
X166393566Y-91933665D01*
X166402839Y-91927601D01*
X166604500Y-91729895D01*
X166763715Y-91496646D01*
X166874367Y-91236818D01*
X166891904Y-91154039D01*
X166769915Y-90932000D01*
X165227000Y-90932000D01*
X165227000Y-90952000D01*
X164973000Y-90952000D01*
X164973000Y-90932000D01*
X163430085Y-90932000D01*
X163308096Y-91154039D01*
X163325633Y-91236818D01*
X163436285Y-91496646D01*
X163595500Y-91729895D01*
X163797161Y-91927601D01*
X164026741Y-92077735D01*
X163898899Y-92146068D01*
X163680392Y-92325392D01*
X163501068Y-92543899D01*
X163367818Y-92793192D01*
X163285764Y-93063691D01*
X163258057Y-93345000D01*
X159321943Y-93345000D01*
X159294236Y-93063691D01*
X159212182Y-92793192D01*
X159078932Y-92543899D01*
X158899608Y-92325392D01*
X158681101Y-92146068D01*
X158553259Y-92077735D01*
X158782839Y-91927601D01*
X158984500Y-91729895D01*
X159143715Y-91496646D01*
X159254367Y-91236818D01*
X159271904Y-91154039D01*
X159149915Y-90932000D01*
X157607000Y-90932000D01*
X157607000Y-90952000D01*
X157353000Y-90952000D01*
X157353000Y-90932000D01*
X155810085Y-90932000D01*
X155688096Y-91154039D01*
X155705633Y-91236818D01*
X155816285Y-91496646D01*
X155975500Y-91729895D01*
X156177161Y-91927601D01*
X156406741Y-92077735D01*
X156278899Y-92146068D01*
X156060392Y-92325392D01*
X155881068Y-92543899D01*
X155747818Y-92793192D01*
X155665764Y-93063691D01*
X155638057Y-93345000D01*
X145905000Y-93345000D01*
X145905000Y-93315169D01*
X145865226Y-93115210D01*
X145787205Y-92926852D01*
X145673937Y-92757334D01*
X145630000Y-92713397D01*
X145630000Y-91567322D01*
X145633676Y-91529999D01*
X145630000Y-91492677D01*
X145630000Y-91492667D01*
X145619003Y-91381014D01*
X145575546Y-91237753D01*
X145540000Y-91171252D01*
X145540000Y-90241983D01*
X145631426Y-90279853D01*
X145908665Y-90335000D01*
X146191335Y-90335000D01*
X146468574Y-90279853D01*
X146560000Y-90241983D01*
X146560000Y-91461289D01*
X146516063Y-91505226D01*
X146402795Y-91674744D01*
X146324774Y-91863102D01*
X146285000Y-92063061D01*
X146285000Y-92266939D01*
X146324774Y-92466898D01*
X146402795Y-92655256D01*
X146516063Y-92824774D01*
X146660226Y-92968937D01*
X146829744Y-93082205D01*
X147018102Y-93160226D01*
X147218061Y-93200000D01*
X147421939Y-93200000D01*
X147621898Y-93160226D01*
X147810256Y-93082205D01*
X147955000Y-92985490D01*
X148099744Y-93082205D01*
X148288102Y-93160226D01*
X148488061Y-93200000D01*
X148691939Y-93200000D01*
X148891898Y-93160226D01*
X149080256Y-93082205D01*
X149249774Y-92968937D01*
X149393937Y-92824774D01*
X149507205Y-92655256D01*
X149585226Y-92466898D01*
X149625000Y-92266939D01*
X149625000Y-92063061D01*
X149585226Y-91863102D01*
X149507205Y-91674744D01*
X149393937Y-91505226D01*
X149249774Y-91361063D01*
X149080256Y-91247795D01*
X148891898Y-91169774D01*
X148838836Y-91159219D01*
X148838836Y-89908232D01*
X148945241Y-90014637D01*
X149180273Y-90171680D01*
X149441426Y-90279853D01*
X149718665Y-90335000D01*
X150001335Y-90335000D01*
X150278574Y-90279853D01*
X150539727Y-90171680D01*
X150774759Y-90014637D01*
X150974637Y-89814759D01*
X151131680Y-89579727D01*
X151239853Y-89318574D01*
X151295000Y-89041335D01*
X151295000Y-88758665D01*
X152235000Y-88758665D01*
X152235000Y-89041335D01*
X152290147Y-89318574D01*
X152398320Y-89579727D01*
X152555363Y-89814759D01*
X152755241Y-90014637D01*
X152990273Y-90171680D01*
X153251426Y-90279853D01*
X153528665Y-90335000D01*
X153811335Y-90335000D01*
X154088574Y-90279853D01*
X154349727Y-90171680D01*
X154584759Y-90014637D01*
X154784637Y-89814759D01*
X154941680Y-89579727D01*
X155049853Y-89318574D01*
X155105000Y-89041335D01*
X155105000Y-88758665D01*
X155049853Y-88481426D01*
X154941680Y-88220273D01*
X154784637Y-87985241D01*
X154584759Y-87785363D01*
X154349727Y-87628320D01*
X154088574Y-87520147D01*
X153811335Y-87465000D01*
X153528665Y-87465000D01*
X153251426Y-87520147D01*
X152990273Y-87628320D01*
X152755241Y-87785363D01*
X152555363Y-87985241D01*
X152398320Y-88220273D01*
X152290147Y-88481426D01*
X152235000Y-88758665D01*
X151295000Y-88758665D01*
X151239853Y-88481426D01*
X151131680Y-88220273D01*
X150974637Y-87985241D01*
X150774759Y-87785363D01*
X150539727Y-87628320D01*
X150278574Y-87520147D01*
X150001335Y-87465000D01*
X149718665Y-87465000D01*
X149441426Y-87520147D01*
X149180273Y-87628320D01*
X148945241Y-87785363D01*
X148838836Y-87891768D01*
X148838836Y-85687427D01*
X148882773Y-85643490D01*
X148996041Y-85473972D01*
X149074062Y-85285614D01*
X149113836Y-85085655D01*
X149113836Y-84948665D01*
X151600000Y-84948665D01*
X151600000Y-85231335D01*
X151655147Y-85508574D01*
X151763320Y-85769727D01*
X151920363Y-86004759D01*
X152120241Y-86204637D01*
X152355273Y-86361680D01*
X152616426Y-86469853D01*
X152893665Y-86525000D01*
X153176335Y-86525000D01*
X153453574Y-86469853D01*
X153714727Y-86361680D01*
X153949759Y-86204637D01*
X154149637Y-86004759D01*
X154306680Y-85769727D01*
X154414853Y-85508574D01*
X154470000Y-85231335D01*
X154470000Y-84948665D01*
X154414853Y-84671426D01*
X154306680Y-84410273D01*
X154149637Y-84175241D01*
X153949759Y-83975363D01*
X153714727Y-83818320D01*
X153453574Y-83710147D01*
X153176335Y-83655000D01*
X152893665Y-83655000D01*
X152616426Y-83710147D01*
X152355273Y-83818320D01*
X152120241Y-83975363D01*
X151920363Y-84175241D01*
X151763320Y-84410273D01*
X151655147Y-84671426D01*
X151600000Y-84948665D01*
X149113836Y-84948665D01*
X149113836Y-84881777D01*
X149074062Y-84681818D01*
X148996041Y-84493460D01*
X148882773Y-84323942D01*
X148738610Y-84179779D01*
X148569092Y-84066511D01*
X148380734Y-83988490D01*
X148180775Y-83948716D01*
X147976897Y-83948716D01*
X147776938Y-83988490D01*
X147588580Y-84066511D01*
X147419062Y-84179779D01*
X147274899Y-84323942D01*
X147161631Y-84493460D01*
X147108471Y-84621799D01*
X147018102Y-84639774D01*
X146829744Y-84717795D01*
X146804910Y-84734388D01*
X146766246Y-84606913D01*
X146646037Y-84352580D01*
X146478519Y-84126586D01*
X146270131Y-83937615D01*
X146028881Y-83792930D01*
X145764040Y-83698091D01*
X145542000Y-83819376D01*
X145542000Y-84963000D01*
X145562000Y-84963000D01*
X145562000Y-85217000D01*
X145542000Y-85217000D01*
X145542000Y-86360624D01*
X145764040Y-86481909D01*
X146028881Y-86387070D01*
X146270131Y-86242385D01*
X146401839Y-86122949D01*
X146402795Y-86125256D01*
X146516063Y-86294774D01*
X146560001Y-86338712D01*
X146560001Y-87558017D01*
X146468574Y-87520147D01*
X146191335Y-87465000D01*
X145908665Y-87465000D01*
X145631426Y-87520147D01*
X145540000Y-87558017D01*
X145540000Y-87032332D01*
X145543677Y-86995000D01*
X145529003Y-86846014D01*
X145485546Y-86702753D01*
X145414974Y-86570724D01*
X145343799Y-86483997D01*
X145320001Y-86454999D01*
X145291002Y-86431200D01*
X145244297Y-86384496D01*
X145288000Y-86360624D01*
X145288000Y-85217000D01*
X144145085Y-85217000D01*
X144023096Y-85439039D01*
X144063754Y-85573087D01*
X144076474Y-85600000D01*
X143581983Y-85600000D01*
X143619853Y-85508574D01*
X143675000Y-85231335D01*
X143675000Y-84948665D01*
X143633685Y-84740961D01*
X144023096Y-84740961D01*
X144145085Y-84963000D01*
X145288000Y-84963000D01*
X145288000Y-83819376D01*
X145065960Y-83698091D01*
X144801119Y-83792930D01*
X144559869Y-83937615D01*
X144351481Y-84126586D01*
X144183963Y-84352580D01*
X144063754Y-84606913D01*
X144023096Y-84740961D01*
X143633685Y-84740961D01*
X143619853Y-84671426D01*
X143511680Y-84410273D01*
X143354637Y-84175241D01*
X143154759Y-83975363D01*
X142919727Y-83818320D01*
X142658574Y-83710147D01*
X142381335Y-83655000D01*
X142098665Y-83655000D01*
X141821426Y-83710147D01*
X141560273Y-83818320D01*
X141364605Y-83949061D01*
X141370000Y-83921939D01*
X141370000Y-83718061D01*
X141330226Y-83518102D01*
X141252205Y-83329744D01*
X141155491Y-83185000D01*
X155638057Y-83185000D01*
X155665764Y-83466309D01*
X155747818Y-83736808D01*
X155881068Y-83986101D01*
X156060392Y-84204608D01*
X156278899Y-84383932D01*
X156411858Y-84455000D01*
X156278899Y-84526068D01*
X156060392Y-84705392D01*
X155881068Y-84923899D01*
X155747818Y-85173192D01*
X155665764Y-85443691D01*
X155638057Y-85725000D01*
X155665764Y-86006309D01*
X155747818Y-86276808D01*
X155881068Y-86526101D01*
X156060392Y-86744608D01*
X156278899Y-86923932D01*
X156411858Y-86995000D01*
X156278899Y-87066068D01*
X156060392Y-87245392D01*
X155881068Y-87463899D01*
X155747818Y-87713192D01*
X155665764Y-87983691D01*
X155638057Y-88265000D01*
X155665764Y-88546309D01*
X155747818Y-88816808D01*
X155881068Y-89066101D01*
X156060392Y-89284608D01*
X156278899Y-89463932D01*
X156406741Y-89532265D01*
X156177161Y-89682399D01*
X155975500Y-89880105D01*
X155816285Y-90113354D01*
X155705633Y-90373182D01*
X155688096Y-90455961D01*
X155810085Y-90678000D01*
X157353000Y-90678000D01*
X157353000Y-90658000D01*
X157607000Y-90658000D01*
X157607000Y-90678000D01*
X159149915Y-90678000D01*
X159271904Y-90455961D01*
X159254367Y-90373182D01*
X159143715Y-90113354D01*
X158984500Y-89880105D01*
X158782839Y-89682399D01*
X158553259Y-89532265D01*
X158681101Y-89463932D01*
X158899608Y-89284608D01*
X159078932Y-89066101D01*
X159212182Y-88816808D01*
X159294236Y-88546309D01*
X159321943Y-88265000D01*
X159298797Y-88030000D01*
X159486939Y-88030000D01*
X159686898Y-87990226D01*
X159875256Y-87912205D01*
X160044774Y-87798937D01*
X160188937Y-87654774D01*
X160302205Y-87485256D01*
X160380226Y-87296898D01*
X160420000Y-87096939D01*
X160420000Y-86893061D01*
X160380226Y-86693102D01*
X160302205Y-86504744D01*
X160188937Y-86335226D01*
X160145000Y-86291289D01*
X160145000Y-82618711D01*
X160188937Y-82574774D01*
X160302205Y-82405256D01*
X160380226Y-82216898D01*
X160420000Y-82016939D01*
X160420000Y-81813061D01*
X160380226Y-81613102D01*
X160302205Y-81424744D01*
X160188937Y-81255226D01*
X160044774Y-81111063D01*
X159875256Y-80997795D01*
X159686898Y-80919774D01*
X159486939Y-80880000D01*
X159318072Y-80880000D01*
X159318072Y-79845000D01*
X159305812Y-79720518D01*
X159269502Y-79600820D01*
X159210537Y-79490506D01*
X159131185Y-79393815D01*
X159034494Y-79314463D01*
X158924180Y-79255498D01*
X158804482Y-79219188D01*
X158680000Y-79206928D01*
X156280000Y-79206928D01*
X156155518Y-79219188D01*
X156035820Y-79255498D01*
X155925506Y-79314463D01*
X155828815Y-79393815D01*
X155749463Y-79490506D01*
X155690498Y-79600820D01*
X155654188Y-79720518D01*
X155641928Y-79845000D01*
X155641928Y-81445000D01*
X155654188Y-81569482D01*
X155690498Y-81689180D01*
X155749463Y-81799494D01*
X155828815Y-81896185D01*
X155925506Y-81975537D01*
X156035820Y-82034502D01*
X156155518Y-82070812D01*
X156173482Y-82072581D01*
X156060392Y-82165392D01*
X155881068Y-82383899D01*
X155747818Y-82633192D01*
X155665764Y-82903691D01*
X155638057Y-83185000D01*
X141155491Y-83185000D01*
X141138937Y-83160226D01*
X140994774Y-83016063D01*
X140825256Y-82902795D01*
X140636898Y-82824774D01*
X140436939Y-82785000D01*
X140233061Y-82785000D01*
X140033102Y-82824774D01*
X139844744Y-82902795D01*
X139675226Y-83016063D01*
X139531063Y-83160226D01*
X139417795Y-83329744D01*
X139396188Y-83381907D01*
X139366898Y-83369774D01*
X139166939Y-83330000D01*
X138963061Y-83330000D01*
X138763102Y-83369774D01*
X138574744Y-83447795D01*
X138405226Y-83561063D01*
X138261063Y-83705226D01*
X138147795Y-83874744D01*
X138069774Y-84063102D01*
X138030000Y-84263061D01*
X138030000Y-84466939D01*
X138069774Y-84666898D01*
X138147795Y-84855256D01*
X138261063Y-85024774D01*
X138305000Y-85068711D01*
X138305001Y-86322668D01*
X138301324Y-86360000D01*
X138305001Y-86397333D01*
X138308711Y-86435003D01*
X138148691Y-86450764D01*
X137878192Y-86532818D01*
X137628899Y-86666068D01*
X137410392Y-86845393D01*
X137231068Y-87063900D01*
X137160000Y-87196858D01*
X137088932Y-87063899D01*
X136909607Y-86845392D01*
X136691100Y-86666068D01*
X136441807Y-86532818D01*
X136171308Y-86450764D01*
X135890000Y-86423057D01*
X135608691Y-86450764D01*
X135338192Y-86532818D01*
X135088899Y-86666068D01*
X134870392Y-86845393D01*
X134691068Y-87063900D01*
X134620000Y-87196858D01*
X134548932Y-87063899D01*
X134369607Y-86845392D01*
X134151100Y-86666068D01*
X133901807Y-86532818D01*
X133631308Y-86450764D01*
X133350000Y-86423057D01*
X133068691Y-86450764D01*
X132798192Y-86532818D01*
X132548899Y-86666068D01*
X132330392Y-86845393D01*
X132151068Y-87063900D01*
X132080000Y-87196858D01*
X132008932Y-87063899D01*
X131829607Y-86845392D01*
X131611100Y-86666068D01*
X131361807Y-86532818D01*
X131336034Y-86525000D01*
X131586335Y-86525000D01*
X131863574Y-86469853D01*
X132124727Y-86361680D01*
X132359759Y-86204637D01*
X132559637Y-86004759D01*
X132716680Y-85769727D01*
X132824853Y-85508574D01*
X132880000Y-85231335D01*
X132880000Y-84948665D01*
X133185000Y-84948665D01*
X133185000Y-85231335D01*
X133240147Y-85508574D01*
X133348320Y-85769727D01*
X133505363Y-86004759D01*
X133705241Y-86204637D01*
X133940273Y-86361680D01*
X134201426Y-86469853D01*
X134478665Y-86525000D01*
X134761335Y-86525000D01*
X135038574Y-86469853D01*
X135299727Y-86361680D01*
X135534759Y-86204637D01*
X135734637Y-86004759D01*
X135891680Y-85769727D01*
X135999853Y-85508574D01*
X136055000Y-85231335D01*
X136055000Y-84948665D01*
X135999853Y-84671426D01*
X135891680Y-84410273D01*
X135734637Y-84175241D01*
X135534759Y-83975363D01*
X135299727Y-83818320D01*
X135038574Y-83710147D01*
X134761335Y-83655000D01*
X134478665Y-83655000D01*
X134201426Y-83710147D01*
X133940273Y-83818320D01*
X133705241Y-83975363D01*
X133505363Y-84175241D01*
X133348320Y-84410273D01*
X133240147Y-84671426D01*
X133185000Y-84948665D01*
X132880000Y-84948665D01*
X132824853Y-84671426D01*
X132716680Y-84410273D01*
X132559637Y-84175241D01*
X132359759Y-83975363D01*
X132124727Y-83818320D01*
X131863574Y-83710147D01*
X131586335Y-83655000D01*
X131303665Y-83655000D01*
X131026426Y-83710147D01*
X130765273Y-83818320D01*
X130530241Y-83975363D01*
X130330363Y-84175241D01*
X130173320Y-84410273D01*
X130065147Y-84671426D01*
X130010000Y-84948665D01*
X130010000Y-85231335D01*
X130065147Y-85508574D01*
X130173320Y-85769727D01*
X130330363Y-86004759D01*
X130530241Y-86204637D01*
X130765273Y-86361680D01*
X130945723Y-86436425D01*
X130810000Y-86423057D01*
X130528691Y-86450764D01*
X130258192Y-86532818D01*
X130008899Y-86666068D01*
X129790392Y-86845393D01*
X129611068Y-87063900D01*
X129540000Y-87196858D01*
X129468932Y-87063899D01*
X129289607Y-86845392D01*
X129071100Y-86666068D01*
X128821807Y-86532818D01*
X128551308Y-86450764D01*
X128270000Y-86423057D01*
X127988691Y-86450764D01*
X127718192Y-86532818D01*
X127468899Y-86666068D01*
X127250392Y-86845393D01*
X127071068Y-87063900D01*
X127000000Y-87196858D01*
X126928932Y-87063899D01*
X126749607Y-86845392D01*
X126531100Y-86666068D01*
X126281807Y-86532818D01*
X126011308Y-86450764D01*
X125730000Y-86423057D01*
X125448691Y-86450764D01*
X125178192Y-86532818D01*
X124928899Y-86666068D01*
X124710392Y-86845393D01*
X124531068Y-87063900D01*
X124462735Y-87191742D01*
X124312601Y-86962161D01*
X124114895Y-86760500D01*
X123881646Y-86601285D01*
X123702517Y-86525000D01*
X123966335Y-86525000D01*
X124243574Y-86469853D01*
X124504727Y-86361680D01*
X124739759Y-86204637D01*
X124939637Y-86004759D01*
X125096680Y-85769727D01*
X125204853Y-85508574D01*
X125260000Y-85231335D01*
X125260000Y-84948665D01*
X125204853Y-84671426D01*
X125096680Y-84410273D01*
X124939637Y-84175241D01*
X124739759Y-83975363D01*
X124504727Y-83818320D01*
X124243574Y-83710147D01*
X123966335Y-83655000D01*
X123683665Y-83655000D01*
X123406426Y-83710147D01*
X123145273Y-83818320D01*
X122910241Y-83975363D01*
X122710363Y-84175241D01*
X122553320Y-84410273D01*
X122445147Y-84671426D01*
X122390000Y-84948665D01*
X120124463Y-84948665D01*
X120171300Y-84761816D01*
X120185217Y-84479488D01*
X120143787Y-84199870D01*
X120048603Y-83933708D01*
X119983384Y-83811691D01*
X119996185Y-83801185D01*
X120075537Y-83704494D01*
X120134502Y-83594180D01*
X120170812Y-83474482D01*
X120180561Y-83375500D01*
X125102497Y-83375500D01*
X125239744Y-83467205D01*
X125428102Y-83545226D01*
X125628061Y-83585000D01*
X125831939Y-83585000D01*
X126031898Y-83545226D01*
X126220256Y-83467205D01*
X126389774Y-83353937D01*
X126533937Y-83209774D01*
X126647205Y-83040256D01*
X126725226Y-82851898D01*
X126765000Y-82651939D01*
X126765000Y-82448061D01*
X126725226Y-82248102D01*
X126647205Y-82059744D01*
X126533937Y-81890226D01*
X126389774Y-81746063D01*
X126220256Y-81632795D01*
X126031898Y-81554774D01*
X125929233Y-81534353D01*
X125957168Y-81466912D01*
X126020000Y-81151033D01*
X126020000Y-80828967D01*
X129250000Y-80828967D01*
X129250000Y-81151033D01*
X129312832Y-81466912D01*
X129436082Y-81764463D01*
X129615013Y-82032252D01*
X129842748Y-82259987D01*
X130110537Y-82438918D01*
X130408088Y-82562168D01*
X130723967Y-82625000D01*
X131046033Y-82625000D01*
X131361912Y-82562168D01*
X131659463Y-82438918D01*
X131927252Y-82259987D01*
X132154987Y-82032252D01*
X132333918Y-81764463D01*
X132457168Y-81466912D01*
X132520000Y-81151033D01*
X132520000Y-80828967D01*
X132457168Y-80513088D01*
X132333918Y-80215537D01*
X132154987Y-79947748D01*
X131927252Y-79720013D01*
X131659463Y-79541082D01*
X131361912Y-79417832D01*
X131046033Y-79355000D01*
X130723967Y-79355000D01*
X130408088Y-79417832D01*
X130110537Y-79541082D01*
X129842748Y-79720013D01*
X129615013Y-79947748D01*
X129436082Y-80215537D01*
X129312832Y-80513088D01*
X129250000Y-80828967D01*
X126020000Y-80828967D01*
X125957168Y-80513088D01*
X125833918Y-80215537D01*
X125654987Y-79947748D01*
X125427252Y-79720013D01*
X125159463Y-79541082D01*
X124861912Y-79417832D01*
X124546033Y-79355000D01*
X124223967Y-79355000D01*
X123908088Y-79417832D01*
X123610537Y-79541082D01*
X123342748Y-79720013D01*
X123115013Y-79947748D01*
X122936082Y-80215537D01*
X122812832Y-80513088D01*
X122750000Y-80828967D01*
X122750000Y-81151033D01*
X122812832Y-81466912D01*
X122919529Y-81724500D01*
X120180561Y-81724500D01*
X120170812Y-81625518D01*
X120134502Y-81505820D01*
X120075537Y-81395506D01*
X119996185Y-81298815D01*
X119899494Y-81219463D01*
X119789180Y-81160498D01*
X119669482Y-81124188D01*
X119545000Y-81111928D01*
X117945000Y-81111928D01*
X117820518Y-81124188D01*
X117700820Y-81160498D01*
X117590506Y-81219463D01*
X117493815Y-81298815D01*
X117414463Y-81395506D01*
X117355498Y-81505820D01*
X117319188Y-81625518D01*
X117306928Y-81750000D01*
X117306928Y-83350000D01*
X117319188Y-83474482D01*
X117355498Y-83594180D01*
X117414463Y-83704494D01*
X117493815Y-83801185D01*
X117506758Y-83811807D01*
X117387429Y-84063996D01*
X117318700Y-84338184D01*
X117304783Y-84620512D01*
X115595000Y-84620512D01*
X115595000Y-77502279D01*
X115622668Y-77220099D01*
X116360000Y-77220099D01*
X116360000Y-77689903D01*
X116451654Y-78150680D01*
X116631440Y-78584722D01*
X116892450Y-78975350D01*
X117224651Y-79307551D01*
X117615279Y-79568561D01*
X118049321Y-79748347D01*
X118510098Y-79840001D01*
X118979902Y-79840001D01*
X119440679Y-79748347D01*
X119874721Y-79568561D01*
X120265349Y-79307551D01*
X120426500Y-79146400D01*
X137563328Y-79146400D01*
X137563328Y-80873600D01*
X137575588Y-80998082D01*
X137611898Y-81117780D01*
X137670863Y-81228094D01*
X137750215Y-81324785D01*
X137846906Y-81404137D01*
X137957220Y-81463102D01*
X138076918Y-81499412D01*
X138201400Y-81511672D01*
X139928600Y-81511672D01*
X140053082Y-81499412D01*
X140172780Y-81463102D01*
X140283094Y-81404137D01*
X140379785Y-81324785D01*
X140459137Y-81228094D01*
X140518102Y-81117780D01*
X140535636Y-81059977D01*
X140649698Y-81174039D01*
X140895147Y-81338042D01*
X141167875Y-81451010D01*
X141457401Y-81508600D01*
X141752599Y-81508600D01*
X142042125Y-81451010D01*
X142314853Y-81338042D01*
X142560302Y-81174039D01*
X142769039Y-80965302D01*
X142875000Y-80806719D01*
X142980961Y-80965302D01*
X143189698Y-81174039D01*
X143435147Y-81338042D01*
X143707875Y-81451010D01*
X143997401Y-81508600D01*
X144292599Y-81508600D01*
X144582125Y-81451010D01*
X144854853Y-81338042D01*
X145100302Y-81174039D01*
X145309039Y-80965302D01*
X145415000Y-80806719D01*
X145520961Y-80965302D01*
X145729698Y-81174039D01*
X145975147Y-81338042D01*
X146247875Y-81451010D01*
X146537401Y-81508600D01*
X146832599Y-81508600D01*
X147122125Y-81451010D01*
X147394853Y-81338042D01*
X147640302Y-81174039D01*
X147849039Y-80965302D01*
X147955000Y-80806719D01*
X148060961Y-80965302D01*
X148269698Y-81174039D01*
X148515147Y-81338042D01*
X148787875Y-81451010D01*
X149077401Y-81508600D01*
X149372599Y-81508600D01*
X149662125Y-81451010D01*
X149934853Y-81338042D01*
X150180302Y-81174039D01*
X150389039Y-80965302D01*
X150553042Y-80719853D01*
X150666010Y-80447125D01*
X150723600Y-80157599D01*
X150723600Y-79862401D01*
X150666010Y-79572875D01*
X150553042Y-79300147D01*
X150389039Y-79054698D01*
X150180302Y-78845961D01*
X150021719Y-78740000D01*
X150180302Y-78634039D01*
X150389039Y-78425302D01*
X150553042Y-78179853D01*
X150666010Y-77907125D01*
X150681808Y-77827702D01*
X158016903Y-77827702D01*
X158088486Y-78071671D01*
X158343996Y-78192571D01*
X158618184Y-78261300D01*
X158900512Y-78275217D01*
X159180130Y-78233787D01*
X159446292Y-78138603D01*
X159571514Y-78071671D01*
X159643097Y-77827702D01*
X158830000Y-77014605D01*
X158016903Y-77827702D01*
X150681808Y-77827702D01*
X150723600Y-77617599D01*
X150723600Y-77322401D01*
X150666010Y-77032875D01*
X150613255Y-76905512D01*
X157389783Y-76905512D01*
X157431213Y-77185130D01*
X157526397Y-77451292D01*
X157593329Y-77576514D01*
X157837298Y-77648097D01*
X158650395Y-76835000D01*
X159009605Y-76835000D01*
X159822702Y-77648097D01*
X160066671Y-77576514D01*
X160187571Y-77321004D01*
X160256300Y-77046816D01*
X160270217Y-76764488D01*
X160259724Y-76693665D01*
X162395000Y-76693665D01*
X162395000Y-76976335D01*
X162450147Y-77253574D01*
X162558320Y-77514727D01*
X162715363Y-77749759D01*
X162915241Y-77949637D01*
X163150273Y-78106680D01*
X163411426Y-78214853D01*
X163688665Y-78270000D01*
X163971335Y-78270000D01*
X164076624Y-78249056D01*
X164274501Y-78446934D01*
X164274501Y-79274503D01*
X164148192Y-79312818D01*
X163898899Y-79446068D01*
X163680392Y-79625392D01*
X163501068Y-79843899D01*
X163367818Y-80093192D01*
X163285764Y-80363691D01*
X163258057Y-80645000D01*
X163285764Y-80926309D01*
X163367818Y-81196808D01*
X163501068Y-81446101D01*
X163680392Y-81664608D01*
X163898899Y-81843932D01*
X164031858Y-81915000D01*
X163898899Y-81986068D01*
X163680392Y-82165392D01*
X163501068Y-82383899D01*
X163367818Y-82633192D01*
X163285764Y-82903691D01*
X163258057Y-83185000D01*
X163285764Y-83466309D01*
X163367818Y-83736808D01*
X163501068Y-83986101D01*
X163680392Y-84204608D01*
X163898899Y-84383932D01*
X164031858Y-84455000D01*
X163898899Y-84526068D01*
X163680392Y-84705392D01*
X163501068Y-84923899D01*
X163367818Y-85173192D01*
X163285764Y-85443691D01*
X163258057Y-85725000D01*
X163285764Y-86006309D01*
X163367818Y-86276808D01*
X163501068Y-86526101D01*
X163680392Y-86744608D01*
X163898899Y-86923932D01*
X164031858Y-86995000D01*
X163898899Y-87066068D01*
X163680392Y-87245392D01*
X163501068Y-87463899D01*
X163367818Y-87713192D01*
X163285764Y-87983691D01*
X163258057Y-88265000D01*
X163285764Y-88546309D01*
X163367818Y-88816808D01*
X163501068Y-89066101D01*
X163680392Y-89284608D01*
X163898899Y-89463932D01*
X164026741Y-89532265D01*
X163797161Y-89682399D01*
X163595500Y-89880105D01*
X163436285Y-90113354D01*
X163325633Y-90373182D01*
X163308096Y-90455961D01*
X163430085Y-90678000D01*
X164973000Y-90678000D01*
X164973000Y-90658000D01*
X165227000Y-90658000D01*
X165227000Y-90678000D01*
X166769915Y-90678000D01*
X166891904Y-90455961D01*
X166874367Y-90373182D01*
X166763715Y-90113354D01*
X166604500Y-89880105D01*
X166402839Y-89682399D01*
X166173259Y-89532265D01*
X166301101Y-89463932D01*
X166519608Y-89284608D01*
X166698932Y-89066101D01*
X166832182Y-88816808D01*
X166914236Y-88546309D01*
X166941943Y-88265000D01*
X166914236Y-87983691D01*
X166832182Y-87713192D01*
X166698932Y-87463899D01*
X166519608Y-87245392D01*
X166301101Y-87066068D01*
X166168142Y-86995000D01*
X166185892Y-86985512D01*
X170009783Y-86985512D01*
X170051213Y-87265130D01*
X170146397Y-87531292D01*
X170213329Y-87656514D01*
X170457298Y-87728097D01*
X171270395Y-86915000D01*
X170457298Y-86101903D01*
X170213329Y-86173486D01*
X170092429Y-86428996D01*
X170023700Y-86703184D01*
X170009783Y-86985512D01*
X166185892Y-86985512D01*
X166301101Y-86923932D01*
X166519608Y-86744608D01*
X166698932Y-86526101D01*
X166832182Y-86276808D01*
X166914236Y-86006309D01*
X166922510Y-85922298D01*
X170636903Y-85922298D01*
X171450000Y-86735395D01*
X172263097Y-85922298D01*
X172191514Y-85678329D01*
X171936004Y-85557429D01*
X171661816Y-85488700D01*
X171379488Y-85474783D01*
X171099870Y-85516213D01*
X170833708Y-85611397D01*
X170708486Y-85678329D01*
X170636903Y-85922298D01*
X166922510Y-85922298D01*
X166941943Y-85725000D01*
X166918797Y-85490000D01*
X167106939Y-85490000D01*
X167306898Y-85450226D01*
X167495256Y-85372205D01*
X167664774Y-85258937D01*
X167808937Y-85114774D01*
X167922205Y-84945256D01*
X168000226Y-84756898D01*
X168040000Y-84556939D01*
X168040000Y-84353061D01*
X168000226Y-84153102D01*
X167922205Y-83964744D01*
X167830500Y-83827497D01*
X167830500Y-83284114D01*
X167856426Y-83294853D01*
X168133665Y-83350000D01*
X168416335Y-83350000D01*
X168693574Y-83294853D01*
X168954727Y-83186680D01*
X169189759Y-83029637D01*
X169389637Y-82829759D01*
X169546680Y-82594727D01*
X169654853Y-82333574D01*
X169710000Y-82056335D01*
X169710000Y-81773665D01*
X169654853Y-81496426D01*
X169546680Y-81235273D01*
X169389637Y-81000241D01*
X169189759Y-80800363D01*
X168954727Y-80643320D01*
X168693574Y-80535147D01*
X168416335Y-80480000D01*
X168133665Y-80480000D01*
X167856426Y-80535147D01*
X167595273Y-80643320D01*
X167360241Y-80800363D01*
X167160363Y-81000241D01*
X167003320Y-81235273D01*
X166960671Y-81338237D01*
X166827674Y-81205241D01*
X166832182Y-81196808D01*
X166914236Y-80926309D01*
X166941943Y-80645000D01*
X166914236Y-80363691D01*
X166832182Y-80093192D01*
X166698932Y-79843899D01*
X166519608Y-79625392D01*
X166301101Y-79446068D01*
X166051808Y-79312818D01*
X165925500Y-79274503D01*
X165925500Y-78145550D01*
X165929494Y-78104999D01*
X165924133Y-78050568D01*
X165913556Y-77943174D01*
X165866353Y-77787566D01*
X165816399Y-77694111D01*
X165789699Y-77644157D01*
X165712391Y-77549958D01*
X165686541Y-77518459D01*
X165655039Y-77492606D01*
X165397531Y-77235098D01*
X167160000Y-77235098D01*
X167160000Y-77704902D01*
X167251654Y-78165679D01*
X167431440Y-78599721D01*
X167692450Y-78990349D01*
X168024651Y-79322550D01*
X168415279Y-79583560D01*
X168849321Y-79763346D01*
X169310098Y-79855000D01*
X169779902Y-79855000D01*
X170240679Y-79763346D01*
X170674721Y-79583560D01*
X171065349Y-79322550D01*
X171397550Y-78990349D01*
X171658560Y-78599721D01*
X171838346Y-78165679D01*
X171930000Y-77704902D01*
X171930000Y-77235098D01*
X171838346Y-76774321D01*
X171658560Y-76340279D01*
X171397550Y-75949651D01*
X171065349Y-75617450D01*
X170674721Y-75356440D01*
X170240679Y-75176654D01*
X169779902Y-75085000D01*
X169310098Y-75085000D01*
X168849321Y-75176654D01*
X168415279Y-75356440D01*
X168024651Y-75617450D01*
X167692450Y-75949651D01*
X167431440Y-76340279D01*
X167251654Y-76774321D01*
X167160000Y-77235098D01*
X165397531Y-77235098D01*
X165244056Y-77081624D01*
X165265000Y-76976335D01*
X165265000Y-76693665D01*
X165209853Y-76416426D01*
X165101680Y-76155273D01*
X164944637Y-75920241D01*
X164744759Y-75720363D01*
X164509727Y-75563320D01*
X164248574Y-75455147D01*
X163971335Y-75400000D01*
X163688665Y-75400000D01*
X163411426Y-75455147D01*
X163150273Y-75563320D01*
X162915241Y-75720363D01*
X162715363Y-75920241D01*
X162558320Y-76155273D01*
X162450147Y-76416426D01*
X162395000Y-76693665D01*
X160259724Y-76693665D01*
X160228787Y-76484870D01*
X160133603Y-76218708D01*
X160066671Y-76093486D01*
X159822702Y-76021903D01*
X159009605Y-76835000D01*
X158650395Y-76835000D01*
X157837298Y-76021903D01*
X157593329Y-76093486D01*
X157472429Y-76348996D01*
X157403700Y-76623184D01*
X157389783Y-76905512D01*
X150613255Y-76905512D01*
X150553042Y-76760147D01*
X150389039Y-76514698D01*
X150180302Y-76305961D01*
X149934853Y-76141958D01*
X149662125Y-76028990D01*
X149372599Y-75971400D01*
X149077401Y-75971400D01*
X148787875Y-76028990D01*
X148515147Y-76141958D01*
X148269698Y-76305961D01*
X148060961Y-76514698D01*
X147955000Y-76673281D01*
X147849039Y-76514698D01*
X147640302Y-76305961D01*
X147394853Y-76141958D01*
X147122125Y-76028990D01*
X146832599Y-75971400D01*
X146537401Y-75971400D01*
X146247875Y-76028990D01*
X145975147Y-76141958D01*
X145729698Y-76305961D01*
X145520961Y-76514698D01*
X145410441Y-76680103D01*
X145351817Y-76581512D01*
X145155293Y-76363146D01*
X144919944Y-76187316D01*
X144654814Y-76060778D01*
X144504026Y-76015042D01*
X144272000Y-76136183D01*
X144272000Y-77343000D01*
X144292000Y-77343000D01*
X144292000Y-77597000D01*
X144272000Y-77597000D01*
X144272000Y-77617000D01*
X144018000Y-77617000D01*
X144018000Y-77597000D01*
X143998000Y-77597000D01*
X143998000Y-77343000D01*
X144018000Y-77343000D01*
X144018000Y-76136183D01*
X143785974Y-76015042D01*
X143635186Y-76060778D01*
X143370056Y-76187316D01*
X143134707Y-76363146D01*
X142938183Y-76581512D01*
X142879559Y-76680103D01*
X142769039Y-76514698D01*
X142560302Y-76305961D01*
X142314853Y-76141958D01*
X142042125Y-76028990D01*
X141752599Y-75971400D01*
X141457401Y-75971400D01*
X141167875Y-76028990D01*
X140895147Y-76141958D01*
X140649698Y-76305961D01*
X140440961Y-76514698D01*
X140335000Y-76673281D01*
X140229039Y-76514698D01*
X140020302Y-76305961D01*
X139774853Y-76141958D01*
X139502125Y-76028990D01*
X139212599Y-75971400D01*
X138917401Y-75971400D01*
X138627875Y-76028990D01*
X138355147Y-76141958D01*
X138109698Y-76305961D01*
X137900961Y-76514698D01*
X137736958Y-76760147D01*
X137623990Y-77032875D01*
X137566400Y-77322401D01*
X137566400Y-77617599D01*
X137623990Y-77907125D01*
X137736958Y-78179853D01*
X137900961Y-78425302D01*
X138015023Y-78539364D01*
X137957220Y-78556898D01*
X137846906Y-78615863D01*
X137750215Y-78695215D01*
X137670863Y-78791906D01*
X137611898Y-78902220D01*
X137575588Y-79021918D01*
X137563328Y-79146400D01*
X120426500Y-79146400D01*
X120597550Y-78975350D01*
X120858560Y-78584722D01*
X121038346Y-78150680D01*
X121130000Y-77689903D01*
X121130000Y-77625413D01*
X123429192Y-77625413D01*
X123524956Y-77889814D01*
X123814571Y-78030704D01*
X124126108Y-78112384D01*
X124447595Y-78131718D01*
X124766675Y-78087961D01*
X125071088Y-77982795D01*
X125245044Y-77889814D01*
X125340808Y-77625413D01*
X129929192Y-77625413D01*
X130024956Y-77889814D01*
X130314571Y-78030704D01*
X130626108Y-78112384D01*
X130947595Y-78131718D01*
X131266675Y-78087961D01*
X131571088Y-77982795D01*
X131745044Y-77889814D01*
X131840808Y-77625413D01*
X130885000Y-76669605D01*
X129929192Y-77625413D01*
X125340808Y-77625413D01*
X124385000Y-76669605D01*
X123429192Y-77625413D01*
X121130000Y-77625413D01*
X121130000Y-77220099D01*
X121038346Y-76759322D01*
X120952717Y-76552595D01*
X122743282Y-76552595D01*
X122787039Y-76871675D01*
X122892205Y-77176088D01*
X122985186Y-77350044D01*
X123249587Y-77445808D01*
X124205395Y-76490000D01*
X124564605Y-76490000D01*
X125520413Y-77445808D01*
X125784814Y-77350044D01*
X125925704Y-77060429D01*
X126007384Y-76748892D01*
X126019189Y-76552595D01*
X129243282Y-76552595D01*
X129287039Y-76871675D01*
X129392205Y-77176088D01*
X129485186Y-77350044D01*
X129749587Y-77445808D01*
X130705395Y-76490000D01*
X131064605Y-76490000D01*
X132020413Y-77445808D01*
X132284814Y-77350044D01*
X132425704Y-77060429D01*
X132507384Y-76748892D01*
X132526718Y-76427405D01*
X132482961Y-76108325D01*
X132391057Y-75842298D01*
X158016903Y-75842298D01*
X158830000Y-76655395D01*
X159643097Y-75842298D01*
X159571514Y-75598329D01*
X159316004Y-75477429D01*
X159041816Y-75408700D01*
X158759488Y-75394783D01*
X158479870Y-75436213D01*
X158213708Y-75531397D01*
X158088486Y-75598329D01*
X158016903Y-75842298D01*
X132391057Y-75842298D01*
X132377795Y-75803912D01*
X132284814Y-75629956D01*
X132020413Y-75534192D01*
X131064605Y-76490000D01*
X130705395Y-76490000D01*
X129749587Y-75534192D01*
X129485186Y-75629956D01*
X129344296Y-75919571D01*
X129262616Y-76231108D01*
X129243282Y-76552595D01*
X126019189Y-76552595D01*
X126026718Y-76427405D01*
X125982961Y-76108325D01*
X125877795Y-75803912D01*
X125784814Y-75629956D01*
X125520413Y-75534192D01*
X124564605Y-76490000D01*
X124205395Y-76490000D01*
X123249587Y-75534192D01*
X122985186Y-75629956D01*
X122844296Y-75919571D01*
X122762616Y-76231108D01*
X122743282Y-76552595D01*
X120952717Y-76552595D01*
X120858560Y-76325280D01*
X120597550Y-75934652D01*
X120265349Y-75602451D01*
X119894396Y-75354587D01*
X123429192Y-75354587D01*
X124385000Y-76310395D01*
X125340808Y-75354587D01*
X129929192Y-75354587D01*
X130885000Y-76310395D01*
X131840808Y-75354587D01*
X131745044Y-75090186D01*
X131455429Y-74949296D01*
X131143892Y-74867616D01*
X130822405Y-74848282D01*
X130503325Y-74892039D01*
X130198912Y-74997205D01*
X130024956Y-75090186D01*
X129929192Y-75354587D01*
X125340808Y-75354587D01*
X125245044Y-75090186D01*
X124955429Y-74949296D01*
X124643892Y-74867616D01*
X124322405Y-74848282D01*
X124003325Y-74892039D01*
X123698912Y-74997205D01*
X123524956Y-75090186D01*
X123429192Y-75354587D01*
X119894396Y-75354587D01*
X119874721Y-75341441D01*
X119440679Y-75161655D01*
X118979902Y-75070001D01*
X118510098Y-75070001D01*
X118049321Y-75161655D01*
X117615279Y-75341441D01*
X117224651Y-75602451D01*
X116892450Y-75934652D01*
X116631440Y-76325280D01*
X116451654Y-76759322D01*
X116360000Y-77220099D01*
X115622668Y-77220099D01*
X115658096Y-76858778D01*
X115835606Y-76270836D01*
X116123937Y-75728564D01*
X116512094Y-75252636D01*
X116985314Y-74861155D01*
X117525552Y-74569049D01*
X118112244Y-74387437D01*
X118753879Y-74320000D01*
X169512721Y-74320000D01*
X170156222Y-74383096D01*
G37*
G04 #@! TD.AperFunction*
M02*
