G04 #@! TF.GenerationSoftware,KiCad,Pcbnew,(5.1.8)-1*
G04 #@! TF.CreationDate,2022-04-27T21:38:40+02:00*
G04 #@! TF.ProjectId,Amiga CD32,416d6967-6120-4434-9433-322e6b696361,rev?*
G04 #@! TF.SameCoordinates,Original*
G04 #@! TF.FileFunction,Legend,Top*
G04 #@! TF.FilePolarity,Positive*
%FSLAX46Y46*%
G04 Gerber Fmt 4.6, Leading zero omitted, Abs format (unit mm)*
G04 Created by KiCad (PCBNEW (5.1.8)-1) date 2022-04-27 21:38:40*
%MOMM*%
%LPD*%
G01*
G04 APERTURE LIST*
%ADD10C,0.120000*%
%ADD11C,0.150000*%
%ADD12C,0.100000*%
G04 APERTURE END LIST*
D10*
X157258000Y-98325000D02*
X157258000Y-101065000D01*
X157258000Y-101065000D02*
X163798000Y-101065000D01*
X163798000Y-101065000D02*
X163798000Y-98325000D01*
X163798000Y-98325000D02*
X157258000Y-98325000D01*
X156488000Y-99695000D02*
X157258000Y-99695000D01*
X164568000Y-99695000D02*
X163798000Y-99695000D01*
X150590000Y-101065000D02*
X150590000Y-98325000D01*
X150590000Y-98325000D02*
X144050000Y-98325000D01*
X144050000Y-98325000D02*
X144050000Y-101065000D01*
X144050000Y-101065000D02*
X150590000Y-101065000D01*
X151360000Y-99695000D02*
X150590000Y-99695000D01*
X143280000Y-99695000D02*
X144050000Y-99695000D01*
X124365000Y-83720000D02*
X124365000Y-84050000D01*
X130905000Y-83720000D02*
X124365000Y-83720000D01*
X130905000Y-84050000D02*
X130905000Y-83720000D01*
X124365000Y-86460000D02*
X124365000Y-86130000D01*
X130905000Y-86460000D02*
X124365000Y-86460000D01*
X130905000Y-86130000D02*
X130905000Y-86460000D01*
X147420000Y-89440000D02*
X147090000Y-89440000D01*
X147420000Y-95980000D02*
X147420000Y-89440000D01*
X147090000Y-95980000D02*
X147420000Y-95980000D01*
X144680000Y-89440000D02*
X145010000Y-89440000D01*
X144680000Y-95980000D02*
X144680000Y-89440000D01*
X145010000Y-95980000D02*
X144680000Y-95980000D01*
X145955000Y-83720000D02*
X145955000Y-84050000D01*
X152495000Y-83720000D02*
X145955000Y-83720000D01*
X152495000Y-84050000D02*
X152495000Y-83720000D01*
X145955000Y-86460000D02*
X145955000Y-86130000D01*
X152495000Y-86460000D02*
X145955000Y-86460000D01*
X152495000Y-86130000D02*
X152495000Y-86460000D01*
X152300000Y-95980000D02*
X152630000Y-95980000D01*
X152300000Y-89440000D02*
X152300000Y-95980000D01*
X152630000Y-89440000D02*
X152300000Y-89440000D01*
X155040000Y-95980000D02*
X154710000Y-95980000D01*
X155040000Y-89440000D02*
X155040000Y-95980000D01*
X154710000Y-89440000D02*
X155040000Y-89440000D01*
X141700000Y-86460000D02*
X141700000Y-86130000D01*
X135160000Y-86460000D02*
X141700000Y-86460000D01*
X135160000Y-86130000D02*
X135160000Y-86460000D01*
X141700000Y-83720000D02*
X141700000Y-84050000D01*
X135160000Y-83720000D02*
X141700000Y-83720000D01*
X135160000Y-84050000D02*
X135160000Y-83720000D01*
X148490000Y-95980000D02*
X148820000Y-95980000D01*
X148490000Y-89440000D02*
X148490000Y-95980000D01*
X148820000Y-89440000D02*
X148490000Y-89440000D01*
X151230000Y-95980000D02*
X150900000Y-95980000D01*
X151230000Y-89440000D02*
X151230000Y-95980000D01*
X150900000Y-89440000D02*
X151230000Y-89440000D01*
X118650000Y-98325000D02*
X118650000Y-101065000D01*
X118650000Y-101065000D02*
X125190000Y-101065000D01*
X125190000Y-101065000D02*
X125190000Y-98325000D01*
X125190000Y-98325000D02*
X118650000Y-98325000D01*
X117880000Y-99695000D02*
X118650000Y-99695000D01*
X125960000Y-99695000D02*
X125190000Y-99695000D01*
X137890000Y-101065000D02*
X137890000Y-98325000D01*
X137890000Y-98325000D02*
X131350000Y-98325000D01*
X131350000Y-98325000D02*
X131350000Y-101065000D01*
X131350000Y-101065000D02*
X137890000Y-101065000D01*
X138660000Y-99695000D02*
X137890000Y-99695000D01*
X130580000Y-99695000D02*
X131350000Y-99695000D01*
X170080000Y-97885000D02*
X172820000Y-97885000D01*
X172820000Y-97885000D02*
X172820000Y-91345000D01*
X172820000Y-91345000D02*
X170080000Y-91345000D01*
X170080000Y-91345000D02*
X170080000Y-97885000D01*
X171450000Y-98655000D02*
X171450000Y-97885000D01*
X171450000Y-90575000D02*
X171450000Y-91345000D01*
X172820000Y-81945000D02*
X172820000Y-86885000D01*
X170080000Y-81945000D02*
X170080000Y-86885000D01*
X172820000Y-81945000D02*
X172505000Y-81945000D01*
X170395000Y-81945000D02*
X170080000Y-81945000D01*
X172820000Y-86885000D02*
X172505000Y-86885000D01*
X170395000Y-86885000D02*
X170080000Y-86885000D01*
X160290000Y-79315000D02*
X159040000Y-79315000D01*
X159040000Y-79315000D02*
X159040000Y-97215000D01*
X159040000Y-97215000D02*
X163540000Y-97215000D01*
X163540000Y-97215000D02*
X163540000Y-79315000D01*
X163540000Y-79315000D02*
X162290000Y-79315000D01*
X156040000Y-79255000D02*
X156040000Y-97275000D01*
X156040000Y-97275000D02*
X166540000Y-97275000D01*
X166540000Y-97275000D02*
X166540000Y-79255000D01*
X166540000Y-79255000D02*
X156040000Y-79255000D01*
X162290000Y-79315000D02*
G75*
G02*
X160290000Y-79315000I-1000000J0D01*
G01*
X121365000Y-83550000D02*
G75*
G03*
X121365000Y-83550000I-2620000J0D01*
G01*
X117705000Y-83550000D02*
X116165000Y-83550000D01*
X121325000Y-83550000D02*
X119785000Y-83550000D01*
X117705000Y-83590000D02*
X116165000Y-83590000D01*
X121325000Y-83590000D02*
X119785000Y-83590000D01*
X121324000Y-83630000D02*
X119785000Y-83630000D01*
X117705000Y-83630000D02*
X116166000Y-83630000D01*
X121323000Y-83670000D02*
X119785000Y-83670000D01*
X117705000Y-83670000D02*
X116167000Y-83670000D01*
X121321000Y-83710000D02*
X119785000Y-83710000D01*
X117705000Y-83710000D02*
X116169000Y-83710000D01*
X121318000Y-83750000D02*
X119785000Y-83750000D01*
X117705000Y-83750000D02*
X116172000Y-83750000D01*
X121314000Y-83790000D02*
X119785000Y-83790000D01*
X117705000Y-83790000D02*
X116176000Y-83790000D01*
X121310000Y-83830000D02*
X119785000Y-83830000D01*
X117705000Y-83830000D02*
X116180000Y-83830000D01*
X121306000Y-83870000D02*
X119785000Y-83870000D01*
X117705000Y-83870000D02*
X116184000Y-83870000D01*
X121301000Y-83910000D02*
X119785000Y-83910000D01*
X117705000Y-83910000D02*
X116189000Y-83910000D01*
X121295000Y-83950000D02*
X119785000Y-83950000D01*
X117705000Y-83950000D02*
X116195000Y-83950000D01*
X121288000Y-83990000D02*
X119785000Y-83990000D01*
X117705000Y-83990000D02*
X116202000Y-83990000D01*
X121281000Y-84030000D02*
X119785000Y-84030000D01*
X117705000Y-84030000D02*
X116209000Y-84030000D01*
X121273000Y-84070000D02*
X119785000Y-84070000D01*
X117705000Y-84070000D02*
X116217000Y-84070000D01*
X121265000Y-84110000D02*
X119785000Y-84110000D01*
X117705000Y-84110000D02*
X116225000Y-84110000D01*
X121256000Y-84150000D02*
X119785000Y-84150000D01*
X117705000Y-84150000D02*
X116234000Y-84150000D01*
X121246000Y-84190000D02*
X119785000Y-84190000D01*
X117705000Y-84190000D02*
X116244000Y-84190000D01*
X121236000Y-84230000D02*
X119785000Y-84230000D01*
X117705000Y-84230000D02*
X116254000Y-84230000D01*
X121225000Y-84271000D02*
X119785000Y-84271000D01*
X117705000Y-84271000D02*
X116265000Y-84271000D01*
X121213000Y-84311000D02*
X119785000Y-84311000D01*
X117705000Y-84311000D02*
X116277000Y-84311000D01*
X121200000Y-84351000D02*
X119785000Y-84351000D01*
X117705000Y-84351000D02*
X116290000Y-84351000D01*
X121187000Y-84391000D02*
X119785000Y-84391000D01*
X117705000Y-84391000D02*
X116303000Y-84391000D01*
X121173000Y-84431000D02*
X119785000Y-84431000D01*
X117705000Y-84431000D02*
X116317000Y-84431000D01*
X121159000Y-84471000D02*
X119785000Y-84471000D01*
X117705000Y-84471000D02*
X116331000Y-84471000D01*
X121143000Y-84511000D02*
X119785000Y-84511000D01*
X117705000Y-84511000D02*
X116347000Y-84511000D01*
X121127000Y-84551000D02*
X119785000Y-84551000D01*
X117705000Y-84551000D02*
X116363000Y-84551000D01*
X121110000Y-84591000D02*
X119785000Y-84591000D01*
X117705000Y-84591000D02*
X116380000Y-84591000D01*
X121093000Y-84631000D02*
X119785000Y-84631000D01*
X117705000Y-84631000D02*
X116397000Y-84631000D01*
X121074000Y-84671000D02*
X119785000Y-84671000D01*
X117705000Y-84671000D02*
X116416000Y-84671000D01*
X121055000Y-84711000D02*
X119785000Y-84711000D01*
X117705000Y-84711000D02*
X116435000Y-84711000D01*
X121035000Y-84751000D02*
X119785000Y-84751000D01*
X117705000Y-84751000D02*
X116455000Y-84751000D01*
X121013000Y-84791000D02*
X119785000Y-84791000D01*
X117705000Y-84791000D02*
X116477000Y-84791000D01*
X120992000Y-84831000D02*
X119785000Y-84831000D01*
X117705000Y-84831000D02*
X116498000Y-84831000D01*
X120969000Y-84871000D02*
X119785000Y-84871000D01*
X117705000Y-84871000D02*
X116521000Y-84871000D01*
X120945000Y-84911000D02*
X119785000Y-84911000D01*
X117705000Y-84911000D02*
X116545000Y-84911000D01*
X120920000Y-84951000D02*
X119785000Y-84951000D01*
X117705000Y-84951000D02*
X116570000Y-84951000D01*
X120894000Y-84991000D02*
X119785000Y-84991000D01*
X117705000Y-84991000D02*
X116596000Y-84991000D01*
X120867000Y-85031000D02*
X119785000Y-85031000D01*
X117705000Y-85031000D02*
X116623000Y-85031000D01*
X120840000Y-85071000D02*
X119785000Y-85071000D01*
X117705000Y-85071000D02*
X116650000Y-85071000D01*
X120810000Y-85111000D02*
X119785000Y-85111000D01*
X117705000Y-85111000D02*
X116680000Y-85111000D01*
X120780000Y-85151000D02*
X119785000Y-85151000D01*
X117705000Y-85151000D02*
X116710000Y-85151000D01*
X120749000Y-85191000D02*
X119785000Y-85191000D01*
X117705000Y-85191000D02*
X116741000Y-85191000D01*
X120716000Y-85231000D02*
X119785000Y-85231000D01*
X117705000Y-85231000D02*
X116774000Y-85231000D01*
X120682000Y-85271000D02*
X119785000Y-85271000D01*
X117705000Y-85271000D02*
X116808000Y-85271000D01*
X120646000Y-85311000D02*
X119785000Y-85311000D01*
X117705000Y-85311000D02*
X116844000Y-85311000D01*
X120609000Y-85351000D02*
X119785000Y-85351000D01*
X117705000Y-85351000D02*
X116881000Y-85351000D01*
X120571000Y-85391000D02*
X119785000Y-85391000D01*
X117705000Y-85391000D02*
X116919000Y-85391000D01*
X120530000Y-85431000D02*
X119785000Y-85431000D01*
X117705000Y-85431000D02*
X116960000Y-85431000D01*
X120488000Y-85471000D02*
X119785000Y-85471000D01*
X117705000Y-85471000D02*
X117002000Y-85471000D01*
X120444000Y-85511000D02*
X119785000Y-85511000D01*
X117705000Y-85511000D02*
X117046000Y-85511000D01*
X120398000Y-85551000D02*
X119785000Y-85551000D01*
X117705000Y-85551000D02*
X117092000Y-85551000D01*
X120350000Y-85591000D02*
X117140000Y-85591000D01*
X120299000Y-85631000D02*
X117191000Y-85631000D01*
X120245000Y-85671000D02*
X117245000Y-85671000D01*
X120188000Y-85711000D02*
X117302000Y-85711000D01*
X120128000Y-85751000D02*
X117362000Y-85751000D01*
X120064000Y-85791000D02*
X117426000Y-85791000D01*
X119996000Y-85831000D02*
X117494000Y-85831000D01*
X119923000Y-85871000D02*
X117567000Y-85871000D01*
X119843000Y-85911000D02*
X117647000Y-85911000D01*
X119756000Y-85951000D02*
X117734000Y-85951000D01*
X119660000Y-85991000D02*
X117830000Y-85991000D01*
X119550000Y-86031000D02*
X117940000Y-86031000D01*
X119422000Y-86071000D02*
X118068000Y-86071000D01*
X119263000Y-86111000D02*
X118227000Y-86111000D01*
X119029000Y-86151000D02*
X118461000Y-86151000D01*
X120220000Y-80745225D02*
X120220000Y-81245225D01*
X120470000Y-80995225D02*
X119970000Y-80995225D01*
X119320000Y-93075000D02*
X119320000Y-94325000D01*
X119320000Y-94325000D02*
X139760000Y-94325000D01*
X139760000Y-94325000D02*
X139760000Y-89825000D01*
X139760000Y-89825000D02*
X119320000Y-89825000D01*
X119320000Y-89825000D02*
X119320000Y-91075000D01*
X119260000Y-97325000D02*
X139820000Y-97325000D01*
X139820000Y-97325000D02*
X139820000Y-86825000D01*
X139820000Y-86825000D02*
X119260000Y-86825000D01*
X119260000Y-86825000D02*
X119260000Y-97325000D01*
X119320000Y-91075000D02*
G75*
G02*
X119320000Y-93075000I0J-1000000D01*
G01*
X169645000Y-94725000D02*
X169645000Y-99665000D01*
X166905000Y-94725000D02*
X166905000Y-99665000D01*
X169645000Y-94725000D02*
X169330000Y-94725000D01*
X167220000Y-94725000D02*
X166905000Y-94725000D01*
X169645000Y-99665000D02*
X169330000Y-99665000D01*
X167220000Y-99665000D02*
X166905000Y-99665000D01*
D11*
X116205000Y-101981000D02*
X120650000Y-101981000D01*
X116205000Y-101981000D02*
X116205000Y-105029000D01*
X120650000Y-105029000D02*
X120650000Y-101981000D01*
X116586000Y-104775000D02*
X116586000Y-105029000D01*
X116586000Y-105029000D02*
X120142000Y-105029000D01*
X120142000Y-104775000D02*
X120142000Y-105029000D01*
D10*
X116420000Y-94505000D02*
X116105000Y-94505000D01*
X118845000Y-94505000D02*
X118530000Y-94505000D01*
X116420000Y-89565000D02*
X116105000Y-89565000D01*
X118845000Y-89565000D02*
X118530000Y-89565000D01*
X116105000Y-89565000D02*
X116105000Y-94505000D01*
X118845000Y-89565000D02*
X118845000Y-94505000D01*
X169745000Y-83575000D02*
X166805000Y-83575000D01*
X166805000Y-83575000D02*
X166805000Y-90415000D01*
X166805000Y-90415000D02*
X169745000Y-90415000D01*
X169745000Y-90415000D02*
X169745000Y-83575000D01*
X168275000Y-82955000D02*
X168275000Y-83575000D01*
X168275000Y-91035000D02*
X168275000Y-90415000D01*
X139378500Y-81895438D02*
X138878500Y-81895438D01*
X138878500Y-81895438D02*
X139128500Y-81462425D01*
X139128500Y-81462425D02*
X139378500Y-81895438D01*
X133465000Y-83665000D02*
X133465000Y-81125000D01*
X133465000Y-83665000D02*
X136005000Y-83665000D01*
X133715000Y-83415000D02*
X133715000Y-74065000D01*
X154575000Y-83415000D02*
X133715000Y-83415000D01*
X154575000Y-74065000D02*
X154575000Y-83415000D01*
X133715000Y-74065000D02*
X154575000Y-74065000D01*
D12*
X154325000Y-83165000D02*
X153765000Y-82615000D01*
X133965000Y-83165000D02*
X134505000Y-82615000D01*
X154325000Y-74315000D02*
X153765000Y-74865000D01*
X133965000Y-74315000D02*
X134505000Y-74865000D01*
X153765000Y-74865000D02*
X153765000Y-82615000D01*
X154325000Y-74315000D02*
X154325000Y-83165000D01*
X134505000Y-74865000D02*
X134505000Y-82615000D01*
X133965000Y-74315000D02*
X133965000Y-83165000D01*
X146395000Y-82615000D02*
X146395000Y-83165000D01*
X141895000Y-82615000D02*
X141895000Y-83165000D01*
X146395000Y-82615000D02*
X153765000Y-82615000D01*
X134505000Y-82615000D02*
X141895000Y-82615000D01*
X133965000Y-83165000D02*
X154325000Y-83165000D01*
X134505000Y-74865000D02*
X153765000Y-74865000D01*
X133965000Y-74315000D02*
X154325000Y-74315000D01*
X145395000Y-102255000D02*
X165755000Y-102255000D01*
X145935000Y-102805000D02*
X165195000Y-102805000D01*
X145395000Y-111105000D02*
X165755000Y-111105000D01*
X145935000Y-110555000D02*
X153325000Y-110555000D01*
X157825000Y-110555000D02*
X165195000Y-110555000D01*
X153325000Y-110555000D02*
X153325000Y-111105000D01*
X157825000Y-110555000D02*
X157825000Y-111105000D01*
X145395000Y-102255000D02*
X145395000Y-111105000D01*
X145935000Y-102805000D02*
X145935000Y-110555000D01*
X165755000Y-102255000D02*
X165755000Y-111105000D01*
X165195000Y-102805000D02*
X165195000Y-110555000D01*
X145395000Y-102255000D02*
X145935000Y-102805000D01*
X165755000Y-102255000D02*
X165195000Y-102805000D01*
X145395000Y-111105000D02*
X145935000Y-110555000D01*
X165755000Y-111105000D02*
X165195000Y-110555000D01*
D10*
X145145000Y-102005000D02*
X166005000Y-102005000D01*
X166005000Y-102005000D02*
X166005000Y-111355000D01*
X166005000Y-111355000D02*
X145145000Y-111355000D01*
X145145000Y-111355000D02*
X145145000Y-102005000D01*
X144895000Y-111605000D02*
X147435000Y-111605000D01*
X144895000Y-111605000D02*
X144895000Y-109065000D01*
X150558500Y-109402425D02*
X150808500Y-109835438D01*
X150308500Y-109835438D02*
X150558500Y-109402425D01*
X150808500Y-109835438D02*
X150308500Y-109835438D01*
X163800000Y-78205000D02*
X158860000Y-78205000D01*
X163800000Y-75465000D02*
X158860000Y-75465000D01*
X163800000Y-78205000D02*
X163800000Y-77890000D01*
X163800000Y-75780000D02*
X163800000Y-75465000D01*
X158860000Y-78205000D02*
X158860000Y-77890000D01*
X158860000Y-75780000D02*
X158860000Y-75465000D01*
D12*
X122535000Y-102255000D02*
X142895000Y-102255000D01*
X123075000Y-102805000D02*
X142335000Y-102805000D01*
X122535000Y-111105000D02*
X142895000Y-111105000D01*
X123075000Y-110555000D02*
X130465000Y-110555000D01*
X134965000Y-110555000D02*
X142335000Y-110555000D01*
X130465000Y-110555000D02*
X130465000Y-111105000D01*
X134965000Y-110555000D02*
X134965000Y-111105000D01*
X122535000Y-102255000D02*
X122535000Y-111105000D01*
X123075000Y-102805000D02*
X123075000Y-110555000D01*
X142895000Y-102255000D02*
X142895000Y-111105000D01*
X142335000Y-102805000D02*
X142335000Y-110555000D01*
X122535000Y-102255000D02*
X123075000Y-102805000D01*
X142895000Y-102255000D02*
X142335000Y-102805000D01*
X122535000Y-111105000D02*
X123075000Y-110555000D01*
X142895000Y-111105000D02*
X142335000Y-110555000D01*
D10*
X122285000Y-102005000D02*
X143145000Y-102005000D01*
X143145000Y-102005000D02*
X143145000Y-111355000D01*
X143145000Y-111355000D02*
X122285000Y-111355000D01*
X122285000Y-111355000D02*
X122285000Y-102005000D01*
X122035000Y-111605000D02*
X124575000Y-111605000D01*
X122035000Y-111605000D02*
X122035000Y-109065000D01*
X127698500Y-109402425D02*
X127948500Y-109835438D01*
X127448500Y-109835438D02*
X127698500Y-109402425D01*
X127948500Y-109835438D02*
X127448500Y-109835438D01*
X131135000Y-79490000D02*
X131135000Y-77990000D01*
X129885000Y-75490000D02*
X125385000Y-75490000D01*
X124135000Y-77990000D02*
X124135000Y-79490000D01*
X125385000Y-81990000D02*
X129885000Y-81990000D01*
X141200000Y-95980000D02*
X140870000Y-95980000D01*
X140870000Y-95980000D02*
X140870000Y-89440000D01*
X140870000Y-89440000D02*
X141200000Y-89440000D01*
X143280000Y-95980000D02*
X143610000Y-95980000D01*
X143610000Y-95980000D02*
X143610000Y-89440000D01*
X143610000Y-89440000D02*
X143280000Y-89440000D01*
D12*
X158984904Y-100209285D02*
X158603952Y-100475952D01*
X158984904Y-100666428D02*
X158184904Y-100666428D01*
X158184904Y-100361666D01*
X158223000Y-100285476D01*
X158261095Y-100247380D01*
X158337285Y-100209285D01*
X158451571Y-100209285D01*
X158527761Y-100247380D01*
X158565857Y-100285476D01*
X158603952Y-100361666D01*
X158603952Y-100666428D01*
X158984904Y-99447380D02*
X158984904Y-99904523D01*
X158984904Y-99675952D02*
X158184904Y-99675952D01*
X158299190Y-99752142D01*
X158375380Y-99828333D01*
X158413476Y-99904523D01*
X158451571Y-98761666D02*
X158984904Y-98761666D01*
X158146809Y-98952142D02*
X158718238Y-99142619D01*
X158718238Y-98647380D01*
D11*
X161202761Y-100147380D02*
X160631333Y-100147380D01*
X160917047Y-100147380D02*
X160917047Y-99147380D01*
X160821809Y-99290238D01*
X160726571Y-99385476D01*
X160631333Y-99433095D01*
X161821809Y-99147380D02*
X161917047Y-99147380D01*
X162012285Y-99195000D01*
X162059904Y-99242619D01*
X162107523Y-99337857D01*
X162155142Y-99528333D01*
X162155142Y-99766428D01*
X162107523Y-99956904D01*
X162059904Y-100052142D01*
X162012285Y-100099761D01*
X161917047Y-100147380D01*
X161821809Y-100147380D01*
X161726571Y-100099761D01*
X161678952Y-100052142D01*
X161631333Y-99956904D01*
X161583714Y-99766428D01*
X161583714Y-99528333D01*
X161631333Y-99337857D01*
X161678952Y-99242619D01*
X161726571Y-99195000D01*
X161821809Y-99147380D01*
X162583714Y-100147380D02*
X162583714Y-99147380D01*
X162678952Y-99766428D02*
X162964666Y-100147380D01*
X162964666Y-99480714D02*
X162583714Y-99861666D01*
D12*
X145776904Y-99828333D02*
X145395952Y-100095000D01*
X145776904Y-100285476D02*
X144976904Y-100285476D01*
X144976904Y-99980714D01*
X145015000Y-99904523D01*
X145053095Y-99866428D01*
X145129285Y-99828333D01*
X145243571Y-99828333D01*
X145319761Y-99866428D01*
X145357857Y-99904523D01*
X145395952Y-99980714D01*
X145395952Y-100285476D01*
X145243571Y-99142619D02*
X145776904Y-99142619D01*
X144938809Y-99333095D02*
X145510238Y-99523571D01*
X145510238Y-99028333D01*
D11*
X147994761Y-100147380D02*
X147423333Y-100147380D01*
X147709047Y-100147380D02*
X147709047Y-99147380D01*
X147613809Y-99290238D01*
X147518571Y-99385476D01*
X147423333Y-99433095D01*
X148613809Y-99147380D02*
X148709047Y-99147380D01*
X148804285Y-99195000D01*
X148851904Y-99242619D01*
X148899523Y-99337857D01*
X148947142Y-99528333D01*
X148947142Y-99766428D01*
X148899523Y-99956904D01*
X148851904Y-100052142D01*
X148804285Y-100099761D01*
X148709047Y-100147380D01*
X148613809Y-100147380D01*
X148518571Y-100099761D01*
X148470952Y-100052142D01*
X148423333Y-99956904D01*
X148375714Y-99766428D01*
X148375714Y-99528333D01*
X148423333Y-99337857D01*
X148470952Y-99242619D01*
X148518571Y-99195000D01*
X148613809Y-99147380D01*
X149375714Y-100147380D02*
X149375714Y-99147380D01*
X149470952Y-99766428D02*
X149756666Y-100147380D01*
X149756666Y-99480714D02*
X149375714Y-99861666D01*
D12*
X126091904Y-85223333D02*
X125710952Y-85490000D01*
X126091904Y-85680476D02*
X125291904Y-85680476D01*
X125291904Y-85375714D01*
X125330000Y-85299523D01*
X125368095Y-85261428D01*
X125444285Y-85223333D01*
X125558571Y-85223333D01*
X125634761Y-85261428D01*
X125672857Y-85299523D01*
X125710952Y-85375714D01*
X125710952Y-85680476D01*
X125291904Y-84499523D02*
X125291904Y-84880476D01*
X125672857Y-84918571D01*
X125634761Y-84880476D01*
X125596666Y-84804285D01*
X125596666Y-84613809D01*
X125634761Y-84537619D01*
X125672857Y-84499523D01*
X125749047Y-84461428D01*
X125939523Y-84461428D01*
X126015714Y-84499523D01*
X126053809Y-84537619D01*
X126091904Y-84613809D01*
X126091904Y-84804285D01*
X126053809Y-84880476D01*
X126015714Y-84918571D01*
X128428809Y-85451904D02*
X127971666Y-85451904D01*
X128200238Y-85451904D02*
X128200238Y-84651904D01*
X128124047Y-84766190D01*
X128047857Y-84842380D01*
X127971666Y-84880476D01*
X128924047Y-84651904D02*
X129000238Y-84651904D01*
X129076428Y-84690000D01*
X129114523Y-84728095D01*
X129152619Y-84804285D01*
X129190714Y-84956666D01*
X129190714Y-85147142D01*
X129152619Y-85299523D01*
X129114523Y-85375714D01*
X129076428Y-85413809D01*
X129000238Y-85451904D01*
X128924047Y-85451904D01*
X128847857Y-85413809D01*
X128809761Y-85375714D01*
X128771666Y-85299523D01*
X128733571Y-85147142D01*
X128733571Y-84956666D01*
X128771666Y-84804285D01*
X128809761Y-84728095D01*
X128847857Y-84690000D01*
X128924047Y-84651904D01*
X129533571Y-85451904D02*
X129533571Y-84651904D01*
X129609761Y-85147142D02*
X129838333Y-85451904D01*
X129838333Y-84918571D02*
X129533571Y-85223333D01*
X145916666Y-91166904D02*
X145650000Y-90785952D01*
X145459523Y-91166904D02*
X145459523Y-90366904D01*
X145764285Y-90366904D01*
X145840476Y-90405000D01*
X145878571Y-90443095D01*
X145916666Y-90519285D01*
X145916666Y-90633571D01*
X145878571Y-90709761D01*
X145840476Y-90747857D01*
X145764285Y-90785952D01*
X145459523Y-90785952D01*
X146602380Y-90366904D02*
X146450000Y-90366904D01*
X146373809Y-90405000D01*
X146335714Y-90443095D01*
X146259523Y-90557380D01*
X146221428Y-90709761D01*
X146221428Y-91014523D01*
X146259523Y-91090714D01*
X146297619Y-91128809D01*
X146373809Y-91166904D01*
X146526190Y-91166904D01*
X146602380Y-91128809D01*
X146640476Y-91090714D01*
X146678571Y-91014523D01*
X146678571Y-90824047D01*
X146640476Y-90747857D01*
X146602380Y-90709761D01*
X146526190Y-90671666D01*
X146373809Y-90671666D01*
X146297619Y-90709761D01*
X146259523Y-90747857D01*
X146221428Y-90824047D01*
X146411904Y-94456190D02*
X146411904Y-94913333D01*
X146411904Y-94684761D02*
X145611904Y-94684761D01*
X145726190Y-94760952D01*
X145802380Y-94837142D01*
X145840476Y-94913333D01*
X145611904Y-93960952D02*
X145611904Y-93884761D01*
X145650000Y-93808571D01*
X145688095Y-93770476D01*
X145764285Y-93732380D01*
X145916666Y-93694285D01*
X146107142Y-93694285D01*
X146259523Y-93732380D01*
X146335714Y-93770476D01*
X146373809Y-93808571D01*
X146411904Y-93884761D01*
X146411904Y-93960952D01*
X146373809Y-94037142D01*
X146335714Y-94075238D01*
X146259523Y-94113333D01*
X146107142Y-94151428D01*
X145916666Y-94151428D01*
X145764285Y-94113333D01*
X145688095Y-94075238D01*
X145650000Y-94037142D01*
X145611904Y-93960952D01*
X146411904Y-93351428D02*
X145611904Y-93351428D01*
X146107142Y-93275238D02*
X146411904Y-93046666D01*
X145878571Y-93046666D02*
X146183333Y-93351428D01*
X147681904Y-85223333D02*
X147300952Y-85490000D01*
X147681904Y-85680476D02*
X146881904Y-85680476D01*
X146881904Y-85375714D01*
X146920000Y-85299523D01*
X146958095Y-85261428D01*
X147034285Y-85223333D01*
X147148571Y-85223333D01*
X147224761Y-85261428D01*
X147262857Y-85299523D01*
X147300952Y-85375714D01*
X147300952Y-85680476D01*
X147681904Y-84842380D02*
X147681904Y-84690000D01*
X147643809Y-84613809D01*
X147605714Y-84575714D01*
X147491428Y-84499523D01*
X147339047Y-84461428D01*
X147034285Y-84461428D01*
X146958095Y-84499523D01*
X146920000Y-84537619D01*
X146881904Y-84613809D01*
X146881904Y-84766190D01*
X146920000Y-84842380D01*
X146958095Y-84880476D01*
X147034285Y-84918571D01*
X147224761Y-84918571D01*
X147300952Y-84880476D01*
X147339047Y-84842380D01*
X147377142Y-84766190D01*
X147377142Y-84613809D01*
X147339047Y-84537619D01*
X147300952Y-84499523D01*
X147224761Y-84461428D01*
X149561666Y-84728095D02*
X149599761Y-84690000D01*
X149675952Y-84651904D01*
X149866428Y-84651904D01*
X149942619Y-84690000D01*
X149980714Y-84728095D01*
X150018809Y-84804285D01*
X150018809Y-84880476D01*
X149980714Y-84994761D01*
X149523571Y-85451904D01*
X150018809Y-85451904D01*
X150361666Y-85451904D02*
X150361666Y-84651904D01*
X150437857Y-85147142D02*
X150666428Y-85451904D01*
X150666428Y-84918571D02*
X150361666Y-85223333D01*
X150971190Y-84728095D02*
X151009285Y-84690000D01*
X151085476Y-84651904D01*
X151275952Y-84651904D01*
X151352142Y-84690000D01*
X151390238Y-84728095D01*
X151428333Y-84804285D01*
X151428333Y-84880476D01*
X151390238Y-84994761D01*
X150933095Y-85451904D01*
X151428333Y-85451904D01*
X153155714Y-91166904D02*
X152889047Y-90785952D01*
X152698571Y-91166904D02*
X152698571Y-90366904D01*
X153003333Y-90366904D01*
X153079523Y-90405000D01*
X153117619Y-90443095D01*
X153155714Y-90519285D01*
X153155714Y-90633571D01*
X153117619Y-90709761D01*
X153079523Y-90747857D01*
X153003333Y-90785952D01*
X152698571Y-90785952D01*
X153917619Y-91166904D02*
X153460476Y-91166904D01*
X153689047Y-91166904D02*
X153689047Y-90366904D01*
X153612857Y-90481190D01*
X153536666Y-90557380D01*
X153460476Y-90595476D01*
X154412857Y-90366904D02*
X154489047Y-90366904D01*
X154565238Y-90405000D01*
X154603333Y-90443095D01*
X154641428Y-90519285D01*
X154679523Y-90671666D01*
X154679523Y-90862142D01*
X154641428Y-91014523D01*
X154603333Y-91090714D01*
X154565238Y-91128809D01*
X154489047Y-91166904D01*
X154412857Y-91166904D01*
X154336666Y-91128809D01*
X154298571Y-91090714D01*
X154260476Y-91014523D01*
X154222380Y-90862142D01*
X154222380Y-90671666D01*
X154260476Y-90519285D01*
X154298571Y-90443095D01*
X154336666Y-90405000D01*
X154412857Y-90366904D01*
X154031904Y-94456190D02*
X154031904Y-94913333D01*
X154031904Y-94684761D02*
X153231904Y-94684761D01*
X153346190Y-94760952D01*
X153422380Y-94837142D01*
X153460476Y-94913333D01*
X153231904Y-93960952D02*
X153231904Y-93884761D01*
X153270000Y-93808571D01*
X153308095Y-93770476D01*
X153384285Y-93732380D01*
X153536666Y-93694285D01*
X153727142Y-93694285D01*
X153879523Y-93732380D01*
X153955714Y-93770476D01*
X153993809Y-93808571D01*
X154031904Y-93884761D01*
X154031904Y-93960952D01*
X153993809Y-94037142D01*
X153955714Y-94075238D01*
X153879523Y-94113333D01*
X153727142Y-94151428D01*
X153536666Y-94151428D01*
X153384285Y-94113333D01*
X153308095Y-94075238D01*
X153270000Y-94037142D01*
X153231904Y-93960952D01*
X154031904Y-93351428D02*
X153231904Y-93351428D01*
X153727142Y-93275238D02*
X154031904Y-93046666D01*
X153498571Y-93046666D02*
X153803333Y-93351428D01*
X136886904Y-85604285D02*
X136505952Y-85870952D01*
X136886904Y-86061428D02*
X136086904Y-86061428D01*
X136086904Y-85756666D01*
X136125000Y-85680476D01*
X136163095Y-85642380D01*
X136239285Y-85604285D01*
X136353571Y-85604285D01*
X136429761Y-85642380D01*
X136467857Y-85680476D01*
X136505952Y-85756666D01*
X136505952Y-86061428D01*
X136886904Y-84842380D02*
X136886904Y-85299523D01*
X136886904Y-85070952D02*
X136086904Y-85070952D01*
X136201190Y-85147142D01*
X136277380Y-85223333D01*
X136315476Y-85299523D01*
X136163095Y-84537619D02*
X136125000Y-84499523D01*
X136086904Y-84423333D01*
X136086904Y-84232857D01*
X136125000Y-84156666D01*
X136163095Y-84118571D01*
X136239285Y-84080476D01*
X136315476Y-84080476D01*
X136429761Y-84118571D01*
X136886904Y-84575714D01*
X136886904Y-84080476D01*
X139604761Y-85451904D02*
X139147619Y-85451904D01*
X139376190Y-85451904D02*
X139376190Y-84651904D01*
X139300000Y-84766190D01*
X139223809Y-84842380D01*
X139147619Y-84880476D01*
X139947619Y-85451904D02*
X139947619Y-84651904D01*
X140023809Y-85147142D02*
X140252380Y-85451904D01*
X140252380Y-84918571D02*
X139947619Y-85223333D01*
X149345714Y-91166904D02*
X149079047Y-90785952D01*
X148888571Y-91166904D02*
X148888571Y-90366904D01*
X149193333Y-90366904D01*
X149269523Y-90405000D01*
X149307619Y-90443095D01*
X149345714Y-90519285D01*
X149345714Y-90633571D01*
X149307619Y-90709761D01*
X149269523Y-90747857D01*
X149193333Y-90785952D01*
X148888571Y-90785952D01*
X150107619Y-91166904D02*
X149650476Y-91166904D01*
X149879047Y-91166904D02*
X149879047Y-90366904D01*
X149802857Y-90481190D01*
X149726666Y-90557380D01*
X149650476Y-90595476D01*
X150374285Y-90366904D02*
X150869523Y-90366904D01*
X150602857Y-90671666D01*
X150717142Y-90671666D01*
X150793333Y-90709761D01*
X150831428Y-90747857D01*
X150869523Y-90824047D01*
X150869523Y-91014523D01*
X150831428Y-91090714D01*
X150793333Y-91128809D01*
X150717142Y-91166904D01*
X150488571Y-91166904D01*
X150412380Y-91128809D01*
X150374285Y-91090714D01*
X150221904Y-94513333D02*
X150221904Y-94970476D01*
X150221904Y-94741904D02*
X149421904Y-94741904D01*
X149536190Y-94818095D01*
X149612380Y-94894285D01*
X149650476Y-94970476D01*
X149421904Y-94018095D02*
X149421904Y-93941904D01*
X149460000Y-93865714D01*
X149498095Y-93827619D01*
X149574285Y-93789523D01*
X149726666Y-93751428D01*
X149917142Y-93751428D01*
X150069523Y-93789523D01*
X150145714Y-93827619D01*
X150183809Y-93865714D01*
X150221904Y-93941904D01*
X150221904Y-94018095D01*
X150183809Y-94094285D01*
X150145714Y-94132380D01*
X150069523Y-94170476D01*
X149917142Y-94208571D01*
X149726666Y-94208571D01*
X149574285Y-94170476D01*
X149498095Y-94132380D01*
X149460000Y-94094285D01*
X149421904Y-94018095D01*
X149421904Y-93256190D02*
X149421904Y-93180000D01*
X149460000Y-93103809D01*
X149498095Y-93065714D01*
X149574285Y-93027619D01*
X149726666Y-92989523D01*
X149917142Y-92989523D01*
X150069523Y-93027619D01*
X150145714Y-93065714D01*
X150183809Y-93103809D01*
X150221904Y-93180000D01*
X150221904Y-93256190D01*
X150183809Y-93332380D01*
X150145714Y-93370476D01*
X150069523Y-93408571D01*
X149917142Y-93446666D01*
X149726666Y-93446666D01*
X149574285Y-93408571D01*
X149498095Y-93370476D01*
X149460000Y-93332380D01*
X149421904Y-93256190D01*
X120376904Y-99828333D02*
X119995952Y-100095000D01*
X120376904Y-100285476D02*
X119576904Y-100285476D01*
X119576904Y-99980714D01*
X119615000Y-99904523D01*
X119653095Y-99866428D01*
X119729285Y-99828333D01*
X119843571Y-99828333D01*
X119919761Y-99866428D01*
X119957857Y-99904523D01*
X119995952Y-99980714D01*
X119995952Y-100285476D01*
X120376904Y-99066428D02*
X120376904Y-99523571D01*
X120376904Y-99295000D02*
X119576904Y-99295000D01*
X119691190Y-99371190D01*
X119767380Y-99447380D01*
X119805476Y-99523571D01*
D11*
X122594761Y-100147380D02*
X122023333Y-100147380D01*
X122309047Y-100147380D02*
X122309047Y-99147380D01*
X122213809Y-99290238D01*
X122118571Y-99385476D01*
X122023333Y-99433095D01*
X123213809Y-99147380D02*
X123309047Y-99147380D01*
X123404285Y-99195000D01*
X123451904Y-99242619D01*
X123499523Y-99337857D01*
X123547142Y-99528333D01*
X123547142Y-99766428D01*
X123499523Y-99956904D01*
X123451904Y-100052142D01*
X123404285Y-100099761D01*
X123309047Y-100147380D01*
X123213809Y-100147380D01*
X123118571Y-100099761D01*
X123070952Y-100052142D01*
X123023333Y-99956904D01*
X122975714Y-99766428D01*
X122975714Y-99528333D01*
X123023333Y-99337857D01*
X123070952Y-99242619D01*
X123118571Y-99195000D01*
X123213809Y-99147380D01*
X123975714Y-100147380D02*
X123975714Y-99147380D01*
X124070952Y-99766428D02*
X124356666Y-100147380D01*
X124356666Y-99480714D02*
X123975714Y-99861666D01*
D12*
X133076904Y-99828333D02*
X132695952Y-100095000D01*
X133076904Y-100285476D02*
X132276904Y-100285476D01*
X132276904Y-99980714D01*
X132315000Y-99904523D01*
X132353095Y-99866428D01*
X132429285Y-99828333D01*
X132543571Y-99828333D01*
X132619761Y-99866428D01*
X132657857Y-99904523D01*
X132695952Y-99980714D01*
X132695952Y-100285476D01*
X132276904Y-99561666D02*
X132276904Y-99066428D01*
X132581666Y-99333095D01*
X132581666Y-99218809D01*
X132619761Y-99142619D01*
X132657857Y-99104523D01*
X132734047Y-99066428D01*
X132924523Y-99066428D01*
X133000714Y-99104523D01*
X133038809Y-99142619D01*
X133076904Y-99218809D01*
X133076904Y-99447380D01*
X133038809Y-99523571D01*
X133000714Y-99561666D01*
D11*
X135294761Y-100147380D02*
X134723333Y-100147380D01*
X135009047Y-100147380D02*
X135009047Y-99147380D01*
X134913809Y-99290238D01*
X134818571Y-99385476D01*
X134723333Y-99433095D01*
X135913809Y-99147380D02*
X136009047Y-99147380D01*
X136104285Y-99195000D01*
X136151904Y-99242619D01*
X136199523Y-99337857D01*
X136247142Y-99528333D01*
X136247142Y-99766428D01*
X136199523Y-99956904D01*
X136151904Y-100052142D01*
X136104285Y-100099761D01*
X136009047Y-100147380D01*
X135913809Y-100147380D01*
X135818571Y-100099761D01*
X135770952Y-100052142D01*
X135723333Y-99956904D01*
X135675714Y-99766428D01*
X135675714Y-99528333D01*
X135723333Y-99337857D01*
X135770952Y-99242619D01*
X135818571Y-99195000D01*
X135913809Y-99147380D01*
X136675714Y-100147380D02*
X136675714Y-99147380D01*
X136770952Y-99766428D02*
X137056666Y-100147380D01*
X137056666Y-99480714D02*
X136675714Y-99861666D01*
D12*
X170935714Y-93071904D02*
X170669047Y-92690952D01*
X170478571Y-93071904D02*
X170478571Y-92271904D01*
X170783333Y-92271904D01*
X170859523Y-92310000D01*
X170897619Y-92348095D01*
X170935714Y-92424285D01*
X170935714Y-92538571D01*
X170897619Y-92614761D01*
X170859523Y-92652857D01*
X170783333Y-92690952D01*
X170478571Y-92690952D01*
X171697619Y-93071904D02*
X171240476Y-93071904D01*
X171469047Y-93071904D02*
X171469047Y-92271904D01*
X171392857Y-92386190D01*
X171316666Y-92462380D01*
X171240476Y-92500476D01*
X172459523Y-93071904D02*
X172002380Y-93071904D01*
X172230952Y-93071904D02*
X172230952Y-92271904D01*
X172154761Y-92386190D01*
X172078571Y-92462380D01*
X172002380Y-92500476D01*
D11*
X171902380Y-96480238D02*
X171902380Y-97051666D01*
X171902380Y-96765952D02*
X170902380Y-96765952D01*
X171045238Y-96861190D01*
X171140476Y-96956428D01*
X171188095Y-97051666D01*
X170902380Y-95861190D02*
X170902380Y-95765952D01*
X170950000Y-95670714D01*
X170997619Y-95623095D01*
X171092857Y-95575476D01*
X171283333Y-95527857D01*
X171521428Y-95527857D01*
X171711904Y-95575476D01*
X171807142Y-95623095D01*
X171854761Y-95670714D01*
X171902380Y-95765952D01*
X171902380Y-95861190D01*
X171854761Y-95956428D01*
X171807142Y-96004047D01*
X171711904Y-96051666D01*
X171521428Y-96099285D01*
X171283333Y-96099285D01*
X171092857Y-96051666D01*
X170997619Y-96004047D01*
X170950000Y-95956428D01*
X170902380Y-95861190D01*
X171902380Y-95099285D02*
X170902380Y-95099285D01*
X171521428Y-95004047D02*
X171902380Y-94718333D01*
X171235714Y-94718333D02*
X171616666Y-95099285D01*
X171172142Y-84581666D02*
X171219761Y-84629285D01*
X171267380Y-84772142D01*
X171267380Y-84867380D01*
X171219761Y-85010238D01*
X171124523Y-85105476D01*
X171029285Y-85153095D01*
X170838809Y-85200714D01*
X170695952Y-85200714D01*
X170505476Y-85153095D01*
X170410238Y-85105476D01*
X170315000Y-85010238D01*
X170267380Y-84867380D01*
X170267380Y-84772142D01*
X170315000Y-84629285D01*
X170362619Y-84581666D01*
X170267380Y-83676904D02*
X170267380Y-84153095D01*
X170743571Y-84200714D01*
X170695952Y-84153095D01*
X170648333Y-84057857D01*
X170648333Y-83819761D01*
X170695952Y-83724523D01*
X170743571Y-83676904D01*
X170838809Y-83629285D01*
X171076904Y-83629285D01*
X171172142Y-83676904D01*
X171219761Y-83724523D01*
X171267380Y-83819761D01*
X171267380Y-84057857D01*
X171219761Y-84153095D01*
X171172142Y-84200714D01*
D12*
X171723095Y-86150238D02*
X171685000Y-86112142D01*
X171646904Y-86035952D01*
X171646904Y-85845476D01*
X171685000Y-85769285D01*
X171723095Y-85731190D01*
X171799285Y-85693095D01*
X171875476Y-85693095D01*
X171989761Y-85731190D01*
X172446904Y-86188333D01*
X172446904Y-85693095D01*
X171723095Y-85388333D02*
X171685000Y-85350238D01*
X171646904Y-85274047D01*
X171646904Y-85083571D01*
X171685000Y-85007380D01*
X171723095Y-84969285D01*
X171799285Y-84931190D01*
X171875476Y-84931190D01*
X171989761Y-84969285D01*
X172446904Y-85426428D01*
X172446904Y-84931190D01*
X171646904Y-84435952D02*
X171646904Y-84359761D01*
X171685000Y-84283571D01*
X171723095Y-84245476D01*
X171799285Y-84207380D01*
X171951666Y-84169285D01*
X172142142Y-84169285D01*
X172294523Y-84207380D01*
X172370714Y-84245476D01*
X172408809Y-84283571D01*
X172446904Y-84359761D01*
X172446904Y-84435952D01*
X172408809Y-84512142D01*
X172370714Y-84550238D01*
X172294523Y-84588333D01*
X172142142Y-84626428D01*
X171951666Y-84626428D01*
X171799285Y-84588333D01*
X171723095Y-84550238D01*
X171685000Y-84512142D01*
X171646904Y-84435952D01*
X171913571Y-83826428D02*
X172713571Y-83826428D01*
X171951666Y-83826428D02*
X171913571Y-83750238D01*
X171913571Y-83597857D01*
X171951666Y-83521666D01*
X171989761Y-83483571D01*
X172065952Y-83445476D01*
X172294523Y-83445476D01*
X172370714Y-83483571D01*
X172408809Y-83521666D01*
X172446904Y-83597857D01*
X172446904Y-83750238D01*
X172408809Y-83826428D01*
X172027857Y-82835952D02*
X172027857Y-83102619D01*
X172446904Y-83102619D02*
X171646904Y-83102619D01*
X171646904Y-82721666D01*
D11*
X160528095Y-82637380D02*
X160528095Y-83446904D01*
X160575714Y-83542142D01*
X160623333Y-83589761D01*
X160718571Y-83637380D01*
X160909047Y-83637380D01*
X161004285Y-83589761D01*
X161051904Y-83542142D01*
X161099523Y-83446904D01*
X161099523Y-82637380D01*
X162099523Y-83637380D02*
X161528095Y-83637380D01*
X161813809Y-83637380D02*
X161813809Y-82637380D01*
X161718571Y-82780238D01*
X161623333Y-82875476D01*
X161528095Y-82923095D01*
X160742380Y-91384047D02*
X160742380Y-90717380D01*
X161742380Y-91145952D01*
X161075714Y-89907857D02*
X161742380Y-89907857D01*
X160694761Y-90145952D02*
X161409047Y-90384047D01*
X161409047Y-89765000D01*
X161742380Y-88907857D02*
X161742380Y-89384047D01*
X160742380Y-89384047D01*
X161694761Y-88622142D02*
X161742380Y-88479285D01*
X161742380Y-88241190D01*
X161694761Y-88145952D01*
X161647142Y-88098333D01*
X161551904Y-88050714D01*
X161456666Y-88050714D01*
X161361428Y-88098333D01*
X161313809Y-88145952D01*
X161266190Y-88241190D01*
X161218571Y-88431666D01*
X161170952Y-88526904D01*
X161123333Y-88574523D01*
X161028095Y-88622142D01*
X160932857Y-88622142D01*
X160837619Y-88574523D01*
X160790000Y-88526904D01*
X160742380Y-88431666D01*
X160742380Y-88193571D01*
X160790000Y-88050714D01*
X161742380Y-87098333D02*
X161742380Y-87669761D01*
X161742380Y-87384047D02*
X160742380Y-87384047D01*
X160885238Y-87479285D01*
X160980476Y-87574523D01*
X161028095Y-87669761D01*
X160837619Y-86717380D02*
X160790000Y-86669761D01*
X160742380Y-86574523D01*
X160742380Y-86336428D01*
X160790000Y-86241190D01*
X160837619Y-86193571D01*
X160932857Y-86145952D01*
X161028095Y-86145952D01*
X161170952Y-86193571D01*
X161742380Y-86765000D01*
X161742380Y-86145952D01*
X160742380Y-85241190D02*
X160742380Y-85717380D01*
X161218571Y-85765000D01*
X161170952Y-85717380D01*
X161123333Y-85622142D01*
X161123333Y-85384047D01*
X161170952Y-85288809D01*
X161218571Y-85241190D01*
X161313809Y-85193571D01*
X161551904Y-85193571D01*
X161647142Y-85241190D01*
X161694761Y-85288809D01*
X161742380Y-85384047D01*
X161742380Y-85622142D01*
X161694761Y-85717380D01*
X161647142Y-85765000D01*
X121753333Y-81002142D02*
X121705714Y-81049761D01*
X121562857Y-81097380D01*
X121467619Y-81097380D01*
X121324761Y-81049761D01*
X121229523Y-80954523D01*
X121181904Y-80859285D01*
X121134285Y-80668809D01*
X121134285Y-80525952D01*
X121181904Y-80335476D01*
X121229523Y-80240238D01*
X121324761Y-80145000D01*
X121467619Y-80097380D01*
X121562857Y-80097380D01*
X121705714Y-80145000D01*
X121753333Y-80192619D01*
X122086666Y-80097380D02*
X122705714Y-80097380D01*
X122372380Y-80478333D01*
X122515238Y-80478333D01*
X122610476Y-80525952D01*
X122658095Y-80573571D01*
X122705714Y-80668809D01*
X122705714Y-80906904D01*
X122658095Y-81002142D01*
X122610476Y-81049761D01*
X122515238Y-81097380D01*
X122229523Y-81097380D01*
X122134285Y-81049761D01*
X122086666Y-81002142D01*
X122428095Y-91527380D02*
X122428095Y-92336904D01*
X122475714Y-92432142D01*
X122523333Y-92479761D01*
X122618571Y-92527380D01*
X122809047Y-92527380D01*
X122904285Y-92479761D01*
X122951904Y-92432142D01*
X122999523Y-92336904D01*
X122999523Y-91527380D01*
X123428095Y-91622619D02*
X123475714Y-91575000D01*
X123570952Y-91527380D01*
X123809047Y-91527380D01*
X123904285Y-91575000D01*
X123951904Y-91622619D01*
X123999523Y-91717857D01*
X123999523Y-91813095D01*
X123951904Y-91955952D01*
X123380476Y-92527380D01*
X123999523Y-92527380D01*
X126420952Y-91527380D02*
X127087619Y-91527380D01*
X126659047Y-92527380D01*
X127897142Y-91860714D02*
X127897142Y-92527380D01*
X127659047Y-91479761D02*
X127420952Y-92194047D01*
X128040000Y-92194047D01*
X128897142Y-92527380D02*
X128420952Y-92527380D01*
X128420952Y-91527380D01*
X129182857Y-92479761D02*
X129325714Y-92527380D01*
X129563809Y-92527380D01*
X129659047Y-92479761D01*
X129706666Y-92432142D01*
X129754285Y-92336904D01*
X129754285Y-92241666D01*
X129706666Y-92146428D01*
X129659047Y-92098809D01*
X129563809Y-92051190D01*
X129373333Y-92003571D01*
X129278095Y-91955952D01*
X129230476Y-91908333D01*
X129182857Y-91813095D01*
X129182857Y-91717857D01*
X129230476Y-91622619D01*
X129278095Y-91575000D01*
X129373333Y-91527380D01*
X129611428Y-91527380D01*
X129754285Y-91575000D01*
X130706666Y-92527380D02*
X130135238Y-92527380D01*
X130420952Y-92527380D02*
X130420952Y-91527380D01*
X130325714Y-91670238D01*
X130230476Y-91765476D01*
X130135238Y-91813095D01*
X131563809Y-91527380D02*
X131373333Y-91527380D01*
X131278095Y-91575000D01*
X131230476Y-91622619D01*
X131135238Y-91765476D01*
X131087619Y-91955952D01*
X131087619Y-92336904D01*
X131135238Y-92432142D01*
X131182857Y-92479761D01*
X131278095Y-92527380D01*
X131468571Y-92527380D01*
X131563809Y-92479761D01*
X131611428Y-92432142D01*
X131659047Y-92336904D01*
X131659047Y-92098809D01*
X131611428Y-92003571D01*
X131563809Y-91955952D01*
X131468571Y-91908333D01*
X131278095Y-91908333D01*
X131182857Y-91955952D01*
X131135238Y-92003571D01*
X131087619Y-92098809D01*
X132563809Y-91527380D02*
X132087619Y-91527380D01*
X132040000Y-92003571D01*
X132087619Y-91955952D01*
X132182857Y-91908333D01*
X132420952Y-91908333D01*
X132516190Y-91955952D01*
X132563809Y-92003571D01*
X132611428Y-92098809D01*
X132611428Y-92336904D01*
X132563809Y-92432142D01*
X132516190Y-92479761D01*
X132420952Y-92527380D01*
X132182857Y-92527380D01*
X132087619Y-92479761D01*
X132040000Y-92432142D01*
D12*
X167925714Y-97328333D02*
X167963809Y-97366428D01*
X168001904Y-97480714D01*
X168001904Y-97556904D01*
X167963809Y-97671190D01*
X167887619Y-97747380D01*
X167811428Y-97785476D01*
X167659047Y-97823571D01*
X167544761Y-97823571D01*
X167392380Y-97785476D01*
X167316190Y-97747380D01*
X167240000Y-97671190D01*
X167201904Y-97556904D01*
X167201904Y-97480714D01*
X167240000Y-97366428D01*
X167278095Y-97328333D01*
X167468571Y-96642619D02*
X168001904Y-96642619D01*
X167163809Y-96833095D02*
X167735238Y-97023571D01*
X167735238Y-96528333D01*
X168548095Y-98850238D02*
X168510000Y-98812142D01*
X168471904Y-98735952D01*
X168471904Y-98545476D01*
X168510000Y-98469285D01*
X168548095Y-98431190D01*
X168624285Y-98393095D01*
X168700476Y-98393095D01*
X168814761Y-98431190D01*
X169271904Y-98888333D01*
X169271904Y-98393095D01*
X168548095Y-98088333D02*
X168510000Y-98050238D01*
X168471904Y-97974047D01*
X168471904Y-97783571D01*
X168510000Y-97707380D01*
X168548095Y-97669285D01*
X168624285Y-97631190D01*
X168700476Y-97631190D01*
X168814761Y-97669285D01*
X169271904Y-98126428D01*
X169271904Y-97631190D01*
X168471904Y-97135952D02*
X168471904Y-97059761D01*
X168510000Y-96983571D01*
X168548095Y-96945476D01*
X168624285Y-96907380D01*
X168776666Y-96869285D01*
X168967142Y-96869285D01*
X169119523Y-96907380D01*
X169195714Y-96945476D01*
X169233809Y-96983571D01*
X169271904Y-97059761D01*
X169271904Y-97135952D01*
X169233809Y-97212142D01*
X169195714Y-97250238D01*
X169119523Y-97288333D01*
X168967142Y-97326428D01*
X168776666Y-97326428D01*
X168624285Y-97288333D01*
X168548095Y-97250238D01*
X168510000Y-97212142D01*
X168471904Y-97135952D01*
X168738571Y-96526428D02*
X169538571Y-96526428D01*
X168776666Y-96526428D02*
X168738571Y-96450238D01*
X168738571Y-96297857D01*
X168776666Y-96221666D01*
X168814761Y-96183571D01*
X168890952Y-96145476D01*
X169119523Y-96145476D01*
X169195714Y-96183571D01*
X169233809Y-96221666D01*
X169271904Y-96297857D01*
X169271904Y-96450238D01*
X169233809Y-96526428D01*
X168852857Y-95535952D02*
X168852857Y-95802619D01*
X169271904Y-95802619D02*
X168471904Y-95802619D01*
X168471904Y-95421666D01*
X115131904Y-105657380D02*
X115931904Y-105390714D01*
X115131904Y-105124047D01*
X115855714Y-104400238D02*
X115893809Y-104438333D01*
X115931904Y-104552619D01*
X115931904Y-104628809D01*
X115893809Y-104743095D01*
X115817619Y-104819285D01*
X115741428Y-104857380D01*
X115589047Y-104895476D01*
X115474761Y-104895476D01*
X115322380Y-104857380D01*
X115246190Y-104819285D01*
X115170000Y-104743095D01*
X115131904Y-104628809D01*
X115131904Y-104552619D01*
X115170000Y-104438333D01*
X115208095Y-104400238D01*
X115855714Y-103600238D02*
X115893809Y-103638333D01*
X115931904Y-103752619D01*
X115931904Y-103828809D01*
X115893809Y-103943095D01*
X115817619Y-104019285D01*
X115741428Y-104057380D01*
X115589047Y-104095476D01*
X115474761Y-104095476D01*
X115322380Y-104057380D01*
X115246190Y-104019285D01*
X115170000Y-103943095D01*
X115131904Y-103828809D01*
X115131904Y-103752619D01*
X115170000Y-103638333D01*
X115208095Y-103600238D01*
X116008095Y-103447857D02*
X116008095Y-102838333D01*
X115512857Y-102647857D02*
X115512857Y-102381190D01*
X115931904Y-102266904D02*
X115931904Y-102647857D01*
X115131904Y-102647857D01*
X115131904Y-102266904D01*
X115931904Y-101924047D02*
X115131904Y-101924047D01*
X115931904Y-101466904D01*
X115131904Y-101466904D01*
D11*
X117832142Y-92241666D02*
X117879761Y-92289285D01*
X117927380Y-92432142D01*
X117927380Y-92527380D01*
X117879761Y-92670238D01*
X117784523Y-92765476D01*
X117689285Y-92813095D01*
X117498809Y-92860714D01*
X117355952Y-92860714D01*
X117165476Y-92813095D01*
X117070238Y-92765476D01*
X116975000Y-92670238D01*
X116927380Y-92527380D01*
X116927380Y-92432142D01*
X116975000Y-92289285D01*
X117022619Y-92241666D01*
X117022619Y-91860714D02*
X116975000Y-91813095D01*
X116927380Y-91717857D01*
X116927380Y-91479761D01*
X116975000Y-91384523D01*
X117022619Y-91336904D01*
X117117857Y-91289285D01*
X117213095Y-91289285D01*
X117355952Y-91336904D01*
X117927380Y-91908333D01*
X117927380Y-91289285D01*
X171197380Y-87161666D02*
X171197380Y-87637857D01*
X170197380Y-87637857D01*
X171197380Y-86304523D02*
X171197380Y-86875952D01*
X171197380Y-86590238D02*
X170197380Y-86590238D01*
X170340238Y-86685476D01*
X170435476Y-86780714D01*
X170483095Y-86875952D01*
D12*
X168141666Y-85451904D02*
X167760714Y-85451904D01*
X167760714Y-84651904D01*
X168827380Y-85451904D02*
X168370238Y-85451904D01*
X168598809Y-85451904D02*
X168598809Y-84651904D01*
X168522619Y-84766190D01*
X168446428Y-84842380D01*
X168370238Y-84880476D01*
X134988333Y-75126904D02*
X134988333Y-75698333D01*
X134950238Y-75812619D01*
X134874047Y-75888809D01*
X134759761Y-75926904D01*
X134683571Y-75926904D01*
X135293095Y-75126904D02*
X135788333Y-75126904D01*
X135521666Y-75431666D01*
X135635952Y-75431666D01*
X135712142Y-75469761D01*
X135750238Y-75507857D01*
X135788333Y-75584047D01*
X135788333Y-75774523D01*
X135750238Y-75850714D01*
X135712142Y-75888809D01*
X135635952Y-75926904D01*
X135407380Y-75926904D01*
X135331190Y-75888809D01*
X135293095Y-75850714D01*
X140640238Y-75698333D02*
X141021190Y-75698333D01*
X140564047Y-75926904D02*
X140830714Y-75126904D01*
X141097380Y-75926904D01*
X141364047Y-75926904D02*
X141364047Y-75393571D01*
X141364047Y-75469761D02*
X141402142Y-75431666D01*
X141478333Y-75393571D01*
X141592619Y-75393571D01*
X141668809Y-75431666D01*
X141706904Y-75507857D01*
X141706904Y-75926904D01*
X141706904Y-75507857D02*
X141745000Y-75431666D01*
X141821190Y-75393571D01*
X141935476Y-75393571D01*
X142011666Y-75431666D01*
X142049761Y-75507857D01*
X142049761Y-75926904D01*
X142430714Y-75926904D02*
X142430714Y-75393571D01*
X142430714Y-75126904D02*
X142392619Y-75165000D01*
X142430714Y-75203095D01*
X142468809Y-75165000D01*
X142430714Y-75126904D01*
X142430714Y-75203095D01*
X143154523Y-75393571D02*
X143154523Y-76041190D01*
X143116428Y-76117380D01*
X143078333Y-76155476D01*
X143002142Y-76193571D01*
X142887857Y-76193571D01*
X142811666Y-76155476D01*
X143154523Y-75888809D02*
X143078333Y-75926904D01*
X142925952Y-75926904D01*
X142849761Y-75888809D01*
X142811666Y-75850714D01*
X142773571Y-75774523D01*
X142773571Y-75545952D01*
X142811666Y-75469761D01*
X142849761Y-75431666D01*
X142925952Y-75393571D01*
X143078333Y-75393571D01*
X143154523Y-75431666D01*
X143878333Y-75926904D02*
X143878333Y-75507857D01*
X143840238Y-75431666D01*
X143764047Y-75393571D01*
X143611666Y-75393571D01*
X143535476Y-75431666D01*
X143878333Y-75888809D02*
X143802142Y-75926904D01*
X143611666Y-75926904D01*
X143535476Y-75888809D01*
X143497380Y-75812619D01*
X143497380Y-75736428D01*
X143535476Y-75660238D01*
X143611666Y-75622142D01*
X143802142Y-75622142D01*
X143878333Y-75584047D01*
X145325952Y-75850714D02*
X145287857Y-75888809D01*
X145173571Y-75926904D01*
X145097380Y-75926904D01*
X144983095Y-75888809D01*
X144906904Y-75812619D01*
X144868809Y-75736428D01*
X144830714Y-75584047D01*
X144830714Y-75469761D01*
X144868809Y-75317380D01*
X144906904Y-75241190D01*
X144983095Y-75165000D01*
X145097380Y-75126904D01*
X145173571Y-75126904D01*
X145287857Y-75165000D01*
X145325952Y-75203095D01*
X145668809Y-75926904D02*
X145668809Y-75126904D01*
X145859285Y-75126904D01*
X145973571Y-75165000D01*
X146049761Y-75241190D01*
X146087857Y-75317380D01*
X146125952Y-75469761D01*
X146125952Y-75584047D01*
X146087857Y-75736428D01*
X146049761Y-75812619D01*
X145973571Y-75888809D01*
X145859285Y-75926904D01*
X145668809Y-75926904D01*
X146392619Y-75126904D02*
X146887857Y-75126904D01*
X146621190Y-75431666D01*
X146735476Y-75431666D01*
X146811666Y-75469761D01*
X146849761Y-75507857D01*
X146887857Y-75584047D01*
X146887857Y-75774523D01*
X146849761Y-75850714D01*
X146811666Y-75888809D01*
X146735476Y-75926904D01*
X146506904Y-75926904D01*
X146430714Y-75888809D01*
X146392619Y-75850714D01*
X147192619Y-75203095D02*
X147230714Y-75165000D01*
X147306904Y-75126904D01*
X147497380Y-75126904D01*
X147573571Y-75165000D01*
X147611666Y-75203095D01*
X147649761Y-75279285D01*
X147649761Y-75355476D01*
X147611666Y-75469761D01*
X147154523Y-75926904D01*
X147649761Y-75926904D01*
X146418333Y-103066904D02*
X146418333Y-103638333D01*
X146380238Y-103752619D01*
X146304047Y-103828809D01*
X146189761Y-103866904D01*
X146113571Y-103866904D01*
X146761190Y-103143095D02*
X146799285Y-103105000D01*
X146875476Y-103066904D01*
X147065952Y-103066904D01*
X147142142Y-103105000D01*
X147180238Y-103143095D01*
X147218333Y-103219285D01*
X147218333Y-103295476D01*
X147180238Y-103409761D01*
X146723095Y-103866904D01*
X147218333Y-103866904D01*
D11*
X160393333Y-110307380D02*
X160393333Y-109307380D01*
X160774285Y-109307380D01*
X160869523Y-109355000D01*
X160917142Y-109402619D01*
X160964761Y-109497857D01*
X160964761Y-109640714D01*
X160917142Y-109735952D01*
X160869523Y-109783571D01*
X160774285Y-109831190D01*
X160393333Y-109831190D01*
X161536190Y-110307380D02*
X161440952Y-110259761D01*
X161393333Y-110212142D01*
X161345714Y-110116904D01*
X161345714Y-109831190D01*
X161393333Y-109735952D01*
X161440952Y-109688333D01*
X161536190Y-109640714D01*
X161679047Y-109640714D01*
X161774285Y-109688333D01*
X161821904Y-109735952D01*
X161869523Y-109831190D01*
X161869523Y-110116904D01*
X161821904Y-110212142D01*
X161774285Y-110259761D01*
X161679047Y-110307380D01*
X161536190Y-110307380D01*
X162298095Y-110307380D02*
X162298095Y-109640714D01*
X162298095Y-109831190D02*
X162345714Y-109735952D01*
X162393333Y-109688333D01*
X162488571Y-109640714D01*
X162583809Y-109640714D01*
X162774285Y-109640714D02*
X163155238Y-109640714D01*
X162917142Y-109307380D02*
X162917142Y-110164523D01*
X162964761Y-110259761D01*
X163060000Y-110307380D01*
X163155238Y-110307380D01*
X164202857Y-109402619D02*
X164250476Y-109355000D01*
X164345714Y-109307380D01*
X164583809Y-109307380D01*
X164679047Y-109355000D01*
X164726666Y-109402619D01*
X164774285Y-109497857D01*
X164774285Y-109593095D01*
X164726666Y-109735952D01*
X164155238Y-110307380D01*
X164774285Y-110307380D01*
X161123333Y-77192142D02*
X161075714Y-77239761D01*
X160932857Y-77287380D01*
X160837619Y-77287380D01*
X160694761Y-77239761D01*
X160599523Y-77144523D01*
X160551904Y-77049285D01*
X160504285Y-76858809D01*
X160504285Y-76715952D01*
X160551904Y-76525476D01*
X160599523Y-76430238D01*
X160694761Y-76335000D01*
X160837619Y-76287380D01*
X160932857Y-76287380D01*
X161075714Y-76335000D01*
X161123333Y-76382619D01*
X162075714Y-77287380D02*
X161504285Y-77287380D01*
X161790000Y-77287380D02*
X161790000Y-76287380D01*
X161694761Y-76430238D01*
X161599523Y-76525476D01*
X161504285Y-76573095D01*
D12*
X123558333Y-103066904D02*
X123558333Y-103638333D01*
X123520238Y-103752619D01*
X123444047Y-103828809D01*
X123329761Y-103866904D01*
X123253571Y-103866904D01*
X124358333Y-103866904D02*
X123901190Y-103866904D01*
X124129761Y-103866904D02*
X124129761Y-103066904D01*
X124053571Y-103181190D01*
X123977380Y-103257380D01*
X123901190Y-103295476D01*
D11*
X137533333Y-110307380D02*
X137533333Y-109307380D01*
X137914285Y-109307380D01*
X138009523Y-109355000D01*
X138057142Y-109402619D01*
X138104761Y-109497857D01*
X138104761Y-109640714D01*
X138057142Y-109735952D01*
X138009523Y-109783571D01*
X137914285Y-109831190D01*
X137533333Y-109831190D01*
X138676190Y-110307380D02*
X138580952Y-110259761D01*
X138533333Y-110212142D01*
X138485714Y-110116904D01*
X138485714Y-109831190D01*
X138533333Y-109735952D01*
X138580952Y-109688333D01*
X138676190Y-109640714D01*
X138819047Y-109640714D01*
X138914285Y-109688333D01*
X138961904Y-109735952D01*
X139009523Y-109831190D01*
X139009523Y-110116904D01*
X138961904Y-110212142D01*
X138914285Y-110259761D01*
X138819047Y-110307380D01*
X138676190Y-110307380D01*
X139438095Y-110307380D02*
X139438095Y-109640714D01*
X139438095Y-109831190D02*
X139485714Y-109735952D01*
X139533333Y-109688333D01*
X139628571Y-109640714D01*
X139723809Y-109640714D01*
X139914285Y-109640714D02*
X140295238Y-109640714D01*
X140057142Y-109307380D02*
X140057142Y-110164523D01*
X140104761Y-110259761D01*
X140200000Y-110307380D01*
X140295238Y-110307380D01*
X141914285Y-110307380D02*
X141342857Y-110307380D01*
X141628571Y-110307380D02*
X141628571Y-109307380D01*
X141533333Y-109450238D01*
X141438095Y-109545476D01*
X141342857Y-109593095D01*
D12*
X126415952Y-74783904D02*
X126415952Y-73983904D01*
X126720714Y-73983904D01*
X126796904Y-74022000D01*
X126835000Y-74060095D01*
X126873095Y-74136285D01*
X126873095Y-74250571D01*
X126835000Y-74326761D01*
X126796904Y-74364857D01*
X126720714Y-74402952D01*
X126415952Y-74402952D01*
X127596904Y-74783904D02*
X127215952Y-74783904D01*
X127215952Y-73983904D01*
X127825476Y-74555333D02*
X128206428Y-74555333D01*
X127749285Y-74783904D02*
X128015952Y-73983904D01*
X128282619Y-74783904D01*
X128701666Y-74402952D02*
X128701666Y-74783904D01*
X128435000Y-73983904D02*
X128701666Y-74402952D01*
X128968333Y-73983904D01*
X126568333Y-79063809D02*
X126682619Y-79101904D01*
X126873095Y-79101904D01*
X126949285Y-79063809D01*
X126987380Y-79025714D01*
X127025476Y-78949523D01*
X127025476Y-78873333D01*
X126987380Y-78797142D01*
X126949285Y-78759047D01*
X126873095Y-78720952D01*
X126720714Y-78682857D01*
X126644523Y-78644761D01*
X126606428Y-78606666D01*
X126568333Y-78530476D01*
X126568333Y-78454285D01*
X126606428Y-78378095D01*
X126644523Y-78340000D01*
X126720714Y-78301904D01*
X126911190Y-78301904D01*
X127025476Y-78340000D01*
X127292142Y-78301904D02*
X127482619Y-79101904D01*
X127635000Y-78530476D01*
X127787380Y-79101904D01*
X127977857Y-78301904D01*
X128701666Y-79101904D02*
X128244523Y-79101904D01*
X128473095Y-79101904D02*
X128473095Y-78301904D01*
X128396904Y-78416190D01*
X128320714Y-78492380D01*
X128244523Y-78530476D01*
X142106666Y-91166904D02*
X141840000Y-90785952D01*
X141649523Y-91166904D02*
X141649523Y-90366904D01*
X141954285Y-90366904D01*
X142030476Y-90405000D01*
X142068571Y-90443095D01*
X142106666Y-90519285D01*
X142106666Y-90633571D01*
X142068571Y-90709761D01*
X142030476Y-90747857D01*
X141954285Y-90785952D01*
X141649523Y-90785952D01*
X142411428Y-90443095D02*
X142449523Y-90405000D01*
X142525714Y-90366904D01*
X142716190Y-90366904D01*
X142792380Y-90405000D01*
X142830476Y-90443095D01*
X142868571Y-90519285D01*
X142868571Y-90595476D01*
X142830476Y-90709761D01*
X142373333Y-91166904D01*
X142868571Y-91166904D01*
X142601904Y-94456190D02*
X142601904Y-94913333D01*
X142601904Y-94684761D02*
X141801904Y-94684761D01*
X141916190Y-94760952D01*
X141992380Y-94837142D01*
X142030476Y-94913333D01*
X141801904Y-93960952D02*
X141801904Y-93884761D01*
X141840000Y-93808571D01*
X141878095Y-93770476D01*
X141954285Y-93732380D01*
X142106666Y-93694285D01*
X142297142Y-93694285D01*
X142449523Y-93732380D01*
X142525714Y-93770476D01*
X142563809Y-93808571D01*
X142601904Y-93884761D01*
X142601904Y-93960952D01*
X142563809Y-94037142D01*
X142525714Y-94075238D01*
X142449523Y-94113333D01*
X142297142Y-94151428D01*
X142106666Y-94151428D01*
X141954285Y-94113333D01*
X141878095Y-94075238D01*
X141840000Y-94037142D01*
X141801904Y-93960952D01*
X142601904Y-93351428D02*
X141801904Y-93351428D01*
X142297142Y-93275238D02*
X142601904Y-93046666D01*
X142068571Y-93046666D02*
X142373333Y-93351428D01*
M02*
