M48
INCH,TZ
T1C0.0157
T2C0.0315
T3C0.0400
T4C0.0433
T5C0.1200
%
G90
G05
T1
X49500Y-32500
X51715Y-35500
X52500Y-36465
X53000Y-36750
X54689Y-42000
X54750Y-33215
X55250Y-33000
X55750Y-42250
X56465Y-35500
X56500Y-38500
X56750Y-36500
X57035Y-36778
X58000Y-33715
X58000Y-36285
X58299Y-33458
X58400Y-41250
X58500Y-36285
X59500Y-38500
X60250Y-40500
X62750Y-32250
X62750Y-34250
X65750Y-33250
T2
X57500Y-35000
X57500Y-38000
X46000Y-39250
X50000Y-39250
X51000Y-39250
X55000Y-39250
X62531Y-30250
X64500Y-30250
X60500Y-35000
X60500Y-38000
X57250Y-33500
X60250Y-33500
X59000Y-35000
X59000Y-38000
X67500Y-32250
X67500Y-34219
X56000Y-39250
X60000Y-39250
X56000Y-35000
X56000Y-38000
X66250Y-37281
X66250Y-39250
X46750Y-32500
X46750Y-33287
X61200Y-39250
X65200Y-39250
X46250Y-35250
X46250Y-37219
X47500Y-34750
X47500Y-37750
X48500Y-34750
X48500Y-37750
X49500Y-34750
X49500Y-37750
X50500Y-34750
X50500Y-37750
X51500Y-34750
X51500Y-37750
X52500Y-34750
X52500Y-37750
X53500Y-34750
X53500Y-37750
X54500Y-34750
X54500Y-37750
X67500Y-35250
X67500Y-39250
X48750Y-33500
X51750Y-33500
X66250Y-32250
X66250Y-36250
X53000Y-33500
X56000Y-33500
X62000Y-31750
X62000Y-32750
X62000Y-33750
X62000Y-34750
X62000Y-35750
X62000Y-36750
X62000Y-37750
X65000Y-31750
X65000Y-32750
X65000Y-33750
X65000Y-34750
X65000Y-35750
X65000Y-36750
X65000Y-37750
T3
X54750Y-30500
X54750Y-31500
X55750Y-30500
X55750Y-31500
X56750Y-30500
X56750Y-31500
X57750Y-30500
X57750Y-31500
X58750Y-30500
X58750Y-31500
X59250Y-41500
X59250Y-42500
X60250Y-41500
X60250Y-42500
X61250Y-41500
X61250Y-42500
X62250Y-41500
X62250Y-42500
X63250Y-41500
X63250Y-42500
X50250Y-41500
X50250Y-42500
X51250Y-41500
X51250Y-42500
X52250Y-41500
X52250Y-42500
X53250Y-41500
X53250Y-42500
X54250Y-41500
X54250Y-42500
T4
X48970Y-30114
X48970Y-31886
X51530Y-30114
X51530Y-31886
T5
X66750Y-30500
X66750Y-42500
X46750Y-42500
X46750Y-30494
T0
M30
