G04 #@! TF.GenerationSoftware,KiCad,Pcbnew,(5.1.8)-1*
G04 #@! TF.CreationDate,2022-04-27T21:38:40+02:00*
G04 #@! TF.ProjectId,Amiga CD32,416d6967-6120-4434-9433-322e6b696361,rev?*
G04 #@! TF.SameCoordinates,Original*
G04 #@! TF.FileFunction,Legend,Bot*
G04 #@! TF.FilePolarity,Positive*
%FSLAX46Y46*%
G04 Gerber Fmt 4.6, Leading zero omitted, Abs format (unit mm)*
G04 Created by KiCad (PCBNEW (5.1.8)-1) date 2022-04-27 21:38:40*
%MOMM*%
%LPD*%
G01*
G04 APERTURE LIST*
%ADD10C,0.100000*%
%ADD11C,0.010000*%
G04 APERTURE END LIST*
D10*
X148145000Y-106391904D02*
X148525952Y-106391904D01*
X148525952Y-105591904D01*
X147878333Y-106391904D02*
X147878333Y-105858571D01*
X147878333Y-105591904D02*
X147916428Y-105630000D01*
X147878333Y-105668095D01*
X147840238Y-105630000D01*
X147878333Y-105591904D01*
X147878333Y-105668095D01*
X147154523Y-106353809D02*
X147230714Y-106391904D01*
X147383095Y-106391904D01*
X147459285Y-106353809D01*
X147497380Y-106315714D01*
X147535476Y-106239523D01*
X147535476Y-106010952D01*
X147497380Y-105934761D01*
X147459285Y-105896666D01*
X147383095Y-105858571D01*
X147230714Y-105858571D01*
X147154523Y-105896666D01*
X146506904Y-106353809D02*
X146583095Y-106391904D01*
X146735476Y-106391904D01*
X146811666Y-106353809D01*
X146849761Y-106277619D01*
X146849761Y-105972857D01*
X146811666Y-105896666D01*
X146735476Y-105858571D01*
X146583095Y-105858571D01*
X146506904Y-105896666D01*
X146468809Y-105972857D01*
X146468809Y-106049047D01*
X146849761Y-106125238D01*
X146125952Y-105858571D02*
X146125952Y-106391904D01*
X146125952Y-105934761D02*
X146087857Y-105896666D01*
X146011666Y-105858571D01*
X145897380Y-105858571D01*
X145821190Y-105896666D01*
X145783095Y-105972857D01*
X145783095Y-106391904D01*
X145440238Y-106353809D02*
X145364047Y-106391904D01*
X145211666Y-106391904D01*
X145135476Y-106353809D01*
X145097380Y-106277619D01*
X145097380Y-106239523D01*
X145135476Y-106163333D01*
X145211666Y-106125238D01*
X145325952Y-106125238D01*
X145402142Y-106087142D01*
X145440238Y-106010952D01*
X145440238Y-105972857D01*
X145402142Y-105896666D01*
X145325952Y-105858571D01*
X145211666Y-105858571D01*
X145135476Y-105896666D01*
X144449761Y-106353809D02*
X144525952Y-106391904D01*
X144678333Y-106391904D01*
X144754523Y-106353809D01*
X144792619Y-106277619D01*
X144792619Y-105972857D01*
X144754523Y-105896666D01*
X144678333Y-105858571D01*
X144525952Y-105858571D01*
X144449761Y-105896666D01*
X144411666Y-105972857D01*
X144411666Y-106049047D01*
X144792619Y-106125238D01*
X143725952Y-106391904D02*
X143725952Y-105591904D01*
X143725952Y-106353809D02*
X143802142Y-106391904D01*
X143954523Y-106391904D01*
X144030714Y-106353809D01*
X144068809Y-106315714D01*
X144106904Y-106239523D01*
X144106904Y-106010952D01*
X144068809Y-105934761D01*
X144030714Y-105896666D01*
X143954523Y-105858571D01*
X143802142Y-105858571D01*
X143725952Y-105896666D01*
X142392619Y-105858571D02*
X142392619Y-106391904D01*
X142735476Y-105858571D02*
X142735476Y-106277619D01*
X142697380Y-106353809D01*
X142621190Y-106391904D01*
X142506904Y-106391904D01*
X142430714Y-106353809D01*
X142392619Y-106315714D01*
X142011666Y-105858571D02*
X142011666Y-106391904D01*
X142011666Y-105934761D02*
X141973571Y-105896666D01*
X141897380Y-105858571D01*
X141783095Y-105858571D01*
X141706904Y-105896666D01*
X141668809Y-105972857D01*
X141668809Y-106391904D01*
X140945000Y-106391904D02*
X140945000Y-105591904D01*
X140945000Y-106353809D02*
X141021190Y-106391904D01*
X141173571Y-106391904D01*
X141249761Y-106353809D01*
X141287857Y-106315714D01*
X141325952Y-106239523D01*
X141325952Y-106010952D01*
X141287857Y-105934761D01*
X141249761Y-105896666D01*
X141173571Y-105858571D01*
X141021190Y-105858571D01*
X140945000Y-105896666D01*
X140259285Y-106353809D02*
X140335476Y-106391904D01*
X140487857Y-106391904D01*
X140564047Y-106353809D01*
X140602142Y-106277619D01*
X140602142Y-105972857D01*
X140564047Y-105896666D01*
X140487857Y-105858571D01*
X140335476Y-105858571D01*
X140259285Y-105896666D01*
X140221190Y-105972857D01*
X140221190Y-106049047D01*
X140602142Y-106125238D01*
X139878333Y-106391904D02*
X139878333Y-105858571D01*
X139878333Y-106010952D02*
X139840238Y-105934761D01*
X139802142Y-105896666D01*
X139725952Y-105858571D01*
X139649761Y-105858571D01*
X148106904Y-107615714D02*
X148145000Y-107653809D01*
X148259285Y-107691904D01*
X148335476Y-107691904D01*
X148449761Y-107653809D01*
X148525952Y-107577619D01*
X148564047Y-107501428D01*
X148602142Y-107349047D01*
X148602142Y-107234761D01*
X148564047Y-107082380D01*
X148525952Y-107006190D01*
X148449761Y-106930000D01*
X148335476Y-106891904D01*
X148259285Y-106891904D01*
X148145000Y-106930000D01*
X148106904Y-106968095D01*
X147764047Y-107272857D02*
X147497380Y-107272857D01*
X147383095Y-107691904D02*
X147764047Y-107691904D01*
X147764047Y-106891904D01*
X147383095Y-106891904D01*
X146583095Y-107691904D02*
X146849761Y-107310952D01*
X147040238Y-107691904D02*
X147040238Y-106891904D01*
X146735476Y-106891904D01*
X146659285Y-106930000D01*
X146621190Y-106968095D01*
X146583095Y-107044285D01*
X146583095Y-107158571D01*
X146621190Y-107234761D01*
X146659285Y-107272857D01*
X146735476Y-107310952D01*
X147040238Y-107310952D01*
X146240238Y-107691904D02*
X146240238Y-106891904D01*
X145783095Y-107691904D01*
X145783095Y-106891904D01*
X144640238Y-106891904D02*
X144487857Y-106891904D01*
X144411666Y-106930000D01*
X144335476Y-107006190D01*
X144297380Y-107158571D01*
X144297380Y-107425238D01*
X144335476Y-107577619D01*
X144411666Y-107653809D01*
X144487857Y-107691904D01*
X144640238Y-107691904D01*
X144716428Y-107653809D01*
X144792619Y-107577619D01*
X144830714Y-107425238D01*
X144830714Y-107158571D01*
X144792619Y-107006190D01*
X144716428Y-106930000D01*
X144640238Y-106891904D01*
X143954523Y-107691904D02*
X143954523Y-106891904D01*
X143954523Y-107272857D02*
X143497380Y-107272857D01*
X143497380Y-107691904D02*
X143497380Y-106891904D01*
X142735476Y-107691904D02*
X143116428Y-107691904D01*
X143116428Y-106891904D01*
X141935476Y-107158571D02*
X141745000Y-107691904D01*
X141554523Y-107158571D01*
X140830714Y-107691904D02*
X141287857Y-107691904D01*
X141059285Y-107691904D02*
X141059285Y-106891904D01*
X141135476Y-107006190D01*
X141211666Y-107082380D01*
X141287857Y-107120476D01*
X140487857Y-107615714D02*
X140449761Y-107653809D01*
X140487857Y-107691904D01*
X140525952Y-107653809D01*
X140487857Y-107615714D01*
X140487857Y-107691904D01*
X140145000Y-106968095D02*
X140106904Y-106930000D01*
X140030714Y-106891904D01*
X139840238Y-106891904D01*
X139764047Y-106930000D01*
X139725952Y-106968095D01*
X139687857Y-107044285D01*
X139687857Y-107120476D01*
X139725952Y-107234761D01*
X140183095Y-107691904D01*
X139687857Y-107691904D01*
X149663095Y-103892142D02*
X149091666Y-103892142D01*
X148977380Y-103930238D01*
X148901190Y-104006428D01*
X148863095Y-104120714D01*
X148863095Y-104196904D01*
X148863095Y-103396904D02*
X148901190Y-103473095D01*
X148939285Y-103511190D01*
X149015476Y-103549285D01*
X149244047Y-103549285D01*
X149320238Y-103511190D01*
X149358333Y-103473095D01*
X149396428Y-103396904D01*
X149396428Y-103282619D01*
X149358333Y-103206428D01*
X149320238Y-103168333D01*
X149244047Y-103130238D01*
X149015476Y-103130238D01*
X148939285Y-103168333D01*
X148901190Y-103206428D01*
X148863095Y-103282619D01*
X148863095Y-103396904D01*
X149396428Y-102863571D02*
X148863095Y-102673095D01*
X149396428Y-102482619D02*
X148863095Y-102673095D01*
X148672619Y-102749285D01*
X148634523Y-102787380D01*
X148596428Y-102863571D01*
X148863095Y-102177857D02*
X149663095Y-102177857D01*
X148863095Y-101720714D02*
X149320238Y-102063571D01*
X149663095Y-101720714D02*
X149205952Y-102177857D01*
X149282142Y-101377857D02*
X149282142Y-101111190D01*
X148863095Y-100996904D02*
X148863095Y-101377857D01*
X149663095Y-101377857D01*
X149663095Y-100996904D01*
X149244047Y-100501666D02*
X148863095Y-100501666D01*
X149663095Y-100768333D02*
X149244047Y-100501666D01*
X149663095Y-100235000D01*
X147432857Y-100877857D02*
X147699523Y-100877857D01*
X147699523Y-101296904D02*
X147699523Y-100496904D01*
X147318571Y-100496904D01*
X147013809Y-101296904D02*
X147013809Y-100496904D01*
X146175714Y-101296904D02*
X146442380Y-100915952D01*
X146632857Y-101296904D02*
X146632857Y-100496904D01*
X146328095Y-100496904D01*
X146251904Y-100535000D01*
X146213809Y-100573095D01*
X146175714Y-100649285D01*
X146175714Y-100763571D01*
X146213809Y-100839761D01*
X146251904Y-100877857D01*
X146328095Y-100915952D01*
X146632857Y-100915952D01*
X145832857Y-100877857D02*
X145566190Y-100877857D01*
X145451904Y-101296904D02*
X145832857Y-101296904D01*
X145832857Y-100496904D01*
X145451904Y-100496904D01*
X145185238Y-100496904D02*
X144690000Y-100496904D01*
X144956666Y-100801666D01*
X144842380Y-100801666D01*
X144766190Y-100839761D01*
X144728095Y-100877857D01*
X144690000Y-100954047D01*
X144690000Y-101144523D01*
X144728095Y-101220714D01*
X144766190Y-101258809D01*
X144842380Y-101296904D01*
X145070952Y-101296904D01*
X145147142Y-101258809D01*
X145185238Y-101220714D01*
X144537619Y-101373095D02*
X143928095Y-101373095D01*
X143775714Y-101258809D02*
X143661428Y-101296904D01*
X143470952Y-101296904D01*
X143394761Y-101258809D01*
X143356666Y-101220714D01*
X143318571Y-101144523D01*
X143318571Y-101068333D01*
X143356666Y-100992142D01*
X143394761Y-100954047D01*
X143470952Y-100915952D01*
X143623333Y-100877857D01*
X143699523Y-100839761D01*
X143737619Y-100801666D01*
X143775714Y-100725476D01*
X143775714Y-100649285D01*
X143737619Y-100573095D01*
X143699523Y-100535000D01*
X143623333Y-100496904D01*
X143432857Y-100496904D01*
X143318571Y-100535000D01*
X142975714Y-100877857D02*
X142709047Y-100877857D01*
X142594761Y-101296904D02*
X142975714Y-101296904D01*
X142975714Y-100496904D01*
X142594761Y-100496904D01*
X141870952Y-101296904D02*
X142251904Y-101296904D01*
X142251904Y-100496904D01*
X140994761Y-101296904D02*
X140994761Y-100496904D01*
X140690000Y-100496904D01*
X140613809Y-100535000D01*
X140575714Y-100573095D01*
X140537619Y-100649285D01*
X140537619Y-100763571D01*
X140575714Y-100839761D01*
X140613809Y-100877857D01*
X140690000Y-100915952D01*
X140994761Y-100915952D01*
X140232857Y-100573095D02*
X140194761Y-100535000D01*
X140118571Y-100496904D01*
X139928095Y-100496904D01*
X139851904Y-100535000D01*
X139813809Y-100573095D01*
X139775714Y-100649285D01*
X139775714Y-100725476D01*
X139813809Y-100839761D01*
X140270952Y-101296904D01*
X139775714Y-101296904D01*
X147432857Y-102177857D02*
X147699523Y-102177857D01*
X147699523Y-102596904D02*
X147699523Y-101796904D01*
X147318571Y-101796904D01*
X147013809Y-102596904D02*
X147013809Y-101796904D01*
X146175714Y-102596904D02*
X146442380Y-102215952D01*
X146632857Y-102596904D02*
X146632857Y-101796904D01*
X146328095Y-101796904D01*
X146251904Y-101835000D01*
X146213809Y-101873095D01*
X146175714Y-101949285D01*
X146175714Y-102063571D01*
X146213809Y-102139761D01*
X146251904Y-102177857D01*
X146328095Y-102215952D01*
X146632857Y-102215952D01*
X145832857Y-102177857D02*
X145566190Y-102177857D01*
X145451904Y-102596904D02*
X145832857Y-102596904D01*
X145832857Y-101796904D01*
X145451904Y-101796904D01*
X145185238Y-101796904D02*
X144690000Y-101796904D01*
X144956666Y-102101666D01*
X144842380Y-102101666D01*
X144766190Y-102139761D01*
X144728095Y-102177857D01*
X144690000Y-102254047D01*
X144690000Y-102444523D01*
X144728095Y-102520714D01*
X144766190Y-102558809D01*
X144842380Y-102596904D01*
X145070952Y-102596904D01*
X145147142Y-102558809D01*
X145185238Y-102520714D01*
X144537619Y-102673095D02*
X143928095Y-102673095D01*
X143737619Y-102596904D02*
X143737619Y-101796904D01*
X143432857Y-101796904D01*
X143356666Y-101835000D01*
X143318571Y-101873095D01*
X143280476Y-101949285D01*
X143280476Y-102063571D01*
X143318571Y-102139761D01*
X143356666Y-102177857D01*
X143432857Y-102215952D01*
X143737619Y-102215952D01*
X142785238Y-101796904D02*
X142632857Y-101796904D01*
X142556666Y-101835000D01*
X142480476Y-101911190D01*
X142442380Y-102063571D01*
X142442380Y-102330238D01*
X142480476Y-102482619D01*
X142556666Y-102558809D01*
X142632857Y-102596904D01*
X142785238Y-102596904D01*
X142861428Y-102558809D01*
X142937619Y-102482619D01*
X142975714Y-102330238D01*
X142975714Y-102063571D01*
X142937619Y-101911190D01*
X142861428Y-101835000D01*
X142785238Y-101796904D01*
X141718571Y-102596904D02*
X142099523Y-102596904D01*
X142099523Y-101796904D01*
X140423333Y-101835000D02*
X140499523Y-101796904D01*
X140613809Y-101796904D01*
X140728095Y-101835000D01*
X140804285Y-101911190D01*
X140842380Y-101987380D01*
X140880476Y-102139761D01*
X140880476Y-102254047D01*
X140842380Y-102406428D01*
X140804285Y-102482619D01*
X140728095Y-102558809D01*
X140613809Y-102596904D01*
X140537619Y-102596904D01*
X140423333Y-102558809D01*
X140385238Y-102520714D01*
X140385238Y-102254047D01*
X140537619Y-102254047D01*
X140042380Y-102596904D02*
X140042380Y-101796904D01*
X139585238Y-102596904D01*
X139585238Y-101796904D01*
X139204285Y-102596904D02*
X139204285Y-101796904D01*
X139013809Y-101796904D01*
X138899523Y-101835000D01*
X138823333Y-101911190D01*
X138785238Y-101987380D01*
X138747142Y-102139761D01*
X138747142Y-102254047D01*
X138785238Y-102406428D01*
X138823333Y-102482619D01*
X138899523Y-102558809D01*
X139013809Y-102596904D01*
X139204285Y-102596904D01*
X147432857Y-103477857D02*
X147699523Y-103477857D01*
X147699523Y-103896904D02*
X147699523Y-103096904D01*
X147318571Y-103096904D01*
X147013809Y-103896904D02*
X147013809Y-103096904D01*
X146175714Y-103896904D02*
X146442380Y-103515952D01*
X146632857Y-103896904D02*
X146632857Y-103096904D01*
X146328095Y-103096904D01*
X146251904Y-103135000D01*
X146213809Y-103173095D01*
X146175714Y-103249285D01*
X146175714Y-103363571D01*
X146213809Y-103439761D01*
X146251904Y-103477857D01*
X146328095Y-103515952D01*
X146632857Y-103515952D01*
X145832857Y-103477857D02*
X145566190Y-103477857D01*
X145451904Y-103896904D02*
X145832857Y-103896904D01*
X145832857Y-103096904D01*
X145451904Y-103096904D01*
X145147142Y-103173095D02*
X145109047Y-103135000D01*
X145032857Y-103096904D01*
X144842380Y-103096904D01*
X144766190Y-103135000D01*
X144728095Y-103173095D01*
X144690000Y-103249285D01*
X144690000Y-103325476D01*
X144728095Y-103439761D01*
X145185238Y-103896904D01*
X144690000Y-103896904D01*
X144537619Y-103973095D02*
X143928095Y-103973095D01*
X143737619Y-103896904D02*
X143737619Y-103096904D01*
X143432857Y-103096904D01*
X143356666Y-103135000D01*
X143318571Y-103173095D01*
X143280476Y-103249285D01*
X143280476Y-103363571D01*
X143318571Y-103439761D01*
X143356666Y-103477857D01*
X143432857Y-103515952D01*
X143737619Y-103515952D01*
X142785238Y-103096904D02*
X142632857Y-103096904D01*
X142556666Y-103135000D01*
X142480476Y-103211190D01*
X142442380Y-103363571D01*
X142442380Y-103630238D01*
X142480476Y-103782619D01*
X142556666Y-103858809D01*
X142632857Y-103896904D01*
X142785238Y-103896904D01*
X142861428Y-103858809D01*
X142937619Y-103782619D01*
X142975714Y-103630238D01*
X142975714Y-103363571D01*
X142937619Y-103211190D01*
X142861428Y-103135000D01*
X142785238Y-103096904D01*
X141718571Y-103896904D02*
X142099523Y-103896904D01*
X142099523Y-103096904D01*
X140423333Y-103135000D02*
X140499523Y-103096904D01*
X140613809Y-103096904D01*
X140728095Y-103135000D01*
X140804285Y-103211190D01*
X140842380Y-103287380D01*
X140880476Y-103439761D01*
X140880476Y-103554047D01*
X140842380Y-103706428D01*
X140804285Y-103782619D01*
X140728095Y-103858809D01*
X140613809Y-103896904D01*
X140537619Y-103896904D01*
X140423333Y-103858809D01*
X140385238Y-103820714D01*
X140385238Y-103554047D01*
X140537619Y-103554047D01*
X140042380Y-103896904D02*
X140042380Y-103096904D01*
X139585238Y-103896904D01*
X139585238Y-103096904D01*
X139204285Y-103896904D02*
X139204285Y-103096904D01*
X139013809Y-103096904D01*
X138899523Y-103135000D01*
X138823333Y-103211190D01*
X138785238Y-103287380D01*
X138747142Y-103439761D01*
X138747142Y-103554047D01*
X138785238Y-103706428D01*
X138823333Y-103782619D01*
X138899523Y-103858809D01*
X139013809Y-103896904D01*
X139204285Y-103896904D01*
X133044761Y-91558333D02*
X132663809Y-91558333D01*
X133120952Y-91786904D02*
X132854285Y-90986904D01*
X132587619Y-91786904D01*
X132320952Y-91786904D02*
X132320952Y-91253571D01*
X132320952Y-91329761D02*
X132282857Y-91291666D01*
X132206666Y-91253571D01*
X132092380Y-91253571D01*
X132016190Y-91291666D01*
X131978095Y-91367857D01*
X131978095Y-91786904D01*
X131978095Y-91367857D02*
X131940000Y-91291666D01*
X131863809Y-91253571D01*
X131749523Y-91253571D01*
X131673333Y-91291666D01*
X131635238Y-91367857D01*
X131635238Y-91786904D01*
X131254285Y-91786904D02*
X131254285Y-91253571D01*
X131254285Y-90986904D02*
X131292380Y-91025000D01*
X131254285Y-91063095D01*
X131216190Y-91025000D01*
X131254285Y-90986904D01*
X131254285Y-91063095D01*
X130530476Y-91253571D02*
X130530476Y-91901190D01*
X130568571Y-91977380D01*
X130606666Y-92015476D01*
X130682857Y-92053571D01*
X130797142Y-92053571D01*
X130873333Y-92015476D01*
X130530476Y-91748809D02*
X130606666Y-91786904D01*
X130759047Y-91786904D01*
X130835238Y-91748809D01*
X130873333Y-91710714D01*
X130911428Y-91634523D01*
X130911428Y-91405952D01*
X130873333Y-91329761D01*
X130835238Y-91291666D01*
X130759047Y-91253571D01*
X130606666Y-91253571D01*
X130530476Y-91291666D01*
X129806666Y-91786904D02*
X129806666Y-91367857D01*
X129844761Y-91291666D01*
X129920952Y-91253571D01*
X130073333Y-91253571D01*
X130149523Y-91291666D01*
X129806666Y-91748809D02*
X129882857Y-91786904D01*
X130073333Y-91786904D01*
X130149523Y-91748809D01*
X130187619Y-91672619D01*
X130187619Y-91596428D01*
X130149523Y-91520238D01*
X130073333Y-91482142D01*
X129882857Y-91482142D01*
X129806666Y-91444047D01*
X128359047Y-91710714D02*
X128397142Y-91748809D01*
X128511428Y-91786904D01*
X128587619Y-91786904D01*
X128701904Y-91748809D01*
X128778095Y-91672619D01*
X128816190Y-91596428D01*
X128854285Y-91444047D01*
X128854285Y-91329761D01*
X128816190Y-91177380D01*
X128778095Y-91101190D01*
X128701904Y-91025000D01*
X128587619Y-90986904D01*
X128511428Y-90986904D01*
X128397142Y-91025000D01*
X128359047Y-91063095D01*
X128016190Y-91786904D02*
X128016190Y-90986904D01*
X127825714Y-90986904D01*
X127711428Y-91025000D01*
X127635238Y-91101190D01*
X127597142Y-91177380D01*
X127559047Y-91329761D01*
X127559047Y-91444047D01*
X127597142Y-91596428D01*
X127635238Y-91672619D01*
X127711428Y-91748809D01*
X127825714Y-91786904D01*
X128016190Y-91786904D01*
X127292380Y-90986904D02*
X126797142Y-90986904D01*
X127063809Y-91291666D01*
X126949523Y-91291666D01*
X126873333Y-91329761D01*
X126835238Y-91367857D01*
X126797142Y-91444047D01*
X126797142Y-91634523D01*
X126835238Y-91710714D01*
X126873333Y-91748809D01*
X126949523Y-91786904D01*
X127178095Y-91786904D01*
X127254285Y-91748809D01*
X127292380Y-91710714D01*
X126492380Y-91063095D02*
X126454285Y-91025000D01*
X126378095Y-90986904D01*
X126187619Y-90986904D01*
X126111428Y-91025000D01*
X126073333Y-91063095D01*
X126035238Y-91139285D01*
X126035238Y-91215476D01*
X126073333Y-91329761D01*
X126530476Y-91786904D01*
X126035238Y-91786904D01*
X133863809Y-92553571D02*
X133863809Y-93201190D01*
X133901904Y-93277380D01*
X133940000Y-93315476D01*
X134016190Y-93353571D01*
X134130476Y-93353571D01*
X134206666Y-93315476D01*
X133863809Y-93048809D02*
X133940000Y-93086904D01*
X134092380Y-93086904D01*
X134168571Y-93048809D01*
X134206666Y-93010714D01*
X134244761Y-92934523D01*
X134244761Y-92705952D01*
X134206666Y-92629761D01*
X134168571Y-92591666D01*
X134092380Y-92553571D01*
X133940000Y-92553571D01*
X133863809Y-92591666D01*
X133482857Y-93086904D02*
X133482857Y-92553571D01*
X133482857Y-92286904D02*
X133520952Y-92325000D01*
X133482857Y-92363095D01*
X133444761Y-92325000D01*
X133482857Y-92286904D01*
X133482857Y-92363095D01*
X133216190Y-92553571D02*
X132911428Y-92553571D01*
X133101904Y-92286904D02*
X133101904Y-92972619D01*
X133063809Y-93048809D01*
X132987619Y-93086904D01*
X132911428Y-93086904D01*
X132644761Y-93086904D02*
X132644761Y-92286904D01*
X132301904Y-93086904D02*
X132301904Y-92667857D01*
X132340000Y-92591666D01*
X132416190Y-92553571D01*
X132530476Y-92553571D01*
X132606666Y-92591666D01*
X132644761Y-92629761D01*
X131578095Y-92553571D02*
X131578095Y-93086904D01*
X131920952Y-92553571D02*
X131920952Y-92972619D01*
X131882857Y-93048809D01*
X131806666Y-93086904D01*
X131692380Y-93086904D01*
X131616190Y-93048809D01*
X131578095Y-93010714D01*
X131197142Y-93086904D02*
X131197142Y-92286904D01*
X131197142Y-92591666D02*
X131120952Y-92553571D01*
X130968571Y-92553571D01*
X130892380Y-92591666D01*
X130854285Y-92629761D01*
X130816190Y-92705952D01*
X130816190Y-92934523D01*
X130854285Y-93010714D01*
X130892380Y-93048809D01*
X130968571Y-93086904D01*
X131120952Y-93086904D01*
X131197142Y-93048809D01*
X130473333Y-93010714D02*
X130435238Y-93048809D01*
X130473333Y-93086904D01*
X130511428Y-93048809D01*
X130473333Y-93010714D01*
X130473333Y-93086904D01*
X129749523Y-93048809D02*
X129825714Y-93086904D01*
X129978095Y-93086904D01*
X130054285Y-93048809D01*
X130092380Y-93010714D01*
X130130476Y-92934523D01*
X130130476Y-92705952D01*
X130092380Y-92629761D01*
X130054285Y-92591666D01*
X129978095Y-92553571D01*
X129825714Y-92553571D01*
X129749523Y-92591666D01*
X129292380Y-93086904D02*
X129368571Y-93048809D01*
X129406666Y-93010714D01*
X129444761Y-92934523D01*
X129444761Y-92705952D01*
X129406666Y-92629761D01*
X129368571Y-92591666D01*
X129292380Y-92553571D01*
X129178095Y-92553571D01*
X129101904Y-92591666D01*
X129063809Y-92629761D01*
X129025714Y-92705952D01*
X129025714Y-92934523D01*
X129063809Y-93010714D01*
X129101904Y-93048809D01*
X129178095Y-93086904D01*
X129292380Y-93086904D01*
X128682857Y-93086904D02*
X128682857Y-92553571D01*
X128682857Y-92629761D02*
X128644761Y-92591666D01*
X128568571Y-92553571D01*
X128454285Y-92553571D01*
X128378095Y-92591666D01*
X128340000Y-92667857D01*
X128340000Y-93086904D01*
X128340000Y-92667857D02*
X128301904Y-92591666D01*
X128225714Y-92553571D01*
X128111428Y-92553571D01*
X128035238Y-92591666D01*
X127997142Y-92667857D01*
X127997142Y-93086904D01*
X127044761Y-92248809D02*
X127730476Y-93277380D01*
X126892380Y-92553571D02*
X126587619Y-92553571D01*
X126778095Y-92286904D02*
X126778095Y-92972619D01*
X126740000Y-93048809D01*
X126663809Y-93086904D01*
X126587619Y-93086904D01*
X126016190Y-93048809D02*
X126092380Y-93086904D01*
X126244761Y-93086904D01*
X126320952Y-93048809D01*
X126359047Y-92972619D01*
X126359047Y-92667857D01*
X126320952Y-92591666D01*
X126244761Y-92553571D01*
X126092380Y-92553571D01*
X126016190Y-92591666D01*
X125978095Y-92667857D01*
X125978095Y-92744047D01*
X126359047Y-92820238D01*
X125635238Y-93086904D02*
X125635238Y-92286904D01*
X125635238Y-92591666D02*
X125559047Y-92553571D01*
X125406666Y-92553571D01*
X125330476Y-92591666D01*
X125292380Y-92629761D01*
X125254285Y-92705952D01*
X125254285Y-92934523D01*
X125292380Y-93010714D01*
X125330476Y-93048809D01*
X125406666Y-93086904D01*
X125559047Y-93086904D01*
X125635238Y-93048809D01*
X124797142Y-93086904D02*
X124873333Y-93048809D01*
X124911428Y-92972619D01*
X124911428Y-92286904D01*
D11*
G36*
X149683802Y-94541012D02*
G01*
X148870189Y-94541012D01*
X148870189Y-93320592D01*
X148056575Y-93320592D01*
X148056575Y-94947819D01*
X148463382Y-94947819D01*
X148463382Y-95354626D01*
X148870189Y-95354626D01*
X148870189Y-95761433D01*
X150497416Y-95761433D01*
X150497416Y-95354626D01*
X149276995Y-95354626D01*
X149276995Y-94947819D01*
X150090609Y-94947819D01*
X150090609Y-94541012D01*
X150497416Y-94541012D01*
X150497416Y-93320592D01*
X149683802Y-93320592D01*
X149683802Y-94541012D01*
G37*
X149683802Y-94541012D02*
X148870189Y-94541012D01*
X148870189Y-93320592D01*
X148056575Y-93320592D01*
X148056575Y-94947819D01*
X148463382Y-94947819D01*
X148463382Y-95354626D01*
X148870189Y-95354626D01*
X148870189Y-95761433D01*
X150497416Y-95761433D01*
X150497416Y-95354626D01*
X149276995Y-95354626D01*
X149276995Y-94947819D01*
X150090609Y-94947819D01*
X150090609Y-94541012D01*
X150497416Y-94541012D01*
X150497416Y-93320592D01*
X149683802Y-93320592D01*
X149683802Y-94541012D01*
G36*
X153751870Y-92913785D02*
G01*
X154158677Y-92913785D01*
X154158677Y-94947819D01*
X154565484Y-94947819D01*
X154565484Y-95354626D01*
X155785904Y-95354626D01*
X155785904Y-94947819D01*
X156192711Y-94947819D01*
X156192711Y-94541012D01*
X155379097Y-94541012D01*
X155379097Y-94947819D01*
X154972291Y-94947819D01*
X154972291Y-92913785D01*
X155379097Y-92913785D01*
X155379097Y-92506978D01*
X153751870Y-92506978D01*
X153751870Y-92913785D01*
G37*
X153751870Y-92913785D02*
X154158677Y-92913785D01*
X154158677Y-94947819D01*
X154565484Y-94947819D01*
X154565484Y-95354626D01*
X155785904Y-95354626D01*
X155785904Y-94947819D01*
X156192711Y-94947819D01*
X156192711Y-94541012D01*
X155379097Y-94541012D01*
X155379097Y-94947819D01*
X154972291Y-94947819D01*
X154972291Y-92913785D01*
X155379097Y-92913785D01*
X155379097Y-92506978D01*
X153751870Y-92506978D01*
X153751870Y-92913785D01*
G36*
X151311029Y-93727399D02*
G01*
X150904223Y-93727399D01*
X150904223Y-94947819D01*
X151311029Y-94947819D01*
X151311029Y-95354626D01*
X152938257Y-95354626D01*
X152938257Y-94947819D01*
X153345063Y-94947819D01*
X153345063Y-93727399D01*
X152938257Y-93727399D01*
X152531450Y-93727399D01*
X152531450Y-94947819D01*
X151717836Y-94947819D01*
X151717836Y-93727399D01*
X152531450Y-93727399D01*
X152938257Y-93727399D01*
X152938257Y-93320592D01*
X151311029Y-93320592D01*
X151311029Y-93727399D01*
G37*
X151311029Y-93727399D02*
X150904223Y-93727399D01*
X150904223Y-94947819D01*
X151311029Y-94947819D01*
X151311029Y-95354626D01*
X152938257Y-95354626D01*
X152938257Y-94947819D01*
X153345063Y-94947819D01*
X153345063Y-93727399D01*
X152938257Y-93727399D01*
X152531450Y-93727399D01*
X152531450Y-94947819D01*
X151717836Y-94947819D01*
X151717836Y-93727399D01*
X152531450Y-93727399D01*
X152938257Y-93727399D01*
X152938257Y-93320592D01*
X151311029Y-93320592D01*
X151311029Y-93727399D01*
G36*
X146836154Y-93320592D02*
G01*
X146429348Y-93320592D01*
X146429348Y-92913785D01*
X146022541Y-92913785D01*
X146022541Y-92506978D01*
X145208927Y-92506978D01*
X145208927Y-92913785D01*
X145615734Y-92913785D01*
X145615734Y-93320592D01*
X146022541Y-93320592D01*
X146022541Y-93727399D01*
X146429348Y-93727399D01*
X146429348Y-94134206D01*
X146022541Y-94134206D01*
X146022541Y-94541012D01*
X145615734Y-94541012D01*
X145615734Y-94947819D01*
X145208927Y-94947819D01*
X145208927Y-95354626D01*
X146022541Y-95354626D01*
X146022541Y-94947819D01*
X146429348Y-94947819D01*
X146429348Y-94541012D01*
X146836154Y-94541012D01*
X146836154Y-95354626D01*
X147649768Y-95354626D01*
X147649768Y-92506978D01*
X146836154Y-92506978D01*
X146836154Y-93320592D01*
G37*
X146836154Y-93320592D02*
X146429348Y-93320592D01*
X146429348Y-92913785D01*
X146022541Y-92913785D01*
X146022541Y-92506978D01*
X145208927Y-92506978D01*
X145208927Y-92913785D01*
X145615734Y-92913785D01*
X145615734Y-93320592D01*
X146022541Y-93320592D01*
X146022541Y-93727399D01*
X146429348Y-93727399D01*
X146429348Y-94134206D01*
X146022541Y-94134206D01*
X146022541Y-94541012D01*
X145615734Y-94541012D01*
X145615734Y-94947819D01*
X145208927Y-94947819D01*
X145208927Y-95354626D01*
X146022541Y-95354626D01*
X146022541Y-94947819D01*
X146429348Y-94947819D01*
X146429348Y-94541012D01*
X146836154Y-94541012D01*
X146836154Y-95354626D01*
X147649768Y-95354626D01*
X147649768Y-92506978D01*
X146836154Y-92506978D01*
X146836154Y-93320592D01*
G36*
X142361280Y-92913785D02*
G01*
X143988507Y-92913785D01*
X143988507Y-93727399D01*
X143174893Y-93727399D01*
X143174893Y-94134206D01*
X143988507Y-94134206D01*
X143988507Y-94947819D01*
X142361280Y-94947819D01*
X142361280Y-95354626D01*
X144802120Y-95354626D01*
X144802120Y-92506978D01*
X142361280Y-92506978D01*
X142361280Y-92913785D01*
G37*
X142361280Y-92913785D02*
X143988507Y-92913785D01*
X143988507Y-93727399D01*
X143174893Y-93727399D01*
X143174893Y-94134206D01*
X143988507Y-94134206D01*
X143988507Y-94947819D01*
X142361280Y-94947819D01*
X142361280Y-95354626D01*
X144802120Y-95354626D01*
X144802120Y-92506978D01*
X142361280Y-92506978D01*
X142361280Y-92913785D01*
G36*
X141140859Y-93727399D02*
G01*
X140327246Y-93727399D01*
X140327246Y-92506978D01*
X139513632Y-92506978D01*
X139513632Y-93727399D01*
X139920439Y-93727399D01*
X139920439Y-94134206D01*
X140327246Y-94134206D01*
X140327246Y-95354626D01*
X141140859Y-95354626D01*
X141140859Y-94134206D01*
X141547666Y-94134206D01*
X141547666Y-93727399D01*
X141954473Y-93727399D01*
X141954473Y-92506978D01*
X141140859Y-92506978D01*
X141140859Y-93727399D01*
G37*
X141140859Y-93727399D02*
X140327246Y-93727399D01*
X140327246Y-92506978D01*
X139513632Y-92506978D01*
X139513632Y-93727399D01*
X139920439Y-93727399D01*
X139920439Y-94134206D01*
X140327246Y-94134206D01*
X140327246Y-95354626D01*
X141140859Y-95354626D01*
X141140859Y-94134206D01*
X141547666Y-94134206D01*
X141547666Y-93727399D01*
X141954473Y-93727399D01*
X141954473Y-92506978D01*
X141140859Y-92506978D01*
X141140859Y-93727399D01*
G36*
X150090609Y-89659331D02*
G01*
X149683802Y-89659331D01*
X149683802Y-90066137D01*
X150497416Y-90066137D01*
X150497416Y-89659331D01*
X151311029Y-89659331D01*
X151311029Y-91693365D01*
X150497416Y-91693365D01*
X150497416Y-91286558D01*
X149683802Y-91286558D01*
X149683802Y-91693365D01*
X150090609Y-91693365D01*
X150090609Y-92100171D01*
X151717836Y-92100171D01*
X151717836Y-91693365D01*
X152124643Y-91693365D01*
X152124643Y-89659331D01*
X151717836Y-89659331D01*
X151717836Y-89252524D01*
X150090609Y-89252524D01*
X150090609Y-89659331D01*
G37*
X150090609Y-89659331D02*
X149683802Y-89659331D01*
X149683802Y-90066137D01*
X150497416Y-90066137D01*
X150497416Y-89659331D01*
X151311029Y-89659331D01*
X151311029Y-91693365D01*
X150497416Y-91693365D01*
X150497416Y-91286558D01*
X149683802Y-91286558D01*
X149683802Y-91693365D01*
X150090609Y-91693365D01*
X150090609Y-92100171D01*
X151717836Y-92100171D01*
X151717836Y-91693365D01*
X152124643Y-91693365D01*
X152124643Y-89659331D01*
X151717836Y-89659331D01*
X151717836Y-89252524D01*
X150090609Y-89252524D01*
X150090609Y-89659331D01*
G36*
X147242961Y-89659331D02*
G01*
X146836154Y-89659331D01*
X146836154Y-90066137D01*
X147649768Y-90066137D01*
X147649768Y-89659331D01*
X148463382Y-89659331D01*
X148463382Y-90472944D01*
X147242961Y-90472944D01*
X147242961Y-90879751D01*
X146836154Y-90879751D01*
X146836154Y-91693365D01*
X147242961Y-91693365D01*
X147242961Y-92100171D01*
X148870189Y-92100171D01*
X148870189Y-91693365D01*
X149276995Y-91693365D01*
X149276995Y-90879751D01*
X148463382Y-90879751D01*
X148463382Y-91693365D01*
X147649768Y-91693365D01*
X147649768Y-90879751D01*
X148463382Y-90879751D01*
X149276995Y-90879751D01*
X149276995Y-89659331D01*
X148870189Y-89659331D01*
X148870189Y-89252524D01*
X147242961Y-89252524D01*
X147242961Y-89659331D01*
G37*
X147242961Y-89659331D02*
X146836154Y-89659331D01*
X146836154Y-90066137D01*
X147649768Y-90066137D01*
X147649768Y-89659331D01*
X148463382Y-89659331D01*
X148463382Y-90472944D01*
X147242961Y-90472944D01*
X147242961Y-90879751D01*
X146836154Y-90879751D01*
X146836154Y-91693365D01*
X147242961Y-91693365D01*
X147242961Y-92100171D01*
X148870189Y-92100171D01*
X148870189Y-91693365D01*
X149276995Y-91693365D01*
X149276995Y-90879751D01*
X148463382Y-90879751D01*
X148463382Y-91693365D01*
X147649768Y-91693365D01*
X147649768Y-90879751D01*
X148463382Y-90879751D01*
X149276995Y-90879751D01*
X149276995Y-89659331D01*
X148870189Y-89659331D01*
X148870189Y-89252524D01*
X147242961Y-89252524D01*
X147242961Y-89659331D01*
G36*
X143988507Y-90879751D02*
G01*
X143581700Y-90879751D01*
X143581700Y-91286558D01*
X143988507Y-91286558D01*
X143988507Y-92100171D01*
X144802120Y-92100171D01*
X144802120Y-91286558D01*
X146429348Y-91286558D01*
X146429348Y-90472944D01*
X145615734Y-90472944D01*
X145615734Y-90879751D01*
X144802120Y-90879751D01*
X144802120Y-90472944D01*
X145615734Y-90472944D01*
X145615734Y-90066137D01*
X145208927Y-90066137D01*
X145208927Y-89659331D01*
X144802120Y-89659331D01*
X144802120Y-89252524D01*
X143988507Y-89252524D01*
X143988507Y-90879751D01*
G37*
X143988507Y-90879751D02*
X143581700Y-90879751D01*
X143581700Y-91286558D01*
X143988507Y-91286558D01*
X143988507Y-92100171D01*
X144802120Y-92100171D01*
X144802120Y-91286558D01*
X146429348Y-91286558D01*
X146429348Y-90472944D01*
X145615734Y-90472944D01*
X145615734Y-90879751D01*
X144802120Y-90879751D01*
X144802120Y-90472944D01*
X145615734Y-90472944D01*
X145615734Y-90066137D01*
X145208927Y-90066137D01*
X145208927Y-89659331D01*
X144802120Y-89659331D01*
X144802120Y-89252524D01*
X143988507Y-89252524D01*
X143988507Y-90879751D01*
M02*
