G04 #@! TF.GenerationSoftware,KiCad,Pcbnew,(5.1.8)-1*
G04 #@! TF.CreationDate,2022-04-27T21:38:40+02:00*
G04 #@! TF.ProjectId,Amiga CD32,416d6967-6120-4434-9433-322e6b696361,rev?*
G04 #@! TF.SameCoordinates,Original*
G04 #@! TF.FileFunction,Copper,L1,Top*
G04 #@! TF.FilePolarity,Positive*
%FSLAX46Y46*%
G04 Gerber Fmt 4.6, Leading zero omitted, Abs format (unit mm)*
G04 Created by KiCad (PCBNEW (5.1.8)-1) date 2022-04-27 21:38:40*
%MOMM*%
%LPD*%
G01*
G04 APERTURE LIST*
G04 #@! TA.AperFunction,ComponentPad*
%ADD10O,1.600000X1.600000*%
G04 #@! TD*
G04 #@! TA.AperFunction,ComponentPad*
%ADD11C,1.600000*%
G04 #@! TD*
G04 #@! TA.AperFunction,ComponentPad*
%ADD12R,2.400000X1.600000*%
G04 #@! TD*
G04 #@! TA.AperFunction,ComponentPad*
%ADD13O,2.400000X1.600000*%
G04 #@! TD*
G04 #@! TA.AperFunction,ComponentPad*
%ADD14R,1.600000X1.600000*%
G04 #@! TD*
G04 #@! TA.AperFunction,ComponentPad*
%ADD15R,1.600000X2.400000*%
G04 #@! TD*
G04 #@! TA.AperFunction,ComponentPad*
%ADD16O,1.600000X2.400000*%
G04 #@! TD*
G04 #@! TA.AperFunction,SMDPad,CuDef*
%ADD17R,1.500000X2.000000*%
G04 #@! TD*
G04 #@! TA.AperFunction,ComponentPad*
%ADD18O,1.727200X1.727200*%
G04 #@! TD*
G04 #@! TA.AperFunction,ComponentPad*
%ADD19R,1.727200X1.727200*%
G04 #@! TD*
G04 #@! TA.AperFunction,ComponentPad*
%ADD20C,2.000000*%
G04 #@! TD*
G04 #@! TA.AperFunction,ComponentPad*
%ADD21C,3.500000*%
G04 #@! TD*
G04 #@! TA.AperFunction,ViaPad*
%ADD22C,0.800000*%
G04 #@! TD*
G04 #@! TA.AperFunction,Conductor*
%ADD23C,0.381000*%
G04 #@! TD*
G04 #@! TA.AperFunction,Conductor*
%ADD24C,0.250000*%
G04 #@! TD*
G04 APERTURE END LIST*
D10*
X165608000Y-99695000D03*
D11*
X155448000Y-99695000D03*
D10*
X142240000Y-99695000D03*
D11*
X152400000Y-99695000D03*
D10*
X123825000Y-85090000D03*
D11*
X131445000Y-85090000D03*
D10*
X146050000Y-88900000D03*
D11*
X146050000Y-96520000D03*
D10*
X145415000Y-85090000D03*
D11*
X153035000Y-85090000D03*
D10*
X153670000Y-96520000D03*
D11*
X153670000Y-88900000D03*
D10*
X142240000Y-85090000D03*
D11*
X134620000Y-85090000D03*
D10*
X149860000Y-96520000D03*
D11*
X149860000Y-88900000D03*
D10*
X127000000Y-99695000D03*
D11*
X116840000Y-99695000D03*
D10*
X129540000Y-99695000D03*
D11*
X139700000Y-99695000D03*
D10*
X171450000Y-89535000D03*
D11*
X171450000Y-99695000D03*
X171450000Y-81915000D03*
X171450000Y-86915000D03*
D12*
X157480000Y-80645000D03*
D13*
X165100000Y-95885000D03*
X157480000Y-83185000D03*
X165100000Y-93345000D03*
X157480000Y-85725000D03*
X165100000Y-90805000D03*
X157480000Y-88265000D03*
X165100000Y-88265000D03*
X157480000Y-90805000D03*
X165100000Y-85725000D03*
X157480000Y-93345000D03*
X165100000Y-83185000D03*
X157480000Y-95885000D03*
X165100000Y-80645000D03*
D14*
X118745000Y-82550000D03*
D11*
X118745000Y-84550000D03*
D15*
X120650000Y-95885000D03*
D16*
X138430000Y-88265000D03*
X123190000Y-95885000D03*
X135890000Y-88265000D03*
X125730000Y-95885000D03*
X133350000Y-88265000D03*
X128270000Y-95885000D03*
X130810000Y-88265000D03*
X130810000Y-95885000D03*
X128270000Y-88265000D03*
X133350000Y-95885000D03*
X125730000Y-88265000D03*
X135890000Y-95885000D03*
X123190000Y-88265000D03*
X138430000Y-95885000D03*
X120650000Y-88265000D03*
D11*
X168275000Y-94695000D03*
X168275000Y-99695000D03*
D17*
X119380000Y-103505000D03*
X117475000Y-103505000D03*
D11*
X117475000Y-94535000D03*
X117475000Y-89535000D03*
X168275000Y-81915000D03*
D10*
X168275000Y-92075000D03*
D18*
X149225000Y-77470000D03*
X146685000Y-77470000D03*
X144145000Y-77470000D03*
X141605000Y-77470000D03*
X139065000Y-77470000D03*
X149225000Y-80010000D03*
X146685000Y-80010000D03*
X144145000Y-80010000D03*
X141605000Y-80010000D03*
D19*
X139065000Y-80010000D03*
D18*
X160655000Y-105410000D03*
X158115000Y-105410000D03*
X155575000Y-105410000D03*
X153035000Y-105410000D03*
X150495000Y-105410000D03*
X160655000Y-107950000D03*
X158115000Y-107950000D03*
X155575000Y-107950000D03*
X153035000Y-107950000D03*
D19*
X150495000Y-107950000D03*
D11*
X163830000Y-76835000D03*
X158830000Y-76835000D03*
D19*
X127635000Y-107950000D03*
D18*
X130175000Y-107950000D03*
X132715000Y-107950000D03*
X135255000Y-107950000D03*
X137795000Y-107950000D03*
X127635000Y-105410000D03*
X130175000Y-105410000D03*
X132715000Y-105410000D03*
X135255000Y-105410000D03*
X137795000Y-105410000D03*
D20*
X124385000Y-80990000D03*
X124385000Y-76490000D03*
X130885000Y-80990000D03*
X130885000Y-76490000D03*
D21*
X118745000Y-107950000D03*
X169545000Y-107950000D03*
X169545000Y-77470000D03*
X118745000Y-77455001D03*
D11*
X142240000Y-96520000D03*
D10*
X142240000Y-88900000D03*
D22*
X125730000Y-82550000D03*
X167005000Y-84455000D03*
X148336000Y-104775000D03*
X133350000Y-92620000D03*
X131355000Y-90170000D03*
X143419990Y-90170000D03*
X151130000Y-97790000D03*
X143510000Y-97790000D03*
X138909500Y-106680000D03*
X141605000Y-107315000D03*
X134620000Y-93345000D03*
X148590000Y-92165000D03*
X148078836Y-84983716D03*
X147320000Y-92165000D03*
X147320000Y-85635000D03*
X144870000Y-93417108D03*
X140335000Y-83820000D03*
X153035000Y-102870000D03*
X144145000Y-92710000D03*
X139065000Y-84365000D03*
X159385000Y-86995000D03*
X159385000Y-81915000D03*
D23*
X115570000Y-76269573D02*
X115570000Y-82550000D01*
X115608952Y-76171003D02*
X115570000Y-76269573D01*
X115616570Y-76153430D02*
X115608952Y-76171003D01*
X117428431Y-74341569D02*
X115616570Y-76153430D01*
X117446009Y-74333949D02*
X117428431Y-74341569D01*
X140970000Y-74295000D02*
X117544574Y-74295000D01*
X117544574Y-74295000D02*
X117446009Y-74333949D01*
X141605000Y-74930000D02*
X140970000Y-74295000D01*
X141605000Y-77470000D02*
X141605000Y-74930000D01*
X118745000Y-82550000D02*
X115570000Y-82550000D01*
X116205000Y-89535000D02*
X117475000Y-89535000D01*
X115570000Y-88900000D02*
X116205000Y-89535000D01*
X115570000Y-82550000D02*
X115570000Y-88900000D01*
X118110000Y-89535000D02*
X117475000Y-89535000D01*
X119380000Y-88265000D02*
X118110000Y-89535000D01*
X120650000Y-88265000D02*
X119380000Y-88265000D01*
X116840000Y-99695000D02*
X115570000Y-99695000D01*
X115570000Y-88900000D02*
X115570000Y-99695000D01*
X117475000Y-101600000D02*
X117475000Y-103505000D01*
X116332000Y-101600000D02*
X115570000Y-100838000D01*
X117475000Y-101600000D02*
X116332000Y-101600000D01*
X115570000Y-99695000D02*
X115570000Y-100838000D01*
X157480000Y-83185000D02*
X159639000Y-83185000D01*
X162179000Y-80645000D02*
X165100000Y-80645000D01*
X159639000Y-83185000D02*
X162179000Y-80645000D01*
X140970000Y-74295000D02*
X163195000Y-74295000D01*
X163830000Y-74930000D02*
X163830000Y-76835000D01*
X163195000Y-74295000D02*
X163830000Y-74930000D01*
X139700000Y-101092000D02*
X139700000Y-99695000D01*
X139700000Y-109855000D02*
X139700000Y-101092000D01*
X139065000Y-110490000D02*
X139700000Y-109855000D01*
X124460000Y-110490000D02*
X139065000Y-110490000D01*
X123825000Y-109855000D02*
X124460000Y-110490000D01*
X123825000Y-102870000D02*
X123825000Y-109855000D01*
X122555000Y-101600000D02*
X123825000Y-102870000D01*
X117475000Y-101600000D02*
X122555000Y-101600000D01*
X128270000Y-85090000D02*
X125730000Y-82550000D01*
X131445000Y-85090000D02*
X128270000Y-85090000D01*
X131445000Y-85090000D02*
X134620000Y-85090000D01*
X155448000Y-99695000D02*
X152400000Y-99695000D01*
X151130000Y-99695000D02*
X152400000Y-99695000D01*
X149860000Y-98425000D02*
X151130000Y-99695000D01*
X149860000Y-96520000D02*
X149860000Y-98425000D01*
X171450000Y-89535000D02*
X167005000Y-85090000D01*
X167005000Y-85090000D02*
X167005000Y-84455000D01*
X141605000Y-104775000D02*
X148336000Y-104775000D01*
X140335000Y-106045000D02*
X141605000Y-104775000D01*
X140335000Y-110490000D02*
X140335000Y-106045000D01*
X139573000Y-111252000D02*
X140335000Y-110490000D01*
X122428000Y-110744000D02*
X122936000Y-111252000D01*
X122428000Y-106553000D02*
X122428000Y-110744000D01*
X122936000Y-111252000D02*
X139573000Y-111252000D01*
X119380000Y-103505000D02*
X122428000Y-106553000D01*
D24*
X171450000Y-99695000D02*
X168275000Y-99695000D01*
X147320000Y-87630000D02*
X141605000Y-87630000D01*
X147955000Y-88265000D02*
X147320000Y-87630000D01*
X140970000Y-91440000D02*
X139790000Y-92620000D01*
X147955000Y-90170000D02*
X147955000Y-88265000D01*
X141605000Y-87630000D02*
X140970000Y-88265000D01*
X148590000Y-90805000D02*
X147955000Y-90170000D01*
X139790000Y-92620000D02*
X133350000Y-92620000D01*
X140970000Y-88265000D02*
X140970000Y-91440000D01*
X153035000Y-90805000D02*
X148590000Y-90805000D01*
X155575000Y-93345000D02*
X153035000Y-90805000D01*
X157480000Y-93345000D02*
X155575000Y-93345000D01*
X168275000Y-98425000D02*
X168275000Y-99695000D01*
X167640000Y-97790000D02*
X168275000Y-98425000D01*
X163830000Y-97790000D02*
X167640000Y-97790000D01*
X163195000Y-97155000D02*
X163830000Y-97790000D01*
X162560000Y-93345000D02*
X163195000Y-93980000D01*
X163195000Y-93980000D02*
X163195000Y-97155000D01*
X157480000Y-93345000D02*
X162560000Y-93345000D01*
X168275000Y-81915000D02*
X171450000Y-81915000D01*
X146685000Y-77470000D02*
X146685000Y-76835000D01*
X146685000Y-76835000D02*
X147320000Y-76200000D01*
X147320000Y-76200000D02*
X150495000Y-76200000D01*
X150495000Y-76200000D02*
X152400000Y-78105000D01*
X152400000Y-78105000D02*
X159385000Y-78105000D01*
X159385000Y-78105000D02*
X165735000Y-78105000D01*
X168275000Y-80645000D02*
X168275000Y-81915000D01*
X165735000Y-78105000D02*
X168275000Y-80645000D01*
X124385000Y-80990000D02*
X130885000Y-80990000D01*
X124385000Y-80990000D02*
X124385000Y-83110000D01*
X124385000Y-83110000D02*
X127000000Y-85725000D01*
X127000000Y-85725000D02*
X127000000Y-89535000D01*
X127000000Y-89535000D02*
X127635000Y-90170000D01*
X129540000Y-93255000D02*
X129540000Y-90170000D01*
X127635000Y-90170000D02*
X129540000Y-90170000D01*
X130175000Y-90170000D02*
X129540000Y-90170000D01*
X130810000Y-89535000D02*
X130175000Y-90170000D01*
X130810000Y-88265000D02*
X130810000Y-89535000D01*
X130810000Y-99060000D02*
X129540000Y-97790000D01*
X130810000Y-100965000D02*
X130810000Y-99060000D01*
X128905000Y-102870000D02*
X130810000Y-100965000D01*
X128905000Y-106680000D02*
X128905000Y-102870000D01*
X127635000Y-107950000D02*
X128905000Y-106680000D01*
X130175000Y-90170000D02*
X131355000Y-90170000D01*
X129540000Y-97790000D02*
X129540000Y-93345000D01*
X146050000Y-88900000D02*
X144780000Y-90170000D01*
X144780000Y-90170000D02*
X143419990Y-90170000D01*
X125730000Y-88265000D02*
X125730000Y-92710000D01*
X125730000Y-92710000D02*
X124460000Y-93980000D01*
X124460000Y-93980000D02*
X124460000Y-109220000D01*
X124460000Y-109220000D02*
X125095000Y-109855000D01*
X125095000Y-109855000D02*
X137160000Y-109855000D01*
X137795000Y-109220000D02*
X137795000Y-107950000D01*
X137160000Y-109855000D02*
X137795000Y-109220000D01*
X123825000Y-86360000D02*
X123825000Y-85090000D01*
X125730000Y-88265000D02*
X123825000Y-86360000D01*
X128270000Y-98425000D02*
X129540000Y-99695000D01*
X128270000Y-95885000D02*
X128270000Y-98425000D01*
X127635000Y-102870000D02*
X127635000Y-105410000D01*
X129540000Y-100965000D02*
X127635000Y-102870000D01*
X129540000Y-99695000D02*
X129540000Y-100965000D01*
X135255000Y-100330000D02*
X135255000Y-105410000D01*
X128270000Y-86815000D02*
X128725000Y-86360000D01*
X131445000Y-86360000D02*
X132080000Y-86995000D01*
X128725000Y-86360000D02*
X131445000Y-86360000D01*
X128270000Y-88265000D02*
X128270000Y-86815000D01*
X132080000Y-86995000D02*
X132080000Y-93148004D01*
X132080000Y-93148004D02*
X132080000Y-97155000D01*
X135255000Y-99060000D02*
X135255000Y-100330000D01*
X141605000Y-98425000D02*
X135890000Y-98425000D01*
X142240000Y-99060000D02*
X141605000Y-98425000D01*
X142240000Y-99695000D02*
X142240000Y-99060000D01*
X135890000Y-98425000D02*
X133350000Y-98425000D01*
X132080000Y-97155000D02*
X133350000Y-98425000D01*
X135255000Y-99060000D02*
X135255000Y-98425000D01*
X165608000Y-99695000D02*
X158877000Y-99695000D01*
X158877000Y-99695000D02*
X158115000Y-99695000D01*
X156210000Y-97790000D02*
X151130000Y-97790000D01*
X158115000Y-99695000D02*
X156210000Y-97790000D01*
X158115000Y-100457000D02*
X158115000Y-99695000D01*
X158115000Y-105410000D02*
X158115000Y-100457000D01*
X133350000Y-95885000D02*
X133350000Y-97335000D01*
X133805000Y-97790000D02*
X143510000Y-97790000D01*
X133350000Y-97335000D02*
X133805000Y-97790000D01*
X150495000Y-105410000D02*
X151765000Y-106680000D01*
X130810000Y-95885000D02*
X130810000Y-97790000D01*
X130810000Y-97790000D02*
X131445000Y-98425000D01*
X131445000Y-98425000D02*
X131445000Y-106045000D01*
X132080000Y-106680000D02*
X138909500Y-106680000D01*
X131445000Y-106045000D02*
X132080000Y-106680000D01*
X142004999Y-107714999D02*
X141605000Y-107315000D01*
X147084999Y-107714999D02*
X142004999Y-107714999D01*
X151765000Y-106680000D02*
X151765000Y-109220000D01*
X151765000Y-109220000D02*
X148590000Y-109220000D01*
X148590000Y-109220000D02*
X147084999Y-107714999D01*
X168275000Y-103505000D02*
X162560000Y-109220000D01*
X172085000Y-101600000D02*
X168910000Y-101600000D01*
X172720000Y-100965000D02*
X172085000Y-101600000D01*
X172720000Y-98375000D02*
X172720000Y-100965000D01*
X168275000Y-102235000D02*
X168275000Y-103505000D01*
X169645000Y-95300000D02*
X172720000Y-98375000D01*
X162560000Y-109220000D02*
X151765000Y-109220000D01*
X169645000Y-89000000D02*
X169645000Y-95300000D01*
X166370000Y-85725000D02*
X169645000Y-89000000D01*
X168910000Y-101600000D02*
X168275000Y-102235000D01*
X165100000Y-85725000D02*
X166370000Y-85725000D01*
X140970000Y-93345000D02*
X134620000Y-93345000D01*
X142240000Y-92075000D02*
X140970000Y-93345000D01*
X142240000Y-90170000D02*
X142240000Y-88900000D01*
X142240000Y-91440000D02*
X142240000Y-90170000D01*
X142240000Y-92075000D02*
X142240000Y-91440000D01*
X152400000Y-91440000D02*
X147955000Y-91440000D01*
X155575000Y-94615000D02*
X152400000Y-91440000D01*
X161925000Y-94615000D02*
X155575000Y-94615000D01*
X162560000Y-97790000D02*
X162560000Y-95250000D01*
X163195000Y-98425000D02*
X162560000Y-97790000D01*
X166370000Y-98425000D02*
X163195000Y-98425000D01*
X167005000Y-99060000D02*
X166370000Y-98425000D01*
X162560000Y-95250000D02*
X161925000Y-94615000D01*
X167005000Y-103505000D02*
X167005000Y-99060000D01*
X147955000Y-91440000D02*
X142240000Y-91440000D01*
X162560000Y-107950000D02*
X167005000Y-103505000D01*
X160655000Y-107950000D02*
X162560000Y-107950000D01*
X146685000Y-82550000D02*
X146685000Y-80010000D01*
X148078836Y-83943836D02*
X146685000Y-82550000D01*
X148078836Y-84983716D02*
X148078836Y-83943836D01*
X148590000Y-95250000D02*
X148590000Y-92165000D01*
X148590000Y-100965000D02*
X148590000Y-95250000D01*
X149225000Y-101600000D02*
X148590000Y-100965000D01*
X154305000Y-101600000D02*
X149225000Y-101600000D01*
X156845000Y-104140000D02*
X154305000Y-101600000D01*
X156845000Y-106680000D02*
X156845000Y-104140000D01*
X158115000Y-107950000D02*
X156845000Y-106680000D01*
X144145000Y-81280000D02*
X144145000Y-80010000D01*
X147320000Y-84455000D02*
X144145000Y-81280000D01*
X147320000Y-85635000D02*
X147320000Y-84455000D01*
X147955000Y-92800000D02*
X147320000Y-92165000D01*
X153383001Y-102144999D02*
X148499999Y-102144999D01*
X147955000Y-101600000D02*
X147955000Y-92800000D01*
X148499999Y-102144999D02*
X147955000Y-101600000D01*
X154305000Y-103066997D02*
X153383001Y-102144999D01*
X154305000Y-106680000D02*
X154305000Y-103066997D01*
X155575000Y-107950000D02*
X154305000Y-106680000D01*
X141605000Y-80010000D02*
X141605000Y-81280000D01*
X140335000Y-82550000D02*
X140335000Y-83820000D01*
X141605000Y-81280000D02*
X140335000Y-82550000D01*
X147320000Y-102235000D02*
X147955000Y-102870000D01*
X144870000Y-93417108D02*
X147320000Y-95867108D01*
X147320000Y-95867108D02*
X147320000Y-102235000D01*
X147955000Y-102870000D02*
X153035000Y-102870000D01*
X139065000Y-82550000D02*
X139065000Y-80010000D01*
X139065000Y-82550000D02*
X139065000Y-84365000D01*
X144145000Y-97155000D02*
X144145000Y-92710000D01*
X146685000Y-102870000D02*
X146685000Y-99695000D01*
X147320000Y-103505000D02*
X146685000Y-102870000D01*
X146685000Y-99695000D02*
X144145000Y-97155000D01*
X148590000Y-103505000D02*
X147320000Y-103505000D01*
X149225000Y-104140000D02*
X148590000Y-103505000D01*
X149225000Y-106680000D02*
X149225000Y-104140000D01*
X150495000Y-107950000D02*
X149225000Y-106680000D01*
X123190000Y-95250000D02*
X121920000Y-93980000D01*
X123190000Y-95885000D02*
X123190000Y-95250000D01*
X139065000Y-77470000D02*
X133985000Y-77470000D01*
X133985000Y-77470000D02*
X132715000Y-78740000D01*
X122555000Y-78740000D02*
X121920000Y-79375000D01*
X132715000Y-78740000D02*
X122555000Y-78740000D01*
X121920000Y-93980000D02*
X121920000Y-79375000D01*
X140335000Y-78740000D02*
X139065000Y-77470000D01*
X158750000Y-78740000D02*
X140335000Y-78740000D01*
X159385000Y-79375000D02*
X158750000Y-78740000D01*
X159385000Y-81915000D02*
X159385000Y-79375000D01*
X165100000Y-88265000D02*
X163195000Y-88265000D01*
X161925000Y-86995000D02*
X159385000Y-86995000D01*
X163195000Y-88265000D02*
X161925000Y-86995000D01*
X159385000Y-88900000D02*
X159385000Y-86995000D01*
X156210000Y-89535000D02*
X158750000Y-89535000D01*
X158750000Y-89535000D02*
X159385000Y-88900000D01*
X155575000Y-88900000D02*
X156210000Y-89535000D01*
X153670000Y-88900000D02*
X155575000Y-88900000D01*
X154940000Y-80010000D02*
X149225000Y-80010000D01*
X155575000Y-80645000D02*
X154940000Y-80010000D01*
X157480000Y-80645000D02*
X155575000Y-80645000D01*
X165100000Y-95885000D02*
X166370000Y-95885000D01*
X166370000Y-95885000D02*
X167005000Y-95250000D01*
X167005000Y-95250000D02*
X167005000Y-92710000D01*
X167640000Y-92075000D02*
X168275000Y-92075000D01*
X167005000Y-92710000D02*
X167640000Y-92075000D01*
X162560000Y-83185000D02*
X165100000Y-83185000D01*
X160020000Y-85725000D02*
X162560000Y-83185000D01*
X157480000Y-85725000D02*
X160020000Y-85725000D01*
X157480000Y-85725000D02*
X154940000Y-85725000D01*
X154940000Y-85725000D02*
X154305000Y-85090000D01*
X154305000Y-85090000D02*
X153035000Y-85090000D01*
X133350000Y-86995000D02*
X133350000Y-88265000D01*
X135452501Y-86360000D02*
X133985000Y-86360000D01*
X136722501Y-85090000D02*
X135452501Y-86360000D01*
X133985000Y-86360000D02*
X133350000Y-86995000D01*
X142240000Y-85090000D02*
X136722501Y-85090000D01*
X135890000Y-88265000D02*
X135890000Y-86995000D01*
X135890000Y-86995000D02*
X136525000Y-86360000D01*
X136525000Y-86360000D02*
X149225000Y-86360000D01*
X149860000Y-86995000D02*
X149860000Y-88900000D01*
X149225000Y-86360000D02*
X149860000Y-86995000D01*
X138430000Y-87630000D02*
X138430000Y-88265000D01*
X139065000Y-86995000D02*
X138430000Y-87630000D01*
X148590000Y-87630000D02*
X147955000Y-86995000D01*
X147955000Y-86995000D02*
X139065000Y-86995000D01*
X148590000Y-89535000D02*
X148590000Y-87630000D01*
X149225000Y-90170000D02*
X148590000Y-89535000D01*
X153670000Y-90170000D02*
X149225000Y-90170000D01*
X163195000Y-92075000D02*
X155575000Y-92075000D01*
X155575000Y-92075000D02*
X153670000Y-90170000D01*
X164465000Y-93345000D02*
X163195000Y-92075000D01*
X165100000Y-93345000D02*
X164465000Y-93345000D01*
M02*
