G04 #@! TF.GenerationSoftware,KiCad,Pcbnew,(5.1.8)-1*
G04 #@! TF.CreationDate,2021-02-19T21:47:41+01:00*
G04 #@! TF.ProjectId,Sinclair,53696e63-6c61-4697-922e-6b696361645f,rev?*
G04 #@! TF.SameCoordinates,Original*
G04 #@! TF.FileFunction,Copper,L1,Top*
G04 #@! TF.FilePolarity,Positive*
%FSLAX46Y46*%
G04 Gerber Fmt 4.6, Leading zero omitted, Abs format (unit mm)*
G04 Created by KiCad (PCBNEW (5.1.8)-1) date 2021-02-19 21:47:41*
%MOMM*%
%LPD*%
G01*
G04 APERTURE LIST*
G04 #@! TA.AperFunction,SMDPad,CuDef*
%ADD10R,1.700000X6.000000*%
G04 #@! TD*
G04 #@! TA.AperFunction,ComponentPad*
%ADD11O,1.727200X1.727200*%
G04 #@! TD*
G04 #@! TA.AperFunction,ComponentPad*
%ADD12R,1.727200X1.727200*%
G04 #@! TD*
G04 #@! TA.AperFunction,ViaPad*
%ADD13C,0.800000*%
G04 #@! TD*
G04 #@! TA.AperFunction,Conductor*
%ADD14C,0.250000*%
G04 #@! TD*
G04 APERTURE END LIST*
D10*
X136684500Y-78168500D03*
X139454500Y-78168500D03*
X142224500Y-78168500D03*
X144994500Y-78168500D03*
X147764500Y-78168500D03*
D11*
X147320000Y-86995000D03*
X144780000Y-86995000D03*
X142240000Y-86995000D03*
X139700000Y-86995000D03*
X137160000Y-86995000D03*
X147320000Y-89535000D03*
X144780000Y-89535000D03*
X142240000Y-89535000D03*
X139700000Y-89535000D03*
D12*
X137160000Y-89535000D03*
D10*
X136715500Y-98361500D03*
X139485500Y-98361500D03*
X142255500Y-98361500D03*
X145025500Y-98361500D03*
X147795500Y-98361500D03*
D13*
X143510000Y-82550000D03*
X135101490Y-89535000D03*
X146050000Y-84201000D03*
X145034000Y-91503500D03*
X144939484Y-81825000D03*
X144994500Y-84240500D03*
X138112500Y-94488000D03*
D14*
X143510000Y-82550000D02*
X142875000Y-82550000D01*
X142875000Y-82550000D02*
X142240000Y-82550000D01*
X139454500Y-81796500D02*
X139454500Y-78168500D01*
X140208000Y-82550000D02*
X139454500Y-81796500D01*
X142240000Y-82550000D02*
X140208000Y-82550000D01*
X135101490Y-89381490D02*
X135255000Y-89535000D01*
X136080500Y-83375500D02*
X135101490Y-84354510D01*
X147764500Y-83375500D02*
X136080500Y-83375500D01*
X147764500Y-78168500D02*
X147764500Y-83375500D01*
X135101490Y-96747490D02*
X136715500Y-98361500D01*
X135101490Y-89535000D02*
X135101490Y-84354510D01*
X135101490Y-89535000D02*
X135101490Y-96747490D01*
X139700000Y-98147000D02*
X139485500Y-98361500D01*
X139700000Y-89535000D02*
X139700000Y-91440000D01*
X139700000Y-91440000D02*
X139700000Y-92075000D01*
X139700000Y-92710000D02*
X139700000Y-98147000D01*
X139700000Y-91440000D02*
X139700000Y-92710000D01*
X139700000Y-89535000D02*
X140970000Y-88265000D01*
X140970000Y-88265000D02*
X145415000Y-88265000D01*
X145415000Y-88265000D02*
X146050000Y-87630000D01*
X146050000Y-87630000D02*
X146050000Y-84201000D01*
X142240000Y-98346000D02*
X142255500Y-98361500D01*
X142240000Y-89535000D02*
X142240000Y-98346000D01*
X145025500Y-98361500D02*
X145025500Y-93463500D01*
X145025500Y-91512000D02*
X145034000Y-91503500D01*
X145025500Y-93463500D02*
X145025500Y-91512000D01*
X144994500Y-81769984D02*
X144939484Y-81825000D01*
X144994500Y-78168500D02*
X144994500Y-81769984D01*
X135826500Y-92202000D02*
X138112500Y-94488000D01*
X135826500Y-88328500D02*
X135826500Y-92202000D01*
X137160000Y-86995000D02*
X135826500Y-88328500D01*
X144994500Y-85129500D02*
X144994500Y-84240500D01*
X144399000Y-85725000D02*
X144994500Y-85129500D01*
X138430000Y-85725000D02*
X144399000Y-85725000D01*
X137160000Y-86995000D02*
X138430000Y-85725000D01*
M02*
