G04 #@! TF.GenerationSoftware,KiCad,Pcbnew,(5.1.8)-1*
G04 #@! TF.CreationDate,2021-01-08T23:41:34+01:00*
G04 #@! TF.ProjectId,Sinclair,53696e63-6c61-4697-922e-6b696361645f,rev?*
G04 #@! TF.SameCoordinates,Original*
G04 #@! TF.FileFunction,Legend,Bot*
G04 #@! TF.FilePolarity,Positive*
%FSLAX46Y46*%
G04 Gerber Fmt 4.6, Leading zero omitted, Abs format (unit mm)*
G04 Created by KiCad (PCBNEW (5.1.8)-1) date 2021-01-08 23:41:34*
%MOMM*%
%LPD*%
G01*
G04 APERTURE LIST*
%ADD10C,0.100000*%
G04 APERTURE END LIST*
D10*
X148468571Y-91636904D02*
X147935238Y-91636904D01*
X148468571Y-92436904D01*
X147935238Y-92436904D01*
X147706666Y-91636904D02*
X147173333Y-92436904D01*
X147173333Y-91636904D02*
X147706666Y-92436904D01*
X146297142Y-92398809D02*
X146182857Y-92436904D01*
X145992380Y-92436904D01*
X145916190Y-92398809D01*
X145878095Y-92360714D01*
X145840000Y-92284523D01*
X145840000Y-92208333D01*
X145878095Y-92132142D01*
X145916190Y-92094047D01*
X145992380Y-92055952D01*
X146144761Y-92017857D01*
X146220952Y-91979761D01*
X146259047Y-91941666D01*
X146297142Y-91865476D01*
X146297142Y-91789285D01*
X146259047Y-91713095D01*
X146220952Y-91675000D01*
X146144761Y-91636904D01*
X145954285Y-91636904D01*
X145840000Y-91675000D01*
X145497142Y-91903571D02*
X145497142Y-92703571D01*
X145497142Y-91941666D02*
X145420952Y-91903571D01*
X145268571Y-91903571D01*
X145192380Y-91941666D01*
X145154285Y-91979761D01*
X145116190Y-92055952D01*
X145116190Y-92284523D01*
X145154285Y-92360714D01*
X145192380Y-92398809D01*
X145268571Y-92436904D01*
X145420952Y-92436904D01*
X145497142Y-92398809D01*
X144468571Y-92398809D02*
X144544761Y-92436904D01*
X144697142Y-92436904D01*
X144773333Y-92398809D01*
X144811428Y-92322619D01*
X144811428Y-92017857D01*
X144773333Y-91941666D01*
X144697142Y-91903571D01*
X144544761Y-91903571D01*
X144468571Y-91941666D01*
X144430476Y-92017857D01*
X144430476Y-92094047D01*
X144811428Y-92170238D01*
X143744761Y-92398809D02*
X143820952Y-92436904D01*
X143973333Y-92436904D01*
X144049523Y-92398809D01*
X144087619Y-92360714D01*
X144125714Y-92284523D01*
X144125714Y-92055952D01*
X144087619Y-91979761D01*
X144049523Y-91941666D01*
X143973333Y-91903571D01*
X143820952Y-91903571D01*
X143744761Y-91941666D01*
X143516190Y-91903571D02*
X143211428Y-91903571D01*
X143401904Y-91636904D02*
X143401904Y-92322619D01*
X143363809Y-92398809D01*
X143287619Y-92436904D01*
X143211428Y-92436904D01*
X142944761Y-92436904D02*
X142944761Y-91903571D01*
X142944761Y-92055952D02*
X142906666Y-91979761D01*
X142868571Y-91941666D01*
X142792380Y-91903571D01*
X142716190Y-91903571D01*
X142106666Y-91903571D02*
X142106666Y-92436904D01*
X142449523Y-91903571D02*
X142449523Y-92322619D01*
X142411428Y-92398809D01*
X142335238Y-92436904D01*
X142220952Y-92436904D01*
X142144761Y-92398809D01*
X142106666Y-92360714D01*
X141725714Y-92436904D02*
X141725714Y-91903571D01*
X141725714Y-91979761D02*
X141687619Y-91941666D01*
X141611428Y-91903571D01*
X141497142Y-91903571D01*
X141420952Y-91941666D01*
X141382857Y-92017857D01*
X141382857Y-92436904D01*
X141382857Y-92017857D02*
X141344761Y-91941666D01*
X141268571Y-91903571D01*
X141154285Y-91903571D01*
X141078095Y-91941666D01*
X141040000Y-92017857D01*
X141040000Y-92436904D01*
X140049523Y-92132142D02*
X139440000Y-92132142D01*
X139744761Y-92436904D02*
X139744761Y-91827380D01*
X139097142Y-91713095D02*
X139059047Y-91675000D01*
X138982857Y-91636904D01*
X138792380Y-91636904D01*
X138716190Y-91675000D01*
X138678095Y-91713095D01*
X138640000Y-91789285D01*
X138640000Y-91865476D01*
X138678095Y-91979761D01*
X139135238Y-92436904D01*
X138640000Y-92436904D01*
X137725714Y-91598809D02*
X138411428Y-92627380D01*
X137459047Y-92132142D02*
X136849523Y-92132142D01*
X137154285Y-92436904D02*
X137154285Y-91827380D01*
X136544761Y-91636904D02*
X136049523Y-91636904D01*
X136316190Y-91941666D01*
X136201904Y-91941666D01*
X136125714Y-91979761D01*
X136087619Y-92017857D01*
X136049523Y-92094047D01*
X136049523Y-92284523D01*
X136087619Y-92360714D01*
X136125714Y-92398809D01*
X136201904Y-92436904D01*
X136430476Y-92436904D01*
X136506666Y-92398809D01*
X136544761Y-92360714D01*
X147758095Y-85477142D02*
X147186666Y-85477142D01*
X147072380Y-85515238D01*
X146996190Y-85591428D01*
X146958095Y-85705714D01*
X146958095Y-85781904D01*
X146958095Y-84981904D02*
X146996190Y-85058095D01*
X147034285Y-85096190D01*
X147110476Y-85134285D01*
X147339047Y-85134285D01*
X147415238Y-85096190D01*
X147453333Y-85058095D01*
X147491428Y-84981904D01*
X147491428Y-84867619D01*
X147453333Y-84791428D01*
X147415238Y-84753333D01*
X147339047Y-84715238D01*
X147110476Y-84715238D01*
X147034285Y-84753333D01*
X146996190Y-84791428D01*
X146958095Y-84867619D01*
X146958095Y-84981904D01*
X147491428Y-84448571D02*
X146958095Y-84258095D01*
X147491428Y-84067619D02*
X146958095Y-84258095D01*
X146767619Y-84334285D01*
X146729523Y-84372380D01*
X146691428Y-84448571D01*
X146958095Y-83762857D02*
X147758095Y-83762857D01*
X146958095Y-83305714D02*
X147415238Y-83648571D01*
X147758095Y-83305714D02*
X147300952Y-83762857D01*
X147377142Y-82962857D02*
X147377142Y-82696190D01*
X146958095Y-82581904D02*
X146958095Y-82962857D01*
X147758095Y-82962857D01*
X147758095Y-82581904D01*
X147339047Y-82086666D02*
X146958095Y-82086666D01*
X147758095Y-82353333D02*
X147339047Y-82086666D01*
X147758095Y-81820000D01*
X145527857Y-82462857D02*
X145794523Y-82462857D01*
X145794523Y-82881904D02*
X145794523Y-82081904D01*
X145413571Y-82081904D01*
X145108809Y-82881904D02*
X145108809Y-82081904D01*
X144270714Y-82881904D02*
X144537380Y-82500952D01*
X144727857Y-82881904D02*
X144727857Y-82081904D01*
X144423095Y-82081904D01*
X144346904Y-82120000D01*
X144308809Y-82158095D01*
X144270714Y-82234285D01*
X144270714Y-82348571D01*
X144308809Y-82424761D01*
X144346904Y-82462857D01*
X144423095Y-82500952D01*
X144727857Y-82500952D01*
X143927857Y-82462857D02*
X143661190Y-82462857D01*
X143546904Y-82881904D02*
X143927857Y-82881904D01*
X143927857Y-82081904D01*
X143546904Y-82081904D01*
X143280238Y-82081904D02*
X142785000Y-82081904D01*
X143051666Y-82386666D01*
X142937380Y-82386666D01*
X142861190Y-82424761D01*
X142823095Y-82462857D01*
X142785000Y-82539047D01*
X142785000Y-82729523D01*
X142823095Y-82805714D01*
X142861190Y-82843809D01*
X142937380Y-82881904D01*
X143165952Y-82881904D01*
X143242142Y-82843809D01*
X143280238Y-82805714D01*
X142632619Y-82958095D02*
X142023095Y-82958095D01*
X141870714Y-82843809D02*
X141756428Y-82881904D01*
X141565952Y-82881904D01*
X141489761Y-82843809D01*
X141451666Y-82805714D01*
X141413571Y-82729523D01*
X141413571Y-82653333D01*
X141451666Y-82577142D01*
X141489761Y-82539047D01*
X141565952Y-82500952D01*
X141718333Y-82462857D01*
X141794523Y-82424761D01*
X141832619Y-82386666D01*
X141870714Y-82310476D01*
X141870714Y-82234285D01*
X141832619Y-82158095D01*
X141794523Y-82120000D01*
X141718333Y-82081904D01*
X141527857Y-82081904D01*
X141413571Y-82120000D01*
X141070714Y-82462857D02*
X140804047Y-82462857D01*
X140689761Y-82881904D02*
X141070714Y-82881904D01*
X141070714Y-82081904D01*
X140689761Y-82081904D01*
X139965952Y-82881904D02*
X140346904Y-82881904D01*
X140346904Y-82081904D01*
X139089761Y-82881904D02*
X139089761Y-82081904D01*
X138632619Y-82881904D01*
X138632619Y-82081904D01*
X137680238Y-82043809D02*
X138365952Y-83072380D01*
X136956428Y-82805714D02*
X136994523Y-82843809D01*
X137108809Y-82881904D01*
X137185000Y-82881904D01*
X137299285Y-82843809D01*
X137375476Y-82767619D01*
X137413571Y-82691428D01*
X137451666Y-82539047D01*
X137451666Y-82424761D01*
X137413571Y-82272380D01*
X137375476Y-82196190D01*
X137299285Y-82120000D01*
X137185000Y-82081904D01*
X137108809Y-82081904D01*
X136994523Y-82120000D01*
X136956428Y-82158095D01*
X145527857Y-83762857D02*
X145794523Y-83762857D01*
X145794523Y-84181904D02*
X145794523Y-83381904D01*
X145413571Y-83381904D01*
X145108809Y-84181904D02*
X145108809Y-83381904D01*
X144270714Y-84181904D02*
X144537380Y-83800952D01*
X144727857Y-84181904D02*
X144727857Y-83381904D01*
X144423095Y-83381904D01*
X144346904Y-83420000D01*
X144308809Y-83458095D01*
X144270714Y-83534285D01*
X144270714Y-83648571D01*
X144308809Y-83724761D01*
X144346904Y-83762857D01*
X144423095Y-83800952D01*
X144727857Y-83800952D01*
X143927857Y-83762857D02*
X143661190Y-83762857D01*
X143546904Y-84181904D02*
X143927857Y-84181904D01*
X143927857Y-83381904D01*
X143546904Y-83381904D01*
X143280238Y-83381904D02*
X142785000Y-83381904D01*
X143051666Y-83686666D01*
X142937380Y-83686666D01*
X142861190Y-83724761D01*
X142823095Y-83762857D01*
X142785000Y-83839047D01*
X142785000Y-84029523D01*
X142823095Y-84105714D01*
X142861190Y-84143809D01*
X142937380Y-84181904D01*
X143165952Y-84181904D01*
X143242142Y-84143809D01*
X143280238Y-84105714D01*
X142632619Y-84258095D02*
X142023095Y-84258095D01*
X141832619Y-84181904D02*
X141832619Y-83381904D01*
X141527857Y-83381904D01*
X141451666Y-83420000D01*
X141413571Y-83458095D01*
X141375476Y-83534285D01*
X141375476Y-83648571D01*
X141413571Y-83724761D01*
X141451666Y-83762857D01*
X141527857Y-83800952D01*
X141832619Y-83800952D01*
X140880238Y-83381904D02*
X140727857Y-83381904D01*
X140651666Y-83420000D01*
X140575476Y-83496190D01*
X140537380Y-83648571D01*
X140537380Y-83915238D01*
X140575476Y-84067619D01*
X140651666Y-84143809D01*
X140727857Y-84181904D01*
X140880238Y-84181904D01*
X140956428Y-84143809D01*
X141032619Y-84067619D01*
X141070714Y-83915238D01*
X141070714Y-83648571D01*
X141032619Y-83496190D01*
X140956428Y-83420000D01*
X140880238Y-83381904D01*
X139813571Y-84181904D02*
X140194523Y-84181904D01*
X140194523Y-83381904D01*
X138937380Y-84181904D02*
X138937380Y-83381904D01*
X138480238Y-84181904D01*
X138480238Y-83381904D01*
X137527857Y-83343809D02*
X138213571Y-84372380D01*
X136804047Y-84105714D02*
X136842142Y-84143809D01*
X136956428Y-84181904D01*
X137032619Y-84181904D01*
X137146904Y-84143809D01*
X137223095Y-84067619D01*
X137261190Y-83991428D01*
X137299285Y-83839047D01*
X137299285Y-83724761D01*
X137261190Y-83572380D01*
X137223095Y-83496190D01*
X137146904Y-83420000D01*
X137032619Y-83381904D01*
X136956428Y-83381904D01*
X136842142Y-83420000D01*
X136804047Y-83458095D01*
X145527857Y-85062857D02*
X145794523Y-85062857D01*
X145794523Y-85481904D02*
X145794523Y-84681904D01*
X145413571Y-84681904D01*
X145108809Y-85481904D02*
X145108809Y-84681904D01*
X144270714Y-85481904D02*
X144537380Y-85100952D01*
X144727857Y-85481904D02*
X144727857Y-84681904D01*
X144423095Y-84681904D01*
X144346904Y-84720000D01*
X144308809Y-84758095D01*
X144270714Y-84834285D01*
X144270714Y-84948571D01*
X144308809Y-85024761D01*
X144346904Y-85062857D01*
X144423095Y-85100952D01*
X144727857Y-85100952D01*
X143927857Y-85062857D02*
X143661190Y-85062857D01*
X143546904Y-85481904D02*
X143927857Y-85481904D01*
X143927857Y-84681904D01*
X143546904Y-84681904D01*
X143242142Y-84758095D02*
X143204047Y-84720000D01*
X143127857Y-84681904D01*
X142937380Y-84681904D01*
X142861190Y-84720000D01*
X142823095Y-84758095D01*
X142785000Y-84834285D01*
X142785000Y-84910476D01*
X142823095Y-85024761D01*
X143280238Y-85481904D01*
X142785000Y-85481904D01*
X142632619Y-85558095D02*
X142023095Y-85558095D01*
X141832619Y-85481904D02*
X141832619Y-84681904D01*
X141527857Y-84681904D01*
X141451666Y-84720000D01*
X141413571Y-84758095D01*
X141375476Y-84834285D01*
X141375476Y-84948571D01*
X141413571Y-85024761D01*
X141451666Y-85062857D01*
X141527857Y-85100952D01*
X141832619Y-85100952D01*
X140880238Y-84681904D02*
X140727857Y-84681904D01*
X140651666Y-84720000D01*
X140575476Y-84796190D01*
X140537380Y-84948571D01*
X140537380Y-85215238D01*
X140575476Y-85367619D01*
X140651666Y-85443809D01*
X140727857Y-85481904D01*
X140880238Y-85481904D01*
X140956428Y-85443809D01*
X141032619Y-85367619D01*
X141070714Y-85215238D01*
X141070714Y-84948571D01*
X141032619Y-84796190D01*
X140956428Y-84720000D01*
X140880238Y-84681904D01*
X139813571Y-85481904D02*
X140194523Y-85481904D01*
X140194523Y-84681904D01*
X138937380Y-85481904D02*
X138937380Y-84681904D01*
X138480238Y-85481904D01*
X138480238Y-84681904D01*
X137527857Y-84643809D02*
X138213571Y-85672380D01*
X136804047Y-85405714D02*
X136842142Y-85443809D01*
X136956428Y-85481904D01*
X137032619Y-85481904D01*
X137146904Y-85443809D01*
X137223095Y-85367619D01*
X137261190Y-85291428D01*
X137299285Y-85139047D01*
X137299285Y-85024761D01*
X137261190Y-84872380D01*
X137223095Y-84796190D01*
X137146904Y-84720000D01*
X137032619Y-84681904D01*
X136956428Y-84681904D01*
X136842142Y-84720000D01*
X136804047Y-84758095D01*
M02*
