G04 #@! TF.GenerationSoftware,KiCad,Pcbnew,(5.1.8)-1*
G04 #@! TF.CreationDate,2021-02-19T21:47:41+01:00*
G04 #@! TF.ProjectId,Sinclair,53696e63-6c61-4697-922e-6b696361645f,rev?*
G04 #@! TF.SameCoordinates,Original*
G04 #@! TF.FileFunction,Copper,L2,Bot*
G04 #@! TF.FilePolarity,Positive*
%FSLAX46Y46*%
G04 Gerber Fmt 4.6, Leading zero omitted, Abs format (unit mm)*
G04 Created by KiCad (PCBNEW (5.1.8)-1) date 2021-02-19 21:47:41*
%MOMM*%
%LPD*%
G01*
G04 APERTURE LIST*
G04 #@! TA.AperFunction,SMDPad,CuDef*
%ADD10R,1.700000X6.000000*%
G04 #@! TD*
G04 #@! TA.AperFunction,ComponentPad*
%ADD11O,1.727200X1.727200*%
G04 #@! TD*
G04 #@! TA.AperFunction,ComponentPad*
%ADD12R,1.727200X1.727200*%
G04 #@! TD*
G04 #@! TA.AperFunction,ViaPad*
%ADD13C,0.800000*%
G04 #@! TD*
G04 #@! TA.AperFunction,Conductor*
%ADD14C,0.250000*%
G04 #@! TD*
G04 #@! TA.AperFunction,Conductor*
%ADD15C,0.254000*%
G04 #@! TD*
G04 #@! TA.AperFunction,Conductor*
%ADD16C,0.100000*%
G04 #@! TD*
G04 APERTURE END LIST*
D10*
X138069500Y-78168500D03*
X140839500Y-78168500D03*
X143609500Y-78168500D03*
X146379500Y-78168500D03*
D11*
X147320000Y-86995000D03*
X144780000Y-86995000D03*
X142240000Y-86995000D03*
X139700000Y-86995000D03*
X137160000Y-86995000D03*
X147320000Y-89535000D03*
X144780000Y-89535000D03*
X142240000Y-89535000D03*
X139700000Y-89535000D03*
D12*
X137160000Y-89535000D03*
D10*
X138100500Y-98361500D03*
X140870500Y-98361500D03*
X143640500Y-98361500D03*
X146410500Y-98361500D03*
D13*
X143510000Y-82550000D03*
X135101490Y-89535000D03*
X146050000Y-84201000D03*
X145034000Y-91503500D03*
X144939484Y-81825000D03*
X144994500Y-84240500D03*
X138112500Y-94488000D03*
D14*
X143510000Y-78268000D02*
X143609500Y-78168500D01*
X143510000Y-81915000D02*
X143510000Y-78268000D01*
X143510000Y-82550000D02*
X143510000Y-81915000D01*
X137160000Y-89535000D02*
X135101490Y-89535000D01*
X146050000Y-78498000D02*
X146050000Y-84201000D01*
X146379500Y-78168500D02*
X146050000Y-78498000D01*
X140970000Y-78299000D02*
X140839500Y-78168500D01*
X140970000Y-88265000D02*
X140970000Y-78299000D01*
X142240000Y-89535000D02*
X140970000Y-88265000D01*
X145034000Y-89789000D02*
X144780000Y-89535000D01*
X145034000Y-91503500D02*
X145034000Y-89789000D01*
X139065000Y-91503500D02*
X141732000Y-91503500D01*
X138430000Y-90868500D02*
X139065000Y-91503500D01*
X141732000Y-91503500D02*
X145034000Y-91503500D01*
X138430000Y-78529000D02*
X138430000Y-90868500D01*
X138069500Y-78168500D02*
X138430000Y-78529000D01*
X144939484Y-84185484D02*
X144994500Y-84240500D01*
X144939484Y-81825000D02*
X144939484Y-84185484D01*
X138100500Y-98361500D02*
X138100500Y-94500000D01*
X138100500Y-94500000D02*
X138112500Y-94488000D01*
D15*
X136581428Y-81168500D02*
X136593688Y-81292982D01*
X136629998Y-81412680D01*
X136688963Y-81522994D01*
X136768315Y-81619685D01*
X136865006Y-81699037D01*
X136975320Y-81758002D01*
X137095018Y-81794312D01*
X137219500Y-81806572D01*
X137670000Y-81806572D01*
X137670001Y-85584176D01*
X137597125Y-85553990D01*
X137307599Y-85496400D01*
X137012401Y-85496400D01*
X136722875Y-85553990D01*
X136450147Y-85666958D01*
X136204698Y-85830961D01*
X135995961Y-86039698D01*
X135831958Y-86285147D01*
X135718990Y-86557875D01*
X135661400Y-86847401D01*
X135661400Y-87142599D01*
X135718990Y-87432125D01*
X135831958Y-87704853D01*
X135995961Y-87950302D01*
X136110023Y-88064364D01*
X136052220Y-88081898D01*
X135941906Y-88140863D01*
X135845215Y-88220215D01*
X135765863Y-88316906D01*
X135706898Y-88427220D01*
X135670588Y-88546918D01*
X135659170Y-88662846D01*
X135591746Y-88617795D01*
X135403388Y-88539774D01*
X135203429Y-88500000D01*
X134999551Y-88500000D01*
X134799592Y-88539774D01*
X134611234Y-88617795D01*
X134441716Y-88731063D01*
X134297553Y-88875226D01*
X134184285Y-89044744D01*
X134106264Y-89233102D01*
X134066490Y-89433061D01*
X134066490Y-89636939D01*
X134106264Y-89836898D01*
X134184285Y-90025256D01*
X134297553Y-90194774D01*
X134441716Y-90338937D01*
X134611234Y-90452205D01*
X134799592Y-90530226D01*
X134999551Y-90570000D01*
X135203429Y-90570000D01*
X135403388Y-90530226D01*
X135591746Y-90452205D01*
X135659170Y-90407154D01*
X135670588Y-90523082D01*
X135706898Y-90642780D01*
X135765863Y-90753094D01*
X135845215Y-90849785D01*
X135941906Y-90929137D01*
X136052220Y-90988102D01*
X136171918Y-91024412D01*
X136296400Y-91036672D01*
X137686818Y-91036672D01*
X137724454Y-91160746D01*
X137795026Y-91292776D01*
X137845694Y-91354514D01*
X137890000Y-91408501D01*
X137918998Y-91432299D01*
X138501200Y-92014502D01*
X138524999Y-92043501D01*
X138553997Y-92067299D01*
X138640724Y-92138474D01*
X138772753Y-92209046D01*
X138916014Y-92252503D01*
X139065000Y-92267177D01*
X139102333Y-92263500D01*
X144330289Y-92263500D01*
X144374226Y-92307437D01*
X144543744Y-92420705D01*
X144732102Y-92498726D01*
X144932061Y-92538500D01*
X145135939Y-92538500D01*
X145335898Y-92498726D01*
X145524256Y-92420705D01*
X145693774Y-92307437D01*
X145837937Y-92163274D01*
X145951205Y-91993756D01*
X146029226Y-91805398D01*
X146069000Y-91605439D01*
X146069000Y-91401561D01*
X146029226Y-91201602D01*
X145951205Y-91013244D01*
X145837937Y-90843726D01*
X145794000Y-90799789D01*
X145794000Y-90640341D01*
X145944039Y-90490302D01*
X146050000Y-90331719D01*
X146155961Y-90490302D01*
X146364698Y-90699039D01*
X146610147Y-90863042D01*
X146882875Y-90976010D01*
X147172401Y-91033600D01*
X147467599Y-91033600D01*
X147757125Y-90976010D01*
X148029853Y-90863042D01*
X148275302Y-90699039D01*
X148484039Y-90490302D01*
X148648042Y-90244853D01*
X148761010Y-89972125D01*
X148818600Y-89682599D01*
X148818600Y-89387401D01*
X148761010Y-89097875D01*
X148648042Y-88825147D01*
X148484039Y-88579698D01*
X148275302Y-88370961D01*
X148116719Y-88265000D01*
X148275302Y-88159039D01*
X148484039Y-87950302D01*
X148648042Y-87704853D01*
X148761010Y-87432125D01*
X148818600Y-87142599D01*
X148818600Y-86847401D01*
X148761010Y-86557875D01*
X148648042Y-86285147D01*
X148484039Y-86039698D01*
X148275302Y-85830961D01*
X148029853Y-85666958D01*
X147757125Y-85553990D01*
X147467599Y-85496400D01*
X147172401Y-85496400D01*
X146882875Y-85553990D01*
X146610147Y-85666958D01*
X146364698Y-85830961D01*
X146155961Y-86039698D01*
X146050000Y-86198281D01*
X145944039Y-86039698D01*
X145735302Y-85830961D01*
X145489853Y-85666958D01*
X145217125Y-85553990D01*
X144927599Y-85496400D01*
X144632401Y-85496400D01*
X144342875Y-85553990D01*
X144070147Y-85666958D01*
X143824698Y-85830961D01*
X143615961Y-86039698D01*
X143505441Y-86205103D01*
X143446817Y-86106512D01*
X143250293Y-85888146D01*
X143014944Y-85712316D01*
X142749814Y-85585778D01*
X142599026Y-85540042D01*
X142367000Y-85661183D01*
X142367000Y-86868000D01*
X142387000Y-86868000D01*
X142387000Y-87122000D01*
X142367000Y-87122000D01*
X142367000Y-87142000D01*
X142113000Y-87142000D01*
X142113000Y-87122000D01*
X142093000Y-87122000D01*
X142093000Y-86868000D01*
X142113000Y-86868000D01*
X142113000Y-85661183D01*
X141880974Y-85540042D01*
X141730186Y-85585778D01*
X141730000Y-85585867D01*
X141730000Y-81802583D01*
X141813982Y-81794312D01*
X141933680Y-81758002D01*
X142043994Y-81699037D01*
X142140685Y-81619685D01*
X142220037Y-81522994D01*
X142224500Y-81514644D01*
X142228963Y-81522994D01*
X142308315Y-81619685D01*
X142405006Y-81699037D01*
X142515320Y-81758002D01*
X142635018Y-81794312D01*
X142759500Y-81806572D01*
X143323750Y-81803500D01*
X143482500Y-81644750D01*
X143482500Y-78295500D01*
X143462500Y-78295500D01*
X143462500Y-78041500D01*
X143482500Y-78041500D01*
X143482500Y-78021500D01*
X143736500Y-78021500D01*
X143736500Y-78041500D01*
X143756500Y-78041500D01*
X143756500Y-78295500D01*
X143736500Y-78295500D01*
X143736500Y-81644750D01*
X143895250Y-81803500D01*
X143904484Y-81803550D01*
X143904484Y-81926939D01*
X143944258Y-82126898D01*
X144022279Y-82315256D01*
X144135547Y-82484774D01*
X144179484Y-82528711D01*
X144179485Y-83597306D01*
X144077295Y-83750244D01*
X143999274Y-83938602D01*
X143959500Y-84138561D01*
X143959500Y-84342439D01*
X143999274Y-84542398D01*
X144077295Y-84730756D01*
X144190563Y-84900274D01*
X144334726Y-85044437D01*
X144504244Y-85157705D01*
X144692602Y-85235726D01*
X144892561Y-85275500D01*
X145096439Y-85275500D01*
X145296398Y-85235726D01*
X145484756Y-85157705D01*
X145551808Y-85112902D01*
X145559744Y-85118205D01*
X145748102Y-85196226D01*
X145948061Y-85236000D01*
X146151939Y-85236000D01*
X146351898Y-85196226D01*
X146540256Y-85118205D01*
X146709774Y-85004937D01*
X146853937Y-84860774D01*
X146967205Y-84691256D01*
X147045226Y-84502898D01*
X147085000Y-84302939D01*
X147085000Y-84099061D01*
X147045226Y-83899102D01*
X146967205Y-83710744D01*
X146853937Y-83541226D01*
X146810000Y-83497289D01*
X146810000Y-81806572D01*
X147229500Y-81806572D01*
X147353982Y-81794312D01*
X147473680Y-81758002D01*
X147583994Y-81699037D01*
X147680685Y-81619685D01*
X147760037Y-81522994D01*
X147819002Y-81412680D01*
X147855312Y-81292982D01*
X147867572Y-81168500D01*
X147867572Y-75590000D01*
X148699963Y-75590000D01*
X150477345Y-83291998D01*
X150479550Y-83314383D01*
X150491926Y-83355179D01*
X150494191Y-83364996D01*
X150501342Y-83386222D01*
X150517290Y-83438793D01*
X150522064Y-83447725D01*
X150525300Y-83457329D01*
X150552673Y-83504990D01*
X150578575Y-83553450D01*
X150585003Y-83561282D01*
X150590048Y-83570067D01*
X150626194Y-83611473D01*
X150661052Y-83653948D01*
X150668881Y-83660373D01*
X150675545Y-83668007D01*
X150719072Y-83701564D01*
X150761550Y-83736425D01*
X150770486Y-83741201D01*
X150778508Y-83747386D01*
X150827744Y-83771806D01*
X150876207Y-83797710D01*
X150885900Y-83800650D01*
X150894978Y-83805153D01*
X150948027Y-83819497D01*
X151000617Y-83835450D01*
X151010703Y-83836443D01*
X151020480Y-83839087D01*
X151075307Y-83842806D01*
X151097581Y-83845000D01*
X151107646Y-83845000D01*
X151150190Y-83847886D01*
X151172503Y-83845000D01*
X153002725Y-83845000D01*
X153009513Y-83845666D01*
X153010000Y-83850301D01*
X153010001Y-92677715D01*
X153009335Y-92684513D01*
X153004699Y-92685000D01*
X151172503Y-92685000D01*
X151150190Y-92682114D01*
X151107646Y-92685000D01*
X151097581Y-92685000D01*
X151075307Y-92687194D01*
X151020480Y-92690913D01*
X151010703Y-92693557D01*
X151000617Y-92694550D01*
X150948027Y-92710503D01*
X150894978Y-92724847D01*
X150885900Y-92729350D01*
X150876207Y-92732290D01*
X150827744Y-92758194D01*
X150778508Y-92782614D01*
X150770486Y-92788799D01*
X150761550Y-92793575D01*
X150719072Y-92828436D01*
X150675545Y-92861993D01*
X150668881Y-92869627D01*
X150661052Y-92876052D01*
X150626194Y-92918527D01*
X150590048Y-92959933D01*
X150585003Y-92968718D01*
X150578575Y-92976550D01*
X150552673Y-93025010D01*
X150525300Y-93072671D01*
X150522064Y-93082275D01*
X150517290Y-93091207D01*
X150501342Y-93143778D01*
X150494191Y-93165004D01*
X150491926Y-93174821D01*
X150479550Y-93215617D01*
X150477345Y-93238002D01*
X148699963Y-100940000D01*
X147898572Y-100940000D01*
X147898572Y-95361500D01*
X147886312Y-95237018D01*
X147850002Y-95117320D01*
X147791037Y-95007006D01*
X147711685Y-94910315D01*
X147614994Y-94830963D01*
X147504680Y-94771998D01*
X147384982Y-94735688D01*
X147260500Y-94723428D01*
X145560500Y-94723428D01*
X145436018Y-94735688D01*
X145316320Y-94771998D01*
X145206006Y-94830963D01*
X145109315Y-94910315D01*
X145029963Y-95007006D01*
X145025500Y-95015356D01*
X145021037Y-95007006D01*
X144941685Y-94910315D01*
X144844994Y-94830963D01*
X144734680Y-94771998D01*
X144614982Y-94735688D01*
X144490500Y-94723428D01*
X143926250Y-94726500D01*
X143767500Y-94885250D01*
X143767500Y-98234500D01*
X143787500Y-98234500D01*
X143787500Y-98488500D01*
X143767500Y-98488500D01*
X143767500Y-98508500D01*
X143513500Y-98508500D01*
X143513500Y-98488500D01*
X143493500Y-98488500D01*
X143493500Y-98234500D01*
X143513500Y-98234500D01*
X143513500Y-94885250D01*
X143354750Y-94726500D01*
X142790500Y-94723428D01*
X142666018Y-94735688D01*
X142546320Y-94771998D01*
X142436006Y-94830963D01*
X142339315Y-94910315D01*
X142259963Y-95007006D01*
X142255500Y-95015356D01*
X142251037Y-95007006D01*
X142171685Y-94910315D01*
X142074994Y-94830963D01*
X141964680Y-94771998D01*
X141844982Y-94735688D01*
X141720500Y-94723428D01*
X140020500Y-94723428D01*
X139896018Y-94735688D01*
X139776320Y-94771998D01*
X139666006Y-94830963D01*
X139569315Y-94910315D01*
X139489963Y-95007006D01*
X139485500Y-95015356D01*
X139481037Y-95007006D01*
X139401685Y-94910315D01*
X139304994Y-94830963D01*
X139194680Y-94771998D01*
X139116032Y-94748140D01*
X139147500Y-94589939D01*
X139147500Y-94386061D01*
X139107726Y-94186102D01*
X139029705Y-93997744D01*
X138916437Y-93828226D01*
X138772274Y-93684063D01*
X138602756Y-93570795D01*
X138414398Y-93492774D01*
X138214439Y-93453000D01*
X138010561Y-93453000D01*
X137810602Y-93492774D01*
X137622244Y-93570795D01*
X137452726Y-93684063D01*
X137308563Y-93828226D01*
X137195295Y-93997744D01*
X137117274Y-94186102D01*
X137077500Y-94386061D01*
X137077500Y-94589939D01*
X137107602Y-94741274D01*
X137006320Y-94771998D01*
X136896006Y-94830963D01*
X136799315Y-94910315D01*
X136719963Y-95007006D01*
X136660998Y-95117320D01*
X136624688Y-95237018D01*
X136612428Y-95361500D01*
X136612428Y-100940000D01*
X135780038Y-100940000D01*
X134002655Y-93238010D01*
X134000450Y-93215617D01*
X133988070Y-93174807D01*
X133985808Y-93165004D01*
X133978667Y-93143808D01*
X133962710Y-93091207D01*
X133957933Y-93082270D01*
X133954699Y-93072671D01*
X133927341Y-93025036D01*
X133901425Y-92976550D01*
X133894994Y-92968714D01*
X133889951Y-92959933D01*
X133853822Y-92918546D01*
X133818948Y-92876052D01*
X133811116Y-92869624D01*
X133804454Y-92861993D01*
X133760944Y-92828449D01*
X133718450Y-92793575D01*
X133709511Y-92788797D01*
X133701491Y-92782614D01*
X133652269Y-92758201D01*
X133603793Y-92732290D01*
X133594098Y-92729349D01*
X133585021Y-92724847D01*
X133531994Y-92710510D01*
X133479383Y-92694550D01*
X133469290Y-92693556D01*
X133459519Y-92690914D01*
X133404727Y-92687197D01*
X133382419Y-92685000D01*
X133372339Y-92685000D01*
X133329810Y-92682115D01*
X133307504Y-92685000D01*
X131477275Y-92685000D01*
X131470487Y-92684335D01*
X131470000Y-92679699D01*
X131470000Y-83852275D01*
X131470666Y-83845487D01*
X131475301Y-83845000D01*
X133307504Y-83845000D01*
X133329810Y-83847885D01*
X133372339Y-83845000D01*
X133382419Y-83845000D01*
X133404727Y-83842803D01*
X133459519Y-83839086D01*
X133469290Y-83836444D01*
X133479383Y-83835450D01*
X133531994Y-83819490D01*
X133585021Y-83805153D01*
X133594098Y-83800651D01*
X133603793Y-83797710D01*
X133652269Y-83771799D01*
X133701491Y-83747386D01*
X133709511Y-83741203D01*
X133718450Y-83736425D01*
X133760944Y-83701551D01*
X133804454Y-83668007D01*
X133811116Y-83660376D01*
X133818948Y-83653948D01*
X133853822Y-83611454D01*
X133889951Y-83570067D01*
X133894994Y-83561286D01*
X133901425Y-83553450D01*
X133927341Y-83504964D01*
X133954699Y-83457329D01*
X133957933Y-83447730D01*
X133962710Y-83438793D01*
X133978667Y-83386192D01*
X133985808Y-83364996D01*
X133988070Y-83355193D01*
X134000450Y-83314383D01*
X134002655Y-83291990D01*
X135780038Y-75590000D01*
X136581428Y-75590000D01*
X136581428Y-81168500D01*
G04 #@! TA.AperFunction,Conductor*
D16*
G36*
X136581428Y-81168500D02*
G01*
X136593688Y-81292982D01*
X136629998Y-81412680D01*
X136688963Y-81522994D01*
X136768315Y-81619685D01*
X136865006Y-81699037D01*
X136975320Y-81758002D01*
X137095018Y-81794312D01*
X137219500Y-81806572D01*
X137670000Y-81806572D01*
X137670001Y-85584176D01*
X137597125Y-85553990D01*
X137307599Y-85496400D01*
X137012401Y-85496400D01*
X136722875Y-85553990D01*
X136450147Y-85666958D01*
X136204698Y-85830961D01*
X135995961Y-86039698D01*
X135831958Y-86285147D01*
X135718990Y-86557875D01*
X135661400Y-86847401D01*
X135661400Y-87142599D01*
X135718990Y-87432125D01*
X135831958Y-87704853D01*
X135995961Y-87950302D01*
X136110023Y-88064364D01*
X136052220Y-88081898D01*
X135941906Y-88140863D01*
X135845215Y-88220215D01*
X135765863Y-88316906D01*
X135706898Y-88427220D01*
X135670588Y-88546918D01*
X135659170Y-88662846D01*
X135591746Y-88617795D01*
X135403388Y-88539774D01*
X135203429Y-88500000D01*
X134999551Y-88500000D01*
X134799592Y-88539774D01*
X134611234Y-88617795D01*
X134441716Y-88731063D01*
X134297553Y-88875226D01*
X134184285Y-89044744D01*
X134106264Y-89233102D01*
X134066490Y-89433061D01*
X134066490Y-89636939D01*
X134106264Y-89836898D01*
X134184285Y-90025256D01*
X134297553Y-90194774D01*
X134441716Y-90338937D01*
X134611234Y-90452205D01*
X134799592Y-90530226D01*
X134999551Y-90570000D01*
X135203429Y-90570000D01*
X135403388Y-90530226D01*
X135591746Y-90452205D01*
X135659170Y-90407154D01*
X135670588Y-90523082D01*
X135706898Y-90642780D01*
X135765863Y-90753094D01*
X135845215Y-90849785D01*
X135941906Y-90929137D01*
X136052220Y-90988102D01*
X136171918Y-91024412D01*
X136296400Y-91036672D01*
X137686818Y-91036672D01*
X137724454Y-91160746D01*
X137795026Y-91292776D01*
X137845694Y-91354514D01*
X137890000Y-91408501D01*
X137918998Y-91432299D01*
X138501200Y-92014502D01*
X138524999Y-92043501D01*
X138553997Y-92067299D01*
X138640724Y-92138474D01*
X138772753Y-92209046D01*
X138916014Y-92252503D01*
X139065000Y-92267177D01*
X139102333Y-92263500D01*
X144330289Y-92263500D01*
X144374226Y-92307437D01*
X144543744Y-92420705D01*
X144732102Y-92498726D01*
X144932061Y-92538500D01*
X145135939Y-92538500D01*
X145335898Y-92498726D01*
X145524256Y-92420705D01*
X145693774Y-92307437D01*
X145837937Y-92163274D01*
X145951205Y-91993756D01*
X146029226Y-91805398D01*
X146069000Y-91605439D01*
X146069000Y-91401561D01*
X146029226Y-91201602D01*
X145951205Y-91013244D01*
X145837937Y-90843726D01*
X145794000Y-90799789D01*
X145794000Y-90640341D01*
X145944039Y-90490302D01*
X146050000Y-90331719D01*
X146155961Y-90490302D01*
X146364698Y-90699039D01*
X146610147Y-90863042D01*
X146882875Y-90976010D01*
X147172401Y-91033600D01*
X147467599Y-91033600D01*
X147757125Y-90976010D01*
X148029853Y-90863042D01*
X148275302Y-90699039D01*
X148484039Y-90490302D01*
X148648042Y-90244853D01*
X148761010Y-89972125D01*
X148818600Y-89682599D01*
X148818600Y-89387401D01*
X148761010Y-89097875D01*
X148648042Y-88825147D01*
X148484039Y-88579698D01*
X148275302Y-88370961D01*
X148116719Y-88265000D01*
X148275302Y-88159039D01*
X148484039Y-87950302D01*
X148648042Y-87704853D01*
X148761010Y-87432125D01*
X148818600Y-87142599D01*
X148818600Y-86847401D01*
X148761010Y-86557875D01*
X148648042Y-86285147D01*
X148484039Y-86039698D01*
X148275302Y-85830961D01*
X148029853Y-85666958D01*
X147757125Y-85553990D01*
X147467599Y-85496400D01*
X147172401Y-85496400D01*
X146882875Y-85553990D01*
X146610147Y-85666958D01*
X146364698Y-85830961D01*
X146155961Y-86039698D01*
X146050000Y-86198281D01*
X145944039Y-86039698D01*
X145735302Y-85830961D01*
X145489853Y-85666958D01*
X145217125Y-85553990D01*
X144927599Y-85496400D01*
X144632401Y-85496400D01*
X144342875Y-85553990D01*
X144070147Y-85666958D01*
X143824698Y-85830961D01*
X143615961Y-86039698D01*
X143505441Y-86205103D01*
X143446817Y-86106512D01*
X143250293Y-85888146D01*
X143014944Y-85712316D01*
X142749814Y-85585778D01*
X142599026Y-85540042D01*
X142367000Y-85661183D01*
X142367000Y-86868000D01*
X142387000Y-86868000D01*
X142387000Y-87122000D01*
X142367000Y-87122000D01*
X142367000Y-87142000D01*
X142113000Y-87142000D01*
X142113000Y-87122000D01*
X142093000Y-87122000D01*
X142093000Y-86868000D01*
X142113000Y-86868000D01*
X142113000Y-85661183D01*
X141880974Y-85540042D01*
X141730186Y-85585778D01*
X141730000Y-85585867D01*
X141730000Y-81802583D01*
X141813982Y-81794312D01*
X141933680Y-81758002D01*
X142043994Y-81699037D01*
X142140685Y-81619685D01*
X142220037Y-81522994D01*
X142224500Y-81514644D01*
X142228963Y-81522994D01*
X142308315Y-81619685D01*
X142405006Y-81699037D01*
X142515320Y-81758002D01*
X142635018Y-81794312D01*
X142759500Y-81806572D01*
X143323750Y-81803500D01*
X143482500Y-81644750D01*
X143482500Y-78295500D01*
X143462500Y-78295500D01*
X143462500Y-78041500D01*
X143482500Y-78041500D01*
X143482500Y-78021500D01*
X143736500Y-78021500D01*
X143736500Y-78041500D01*
X143756500Y-78041500D01*
X143756500Y-78295500D01*
X143736500Y-78295500D01*
X143736500Y-81644750D01*
X143895250Y-81803500D01*
X143904484Y-81803550D01*
X143904484Y-81926939D01*
X143944258Y-82126898D01*
X144022279Y-82315256D01*
X144135547Y-82484774D01*
X144179484Y-82528711D01*
X144179485Y-83597306D01*
X144077295Y-83750244D01*
X143999274Y-83938602D01*
X143959500Y-84138561D01*
X143959500Y-84342439D01*
X143999274Y-84542398D01*
X144077295Y-84730756D01*
X144190563Y-84900274D01*
X144334726Y-85044437D01*
X144504244Y-85157705D01*
X144692602Y-85235726D01*
X144892561Y-85275500D01*
X145096439Y-85275500D01*
X145296398Y-85235726D01*
X145484756Y-85157705D01*
X145551808Y-85112902D01*
X145559744Y-85118205D01*
X145748102Y-85196226D01*
X145948061Y-85236000D01*
X146151939Y-85236000D01*
X146351898Y-85196226D01*
X146540256Y-85118205D01*
X146709774Y-85004937D01*
X146853937Y-84860774D01*
X146967205Y-84691256D01*
X147045226Y-84502898D01*
X147085000Y-84302939D01*
X147085000Y-84099061D01*
X147045226Y-83899102D01*
X146967205Y-83710744D01*
X146853937Y-83541226D01*
X146810000Y-83497289D01*
X146810000Y-81806572D01*
X147229500Y-81806572D01*
X147353982Y-81794312D01*
X147473680Y-81758002D01*
X147583994Y-81699037D01*
X147680685Y-81619685D01*
X147760037Y-81522994D01*
X147819002Y-81412680D01*
X147855312Y-81292982D01*
X147867572Y-81168500D01*
X147867572Y-75590000D01*
X148699963Y-75590000D01*
X150477345Y-83291998D01*
X150479550Y-83314383D01*
X150491926Y-83355179D01*
X150494191Y-83364996D01*
X150501342Y-83386222D01*
X150517290Y-83438793D01*
X150522064Y-83447725D01*
X150525300Y-83457329D01*
X150552673Y-83504990D01*
X150578575Y-83553450D01*
X150585003Y-83561282D01*
X150590048Y-83570067D01*
X150626194Y-83611473D01*
X150661052Y-83653948D01*
X150668881Y-83660373D01*
X150675545Y-83668007D01*
X150719072Y-83701564D01*
X150761550Y-83736425D01*
X150770486Y-83741201D01*
X150778508Y-83747386D01*
X150827744Y-83771806D01*
X150876207Y-83797710D01*
X150885900Y-83800650D01*
X150894978Y-83805153D01*
X150948027Y-83819497D01*
X151000617Y-83835450D01*
X151010703Y-83836443D01*
X151020480Y-83839087D01*
X151075307Y-83842806D01*
X151097581Y-83845000D01*
X151107646Y-83845000D01*
X151150190Y-83847886D01*
X151172503Y-83845000D01*
X153002725Y-83845000D01*
X153009513Y-83845666D01*
X153010000Y-83850301D01*
X153010001Y-92677715D01*
X153009335Y-92684513D01*
X153004699Y-92685000D01*
X151172503Y-92685000D01*
X151150190Y-92682114D01*
X151107646Y-92685000D01*
X151097581Y-92685000D01*
X151075307Y-92687194D01*
X151020480Y-92690913D01*
X151010703Y-92693557D01*
X151000617Y-92694550D01*
X150948027Y-92710503D01*
X150894978Y-92724847D01*
X150885900Y-92729350D01*
X150876207Y-92732290D01*
X150827744Y-92758194D01*
X150778508Y-92782614D01*
X150770486Y-92788799D01*
X150761550Y-92793575D01*
X150719072Y-92828436D01*
X150675545Y-92861993D01*
X150668881Y-92869627D01*
X150661052Y-92876052D01*
X150626194Y-92918527D01*
X150590048Y-92959933D01*
X150585003Y-92968718D01*
X150578575Y-92976550D01*
X150552673Y-93025010D01*
X150525300Y-93072671D01*
X150522064Y-93082275D01*
X150517290Y-93091207D01*
X150501342Y-93143778D01*
X150494191Y-93165004D01*
X150491926Y-93174821D01*
X150479550Y-93215617D01*
X150477345Y-93238002D01*
X148699963Y-100940000D01*
X147898572Y-100940000D01*
X147898572Y-95361500D01*
X147886312Y-95237018D01*
X147850002Y-95117320D01*
X147791037Y-95007006D01*
X147711685Y-94910315D01*
X147614994Y-94830963D01*
X147504680Y-94771998D01*
X147384982Y-94735688D01*
X147260500Y-94723428D01*
X145560500Y-94723428D01*
X145436018Y-94735688D01*
X145316320Y-94771998D01*
X145206006Y-94830963D01*
X145109315Y-94910315D01*
X145029963Y-95007006D01*
X145025500Y-95015356D01*
X145021037Y-95007006D01*
X144941685Y-94910315D01*
X144844994Y-94830963D01*
X144734680Y-94771998D01*
X144614982Y-94735688D01*
X144490500Y-94723428D01*
X143926250Y-94726500D01*
X143767500Y-94885250D01*
X143767500Y-98234500D01*
X143787500Y-98234500D01*
X143787500Y-98488500D01*
X143767500Y-98488500D01*
X143767500Y-98508500D01*
X143513500Y-98508500D01*
X143513500Y-98488500D01*
X143493500Y-98488500D01*
X143493500Y-98234500D01*
X143513500Y-98234500D01*
X143513500Y-94885250D01*
X143354750Y-94726500D01*
X142790500Y-94723428D01*
X142666018Y-94735688D01*
X142546320Y-94771998D01*
X142436006Y-94830963D01*
X142339315Y-94910315D01*
X142259963Y-95007006D01*
X142255500Y-95015356D01*
X142251037Y-95007006D01*
X142171685Y-94910315D01*
X142074994Y-94830963D01*
X141964680Y-94771998D01*
X141844982Y-94735688D01*
X141720500Y-94723428D01*
X140020500Y-94723428D01*
X139896018Y-94735688D01*
X139776320Y-94771998D01*
X139666006Y-94830963D01*
X139569315Y-94910315D01*
X139489963Y-95007006D01*
X139485500Y-95015356D01*
X139481037Y-95007006D01*
X139401685Y-94910315D01*
X139304994Y-94830963D01*
X139194680Y-94771998D01*
X139116032Y-94748140D01*
X139147500Y-94589939D01*
X139147500Y-94386061D01*
X139107726Y-94186102D01*
X139029705Y-93997744D01*
X138916437Y-93828226D01*
X138772274Y-93684063D01*
X138602756Y-93570795D01*
X138414398Y-93492774D01*
X138214439Y-93453000D01*
X138010561Y-93453000D01*
X137810602Y-93492774D01*
X137622244Y-93570795D01*
X137452726Y-93684063D01*
X137308563Y-93828226D01*
X137195295Y-93997744D01*
X137117274Y-94186102D01*
X137077500Y-94386061D01*
X137077500Y-94589939D01*
X137107602Y-94741274D01*
X137006320Y-94771998D01*
X136896006Y-94830963D01*
X136799315Y-94910315D01*
X136719963Y-95007006D01*
X136660998Y-95117320D01*
X136624688Y-95237018D01*
X136612428Y-95361500D01*
X136612428Y-100940000D01*
X135780038Y-100940000D01*
X134002655Y-93238010D01*
X134000450Y-93215617D01*
X133988070Y-93174807D01*
X133985808Y-93165004D01*
X133978667Y-93143808D01*
X133962710Y-93091207D01*
X133957933Y-93082270D01*
X133954699Y-93072671D01*
X133927341Y-93025036D01*
X133901425Y-92976550D01*
X133894994Y-92968714D01*
X133889951Y-92959933D01*
X133853822Y-92918546D01*
X133818948Y-92876052D01*
X133811116Y-92869624D01*
X133804454Y-92861993D01*
X133760944Y-92828449D01*
X133718450Y-92793575D01*
X133709511Y-92788797D01*
X133701491Y-92782614D01*
X133652269Y-92758201D01*
X133603793Y-92732290D01*
X133594098Y-92729349D01*
X133585021Y-92724847D01*
X133531994Y-92710510D01*
X133479383Y-92694550D01*
X133469290Y-92693556D01*
X133459519Y-92690914D01*
X133404727Y-92687197D01*
X133382419Y-92685000D01*
X133372339Y-92685000D01*
X133329810Y-92682115D01*
X133307504Y-92685000D01*
X131477275Y-92685000D01*
X131470487Y-92684335D01*
X131470000Y-92679699D01*
X131470000Y-83852275D01*
X131470666Y-83845487D01*
X131475301Y-83845000D01*
X133307504Y-83845000D01*
X133329810Y-83847885D01*
X133372339Y-83845000D01*
X133382419Y-83845000D01*
X133404727Y-83842803D01*
X133459519Y-83839086D01*
X133469290Y-83836444D01*
X133479383Y-83835450D01*
X133531994Y-83819490D01*
X133585021Y-83805153D01*
X133594098Y-83800651D01*
X133603793Y-83797710D01*
X133652269Y-83771799D01*
X133701491Y-83747386D01*
X133709511Y-83741203D01*
X133718450Y-83736425D01*
X133760944Y-83701551D01*
X133804454Y-83668007D01*
X133811116Y-83660376D01*
X133818948Y-83653948D01*
X133853822Y-83611454D01*
X133889951Y-83570067D01*
X133894994Y-83561286D01*
X133901425Y-83553450D01*
X133927341Y-83504964D01*
X133954699Y-83457329D01*
X133957933Y-83447730D01*
X133962710Y-83438793D01*
X133978667Y-83386192D01*
X133985808Y-83364996D01*
X133988070Y-83355193D01*
X134000450Y-83314383D01*
X134002655Y-83291990D01*
X135780038Y-75590000D01*
X136581428Y-75590000D01*
X136581428Y-81168500D01*
G37*
G04 #@! TD.AperFunction*
M02*
