G04 #@! TF.GenerationSoftware,KiCad,Pcbnew,(5.1.8)-1*
G04 #@! TF.CreationDate,2021-02-08T23:37:40+01:00*
G04 #@! TF.ProjectId,Sinclair,53696e63-6c61-4697-922e-6b696361645f,rev?*
G04 #@! TF.SameCoordinates,Original*
G04 #@! TF.FileFunction,Legend,Top*
G04 #@! TF.FilePolarity,Positive*
%FSLAX46Y46*%
G04 Gerber Fmt 4.6, Leading zero omitted, Abs format (unit mm)*
G04 Created by KiCad (PCBNEW (5.1.8)-1) date 2021-02-08 23:37:40*
%MOMM*%
%LPD*%
G01*
G04 APERTURE LIST*
%ADD10C,0.100000*%
%ADD11C,0.120000*%
%ADD12C,0.150000*%
G04 APERTURE END LIST*
D10*
X136263809Y-82002380D02*
X136263809Y-82716666D01*
X136216190Y-82859523D01*
X136120952Y-82954761D01*
X135978095Y-83002380D01*
X135882857Y-83002380D01*
X136882857Y-83002380D02*
X136787619Y-82954761D01*
X136740000Y-82907142D01*
X136692380Y-82811904D01*
X136692380Y-82526190D01*
X136740000Y-82430952D01*
X136787619Y-82383333D01*
X136882857Y-82335714D01*
X137025714Y-82335714D01*
X137120952Y-82383333D01*
X137168571Y-82430952D01*
X137216190Y-82526190D01*
X137216190Y-82811904D01*
X137168571Y-82907142D01*
X137120952Y-82954761D01*
X137025714Y-83002380D01*
X136882857Y-83002380D01*
X137549523Y-82335714D02*
X137787619Y-83002380D01*
X138025714Y-82335714D02*
X137787619Y-83002380D01*
X137692380Y-83240476D01*
X137644761Y-83288095D01*
X137549523Y-83335714D01*
X138406666Y-83002380D02*
X138406666Y-82002380D01*
X138978095Y-83002380D02*
X138549523Y-82430952D01*
X138978095Y-82002380D02*
X138406666Y-82573809D01*
X139406666Y-82478571D02*
X139740000Y-82478571D01*
X139882857Y-83002380D02*
X139406666Y-83002380D01*
X139406666Y-82002380D01*
X139882857Y-82002380D01*
X140501904Y-82526190D02*
X140501904Y-83002380D01*
X140168571Y-82002380D02*
X140501904Y-82526190D01*
X140835238Y-82002380D01*
X142216190Y-83383333D02*
X142168571Y-83335714D01*
X142073333Y-83192857D01*
X142025714Y-83097619D01*
X141978095Y-82954761D01*
X141930476Y-82716666D01*
X141930476Y-82526190D01*
X141978095Y-82288095D01*
X142025714Y-82145238D01*
X142073333Y-82050000D01*
X142168571Y-81907142D01*
X142216190Y-81859523D01*
X142549523Y-82954761D02*
X142692380Y-83002380D01*
X142930476Y-83002380D01*
X143025714Y-82954761D01*
X143073333Y-82907142D01*
X143120952Y-82811904D01*
X143120952Y-82716666D01*
X143073333Y-82621428D01*
X143025714Y-82573809D01*
X142930476Y-82526190D01*
X142740000Y-82478571D01*
X142644761Y-82430952D01*
X142597142Y-82383333D01*
X142549523Y-82288095D01*
X142549523Y-82192857D01*
X142597142Y-82097619D01*
X142644761Y-82050000D01*
X142740000Y-82002380D01*
X142978095Y-82002380D01*
X143120952Y-82050000D01*
X143549523Y-83002380D02*
X143549523Y-82335714D01*
X143549523Y-82002380D02*
X143501904Y-82050000D01*
X143549523Y-82097619D01*
X143597142Y-82050000D01*
X143549523Y-82002380D01*
X143549523Y-82097619D01*
X144025714Y-82335714D02*
X144025714Y-83002380D01*
X144025714Y-82430952D02*
X144073333Y-82383333D01*
X144168571Y-82335714D01*
X144311428Y-82335714D01*
X144406666Y-82383333D01*
X144454285Y-82478571D01*
X144454285Y-83002380D01*
X145359047Y-82954761D02*
X145263809Y-83002380D01*
X145073333Y-83002380D01*
X144978095Y-82954761D01*
X144930476Y-82907142D01*
X144882857Y-82811904D01*
X144882857Y-82526190D01*
X144930476Y-82430952D01*
X144978095Y-82383333D01*
X145073333Y-82335714D01*
X145263809Y-82335714D01*
X145359047Y-82383333D01*
X145930476Y-83002380D02*
X145835238Y-82954761D01*
X145787619Y-82859523D01*
X145787619Y-82002380D01*
X146740000Y-83002380D02*
X146740000Y-82478571D01*
X146692380Y-82383333D01*
X146597142Y-82335714D01*
X146406666Y-82335714D01*
X146311428Y-82383333D01*
X146740000Y-82954761D02*
X146644761Y-83002380D01*
X146406666Y-83002380D01*
X146311428Y-82954761D01*
X146263809Y-82859523D01*
X146263809Y-82764285D01*
X146311428Y-82669047D01*
X146406666Y-82621428D01*
X146644761Y-82621428D01*
X146740000Y-82573809D01*
X147216190Y-83002380D02*
X147216190Y-82335714D01*
X147216190Y-82002380D02*
X147168571Y-82050000D01*
X147216190Y-82097619D01*
X147263809Y-82050000D01*
X147216190Y-82002380D01*
X147216190Y-82097619D01*
X147692380Y-83002380D02*
X147692380Y-82335714D01*
X147692380Y-82526190D02*
X147740000Y-82430952D01*
X147787619Y-82383333D01*
X147882857Y-82335714D01*
X147978095Y-82335714D01*
X148216190Y-83383333D02*
X148263809Y-83335714D01*
X148359047Y-83192857D01*
X148406666Y-83097619D01*
X148454285Y-82954761D01*
X148501904Y-82716666D01*
X148501904Y-82526190D01*
X148454285Y-82288095D01*
X148406666Y-82145238D01*
X148359047Y-82050000D01*
X148263809Y-81907142D01*
X148216190Y-81859523D01*
D11*
X136715500Y-81335425D02*
X136965500Y-81768438D01*
X136465500Y-81768438D02*
X136715500Y-81335425D01*
X136965500Y-81768438D02*
X136465500Y-81768438D01*
D10*
X132060000Y-83840000D02*
X152420000Y-83840000D01*
X132600000Y-84390000D02*
X151860000Y-84390000D01*
X132060000Y-92690000D02*
X152420000Y-92690000D01*
X132600000Y-92140000D02*
X139990000Y-92140000D01*
X144490000Y-92140000D02*
X151860000Y-92140000D01*
X139990000Y-92140000D02*
X139990000Y-92690000D01*
X144490000Y-92140000D02*
X144490000Y-92690000D01*
X132060000Y-83840000D02*
X132060000Y-92690000D01*
X132600000Y-84390000D02*
X132600000Y-92140000D01*
X152420000Y-83840000D02*
X152420000Y-92690000D01*
X151860000Y-84390000D02*
X151860000Y-92140000D01*
X132060000Y-83840000D02*
X132600000Y-84390000D01*
X152420000Y-83840000D02*
X151860000Y-84390000D01*
X132060000Y-92690000D02*
X132600000Y-92140000D01*
X152420000Y-92690000D02*
X151860000Y-92140000D01*
D11*
X131810000Y-83590000D02*
X152670000Y-83590000D01*
X152670000Y-83590000D02*
X152670000Y-92940000D01*
X152670000Y-92940000D02*
X131810000Y-92940000D01*
X131810000Y-92940000D02*
X131810000Y-83590000D01*
X131560000Y-93190000D02*
X134100000Y-93190000D01*
X131560000Y-93190000D02*
X131560000Y-90650000D01*
X137223500Y-90987425D02*
X137473500Y-91420438D01*
X136973500Y-91420438D02*
X137223500Y-90987425D01*
X137473500Y-91420438D02*
X136973500Y-91420438D01*
D12*
X141906666Y-73112380D02*
X141906666Y-73826666D01*
X141859047Y-73969523D01*
X141763809Y-74064761D01*
X141620952Y-74112380D01*
X141525714Y-74112380D01*
X142335238Y-73207619D02*
X142382857Y-73160000D01*
X142478095Y-73112380D01*
X142716190Y-73112380D01*
X142811428Y-73160000D01*
X142859047Y-73207619D01*
X142906666Y-73302857D01*
X142906666Y-73398095D01*
X142859047Y-73540952D01*
X142287619Y-74112380D01*
X142906666Y-74112380D01*
D10*
X133083333Y-84651904D02*
X133083333Y-85223333D01*
X133045238Y-85337619D01*
X132969047Y-85413809D01*
X132854761Y-85451904D01*
X132778571Y-85451904D01*
X133883333Y-85451904D02*
X133426190Y-85451904D01*
X133654761Y-85451904D02*
X133654761Y-84651904D01*
X133578571Y-84766190D01*
X133502380Y-84842380D01*
X133426190Y-84880476D01*
M02*
