G04 #@! TF.GenerationSoftware,KiCad,Pcbnew,(5.1.8)-1*
G04 #@! TF.CreationDate,2021-02-08T23:37:40+01:00*
G04 #@! TF.ProjectId,Sinclair,53696e63-6c61-4697-922e-6b696361645f,rev?*
G04 #@! TF.SameCoordinates,Original*
G04 #@! TF.FileFunction,Copper,L1,Top*
G04 #@! TF.FilePolarity,Positive*
%FSLAX46Y46*%
G04 Gerber Fmt 4.6, Leading zero omitted, Abs format (unit mm)*
G04 Created by KiCad (PCBNEW (5.1.8)-1) date 2021-02-08 23:37:40*
%MOMM*%
%LPD*%
G01*
G04 APERTURE LIST*
G04 #@! TA.AperFunction,SMDPad,CuDef*
%ADD10R,1.700000X6.000000*%
G04 #@! TD*
G04 #@! TA.AperFunction,ComponentPad*
%ADD11O,1.727200X1.727200*%
G04 #@! TD*
G04 #@! TA.AperFunction,ComponentPad*
%ADD12R,1.727200X1.727200*%
G04 #@! TD*
G04 #@! TA.AperFunction,ViaPad*
%ADD13C,0.800000*%
G04 #@! TD*
G04 #@! TA.AperFunction,Conductor*
%ADD14C,0.250000*%
G04 #@! TD*
G04 APERTURE END LIST*
D10*
X136684500Y-78168500D03*
X139454500Y-78168500D03*
X142224500Y-78168500D03*
X144994500Y-78168500D03*
X147764500Y-78168500D03*
D11*
X147320000Y-86995000D03*
X144780000Y-86995000D03*
X142240000Y-86995000D03*
X139700000Y-86995000D03*
X137160000Y-86995000D03*
X147320000Y-89535000D03*
X144780000Y-89535000D03*
X142240000Y-89535000D03*
X139700000Y-89535000D03*
D12*
X137160000Y-89535000D03*
D13*
X142240000Y-84836000D03*
X146050000Y-82550068D03*
D14*
X142240000Y-83566000D02*
X142240000Y-84836000D01*
X141732000Y-83058000D02*
X142240000Y-83566000D01*
X139954000Y-83058000D02*
X141732000Y-83058000D01*
X139454500Y-82558500D02*
X139954000Y-83058000D01*
X139454500Y-78168500D02*
X139454500Y-82558500D01*
X148590000Y-78994000D02*
X147764500Y-78168500D01*
X148590000Y-91440000D02*
X148590000Y-78994000D01*
X137795000Y-92075000D02*
X147955000Y-92075000D01*
X147955000Y-92075000D02*
X148590000Y-91440000D01*
X137160000Y-91440000D02*
X137795000Y-92075000D01*
X137160000Y-89535000D02*
X137160000Y-91440000D01*
X139700000Y-89535000D02*
X141605000Y-91440000D01*
X141605000Y-91440000D02*
X145415000Y-91440000D01*
X145415000Y-91440000D02*
X146050000Y-90805000D01*
X146050000Y-90805000D02*
X146050000Y-82550068D01*
X144308999Y-85561001D02*
X144994500Y-84875500D01*
X137160000Y-86995000D02*
X138593999Y-85561001D01*
X138593999Y-85561001D02*
X144308999Y-85561001D01*
X144994500Y-84875500D02*
X144994500Y-78168500D01*
M02*
