G04 #@! TF.GenerationSoftware,KiCad,Pcbnew,(5.1.8)-1*
G04 #@! TF.CreationDate,2021-02-19T21:47:41+01:00*
G04 #@! TF.ProjectId,Sinclair,53696e63-6c61-4697-922e-6b696361645f,rev?*
G04 #@! TF.SameCoordinates,Original*
G04 #@! TF.FileFunction,Legend,Bot*
G04 #@! TF.FilePolarity,Positive*
%FSLAX46Y46*%
G04 Gerber Fmt 4.6, Leading zero omitted, Abs format (unit mm)*
G04 Created by KiCad (PCBNEW (5.1.8)-1) date 2021-02-19 21:47:41*
%MOMM*%
%LPD*%
G01*
G04 APERTURE LIST*
%ADD10C,0.100000*%
%ADD11C,0.120000*%
G04 APERTURE END LIST*
D10*
X131946666Y-88423571D02*
X131946666Y-88042619D01*
X131718095Y-88499761D02*
X132518095Y-88233095D01*
X131718095Y-87966428D01*
X132518095Y-87814047D02*
X132518095Y-87356904D01*
X131718095Y-87585476D02*
X132518095Y-87585476D01*
X131946666Y-87128333D02*
X131946666Y-86747380D01*
X131718095Y-87204523D02*
X132518095Y-86937857D01*
X131718095Y-86671190D01*
X131718095Y-85947380D02*
X132099047Y-86214047D01*
X131718095Y-86404523D02*
X132518095Y-86404523D01*
X132518095Y-86099761D01*
X132480000Y-86023571D01*
X132441904Y-85985476D01*
X132365714Y-85947380D01*
X132251428Y-85947380D01*
X132175238Y-85985476D01*
X132137142Y-86023571D01*
X132099047Y-86099761D01*
X132099047Y-86404523D01*
X131718095Y-85604523D02*
X132518095Y-85604523D01*
D11*
X132080000Y-92710000D02*
X131445000Y-92075000D01*
X132080000Y-92710000D02*
X132715000Y-92075000D01*
X132080000Y-90170000D02*
X132080000Y-92710000D01*
X152400000Y-83820000D02*
X153035000Y-84455000D01*
X152400000Y-83820000D02*
X151765000Y-84455000D01*
X152400000Y-86360000D02*
X152400000Y-83820000D01*
D10*
X152076190Y-92030238D02*
X152038095Y-91915952D01*
X152038095Y-91725476D01*
X152076190Y-91649285D01*
X152114285Y-91611190D01*
X152190476Y-91573095D01*
X152266666Y-91573095D01*
X152342857Y-91611190D01*
X152380952Y-91649285D01*
X152419047Y-91725476D01*
X152457142Y-91877857D01*
X152495238Y-91954047D01*
X152533333Y-91992142D01*
X152609523Y-92030238D01*
X152685714Y-92030238D01*
X152761904Y-91992142D01*
X152800000Y-91954047D01*
X152838095Y-91877857D01*
X152838095Y-91687380D01*
X152800000Y-91573095D01*
X152038095Y-91230238D02*
X152838095Y-91230238D01*
X152038095Y-90849285D02*
X152838095Y-90849285D01*
X152038095Y-90392142D01*
X152838095Y-90392142D01*
X152114285Y-89554047D02*
X152076190Y-89592142D01*
X152038095Y-89706428D01*
X152038095Y-89782619D01*
X152076190Y-89896904D01*
X152152380Y-89973095D01*
X152228571Y-90011190D01*
X152380952Y-90049285D01*
X152495238Y-90049285D01*
X152647619Y-90011190D01*
X152723809Y-89973095D01*
X152800000Y-89896904D01*
X152838095Y-89782619D01*
X152838095Y-89706428D01*
X152800000Y-89592142D01*
X152761904Y-89554047D01*
X152038095Y-88830238D02*
X152038095Y-89211190D01*
X152838095Y-89211190D01*
X152266666Y-88601666D02*
X152266666Y-88220714D01*
X152038095Y-88677857D02*
X152838095Y-88411190D01*
X152038095Y-88144523D01*
X152038095Y-87877857D02*
X152838095Y-87877857D01*
X152038095Y-87039761D02*
X152419047Y-87306428D01*
X152038095Y-87496904D02*
X152838095Y-87496904D01*
X152838095Y-87192142D01*
X152800000Y-87115952D01*
X152761904Y-87077857D01*
X152685714Y-87039761D01*
X152571428Y-87039761D01*
X152495238Y-87077857D01*
X152457142Y-87115952D01*
X152419047Y-87192142D01*
X152419047Y-87496904D01*
X148468571Y-83381904D02*
X147935238Y-83381904D01*
X148468571Y-84181904D01*
X147935238Y-84181904D01*
X147706666Y-83381904D02*
X147173333Y-84181904D01*
X147173333Y-83381904D02*
X147706666Y-84181904D01*
X146297142Y-84143809D02*
X146182857Y-84181904D01*
X145992380Y-84181904D01*
X145916190Y-84143809D01*
X145878095Y-84105714D01*
X145840000Y-84029523D01*
X145840000Y-83953333D01*
X145878095Y-83877142D01*
X145916190Y-83839047D01*
X145992380Y-83800952D01*
X146144761Y-83762857D01*
X146220952Y-83724761D01*
X146259047Y-83686666D01*
X146297142Y-83610476D01*
X146297142Y-83534285D01*
X146259047Y-83458095D01*
X146220952Y-83420000D01*
X146144761Y-83381904D01*
X145954285Y-83381904D01*
X145840000Y-83420000D01*
X145497142Y-83648571D02*
X145497142Y-84448571D01*
X145497142Y-83686666D02*
X145420952Y-83648571D01*
X145268571Y-83648571D01*
X145192380Y-83686666D01*
X145154285Y-83724761D01*
X145116190Y-83800952D01*
X145116190Y-84029523D01*
X145154285Y-84105714D01*
X145192380Y-84143809D01*
X145268571Y-84181904D01*
X145420952Y-84181904D01*
X145497142Y-84143809D01*
X144468571Y-84143809D02*
X144544761Y-84181904D01*
X144697142Y-84181904D01*
X144773333Y-84143809D01*
X144811428Y-84067619D01*
X144811428Y-83762857D01*
X144773333Y-83686666D01*
X144697142Y-83648571D01*
X144544761Y-83648571D01*
X144468571Y-83686666D01*
X144430476Y-83762857D01*
X144430476Y-83839047D01*
X144811428Y-83915238D01*
X143744761Y-84143809D02*
X143820952Y-84181904D01*
X143973333Y-84181904D01*
X144049523Y-84143809D01*
X144087619Y-84105714D01*
X144125714Y-84029523D01*
X144125714Y-83800952D01*
X144087619Y-83724761D01*
X144049523Y-83686666D01*
X143973333Y-83648571D01*
X143820952Y-83648571D01*
X143744761Y-83686666D01*
X143516190Y-83648571D02*
X143211428Y-83648571D01*
X143401904Y-83381904D02*
X143401904Y-84067619D01*
X143363809Y-84143809D01*
X143287619Y-84181904D01*
X143211428Y-84181904D01*
X142944761Y-84181904D02*
X142944761Y-83648571D01*
X142944761Y-83800952D02*
X142906666Y-83724761D01*
X142868571Y-83686666D01*
X142792380Y-83648571D01*
X142716190Y-83648571D01*
X142106666Y-83648571D02*
X142106666Y-84181904D01*
X142449523Y-83648571D02*
X142449523Y-84067619D01*
X142411428Y-84143809D01*
X142335238Y-84181904D01*
X142220952Y-84181904D01*
X142144761Y-84143809D01*
X142106666Y-84105714D01*
X141725714Y-84181904D02*
X141725714Y-83648571D01*
X141725714Y-83724761D02*
X141687619Y-83686666D01*
X141611428Y-83648571D01*
X141497142Y-83648571D01*
X141420952Y-83686666D01*
X141382857Y-83762857D01*
X141382857Y-84181904D01*
X141382857Y-83762857D02*
X141344761Y-83686666D01*
X141268571Y-83648571D01*
X141154285Y-83648571D01*
X141078095Y-83686666D01*
X141040000Y-83762857D01*
X141040000Y-84181904D01*
X140049523Y-83877142D02*
X139440000Y-83877142D01*
X139744761Y-84181904D02*
X139744761Y-83572380D01*
X139097142Y-83458095D02*
X139059047Y-83420000D01*
X138982857Y-83381904D01*
X138792380Y-83381904D01*
X138716190Y-83420000D01*
X138678095Y-83458095D01*
X138640000Y-83534285D01*
X138640000Y-83610476D01*
X138678095Y-83724761D01*
X139135238Y-84181904D01*
X138640000Y-84181904D01*
X137725714Y-83343809D02*
X138411428Y-84372380D01*
X137459047Y-83877142D02*
X136849523Y-83877142D01*
X137154285Y-84181904D02*
X137154285Y-83572380D01*
X136544761Y-83381904D02*
X136049523Y-83381904D01*
X136316190Y-83686666D01*
X136201904Y-83686666D01*
X136125714Y-83724761D01*
X136087619Y-83762857D01*
X136049523Y-83839047D01*
X136049523Y-84029523D01*
X136087619Y-84105714D01*
X136125714Y-84143809D01*
X136201904Y-84181904D01*
X136430476Y-84181904D01*
X136506666Y-84143809D01*
X136544761Y-84105714D01*
X147758095Y-94367142D02*
X147186666Y-94367142D01*
X147072380Y-94405238D01*
X146996190Y-94481428D01*
X146958095Y-94595714D01*
X146958095Y-94671904D01*
X146958095Y-93871904D02*
X146996190Y-93948095D01*
X147034285Y-93986190D01*
X147110476Y-94024285D01*
X147339047Y-94024285D01*
X147415238Y-93986190D01*
X147453333Y-93948095D01*
X147491428Y-93871904D01*
X147491428Y-93757619D01*
X147453333Y-93681428D01*
X147415238Y-93643333D01*
X147339047Y-93605238D01*
X147110476Y-93605238D01*
X147034285Y-93643333D01*
X146996190Y-93681428D01*
X146958095Y-93757619D01*
X146958095Y-93871904D01*
X147491428Y-93338571D02*
X146958095Y-93148095D01*
X147491428Y-92957619D02*
X146958095Y-93148095D01*
X146767619Y-93224285D01*
X146729523Y-93262380D01*
X146691428Y-93338571D01*
X146958095Y-92652857D02*
X147758095Y-92652857D01*
X146958095Y-92195714D02*
X147415238Y-92538571D01*
X147758095Y-92195714D02*
X147300952Y-92652857D01*
X147377142Y-91852857D02*
X147377142Y-91586190D01*
X146958095Y-91471904D02*
X146958095Y-91852857D01*
X147758095Y-91852857D01*
X147758095Y-91471904D01*
X147339047Y-90976666D02*
X146958095Y-90976666D01*
X147758095Y-91243333D02*
X147339047Y-90976666D01*
X147758095Y-90710000D01*
X145527857Y-91352857D02*
X145794523Y-91352857D01*
X145794523Y-91771904D02*
X145794523Y-90971904D01*
X145413571Y-90971904D01*
X145108809Y-91771904D02*
X145108809Y-90971904D01*
X144270714Y-91771904D02*
X144537380Y-91390952D01*
X144727857Y-91771904D02*
X144727857Y-90971904D01*
X144423095Y-90971904D01*
X144346904Y-91010000D01*
X144308809Y-91048095D01*
X144270714Y-91124285D01*
X144270714Y-91238571D01*
X144308809Y-91314761D01*
X144346904Y-91352857D01*
X144423095Y-91390952D01*
X144727857Y-91390952D01*
X143927857Y-91352857D02*
X143661190Y-91352857D01*
X143546904Y-91771904D02*
X143927857Y-91771904D01*
X143927857Y-90971904D01*
X143546904Y-90971904D01*
X143280238Y-90971904D02*
X142785000Y-90971904D01*
X143051666Y-91276666D01*
X142937380Y-91276666D01*
X142861190Y-91314761D01*
X142823095Y-91352857D01*
X142785000Y-91429047D01*
X142785000Y-91619523D01*
X142823095Y-91695714D01*
X142861190Y-91733809D01*
X142937380Y-91771904D01*
X143165952Y-91771904D01*
X143242142Y-91733809D01*
X143280238Y-91695714D01*
X142632619Y-91848095D02*
X142023095Y-91848095D01*
X141870714Y-91733809D02*
X141756428Y-91771904D01*
X141565952Y-91771904D01*
X141489761Y-91733809D01*
X141451666Y-91695714D01*
X141413571Y-91619523D01*
X141413571Y-91543333D01*
X141451666Y-91467142D01*
X141489761Y-91429047D01*
X141565952Y-91390952D01*
X141718333Y-91352857D01*
X141794523Y-91314761D01*
X141832619Y-91276666D01*
X141870714Y-91200476D01*
X141870714Y-91124285D01*
X141832619Y-91048095D01*
X141794523Y-91010000D01*
X141718333Y-90971904D01*
X141527857Y-90971904D01*
X141413571Y-91010000D01*
X141070714Y-91352857D02*
X140804047Y-91352857D01*
X140689761Y-91771904D02*
X141070714Y-91771904D01*
X141070714Y-90971904D01*
X140689761Y-90971904D01*
X139965952Y-91771904D02*
X140346904Y-91771904D01*
X140346904Y-90971904D01*
X139089761Y-91771904D02*
X139089761Y-90971904D01*
X138632619Y-91771904D01*
X138632619Y-90971904D01*
X137680238Y-90933809D02*
X138365952Y-91962380D01*
X136956428Y-91695714D02*
X136994523Y-91733809D01*
X137108809Y-91771904D01*
X137185000Y-91771904D01*
X137299285Y-91733809D01*
X137375476Y-91657619D01*
X137413571Y-91581428D01*
X137451666Y-91429047D01*
X137451666Y-91314761D01*
X137413571Y-91162380D01*
X137375476Y-91086190D01*
X137299285Y-91010000D01*
X137185000Y-90971904D01*
X137108809Y-90971904D01*
X136994523Y-91010000D01*
X136956428Y-91048095D01*
X145527857Y-92652857D02*
X145794523Y-92652857D01*
X145794523Y-93071904D02*
X145794523Y-92271904D01*
X145413571Y-92271904D01*
X145108809Y-93071904D02*
X145108809Y-92271904D01*
X144270714Y-93071904D02*
X144537380Y-92690952D01*
X144727857Y-93071904D02*
X144727857Y-92271904D01*
X144423095Y-92271904D01*
X144346904Y-92310000D01*
X144308809Y-92348095D01*
X144270714Y-92424285D01*
X144270714Y-92538571D01*
X144308809Y-92614761D01*
X144346904Y-92652857D01*
X144423095Y-92690952D01*
X144727857Y-92690952D01*
X143927857Y-92652857D02*
X143661190Y-92652857D01*
X143546904Y-93071904D02*
X143927857Y-93071904D01*
X143927857Y-92271904D01*
X143546904Y-92271904D01*
X143280238Y-92271904D02*
X142785000Y-92271904D01*
X143051666Y-92576666D01*
X142937380Y-92576666D01*
X142861190Y-92614761D01*
X142823095Y-92652857D01*
X142785000Y-92729047D01*
X142785000Y-92919523D01*
X142823095Y-92995714D01*
X142861190Y-93033809D01*
X142937380Y-93071904D01*
X143165952Y-93071904D01*
X143242142Y-93033809D01*
X143280238Y-92995714D01*
X142632619Y-93148095D02*
X142023095Y-93148095D01*
X141832619Y-93071904D02*
X141832619Y-92271904D01*
X141527857Y-92271904D01*
X141451666Y-92310000D01*
X141413571Y-92348095D01*
X141375476Y-92424285D01*
X141375476Y-92538571D01*
X141413571Y-92614761D01*
X141451666Y-92652857D01*
X141527857Y-92690952D01*
X141832619Y-92690952D01*
X140880238Y-92271904D02*
X140727857Y-92271904D01*
X140651666Y-92310000D01*
X140575476Y-92386190D01*
X140537380Y-92538571D01*
X140537380Y-92805238D01*
X140575476Y-92957619D01*
X140651666Y-93033809D01*
X140727857Y-93071904D01*
X140880238Y-93071904D01*
X140956428Y-93033809D01*
X141032619Y-92957619D01*
X141070714Y-92805238D01*
X141070714Y-92538571D01*
X141032619Y-92386190D01*
X140956428Y-92310000D01*
X140880238Y-92271904D01*
X139813571Y-93071904D02*
X140194523Y-93071904D01*
X140194523Y-92271904D01*
X138937380Y-93071904D02*
X138937380Y-92271904D01*
X138480238Y-93071904D01*
X138480238Y-92271904D01*
X137527857Y-92233809D02*
X138213571Y-93262380D01*
X136804047Y-92995714D02*
X136842142Y-93033809D01*
X136956428Y-93071904D01*
X137032619Y-93071904D01*
X137146904Y-93033809D01*
X137223095Y-92957619D01*
X137261190Y-92881428D01*
X137299285Y-92729047D01*
X137299285Y-92614761D01*
X137261190Y-92462380D01*
X137223095Y-92386190D01*
X137146904Y-92310000D01*
X137032619Y-92271904D01*
X136956428Y-92271904D01*
X136842142Y-92310000D01*
X136804047Y-92348095D01*
X145527857Y-93952857D02*
X145794523Y-93952857D01*
X145794523Y-94371904D02*
X145794523Y-93571904D01*
X145413571Y-93571904D01*
X145108809Y-94371904D02*
X145108809Y-93571904D01*
X144270714Y-94371904D02*
X144537380Y-93990952D01*
X144727857Y-94371904D02*
X144727857Y-93571904D01*
X144423095Y-93571904D01*
X144346904Y-93610000D01*
X144308809Y-93648095D01*
X144270714Y-93724285D01*
X144270714Y-93838571D01*
X144308809Y-93914761D01*
X144346904Y-93952857D01*
X144423095Y-93990952D01*
X144727857Y-93990952D01*
X143927857Y-93952857D02*
X143661190Y-93952857D01*
X143546904Y-94371904D02*
X143927857Y-94371904D01*
X143927857Y-93571904D01*
X143546904Y-93571904D01*
X143242142Y-93648095D02*
X143204047Y-93610000D01*
X143127857Y-93571904D01*
X142937380Y-93571904D01*
X142861190Y-93610000D01*
X142823095Y-93648095D01*
X142785000Y-93724285D01*
X142785000Y-93800476D01*
X142823095Y-93914761D01*
X143280238Y-94371904D01*
X142785000Y-94371904D01*
X142632619Y-94448095D02*
X142023095Y-94448095D01*
X141832619Y-94371904D02*
X141832619Y-93571904D01*
X141527857Y-93571904D01*
X141451666Y-93610000D01*
X141413571Y-93648095D01*
X141375476Y-93724285D01*
X141375476Y-93838571D01*
X141413571Y-93914761D01*
X141451666Y-93952857D01*
X141527857Y-93990952D01*
X141832619Y-93990952D01*
X140880238Y-93571904D02*
X140727857Y-93571904D01*
X140651666Y-93610000D01*
X140575476Y-93686190D01*
X140537380Y-93838571D01*
X140537380Y-94105238D01*
X140575476Y-94257619D01*
X140651666Y-94333809D01*
X140727857Y-94371904D01*
X140880238Y-94371904D01*
X140956428Y-94333809D01*
X141032619Y-94257619D01*
X141070714Y-94105238D01*
X141070714Y-93838571D01*
X141032619Y-93686190D01*
X140956428Y-93610000D01*
X140880238Y-93571904D01*
X139813571Y-94371904D02*
X140194523Y-94371904D01*
X140194523Y-93571904D01*
X138937380Y-94371904D02*
X138937380Y-93571904D01*
X138480238Y-94371904D01*
X138480238Y-93571904D01*
X137527857Y-93533809D02*
X138213571Y-94562380D01*
X136804047Y-94295714D02*
X136842142Y-94333809D01*
X136956428Y-94371904D01*
X137032619Y-94371904D01*
X137146904Y-94333809D01*
X137223095Y-94257619D01*
X137261190Y-94181428D01*
X137299285Y-94029047D01*
X137299285Y-93914761D01*
X137261190Y-93762380D01*
X137223095Y-93686190D01*
X137146904Y-93610000D01*
X137032619Y-93571904D01*
X136956428Y-93571904D01*
X136842142Y-93610000D01*
X136804047Y-93648095D01*
M02*
