G04 #@! TF.GenerationSoftware,KiCad,Pcbnew,(5.1.8)-1*
G04 #@! TF.CreationDate,2023-02-22T00:13:33+01:00*
G04 #@! TF.ProjectId,Gameport,47616d65-706f-4727-942e-6b696361645f,rev?*
G04 #@! TF.SameCoordinates,Original*
G04 #@! TF.FileFunction,Soldermask,Top*
G04 #@! TF.FilePolarity,Negative*
%FSLAX46Y46*%
G04 Gerber Fmt 4.6, Leading zero omitted, Abs format (unit mm)*
G04 Created by KiCad (PCBNEW (5.1.8)-1) date 2023-02-22 00:13:33*
%MOMM*%
%LPD*%
G01*
G04 APERTURE LIST*
%ADD10O,1.727200X1.727200*%
%ADD11R,1.727200X1.727200*%
%ADD12C,5.100000*%
%ADD13R,1.700000X1.700000*%
%ADD14O,1.700000X1.700000*%
%ADD15C,1.700000*%
%ADD16R,1.600000X1.600000*%
%ADD17O,1.600000X1.600000*%
%ADD18C,1.500000*%
%ADD19R,1.500000X1.500000*%
%ADD20C,1.600000*%
G04 APERTURE END LIST*
D10*
X160655000Y-105410000D03*
X158115000Y-105410000D03*
X155575000Y-105410000D03*
X153035000Y-105410000D03*
X150495000Y-105410000D03*
X160655000Y-107950000D03*
X158115000Y-107950000D03*
X155575000Y-107950000D03*
X153035000Y-107950000D03*
D11*
X150495000Y-107950000D03*
X127635000Y-107950000D03*
D10*
X130175000Y-107950000D03*
X132715000Y-107950000D03*
X135255000Y-107950000D03*
X137795000Y-107950000D03*
X127635000Y-105410000D03*
X130175000Y-105410000D03*
X132715000Y-105410000D03*
X135255000Y-105410000D03*
X137795000Y-105410000D03*
D12*
X118745000Y-107950000D03*
X169545000Y-107950000D03*
X169545000Y-80010000D03*
X118745000Y-79995001D03*
D13*
X170180000Y-99695000D03*
D14*
X170180000Y-102235000D03*
G36*
G01*
X135855000Y-83400000D02*
X134655000Y-83400000D01*
G75*
G02*
X134405000Y-83150000I0J250000D01*
G01*
X134405000Y-81950000D01*
G75*
G02*
X134655000Y-81700000I250000J0D01*
G01*
X135855000Y-81700000D01*
G75*
G02*
X136105000Y-81950000I0J-250000D01*
G01*
X136105000Y-83150000D01*
G75*
G02*
X135855000Y-83400000I-250000J0D01*
G01*
G37*
D15*
X137795000Y-82550000D03*
X140335000Y-82550000D03*
X142875000Y-82550000D03*
X145415000Y-82550000D03*
X147955000Y-82550000D03*
X150495000Y-82550000D03*
X153035000Y-82550000D03*
X135255000Y-80010000D03*
X137795000Y-80010000D03*
X140335000Y-80010000D03*
X142875000Y-80010000D03*
X145415000Y-80010000D03*
X147955000Y-80010000D03*
X150495000Y-80010000D03*
X153035000Y-80010000D03*
D16*
X130810000Y-95885000D03*
D17*
X130810000Y-88265000D03*
X157480000Y-88265000D03*
D16*
X157480000Y-95885000D03*
D18*
X137795000Y-90805000D03*
X140335000Y-90805000D03*
D19*
X135255000Y-90805000D03*
X147955000Y-90805000D03*
D18*
X153035000Y-90805000D03*
X150495000Y-90805000D03*
D17*
X127635000Y-86360000D03*
D20*
X120015000Y-86360000D03*
D17*
X168275000Y-86360000D03*
D20*
X160655000Y-86360000D03*
X120015000Y-89535000D03*
D17*
X127635000Y-89535000D03*
D20*
X160655000Y-89535000D03*
D17*
X168275000Y-89535000D03*
D20*
X120015000Y-95885000D03*
D17*
X127635000Y-95885000D03*
D20*
X168275000Y-95885000D03*
D17*
X160655000Y-95885000D03*
X127635000Y-92710000D03*
D20*
X120015000Y-92710000D03*
D17*
X168275000Y-92710000D03*
D20*
X160655000Y-92710000D03*
M02*
