G04 #@! TF.GenerationSoftware,KiCad,Pcbnew,(5.1.8)-1*
G04 #@! TF.CreationDate,2023-01-27T03:14:51+01:00*
G04 #@! TF.ProjectId,Gameport,47616d65-706f-4727-942e-6b696361645f,rev?*
G04 #@! TF.SameCoordinates,Original*
G04 #@! TF.FileFunction,Soldermask,Top*
G04 #@! TF.FilePolarity,Negative*
%FSLAX46Y46*%
G04 Gerber Fmt 4.6, Leading zero omitted, Abs format (unit mm)*
G04 Created by KiCad (PCBNEW (5.1.8)-1) date 2023-01-27 03:14:51*
%MOMM*%
%LPD*%
G01*
G04 APERTURE LIST*
%ADD10C,1.550000*%
%ADD11R,1.550000X1.550000*%
%ADD12O,1.727200X1.727200*%
%ADD13R,1.727200X1.727200*%
%ADD14C,5.100000*%
%ADD15R,1.700000X1.700000*%
%ADD16O,1.700000X1.700000*%
%ADD17R,1.600000X1.600000*%
%ADD18O,1.600000X1.600000*%
%ADD19C,1.700000*%
%ADD20R,1.500000X1.500000*%
%ADD21C,1.500000*%
%ADD22C,1.600000*%
G04 APERTURE END LIST*
D10*
X135335000Y-93345000D03*
D11*
X140335000Y-93345000D03*
D10*
X137835000Y-88345000D03*
X148035000Y-93345000D03*
D11*
X153035000Y-93345000D03*
D10*
X150535000Y-88345000D03*
D12*
X160655000Y-105410000D03*
X158115000Y-105410000D03*
X155575000Y-105410000D03*
X153035000Y-105410000D03*
X150495000Y-105410000D03*
X160655000Y-107950000D03*
X158115000Y-107950000D03*
X155575000Y-107950000D03*
X153035000Y-107950000D03*
D13*
X150495000Y-107950000D03*
X127635000Y-107950000D03*
D12*
X130175000Y-107950000D03*
X132715000Y-107950000D03*
X135255000Y-107950000D03*
X137795000Y-107950000D03*
X127635000Y-105410000D03*
X130175000Y-105410000D03*
X132715000Y-105410000D03*
X135255000Y-105410000D03*
X137795000Y-105410000D03*
D14*
X118745000Y-107950000D03*
X169545000Y-107950000D03*
X169545000Y-80010000D03*
X118745000Y-79995001D03*
D15*
X170180000Y-95885000D03*
D16*
X170180000Y-98425000D03*
D17*
X130810000Y-88265000D03*
D18*
X123190000Y-88265000D03*
X165100000Y-88265000D03*
D17*
X157480000Y-88265000D03*
G36*
G01*
X135855000Y-83400000D02*
X134655000Y-83400000D01*
G75*
G02*
X134405000Y-83150000I0J250000D01*
G01*
X134405000Y-81950000D01*
G75*
G02*
X134655000Y-81700000I250000J0D01*
G01*
X135855000Y-81700000D01*
G75*
G02*
X136105000Y-81950000I0J-250000D01*
G01*
X136105000Y-83150000D01*
G75*
G02*
X135855000Y-83400000I-250000J0D01*
G01*
G37*
D19*
X137795000Y-82550000D03*
X140335000Y-82550000D03*
X142875000Y-82550000D03*
X145415000Y-82550000D03*
X147955000Y-82550000D03*
X150495000Y-82550000D03*
X153035000Y-82550000D03*
X135255000Y-80010000D03*
X137795000Y-80010000D03*
X140335000Y-80010000D03*
X142875000Y-80010000D03*
X145415000Y-80010000D03*
X147955000Y-80010000D03*
X150495000Y-80010000D03*
X153035000Y-80010000D03*
D20*
X135255000Y-98425000D03*
D21*
X140335000Y-98425000D03*
X137795000Y-98425000D03*
X150495000Y-98425000D03*
X153035000Y-98425000D03*
D20*
X147955000Y-98425000D03*
D18*
X130810000Y-91440000D03*
D22*
X123190000Y-91440000D03*
D18*
X165100000Y-97790000D03*
D22*
X157480000Y-97790000D03*
X123190000Y-94615000D03*
D18*
X130810000Y-94615000D03*
D22*
X157480000Y-94615000D03*
D18*
X165100000Y-94615000D03*
D22*
X123190000Y-97790000D03*
D18*
X130810000Y-97790000D03*
X165100000Y-91440000D03*
D22*
X157480000Y-91440000D03*
M02*
