M48
INCH,TZ
T1C0.0157
T2C0.0315
T3C0.0394
T4C0.0400
T5C0.1200
%
G90
G05
T1
X58465Y-39965
X60715Y-38500
X60750Y-43250
X61500Y-30561
X62250Y-39750
T2
X47250Y-35250
X50250Y-35250
X63250Y-37750
X66250Y-37750
X62000Y-34750
X62000Y-37750
X53250Y-35750
X54250Y-35750
X55250Y-35750
X47250Y-37750
X50250Y-37750
X63250Y-35250
X66250Y-35250
X63250Y-36500
X66250Y-36500
X47250Y-36500
X50250Y-36500
X63250Y-34000
X66250Y-34000
X51500Y-34750
X51500Y-37750
X47250Y-34000
X50250Y-34000
X58250Y-35750
X59250Y-35750
X60250Y-35750
T3
X53250Y-31500
X53250Y-32500
X54250Y-31500
X54250Y-32500
X55250Y-31500
X55250Y-32500
X56250Y-31500
X56250Y-32500
X57250Y-31500
X57250Y-32500
X58250Y-31500
X58250Y-32500
X59250Y-31500
X59250Y-32500
X60250Y-31500
X60250Y-32500
X67000Y-39250
X67000Y-40250
T4
X50250Y-41500
X50250Y-42500
X51250Y-41500
X51250Y-42500
X52250Y-41500
X52250Y-42500
X53250Y-41500
X53250Y-42500
X54250Y-41500
X54250Y-42500
X59250Y-41500
X59250Y-42500
X60250Y-41500
X60250Y-42500
X61250Y-41500
X61250Y-42500
X62250Y-41500
X62250Y-42500
X63250Y-41500
X63250Y-42500
T5
X66750Y-31500
X46750Y-42500
X66750Y-42500
X46750Y-31494
T0
M30
