M48
INCH,TZ
T1C0.0157
T2C0.0315
T3C0.0394
T4C0.0400
T5C0.1200
%
G90
G05
T1
X58215Y-41500
X61000Y-30250
X61000Y-32965
X61250Y-33600
X61500Y-30561
X62750Y-40215
X64000Y-40215
X65500Y-41061
X65750Y-40439
T2
X62000Y-37250
X65000Y-37250
X48500Y-38500
X51500Y-38500
X62000Y-34750
X65000Y-34750
X62000Y-38500
X65000Y-38500
X62000Y-36000
X65000Y-36000
X48500Y-34750
X51500Y-34750
X48500Y-36000
X51500Y-36000
X48500Y-37250
X51500Y-37250
X58250Y-38750
X59250Y-38750
X60250Y-38750
X53250Y-38750
X54250Y-38750
X55250Y-38750
T3
X58281Y-36750
X59266Y-34781
X60250Y-36750
X67000Y-37750
X67000Y-38750
X53281Y-36750
X54266Y-34781
X55250Y-36750
X53250Y-31500
X53250Y-32500
X54250Y-31500
X54250Y-32500
X55250Y-31500
X55250Y-32500
X56250Y-31500
X56250Y-32500
X57250Y-31500
X57250Y-32500
X58250Y-31500
X58250Y-32500
X59250Y-31500
X59250Y-32500
X60250Y-31500
X60250Y-32500
T4
X59250Y-41500
X59250Y-42500
X60250Y-41500
X60250Y-42500
X61250Y-41500
X61250Y-42500
X62250Y-41500
X62250Y-42500
X63250Y-41500
X63250Y-42500
X50250Y-41500
X50250Y-42500
X51250Y-41500
X51250Y-42500
X52250Y-41500
X52250Y-42500
X53250Y-41500
X53250Y-42500
X54250Y-41500
X54250Y-42500
T5
X46750Y-42500
X66750Y-42500
X66750Y-31500
X46750Y-31494
T0
M30
