G04 #@! TF.GenerationSoftware,KiCad,Pcbnew,(5.1.8)-1*
G04 #@! TF.CreationDate,2024-03-17T02:40:50+01:00*
G04 #@! TF.ProjectId,Gameport,47616d65-706f-4727-942e-6b696361645f,rev?*
G04 #@! TF.SameCoordinates,Original*
G04 #@! TF.FileFunction,Legend,Top*
G04 #@! TF.FilePolarity,Positive*
%FSLAX46Y46*%
G04 Gerber Fmt 4.6, Leading zero omitted, Abs format (unit mm)*
G04 Created by KiCad (PCBNEW (5.1.8)-1) date 2024-03-17 02:40:50*
%MOMM*%
%LPD*%
G01*
G04 APERTURE LIST*
%ADD10C,0.100000*%
%ADD11C,0.010000*%
%ADD12C,0.120000*%
%ADD13C,0.150000*%
G04 APERTURE END LIST*
D10*
X157537619Y-91121904D02*
X157537619Y-90321904D01*
X157842380Y-90321904D01*
X157918571Y-90360000D01*
X157956666Y-90398095D01*
X157994761Y-90474285D01*
X157994761Y-90588571D01*
X157956666Y-90664761D01*
X157918571Y-90702857D01*
X157842380Y-90740952D01*
X157537619Y-90740952D01*
X158794761Y-91045714D02*
X158756666Y-91083809D01*
X158642380Y-91121904D01*
X158566190Y-91121904D01*
X158451904Y-91083809D01*
X158375714Y-91007619D01*
X158337619Y-90931428D01*
X158299523Y-90779047D01*
X158299523Y-90664761D01*
X158337619Y-90512380D01*
X158375714Y-90436190D01*
X158451904Y-90360000D01*
X158566190Y-90321904D01*
X158642380Y-90321904D01*
X158756666Y-90360000D01*
X158794761Y-90398095D01*
X160166190Y-90360000D02*
X160090000Y-90321904D01*
X159975714Y-90321904D01*
X159861428Y-90360000D01*
X159785238Y-90436190D01*
X159747142Y-90512380D01*
X159709047Y-90664761D01*
X159709047Y-90779047D01*
X159747142Y-90931428D01*
X159785238Y-91007619D01*
X159861428Y-91083809D01*
X159975714Y-91121904D01*
X160051904Y-91121904D01*
X160166190Y-91083809D01*
X160204285Y-91045714D01*
X160204285Y-90779047D01*
X160051904Y-90779047D01*
X160890000Y-91121904D02*
X160890000Y-90702857D01*
X160851904Y-90626666D01*
X160775714Y-90588571D01*
X160623333Y-90588571D01*
X160547142Y-90626666D01*
X160890000Y-91083809D02*
X160813809Y-91121904D01*
X160623333Y-91121904D01*
X160547142Y-91083809D01*
X160509047Y-91007619D01*
X160509047Y-90931428D01*
X160547142Y-90855238D01*
X160623333Y-90817142D01*
X160813809Y-90817142D01*
X160890000Y-90779047D01*
X161270952Y-91121904D02*
X161270952Y-90588571D01*
X161270952Y-90664761D02*
X161309047Y-90626666D01*
X161385238Y-90588571D01*
X161499523Y-90588571D01*
X161575714Y-90626666D01*
X161613809Y-90702857D01*
X161613809Y-91121904D01*
X161613809Y-90702857D02*
X161651904Y-90626666D01*
X161728095Y-90588571D01*
X161842380Y-90588571D01*
X161918571Y-90626666D01*
X161956666Y-90702857D01*
X161956666Y-91121904D01*
X162642380Y-91083809D02*
X162566190Y-91121904D01*
X162413809Y-91121904D01*
X162337619Y-91083809D01*
X162299523Y-91007619D01*
X162299523Y-90702857D01*
X162337619Y-90626666D01*
X162413809Y-90588571D01*
X162566190Y-90588571D01*
X162642380Y-90626666D01*
X162680476Y-90702857D01*
X162680476Y-90779047D01*
X162299523Y-90855238D01*
X163023333Y-90588571D02*
X163023333Y-91388571D01*
X163023333Y-90626666D02*
X163099523Y-90588571D01*
X163251904Y-90588571D01*
X163328095Y-90626666D01*
X163366190Y-90664761D01*
X163404285Y-90740952D01*
X163404285Y-90969523D01*
X163366190Y-91045714D01*
X163328095Y-91083809D01*
X163251904Y-91121904D01*
X163099523Y-91121904D01*
X163023333Y-91083809D01*
X163861428Y-91121904D02*
X163785238Y-91083809D01*
X163747142Y-91045714D01*
X163709047Y-90969523D01*
X163709047Y-90740952D01*
X163747142Y-90664761D01*
X163785238Y-90626666D01*
X163861428Y-90588571D01*
X163975714Y-90588571D01*
X164051904Y-90626666D01*
X164090000Y-90664761D01*
X164128095Y-90740952D01*
X164128095Y-90969523D01*
X164090000Y-91045714D01*
X164051904Y-91083809D01*
X163975714Y-91121904D01*
X163861428Y-91121904D01*
X164470952Y-91121904D02*
X164470952Y-90588571D01*
X164470952Y-90740952D02*
X164509047Y-90664761D01*
X164547142Y-90626666D01*
X164623333Y-90588571D01*
X164699523Y-90588571D01*
X164851904Y-90588571D02*
X165156666Y-90588571D01*
X164966190Y-90321904D02*
X164966190Y-91007619D01*
X165004285Y-91083809D01*
X165080476Y-91121904D01*
X165156666Y-91121904D01*
X155080476Y-92726666D02*
X155042380Y-92688571D01*
X154966190Y-92574285D01*
X154928095Y-92498095D01*
X154890000Y-92383809D01*
X154851904Y-92193333D01*
X154851904Y-92040952D01*
X154890000Y-91850476D01*
X154928095Y-91736190D01*
X154966190Y-91660000D01*
X155042380Y-91545714D01*
X155080476Y-91507619D01*
X155842380Y-92345714D02*
X155804285Y-92383809D01*
X155690000Y-92421904D01*
X155613809Y-92421904D01*
X155499523Y-92383809D01*
X155423333Y-92307619D01*
X155385238Y-92231428D01*
X155347142Y-92079047D01*
X155347142Y-91964761D01*
X155385238Y-91812380D01*
X155423333Y-91736190D01*
X155499523Y-91660000D01*
X155613809Y-91621904D01*
X155690000Y-91621904D01*
X155804285Y-91660000D01*
X155842380Y-91698095D01*
X156528095Y-91621904D02*
X156375714Y-91621904D01*
X156299523Y-91660000D01*
X156261428Y-91698095D01*
X156185238Y-91812380D01*
X156147142Y-91964761D01*
X156147142Y-92269523D01*
X156185238Y-92345714D01*
X156223333Y-92383809D01*
X156299523Y-92421904D01*
X156451904Y-92421904D01*
X156528095Y-92383809D01*
X156566190Y-92345714D01*
X156604285Y-92269523D01*
X156604285Y-92079047D01*
X156566190Y-92002857D01*
X156528095Y-91964761D01*
X156451904Y-91926666D01*
X156299523Y-91926666D01*
X156223333Y-91964761D01*
X156185238Y-92002857D01*
X156147142Y-92079047D01*
X157290000Y-91888571D02*
X157290000Y-92421904D01*
X157099523Y-91583809D02*
X156909047Y-92155238D01*
X157404285Y-92155238D01*
X158547142Y-91621904D02*
X158547142Y-92193333D01*
X158509047Y-92307619D01*
X158432857Y-92383809D01*
X158318571Y-92421904D01*
X158242380Y-92421904D01*
X159042380Y-92421904D02*
X158966190Y-92383809D01*
X158928095Y-92345714D01*
X158890000Y-92269523D01*
X158890000Y-92040952D01*
X158928095Y-91964761D01*
X158966190Y-91926666D01*
X159042380Y-91888571D01*
X159156666Y-91888571D01*
X159232857Y-91926666D01*
X159270952Y-91964761D01*
X159309047Y-92040952D01*
X159309047Y-92269523D01*
X159270952Y-92345714D01*
X159232857Y-92383809D01*
X159156666Y-92421904D01*
X159042380Y-92421904D01*
X159575714Y-91888571D02*
X159766190Y-92421904D01*
X159956666Y-91888571D02*
X159766190Y-92421904D01*
X159690000Y-92612380D01*
X159651904Y-92650476D01*
X159575714Y-92688571D01*
X160261428Y-92421904D02*
X160261428Y-91621904D01*
X160718571Y-92421904D02*
X160375714Y-91964761D01*
X160718571Y-91621904D02*
X160261428Y-92079047D01*
X161061428Y-92002857D02*
X161328095Y-92002857D01*
X161442380Y-92421904D02*
X161061428Y-92421904D01*
X161061428Y-91621904D01*
X161442380Y-91621904D01*
X161937619Y-92040952D02*
X161937619Y-92421904D01*
X161670952Y-91621904D02*
X161937619Y-92040952D01*
X162204285Y-91621904D01*
X163042380Y-92193333D02*
X163423333Y-92193333D01*
X162966190Y-92421904D02*
X163232857Y-91621904D01*
X163499523Y-92421904D01*
X164109047Y-92421904D02*
X164109047Y-91621904D01*
X164109047Y-92383809D02*
X164032857Y-92421904D01*
X163880476Y-92421904D01*
X163804285Y-92383809D01*
X163766190Y-92345714D01*
X163728095Y-92269523D01*
X163728095Y-92040952D01*
X163766190Y-91964761D01*
X163804285Y-91926666D01*
X163880476Y-91888571D01*
X164032857Y-91888571D01*
X164109047Y-91926666D01*
X164832857Y-92421904D02*
X164832857Y-92002857D01*
X164794761Y-91926666D01*
X164718571Y-91888571D01*
X164566190Y-91888571D01*
X164490000Y-91926666D01*
X164832857Y-92383809D02*
X164756666Y-92421904D01*
X164566190Y-92421904D01*
X164490000Y-92383809D01*
X164451904Y-92307619D01*
X164451904Y-92231428D01*
X164490000Y-92155238D01*
X164566190Y-92117142D01*
X164756666Y-92117142D01*
X164832857Y-92079047D01*
X165213809Y-91888571D02*
X165213809Y-92688571D01*
X165213809Y-91926666D02*
X165290000Y-91888571D01*
X165442380Y-91888571D01*
X165518571Y-91926666D01*
X165556666Y-91964761D01*
X165594761Y-92040952D01*
X165594761Y-92269523D01*
X165556666Y-92345714D01*
X165518571Y-92383809D01*
X165442380Y-92421904D01*
X165290000Y-92421904D01*
X165213809Y-92383809D01*
X165823333Y-91888571D02*
X166128095Y-91888571D01*
X165937619Y-91621904D02*
X165937619Y-92307619D01*
X165975714Y-92383809D01*
X166051904Y-92421904D01*
X166128095Y-92421904D01*
X166699523Y-92383809D02*
X166623333Y-92421904D01*
X166470952Y-92421904D01*
X166394761Y-92383809D01*
X166356666Y-92307619D01*
X166356666Y-92002857D01*
X166394761Y-91926666D01*
X166470952Y-91888571D01*
X166623333Y-91888571D01*
X166699523Y-91926666D01*
X166737619Y-92002857D01*
X166737619Y-92079047D01*
X166356666Y-92155238D01*
X167080476Y-92421904D02*
X167080476Y-91888571D01*
X167080476Y-92040952D02*
X167118571Y-91964761D01*
X167156666Y-91926666D01*
X167232857Y-91888571D01*
X167309047Y-91888571D01*
X167499523Y-92726666D02*
X167537619Y-92688571D01*
X167613809Y-92574285D01*
X167651904Y-92498095D01*
X167690000Y-92383809D01*
X167728095Y-92193333D01*
X167728095Y-92040952D01*
X167690000Y-91850476D01*
X167651904Y-91736190D01*
X167613809Y-91660000D01*
X167537619Y-91545714D01*
X167499523Y-91507619D01*
X156966190Y-94488571D02*
X156966190Y-95136190D01*
X156928095Y-95212380D01*
X156890000Y-95250476D01*
X156813809Y-95288571D01*
X156699523Y-95288571D01*
X156623333Y-95250476D01*
X156966190Y-94983809D02*
X156890000Y-95021904D01*
X156737619Y-95021904D01*
X156661428Y-94983809D01*
X156623333Y-94945714D01*
X156585238Y-94869523D01*
X156585238Y-94640952D01*
X156623333Y-94564761D01*
X156661428Y-94526666D01*
X156737619Y-94488571D01*
X156890000Y-94488571D01*
X156966190Y-94526666D01*
X157347142Y-95021904D02*
X157347142Y-94488571D01*
X157347142Y-94221904D02*
X157309047Y-94260000D01*
X157347142Y-94298095D01*
X157385238Y-94260000D01*
X157347142Y-94221904D01*
X157347142Y-94298095D01*
X157613809Y-94488571D02*
X157918571Y-94488571D01*
X157728095Y-94221904D02*
X157728095Y-94907619D01*
X157766190Y-94983809D01*
X157842380Y-95021904D01*
X157918571Y-95021904D01*
X158185238Y-95021904D02*
X158185238Y-94221904D01*
X158528095Y-95021904D02*
X158528095Y-94602857D01*
X158490000Y-94526666D01*
X158413809Y-94488571D01*
X158299523Y-94488571D01*
X158223333Y-94526666D01*
X158185238Y-94564761D01*
X159251904Y-94488571D02*
X159251904Y-95021904D01*
X158909047Y-94488571D02*
X158909047Y-94907619D01*
X158947142Y-94983809D01*
X159023333Y-95021904D01*
X159137619Y-95021904D01*
X159213809Y-94983809D01*
X159251904Y-94945714D01*
X159632857Y-95021904D02*
X159632857Y-94221904D01*
X159632857Y-94526666D02*
X159709047Y-94488571D01*
X159861428Y-94488571D01*
X159937619Y-94526666D01*
X159975714Y-94564761D01*
X160013809Y-94640952D01*
X160013809Y-94869523D01*
X159975714Y-94945714D01*
X159937619Y-94983809D01*
X159861428Y-95021904D01*
X159709047Y-95021904D01*
X159632857Y-94983809D01*
X160356666Y-94945714D02*
X160394761Y-94983809D01*
X160356666Y-95021904D01*
X160318571Y-94983809D01*
X160356666Y-94945714D01*
X160356666Y-95021904D01*
X161080476Y-94983809D02*
X161004285Y-95021904D01*
X160851904Y-95021904D01*
X160775714Y-94983809D01*
X160737619Y-94945714D01*
X160699523Y-94869523D01*
X160699523Y-94640952D01*
X160737619Y-94564761D01*
X160775714Y-94526666D01*
X160851904Y-94488571D01*
X161004285Y-94488571D01*
X161080476Y-94526666D01*
X161537619Y-95021904D02*
X161461428Y-94983809D01*
X161423333Y-94945714D01*
X161385238Y-94869523D01*
X161385238Y-94640952D01*
X161423333Y-94564761D01*
X161461428Y-94526666D01*
X161537619Y-94488571D01*
X161651904Y-94488571D01*
X161728095Y-94526666D01*
X161766190Y-94564761D01*
X161804285Y-94640952D01*
X161804285Y-94869523D01*
X161766190Y-94945714D01*
X161728095Y-94983809D01*
X161651904Y-95021904D01*
X161537619Y-95021904D01*
X162147142Y-95021904D02*
X162147142Y-94488571D01*
X162147142Y-94564761D02*
X162185238Y-94526666D01*
X162261428Y-94488571D01*
X162375714Y-94488571D01*
X162451904Y-94526666D01*
X162490000Y-94602857D01*
X162490000Y-95021904D01*
X162490000Y-94602857D02*
X162528095Y-94526666D01*
X162604285Y-94488571D01*
X162718571Y-94488571D01*
X162794761Y-94526666D01*
X162832857Y-94602857D01*
X162832857Y-95021904D01*
X163785238Y-94183809D02*
X163099523Y-95212380D01*
X163937619Y-94488571D02*
X164242380Y-94488571D01*
X164051904Y-94221904D02*
X164051904Y-94907619D01*
X164090000Y-94983809D01*
X164166190Y-95021904D01*
X164242380Y-95021904D01*
X164813809Y-94983809D02*
X164737619Y-95021904D01*
X164585238Y-95021904D01*
X164509047Y-94983809D01*
X164470952Y-94907619D01*
X164470952Y-94602857D01*
X164509047Y-94526666D01*
X164585238Y-94488571D01*
X164737619Y-94488571D01*
X164813809Y-94526666D01*
X164851904Y-94602857D01*
X164851904Y-94679047D01*
X164470952Y-94755238D01*
X165194761Y-95021904D02*
X165194761Y-94221904D01*
X165194761Y-94526666D02*
X165270952Y-94488571D01*
X165423333Y-94488571D01*
X165499523Y-94526666D01*
X165537619Y-94564761D01*
X165575714Y-94640952D01*
X165575714Y-94869523D01*
X165537619Y-94945714D01*
X165499523Y-94983809D01*
X165423333Y-95021904D01*
X165270952Y-95021904D01*
X165194761Y-94983809D01*
X166032857Y-95021904D02*
X165956666Y-94983809D01*
X165918571Y-94907619D01*
X165918571Y-94221904D01*
D11*
G36*
X165383493Y-82370751D02*
G01*
X165790300Y-82370751D01*
X165790300Y-82777558D01*
X165383493Y-82777558D01*
X165383493Y-83591171D01*
X164569880Y-83591171D01*
X164569880Y-82777558D01*
X162942652Y-82777558D01*
X162942652Y-81963944D01*
X163756266Y-81963944D01*
X163756266Y-82370751D01*
X164569880Y-82370751D01*
X164569880Y-81963944D01*
X163756266Y-81963944D01*
X163756266Y-81557137D01*
X164163073Y-81557137D01*
X164163073Y-81150331D01*
X164569880Y-81150331D01*
X164569880Y-80743524D01*
X165383493Y-80743524D01*
X165383493Y-82370751D01*
G37*
X165383493Y-82370751D02*
X165790300Y-82370751D01*
X165790300Y-82777558D01*
X165383493Y-82777558D01*
X165383493Y-83591171D01*
X164569880Y-83591171D01*
X164569880Y-82777558D01*
X162942652Y-82777558D01*
X162942652Y-81963944D01*
X163756266Y-81963944D01*
X163756266Y-82370751D01*
X164569880Y-82370751D01*
X164569880Y-81963944D01*
X163756266Y-81963944D01*
X163756266Y-81557137D01*
X164163073Y-81557137D01*
X164163073Y-81150331D01*
X164569880Y-81150331D01*
X164569880Y-80743524D01*
X165383493Y-80743524D01*
X165383493Y-82370751D01*
G36*
X162129039Y-81150331D02*
G01*
X162535846Y-81150331D01*
X162535846Y-81557137D01*
X161722232Y-81557137D01*
X161722232Y-81150331D01*
X160908618Y-81150331D01*
X160908618Y-81963944D01*
X162129039Y-81963944D01*
X162129039Y-82370751D01*
X162535846Y-82370751D01*
X162535846Y-83184365D01*
X162129039Y-83184365D01*
X162129039Y-83591171D01*
X160501811Y-83591171D01*
X160501811Y-83184365D01*
X160095005Y-83184365D01*
X160095005Y-82370751D01*
X160908618Y-82370751D01*
X160908618Y-83184365D01*
X161722232Y-83184365D01*
X161722232Y-82370751D01*
X160908618Y-82370751D01*
X160095005Y-82370751D01*
X160095005Y-81150331D01*
X160501811Y-81150331D01*
X160501811Y-80743524D01*
X162129039Y-80743524D01*
X162129039Y-81150331D01*
G37*
X162129039Y-81150331D02*
X162535846Y-81150331D01*
X162535846Y-81557137D01*
X161722232Y-81557137D01*
X161722232Y-81150331D01*
X160908618Y-81150331D01*
X160908618Y-81963944D01*
X162129039Y-81963944D01*
X162129039Y-82370751D01*
X162535846Y-82370751D01*
X162535846Y-83184365D01*
X162129039Y-83184365D01*
X162129039Y-83591171D01*
X160501811Y-83591171D01*
X160501811Y-83184365D01*
X160095005Y-83184365D01*
X160095005Y-82370751D01*
X160908618Y-82370751D01*
X160908618Y-83184365D01*
X161722232Y-83184365D01*
X161722232Y-82370751D01*
X160908618Y-82370751D01*
X160095005Y-82370751D01*
X160095005Y-81150331D01*
X160501811Y-81150331D01*
X160501811Y-80743524D01*
X162129039Y-80743524D01*
X162129039Y-81150331D01*
G36*
X159281391Y-81150331D02*
G01*
X159688198Y-81150331D01*
X159688198Y-81557137D01*
X158874584Y-81557137D01*
X158874584Y-81150331D01*
X158060971Y-81150331D01*
X158060971Y-83184365D01*
X158874584Y-83184365D01*
X158874584Y-82777558D01*
X159688198Y-82777558D01*
X159688198Y-83184365D01*
X159281391Y-83184365D01*
X159281391Y-83591171D01*
X157654164Y-83591171D01*
X157654164Y-83184365D01*
X157247357Y-83184365D01*
X157247357Y-81150331D01*
X157654164Y-81150331D01*
X157654164Y-80743524D01*
X159281391Y-80743524D01*
X159281391Y-81150331D01*
G37*
X159281391Y-81150331D02*
X159688198Y-81150331D01*
X159688198Y-81557137D01*
X158874584Y-81557137D01*
X158874584Y-81150331D01*
X158060971Y-81150331D01*
X158060971Y-83184365D01*
X158874584Y-83184365D01*
X158874584Y-82777558D01*
X159688198Y-82777558D01*
X159688198Y-83184365D01*
X159281391Y-83184365D01*
X159281391Y-83591171D01*
X157654164Y-83591171D01*
X157654164Y-83184365D01*
X157247357Y-83184365D01*
X157247357Y-81150331D01*
X157654164Y-81150331D01*
X157654164Y-80743524D01*
X159281391Y-80743524D01*
X159281391Y-81150331D01*
G36*
X168231141Y-85218399D02*
G01*
X169044754Y-85218399D01*
X169044754Y-83997978D01*
X169858368Y-83997978D01*
X169858368Y-85218399D01*
X169451561Y-85218399D01*
X169451561Y-85625206D01*
X169044754Y-85625206D01*
X169044754Y-86845626D01*
X168231141Y-86845626D01*
X168231141Y-85625206D01*
X167824334Y-85625206D01*
X167824334Y-85218399D01*
X167417527Y-85218399D01*
X167417527Y-83997978D01*
X168231141Y-83997978D01*
X168231141Y-85218399D01*
G37*
X168231141Y-85218399D02*
X169044754Y-85218399D01*
X169044754Y-83997978D01*
X169858368Y-83997978D01*
X169858368Y-85218399D01*
X169451561Y-85218399D01*
X169451561Y-85625206D01*
X169044754Y-85625206D01*
X169044754Y-86845626D01*
X168231141Y-86845626D01*
X168231141Y-85625206D01*
X167824334Y-85625206D01*
X167824334Y-85218399D01*
X167417527Y-85218399D01*
X167417527Y-83997978D01*
X168231141Y-83997978D01*
X168231141Y-85218399D01*
G36*
X167010720Y-84404785D02*
G01*
X165383493Y-84404785D01*
X165383493Y-85218399D01*
X166197107Y-85218399D01*
X166197107Y-85625206D01*
X165383493Y-85625206D01*
X165383493Y-86438819D01*
X167010720Y-86438819D01*
X167010720Y-86845626D01*
X164569880Y-86845626D01*
X164569880Y-83997978D01*
X167010720Y-83997978D01*
X167010720Y-84404785D01*
G37*
X167010720Y-84404785D02*
X165383493Y-84404785D01*
X165383493Y-85218399D01*
X166197107Y-85218399D01*
X166197107Y-85625206D01*
X165383493Y-85625206D01*
X165383493Y-86438819D01*
X167010720Y-86438819D01*
X167010720Y-86845626D01*
X164569880Y-86845626D01*
X164569880Y-83997978D01*
X167010720Y-83997978D01*
X167010720Y-84404785D01*
G36*
X162535846Y-84811592D02*
G01*
X162942652Y-84811592D01*
X162942652Y-84404785D01*
X163349459Y-84404785D01*
X163349459Y-83997978D01*
X164163073Y-83997978D01*
X164163073Y-84404785D01*
X163756266Y-84404785D01*
X163756266Y-84811592D01*
X163349459Y-84811592D01*
X163349459Y-85218399D01*
X162942652Y-85218399D01*
X162942652Y-85625206D01*
X163349459Y-85625206D01*
X163349459Y-86032012D01*
X163756266Y-86032012D01*
X163756266Y-86438819D01*
X164163073Y-86438819D01*
X164163073Y-86845626D01*
X163349459Y-86845626D01*
X163349459Y-86438819D01*
X162942652Y-86438819D01*
X162942652Y-86032012D01*
X162535846Y-86032012D01*
X162535846Y-86845626D01*
X161722232Y-86845626D01*
X161722232Y-83997978D01*
X162535846Y-83997978D01*
X162535846Y-84811592D01*
G37*
X162535846Y-84811592D02*
X162942652Y-84811592D01*
X162942652Y-84404785D01*
X163349459Y-84404785D01*
X163349459Y-83997978D01*
X164163073Y-83997978D01*
X164163073Y-84404785D01*
X163756266Y-84404785D01*
X163756266Y-84811592D01*
X163349459Y-84811592D01*
X163349459Y-85218399D01*
X162942652Y-85218399D01*
X162942652Y-85625206D01*
X163349459Y-85625206D01*
X163349459Y-86032012D01*
X163756266Y-86032012D01*
X163756266Y-86438819D01*
X164163073Y-86438819D01*
X164163073Y-86845626D01*
X163349459Y-86845626D01*
X163349459Y-86438819D01*
X162942652Y-86438819D01*
X162942652Y-86032012D01*
X162535846Y-86032012D01*
X162535846Y-86845626D01*
X161722232Y-86845626D01*
X161722232Y-83997978D01*
X162535846Y-83997978D01*
X162535846Y-84811592D01*
G36*
X158060971Y-85218399D02*
G01*
X158467777Y-85218399D01*
X158467777Y-86438819D01*
X158060971Y-86438819D01*
X158060971Y-86845626D01*
X156433743Y-86845626D01*
X156433743Y-86438819D01*
X156026937Y-86438819D01*
X156026937Y-85218399D01*
X156433743Y-85218399D01*
X156840550Y-85218399D01*
X156840550Y-86438819D01*
X157654164Y-86438819D01*
X157654164Y-85218399D01*
X156840550Y-85218399D01*
X156433743Y-85218399D01*
X156433743Y-84811592D01*
X158060971Y-84811592D01*
X158060971Y-85218399D01*
G37*
X158060971Y-85218399D02*
X158467777Y-85218399D01*
X158467777Y-86438819D01*
X158060971Y-86438819D01*
X158060971Y-86845626D01*
X156433743Y-86845626D01*
X156433743Y-86438819D01*
X156026937Y-86438819D01*
X156026937Y-85218399D01*
X156433743Y-85218399D01*
X156840550Y-85218399D01*
X156840550Y-86438819D01*
X157654164Y-86438819D01*
X157654164Y-85218399D01*
X156840550Y-85218399D01*
X156433743Y-85218399D01*
X156433743Y-84811592D01*
X158060971Y-84811592D01*
X158060971Y-85218399D01*
G36*
X155620130Y-84404785D02*
G01*
X155213323Y-84404785D01*
X155213323Y-86438819D01*
X154806516Y-86438819D01*
X154806516Y-86845626D01*
X153586096Y-86845626D01*
X153586096Y-86438819D01*
X153179289Y-86438819D01*
X153179289Y-86032012D01*
X153992903Y-86032012D01*
X153992903Y-86438819D01*
X154399709Y-86438819D01*
X154399709Y-84404785D01*
X153992903Y-84404785D01*
X153992903Y-83997978D01*
X155620130Y-83997978D01*
X155620130Y-84404785D01*
G37*
X155620130Y-84404785D02*
X155213323Y-84404785D01*
X155213323Y-86438819D01*
X154806516Y-86438819D01*
X154806516Y-86845626D01*
X153586096Y-86845626D01*
X153586096Y-86438819D01*
X153179289Y-86438819D01*
X153179289Y-86032012D01*
X153992903Y-86032012D01*
X153992903Y-86438819D01*
X154399709Y-86438819D01*
X154399709Y-84404785D01*
X153992903Y-84404785D01*
X153992903Y-83997978D01*
X155620130Y-83997978D01*
X155620130Y-84404785D01*
G36*
X159688198Y-86032012D02*
G01*
X160501811Y-86032012D01*
X160501811Y-84811592D01*
X161315425Y-84811592D01*
X161315425Y-86438819D01*
X160908618Y-86438819D01*
X160908618Y-86845626D01*
X160501811Y-86845626D01*
X160501811Y-87252433D01*
X158874584Y-87252433D01*
X158874584Y-86845626D01*
X160095005Y-86845626D01*
X160095005Y-86438819D01*
X159281391Y-86438819D01*
X159281391Y-86032012D01*
X158874584Y-86032012D01*
X158874584Y-84811592D01*
X159688198Y-84811592D01*
X159688198Y-86032012D01*
G37*
X159688198Y-86032012D02*
X160501811Y-86032012D01*
X160501811Y-84811592D01*
X161315425Y-84811592D01*
X161315425Y-86438819D01*
X160908618Y-86438819D01*
X160908618Y-86845626D01*
X160501811Y-86845626D01*
X160501811Y-87252433D01*
X158874584Y-87252433D01*
X158874584Y-86845626D01*
X160095005Y-86845626D01*
X160095005Y-86438819D01*
X159281391Y-86438819D01*
X159281391Y-86032012D01*
X158874584Y-86032012D01*
X158874584Y-84811592D01*
X159688198Y-84811592D01*
X159688198Y-86032012D01*
D12*
X150808500Y-109835438D02*
X150308500Y-109835438D01*
X150308500Y-109835438D02*
X150558500Y-109402425D01*
X150558500Y-109402425D02*
X150808500Y-109835438D01*
X144895000Y-111605000D02*
X144895000Y-109065000D01*
X144895000Y-111605000D02*
X147435000Y-111605000D01*
X145145000Y-111355000D02*
X145145000Y-102005000D01*
X166005000Y-111355000D02*
X145145000Y-111355000D01*
X166005000Y-102005000D02*
X166005000Y-111355000D01*
X145145000Y-102005000D02*
X166005000Y-102005000D01*
D10*
X165755000Y-111105000D02*
X165195000Y-110555000D01*
X145395000Y-111105000D02*
X145935000Y-110555000D01*
X165755000Y-102255000D02*
X165195000Y-102805000D01*
X145395000Y-102255000D02*
X145935000Y-102805000D01*
X165195000Y-102805000D02*
X165195000Y-110555000D01*
X165755000Y-102255000D02*
X165755000Y-111105000D01*
X145935000Y-102805000D02*
X145935000Y-110555000D01*
X145395000Y-102255000D02*
X145395000Y-111105000D01*
X157825000Y-110555000D02*
X157825000Y-111105000D01*
X153325000Y-110555000D02*
X153325000Y-111105000D01*
X157825000Y-110555000D02*
X165195000Y-110555000D01*
X145935000Y-110555000D02*
X153325000Y-110555000D01*
X145395000Y-111105000D02*
X165755000Y-111105000D01*
X145935000Y-102805000D02*
X165195000Y-102805000D01*
X145395000Y-102255000D02*
X165755000Y-102255000D01*
D12*
X127948500Y-109835438D02*
X127448500Y-109835438D01*
X127448500Y-109835438D02*
X127698500Y-109402425D01*
X127698500Y-109402425D02*
X127948500Y-109835438D01*
X122035000Y-111605000D02*
X122035000Y-109065000D01*
X122035000Y-111605000D02*
X124575000Y-111605000D01*
X122285000Y-111355000D02*
X122285000Y-102005000D01*
X143145000Y-111355000D02*
X122285000Y-111355000D01*
X143145000Y-102005000D02*
X143145000Y-111355000D01*
X122285000Y-102005000D02*
X143145000Y-102005000D01*
D10*
X142895000Y-111105000D02*
X142335000Y-110555000D01*
X122535000Y-111105000D02*
X123075000Y-110555000D01*
X142895000Y-102255000D02*
X142335000Y-102805000D01*
X122535000Y-102255000D02*
X123075000Y-102805000D01*
X142335000Y-102805000D02*
X142335000Y-110555000D01*
X142895000Y-102255000D02*
X142895000Y-111105000D01*
X123075000Y-102805000D02*
X123075000Y-110555000D01*
X122535000Y-102255000D02*
X122535000Y-111105000D01*
X134965000Y-110555000D02*
X134965000Y-111105000D01*
X130465000Y-110555000D02*
X130465000Y-111105000D01*
X134965000Y-110555000D02*
X142335000Y-110555000D01*
X123075000Y-110555000D02*
X130465000Y-110555000D01*
X122535000Y-111105000D02*
X142895000Y-111105000D01*
X123075000Y-102805000D02*
X142335000Y-102805000D01*
X122535000Y-102255000D02*
X142895000Y-102255000D01*
D12*
X116145000Y-103565000D02*
X118805000Y-103565000D01*
X116145000Y-100965000D02*
X116145000Y-103565000D01*
X118805000Y-100965000D02*
X118805000Y-103565000D01*
X116145000Y-100965000D02*
X118805000Y-100965000D01*
X116145000Y-99695000D02*
X116145000Y-98365000D01*
X116145000Y-98365000D02*
X117475000Y-98365000D01*
X135755000Y-78975000D02*
X135255000Y-77975000D01*
X134755000Y-78975000D02*
X135755000Y-78975000D01*
X135255000Y-77975000D02*
X134755000Y-78975000D01*
X146195000Y-76275000D02*
X146195000Y-77585000D01*
X146195000Y-76275000D02*
X146195000Y-76275000D01*
X156945000Y-76275000D02*
X146195000Y-76275000D01*
X156945000Y-69775000D02*
X156945000Y-76275000D01*
X131345000Y-69775000D02*
X156945000Y-69775000D01*
X131345000Y-76275000D02*
X131345000Y-69775000D01*
X142095000Y-76275000D02*
X131345000Y-76275000D01*
X142095000Y-77585000D02*
X142095000Y-76275000D01*
X158245000Y-77585000D02*
X130045000Y-77585000D01*
X158245000Y-68465000D02*
X158245000Y-77585000D01*
X130045000Y-68465000D02*
X158245000Y-68465000D01*
X130045000Y-77585000D02*
X130045000Y-68465000D01*
X127605000Y-78205000D02*
X122665000Y-78205000D01*
X127605000Y-75465000D02*
X122665000Y-75465000D01*
X127605000Y-78205000D02*
X127605000Y-77890000D01*
X127605000Y-75780000D02*
X127605000Y-75465000D01*
X122665000Y-78205000D02*
X122665000Y-77890000D01*
X122665000Y-75780000D02*
X122665000Y-75465000D01*
X141200000Y-83820000D02*
X140430000Y-83820000D01*
X133120000Y-83820000D02*
X133890000Y-83820000D01*
X140430000Y-82450000D02*
X133890000Y-82450000D01*
X140430000Y-85190000D02*
X140430000Y-82450000D01*
X133890000Y-85190000D02*
X140430000Y-85190000D01*
X133890000Y-82450000D02*
X133890000Y-85190000D01*
X147855000Y-95980000D02*
X150595000Y-95980000D01*
X150595000Y-95980000D02*
X150595000Y-89440000D01*
X150595000Y-89440000D02*
X147855000Y-89440000D01*
X147855000Y-89440000D02*
X147855000Y-95980000D01*
X149225000Y-96750000D02*
X149225000Y-95980000D01*
X149225000Y-88670000D02*
X149225000Y-89440000D01*
X140430000Y-82015000D02*
X140430000Y-79275000D01*
X140430000Y-79275000D02*
X133890000Y-79275000D01*
X133890000Y-79275000D02*
X133890000Y-82015000D01*
X133890000Y-82015000D02*
X140430000Y-82015000D01*
X141200000Y-80645000D02*
X140430000Y-80645000D01*
X133120000Y-80645000D02*
X133890000Y-80645000D01*
X133120000Y-90805000D02*
X133890000Y-90805000D01*
X141200000Y-90805000D02*
X140430000Y-90805000D01*
X133890000Y-92175000D02*
X140430000Y-92175000D01*
X133890000Y-89435000D02*
X133890000Y-92175000D01*
X140430000Y-89435000D02*
X133890000Y-89435000D01*
X140430000Y-92175000D02*
X140430000Y-89435000D01*
X145415000Y-94845000D02*
X145415000Y-94075000D01*
X145415000Y-86765000D02*
X145415000Y-87535000D01*
X146785000Y-94075000D02*
X146785000Y-87535000D01*
X144045000Y-94075000D02*
X146785000Y-94075000D01*
X144045000Y-87535000D02*
X144045000Y-94075000D01*
X146785000Y-87535000D02*
X144045000Y-87535000D01*
X133890000Y-93245000D02*
X133890000Y-95985000D01*
X133890000Y-95985000D02*
X140430000Y-95985000D01*
X140430000Y-95985000D02*
X140430000Y-93245000D01*
X140430000Y-93245000D02*
X133890000Y-93245000D01*
X133120000Y-94615000D02*
X133890000Y-94615000D01*
X141200000Y-94615000D02*
X140430000Y-94615000D01*
X141200000Y-87630000D02*
X140430000Y-87630000D01*
X133120000Y-87630000D02*
X133890000Y-87630000D01*
X140430000Y-86260000D02*
X133890000Y-86260000D01*
X140430000Y-89000000D02*
X140430000Y-86260000D01*
X133890000Y-89000000D02*
X140430000Y-89000000D01*
X133890000Y-86260000D02*
X133890000Y-89000000D01*
X140430000Y-99160000D02*
X140430000Y-96420000D01*
X140430000Y-96420000D02*
X133890000Y-96420000D01*
X133890000Y-96420000D02*
X133890000Y-99160000D01*
X133890000Y-99160000D02*
X140430000Y-99160000D01*
X141200000Y-97790000D02*
X140430000Y-97790000D01*
X133120000Y-97790000D02*
X133890000Y-97790000D01*
X124095000Y-79315000D02*
X122845000Y-79315000D01*
X122845000Y-79315000D02*
X122845000Y-97215000D01*
X122845000Y-97215000D02*
X127345000Y-97215000D01*
X127345000Y-97215000D02*
X127345000Y-79315000D01*
X127345000Y-79315000D02*
X126095000Y-79315000D01*
X119845000Y-79255000D02*
X119845000Y-97275000D01*
X119845000Y-97275000D02*
X130345000Y-97275000D01*
X130345000Y-97275000D02*
X130345000Y-79255000D01*
X130345000Y-79255000D02*
X119845000Y-79255000D01*
X126095000Y-79315000D02*
G75*
G02*
X124095000Y-79315000I-1000000J0D01*
G01*
D10*
X146418333Y-103066904D02*
X146418333Y-103638333D01*
X146380238Y-103752619D01*
X146304047Y-103828809D01*
X146189761Y-103866904D01*
X146113571Y-103866904D01*
X146761190Y-103143095D02*
X146799285Y-103105000D01*
X146875476Y-103066904D01*
X147065952Y-103066904D01*
X147142142Y-103105000D01*
X147180238Y-103143095D01*
X147218333Y-103219285D01*
X147218333Y-103295476D01*
X147180238Y-103409761D01*
X146723095Y-103866904D01*
X147218333Y-103866904D01*
D13*
X145153333Y-101417380D02*
X145153333Y-100417380D01*
X145534285Y-100417380D01*
X145629523Y-100465000D01*
X145677142Y-100512619D01*
X145724761Y-100607857D01*
X145724761Y-100750714D01*
X145677142Y-100845952D01*
X145629523Y-100893571D01*
X145534285Y-100941190D01*
X145153333Y-100941190D01*
X146296190Y-101417380D02*
X146200952Y-101369761D01*
X146153333Y-101322142D01*
X146105714Y-101226904D01*
X146105714Y-100941190D01*
X146153333Y-100845952D01*
X146200952Y-100798333D01*
X146296190Y-100750714D01*
X146439047Y-100750714D01*
X146534285Y-100798333D01*
X146581904Y-100845952D01*
X146629523Y-100941190D01*
X146629523Y-101226904D01*
X146581904Y-101322142D01*
X146534285Y-101369761D01*
X146439047Y-101417380D01*
X146296190Y-101417380D01*
X147058095Y-101417380D02*
X147058095Y-100750714D01*
X147058095Y-100941190D02*
X147105714Y-100845952D01*
X147153333Y-100798333D01*
X147248571Y-100750714D01*
X147343809Y-100750714D01*
X147534285Y-100750714D02*
X147915238Y-100750714D01*
X147677142Y-100417380D02*
X147677142Y-101274523D01*
X147724761Y-101369761D01*
X147820000Y-101417380D01*
X147915238Y-101417380D01*
X148962857Y-100512619D02*
X149010476Y-100465000D01*
X149105714Y-100417380D01*
X149343809Y-100417380D01*
X149439047Y-100465000D01*
X149486666Y-100512619D01*
X149534285Y-100607857D01*
X149534285Y-100703095D01*
X149486666Y-100845952D01*
X148915238Y-101417380D01*
X149534285Y-101417380D01*
D10*
X123558333Y-103066904D02*
X123558333Y-103638333D01*
X123520238Y-103752619D01*
X123444047Y-103828809D01*
X123329761Y-103866904D01*
X123253571Y-103866904D01*
X124358333Y-103866904D02*
X123901190Y-103866904D01*
X124129761Y-103866904D02*
X124129761Y-103066904D01*
X124053571Y-103181190D01*
X123977380Y-103257380D01*
X123901190Y-103295476D01*
D13*
X122293333Y-101417380D02*
X122293333Y-100417380D01*
X122674285Y-100417380D01*
X122769523Y-100465000D01*
X122817142Y-100512619D01*
X122864761Y-100607857D01*
X122864761Y-100750714D01*
X122817142Y-100845952D01*
X122769523Y-100893571D01*
X122674285Y-100941190D01*
X122293333Y-100941190D01*
X123436190Y-101417380D02*
X123340952Y-101369761D01*
X123293333Y-101322142D01*
X123245714Y-101226904D01*
X123245714Y-100941190D01*
X123293333Y-100845952D01*
X123340952Y-100798333D01*
X123436190Y-100750714D01*
X123579047Y-100750714D01*
X123674285Y-100798333D01*
X123721904Y-100845952D01*
X123769523Y-100941190D01*
X123769523Y-101226904D01*
X123721904Y-101322142D01*
X123674285Y-101369761D01*
X123579047Y-101417380D01*
X123436190Y-101417380D01*
X124198095Y-101417380D02*
X124198095Y-100750714D01*
X124198095Y-100941190D02*
X124245714Y-100845952D01*
X124293333Y-100798333D01*
X124388571Y-100750714D01*
X124483809Y-100750714D01*
X124674285Y-100750714D02*
X125055238Y-100750714D01*
X124817142Y-100417380D02*
X124817142Y-101274523D01*
X124864761Y-101369761D01*
X124960000Y-101417380D01*
X125055238Y-101417380D01*
X126674285Y-101417380D02*
X126102857Y-101417380D01*
X126388571Y-101417380D02*
X126388571Y-100417380D01*
X126293333Y-100560238D01*
X126198095Y-100655476D01*
X126102857Y-100703095D01*
D10*
X115322619Y-104336904D02*
X115589285Y-105136904D01*
X115855952Y-104336904D01*
X116579761Y-105060714D02*
X116541666Y-105098809D01*
X116427380Y-105136904D01*
X116351190Y-105136904D01*
X116236904Y-105098809D01*
X116160714Y-105022619D01*
X116122619Y-104946428D01*
X116084523Y-104794047D01*
X116084523Y-104679761D01*
X116122619Y-104527380D01*
X116160714Y-104451190D01*
X116236904Y-104375000D01*
X116351190Y-104336904D01*
X116427380Y-104336904D01*
X116541666Y-104375000D01*
X116579761Y-104413095D01*
X117379761Y-105060714D02*
X117341666Y-105098809D01*
X117227380Y-105136904D01*
X117151190Y-105136904D01*
X117036904Y-105098809D01*
X116960714Y-105022619D01*
X116922619Y-104946428D01*
X116884523Y-104794047D01*
X116884523Y-104679761D01*
X116922619Y-104527380D01*
X116960714Y-104451190D01*
X117036904Y-104375000D01*
X117151190Y-104336904D01*
X117227380Y-104336904D01*
X117341666Y-104375000D01*
X117379761Y-104413095D01*
X117532142Y-105213095D02*
X118141666Y-105213095D01*
X118332142Y-104717857D02*
X118598809Y-104717857D01*
X118713095Y-105136904D02*
X118332142Y-105136904D01*
X118332142Y-104336904D01*
X118713095Y-104336904D01*
X119055952Y-105136904D02*
X119055952Y-104336904D01*
X119513095Y-105136904D01*
X119513095Y-104336904D01*
D13*
X132381666Y-70572380D02*
X132381666Y-71286666D01*
X132334047Y-71429523D01*
X132238809Y-71524761D01*
X132095952Y-71572380D01*
X132000714Y-71572380D01*
X132762619Y-70572380D02*
X133381666Y-70572380D01*
X133048333Y-70953333D01*
X133191190Y-70953333D01*
X133286428Y-71000952D01*
X133334047Y-71048571D01*
X133381666Y-71143809D01*
X133381666Y-71381904D01*
X133334047Y-71477142D01*
X133286428Y-71524761D01*
X133191190Y-71572380D01*
X132905476Y-71572380D01*
X132810238Y-71524761D01*
X132762619Y-71477142D01*
D10*
X141916428Y-78213000D02*
X141840238Y-78174904D01*
X141725952Y-78174904D01*
X141611666Y-78213000D01*
X141535476Y-78289190D01*
X141497380Y-78365380D01*
X141459285Y-78517761D01*
X141459285Y-78632047D01*
X141497380Y-78784428D01*
X141535476Y-78860619D01*
X141611666Y-78936809D01*
X141725952Y-78974904D01*
X141802142Y-78974904D01*
X141916428Y-78936809D01*
X141954523Y-78898714D01*
X141954523Y-78632047D01*
X141802142Y-78632047D01*
X142640238Y-78974904D02*
X142640238Y-78555857D01*
X142602142Y-78479666D01*
X142525952Y-78441571D01*
X142373571Y-78441571D01*
X142297380Y-78479666D01*
X142640238Y-78936809D02*
X142564047Y-78974904D01*
X142373571Y-78974904D01*
X142297380Y-78936809D01*
X142259285Y-78860619D01*
X142259285Y-78784428D01*
X142297380Y-78708238D01*
X142373571Y-78670142D01*
X142564047Y-78670142D01*
X142640238Y-78632047D01*
X143021190Y-78974904D02*
X143021190Y-78441571D01*
X143021190Y-78517761D02*
X143059285Y-78479666D01*
X143135476Y-78441571D01*
X143249761Y-78441571D01*
X143325952Y-78479666D01*
X143364047Y-78555857D01*
X143364047Y-78974904D01*
X143364047Y-78555857D02*
X143402142Y-78479666D01*
X143478333Y-78441571D01*
X143592619Y-78441571D01*
X143668809Y-78479666D01*
X143706904Y-78555857D01*
X143706904Y-78974904D01*
X144392619Y-78936809D02*
X144316428Y-78974904D01*
X144164047Y-78974904D01*
X144087857Y-78936809D01*
X144049761Y-78860619D01*
X144049761Y-78555857D01*
X144087857Y-78479666D01*
X144164047Y-78441571D01*
X144316428Y-78441571D01*
X144392619Y-78479666D01*
X144430714Y-78555857D01*
X144430714Y-78632047D01*
X144049761Y-78708238D01*
X144773571Y-78441571D02*
X144773571Y-79241571D01*
X144773571Y-78479666D02*
X144849761Y-78441571D01*
X145002142Y-78441571D01*
X145078333Y-78479666D01*
X145116428Y-78517761D01*
X145154523Y-78593952D01*
X145154523Y-78822523D01*
X145116428Y-78898714D01*
X145078333Y-78936809D01*
X145002142Y-78974904D01*
X144849761Y-78974904D01*
X144773571Y-78936809D01*
X145611666Y-78974904D02*
X145535476Y-78936809D01*
X145497380Y-78898714D01*
X145459285Y-78822523D01*
X145459285Y-78593952D01*
X145497380Y-78517761D01*
X145535476Y-78479666D01*
X145611666Y-78441571D01*
X145725952Y-78441571D01*
X145802142Y-78479666D01*
X145840238Y-78517761D01*
X145878333Y-78593952D01*
X145878333Y-78822523D01*
X145840238Y-78898714D01*
X145802142Y-78936809D01*
X145725952Y-78974904D01*
X145611666Y-78974904D01*
X146221190Y-78974904D02*
X146221190Y-78441571D01*
X146221190Y-78593952D02*
X146259285Y-78517761D01*
X146297380Y-78479666D01*
X146373571Y-78441571D01*
X146449761Y-78441571D01*
X146602142Y-78441571D02*
X146906904Y-78441571D01*
X146716428Y-78174904D02*
X146716428Y-78860619D01*
X146754523Y-78936809D01*
X146830714Y-78974904D01*
X146906904Y-78974904D01*
D13*
X124968333Y-77192142D02*
X124920714Y-77239761D01*
X124777857Y-77287380D01*
X124682619Y-77287380D01*
X124539761Y-77239761D01*
X124444523Y-77144523D01*
X124396904Y-77049285D01*
X124349285Y-76858809D01*
X124349285Y-76715952D01*
X124396904Y-76525476D01*
X124444523Y-76430238D01*
X124539761Y-76335000D01*
X124682619Y-76287380D01*
X124777857Y-76287380D01*
X124920714Y-76335000D01*
X124968333Y-76382619D01*
X125920714Y-77287380D02*
X125349285Y-77287380D01*
X125635000Y-77287380D02*
X125635000Y-76287380D01*
X125539761Y-76430238D01*
X125444523Y-76525476D01*
X125349285Y-76573095D01*
X135707380Y-83986666D02*
X135231190Y-84320000D01*
X135707380Y-84558095D02*
X134707380Y-84558095D01*
X134707380Y-84177142D01*
X134755000Y-84081904D01*
X134802619Y-84034285D01*
X134897857Y-83986666D01*
X135040714Y-83986666D01*
X135135952Y-84034285D01*
X135183571Y-84081904D01*
X135231190Y-84177142D01*
X135231190Y-84558095D01*
X135707380Y-83034285D02*
X135707380Y-83605714D01*
X135707380Y-83320000D02*
X134707380Y-83320000D01*
X134850238Y-83415238D01*
X134945476Y-83510476D01*
X134993095Y-83605714D01*
X137953809Y-84181904D02*
X137496666Y-84181904D01*
X137725238Y-84181904D02*
X137725238Y-83381904D01*
X137649047Y-83496190D01*
X137572857Y-83572380D01*
X137496666Y-83610476D01*
X138449047Y-83381904D02*
X138525238Y-83381904D01*
X138601428Y-83420000D01*
X138639523Y-83458095D01*
X138677619Y-83534285D01*
X138715714Y-83686666D01*
X138715714Y-83877142D01*
X138677619Y-84029523D01*
X138639523Y-84105714D01*
X138601428Y-84143809D01*
X138525238Y-84181904D01*
X138449047Y-84181904D01*
X138372857Y-84143809D01*
X138334761Y-84105714D01*
X138296666Y-84029523D01*
X138258571Y-83877142D01*
X138258571Y-83686666D01*
X138296666Y-83534285D01*
X138334761Y-83458095D01*
X138372857Y-83420000D01*
X138449047Y-83381904D01*
X139058571Y-84181904D02*
X139058571Y-83381904D01*
X139134761Y-83877142D02*
X139363333Y-84181904D01*
X139363333Y-83648571D02*
X139058571Y-83953333D01*
X149058333Y-91257380D02*
X148725000Y-90781190D01*
X148486904Y-91257380D02*
X148486904Y-90257380D01*
X148867857Y-90257380D01*
X148963095Y-90305000D01*
X149010714Y-90352619D01*
X149058333Y-90447857D01*
X149058333Y-90590714D01*
X149010714Y-90685952D01*
X148963095Y-90733571D01*
X148867857Y-90781190D01*
X148486904Y-90781190D01*
X149439285Y-90352619D02*
X149486904Y-90305000D01*
X149582142Y-90257380D01*
X149820238Y-90257380D01*
X149915476Y-90305000D01*
X149963095Y-90352619D01*
X150010714Y-90447857D01*
X150010714Y-90543095D01*
X149963095Y-90685952D01*
X149391666Y-91257380D01*
X150010714Y-91257380D01*
X149586904Y-94456190D02*
X149586904Y-94913333D01*
X149586904Y-94684761D02*
X148786904Y-94684761D01*
X148901190Y-94760952D01*
X148977380Y-94837142D01*
X149015476Y-94913333D01*
X148786904Y-93960952D02*
X148786904Y-93884761D01*
X148825000Y-93808571D01*
X148863095Y-93770476D01*
X148939285Y-93732380D01*
X149091666Y-93694285D01*
X149282142Y-93694285D01*
X149434523Y-93732380D01*
X149510714Y-93770476D01*
X149548809Y-93808571D01*
X149586904Y-93884761D01*
X149586904Y-93960952D01*
X149548809Y-94037142D01*
X149510714Y-94075238D01*
X149434523Y-94113333D01*
X149282142Y-94151428D01*
X149091666Y-94151428D01*
X148939285Y-94113333D01*
X148863095Y-94075238D01*
X148825000Y-94037142D01*
X148786904Y-93960952D01*
X149586904Y-93351428D02*
X148786904Y-93351428D01*
X149282142Y-93275238D02*
X149586904Y-93046666D01*
X149053571Y-93046666D02*
X149358333Y-93351428D01*
X135707380Y-80811666D02*
X135231190Y-81145000D01*
X135707380Y-81383095D02*
X134707380Y-81383095D01*
X134707380Y-81002142D01*
X134755000Y-80906904D01*
X134802619Y-80859285D01*
X134897857Y-80811666D01*
X135040714Y-80811666D01*
X135135952Y-80859285D01*
X135183571Y-80906904D01*
X135231190Y-81002142D01*
X135231190Y-81383095D01*
X134707380Y-80478333D02*
X134707380Y-79859285D01*
X135088333Y-80192619D01*
X135088333Y-80049761D01*
X135135952Y-79954523D01*
X135183571Y-79906904D01*
X135278809Y-79859285D01*
X135516904Y-79859285D01*
X135612142Y-79906904D01*
X135659761Y-79954523D01*
X135707380Y-80049761D01*
X135707380Y-80335476D01*
X135659761Y-80430714D01*
X135612142Y-80478333D01*
X137572857Y-81006904D02*
X137115714Y-81006904D01*
X137344285Y-81006904D02*
X137344285Y-80206904D01*
X137268095Y-80321190D01*
X137191904Y-80397380D01*
X137115714Y-80435476D01*
X138068095Y-80206904D02*
X138144285Y-80206904D01*
X138220476Y-80245000D01*
X138258571Y-80283095D01*
X138296666Y-80359285D01*
X138334761Y-80511666D01*
X138334761Y-80702142D01*
X138296666Y-80854523D01*
X138258571Y-80930714D01*
X138220476Y-80968809D01*
X138144285Y-81006904D01*
X138068095Y-81006904D01*
X137991904Y-80968809D01*
X137953809Y-80930714D01*
X137915714Y-80854523D01*
X137877619Y-80702142D01*
X137877619Y-80511666D01*
X137915714Y-80359285D01*
X137953809Y-80283095D01*
X137991904Y-80245000D01*
X138068095Y-80206904D01*
X138830000Y-80206904D02*
X138906190Y-80206904D01*
X138982380Y-80245000D01*
X139020476Y-80283095D01*
X139058571Y-80359285D01*
X139096666Y-80511666D01*
X139096666Y-80702142D01*
X139058571Y-80854523D01*
X139020476Y-80930714D01*
X138982380Y-80968809D01*
X138906190Y-81006904D01*
X138830000Y-81006904D01*
X138753809Y-80968809D01*
X138715714Y-80930714D01*
X138677619Y-80854523D01*
X138639523Y-80702142D01*
X138639523Y-80511666D01*
X138677619Y-80359285D01*
X138715714Y-80283095D01*
X138753809Y-80245000D01*
X138830000Y-80206904D01*
X139439523Y-81006904D02*
X139439523Y-80206904D01*
X139515714Y-80702142D02*
X139744285Y-81006904D01*
X139744285Y-80473571D02*
X139439523Y-80778333D01*
X135707380Y-90971666D02*
X135231190Y-91305000D01*
X135707380Y-91543095D02*
X134707380Y-91543095D01*
X134707380Y-91162142D01*
X134755000Y-91066904D01*
X134802619Y-91019285D01*
X134897857Y-90971666D01*
X135040714Y-90971666D01*
X135135952Y-91019285D01*
X135183571Y-91066904D01*
X135231190Y-91162142D01*
X135231190Y-91543095D01*
X135040714Y-90114523D02*
X135707380Y-90114523D01*
X134659761Y-90352619D02*
X135374047Y-90590714D01*
X135374047Y-89971666D01*
X137572857Y-91166904D02*
X137115714Y-91166904D01*
X137344285Y-91166904D02*
X137344285Y-90366904D01*
X137268095Y-90481190D01*
X137191904Y-90557380D01*
X137115714Y-90595476D01*
X138068095Y-90366904D02*
X138144285Y-90366904D01*
X138220476Y-90405000D01*
X138258571Y-90443095D01*
X138296666Y-90519285D01*
X138334761Y-90671666D01*
X138334761Y-90862142D01*
X138296666Y-91014523D01*
X138258571Y-91090714D01*
X138220476Y-91128809D01*
X138144285Y-91166904D01*
X138068095Y-91166904D01*
X137991904Y-91128809D01*
X137953809Y-91090714D01*
X137915714Y-91014523D01*
X137877619Y-90862142D01*
X137877619Y-90671666D01*
X137915714Y-90519285D01*
X137953809Y-90443095D01*
X137991904Y-90405000D01*
X138068095Y-90366904D01*
X138830000Y-90366904D02*
X138906190Y-90366904D01*
X138982380Y-90405000D01*
X139020476Y-90443095D01*
X139058571Y-90519285D01*
X139096666Y-90671666D01*
X139096666Y-90862142D01*
X139058571Y-91014523D01*
X139020476Y-91090714D01*
X138982380Y-91128809D01*
X138906190Y-91166904D01*
X138830000Y-91166904D01*
X138753809Y-91128809D01*
X138715714Y-91090714D01*
X138677619Y-91014523D01*
X138639523Y-90862142D01*
X138639523Y-90671666D01*
X138677619Y-90519285D01*
X138715714Y-90443095D01*
X138753809Y-90405000D01*
X138830000Y-90366904D01*
X139439523Y-91166904D02*
X139439523Y-90366904D01*
X139515714Y-90862142D02*
X139744285Y-91166904D01*
X139744285Y-90633571D02*
X139439523Y-90938333D01*
X145248333Y-89352380D02*
X144915000Y-88876190D01*
X144676904Y-89352380D02*
X144676904Y-88352380D01*
X145057857Y-88352380D01*
X145153095Y-88400000D01*
X145200714Y-88447619D01*
X145248333Y-88542857D01*
X145248333Y-88685714D01*
X145200714Y-88780952D01*
X145153095Y-88828571D01*
X145057857Y-88876190D01*
X144676904Y-88876190D01*
X146153095Y-88352380D02*
X145676904Y-88352380D01*
X145629285Y-88828571D01*
X145676904Y-88780952D01*
X145772142Y-88733333D01*
X146010238Y-88733333D01*
X146105476Y-88780952D01*
X146153095Y-88828571D01*
X146200714Y-88923809D01*
X146200714Y-89161904D01*
X146153095Y-89257142D01*
X146105476Y-89304761D01*
X146010238Y-89352380D01*
X145772142Y-89352380D01*
X145676904Y-89304761D01*
X145629285Y-89257142D01*
X145776904Y-92551190D02*
X145776904Y-93008333D01*
X145776904Y-92779761D02*
X144976904Y-92779761D01*
X145091190Y-92855952D01*
X145167380Y-92932142D01*
X145205476Y-93008333D01*
X144976904Y-92055952D02*
X144976904Y-91979761D01*
X145015000Y-91903571D01*
X145053095Y-91865476D01*
X145129285Y-91827380D01*
X145281666Y-91789285D01*
X145472142Y-91789285D01*
X145624523Y-91827380D01*
X145700714Y-91865476D01*
X145738809Y-91903571D01*
X145776904Y-91979761D01*
X145776904Y-92055952D01*
X145738809Y-92132142D01*
X145700714Y-92170238D01*
X145624523Y-92208333D01*
X145472142Y-92246428D01*
X145281666Y-92246428D01*
X145129285Y-92208333D01*
X145053095Y-92170238D01*
X145015000Y-92132142D01*
X144976904Y-92055952D01*
X145776904Y-91446428D02*
X144976904Y-91446428D01*
X145472142Y-91370238D02*
X145776904Y-91141666D01*
X145243571Y-91141666D02*
X145548333Y-91446428D01*
X135707380Y-94781666D02*
X135231190Y-95115000D01*
X135707380Y-95353095D02*
X134707380Y-95353095D01*
X134707380Y-94972142D01*
X134755000Y-94876904D01*
X134802619Y-94829285D01*
X134897857Y-94781666D01*
X135040714Y-94781666D01*
X135135952Y-94829285D01*
X135183571Y-94876904D01*
X135231190Y-94972142D01*
X135231190Y-95353095D01*
X134707380Y-93924523D02*
X134707380Y-94115000D01*
X134755000Y-94210238D01*
X134802619Y-94257857D01*
X134945476Y-94353095D01*
X135135952Y-94400714D01*
X135516904Y-94400714D01*
X135612142Y-94353095D01*
X135659761Y-94305476D01*
X135707380Y-94210238D01*
X135707380Y-94019761D01*
X135659761Y-93924523D01*
X135612142Y-93876904D01*
X135516904Y-93829285D01*
X135278809Y-93829285D01*
X135183571Y-93876904D01*
X135135952Y-93924523D01*
X135088333Y-94019761D01*
X135088333Y-94210238D01*
X135135952Y-94305476D01*
X135183571Y-94353095D01*
X135278809Y-94400714D01*
X137953809Y-94976904D02*
X137496666Y-94976904D01*
X137725238Y-94976904D02*
X137725238Y-94176904D01*
X137649047Y-94291190D01*
X137572857Y-94367380D01*
X137496666Y-94405476D01*
X138449047Y-94176904D02*
X138525238Y-94176904D01*
X138601428Y-94215000D01*
X138639523Y-94253095D01*
X138677619Y-94329285D01*
X138715714Y-94481666D01*
X138715714Y-94672142D01*
X138677619Y-94824523D01*
X138639523Y-94900714D01*
X138601428Y-94938809D01*
X138525238Y-94976904D01*
X138449047Y-94976904D01*
X138372857Y-94938809D01*
X138334761Y-94900714D01*
X138296666Y-94824523D01*
X138258571Y-94672142D01*
X138258571Y-94481666D01*
X138296666Y-94329285D01*
X138334761Y-94253095D01*
X138372857Y-94215000D01*
X138449047Y-94176904D01*
X139058571Y-94976904D02*
X139058571Y-94176904D01*
X139134761Y-94672142D02*
X139363333Y-94976904D01*
X139363333Y-94443571D02*
X139058571Y-94748333D01*
X135707380Y-87796666D02*
X135231190Y-88130000D01*
X135707380Y-88368095D02*
X134707380Y-88368095D01*
X134707380Y-87987142D01*
X134755000Y-87891904D01*
X134802619Y-87844285D01*
X134897857Y-87796666D01*
X135040714Y-87796666D01*
X135135952Y-87844285D01*
X135183571Y-87891904D01*
X135231190Y-87987142D01*
X135231190Y-88368095D01*
X134707380Y-87463333D02*
X134707380Y-86796666D01*
X135707380Y-87225238D01*
X137572857Y-87991904D02*
X137115714Y-87991904D01*
X137344285Y-87991904D02*
X137344285Y-87191904D01*
X137268095Y-87306190D01*
X137191904Y-87382380D01*
X137115714Y-87420476D01*
X138068095Y-87191904D02*
X138144285Y-87191904D01*
X138220476Y-87230000D01*
X138258571Y-87268095D01*
X138296666Y-87344285D01*
X138334761Y-87496666D01*
X138334761Y-87687142D01*
X138296666Y-87839523D01*
X138258571Y-87915714D01*
X138220476Y-87953809D01*
X138144285Y-87991904D01*
X138068095Y-87991904D01*
X137991904Y-87953809D01*
X137953809Y-87915714D01*
X137915714Y-87839523D01*
X137877619Y-87687142D01*
X137877619Y-87496666D01*
X137915714Y-87344285D01*
X137953809Y-87268095D01*
X137991904Y-87230000D01*
X138068095Y-87191904D01*
X138830000Y-87191904D02*
X138906190Y-87191904D01*
X138982380Y-87230000D01*
X139020476Y-87268095D01*
X139058571Y-87344285D01*
X139096666Y-87496666D01*
X139096666Y-87687142D01*
X139058571Y-87839523D01*
X139020476Y-87915714D01*
X138982380Y-87953809D01*
X138906190Y-87991904D01*
X138830000Y-87991904D01*
X138753809Y-87953809D01*
X138715714Y-87915714D01*
X138677619Y-87839523D01*
X138639523Y-87687142D01*
X138639523Y-87496666D01*
X138677619Y-87344285D01*
X138715714Y-87268095D01*
X138753809Y-87230000D01*
X138830000Y-87191904D01*
X139439523Y-87991904D02*
X139439523Y-87191904D01*
X139515714Y-87687142D02*
X139744285Y-87991904D01*
X139744285Y-87458571D02*
X139439523Y-87763333D01*
X135707380Y-97956666D02*
X135231190Y-98290000D01*
X135707380Y-98528095D02*
X134707380Y-98528095D01*
X134707380Y-98147142D01*
X134755000Y-98051904D01*
X134802619Y-98004285D01*
X134897857Y-97956666D01*
X135040714Y-97956666D01*
X135135952Y-98004285D01*
X135183571Y-98051904D01*
X135231190Y-98147142D01*
X135231190Y-98528095D01*
X135135952Y-97385238D02*
X135088333Y-97480476D01*
X135040714Y-97528095D01*
X134945476Y-97575714D01*
X134897857Y-97575714D01*
X134802619Y-97528095D01*
X134755000Y-97480476D01*
X134707380Y-97385238D01*
X134707380Y-97194761D01*
X134755000Y-97099523D01*
X134802619Y-97051904D01*
X134897857Y-97004285D01*
X134945476Y-97004285D01*
X135040714Y-97051904D01*
X135088333Y-97099523D01*
X135135952Y-97194761D01*
X135135952Y-97385238D01*
X135183571Y-97480476D01*
X135231190Y-97528095D01*
X135326428Y-97575714D01*
X135516904Y-97575714D01*
X135612142Y-97528095D01*
X135659761Y-97480476D01*
X135707380Y-97385238D01*
X135707380Y-97194761D01*
X135659761Y-97099523D01*
X135612142Y-97051904D01*
X135516904Y-97004285D01*
X135326428Y-97004285D01*
X135231190Y-97051904D01*
X135183571Y-97099523D01*
X135135952Y-97194761D01*
X137572857Y-98151904D02*
X137115714Y-98151904D01*
X137344285Y-98151904D02*
X137344285Y-97351904D01*
X137268095Y-97466190D01*
X137191904Y-97542380D01*
X137115714Y-97580476D01*
X138068095Y-97351904D02*
X138144285Y-97351904D01*
X138220476Y-97390000D01*
X138258571Y-97428095D01*
X138296666Y-97504285D01*
X138334761Y-97656666D01*
X138334761Y-97847142D01*
X138296666Y-97999523D01*
X138258571Y-98075714D01*
X138220476Y-98113809D01*
X138144285Y-98151904D01*
X138068095Y-98151904D01*
X137991904Y-98113809D01*
X137953809Y-98075714D01*
X137915714Y-97999523D01*
X137877619Y-97847142D01*
X137877619Y-97656666D01*
X137915714Y-97504285D01*
X137953809Y-97428095D01*
X137991904Y-97390000D01*
X138068095Y-97351904D01*
X138830000Y-97351904D02*
X138906190Y-97351904D01*
X138982380Y-97390000D01*
X139020476Y-97428095D01*
X139058571Y-97504285D01*
X139096666Y-97656666D01*
X139096666Y-97847142D01*
X139058571Y-97999523D01*
X139020476Y-98075714D01*
X138982380Y-98113809D01*
X138906190Y-98151904D01*
X138830000Y-98151904D01*
X138753809Y-98113809D01*
X138715714Y-98075714D01*
X138677619Y-97999523D01*
X138639523Y-97847142D01*
X138639523Y-97656666D01*
X138677619Y-97504285D01*
X138715714Y-97428095D01*
X138753809Y-97390000D01*
X138830000Y-97351904D01*
X139439523Y-98151904D02*
X139439523Y-97351904D01*
X139515714Y-97847142D02*
X139744285Y-98151904D01*
X139744285Y-97618571D02*
X139439523Y-97923333D01*
X124333095Y-82637380D02*
X124333095Y-83446904D01*
X124380714Y-83542142D01*
X124428333Y-83589761D01*
X124523571Y-83637380D01*
X124714047Y-83637380D01*
X124809285Y-83589761D01*
X124856904Y-83542142D01*
X124904523Y-83446904D01*
X124904523Y-82637380D01*
X125904523Y-83637380D02*
X125333095Y-83637380D01*
X125618809Y-83637380D02*
X125618809Y-82637380D01*
X125523571Y-82780238D01*
X125428333Y-82875476D01*
X125333095Y-82923095D01*
X124880714Y-89503095D02*
X125547380Y-89503095D01*
X124499761Y-89741190D02*
X125214047Y-89979285D01*
X125214047Y-89360238D01*
X124547380Y-88788809D02*
X124547380Y-88693571D01*
X124595000Y-88598333D01*
X124642619Y-88550714D01*
X124737857Y-88503095D01*
X124928333Y-88455476D01*
X125166428Y-88455476D01*
X125356904Y-88503095D01*
X125452142Y-88550714D01*
X125499761Y-88598333D01*
X125547380Y-88693571D01*
X125547380Y-88788809D01*
X125499761Y-88884047D01*
X125452142Y-88931666D01*
X125356904Y-88979285D01*
X125166428Y-89026904D01*
X124928333Y-89026904D01*
X124737857Y-88979285D01*
X124642619Y-88931666D01*
X124595000Y-88884047D01*
X124547380Y-88788809D01*
X124547380Y-87598333D02*
X124547380Y-87788809D01*
X124595000Y-87884047D01*
X124642619Y-87931666D01*
X124785476Y-88026904D01*
X124975952Y-88074523D01*
X125356904Y-88074523D01*
X125452142Y-88026904D01*
X125499761Y-87979285D01*
X125547380Y-87884047D01*
X125547380Y-87693571D01*
X125499761Y-87598333D01*
X125452142Y-87550714D01*
X125356904Y-87503095D01*
X125118809Y-87503095D01*
X125023571Y-87550714D01*
X124975952Y-87598333D01*
X124928333Y-87693571D01*
X124928333Y-87884047D01*
X124975952Y-87979285D01*
X125023571Y-88026904D01*
X125118809Y-88074523D01*
X124547380Y-86645952D02*
X124547380Y-86836428D01*
X124595000Y-86931666D01*
X124642619Y-86979285D01*
X124785476Y-87074523D01*
X124975952Y-87122142D01*
X125356904Y-87122142D01*
X125452142Y-87074523D01*
X125499761Y-87026904D01*
X125547380Y-86931666D01*
X125547380Y-86741190D01*
X125499761Y-86645952D01*
X125452142Y-86598333D01*
X125356904Y-86550714D01*
X125118809Y-86550714D01*
X125023571Y-86598333D01*
X124975952Y-86645952D01*
X124928333Y-86741190D01*
X124928333Y-86931666D01*
X124975952Y-87026904D01*
X125023571Y-87074523D01*
X125118809Y-87122142D01*
M02*
