M48
INCH,TZ
T1C0.0157
T2C0.0315
T3C0.0394
T4C0.0400
T5C0.1200
%
G90
G05
T1
X59750Y-40250
X60785Y-38500
T2
X52000Y-31750
X56000Y-31750
X52000Y-35750
X56000Y-35750
X52000Y-33000
X56000Y-33000
X58750Y-34500
X58750Y-38500
X47750Y-31750
X47750Y-32750
X47750Y-33750
X47750Y-34750
X47750Y-35750
X47750Y-36750
X47750Y-37750
X50750Y-31750
X50750Y-32750
X50750Y-33750
X50750Y-34750
X50750Y-35750
X50750Y-36750
X50750Y-37750
X48281Y-30250
X50250Y-30250
X52000Y-34500
X56000Y-34500
X52000Y-38500
X56000Y-38500
X52000Y-37250
X56000Y-37250
X57250Y-33750
X57250Y-37750
T3
X53250Y-28250
X53250Y-29250
X54250Y-28250
X54250Y-29250
X55250Y-28250
X55250Y-29250
X56250Y-28250
X56250Y-29250
X57250Y-28250
X57250Y-29250
X58250Y-28250
X58250Y-29250
X59250Y-28250
X59250Y-29250
X60250Y-28250
X60250Y-29250
X46250Y-39250
X46250Y-40250
T4
X59250Y-41500
X59250Y-42500
X60250Y-41500
X60250Y-42500
X61250Y-41500
X61250Y-42500
X62250Y-41500
X62250Y-42500
X63250Y-41500
X63250Y-42500
X50250Y-41500
X50250Y-42500
X51250Y-41500
X51250Y-42500
X52250Y-41500
X52250Y-42500
X53250Y-41500
X53250Y-42500
X54250Y-41500
X54250Y-42500
T5
X46750Y-28244
X66750Y-28250
X46750Y-42500
X66750Y-42500
T0
M30
