G04 #@! TF.GenerationSoftware,KiCad,Pcbnew,(5.1.8)-1*
G04 #@! TF.CreationDate,2024-06-18T03:57:33+02:00*
G04 #@! TF.ProjectId,Gameport,47616d65-706f-4727-942e-6b696361645f,rev?*
G04 #@! TF.SameCoordinates,Original*
G04 #@! TF.FileFunction,Copper,L1,Top*
G04 #@! TF.FilePolarity,Positive*
%FSLAX46Y46*%
G04 Gerber Fmt 4.6, Leading zero omitted, Abs format (unit mm)*
G04 Created by KiCad (PCBNEW (5.1.8)-1) date 2024-06-18 03:57:33*
%MOMM*%
%LPD*%
G01*
G04 APERTURE LIST*
G04 #@! TA.AperFunction,ComponentPad*
%ADD10O,1.727200X1.727200*%
G04 #@! TD*
G04 #@! TA.AperFunction,ComponentPad*
%ADD11R,1.727200X1.727200*%
G04 #@! TD*
G04 #@! TA.AperFunction,ComponentPad*
%ADD12C,3.500000*%
G04 #@! TD*
G04 #@! TA.AperFunction,ComponentPad*
%ADD13R,1.700000X1.700000*%
G04 #@! TD*
G04 #@! TA.AperFunction,ComponentPad*
%ADD14O,1.700000X1.700000*%
G04 #@! TD*
G04 #@! TA.AperFunction,ComponentPad*
%ADD15C,1.700000*%
G04 #@! TD*
G04 #@! TA.AperFunction,ComponentPad*
%ADD16C,1.600000*%
G04 #@! TD*
G04 #@! TA.AperFunction,ComponentPad*
%ADD17O,1.600000X1.600000*%
G04 #@! TD*
G04 #@! TA.AperFunction,ComponentPad*
%ADD18R,2.400000X1.600000*%
G04 #@! TD*
G04 #@! TA.AperFunction,ComponentPad*
%ADD19O,2.400000X1.600000*%
G04 #@! TD*
G04 #@! TA.AperFunction,ComponentPad*
%ADD20C,1.500000*%
G04 #@! TD*
G04 #@! TA.AperFunction,ComponentPad*
%ADD21R,1.500000X1.500000*%
G04 #@! TD*
G04 #@! TA.AperFunction,ViaPad*
%ADD22C,0.800000*%
G04 #@! TD*
G04 #@! TA.AperFunction,Conductor*
%ADD23C,0.381000*%
G04 #@! TD*
G04 #@! TA.AperFunction,Conductor*
%ADD24C,0.250000*%
G04 #@! TD*
G04 APERTURE END LIST*
D10*
X160655000Y-105410000D03*
X158115000Y-105410000D03*
X155575000Y-105410000D03*
X153035000Y-105410000D03*
X150495000Y-105410000D03*
X160655000Y-107950000D03*
X158115000Y-107950000D03*
X155575000Y-107950000D03*
X153035000Y-107950000D03*
D11*
X150495000Y-107950000D03*
X127635000Y-107950000D03*
D10*
X130175000Y-107950000D03*
X132715000Y-107950000D03*
X135255000Y-107950000D03*
X137795000Y-107950000D03*
X127635000Y-105410000D03*
X130175000Y-105410000D03*
X132715000Y-105410000D03*
X135255000Y-105410000D03*
X137795000Y-105410000D03*
D12*
X118745000Y-107950000D03*
X169545000Y-107950000D03*
X169545000Y-71755000D03*
X118745000Y-71740001D03*
D13*
X117475000Y-99695000D03*
D14*
X117475000Y-102235000D03*
G04 #@! TA.AperFunction,ComponentPad*
G36*
G01*
X135855000Y-75145000D02*
X134655000Y-75145000D01*
G75*
G02*
X134405000Y-74895000I0J250000D01*
G01*
X134405000Y-73695000D01*
G75*
G02*
X134655000Y-73445000I250000J0D01*
G01*
X135855000Y-73445000D01*
G75*
G02*
X136105000Y-73695000I0J-250000D01*
G01*
X136105000Y-74895000D01*
G75*
G02*
X135855000Y-75145000I-250000J0D01*
G01*
G37*
G04 #@! TD.AperFunction*
D15*
X137795000Y-74295000D03*
X140335000Y-74295000D03*
X142875000Y-74295000D03*
X145415000Y-74295000D03*
X147955000Y-74295000D03*
X150495000Y-74295000D03*
X153035000Y-74295000D03*
X135255000Y-71755000D03*
X137795000Y-71755000D03*
X140335000Y-71755000D03*
X142875000Y-71755000D03*
X145415000Y-71755000D03*
X147955000Y-71755000D03*
X150495000Y-71755000D03*
X153035000Y-71755000D03*
D16*
X127635000Y-76835000D03*
X122635000Y-76835000D03*
D17*
X142240000Y-88265000D03*
D16*
X132080000Y-88265000D03*
X132080000Y-95885000D03*
D17*
X142240000Y-95885000D03*
D18*
X121285000Y-80645000D03*
D19*
X128905000Y-95885000D03*
X121285000Y-83185000D03*
X128905000Y-93345000D03*
X121285000Y-85725000D03*
X128905000Y-90805000D03*
X121285000Y-88265000D03*
X128905000Y-88265000D03*
X121285000Y-90805000D03*
X128905000Y-85725000D03*
X121285000Y-93345000D03*
X128905000Y-83185000D03*
X121285000Y-95885000D03*
X128905000Y-80645000D03*
D20*
X160655000Y-92075000D03*
X160655000Y-94615000D03*
D21*
X160655000Y-89535000D03*
X160655000Y-80645000D03*
D20*
X160655000Y-85725000D03*
X160655000Y-83185000D03*
D17*
X142240000Y-84455000D03*
D16*
X132080000Y-84455000D03*
X145415000Y-95885000D03*
D17*
X155575000Y-95885000D03*
X155575000Y-84455000D03*
D16*
X145415000Y-84455000D03*
D17*
X155575000Y-88265000D03*
D16*
X145415000Y-88265000D03*
X145415000Y-92075000D03*
D17*
X155575000Y-92075000D03*
D16*
X132080000Y-92075000D03*
D17*
X142240000Y-92075000D03*
X145415000Y-80645000D03*
D16*
X155575000Y-80645000D03*
X142240000Y-80645000D03*
D17*
X132080000Y-80645000D03*
D22*
X125730000Y-98425000D03*
X155575000Y-100330000D03*
X159385000Y-100330000D03*
X159385000Y-78740000D03*
X164464997Y-80009997D03*
X147320000Y-76200000D03*
X154940000Y-74930000D03*
X158840000Y-101600000D03*
X153670000Y-87630000D03*
X147320000Y-97065000D03*
X147955000Y-99305510D03*
X133984992Y-95885000D03*
X133985000Y-90805000D03*
X140335000Y-89534984D03*
X123915000Y-81915000D03*
D23*
X128905000Y-74295000D02*
X135255000Y-74295000D01*
X121285000Y-85725000D02*
X119380000Y-85725000D01*
X119380000Y-85725000D02*
X118745000Y-85090000D01*
X118745000Y-85090000D02*
X118745000Y-81280000D01*
X119380000Y-80645000D02*
X121285000Y-80645000D01*
X128905000Y-74295000D02*
X123190000Y-74295000D01*
X123190000Y-74295000D02*
X118745000Y-78740000D01*
X119380000Y-80645000D02*
X118745000Y-80645000D01*
X118745000Y-80645000D02*
X118745000Y-81280000D01*
X118745000Y-78740000D02*
X118745000Y-80645000D01*
X127635000Y-74295000D02*
X128905000Y-74295000D01*
X127635000Y-76835000D02*
X127635000Y-74295000D01*
X142240000Y-88265000D02*
X145415000Y-88265000D01*
X142240000Y-92075000D02*
X145415000Y-92075000D01*
X162560000Y-80645000D02*
X160655000Y-80645000D01*
X163830000Y-89535000D02*
X160655000Y-89535000D01*
X163830000Y-81915000D02*
X162560000Y-80645000D01*
X163830000Y-89535000D02*
X163830000Y-81915000D01*
X163830000Y-89535000D02*
X163830000Y-97790000D01*
X163830000Y-97790000D02*
X163104990Y-98515010D01*
X117475000Y-99695000D02*
X124460000Y-99695000D01*
X124460000Y-99695000D02*
X125730000Y-98425000D01*
X130810000Y-93345000D02*
X128905000Y-93345000D01*
X131445000Y-93980000D02*
X130810000Y-93345000D01*
X133985000Y-93980000D02*
X131445000Y-93980000D01*
X135890000Y-92075000D02*
X133985000Y-93980000D01*
X142240000Y-92075000D02*
X135890000Y-92075000D01*
X142240000Y-96700020D02*
X144054990Y-98515010D01*
X142240000Y-95885000D02*
X142240000Y-96700020D01*
X163104990Y-98515010D02*
X144054990Y-98515010D01*
D24*
X153670000Y-110490000D02*
X154305000Y-109855000D01*
X126365000Y-110490000D02*
X153670000Y-110490000D01*
X125730000Y-109855000D02*
X126365000Y-110490000D01*
X154305000Y-106680000D02*
X153035000Y-105410000D01*
X154305000Y-109855000D02*
X154305000Y-106680000D01*
X125730000Y-105410000D02*
X125730000Y-109855000D01*
X122555000Y-102235000D02*
X125730000Y-105410000D01*
X117475000Y-102235000D02*
X122555000Y-102235000D01*
X123190000Y-100965000D02*
X127635000Y-105410000D01*
X116205000Y-100965000D02*
X123190000Y-100965000D01*
X115570000Y-100330000D02*
X116205000Y-100965000D01*
X115570000Y-79375000D02*
X115570000Y-100330000D01*
X125730000Y-69215000D02*
X115570000Y-79375000D01*
X147320000Y-69215000D02*
X125730000Y-69215000D01*
X147955000Y-69850000D02*
X147320000Y-69215000D01*
X147955000Y-71755000D02*
X147955000Y-69850000D01*
X150495000Y-75565000D02*
X150495000Y-74295000D01*
X151130000Y-76200000D02*
X150495000Y-75565000D01*
X159385000Y-76200000D02*
X151130000Y-76200000D01*
X164465000Y-98425000D02*
X164465000Y-81280000D01*
X163830000Y-99060000D02*
X164465000Y-98425000D01*
X158750000Y-99060000D02*
X163830000Y-99060000D01*
X158115000Y-99695000D02*
X158750000Y-99060000D01*
X164465000Y-81280000D02*
X159385000Y-76200000D01*
X158115000Y-105410000D02*
X158115000Y-99695000D01*
X151765000Y-100330000D02*
X155575000Y-100330000D01*
X150495000Y-101600000D02*
X151765000Y-100330000D01*
X150495000Y-105410000D02*
X150495000Y-101600000D01*
X158750000Y-78105000D02*
X159385000Y-78740000D01*
X153670000Y-78105000D02*
X158750000Y-78105000D01*
X149860000Y-81915000D02*
X153670000Y-78105000D01*
X144145000Y-81915000D02*
X149860000Y-81915000D01*
X143510000Y-81280000D02*
X144145000Y-81915000D01*
X143510000Y-78105000D02*
X143510000Y-81280000D01*
X141605000Y-76200000D02*
X143510000Y-78105000D01*
X139065000Y-73025000D02*
X140970000Y-73025000D01*
X140970000Y-73025000D02*
X141605000Y-73660000D01*
X137795000Y-74295000D02*
X139065000Y-73025000D01*
X141605000Y-73660000D02*
X141605000Y-76200000D01*
X159385000Y-100330000D02*
X163830705Y-100330000D01*
X163830705Y-100330000D02*
X165182499Y-98978206D01*
X165182499Y-98978206D02*
X165182499Y-80727499D01*
X165182499Y-80727499D02*
X164464997Y-80009997D01*
X137795000Y-71755000D02*
X139065000Y-70485000D01*
X143510000Y-70485000D02*
X144145000Y-71120000D01*
X139065000Y-70485000D02*
X143510000Y-70485000D01*
X144145000Y-71120000D02*
X144145000Y-74860685D01*
X144145000Y-74860685D02*
X145484315Y-76200000D01*
X145484315Y-76200000D02*
X147320000Y-76200000D01*
X161925000Y-76200000D02*
X161925000Y-76199988D01*
X165825001Y-80100001D02*
X161925000Y-76200000D01*
X165825001Y-102779999D02*
X165825001Y-80100001D01*
X160655000Y-107950000D02*
X165825001Y-102779999D01*
X160655012Y-74930000D02*
X161925000Y-76199988D01*
X154940000Y-74930000D02*
X160655012Y-74930000D01*
X130810000Y-83185000D02*
X128905000Y-83185000D01*
X132080000Y-84455000D02*
X130810000Y-83185000D01*
X159385000Y-106680000D02*
X158115000Y-107950000D01*
X159385000Y-102145000D02*
X159385000Y-106680000D01*
X158840000Y-101600000D02*
X159385000Y-102145000D01*
X152400000Y-86360000D02*
X153670000Y-87630000D01*
X132080000Y-84455000D02*
X133985000Y-86360000D01*
X133985000Y-86360000D02*
X152400000Y-86360000D01*
X124460000Y-92075000D02*
X123190000Y-90805000D01*
X132080000Y-92075000D02*
X124460000Y-92075000D01*
X123190000Y-90805000D02*
X121285000Y-90805000D01*
X147320000Y-91440000D02*
X147320000Y-97065000D01*
X146685000Y-90805000D02*
X147320000Y-91440000D01*
X135890000Y-90805000D02*
X146685000Y-90805000D01*
X134620000Y-92075000D02*
X135890000Y-90805000D01*
X132080000Y-92075000D02*
X134620000Y-92075000D01*
X155575000Y-107950000D02*
X156845000Y-106680000D01*
X156845000Y-106680000D02*
X156845000Y-100965000D01*
X156845000Y-100965000D02*
X156845000Y-99695000D01*
X156455510Y-99305510D02*
X147955000Y-99305510D01*
X156845000Y-99695000D02*
X156455510Y-99305510D01*
X123825000Y-93345000D02*
X121285000Y-93345000D01*
X128270000Y-97790000D02*
X123825000Y-93345000D01*
X132080000Y-97790000D02*
X128270000Y-97790000D01*
X132080000Y-95885000D02*
X132080000Y-97790000D01*
X153035000Y-109220000D02*
X153035000Y-107950000D01*
X146685000Y-109855000D02*
X152400000Y-109855000D01*
X134620000Y-97790000D02*
X146685000Y-109855000D01*
X152400000Y-109855000D02*
X153035000Y-109220000D01*
X132080000Y-97790000D02*
X134620000Y-97790000D01*
X129540000Y-85725000D02*
X128905000Y-85725000D01*
X132080000Y-88265000D02*
X129540000Y-85725000D01*
X133985000Y-90170000D02*
X133985000Y-90805000D01*
X132080000Y-88265000D02*
X133985000Y-90170000D01*
X146049992Y-107950000D02*
X133984992Y-95885000D01*
X150495000Y-107950000D02*
X146049992Y-107950000D01*
X122555000Y-88265000D02*
X123190000Y-87630000D01*
X121285000Y-88265000D02*
X122555000Y-88265000D01*
X132080000Y-78740000D02*
X123825000Y-78740000D01*
X132080000Y-80645000D02*
X132080000Y-78740000D01*
X123825000Y-78740000D02*
X123190000Y-79375000D01*
X123190000Y-87630000D02*
X123190000Y-79375000D01*
X140335000Y-74930000D02*
X140335000Y-74295000D01*
X139065000Y-76200000D02*
X140335000Y-74930000D01*
X134620000Y-76200000D02*
X139065000Y-76200000D01*
X132080000Y-78740000D02*
X134620000Y-76200000D01*
X124460000Y-90805000D02*
X128905000Y-90805000D01*
X123190000Y-89535000D02*
X124460000Y-90805000D01*
X119380000Y-89535000D02*
X123190000Y-89535000D01*
X118110000Y-88265000D02*
X119380000Y-89535000D01*
X126365000Y-69850000D02*
X118110000Y-78105000D01*
X146685000Y-70485000D02*
X146050000Y-69850000D01*
X146685000Y-73025000D02*
X146685000Y-70485000D01*
X118110000Y-78105000D02*
X118110000Y-88265000D01*
X146050000Y-69850000D02*
X126365000Y-69850000D01*
X147955000Y-74295000D02*
X146685000Y-73025000D01*
X147955000Y-80645000D02*
X145415000Y-80645000D01*
X148804999Y-79795001D02*
X147955000Y-80645000D01*
X148804999Y-75144999D02*
X148804999Y-79795001D01*
X147955000Y-74295000D02*
X148804999Y-75144999D01*
X155575000Y-95885000D02*
X155575000Y-97790000D01*
X162560000Y-92075000D02*
X160655000Y-92075000D01*
X163195000Y-92710000D02*
X162560000Y-92075000D01*
X163195000Y-97155000D02*
X163195000Y-92710000D01*
X162560000Y-97790000D02*
X163195000Y-97155000D01*
X155575000Y-97790000D02*
X162560000Y-97790000D01*
X144780000Y-97790000D02*
X155575000Y-97790000D01*
X143510000Y-96520000D02*
X144780000Y-97790000D01*
X143510000Y-94615000D02*
X143510000Y-96520000D01*
X137160000Y-93980000D02*
X142875000Y-93980000D01*
X142875000Y-93980000D02*
X143510000Y-94615000D01*
X136525000Y-94615000D02*
X137160000Y-93980000D01*
X130175000Y-94615000D02*
X136525000Y-94615000D01*
X128905000Y-95885000D02*
X130175000Y-94615000D01*
X155575000Y-80645000D02*
X156845000Y-80645000D01*
X156845000Y-80645000D02*
X157480000Y-81280000D01*
X157480000Y-81280000D02*
X157480000Y-87630000D01*
X156845000Y-88265000D02*
X155575000Y-88265000D01*
X157480000Y-87630000D02*
X156845000Y-88265000D01*
X159385000Y-94615000D02*
X160655000Y-94615000D01*
X157480000Y-92710000D02*
X159385000Y-94615000D01*
X157480000Y-87630000D02*
X157480000Y-92710000D01*
X159385000Y-85725000D02*
X160655000Y-85725000D01*
X158750000Y-92710000D02*
X158750000Y-86360000D01*
X158750000Y-86360000D02*
X159385000Y-85725000D01*
X159385000Y-93345000D02*
X158750000Y-92710000D01*
X161925000Y-93345000D02*
X159385000Y-93345000D01*
X162560000Y-95885000D02*
X162560000Y-93980000D01*
X162560000Y-93980000D02*
X161925000Y-93345000D01*
X162063630Y-96381370D02*
X162560000Y-95885000D01*
X159881370Y-96381370D02*
X162063630Y-96381370D01*
X155575000Y-92075000D02*
X159881370Y-96381370D01*
X140335000Y-89535000D02*
X140335000Y-89534984D01*
X140970000Y-90170000D02*
X140335000Y-89535000D01*
X153670000Y-90170000D02*
X140970000Y-90170000D01*
X155575000Y-92075000D02*
X153670000Y-90170000D01*
X130810000Y-81915000D02*
X123915000Y-81915000D01*
X131445000Y-82550000D02*
X130810000Y-81915000D01*
X155575000Y-83185000D02*
X154940000Y-82550000D01*
X155575000Y-84455000D02*
X155575000Y-83185000D01*
X153670000Y-82550000D02*
X153670000Y-79375000D01*
X154940000Y-82550000D02*
X153670000Y-82550000D01*
X153670000Y-82550000D02*
X131445000Y-82550000D01*
X153670000Y-79375000D02*
X154305000Y-78740000D01*
X154305000Y-78740000D02*
X158115000Y-78740000D01*
X158115000Y-78740000D02*
X158750000Y-79375000D01*
X158750000Y-79375000D02*
X158750000Y-82550000D01*
X159385000Y-83185000D02*
X160655000Y-83185000D01*
X158750000Y-82550000D02*
X159385000Y-83185000D01*
M02*
