G04 #@! TF.GenerationSoftware,KiCad,Pcbnew,(5.1.8)-1*
G04 #@! TF.CreationDate,2023-02-22T00:13:33+01:00*
G04 #@! TF.ProjectId,Gameport,47616d65-706f-4727-942e-6b696361645f,rev?*
G04 #@! TF.SameCoordinates,Original*
G04 #@! TF.FileFunction,Legend,Top*
G04 #@! TF.FilePolarity,Positive*
%FSLAX46Y46*%
G04 Gerber Fmt 4.6, Leading zero omitted, Abs format (unit mm)*
G04 Created by KiCad (PCBNEW (5.1.8)-1) date 2023-02-22 00:13:33*
%MOMM*%
%LPD*%
G01*
G04 APERTURE LIST*
%ADD10C,0.100000*%
%ADD11C,0.120000*%
%ADD12C,0.150000*%
G04 APERTURE END LIST*
D10*
X140392619Y-94931904D02*
X140392619Y-94131904D01*
X140697380Y-94131904D01*
X140773571Y-94170000D01*
X140811666Y-94208095D01*
X140849761Y-94284285D01*
X140849761Y-94398571D01*
X140811666Y-94474761D01*
X140773571Y-94512857D01*
X140697380Y-94550952D01*
X140392619Y-94550952D01*
X141649761Y-94855714D02*
X141611666Y-94893809D01*
X141497380Y-94931904D01*
X141421190Y-94931904D01*
X141306904Y-94893809D01*
X141230714Y-94817619D01*
X141192619Y-94741428D01*
X141154523Y-94589047D01*
X141154523Y-94474761D01*
X141192619Y-94322380D01*
X141230714Y-94246190D01*
X141306904Y-94170000D01*
X141421190Y-94131904D01*
X141497380Y-94131904D01*
X141611666Y-94170000D01*
X141649761Y-94208095D01*
X143021190Y-94170000D02*
X142945000Y-94131904D01*
X142830714Y-94131904D01*
X142716428Y-94170000D01*
X142640238Y-94246190D01*
X142602142Y-94322380D01*
X142564047Y-94474761D01*
X142564047Y-94589047D01*
X142602142Y-94741428D01*
X142640238Y-94817619D01*
X142716428Y-94893809D01*
X142830714Y-94931904D01*
X142906904Y-94931904D01*
X143021190Y-94893809D01*
X143059285Y-94855714D01*
X143059285Y-94589047D01*
X142906904Y-94589047D01*
X143745000Y-94931904D02*
X143745000Y-94512857D01*
X143706904Y-94436666D01*
X143630714Y-94398571D01*
X143478333Y-94398571D01*
X143402142Y-94436666D01*
X143745000Y-94893809D02*
X143668809Y-94931904D01*
X143478333Y-94931904D01*
X143402142Y-94893809D01*
X143364047Y-94817619D01*
X143364047Y-94741428D01*
X143402142Y-94665238D01*
X143478333Y-94627142D01*
X143668809Y-94627142D01*
X143745000Y-94589047D01*
X144125952Y-94931904D02*
X144125952Y-94398571D01*
X144125952Y-94474761D02*
X144164047Y-94436666D01*
X144240238Y-94398571D01*
X144354523Y-94398571D01*
X144430714Y-94436666D01*
X144468809Y-94512857D01*
X144468809Y-94931904D01*
X144468809Y-94512857D02*
X144506904Y-94436666D01*
X144583095Y-94398571D01*
X144697380Y-94398571D01*
X144773571Y-94436666D01*
X144811666Y-94512857D01*
X144811666Y-94931904D01*
X145497380Y-94893809D02*
X145421190Y-94931904D01*
X145268809Y-94931904D01*
X145192619Y-94893809D01*
X145154523Y-94817619D01*
X145154523Y-94512857D01*
X145192619Y-94436666D01*
X145268809Y-94398571D01*
X145421190Y-94398571D01*
X145497380Y-94436666D01*
X145535476Y-94512857D01*
X145535476Y-94589047D01*
X145154523Y-94665238D01*
X145878333Y-94398571D02*
X145878333Y-95198571D01*
X145878333Y-94436666D02*
X145954523Y-94398571D01*
X146106904Y-94398571D01*
X146183095Y-94436666D01*
X146221190Y-94474761D01*
X146259285Y-94550952D01*
X146259285Y-94779523D01*
X146221190Y-94855714D01*
X146183095Y-94893809D01*
X146106904Y-94931904D01*
X145954523Y-94931904D01*
X145878333Y-94893809D01*
X146716428Y-94931904D02*
X146640238Y-94893809D01*
X146602142Y-94855714D01*
X146564047Y-94779523D01*
X146564047Y-94550952D01*
X146602142Y-94474761D01*
X146640238Y-94436666D01*
X146716428Y-94398571D01*
X146830714Y-94398571D01*
X146906904Y-94436666D01*
X146945000Y-94474761D01*
X146983095Y-94550952D01*
X146983095Y-94779523D01*
X146945000Y-94855714D01*
X146906904Y-94893809D01*
X146830714Y-94931904D01*
X146716428Y-94931904D01*
X147325952Y-94931904D02*
X147325952Y-94398571D01*
X147325952Y-94550952D02*
X147364047Y-94474761D01*
X147402142Y-94436666D01*
X147478333Y-94398571D01*
X147554523Y-94398571D01*
X147706904Y-94398571D02*
X148011666Y-94398571D01*
X147821190Y-94131904D02*
X147821190Y-94817619D01*
X147859285Y-94893809D01*
X147935476Y-94931904D01*
X148011666Y-94931904D01*
X137935476Y-96536666D02*
X137897380Y-96498571D01*
X137821190Y-96384285D01*
X137783095Y-96308095D01*
X137745000Y-96193809D01*
X137706904Y-96003333D01*
X137706904Y-95850952D01*
X137745000Y-95660476D01*
X137783095Y-95546190D01*
X137821190Y-95470000D01*
X137897380Y-95355714D01*
X137935476Y-95317619D01*
X138697380Y-96155714D02*
X138659285Y-96193809D01*
X138545000Y-96231904D01*
X138468809Y-96231904D01*
X138354523Y-96193809D01*
X138278333Y-96117619D01*
X138240238Y-96041428D01*
X138202142Y-95889047D01*
X138202142Y-95774761D01*
X138240238Y-95622380D01*
X138278333Y-95546190D01*
X138354523Y-95470000D01*
X138468809Y-95431904D01*
X138545000Y-95431904D01*
X138659285Y-95470000D01*
X138697380Y-95508095D01*
X139383095Y-95431904D02*
X139230714Y-95431904D01*
X139154523Y-95470000D01*
X139116428Y-95508095D01*
X139040238Y-95622380D01*
X139002142Y-95774761D01*
X139002142Y-96079523D01*
X139040238Y-96155714D01*
X139078333Y-96193809D01*
X139154523Y-96231904D01*
X139306904Y-96231904D01*
X139383095Y-96193809D01*
X139421190Y-96155714D01*
X139459285Y-96079523D01*
X139459285Y-95889047D01*
X139421190Y-95812857D01*
X139383095Y-95774761D01*
X139306904Y-95736666D01*
X139154523Y-95736666D01*
X139078333Y-95774761D01*
X139040238Y-95812857D01*
X139002142Y-95889047D01*
X140145000Y-95698571D02*
X140145000Y-96231904D01*
X139954523Y-95393809D02*
X139764047Y-95965238D01*
X140259285Y-95965238D01*
X141402142Y-95431904D02*
X141402142Y-96003333D01*
X141364047Y-96117619D01*
X141287857Y-96193809D01*
X141173571Y-96231904D01*
X141097380Y-96231904D01*
X141897380Y-96231904D02*
X141821190Y-96193809D01*
X141783095Y-96155714D01*
X141745000Y-96079523D01*
X141745000Y-95850952D01*
X141783095Y-95774761D01*
X141821190Y-95736666D01*
X141897380Y-95698571D01*
X142011666Y-95698571D01*
X142087857Y-95736666D01*
X142125952Y-95774761D01*
X142164047Y-95850952D01*
X142164047Y-96079523D01*
X142125952Y-96155714D01*
X142087857Y-96193809D01*
X142011666Y-96231904D01*
X141897380Y-96231904D01*
X142430714Y-95698571D02*
X142621190Y-96231904D01*
X142811666Y-95698571D02*
X142621190Y-96231904D01*
X142545000Y-96422380D01*
X142506904Y-96460476D01*
X142430714Y-96498571D01*
X143116428Y-96231904D02*
X143116428Y-95431904D01*
X143573571Y-96231904D02*
X143230714Y-95774761D01*
X143573571Y-95431904D02*
X143116428Y-95889047D01*
X143916428Y-95812857D02*
X144183095Y-95812857D01*
X144297380Y-96231904D02*
X143916428Y-96231904D01*
X143916428Y-95431904D01*
X144297380Y-95431904D01*
X144792619Y-95850952D02*
X144792619Y-96231904D01*
X144525952Y-95431904D02*
X144792619Y-95850952D01*
X145059285Y-95431904D01*
X145897380Y-96003333D02*
X146278333Y-96003333D01*
X145821190Y-96231904D02*
X146087857Y-95431904D01*
X146354523Y-96231904D01*
X146964047Y-96231904D02*
X146964047Y-95431904D01*
X146964047Y-96193809D02*
X146887857Y-96231904D01*
X146735476Y-96231904D01*
X146659285Y-96193809D01*
X146621190Y-96155714D01*
X146583095Y-96079523D01*
X146583095Y-95850952D01*
X146621190Y-95774761D01*
X146659285Y-95736666D01*
X146735476Y-95698571D01*
X146887857Y-95698571D01*
X146964047Y-95736666D01*
X147687857Y-96231904D02*
X147687857Y-95812857D01*
X147649761Y-95736666D01*
X147573571Y-95698571D01*
X147421190Y-95698571D01*
X147345000Y-95736666D01*
X147687857Y-96193809D02*
X147611666Y-96231904D01*
X147421190Y-96231904D01*
X147345000Y-96193809D01*
X147306904Y-96117619D01*
X147306904Y-96041428D01*
X147345000Y-95965238D01*
X147421190Y-95927142D01*
X147611666Y-95927142D01*
X147687857Y-95889047D01*
X148068809Y-95698571D02*
X148068809Y-96498571D01*
X148068809Y-95736666D02*
X148145000Y-95698571D01*
X148297380Y-95698571D01*
X148373571Y-95736666D01*
X148411666Y-95774761D01*
X148449761Y-95850952D01*
X148449761Y-96079523D01*
X148411666Y-96155714D01*
X148373571Y-96193809D01*
X148297380Y-96231904D01*
X148145000Y-96231904D01*
X148068809Y-96193809D01*
X148678333Y-95698571D02*
X148983095Y-95698571D01*
X148792619Y-95431904D02*
X148792619Y-96117619D01*
X148830714Y-96193809D01*
X148906904Y-96231904D01*
X148983095Y-96231904D01*
X149554523Y-96193809D02*
X149478333Y-96231904D01*
X149325952Y-96231904D01*
X149249761Y-96193809D01*
X149211666Y-96117619D01*
X149211666Y-95812857D01*
X149249761Y-95736666D01*
X149325952Y-95698571D01*
X149478333Y-95698571D01*
X149554523Y-95736666D01*
X149592619Y-95812857D01*
X149592619Y-95889047D01*
X149211666Y-95965238D01*
X149935476Y-96231904D02*
X149935476Y-95698571D01*
X149935476Y-95850952D02*
X149973571Y-95774761D01*
X150011666Y-95736666D01*
X150087857Y-95698571D01*
X150164047Y-95698571D01*
X150354523Y-96536666D02*
X150392619Y-96498571D01*
X150468809Y-96384285D01*
X150506904Y-96308095D01*
X150545000Y-96193809D01*
X150583095Y-96003333D01*
X150583095Y-95850952D01*
X150545000Y-95660476D01*
X150506904Y-95546190D01*
X150468809Y-95470000D01*
X150392619Y-95355714D01*
X150354523Y-95317619D01*
X139821190Y-98298571D02*
X139821190Y-98946190D01*
X139783095Y-99022380D01*
X139745000Y-99060476D01*
X139668809Y-99098571D01*
X139554523Y-99098571D01*
X139478333Y-99060476D01*
X139821190Y-98793809D02*
X139745000Y-98831904D01*
X139592619Y-98831904D01*
X139516428Y-98793809D01*
X139478333Y-98755714D01*
X139440238Y-98679523D01*
X139440238Y-98450952D01*
X139478333Y-98374761D01*
X139516428Y-98336666D01*
X139592619Y-98298571D01*
X139745000Y-98298571D01*
X139821190Y-98336666D01*
X140202142Y-98831904D02*
X140202142Y-98298571D01*
X140202142Y-98031904D02*
X140164047Y-98070000D01*
X140202142Y-98108095D01*
X140240238Y-98070000D01*
X140202142Y-98031904D01*
X140202142Y-98108095D01*
X140468809Y-98298571D02*
X140773571Y-98298571D01*
X140583095Y-98031904D02*
X140583095Y-98717619D01*
X140621190Y-98793809D01*
X140697380Y-98831904D01*
X140773571Y-98831904D01*
X141040238Y-98831904D02*
X141040238Y-98031904D01*
X141383095Y-98831904D02*
X141383095Y-98412857D01*
X141345000Y-98336666D01*
X141268809Y-98298571D01*
X141154523Y-98298571D01*
X141078333Y-98336666D01*
X141040238Y-98374761D01*
X142106904Y-98298571D02*
X142106904Y-98831904D01*
X141764047Y-98298571D02*
X141764047Y-98717619D01*
X141802142Y-98793809D01*
X141878333Y-98831904D01*
X141992619Y-98831904D01*
X142068809Y-98793809D01*
X142106904Y-98755714D01*
X142487857Y-98831904D02*
X142487857Y-98031904D01*
X142487857Y-98336666D02*
X142564047Y-98298571D01*
X142716428Y-98298571D01*
X142792619Y-98336666D01*
X142830714Y-98374761D01*
X142868809Y-98450952D01*
X142868809Y-98679523D01*
X142830714Y-98755714D01*
X142792619Y-98793809D01*
X142716428Y-98831904D01*
X142564047Y-98831904D01*
X142487857Y-98793809D01*
X143211666Y-98755714D02*
X143249761Y-98793809D01*
X143211666Y-98831904D01*
X143173571Y-98793809D01*
X143211666Y-98755714D01*
X143211666Y-98831904D01*
X143935476Y-98793809D02*
X143859285Y-98831904D01*
X143706904Y-98831904D01*
X143630714Y-98793809D01*
X143592619Y-98755714D01*
X143554523Y-98679523D01*
X143554523Y-98450952D01*
X143592619Y-98374761D01*
X143630714Y-98336666D01*
X143706904Y-98298571D01*
X143859285Y-98298571D01*
X143935476Y-98336666D01*
X144392619Y-98831904D02*
X144316428Y-98793809D01*
X144278333Y-98755714D01*
X144240238Y-98679523D01*
X144240238Y-98450952D01*
X144278333Y-98374761D01*
X144316428Y-98336666D01*
X144392619Y-98298571D01*
X144506904Y-98298571D01*
X144583095Y-98336666D01*
X144621190Y-98374761D01*
X144659285Y-98450952D01*
X144659285Y-98679523D01*
X144621190Y-98755714D01*
X144583095Y-98793809D01*
X144506904Y-98831904D01*
X144392619Y-98831904D01*
X145002142Y-98831904D02*
X145002142Y-98298571D01*
X145002142Y-98374761D02*
X145040238Y-98336666D01*
X145116428Y-98298571D01*
X145230714Y-98298571D01*
X145306904Y-98336666D01*
X145345000Y-98412857D01*
X145345000Y-98831904D01*
X145345000Y-98412857D02*
X145383095Y-98336666D01*
X145459285Y-98298571D01*
X145573571Y-98298571D01*
X145649761Y-98336666D01*
X145687857Y-98412857D01*
X145687857Y-98831904D01*
X146640238Y-97993809D02*
X145954523Y-99022380D01*
X146792619Y-98298571D02*
X147097380Y-98298571D01*
X146906904Y-98031904D02*
X146906904Y-98717619D01*
X146945000Y-98793809D01*
X147021190Y-98831904D01*
X147097380Y-98831904D01*
X147668809Y-98793809D02*
X147592619Y-98831904D01*
X147440238Y-98831904D01*
X147364047Y-98793809D01*
X147325952Y-98717619D01*
X147325952Y-98412857D01*
X147364047Y-98336666D01*
X147440238Y-98298571D01*
X147592619Y-98298571D01*
X147668809Y-98336666D01*
X147706904Y-98412857D01*
X147706904Y-98489047D01*
X147325952Y-98565238D01*
X148049761Y-98831904D02*
X148049761Y-98031904D01*
X148049761Y-98336666D02*
X148125952Y-98298571D01*
X148278333Y-98298571D01*
X148354523Y-98336666D01*
X148392619Y-98374761D01*
X148430714Y-98450952D01*
X148430714Y-98679523D01*
X148392619Y-98755714D01*
X148354523Y-98793809D01*
X148278333Y-98831904D01*
X148125952Y-98831904D01*
X148049761Y-98793809D01*
X148887857Y-98831904D02*
X148811666Y-98793809D01*
X148773571Y-98717619D01*
X148773571Y-98031904D01*
X145395000Y-102255000D02*
X165755000Y-102255000D01*
X145935000Y-102805000D02*
X165195000Y-102805000D01*
X145395000Y-111105000D02*
X165755000Y-111105000D01*
X145935000Y-110555000D02*
X153325000Y-110555000D01*
X157825000Y-110555000D02*
X165195000Y-110555000D01*
X153325000Y-110555000D02*
X153325000Y-111105000D01*
X157825000Y-110555000D02*
X157825000Y-111105000D01*
X145395000Y-102255000D02*
X145395000Y-111105000D01*
X145935000Y-102805000D02*
X145935000Y-110555000D01*
X165755000Y-102255000D02*
X165755000Y-111105000D01*
X165195000Y-102805000D02*
X165195000Y-110555000D01*
X145395000Y-102255000D02*
X145935000Y-102805000D01*
X165755000Y-102255000D02*
X165195000Y-102805000D01*
X145395000Y-111105000D02*
X145935000Y-110555000D01*
X165755000Y-111105000D02*
X165195000Y-110555000D01*
D11*
X145145000Y-102005000D02*
X166005000Y-102005000D01*
X166005000Y-102005000D02*
X166005000Y-111355000D01*
X166005000Y-111355000D02*
X145145000Y-111355000D01*
X145145000Y-111355000D02*
X145145000Y-102005000D01*
X144895000Y-111605000D02*
X147435000Y-111605000D01*
X144895000Y-111605000D02*
X144895000Y-109065000D01*
X150558500Y-109402425D02*
X150808500Y-109835438D01*
X150308500Y-109835438D02*
X150558500Y-109402425D01*
X150808500Y-109835438D02*
X150308500Y-109835438D01*
D10*
X122535000Y-102255000D02*
X142895000Y-102255000D01*
X123075000Y-102805000D02*
X142335000Y-102805000D01*
X122535000Y-111105000D02*
X142895000Y-111105000D01*
X123075000Y-110555000D02*
X130465000Y-110555000D01*
X134965000Y-110555000D02*
X142335000Y-110555000D01*
X130465000Y-110555000D02*
X130465000Y-111105000D01*
X134965000Y-110555000D02*
X134965000Y-111105000D01*
X122535000Y-102255000D02*
X122535000Y-111105000D01*
X123075000Y-102805000D02*
X123075000Y-110555000D01*
X142895000Y-102255000D02*
X142895000Y-111105000D01*
X142335000Y-102805000D02*
X142335000Y-110555000D01*
X122535000Y-102255000D02*
X123075000Y-102805000D01*
X142895000Y-102255000D02*
X142335000Y-102805000D01*
X122535000Y-111105000D02*
X123075000Y-110555000D01*
X142895000Y-111105000D02*
X142335000Y-110555000D01*
D11*
X122285000Y-102005000D02*
X143145000Y-102005000D01*
X143145000Y-102005000D02*
X143145000Y-111355000D01*
X143145000Y-111355000D02*
X122285000Y-111355000D01*
X122285000Y-111355000D02*
X122285000Y-102005000D01*
X122035000Y-111605000D02*
X124575000Y-111605000D01*
X122035000Y-111605000D02*
X122035000Y-109065000D01*
X127698500Y-109402425D02*
X127948500Y-109835438D01*
X127448500Y-109835438D02*
X127698500Y-109402425D01*
X127948500Y-109835438D02*
X127448500Y-109835438D01*
X168850000Y-98365000D02*
X170180000Y-98365000D01*
X168850000Y-99695000D02*
X168850000Y-98365000D01*
X168850000Y-100965000D02*
X171510000Y-100965000D01*
X171510000Y-100965000D02*
X171510000Y-103565000D01*
X168850000Y-100965000D02*
X168850000Y-103565000D01*
X168850000Y-103565000D02*
X171510000Y-103565000D01*
X130045000Y-85840000D02*
X130045000Y-76720000D01*
X130045000Y-76720000D02*
X158245000Y-76720000D01*
X158245000Y-76720000D02*
X158245000Y-85840000D01*
X158245000Y-85840000D02*
X130045000Y-85840000D01*
X142095000Y-85840000D02*
X142095000Y-84530000D01*
X142095000Y-84530000D02*
X131345000Y-84530000D01*
X131345000Y-84530000D02*
X131345000Y-78030000D01*
X131345000Y-78030000D02*
X156945000Y-78030000D01*
X156945000Y-78030000D02*
X156945000Y-84530000D01*
X156945000Y-84530000D02*
X146195000Y-84530000D01*
X146195000Y-84530000D02*
X146195000Y-84530000D01*
X146195000Y-84530000D02*
X146195000Y-85840000D01*
X135255000Y-86230000D02*
X134755000Y-87230000D01*
X134755000Y-87230000D02*
X135755000Y-87230000D01*
X135755000Y-87230000D02*
X135255000Y-86230000D01*
X129690000Y-94195000D02*
X131930000Y-94195000D01*
X131930000Y-94195000D02*
X131930000Y-89955000D01*
X131930000Y-89955000D02*
X129690000Y-89955000D01*
X129690000Y-89955000D02*
X129690000Y-94195000D01*
X130810000Y-94845000D02*
X130810000Y-94195000D01*
X130810000Y-89305000D02*
X130810000Y-89955000D01*
X129690000Y-93475000D02*
X131930000Y-93475000D01*
X129690000Y-93355000D02*
X131930000Y-93355000D01*
X129690000Y-93595000D02*
X131930000Y-93595000D01*
X156360000Y-93595000D02*
X158600000Y-93595000D01*
X156360000Y-93355000D02*
X158600000Y-93355000D01*
X156360000Y-93475000D02*
X158600000Y-93475000D01*
X157480000Y-89305000D02*
X157480000Y-89955000D01*
X157480000Y-94845000D02*
X157480000Y-94195000D01*
X156360000Y-89955000D02*
X156360000Y-94195000D01*
X158600000Y-89955000D02*
X156360000Y-89955000D01*
X158600000Y-94195000D02*
X158600000Y-89955000D01*
X156360000Y-94195000D02*
X158600000Y-94195000D01*
X135995000Y-92655000D02*
X139595000Y-92655000D01*
X135470816Y-91927795D02*
G75*
G03*
X135995000Y-92655000I2324184J1122795D01*
G01*
X135438600Y-89706193D02*
G75*
G02*
X137795000Y-88205000I2356400J-1098807D01*
G01*
X140151400Y-89706193D02*
G75*
G03*
X137795000Y-88205000I-2356400J-1098807D01*
G01*
X140119184Y-91927795D02*
G75*
G02*
X139595000Y-92655000I-2324184J1122795D01*
G01*
X148695000Y-92655000D02*
X152295000Y-92655000D01*
X152819184Y-91927795D02*
G75*
G02*
X152295000Y-92655000I-2324184J1122795D01*
G01*
X152851400Y-89706193D02*
G75*
G03*
X150495000Y-88205000I-2356400J-1098807D01*
G01*
X148138600Y-89706193D02*
G75*
G02*
X150495000Y-88205000I2356400J-1098807D01*
G01*
X148170816Y-91927795D02*
G75*
G03*
X148695000Y-92655000I2324184J1122795D01*
G01*
X120555000Y-85320000D02*
X120555000Y-84990000D01*
X120555000Y-84990000D02*
X127095000Y-84990000D01*
X127095000Y-84990000D02*
X127095000Y-85320000D01*
X120555000Y-87400000D02*
X120555000Y-87730000D01*
X120555000Y-87730000D02*
X127095000Y-87730000D01*
X127095000Y-87730000D02*
X127095000Y-87400000D01*
X161195000Y-85320000D02*
X161195000Y-84990000D01*
X161195000Y-84990000D02*
X167735000Y-84990000D01*
X167735000Y-84990000D02*
X167735000Y-85320000D01*
X161195000Y-87400000D02*
X161195000Y-87730000D01*
X161195000Y-87730000D02*
X167735000Y-87730000D01*
X167735000Y-87730000D02*
X167735000Y-87400000D01*
X127095000Y-90905000D02*
X127095000Y-90575000D01*
X120555000Y-90905000D02*
X127095000Y-90905000D01*
X120555000Y-90575000D02*
X120555000Y-90905000D01*
X127095000Y-88165000D02*
X127095000Y-88495000D01*
X120555000Y-88165000D02*
X127095000Y-88165000D01*
X120555000Y-88495000D02*
X120555000Y-88165000D01*
X167735000Y-90905000D02*
X167735000Y-90575000D01*
X161195000Y-90905000D02*
X167735000Y-90905000D01*
X161195000Y-90575000D02*
X161195000Y-90905000D01*
X167735000Y-88165000D02*
X167735000Y-88495000D01*
X161195000Y-88165000D02*
X167735000Y-88165000D01*
X161195000Y-88495000D02*
X161195000Y-88165000D01*
X127095000Y-97255000D02*
X127095000Y-96925000D01*
X120555000Y-97255000D02*
X127095000Y-97255000D01*
X120555000Y-96925000D02*
X120555000Y-97255000D01*
X127095000Y-94515000D02*
X127095000Y-94845000D01*
X120555000Y-94515000D02*
X127095000Y-94515000D01*
X120555000Y-94845000D02*
X120555000Y-94515000D01*
X161195000Y-94515000D02*
X161195000Y-94845000D01*
X167735000Y-94515000D02*
X161195000Y-94515000D01*
X167735000Y-94845000D02*
X167735000Y-94515000D01*
X161195000Y-97255000D02*
X161195000Y-96925000D01*
X167735000Y-97255000D02*
X161195000Y-97255000D01*
X167735000Y-96925000D02*
X167735000Y-97255000D01*
X120555000Y-91670000D02*
X120555000Y-91340000D01*
X120555000Y-91340000D02*
X127095000Y-91340000D01*
X127095000Y-91340000D02*
X127095000Y-91670000D01*
X120555000Y-93750000D02*
X120555000Y-94080000D01*
X120555000Y-94080000D02*
X127095000Y-94080000D01*
X127095000Y-94080000D02*
X127095000Y-93750000D01*
X161195000Y-91670000D02*
X161195000Y-91340000D01*
X161195000Y-91340000D02*
X167735000Y-91340000D01*
X167735000Y-91340000D02*
X167735000Y-91670000D01*
X161195000Y-93750000D02*
X161195000Y-94080000D01*
X161195000Y-94080000D02*
X167735000Y-94080000D01*
X167735000Y-94080000D02*
X167735000Y-93750000D01*
D10*
X146418333Y-103066904D02*
X146418333Y-103638333D01*
X146380238Y-103752619D01*
X146304047Y-103828809D01*
X146189761Y-103866904D01*
X146113571Y-103866904D01*
X146761190Y-103143095D02*
X146799285Y-103105000D01*
X146875476Y-103066904D01*
X147065952Y-103066904D01*
X147142142Y-103105000D01*
X147180238Y-103143095D01*
X147218333Y-103219285D01*
X147218333Y-103295476D01*
X147180238Y-103409761D01*
X146723095Y-103866904D01*
X147218333Y-103866904D01*
D12*
X145153333Y-101417380D02*
X145153333Y-100417380D01*
X145534285Y-100417380D01*
X145629523Y-100465000D01*
X145677142Y-100512619D01*
X145724761Y-100607857D01*
X145724761Y-100750714D01*
X145677142Y-100845952D01*
X145629523Y-100893571D01*
X145534285Y-100941190D01*
X145153333Y-100941190D01*
X146296190Y-101417380D02*
X146200952Y-101369761D01*
X146153333Y-101322142D01*
X146105714Y-101226904D01*
X146105714Y-100941190D01*
X146153333Y-100845952D01*
X146200952Y-100798333D01*
X146296190Y-100750714D01*
X146439047Y-100750714D01*
X146534285Y-100798333D01*
X146581904Y-100845952D01*
X146629523Y-100941190D01*
X146629523Y-101226904D01*
X146581904Y-101322142D01*
X146534285Y-101369761D01*
X146439047Y-101417380D01*
X146296190Y-101417380D01*
X147058095Y-101417380D02*
X147058095Y-100750714D01*
X147058095Y-100941190D02*
X147105714Y-100845952D01*
X147153333Y-100798333D01*
X147248571Y-100750714D01*
X147343809Y-100750714D01*
X147534285Y-100750714D02*
X147915238Y-100750714D01*
X147677142Y-100417380D02*
X147677142Y-101274523D01*
X147724761Y-101369761D01*
X147820000Y-101417380D01*
X147915238Y-101417380D01*
X148962857Y-100512619D02*
X149010476Y-100465000D01*
X149105714Y-100417380D01*
X149343809Y-100417380D01*
X149439047Y-100465000D01*
X149486666Y-100512619D01*
X149534285Y-100607857D01*
X149534285Y-100703095D01*
X149486666Y-100845952D01*
X148915238Y-101417380D01*
X149534285Y-101417380D01*
D10*
X123558333Y-103066904D02*
X123558333Y-103638333D01*
X123520238Y-103752619D01*
X123444047Y-103828809D01*
X123329761Y-103866904D01*
X123253571Y-103866904D01*
X124358333Y-103866904D02*
X123901190Y-103866904D01*
X124129761Y-103866904D02*
X124129761Y-103066904D01*
X124053571Y-103181190D01*
X123977380Y-103257380D01*
X123901190Y-103295476D01*
D12*
X122293333Y-101417380D02*
X122293333Y-100417380D01*
X122674285Y-100417380D01*
X122769523Y-100465000D01*
X122817142Y-100512619D01*
X122864761Y-100607857D01*
X122864761Y-100750714D01*
X122817142Y-100845952D01*
X122769523Y-100893571D01*
X122674285Y-100941190D01*
X122293333Y-100941190D01*
X123436190Y-101417380D02*
X123340952Y-101369761D01*
X123293333Y-101322142D01*
X123245714Y-101226904D01*
X123245714Y-100941190D01*
X123293333Y-100845952D01*
X123340952Y-100798333D01*
X123436190Y-100750714D01*
X123579047Y-100750714D01*
X123674285Y-100798333D01*
X123721904Y-100845952D01*
X123769523Y-100941190D01*
X123769523Y-101226904D01*
X123721904Y-101322142D01*
X123674285Y-101369761D01*
X123579047Y-101417380D01*
X123436190Y-101417380D01*
X124198095Y-101417380D02*
X124198095Y-100750714D01*
X124198095Y-100941190D02*
X124245714Y-100845952D01*
X124293333Y-100798333D01*
X124388571Y-100750714D01*
X124483809Y-100750714D01*
X124674285Y-100750714D02*
X125055238Y-100750714D01*
X124817142Y-100417380D02*
X124817142Y-101274523D01*
X124864761Y-101369761D01*
X124960000Y-101417380D01*
X125055238Y-101417380D01*
X126674285Y-101417380D02*
X126102857Y-101417380D01*
X126388571Y-101417380D02*
X126388571Y-100417380D01*
X126293333Y-100560238D01*
X126198095Y-100655476D01*
X126102857Y-100703095D01*
D10*
X165068333Y-98621904D02*
X165068333Y-99193333D01*
X165030238Y-99307619D01*
X164954047Y-99383809D01*
X164839761Y-99421904D01*
X164763571Y-99421904D01*
X165449285Y-99421904D02*
X165449285Y-98621904D01*
X165754047Y-98621904D01*
X165830238Y-98660000D01*
X165868333Y-98698095D01*
X165906428Y-98774285D01*
X165906428Y-98888571D01*
X165868333Y-98964761D01*
X165830238Y-99002857D01*
X165754047Y-99040952D01*
X165449285Y-99040952D01*
X166668333Y-99421904D02*
X166211190Y-99421904D01*
X166439761Y-99421904D02*
X166439761Y-98621904D01*
X166363571Y-98736190D01*
X166287380Y-98812380D01*
X166211190Y-98850476D01*
X163582619Y-99891904D02*
X163849285Y-100691904D01*
X164115952Y-99891904D01*
X164839761Y-100615714D02*
X164801666Y-100653809D01*
X164687380Y-100691904D01*
X164611190Y-100691904D01*
X164496904Y-100653809D01*
X164420714Y-100577619D01*
X164382619Y-100501428D01*
X164344523Y-100349047D01*
X164344523Y-100234761D01*
X164382619Y-100082380D01*
X164420714Y-100006190D01*
X164496904Y-99930000D01*
X164611190Y-99891904D01*
X164687380Y-99891904D01*
X164801666Y-99930000D01*
X164839761Y-99968095D01*
X165639761Y-100615714D02*
X165601666Y-100653809D01*
X165487380Y-100691904D01*
X165411190Y-100691904D01*
X165296904Y-100653809D01*
X165220714Y-100577619D01*
X165182619Y-100501428D01*
X165144523Y-100349047D01*
X165144523Y-100234761D01*
X165182619Y-100082380D01*
X165220714Y-100006190D01*
X165296904Y-99930000D01*
X165411190Y-99891904D01*
X165487380Y-99891904D01*
X165601666Y-99930000D01*
X165639761Y-99968095D01*
X165792142Y-100768095D02*
X166401666Y-100768095D01*
X166592142Y-100272857D02*
X166858809Y-100272857D01*
X166973095Y-100691904D02*
X166592142Y-100691904D01*
X166592142Y-99891904D01*
X166973095Y-99891904D01*
X167315952Y-100691904D02*
X167315952Y-99891904D01*
X167773095Y-100691904D01*
X167773095Y-99891904D01*
D12*
X132381666Y-78827380D02*
X132381666Y-79541666D01*
X132334047Y-79684523D01*
X132238809Y-79779761D01*
X132095952Y-79827380D01*
X132000714Y-79827380D01*
X132762619Y-78827380D02*
X133381666Y-78827380D01*
X133048333Y-79208333D01*
X133191190Y-79208333D01*
X133286428Y-79255952D01*
X133334047Y-79303571D01*
X133381666Y-79398809D01*
X133381666Y-79636904D01*
X133334047Y-79732142D01*
X133286428Y-79779761D01*
X133191190Y-79827380D01*
X132905476Y-79827380D01*
X132810238Y-79779761D01*
X132762619Y-79732142D01*
D10*
X141916428Y-86468000D02*
X141840238Y-86429904D01*
X141725952Y-86429904D01*
X141611666Y-86468000D01*
X141535476Y-86544190D01*
X141497380Y-86620380D01*
X141459285Y-86772761D01*
X141459285Y-86887047D01*
X141497380Y-87039428D01*
X141535476Y-87115619D01*
X141611666Y-87191809D01*
X141725952Y-87229904D01*
X141802142Y-87229904D01*
X141916428Y-87191809D01*
X141954523Y-87153714D01*
X141954523Y-86887047D01*
X141802142Y-86887047D01*
X142640238Y-87229904D02*
X142640238Y-86810857D01*
X142602142Y-86734666D01*
X142525952Y-86696571D01*
X142373571Y-86696571D01*
X142297380Y-86734666D01*
X142640238Y-87191809D02*
X142564047Y-87229904D01*
X142373571Y-87229904D01*
X142297380Y-87191809D01*
X142259285Y-87115619D01*
X142259285Y-87039428D01*
X142297380Y-86963238D01*
X142373571Y-86925142D01*
X142564047Y-86925142D01*
X142640238Y-86887047D01*
X143021190Y-87229904D02*
X143021190Y-86696571D01*
X143021190Y-86772761D02*
X143059285Y-86734666D01*
X143135476Y-86696571D01*
X143249761Y-86696571D01*
X143325952Y-86734666D01*
X143364047Y-86810857D01*
X143364047Y-87229904D01*
X143364047Y-86810857D02*
X143402142Y-86734666D01*
X143478333Y-86696571D01*
X143592619Y-86696571D01*
X143668809Y-86734666D01*
X143706904Y-86810857D01*
X143706904Y-87229904D01*
X144392619Y-87191809D02*
X144316428Y-87229904D01*
X144164047Y-87229904D01*
X144087857Y-87191809D01*
X144049761Y-87115619D01*
X144049761Y-86810857D01*
X144087857Y-86734666D01*
X144164047Y-86696571D01*
X144316428Y-86696571D01*
X144392619Y-86734666D01*
X144430714Y-86810857D01*
X144430714Y-86887047D01*
X144049761Y-86963238D01*
X144773571Y-86696571D02*
X144773571Y-87496571D01*
X144773571Y-86734666D02*
X144849761Y-86696571D01*
X145002142Y-86696571D01*
X145078333Y-86734666D01*
X145116428Y-86772761D01*
X145154523Y-86848952D01*
X145154523Y-87077523D01*
X145116428Y-87153714D01*
X145078333Y-87191809D01*
X145002142Y-87229904D01*
X144849761Y-87229904D01*
X144773571Y-87191809D01*
X145611666Y-87229904D02*
X145535476Y-87191809D01*
X145497380Y-87153714D01*
X145459285Y-87077523D01*
X145459285Y-86848952D01*
X145497380Y-86772761D01*
X145535476Y-86734666D01*
X145611666Y-86696571D01*
X145725952Y-86696571D01*
X145802142Y-86734666D01*
X145840238Y-86772761D01*
X145878333Y-86848952D01*
X145878333Y-87077523D01*
X145840238Y-87153714D01*
X145802142Y-87191809D01*
X145725952Y-87229904D01*
X145611666Y-87229904D01*
X146221190Y-87229904D02*
X146221190Y-86696571D01*
X146221190Y-86848952D02*
X146259285Y-86772761D01*
X146297380Y-86734666D01*
X146373571Y-86696571D01*
X146449761Y-86696571D01*
X146602142Y-86696571D02*
X146906904Y-86696571D01*
X146716428Y-86429904D02*
X146716428Y-87115619D01*
X146754523Y-87191809D01*
X146830714Y-87229904D01*
X146906904Y-87229904D01*
D12*
X131262380Y-92178095D02*
X130262380Y-92178095D01*
X130262380Y-91940000D01*
X130310000Y-91797142D01*
X130405238Y-91701904D01*
X130500476Y-91654285D01*
X130690952Y-91606666D01*
X130833809Y-91606666D01*
X131024285Y-91654285D01*
X131119523Y-91701904D01*
X131214761Y-91797142D01*
X131262380Y-91940000D01*
X131262380Y-92178095D01*
X131262380Y-90654285D02*
X131262380Y-91225714D01*
X131262380Y-90940000D02*
X130262380Y-90940000D01*
X130405238Y-91035238D01*
X130500476Y-91130476D01*
X130548095Y-91225714D01*
X131262380Y-98051904D02*
X130262380Y-98051904D01*
X131262380Y-97480476D02*
X130690952Y-97909047D01*
X130262380Y-97480476D02*
X130833809Y-98051904D01*
X157932380Y-92178095D02*
X156932380Y-92178095D01*
X156932380Y-91940000D01*
X156980000Y-91797142D01*
X157075238Y-91701904D01*
X157170476Y-91654285D01*
X157360952Y-91606666D01*
X157503809Y-91606666D01*
X157694285Y-91654285D01*
X157789523Y-91701904D01*
X157884761Y-91797142D01*
X157932380Y-91940000D01*
X157932380Y-92178095D01*
X157027619Y-91225714D02*
X156980000Y-91178095D01*
X156932380Y-91082857D01*
X156932380Y-90844761D01*
X156980000Y-90749523D01*
X157027619Y-90701904D01*
X157122857Y-90654285D01*
X157218095Y-90654285D01*
X157360952Y-90701904D01*
X157932380Y-91273333D01*
X157932380Y-90654285D01*
X157932380Y-98051904D02*
X156932380Y-98051904D01*
X157932380Y-97480476D02*
X157360952Y-97909047D01*
X156932380Y-97480476D02*
X157503809Y-98051904D01*
D10*
X137718809Y-87683095D02*
X137642619Y-87645000D01*
X137566428Y-87568809D01*
X137452142Y-87454523D01*
X137375952Y-87416428D01*
X137299761Y-87416428D01*
X137337857Y-87606904D02*
X137261666Y-87568809D01*
X137185476Y-87492619D01*
X137147380Y-87340238D01*
X137147380Y-87073571D01*
X137185476Y-86921190D01*
X137261666Y-86845000D01*
X137337857Y-86806904D01*
X137490238Y-86806904D01*
X137566428Y-86845000D01*
X137642619Y-86921190D01*
X137680714Y-87073571D01*
X137680714Y-87340238D01*
X137642619Y-87492619D01*
X137566428Y-87568809D01*
X137490238Y-87606904D01*
X137337857Y-87606904D01*
X138442619Y-87606904D02*
X137985476Y-87606904D01*
X138214047Y-87606904D02*
X138214047Y-86806904D01*
X138137857Y-86921190D01*
X138061666Y-86997380D01*
X137985476Y-87035476D01*
X150418809Y-87683095D02*
X150342619Y-87645000D01*
X150266428Y-87568809D01*
X150152142Y-87454523D01*
X150075952Y-87416428D01*
X149999761Y-87416428D01*
X150037857Y-87606904D02*
X149961666Y-87568809D01*
X149885476Y-87492619D01*
X149847380Y-87340238D01*
X149847380Y-87073571D01*
X149885476Y-86921190D01*
X149961666Y-86845000D01*
X150037857Y-86806904D01*
X150190238Y-86806904D01*
X150266428Y-86845000D01*
X150342619Y-86921190D01*
X150380714Y-87073571D01*
X150380714Y-87340238D01*
X150342619Y-87492619D01*
X150266428Y-87568809D01*
X150190238Y-87606904D01*
X150037857Y-87606904D01*
X150685476Y-86883095D02*
X150723571Y-86845000D01*
X150799761Y-86806904D01*
X150990238Y-86806904D01*
X151066428Y-86845000D01*
X151104523Y-86883095D01*
X151142619Y-86959285D01*
X151142619Y-87035476D01*
X151104523Y-87149761D01*
X150647380Y-87606904D01*
X151142619Y-87606904D01*
X122281904Y-86493333D02*
X121900952Y-86760000D01*
X122281904Y-86950476D02*
X121481904Y-86950476D01*
X121481904Y-86645714D01*
X121520000Y-86569523D01*
X121558095Y-86531428D01*
X121634285Y-86493333D01*
X121748571Y-86493333D01*
X121824761Y-86531428D01*
X121862857Y-86569523D01*
X121900952Y-86645714D01*
X121900952Y-86950476D01*
X122281904Y-85731428D02*
X122281904Y-86188571D01*
X122281904Y-85960000D02*
X121481904Y-85960000D01*
X121596190Y-86036190D01*
X121672380Y-86112380D01*
X121710476Y-86188571D01*
X124237857Y-86721904D02*
X123780714Y-86721904D01*
X124009285Y-86721904D02*
X124009285Y-85921904D01*
X123933095Y-86036190D01*
X123856904Y-86112380D01*
X123780714Y-86150476D01*
X124733095Y-85921904D02*
X124809285Y-85921904D01*
X124885476Y-85960000D01*
X124923571Y-85998095D01*
X124961666Y-86074285D01*
X124999761Y-86226666D01*
X124999761Y-86417142D01*
X124961666Y-86569523D01*
X124923571Y-86645714D01*
X124885476Y-86683809D01*
X124809285Y-86721904D01*
X124733095Y-86721904D01*
X124656904Y-86683809D01*
X124618809Y-86645714D01*
X124580714Y-86569523D01*
X124542619Y-86417142D01*
X124542619Y-86226666D01*
X124580714Y-86074285D01*
X124618809Y-85998095D01*
X124656904Y-85960000D01*
X124733095Y-85921904D01*
X125495000Y-85921904D02*
X125571190Y-85921904D01*
X125647380Y-85960000D01*
X125685476Y-85998095D01*
X125723571Y-86074285D01*
X125761666Y-86226666D01*
X125761666Y-86417142D01*
X125723571Y-86569523D01*
X125685476Y-86645714D01*
X125647380Y-86683809D01*
X125571190Y-86721904D01*
X125495000Y-86721904D01*
X125418809Y-86683809D01*
X125380714Y-86645714D01*
X125342619Y-86569523D01*
X125304523Y-86417142D01*
X125304523Y-86226666D01*
X125342619Y-86074285D01*
X125380714Y-85998095D01*
X125418809Y-85960000D01*
X125495000Y-85921904D01*
X126104523Y-86721904D02*
X126104523Y-85921904D01*
X126180714Y-86417142D02*
X126409285Y-86721904D01*
X126409285Y-86188571D02*
X126104523Y-86493333D01*
X162921904Y-86493333D02*
X162540952Y-86760000D01*
X162921904Y-86950476D02*
X162121904Y-86950476D01*
X162121904Y-86645714D01*
X162160000Y-86569523D01*
X162198095Y-86531428D01*
X162274285Y-86493333D01*
X162388571Y-86493333D01*
X162464761Y-86531428D01*
X162502857Y-86569523D01*
X162540952Y-86645714D01*
X162540952Y-86950476D01*
X162198095Y-86188571D02*
X162160000Y-86150476D01*
X162121904Y-86074285D01*
X162121904Y-85883809D01*
X162160000Y-85807619D01*
X162198095Y-85769523D01*
X162274285Y-85731428D01*
X162350476Y-85731428D01*
X162464761Y-85769523D01*
X162921904Y-86226666D01*
X162921904Y-85731428D01*
X164877857Y-86721904D02*
X164420714Y-86721904D01*
X164649285Y-86721904D02*
X164649285Y-85921904D01*
X164573095Y-86036190D01*
X164496904Y-86112380D01*
X164420714Y-86150476D01*
X165373095Y-85921904D02*
X165449285Y-85921904D01*
X165525476Y-85960000D01*
X165563571Y-85998095D01*
X165601666Y-86074285D01*
X165639761Y-86226666D01*
X165639761Y-86417142D01*
X165601666Y-86569523D01*
X165563571Y-86645714D01*
X165525476Y-86683809D01*
X165449285Y-86721904D01*
X165373095Y-86721904D01*
X165296904Y-86683809D01*
X165258809Y-86645714D01*
X165220714Y-86569523D01*
X165182619Y-86417142D01*
X165182619Y-86226666D01*
X165220714Y-86074285D01*
X165258809Y-85998095D01*
X165296904Y-85960000D01*
X165373095Y-85921904D01*
X166135000Y-85921904D02*
X166211190Y-85921904D01*
X166287380Y-85960000D01*
X166325476Y-85998095D01*
X166363571Y-86074285D01*
X166401666Y-86226666D01*
X166401666Y-86417142D01*
X166363571Y-86569523D01*
X166325476Y-86645714D01*
X166287380Y-86683809D01*
X166211190Y-86721904D01*
X166135000Y-86721904D01*
X166058809Y-86683809D01*
X166020714Y-86645714D01*
X165982619Y-86569523D01*
X165944523Y-86417142D01*
X165944523Y-86226666D01*
X165982619Y-86074285D01*
X166020714Y-85998095D01*
X166058809Y-85960000D01*
X166135000Y-85921904D01*
X166744523Y-86721904D02*
X166744523Y-85921904D01*
X166820714Y-86417142D02*
X167049285Y-86721904D01*
X167049285Y-86188571D02*
X166744523Y-86493333D01*
X122281904Y-89668333D02*
X121900952Y-89935000D01*
X122281904Y-90125476D02*
X121481904Y-90125476D01*
X121481904Y-89820714D01*
X121520000Y-89744523D01*
X121558095Y-89706428D01*
X121634285Y-89668333D01*
X121748571Y-89668333D01*
X121824761Y-89706428D01*
X121862857Y-89744523D01*
X121900952Y-89820714D01*
X121900952Y-90125476D01*
X121481904Y-89401666D02*
X121481904Y-88906428D01*
X121786666Y-89173095D01*
X121786666Y-89058809D01*
X121824761Y-88982619D01*
X121862857Y-88944523D01*
X121939047Y-88906428D01*
X122129523Y-88906428D01*
X122205714Y-88944523D01*
X122243809Y-88982619D01*
X122281904Y-89058809D01*
X122281904Y-89287380D01*
X122243809Y-89363571D01*
X122205714Y-89401666D01*
X124237857Y-89896904D02*
X123780714Y-89896904D01*
X124009285Y-89896904D02*
X124009285Y-89096904D01*
X123933095Y-89211190D01*
X123856904Y-89287380D01*
X123780714Y-89325476D01*
X124733095Y-89096904D02*
X124809285Y-89096904D01*
X124885476Y-89135000D01*
X124923571Y-89173095D01*
X124961666Y-89249285D01*
X124999761Y-89401666D01*
X124999761Y-89592142D01*
X124961666Y-89744523D01*
X124923571Y-89820714D01*
X124885476Y-89858809D01*
X124809285Y-89896904D01*
X124733095Y-89896904D01*
X124656904Y-89858809D01*
X124618809Y-89820714D01*
X124580714Y-89744523D01*
X124542619Y-89592142D01*
X124542619Y-89401666D01*
X124580714Y-89249285D01*
X124618809Y-89173095D01*
X124656904Y-89135000D01*
X124733095Y-89096904D01*
X125495000Y-89096904D02*
X125571190Y-89096904D01*
X125647380Y-89135000D01*
X125685476Y-89173095D01*
X125723571Y-89249285D01*
X125761666Y-89401666D01*
X125761666Y-89592142D01*
X125723571Y-89744523D01*
X125685476Y-89820714D01*
X125647380Y-89858809D01*
X125571190Y-89896904D01*
X125495000Y-89896904D01*
X125418809Y-89858809D01*
X125380714Y-89820714D01*
X125342619Y-89744523D01*
X125304523Y-89592142D01*
X125304523Y-89401666D01*
X125342619Y-89249285D01*
X125380714Y-89173095D01*
X125418809Y-89135000D01*
X125495000Y-89096904D01*
X126104523Y-89896904D02*
X126104523Y-89096904D01*
X126180714Y-89592142D02*
X126409285Y-89896904D01*
X126409285Y-89363571D02*
X126104523Y-89668333D01*
X162921904Y-89668333D02*
X162540952Y-89935000D01*
X162921904Y-90125476D02*
X162121904Y-90125476D01*
X162121904Y-89820714D01*
X162160000Y-89744523D01*
X162198095Y-89706428D01*
X162274285Y-89668333D01*
X162388571Y-89668333D01*
X162464761Y-89706428D01*
X162502857Y-89744523D01*
X162540952Y-89820714D01*
X162540952Y-90125476D01*
X162388571Y-88982619D02*
X162921904Y-88982619D01*
X162083809Y-89173095D02*
X162655238Y-89363571D01*
X162655238Y-88868333D01*
X164877857Y-89896904D02*
X164420714Y-89896904D01*
X164649285Y-89896904D02*
X164649285Y-89096904D01*
X164573095Y-89211190D01*
X164496904Y-89287380D01*
X164420714Y-89325476D01*
X165373095Y-89096904D02*
X165449285Y-89096904D01*
X165525476Y-89135000D01*
X165563571Y-89173095D01*
X165601666Y-89249285D01*
X165639761Y-89401666D01*
X165639761Y-89592142D01*
X165601666Y-89744523D01*
X165563571Y-89820714D01*
X165525476Y-89858809D01*
X165449285Y-89896904D01*
X165373095Y-89896904D01*
X165296904Y-89858809D01*
X165258809Y-89820714D01*
X165220714Y-89744523D01*
X165182619Y-89592142D01*
X165182619Y-89401666D01*
X165220714Y-89249285D01*
X165258809Y-89173095D01*
X165296904Y-89135000D01*
X165373095Y-89096904D01*
X166135000Y-89096904D02*
X166211190Y-89096904D01*
X166287380Y-89135000D01*
X166325476Y-89173095D01*
X166363571Y-89249285D01*
X166401666Y-89401666D01*
X166401666Y-89592142D01*
X166363571Y-89744523D01*
X166325476Y-89820714D01*
X166287380Y-89858809D01*
X166211190Y-89896904D01*
X166135000Y-89896904D01*
X166058809Y-89858809D01*
X166020714Y-89820714D01*
X165982619Y-89744523D01*
X165944523Y-89592142D01*
X165944523Y-89401666D01*
X165982619Y-89249285D01*
X166020714Y-89173095D01*
X166058809Y-89135000D01*
X166135000Y-89096904D01*
X166744523Y-89896904D02*
X166744523Y-89096904D01*
X166820714Y-89592142D02*
X167049285Y-89896904D01*
X167049285Y-89363571D02*
X166744523Y-89668333D01*
X122281904Y-96018333D02*
X121900952Y-96285000D01*
X122281904Y-96475476D02*
X121481904Y-96475476D01*
X121481904Y-96170714D01*
X121520000Y-96094523D01*
X121558095Y-96056428D01*
X121634285Y-96018333D01*
X121748571Y-96018333D01*
X121824761Y-96056428D01*
X121862857Y-96094523D01*
X121900952Y-96170714D01*
X121900952Y-96475476D01*
X121481904Y-95294523D02*
X121481904Y-95675476D01*
X121862857Y-95713571D01*
X121824761Y-95675476D01*
X121786666Y-95599285D01*
X121786666Y-95408809D01*
X121824761Y-95332619D01*
X121862857Y-95294523D01*
X121939047Y-95256428D01*
X122129523Y-95256428D01*
X122205714Y-95294523D01*
X122243809Y-95332619D01*
X122281904Y-95408809D01*
X122281904Y-95599285D01*
X122243809Y-95675476D01*
X122205714Y-95713571D01*
X124542619Y-95713571D02*
X124542619Y-96246904D01*
X124352142Y-95408809D02*
X124161666Y-95980238D01*
X124656904Y-95980238D01*
X124885476Y-95446904D02*
X125418809Y-95446904D01*
X125075952Y-96246904D01*
X125723571Y-96246904D02*
X125723571Y-95446904D01*
X125799761Y-95942142D02*
X126028333Y-96246904D01*
X126028333Y-95713571D02*
X125723571Y-96018333D01*
X166731904Y-96018333D02*
X166350952Y-96285000D01*
X166731904Y-96475476D02*
X165931904Y-96475476D01*
X165931904Y-96170714D01*
X165970000Y-96094523D01*
X166008095Y-96056428D01*
X166084285Y-96018333D01*
X166198571Y-96018333D01*
X166274761Y-96056428D01*
X166312857Y-96094523D01*
X166350952Y-96170714D01*
X166350952Y-96475476D01*
X165931904Y-95332619D02*
X165931904Y-95485000D01*
X165970000Y-95561190D01*
X166008095Y-95599285D01*
X166122380Y-95675476D01*
X166274761Y-95713571D01*
X166579523Y-95713571D01*
X166655714Y-95675476D01*
X166693809Y-95637380D01*
X166731904Y-95561190D01*
X166731904Y-95408809D01*
X166693809Y-95332619D01*
X166655714Y-95294523D01*
X166579523Y-95256428D01*
X166389047Y-95256428D01*
X166312857Y-95294523D01*
X166274761Y-95332619D01*
X166236666Y-95408809D01*
X166236666Y-95561190D01*
X166274761Y-95637380D01*
X166312857Y-95675476D01*
X166389047Y-95713571D01*
X162642619Y-95713571D02*
X162642619Y-96246904D01*
X162452142Y-95408809D02*
X162261666Y-95980238D01*
X162756904Y-95980238D01*
X162985476Y-95446904D02*
X163518809Y-95446904D01*
X163175952Y-96246904D01*
X163823571Y-96246904D02*
X163823571Y-95446904D01*
X163899761Y-95942142D02*
X164128333Y-96246904D01*
X164128333Y-95713571D02*
X163823571Y-96018333D01*
X122281904Y-92843333D02*
X121900952Y-93110000D01*
X122281904Y-93300476D02*
X121481904Y-93300476D01*
X121481904Y-92995714D01*
X121520000Y-92919523D01*
X121558095Y-92881428D01*
X121634285Y-92843333D01*
X121748571Y-92843333D01*
X121824761Y-92881428D01*
X121862857Y-92919523D01*
X121900952Y-92995714D01*
X121900952Y-93300476D01*
X121481904Y-92576666D02*
X121481904Y-92043333D01*
X122281904Y-92386190D01*
X124237857Y-93071904D02*
X123780714Y-93071904D01*
X124009285Y-93071904D02*
X124009285Y-92271904D01*
X123933095Y-92386190D01*
X123856904Y-92462380D01*
X123780714Y-92500476D01*
X124733095Y-92271904D02*
X124809285Y-92271904D01*
X124885476Y-92310000D01*
X124923571Y-92348095D01*
X124961666Y-92424285D01*
X124999761Y-92576666D01*
X124999761Y-92767142D01*
X124961666Y-92919523D01*
X124923571Y-92995714D01*
X124885476Y-93033809D01*
X124809285Y-93071904D01*
X124733095Y-93071904D01*
X124656904Y-93033809D01*
X124618809Y-92995714D01*
X124580714Y-92919523D01*
X124542619Y-92767142D01*
X124542619Y-92576666D01*
X124580714Y-92424285D01*
X124618809Y-92348095D01*
X124656904Y-92310000D01*
X124733095Y-92271904D01*
X125495000Y-92271904D02*
X125571190Y-92271904D01*
X125647380Y-92310000D01*
X125685476Y-92348095D01*
X125723571Y-92424285D01*
X125761666Y-92576666D01*
X125761666Y-92767142D01*
X125723571Y-92919523D01*
X125685476Y-92995714D01*
X125647380Y-93033809D01*
X125571190Y-93071904D01*
X125495000Y-93071904D01*
X125418809Y-93033809D01*
X125380714Y-92995714D01*
X125342619Y-92919523D01*
X125304523Y-92767142D01*
X125304523Y-92576666D01*
X125342619Y-92424285D01*
X125380714Y-92348095D01*
X125418809Y-92310000D01*
X125495000Y-92271904D01*
X126104523Y-93071904D02*
X126104523Y-92271904D01*
X126180714Y-92767142D02*
X126409285Y-93071904D01*
X126409285Y-92538571D02*
X126104523Y-92843333D01*
X162921904Y-92843333D02*
X162540952Y-93110000D01*
X162921904Y-93300476D02*
X162121904Y-93300476D01*
X162121904Y-92995714D01*
X162160000Y-92919523D01*
X162198095Y-92881428D01*
X162274285Y-92843333D01*
X162388571Y-92843333D01*
X162464761Y-92881428D01*
X162502857Y-92919523D01*
X162540952Y-92995714D01*
X162540952Y-93300476D01*
X162464761Y-92386190D02*
X162426666Y-92462380D01*
X162388571Y-92500476D01*
X162312380Y-92538571D01*
X162274285Y-92538571D01*
X162198095Y-92500476D01*
X162160000Y-92462380D01*
X162121904Y-92386190D01*
X162121904Y-92233809D01*
X162160000Y-92157619D01*
X162198095Y-92119523D01*
X162274285Y-92081428D01*
X162312380Y-92081428D01*
X162388571Y-92119523D01*
X162426666Y-92157619D01*
X162464761Y-92233809D01*
X162464761Y-92386190D01*
X162502857Y-92462380D01*
X162540952Y-92500476D01*
X162617142Y-92538571D01*
X162769523Y-92538571D01*
X162845714Y-92500476D01*
X162883809Y-92462380D01*
X162921904Y-92386190D01*
X162921904Y-92233809D01*
X162883809Y-92157619D01*
X162845714Y-92119523D01*
X162769523Y-92081428D01*
X162617142Y-92081428D01*
X162540952Y-92119523D01*
X162502857Y-92157619D01*
X162464761Y-92233809D01*
X164877857Y-93071904D02*
X164420714Y-93071904D01*
X164649285Y-93071904D02*
X164649285Y-92271904D01*
X164573095Y-92386190D01*
X164496904Y-92462380D01*
X164420714Y-92500476D01*
X165373095Y-92271904D02*
X165449285Y-92271904D01*
X165525476Y-92310000D01*
X165563571Y-92348095D01*
X165601666Y-92424285D01*
X165639761Y-92576666D01*
X165639761Y-92767142D01*
X165601666Y-92919523D01*
X165563571Y-92995714D01*
X165525476Y-93033809D01*
X165449285Y-93071904D01*
X165373095Y-93071904D01*
X165296904Y-93033809D01*
X165258809Y-92995714D01*
X165220714Y-92919523D01*
X165182619Y-92767142D01*
X165182619Y-92576666D01*
X165220714Y-92424285D01*
X165258809Y-92348095D01*
X165296904Y-92310000D01*
X165373095Y-92271904D01*
X166135000Y-92271904D02*
X166211190Y-92271904D01*
X166287380Y-92310000D01*
X166325476Y-92348095D01*
X166363571Y-92424285D01*
X166401666Y-92576666D01*
X166401666Y-92767142D01*
X166363571Y-92919523D01*
X166325476Y-92995714D01*
X166287380Y-93033809D01*
X166211190Y-93071904D01*
X166135000Y-93071904D01*
X166058809Y-93033809D01*
X166020714Y-92995714D01*
X165982619Y-92919523D01*
X165944523Y-92767142D01*
X165944523Y-92576666D01*
X165982619Y-92424285D01*
X166020714Y-92348095D01*
X166058809Y-92310000D01*
X166135000Y-92271904D01*
X166744523Y-93071904D02*
X166744523Y-92271904D01*
X166820714Y-92767142D02*
X167049285Y-93071904D01*
X167049285Y-92538571D02*
X166744523Y-92843333D01*
M02*
