G04 #@! TF.GenerationSoftware,KiCad,Pcbnew,(5.1.8)-1*
G04 #@! TF.CreationDate,2024-03-17T02:40:50+01:00*
G04 #@! TF.ProjectId,Gameport,47616d65-706f-4727-942e-6b696361645f,rev?*
G04 #@! TF.SameCoordinates,Original*
G04 #@! TF.FileFunction,Copper,L2,Bot*
G04 #@! TF.FilePolarity,Positive*
%FSLAX46Y46*%
G04 Gerber Fmt 4.6, Leading zero omitted, Abs format (unit mm)*
G04 Created by KiCad (PCBNEW (5.1.8)-1) date 2024-03-17 02:40:50*
%MOMM*%
%LPD*%
G01*
G04 APERTURE LIST*
G04 #@! TA.AperFunction,ComponentPad*
%ADD10O,1.727200X1.727200*%
G04 #@! TD*
G04 #@! TA.AperFunction,ComponentPad*
%ADD11R,1.727200X1.727200*%
G04 #@! TD*
G04 #@! TA.AperFunction,ComponentPad*
%ADD12C,3.500000*%
G04 #@! TD*
G04 #@! TA.AperFunction,ComponentPad*
%ADD13R,1.700000X1.700000*%
G04 #@! TD*
G04 #@! TA.AperFunction,ComponentPad*
%ADD14O,1.700000X1.700000*%
G04 #@! TD*
G04 #@! TA.AperFunction,ComponentPad*
%ADD15C,1.700000*%
G04 #@! TD*
G04 #@! TA.AperFunction,ComponentPad*
%ADD16C,1.600000*%
G04 #@! TD*
G04 #@! TA.AperFunction,ComponentPad*
%ADD17O,1.600000X1.600000*%
G04 #@! TD*
G04 #@! TA.AperFunction,ComponentPad*
%ADD18R,2.400000X1.600000*%
G04 #@! TD*
G04 #@! TA.AperFunction,ComponentPad*
%ADD19O,2.400000X1.600000*%
G04 #@! TD*
G04 #@! TA.AperFunction,ViaPad*
%ADD20C,0.800000*%
G04 #@! TD*
G04 #@! TA.AperFunction,Conductor*
%ADD21C,0.381000*%
G04 #@! TD*
G04 #@! TA.AperFunction,Conductor*
%ADD22C,0.250000*%
G04 #@! TD*
G04 #@! TA.AperFunction,Conductor*
%ADD23C,0.254000*%
G04 #@! TD*
G04 #@! TA.AperFunction,Conductor*
%ADD24C,0.100000*%
G04 #@! TD*
G04 APERTURE END LIST*
D10*
X160655000Y-105410000D03*
X158115000Y-105410000D03*
X155575000Y-105410000D03*
X153035000Y-105410000D03*
X150495000Y-105410000D03*
X160655000Y-107950000D03*
X158115000Y-107950000D03*
X155575000Y-107950000D03*
X153035000Y-107950000D03*
D11*
X150495000Y-107950000D03*
X127635000Y-107950000D03*
D10*
X130175000Y-107950000D03*
X132715000Y-107950000D03*
X135255000Y-107950000D03*
X137795000Y-107950000D03*
X127635000Y-105410000D03*
X130175000Y-105410000D03*
X132715000Y-105410000D03*
X135255000Y-105410000D03*
X137795000Y-105410000D03*
D12*
X118745000Y-107950000D03*
X169545000Y-107950000D03*
X169545000Y-71755000D03*
X118745000Y-71740001D03*
D13*
X117475000Y-99695000D03*
D14*
X117475000Y-102235000D03*
G04 #@! TA.AperFunction,ComponentPad*
G36*
G01*
X135855000Y-75145000D02*
X134655000Y-75145000D01*
G75*
G02*
X134405000Y-74895000I0J250000D01*
G01*
X134405000Y-73695000D01*
G75*
G02*
X134655000Y-73445000I250000J0D01*
G01*
X135855000Y-73445000D01*
G75*
G02*
X136105000Y-73695000I0J-250000D01*
G01*
X136105000Y-74895000D01*
G75*
G02*
X135855000Y-75145000I-250000J0D01*
G01*
G37*
G04 #@! TD.AperFunction*
D15*
X137795000Y-74295000D03*
X140335000Y-74295000D03*
X142875000Y-74295000D03*
X145415000Y-74295000D03*
X147955000Y-74295000D03*
X150495000Y-74295000D03*
X153035000Y-74295000D03*
X135255000Y-71755000D03*
X137795000Y-71755000D03*
X140335000Y-71755000D03*
X142875000Y-71755000D03*
X145415000Y-71755000D03*
X147955000Y-71755000D03*
X150495000Y-71755000D03*
X153035000Y-71755000D03*
D16*
X127635000Y-76835000D03*
X122635000Y-76835000D03*
D17*
X142240000Y-83820000D03*
D16*
X132080000Y-83820000D03*
X149225000Y-97790000D03*
D17*
X149225000Y-87630000D03*
D16*
X142240000Y-80645000D03*
D17*
X132080000Y-80645000D03*
X132080000Y-90805000D03*
D16*
X142240000Y-90805000D03*
D17*
X145415000Y-95885000D03*
D16*
X145415000Y-85725000D03*
X132080000Y-94615000D03*
D17*
X142240000Y-94615000D03*
X142240000Y-87630000D03*
D16*
X132080000Y-87630000D03*
X142240000Y-97790000D03*
D17*
X132080000Y-97790000D03*
D18*
X121285000Y-80645000D03*
D19*
X128905000Y-95885000D03*
X121285000Y-83185000D03*
X128905000Y-93345000D03*
X121285000Y-85725000D03*
X128905000Y-90805000D03*
X121285000Y-88265000D03*
X128905000Y-88265000D03*
X121285000Y-90805000D03*
X128905000Y-85725000D03*
X121285000Y-93345000D03*
X128905000Y-83185000D03*
X121285000Y-95885000D03*
X128905000Y-80645000D03*
D20*
X154395010Y-97790000D03*
X151765000Y-102235008D03*
D21*
X132080000Y-80645000D02*
X128905000Y-80645000D01*
X117475000Y-99695000D02*
X134620000Y-99695000D01*
X134620000Y-99695000D02*
X135255000Y-99060000D01*
X142240000Y-94615000D02*
X135255000Y-94615000D01*
X135255000Y-99060000D02*
X135255000Y-94615000D01*
X142240000Y-83820000D02*
X142240000Y-86995000D01*
X135255000Y-87630000D02*
X142240000Y-87630000D01*
X135255000Y-94615000D02*
X135255000Y-87630000D01*
X142240000Y-87630000D02*
X142240000Y-86995000D01*
X142240000Y-87630000D02*
X149225000Y-87630000D01*
X144145000Y-94615000D02*
X145415000Y-95885000D01*
X142240000Y-94615000D02*
X144145000Y-94615000D01*
X134620000Y-80645000D02*
X132080000Y-80645000D01*
X135255000Y-81280000D02*
X134620000Y-80645000D01*
X135255000Y-87630000D02*
X135255000Y-81280000D01*
X128905000Y-79375000D02*
X127635000Y-78105000D01*
X128905000Y-80645000D02*
X128905000Y-79375000D01*
X127635000Y-76835000D02*
X127635000Y-78105000D01*
D22*
X149225000Y-97790000D02*
X154395010Y-97790000D01*
X154305000Y-106680000D02*
X155575000Y-107950000D01*
X152400000Y-106680000D02*
X154305000Y-106680000D01*
X151765000Y-106045000D02*
X152400000Y-106680000D01*
X151765000Y-102235008D02*
X151765000Y-106045000D01*
X121285000Y-83185000D02*
X121285000Y-85725000D01*
X128905000Y-93345000D02*
X128905000Y-90805000D01*
D23*
X170156222Y-68668096D02*
X170744164Y-68845606D01*
X171286436Y-69133937D01*
X171762364Y-69522094D01*
X172153845Y-69995314D01*
X172445951Y-70535552D01*
X172627563Y-71122244D01*
X172695001Y-71763888D01*
X172695000Y-107917721D01*
X172631904Y-108561221D01*
X172454394Y-109149164D01*
X172166063Y-109691436D01*
X171777906Y-110167364D01*
X171304686Y-110558845D01*
X170764449Y-110850950D01*
X170177756Y-111032563D01*
X169536130Y-111100000D01*
X118777279Y-111100000D01*
X118133779Y-111036904D01*
X117545836Y-110859394D01*
X117003564Y-110571063D01*
X116527636Y-110182906D01*
X116136155Y-109709686D01*
X115844050Y-109169449D01*
X115662437Y-108582756D01*
X115595000Y-107941130D01*
X115595000Y-107715098D01*
X116360000Y-107715098D01*
X116360000Y-108184902D01*
X116451654Y-108645679D01*
X116631440Y-109079721D01*
X116892450Y-109470349D01*
X117224651Y-109802550D01*
X117615279Y-110063560D01*
X118049321Y-110243346D01*
X118510098Y-110335000D01*
X118979902Y-110335000D01*
X119440679Y-110243346D01*
X119874721Y-110063560D01*
X120265349Y-109802550D01*
X120597550Y-109470349D01*
X120858560Y-109079721D01*
X121038346Y-108645679D01*
X121130000Y-108184902D01*
X121130000Y-107715098D01*
X121038346Y-107254321D01*
X120968791Y-107086400D01*
X126133328Y-107086400D01*
X126133328Y-108813600D01*
X126145588Y-108938082D01*
X126181898Y-109057780D01*
X126240863Y-109168094D01*
X126320215Y-109264785D01*
X126416906Y-109344137D01*
X126527220Y-109403102D01*
X126646918Y-109439412D01*
X126771400Y-109451672D01*
X128498600Y-109451672D01*
X128623082Y-109439412D01*
X128742780Y-109403102D01*
X128853094Y-109344137D01*
X128949785Y-109264785D01*
X129029137Y-109168094D01*
X129088102Y-109057780D01*
X129105636Y-108999977D01*
X129219698Y-109114039D01*
X129465147Y-109278042D01*
X129737875Y-109391010D01*
X130027401Y-109448600D01*
X130322599Y-109448600D01*
X130612125Y-109391010D01*
X130884853Y-109278042D01*
X131130302Y-109114039D01*
X131339039Y-108905302D01*
X131445000Y-108746719D01*
X131550961Y-108905302D01*
X131759698Y-109114039D01*
X132005147Y-109278042D01*
X132277875Y-109391010D01*
X132567401Y-109448600D01*
X132862599Y-109448600D01*
X133152125Y-109391010D01*
X133424853Y-109278042D01*
X133670302Y-109114039D01*
X133879039Y-108905302D01*
X133985000Y-108746719D01*
X134090961Y-108905302D01*
X134299698Y-109114039D01*
X134545147Y-109278042D01*
X134817875Y-109391010D01*
X135107401Y-109448600D01*
X135402599Y-109448600D01*
X135692125Y-109391010D01*
X135964853Y-109278042D01*
X136210302Y-109114039D01*
X136419039Y-108905302D01*
X136525000Y-108746719D01*
X136630961Y-108905302D01*
X136839698Y-109114039D01*
X137085147Y-109278042D01*
X137357875Y-109391010D01*
X137647401Y-109448600D01*
X137942599Y-109448600D01*
X138232125Y-109391010D01*
X138504853Y-109278042D01*
X138750302Y-109114039D01*
X138959039Y-108905302D01*
X139123042Y-108659853D01*
X139236010Y-108387125D01*
X139293600Y-108097599D01*
X139293600Y-107802401D01*
X139236010Y-107512875D01*
X139123042Y-107240147D01*
X139020313Y-107086400D01*
X148993328Y-107086400D01*
X148993328Y-108813600D01*
X149005588Y-108938082D01*
X149041898Y-109057780D01*
X149100863Y-109168094D01*
X149180215Y-109264785D01*
X149276906Y-109344137D01*
X149387220Y-109403102D01*
X149506918Y-109439412D01*
X149631400Y-109451672D01*
X151358600Y-109451672D01*
X151483082Y-109439412D01*
X151602780Y-109403102D01*
X151713094Y-109344137D01*
X151809785Y-109264785D01*
X151889137Y-109168094D01*
X151948102Y-109057780D01*
X151965636Y-108999977D01*
X152079698Y-109114039D01*
X152325147Y-109278042D01*
X152597875Y-109391010D01*
X152887401Y-109448600D01*
X153182599Y-109448600D01*
X153472125Y-109391010D01*
X153744853Y-109278042D01*
X153990302Y-109114039D01*
X154199039Y-108905302D01*
X154305000Y-108746719D01*
X154410961Y-108905302D01*
X154619698Y-109114039D01*
X154865147Y-109278042D01*
X155137875Y-109391010D01*
X155427401Y-109448600D01*
X155722599Y-109448600D01*
X156012125Y-109391010D01*
X156284853Y-109278042D01*
X156530302Y-109114039D01*
X156739039Y-108905302D01*
X156845000Y-108746719D01*
X156950961Y-108905302D01*
X157159698Y-109114039D01*
X157405147Y-109278042D01*
X157677875Y-109391010D01*
X157967401Y-109448600D01*
X158262599Y-109448600D01*
X158552125Y-109391010D01*
X158824853Y-109278042D01*
X159070302Y-109114039D01*
X159279039Y-108905302D01*
X159385000Y-108746719D01*
X159490961Y-108905302D01*
X159699698Y-109114039D01*
X159945147Y-109278042D01*
X160217875Y-109391010D01*
X160507401Y-109448600D01*
X160802599Y-109448600D01*
X161092125Y-109391010D01*
X161364853Y-109278042D01*
X161610302Y-109114039D01*
X161819039Y-108905302D01*
X161983042Y-108659853D01*
X162096010Y-108387125D01*
X162153600Y-108097599D01*
X162153600Y-107802401D01*
X162136235Y-107715098D01*
X167160000Y-107715098D01*
X167160000Y-108184902D01*
X167251654Y-108645679D01*
X167431440Y-109079721D01*
X167692450Y-109470349D01*
X168024651Y-109802550D01*
X168415279Y-110063560D01*
X168849321Y-110243346D01*
X169310098Y-110335000D01*
X169779902Y-110335000D01*
X170240679Y-110243346D01*
X170674721Y-110063560D01*
X171065349Y-109802550D01*
X171397550Y-109470349D01*
X171658560Y-109079721D01*
X171838346Y-108645679D01*
X171930000Y-108184902D01*
X171930000Y-107715098D01*
X171838346Y-107254321D01*
X171658560Y-106820279D01*
X171397550Y-106429651D01*
X171065349Y-106097450D01*
X170674721Y-105836440D01*
X170240679Y-105656654D01*
X169779902Y-105565000D01*
X169310098Y-105565000D01*
X168849321Y-105656654D01*
X168415279Y-105836440D01*
X168024651Y-106097450D01*
X167692450Y-106429651D01*
X167431440Y-106820279D01*
X167251654Y-107254321D01*
X167160000Y-107715098D01*
X162136235Y-107715098D01*
X162096010Y-107512875D01*
X161983042Y-107240147D01*
X161819039Y-106994698D01*
X161610302Y-106785961D01*
X161451719Y-106680000D01*
X161610302Y-106574039D01*
X161819039Y-106365302D01*
X161983042Y-106119853D01*
X162096010Y-105847125D01*
X162153600Y-105557599D01*
X162153600Y-105262401D01*
X162096010Y-104972875D01*
X161983042Y-104700147D01*
X161819039Y-104454698D01*
X161610302Y-104245961D01*
X161364853Y-104081958D01*
X161092125Y-103968990D01*
X160802599Y-103911400D01*
X160507401Y-103911400D01*
X160217875Y-103968990D01*
X159945147Y-104081958D01*
X159699698Y-104245961D01*
X159490961Y-104454698D01*
X159385000Y-104613281D01*
X159279039Y-104454698D01*
X159070302Y-104245961D01*
X158824853Y-104081958D01*
X158552125Y-103968990D01*
X158262599Y-103911400D01*
X157967401Y-103911400D01*
X157677875Y-103968990D01*
X157405147Y-104081958D01*
X157159698Y-104245961D01*
X156950961Y-104454698D01*
X156840441Y-104620103D01*
X156781817Y-104521512D01*
X156585293Y-104303146D01*
X156349944Y-104127316D01*
X156084814Y-104000778D01*
X155934026Y-103955042D01*
X155702000Y-104076183D01*
X155702000Y-105283000D01*
X155722000Y-105283000D01*
X155722000Y-105537000D01*
X155702000Y-105537000D01*
X155702000Y-105557000D01*
X155448000Y-105557000D01*
X155448000Y-105537000D01*
X155428000Y-105537000D01*
X155428000Y-105283000D01*
X155448000Y-105283000D01*
X155448000Y-104076183D01*
X155215974Y-103955042D01*
X155065186Y-104000778D01*
X154800056Y-104127316D01*
X154564707Y-104303146D01*
X154368183Y-104521512D01*
X154309559Y-104620103D01*
X154199039Y-104454698D01*
X153990302Y-104245961D01*
X153744853Y-104081958D01*
X153472125Y-103968990D01*
X153182599Y-103911400D01*
X152887401Y-103911400D01*
X152597875Y-103968990D01*
X152525000Y-103999176D01*
X152525000Y-102938719D01*
X152568937Y-102894782D01*
X152682205Y-102725264D01*
X152760226Y-102536906D01*
X152800000Y-102336947D01*
X152800000Y-102133069D01*
X152760226Y-101933110D01*
X152682205Y-101744752D01*
X152568937Y-101575234D01*
X152424774Y-101431071D01*
X152255256Y-101317803D01*
X152066898Y-101239782D01*
X151866939Y-101200008D01*
X151663061Y-101200008D01*
X151463102Y-101239782D01*
X151274744Y-101317803D01*
X151105226Y-101431071D01*
X150961063Y-101575234D01*
X150847795Y-101744752D01*
X150769774Y-101933110D01*
X150730000Y-102133069D01*
X150730000Y-102336947D01*
X150769774Y-102536906D01*
X150847795Y-102725264D01*
X150961063Y-102894782D01*
X151005000Y-102938719D01*
X151005000Y-103999176D01*
X150932125Y-103968990D01*
X150642599Y-103911400D01*
X150347401Y-103911400D01*
X150057875Y-103968990D01*
X149785147Y-104081958D01*
X149539698Y-104245961D01*
X149330961Y-104454698D01*
X149166958Y-104700147D01*
X149053990Y-104972875D01*
X148996400Y-105262401D01*
X148996400Y-105557599D01*
X149053990Y-105847125D01*
X149166958Y-106119853D01*
X149330961Y-106365302D01*
X149445023Y-106479364D01*
X149387220Y-106496898D01*
X149276906Y-106555863D01*
X149180215Y-106635215D01*
X149100863Y-106731906D01*
X149041898Y-106842220D01*
X149005588Y-106961918D01*
X148993328Y-107086400D01*
X139020313Y-107086400D01*
X138959039Y-106994698D01*
X138750302Y-106785961D01*
X138591719Y-106680000D01*
X138750302Y-106574039D01*
X138959039Y-106365302D01*
X139123042Y-106119853D01*
X139236010Y-105847125D01*
X139293600Y-105557599D01*
X139293600Y-105262401D01*
X139236010Y-104972875D01*
X139123042Y-104700147D01*
X138959039Y-104454698D01*
X138750302Y-104245961D01*
X138504853Y-104081958D01*
X138232125Y-103968990D01*
X137942599Y-103911400D01*
X137647401Y-103911400D01*
X137357875Y-103968990D01*
X137085147Y-104081958D01*
X136839698Y-104245961D01*
X136630961Y-104454698D01*
X136525000Y-104613281D01*
X136419039Y-104454698D01*
X136210302Y-104245961D01*
X135964853Y-104081958D01*
X135692125Y-103968990D01*
X135402599Y-103911400D01*
X135107401Y-103911400D01*
X134817875Y-103968990D01*
X134545147Y-104081958D01*
X134299698Y-104245961D01*
X134090961Y-104454698D01*
X133980441Y-104620103D01*
X133921817Y-104521512D01*
X133725293Y-104303146D01*
X133489944Y-104127316D01*
X133224814Y-104000778D01*
X133074026Y-103955042D01*
X132842000Y-104076183D01*
X132842000Y-105283000D01*
X132862000Y-105283000D01*
X132862000Y-105537000D01*
X132842000Y-105537000D01*
X132842000Y-105557000D01*
X132588000Y-105557000D01*
X132588000Y-105537000D01*
X132568000Y-105537000D01*
X132568000Y-105283000D01*
X132588000Y-105283000D01*
X132588000Y-104076183D01*
X132355974Y-103955042D01*
X132205186Y-104000778D01*
X131940056Y-104127316D01*
X131704707Y-104303146D01*
X131508183Y-104521512D01*
X131449559Y-104620103D01*
X131339039Y-104454698D01*
X131130302Y-104245961D01*
X130884853Y-104081958D01*
X130612125Y-103968990D01*
X130322599Y-103911400D01*
X130027401Y-103911400D01*
X129737875Y-103968990D01*
X129465147Y-104081958D01*
X129219698Y-104245961D01*
X129010961Y-104454698D01*
X128905000Y-104613281D01*
X128799039Y-104454698D01*
X128590302Y-104245961D01*
X128344853Y-104081958D01*
X128072125Y-103968990D01*
X127782599Y-103911400D01*
X127487401Y-103911400D01*
X127197875Y-103968990D01*
X126925147Y-104081958D01*
X126679698Y-104245961D01*
X126470961Y-104454698D01*
X126306958Y-104700147D01*
X126193990Y-104972875D01*
X126136400Y-105262401D01*
X126136400Y-105557599D01*
X126193990Y-105847125D01*
X126306958Y-106119853D01*
X126470961Y-106365302D01*
X126585023Y-106479364D01*
X126527220Y-106496898D01*
X126416906Y-106555863D01*
X126320215Y-106635215D01*
X126240863Y-106731906D01*
X126181898Y-106842220D01*
X126145588Y-106961918D01*
X126133328Y-107086400D01*
X120968791Y-107086400D01*
X120858560Y-106820279D01*
X120597550Y-106429651D01*
X120265349Y-106097450D01*
X119874721Y-105836440D01*
X119440679Y-105656654D01*
X118979902Y-105565000D01*
X118510098Y-105565000D01*
X118049321Y-105656654D01*
X117615279Y-105836440D01*
X117224651Y-106097450D01*
X116892450Y-106429651D01*
X116631440Y-106820279D01*
X116451654Y-107254321D01*
X116360000Y-107715098D01*
X115595000Y-107715098D01*
X115595000Y-98845000D01*
X115986928Y-98845000D01*
X115986928Y-100545000D01*
X115999188Y-100669482D01*
X116035498Y-100789180D01*
X116094463Y-100899494D01*
X116173815Y-100996185D01*
X116270506Y-101075537D01*
X116380820Y-101134502D01*
X116453380Y-101156513D01*
X116321525Y-101288368D01*
X116159010Y-101531589D01*
X116047068Y-101801842D01*
X115990000Y-102088740D01*
X115990000Y-102381260D01*
X116047068Y-102668158D01*
X116159010Y-102938411D01*
X116321525Y-103181632D01*
X116528368Y-103388475D01*
X116771589Y-103550990D01*
X117041842Y-103662932D01*
X117328740Y-103720000D01*
X117621260Y-103720000D01*
X117908158Y-103662932D01*
X118178411Y-103550990D01*
X118421632Y-103388475D01*
X118628475Y-103181632D01*
X118790990Y-102938411D01*
X118902932Y-102668158D01*
X118960000Y-102381260D01*
X118960000Y-102088740D01*
X118902932Y-101801842D01*
X118790990Y-101531589D01*
X118628475Y-101288368D01*
X118496620Y-101156513D01*
X118569180Y-101134502D01*
X118679494Y-101075537D01*
X118776185Y-100996185D01*
X118855537Y-100899494D01*
X118914502Y-100789180D01*
X118950812Y-100669482D01*
X118963072Y-100545000D01*
X118963072Y-100520500D01*
X134579450Y-100520500D01*
X134620000Y-100524494D01*
X134660550Y-100520500D01*
X134660553Y-100520500D01*
X134781826Y-100508556D01*
X134937434Y-100461353D01*
X135080842Y-100384699D01*
X135206541Y-100281541D01*
X135232397Y-100250035D01*
X135810045Y-99672388D01*
X135841541Y-99646541D01*
X135867389Y-99615045D01*
X135867392Y-99615042D01*
X135944699Y-99520843D01*
X136021353Y-99377434D01*
X136064815Y-99234158D01*
X136068556Y-99221826D01*
X136080500Y-99100553D01*
X136080500Y-99100551D01*
X136084494Y-99060000D01*
X136080500Y-99019450D01*
X136080500Y-98782702D01*
X141426903Y-98782702D01*
X141498486Y-99026671D01*
X141753996Y-99147571D01*
X142028184Y-99216300D01*
X142310512Y-99230217D01*
X142590130Y-99188787D01*
X142856292Y-99093603D01*
X142981514Y-99026671D01*
X143053097Y-98782702D01*
X142240000Y-97969605D01*
X141426903Y-98782702D01*
X136080500Y-98782702D01*
X136080500Y-97860512D01*
X140799783Y-97860512D01*
X140841213Y-98140130D01*
X140936397Y-98406292D01*
X141003329Y-98531514D01*
X141247298Y-98603097D01*
X142060395Y-97790000D01*
X142419605Y-97790000D01*
X143232702Y-98603097D01*
X143476671Y-98531514D01*
X143597571Y-98276004D01*
X143666300Y-98001816D01*
X143680217Y-97719488D01*
X143669724Y-97648665D01*
X147790000Y-97648665D01*
X147790000Y-97931335D01*
X147845147Y-98208574D01*
X147953320Y-98469727D01*
X148110363Y-98704759D01*
X148310241Y-98904637D01*
X148545273Y-99061680D01*
X148806426Y-99169853D01*
X149083665Y-99225000D01*
X149366335Y-99225000D01*
X149643574Y-99169853D01*
X149904727Y-99061680D01*
X150139759Y-98904637D01*
X150339637Y-98704759D01*
X150443043Y-98550000D01*
X153691299Y-98550000D01*
X153735236Y-98593937D01*
X153904754Y-98707205D01*
X154093112Y-98785226D01*
X154293071Y-98825000D01*
X154496949Y-98825000D01*
X154696908Y-98785226D01*
X154885266Y-98707205D01*
X155054784Y-98593937D01*
X155198947Y-98449774D01*
X155312215Y-98280256D01*
X155390236Y-98091898D01*
X155430010Y-97891939D01*
X155430010Y-97688061D01*
X155390236Y-97488102D01*
X155312215Y-97299744D01*
X155198947Y-97130226D01*
X155054784Y-96986063D01*
X154885266Y-96872795D01*
X154696908Y-96794774D01*
X154496949Y-96755000D01*
X154293071Y-96755000D01*
X154093112Y-96794774D01*
X153904754Y-96872795D01*
X153735236Y-96986063D01*
X153691299Y-97030000D01*
X150443043Y-97030000D01*
X150339637Y-96875241D01*
X150139759Y-96675363D01*
X149904727Y-96518320D01*
X149643574Y-96410147D01*
X149366335Y-96355000D01*
X149083665Y-96355000D01*
X148806426Y-96410147D01*
X148545273Y-96518320D01*
X148310241Y-96675363D01*
X148110363Y-96875241D01*
X147953320Y-97110273D01*
X147845147Y-97371426D01*
X147790000Y-97648665D01*
X143669724Y-97648665D01*
X143638787Y-97439870D01*
X143543603Y-97173708D01*
X143476671Y-97048486D01*
X143232702Y-96976903D01*
X142419605Y-97790000D01*
X142060395Y-97790000D01*
X141247298Y-96976903D01*
X141003329Y-97048486D01*
X140882429Y-97303996D01*
X140813700Y-97578184D01*
X140799783Y-97860512D01*
X136080500Y-97860512D01*
X136080500Y-96797298D01*
X141426903Y-96797298D01*
X142240000Y-97610395D01*
X143053097Y-96797298D01*
X142981514Y-96553329D01*
X142726004Y-96432429D01*
X142451816Y-96363700D01*
X142169488Y-96349783D01*
X141889870Y-96391213D01*
X141623708Y-96486397D01*
X141498486Y-96553329D01*
X141426903Y-96797298D01*
X136080500Y-96797298D01*
X136080500Y-95440500D01*
X141065722Y-95440500D01*
X141125363Y-95529759D01*
X141325241Y-95729637D01*
X141560273Y-95886680D01*
X141821426Y-95994853D01*
X142098665Y-96050000D01*
X142381335Y-96050000D01*
X142658574Y-95994853D01*
X142919727Y-95886680D01*
X143154759Y-95729637D01*
X143354637Y-95529759D01*
X143414278Y-95440500D01*
X143803068Y-95440500D01*
X144000944Y-95638376D01*
X143980000Y-95743665D01*
X143980000Y-96026335D01*
X144035147Y-96303574D01*
X144143320Y-96564727D01*
X144300363Y-96799759D01*
X144500241Y-96999637D01*
X144735273Y-97156680D01*
X144996426Y-97264853D01*
X145273665Y-97320000D01*
X145556335Y-97320000D01*
X145833574Y-97264853D01*
X146094727Y-97156680D01*
X146329759Y-96999637D01*
X146529637Y-96799759D01*
X146686680Y-96564727D01*
X146794853Y-96303574D01*
X146850000Y-96026335D01*
X146850000Y-95743665D01*
X146794853Y-95466426D01*
X146686680Y-95205273D01*
X146529637Y-94970241D01*
X146329759Y-94770363D01*
X146094727Y-94613320D01*
X145833574Y-94505147D01*
X145556335Y-94450000D01*
X145273665Y-94450000D01*
X145168376Y-94470944D01*
X144757398Y-94059966D01*
X144731541Y-94028459D01*
X144605842Y-93925301D01*
X144462434Y-93848647D01*
X144306826Y-93801444D01*
X144185553Y-93789500D01*
X144185550Y-93789500D01*
X144145000Y-93785506D01*
X144104450Y-93789500D01*
X143414278Y-93789500D01*
X143354637Y-93700241D01*
X143154759Y-93500363D01*
X142919727Y-93343320D01*
X142658574Y-93235147D01*
X142381335Y-93180000D01*
X142098665Y-93180000D01*
X141821426Y-93235147D01*
X141560273Y-93343320D01*
X141325241Y-93500363D01*
X141125363Y-93700241D01*
X141065722Y-93789500D01*
X136080500Y-93789500D01*
X136080500Y-91797702D01*
X141426903Y-91797702D01*
X141498486Y-92041671D01*
X141753996Y-92162571D01*
X142028184Y-92231300D01*
X142310512Y-92245217D01*
X142590130Y-92203787D01*
X142856292Y-92108603D01*
X142981514Y-92041671D01*
X143053097Y-91797702D01*
X142240000Y-90984605D01*
X141426903Y-91797702D01*
X136080500Y-91797702D01*
X136080500Y-90875512D01*
X140799783Y-90875512D01*
X140841213Y-91155130D01*
X140936397Y-91421292D01*
X141003329Y-91546514D01*
X141247298Y-91618097D01*
X142060395Y-90805000D01*
X142419605Y-90805000D01*
X143232702Y-91618097D01*
X143476671Y-91546514D01*
X143597571Y-91291004D01*
X143666300Y-91016816D01*
X143680217Y-90734488D01*
X143638787Y-90454870D01*
X143543603Y-90188708D01*
X143476671Y-90063486D01*
X143232702Y-89991903D01*
X142419605Y-90805000D01*
X142060395Y-90805000D01*
X141247298Y-89991903D01*
X141003329Y-90063486D01*
X140882429Y-90318996D01*
X140813700Y-90593184D01*
X140799783Y-90875512D01*
X136080500Y-90875512D01*
X136080500Y-89812298D01*
X141426903Y-89812298D01*
X142240000Y-90625395D01*
X143053097Y-89812298D01*
X142981514Y-89568329D01*
X142726004Y-89447429D01*
X142451816Y-89378700D01*
X142169488Y-89364783D01*
X141889870Y-89406213D01*
X141623708Y-89501397D01*
X141498486Y-89568329D01*
X141426903Y-89812298D01*
X136080500Y-89812298D01*
X136080500Y-88455500D01*
X141065722Y-88455500D01*
X141125363Y-88544759D01*
X141325241Y-88744637D01*
X141560273Y-88901680D01*
X141821426Y-89009853D01*
X142098665Y-89065000D01*
X142381335Y-89065000D01*
X142658574Y-89009853D01*
X142919727Y-88901680D01*
X143154759Y-88744637D01*
X143354637Y-88544759D01*
X143414278Y-88455500D01*
X148050722Y-88455500D01*
X148110363Y-88544759D01*
X148310241Y-88744637D01*
X148545273Y-88901680D01*
X148806426Y-89009853D01*
X149083665Y-89065000D01*
X149366335Y-89065000D01*
X149643574Y-89009853D01*
X149904727Y-88901680D01*
X150139759Y-88744637D01*
X150339637Y-88544759D01*
X150496680Y-88309727D01*
X150604853Y-88048574D01*
X150660000Y-87771335D01*
X150660000Y-87488665D01*
X150604853Y-87211426D01*
X150496680Y-86950273D01*
X150339637Y-86715241D01*
X150139759Y-86515363D01*
X149904727Y-86358320D01*
X149643574Y-86250147D01*
X149366335Y-86195000D01*
X149083665Y-86195000D01*
X148806426Y-86250147D01*
X148545273Y-86358320D01*
X148310241Y-86515363D01*
X148110363Y-86715241D01*
X148050722Y-86804500D01*
X146364896Y-86804500D01*
X146529637Y-86639759D01*
X146686680Y-86404727D01*
X146794853Y-86143574D01*
X146850000Y-85866335D01*
X146850000Y-85583665D01*
X146794853Y-85306426D01*
X146686680Y-85045273D01*
X146529637Y-84810241D01*
X146329759Y-84610363D01*
X146094727Y-84453320D01*
X145833574Y-84345147D01*
X145556335Y-84290000D01*
X145273665Y-84290000D01*
X144996426Y-84345147D01*
X144735273Y-84453320D01*
X144500241Y-84610363D01*
X144300363Y-84810241D01*
X144143320Y-85045273D01*
X144035147Y-85306426D01*
X143980000Y-85583665D01*
X143980000Y-85866335D01*
X144035147Y-86143574D01*
X144143320Y-86404727D01*
X144300363Y-86639759D01*
X144465104Y-86804500D01*
X143414278Y-86804500D01*
X143354637Y-86715241D01*
X143154759Y-86515363D01*
X143065500Y-86455722D01*
X143065500Y-84994278D01*
X143154759Y-84934637D01*
X143354637Y-84734759D01*
X143511680Y-84499727D01*
X143619853Y-84238574D01*
X143675000Y-83961335D01*
X143675000Y-83678665D01*
X143619853Y-83401426D01*
X143511680Y-83140273D01*
X143354637Y-82905241D01*
X143154759Y-82705363D01*
X142919727Y-82548320D01*
X142658574Y-82440147D01*
X142381335Y-82385000D01*
X142098665Y-82385000D01*
X141821426Y-82440147D01*
X141560273Y-82548320D01*
X141325241Y-82705363D01*
X141125363Y-82905241D01*
X140968320Y-83140273D01*
X140860147Y-83401426D01*
X140805000Y-83678665D01*
X140805000Y-83961335D01*
X140860147Y-84238574D01*
X140968320Y-84499727D01*
X141125363Y-84734759D01*
X141325241Y-84934637D01*
X141414500Y-84994278D01*
X141414501Y-86455722D01*
X141325241Y-86515363D01*
X141125363Y-86715241D01*
X141065722Y-86804500D01*
X136080500Y-86804500D01*
X136080500Y-81320550D01*
X136084494Y-81280000D01*
X136076619Y-81200041D01*
X136068556Y-81118174D01*
X136021353Y-80962566D01*
X136001973Y-80926309D01*
X135944699Y-80819157D01*
X135867392Y-80724958D01*
X135867389Y-80724955D01*
X135841541Y-80693459D01*
X135810044Y-80667610D01*
X135646099Y-80503665D01*
X140805000Y-80503665D01*
X140805000Y-80786335D01*
X140860147Y-81063574D01*
X140968320Y-81324727D01*
X141125363Y-81559759D01*
X141325241Y-81759637D01*
X141560273Y-81916680D01*
X141821426Y-82024853D01*
X142098665Y-82080000D01*
X142381335Y-82080000D01*
X142658574Y-82024853D01*
X142919727Y-81916680D01*
X143154759Y-81759637D01*
X143354637Y-81559759D01*
X143511680Y-81324727D01*
X143619853Y-81063574D01*
X143675000Y-80786335D01*
X143675000Y-80503665D01*
X143619853Y-80226426D01*
X143511680Y-79965273D01*
X143354637Y-79730241D01*
X143154759Y-79530363D01*
X142919727Y-79373320D01*
X142658574Y-79265147D01*
X142381335Y-79210000D01*
X142098665Y-79210000D01*
X141821426Y-79265147D01*
X141560273Y-79373320D01*
X141325241Y-79530363D01*
X141125363Y-79730241D01*
X140968320Y-79965273D01*
X140860147Y-80226426D01*
X140805000Y-80503665D01*
X135646099Y-80503665D01*
X135232397Y-80089965D01*
X135206541Y-80058459D01*
X135080842Y-79955301D01*
X134937434Y-79878647D01*
X134781826Y-79831444D01*
X134660553Y-79819500D01*
X134660550Y-79819500D01*
X134620000Y-79815506D01*
X134579450Y-79819500D01*
X133254278Y-79819500D01*
X133194637Y-79730241D01*
X132994759Y-79530363D01*
X132759727Y-79373320D01*
X132498574Y-79265147D01*
X132221335Y-79210000D01*
X131938665Y-79210000D01*
X131661426Y-79265147D01*
X131400273Y-79373320D01*
X131165241Y-79530363D01*
X130965363Y-79730241D01*
X130905722Y-79819500D01*
X130483908Y-79819500D01*
X130324608Y-79625392D01*
X130106101Y-79446068D01*
X129856808Y-79312818D01*
X129724414Y-79272657D01*
X129718556Y-79213174D01*
X129671353Y-79057566D01*
X129597050Y-78918556D01*
X129594699Y-78914157D01*
X129517391Y-78819958D01*
X129491541Y-78788459D01*
X129460039Y-78762606D01*
X128598414Y-77900982D01*
X128749637Y-77749759D01*
X128906680Y-77514727D01*
X129014853Y-77253574D01*
X129070000Y-76976335D01*
X129070000Y-76693665D01*
X129014853Y-76416426D01*
X128906680Y-76155273D01*
X128749637Y-75920241D01*
X128549759Y-75720363D01*
X128314727Y-75563320D01*
X128053574Y-75455147D01*
X127776335Y-75400000D01*
X127493665Y-75400000D01*
X127216426Y-75455147D01*
X126955273Y-75563320D01*
X126720241Y-75720363D01*
X126520363Y-75920241D01*
X126363320Y-76155273D01*
X126255147Y-76416426D01*
X126200000Y-76693665D01*
X126200000Y-76976335D01*
X126255147Y-77253574D01*
X126363320Y-77514727D01*
X126520363Y-77749759D01*
X126720241Y-77949637D01*
X126809501Y-78009278D01*
X126809501Y-78064440D01*
X126805506Y-78105000D01*
X126821445Y-78266826D01*
X126868647Y-78422433D01*
X126945301Y-78565842D01*
X126980431Y-78608647D01*
X127048460Y-78691541D01*
X127079961Y-78717393D01*
X127772153Y-79409585D01*
X127703899Y-79446068D01*
X127485392Y-79625392D01*
X127306068Y-79843899D01*
X127172818Y-80093192D01*
X127090764Y-80363691D01*
X127063057Y-80645000D01*
X127090764Y-80926309D01*
X127172818Y-81196808D01*
X127306068Y-81446101D01*
X127485392Y-81664608D01*
X127703899Y-81843932D01*
X127836858Y-81915000D01*
X127703899Y-81986068D01*
X127485392Y-82165392D01*
X127306068Y-82383899D01*
X127172818Y-82633192D01*
X127090764Y-82903691D01*
X127063057Y-83185000D01*
X127090764Y-83466309D01*
X127172818Y-83736808D01*
X127306068Y-83986101D01*
X127485392Y-84204608D01*
X127703899Y-84383932D01*
X127836858Y-84455000D01*
X127703899Y-84526068D01*
X127485392Y-84705392D01*
X127306068Y-84923899D01*
X127172818Y-85173192D01*
X127090764Y-85443691D01*
X127063057Y-85725000D01*
X127090764Y-86006309D01*
X127172818Y-86276808D01*
X127306068Y-86526101D01*
X127485392Y-86744608D01*
X127703899Y-86923932D01*
X127836858Y-86995000D01*
X127703899Y-87066068D01*
X127485392Y-87245392D01*
X127306068Y-87463899D01*
X127172818Y-87713192D01*
X127090764Y-87983691D01*
X127063057Y-88265000D01*
X127090764Y-88546309D01*
X127172818Y-88816808D01*
X127306068Y-89066101D01*
X127485392Y-89284608D01*
X127703899Y-89463932D01*
X127836858Y-89535000D01*
X127703899Y-89606068D01*
X127485392Y-89785392D01*
X127306068Y-90003899D01*
X127172818Y-90253192D01*
X127090764Y-90523691D01*
X127063057Y-90805000D01*
X127090764Y-91086309D01*
X127172818Y-91356808D01*
X127306068Y-91606101D01*
X127485392Y-91824608D01*
X127703899Y-92003932D01*
X127836858Y-92075000D01*
X127703899Y-92146068D01*
X127485392Y-92325392D01*
X127306068Y-92543899D01*
X127172818Y-92793192D01*
X127090764Y-93063691D01*
X127063057Y-93345000D01*
X127090764Y-93626309D01*
X127172818Y-93896808D01*
X127306068Y-94146101D01*
X127485392Y-94364608D01*
X127703899Y-94543932D01*
X127836858Y-94615000D01*
X127703899Y-94686068D01*
X127485392Y-94865392D01*
X127306068Y-95083899D01*
X127172818Y-95333192D01*
X127090764Y-95603691D01*
X127063057Y-95885000D01*
X127090764Y-96166309D01*
X127172818Y-96436808D01*
X127306068Y-96686101D01*
X127485392Y-96904608D01*
X127703899Y-97083932D01*
X127953192Y-97217182D01*
X128223691Y-97299236D01*
X128434508Y-97320000D01*
X129375492Y-97320000D01*
X129586309Y-97299236D01*
X129856808Y-97217182D01*
X130106101Y-97083932D01*
X130324608Y-96904608D01*
X130503932Y-96686101D01*
X130637182Y-96436808D01*
X130719236Y-96166309D01*
X130746943Y-95885000D01*
X130719236Y-95603691D01*
X130637182Y-95333192D01*
X130503932Y-95083899D01*
X130324608Y-94865392D01*
X130106101Y-94686068D01*
X129973142Y-94615000D01*
X130106101Y-94543932D01*
X130191721Y-94473665D01*
X130645000Y-94473665D01*
X130645000Y-94756335D01*
X130700147Y-95033574D01*
X130808320Y-95294727D01*
X130965363Y-95529759D01*
X131165241Y-95729637D01*
X131400273Y-95886680D01*
X131661426Y-95994853D01*
X131938665Y-96050000D01*
X132221335Y-96050000D01*
X132498574Y-95994853D01*
X132759727Y-95886680D01*
X132994759Y-95729637D01*
X133194637Y-95529759D01*
X133351680Y-95294727D01*
X133459853Y-95033574D01*
X133515000Y-94756335D01*
X133515000Y-94473665D01*
X133459853Y-94196426D01*
X133351680Y-93935273D01*
X133194637Y-93700241D01*
X132994759Y-93500363D01*
X132759727Y-93343320D01*
X132498574Y-93235147D01*
X132221335Y-93180000D01*
X131938665Y-93180000D01*
X131661426Y-93235147D01*
X131400273Y-93343320D01*
X131165241Y-93500363D01*
X130965363Y-93700241D01*
X130808320Y-93935273D01*
X130700147Y-94196426D01*
X130645000Y-94473665D01*
X130191721Y-94473665D01*
X130324608Y-94364608D01*
X130503932Y-94146101D01*
X130637182Y-93896808D01*
X130719236Y-93626309D01*
X130746943Y-93345000D01*
X130719236Y-93063691D01*
X130637182Y-92793192D01*
X130503932Y-92543899D01*
X130324608Y-92325392D01*
X130106101Y-92146068D01*
X129973142Y-92075000D01*
X130106101Y-92003932D01*
X130324608Y-91824608D01*
X130503932Y-91606101D01*
X130637182Y-91356808D01*
X130691217Y-91178678D01*
X130700147Y-91223574D01*
X130808320Y-91484727D01*
X130965363Y-91719759D01*
X131165241Y-91919637D01*
X131400273Y-92076680D01*
X131661426Y-92184853D01*
X131938665Y-92240000D01*
X132221335Y-92240000D01*
X132498574Y-92184853D01*
X132759727Y-92076680D01*
X132994759Y-91919637D01*
X133194637Y-91719759D01*
X133351680Y-91484727D01*
X133459853Y-91223574D01*
X133515000Y-90946335D01*
X133515000Y-90663665D01*
X133459853Y-90386426D01*
X133351680Y-90125273D01*
X133194637Y-89890241D01*
X132994759Y-89690363D01*
X132759727Y-89533320D01*
X132498574Y-89425147D01*
X132221335Y-89370000D01*
X131938665Y-89370000D01*
X131661426Y-89425147D01*
X131400273Y-89533320D01*
X131165241Y-89690363D01*
X130965363Y-89890241D01*
X130808320Y-90125273D01*
X130700147Y-90386426D01*
X130691217Y-90431322D01*
X130637182Y-90253192D01*
X130503932Y-90003899D01*
X130324608Y-89785392D01*
X130106101Y-89606068D01*
X129973142Y-89535000D01*
X130106101Y-89463932D01*
X130324608Y-89284608D01*
X130503932Y-89066101D01*
X130637182Y-88816808D01*
X130719236Y-88546309D01*
X130746943Y-88265000D01*
X130733575Y-88129277D01*
X130808320Y-88309727D01*
X130965363Y-88544759D01*
X131165241Y-88744637D01*
X131400273Y-88901680D01*
X131661426Y-89009853D01*
X131938665Y-89065000D01*
X132221335Y-89065000D01*
X132498574Y-89009853D01*
X132759727Y-88901680D01*
X132994759Y-88744637D01*
X133194637Y-88544759D01*
X133351680Y-88309727D01*
X133459853Y-88048574D01*
X133515000Y-87771335D01*
X133515000Y-87488665D01*
X133459853Y-87211426D01*
X133351680Y-86950273D01*
X133194637Y-86715241D01*
X132994759Y-86515363D01*
X132759727Y-86358320D01*
X132498574Y-86250147D01*
X132221335Y-86195000D01*
X131938665Y-86195000D01*
X131661426Y-86250147D01*
X131400273Y-86358320D01*
X131165241Y-86515363D01*
X130965363Y-86715241D01*
X130808320Y-86950273D01*
X130700147Y-87211426D01*
X130645000Y-87488665D01*
X130645000Y-87738965D01*
X130637182Y-87713192D01*
X130503932Y-87463899D01*
X130324608Y-87245392D01*
X130106101Y-87066068D01*
X129973142Y-86995000D01*
X130106101Y-86923932D01*
X130324608Y-86744608D01*
X130503932Y-86526101D01*
X130637182Y-86276808D01*
X130719236Y-86006309D01*
X130746943Y-85725000D01*
X130719236Y-85443691D01*
X130637182Y-85173192D01*
X130503932Y-84923899D01*
X130324608Y-84705392D01*
X130106101Y-84526068D01*
X129973142Y-84455000D01*
X130106101Y-84383932D01*
X130324608Y-84204608D01*
X130503932Y-83986101D01*
X130637182Y-83736808D01*
X130645000Y-83711035D01*
X130645000Y-83961335D01*
X130700147Y-84238574D01*
X130808320Y-84499727D01*
X130965363Y-84734759D01*
X131165241Y-84934637D01*
X131400273Y-85091680D01*
X131661426Y-85199853D01*
X131938665Y-85255000D01*
X132221335Y-85255000D01*
X132498574Y-85199853D01*
X132759727Y-85091680D01*
X132994759Y-84934637D01*
X133194637Y-84734759D01*
X133351680Y-84499727D01*
X133459853Y-84238574D01*
X133515000Y-83961335D01*
X133515000Y-83678665D01*
X133459853Y-83401426D01*
X133351680Y-83140273D01*
X133194637Y-82905241D01*
X132994759Y-82705363D01*
X132759727Y-82548320D01*
X132498574Y-82440147D01*
X132221335Y-82385000D01*
X131938665Y-82385000D01*
X131661426Y-82440147D01*
X131400273Y-82548320D01*
X131165241Y-82705363D01*
X130965363Y-82905241D01*
X130808320Y-83140273D01*
X130733575Y-83320723D01*
X130746943Y-83185000D01*
X130719236Y-82903691D01*
X130637182Y-82633192D01*
X130503932Y-82383899D01*
X130324608Y-82165392D01*
X130106101Y-81986068D01*
X129973142Y-81915000D01*
X130106101Y-81843932D01*
X130324608Y-81664608D01*
X130483908Y-81470500D01*
X130905722Y-81470500D01*
X130965363Y-81559759D01*
X131165241Y-81759637D01*
X131400273Y-81916680D01*
X131661426Y-82024853D01*
X131938665Y-82080000D01*
X132221335Y-82080000D01*
X132498574Y-82024853D01*
X132759727Y-81916680D01*
X132994759Y-81759637D01*
X133194637Y-81559759D01*
X133254278Y-81470500D01*
X134278067Y-81470500D01*
X134429501Y-81621934D01*
X134429500Y-87589447D01*
X134425506Y-87630000D01*
X134429501Y-87670563D01*
X134429500Y-94574447D01*
X134425506Y-94615000D01*
X134429501Y-94655563D01*
X134429500Y-98718067D01*
X134278067Y-98869500D01*
X133029896Y-98869500D01*
X133194637Y-98704759D01*
X133351680Y-98469727D01*
X133459853Y-98208574D01*
X133515000Y-97931335D01*
X133515000Y-97648665D01*
X133459853Y-97371426D01*
X133351680Y-97110273D01*
X133194637Y-96875241D01*
X132994759Y-96675363D01*
X132759727Y-96518320D01*
X132498574Y-96410147D01*
X132221335Y-96355000D01*
X131938665Y-96355000D01*
X131661426Y-96410147D01*
X131400273Y-96518320D01*
X131165241Y-96675363D01*
X130965363Y-96875241D01*
X130808320Y-97110273D01*
X130700147Y-97371426D01*
X130645000Y-97648665D01*
X130645000Y-97931335D01*
X130700147Y-98208574D01*
X130808320Y-98469727D01*
X130965363Y-98704759D01*
X131130104Y-98869500D01*
X118963072Y-98869500D01*
X118963072Y-98845000D01*
X118950812Y-98720518D01*
X118914502Y-98600820D01*
X118855537Y-98490506D01*
X118776185Y-98393815D01*
X118679494Y-98314463D01*
X118569180Y-98255498D01*
X118449482Y-98219188D01*
X118325000Y-98206928D01*
X116625000Y-98206928D01*
X116500518Y-98219188D01*
X116380820Y-98255498D01*
X116270506Y-98314463D01*
X116173815Y-98393815D01*
X116094463Y-98490506D01*
X116035498Y-98600820D01*
X115999188Y-98720518D01*
X115986928Y-98845000D01*
X115595000Y-98845000D01*
X115595000Y-96234039D01*
X119493096Y-96234039D01*
X119510633Y-96316818D01*
X119621285Y-96576646D01*
X119780500Y-96809895D01*
X119982161Y-97007601D01*
X120218517Y-97162166D01*
X120480486Y-97267650D01*
X120758000Y-97320000D01*
X121158000Y-97320000D01*
X121158000Y-96012000D01*
X121412000Y-96012000D01*
X121412000Y-97320000D01*
X121812000Y-97320000D01*
X122089514Y-97267650D01*
X122351483Y-97162166D01*
X122587839Y-97007601D01*
X122789500Y-96809895D01*
X122948715Y-96576646D01*
X123059367Y-96316818D01*
X123076904Y-96234039D01*
X122954915Y-96012000D01*
X121412000Y-96012000D01*
X121158000Y-96012000D01*
X119615085Y-96012000D01*
X119493096Y-96234039D01*
X115595000Y-96234039D01*
X115595000Y-83185000D01*
X119443057Y-83185000D01*
X119470764Y-83466309D01*
X119552818Y-83736808D01*
X119686068Y-83986101D01*
X119865392Y-84204608D01*
X120083899Y-84383932D01*
X120216858Y-84455000D01*
X120083899Y-84526068D01*
X119865392Y-84705392D01*
X119686068Y-84923899D01*
X119552818Y-85173192D01*
X119470764Y-85443691D01*
X119443057Y-85725000D01*
X119470764Y-86006309D01*
X119552818Y-86276808D01*
X119686068Y-86526101D01*
X119865392Y-86744608D01*
X120083899Y-86923932D01*
X120216858Y-86995000D01*
X120083899Y-87066068D01*
X119865392Y-87245392D01*
X119686068Y-87463899D01*
X119552818Y-87713192D01*
X119470764Y-87983691D01*
X119443057Y-88265000D01*
X119470764Y-88546309D01*
X119552818Y-88816808D01*
X119686068Y-89066101D01*
X119865392Y-89284608D01*
X120083899Y-89463932D01*
X120216858Y-89535000D01*
X120083899Y-89606068D01*
X119865392Y-89785392D01*
X119686068Y-90003899D01*
X119552818Y-90253192D01*
X119470764Y-90523691D01*
X119443057Y-90805000D01*
X119470764Y-91086309D01*
X119552818Y-91356808D01*
X119686068Y-91606101D01*
X119865392Y-91824608D01*
X120083899Y-92003932D01*
X120216858Y-92075000D01*
X120083899Y-92146068D01*
X119865392Y-92325392D01*
X119686068Y-92543899D01*
X119552818Y-92793192D01*
X119470764Y-93063691D01*
X119443057Y-93345000D01*
X119470764Y-93626309D01*
X119552818Y-93896808D01*
X119686068Y-94146101D01*
X119865392Y-94364608D01*
X120083899Y-94543932D01*
X120211741Y-94612265D01*
X119982161Y-94762399D01*
X119780500Y-94960105D01*
X119621285Y-95193354D01*
X119510633Y-95453182D01*
X119493096Y-95535961D01*
X119615085Y-95758000D01*
X121158000Y-95758000D01*
X121158000Y-95738000D01*
X121412000Y-95738000D01*
X121412000Y-95758000D01*
X122954915Y-95758000D01*
X123076904Y-95535961D01*
X123059367Y-95453182D01*
X122948715Y-95193354D01*
X122789500Y-94960105D01*
X122587839Y-94762399D01*
X122358259Y-94612265D01*
X122486101Y-94543932D01*
X122704608Y-94364608D01*
X122883932Y-94146101D01*
X123017182Y-93896808D01*
X123099236Y-93626309D01*
X123126943Y-93345000D01*
X123099236Y-93063691D01*
X123017182Y-92793192D01*
X122883932Y-92543899D01*
X122704608Y-92325392D01*
X122486101Y-92146068D01*
X122353142Y-92075000D01*
X122486101Y-92003932D01*
X122704608Y-91824608D01*
X122883932Y-91606101D01*
X123017182Y-91356808D01*
X123099236Y-91086309D01*
X123126943Y-90805000D01*
X123099236Y-90523691D01*
X123017182Y-90253192D01*
X122883932Y-90003899D01*
X122704608Y-89785392D01*
X122486101Y-89606068D01*
X122353142Y-89535000D01*
X122486101Y-89463932D01*
X122704608Y-89284608D01*
X122883932Y-89066101D01*
X123017182Y-88816808D01*
X123099236Y-88546309D01*
X123126943Y-88265000D01*
X123099236Y-87983691D01*
X123017182Y-87713192D01*
X122883932Y-87463899D01*
X122704608Y-87245392D01*
X122486101Y-87066068D01*
X122353142Y-86995000D01*
X122486101Y-86923932D01*
X122704608Y-86744608D01*
X122883932Y-86526101D01*
X123017182Y-86276808D01*
X123099236Y-86006309D01*
X123126943Y-85725000D01*
X123099236Y-85443691D01*
X123017182Y-85173192D01*
X122883932Y-84923899D01*
X122704608Y-84705392D01*
X122486101Y-84526068D01*
X122353142Y-84455000D01*
X122486101Y-84383932D01*
X122704608Y-84204608D01*
X122883932Y-83986101D01*
X123017182Y-83736808D01*
X123099236Y-83466309D01*
X123126943Y-83185000D01*
X123099236Y-82903691D01*
X123017182Y-82633192D01*
X122883932Y-82383899D01*
X122704608Y-82165392D01*
X122591518Y-82072581D01*
X122609482Y-82070812D01*
X122729180Y-82034502D01*
X122839494Y-81975537D01*
X122936185Y-81896185D01*
X123015537Y-81799494D01*
X123074502Y-81689180D01*
X123110812Y-81569482D01*
X123123072Y-81445000D01*
X123123072Y-79845000D01*
X123110812Y-79720518D01*
X123074502Y-79600820D01*
X123015537Y-79490506D01*
X122936185Y-79393815D01*
X122839494Y-79314463D01*
X122729180Y-79255498D01*
X122609482Y-79219188D01*
X122485000Y-79206928D01*
X120085000Y-79206928D01*
X119960518Y-79219188D01*
X119840820Y-79255498D01*
X119730506Y-79314463D01*
X119633815Y-79393815D01*
X119554463Y-79490506D01*
X119495498Y-79600820D01*
X119459188Y-79720518D01*
X119446928Y-79845000D01*
X119446928Y-81445000D01*
X119459188Y-81569482D01*
X119495498Y-81689180D01*
X119554463Y-81799494D01*
X119633815Y-81896185D01*
X119730506Y-81975537D01*
X119840820Y-82034502D01*
X119960518Y-82070812D01*
X119978482Y-82072581D01*
X119865392Y-82165392D01*
X119686068Y-82383899D01*
X119552818Y-82633192D01*
X119470764Y-82903691D01*
X119443057Y-83185000D01*
X115595000Y-83185000D01*
X115595000Y-77827702D01*
X121821903Y-77827702D01*
X121893486Y-78071671D01*
X122148996Y-78192571D01*
X122423184Y-78261300D01*
X122705512Y-78275217D01*
X122985130Y-78233787D01*
X123251292Y-78138603D01*
X123376514Y-78071671D01*
X123448097Y-77827702D01*
X122635000Y-77014605D01*
X121821903Y-77827702D01*
X115595000Y-77827702D01*
X115595000Y-76905512D01*
X121194783Y-76905512D01*
X121236213Y-77185130D01*
X121331397Y-77451292D01*
X121398329Y-77576514D01*
X121642298Y-77648097D01*
X122455395Y-76835000D01*
X122814605Y-76835000D01*
X123627702Y-77648097D01*
X123871671Y-77576514D01*
X123992571Y-77321004D01*
X124061300Y-77046816D01*
X124075217Y-76764488D01*
X124033787Y-76484870D01*
X123938603Y-76218708D01*
X123871671Y-76093486D01*
X123627702Y-76021903D01*
X122814605Y-76835000D01*
X122455395Y-76835000D01*
X121642298Y-76021903D01*
X121398329Y-76093486D01*
X121277429Y-76348996D01*
X121208700Y-76623184D01*
X121194783Y-76905512D01*
X115595000Y-76905512D01*
X115595000Y-75842298D01*
X121821903Y-75842298D01*
X122635000Y-76655395D01*
X123448097Y-75842298D01*
X123376514Y-75598329D01*
X123121004Y-75477429D01*
X122846816Y-75408700D01*
X122564488Y-75394783D01*
X122284870Y-75436213D01*
X122018708Y-75531397D01*
X121893486Y-75598329D01*
X121821903Y-75842298D01*
X115595000Y-75842298D01*
X115595000Y-71787279D01*
X115622668Y-71505099D01*
X116360000Y-71505099D01*
X116360000Y-71974903D01*
X116451654Y-72435680D01*
X116631440Y-72869722D01*
X116892450Y-73260350D01*
X117224651Y-73592551D01*
X117615279Y-73853561D01*
X118049321Y-74033347D01*
X118510098Y-74125001D01*
X118979902Y-74125001D01*
X119440679Y-74033347D01*
X119874721Y-73853561D01*
X120112023Y-73695000D01*
X133766928Y-73695000D01*
X133766928Y-74895000D01*
X133783992Y-75068254D01*
X133834528Y-75234850D01*
X133916595Y-75388386D01*
X134027038Y-75522962D01*
X134161614Y-75633405D01*
X134315150Y-75715472D01*
X134481746Y-75766008D01*
X134655000Y-75783072D01*
X135855000Y-75783072D01*
X136028254Y-75766008D01*
X136194850Y-75715472D01*
X136348386Y-75633405D01*
X136482962Y-75522962D01*
X136593405Y-75388386D01*
X136661285Y-75261392D01*
X136848368Y-75448475D01*
X137091589Y-75610990D01*
X137361842Y-75722932D01*
X137648740Y-75780000D01*
X137941260Y-75780000D01*
X138228158Y-75722932D01*
X138498411Y-75610990D01*
X138741632Y-75448475D01*
X138948475Y-75241632D01*
X139065000Y-75067240D01*
X139181525Y-75241632D01*
X139388368Y-75448475D01*
X139631589Y-75610990D01*
X139901842Y-75722932D01*
X140188740Y-75780000D01*
X140481260Y-75780000D01*
X140768158Y-75722932D01*
X141038411Y-75610990D01*
X141281632Y-75448475D01*
X141406710Y-75323397D01*
X142026208Y-75323397D01*
X142103843Y-75572472D01*
X142367883Y-75698371D01*
X142651411Y-75770339D01*
X142943531Y-75785611D01*
X143233019Y-75743599D01*
X143508747Y-75645919D01*
X143646157Y-75572472D01*
X143723792Y-75323397D01*
X144566208Y-75323397D01*
X144643843Y-75572472D01*
X144907883Y-75698371D01*
X145191411Y-75770339D01*
X145483531Y-75785611D01*
X145773019Y-75743599D01*
X146048747Y-75645919D01*
X146186157Y-75572472D01*
X146263792Y-75323397D01*
X145415000Y-74474605D01*
X144566208Y-75323397D01*
X143723792Y-75323397D01*
X142875000Y-74474605D01*
X142026208Y-75323397D01*
X141406710Y-75323397D01*
X141488475Y-75241632D01*
X141604311Y-75068271D01*
X141846603Y-75143792D01*
X142695395Y-74295000D01*
X143054605Y-74295000D01*
X143903397Y-75143792D01*
X144145000Y-75068486D01*
X144386603Y-75143792D01*
X145235395Y-74295000D01*
X144386603Y-73446208D01*
X144145000Y-73521514D01*
X143903397Y-73446208D01*
X143054605Y-74295000D01*
X142695395Y-74295000D01*
X141846603Y-73446208D01*
X141604311Y-73521729D01*
X141488475Y-73348368D01*
X141281632Y-73141525D01*
X141107240Y-73025000D01*
X141281632Y-72908475D01*
X141488475Y-72701632D01*
X141605000Y-72527240D01*
X141721525Y-72701632D01*
X141928368Y-72908475D01*
X142101729Y-73024311D01*
X142026208Y-73266603D01*
X142875000Y-74115395D01*
X143723792Y-73266603D01*
X143648271Y-73024311D01*
X143821632Y-72908475D01*
X144028475Y-72701632D01*
X144145000Y-72527240D01*
X144261525Y-72701632D01*
X144468368Y-72908475D01*
X144641729Y-73024311D01*
X144566208Y-73266603D01*
X145415000Y-74115395D01*
X146263792Y-73266603D01*
X146188271Y-73024311D01*
X146361632Y-72908475D01*
X146568475Y-72701632D01*
X146685000Y-72527240D01*
X146801525Y-72701632D01*
X147008368Y-72908475D01*
X147182760Y-73025000D01*
X147008368Y-73141525D01*
X146801525Y-73348368D01*
X146685689Y-73521729D01*
X146443397Y-73446208D01*
X145594605Y-74295000D01*
X146443397Y-75143792D01*
X146685689Y-75068271D01*
X146801525Y-75241632D01*
X147008368Y-75448475D01*
X147251589Y-75610990D01*
X147521842Y-75722932D01*
X147808740Y-75780000D01*
X148101260Y-75780000D01*
X148388158Y-75722932D01*
X148658411Y-75610990D01*
X148901632Y-75448475D01*
X149108475Y-75241632D01*
X149225000Y-75067240D01*
X149341525Y-75241632D01*
X149548368Y-75448475D01*
X149791589Y-75610990D01*
X150061842Y-75722932D01*
X150348740Y-75780000D01*
X150641260Y-75780000D01*
X150928158Y-75722932D01*
X151198411Y-75610990D01*
X151441632Y-75448475D01*
X151648475Y-75241632D01*
X151765000Y-75067240D01*
X151881525Y-75241632D01*
X152088368Y-75448475D01*
X152331589Y-75610990D01*
X152601842Y-75722932D01*
X152888740Y-75780000D01*
X153181260Y-75780000D01*
X153468158Y-75722932D01*
X153738411Y-75610990D01*
X153981632Y-75448475D01*
X154188475Y-75241632D01*
X154350990Y-74998411D01*
X154462932Y-74728158D01*
X154520000Y-74441260D01*
X154520000Y-74148740D01*
X154462932Y-73861842D01*
X154350990Y-73591589D01*
X154188475Y-73348368D01*
X153981632Y-73141525D01*
X153807240Y-73025000D01*
X153981632Y-72908475D01*
X154188475Y-72701632D01*
X154350990Y-72458411D01*
X154462932Y-72188158D01*
X154520000Y-71901260D01*
X154520000Y-71608740D01*
X154502368Y-71520098D01*
X167160000Y-71520098D01*
X167160000Y-71989902D01*
X167251654Y-72450679D01*
X167431440Y-72884721D01*
X167692450Y-73275349D01*
X168024651Y-73607550D01*
X168415279Y-73868560D01*
X168849321Y-74048346D01*
X169310098Y-74140000D01*
X169779902Y-74140000D01*
X170240679Y-74048346D01*
X170674721Y-73868560D01*
X171065349Y-73607550D01*
X171397550Y-73275349D01*
X171658560Y-72884721D01*
X171838346Y-72450679D01*
X171930000Y-71989902D01*
X171930000Y-71520098D01*
X171838346Y-71059321D01*
X171658560Y-70625279D01*
X171397550Y-70234651D01*
X171065349Y-69902450D01*
X170674721Y-69641440D01*
X170240679Y-69461654D01*
X169779902Y-69370000D01*
X169310098Y-69370000D01*
X168849321Y-69461654D01*
X168415279Y-69641440D01*
X168024651Y-69902450D01*
X167692450Y-70234651D01*
X167431440Y-70625279D01*
X167251654Y-71059321D01*
X167160000Y-71520098D01*
X154502368Y-71520098D01*
X154462932Y-71321842D01*
X154350990Y-71051589D01*
X154188475Y-70808368D01*
X153981632Y-70601525D01*
X153738411Y-70439010D01*
X153468158Y-70327068D01*
X153181260Y-70270000D01*
X152888740Y-70270000D01*
X152601842Y-70327068D01*
X152331589Y-70439010D01*
X152088368Y-70601525D01*
X151881525Y-70808368D01*
X151765000Y-70982760D01*
X151648475Y-70808368D01*
X151441632Y-70601525D01*
X151198411Y-70439010D01*
X150928158Y-70327068D01*
X150641260Y-70270000D01*
X150348740Y-70270000D01*
X150061842Y-70327068D01*
X149791589Y-70439010D01*
X149548368Y-70601525D01*
X149341525Y-70808368D01*
X149225000Y-70982760D01*
X149108475Y-70808368D01*
X148901632Y-70601525D01*
X148658411Y-70439010D01*
X148388158Y-70327068D01*
X148101260Y-70270000D01*
X147808740Y-70270000D01*
X147521842Y-70327068D01*
X147251589Y-70439010D01*
X147008368Y-70601525D01*
X146801525Y-70808368D01*
X146685000Y-70982760D01*
X146568475Y-70808368D01*
X146361632Y-70601525D01*
X146118411Y-70439010D01*
X145848158Y-70327068D01*
X145561260Y-70270000D01*
X145268740Y-70270000D01*
X144981842Y-70327068D01*
X144711589Y-70439010D01*
X144468368Y-70601525D01*
X144261525Y-70808368D01*
X144145000Y-70982760D01*
X144028475Y-70808368D01*
X143821632Y-70601525D01*
X143578411Y-70439010D01*
X143308158Y-70327068D01*
X143021260Y-70270000D01*
X142728740Y-70270000D01*
X142441842Y-70327068D01*
X142171589Y-70439010D01*
X141928368Y-70601525D01*
X141721525Y-70808368D01*
X141605000Y-70982760D01*
X141488475Y-70808368D01*
X141281632Y-70601525D01*
X141038411Y-70439010D01*
X140768158Y-70327068D01*
X140481260Y-70270000D01*
X140188740Y-70270000D01*
X139901842Y-70327068D01*
X139631589Y-70439010D01*
X139388368Y-70601525D01*
X139181525Y-70808368D01*
X139065000Y-70982760D01*
X138948475Y-70808368D01*
X138741632Y-70601525D01*
X138498411Y-70439010D01*
X138228158Y-70327068D01*
X137941260Y-70270000D01*
X137648740Y-70270000D01*
X137361842Y-70327068D01*
X137091589Y-70439010D01*
X136848368Y-70601525D01*
X136641525Y-70808368D01*
X136525000Y-70982760D01*
X136408475Y-70808368D01*
X136201632Y-70601525D01*
X135958411Y-70439010D01*
X135688158Y-70327068D01*
X135401260Y-70270000D01*
X135108740Y-70270000D01*
X134821842Y-70327068D01*
X134551589Y-70439010D01*
X134308368Y-70601525D01*
X134101525Y-70808368D01*
X133939010Y-71051589D01*
X133827068Y-71321842D01*
X133770000Y-71608740D01*
X133770000Y-71901260D01*
X133827068Y-72188158D01*
X133939010Y-72458411D01*
X134101525Y-72701632D01*
X134288608Y-72888715D01*
X134161614Y-72956595D01*
X134027038Y-73067038D01*
X133916595Y-73201614D01*
X133834528Y-73355150D01*
X133783992Y-73521746D01*
X133766928Y-73695000D01*
X120112023Y-73695000D01*
X120265349Y-73592551D01*
X120597550Y-73260350D01*
X120858560Y-72869722D01*
X121038346Y-72435680D01*
X121130000Y-71974903D01*
X121130000Y-71505099D01*
X121038346Y-71044322D01*
X120858560Y-70610280D01*
X120597550Y-70219652D01*
X120265349Y-69887451D01*
X119874721Y-69626441D01*
X119440679Y-69446655D01*
X118979902Y-69355001D01*
X118510098Y-69355001D01*
X118049321Y-69446655D01*
X117615279Y-69626441D01*
X117224651Y-69887451D01*
X116892450Y-70219652D01*
X116631440Y-70610280D01*
X116451654Y-71044322D01*
X116360000Y-71505099D01*
X115622668Y-71505099D01*
X115658096Y-71143778D01*
X115835606Y-70555836D01*
X116123937Y-70013564D01*
X116512094Y-69537636D01*
X116985314Y-69146155D01*
X117525552Y-68854049D01*
X118112244Y-68672437D01*
X118753879Y-68605000D01*
X169512721Y-68605000D01*
X170156222Y-68668096D01*
G04 #@! TA.AperFunction,Conductor*
D24*
G36*
X170156222Y-68668096D02*
G01*
X170744164Y-68845606D01*
X171286436Y-69133937D01*
X171762364Y-69522094D01*
X172153845Y-69995314D01*
X172445951Y-70535552D01*
X172627563Y-71122244D01*
X172695001Y-71763888D01*
X172695000Y-107917721D01*
X172631904Y-108561221D01*
X172454394Y-109149164D01*
X172166063Y-109691436D01*
X171777906Y-110167364D01*
X171304686Y-110558845D01*
X170764449Y-110850950D01*
X170177756Y-111032563D01*
X169536130Y-111100000D01*
X118777279Y-111100000D01*
X118133779Y-111036904D01*
X117545836Y-110859394D01*
X117003564Y-110571063D01*
X116527636Y-110182906D01*
X116136155Y-109709686D01*
X115844050Y-109169449D01*
X115662437Y-108582756D01*
X115595000Y-107941130D01*
X115595000Y-107715098D01*
X116360000Y-107715098D01*
X116360000Y-108184902D01*
X116451654Y-108645679D01*
X116631440Y-109079721D01*
X116892450Y-109470349D01*
X117224651Y-109802550D01*
X117615279Y-110063560D01*
X118049321Y-110243346D01*
X118510098Y-110335000D01*
X118979902Y-110335000D01*
X119440679Y-110243346D01*
X119874721Y-110063560D01*
X120265349Y-109802550D01*
X120597550Y-109470349D01*
X120858560Y-109079721D01*
X121038346Y-108645679D01*
X121130000Y-108184902D01*
X121130000Y-107715098D01*
X121038346Y-107254321D01*
X120968791Y-107086400D01*
X126133328Y-107086400D01*
X126133328Y-108813600D01*
X126145588Y-108938082D01*
X126181898Y-109057780D01*
X126240863Y-109168094D01*
X126320215Y-109264785D01*
X126416906Y-109344137D01*
X126527220Y-109403102D01*
X126646918Y-109439412D01*
X126771400Y-109451672D01*
X128498600Y-109451672D01*
X128623082Y-109439412D01*
X128742780Y-109403102D01*
X128853094Y-109344137D01*
X128949785Y-109264785D01*
X129029137Y-109168094D01*
X129088102Y-109057780D01*
X129105636Y-108999977D01*
X129219698Y-109114039D01*
X129465147Y-109278042D01*
X129737875Y-109391010D01*
X130027401Y-109448600D01*
X130322599Y-109448600D01*
X130612125Y-109391010D01*
X130884853Y-109278042D01*
X131130302Y-109114039D01*
X131339039Y-108905302D01*
X131445000Y-108746719D01*
X131550961Y-108905302D01*
X131759698Y-109114039D01*
X132005147Y-109278042D01*
X132277875Y-109391010D01*
X132567401Y-109448600D01*
X132862599Y-109448600D01*
X133152125Y-109391010D01*
X133424853Y-109278042D01*
X133670302Y-109114039D01*
X133879039Y-108905302D01*
X133985000Y-108746719D01*
X134090961Y-108905302D01*
X134299698Y-109114039D01*
X134545147Y-109278042D01*
X134817875Y-109391010D01*
X135107401Y-109448600D01*
X135402599Y-109448600D01*
X135692125Y-109391010D01*
X135964853Y-109278042D01*
X136210302Y-109114039D01*
X136419039Y-108905302D01*
X136525000Y-108746719D01*
X136630961Y-108905302D01*
X136839698Y-109114039D01*
X137085147Y-109278042D01*
X137357875Y-109391010D01*
X137647401Y-109448600D01*
X137942599Y-109448600D01*
X138232125Y-109391010D01*
X138504853Y-109278042D01*
X138750302Y-109114039D01*
X138959039Y-108905302D01*
X139123042Y-108659853D01*
X139236010Y-108387125D01*
X139293600Y-108097599D01*
X139293600Y-107802401D01*
X139236010Y-107512875D01*
X139123042Y-107240147D01*
X139020313Y-107086400D01*
X148993328Y-107086400D01*
X148993328Y-108813600D01*
X149005588Y-108938082D01*
X149041898Y-109057780D01*
X149100863Y-109168094D01*
X149180215Y-109264785D01*
X149276906Y-109344137D01*
X149387220Y-109403102D01*
X149506918Y-109439412D01*
X149631400Y-109451672D01*
X151358600Y-109451672D01*
X151483082Y-109439412D01*
X151602780Y-109403102D01*
X151713094Y-109344137D01*
X151809785Y-109264785D01*
X151889137Y-109168094D01*
X151948102Y-109057780D01*
X151965636Y-108999977D01*
X152079698Y-109114039D01*
X152325147Y-109278042D01*
X152597875Y-109391010D01*
X152887401Y-109448600D01*
X153182599Y-109448600D01*
X153472125Y-109391010D01*
X153744853Y-109278042D01*
X153990302Y-109114039D01*
X154199039Y-108905302D01*
X154305000Y-108746719D01*
X154410961Y-108905302D01*
X154619698Y-109114039D01*
X154865147Y-109278042D01*
X155137875Y-109391010D01*
X155427401Y-109448600D01*
X155722599Y-109448600D01*
X156012125Y-109391010D01*
X156284853Y-109278042D01*
X156530302Y-109114039D01*
X156739039Y-108905302D01*
X156845000Y-108746719D01*
X156950961Y-108905302D01*
X157159698Y-109114039D01*
X157405147Y-109278042D01*
X157677875Y-109391010D01*
X157967401Y-109448600D01*
X158262599Y-109448600D01*
X158552125Y-109391010D01*
X158824853Y-109278042D01*
X159070302Y-109114039D01*
X159279039Y-108905302D01*
X159385000Y-108746719D01*
X159490961Y-108905302D01*
X159699698Y-109114039D01*
X159945147Y-109278042D01*
X160217875Y-109391010D01*
X160507401Y-109448600D01*
X160802599Y-109448600D01*
X161092125Y-109391010D01*
X161364853Y-109278042D01*
X161610302Y-109114039D01*
X161819039Y-108905302D01*
X161983042Y-108659853D01*
X162096010Y-108387125D01*
X162153600Y-108097599D01*
X162153600Y-107802401D01*
X162136235Y-107715098D01*
X167160000Y-107715098D01*
X167160000Y-108184902D01*
X167251654Y-108645679D01*
X167431440Y-109079721D01*
X167692450Y-109470349D01*
X168024651Y-109802550D01*
X168415279Y-110063560D01*
X168849321Y-110243346D01*
X169310098Y-110335000D01*
X169779902Y-110335000D01*
X170240679Y-110243346D01*
X170674721Y-110063560D01*
X171065349Y-109802550D01*
X171397550Y-109470349D01*
X171658560Y-109079721D01*
X171838346Y-108645679D01*
X171930000Y-108184902D01*
X171930000Y-107715098D01*
X171838346Y-107254321D01*
X171658560Y-106820279D01*
X171397550Y-106429651D01*
X171065349Y-106097450D01*
X170674721Y-105836440D01*
X170240679Y-105656654D01*
X169779902Y-105565000D01*
X169310098Y-105565000D01*
X168849321Y-105656654D01*
X168415279Y-105836440D01*
X168024651Y-106097450D01*
X167692450Y-106429651D01*
X167431440Y-106820279D01*
X167251654Y-107254321D01*
X167160000Y-107715098D01*
X162136235Y-107715098D01*
X162096010Y-107512875D01*
X161983042Y-107240147D01*
X161819039Y-106994698D01*
X161610302Y-106785961D01*
X161451719Y-106680000D01*
X161610302Y-106574039D01*
X161819039Y-106365302D01*
X161983042Y-106119853D01*
X162096010Y-105847125D01*
X162153600Y-105557599D01*
X162153600Y-105262401D01*
X162096010Y-104972875D01*
X161983042Y-104700147D01*
X161819039Y-104454698D01*
X161610302Y-104245961D01*
X161364853Y-104081958D01*
X161092125Y-103968990D01*
X160802599Y-103911400D01*
X160507401Y-103911400D01*
X160217875Y-103968990D01*
X159945147Y-104081958D01*
X159699698Y-104245961D01*
X159490961Y-104454698D01*
X159385000Y-104613281D01*
X159279039Y-104454698D01*
X159070302Y-104245961D01*
X158824853Y-104081958D01*
X158552125Y-103968990D01*
X158262599Y-103911400D01*
X157967401Y-103911400D01*
X157677875Y-103968990D01*
X157405147Y-104081958D01*
X157159698Y-104245961D01*
X156950961Y-104454698D01*
X156840441Y-104620103D01*
X156781817Y-104521512D01*
X156585293Y-104303146D01*
X156349944Y-104127316D01*
X156084814Y-104000778D01*
X155934026Y-103955042D01*
X155702000Y-104076183D01*
X155702000Y-105283000D01*
X155722000Y-105283000D01*
X155722000Y-105537000D01*
X155702000Y-105537000D01*
X155702000Y-105557000D01*
X155448000Y-105557000D01*
X155448000Y-105537000D01*
X155428000Y-105537000D01*
X155428000Y-105283000D01*
X155448000Y-105283000D01*
X155448000Y-104076183D01*
X155215974Y-103955042D01*
X155065186Y-104000778D01*
X154800056Y-104127316D01*
X154564707Y-104303146D01*
X154368183Y-104521512D01*
X154309559Y-104620103D01*
X154199039Y-104454698D01*
X153990302Y-104245961D01*
X153744853Y-104081958D01*
X153472125Y-103968990D01*
X153182599Y-103911400D01*
X152887401Y-103911400D01*
X152597875Y-103968990D01*
X152525000Y-103999176D01*
X152525000Y-102938719D01*
X152568937Y-102894782D01*
X152682205Y-102725264D01*
X152760226Y-102536906D01*
X152800000Y-102336947D01*
X152800000Y-102133069D01*
X152760226Y-101933110D01*
X152682205Y-101744752D01*
X152568937Y-101575234D01*
X152424774Y-101431071D01*
X152255256Y-101317803D01*
X152066898Y-101239782D01*
X151866939Y-101200008D01*
X151663061Y-101200008D01*
X151463102Y-101239782D01*
X151274744Y-101317803D01*
X151105226Y-101431071D01*
X150961063Y-101575234D01*
X150847795Y-101744752D01*
X150769774Y-101933110D01*
X150730000Y-102133069D01*
X150730000Y-102336947D01*
X150769774Y-102536906D01*
X150847795Y-102725264D01*
X150961063Y-102894782D01*
X151005000Y-102938719D01*
X151005000Y-103999176D01*
X150932125Y-103968990D01*
X150642599Y-103911400D01*
X150347401Y-103911400D01*
X150057875Y-103968990D01*
X149785147Y-104081958D01*
X149539698Y-104245961D01*
X149330961Y-104454698D01*
X149166958Y-104700147D01*
X149053990Y-104972875D01*
X148996400Y-105262401D01*
X148996400Y-105557599D01*
X149053990Y-105847125D01*
X149166958Y-106119853D01*
X149330961Y-106365302D01*
X149445023Y-106479364D01*
X149387220Y-106496898D01*
X149276906Y-106555863D01*
X149180215Y-106635215D01*
X149100863Y-106731906D01*
X149041898Y-106842220D01*
X149005588Y-106961918D01*
X148993328Y-107086400D01*
X139020313Y-107086400D01*
X138959039Y-106994698D01*
X138750302Y-106785961D01*
X138591719Y-106680000D01*
X138750302Y-106574039D01*
X138959039Y-106365302D01*
X139123042Y-106119853D01*
X139236010Y-105847125D01*
X139293600Y-105557599D01*
X139293600Y-105262401D01*
X139236010Y-104972875D01*
X139123042Y-104700147D01*
X138959039Y-104454698D01*
X138750302Y-104245961D01*
X138504853Y-104081958D01*
X138232125Y-103968990D01*
X137942599Y-103911400D01*
X137647401Y-103911400D01*
X137357875Y-103968990D01*
X137085147Y-104081958D01*
X136839698Y-104245961D01*
X136630961Y-104454698D01*
X136525000Y-104613281D01*
X136419039Y-104454698D01*
X136210302Y-104245961D01*
X135964853Y-104081958D01*
X135692125Y-103968990D01*
X135402599Y-103911400D01*
X135107401Y-103911400D01*
X134817875Y-103968990D01*
X134545147Y-104081958D01*
X134299698Y-104245961D01*
X134090961Y-104454698D01*
X133980441Y-104620103D01*
X133921817Y-104521512D01*
X133725293Y-104303146D01*
X133489944Y-104127316D01*
X133224814Y-104000778D01*
X133074026Y-103955042D01*
X132842000Y-104076183D01*
X132842000Y-105283000D01*
X132862000Y-105283000D01*
X132862000Y-105537000D01*
X132842000Y-105537000D01*
X132842000Y-105557000D01*
X132588000Y-105557000D01*
X132588000Y-105537000D01*
X132568000Y-105537000D01*
X132568000Y-105283000D01*
X132588000Y-105283000D01*
X132588000Y-104076183D01*
X132355974Y-103955042D01*
X132205186Y-104000778D01*
X131940056Y-104127316D01*
X131704707Y-104303146D01*
X131508183Y-104521512D01*
X131449559Y-104620103D01*
X131339039Y-104454698D01*
X131130302Y-104245961D01*
X130884853Y-104081958D01*
X130612125Y-103968990D01*
X130322599Y-103911400D01*
X130027401Y-103911400D01*
X129737875Y-103968990D01*
X129465147Y-104081958D01*
X129219698Y-104245961D01*
X129010961Y-104454698D01*
X128905000Y-104613281D01*
X128799039Y-104454698D01*
X128590302Y-104245961D01*
X128344853Y-104081958D01*
X128072125Y-103968990D01*
X127782599Y-103911400D01*
X127487401Y-103911400D01*
X127197875Y-103968990D01*
X126925147Y-104081958D01*
X126679698Y-104245961D01*
X126470961Y-104454698D01*
X126306958Y-104700147D01*
X126193990Y-104972875D01*
X126136400Y-105262401D01*
X126136400Y-105557599D01*
X126193990Y-105847125D01*
X126306958Y-106119853D01*
X126470961Y-106365302D01*
X126585023Y-106479364D01*
X126527220Y-106496898D01*
X126416906Y-106555863D01*
X126320215Y-106635215D01*
X126240863Y-106731906D01*
X126181898Y-106842220D01*
X126145588Y-106961918D01*
X126133328Y-107086400D01*
X120968791Y-107086400D01*
X120858560Y-106820279D01*
X120597550Y-106429651D01*
X120265349Y-106097450D01*
X119874721Y-105836440D01*
X119440679Y-105656654D01*
X118979902Y-105565000D01*
X118510098Y-105565000D01*
X118049321Y-105656654D01*
X117615279Y-105836440D01*
X117224651Y-106097450D01*
X116892450Y-106429651D01*
X116631440Y-106820279D01*
X116451654Y-107254321D01*
X116360000Y-107715098D01*
X115595000Y-107715098D01*
X115595000Y-98845000D01*
X115986928Y-98845000D01*
X115986928Y-100545000D01*
X115999188Y-100669482D01*
X116035498Y-100789180D01*
X116094463Y-100899494D01*
X116173815Y-100996185D01*
X116270506Y-101075537D01*
X116380820Y-101134502D01*
X116453380Y-101156513D01*
X116321525Y-101288368D01*
X116159010Y-101531589D01*
X116047068Y-101801842D01*
X115990000Y-102088740D01*
X115990000Y-102381260D01*
X116047068Y-102668158D01*
X116159010Y-102938411D01*
X116321525Y-103181632D01*
X116528368Y-103388475D01*
X116771589Y-103550990D01*
X117041842Y-103662932D01*
X117328740Y-103720000D01*
X117621260Y-103720000D01*
X117908158Y-103662932D01*
X118178411Y-103550990D01*
X118421632Y-103388475D01*
X118628475Y-103181632D01*
X118790990Y-102938411D01*
X118902932Y-102668158D01*
X118960000Y-102381260D01*
X118960000Y-102088740D01*
X118902932Y-101801842D01*
X118790990Y-101531589D01*
X118628475Y-101288368D01*
X118496620Y-101156513D01*
X118569180Y-101134502D01*
X118679494Y-101075537D01*
X118776185Y-100996185D01*
X118855537Y-100899494D01*
X118914502Y-100789180D01*
X118950812Y-100669482D01*
X118963072Y-100545000D01*
X118963072Y-100520500D01*
X134579450Y-100520500D01*
X134620000Y-100524494D01*
X134660550Y-100520500D01*
X134660553Y-100520500D01*
X134781826Y-100508556D01*
X134937434Y-100461353D01*
X135080842Y-100384699D01*
X135206541Y-100281541D01*
X135232397Y-100250035D01*
X135810045Y-99672388D01*
X135841541Y-99646541D01*
X135867389Y-99615045D01*
X135867392Y-99615042D01*
X135944699Y-99520843D01*
X136021353Y-99377434D01*
X136064815Y-99234158D01*
X136068556Y-99221826D01*
X136080500Y-99100553D01*
X136080500Y-99100551D01*
X136084494Y-99060000D01*
X136080500Y-99019450D01*
X136080500Y-98782702D01*
X141426903Y-98782702D01*
X141498486Y-99026671D01*
X141753996Y-99147571D01*
X142028184Y-99216300D01*
X142310512Y-99230217D01*
X142590130Y-99188787D01*
X142856292Y-99093603D01*
X142981514Y-99026671D01*
X143053097Y-98782702D01*
X142240000Y-97969605D01*
X141426903Y-98782702D01*
X136080500Y-98782702D01*
X136080500Y-97860512D01*
X140799783Y-97860512D01*
X140841213Y-98140130D01*
X140936397Y-98406292D01*
X141003329Y-98531514D01*
X141247298Y-98603097D01*
X142060395Y-97790000D01*
X142419605Y-97790000D01*
X143232702Y-98603097D01*
X143476671Y-98531514D01*
X143597571Y-98276004D01*
X143666300Y-98001816D01*
X143680217Y-97719488D01*
X143669724Y-97648665D01*
X147790000Y-97648665D01*
X147790000Y-97931335D01*
X147845147Y-98208574D01*
X147953320Y-98469727D01*
X148110363Y-98704759D01*
X148310241Y-98904637D01*
X148545273Y-99061680D01*
X148806426Y-99169853D01*
X149083665Y-99225000D01*
X149366335Y-99225000D01*
X149643574Y-99169853D01*
X149904727Y-99061680D01*
X150139759Y-98904637D01*
X150339637Y-98704759D01*
X150443043Y-98550000D01*
X153691299Y-98550000D01*
X153735236Y-98593937D01*
X153904754Y-98707205D01*
X154093112Y-98785226D01*
X154293071Y-98825000D01*
X154496949Y-98825000D01*
X154696908Y-98785226D01*
X154885266Y-98707205D01*
X155054784Y-98593937D01*
X155198947Y-98449774D01*
X155312215Y-98280256D01*
X155390236Y-98091898D01*
X155430010Y-97891939D01*
X155430010Y-97688061D01*
X155390236Y-97488102D01*
X155312215Y-97299744D01*
X155198947Y-97130226D01*
X155054784Y-96986063D01*
X154885266Y-96872795D01*
X154696908Y-96794774D01*
X154496949Y-96755000D01*
X154293071Y-96755000D01*
X154093112Y-96794774D01*
X153904754Y-96872795D01*
X153735236Y-96986063D01*
X153691299Y-97030000D01*
X150443043Y-97030000D01*
X150339637Y-96875241D01*
X150139759Y-96675363D01*
X149904727Y-96518320D01*
X149643574Y-96410147D01*
X149366335Y-96355000D01*
X149083665Y-96355000D01*
X148806426Y-96410147D01*
X148545273Y-96518320D01*
X148310241Y-96675363D01*
X148110363Y-96875241D01*
X147953320Y-97110273D01*
X147845147Y-97371426D01*
X147790000Y-97648665D01*
X143669724Y-97648665D01*
X143638787Y-97439870D01*
X143543603Y-97173708D01*
X143476671Y-97048486D01*
X143232702Y-96976903D01*
X142419605Y-97790000D01*
X142060395Y-97790000D01*
X141247298Y-96976903D01*
X141003329Y-97048486D01*
X140882429Y-97303996D01*
X140813700Y-97578184D01*
X140799783Y-97860512D01*
X136080500Y-97860512D01*
X136080500Y-96797298D01*
X141426903Y-96797298D01*
X142240000Y-97610395D01*
X143053097Y-96797298D01*
X142981514Y-96553329D01*
X142726004Y-96432429D01*
X142451816Y-96363700D01*
X142169488Y-96349783D01*
X141889870Y-96391213D01*
X141623708Y-96486397D01*
X141498486Y-96553329D01*
X141426903Y-96797298D01*
X136080500Y-96797298D01*
X136080500Y-95440500D01*
X141065722Y-95440500D01*
X141125363Y-95529759D01*
X141325241Y-95729637D01*
X141560273Y-95886680D01*
X141821426Y-95994853D01*
X142098665Y-96050000D01*
X142381335Y-96050000D01*
X142658574Y-95994853D01*
X142919727Y-95886680D01*
X143154759Y-95729637D01*
X143354637Y-95529759D01*
X143414278Y-95440500D01*
X143803068Y-95440500D01*
X144000944Y-95638376D01*
X143980000Y-95743665D01*
X143980000Y-96026335D01*
X144035147Y-96303574D01*
X144143320Y-96564727D01*
X144300363Y-96799759D01*
X144500241Y-96999637D01*
X144735273Y-97156680D01*
X144996426Y-97264853D01*
X145273665Y-97320000D01*
X145556335Y-97320000D01*
X145833574Y-97264853D01*
X146094727Y-97156680D01*
X146329759Y-96999637D01*
X146529637Y-96799759D01*
X146686680Y-96564727D01*
X146794853Y-96303574D01*
X146850000Y-96026335D01*
X146850000Y-95743665D01*
X146794853Y-95466426D01*
X146686680Y-95205273D01*
X146529637Y-94970241D01*
X146329759Y-94770363D01*
X146094727Y-94613320D01*
X145833574Y-94505147D01*
X145556335Y-94450000D01*
X145273665Y-94450000D01*
X145168376Y-94470944D01*
X144757398Y-94059966D01*
X144731541Y-94028459D01*
X144605842Y-93925301D01*
X144462434Y-93848647D01*
X144306826Y-93801444D01*
X144185553Y-93789500D01*
X144185550Y-93789500D01*
X144145000Y-93785506D01*
X144104450Y-93789500D01*
X143414278Y-93789500D01*
X143354637Y-93700241D01*
X143154759Y-93500363D01*
X142919727Y-93343320D01*
X142658574Y-93235147D01*
X142381335Y-93180000D01*
X142098665Y-93180000D01*
X141821426Y-93235147D01*
X141560273Y-93343320D01*
X141325241Y-93500363D01*
X141125363Y-93700241D01*
X141065722Y-93789500D01*
X136080500Y-93789500D01*
X136080500Y-91797702D01*
X141426903Y-91797702D01*
X141498486Y-92041671D01*
X141753996Y-92162571D01*
X142028184Y-92231300D01*
X142310512Y-92245217D01*
X142590130Y-92203787D01*
X142856292Y-92108603D01*
X142981514Y-92041671D01*
X143053097Y-91797702D01*
X142240000Y-90984605D01*
X141426903Y-91797702D01*
X136080500Y-91797702D01*
X136080500Y-90875512D01*
X140799783Y-90875512D01*
X140841213Y-91155130D01*
X140936397Y-91421292D01*
X141003329Y-91546514D01*
X141247298Y-91618097D01*
X142060395Y-90805000D01*
X142419605Y-90805000D01*
X143232702Y-91618097D01*
X143476671Y-91546514D01*
X143597571Y-91291004D01*
X143666300Y-91016816D01*
X143680217Y-90734488D01*
X143638787Y-90454870D01*
X143543603Y-90188708D01*
X143476671Y-90063486D01*
X143232702Y-89991903D01*
X142419605Y-90805000D01*
X142060395Y-90805000D01*
X141247298Y-89991903D01*
X141003329Y-90063486D01*
X140882429Y-90318996D01*
X140813700Y-90593184D01*
X140799783Y-90875512D01*
X136080500Y-90875512D01*
X136080500Y-89812298D01*
X141426903Y-89812298D01*
X142240000Y-90625395D01*
X143053097Y-89812298D01*
X142981514Y-89568329D01*
X142726004Y-89447429D01*
X142451816Y-89378700D01*
X142169488Y-89364783D01*
X141889870Y-89406213D01*
X141623708Y-89501397D01*
X141498486Y-89568329D01*
X141426903Y-89812298D01*
X136080500Y-89812298D01*
X136080500Y-88455500D01*
X141065722Y-88455500D01*
X141125363Y-88544759D01*
X141325241Y-88744637D01*
X141560273Y-88901680D01*
X141821426Y-89009853D01*
X142098665Y-89065000D01*
X142381335Y-89065000D01*
X142658574Y-89009853D01*
X142919727Y-88901680D01*
X143154759Y-88744637D01*
X143354637Y-88544759D01*
X143414278Y-88455500D01*
X148050722Y-88455500D01*
X148110363Y-88544759D01*
X148310241Y-88744637D01*
X148545273Y-88901680D01*
X148806426Y-89009853D01*
X149083665Y-89065000D01*
X149366335Y-89065000D01*
X149643574Y-89009853D01*
X149904727Y-88901680D01*
X150139759Y-88744637D01*
X150339637Y-88544759D01*
X150496680Y-88309727D01*
X150604853Y-88048574D01*
X150660000Y-87771335D01*
X150660000Y-87488665D01*
X150604853Y-87211426D01*
X150496680Y-86950273D01*
X150339637Y-86715241D01*
X150139759Y-86515363D01*
X149904727Y-86358320D01*
X149643574Y-86250147D01*
X149366335Y-86195000D01*
X149083665Y-86195000D01*
X148806426Y-86250147D01*
X148545273Y-86358320D01*
X148310241Y-86515363D01*
X148110363Y-86715241D01*
X148050722Y-86804500D01*
X146364896Y-86804500D01*
X146529637Y-86639759D01*
X146686680Y-86404727D01*
X146794853Y-86143574D01*
X146850000Y-85866335D01*
X146850000Y-85583665D01*
X146794853Y-85306426D01*
X146686680Y-85045273D01*
X146529637Y-84810241D01*
X146329759Y-84610363D01*
X146094727Y-84453320D01*
X145833574Y-84345147D01*
X145556335Y-84290000D01*
X145273665Y-84290000D01*
X144996426Y-84345147D01*
X144735273Y-84453320D01*
X144500241Y-84610363D01*
X144300363Y-84810241D01*
X144143320Y-85045273D01*
X144035147Y-85306426D01*
X143980000Y-85583665D01*
X143980000Y-85866335D01*
X144035147Y-86143574D01*
X144143320Y-86404727D01*
X144300363Y-86639759D01*
X144465104Y-86804500D01*
X143414278Y-86804500D01*
X143354637Y-86715241D01*
X143154759Y-86515363D01*
X143065500Y-86455722D01*
X143065500Y-84994278D01*
X143154759Y-84934637D01*
X143354637Y-84734759D01*
X143511680Y-84499727D01*
X143619853Y-84238574D01*
X143675000Y-83961335D01*
X143675000Y-83678665D01*
X143619853Y-83401426D01*
X143511680Y-83140273D01*
X143354637Y-82905241D01*
X143154759Y-82705363D01*
X142919727Y-82548320D01*
X142658574Y-82440147D01*
X142381335Y-82385000D01*
X142098665Y-82385000D01*
X141821426Y-82440147D01*
X141560273Y-82548320D01*
X141325241Y-82705363D01*
X141125363Y-82905241D01*
X140968320Y-83140273D01*
X140860147Y-83401426D01*
X140805000Y-83678665D01*
X140805000Y-83961335D01*
X140860147Y-84238574D01*
X140968320Y-84499727D01*
X141125363Y-84734759D01*
X141325241Y-84934637D01*
X141414500Y-84994278D01*
X141414501Y-86455722D01*
X141325241Y-86515363D01*
X141125363Y-86715241D01*
X141065722Y-86804500D01*
X136080500Y-86804500D01*
X136080500Y-81320550D01*
X136084494Y-81280000D01*
X136076619Y-81200041D01*
X136068556Y-81118174D01*
X136021353Y-80962566D01*
X136001973Y-80926309D01*
X135944699Y-80819157D01*
X135867392Y-80724958D01*
X135867389Y-80724955D01*
X135841541Y-80693459D01*
X135810044Y-80667610D01*
X135646099Y-80503665D01*
X140805000Y-80503665D01*
X140805000Y-80786335D01*
X140860147Y-81063574D01*
X140968320Y-81324727D01*
X141125363Y-81559759D01*
X141325241Y-81759637D01*
X141560273Y-81916680D01*
X141821426Y-82024853D01*
X142098665Y-82080000D01*
X142381335Y-82080000D01*
X142658574Y-82024853D01*
X142919727Y-81916680D01*
X143154759Y-81759637D01*
X143354637Y-81559759D01*
X143511680Y-81324727D01*
X143619853Y-81063574D01*
X143675000Y-80786335D01*
X143675000Y-80503665D01*
X143619853Y-80226426D01*
X143511680Y-79965273D01*
X143354637Y-79730241D01*
X143154759Y-79530363D01*
X142919727Y-79373320D01*
X142658574Y-79265147D01*
X142381335Y-79210000D01*
X142098665Y-79210000D01*
X141821426Y-79265147D01*
X141560273Y-79373320D01*
X141325241Y-79530363D01*
X141125363Y-79730241D01*
X140968320Y-79965273D01*
X140860147Y-80226426D01*
X140805000Y-80503665D01*
X135646099Y-80503665D01*
X135232397Y-80089965D01*
X135206541Y-80058459D01*
X135080842Y-79955301D01*
X134937434Y-79878647D01*
X134781826Y-79831444D01*
X134660553Y-79819500D01*
X134660550Y-79819500D01*
X134620000Y-79815506D01*
X134579450Y-79819500D01*
X133254278Y-79819500D01*
X133194637Y-79730241D01*
X132994759Y-79530363D01*
X132759727Y-79373320D01*
X132498574Y-79265147D01*
X132221335Y-79210000D01*
X131938665Y-79210000D01*
X131661426Y-79265147D01*
X131400273Y-79373320D01*
X131165241Y-79530363D01*
X130965363Y-79730241D01*
X130905722Y-79819500D01*
X130483908Y-79819500D01*
X130324608Y-79625392D01*
X130106101Y-79446068D01*
X129856808Y-79312818D01*
X129724414Y-79272657D01*
X129718556Y-79213174D01*
X129671353Y-79057566D01*
X129597050Y-78918556D01*
X129594699Y-78914157D01*
X129517391Y-78819958D01*
X129491541Y-78788459D01*
X129460039Y-78762606D01*
X128598414Y-77900982D01*
X128749637Y-77749759D01*
X128906680Y-77514727D01*
X129014853Y-77253574D01*
X129070000Y-76976335D01*
X129070000Y-76693665D01*
X129014853Y-76416426D01*
X128906680Y-76155273D01*
X128749637Y-75920241D01*
X128549759Y-75720363D01*
X128314727Y-75563320D01*
X128053574Y-75455147D01*
X127776335Y-75400000D01*
X127493665Y-75400000D01*
X127216426Y-75455147D01*
X126955273Y-75563320D01*
X126720241Y-75720363D01*
X126520363Y-75920241D01*
X126363320Y-76155273D01*
X126255147Y-76416426D01*
X126200000Y-76693665D01*
X126200000Y-76976335D01*
X126255147Y-77253574D01*
X126363320Y-77514727D01*
X126520363Y-77749759D01*
X126720241Y-77949637D01*
X126809501Y-78009278D01*
X126809501Y-78064440D01*
X126805506Y-78105000D01*
X126821445Y-78266826D01*
X126868647Y-78422433D01*
X126945301Y-78565842D01*
X126980431Y-78608647D01*
X127048460Y-78691541D01*
X127079961Y-78717393D01*
X127772153Y-79409585D01*
X127703899Y-79446068D01*
X127485392Y-79625392D01*
X127306068Y-79843899D01*
X127172818Y-80093192D01*
X127090764Y-80363691D01*
X127063057Y-80645000D01*
X127090764Y-80926309D01*
X127172818Y-81196808D01*
X127306068Y-81446101D01*
X127485392Y-81664608D01*
X127703899Y-81843932D01*
X127836858Y-81915000D01*
X127703899Y-81986068D01*
X127485392Y-82165392D01*
X127306068Y-82383899D01*
X127172818Y-82633192D01*
X127090764Y-82903691D01*
X127063057Y-83185000D01*
X127090764Y-83466309D01*
X127172818Y-83736808D01*
X127306068Y-83986101D01*
X127485392Y-84204608D01*
X127703899Y-84383932D01*
X127836858Y-84455000D01*
X127703899Y-84526068D01*
X127485392Y-84705392D01*
X127306068Y-84923899D01*
X127172818Y-85173192D01*
X127090764Y-85443691D01*
X127063057Y-85725000D01*
X127090764Y-86006309D01*
X127172818Y-86276808D01*
X127306068Y-86526101D01*
X127485392Y-86744608D01*
X127703899Y-86923932D01*
X127836858Y-86995000D01*
X127703899Y-87066068D01*
X127485392Y-87245392D01*
X127306068Y-87463899D01*
X127172818Y-87713192D01*
X127090764Y-87983691D01*
X127063057Y-88265000D01*
X127090764Y-88546309D01*
X127172818Y-88816808D01*
X127306068Y-89066101D01*
X127485392Y-89284608D01*
X127703899Y-89463932D01*
X127836858Y-89535000D01*
X127703899Y-89606068D01*
X127485392Y-89785392D01*
X127306068Y-90003899D01*
X127172818Y-90253192D01*
X127090764Y-90523691D01*
X127063057Y-90805000D01*
X127090764Y-91086309D01*
X127172818Y-91356808D01*
X127306068Y-91606101D01*
X127485392Y-91824608D01*
X127703899Y-92003932D01*
X127836858Y-92075000D01*
X127703899Y-92146068D01*
X127485392Y-92325392D01*
X127306068Y-92543899D01*
X127172818Y-92793192D01*
X127090764Y-93063691D01*
X127063057Y-93345000D01*
X127090764Y-93626309D01*
X127172818Y-93896808D01*
X127306068Y-94146101D01*
X127485392Y-94364608D01*
X127703899Y-94543932D01*
X127836858Y-94615000D01*
X127703899Y-94686068D01*
X127485392Y-94865392D01*
X127306068Y-95083899D01*
X127172818Y-95333192D01*
X127090764Y-95603691D01*
X127063057Y-95885000D01*
X127090764Y-96166309D01*
X127172818Y-96436808D01*
X127306068Y-96686101D01*
X127485392Y-96904608D01*
X127703899Y-97083932D01*
X127953192Y-97217182D01*
X128223691Y-97299236D01*
X128434508Y-97320000D01*
X129375492Y-97320000D01*
X129586309Y-97299236D01*
X129856808Y-97217182D01*
X130106101Y-97083932D01*
X130324608Y-96904608D01*
X130503932Y-96686101D01*
X130637182Y-96436808D01*
X130719236Y-96166309D01*
X130746943Y-95885000D01*
X130719236Y-95603691D01*
X130637182Y-95333192D01*
X130503932Y-95083899D01*
X130324608Y-94865392D01*
X130106101Y-94686068D01*
X129973142Y-94615000D01*
X130106101Y-94543932D01*
X130191721Y-94473665D01*
X130645000Y-94473665D01*
X130645000Y-94756335D01*
X130700147Y-95033574D01*
X130808320Y-95294727D01*
X130965363Y-95529759D01*
X131165241Y-95729637D01*
X131400273Y-95886680D01*
X131661426Y-95994853D01*
X131938665Y-96050000D01*
X132221335Y-96050000D01*
X132498574Y-95994853D01*
X132759727Y-95886680D01*
X132994759Y-95729637D01*
X133194637Y-95529759D01*
X133351680Y-95294727D01*
X133459853Y-95033574D01*
X133515000Y-94756335D01*
X133515000Y-94473665D01*
X133459853Y-94196426D01*
X133351680Y-93935273D01*
X133194637Y-93700241D01*
X132994759Y-93500363D01*
X132759727Y-93343320D01*
X132498574Y-93235147D01*
X132221335Y-93180000D01*
X131938665Y-93180000D01*
X131661426Y-93235147D01*
X131400273Y-93343320D01*
X131165241Y-93500363D01*
X130965363Y-93700241D01*
X130808320Y-93935273D01*
X130700147Y-94196426D01*
X130645000Y-94473665D01*
X130191721Y-94473665D01*
X130324608Y-94364608D01*
X130503932Y-94146101D01*
X130637182Y-93896808D01*
X130719236Y-93626309D01*
X130746943Y-93345000D01*
X130719236Y-93063691D01*
X130637182Y-92793192D01*
X130503932Y-92543899D01*
X130324608Y-92325392D01*
X130106101Y-92146068D01*
X129973142Y-92075000D01*
X130106101Y-92003932D01*
X130324608Y-91824608D01*
X130503932Y-91606101D01*
X130637182Y-91356808D01*
X130691217Y-91178678D01*
X130700147Y-91223574D01*
X130808320Y-91484727D01*
X130965363Y-91719759D01*
X131165241Y-91919637D01*
X131400273Y-92076680D01*
X131661426Y-92184853D01*
X131938665Y-92240000D01*
X132221335Y-92240000D01*
X132498574Y-92184853D01*
X132759727Y-92076680D01*
X132994759Y-91919637D01*
X133194637Y-91719759D01*
X133351680Y-91484727D01*
X133459853Y-91223574D01*
X133515000Y-90946335D01*
X133515000Y-90663665D01*
X133459853Y-90386426D01*
X133351680Y-90125273D01*
X133194637Y-89890241D01*
X132994759Y-89690363D01*
X132759727Y-89533320D01*
X132498574Y-89425147D01*
X132221335Y-89370000D01*
X131938665Y-89370000D01*
X131661426Y-89425147D01*
X131400273Y-89533320D01*
X131165241Y-89690363D01*
X130965363Y-89890241D01*
X130808320Y-90125273D01*
X130700147Y-90386426D01*
X130691217Y-90431322D01*
X130637182Y-90253192D01*
X130503932Y-90003899D01*
X130324608Y-89785392D01*
X130106101Y-89606068D01*
X129973142Y-89535000D01*
X130106101Y-89463932D01*
X130324608Y-89284608D01*
X130503932Y-89066101D01*
X130637182Y-88816808D01*
X130719236Y-88546309D01*
X130746943Y-88265000D01*
X130733575Y-88129277D01*
X130808320Y-88309727D01*
X130965363Y-88544759D01*
X131165241Y-88744637D01*
X131400273Y-88901680D01*
X131661426Y-89009853D01*
X131938665Y-89065000D01*
X132221335Y-89065000D01*
X132498574Y-89009853D01*
X132759727Y-88901680D01*
X132994759Y-88744637D01*
X133194637Y-88544759D01*
X133351680Y-88309727D01*
X133459853Y-88048574D01*
X133515000Y-87771335D01*
X133515000Y-87488665D01*
X133459853Y-87211426D01*
X133351680Y-86950273D01*
X133194637Y-86715241D01*
X132994759Y-86515363D01*
X132759727Y-86358320D01*
X132498574Y-86250147D01*
X132221335Y-86195000D01*
X131938665Y-86195000D01*
X131661426Y-86250147D01*
X131400273Y-86358320D01*
X131165241Y-86515363D01*
X130965363Y-86715241D01*
X130808320Y-86950273D01*
X130700147Y-87211426D01*
X130645000Y-87488665D01*
X130645000Y-87738965D01*
X130637182Y-87713192D01*
X130503932Y-87463899D01*
X130324608Y-87245392D01*
X130106101Y-87066068D01*
X129973142Y-86995000D01*
X130106101Y-86923932D01*
X130324608Y-86744608D01*
X130503932Y-86526101D01*
X130637182Y-86276808D01*
X130719236Y-86006309D01*
X130746943Y-85725000D01*
X130719236Y-85443691D01*
X130637182Y-85173192D01*
X130503932Y-84923899D01*
X130324608Y-84705392D01*
X130106101Y-84526068D01*
X129973142Y-84455000D01*
X130106101Y-84383932D01*
X130324608Y-84204608D01*
X130503932Y-83986101D01*
X130637182Y-83736808D01*
X130645000Y-83711035D01*
X130645000Y-83961335D01*
X130700147Y-84238574D01*
X130808320Y-84499727D01*
X130965363Y-84734759D01*
X131165241Y-84934637D01*
X131400273Y-85091680D01*
X131661426Y-85199853D01*
X131938665Y-85255000D01*
X132221335Y-85255000D01*
X132498574Y-85199853D01*
X132759727Y-85091680D01*
X132994759Y-84934637D01*
X133194637Y-84734759D01*
X133351680Y-84499727D01*
X133459853Y-84238574D01*
X133515000Y-83961335D01*
X133515000Y-83678665D01*
X133459853Y-83401426D01*
X133351680Y-83140273D01*
X133194637Y-82905241D01*
X132994759Y-82705363D01*
X132759727Y-82548320D01*
X132498574Y-82440147D01*
X132221335Y-82385000D01*
X131938665Y-82385000D01*
X131661426Y-82440147D01*
X131400273Y-82548320D01*
X131165241Y-82705363D01*
X130965363Y-82905241D01*
X130808320Y-83140273D01*
X130733575Y-83320723D01*
X130746943Y-83185000D01*
X130719236Y-82903691D01*
X130637182Y-82633192D01*
X130503932Y-82383899D01*
X130324608Y-82165392D01*
X130106101Y-81986068D01*
X129973142Y-81915000D01*
X130106101Y-81843932D01*
X130324608Y-81664608D01*
X130483908Y-81470500D01*
X130905722Y-81470500D01*
X130965363Y-81559759D01*
X131165241Y-81759637D01*
X131400273Y-81916680D01*
X131661426Y-82024853D01*
X131938665Y-82080000D01*
X132221335Y-82080000D01*
X132498574Y-82024853D01*
X132759727Y-81916680D01*
X132994759Y-81759637D01*
X133194637Y-81559759D01*
X133254278Y-81470500D01*
X134278067Y-81470500D01*
X134429501Y-81621934D01*
X134429500Y-87589447D01*
X134425506Y-87630000D01*
X134429501Y-87670563D01*
X134429500Y-94574447D01*
X134425506Y-94615000D01*
X134429501Y-94655563D01*
X134429500Y-98718067D01*
X134278067Y-98869500D01*
X133029896Y-98869500D01*
X133194637Y-98704759D01*
X133351680Y-98469727D01*
X133459853Y-98208574D01*
X133515000Y-97931335D01*
X133515000Y-97648665D01*
X133459853Y-97371426D01*
X133351680Y-97110273D01*
X133194637Y-96875241D01*
X132994759Y-96675363D01*
X132759727Y-96518320D01*
X132498574Y-96410147D01*
X132221335Y-96355000D01*
X131938665Y-96355000D01*
X131661426Y-96410147D01*
X131400273Y-96518320D01*
X131165241Y-96675363D01*
X130965363Y-96875241D01*
X130808320Y-97110273D01*
X130700147Y-97371426D01*
X130645000Y-97648665D01*
X130645000Y-97931335D01*
X130700147Y-98208574D01*
X130808320Y-98469727D01*
X130965363Y-98704759D01*
X131130104Y-98869500D01*
X118963072Y-98869500D01*
X118963072Y-98845000D01*
X118950812Y-98720518D01*
X118914502Y-98600820D01*
X118855537Y-98490506D01*
X118776185Y-98393815D01*
X118679494Y-98314463D01*
X118569180Y-98255498D01*
X118449482Y-98219188D01*
X118325000Y-98206928D01*
X116625000Y-98206928D01*
X116500518Y-98219188D01*
X116380820Y-98255498D01*
X116270506Y-98314463D01*
X116173815Y-98393815D01*
X116094463Y-98490506D01*
X116035498Y-98600820D01*
X115999188Y-98720518D01*
X115986928Y-98845000D01*
X115595000Y-98845000D01*
X115595000Y-96234039D01*
X119493096Y-96234039D01*
X119510633Y-96316818D01*
X119621285Y-96576646D01*
X119780500Y-96809895D01*
X119982161Y-97007601D01*
X120218517Y-97162166D01*
X120480486Y-97267650D01*
X120758000Y-97320000D01*
X121158000Y-97320000D01*
X121158000Y-96012000D01*
X121412000Y-96012000D01*
X121412000Y-97320000D01*
X121812000Y-97320000D01*
X122089514Y-97267650D01*
X122351483Y-97162166D01*
X122587839Y-97007601D01*
X122789500Y-96809895D01*
X122948715Y-96576646D01*
X123059367Y-96316818D01*
X123076904Y-96234039D01*
X122954915Y-96012000D01*
X121412000Y-96012000D01*
X121158000Y-96012000D01*
X119615085Y-96012000D01*
X119493096Y-96234039D01*
X115595000Y-96234039D01*
X115595000Y-83185000D01*
X119443057Y-83185000D01*
X119470764Y-83466309D01*
X119552818Y-83736808D01*
X119686068Y-83986101D01*
X119865392Y-84204608D01*
X120083899Y-84383932D01*
X120216858Y-84455000D01*
X120083899Y-84526068D01*
X119865392Y-84705392D01*
X119686068Y-84923899D01*
X119552818Y-85173192D01*
X119470764Y-85443691D01*
X119443057Y-85725000D01*
X119470764Y-86006309D01*
X119552818Y-86276808D01*
X119686068Y-86526101D01*
X119865392Y-86744608D01*
X120083899Y-86923932D01*
X120216858Y-86995000D01*
X120083899Y-87066068D01*
X119865392Y-87245392D01*
X119686068Y-87463899D01*
X119552818Y-87713192D01*
X119470764Y-87983691D01*
X119443057Y-88265000D01*
X119470764Y-88546309D01*
X119552818Y-88816808D01*
X119686068Y-89066101D01*
X119865392Y-89284608D01*
X120083899Y-89463932D01*
X120216858Y-89535000D01*
X120083899Y-89606068D01*
X119865392Y-89785392D01*
X119686068Y-90003899D01*
X119552818Y-90253192D01*
X119470764Y-90523691D01*
X119443057Y-90805000D01*
X119470764Y-91086309D01*
X119552818Y-91356808D01*
X119686068Y-91606101D01*
X119865392Y-91824608D01*
X120083899Y-92003932D01*
X120216858Y-92075000D01*
X120083899Y-92146068D01*
X119865392Y-92325392D01*
X119686068Y-92543899D01*
X119552818Y-92793192D01*
X119470764Y-93063691D01*
X119443057Y-93345000D01*
X119470764Y-93626309D01*
X119552818Y-93896808D01*
X119686068Y-94146101D01*
X119865392Y-94364608D01*
X120083899Y-94543932D01*
X120211741Y-94612265D01*
X119982161Y-94762399D01*
X119780500Y-94960105D01*
X119621285Y-95193354D01*
X119510633Y-95453182D01*
X119493096Y-95535961D01*
X119615085Y-95758000D01*
X121158000Y-95758000D01*
X121158000Y-95738000D01*
X121412000Y-95738000D01*
X121412000Y-95758000D01*
X122954915Y-95758000D01*
X123076904Y-95535961D01*
X123059367Y-95453182D01*
X122948715Y-95193354D01*
X122789500Y-94960105D01*
X122587839Y-94762399D01*
X122358259Y-94612265D01*
X122486101Y-94543932D01*
X122704608Y-94364608D01*
X122883932Y-94146101D01*
X123017182Y-93896808D01*
X123099236Y-93626309D01*
X123126943Y-93345000D01*
X123099236Y-93063691D01*
X123017182Y-92793192D01*
X122883932Y-92543899D01*
X122704608Y-92325392D01*
X122486101Y-92146068D01*
X122353142Y-92075000D01*
X122486101Y-92003932D01*
X122704608Y-91824608D01*
X122883932Y-91606101D01*
X123017182Y-91356808D01*
X123099236Y-91086309D01*
X123126943Y-90805000D01*
X123099236Y-90523691D01*
X123017182Y-90253192D01*
X122883932Y-90003899D01*
X122704608Y-89785392D01*
X122486101Y-89606068D01*
X122353142Y-89535000D01*
X122486101Y-89463932D01*
X122704608Y-89284608D01*
X122883932Y-89066101D01*
X123017182Y-88816808D01*
X123099236Y-88546309D01*
X123126943Y-88265000D01*
X123099236Y-87983691D01*
X123017182Y-87713192D01*
X122883932Y-87463899D01*
X122704608Y-87245392D01*
X122486101Y-87066068D01*
X122353142Y-86995000D01*
X122486101Y-86923932D01*
X122704608Y-86744608D01*
X122883932Y-86526101D01*
X123017182Y-86276808D01*
X123099236Y-86006309D01*
X123126943Y-85725000D01*
X123099236Y-85443691D01*
X123017182Y-85173192D01*
X122883932Y-84923899D01*
X122704608Y-84705392D01*
X122486101Y-84526068D01*
X122353142Y-84455000D01*
X122486101Y-84383932D01*
X122704608Y-84204608D01*
X122883932Y-83986101D01*
X123017182Y-83736808D01*
X123099236Y-83466309D01*
X123126943Y-83185000D01*
X123099236Y-82903691D01*
X123017182Y-82633192D01*
X122883932Y-82383899D01*
X122704608Y-82165392D01*
X122591518Y-82072581D01*
X122609482Y-82070812D01*
X122729180Y-82034502D01*
X122839494Y-81975537D01*
X122936185Y-81896185D01*
X123015537Y-81799494D01*
X123074502Y-81689180D01*
X123110812Y-81569482D01*
X123123072Y-81445000D01*
X123123072Y-79845000D01*
X123110812Y-79720518D01*
X123074502Y-79600820D01*
X123015537Y-79490506D01*
X122936185Y-79393815D01*
X122839494Y-79314463D01*
X122729180Y-79255498D01*
X122609482Y-79219188D01*
X122485000Y-79206928D01*
X120085000Y-79206928D01*
X119960518Y-79219188D01*
X119840820Y-79255498D01*
X119730506Y-79314463D01*
X119633815Y-79393815D01*
X119554463Y-79490506D01*
X119495498Y-79600820D01*
X119459188Y-79720518D01*
X119446928Y-79845000D01*
X119446928Y-81445000D01*
X119459188Y-81569482D01*
X119495498Y-81689180D01*
X119554463Y-81799494D01*
X119633815Y-81896185D01*
X119730506Y-81975537D01*
X119840820Y-82034502D01*
X119960518Y-82070812D01*
X119978482Y-82072581D01*
X119865392Y-82165392D01*
X119686068Y-82383899D01*
X119552818Y-82633192D01*
X119470764Y-82903691D01*
X119443057Y-83185000D01*
X115595000Y-83185000D01*
X115595000Y-77827702D01*
X121821903Y-77827702D01*
X121893486Y-78071671D01*
X122148996Y-78192571D01*
X122423184Y-78261300D01*
X122705512Y-78275217D01*
X122985130Y-78233787D01*
X123251292Y-78138603D01*
X123376514Y-78071671D01*
X123448097Y-77827702D01*
X122635000Y-77014605D01*
X121821903Y-77827702D01*
X115595000Y-77827702D01*
X115595000Y-76905512D01*
X121194783Y-76905512D01*
X121236213Y-77185130D01*
X121331397Y-77451292D01*
X121398329Y-77576514D01*
X121642298Y-77648097D01*
X122455395Y-76835000D01*
X122814605Y-76835000D01*
X123627702Y-77648097D01*
X123871671Y-77576514D01*
X123992571Y-77321004D01*
X124061300Y-77046816D01*
X124075217Y-76764488D01*
X124033787Y-76484870D01*
X123938603Y-76218708D01*
X123871671Y-76093486D01*
X123627702Y-76021903D01*
X122814605Y-76835000D01*
X122455395Y-76835000D01*
X121642298Y-76021903D01*
X121398329Y-76093486D01*
X121277429Y-76348996D01*
X121208700Y-76623184D01*
X121194783Y-76905512D01*
X115595000Y-76905512D01*
X115595000Y-75842298D01*
X121821903Y-75842298D01*
X122635000Y-76655395D01*
X123448097Y-75842298D01*
X123376514Y-75598329D01*
X123121004Y-75477429D01*
X122846816Y-75408700D01*
X122564488Y-75394783D01*
X122284870Y-75436213D01*
X122018708Y-75531397D01*
X121893486Y-75598329D01*
X121821903Y-75842298D01*
X115595000Y-75842298D01*
X115595000Y-71787279D01*
X115622668Y-71505099D01*
X116360000Y-71505099D01*
X116360000Y-71974903D01*
X116451654Y-72435680D01*
X116631440Y-72869722D01*
X116892450Y-73260350D01*
X117224651Y-73592551D01*
X117615279Y-73853561D01*
X118049321Y-74033347D01*
X118510098Y-74125001D01*
X118979902Y-74125001D01*
X119440679Y-74033347D01*
X119874721Y-73853561D01*
X120112023Y-73695000D01*
X133766928Y-73695000D01*
X133766928Y-74895000D01*
X133783992Y-75068254D01*
X133834528Y-75234850D01*
X133916595Y-75388386D01*
X134027038Y-75522962D01*
X134161614Y-75633405D01*
X134315150Y-75715472D01*
X134481746Y-75766008D01*
X134655000Y-75783072D01*
X135855000Y-75783072D01*
X136028254Y-75766008D01*
X136194850Y-75715472D01*
X136348386Y-75633405D01*
X136482962Y-75522962D01*
X136593405Y-75388386D01*
X136661285Y-75261392D01*
X136848368Y-75448475D01*
X137091589Y-75610990D01*
X137361842Y-75722932D01*
X137648740Y-75780000D01*
X137941260Y-75780000D01*
X138228158Y-75722932D01*
X138498411Y-75610990D01*
X138741632Y-75448475D01*
X138948475Y-75241632D01*
X139065000Y-75067240D01*
X139181525Y-75241632D01*
X139388368Y-75448475D01*
X139631589Y-75610990D01*
X139901842Y-75722932D01*
X140188740Y-75780000D01*
X140481260Y-75780000D01*
X140768158Y-75722932D01*
X141038411Y-75610990D01*
X141281632Y-75448475D01*
X141406710Y-75323397D01*
X142026208Y-75323397D01*
X142103843Y-75572472D01*
X142367883Y-75698371D01*
X142651411Y-75770339D01*
X142943531Y-75785611D01*
X143233019Y-75743599D01*
X143508747Y-75645919D01*
X143646157Y-75572472D01*
X143723792Y-75323397D01*
X144566208Y-75323397D01*
X144643843Y-75572472D01*
X144907883Y-75698371D01*
X145191411Y-75770339D01*
X145483531Y-75785611D01*
X145773019Y-75743599D01*
X146048747Y-75645919D01*
X146186157Y-75572472D01*
X146263792Y-75323397D01*
X145415000Y-74474605D01*
X144566208Y-75323397D01*
X143723792Y-75323397D01*
X142875000Y-74474605D01*
X142026208Y-75323397D01*
X141406710Y-75323397D01*
X141488475Y-75241632D01*
X141604311Y-75068271D01*
X141846603Y-75143792D01*
X142695395Y-74295000D01*
X143054605Y-74295000D01*
X143903397Y-75143792D01*
X144145000Y-75068486D01*
X144386603Y-75143792D01*
X145235395Y-74295000D01*
X144386603Y-73446208D01*
X144145000Y-73521514D01*
X143903397Y-73446208D01*
X143054605Y-74295000D01*
X142695395Y-74295000D01*
X141846603Y-73446208D01*
X141604311Y-73521729D01*
X141488475Y-73348368D01*
X141281632Y-73141525D01*
X141107240Y-73025000D01*
X141281632Y-72908475D01*
X141488475Y-72701632D01*
X141605000Y-72527240D01*
X141721525Y-72701632D01*
X141928368Y-72908475D01*
X142101729Y-73024311D01*
X142026208Y-73266603D01*
X142875000Y-74115395D01*
X143723792Y-73266603D01*
X143648271Y-73024311D01*
X143821632Y-72908475D01*
X144028475Y-72701632D01*
X144145000Y-72527240D01*
X144261525Y-72701632D01*
X144468368Y-72908475D01*
X144641729Y-73024311D01*
X144566208Y-73266603D01*
X145415000Y-74115395D01*
X146263792Y-73266603D01*
X146188271Y-73024311D01*
X146361632Y-72908475D01*
X146568475Y-72701632D01*
X146685000Y-72527240D01*
X146801525Y-72701632D01*
X147008368Y-72908475D01*
X147182760Y-73025000D01*
X147008368Y-73141525D01*
X146801525Y-73348368D01*
X146685689Y-73521729D01*
X146443397Y-73446208D01*
X145594605Y-74295000D01*
X146443397Y-75143792D01*
X146685689Y-75068271D01*
X146801525Y-75241632D01*
X147008368Y-75448475D01*
X147251589Y-75610990D01*
X147521842Y-75722932D01*
X147808740Y-75780000D01*
X148101260Y-75780000D01*
X148388158Y-75722932D01*
X148658411Y-75610990D01*
X148901632Y-75448475D01*
X149108475Y-75241632D01*
X149225000Y-75067240D01*
X149341525Y-75241632D01*
X149548368Y-75448475D01*
X149791589Y-75610990D01*
X150061842Y-75722932D01*
X150348740Y-75780000D01*
X150641260Y-75780000D01*
X150928158Y-75722932D01*
X151198411Y-75610990D01*
X151441632Y-75448475D01*
X151648475Y-75241632D01*
X151765000Y-75067240D01*
X151881525Y-75241632D01*
X152088368Y-75448475D01*
X152331589Y-75610990D01*
X152601842Y-75722932D01*
X152888740Y-75780000D01*
X153181260Y-75780000D01*
X153468158Y-75722932D01*
X153738411Y-75610990D01*
X153981632Y-75448475D01*
X154188475Y-75241632D01*
X154350990Y-74998411D01*
X154462932Y-74728158D01*
X154520000Y-74441260D01*
X154520000Y-74148740D01*
X154462932Y-73861842D01*
X154350990Y-73591589D01*
X154188475Y-73348368D01*
X153981632Y-73141525D01*
X153807240Y-73025000D01*
X153981632Y-72908475D01*
X154188475Y-72701632D01*
X154350990Y-72458411D01*
X154462932Y-72188158D01*
X154520000Y-71901260D01*
X154520000Y-71608740D01*
X154502368Y-71520098D01*
X167160000Y-71520098D01*
X167160000Y-71989902D01*
X167251654Y-72450679D01*
X167431440Y-72884721D01*
X167692450Y-73275349D01*
X168024651Y-73607550D01*
X168415279Y-73868560D01*
X168849321Y-74048346D01*
X169310098Y-74140000D01*
X169779902Y-74140000D01*
X170240679Y-74048346D01*
X170674721Y-73868560D01*
X171065349Y-73607550D01*
X171397550Y-73275349D01*
X171658560Y-72884721D01*
X171838346Y-72450679D01*
X171930000Y-71989902D01*
X171930000Y-71520098D01*
X171838346Y-71059321D01*
X171658560Y-70625279D01*
X171397550Y-70234651D01*
X171065349Y-69902450D01*
X170674721Y-69641440D01*
X170240679Y-69461654D01*
X169779902Y-69370000D01*
X169310098Y-69370000D01*
X168849321Y-69461654D01*
X168415279Y-69641440D01*
X168024651Y-69902450D01*
X167692450Y-70234651D01*
X167431440Y-70625279D01*
X167251654Y-71059321D01*
X167160000Y-71520098D01*
X154502368Y-71520098D01*
X154462932Y-71321842D01*
X154350990Y-71051589D01*
X154188475Y-70808368D01*
X153981632Y-70601525D01*
X153738411Y-70439010D01*
X153468158Y-70327068D01*
X153181260Y-70270000D01*
X152888740Y-70270000D01*
X152601842Y-70327068D01*
X152331589Y-70439010D01*
X152088368Y-70601525D01*
X151881525Y-70808368D01*
X151765000Y-70982760D01*
X151648475Y-70808368D01*
X151441632Y-70601525D01*
X151198411Y-70439010D01*
X150928158Y-70327068D01*
X150641260Y-70270000D01*
X150348740Y-70270000D01*
X150061842Y-70327068D01*
X149791589Y-70439010D01*
X149548368Y-70601525D01*
X149341525Y-70808368D01*
X149225000Y-70982760D01*
X149108475Y-70808368D01*
X148901632Y-70601525D01*
X148658411Y-70439010D01*
X148388158Y-70327068D01*
X148101260Y-70270000D01*
X147808740Y-70270000D01*
X147521842Y-70327068D01*
X147251589Y-70439010D01*
X147008368Y-70601525D01*
X146801525Y-70808368D01*
X146685000Y-70982760D01*
X146568475Y-70808368D01*
X146361632Y-70601525D01*
X146118411Y-70439010D01*
X145848158Y-70327068D01*
X145561260Y-70270000D01*
X145268740Y-70270000D01*
X144981842Y-70327068D01*
X144711589Y-70439010D01*
X144468368Y-70601525D01*
X144261525Y-70808368D01*
X144145000Y-70982760D01*
X144028475Y-70808368D01*
X143821632Y-70601525D01*
X143578411Y-70439010D01*
X143308158Y-70327068D01*
X143021260Y-70270000D01*
X142728740Y-70270000D01*
X142441842Y-70327068D01*
X142171589Y-70439010D01*
X141928368Y-70601525D01*
X141721525Y-70808368D01*
X141605000Y-70982760D01*
X141488475Y-70808368D01*
X141281632Y-70601525D01*
X141038411Y-70439010D01*
X140768158Y-70327068D01*
X140481260Y-70270000D01*
X140188740Y-70270000D01*
X139901842Y-70327068D01*
X139631589Y-70439010D01*
X139388368Y-70601525D01*
X139181525Y-70808368D01*
X139065000Y-70982760D01*
X138948475Y-70808368D01*
X138741632Y-70601525D01*
X138498411Y-70439010D01*
X138228158Y-70327068D01*
X137941260Y-70270000D01*
X137648740Y-70270000D01*
X137361842Y-70327068D01*
X137091589Y-70439010D01*
X136848368Y-70601525D01*
X136641525Y-70808368D01*
X136525000Y-70982760D01*
X136408475Y-70808368D01*
X136201632Y-70601525D01*
X135958411Y-70439010D01*
X135688158Y-70327068D01*
X135401260Y-70270000D01*
X135108740Y-70270000D01*
X134821842Y-70327068D01*
X134551589Y-70439010D01*
X134308368Y-70601525D01*
X134101525Y-70808368D01*
X133939010Y-71051589D01*
X133827068Y-71321842D01*
X133770000Y-71608740D01*
X133770000Y-71901260D01*
X133827068Y-72188158D01*
X133939010Y-72458411D01*
X134101525Y-72701632D01*
X134288608Y-72888715D01*
X134161614Y-72956595D01*
X134027038Y-73067038D01*
X133916595Y-73201614D01*
X133834528Y-73355150D01*
X133783992Y-73521746D01*
X133766928Y-73695000D01*
X120112023Y-73695000D01*
X120265349Y-73592551D01*
X120597550Y-73260350D01*
X120858560Y-72869722D01*
X121038346Y-72435680D01*
X121130000Y-71974903D01*
X121130000Y-71505099D01*
X121038346Y-71044322D01*
X120858560Y-70610280D01*
X120597550Y-70219652D01*
X120265349Y-69887451D01*
X119874721Y-69626441D01*
X119440679Y-69446655D01*
X118979902Y-69355001D01*
X118510098Y-69355001D01*
X118049321Y-69446655D01*
X117615279Y-69626441D01*
X117224651Y-69887451D01*
X116892450Y-70219652D01*
X116631440Y-70610280D01*
X116451654Y-71044322D01*
X116360000Y-71505099D01*
X115622668Y-71505099D01*
X115658096Y-71143778D01*
X115835606Y-70555836D01*
X116123937Y-70013564D01*
X116512094Y-69537636D01*
X116985314Y-69146155D01*
X117525552Y-68854049D01*
X118112244Y-68672437D01*
X118753879Y-68605000D01*
X169512721Y-68605000D01*
X170156222Y-68668096D01*
G37*
G04 #@! TD.AperFunction*
M02*
