G04 #@! TF.GenerationSoftware,KiCad,Pcbnew,(5.1.8)-1*
G04 #@! TF.CreationDate,2024-06-18T03:57:33+02:00*
G04 #@! TF.ProjectId,Gameport,47616d65-706f-4727-942e-6b696361645f,rev?*
G04 #@! TF.SameCoordinates,Original*
G04 #@! TF.FileFunction,Copper,L2,Bot*
G04 #@! TF.FilePolarity,Positive*
%FSLAX46Y46*%
G04 Gerber Fmt 4.6, Leading zero omitted, Abs format (unit mm)*
G04 Created by KiCad (PCBNEW (5.1.8)-1) date 2024-06-18 03:57:33*
%MOMM*%
%LPD*%
G01*
G04 APERTURE LIST*
G04 #@! TA.AperFunction,ComponentPad*
%ADD10O,1.727200X1.727200*%
G04 #@! TD*
G04 #@! TA.AperFunction,ComponentPad*
%ADD11R,1.727200X1.727200*%
G04 #@! TD*
G04 #@! TA.AperFunction,ComponentPad*
%ADD12C,3.500000*%
G04 #@! TD*
G04 #@! TA.AperFunction,ComponentPad*
%ADD13R,1.700000X1.700000*%
G04 #@! TD*
G04 #@! TA.AperFunction,ComponentPad*
%ADD14O,1.700000X1.700000*%
G04 #@! TD*
G04 #@! TA.AperFunction,ComponentPad*
%ADD15C,1.700000*%
G04 #@! TD*
G04 #@! TA.AperFunction,ComponentPad*
%ADD16C,1.600000*%
G04 #@! TD*
G04 #@! TA.AperFunction,ComponentPad*
%ADD17O,1.600000X1.600000*%
G04 #@! TD*
G04 #@! TA.AperFunction,ComponentPad*
%ADD18R,2.400000X1.600000*%
G04 #@! TD*
G04 #@! TA.AperFunction,ComponentPad*
%ADD19O,2.400000X1.600000*%
G04 #@! TD*
G04 #@! TA.AperFunction,ComponentPad*
%ADD20C,1.500000*%
G04 #@! TD*
G04 #@! TA.AperFunction,ComponentPad*
%ADD21R,1.500000X1.500000*%
G04 #@! TD*
G04 #@! TA.AperFunction,ViaPad*
%ADD22C,0.800000*%
G04 #@! TD*
G04 #@! TA.AperFunction,Conductor*
%ADD23C,0.381000*%
G04 #@! TD*
G04 #@! TA.AperFunction,Conductor*
%ADD24C,0.250000*%
G04 #@! TD*
G04 #@! TA.AperFunction,Conductor*
%ADD25C,0.254000*%
G04 #@! TD*
G04 #@! TA.AperFunction,Conductor*
%ADD26C,0.100000*%
G04 #@! TD*
G04 APERTURE END LIST*
D10*
X160655000Y-105410000D03*
X158115000Y-105410000D03*
X155575000Y-105410000D03*
X153035000Y-105410000D03*
X150495000Y-105410000D03*
X160655000Y-107950000D03*
X158115000Y-107950000D03*
X155575000Y-107950000D03*
X153035000Y-107950000D03*
D11*
X150495000Y-107950000D03*
X127635000Y-107950000D03*
D10*
X130175000Y-107950000D03*
X132715000Y-107950000D03*
X135255000Y-107950000D03*
X137795000Y-107950000D03*
X127635000Y-105410000D03*
X130175000Y-105410000D03*
X132715000Y-105410000D03*
X135255000Y-105410000D03*
X137795000Y-105410000D03*
D12*
X118745000Y-107950000D03*
X169545000Y-107950000D03*
X169545000Y-71755000D03*
X118745000Y-71740001D03*
D13*
X117475000Y-99695000D03*
D14*
X117475000Y-102235000D03*
G04 #@! TA.AperFunction,ComponentPad*
G36*
G01*
X135855000Y-75145000D02*
X134655000Y-75145000D01*
G75*
G02*
X134405000Y-74895000I0J250000D01*
G01*
X134405000Y-73695000D01*
G75*
G02*
X134655000Y-73445000I250000J0D01*
G01*
X135855000Y-73445000D01*
G75*
G02*
X136105000Y-73695000I0J-250000D01*
G01*
X136105000Y-74895000D01*
G75*
G02*
X135855000Y-75145000I-250000J0D01*
G01*
G37*
G04 #@! TD.AperFunction*
D15*
X137795000Y-74295000D03*
X140335000Y-74295000D03*
X142875000Y-74295000D03*
X145415000Y-74295000D03*
X147955000Y-74295000D03*
X150495000Y-74295000D03*
X153035000Y-74295000D03*
X135255000Y-71755000D03*
X137795000Y-71755000D03*
X140335000Y-71755000D03*
X142875000Y-71755000D03*
X145415000Y-71755000D03*
X147955000Y-71755000D03*
X150495000Y-71755000D03*
X153035000Y-71755000D03*
D16*
X127635000Y-76835000D03*
X122635000Y-76835000D03*
D17*
X142240000Y-88265000D03*
D16*
X132080000Y-88265000D03*
X132080000Y-95885000D03*
D17*
X142240000Y-95885000D03*
D18*
X121285000Y-80645000D03*
D19*
X128905000Y-95885000D03*
X121285000Y-83185000D03*
X128905000Y-93345000D03*
X121285000Y-85725000D03*
X128905000Y-90805000D03*
X121285000Y-88265000D03*
X128905000Y-88265000D03*
X121285000Y-90805000D03*
X128905000Y-85725000D03*
X121285000Y-93345000D03*
X128905000Y-83185000D03*
X121285000Y-95885000D03*
X128905000Y-80645000D03*
D20*
X160655000Y-92075000D03*
X160655000Y-94615000D03*
D21*
X160655000Y-89535000D03*
X160655000Y-80645000D03*
D20*
X160655000Y-85725000D03*
X160655000Y-83185000D03*
D17*
X142240000Y-84455000D03*
D16*
X132080000Y-84455000D03*
X145415000Y-95885000D03*
D17*
X155575000Y-95885000D03*
X155575000Y-84455000D03*
D16*
X145415000Y-84455000D03*
D17*
X155575000Y-88265000D03*
D16*
X145415000Y-88265000D03*
X145415000Y-92075000D03*
D17*
X155575000Y-92075000D03*
D16*
X132080000Y-92075000D03*
D17*
X142240000Y-92075000D03*
X145415000Y-80645000D03*
D16*
X155575000Y-80645000D03*
X142240000Y-80645000D03*
D17*
X132080000Y-80645000D03*
D22*
X125730000Y-98425000D03*
X155575000Y-100330000D03*
X159385000Y-100330000D03*
X159385000Y-78740000D03*
X164464997Y-80009997D03*
X147320000Y-76200000D03*
X154940000Y-74930000D03*
X158840000Y-101600000D03*
X153670000Y-87630000D03*
X147320000Y-97065000D03*
X147955000Y-99305510D03*
X133984992Y-95885000D03*
X133985000Y-90805000D03*
X140335000Y-89534984D03*
X123915000Y-81915000D03*
D23*
X127000000Y-88265000D02*
X128905000Y-88265000D01*
X127000000Y-88265000D02*
X127000000Y-80645000D01*
X127000000Y-80645000D02*
X128905000Y-80645000D01*
X127000000Y-77470000D02*
X127635000Y-76835000D01*
X127000000Y-80645000D02*
X127000000Y-77470000D01*
X128905000Y-93345000D02*
X127000000Y-93345000D01*
X127000000Y-88265000D02*
X127000000Y-93345000D01*
X142240000Y-92075000D02*
X142240000Y-95885000D01*
X142240000Y-86995000D02*
X142240000Y-84455000D01*
X142240000Y-92075000D02*
X142240000Y-86995000D01*
X125730000Y-94615000D02*
X125730000Y-98425000D01*
X127000000Y-93345000D02*
X125730000Y-94615000D01*
D24*
X155575000Y-100330000D02*
X159385000Y-100330000D01*
X163195000Y-78740000D02*
X164464997Y-80009997D01*
X159385000Y-78740000D02*
X163195000Y-78740000D01*
X153670000Y-76200000D02*
X154940000Y-74930000D01*
X147320000Y-76200000D02*
X153670000Y-76200000D01*
X158840000Y-101600000D02*
X154940000Y-101600000D01*
X154940000Y-101600000D02*
X153670000Y-100330000D01*
X153670000Y-100330000D02*
X153670000Y-87630000D01*
X147320000Y-98670510D02*
X147320000Y-98425000D01*
X147955000Y-99305510D02*
X147320000Y-98670510D01*
X147320000Y-97065000D02*
X147320000Y-98425000D01*
X133984992Y-90805008D02*
X133985000Y-90805000D01*
X133984992Y-95885000D02*
X133984992Y-90805008D01*
X142240000Y-80645000D02*
X140335000Y-82550000D01*
X140335000Y-82550000D02*
X140335000Y-89534984D01*
X122645000Y-83185000D02*
X123915000Y-81915000D01*
X121285000Y-83185000D02*
X122645000Y-83185000D01*
D25*
X170156222Y-68668096D02*
X170744164Y-68845606D01*
X171286436Y-69133937D01*
X171762364Y-69522094D01*
X172153845Y-69995314D01*
X172445951Y-70535552D01*
X172627563Y-71122244D01*
X172695001Y-71763888D01*
X172695000Y-107917721D01*
X172631904Y-108561221D01*
X172454394Y-109149164D01*
X172166063Y-109691436D01*
X171777906Y-110167364D01*
X171304686Y-110558845D01*
X170764449Y-110850950D01*
X170177756Y-111032563D01*
X169536130Y-111100000D01*
X118777279Y-111100000D01*
X118133779Y-111036904D01*
X117545836Y-110859394D01*
X117003564Y-110571063D01*
X116527636Y-110182906D01*
X116136155Y-109709686D01*
X115844050Y-109169449D01*
X115662437Y-108582756D01*
X115595000Y-107941130D01*
X115595000Y-107715098D01*
X116360000Y-107715098D01*
X116360000Y-108184902D01*
X116451654Y-108645679D01*
X116631440Y-109079721D01*
X116892450Y-109470349D01*
X117224651Y-109802550D01*
X117615279Y-110063560D01*
X118049321Y-110243346D01*
X118510098Y-110335000D01*
X118979902Y-110335000D01*
X119440679Y-110243346D01*
X119874721Y-110063560D01*
X120265349Y-109802550D01*
X120597550Y-109470349D01*
X120858560Y-109079721D01*
X121038346Y-108645679D01*
X121130000Y-108184902D01*
X121130000Y-107715098D01*
X121038346Y-107254321D01*
X120968791Y-107086400D01*
X126133328Y-107086400D01*
X126133328Y-108813600D01*
X126145588Y-108938082D01*
X126181898Y-109057780D01*
X126240863Y-109168094D01*
X126320215Y-109264785D01*
X126416906Y-109344137D01*
X126527220Y-109403102D01*
X126646918Y-109439412D01*
X126771400Y-109451672D01*
X128498600Y-109451672D01*
X128623082Y-109439412D01*
X128742780Y-109403102D01*
X128853094Y-109344137D01*
X128949785Y-109264785D01*
X129029137Y-109168094D01*
X129088102Y-109057780D01*
X129105636Y-108999977D01*
X129219698Y-109114039D01*
X129465147Y-109278042D01*
X129737875Y-109391010D01*
X130027401Y-109448600D01*
X130322599Y-109448600D01*
X130612125Y-109391010D01*
X130884853Y-109278042D01*
X131130302Y-109114039D01*
X131339039Y-108905302D01*
X131445000Y-108746719D01*
X131550961Y-108905302D01*
X131759698Y-109114039D01*
X132005147Y-109278042D01*
X132277875Y-109391010D01*
X132567401Y-109448600D01*
X132862599Y-109448600D01*
X133152125Y-109391010D01*
X133424853Y-109278042D01*
X133670302Y-109114039D01*
X133879039Y-108905302D01*
X133985000Y-108746719D01*
X134090961Y-108905302D01*
X134299698Y-109114039D01*
X134545147Y-109278042D01*
X134817875Y-109391010D01*
X135107401Y-109448600D01*
X135402599Y-109448600D01*
X135692125Y-109391010D01*
X135964853Y-109278042D01*
X136210302Y-109114039D01*
X136419039Y-108905302D01*
X136525000Y-108746719D01*
X136630961Y-108905302D01*
X136839698Y-109114039D01*
X137085147Y-109278042D01*
X137357875Y-109391010D01*
X137647401Y-109448600D01*
X137942599Y-109448600D01*
X138232125Y-109391010D01*
X138504853Y-109278042D01*
X138750302Y-109114039D01*
X138959039Y-108905302D01*
X139123042Y-108659853D01*
X139236010Y-108387125D01*
X139293600Y-108097599D01*
X139293600Y-107802401D01*
X139236010Y-107512875D01*
X139123042Y-107240147D01*
X139020313Y-107086400D01*
X148993328Y-107086400D01*
X148993328Y-108813600D01*
X149005588Y-108938082D01*
X149041898Y-109057780D01*
X149100863Y-109168094D01*
X149180215Y-109264785D01*
X149276906Y-109344137D01*
X149387220Y-109403102D01*
X149506918Y-109439412D01*
X149631400Y-109451672D01*
X151358600Y-109451672D01*
X151483082Y-109439412D01*
X151602780Y-109403102D01*
X151713094Y-109344137D01*
X151809785Y-109264785D01*
X151889137Y-109168094D01*
X151948102Y-109057780D01*
X151965636Y-108999977D01*
X152079698Y-109114039D01*
X152325147Y-109278042D01*
X152597875Y-109391010D01*
X152887401Y-109448600D01*
X153182599Y-109448600D01*
X153472125Y-109391010D01*
X153744853Y-109278042D01*
X153990302Y-109114039D01*
X154199039Y-108905302D01*
X154305000Y-108746719D01*
X154410961Y-108905302D01*
X154619698Y-109114039D01*
X154865147Y-109278042D01*
X155137875Y-109391010D01*
X155427401Y-109448600D01*
X155722599Y-109448600D01*
X156012125Y-109391010D01*
X156284853Y-109278042D01*
X156530302Y-109114039D01*
X156739039Y-108905302D01*
X156845000Y-108746719D01*
X156950961Y-108905302D01*
X157159698Y-109114039D01*
X157405147Y-109278042D01*
X157677875Y-109391010D01*
X157967401Y-109448600D01*
X158262599Y-109448600D01*
X158552125Y-109391010D01*
X158824853Y-109278042D01*
X159070302Y-109114039D01*
X159279039Y-108905302D01*
X159385000Y-108746719D01*
X159490961Y-108905302D01*
X159699698Y-109114039D01*
X159945147Y-109278042D01*
X160217875Y-109391010D01*
X160507401Y-109448600D01*
X160802599Y-109448600D01*
X161092125Y-109391010D01*
X161364853Y-109278042D01*
X161610302Y-109114039D01*
X161819039Y-108905302D01*
X161983042Y-108659853D01*
X162096010Y-108387125D01*
X162153600Y-108097599D01*
X162153600Y-107802401D01*
X162136235Y-107715098D01*
X167160000Y-107715098D01*
X167160000Y-108184902D01*
X167251654Y-108645679D01*
X167431440Y-109079721D01*
X167692450Y-109470349D01*
X168024651Y-109802550D01*
X168415279Y-110063560D01*
X168849321Y-110243346D01*
X169310098Y-110335000D01*
X169779902Y-110335000D01*
X170240679Y-110243346D01*
X170674721Y-110063560D01*
X171065349Y-109802550D01*
X171397550Y-109470349D01*
X171658560Y-109079721D01*
X171838346Y-108645679D01*
X171930000Y-108184902D01*
X171930000Y-107715098D01*
X171838346Y-107254321D01*
X171658560Y-106820279D01*
X171397550Y-106429651D01*
X171065349Y-106097450D01*
X170674721Y-105836440D01*
X170240679Y-105656654D01*
X169779902Y-105565000D01*
X169310098Y-105565000D01*
X168849321Y-105656654D01*
X168415279Y-105836440D01*
X168024651Y-106097450D01*
X167692450Y-106429651D01*
X167431440Y-106820279D01*
X167251654Y-107254321D01*
X167160000Y-107715098D01*
X162136235Y-107715098D01*
X162096010Y-107512875D01*
X161983042Y-107240147D01*
X161819039Y-106994698D01*
X161610302Y-106785961D01*
X161451719Y-106680000D01*
X161610302Y-106574039D01*
X161819039Y-106365302D01*
X161983042Y-106119853D01*
X162096010Y-105847125D01*
X162153600Y-105557599D01*
X162153600Y-105262401D01*
X162096010Y-104972875D01*
X161983042Y-104700147D01*
X161819039Y-104454698D01*
X161610302Y-104245961D01*
X161364853Y-104081958D01*
X161092125Y-103968990D01*
X160802599Y-103911400D01*
X160507401Y-103911400D01*
X160217875Y-103968990D01*
X159945147Y-104081958D01*
X159699698Y-104245961D01*
X159490961Y-104454698D01*
X159385000Y-104613281D01*
X159279039Y-104454698D01*
X159070302Y-104245961D01*
X158824853Y-104081958D01*
X158552125Y-103968990D01*
X158262599Y-103911400D01*
X157967401Y-103911400D01*
X157677875Y-103968990D01*
X157405147Y-104081958D01*
X157159698Y-104245961D01*
X156950961Y-104454698D01*
X156840441Y-104620103D01*
X156781817Y-104521512D01*
X156585293Y-104303146D01*
X156349944Y-104127316D01*
X156084814Y-104000778D01*
X155934026Y-103955042D01*
X155702000Y-104076183D01*
X155702000Y-105283000D01*
X155722000Y-105283000D01*
X155722000Y-105537000D01*
X155702000Y-105537000D01*
X155702000Y-105557000D01*
X155448000Y-105557000D01*
X155448000Y-105537000D01*
X155428000Y-105537000D01*
X155428000Y-105283000D01*
X155448000Y-105283000D01*
X155448000Y-104076183D01*
X155215974Y-103955042D01*
X155065186Y-104000778D01*
X154800056Y-104127316D01*
X154564707Y-104303146D01*
X154368183Y-104521512D01*
X154309559Y-104620103D01*
X154199039Y-104454698D01*
X153990302Y-104245961D01*
X153744853Y-104081958D01*
X153472125Y-103968990D01*
X153182599Y-103911400D01*
X152887401Y-103911400D01*
X152597875Y-103968990D01*
X152325147Y-104081958D01*
X152079698Y-104245961D01*
X151870961Y-104454698D01*
X151765000Y-104613281D01*
X151659039Y-104454698D01*
X151450302Y-104245961D01*
X151204853Y-104081958D01*
X150932125Y-103968990D01*
X150642599Y-103911400D01*
X150347401Y-103911400D01*
X150057875Y-103968990D01*
X149785147Y-104081958D01*
X149539698Y-104245961D01*
X149330961Y-104454698D01*
X149166958Y-104700147D01*
X149053990Y-104972875D01*
X148996400Y-105262401D01*
X148996400Y-105557599D01*
X149053990Y-105847125D01*
X149166958Y-106119853D01*
X149330961Y-106365302D01*
X149445023Y-106479364D01*
X149387220Y-106496898D01*
X149276906Y-106555863D01*
X149180215Y-106635215D01*
X149100863Y-106731906D01*
X149041898Y-106842220D01*
X149005588Y-106961918D01*
X148993328Y-107086400D01*
X139020313Y-107086400D01*
X138959039Y-106994698D01*
X138750302Y-106785961D01*
X138591719Y-106680000D01*
X138750302Y-106574039D01*
X138959039Y-106365302D01*
X139123042Y-106119853D01*
X139236010Y-105847125D01*
X139293600Y-105557599D01*
X139293600Y-105262401D01*
X139236010Y-104972875D01*
X139123042Y-104700147D01*
X138959039Y-104454698D01*
X138750302Y-104245961D01*
X138504853Y-104081958D01*
X138232125Y-103968990D01*
X137942599Y-103911400D01*
X137647401Y-103911400D01*
X137357875Y-103968990D01*
X137085147Y-104081958D01*
X136839698Y-104245961D01*
X136630961Y-104454698D01*
X136525000Y-104613281D01*
X136419039Y-104454698D01*
X136210302Y-104245961D01*
X135964853Y-104081958D01*
X135692125Y-103968990D01*
X135402599Y-103911400D01*
X135107401Y-103911400D01*
X134817875Y-103968990D01*
X134545147Y-104081958D01*
X134299698Y-104245961D01*
X134090961Y-104454698D01*
X133980441Y-104620103D01*
X133921817Y-104521512D01*
X133725293Y-104303146D01*
X133489944Y-104127316D01*
X133224814Y-104000778D01*
X133074026Y-103955042D01*
X132842000Y-104076183D01*
X132842000Y-105283000D01*
X132862000Y-105283000D01*
X132862000Y-105537000D01*
X132842000Y-105537000D01*
X132842000Y-105557000D01*
X132588000Y-105557000D01*
X132588000Y-105537000D01*
X132568000Y-105537000D01*
X132568000Y-105283000D01*
X132588000Y-105283000D01*
X132588000Y-104076183D01*
X132355974Y-103955042D01*
X132205186Y-104000778D01*
X131940056Y-104127316D01*
X131704707Y-104303146D01*
X131508183Y-104521512D01*
X131449559Y-104620103D01*
X131339039Y-104454698D01*
X131130302Y-104245961D01*
X130884853Y-104081958D01*
X130612125Y-103968990D01*
X130322599Y-103911400D01*
X130027401Y-103911400D01*
X129737875Y-103968990D01*
X129465147Y-104081958D01*
X129219698Y-104245961D01*
X129010961Y-104454698D01*
X128905000Y-104613281D01*
X128799039Y-104454698D01*
X128590302Y-104245961D01*
X128344853Y-104081958D01*
X128072125Y-103968990D01*
X127782599Y-103911400D01*
X127487401Y-103911400D01*
X127197875Y-103968990D01*
X126925147Y-104081958D01*
X126679698Y-104245961D01*
X126470961Y-104454698D01*
X126306958Y-104700147D01*
X126193990Y-104972875D01*
X126136400Y-105262401D01*
X126136400Y-105557599D01*
X126193990Y-105847125D01*
X126306958Y-106119853D01*
X126470961Y-106365302D01*
X126585023Y-106479364D01*
X126527220Y-106496898D01*
X126416906Y-106555863D01*
X126320215Y-106635215D01*
X126240863Y-106731906D01*
X126181898Y-106842220D01*
X126145588Y-106961918D01*
X126133328Y-107086400D01*
X120968791Y-107086400D01*
X120858560Y-106820279D01*
X120597550Y-106429651D01*
X120265349Y-106097450D01*
X119874721Y-105836440D01*
X119440679Y-105656654D01*
X118979902Y-105565000D01*
X118510098Y-105565000D01*
X118049321Y-105656654D01*
X117615279Y-105836440D01*
X117224651Y-106097450D01*
X116892450Y-106429651D01*
X116631440Y-106820279D01*
X116451654Y-107254321D01*
X116360000Y-107715098D01*
X115595000Y-107715098D01*
X115595000Y-98845000D01*
X115986928Y-98845000D01*
X115986928Y-100545000D01*
X115999188Y-100669482D01*
X116035498Y-100789180D01*
X116094463Y-100899494D01*
X116173815Y-100996185D01*
X116270506Y-101075537D01*
X116380820Y-101134502D01*
X116453380Y-101156513D01*
X116321525Y-101288368D01*
X116159010Y-101531589D01*
X116047068Y-101801842D01*
X115990000Y-102088740D01*
X115990000Y-102381260D01*
X116047068Y-102668158D01*
X116159010Y-102938411D01*
X116321525Y-103181632D01*
X116528368Y-103388475D01*
X116771589Y-103550990D01*
X117041842Y-103662932D01*
X117328740Y-103720000D01*
X117621260Y-103720000D01*
X117908158Y-103662932D01*
X118178411Y-103550990D01*
X118421632Y-103388475D01*
X118628475Y-103181632D01*
X118790990Y-102938411D01*
X118902932Y-102668158D01*
X118960000Y-102381260D01*
X118960000Y-102088740D01*
X118902932Y-101801842D01*
X118790990Y-101531589D01*
X118628475Y-101288368D01*
X118496620Y-101156513D01*
X118569180Y-101134502D01*
X118679494Y-101075537D01*
X118776185Y-100996185D01*
X118855537Y-100899494D01*
X118914502Y-100789180D01*
X118950812Y-100669482D01*
X118963072Y-100545000D01*
X118963072Y-98845000D01*
X118950812Y-98720518D01*
X118914502Y-98600820D01*
X118855537Y-98490506D01*
X118776185Y-98393815D01*
X118689971Y-98323061D01*
X124695000Y-98323061D01*
X124695000Y-98526939D01*
X124734774Y-98726898D01*
X124812795Y-98915256D01*
X124926063Y-99084774D01*
X125070226Y-99228937D01*
X125239744Y-99342205D01*
X125428102Y-99420226D01*
X125628061Y-99460000D01*
X125831939Y-99460000D01*
X126031898Y-99420226D01*
X126220256Y-99342205D01*
X126389774Y-99228937D01*
X126533937Y-99084774D01*
X126647205Y-98915256D01*
X126725226Y-98726898D01*
X126765000Y-98526939D01*
X126765000Y-98323061D01*
X126725226Y-98123102D01*
X126647205Y-97934744D01*
X126555500Y-97797497D01*
X126555500Y-94956932D01*
X127333232Y-94179201D01*
X127485392Y-94364608D01*
X127703899Y-94543932D01*
X127836858Y-94615000D01*
X127703899Y-94686068D01*
X127485392Y-94865392D01*
X127306068Y-95083899D01*
X127172818Y-95333192D01*
X127090764Y-95603691D01*
X127063057Y-95885000D01*
X127090764Y-96166309D01*
X127172818Y-96436808D01*
X127306068Y-96686101D01*
X127485392Y-96904608D01*
X127703899Y-97083932D01*
X127953192Y-97217182D01*
X128223691Y-97299236D01*
X128434508Y-97320000D01*
X129375492Y-97320000D01*
X129586309Y-97299236D01*
X129856808Y-97217182D01*
X130106101Y-97083932D01*
X130324608Y-96904608D01*
X130503932Y-96686101D01*
X130637182Y-96436808D01*
X130691217Y-96258678D01*
X130700147Y-96303574D01*
X130808320Y-96564727D01*
X130965363Y-96799759D01*
X131165241Y-96999637D01*
X131400273Y-97156680D01*
X131661426Y-97264853D01*
X131938665Y-97320000D01*
X132221335Y-97320000D01*
X132498574Y-97264853D01*
X132759727Y-97156680D01*
X132994759Y-96999637D01*
X133194637Y-96799759D01*
X133291329Y-96655048D01*
X133325218Y-96688937D01*
X133494736Y-96802205D01*
X133683094Y-96880226D01*
X133883053Y-96920000D01*
X134086931Y-96920000D01*
X134286890Y-96880226D01*
X134475248Y-96802205D01*
X134644766Y-96688937D01*
X134788929Y-96544774D01*
X134902197Y-96375256D01*
X134980218Y-96186898D01*
X135019992Y-95986939D01*
X135019992Y-95783061D01*
X134980218Y-95583102D01*
X134902197Y-95394744D01*
X134788929Y-95225226D01*
X134744992Y-95181289D01*
X134744992Y-91508719D01*
X134788937Y-91464774D01*
X134902205Y-91295256D01*
X134980226Y-91106898D01*
X135020000Y-90906939D01*
X135020000Y-90703061D01*
X134980226Y-90503102D01*
X134902205Y-90314744D01*
X134788937Y-90145226D01*
X134644774Y-90001063D01*
X134475256Y-89887795D01*
X134286898Y-89809774D01*
X134086939Y-89770000D01*
X133883061Y-89770000D01*
X133683102Y-89809774D01*
X133494744Y-89887795D01*
X133325226Y-90001063D01*
X133181063Y-90145226D01*
X133067795Y-90314744D01*
X132989774Y-90503102D01*
X132950000Y-90703061D01*
X132950000Y-90906939D01*
X132955395Y-90934061D01*
X132759727Y-90803320D01*
X132498574Y-90695147D01*
X132221335Y-90640000D01*
X131938665Y-90640000D01*
X131661426Y-90695147D01*
X131400273Y-90803320D01*
X131165241Y-90960363D01*
X130965363Y-91160241D01*
X130808320Y-91395273D01*
X130700147Y-91656426D01*
X130645000Y-91933665D01*
X130645000Y-92216335D01*
X130700147Y-92493574D01*
X130808320Y-92754727D01*
X130965363Y-92989759D01*
X131165241Y-93189637D01*
X131400273Y-93346680D01*
X131661426Y-93454853D01*
X131938665Y-93510000D01*
X132221335Y-93510000D01*
X132498574Y-93454853D01*
X132759727Y-93346680D01*
X132994759Y-93189637D01*
X133194637Y-92989759D01*
X133224993Y-92944329D01*
X133224992Y-95015671D01*
X133194637Y-94970241D01*
X132994759Y-94770363D01*
X132759727Y-94613320D01*
X132498574Y-94505147D01*
X132221335Y-94450000D01*
X131938665Y-94450000D01*
X131661426Y-94505147D01*
X131400273Y-94613320D01*
X131165241Y-94770363D01*
X130965363Y-94970241D01*
X130808320Y-95205273D01*
X130700147Y-95466426D01*
X130691217Y-95511322D01*
X130637182Y-95333192D01*
X130503932Y-95083899D01*
X130324608Y-94865392D01*
X130106101Y-94686068D01*
X129973142Y-94615000D01*
X130106101Y-94543932D01*
X130324608Y-94364608D01*
X130503932Y-94146101D01*
X130637182Y-93896808D01*
X130719236Y-93626309D01*
X130746943Y-93345000D01*
X130719236Y-93063691D01*
X130637182Y-92793192D01*
X130503932Y-92543899D01*
X130324608Y-92325392D01*
X130106101Y-92146068D01*
X129973142Y-92075000D01*
X130106101Y-92003932D01*
X130324608Y-91824608D01*
X130503932Y-91606101D01*
X130637182Y-91356808D01*
X130719236Y-91086309D01*
X130746943Y-90805000D01*
X130719236Y-90523691D01*
X130637182Y-90253192D01*
X130503932Y-90003899D01*
X130324608Y-89785392D01*
X130106101Y-89606068D01*
X129973142Y-89535000D01*
X130106101Y-89463932D01*
X130324608Y-89284608D01*
X130503932Y-89066101D01*
X130637182Y-88816808D01*
X130691217Y-88638678D01*
X130700147Y-88683574D01*
X130808320Y-88944727D01*
X130965363Y-89179759D01*
X131165241Y-89379637D01*
X131400273Y-89536680D01*
X131661426Y-89644853D01*
X131938665Y-89700000D01*
X132221335Y-89700000D01*
X132498574Y-89644853D01*
X132759727Y-89536680D01*
X132914828Y-89433045D01*
X139300000Y-89433045D01*
X139300000Y-89636923D01*
X139339774Y-89836882D01*
X139417795Y-90025240D01*
X139531063Y-90194758D01*
X139675226Y-90338921D01*
X139844744Y-90452189D01*
X140033102Y-90530210D01*
X140233061Y-90569984D01*
X140436939Y-90569984D01*
X140636898Y-90530210D01*
X140825256Y-90452189D01*
X140994774Y-90338921D01*
X141138937Y-90194758D01*
X141252205Y-90025240D01*
X141330226Y-89836882D01*
X141370000Y-89636923D01*
X141370000Y-89433045D01*
X141364609Y-89405942D01*
X141414501Y-89439278D01*
X141414500Y-90900722D01*
X141325241Y-90960363D01*
X141125363Y-91160241D01*
X140968320Y-91395273D01*
X140860147Y-91656426D01*
X140805000Y-91933665D01*
X140805000Y-92216335D01*
X140860147Y-92493574D01*
X140968320Y-92754727D01*
X141125363Y-92989759D01*
X141325241Y-93189637D01*
X141414500Y-93249278D01*
X141414501Y-94710722D01*
X141325241Y-94770363D01*
X141125363Y-94970241D01*
X140968320Y-95205273D01*
X140860147Y-95466426D01*
X140805000Y-95743665D01*
X140805000Y-96026335D01*
X140860147Y-96303574D01*
X140968320Y-96564727D01*
X141125363Y-96799759D01*
X141325241Y-96999637D01*
X141560273Y-97156680D01*
X141821426Y-97264853D01*
X142098665Y-97320000D01*
X142381335Y-97320000D01*
X142658574Y-97264853D01*
X142919727Y-97156680D01*
X143154759Y-96999637D01*
X143276694Y-96877702D01*
X144601903Y-96877702D01*
X144673486Y-97121671D01*
X144928996Y-97242571D01*
X145203184Y-97311300D01*
X145485512Y-97325217D01*
X145765130Y-97283787D01*
X146031292Y-97188603D01*
X146156514Y-97121671D01*
X146228097Y-96877704D01*
X146289721Y-96939328D01*
X146285000Y-96963061D01*
X146285000Y-97166939D01*
X146324774Y-97366898D01*
X146402795Y-97555256D01*
X146516063Y-97724774D01*
X146560001Y-97768712D01*
X146560001Y-98387657D01*
X146560000Y-98387667D01*
X146560000Y-98633188D01*
X146556324Y-98670510D01*
X146560000Y-98707832D01*
X146560000Y-98707842D01*
X146570997Y-98819495D01*
X146614454Y-98962756D01*
X146685026Y-99094786D01*
X146714374Y-99130546D01*
X146779999Y-99210511D01*
X146809002Y-99234313D01*
X146920000Y-99345311D01*
X146920000Y-99407449D01*
X146959774Y-99607408D01*
X147037795Y-99795766D01*
X147151063Y-99965284D01*
X147295226Y-100109447D01*
X147464744Y-100222715D01*
X147653102Y-100300736D01*
X147853061Y-100340510D01*
X148056939Y-100340510D01*
X148256898Y-100300736D01*
X148445256Y-100222715D01*
X148614774Y-100109447D01*
X148758937Y-99965284D01*
X148872205Y-99795766D01*
X148950226Y-99607408D01*
X148990000Y-99407449D01*
X148990000Y-99203571D01*
X148950226Y-99003612D01*
X148872205Y-98815254D01*
X148758937Y-98645736D01*
X148614774Y-98501573D01*
X148445256Y-98388305D01*
X148256898Y-98310284D01*
X148080000Y-98275097D01*
X148080000Y-97768711D01*
X148123937Y-97724774D01*
X148237205Y-97555256D01*
X148315226Y-97366898D01*
X148355000Y-97166939D01*
X148355000Y-96963061D01*
X148315226Y-96763102D01*
X148237205Y-96574744D01*
X148123937Y-96405226D01*
X147979774Y-96261063D01*
X147810256Y-96147795D01*
X147621898Y-96069774D01*
X147421939Y-96030000D01*
X147218061Y-96030000D01*
X147018102Y-96069774D01*
X146829744Y-96147795D01*
X146828275Y-96148776D01*
X146841300Y-96096816D01*
X146855217Y-95814488D01*
X146813787Y-95534870D01*
X146718603Y-95268708D01*
X146651671Y-95143486D01*
X146407702Y-95071903D01*
X145594605Y-95885000D01*
X145608748Y-95899143D01*
X145429143Y-96078748D01*
X145415000Y-96064605D01*
X144601903Y-96877702D01*
X143276694Y-96877702D01*
X143354637Y-96799759D01*
X143511680Y-96564727D01*
X143619853Y-96303574D01*
X143675000Y-96026335D01*
X143675000Y-95955512D01*
X143974783Y-95955512D01*
X144016213Y-96235130D01*
X144111397Y-96501292D01*
X144178329Y-96626514D01*
X144422298Y-96698097D01*
X145235395Y-95885000D01*
X144422298Y-95071903D01*
X144178329Y-95143486D01*
X144057429Y-95398996D01*
X143988700Y-95673184D01*
X143974783Y-95955512D01*
X143675000Y-95955512D01*
X143675000Y-95743665D01*
X143619853Y-95466426D01*
X143511680Y-95205273D01*
X143354637Y-94970241D01*
X143276694Y-94892298D01*
X144601903Y-94892298D01*
X145415000Y-95705395D01*
X146228097Y-94892298D01*
X146156514Y-94648329D01*
X145901004Y-94527429D01*
X145626816Y-94458700D01*
X145344488Y-94444783D01*
X145064870Y-94486213D01*
X144798708Y-94581397D01*
X144673486Y-94648329D01*
X144601903Y-94892298D01*
X143276694Y-94892298D01*
X143154759Y-94770363D01*
X143065500Y-94710722D01*
X143065500Y-93249278D01*
X143154759Y-93189637D01*
X143354637Y-92989759D01*
X143511680Y-92754727D01*
X143619853Y-92493574D01*
X143675000Y-92216335D01*
X143675000Y-91933665D01*
X143980000Y-91933665D01*
X143980000Y-92216335D01*
X144035147Y-92493574D01*
X144143320Y-92754727D01*
X144300363Y-92989759D01*
X144500241Y-93189637D01*
X144735273Y-93346680D01*
X144996426Y-93454853D01*
X145273665Y-93510000D01*
X145556335Y-93510000D01*
X145833574Y-93454853D01*
X146094727Y-93346680D01*
X146329759Y-93189637D01*
X146529637Y-92989759D01*
X146686680Y-92754727D01*
X146794853Y-92493574D01*
X146850000Y-92216335D01*
X146850000Y-91933665D01*
X146794853Y-91656426D01*
X146686680Y-91395273D01*
X146529637Y-91160241D01*
X146329759Y-90960363D01*
X146094727Y-90803320D01*
X145833574Y-90695147D01*
X145556335Y-90640000D01*
X145273665Y-90640000D01*
X144996426Y-90695147D01*
X144735273Y-90803320D01*
X144500241Y-90960363D01*
X144300363Y-91160241D01*
X144143320Y-91395273D01*
X144035147Y-91656426D01*
X143980000Y-91933665D01*
X143675000Y-91933665D01*
X143619853Y-91656426D01*
X143511680Y-91395273D01*
X143354637Y-91160241D01*
X143154759Y-90960363D01*
X143065500Y-90900722D01*
X143065500Y-89439278D01*
X143154759Y-89379637D01*
X143354637Y-89179759D01*
X143511680Y-88944727D01*
X143619853Y-88683574D01*
X143675000Y-88406335D01*
X143675000Y-88123665D01*
X143980000Y-88123665D01*
X143980000Y-88406335D01*
X144035147Y-88683574D01*
X144143320Y-88944727D01*
X144300363Y-89179759D01*
X144500241Y-89379637D01*
X144735273Y-89536680D01*
X144996426Y-89644853D01*
X145273665Y-89700000D01*
X145556335Y-89700000D01*
X145833574Y-89644853D01*
X146094727Y-89536680D01*
X146329759Y-89379637D01*
X146529637Y-89179759D01*
X146686680Y-88944727D01*
X146794853Y-88683574D01*
X146850000Y-88406335D01*
X146850000Y-88123665D01*
X146794853Y-87846426D01*
X146686680Y-87585273D01*
X146648453Y-87528061D01*
X152635000Y-87528061D01*
X152635000Y-87731939D01*
X152674774Y-87931898D01*
X152752795Y-88120256D01*
X152866063Y-88289774D01*
X152910001Y-88333712D01*
X152910000Y-100292678D01*
X152906324Y-100330000D01*
X152910000Y-100367322D01*
X152910000Y-100367332D01*
X152920997Y-100478985D01*
X152947089Y-100565000D01*
X152964454Y-100622246D01*
X153035026Y-100754276D01*
X153069320Y-100796063D01*
X153129999Y-100870001D01*
X153159003Y-100893804D01*
X154376201Y-102111003D01*
X154399999Y-102140001D01*
X154515724Y-102234974D01*
X154647753Y-102305546D01*
X154791014Y-102349003D01*
X154902667Y-102360000D01*
X154902676Y-102360000D01*
X154939999Y-102363676D01*
X154977322Y-102360000D01*
X158136289Y-102360000D01*
X158180226Y-102403937D01*
X158349744Y-102517205D01*
X158538102Y-102595226D01*
X158738061Y-102635000D01*
X158941939Y-102635000D01*
X159141898Y-102595226D01*
X159330256Y-102517205D01*
X159499774Y-102403937D01*
X159643937Y-102259774D01*
X159757205Y-102090256D01*
X159835226Y-101901898D01*
X159875000Y-101701939D01*
X159875000Y-101498061D01*
X159835226Y-101298102D01*
X159823093Y-101268812D01*
X159875256Y-101247205D01*
X160044774Y-101133937D01*
X160188937Y-100989774D01*
X160302205Y-100820256D01*
X160380226Y-100631898D01*
X160420000Y-100431939D01*
X160420000Y-100228061D01*
X160380226Y-100028102D01*
X160302205Y-99839744D01*
X160188937Y-99670226D01*
X160044774Y-99526063D01*
X159875256Y-99412795D01*
X159686898Y-99334774D01*
X159486939Y-99295000D01*
X159283061Y-99295000D01*
X159083102Y-99334774D01*
X158894744Y-99412795D01*
X158725226Y-99526063D01*
X158681289Y-99570000D01*
X156278711Y-99570000D01*
X156234774Y-99526063D01*
X156065256Y-99412795D01*
X155876898Y-99334774D01*
X155676939Y-99295000D01*
X155473061Y-99295000D01*
X155273102Y-99334774D01*
X155084744Y-99412795D01*
X154915226Y-99526063D01*
X154771063Y-99670226D01*
X154657795Y-99839744D01*
X154579774Y-100028102D01*
X154557066Y-100142265D01*
X154430000Y-100015199D01*
X154430000Y-96754317D01*
X154460363Y-96799759D01*
X154660241Y-96999637D01*
X154895273Y-97156680D01*
X155156426Y-97264853D01*
X155433665Y-97320000D01*
X155716335Y-97320000D01*
X155993574Y-97264853D01*
X156254727Y-97156680D01*
X156489759Y-96999637D01*
X156689637Y-96799759D01*
X156846680Y-96564727D01*
X156954853Y-96303574D01*
X157010000Y-96026335D01*
X157010000Y-95743665D01*
X156954853Y-95466426D01*
X156846680Y-95205273D01*
X156689637Y-94970241D01*
X156489759Y-94770363D01*
X156254727Y-94613320D01*
X155993574Y-94505147D01*
X155716335Y-94450000D01*
X155433665Y-94450000D01*
X155156426Y-94505147D01*
X154895273Y-94613320D01*
X154660241Y-94770363D01*
X154460363Y-94970241D01*
X154430000Y-95015683D01*
X154430000Y-92944317D01*
X154460363Y-92989759D01*
X154660241Y-93189637D01*
X154895273Y-93346680D01*
X155156426Y-93454853D01*
X155433665Y-93510000D01*
X155716335Y-93510000D01*
X155993574Y-93454853D01*
X156254727Y-93346680D01*
X156489759Y-93189637D01*
X156689637Y-92989759D01*
X156846680Y-92754727D01*
X156954853Y-92493574D01*
X157010000Y-92216335D01*
X157010000Y-91933665D01*
X156954853Y-91656426D01*
X156846680Y-91395273D01*
X156689637Y-91160241D01*
X156489759Y-90960363D01*
X156254727Y-90803320D01*
X155993574Y-90695147D01*
X155716335Y-90640000D01*
X155433665Y-90640000D01*
X155156426Y-90695147D01*
X154895273Y-90803320D01*
X154660241Y-90960363D01*
X154460363Y-91160241D01*
X154430000Y-91205683D01*
X154430000Y-89134317D01*
X154460363Y-89179759D01*
X154660241Y-89379637D01*
X154895273Y-89536680D01*
X155156426Y-89644853D01*
X155433665Y-89700000D01*
X155716335Y-89700000D01*
X155993574Y-89644853D01*
X156254727Y-89536680D01*
X156489759Y-89379637D01*
X156689637Y-89179759D01*
X156846680Y-88944727D01*
X156912841Y-88785000D01*
X159266928Y-88785000D01*
X159266928Y-90285000D01*
X159279188Y-90409482D01*
X159315498Y-90529180D01*
X159374463Y-90639494D01*
X159453815Y-90736185D01*
X159550506Y-90815537D01*
X159660820Y-90874502D01*
X159780518Y-90910812D01*
X159888483Y-90921445D01*
X159772114Y-90999201D01*
X159579201Y-91192114D01*
X159427629Y-91418957D01*
X159323225Y-91671011D01*
X159270000Y-91938589D01*
X159270000Y-92211411D01*
X159323225Y-92478989D01*
X159427629Y-92731043D01*
X159579201Y-92957886D01*
X159772114Y-93150799D01*
X159998957Y-93302371D01*
X160101873Y-93345000D01*
X159998957Y-93387629D01*
X159772114Y-93539201D01*
X159579201Y-93732114D01*
X159427629Y-93958957D01*
X159323225Y-94211011D01*
X159270000Y-94478589D01*
X159270000Y-94751411D01*
X159323225Y-95018989D01*
X159427629Y-95271043D01*
X159579201Y-95497886D01*
X159772114Y-95690799D01*
X159998957Y-95842371D01*
X160251011Y-95946775D01*
X160518589Y-96000000D01*
X160791411Y-96000000D01*
X161058989Y-95946775D01*
X161311043Y-95842371D01*
X161537886Y-95690799D01*
X161730799Y-95497886D01*
X161882371Y-95271043D01*
X161986775Y-95018989D01*
X162040000Y-94751411D01*
X162040000Y-94478589D01*
X161986775Y-94211011D01*
X161882371Y-93958957D01*
X161730799Y-93732114D01*
X161537886Y-93539201D01*
X161311043Y-93387629D01*
X161208127Y-93345000D01*
X161311043Y-93302371D01*
X161537886Y-93150799D01*
X161730799Y-92957886D01*
X161882371Y-92731043D01*
X161986775Y-92478989D01*
X162040000Y-92211411D01*
X162040000Y-91938589D01*
X161986775Y-91671011D01*
X161882371Y-91418957D01*
X161730799Y-91192114D01*
X161537886Y-90999201D01*
X161421517Y-90921445D01*
X161529482Y-90910812D01*
X161649180Y-90874502D01*
X161759494Y-90815537D01*
X161856185Y-90736185D01*
X161935537Y-90639494D01*
X161994502Y-90529180D01*
X162030812Y-90409482D01*
X162043072Y-90285000D01*
X162043072Y-88785000D01*
X162030812Y-88660518D01*
X161994502Y-88540820D01*
X161935537Y-88430506D01*
X161856185Y-88333815D01*
X161759494Y-88254463D01*
X161649180Y-88195498D01*
X161529482Y-88159188D01*
X161405000Y-88146928D01*
X159905000Y-88146928D01*
X159780518Y-88159188D01*
X159660820Y-88195498D01*
X159550506Y-88254463D01*
X159453815Y-88333815D01*
X159374463Y-88430506D01*
X159315498Y-88540820D01*
X159279188Y-88660518D01*
X159266928Y-88785000D01*
X156912841Y-88785000D01*
X156954853Y-88683574D01*
X157010000Y-88406335D01*
X157010000Y-88123665D01*
X156954853Y-87846426D01*
X156846680Y-87585273D01*
X156689637Y-87350241D01*
X156489759Y-87150363D01*
X156254727Y-86993320D01*
X155993574Y-86885147D01*
X155716335Y-86830000D01*
X155433665Y-86830000D01*
X155156426Y-86885147D01*
X154895273Y-86993320D01*
X154660241Y-87150363D01*
X154611707Y-87198897D01*
X154587205Y-87139744D01*
X154473937Y-86970226D01*
X154329774Y-86826063D01*
X154160256Y-86712795D01*
X153971898Y-86634774D01*
X153771939Y-86595000D01*
X153568061Y-86595000D01*
X153368102Y-86634774D01*
X153179744Y-86712795D01*
X153010226Y-86826063D01*
X152866063Y-86970226D01*
X152752795Y-87139744D01*
X152674774Y-87328102D01*
X152635000Y-87528061D01*
X146648453Y-87528061D01*
X146529637Y-87350241D01*
X146329759Y-87150363D01*
X146094727Y-86993320D01*
X145833574Y-86885147D01*
X145556335Y-86830000D01*
X145273665Y-86830000D01*
X144996426Y-86885147D01*
X144735273Y-86993320D01*
X144500241Y-87150363D01*
X144300363Y-87350241D01*
X144143320Y-87585273D01*
X144035147Y-87846426D01*
X143980000Y-88123665D01*
X143675000Y-88123665D01*
X143619853Y-87846426D01*
X143511680Y-87585273D01*
X143354637Y-87350241D01*
X143154759Y-87150363D01*
X143065500Y-87090722D01*
X143065500Y-85629278D01*
X143154759Y-85569637D01*
X143276694Y-85447702D01*
X144601903Y-85447702D01*
X144673486Y-85691671D01*
X144928996Y-85812571D01*
X145203184Y-85881300D01*
X145485512Y-85895217D01*
X145765130Y-85853787D01*
X146031292Y-85758603D01*
X146156514Y-85691671D01*
X146228097Y-85447702D01*
X145415000Y-84634605D01*
X144601903Y-85447702D01*
X143276694Y-85447702D01*
X143354637Y-85369759D01*
X143511680Y-85134727D01*
X143619853Y-84873574D01*
X143675000Y-84596335D01*
X143675000Y-84525512D01*
X143974783Y-84525512D01*
X144016213Y-84805130D01*
X144111397Y-85071292D01*
X144178329Y-85196514D01*
X144422298Y-85268097D01*
X145235395Y-84455000D01*
X145594605Y-84455000D01*
X146407702Y-85268097D01*
X146651671Y-85196514D01*
X146772571Y-84941004D01*
X146841300Y-84666816D01*
X146855217Y-84384488D01*
X146844724Y-84313665D01*
X154140000Y-84313665D01*
X154140000Y-84596335D01*
X154195147Y-84873574D01*
X154303320Y-85134727D01*
X154460363Y-85369759D01*
X154660241Y-85569637D01*
X154895273Y-85726680D01*
X155156426Y-85834853D01*
X155433665Y-85890000D01*
X155716335Y-85890000D01*
X155993574Y-85834853D01*
X156254727Y-85726680D01*
X156489759Y-85569637D01*
X156689637Y-85369759D01*
X156846680Y-85134727D01*
X156954853Y-84873574D01*
X157010000Y-84596335D01*
X157010000Y-84313665D01*
X156954853Y-84036426D01*
X156846680Y-83775273D01*
X156689637Y-83540241D01*
X156489759Y-83340363D01*
X156254727Y-83183320D01*
X155993574Y-83075147D01*
X155716335Y-83020000D01*
X155433665Y-83020000D01*
X155156426Y-83075147D01*
X154895273Y-83183320D01*
X154660241Y-83340363D01*
X154460363Y-83540241D01*
X154303320Y-83775273D01*
X154195147Y-84036426D01*
X154140000Y-84313665D01*
X146844724Y-84313665D01*
X146813787Y-84104870D01*
X146718603Y-83838708D01*
X146651671Y-83713486D01*
X146407702Y-83641903D01*
X145594605Y-84455000D01*
X145235395Y-84455000D01*
X144422298Y-83641903D01*
X144178329Y-83713486D01*
X144057429Y-83968996D01*
X143988700Y-84243184D01*
X143974783Y-84525512D01*
X143675000Y-84525512D01*
X143675000Y-84313665D01*
X143619853Y-84036426D01*
X143511680Y-83775273D01*
X143354637Y-83540241D01*
X143276694Y-83462298D01*
X144601903Y-83462298D01*
X145415000Y-84275395D01*
X146228097Y-83462298D01*
X146156514Y-83218329D01*
X145901004Y-83097429D01*
X145626816Y-83028700D01*
X145344488Y-83014783D01*
X145064870Y-83056213D01*
X144798708Y-83151397D01*
X144673486Y-83218329D01*
X144601903Y-83462298D01*
X143276694Y-83462298D01*
X143154759Y-83340363D01*
X142919727Y-83183320D01*
X142658574Y-83075147D01*
X142381335Y-83020000D01*
X142098665Y-83020000D01*
X141821426Y-83075147D01*
X141560273Y-83183320D01*
X141325241Y-83340363D01*
X141125363Y-83540241D01*
X141095000Y-83585683D01*
X141095000Y-82864801D01*
X141916114Y-82043688D01*
X142098665Y-82080000D01*
X142381335Y-82080000D01*
X142658574Y-82024853D01*
X142919727Y-81916680D01*
X143154759Y-81759637D01*
X143354637Y-81559759D01*
X143511680Y-81324727D01*
X143619853Y-81063574D01*
X143675000Y-80786335D01*
X143675000Y-80503665D01*
X143980000Y-80503665D01*
X143980000Y-80786335D01*
X144035147Y-81063574D01*
X144143320Y-81324727D01*
X144300363Y-81559759D01*
X144500241Y-81759637D01*
X144735273Y-81916680D01*
X144996426Y-82024853D01*
X145273665Y-82080000D01*
X145556335Y-82080000D01*
X145833574Y-82024853D01*
X146094727Y-81916680D01*
X146329759Y-81759637D01*
X146529637Y-81559759D01*
X146686680Y-81324727D01*
X146794853Y-81063574D01*
X146850000Y-80786335D01*
X146850000Y-80503665D01*
X154140000Y-80503665D01*
X154140000Y-80786335D01*
X154195147Y-81063574D01*
X154303320Y-81324727D01*
X154460363Y-81559759D01*
X154660241Y-81759637D01*
X154895273Y-81916680D01*
X155156426Y-82024853D01*
X155433665Y-82080000D01*
X155716335Y-82080000D01*
X155993574Y-82024853D01*
X156254727Y-81916680D01*
X156489759Y-81759637D01*
X156689637Y-81559759D01*
X156846680Y-81324727D01*
X156954853Y-81063574D01*
X157010000Y-80786335D01*
X157010000Y-80503665D01*
X156954853Y-80226426D01*
X156846680Y-79965273D01*
X156689637Y-79730241D01*
X156489759Y-79530363D01*
X156254727Y-79373320D01*
X155993574Y-79265147D01*
X155716335Y-79210000D01*
X155433665Y-79210000D01*
X155156426Y-79265147D01*
X154895273Y-79373320D01*
X154660241Y-79530363D01*
X154460363Y-79730241D01*
X154303320Y-79965273D01*
X154195147Y-80226426D01*
X154140000Y-80503665D01*
X146850000Y-80503665D01*
X146794853Y-80226426D01*
X146686680Y-79965273D01*
X146529637Y-79730241D01*
X146329759Y-79530363D01*
X146094727Y-79373320D01*
X145833574Y-79265147D01*
X145556335Y-79210000D01*
X145273665Y-79210000D01*
X144996426Y-79265147D01*
X144735273Y-79373320D01*
X144500241Y-79530363D01*
X144300363Y-79730241D01*
X144143320Y-79965273D01*
X144035147Y-80226426D01*
X143980000Y-80503665D01*
X143675000Y-80503665D01*
X143619853Y-80226426D01*
X143511680Y-79965273D01*
X143354637Y-79730241D01*
X143154759Y-79530363D01*
X142919727Y-79373320D01*
X142658574Y-79265147D01*
X142381335Y-79210000D01*
X142098665Y-79210000D01*
X141821426Y-79265147D01*
X141560273Y-79373320D01*
X141325241Y-79530363D01*
X141125363Y-79730241D01*
X140968320Y-79965273D01*
X140860147Y-80226426D01*
X140805000Y-80503665D01*
X140805000Y-80786335D01*
X140841312Y-80968886D01*
X139824003Y-81986196D01*
X139794999Y-82009999D01*
X139754592Y-82059236D01*
X139700026Y-82125724D01*
X139678823Y-82165392D01*
X139629454Y-82257754D01*
X139585997Y-82401015D01*
X139575000Y-82512668D01*
X139575000Y-82512678D01*
X139571324Y-82550000D01*
X139575000Y-82587323D01*
X139575001Y-88831272D01*
X139531063Y-88875210D01*
X139417795Y-89044728D01*
X139339774Y-89233086D01*
X139300000Y-89433045D01*
X132914828Y-89433045D01*
X132994759Y-89379637D01*
X133194637Y-89179759D01*
X133351680Y-88944727D01*
X133459853Y-88683574D01*
X133515000Y-88406335D01*
X133515000Y-88123665D01*
X133459853Y-87846426D01*
X133351680Y-87585273D01*
X133194637Y-87350241D01*
X132994759Y-87150363D01*
X132759727Y-86993320D01*
X132498574Y-86885147D01*
X132221335Y-86830000D01*
X131938665Y-86830000D01*
X131661426Y-86885147D01*
X131400273Y-86993320D01*
X131165241Y-87150363D01*
X130965363Y-87350241D01*
X130808320Y-87585273D01*
X130700147Y-87846426D01*
X130691217Y-87891322D01*
X130637182Y-87713192D01*
X130503932Y-87463899D01*
X130324608Y-87245392D01*
X130106101Y-87066068D01*
X129973142Y-86995000D01*
X130106101Y-86923932D01*
X130324608Y-86744608D01*
X130503932Y-86526101D01*
X130637182Y-86276808D01*
X130719236Y-86006309D01*
X130746943Y-85725000D01*
X130719236Y-85443691D01*
X130637182Y-85173192D01*
X130503932Y-84923899D01*
X130324608Y-84705392D01*
X130106101Y-84526068D01*
X129973142Y-84455000D01*
X130106101Y-84383932D01*
X130191721Y-84313665D01*
X130645000Y-84313665D01*
X130645000Y-84596335D01*
X130700147Y-84873574D01*
X130808320Y-85134727D01*
X130965363Y-85369759D01*
X131165241Y-85569637D01*
X131400273Y-85726680D01*
X131661426Y-85834853D01*
X131938665Y-85890000D01*
X132221335Y-85890000D01*
X132498574Y-85834853D01*
X132759727Y-85726680D01*
X132994759Y-85569637D01*
X133194637Y-85369759D01*
X133351680Y-85134727D01*
X133459853Y-84873574D01*
X133515000Y-84596335D01*
X133515000Y-84313665D01*
X133459853Y-84036426D01*
X133351680Y-83775273D01*
X133194637Y-83540241D01*
X132994759Y-83340363D01*
X132759727Y-83183320D01*
X132498574Y-83075147D01*
X132221335Y-83020000D01*
X131938665Y-83020000D01*
X131661426Y-83075147D01*
X131400273Y-83183320D01*
X131165241Y-83340363D01*
X130965363Y-83540241D01*
X130808320Y-83775273D01*
X130700147Y-84036426D01*
X130645000Y-84313665D01*
X130191721Y-84313665D01*
X130324608Y-84204608D01*
X130503932Y-83986101D01*
X130637182Y-83736808D01*
X130719236Y-83466309D01*
X130746943Y-83185000D01*
X130719236Y-82903691D01*
X130637182Y-82633192D01*
X130503932Y-82383899D01*
X130324608Y-82165392D01*
X130106101Y-81986068D01*
X129973142Y-81915000D01*
X130106101Y-81843932D01*
X130324608Y-81664608D01*
X130503932Y-81446101D01*
X130637182Y-81196808D01*
X130691217Y-81018678D01*
X130700147Y-81063574D01*
X130808320Y-81324727D01*
X130965363Y-81559759D01*
X131165241Y-81759637D01*
X131400273Y-81916680D01*
X131661426Y-82024853D01*
X131938665Y-82080000D01*
X132221335Y-82080000D01*
X132498574Y-82024853D01*
X132759727Y-81916680D01*
X132994759Y-81759637D01*
X133194637Y-81559759D01*
X133351680Y-81324727D01*
X133459853Y-81063574D01*
X133515000Y-80786335D01*
X133515000Y-80503665D01*
X133459853Y-80226426D01*
X133351680Y-79965273D01*
X133194637Y-79730241D01*
X132994759Y-79530363D01*
X132759727Y-79373320D01*
X132498574Y-79265147D01*
X132221335Y-79210000D01*
X131938665Y-79210000D01*
X131661426Y-79265147D01*
X131400273Y-79373320D01*
X131165241Y-79530363D01*
X130965363Y-79730241D01*
X130808320Y-79965273D01*
X130700147Y-80226426D01*
X130691217Y-80271322D01*
X130637182Y-80093192D01*
X130503932Y-79843899D01*
X130324608Y-79625392D01*
X130106101Y-79446068D01*
X129856808Y-79312818D01*
X129586309Y-79230764D01*
X129375492Y-79210000D01*
X128434508Y-79210000D01*
X128223691Y-79230764D01*
X127953192Y-79312818D01*
X127825500Y-79381071D01*
X127825500Y-78638061D01*
X158350000Y-78638061D01*
X158350000Y-78841939D01*
X158389774Y-79041898D01*
X158467795Y-79230256D01*
X158581063Y-79399774D01*
X158725226Y-79543937D01*
X158894744Y-79657205D01*
X159083102Y-79735226D01*
X159278829Y-79774158D01*
X159266928Y-79895000D01*
X159266928Y-81395000D01*
X159279188Y-81519482D01*
X159315498Y-81639180D01*
X159374463Y-81749494D01*
X159453815Y-81846185D01*
X159550506Y-81925537D01*
X159660820Y-81984502D01*
X159780518Y-82020812D01*
X159888483Y-82031445D01*
X159772114Y-82109201D01*
X159579201Y-82302114D01*
X159427629Y-82528957D01*
X159323225Y-82781011D01*
X159270000Y-83048589D01*
X159270000Y-83321411D01*
X159323225Y-83588989D01*
X159427629Y-83841043D01*
X159579201Y-84067886D01*
X159772114Y-84260799D01*
X159998957Y-84412371D01*
X160101873Y-84455000D01*
X159998957Y-84497629D01*
X159772114Y-84649201D01*
X159579201Y-84842114D01*
X159427629Y-85068957D01*
X159323225Y-85321011D01*
X159270000Y-85588589D01*
X159270000Y-85861411D01*
X159323225Y-86128989D01*
X159427629Y-86381043D01*
X159579201Y-86607886D01*
X159772114Y-86800799D01*
X159998957Y-86952371D01*
X160251011Y-87056775D01*
X160518589Y-87110000D01*
X160791411Y-87110000D01*
X161058989Y-87056775D01*
X161311043Y-86952371D01*
X161537886Y-86800799D01*
X161730799Y-86607886D01*
X161882371Y-86381043D01*
X161986775Y-86128989D01*
X162040000Y-85861411D01*
X162040000Y-85588589D01*
X161986775Y-85321011D01*
X161882371Y-85068957D01*
X161730799Y-84842114D01*
X161537886Y-84649201D01*
X161311043Y-84497629D01*
X161208127Y-84455000D01*
X161311043Y-84412371D01*
X161537886Y-84260799D01*
X161730799Y-84067886D01*
X161882371Y-83841043D01*
X161986775Y-83588989D01*
X162040000Y-83321411D01*
X162040000Y-83048589D01*
X161986775Y-82781011D01*
X161882371Y-82528957D01*
X161730799Y-82302114D01*
X161537886Y-82109201D01*
X161421517Y-82031445D01*
X161529482Y-82020812D01*
X161649180Y-81984502D01*
X161759494Y-81925537D01*
X161856185Y-81846185D01*
X161935537Y-81749494D01*
X161994502Y-81639180D01*
X162030812Y-81519482D01*
X162043072Y-81395000D01*
X162043072Y-79895000D01*
X162030812Y-79770518D01*
X161994502Y-79650820D01*
X161935537Y-79540506D01*
X161902295Y-79500000D01*
X162880199Y-79500000D01*
X163429997Y-80049799D01*
X163429997Y-80111936D01*
X163469771Y-80311895D01*
X163547792Y-80500253D01*
X163661060Y-80669771D01*
X163805223Y-80813934D01*
X163974741Y-80927202D01*
X164163099Y-81005223D01*
X164363058Y-81044997D01*
X164566936Y-81044997D01*
X164766895Y-81005223D01*
X164955253Y-80927202D01*
X165124771Y-80813934D01*
X165268934Y-80669771D01*
X165382202Y-80500253D01*
X165460223Y-80311895D01*
X165499997Y-80111936D01*
X165499997Y-79908058D01*
X165460223Y-79708099D01*
X165382202Y-79519741D01*
X165268934Y-79350223D01*
X165124771Y-79206060D01*
X164955253Y-79092792D01*
X164766895Y-79014771D01*
X164566936Y-78974997D01*
X164504799Y-78974997D01*
X163758804Y-78229003D01*
X163735001Y-78199999D01*
X163619276Y-78105026D01*
X163487247Y-78034454D01*
X163343986Y-77990997D01*
X163232333Y-77980000D01*
X163232322Y-77980000D01*
X163195000Y-77976324D01*
X163157678Y-77980000D01*
X160088711Y-77980000D01*
X160044774Y-77936063D01*
X159875256Y-77822795D01*
X159686898Y-77744774D01*
X159486939Y-77705000D01*
X159283061Y-77705000D01*
X159083102Y-77744774D01*
X158894744Y-77822795D01*
X158725226Y-77936063D01*
X158581063Y-78080226D01*
X158467795Y-78249744D01*
X158389774Y-78438102D01*
X158350000Y-78638061D01*
X127825500Y-78638061D01*
X127825500Y-78260220D01*
X128053574Y-78214853D01*
X128314727Y-78106680D01*
X128549759Y-77949637D01*
X128749637Y-77749759D01*
X128906680Y-77514727D01*
X129014853Y-77253574D01*
X129070000Y-76976335D01*
X129070000Y-76693665D01*
X129014853Y-76416426D01*
X128906680Y-76155273D01*
X128749637Y-75920241D01*
X128549759Y-75720363D01*
X128314727Y-75563320D01*
X128053574Y-75455147D01*
X127776335Y-75400000D01*
X127493665Y-75400000D01*
X127216426Y-75455147D01*
X126955273Y-75563320D01*
X126720241Y-75720363D01*
X126520363Y-75920241D01*
X126363320Y-76155273D01*
X126255147Y-76416426D01*
X126200000Y-76693665D01*
X126200000Y-76976335D01*
X126234673Y-77150647D01*
X126233647Y-77152567D01*
X126186445Y-77308174D01*
X126170506Y-77470000D01*
X126174501Y-77510560D01*
X126174500Y-80604447D01*
X126170506Y-80645000D01*
X126174501Y-80685563D01*
X126174500Y-88224447D01*
X126170506Y-88265000D01*
X126174500Y-88305552D01*
X126174501Y-93003066D01*
X125174966Y-94002602D01*
X125143459Y-94028459D01*
X125075431Y-94111353D01*
X125040301Y-94154158D01*
X124963648Y-94297566D01*
X124963647Y-94297567D01*
X124916444Y-94453175D01*
X124904500Y-94574447D01*
X124900506Y-94615000D01*
X124904500Y-94655551D01*
X124904501Y-97797496D01*
X124812795Y-97934744D01*
X124734774Y-98123102D01*
X124695000Y-98323061D01*
X118689971Y-98323061D01*
X118679494Y-98314463D01*
X118569180Y-98255498D01*
X118449482Y-98219188D01*
X118325000Y-98206928D01*
X116625000Y-98206928D01*
X116500518Y-98219188D01*
X116380820Y-98255498D01*
X116270506Y-98314463D01*
X116173815Y-98393815D01*
X116094463Y-98490506D01*
X116035498Y-98600820D01*
X115999188Y-98720518D01*
X115986928Y-98845000D01*
X115595000Y-98845000D01*
X115595000Y-96234039D01*
X119493096Y-96234039D01*
X119510633Y-96316818D01*
X119621285Y-96576646D01*
X119780500Y-96809895D01*
X119982161Y-97007601D01*
X120218517Y-97162166D01*
X120480486Y-97267650D01*
X120758000Y-97320000D01*
X121158000Y-97320000D01*
X121158000Y-96012000D01*
X121412000Y-96012000D01*
X121412000Y-97320000D01*
X121812000Y-97320000D01*
X122089514Y-97267650D01*
X122351483Y-97162166D01*
X122587839Y-97007601D01*
X122789500Y-96809895D01*
X122948715Y-96576646D01*
X123059367Y-96316818D01*
X123076904Y-96234039D01*
X122954915Y-96012000D01*
X121412000Y-96012000D01*
X121158000Y-96012000D01*
X119615085Y-96012000D01*
X119493096Y-96234039D01*
X115595000Y-96234039D01*
X115595000Y-83185000D01*
X119443057Y-83185000D01*
X119470764Y-83466309D01*
X119552818Y-83736808D01*
X119686068Y-83986101D01*
X119865392Y-84204608D01*
X120083899Y-84383932D01*
X120216858Y-84455000D01*
X120083899Y-84526068D01*
X119865392Y-84705392D01*
X119686068Y-84923899D01*
X119552818Y-85173192D01*
X119470764Y-85443691D01*
X119443057Y-85725000D01*
X119470764Y-86006309D01*
X119552818Y-86276808D01*
X119686068Y-86526101D01*
X119865392Y-86744608D01*
X120083899Y-86923932D01*
X120216858Y-86995000D01*
X120083899Y-87066068D01*
X119865392Y-87245392D01*
X119686068Y-87463899D01*
X119552818Y-87713192D01*
X119470764Y-87983691D01*
X119443057Y-88265000D01*
X119470764Y-88546309D01*
X119552818Y-88816808D01*
X119686068Y-89066101D01*
X119865392Y-89284608D01*
X120083899Y-89463932D01*
X120216858Y-89535000D01*
X120083899Y-89606068D01*
X119865392Y-89785392D01*
X119686068Y-90003899D01*
X119552818Y-90253192D01*
X119470764Y-90523691D01*
X119443057Y-90805000D01*
X119470764Y-91086309D01*
X119552818Y-91356808D01*
X119686068Y-91606101D01*
X119865392Y-91824608D01*
X120083899Y-92003932D01*
X120216858Y-92075000D01*
X120083899Y-92146068D01*
X119865392Y-92325392D01*
X119686068Y-92543899D01*
X119552818Y-92793192D01*
X119470764Y-93063691D01*
X119443057Y-93345000D01*
X119470764Y-93626309D01*
X119552818Y-93896808D01*
X119686068Y-94146101D01*
X119865392Y-94364608D01*
X120083899Y-94543932D01*
X120211741Y-94612265D01*
X119982161Y-94762399D01*
X119780500Y-94960105D01*
X119621285Y-95193354D01*
X119510633Y-95453182D01*
X119493096Y-95535961D01*
X119615085Y-95758000D01*
X121158000Y-95758000D01*
X121158000Y-95738000D01*
X121412000Y-95738000D01*
X121412000Y-95758000D01*
X122954915Y-95758000D01*
X123076904Y-95535961D01*
X123059367Y-95453182D01*
X122948715Y-95193354D01*
X122789500Y-94960105D01*
X122587839Y-94762399D01*
X122358259Y-94612265D01*
X122486101Y-94543932D01*
X122704608Y-94364608D01*
X122883932Y-94146101D01*
X123017182Y-93896808D01*
X123099236Y-93626309D01*
X123126943Y-93345000D01*
X123099236Y-93063691D01*
X123017182Y-92793192D01*
X122883932Y-92543899D01*
X122704608Y-92325392D01*
X122486101Y-92146068D01*
X122353142Y-92075000D01*
X122486101Y-92003932D01*
X122704608Y-91824608D01*
X122883932Y-91606101D01*
X123017182Y-91356808D01*
X123099236Y-91086309D01*
X123126943Y-90805000D01*
X123099236Y-90523691D01*
X123017182Y-90253192D01*
X122883932Y-90003899D01*
X122704608Y-89785392D01*
X122486101Y-89606068D01*
X122353142Y-89535000D01*
X122486101Y-89463932D01*
X122704608Y-89284608D01*
X122883932Y-89066101D01*
X123017182Y-88816808D01*
X123099236Y-88546309D01*
X123126943Y-88265000D01*
X123099236Y-87983691D01*
X123017182Y-87713192D01*
X122883932Y-87463899D01*
X122704608Y-87245392D01*
X122486101Y-87066068D01*
X122353142Y-86995000D01*
X122486101Y-86923932D01*
X122704608Y-86744608D01*
X122883932Y-86526101D01*
X123017182Y-86276808D01*
X123099236Y-86006309D01*
X123126943Y-85725000D01*
X123099236Y-85443691D01*
X123017182Y-85173192D01*
X122883932Y-84923899D01*
X122704608Y-84705392D01*
X122486101Y-84526068D01*
X122353142Y-84455000D01*
X122486101Y-84383932D01*
X122704608Y-84204608D01*
X122883932Y-83986101D01*
X122934574Y-83891357D01*
X122937247Y-83890546D01*
X123069276Y-83819974D01*
X123185001Y-83725001D01*
X123208804Y-83695997D01*
X123954802Y-82950000D01*
X124016939Y-82950000D01*
X124216898Y-82910226D01*
X124405256Y-82832205D01*
X124574774Y-82718937D01*
X124718937Y-82574774D01*
X124832205Y-82405256D01*
X124910226Y-82216898D01*
X124950000Y-82016939D01*
X124950000Y-81813061D01*
X124910226Y-81613102D01*
X124832205Y-81424744D01*
X124718937Y-81255226D01*
X124574774Y-81111063D01*
X124405256Y-80997795D01*
X124216898Y-80919774D01*
X124016939Y-80880000D01*
X123813061Y-80880000D01*
X123613102Y-80919774D01*
X123424744Y-80997795D01*
X123255226Y-81111063D01*
X123123072Y-81243217D01*
X123123072Y-79845000D01*
X123110812Y-79720518D01*
X123074502Y-79600820D01*
X123015537Y-79490506D01*
X122936185Y-79393815D01*
X122839494Y-79314463D01*
X122729180Y-79255498D01*
X122609482Y-79219188D01*
X122485000Y-79206928D01*
X120085000Y-79206928D01*
X119960518Y-79219188D01*
X119840820Y-79255498D01*
X119730506Y-79314463D01*
X119633815Y-79393815D01*
X119554463Y-79490506D01*
X119495498Y-79600820D01*
X119459188Y-79720518D01*
X119446928Y-79845000D01*
X119446928Y-81445000D01*
X119459188Y-81569482D01*
X119495498Y-81689180D01*
X119554463Y-81799494D01*
X119633815Y-81896185D01*
X119730506Y-81975537D01*
X119840820Y-82034502D01*
X119960518Y-82070812D01*
X119978482Y-82072581D01*
X119865392Y-82165392D01*
X119686068Y-82383899D01*
X119552818Y-82633192D01*
X119470764Y-82903691D01*
X119443057Y-83185000D01*
X115595000Y-83185000D01*
X115595000Y-77827702D01*
X121821903Y-77827702D01*
X121893486Y-78071671D01*
X122148996Y-78192571D01*
X122423184Y-78261300D01*
X122705512Y-78275217D01*
X122985130Y-78233787D01*
X123251292Y-78138603D01*
X123376514Y-78071671D01*
X123448097Y-77827702D01*
X122635000Y-77014605D01*
X121821903Y-77827702D01*
X115595000Y-77827702D01*
X115595000Y-76905512D01*
X121194783Y-76905512D01*
X121236213Y-77185130D01*
X121331397Y-77451292D01*
X121398329Y-77576514D01*
X121642298Y-77648097D01*
X122455395Y-76835000D01*
X122814605Y-76835000D01*
X123627702Y-77648097D01*
X123871671Y-77576514D01*
X123992571Y-77321004D01*
X124061300Y-77046816D01*
X124075217Y-76764488D01*
X124033787Y-76484870D01*
X123938603Y-76218708D01*
X123871671Y-76093486D01*
X123627702Y-76021903D01*
X122814605Y-76835000D01*
X122455395Y-76835000D01*
X121642298Y-76021903D01*
X121398329Y-76093486D01*
X121277429Y-76348996D01*
X121208700Y-76623184D01*
X121194783Y-76905512D01*
X115595000Y-76905512D01*
X115595000Y-75842298D01*
X121821903Y-75842298D01*
X122635000Y-76655395D01*
X123448097Y-75842298D01*
X123376514Y-75598329D01*
X123121004Y-75477429D01*
X122846816Y-75408700D01*
X122564488Y-75394783D01*
X122284870Y-75436213D01*
X122018708Y-75531397D01*
X121893486Y-75598329D01*
X121821903Y-75842298D01*
X115595000Y-75842298D01*
X115595000Y-71787279D01*
X115622668Y-71505099D01*
X116360000Y-71505099D01*
X116360000Y-71974903D01*
X116451654Y-72435680D01*
X116631440Y-72869722D01*
X116892450Y-73260350D01*
X117224651Y-73592551D01*
X117615279Y-73853561D01*
X118049321Y-74033347D01*
X118510098Y-74125001D01*
X118979902Y-74125001D01*
X119440679Y-74033347D01*
X119874721Y-73853561D01*
X120112023Y-73695000D01*
X133766928Y-73695000D01*
X133766928Y-74895000D01*
X133783992Y-75068254D01*
X133834528Y-75234850D01*
X133916595Y-75388386D01*
X134027038Y-75522962D01*
X134161614Y-75633405D01*
X134315150Y-75715472D01*
X134481746Y-75766008D01*
X134655000Y-75783072D01*
X135855000Y-75783072D01*
X136028254Y-75766008D01*
X136194850Y-75715472D01*
X136348386Y-75633405D01*
X136482962Y-75522962D01*
X136593405Y-75388386D01*
X136661285Y-75261392D01*
X136848368Y-75448475D01*
X137091589Y-75610990D01*
X137361842Y-75722932D01*
X137648740Y-75780000D01*
X137941260Y-75780000D01*
X138228158Y-75722932D01*
X138498411Y-75610990D01*
X138741632Y-75448475D01*
X138948475Y-75241632D01*
X139065000Y-75067240D01*
X139181525Y-75241632D01*
X139388368Y-75448475D01*
X139631589Y-75610990D01*
X139901842Y-75722932D01*
X140188740Y-75780000D01*
X140481260Y-75780000D01*
X140768158Y-75722932D01*
X141038411Y-75610990D01*
X141281632Y-75448475D01*
X141406710Y-75323397D01*
X142026208Y-75323397D01*
X142103843Y-75572472D01*
X142367883Y-75698371D01*
X142651411Y-75770339D01*
X142943531Y-75785611D01*
X143233019Y-75743599D01*
X143508747Y-75645919D01*
X143646157Y-75572472D01*
X143723792Y-75323397D01*
X144566208Y-75323397D01*
X144643843Y-75572472D01*
X144907883Y-75698371D01*
X145191411Y-75770339D01*
X145483531Y-75785611D01*
X145773019Y-75743599D01*
X146048747Y-75645919D01*
X146186157Y-75572472D01*
X146263792Y-75323397D01*
X145415000Y-74474605D01*
X144566208Y-75323397D01*
X143723792Y-75323397D01*
X142875000Y-74474605D01*
X142026208Y-75323397D01*
X141406710Y-75323397D01*
X141488475Y-75241632D01*
X141604311Y-75068271D01*
X141846603Y-75143792D01*
X142695395Y-74295000D01*
X143054605Y-74295000D01*
X143903397Y-75143792D01*
X144145000Y-75068486D01*
X144386603Y-75143792D01*
X145235395Y-74295000D01*
X144386603Y-73446208D01*
X144145000Y-73521514D01*
X143903397Y-73446208D01*
X143054605Y-74295000D01*
X142695395Y-74295000D01*
X141846603Y-73446208D01*
X141604311Y-73521729D01*
X141488475Y-73348368D01*
X141281632Y-73141525D01*
X141107240Y-73025000D01*
X141281632Y-72908475D01*
X141488475Y-72701632D01*
X141605000Y-72527240D01*
X141721525Y-72701632D01*
X141928368Y-72908475D01*
X142101729Y-73024311D01*
X142026208Y-73266603D01*
X142875000Y-74115395D01*
X143723792Y-73266603D01*
X143648271Y-73024311D01*
X143821632Y-72908475D01*
X144028475Y-72701632D01*
X144145000Y-72527240D01*
X144261525Y-72701632D01*
X144468368Y-72908475D01*
X144641729Y-73024311D01*
X144566208Y-73266603D01*
X145415000Y-74115395D01*
X146263792Y-73266603D01*
X146188271Y-73024311D01*
X146361632Y-72908475D01*
X146568475Y-72701632D01*
X146685000Y-72527240D01*
X146801525Y-72701632D01*
X147008368Y-72908475D01*
X147182760Y-73025000D01*
X147008368Y-73141525D01*
X146801525Y-73348368D01*
X146685689Y-73521729D01*
X146443397Y-73446208D01*
X145594605Y-74295000D01*
X146443397Y-75143792D01*
X146685689Y-75068271D01*
X146801525Y-75241632D01*
X146838897Y-75279004D01*
X146829744Y-75282795D01*
X146660226Y-75396063D01*
X146516063Y-75540226D01*
X146402795Y-75709744D01*
X146324774Y-75898102D01*
X146285000Y-76098061D01*
X146285000Y-76301939D01*
X146324774Y-76501898D01*
X146402795Y-76690256D01*
X146516063Y-76859774D01*
X146660226Y-77003937D01*
X146829744Y-77117205D01*
X147018102Y-77195226D01*
X147218061Y-77235000D01*
X147421939Y-77235000D01*
X147621898Y-77195226D01*
X147810256Y-77117205D01*
X147979774Y-77003937D01*
X148023711Y-76960000D01*
X153632678Y-76960000D01*
X153670000Y-76963676D01*
X153707322Y-76960000D01*
X153707333Y-76960000D01*
X153818986Y-76949003D01*
X153962247Y-76905546D01*
X154094276Y-76834974D01*
X154210001Y-76740001D01*
X154233804Y-76710997D01*
X154979802Y-75965000D01*
X155041939Y-75965000D01*
X155241898Y-75925226D01*
X155430256Y-75847205D01*
X155599774Y-75733937D01*
X155743937Y-75589774D01*
X155857205Y-75420256D01*
X155935226Y-75231898D01*
X155975000Y-75031939D01*
X155975000Y-74828061D01*
X155935226Y-74628102D01*
X155857205Y-74439744D01*
X155743937Y-74270226D01*
X155599774Y-74126063D01*
X155430256Y-74012795D01*
X155241898Y-73934774D01*
X155041939Y-73895000D01*
X154838061Y-73895000D01*
X154638102Y-73934774D01*
X154489669Y-73996257D01*
X154462932Y-73861842D01*
X154350990Y-73591589D01*
X154188475Y-73348368D01*
X153981632Y-73141525D01*
X153807240Y-73025000D01*
X153981632Y-72908475D01*
X154188475Y-72701632D01*
X154350990Y-72458411D01*
X154462932Y-72188158D01*
X154520000Y-71901260D01*
X154520000Y-71608740D01*
X154502368Y-71520098D01*
X167160000Y-71520098D01*
X167160000Y-71989902D01*
X167251654Y-72450679D01*
X167431440Y-72884721D01*
X167692450Y-73275349D01*
X168024651Y-73607550D01*
X168415279Y-73868560D01*
X168849321Y-74048346D01*
X169310098Y-74140000D01*
X169779902Y-74140000D01*
X170240679Y-74048346D01*
X170674721Y-73868560D01*
X171065349Y-73607550D01*
X171397550Y-73275349D01*
X171658560Y-72884721D01*
X171838346Y-72450679D01*
X171930000Y-71989902D01*
X171930000Y-71520098D01*
X171838346Y-71059321D01*
X171658560Y-70625279D01*
X171397550Y-70234651D01*
X171065349Y-69902450D01*
X170674721Y-69641440D01*
X170240679Y-69461654D01*
X169779902Y-69370000D01*
X169310098Y-69370000D01*
X168849321Y-69461654D01*
X168415279Y-69641440D01*
X168024651Y-69902450D01*
X167692450Y-70234651D01*
X167431440Y-70625279D01*
X167251654Y-71059321D01*
X167160000Y-71520098D01*
X154502368Y-71520098D01*
X154462932Y-71321842D01*
X154350990Y-71051589D01*
X154188475Y-70808368D01*
X153981632Y-70601525D01*
X153738411Y-70439010D01*
X153468158Y-70327068D01*
X153181260Y-70270000D01*
X152888740Y-70270000D01*
X152601842Y-70327068D01*
X152331589Y-70439010D01*
X152088368Y-70601525D01*
X151881525Y-70808368D01*
X151765000Y-70982760D01*
X151648475Y-70808368D01*
X151441632Y-70601525D01*
X151198411Y-70439010D01*
X150928158Y-70327068D01*
X150641260Y-70270000D01*
X150348740Y-70270000D01*
X150061842Y-70327068D01*
X149791589Y-70439010D01*
X149548368Y-70601525D01*
X149341525Y-70808368D01*
X149225000Y-70982760D01*
X149108475Y-70808368D01*
X148901632Y-70601525D01*
X148658411Y-70439010D01*
X148388158Y-70327068D01*
X148101260Y-70270000D01*
X147808740Y-70270000D01*
X147521842Y-70327068D01*
X147251589Y-70439010D01*
X147008368Y-70601525D01*
X146801525Y-70808368D01*
X146685000Y-70982760D01*
X146568475Y-70808368D01*
X146361632Y-70601525D01*
X146118411Y-70439010D01*
X145848158Y-70327068D01*
X145561260Y-70270000D01*
X145268740Y-70270000D01*
X144981842Y-70327068D01*
X144711589Y-70439010D01*
X144468368Y-70601525D01*
X144261525Y-70808368D01*
X144145000Y-70982760D01*
X144028475Y-70808368D01*
X143821632Y-70601525D01*
X143578411Y-70439010D01*
X143308158Y-70327068D01*
X143021260Y-70270000D01*
X142728740Y-70270000D01*
X142441842Y-70327068D01*
X142171589Y-70439010D01*
X141928368Y-70601525D01*
X141721525Y-70808368D01*
X141605000Y-70982760D01*
X141488475Y-70808368D01*
X141281632Y-70601525D01*
X141038411Y-70439010D01*
X140768158Y-70327068D01*
X140481260Y-70270000D01*
X140188740Y-70270000D01*
X139901842Y-70327068D01*
X139631589Y-70439010D01*
X139388368Y-70601525D01*
X139181525Y-70808368D01*
X139065000Y-70982760D01*
X138948475Y-70808368D01*
X138741632Y-70601525D01*
X138498411Y-70439010D01*
X138228158Y-70327068D01*
X137941260Y-70270000D01*
X137648740Y-70270000D01*
X137361842Y-70327068D01*
X137091589Y-70439010D01*
X136848368Y-70601525D01*
X136641525Y-70808368D01*
X136525000Y-70982760D01*
X136408475Y-70808368D01*
X136201632Y-70601525D01*
X135958411Y-70439010D01*
X135688158Y-70327068D01*
X135401260Y-70270000D01*
X135108740Y-70270000D01*
X134821842Y-70327068D01*
X134551589Y-70439010D01*
X134308368Y-70601525D01*
X134101525Y-70808368D01*
X133939010Y-71051589D01*
X133827068Y-71321842D01*
X133770000Y-71608740D01*
X133770000Y-71901260D01*
X133827068Y-72188158D01*
X133939010Y-72458411D01*
X134101525Y-72701632D01*
X134288608Y-72888715D01*
X134161614Y-72956595D01*
X134027038Y-73067038D01*
X133916595Y-73201614D01*
X133834528Y-73355150D01*
X133783992Y-73521746D01*
X133766928Y-73695000D01*
X120112023Y-73695000D01*
X120265349Y-73592551D01*
X120597550Y-73260350D01*
X120858560Y-72869722D01*
X121038346Y-72435680D01*
X121130000Y-71974903D01*
X121130000Y-71505099D01*
X121038346Y-71044322D01*
X120858560Y-70610280D01*
X120597550Y-70219652D01*
X120265349Y-69887451D01*
X119874721Y-69626441D01*
X119440679Y-69446655D01*
X118979902Y-69355001D01*
X118510098Y-69355001D01*
X118049321Y-69446655D01*
X117615279Y-69626441D01*
X117224651Y-69887451D01*
X116892450Y-70219652D01*
X116631440Y-70610280D01*
X116451654Y-71044322D01*
X116360000Y-71505099D01*
X115622668Y-71505099D01*
X115658096Y-71143778D01*
X115835606Y-70555836D01*
X116123937Y-70013564D01*
X116512094Y-69537636D01*
X116985314Y-69146155D01*
X117525552Y-68854049D01*
X118112244Y-68672437D01*
X118753879Y-68605000D01*
X169512721Y-68605000D01*
X170156222Y-68668096D01*
G04 #@! TA.AperFunction,Conductor*
D26*
G36*
X170156222Y-68668096D02*
G01*
X170744164Y-68845606D01*
X171286436Y-69133937D01*
X171762364Y-69522094D01*
X172153845Y-69995314D01*
X172445951Y-70535552D01*
X172627563Y-71122244D01*
X172695001Y-71763888D01*
X172695000Y-107917721D01*
X172631904Y-108561221D01*
X172454394Y-109149164D01*
X172166063Y-109691436D01*
X171777906Y-110167364D01*
X171304686Y-110558845D01*
X170764449Y-110850950D01*
X170177756Y-111032563D01*
X169536130Y-111100000D01*
X118777279Y-111100000D01*
X118133779Y-111036904D01*
X117545836Y-110859394D01*
X117003564Y-110571063D01*
X116527636Y-110182906D01*
X116136155Y-109709686D01*
X115844050Y-109169449D01*
X115662437Y-108582756D01*
X115595000Y-107941130D01*
X115595000Y-107715098D01*
X116360000Y-107715098D01*
X116360000Y-108184902D01*
X116451654Y-108645679D01*
X116631440Y-109079721D01*
X116892450Y-109470349D01*
X117224651Y-109802550D01*
X117615279Y-110063560D01*
X118049321Y-110243346D01*
X118510098Y-110335000D01*
X118979902Y-110335000D01*
X119440679Y-110243346D01*
X119874721Y-110063560D01*
X120265349Y-109802550D01*
X120597550Y-109470349D01*
X120858560Y-109079721D01*
X121038346Y-108645679D01*
X121130000Y-108184902D01*
X121130000Y-107715098D01*
X121038346Y-107254321D01*
X120968791Y-107086400D01*
X126133328Y-107086400D01*
X126133328Y-108813600D01*
X126145588Y-108938082D01*
X126181898Y-109057780D01*
X126240863Y-109168094D01*
X126320215Y-109264785D01*
X126416906Y-109344137D01*
X126527220Y-109403102D01*
X126646918Y-109439412D01*
X126771400Y-109451672D01*
X128498600Y-109451672D01*
X128623082Y-109439412D01*
X128742780Y-109403102D01*
X128853094Y-109344137D01*
X128949785Y-109264785D01*
X129029137Y-109168094D01*
X129088102Y-109057780D01*
X129105636Y-108999977D01*
X129219698Y-109114039D01*
X129465147Y-109278042D01*
X129737875Y-109391010D01*
X130027401Y-109448600D01*
X130322599Y-109448600D01*
X130612125Y-109391010D01*
X130884853Y-109278042D01*
X131130302Y-109114039D01*
X131339039Y-108905302D01*
X131445000Y-108746719D01*
X131550961Y-108905302D01*
X131759698Y-109114039D01*
X132005147Y-109278042D01*
X132277875Y-109391010D01*
X132567401Y-109448600D01*
X132862599Y-109448600D01*
X133152125Y-109391010D01*
X133424853Y-109278042D01*
X133670302Y-109114039D01*
X133879039Y-108905302D01*
X133985000Y-108746719D01*
X134090961Y-108905302D01*
X134299698Y-109114039D01*
X134545147Y-109278042D01*
X134817875Y-109391010D01*
X135107401Y-109448600D01*
X135402599Y-109448600D01*
X135692125Y-109391010D01*
X135964853Y-109278042D01*
X136210302Y-109114039D01*
X136419039Y-108905302D01*
X136525000Y-108746719D01*
X136630961Y-108905302D01*
X136839698Y-109114039D01*
X137085147Y-109278042D01*
X137357875Y-109391010D01*
X137647401Y-109448600D01*
X137942599Y-109448600D01*
X138232125Y-109391010D01*
X138504853Y-109278042D01*
X138750302Y-109114039D01*
X138959039Y-108905302D01*
X139123042Y-108659853D01*
X139236010Y-108387125D01*
X139293600Y-108097599D01*
X139293600Y-107802401D01*
X139236010Y-107512875D01*
X139123042Y-107240147D01*
X139020313Y-107086400D01*
X148993328Y-107086400D01*
X148993328Y-108813600D01*
X149005588Y-108938082D01*
X149041898Y-109057780D01*
X149100863Y-109168094D01*
X149180215Y-109264785D01*
X149276906Y-109344137D01*
X149387220Y-109403102D01*
X149506918Y-109439412D01*
X149631400Y-109451672D01*
X151358600Y-109451672D01*
X151483082Y-109439412D01*
X151602780Y-109403102D01*
X151713094Y-109344137D01*
X151809785Y-109264785D01*
X151889137Y-109168094D01*
X151948102Y-109057780D01*
X151965636Y-108999977D01*
X152079698Y-109114039D01*
X152325147Y-109278042D01*
X152597875Y-109391010D01*
X152887401Y-109448600D01*
X153182599Y-109448600D01*
X153472125Y-109391010D01*
X153744853Y-109278042D01*
X153990302Y-109114039D01*
X154199039Y-108905302D01*
X154305000Y-108746719D01*
X154410961Y-108905302D01*
X154619698Y-109114039D01*
X154865147Y-109278042D01*
X155137875Y-109391010D01*
X155427401Y-109448600D01*
X155722599Y-109448600D01*
X156012125Y-109391010D01*
X156284853Y-109278042D01*
X156530302Y-109114039D01*
X156739039Y-108905302D01*
X156845000Y-108746719D01*
X156950961Y-108905302D01*
X157159698Y-109114039D01*
X157405147Y-109278042D01*
X157677875Y-109391010D01*
X157967401Y-109448600D01*
X158262599Y-109448600D01*
X158552125Y-109391010D01*
X158824853Y-109278042D01*
X159070302Y-109114039D01*
X159279039Y-108905302D01*
X159385000Y-108746719D01*
X159490961Y-108905302D01*
X159699698Y-109114039D01*
X159945147Y-109278042D01*
X160217875Y-109391010D01*
X160507401Y-109448600D01*
X160802599Y-109448600D01*
X161092125Y-109391010D01*
X161364853Y-109278042D01*
X161610302Y-109114039D01*
X161819039Y-108905302D01*
X161983042Y-108659853D01*
X162096010Y-108387125D01*
X162153600Y-108097599D01*
X162153600Y-107802401D01*
X162136235Y-107715098D01*
X167160000Y-107715098D01*
X167160000Y-108184902D01*
X167251654Y-108645679D01*
X167431440Y-109079721D01*
X167692450Y-109470349D01*
X168024651Y-109802550D01*
X168415279Y-110063560D01*
X168849321Y-110243346D01*
X169310098Y-110335000D01*
X169779902Y-110335000D01*
X170240679Y-110243346D01*
X170674721Y-110063560D01*
X171065349Y-109802550D01*
X171397550Y-109470349D01*
X171658560Y-109079721D01*
X171838346Y-108645679D01*
X171930000Y-108184902D01*
X171930000Y-107715098D01*
X171838346Y-107254321D01*
X171658560Y-106820279D01*
X171397550Y-106429651D01*
X171065349Y-106097450D01*
X170674721Y-105836440D01*
X170240679Y-105656654D01*
X169779902Y-105565000D01*
X169310098Y-105565000D01*
X168849321Y-105656654D01*
X168415279Y-105836440D01*
X168024651Y-106097450D01*
X167692450Y-106429651D01*
X167431440Y-106820279D01*
X167251654Y-107254321D01*
X167160000Y-107715098D01*
X162136235Y-107715098D01*
X162096010Y-107512875D01*
X161983042Y-107240147D01*
X161819039Y-106994698D01*
X161610302Y-106785961D01*
X161451719Y-106680000D01*
X161610302Y-106574039D01*
X161819039Y-106365302D01*
X161983042Y-106119853D01*
X162096010Y-105847125D01*
X162153600Y-105557599D01*
X162153600Y-105262401D01*
X162096010Y-104972875D01*
X161983042Y-104700147D01*
X161819039Y-104454698D01*
X161610302Y-104245961D01*
X161364853Y-104081958D01*
X161092125Y-103968990D01*
X160802599Y-103911400D01*
X160507401Y-103911400D01*
X160217875Y-103968990D01*
X159945147Y-104081958D01*
X159699698Y-104245961D01*
X159490961Y-104454698D01*
X159385000Y-104613281D01*
X159279039Y-104454698D01*
X159070302Y-104245961D01*
X158824853Y-104081958D01*
X158552125Y-103968990D01*
X158262599Y-103911400D01*
X157967401Y-103911400D01*
X157677875Y-103968990D01*
X157405147Y-104081958D01*
X157159698Y-104245961D01*
X156950961Y-104454698D01*
X156840441Y-104620103D01*
X156781817Y-104521512D01*
X156585293Y-104303146D01*
X156349944Y-104127316D01*
X156084814Y-104000778D01*
X155934026Y-103955042D01*
X155702000Y-104076183D01*
X155702000Y-105283000D01*
X155722000Y-105283000D01*
X155722000Y-105537000D01*
X155702000Y-105537000D01*
X155702000Y-105557000D01*
X155448000Y-105557000D01*
X155448000Y-105537000D01*
X155428000Y-105537000D01*
X155428000Y-105283000D01*
X155448000Y-105283000D01*
X155448000Y-104076183D01*
X155215974Y-103955042D01*
X155065186Y-104000778D01*
X154800056Y-104127316D01*
X154564707Y-104303146D01*
X154368183Y-104521512D01*
X154309559Y-104620103D01*
X154199039Y-104454698D01*
X153990302Y-104245961D01*
X153744853Y-104081958D01*
X153472125Y-103968990D01*
X153182599Y-103911400D01*
X152887401Y-103911400D01*
X152597875Y-103968990D01*
X152325147Y-104081958D01*
X152079698Y-104245961D01*
X151870961Y-104454698D01*
X151765000Y-104613281D01*
X151659039Y-104454698D01*
X151450302Y-104245961D01*
X151204853Y-104081958D01*
X150932125Y-103968990D01*
X150642599Y-103911400D01*
X150347401Y-103911400D01*
X150057875Y-103968990D01*
X149785147Y-104081958D01*
X149539698Y-104245961D01*
X149330961Y-104454698D01*
X149166958Y-104700147D01*
X149053990Y-104972875D01*
X148996400Y-105262401D01*
X148996400Y-105557599D01*
X149053990Y-105847125D01*
X149166958Y-106119853D01*
X149330961Y-106365302D01*
X149445023Y-106479364D01*
X149387220Y-106496898D01*
X149276906Y-106555863D01*
X149180215Y-106635215D01*
X149100863Y-106731906D01*
X149041898Y-106842220D01*
X149005588Y-106961918D01*
X148993328Y-107086400D01*
X139020313Y-107086400D01*
X138959039Y-106994698D01*
X138750302Y-106785961D01*
X138591719Y-106680000D01*
X138750302Y-106574039D01*
X138959039Y-106365302D01*
X139123042Y-106119853D01*
X139236010Y-105847125D01*
X139293600Y-105557599D01*
X139293600Y-105262401D01*
X139236010Y-104972875D01*
X139123042Y-104700147D01*
X138959039Y-104454698D01*
X138750302Y-104245961D01*
X138504853Y-104081958D01*
X138232125Y-103968990D01*
X137942599Y-103911400D01*
X137647401Y-103911400D01*
X137357875Y-103968990D01*
X137085147Y-104081958D01*
X136839698Y-104245961D01*
X136630961Y-104454698D01*
X136525000Y-104613281D01*
X136419039Y-104454698D01*
X136210302Y-104245961D01*
X135964853Y-104081958D01*
X135692125Y-103968990D01*
X135402599Y-103911400D01*
X135107401Y-103911400D01*
X134817875Y-103968990D01*
X134545147Y-104081958D01*
X134299698Y-104245961D01*
X134090961Y-104454698D01*
X133980441Y-104620103D01*
X133921817Y-104521512D01*
X133725293Y-104303146D01*
X133489944Y-104127316D01*
X133224814Y-104000778D01*
X133074026Y-103955042D01*
X132842000Y-104076183D01*
X132842000Y-105283000D01*
X132862000Y-105283000D01*
X132862000Y-105537000D01*
X132842000Y-105537000D01*
X132842000Y-105557000D01*
X132588000Y-105557000D01*
X132588000Y-105537000D01*
X132568000Y-105537000D01*
X132568000Y-105283000D01*
X132588000Y-105283000D01*
X132588000Y-104076183D01*
X132355974Y-103955042D01*
X132205186Y-104000778D01*
X131940056Y-104127316D01*
X131704707Y-104303146D01*
X131508183Y-104521512D01*
X131449559Y-104620103D01*
X131339039Y-104454698D01*
X131130302Y-104245961D01*
X130884853Y-104081958D01*
X130612125Y-103968990D01*
X130322599Y-103911400D01*
X130027401Y-103911400D01*
X129737875Y-103968990D01*
X129465147Y-104081958D01*
X129219698Y-104245961D01*
X129010961Y-104454698D01*
X128905000Y-104613281D01*
X128799039Y-104454698D01*
X128590302Y-104245961D01*
X128344853Y-104081958D01*
X128072125Y-103968990D01*
X127782599Y-103911400D01*
X127487401Y-103911400D01*
X127197875Y-103968990D01*
X126925147Y-104081958D01*
X126679698Y-104245961D01*
X126470961Y-104454698D01*
X126306958Y-104700147D01*
X126193990Y-104972875D01*
X126136400Y-105262401D01*
X126136400Y-105557599D01*
X126193990Y-105847125D01*
X126306958Y-106119853D01*
X126470961Y-106365302D01*
X126585023Y-106479364D01*
X126527220Y-106496898D01*
X126416906Y-106555863D01*
X126320215Y-106635215D01*
X126240863Y-106731906D01*
X126181898Y-106842220D01*
X126145588Y-106961918D01*
X126133328Y-107086400D01*
X120968791Y-107086400D01*
X120858560Y-106820279D01*
X120597550Y-106429651D01*
X120265349Y-106097450D01*
X119874721Y-105836440D01*
X119440679Y-105656654D01*
X118979902Y-105565000D01*
X118510098Y-105565000D01*
X118049321Y-105656654D01*
X117615279Y-105836440D01*
X117224651Y-106097450D01*
X116892450Y-106429651D01*
X116631440Y-106820279D01*
X116451654Y-107254321D01*
X116360000Y-107715098D01*
X115595000Y-107715098D01*
X115595000Y-98845000D01*
X115986928Y-98845000D01*
X115986928Y-100545000D01*
X115999188Y-100669482D01*
X116035498Y-100789180D01*
X116094463Y-100899494D01*
X116173815Y-100996185D01*
X116270506Y-101075537D01*
X116380820Y-101134502D01*
X116453380Y-101156513D01*
X116321525Y-101288368D01*
X116159010Y-101531589D01*
X116047068Y-101801842D01*
X115990000Y-102088740D01*
X115990000Y-102381260D01*
X116047068Y-102668158D01*
X116159010Y-102938411D01*
X116321525Y-103181632D01*
X116528368Y-103388475D01*
X116771589Y-103550990D01*
X117041842Y-103662932D01*
X117328740Y-103720000D01*
X117621260Y-103720000D01*
X117908158Y-103662932D01*
X118178411Y-103550990D01*
X118421632Y-103388475D01*
X118628475Y-103181632D01*
X118790990Y-102938411D01*
X118902932Y-102668158D01*
X118960000Y-102381260D01*
X118960000Y-102088740D01*
X118902932Y-101801842D01*
X118790990Y-101531589D01*
X118628475Y-101288368D01*
X118496620Y-101156513D01*
X118569180Y-101134502D01*
X118679494Y-101075537D01*
X118776185Y-100996185D01*
X118855537Y-100899494D01*
X118914502Y-100789180D01*
X118950812Y-100669482D01*
X118963072Y-100545000D01*
X118963072Y-98845000D01*
X118950812Y-98720518D01*
X118914502Y-98600820D01*
X118855537Y-98490506D01*
X118776185Y-98393815D01*
X118689971Y-98323061D01*
X124695000Y-98323061D01*
X124695000Y-98526939D01*
X124734774Y-98726898D01*
X124812795Y-98915256D01*
X124926063Y-99084774D01*
X125070226Y-99228937D01*
X125239744Y-99342205D01*
X125428102Y-99420226D01*
X125628061Y-99460000D01*
X125831939Y-99460000D01*
X126031898Y-99420226D01*
X126220256Y-99342205D01*
X126389774Y-99228937D01*
X126533937Y-99084774D01*
X126647205Y-98915256D01*
X126725226Y-98726898D01*
X126765000Y-98526939D01*
X126765000Y-98323061D01*
X126725226Y-98123102D01*
X126647205Y-97934744D01*
X126555500Y-97797497D01*
X126555500Y-94956932D01*
X127333232Y-94179201D01*
X127485392Y-94364608D01*
X127703899Y-94543932D01*
X127836858Y-94615000D01*
X127703899Y-94686068D01*
X127485392Y-94865392D01*
X127306068Y-95083899D01*
X127172818Y-95333192D01*
X127090764Y-95603691D01*
X127063057Y-95885000D01*
X127090764Y-96166309D01*
X127172818Y-96436808D01*
X127306068Y-96686101D01*
X127485392Y-96904608D01*
X127703899Y-97083932D01*
X127953192Y-97217182D01*
X128223691Y-97299236D01*
X128434508Y-97320000D01*
X129375492Y-97320000D01*
X129586309Y-97299236D01*
X129856808Y-97217182D01*
X130106101Y-97083932D01*
X130324608Y-96904608D01*
X130503932Y-96686101D01*
X130637182Y-96436808D01*
X130691217Y-96258678D01*
X130700147Y-96303574D01*
X130808320Y-96564727D01*
X130965363Y-96799759D01*
X131165241Y-96999637D01*
X131400273Y-97156680D01*
X131661426Y-97264853D01*
X131938665Y-97320000D01*
X132221335Y-97320000D01*
X132498574Y-97264853D01*
X132759727Y-97156680D01*
X132994759Y-96999637D01*
X133194637Y-96799759D01*
X133291329Y-96655048D01*
X133325218Y-96688937D01*
X133494736Y-96802205D01*
X133683094Y-96880226D01*
X133883053Y-96920000D01*
X134086931Y-96920000D01*
X134286890Y-96880226D01*
X134475248Y-96802205D01*
X134644766Y-96688937D01*
X134788929Y-96544774D01*
X134902197Y-96375256D01*
X134980218Y-96186898D01*
X135019992Y-95986939D01*
X135019992Y-95783061D01*
X134980218Y-95583102D01*
X134902197Y-95394744D01*
X134788929Y-95225226D01*
X134744992Y-95181289D01*
X134744992Y-91508719D01*
X134788937Y-91464774D01*
X134902205Y-91295256D01*
X134980226Y-91106898D01*
X135020000Y-90906939D01*
X135020000Y-90703061D01*
X134980226Y-90503102D01*
X134902205Y-90314744D01*
X134788937Y-90145226D01*
X134644774Y-90001063D01*
X134475256Y-89887795D01*
X134286898Y-89809774D01*
X134086939Y-89770000D01*
X133883061Y-89770000D01*
X133683102Y-89809774D01*
X133494744Y-89887795D01*
X133325226Y-90001063D01*
X133181063Y-90145226D01*
X133067795Y-90314744D01*
X132989774Y-90503102D01*
X132950000Y-90703061D01*
X132950000Y-90906939D01*
X132955395Y-90934061D01*
X132759727Y-90803320D01*
X132498574Y-90695147D01*
X132221335Y-90640000D01*
X131938665Y-90640000D01*
X131661426Y-90695147D01*
X131400273Y-90803320D01*
X131165241Y-90960363D01*
X130965363Y-91160241D01*
X130808320Y-91395273D01*
X130700147Y-91656426D01*
X130645000Y-91933665D01*
X130645000Y-92216335D01*
X130700147Y-92493574D01*
X130808320Y-92754727D01*
X130965363Y-92989759D01*
X131165241Y-93189637D01*
X131400273Y-93346680D01*
X131661426Y-93454853D01*
X131938665Y-93510000D01*
X132221335Y-93510000D01*
X132498574Y-93454853D01*
X132759727Y-93346680D01*
X132994759Y-93189637D01*
X133194637Y-92989759D01*
X133224993Y-92944329D01*
X133224992Y-95015671D01*
X133194637Y-94970241D01*
X132994759Y-94770363D01*
X132759727Y-94613320D01*
X132498574Y-94505147D01*
X132221335Y-94450000D01*
X131938665Y-94450000D01*
X131661426Y-94505147D01*
X131400273Y-94613320D01*
X131165241Y-94770363D01*
X130965363Y-94970241D01*
X130808320Y-95205273D01*
X130700147Y-95466426D01*
X130691217Y-95511322D01*
X130637182Y-95333192D01*
X130503932Y-95083899D01*
X130324608Y-94865392D01*
X130106101Y-94686068D01*
X129973142Y-94615000D01*
X130106101Y-94543932D01*
X130324608Y-94364608D01*
X130503932Y-94146101D01*
X130637182Y-93896808D01*
X130719236Y-93626309D01*
X130746943Y-93345000D01*
X130719236Y-93063691D01*
X130637182Y-92793192D01*
X130503932Y-92543899D01*
X130324608Y-92325392D01*
X130106101Y-92146068D01*
X129973142Y-92075000D01*
X130106101Y-92003932D01*
X130324608Y-91824608D01*
X130503932Y-91606101D01*
X130637182Y-91356808D01*
X130719236Y-91086309D01*
X130746943Y-90805000D01*
X130719236Y-90523691D01*
X130637182Y-90253192D01*
X130503932Y-90003899D01*
X130324608Y-89785392D01*
X130106101Y-89606068D01*
X129973142Y-89535000D01*
X130106101Y-89463932D01*
X130324608Y-89284608D01*
X130503932Y-89066101D01*
X130637182Y-88816808D01*
X130691217Y-88638678D01*
X130700147Y-88683574D01*
X130808320Y-88944727D01*
X130965363Y-89179759D01*
X131165241Y-89379637D01*
X131400273Y-89536680D01*
X131661426Y-89644853D01*
X131938665Y-89700000D01*
X132221335Y-89700000D01*
X132498574Y-89644853D01*
X132759727Y-89536680D01*
X132914828Y-89433045D01*
X139300000Y-89433045D01*
X139300000Y-89636923D01*
X139339774Y-89836882D01*
X139417795Y-90025240D01*
X139531063Y-90194758D01*
X139675226Y-90338921D01*
X139844744Y-90452189D01*
X140033102Y-90530210D01*
X140233061Y-90569984D01*
X140436939Y-90569984D01*
X140636898Y-90530210D01*
X140825256Y-90452189D01*
X140994774Y-90338921D01*
X141138937Y-90194758D01*
X141252205Y-90025240D01*
X141330226Y-89836882D01*
X141370000Y-89636923D01*
X141370000Y-89433045D01*
X141364609Y-89405942D01*
X141414501Y-89439278D01*
X141414500Y-90900722D01*
X141325241Y-90960363D01*
X141125363Y-91160241D01*
X140968320Y-91395273D01*
X140860147Y-91656426D01*
X140805000Y-91933665D01*
X140805000Y-92216335D01*
X140860147Y-92493574D01*
X140968320Y-92754727D01*
X141125363Y-92989759D01*
X141325241Y-93189637D01*
X141414500Y-93249278D01*
X141414501Y-94710722D01*
X141325241Y-94770363D01*
X141125363Y-94970241D01*
X140968320Y-95205273D01*
X140860147Y-95466426D01*
X140805000Y-95743665D01*
X140805000Y-96026335D01*
X140860147Y-96303574D01*
X140968320Y-96564727D01*
X141125363Y-96799759D01*
X141325241Y-96999637D01*
X141560273Y-97156680D01*
X141821426Y-97264853D01*
X142098665Y-97320000D01*
X142381335Y-97320000D01*
X142658574Y-97264853D01*
X142919727Y-97156680D01*
X143154759Y-96999637D01*
X143276694Y-96877702D01*
X144601903Y-96877702D01*
X144673486Y-97121671D01*
X144928996Y-97242571D01*
X145203184Y-97311300D01*
X145485512Y-97325217D01*
X145765130Y-97283787D01*
X146031292Y-97188603D01*
X146156514Y-97121671D01*
X146228097Y-96877704D01*
X146289721Y-96939328D01*
X146285000Y-96963061D01*
X146285000Y-97166939D01*
X146324774Y-97366898D01*
X146402795Y-97555256D01*
X146516063Y-97724774D01*
X146560001Y-97768712D01*
X146560001Y-98387657D01*
X146560000Y-98387667D01*
X146560000Y-98633188D01*
X146556324Y-98670510D01*
X146560000Y-98707832D01*
X146560000Y-98707842D01*
X146570997Y-98819495D01*
X146614454Y-98962756D01*
X146685026Y-99094786D01*
X146714374Y-99130546D01*
X146779999Y-99210511D01*
X146809002Y-99234313D01*
X146920000Y-99345311D01*
X146920000Y-99407449D01*
X146959774Y-99607408D01*
X147037795Y-99795766D01*
X147151063Y-99965284D01*
X147295226Y-100109447D01*
X147464744Y-100222715D01*
X147653102Y-100300736D01*
X147853061Y-100340510D01*
X148056939Y-100340510D01*
X148256898Y-100300736D01*
X148445256Y-100222715D01*
X148614774Y-100109447D01*
X148758937Y-99965284D01*
X148872205Y-99795766D01*
X148950226Y-99607408D01*
X148990000Y-99407449D01*
X148990000Y-99203571D01*
X148950226Y-99003612D01*
X148872205Y-98815254D01*
X148758937Y-98645736D01*
X148614774Y-98501573D01*
X148445256Y-98388305D01*
X148256898Y-98310284D01*
X148080000Y-98275097D01*
X148080000Y-97768711D01*
X148123937Y-97724774D01*
X148237205Y-97555256D01*
X148315226Y-97366898D01*
X148355000Y-97166939D01*
X148355000Y-96963061D01*
X148315226Y-96763102D01*
X148237205Y-96574744D01*
X148123937Y-96405226D01*
X147979774Y-96261063D01*
X147810256Y-96147795D01*
X147621898Y-96069774D01*
X147421939Y-96030000D01*
X147218061Y-96030000D01*
X147018102Y-96069774D01*
X146829744Y-96147795D01*
X146828275Y-96148776D01*
X146841300Y-96096816D01*
X146855217Y-95814488D01*
X146813787Y-95534870D01*
X146718603Y-95268708D01*
X146651671Y-95143486D01*
X146407702Y-95071903D01*
X145594605Y-95885000D01*
X145608748Y-95899143D01*
X145429143Y-96078748D01*
X145415000Y-96064605D01*
X144601903Y-96877702D01*
X143276694Y-96877702D01*
X143354637Y-96799759D01*
X143511680Y-96564727D01*
X143619853Y-96303574D01*
X143675000Y-96026335D01*
X143675000Y-95955512D01*
X143974783Y-95955512D01*
X144016213Y-96235130D01*
X144111397Y-96501292D01*
X144178329Y-96626514D01*
X144422298Y-96698097D01*
X145235395Y-95885000D01*
X144422298Y-95071903D01*
X144178329Y-95143486D01*
X144057429Y-95398996D01*
X143988700Y-95673184D01*
X143974783Y-95955512D01*
X143675000Y-95955512D01*
X143675000Y-95743665D01*
X143619853Y-95466426D01*
X143511680Y-95205273D01*
X143354637Y-94970241D01*
X143276694Y-94892298D01*
X144601903Y-94892298D01*
X145415000Y-95705395D01*
X146228097Y-94892298D01*
X146156514Y-94648329D01*
X145901004Y-94527429D01*
X145626816Y-94458700D01*
X145344488Y-94444783D01*
X145064870Y-94486213D01*
X144798708Y-94581397D01*
X144673486Y-94648329D01*
X144601903Y-94892298D01*
X143276694Y-94892298D01*
X143154759Y-94770363D01*
X143065500Y-94710722D01*
X143065500Y-93249278D01*
X143154759Y-93189637D01*
X143354637Y-92989759D01*
X143511680Y-92754727D01*
X143619853Y-92493574D01*
X143675000Y-92216335D01*
X143675000Y-91933665D01*
X143980000Y-91933665D01*
X143980000Y-92216335D01*
X144035147Y-92493574D01*
X144143320Y-92754727D01*
X144300363Y-92989759D01*
X144500241Y-93189637D01*
X144735273Y-93346680D01*
X144996426Y-93454853D01*
X145273665Y-93510000D01*
X145556335Y-93510000D01*
X145833574Y-93454853D01*
X146094727Y-93346680D01*
X146329759Y-93189637D01*
X146529637Y-92989759D01*
X146686680Y-92754727D01*
X146794853Y-92493574D01*
X146850000Y-92216335D01*
X146850000Y-91933665D01*
X146794853Y-91656426D01*
X146686680Y-91395273D01*
X146529637Y-91160241D01*
X146329759Y-90960363D01*
X146094727Y-90803320D01*
X145833574Y-90695147D01*
X145556335Y-90640000D01*
X145273665Y-90640000D01*
X144996426Y-90695147D01*
X144735273Y-90803320D01*
X144500241Y-90960363D01*
X144300363Y-91160241D01*
X144143320Y-91395273D01*
X144035147Y-91656426D01*
X143980000Y-91933665D01*
X143675000Y-91933665D01*
X143619853Y-91656426D01*
X143511680Y-91395273D01*
X143354637Y-91160241D01*
X143154759Y-90960363D01*
X143065500Y-90900722D01*
X143065500Y-89439278D01*
X143154759Y-89379637D01*
X143354637Y-89179759D01*
X143511680Y-88944727D01*
X143619853Y-88683574D01*
X143675000Y-88406335D01*
X143675000Y-88123665D01*
X143980000Y-88123665D01*
X143980000Y-88406335D01*
X144035147Y-88683574D01*
X144143320Y-88944727D01*
X144300363Y-89179759D01*
X144500241Y-89379637D01*
X144735273Y-89536680D01*
X144996426Y-89644853D01*
X145273665Y-89700000D01*
X145556335Y-89700000D01*
X145833574Y-89644853D01*
X146094727Y-89536680D01*
X146329759Y-89379637D01*
X146529637Y-89179759D01*
X146686680Y-88944727D01*
X146794853Y-88683574D01*
X146850000Y-88406335D01*
X146850000Y-88123665D01*
X146794853Y-87846426D01*
X146686680Y-87585273D01*
X146648453Y-87528061D01*
X152635000Y-87528061D01*
X152635000Y-87731939D01*
X152674774Y-87931898D01*
X152752795Y-88120256D01*
X152866063Y-88289774D01*
X152910001Y-88333712D01*
X152910000Y-100292678D01*
X152906324Y-100330000D01*
X152910000Y-100367322D01*
X152910000Y-100367332D01*
X152920997Y-100478985D01*
X152947089Y-100565000D01*
X152964454Y-100622246D01*
X153035026Y-100754276D01*
X153069320Y-100796063D01*
X153129999Y-100870001D01*
X153159003Y-100893804D01*
X154376201Y-102111003D01*
X154399999Y-102140001D01*
X154515724Y-102234974D01*
X154647753Y-102305546D01*
X154791014Y-102349003D01*
X154902667Y-102360000D01*
X154902676Y-102360000D01*
X154939999Y-102363676D01*
X154977322Y-102360000D01*
X158136289Y-102360000D01*
X158180226Y-102403937D01*
X158349744Y-102517205D01*
X158538102Y-102595226D01*
X158738061Y-102635000D01*
X158941939Y-102635000D01*
X159141898Y-102595226D01*
X159330256Y-102517205D01*
X159499774Y-102403937D01*
X159643937Y-102259774D01*
X159757205Y-102090256D01*
X159835226Y-101901898D01*
X159875000Y-101701939D01*
X159875000Y-101498061D01*
X159835226Y-101298102D01*
X159823093Y-101268812D01*
X159875256Y-101247205D01*
X160044774Y-101133937D01*
X160188937Y-100989774D01*
X160302205Y-100820256D01*
X160380226Y-100631898D01*
X160420000Y-100431939D01*
X160420000Y-100228061D01*
X160380226Y-100028102D01*
X160302205Y-99839744D01*
X160188937Y-99670226D01*
X160044774Y-99526063D01*
X159875256Y-99412795D01*
X159686898Y-99334774D01*
X159486939Y-99295000D01*
X159283061Y-99295000D01*
X159083102Y-99334774D01*
X158894744Y-99412795D01*
X158725226Y-99526063D01*
X158681289Y-99570000D01*
X156278711Y-99570000D01*
X156234774Y-99526063D01*
X156065256Y-99412795D01*
X155876898Y-99334774D01*
X155676939Y-99295000D01*
X155473061Y-99295000D01*
X155273102Y-99334774D01*
X155084744Y-99412795D01*
X154915226Y-99526063D01*
X154771063Y-99670226D01*
X154657795Y-99839744D01*
X154579774Y-100028102D01*
X154557066Y-100142265D01*
X154430000Y-100015199D01*
X154430000Y-96754317D01*
X154460363Y-96799759D01*
X154660241Y-96999637D01*
X154895273Y-97156680D01*
X155156426Y-97264853D01*
X155433665Y-97320000D01*
X155716335Y-97320000D01*
X155993574Y-97264853D01*
X156254727Y-97156680D01*
X156489759Y-96999637D01*
X156689637Y-96799759D01*
X156846680Y-96564727D01*
X156954853Y-96303574D01*
X157010000Y-96026335D01*
X157010000Y-95743665D01*
X156954853Y-95466426D01*
X156846680Y-95205273D01*
X156689637Y-94970241D01*
X156489759Y-94770363D01*
X156254727Y-94613320D01*
X155993574Y-94505147D01*
X155716335Y-94450000D01*
X155433665Y-94450000D01*
X155156426Y-94505147D01*
X154895273Y-94613320D01*
X154660241Y-94770363D01*
X154460363Y-94970241D01*
X154430000Y-95015683D01*
X154430000Y-92944317D01*
X154460363Y-92989759D01*
X154660241Y-93189637D01*
X154895273Y-93346680D01*
X155156426Y-93454853D01*
X155433665Y-93510000D01*
X155716335Y-93510000D01*
X155993574Y-93454853D01*
X156254727Y-93346680D01*
X156489759Y-93189637D01*
X156689637Y-92989759D01*
X156846680Y-92754727D01*
X156954853Y-92493574D01*
X157010000Y-92216335D01*
X157010000Y-91933665D01*
X156954853Y-91656426D01*
X156846680Y-91395273D01*
X156689637Y-91160241D01*
X156489759Y-90960363D01*
X156254727Y-90803320D01*
X155993574Y-90695147D01*
X155716335Y-90640000D01*
X155433665Y-90640000D01*
X155156426Y-90695147D01*
X154895273Y-90803320D01*
X154660241Y-90960363D01*
X154460363Y-91160241D01*
X154430000Y-91205683D01*
X154430000Y-89134317D01*
X154460363Y-89179759D01*
X154660241Y-89379637D01*
X154895273Y-89536680D01*
X155156426Y-89644853D01*
X155433665Y-89700000D01*
X155716335Y-89700000D01*
X155993574Y-89644853D01*
X156254727Y-89536680D01*
X156489759Y-89379637D01*
X156689637Y-89179759D01*
X156846680Y-88944727D01*
X156912841Y-88785000D01*
X159266928Y-88785000D01*
X159266928Y-90285000D01*
X159279188Y-90409482D01*
X159315498Y-90529180D01*
X159374463Y-90639494D01*
X159453815Y-90736185D01*
X159550506Y-90815537D01*
X159660820Y-90874502D01*
X159780518Y-90910812D01*
X159888483Y-90921445D01*
X159772114Y-90999201D01*
X159579201Y-91192114D01*
X159427629Y-91418957D01*
X159323225Y-91671011D01*
X159270000Y-91938589D01*
X159270000Y-92211411D01*
X159323225Y-92478989D01*
X159427629Y-92731043D01*
X159579201Y-92957886D01*
X159772114Y-93150799D01*
X159998957Y-93302371D01*
X160101873Y-93345000D01*
X159998957Y-93387629D01*
X159772114Y-93539201D01*
X159579201Y-93732114D01*
X159427629Y-93958957D01*
X159323225Y-94211011D01*
X159270000Y-94478589D01*
X159270000Y-94751411D01*
X159323225Y-95018989D01*
X159427629Y-95271043D01*
X159579201Y-95497886D01*
X159772114Y-95690799D01*
X159998957Y-95842371D01*
X160251011Y-95946775D01*
X160518589Y-96000000D01*
X160791411Y-96000000D01*
X161058989Y-95946775D01*
X161311043Y-95842371D01*
X161537886Y-95690799D01*
X161730799Y-95497886D01*
X161882371Y-95271043D01*
X161986775Y-95018989D01*
X162040000Y-94751411D01*
X162040000Y-94478589D01*
X161986775Y-94211011D01*
X161882371Y-93958957D01*
X161730799Y-93732114D01*
X161537886Y-93539201D01*
X161311043Y-93387629D01*
X161208127Y-93345000D01*
X161311043Y-93302371D01*
X161537886Y-93150799D01*
X161730799Y-92957886D01*
X161882371Y-92731043D01*
X161986775Y-92478989D01*
X162040000Y-92211411D01*
X162040000Y-91938589D01*
X161986775Y-91671011D01*
X161882371Y-91418957D01*
X161730799Y-91192114D01*
X161537886Y-90999201D01*
X161421517Y-90921445D01*
X161529482Y-90910812D01*
X161649180Y-90874502D01*
X161759494Y-90815537D01*
X161856185Y-90736185D01*
X161935537Y-90639494D01*
X161994502Y-90529180D01*
X162030812Y-90409482D01*
X162043072Y-90285000D01*
X162043072Y-88785000D01*
X162030812Y-88660518D01*
X161994502Y-88540820D01*
X161935537Y-88430506D01*
X161856185Y-88333815D01*
X161759494Y-88254463D01*
X161649180Y-88195498D01*
X161529482Y-88159188D01*
X161405000Y-88146928D01*
X159905000Y-88146928D01*
X159780518Y-88159188D01*
X159660820Y-88195498D01*
X159550506Y-88254463D01*
X159453815Y-88333815D01*
X159374463Y-88430506D01*
X159315498Y-88540820D01*
X159279188Y-88660518D01*
X159266928Y-88785000D01*
X156912841Y-88785000D01*
X156954853Y-88683574D01*
X157010000Y-88406335D01*
X157010000Y-88123665D01*
X156954853Y-87846426D01*
X156846680Y-87585273D01*
X156689637Y-87350241D01*
X156489759Y-87150363D01*
X156254727Y-86993320D01*
X155993574Y-86885147D01*
X155716335Y-86830000D01*
X155433665Y-86830000D01*
X155156426Y-86885147D01*
X154895273Y-86993320D01*
X154660241Y-87150363D01*
X154611707Y-87198897D01*
X154587205Y-87139744D01*
X154473937Y-86970226D01*
X154329774Y-86826063D01*
X154160256Y-86712795D01*
X153971898Y-86634774D01*
X153771939Y-86595000D01*
X153568061Y-86595000D01*
X153368102Y-86634774D01*
X153179744Y-86712795D01*
X153010226Y-86826063D01*
X152866063Y-86970226D01*
X152752795Y-87139744D01*
X152674774Y-87328102D01*
X152635000Y-87528061D01*
X146648453Y-87528061D01*
X146529637Y-87350241D01*
X146329759Y-87150363D01*
X146094727Y-86993320D01*
X145833574Y-86885147D01*
X145556335Y-86830000D01*
X145273665Y-86830000D01*
X144996426Y-86885147D01*
X144735273Y-86993320D01*
X144500241Y-87150363D01*
X144300363Y-87350241D01*
X144143320Y-87585273D01*
X144035147Y-87846426D01*
X143980000Y-88123665D01*
X143675000Y-88123665D01*
X143619853Y-87846426D01*
X143511680Y-87585273D01*
X143354637Y-87350241D01*
X143154759Y-87150363D01*
X143065500Y-87090722D01*
X143065500Y-85629278D01*
X143154759Y-85569637D01*
X143276694Y-85447702D01*
X144601903Y-85447702D01*
X144673486Y-85691671D01*
X144928996Y-85812571D01*
X145203184Y-85881300D01*
X145485512Y-85895217D01*
X145765130Y-85853787D01*
X146031292Y-85758603D01*
X146156514Y-85691671D01*
X146228097Y-85447702D01*
X145415000Y-84634605D01*
X144601903Y-85447702D01*
X143276694Y-85447702D01*
X143354637Y-85369759D01*
X143511680Y-85134727D01*
X143619853Y-84873574D01*
X143675000Y-84596335D01*
X143675000Y-84525512D01*
X143974783Y-84525512D01*
X144016213Y-84805130D01*
X144111397Y-85071292D01*
X144178329Y-85196514D01*
X144422298Y-85268097D01*
X145235395Y-84455000D01*
X145594605Y-84455000D01*
X146407702Y-85268097D01*
X146651671Y-85196514D01*
X146772571Y-84941004D01*
X146841300Y-84666816D01*
X146855217Y-84384488D01*
X146844724Y-84313665D01*
X154140000Y-84313665D01*
X154140000Y-84596335D01*
X154195147Y-84873574D01*
X154303320Y-85134727D01*
X154460363Y-85369759D01*
X154660241Y-85569637D01*
X154895273Y-85726680D01*
X155156426Y-85834853D01*
X155433665Y-85890000D01*
X155716335Y-85890000D01*
X155993574Y-85834853D01*
X156254727Y-85726680D01*
X156489759Y-85569637D01*
X156689637Y-85369759D01*
X156846680Y-85134727D01*
X156954853Y-84873574D01*
X157010000Y-84596335D01*
X157010000Y-84313665D01*
X156954853Y-84036426D01*
X156846680Y-83775273D01*
X156689637Y-83540241D01*
X156489759Y-83340363D01*
X156254727Y-83183320D01*
X155993574Y-83075147D01*
X155716335Y-83020000D01*
X155433665Y-83020000D01*
X155156426Y-83075147D01*
X154895273Y-83183320D01*
X154660241Y-83340363D01*
X154460363Y-83540241D01*
X154303320Y-83775273D01*
X154195147Y-84036426D01*
X154140000Y-84313665D01*
X146844724Y-84313665D01*
X146813787Y-84104870D01*
X146718603Y-83838708D01*
X146651671Y-83713486D01*
X146407702Y-83641903D01*
X145594605Y-84455000D01*
X145235395Y-84455000D01*
X144422298Y-83641903D01*
X144178329Y-83713486D01*
X144057429Y-83968996D01*
X143988700Y-84243184D01*
X143974783Y-84525512D01*
X143675000Y-84525512D01*
X143675000Y-84313665D01*
X143619853Y-84036426D01*
X143511680Y-83775273D01*
X143354637Y-83540241D01*
X143276694Y-83462298D01*
X144601903Y-83462298D01*
X145415000Y-84275395D01*
X146228097Y-83462298D01*
X146156514Y-83218329D01*
X145901004Y-83097429D01*
X145626816Y-83028700D01*
X145344488Y-83014783D01*
X145064870Y-83056213D01*
X144798708Y-83151397D01*
X144673486Y-83218329D01*
X144601903Y-83462298D01*
X143276694Y-83462298D01*
X143154759Y-83340363D01*
X142919727Y-83183320D01*
X142658574Y-83075147D01*
X142381335Y-83020000D01*
X142098665Y-83020000D01*
X141821426Y-83075147D01*
X141560273Y-83183320D01*
X141325241Y-83340363D01*
X141125363Y-83540241D01*
X141095000Y-83585683D01*
X141095000Y-82864801D01*
X141916114Y-82043688D01*
X142098665Y-82080000D01*
X142381335Y-82080000D01*
X142658574Y-82024853D01*
X142919727Y-81916680D01*
X143154759Y-81759637D01*
X143354637Y-81559759D01*
X143511680Y-81324727D01*
X143619853Y-81063574D01*
X143675000Y-80786335D01*
X143675000Y-80503665D01*
X143980000Y-80503665D01*
X143980000Y-80786335D01*
X144035147Y-81063574D01*
X144143320Y-81324727D01*
X144300363Y-81559759D01*
X144500241Y-81759637D01*
X144735273Y-81916680D01*
X144996426Y-82024853D01*
X145273665Y-82080000D01*
X145556335Y-82080000D01*
X145833574Y-82024853D01*
X146094727Y-81916680D01*
X146329759Y-81759637D01*
X146529637Y-81559759D01*
X146686680Y-81324727D01*
X146794853Y-81063574D01*
X146850000Y-80786335D01*
X146850000Y-80503665D01*
X154140000Y-80503665D01*
X154140000Y-80786335D01*
X154195147Y-81063574D01*
X154303320Y-81324727D01*
X154460363Y-81559759D01*
X154660241Y-81759637D01*
X154895273Y-81916680D01*
X155156426Y-82024853D01*
X155433665Y-82080000D01*
X155716335Y-82080000D01*
X155993574Y-82024853D01*
X156254727Y-81916680D01*
X156489759Y-81759637D01*
X156689637Y-81559759D01*
X156846680Y-81324727D01*
X156954853Y-81063574D01*
X157010000Y-80786335D01*
X157010000Y-80503665D01*
X156954853Y-80226426D01*
X156846680Y-79965273D01*
X156689637Y-79730241D01*
X156489759Y-79530363D01*
X156254727Y-79373320D01*
X155993574Y-79265147D01*
X155716335Y-79210000D01*
X155433665Y-79210000D01*
X155156426Y-79265147D01*
X154895273Y-79373320D01*
X154660241Y-79530363D01*
X154460363Y-79730241D01*
X154303320Y-79965273D01*
X154195147Y-80226426D01*
X154140000Y-80503665D01*
X146850000Y-80503665D01*
X146794853Y-80226426D01*
X146686680Y-79965273D01*
X146529637Y-79730241D01*
X146329759Y-79530363D01*
X146094727Y-79373320D01*
X145833574Y-79265147D01*
X145556335Y-79210000D01*
X145273665Y-79210000D01*
X144996426Y-79265147D01*
X144735273Y-79373320D01*
X144500241Y-79530363D01*
X144300363Y-79730241D01*
X144143320Y-79965273D01*
X144035147Y-80226426D01*
X143980000Y-80503665D01*
X143675000Y-80503665D01*
X143619853Y-80226426D01*
X143511680Y-79965273D01*
X143354637Y-79730241D01*
X143154759Y-79530363D01*
X142919727Y-79373320D01*
X142658574Y-79265147D01*
X142381335Y-79210000D01*
X142098665Y-79210000D01*
X141821426Y-79265147D01*
X141560273Y-79373320D01*
X141325241Y-79530363D01*
X141125363Y-79730241D01*
X140968320Y-79965273D01*
X140860147Y-80226426D01*
X140805000Y-80503665D01*
X140805000Y-80786335D01*
X140841312Y-80968886D01*
X139824003Y-81986196D01*
X139794999Y-82009999D01*
X139754592Y-82059236D01*
X139700026Y-82125724D01*
X139678823Y-82165392D01*
X139629454Y-82257754D01*
X139585997Y-82401015D01*
X139575000Y-82512668D01*
X139575000Y-82512678D01*
X139571324Y-82550000D01*
X139575000Y-82587323D01*
X139575001Y-88831272D01*
X139531063Y-88875210D01*
X139417795Y-89044728D01*
X139339774Y-89233086D01*
X139300000Y-89433045D01*
X132914828Y-89433045D01*
X132994759Y-89379637D01*
X133194637Y-89179759D01*
X133351680Y-88944727D01*
X133459853Y-88683574D01*
X133515000Y-88406335D01*
X133515000Y-88123665D01*
X133459853Y-87846426D01*
X133351680Y-87585273D01*
X133194637Y-87350241D01*
X132994759Y-87150363D01*
X132759727Y-86993320D01*
X132498574Y-86885147D01*
X132221335Y-86830000D01*
X131938665Y-86830000D01*
X131661426Y-86885147D01*
X131400273Y-86993320D01*
X131165241Y-87150363D01*
X130965363Y-87350241D01*
X130808320Y-87585273D01*
X130700147Y-87846426D01*
X130691217Y-87891322D01*
X130637182Y-87713192D01*
X130503932Y-87463899D01*
X130324608Y-87245392D01*
X130106101Y-87066068D01*
X129973142Y-86995000D01*
X130106101Y-86923932D01*
X130324608Y-86744608D01*
X130503932Y-86526101D01*
X130637182Y-86276808D01*
X130719236Y-86006309D01*
X130746943Y-85725000D01*
X130719236Y-85443691D01*
X130637182Y-85173192D01*
X130503932Y-84923899D01*
X130324608Y-84705392D01*
X130106101Y-84526068D01*
X129973142Y-84455000D01*
X130106101Y-84383932D01*
X130191721Y-84313665D01*
X130645000Y-84313665D01*
X130645000Y-84596335D01*
X130700147Y-84873574D01*
X130808320Y-85134727D01*
X130965363Y-85369759D01*
X131165241Y-85569637D01*
X131400273Y-85726680D01*
X131661426Y-85834853D01*
X131938665Y-85890000D01*
X132221335Y-85890000D01*
X132498574Y-85834853D01*
X132759727Y-85726680D01*
X132994759Y-85569637D01*
X133194637Y-85369759D01*
X133351680Y-85134727D01*
X133459853Y-84873574D01*
X133515000Y-84596335D01*
X133515000Y-84313665D01*
X133459853Y-84036426D01*
X133351680Y-83775273D01*
X133194637Y-83540241D01*
X132994759Y-83340363D01*
X132759727Y-83183320D01*
X132498574Y-83075147D01*
X132221335Y-83020000D01*
X131938665Y-83020000D01*
X131661426Y-83075147D01*
X131400273Y-83183320D01*
X131165241Y-83340363D01*
X130965363Y-83540241D01*
X130808320Y-83775273D01*
X130700147Y-84036426D01*
X130645000Y-84313665D01*
X130191721Y-84313665D01*
X130324608Y-84204608D01*
X130503932Y-83986101D01*
X130637182Y-83736808D01*
X130719236Y-83466309D01*
X130746943Y-83185000D01*
X130719236Y-82903691D01*
X130637182Y-82633192D01*
X130503932Y-82383899D01*
X130324608Y-82165392D01*
X130106101Y-81986068D01*
X129973142Y-81915000D01*
X130106101Y-81843932D01*
X130324608Y-81664608D01*
X130503932Y-81446101D01*
X130637182Y-81196808D01*
X130691217Y-81018678D01*
X130700147Y-81063574D01*
X130808320Y-81324727D01*
X130965363Y-81559759D01*
X131165241Y-81759637D01*
X131400273Y-81916680D01*
X131661426Y-82024853D01*
X131938665Y-82080000D01*
X132221335Y-82080000D01*
X132498574Y-82024853D01*
X132759727Y-81916680D01*
X132994759Y-81759637D01*
X133194637Y-81559759D01*
X133351680Y-81324727D01*
X133459853Y-81063574D01*
X133515000Y-80786335D01*
X133515000Y-80503665D01*
X133459853Y-80226426D01*
X133351680Y-79965273D01*
X133194637Y-79730241D01*
X132994759Y-79530363D01*
X132759727Y-79373320D01*
X132498574Y-79265147D01*
X132221335Y-79210000D01*
X131938665Y-79210000D01*
X131661426Y-79265147D01*
X131400273Y-79373320D01*
X131165241Y-79530363D01*
X130965363Y-79730241D01*
X130808320Y-79965273D01*
X130700147Y-80226426D01*
X130691217Y-80271322D01*
X130637182Y-80093192D01*
X130503932Y-79843899D01*
X130324608Y-79625392D01*
X130106101Y-79446068D01*
X129856808Y-79312818D01*
X129586309Y-79230764D01*
X129375492Y-79210000D01*
X128434508Y-79210000D01*
X128223691Y-79230764D01*
X127953192Y-79312818D01*
X127825500Y-79381071D01*
X127825500Y-78638061D01*
X158350000Y-78638061D01*
X158350000Y-78841939D01*
X158389774Y-79041898D01*
X158467795Y-79230256D01*
X158581063Y-79399774D01*
X158725226Y-79543937D01*
X158894744Y-79657205D01*
X159083102Y-79735226D01*
X159278829Y-79774158D01*
X159266928Y-79895000D01*
X159266928Y-81395000D01*
X159279188Y-81519482D01*
X159315498Y-81639180D01*
X159374463Y-81749494D01*
X159453815Y-81846185D01*
X159550506Y-81925537D01*
X159660820Y-81984502D01*
X159780518Y-82020812D01*
X159888483Y-82031445D01*
X159772114Y-82109201D01*
X159579201Y-82302114D01*
X159427629Y-82528957D01*
X159323225Y-82781011D01*
X159270000Y-83048589D01*
X159270000Y-83321411D01*
X159323225Y-83588989D01*
X159427629Y-83841043D01*
X159579201Y-84067886D01*
X159772114Y-84260799D01*
X159998957Y-84412371D01*
X160101873Y-84455000D01*
X159998957Y-84497629D01*
X159772114Y-84649201D01*
X159579201Y-84842114D01*
X159427629Y-85068957D01*
X159323225Y-85321011D01*
X159270000Y-85588589D01*
X159270000Y-85861411D01*
X159323225Y-86128989D01*
X159427629Y-86381043D01*
X159579201Y-86607886D01*
X159772114Y-86800799D01*
X159998957Y-86952371D01*
X160251011Y-87056775D01*
X160518589Y-87110000D01*
X160791411Y-87110000D01*
X161058989Y-87056775D01*
X161311043Y-86952371D01*
X161537886Y-86800799D01*
X161730799Y-86607886D01*
X161882371Y-86381043D01*
X161986775Y-86128989D01*
X162040000Y-85861411D01*
X162040000Y-85588589D01*
X161986775Y-85321011D01*
X161882371Y-85068957D01*
X161730799Y-84842114D01*
X161537886Y-84649201D01*
X161311043Y-84497629D01*
X161208127Y-84455000D01*
X161311043Y-84412371D01*
X161537886Y-84260799D01*
X161730799Y-84067886D01*
X161882371Y-83841043D01*
X161986775Y-83588989D01*
X162040000Y-83321411D01*
X162040000Y-83048589D01*
X161986775Y-82781011D01*
X161882371Y-82528957D01*
X161730799Y-82302114D01*
X161537886Y-82109201D01*
X161421517Y-82031445D01*
X161529482Y-82020812D01*
X161649180Y-81984502D01*
X161759494Y-81925537D01*
X161856185Y-81846185D01*
X161935537Y-81749494D01*
X161994502Y-81639180D01*
X162030812Y-81519482D01*
X162043072Y-81395000D01*
X162043072Y-79895000D01*
X162030812Y-79770518D01*
X161994502Y-79650820D01*
X161935537Y-79540506D01*
X161902295Y-79500000D01*
X162880199Y-79500000D01*
X163429997Y-80049799D01*
X163429997Y-80111936D01*
X163469771Y-80311895D01*
X163547792Y-80500253D01*
X163661060Y-80669771D01*
X163805223Y-80813934D01*
X163974741Y-80927202D01*
X164163099Y-81005223D01*
X164363058Y-81044997D01*
X164566936Y-81044997D01*
X164766895Y-81005223D01*
X164955253Y-80927202D01*
X165124771Y-80813934D01*
X165268934Y-80669771D01*
X165382202Y-80500253D01*
X165460223Y-80311895D01*
X165499997Y-80111936D01*
X165499997Y-79908058D01*
X165460223Y-79708099D01*
X165382202Y-79519741D01*
X165268934Y-79350223D01*
X165124771Y-79206060D01*
X164955253Y-79092792D01*
X164766895Y-79014771D01*
X164566936Y-78974997D01*
X164504799Y-78974997D01*
X163758804Y-78229003D01*
X163735001Y-78199999D01*
X163619276Y-78105026D01*
X163487247Y-78034454D01*
X163343986Y-77990997D01*
X163232333Y-77980000D01*
X163232322Y-77980000D01*
X163195000Y-77976324D01*
X163157678Y-77980000D01*
X160088711Y-77980000D01*
X160044774Y-77936063D01*
X159875256Y-77822795D01*
X159686898Y-77744774D01*
X159486939Y-77705000D01*
X159283061Y-77705000D01*
X159083102Y-77744774D01*
X158894744Y-77822795D01*
X158725226Y-77936063D01*
X158581063Y-78080226D01*
X158467795Y-78249744D01*
X158389774Y-78438102D01*
X158350000Y-78638061D01*
X127825500Y-78638061D01*
X127825500Y-78260220D01*
X128053574Y-78214853D01*
X128314727Y-78106680D01*
X128549759Y-77949637D01*
X128749637Y-77749759D01*
X128906680Y-77514727D01*
X129014853Y-77253574D01*
X129070000Y-76976335D01*
X129070000Y-76693665D01*
X129014853Y-76416426D01*
X128906680Y-76155273D01*
X128749637Y-75920241D01*
X128549759Y-75720363D01*
X128314727Y-75563320D01*
X128053574Y-75455147D01*
X127776335Y-75400000D01*
X127493665Y-75400000D01*
X127216426Y-75455147D01*
X126955273Y-75563320D01*
X126720241Y-75720363D01*
X126520363Y-75920241D01*
X126363320Y-76155273D01*
X126255147Y-76416426D01*
X126200000Y-76693665D01*
X126200000Y-76976335D01*
X126234673Y-77150647D01*
X126233647Y-77152567D01*
X126186445Y-77308174D01*
X126170506Y-77470000D01*
X126174501Y-77510560D01*
X126174500Y-80604447D01*
X126170506Y-80645000D01*
X126174501Y-80685563D01*
X126174500Y-88224447D01*
X126170506Y-88265000D01*
X126174500Y-88305552D01*
X126174501Y-93003066D01*
X125174966Y-94002602D01*
X125143459Y-94028459D01*
X125075431Y-94111353D01*
X125040301Y-94154158D01*
X124963648Y-94297566D01*
X124963647Y-94297567D01*
X124916444Y-94453175D01*
X124904500Y-94574447D01*
X124900506Y-94615000D01*
X124904500Y-94655551D01*
X124904501Y-97797496D01*
X124812795Y-97934744D01*
X124734774Y-98123102D01*
X124695000Y-98323061D01*
X118689971Y-98323061D01*
X118679494Y-98314463D01*
X118569180Y-98255498D01*
X118449482Y-98219188D01*
X118325000Y-98206928D01*
X116625000Y-98206928D01*
X116500518Y-98219188D01*
X116380820Y-98255498D01*
X116270506Y-98314463D01*
X116173815Y-98393815D01*
X116094463Y-98490506D01*
X116035498Y-98600820D01*
X115999188Y-98720518D01*
X115986928Y-98845000D01*
X115595000Y-98845000D01*
X115595000Y-96234039D01*
X119493096Y-96234039D01*
X119510633Y-96316818D01*
X119621285Y-96576646D01*
X119780500Y-96809895D01*
X119982161Y-97007601D01*
X120218517Y-97162166D01*
X120480486Y-97267650D01*
X120758000Y-97320000D01*
X121158000Y-97320000D01*
X121158000Y-96012000D01*
X121412000Y-96012000D01*
X121412000Y-97320000D01*
X121812000Y-97320000D01*
X122089514Y-97267650D01*
X122351483Y-97162166D01*
X122587839Y-97007601D01*
X122789500Y-96809895D01*
X122948715Y-96576646D01*
X123059367Y-96316818D01*
X123076904Y-96234039D01*
X122954915Y-96012000D01*
X121412000Y-96012000D01*
X121158000Y-96012000D01*
X119615085Y-96012000D01*
X119493096Y-96234039D01*
X115595000Y-96234039D01*
X115595000Y-83185000D01*
X119443057Y-83185000D01*
X119470764Y-83466309D01*
X119552818Y-83736808D01*
X119686068Y-83986101D01*
X119865392Y-84204608D01*
X120083899Y-84383932D01*
X120216858Y-84455000D01*
X120083899Y-84526068D01*
X119865392Y-84705392D01*
X119686068Y-84923899D01*
X119552818Y-85173192D01*
X119470764Y-85443691D01*
X119443057Y-85725000D01*
X119470764Y-86006309D01*
X119552818Y-86276808D01*
X119686068Y-86526101D01*
X119865392Y-86744608D01*
X120083899Y-86923932D01*
X120216858Y-86995000D01*
X120083899Y-87066068D01*
X119865392Y-87245392D01*
X119686068Y-87463899D01*
X119552818Y-87713192D01*
X119470764Y-87983691D01*
X119443057Y-88265000D01*
X119470764Y-88546309D01*
X119552818Y-88816808D01*
X119686068Y-89066101D01*
X119865392Y-89284608D01*
X120083899Y-89463932D01*
X120216858Y-89535000D01*
X120083899Y-89606068D01*
X119865392Y-89785392D01*
X119686068Y-90003899D01*
X119552818Y-90253192D01*
X119470764Y-90523691D01*
X119443057Y-90805000D01*
X119470764Y-91086309D01*
X119552818Y-91356808D01*
X119686068Y-91606101D01*
X119865392Y-91824608D01*
X120083899Y-92003932D01*
X120216858Y-92075000D01*
X120083899Y-92146068D01*
X119865392Y-92325392D01*
X119686068Y-92543899D01*
X119552818Y-92793192D01*
X119470764Y-93063691D01*
X119443057Y-93345000D01*
X119470764Y-93626309D01*
X119552818Y-93896808D01*
X119686068Y-94146101D01*
X119865392Y-94364608D01*
X120083899Y-94543932D01*
X120211741Y-94612265D01*
X119982161Y-94762399D01*
X119780500Y-94960105D01*
X119621285Y-95193354D01*
X119510633Y-95453182D01*
X119493096Y-95535961D01*
X119615085Y-95758000D01*
X121158000Y-95758000D01*
X121158000Y-95738000D01*
X121412000Y-95738000D01*
X121412000Y-95758000D01*
X122954915Y-95758000D01*
X123076904Y-95535961D01*
X123059367Y-95453182D01*
X122948715Y-95193354D01*
X122789500Y-94960105D01*
X122587839Y-94762399D01*
X122358259Y-94612265D01*
X122486101Y-94543932D01*
X122704608Y-94364608D01*
X122883932Y-94146101D01*
X123017182Y-93896808D01*
X123099236Y-93626309D01*
X123126943Y-93345000D01*
X123099236Y-93063691D01*
X123017182Y-92793192D01*
X122883932Y-92543899D01*
X122704608Y-92325392D01*
X122486101Y-92146068D01*
X122353142Y-92075000D01*
X122486101Y-92003932D01*
X122704608Y-91824608D01*
X122883932Y-91606101D01*
X123017182Y-91356808D01*
X123099236Y-91086309D01*
X123126943Y-90805000D01*
X123099236Y-90523691D01*
X123017182Y-90253192D01*
X122883932Y-90003899D01*
X122704608Y-89785392D01*
X122486101Y-89606068D01*
X122353142Y-89535000D01*
X122486101Y-89463932D01*
X122704608Y-89284608D01*
X122883932Y-89066101D01*
X123017182Y-88816808D01*
X123099236Y-88546309D01*
X123126943Y-88265000D01*
X123099236Y-87983691D01*
X123017182Y-87713192D01*
X122883932Y-87463899D01*
X122704608Y-87245392D01*
X122486101Y-87066068D01*
X122353142Y-86995000D01*
X122486101Y-86923932D01*
X122704608Y-86744608D01*
X122883932Y-86526101D01*
X123017182Y-86276808D01*
X123099236Y-86006309D01*
X123126943Y-85725000D01*
X123099236Y-85443691D01*
X123017182Y-85173192D01*
X122883932Y-84923899D01*
X122704608Y-84705392D01*
X122486101Y-84526068D01*
X122353142Y-84455000D01*
X122486101Y-84383932D01*
X122704608Y-84204608D01*
X122883932Y-83986101D01*
X122934574Y-83891357D01*
X122937247Y-83890546D01*
X123069276Y-83819974D01*
X123185001Y-83725001D01*
X123208804Y-83695997D01*
X123954802Y-82950000D01*
X124016939Y-82950000D01*
X124216898Y-82910226D01*
X124405256Y-82832205D01*
X124574774Y-82718937D01*
X124718937Y-82574774D01*
X124832205Y-82405256D01*
X124910226Y-82216898D01*
X124950000Y-82016939D01*
X124950000Y-81813061D01*
X124910226Y-81613102D01*
X124832205Y-81424744D01*
X124718937Y-81255226D01*
X124574774Y-81111063D01*
X124405256Y-80997795D01*
X124216898Y-80919774D01*
X124016939Y-80880000D01*
X123813061Y-80880000D01*
X123613102Y-80919774D01*
X123424744Y-80997795D01*
X123255226Y-81111063D01*
X123123072Y-81243217D01*
X123123072Y-79845000D01*
X123110812Y-79720518D01*
X123074502Y-79600820D01*
X123015537Y-79490506D01*
X122936185Y-79393815D01*
X122839494Y-79314463D01*
X122729180Y-79255498D01*
X122609482Y-79219188D01*
X122485000Y-79206928D01*
X120085000Y-79206928D01*
X119960518Y-79219188D01*
X119840820Y-79255498D01*
X119730506Y-79314463D01*
X119633815Y-79393815D01*
X119554463Y-79490506D01*
X119495498Y-79600820D01*
X119459188Y-79720518D01*
X119446928Y-79845000D01*
X119446928Y-81445000D01*
X119459188Y-81569482D01*
X119495498Y-81689180D01*
X119554463Y-81799494D01*
X119633815Y-81896185D01*
X119730506Y-81975537D01*
X119840820Y-82034502D01*
X119960518Y-82070812D01*
X119978482Y-82072581D01*
X119865392Y-82165392D01*
X119686068Y-82383899D01*
X119552818Y-82633192D01*
X119470764Y-82903691D01*
X119443057Y-83185000D01*
X115595000Y-83185000D01*
X115595000Y-77827702D01*
X121821903Y-77827702D01*
X121893486Y-78071671D01*
X122148996Y-78192571D01*
X122423184Y-78261300D01*
X122705512Y-78275217D01*
X122985130Y-78233787D01*
X123251292Y-78138603D01*
X123376514Y-78071671D01*
X123448097Y-77827702D01*
X122635000Y-77014605D01*
X121821903Y-77827702D01*
X115595000Y-77827702D01*
X115595000Y-76905512D01*
X121194783Y-76905512D01*
X121236213Y-77185130D01*
X121331397Y-77451292D01*
X121398329Y-77576514D01*
X121642298Y-77648097D01*
X122455395Y-76835000D01*
X122814605Y-76835000D01*
X123627702Y-77648097D01*
X123871671Y-77576514D01*
X123992571Y-77321004D01*
X124061300Y-77046816D01*
X124075217Y-76764488D01*
X124033787Y-76484870D01*
X123938603Y-76218708D01*
X123871671Y-76093486D01*
X123627702Y-76021903D01*
X122814605Y-76835000D01*
X122455395Y-76835000D01*
X121642298Y-76021903D01*
X121398329Y-76093486D01*
X121277429Y-76348996D01*
X121208700Y-76623184D01*
X121194783Y-76905512D01*
X115595000Y-76905512D01*
X115595000Y-75842298D01*
X121821903Y-75842298D01*
X122635000Y-76655395D01*
X123448097Y-75842298D01*
X123376514Y-75598329D01*
X123121004Y-75477429D01*
X122846816Y-75408700D01*
X122564488Y-75394783D01*
X122284870Y-75436213D01*
X122018708Y-75531397D01*
X121893486Y-75598329D01*
X121821903Y-75842298D01*
X115595000Y-75842298D01*
X115595000Y-71787279D01*
X115622668Y-71505099D01*
X116360000Y-71505099D01*
X116360000Y-71974903D01*
X116451654Y-72435680D01*
X116631440Y-72869722D01*
X116892450Y-73260350D01*
X117224651Y-73592551D01*
X117615279Y-73853561D01*
X118049321Y-74033347D01*
X118510098Y-74125001D01*
X118979902Y-74125001D01*
X119440679Y-74033347D01*
X119874721Y-73853561D01*
X120112023Y-73695000D01*
X133766928Y-73695000D01*
X133766928Y-74895000D01*
X133783992Y-75068254D01*
X133834528Y-75234850D01*
X133916595Y-75388386D01*
X134027038Y-75522962D01*
X134161614Y-75633405D01*
X134315150Y-75715472D01*
X134481746Y-75766008D01*
X134655000Y-75783072D01*
X135855000Y-75783072D01*
X136028254Y-75766008D01*
X136194850Y-75715472D01*
X136348386Y-75633405D01*
X136482962Y-75522962D01*
X136593405Y-75388386D01*
X136661285Y-75261392D01*
X136848368Y-75448475D01*
X137091589Y-75610990D01*
X137361842Y-75722932D01*
X137648740Y-75780000D01*
X137941260Y-75780000D01*
X138228158Y-75722932D01*
X138498411Y-75610990D01*
X138741632Y-75448475D01*
X138948475Y-75241632D01*
X139065000Y-75067240D01*
X139181525Y-75241632D01*
X139388368Y-75448475D01*
X139631589Y-75610990D01*
X139901842Y-75722932D01*
X140188740Y-75780000D01*
X140481260Y-75780000D01*
X140768158Y-75722932D01*
X141038411Y-75610990D01*
X141281632Y-75448475D01*
X141406710Y-75323397D01*
X142026208Y-75323397D01*
X142103843Y-75572472D01*
X142367883Y-75698371D01*
X142651411Y-75770339D01*
X142943531Y-75785611D01*
X143233019Y-75743599D01*
X143508747Y-75645919D01*
X143646157Y-75572472D01*
X143723792Y-75323397D01*
X144566208Y-75323397D01*
X144643843Y-75572472D01*
X144907883Y-75698371D01*
X145191411Y-75770339D01*
X145483531Y-75785611D01*
X145773019Y-75743599D01*
X146048747Y-75645919D01*
X146186157Y-75572472D01*
X146263792Y-75323397D01*
X145415000Y-74474605D01*
X144566208Y-75323397D01*
X143723792Y-75323397D01*
X142875000Y-74474605D01*
X142026208Y-75323397D01*
X141406710Y-75323397D01*
X141488475Y-75241632D01*
X141604311Y-75068271D01*
X141846603Y-75143792D01*
X142695395Y-74295000D01*
X143054605Y-74295000D01*
X143903397Y-75143792D01*
X144145000Y-75068486D01*
X144386603Y-75143792D01*
X145235395Y-74295000D01*
X144386603Y-73446208D01*
X144145000Y-73521514D01*
X143903397Y-73446208D01*
X143054605Y-74295000D01*
X142695395Y-74295000D01*
X141846603Y-73446208D01*
X141604311Y-73521729D01*
X141488475Y-73348368D01*
X141281632Y-73141525D01*
X141107240Y-73025000D01*
X141281632Y-72908475D01*
X141488475Y-72701632D01*
X141605000Y-72527240D01*
X141721525Y-72701632D01*
X141928368Y-72908475D01*
X142101729Y-73024311D01*
X142026208Y-73266603D01*
X142875000Y-74115395D01*
X143723792Y-73266603D01*
X143648271Y-73024311D01*
X143821632Y-72908475D01*
X144028475Y-72701632D01*
X144145000Y-72527240D01*
X144261525Y-72701632D01*
X144468368Y-72908475D01*
X144641729Y-73024311D01*
X144566208Y-73266603D01*
X145415000Y-74115395D01*
X146263792Y-73266603D01*
X146188271Y-73024311D01*
X146361632Y-72908475D01*
X146568475Y-72701632D01*
X146685000Y-72527240D01*
X146801525Y-72701632D01*
X147008368Y-72908475D01*
X147182760Y-73025000D01*
X147008368Y-73141525D01*
X146801525Y-73348368D01*
X146685689Y-73521729D01*
X146443397Y-73446208D01*
X145594605Y-74295000D01*
X146443397Y-75143792D01*
X146685689Y-75068271D01*
X146801525Y-75241632D01*
X146838897Y-75279004D01*
X146829744Y-75282795D01*
X146660226Y-75396063D01*
X146516063Y-75540226D01*
X146402795Y-75709744D01*
X146324774Y-75898102D01*
X146285000Y-76098061D01*
X146285000Y-76301939D01*
X146324774Y-76501898D01*
X146402795Y-76690256D01*
X146516063Y-76859774D01*
X146660226Y-77003937D01*
X146829744Y-77117205D01*
X147018102Y-77195226D01*
X147218061Y-77235000D01*
X147421939Y-77235000D01*
X147621898Y-77195226D01*
X147810256Y-77117205D01*
X147979774Y-77003937D01*
X148023711Y-76960000D01*
X153632678Y-76960000D01*
X153670000Y-76963676D01*
X153707322Y-76960000D01*
X153707333Y-76960000D01*
X153818986Y-76949003D01*
X153962247Y-76905546D01*
X154094276Y-76834974D01*
X154210001Y-76740001D01*
X154233804Y-76710997D01*
X154979802Y-75965000D01*
X155041939Y-75965000D01*
X155241898Y-75925226D01*
X155430256Y-75847205D01*
X155599774Y-75733937D01*
X155743937Y-75589774D01*
X155857205Y-75420256D01*
X155935226Y-75231898D01*
X155975000Y-75031939D01*
X155975000Y-74828061D01*
X155935226Y-74628102D01*
X155857205Y-74439744D01*
X155743937Y-74270226D01*
X155599774Y-74126063D01*
X155430256Y-74012795D01*
X155241898Y-73934774D01*
X155041939Y-73895000D01*
X154838061Y-73895000D01*
X154638102Y-73934774D01*
X154489669Y-73996257D01*
X154462932Y-73861842D01*
X154350990Y-73591589D01*
X154188475Y-73348368D01*
X153981632Y-73141525D01*
X153807240Y-73025000D01*
X153981632Y-72908475D01*
X154188475Y-72701632D01*
X154350990Y-72458411D01*
X154462932Y-72188158D01*
X154520000Y-71901260D01*
X154520000Y-71608740D01*
X154502368Y-71520098D01*
X167160000Y-71520098D01*
X167160000Y-71989902D01*
X167251654Y-72450679D01*
X167431440Y-72884721D01*
X167692450Y-73275349D01*
X168024651Y-73607550D01*
X168415279Y-73868560D01*
X168849321Y-74048346D01*
X169310098Y-74140000D01*
X169779902Y-74140000D01*
X170240679Y-74048346D01*
X170674721Y-73868560D01*
X171065349Y-73607550D01*
X171397550Y-73275349D01*
X171658560Y-72884721D01*
X171838346Y-72450679D01*
X171930000Y-71989902D01*
X171930000Y-71520098D01*
X171838346Y-71059321D01*
X171658560Y-70625279D01*
X171397550Y-70234651D01*
X171065349Y-69902450D01*
X170674721Y-69641440D01*
X170240679Y-69461654D01*
X169779902Y-69370000D01*
X169310098Y-69370000D01*
X168849321Y-69461654D01*
X168415279Y-69641440D01*
X168024651Y-69902450D01*
X167692450Y-70234651D01*
X167431440Y-70625279D01*
X167251654Y-71059321D01*
X167160000Y-71520098D01*
X154502368Y-71520098D01*
X154462932Y-71321842D01*
X154350990Y-71051589D01*
X154188475Y-70808368D01*
X153981632Y-70601525D01*
X153738411Y-70439010D01*
X153468158Y-70327068D01*
X153181260Y-70270000D01*
X152888740Y-70270000D01*
X152601842Y-70327068D01*
X152331589Y-70439010D01*
X152088368Y-70601525D01*
X151881525Y-70808368D01*
X151765000Y-70982760D01*
X151648475Y-70808368D01*
X151441632Y-70601525D01*
X151198411Y-70439010D01*
X150928158Y-70327068D01*
X150641260Y-70270000D01*
X150348740Y-70270000D01*
X150061842Y-70327068D01*
X149791589Y-70439010D01*
X149548368Y-70601525D01*
X149341525Y-70808368D01*
X149225000Y-70982760D01*
X149108475Y-70808368D01*
X148901632Y-70601525D01*
X148658411Y-70439010D01*
X148388158Y-70327068D01*
X148101260Y-70270000D01*
X147808740Y-70270000D01*
X147521842Y-70327068D01*
X147251589Y-70439010D01*
X147008368Y-70601525D01*
X146801525Y-70808368D01*
X146685000Y-70982760D01*
X146568475Y-70808368D01*
X146361632Y-70601525D01*
X146118411Y-70439010D01*
X145848158Y-70327068D01*
X145561260Y-70270000D01*
X145268740Y-70270000D01*
X144981842Y-70327068D01*
X144711589Y-70439010D01*
X144468368Y-70601525D01*
X144261525Y-70808368D01*
X144145000Y-70982760D01*
X144028475Y-70808368D01*
X143821632Y-70601525D01*
X143578411Y-70439010D01*
X143308158Y-70327068D01*
X143021260Y-70270000D01*
X142728740Y-70270000D01*
X142441842Y-70327068D01*
X142171589Y-70439010D01*
X141928368Y-70601525D01*
X141721525Y-70808368D01*
X141605000Y-70982760D01*
X141488475Y-70808368D01*
X141281632Y-70601525D01*
X141038411Y-70439010D01*
X140768158Y-70327068D01*
X140481260Y-70270000D01*
X140188740Y-70270000D01*
X139901842Y-70327068D01*
X139631589Y-70439010D01*
X139388368Y-70601525D01*
X139181525Y-70808368D01*
X139065000Y-70982760D01*
X138948475Y-70808368D01*
X138741632Y-70601525D01*
X138498411Y-70439010D01*
X138228158Y-70327068D01*
X137941260Y-70270000D01*
X137648740Y-70270000D01*
X137361842Y-70327068D01*
X137091589Y-70439010D01*
X136848368Y-70601525D01*
X136641525Y-70808368D01*
X136525000Y-70982760D01*
X136408475Y-70808368D01*
X136201632Y-70601525D01*
X135958411Y-70439010D01*
X135688158Y-70327068D01*
X135401260Y-70270000D01*
X135108740Y-70270000D01*
X134821842Y-70327068D01*
X134551589Y-70439010D01*
X134308368Y-70601525D01*
X134101525Y-70808368D01*
X133939010Y-71051589D01*
X133827068Y-71321842D01*
X133770000Y-71608740D01*
X133770000Y-71901260D01*
X133827068Y-72188158D01*
X133939010Y-72458411D01*
X134101525Y-72701632D01*
X134288608Y-72888715D01*
X134161614Y-72956595D01*
X134027038Y-73067038D01*
X133916595Y-73201614D01*
X133834528Y-73355150D01*
X133783992Y-73521746D01*
X133766928Y-73695000D01*
X120112023Y-73695000D01*
X120265349Y-73592551D01*
X120597550Y-73260350D01*
X120858560Y-72869722D01*
X121038346Y-72435680D01*
X121130000Y-71974903D01*
X121130000Y-71505099D01*
X121038346Y-71044322D01*
X120858560Y-70610280D01*
X120597550Y-70219652D01*
X120265349Y-69887451D01*
X119874721Y-69626441D01*
X119440679Y-69446655D01*
X118979902Y-69355001D01*
X118510098Y-69355001D01*
X118049321Y-69446655D01*
X117615279Y-69626441D01*
X117224651Y-69887451D01*
X116892450Y-70219652D01*
X116631440Y-70610280D01*
X116451654Y-71044322D01*
X116360000Y-71505099D01*
X115622668Y-71505099D01*
X115658096Y-71143778D01*
X115835606Y-70555836D01*
X116123937Y-70013564D01*
X116512094Y-69537636D01*
X116985314Y-69146155D01*
X117525552Y-68854049D01*
X118112244Y-68672437D01*
X118753879Y-68605000D01*
X169512721Y-68605000D01*
X170156222Y-68668096D01*
G37*
G04 #@! TD.AperFunction*
M02*
