G04 #@! TF.GenerationSoftware,KiCad,Pcbnew,(5.1.8)-1*
G04 #@! TF.CreationDate,2024-06-18T03:57:33+02:00*
G04 #@! TF.ProjectId,Gameport,47616d65-706f-4727-942e-6b696361645f,rev?*
G04 #@! TF.SameCoordinates,Original*
G04 #@! TF.FileFunction,Legend,Top*
G04 #@! TF.FilePolarity,Positive*
%FSLAX46Y46*%
G04 Gerber Fmt 4.6, Leading zero omitted, Abs format (unit mm)*
G04 Created by KiCad (PCBNEW (5.1.8)-1) date 2024-06-18 03:57:33*
%MOMM*%
%LPD*%
G01*
G04 APERTURE LIST*
%ADD10C,0.010000*%
%ADD11C,0.100000*%
%ADD12C,0.120000*%
%ADD13C,0.150000*%
G04 APERTURE END LIST*
D10*
G36*
X171122012Y-89866802D02*
G01*
X171122012Y-89053189D01*
X169901592Y-89053189D01*
X169901592Y-88239575D01*
X171528819Y-88239575D01*
X171528819Y-88646382D01*
X171935626Y-88646382D01*
X171935626Y-89053189D01*
X172342433Y-89053189D01*
X172342433Y-90680416D01*
X171935626Y-90680416D01*
X171935626Y-89459995D01*
X171528819Y-89459995D01*
X171528819Y-90273609D01*
X171122012Y-90273609D01*
X171122012Y-90680416D01*
X169901592Y-90680416D01*
X169901592Y-89866802D01*
X171122012Y-89866802D01*
G37*
X171122012Y-89866802D02*
X171122012Y-89053189D01*
X169901592Y-89053189D01*
X169901592Y-88239575D01*
X171528819Y-88239575D01*
X171528819Y-88646382D01*
X171935626Y-88646382D01*
X171935626Y-89053189D01*
X172342433Y-89053189D01*
X172342433Y-90680416D01*
X171935626Y-90680416D01*
X171935626Y-89459995D01*
X171528819Y-89459995D01*
X171528819Y-90273609D01*
X171122012Y-90273609D01*
X171122012Y-90680416D01*
X169901592Y-90680416D01*
X169901592Y-89866802D01*
X171122012Y-89866802D01*
G36*
X169494785Y-93934870D02*
G01*
X169494785Y-94341677D01*
X171528819Y-94341677D01*
X171528819Y-94748484D01*
X171935626Y-94748484D01*
X171935626Y-95968904D01*
X171528819Y-95968904D01*
X171528819Y-96375711D01*
X171122012Y-96375711D01*
X171122012Y-95562097D01*
X171528819Y-95562097D01*
X171528819Y-95155291D01*
X169494785Y-95155291D01*
X169494785Y-95562097D01*
X169087978Y-95562097D01*
X169087978Y-93934870D01*
X169494785Y-93934870D01*
G37*
X169494785Y-93934870D02*
X169494785Y-94341677D01*
X171528819Y-94341677D01*
X171528819Y-94748484D01*
X171935626Y-94748484D01*
X171935626Y-95968904D01*
X171528819Y-95968904D01*
X171528819Y-96375711D01*
X171122012Y-96375711D01*
X171122012Y-95562097D01*
X171528819Y-95562097D01*
X171528819Y-95155291D01*
X169494785Y-95155291D01*
X169494785Y-95562097D01*
X169087978Y-95562097D01*
X169087978Y-93934870D01*
X169494785Y-93934870D01*
G36*
X170308399Y-91494029D02*
G01*
X170308399Y-91087223D01*
X171528819Y-91087223D01*
X171528819Y-91494029D01*
X171935626Y-91494029D01*
X171935626Y-93121257D01*
X171528819Y-93121257D01*
X171528819Y-93528063D01*
X170308399Y-93528063D01*
X170308399Y-93121257D01*
X170308399Y-92714450D01*
X171528819Y-92714450D01*
X171528819Y-91900836D01*
X170308399Y-91900836D01*
X170308399Y-92714450D01*
X170308399Y-93121257D01*
X169901592Y-93121257D01*
X169901592Y-91494029D01*
X170308399Y-91494029D01*
G37*
X170308399Y-91494029D02*
X170308399Y-91087223D01*
X171528819Y-91087223D01*
X171528819Y-91494029D01*
X171935626Y-91494029D01*
X171935626Y-93121257D01*
X171528819Y-93121257D01*
X171528819Y-93528063D01*
X170308399Y-93528063D01*
X170308399Y-93121257D01*
X170308399Y-92714450D01*
X171528819Y-92714450D01*
X171528819Y-91900836D01*
X170308399Y-91900836D01*
X170308399Y-92714450D01*
X170308399Y-93121257D01*
X169901592Y-93121257D01*
X169901592Y-91494029D01*
X170308399Y-91494029D01*
G36*
X169901592Y-87019154D02*
G01*
X169901592Y-86612348D01*
X169494785Y-86612348D01*
X169494785Y-86205541D01*
X169087978Y-86205541D01*
X169087978Y-85391927D01*
X169494785Y-85391927D01*
X169494785Y-85798734D01*
X169901592Y-85798734D01*
X169901592Y-86205541D01*
X170308399Y-86205541D01*
X170308399Y-86612348D01*
X170715206Y-86612348D01*
X170715206Y-86205541D01*
X171122012Y-86205541D01*
X171122012Y-85798734D01*
X171528819Y-85798734D01*
X171528819Y-85391927D01*
X171935626Y-85391927D01*
X171935626Y-86205541D01*
X171528819Y-86205541D01*
X171528819Y-86612348D01*
X171122012Y-86612348D01*
X171122012Y-87019154D01*
X171935626Y-87019154D01*
X171935626Y-87832768D01*
X169087978Y-87832768D01*
X169087978Y-87019154D01*
X169901592Y-87019154D01*
G37*
X169901592Y-87019154D02*
X169901592Y-86612348D01*
X169494785Y-86612348D01*
X169494785Y-86205541D01*
X169087978Y-86205541D01*
X169087978Y-85391927D01*
X169494785Y-85391927D01*
X169494785Y-85798734D01*
X169901592Y-85798734D01*
X169901592Y-86205541D01*
X170308399Y-86205541D01*
X170308399Y-86612348D01*
X170715206Y-86612348D01*
X170715206Y-86205541D01*
X171122012Y-86205541D01*
X171122012Y-85798734D01*
X171528819Y-85798734D01*
X171528819Y-85391927D01*
X171935626Y-85391927D01*
X171935626Y-86205541D01*
X171528819Y-86205541D01*
X171528819Y-86612348D01*
X171122012Y-86612348D01*
X171122012Y-87019154D01*
X171935626Y-87019154D01*
X171935626Y-87832768D01*
X169087978Y-87832768D01*
X169087978Y-87019154D01*
X169901592Y-87019154D01*
G36*
X169494785Y-82544280D02*
G01*
X169494785Y-84171507D01*
X170308399Y-84171507D01*
X170308399Y-83357893D01*
X170715206Y-83357893D01*
X170715206Y-84171507D01*
X171528819Y-84171507D01*
X171528819Y-82544280D01*
X171935626Y-82544280D01*
X171935626Y-84985120D01*
X169087978Y-84985120D01*
X169087978Y-82544280D01*
X169494785Y-82544280D01*
G37*
X169494785Y-82544280D02*
X169494785Y-84171507D01*
X170308399Y-84171507D01*
X170308399Y-83357893D01*
X170715206Y-83357893D01*
X170715206Y-84171507D01*
X171528819Y-84171507D01*
X171528819Y-82544280D01*
X171935626Y-82544280D01*
X171935626Y-84985120D01*
X169087978Y-84985120D01*
X169087978Y-82544280D01*
X169494785Y-82544280D01*
G36*
X170308399Y-81323859D02*
G01*
X170308399Y-80510246D01*
X169087978Y-80510246D01*
X169087978Y-79696632D01*
X170308399Y-79696632D01*
X170308399Y-80103439D01*
X170715206Y-80103439D01*
X170715206Y-80510246D01*
X171935626Y-80510246D01*
X171935626Y-81323859D01*
X170715206Y-81323859D01*
X170715206Y-81730666D01*
X170308399Y-81730666D01*
X170308399Y-82137473D01*
X169087978Y-82137473D01*
X169087978Y-81323859D01*
X170308399Y-81323859D01*
G37*
X170308399Y-81323859D02*
X170308399Y-80510246D01*
X169087978Y-80510246D01*
X169087978Y-79696632D01*
X170308399Y-79696632D01*
X170308399Y-80103439D01*
X170715206Y-80103439D01*
X170715206Y-80510246D01*
X171935626Y-80510246D01*
X171935626Y-81323859D01*
X170715206Y-81323859D01*
X170715206Y-81730666D01*
X170308399Y-81730666D01*
X170308399Y-82137473D01*
X169087978Y-82137473D01*
X169087978Y-81323859D01*
X170308399Y-81323859D01*
G36*
X166240331Y-90273609D02*
G01*
X166240331Y-89866802D01*
X166647137Y-89866802D01*
X166647137Y-90680416D01*
X166240331Y-90680416D01*
X166240331Y-91494029D01*
X168274365Y-91494029D01*
X168274365Y-90680416D01*
X167867558Y-90680416D01*
X167867558Y-89866802D01*
X168274365Y-89866802D01*
X168274365Y-90273609D01*
X168681171Y-90273609D01*
X168681171Y-91900836D01*
X168274365Y-91900836D01*
X168274365Y-92307643D01*
X166240331Y-92307643D01*
X166240331Y-91900836D01*
X165833524Y-91900836D01*
X165833524Y-90273609D01*
X166240331Y-90273609D01*
G37*
X166240331Y-90273609D02*
X166240331Y-89866802D01*
X166647137Y-89866802D01*
X166647137Y-90680416D01*
X166240331Y-90680416D01*
X166240331Y-91494029D01*
X168274365Y-91494029D01*
X168274365Y-90680416D01*
X167867558Y-90680416D01*
X167867558Y-89866802D01*
X168274365Y-89866802D01*
X168274365Y-90273609D01*
X168681171Y-90273609D01*
X168681171Y-91900836D01*
X168274365Y-91900836D01*
X168274365Y-92307643D01*
X166240331Y-92307643D01*
X166240331Y-91900836D01*
X165833524Y-91900836D01*
X165833524Y-90273609D01*
X166240331Y-90273609D01*
G36*
X166240331Y-87425961D02*
G01*
X166240331Y-87019154D01*
X166647137Y-87019154D01*
X166647137Y-87832768D01*
X166240331Y-87832768D01*
X166240331Y-88646382D01*
X167053944Y-88646382D01*
X167053944Y-87425961D01*
X167460751Y-87425961D01*
X167460751Y-87019154D01*
X168274365Y-87019154D01*
X168274365Y-87425961D01*
X168681171Y-87425961D01*
X168681171Y-89053189D01*
X168274365Y-89053189D01*
X168274365Y-89459995D01*
X167460751Y-89459995D01*
X167460751Y-88646382D01*
X168274365Y-88646382D01*
X168274365Y-87832768D01*
X167460751Y-87832768D01*
X167460751Y-88646382D01*
X167460751Y-89459995D01*
X166240331Y-89459995D01*
X166240331Y-89053189D01*
X165833524Y-89053189D01*
X165833524Y-87425961D01*
X166240331Y-87425961D01*
G37*
X166240331Y-87425961D02*
X166240331Y-87019154D01*
X166647137Y-87019154D01*
X166647137Y-87832768D01*
X166240331Y-87832768D01*
X166240331Y-88646382D01*
X167053944Y-88646382D01*
X167053944Y-87425961D01*
X167460751Y-87425961D01*
X167460751Y-87019154D01*
X168274365Y-87019154D01*
X168274365Y-87425961D01*
X168681171Y-87425961D01*
X168681171Y-89053189D01*
X168274365Y-89053189D01*
X168274365Y-89459995D01*
X167460751Y-89459995D01*
X167460751Y-88646382D01*
X168274365Y-88646382D01*
X168274365Y-87832768D01*
X167460751Y-87832768D01*
X167460751Y-88646382D01*
X167460751Y-89459995D01*
X166240331Y-89459995D01*
X166240331Y-89053189D01*
X165833524Y-89053189D01*
X165833524Y-87425961D01*
X166240331Y-87425961D01*
G36*
X167460751Y-84171507D02*
G01*
X167460751Y-83764700D01*
X167867558Y-83764700D01*
X167867558Y-84171507D01*
X168681171Y-84171507D01*
X168681171Y-84985120D01*
X167867558Y-84985120D01*
X167867558Y-86612348D01*
X167053944Y-86612348D01*
X167053944Y-85798734D01*
X167460751Y-85798734D01*
X167460751Y-84985120D01*
X167053944Y-84985120D01*
X167053944Y-85798734D01*
X166647137Y-85798734D01*
X166647137Y-85391927D01*
X166240331Y-85391927D01*
X166240331Y-84985120D01*
X165833524Y-84985120D01*
X165833524Y-84171507D01*
X167460751Y-84171507D01*
G37*
X167460751Y-84171507D02*
X167460751Y-83764700D01*
X167867558Y-83764700D01*
X167867558Y-84171507D01*
X168681171Y-84171507D01*
X168681171Y-84985120D01*
X167867558Y-84985120D01*
X167867558Y-86612348D01*
X167053944Y-86612348D01*
X167053944Y-85798734D01*
X167460751Y-85798734D01*
X167460751Y-84985120D01*
X167053944Y-84985120D01*
X167053944Y-85798734D01*
X166647137Y-85798734D01*
X166647137Y-85391927D01*
X166240331Y-85391927D01*
X166240331Y-84985120D01*
X165833524Y-84985120D01*
X165833524Y-84171507D01*
X167460751Y-84171507D01*
D11*
X145395000Y-102255000D02*
X165755000Y-102255000D01*
X145935000Y-102805000D02*
X165195000Y-102805000D01*
X145395000Y-111105000D02*
X165755000Y-111105000D01*
X145935000Y-110555000D02*
X153325000Y-110555000D01*
X157825000Y-110555000D02*
X165195000Y-110555000D01*
X153325000Y-110555000D02*
X153325000Y-111105000D01*
X157825000Y-110555000D02*
X157825000Y-111105000D01*
X145395000Y-102255000D02*
X145395000Y-111105000D01*
X145935000Y-102805000D02*
X145935000Y-110555000D01*
X165755000Y-102255000D02*
X165755000Y-111105000D01*
X165195000Y-102805000D02*
X165195000Y-110555000D01*
X145395000Y-102255000D02*
X145935000Y-102805000D01*
X165755000Y-102255000D02*
X165195000Y-102805000D01*
X145395000Y-111105000D02*
X145935000Y-110555000D01*
X165755000Y-111105000D02*
X165195000Y-110555000D01*
D12*
X145145000Y-102005000D02*
X166005000Y-102005000D01*
X166005000Y-102005000D02*
X166005000Y-111355000D01*
X166005000Y-111355000D02*
X145145000Y-111355000D01*
X145145000Y-111355000D02*
X145145000Y-102005000D01*
X144895000Y-111605000D02*
X147435000Y-111605000D01*
X144895000Y-111605000D02*
X144895000Y-109065000D01*
X150558500Y-109402425D02*
X150808500Y-109835438D01*
X150308500Y-109835438D02*
X150558500Y-109402425D01*
X150808500Y-109835438D02*
X150308500Y-109835438D01*
D11*
X122535000Y-102255000D02*
X142895000Y-102255000D01*
X123075000Y-102805000D02*
X142335000Y-102805000D01*
X122535000Y-111105000D02*
X142895000Y-111105000D01*
X123075000Y-110555000D02*
X130465000Y-110555000D01*
X134965000Y-110555000D02*
X142335000Y-110555000D01*
X130465000Y-110555000D02*
X130465000Y-111105000D01*
X134965000Y-110555000D02*
X134965000Y-111105000D01*
X122535000Y-102255000D02*
X122535000Y-111105000D01*
X123075000Y-102805000D02*
X123075000Y-110555000D01*
X142895000Y-102255000D02*
X142895000Y-111105000D01*
X142335000Y-102805000D02*
X142335000Y-110555000D01*
X122535000Y-102255000D02*
X123075000Y-102805000D01*
X142895000Y-102255000D02*
X142335000Y-102805000D01*
X122535000Y-111105000D02*
X123075000Y-110555000D01*
X142895000Y-111105000D02*
X142335000Y-110555000D01*
D12*
X122285000Y-102005000D02*
X143145000Y-102005000D01*
X143145000Y-102005000D02*
X143145000Y-111355000D01*
X143145000Y-111355000D02*
X122285000Y-111355000D01*
X122285000Y-111355000D02*
X122285000Y-102005000D01*
X122035000Y-111605000D02*
X124575000Y-111605000D01*
X122035000Y-111605000D02*
X122035000Y-109065000D01*
X127698500Y-109402425D02*
X127948500Y-109835438D01*
X127448500Y-109835438D02*
X127698500Y-109402425D01*
X127948500Y-109835438D02*
X127448500Y-109835438D01*
X116145000Y-98365000D02*
X117475000Y-98365000D01*
X116145000Y-99695000D02*
X116145000Y-98365000D01*
X116145000Y-100965000D02*
X118805000Y-100965000D01*
X118805000Y-100965000D02*
X118805000Y-103565000D01*
X116145000Y-100965000D02*
X116145000Y-103565000D01*
X116145000Y-103565000D02*
X118805000Y-103565000D01*
X130045000Y-77585000D02*
X130045000Y-68465000D01*
X130045000Y-68465000D02*
X158245000Y-68465000D01*
X158245000Y-68465000D02*
X158245000Y-77585000D01*
X158245000Y-77585000D02*
X130045000Y-77585000D01*
X142095000Y-77585000D02*
X142095000Y-76275000D01*
X142095000Y-76275000D02*
X131345000Y-76275000D01*
X131345000Y-76275000D02*
X131345000Y-69775000D01*
X131345000Y-69775000D02*
X156945000Y-69775000D01*
X156945000Y-69775000D02*
X156945000Y-76275000D01*
X156945000Y-76275000D02*
X146195000Y-76275000D01*
X146195000Y-76275000D02*
X146195000Y-76275000D01*
X146195000Y-76275000D02*
X146195000Y-77585000D01*
X135255000Y-77975000D02*
X134755000Y-78975000D01*
X134755000Y-78975000D02*
X135755000Y-78975000D01*
X135755000Y-78975000D02*
X135255000Y-77975000D01*
X122665000Y-75780000D02*
X122665000Y-75465000D01*
X122665000Y-78205000D02*
X122665000Y-77890000D01*
X127605000Y-75780000D02*
X127605000Y-75465000D01*
X127605000Y-78205000D02*
X127605000Y-77890000D01*
X127605000Y-75465000D02*
X122665000Y-75465000D01*
X127605000Y-78205000D02*
X122665000Y-78205000D01*
X133890000Y-86895000D02*
X133890000Y-89635000D01*
X133890000Y-89635000D02*
X140430000Y-89635000D01*
X140430000Y-89635000D02*
X140430000Y-86895000D01*
X140430000Y-86895000D02*
X133890000Y-86895000D01*
X133120000Y-88265000D02*
X133890000Y-88265000D01*
X141200000Y-88265000D02*
X140430000Y-88265000D01*
X141200000Y-95885000D02*
X140430000Y-95885000D01*
X133120000Y-95885000D02*
X133890000Y-95885000D01*
X140430000Y-94515000D02*
X133890000Y-94515000D01*
X140430000Y-97255000D02*
X140430000Y-94515000D01*
X133890000Y-97255000D02*
X140430000Y-97255000D01*
X133890000Y-94515000D02*
X133890000Y-97255000D01*
X130345000Y-79255000D02*
X119845000Y-79255000D01*
X130345000Y-97275000D02*
X130345000Y-79255000D01*
X119845000Y-97275000D02*
X130345000Y-97275000D01*
X119845000Y-79255000D02*
X119845000Y-97275000D01*
X127345000Y-79315000D02*
X126095000Y-79315000D01*
X127345000Y-97215000D02*
X127345000Y-79315000D01*
X122845000Y-97215000D02*
X127345000Y-97215000D01*
X122845000Y-79315000D02*
X122845000Y-97215000D01*
X124095000Y-79315000D02*
X122845000Y-79315000D01*
X126095000Y-79315000D02*
G75*
G02*
X124095000Y-79315000I-1000000J0D01*
G01*
X158805000Y-90275000D02*
X158805000Y-93875000D01*
X159532205Y-89750816D02*
G75*
G03*
X158805000Y-90275000I1122795J-2324184D01*
G01*
X161753807Y-89718600D02*
G75*
G02*
X163255000Y-92075000I-1098807J-2356400D01*
G01*
X161753807Y-94431400D02*
G75*
G03*
X163255000Y-92075000I-1098807J2356400D01*
G01*
X159532205Y-94399184D02*
G75*
G02*
X158805000Y-93875000I1122795J2324184D01*
G01*
X158805000Y-81385000D02*
X158805000Y-84985000D01*
X159532205Y-85509184D02*
G75*
G02*
X158805000Y-84985000I1122795J2324184D01*
G01*
X161753807Y-85541400D02*
G75*
G03*
X163255000Y-83185000I-1098807J2356400D01*
G01*
X161753807Y-80828600D02*
G75*
G02*
X163255000Y-83185000I-1098807J-2356400D01*
G01*
X159532205Y-80860816D02*
G75*
G03*
X158805000Y-81385000I1122795J-2324184D01*
G01*
X133890000Y-83085000D02*
X133890000Y-85825000D01*
X133890000Y-85825000D02*
X140430000Y-85825000D01*
X140430000Y-85825000D02*
X140430000Y-83085000D01*
X140430000Y-83085000D02*
X133890000Y-83085000D01*
X133120000Y-84455000D02*
X133890000Y-84455000D01*
X141200000Y-84455000D02*
X140430000Y-84455000D01*
X154535000Y-95885000D02*
X153765000Y-95885000D01*
X146455000Y-95885000D02*
X147225000Y-95885000D01*
X153765000Y-94515000D02*
X147225000Y-94515000D01*
X153765000Y-97255000D02*
X153765000Y-94515000D01*
X147225000Y-97255000D02*
X153765000Y-97255000D01*
X147225000Y-94515000D02*
X147225000Y-97255000D01*
X147225000Y-83085000D02*
X147225000Y-85825000D01*
X147225000Y-85825000D02*
X153765000Y-85825000D01*
X153765000Y-85825000D02*
X153765000Y-83085000D01*
X153765000Y-83085000D02*
X147225000Y-83085000D01*
X146455000Y-84455000D02*
X147225000Y-84455000D01*
X154535000Y-84455000D02*
X153765000Y-84455000D01*
X147225000Y-86895000D02*
X147225000Y-89635000D01*
X147225000Y-89635000D02*
X153765000Y-89635000D01*
X153765000Y-89635000D02*
X153765000Y-86895000D01*
X153765000Y-86895000D02*
X147225000Y-86895000D01*
X146455000Y-88265000D02*
X147225000Y-88265000D01*
X154535000Y-88265000D02*
X153765000Y-88265000D01*
X154535000Y-92075000D02*
X153765000Y-92075000D01*
X146455000Y-92075000D02*
X147225000Y-92075000D01*
X153765000Y-90705000D02*
X147225000Y-90705000D01*
X153765000Y-93445000D02*
X153765000Y-90705000D01*
X147225000Y-93445000D02*
X153765000Y-93445000D01*
X147225000Y-90705000D02*
X147225000Y-93445000D01*
X141200000Y-92075000D02*
X140430000Y-92075000D01*
X133120000Y-92075000D02*
X133890000Y-92075000D01*
X140430000Y-90705000D02*
X133890000Y-90705000D01*
X140430000Y-93445000D02*
X140430000Y-90705000D01*
X133890000Y-93445000D02*
X140430000Y-93445000D01*
X133890000Y-90705000D02*
X133890000Y-93445000D01*
X153765000Y-82015000D02*
X153765000Y-79275000D01*
X153765000Y-79275000D02*
X147225000Y-79275000D01*
X147225000Y-79275000D02*
X147225000Y-82015000D01*
X147225000Y-82015000D02*
X153765000Y-82015000D01*
X154535000Y-80645000D02*
X153765000Y-80645000D01*
X146455000Y-80645000D02*
X147225000Y-80645000D01*
X133120000Y-80645000D02*
X133890000Y-80645000D01*
X141200000Y-80645000D02*
X140430000Y-80645000D01*
X133890000Y-82015000D02*
X140430000Y-82015000D01*
X133890000Y-79275000D02*
X133890000Y-82015000D01*
X140430000Y-79275000D02*
X133890000Y-79275000D01*
X140430000Y-82015000D02*
X140430000Y-79275000D01*
D11*
X146418333Y-103066904D02*
X146418333Y-103638333D01*
X146380238Y-103752619D01*
X146304047Y-103828809D01*
X146189761Y-103866904D01*
X146113571Y-103866904D01*
X146761190Y-103143095D02*
X146799285Y-103105000D01*
X146875476Y-103066904D01*
X147065952Y-103066904D01*
X147142142Y-103105000D01*
X147180238Y-103143095D01*
X147218333Y-103219285D01*
X147218333Y-103295476D01*
X147180238Y-103409761D01*
X146723095Y-103866904D01*
X147218333Y-103866904D01*
D13*
X145153333Y-101417380D02*
X145153333Y-100417380D01*
X145534285Y-100417380D01*
X145629523Y-100465000D01*
X145677142Y-100512619D01*
X145724761Y-100607857D01*
X145724761Y-100750714D01*
X145677142Y-100845952D01*
X145629523Y-100893571D01*
X145534285Y-100941190D01*
X145153333Y-100941190D01*
X146296190Y-101417380D02*
X146200952Y-101369761D01*
X146153333Y-101322142D01*
X146105714Y-101226904D01*
X146105714Y-100941190D01*
X146153333Y-100845952D01*
X146200952Y-100798333D01*
X146296190Y-100750714D01*
X146439047Y-100750714D01*
X146534285Y-100798333D01*
X146581904Y-100845952D01*
X146629523Y-100941190D01*
X146629523Y-101226904D01*
X146581904Y-101322142D01*
X146534285Y-101369761D01*
X146439047Y-101417380D01*
X146296190Y-101417380D01*
X147058095Y-101417380D02*
X147058095Y-100750714D01*
X147058095Y-100941190D02*
X147105714Y-100845952D01*
X147153333Y-100798333D01*
X147248571Y-100750714D01*
X147343809Y-100750714D01*
X147534285Y-100750714D02*
X147915238Y-100750714D01*
X147677142Y-100417380D02*
X147677142Y-101274523D01*
X147724761Y-101369761D01*
X147820000Y-101417380D01*
X147915238Y-101417380D01*
X148962857Y-100512619D02*
X149010476Y-100465000D01*
X149105714Y-100417380D01*
X149343809Y-100417380D01*
X149439047Y-100465000D01*
X149486666Y-100512619D01*
X149534285Y-100607857D01*
X149534285Y-100703095D01*
X149486666Y-100845952D01*
X148915238Y-101417380D01*
X149534285Y-101417380D01*
D11*
X123558333Y-103066904D02*
X123558333Y-103638333D01*
X123520238Y-103752619D01*
X123444047Y-103828809D01*
X123329761Y-103866904D01*
X123253571Y-103866904D01*
X124358333Y-103866904D02*
X123901190Y-103866904D01*
X124129761Y-103866904D02*
X124129761Y-103066904D01*
X124053571Y-103181190D01*
X123977380Y-103257380D01*
X123901190Y-103295476D01*
D13*
X122293333Y-101417380D02*
X122293333Y-100417380D01*
X122674285Y-100417380D01*
X122769523Y-100465000D01*
X122817142Y-100512619D01*
X122864761Y-100607857D01*
X122864761Y-100750714D01*
X122817142Y-100845952D01*
X122769523Y-100893571D01*
X122674285Y-100941190D01*
X122293333Y-100941190D01*
X123436190Y-101417380D02*
X123340952Y-101369761D01*
X123293333Y-101322142D01*
X123245714Y-101226904D01*
X123245714Y-100941190D01*
X123293333Y-100845952D01*
X123340952Y-100798333D01*
X123436190Y-100750714D01*
X123579047Y-100750714D01*
X123674285Y-100798333D01*
X123721904Y-100845952D01*
X123769523Y-100941190D01*
X123769523Y-101226904D01*
X123721904Y-101322142D01*
X123674285Y-101369761D01*
X123579047Y-101417380D01*
X123436190Y-101417380D01*
X124198095Y-101417380D02*
X124198095Y-100750714D01*
X124198095Y-100941190D02*
X124245714Y-100845952D01*
X124293333Y-100798333D01*
X124388571Y-100750714D01*
X124483809Y-100750714D01*
X124674285Y-100750714D02*
X125055238Y-100750714D01*
X124817142Y-100417380D02*
X124817142Y-101274523D01*
X124864761Y-101369761D01*
X124960000Y-101417380D01*
X125055238Y-101417380D01*
X126674285Y-101417380D02*
X126102857Y-101417380D01*
X126388571Y-101417380D02*
X126388571Y-100417380D01*
X126293333Y-100560238D01*
X126198095Y-100655476D01*
X126102857Y-100703095D01*
D11*
X115322619Y-104336904D02*
X115589285Y-105136904D01*
X115855952Y-104336904D01*
X116579761Y-105060714D02*
X116541666Y-105098809D01*
X116427380Y-105136904D01*
X116351190Y-105136904D01*
X116236904Y-105098809D01*
X116160714Y-105022619D01*
X116122619Y-104946428D01*
X116084523Y-104794047D01*
X116084523Y-104679761D01*
X116122619Y-104527380D01*
X116160714Y-104451190D01*
X116236904Y-104375000D01*
X116351190Y-104336904D01*
X116427380Y-104336904D01*
X116541666Y-104375000D01*
X116579761Y-104413095D01*
X117379761Y-105060714D02*
X117341666Y-105098809D01*
X117227380Y-105136904D01*
X117151190Y-105136904D01*
X117036904Y-105098809D01*
X116960714Y-105022619D01*
X116922619Y-104946428D01*
X116884523Y-104794047D01*
X116884523Y-104679761D01*
X116922619Y-104527380D01*
X116960714Y-104451190D01*
X117036904Y-104375000D01*
X117151190Y-104336904D01*
X117227380Y-104336904D01*
X117341666Y-104375000D01*
X117379761Y-104413095D01*
X117532142Y-105213095D02*
X118141666Y-105213095D01*
X118332142Y-104717857D02*
X118598809Y-104717857D01*
X118713095Y-105136904D02*
X118332142Y-105136904D01*
X118332142Y-104336904D01*
X118713095Y-104336904D01*
X119055952Y-105136904D02*
X119055952Y-104336904D01*
X119513095Y-105136904D01*
X119513095Y-104336904D01*
D13*
X132381666Y-70572380D02*
X132381666Y-71286666D01*
X132334047Y-71429523D01*
X132238809Y-71524761D01*
X132095952Y-71572380D01*
X132000714Y-71572380D01*
X132762619Y-70572380D02*
X133381666Y-70572380D01*
X133048333Y-70953333D01*
X133191190Y-70953333D01*
X133286428Y-71000952D01*
X133334047Y-71048571D01*
X133381666Y-71143809D01*
X133381666Y-71381904D01*
X133334047Y-71477142D01*
X133286428Y-71524761D01*
X133191190Y-71572380D01*
X132905476Y-71572380D01*
X132810238Y-71524761D01*
X132762619Y-71477142D01*
D11*
X141916428Y-78213000D02*
X141840238Y-78174904D01*
X141725952Y-78174904D01*
X141611666Y-78213000D01*
X141535476Y-78289190D01*
X141497380Y-78365380D01*
X141459285Y-78517761D01*
X141459285Y-78632047D01*
X141497380Y-78784428D01*
X141535476Y-78860619D01*
X141611666Y-78936809D01*
X141725952Y-78974904D01*
X141802142Y-78974904D01*
X141916428Y-78936809D01*
X141954523Y-78898714D01*
X141954523Y-78632047D01*
X141802142Y-78632047D01*
X142640238Y-78974904D02*
X142640238Y-78555857D01*
X142602142Y-78479666D01*
X142525952Y-78441571D01*
X142373571Y-78441571D01*
X142297380Y-78479666D01*
X142640238Y-78936809D02*
X142564047Y-78974904D01*
X142373571Y-78974904D01*
X142297380Y-78936809D01*
X142259285Y-78860619D01*
X142259285Y-78784428D01*
X142297380Y-78708238D01*
X142373571Y-78670142D01*
X142564047Y-78670142D01*
X142640238Y-78632047D01*
X143021190Y-78974904D02*
X143021190Y-78441571D01*
X143021190Y-78517761D02*
X143059285Y-78479666D01*
X143135476Y-78441571D01*
X143249761Y-78441571D01*
X143325952Y-78479666D01*
X143364047Y-78555857D01*
X143364047Y-78974904D01*
X143364047Y-78555857D02*
X143402142Y-78479666D01*
X143478333Y-78441571D01*
X143592619Y-78441571D01*
X143668809Y-78479666D01*
X143706904Y-78555857D01*
X143706904Y-78974904D01*
X144392619Y-78936809D02*
X144316428Y-78974904D01*
X144164047Y-78974904D01*
X144087857Y-78936809D01*
X144049761Y-78860619D01*
X144049761Y-78555857D01*
X144087857Y-78479666D01*
X144164047Y-78441571D01*
X144316428Y-78441571D01*
X144392619Y-78479666D01*
X144430714Y-78555857D01*
X144430714Y-78632047D01*
X144049761Y-78708238D01*
X144773571Y-78441571D02*
X144773571Y-79241571D01*
X144773571Y-78479666D02*
X144849761Y-78441571D01*
X145002142Y-78441571D01*
X145078333Y-78479666D01*
X145116428Y-78517761D01*
X145154523Y-78593952D01*
X145154523Y-78822523D01*
X145116428Y-78898714D01*
X145078333Y-78936809D01*
X145002142Y-78974904D01*
X144849761Y-78974904D01*
X144773571Y-78936809D01*
X145611666Y-78974904D02*
X145535476Y-78936809D01*
X145497380Y-78898714D01*
X145459285Y-78822523D01*
X145459285Y-78593952D01*
X145497380Y-78517761D01*
X145535476Y-78479666D01*
X145611666Y-78441571D01*
X145725952Y-78441571D01*
X145802142Y-78479666D01*
X145840238Y-78517761D01*
X145878333Y-78593952D01*
X145878333Y-78822523D01*
X145840238Y-78898714D01*
X145802142Y-78936809D01*
X145725952Y-78974904D01*
X145611666Y-78974904D01*
X146221190Y-78974904D02*
X146221190Y-78441571D01*
X146221190Y-78593952D02*
X146259285Y-78517761D01*
X146297380Y-78479666D01*
X146373571Y-78441571D01*
X146449761Y-78441571D01*
X146602142Y-78441571D02*
X146906904Y-78441571D01*
X146716428Y-78174904D02*
X146716428Y-78860619D01*
X146754523Y-78936809D01*
X146830714Y-78974904D01*
X146906904Y-78974904D01*
D13*
X124968333Y-77192142D02*
X124920714Y-77239761D01*
X124777857Y-77287380D01*
X124682619Y-77287380D01*
X124539761Y-77239761D01*
X124444523Y-77144523D01*
X124396904Y-77049285D01*
X124349285Y-76858809D01*
X124349285Y-76715952D01*
X124396904Y-76525476D01*
X124444523Y-76430238D01*
X124539761Y-76335000D01*
X124682619Y-76287380D01*
X124777857Y-76287380D01*
X124920714Y-76335000D01*
X124968333Y-76382619D01*
X125920714Y-77287380D02*
X125349285Y-77287380D01*
X125635000Y-77287380D02*
X125635000Y-76287380D01*
X125539761Y-76430238D01*
X125444523Y-76525476D01*
X125349285Y-76573095D01*
D11*
X135616904Y-88398333D02*
X135235952Y-88665000D01*
X135616904Y-88855476D02*
X134816904Y-88855476D01*
X134816904Y-88550714D01*
X134855000Y-88474523D01*
X134893095Y-88436428D01*
X134969285Y-88398333D01*
X135083571Y-88398333D01*
X135159761Y-88436428D01*
X135197857Y-88474523D01*
X135235952Y-88550714D01*
X135235952Y-88855476D01*
X134816904Y-87674523D02*
X134816904Y-88055476D01*
X135197857Y-88093571D01*
X135159761Y-88055476D01*
X135121666Y-87979285D01*
X135121666Y-87788809D01*
X135159761Y-87712619D01*
X135197857Y-87674523D01*
X135274047Y-87636428D01*
X135464523Y-87636428D01*
X135540714Y-87674523D01*
X135578809Y-87712619D01*
X135616904Y-87788809D01*
X135616904Y-87979285D01*
X135578809Y-88055476D01*
X135540714Y-88093571D01*
X137953809Y-88626904D02*
X137496666Y-88626904D01*
X137725238Y-88626904D02*
X137725238Y-87826904D01*
X137649047Y-87941190D01*
X137572857Y-88017380D01*
X137496666Y-88055476D01*
X138449047Y-87826904D02*
X138525238Y-87826904D01*
X138601428Y-87865000D01*
X138639523Y-87903095D01*
X138677619Y-87979285D01*
X138715714Y-88131666D01*
X138715714Y-88322142D01*
X138677619Y-88474523D01*
X138639523Y-88550714D01*
X138601428Y-88588809D01*
X138525238Y-88626904D01*
X138449047Y-88626904D01*
X138372857Y-88588809D01*
X138334761Y-88550714D01*
X138296666Y-88474523D01*
X138258571Y-88322142D01*
X138258571Y-88131666D01*
X138296666Y-87979285D01*
X138334761Y-87903095D01*
X138372857Y-87865000D01*
X138449047Y-87826904D01*
X139058571Y-88626904D02*
X139058571Y-87826904D01*
X139134761Y-88322142D02*
X139363333Y-88626904D01*
X139363333Y-88093571D02*
X139058571Y-88398333D01*
X135616904Y-96018333D02*
X135235952Y-96285000D01*
X135616904Y-96475476D02*
X134816904Y-96475476D01*
X134816904Y-96170714D01*
X134855000Y-96094523D01*
X134893095Y-96056428D01*
X134969285Y-96018333D01*
X135083571Y-96018333D01*
X135159761Y-96056428D01*
X135197857Y-96094523D01*
X135235952Y-96170714D01*
X135235952Y-96475476D01*
X134816904Y-95332619D02*
X134816904Y-95485000D01*
X134855000Y-95561190D01*
X134893095Y-95599285D01*
X135007380Y-95675476D01*
X135159761Y-95713571D01*
X135464523Y-95713571D01*
X135540714Y-95675476D01*
X135578809Y-95637380D01*
X135616904Y-95561190D01*
X135616904Y-95408809D01*
X135578809Y-95332619D01*
X135540714Y-95294523D01*
X135464523Y-95256428D01*
X135274047Y-95256428D01*
X135197857Y-95294523D01*
X135159761Y-95332619D01*
X135121666Y-95408809D01*
X135121666Y-95561190D01*
X135159761Y-95637380D01*
X135197857Y-95675476D01*
X135274047Y-95713571D01*
X137953809Y-96246904D02*
X137496666Y-96246904D01*
X137725238Y-96246904D02*
X137725238Y-95446904D01*
X137649047Y-95561190D01*
X137572857Y-95637380D01*
X137496666Y-95675476D01*
X138449047Y-95446904D02*
X138525238Y-95446904D01*
X138601428Y-95485000D01*
X138639523Y-95523095D01*
X138677619Y-95599285D01*
X138715714Y-95751666D01*
X138715714Y-95942142D01*
X138677619Y-96094523D01*
X138639523Y-96170714D01*
X138601428Y-96208809D01*
X138525238Y-96246904D01*
X138449047Y-96246904D01*
X138372857Y-96208809D01*
X138334761Y-96170714D01*
X138296666Y-96094523D01*
X138258571Y-95942142D01*
X138258571Y-95751666D01*
X138296666Y-95599285D01*
X138334761Y-95523095D01*
X138372857Y-95485000D01*
X138449047Y-95446904D01*
X139058571Y-96246904D02*
X139058571Y-95446904D01*
X139134761Y-95942142D02*
X139363333Y-96246904D01*
X139363333Y-95713571D02*
X139058571Y-96018333D01*
D13*
X124333095Y-82637380D02*
X124333095Y-83446904D01*
X124380714Y-83542142D01*
X124428333Y-83589761D01*
X124523571Y-83637380D01*
X124714047Y-83637380D01*
X124809285Y-83589761D01*
X124856904Y-83542142D01*
X124904523Y-83446904D01*
X124904523Y-82637380D01*
X125904523Y-83637380D02*
X125333095Y-83637380D01*
X125618809Y-83637380D02*
X125618809Y-82637380D01*
X125523571Y-82780238D01*
X125428333Y-82875476D01*
X125333095Y-82923095D01*
X124880714Y-89503095D02*
X125547380Y-89503095D01*
X124499761Y-89741190D02*
X125214047Y-89979285D01*
X125214047Y-89360238D01*
X124547380Y-88788809D02*
X124547380Y-88693571D01*
X124595000Y-88598333D01*
X124642619Y-88550714D01*
X124737857Y-88503095D01*
X124928333Y-88455476D01*
X125166428Y-88455476D01*
X125356904Y-88503095D01*
X125452142Y-88550714D01*
X125499761Y-88598333D01*
X125547380Y-88693571D01*
X125547380Y-88788809D01*
X125499761Y-88884047D01*
X125452142Y-88931666D01*
X125356904Y-88979285D01*
X125166428Y-89026904D01*
X124928333Y-89026904D01*
X124737857Y-88979285D01*
X124642619Y-88931666D01*
X124595000Y-88884047D01*
X124547380Y-88788809D01*
X124547380Y-87598333D02*
X124547380Y-87788809D01*
X124595000Y-87884047D01*
X124642619Y-87931666D01*
X124785476Y-88026904D01*
X124975952Y-88074523D01*
X125356904Y-88074523D01*
X125452142Y-88026904D01*
X125499761Y-87979285D01*
X125547380Y-87884047D01*
X125547380Y-87693571D01*
X125499761Y-87598333D01*
X125452142Y-87550714D01*
X125356904Y-87503095D01*
X125118809Y-87503095D01*
X125023571Y-87550714D01*
X124975952Y-87598333D01*
X124928333Y-87693571D01*
X124928333Y-87884047D01*
X124975952Y-87979285D01*
X125023571Y-88026904D01*
X125118809Y-88074523D01*
X124547380Y-86645952D02*
X124547380Y-86836428D01*
X124595000Y-86931666D01*
X124642619Y-86979285D01*
X124785476Y-87074523D01*
X124975952Y-87122142D01*
X125356904Y-87122142D01*
X125452142Y-87074523D01*
X125499761Y-87026904D01*
X125547380Y-86931666D01*
X125547380Y-86741190D01*
X125499761Y-86645952D01*
X125452142Y-86598333D01*
X125356904Y-86550714D01*
X125118809Y-86550714D01*
X125023571Y-86598333D01*
X124975952Y-86645952D01*
X124928333Y-86741190D01*
X124928333Y-86931666D01*
X124975952Y-87026904D01*
X125023571Y-87074523D01*
X125118809Y-87122142D01*
D11*
X158553095Y-94691190D02*
X158515000Y-94767380D01*
X158438809Y-94843571D01*
X158324523Y-94957857D01*
X158286428Y-95034047D01*
X158286428Y-95110238D01*
X158476904Y-95072142D02*
X158438809Y-95148333D01*
X158362619Y-95224523D01*
X158210238Y-95262619D01*
X157943571Y-95262619D01*
X157791190Y-95224523D01*
X157715000Y-95148333D01*
X157676904Y-95072142D01*
X157676904Y-94919761D01*
X157715000Y-94843571D01*
X157791190Y-94767380D01*
X157943571Y-94729285D01*
X158210238Y-94729285D01*
X158362619Y-94767380D01*
X158438809Y-94843571D01*
X158476904Y-94919761D01*
X158476904Y-95072142D01*
X158476904Y-93967380D02*
X158476904Y-94424523D01*
X158476904Y-94195952D02*
X157676904Y-94195952D01*
X157791190Y-94272142D01*
X157867380Y-94348333D01*
X157905476Y-94424523D01*
X157753095Y-92976428D02*
X157715000Y-92938333D01*
X157676904Y-92862142D01*
X157676904Y-92671666D01*
X157715000Y-92595476D01*
X157753095Y-92557380D01*
X157829285Y-92519285D01*
X157905476Y-92519285D01*
X158019761Y-92557380D01*
X158476904Y-93014523D01*
X158476904Y-92519285D01*
X158476904Y-92176428D02*
X157676904Y-92176428D01*
X158476904Y-91719285D01*
X157676904Y-91719285D01*
X157676904Y-91414523D02*
X157676904Y-90919285D01*
X157981666Y-91185952D01*
X157981666Y-91071666D01*
X158019761Y-90995476D01*
X158057857Y-90957380D01*
X158134047Y-90919285D01*
X158324523Y-90919285D01*
X158400714Y-90957380D01*
X158438809Y-90995476D01*
X158476904Y-91071666D01*
X158476904Y-91300238D01*
X158438809Y-91376428D01*
X158400714Y-91414523D01*
X158476904Y-90538333D02*
X158476904Y-90385952D01*
X158438809Y-90309761D01*
X158400714Y-90271666D01*
X158286428Y-90195476D01*
X158134047Y-90157380D01*
X157829285Y-90157380D01*
X157753095Y-90195476D01*
X157715000Y-90233571D01*
X157676904Y-90309761D01*
X157676904Y-90462142D01*
X157715000Y-90538333D01*
X157753095Y-90576428D01*
X157829285Y-90614523D01*
X158019761Y-90614523D01*
X158095952Y-90576428D01*
X158134047Y-90538333D01*
X158172142Y-90462142D01*
X158172142Y-90309761D01*
X158134047Y-90233571D01*
X158095952Y-90195476D01*
X158019761Y-90157380D01*
X157676904Y-89662142D02*
X157676904Y-89585952D01*
X157715000Y-89509761D01*
X157753095Y-89471666D01*
X157829285Y-89433571D01*
X157981666Y-89395476D01*
X158172142Y-89395476D01*
X158324523Y-89433571D01*
X158400714Y-89471666D01*
X158438809Y-89509761D01*
X158476904Y-89585952D01*
X158476904Y-89662142D01*
X158438809Y-89738333D01*
X158400714Y-89776428D01*
X158324523Y-89814523D01*
X158172142Y-89852619D01*
X157981666Y-89852619D01*
X157829285Y-89814523D01*
X157753095Y-89776428D01*
X157715000Y-89738333D01*
X157676904Y-89662142D01*
X157676904Y-88709761D02*
X157676904Y-88862142D01*
X157715000Y-88938333D01*
X157753095Y-88976428D01*
X157867380Y-89052619D01*
X158019761Y-89090714D01*
X158324523Y-89090714D01*
X158400714Y-89052619D01*
X158438809Y-89014523D01*
X158476904Y-88938333D01*
X158476904Y-88785952D01*
X158438809Y-88709761D01*
X158400714Y-88671666D01*
X158324523Y-88633571D01*
X158134047Y-88633571D01*
X158057857Y-88671666D01*
X158019761Y-88709761D01*
X157981666Y-88785952D01*
X157981666Y-88938333D01*
X158019761Y-89014523D01*
X158057857Y-89052619D01*
X158134047Y-89090714D01*
X158553095Y-85801190D02*
X158515000Y-85877380D01*
X158438809Y-85953571D01*
X158324523Y-86067857D01*
X158286428Y-86144047D01*
X158286428Y-86220238D01*
X158476904Y-86182142D02*
X158438809Y-86258333D01*
X158362619Y-86334523D01*
X158210238Y-86372619D01*
X157943571Y-86372619D01*
X157791190Y-86334523D01*
X157715000Y-86258333D01*
X157676904Y-86182142D01*
X157676904Y-86029761D01*
X157715000Y-85953571D01*
X157791190Y-85877380D01*
X157943571Y-85839285D01*
X158210238Y-85839285D01*
X158362619Y-85877380D01*
X158438809Y-85953571D01*
X158476904Y-86029761D01*
X158476904Y-86182142D01*
X157753095Y-85534523D02*
X157715000Y-85496428D01*
X157676904Y-85420238D01*
X157676904Y-85229761D01*
X157715000Y-85153571D01*
X157753095Y-85115476D01*
X157829285Y-85077380D01*
X157905476Y-85077380D01*
X158019761Y-85115476D01*
X158476904Y-85572619D01*
X158476904Y-85077380D01*
X157753095Y-84086428D02*
X157715000Y-84048333D01*
X157676904Y-83972142D01*
X157676904Y-83781666D01*
X157715000Y-83705476D01*
X157753095Y-83667380D01*
X157829285Y-83629285D01*
X157905476Y-83629285D01*
X158019761Y-83667380D01*
X158476904Y-84124523D01*
X158476904Y-83629285D01*
X158476904Y-83286428D02*
X157676904Y-83286428D01*
X158476904Y-82829285D01*
X157676904Y-82829285D01*
X157676904Y-82524523D02*
X157676904Y-82029285D01*
X157981666Y-82295952D01*
X157981666Y-82181666D01*
X158019761Y-82105476D01*
X158057857Y-82067380D01*
X158134047Y-82029285D01*
X158324523Y-82029285D01*
X158400714Y-82067380D01*
X158438809Y-82105476D01*
X158476904Y-82181666D01*
X158476904Y-82410238D01*
X158438809Y-82486428D01*
X158400714Y-82524523D01*
X158476904Y-81648333D02*
X158476904Y-81495952D01*
X158438809Y-81419761D01*
X158400714Y-81381666D01*
X158286428Y-81305476D01*
X158134047Y-81267380D01*
X157829285Y-81267380D01*
X157753095Y-81305476D01*
X157715000Y-81343571D01*
X157676904Y-81419761D01*
X157676904Y-81572142D01*
X157715000Y-81648333D01*
X157753095Y-81686428D01*
X157829285Y-81724523D01*
X158019761Y-81724523D01*
X158095952Y-81686428D01*
X158134047Y-81648333D01*
X158172142Y-81572142D01*
X158172142Y-81419761D01*
X158134047Y-81343571D01*
X158095952Y-81305476D01*
X158019761Y-81267380D01*
X157676904Y-80772142D02*
X157676904Y-80695952D01*
X157715000Y-80619761D01*
X157753095Y-80581666D01*
X157829285Y-80543571D01*
X157981666Y-80505476D01*
X158172142Y-80505476D01*
X158324523Y-80543571D01*
X158400714Y-80581666D01*
X158438809Y-80619761D01*
X158476904Y-80695952D01*
X158476904Y-80772142D01*
X158438809Y-80848333D01*
X158400714Y-80886428D01*
X158324523Y-80924523D01*
X158172142Y-80962619D01*
X157981666Y-80962619D01*
X157829285Y-80924523D01*
X157753095Y-80886428D01*
X157715000Y-80848333D01*
X157676904Y-80772142D01*
X157676904Y-79819761D02*
X157676904Y-79972142D01*
X157715000Y-80048333D01*
X157753095Y-80086428D01*
X157867380Y-80162619D01*
X158019761Y-80200714D01*
X158324523Y-80200714D01*
X158400714Y-80162619D01*
X158438809Y-80124523D01*
X158476904Y-80048333D01*
X158476904Y-79895952D01*
X158438809Y-79819761D01*
X158400714Y-79781666D01*
X158324523Y-79743571D01*
X158134047Y-79743571D01*
X158057857Y-79781666D01*
X158019761Y-79819761D01*
X157981666Y-79895952D01*
X157981666Y-80048333D01*
X158019761Y-80124523D01*
X158057857Y-80162619D01*
X158134047Y-80200714D01*
X135616904Y-84588333D02*
X135235952Y-84855000D01*
X135616904Y-85045476D02*
X134816904Y-85045476D01*
X134816904Y-84740714D01*
X134855000Y-84664523D01*
X134893095Y-84626428D01*
X134969285Y-84588333D01*
X135083571Y-84588333D01*
X135159761Y-84626428D01*
X135197857Y-84664523D01*
X135235952Y-84740714D01*
X135235952Y-85045476D01*
X135616904Y-83826428D02*
X135616904Y-84283571D01*
X135616904Y-84055000D02*
X134816904Y-84055000D01*
X134931190Y-84131190D01*
X135007380Y-84207380D01*
X135045476Y-84283571D01*
X137953809Y-84816904D02*
X137496666Y-84816904D01*
X137725238Y-84816904D02*
X137725238Y-84016904D01*
X137649047Y-84131190D01*
X137572857Y-84207380D01*
X137496666Y-84245476D01*
X138449047Y-84016904D02*
X138525238Y-84016904D01*
X138601428Y-84055000D01*
X138639523Y-84093095D01*
X138677619Y-84169285D01*
X138715714Y-84321666D01*
X138715714Y-84512142D01*
X138677619Y-84664523D01*
X138639523Y-84740714D01*
X138601428Y-84778809D01*
X138525238Y-84816904D01*
X138449047Y-84816904D01*
X138372857Y-84778809D01*
X138334761Y-84740714D01*
X138296666Y-84664523D01*
X138258571Y-84512142D01*
X138258571Y-84321666D01*
X138296666Y-84169285D01*
X138334761Y-84093095D01*
X138372857Y-84055000D01*
X138449047Y-84016904D01*
X139058571Y-84816904D02*
X139058571Y-84016904D01*
X139134761Y-84512142D02*
X139363333Y-84816904D01*
X139363333Y-84283571D02*
X139058571Y-84588333D01*
X148951904Y-96018333D02*
X148570952Y-96285000D01*
X148951904Y-96475476D02*
X148151904Y-96475476D01*
X148151904Y-96170714D01*
X148190000Y-96094523D01*
X148228095Y-96056428D01*
X148304285Y-96018333D01*
X148418571Y-96018333D01*
X148494761Y-96056428D01*
X148532857Y-96094523D01*
X148570952Y-96170714D01*
X148570952Y-96475476D01*
X148228095Y-95713571D02*
X148190000Y-95675476D01*
X148151904Y-95599285D01*
X148151904Y-95408809D01*
X148190000Y-95332619D01*
X148228095Y-95294523D01*
X148304285Y-95256428D01*
X148380476Y-95256428D01*
X148494761Y-95294523D01*
X148951904Y-95751666D01*
X148951904Y-95256428D01*
X151212619Y-95713571D02*
X151212619Y-96246904D01*
X151022142Y-95408809D02*
X150831666Y-95980238D01*
X151326904Y-95980238D01*
X151555476Y-95446904D02*
X152088809Y-95446904D01*
X151745952Y-96246904D01*
X152393571Y-96246904D02*
X152393571Y-95446904D01*
X152469761Y-95942142D02*
X152698333Y-96246904D01*
X152698333Y-95713571D02*
X152393571Y-96018333D01*
X148951904Y-84588333D02*
X148570952Y-84855000D01*
X148951904Y-85045476D02*
X148151904Y-85045476D01*
X148151904Y-84740714D01*
X148190000Y-84664523D01*
X148228095Y-84626428D01*
X148304285Y-84588333D01*
X148418571Y-84588333D01*
X148494761Y-84626428D01*
X148532857Y-84664523D01*
X148570952Y-84740714D01*
X148570952Y-85045476D01*
X148151904Y-84321666D02*
X148151904Y-83826428D01*
X148456666Y-84093095D01*
X148456666Y-83978809D01*
X148494761Y-83902619D01*
X148532857Y-83864523D01*
X148609047Y-83826428D01*
X148799523Y-83826428D01*
X148875714Y-83864523D01*
X148913809Y-83902619D01*
X148951904Y-83978809D01*
X148951904Y-84207380D01*
X148913809Y-84283571D01*
X148875714Y-84321666D01*
X151212619Y-84283571D02*
X151212619Y-84816904D01*
X151022142Y-83978809D02*
X150831666Y-84550238D01*
X151326904Y-84550238D01*
X151555476Y-84016904D02*
X152088809Y-84016904D01*
X151745952Y-84816904D01*
X152393571Y-84816904D02*
X152393571Y-84016904D01*
X152469761Y-84512142D02*
X152698333Y-84816904D01*
X152698333Y-84283571D02*
X152393571Y-84588333D01*
X148951904Y-88398333D02*
X148570952Y-88665000D01*
X148951904Y-88855476D02*
X148151904Y-88855476D01*
X148151904Y-88550714D01*
X148190000Y-88474523D01*
X148228095Y-88436428D01*
X148304285Y-88398333D01*
X148418571Y-88398333D01*
X148494761Y-88436428D01*
X148532857Y-88474523D01*
X148570952Y-88550714D01*
X148570952Y-88855476D01*
X148418571Y-87712619D02*
X148951904Y-87712619D01*
X148113809Y-87903095D02*
X148685238Y-88093571D01*
X148685238Y-87598333D01*
X151212619Y-88093571D02*
X151212619Y-88626904D01*
X151022142Y-87788809D02*
X150831666Y-88360238D01*
X151326904Y-88360238D01*
X151555476Y-87826904D02*
X152088809Y-87826904D01*
X151745952Y-88626904D01*
X152393571Y-88626904D02*
X152393571Y-87826904D01*
X152469761Y-88322142D02*
X152698333Y-88626904D01*
X152698333Y-88093571D02*
X152393571Y-88398333D01*
X148951904Y-92208333D02*
X148570952Y-92475000D01*
X148951904Y-92665476D02*
X148151904Y-92665476D01*
X148151904Y-92360714D01*
X148190000Y-92284523D01*
X148228095Y-92246428D01*
X148304285Y-92208333D01*
X148418571Y-92208333D01*
X148494761Y-92246428D01*
X148532857Y-92284523D01*
X148570952Y-92360714D01*
X148570952Y-92665476D01*
X148151904Y-91941666D02*
X148151904Y-91408333D01*
X148951904Y-91751190D01*
X151212619Y-91903571D02*
X151212619Y-92436904D01*
X151022142Y-91598809D02*
X150831666Y-92170238D01*
X151326904Y-92170238D01*
X151555476Y-91636904D02*
X152088809Y-91636904D01*
X151745952Y-92436904D01*
X152393571Y-92436904D02*
X152393571Y-91636904D01*
X152469761Y-92132142D02*
X152698333Y-92436904D01*
X152698333Y-91903571D02*
X152393571Y-92208333D01*
X135616904Y-92208333D02*
X135235952Y-92475000D01*
X135616904Y-92665476D02*
X134816904Y-92665476D01*
X134816904Y-92360714D01*
X134855000Y-92284523D01*
X134893095Y-92246428D01*
X134969285Y-92208333D01*
X135083571Y-92208333D01*
X135159761Y-92246428D01*
X135197857Y-92284523D01*
X135235952Y-92360714D01*
X135235952Y-92665476D01*
X135159761Y-91751190D02*
X135121666Y-91827380D01*
X135083571Y-91865476D01*
X135007380Y-91903571D01*
X134969285Y-91903571D01*
X134893095Y-91865476D01*
X134855000Y-91827380D01*
X134816904Y-91751190D01*
X134816904Y-91598809D01*
X134855000Y-91522619D01*
X134893095Y-91484523D01*
X134969285Y-91446428D01*
X135007380Y-91446428D01*
X135083571Y-91484523D01*
X135121666Y-91522619D01*
X135159761Y-91598809D01*
X135159761Y-91751190D01*
X135197857Y-91827380D01*
X135235952Y-91865476D01*
X135312142Y-91903571D01*
X135464523Y-91903571D01*
X135540714Y-91865476D01*
X135578809Y-91827380D01*
X135616904Y-91751190D01*
X135616904Y-91598809D01*
X135578809Y-91522619D01*
X135540714Y-91484523D01*
X135464523Y-91446428D01*
X135312142Y-91446428D01*
X135235952Y-91484523D01*
X135197857Y-91522619D01*
X135159761Y-91598809D01*
X137953809Y-92436904D02*
X137496666Y-92436904D01*
X137725238Y-92436904D02*
X137725238Y-91636904D01*
X137649047Y-91751190D01*
X137572857Y-91827380D01*
X137496666Y-91865476D01*
X138449047Y-91636904D02*
X138525238Y-91636904D01*
X138601428Y-91675000D01*
X138639523Y-91713095D01*
X138677619Y-91789285D01*
X138715714Y-91941666D01*
X138715714Y-92132142D01*
X138677619Y-92284523D01*
X138639523Y-92360714D01*
X138601428Y-92398809D01*
X138525238Y-92436904D01*
X138449047Y-92436904D01*
X138372857Y-92398809D01*
X138334761Y-92360714D01*
X138296666Y-92284523D01*
X138258571Y-92132142D01*
X138258571Y-91941666D01*
X138296666Y-91789285D01*
X138334761Y-91713095D01*
X138372857Y-91675000D01*
X138449047Y-91636904D01*
X139058571Y-92436904D02*
X139058571Y-91636904D01*
X139134761Y-92132142D02*
X139363333Y-92436904D01*
X139363333Y-91903571D02*
X139058571Y-92208333D01*
X148951904Y-80778333D02*
X148570952Y-81045000D01*
X148951904Y-81235476D02*
X148151904Y-81235476D01*
X148151904Y-80930714D01*
X148190000Y-80854523D01*
X148228095Y-80816428D01*
X148304285Y-80778333D01*
X148418571Y-80778333D01*
X148494761Y-80816428D01*
X148532857Y-80854523D01*
X148570952Y-80930714D01*
X148570952Y-81235476D01*
X148951904Y-80397380D02*
X148951904Y-80245000D01*
X148913809Y-80168809D01*
X148875714Y-80130714D01*
X148761428Y-80054523D01*
X148609047Y-80016428D01*
X148304285Y-80016428D01*
X148228095Y-80054523D01*
X148190000Y-80092619D01*
X148151904Y-80168809D01*
X148151904Y-80321190D01*
X148190000Y-80397380D01*
X148228095Y-80435476D01*
X148304285Y-80473571D01*
X148494761Y-80473571D01*
X148570952Y-80435476D01*
X148609047Y-80397380D01*
X148647142Y-80321190D01*
X148647142Y-80168809D01*
X148609047Y-80092619D01*
X148570952Y-80054523D01*
X148494761Y-80016428D01*
X151212619Y-80473571D02*
X151212619Y-81006904D01*
X151022142Y-80168809D02*
X150831666Y-80740238D01*
X151326904Y-80740238D01*
X151555476Y-80206904D02*
X152088809Y-80206904D01*
X151745952Y-81006904D01*
X152393571Y-81006904D02*
X152393571Y-80206904D01*
X152469761Y-80702142D02*
X152698333Y-81006904D01*
X152698333Y-80473571D02*
X152393571Y-80778333D01*
X135616904Y-81159285D02*
X135235952Y-81425952D01*
X135616904Y-81616428D02*
X134816904Y-81616428D01*
X134816904Y-81311666D01*
X134855000Y-81235476D01*
X134893095Y-81197380D01*
X134969285Y-81159285D01*
X135083571Y-81159285D01*
X135159761Y-81197380D01*
X135197857Y-81235476D01*
X135235952Y-81311666D01*
X135235952Y-81616428D01*
X135616904Y-80397380D02*
X135616904Y-80854523D01*
X135616904Y-80625952D02*
X134816904Y-80625952D01*
X134931190Y-80702142D01*
X135007380Y-80778333D01*
X135045476Y-80854523D01*
X134816904Y-79902142D02*
X134816904Y-79825952D01*
X134855000Y-79749761D01*
X134893095Y-79711666D01*
X134969285Y-79673571D01*
X135121666Y-79635476D01*
X135312142Y-79635476D01*
X135464523Y-79673571D01*
X135540714Y-79711666D01*
X135578809Y-79749761D01*
X135616904Y-79825952D01*
X135616904Y-79902142D01*
X135578809Y-79978333D01*
X135540714Y-80016428D01*
X135464523Y-80054523D01*
X135312142Y-80092619D01*
X135121666Y-80092619D01*
X134969285Y-80054523D01*
X134893095Y-80016428D01*
X134855000Y-79978333D01*
X134816904Y-79902142D01*
X137877619Y-80473571D02*
X137877619Y-81006904D01*
X137687142Y-80168809D02*
X137496666Y-80740238D01*
X137991904Y-80740238D01*
X138220476Y-80206904D02*
X138753809Y-80206904D01*
X138410952Y-81006904D01*
X139058571Y-81006904D02*
X139058571Y-80206904D01*
X139134761Y-80702142D02*
X139363333Y-81006904D01*
X139363333Y-80473571D02*
X139058571Y-80778333D01*
M02*
