G04 #@! TF.GenerationSoftware,KiCad,Pcbnew,(5.1.8)-1*
G04 #@! TF.CreationDate,2022-02-20T02:40:39+01:00*
G04 #@! TF.ProjectId,MSX,4d53582e-6b69-4636-9164-5f7063625858,rev?*
G04 #@! TF.SameCoordinates,Original*
G04 #@! TF.FileFunction,Copper,L1,Top*
G04 #@! TF.FilePolarity,Positive*
%FSLAX46Y46*%
G04 Gerber Fmt 4.6, Leading zero omitted, Abs format (unit mm)*
G04 Created by KiCad (PCBNEW (5.1.8)-1) date 2022-02-20 02:40:39*
%MOMM*%
%LPD*%
G01*
G04 APERTURE LIST*
G04 #@! TA.AperFunction,SMDPad,CuDef*
%ADD10R,1.700000X6.000000*%
G04 #@! TD*
G04 #@! TA.AperFunction,ComponentPad*
%ADD11O,1.727200X1.727200*%
G04 #@! TD*
G04 #@! TA.AperFunction,ComponentPad*
%ADD12R,1.727200X1.727200*%
G04 #@! TD*
G04 #@! TA.AperFunction,ViaPad*
%ADD13C,0.800000*%
G04 #@! TD*
G04 #@! TA.AperFunction,Conductor*
%ADD14C,0.250000*%
G04 #@! TD*
G04 APERTURE END LIST*
D10*
X136684500Y-78168500D03*
X139454500Y-78168500D03*
X142224500Y-78168500D03*
X144994500Y-78168500D03*
X147764500Y-78168500D03*
D11*
X147320000Y-86995000D03*
X144780000Y-86995000D03*
X142240000Y-86995000D03*
X139700000Y-86995000D03*
X137160000Y-86995000D03*
X147320000Y-89535000D03*
X144780000Y-89535000D03*
X142240000Y-89535000D03*
X139700000Y-89535000D03*
D12*
X137160000Y-89535000D03*
D13*
X142634847Y-83970153D03*
X143510000Y-82550000D03*
X151130000Y-84835990D03*
X138074400Y-81991200D03*
X151130000Y-90805000D03*
D14*
X142240000Y-84365000D02*
X142634847Y-83970153D01*
X142240000Y-86995000D02*
X142240000Y-84365000D01*
X136271000Y-89535000D02*
X135636000Y-88900000D01*
X137160000Y-89535000D02*
X136271000Y-89535000D01*
X136684500Y-81247500D02*
X135636000Y-82296000D01*
X136684500Y-78168500D02*
X136684500Y-81247500D01*
X135636000Y-88900000D02*
X135636000Y-82296000D01*
X140970000Y-88265000D02*
X139700000Y-89535000D01*
X140970000Y-85725000D02*
X140970000Y-88265000D01*
X139700000Y-84455000D02*
X140970000Y-85725000D01*
X139700000Y-78414000D02*
X139700000Y-84455000D01*
X139454500Y-78168500D02*
X139700000Y-78414000D01*
X143510000Y-88265000D02*
X142240000Y-89535000D01*
X143510000Y-83820000D02*
X143510000Y-88265000D01*
X142224500Y-82534500D02*
X143510000Y-83820000D01*
X142224500Y-78168500D02*
X142224500Y-82534500D01*
X146050000Y-83820000D02*
X144994500Y-82764500D01*
X144994500Y-82764500D02*
X144994500Y-78168500D01*
X146050000Y-88265000D02*
X146050000Y-83820000D01*
X144780000Y-89535000D02*
X146050000Y-88265000D01*
X144780000Y-83820000D02*
X143510000Y-82550000D01*
X144780000Y-86995000D02*
X144780000Y-83820000D01*
X151130000Y-84074000D02*
X151130000Y-84835990D01*
X147764500Y-80708500D02*
X151130000Y-84074000D01*
X147764500Y-78168500D02*
X147764500Y-80708500D01*
X137160000Y-82905600D02*
X138074400Y-81991200D01*
X137160000Y-86995000D02*
X137160000Y-82905600D01*
X139700000Y-86995000D02*
X138430000Y-88265000D01*
X138430000Y-88265000D02*
X138430000Y-90805000D01*
X138430000Y-90805000D02*
X139065000Y-91440000D01*
X139065000Y-91440000D02*
X150495000Y-91440000D01*
X150495000Y-91440000D02*
X151130000Y-90805000D01*
M02*
