G04 #@! TF.GenerationSoftware,KiCad,Pcbnew,(5.1.5)-3*
G04 #@! TF.CreationDate,2020-12-17T01:43:45+01:00*
G04 #@! TF.ProjectId,C64 Joykey Faceplate,43363420-4a6f-4796-9b65-792046616365,rev?*
G04 #@! TF.SameCoordinates,Original*
G04 #@! TF.FileFunction,Legend,Top*
G04 #@! TF.FilePolarity,Positive*
%FSLAX46Y46*%
G04 Gerber Fmt 4.6, Leading zero omitted, Abs format (unit mm)*
G04 Created by KiCad (PCBNEW (5.1.5)-3) date 2020-12-17 01:43:45*
%MOMM*%
%LPD*%
G04 APERTURE LIST*
%ADD10C,0.150000*%
%ADD11C,0.100000*%
G04 APERTURE END LIST*
D10*
X197501190Y-94432380D02*
X197501190Y-93432380D01*
X197882142Y-93432380D01*
X197977380Y-93480000D01*
X198025000Y-93527619D01*
X198072619Y-93622857D01*
X198072619Y-93765714D01*
X198025000Y-93860952D01*
X197977380Y-93908571D01*
X197882142Y-93956190D01*
X197501190Y-93956190D01*
X198691666Y-93432380D02*
X198882142Y-93432380D01*
X198977380Y-93480000D01*
X199072619Y-93575238D01*
X199120238Y-93765714D01*
X199120238Y-94099047D01*
X199072619Y-94289523D01*
X198977380Y-94384761D01*
X198882142Y-94432380D01*
X198691666Y-94432380D01*
X198596428Y-94384761D01*
X198501190Y-94289523D01*
X198453571Y-94099047D01*
X198453571Y-93765714D01*
X198501190Y-93575238D01*
X198596428Y-93480000D01*
X198691666Y-93432380D01*
X200120238Y-94432380D02*
X199786904Y-93956190D01*
X199548809Y-94432380D02*
X199548809Y-93432380D01*
X199929761Y-93432380D01*
X200025000Y-93480000D01*
X200072619Y-93527619D01*
X200120238Y-93622857D01*
X200120238Y-93765714D01*
X200072619Y-93860952D01*
X200025000Y-93908571D01*
X199929761Y-93956190D01*
X199548809Y-93956190D01*
X200405952Y-93432380D02*
X200977380Y-93432380D01*
X200691666Y-94432380D02*
X200691666Y-93432380D01*
X202596428Y-94432380D02*
X202025000Y-94432380D01*
X202310714Y-94432380D02*
X202310714Y-93432380D01*
X202215476Y-93575238D01*
X202120238Y-93670476D01*
X202025000Y-93718095D01*
X220361190Y-94432380D02*
X220361190Y-93432380D01*
X220742142Y-93432380D01*
X220837380Y-93480000D01*
X220885000Y-93527619D01*
X220932619Y-93622857D01*
X220932619Y-93765714D01*
X220885000Y-93860952D01*
X220837380Y-93908571D01*
X220742142Y-93956190D01*
X220361190Y-93956190D01*
X221551666Y-93432380D02*
X221742142Y-93432380D01*
X221837380Y-93480000D01*
X221932619Y-93575238D01*
X221980238Y-93765714D01*
X221980238Y-94099047D01*
X221932619Y-94289523D01*
X221837380Y-94384761D01*
X221742142Y-94432380D01*
X221551666Y-94432380D01*
X221456428Y-94384761D01*
X221361190Y-94289523D01*
X221313571Y-94099047D01*
X221313571Y-93765714D01*
X221361190Y-93575238D01*
X221456428Y-93480000D01*
X221551666Y-93432380D01*
X222980238Y-94432380D02*
X222646904Y-93956190D01*
X222408809Y-94432380D02*
X222408809Y-93432380D01*
X222789761Y-93432380D01*
X222885000Y-93480000D01*
X222932619Y-93527619D01*
X222980238Y-93622857D01*
X222980238Y-93765714D01*
X222932619Y-93860952D01*
X222885000Y-93908571D01*
X222789761Y-93956190D01*
X222408809Y-93956190D01*
X223265952Y-93432380D02*
X223837380Y-93432380D01*
X223551666Y-94432380D02*
X223551666Y-93432380D01*
X224885000Y-93527619D02*
X224932619Y-93480000D01*
X225027857Y-93432380D01*
X225265952Y-93432380D01*
X225361190Y-93480000D01*
X225408809Y-93527619D01*
X225456428Y-93622857D01*
X225456428Y-93718095D01*
X225408809Y-93860952D01*
X224837380Y-94432380D01*
X225456428Y-94432380D01*
X145343571Y-100583809D02*
X145343571Y-100917142D01*
X145867380Y-100917142D02*
X144867380Y-100917142D01*
X144867380Y-100440952D01*
X145867380Y-100060000D02*
X144867380Y-100060000D01*
X145867380Y-99012380D02*
X145391190Y-99345714D01*
X145867380Y-99583809D02*
X144867380Y-99583809D01*
X144867380Y-99202857D01*
X144915000Y-99107619D01*
X144962619Y-99060000D01*
X145057857Y-99012380D01*
X145200714Y-99012380D01*
X145295952Y-99060000D01*
X145343571Y-99107619D01*
X145391190Y-99202857D01*
X145391190Y-99583809D01*
X145343571Y-98583809D02*
X145343571Y-98250476D01*
X145867380Y-98107619D02*
X145867380Y-98583809D01*
X144867380Y-98583809D01*
X144867380Y-98107619D01*
X144867380Y-97774285D02*
X144867380Y-97155238D01*
X145248333Y-97488571D01*
X145248333Y-97345714D01*
X145295952Y-97250476D01*
X145343571Y-97202857D01*
X145438809Y-97155238D01*
X145676904Y-97155238D01*
X145772142Y-97202857D01*
X145819761Y-97250476D01*
X145867380Y-97345714D01*
X145867380Y-97631428D01*
X145819761Y-97726666D01*
X145772142Y-97774285D01*
X145343571Y-121538809D02*
X145343571Y-121872142D01*
X145867380Y-121872142D02*
X144867380Y-121872142D01*
X144867380Y-121395952D01*
X145867380Y-121015000D02*
X144867380Y-121015000D01*
X145867380Y-119967380D02*
X145391190Y-120300714D01*
X145867380Y-120538809D02*
X144867380Y-120538809D01*
X144867380Y-120157857D01*
X144915000Y-120062619D01*
X144962619Y-120015000D01*
X145057857Y-119967380D01*
X145200714Y-119967380D01*
X145295952Y-120015000D01*
X145343571Y-120062619D01*
X145391190Y-120157857D01*
X145391190Y-120538809D01*
X145343571Y-119538809D02*
X145343571Y-119205476D01*
X145867380Y-119062619D02*
X145867380Y-119538809D01*
X144867380Y-119538809D01*
X144867380Y-119062619D01*
X144962619Y-118681666D02*
X144915000Y-118634047D01*
X144867380Y-118538809D01*
X144867380Y-118300714D01*
X144915000Y-118205476D01*
X144962619Y-118157857D01*
X145057857Y-118110238D01*
X145153095Y-118110238D01*
X145295952Y-118157857D01*
X145867380Y-118729285D01*
X145867380Y-118110238D01*
X145343571Y-142493809D02*
X145343571Y-142827142D01*
X145867380Y-142827142D02*
X144867380Y-142827142D01*
X144867380Y-142350952D01*
X145867380Y-141970000D02*
X144867380Y-141970000D01*
X145867380Y-140922380D02*
X145391190Y-141255714D01*
X145867380Y-141493809D02*
X144867380Y-141493809D01*
X144867380Y-141112857D01*
X144915000Y-141017619D01*
X144962619Y-140970000D01*
X145057857Y-140922380D01*
X145200714Y-140922380D01*
X145295952Y-140970000D01*
X145343571Y-141017619D01*
X145391190Y-141112857D01*
X145391190Y-141493809D01*
X145343571Y-140493809D02*
X145343571Y-140160476D01*
X145867380Y-140017619D02*
X145867380Y-140493809D01*
X144867380Y-140493809D01*
X144867380Y-140017619D01*
X145867380Y-139065238D02*
X145867380Y-139636666D01*
X145867380Y-139350952D02*
X144867380Y-139350952D01*
X145010238Y-139446190D01*
X145105476Y-139541428D01*
X145153095Y-139636666D01*
D11*
X159702619Y-84143809D02*
X159816904Y-84181904D01*
X160007380Y-84181904D01*
X160083571Y-84143809D01*
X160121666Y-84105714D01*
X160159761Y-84029523D01*
X160159761Y-83953333D01*
X160121666Y-83877142D01*
X160083571Y-83839047D01*
X160007380Y-83800952D01*
X159855000Y-83762857D01*
X159778809Y-83724761D01*
X159740714Y-83686666D01*
X159702619Y-83610476D01*
X159702619Y-83534285D01*
X159740714Y-83458095D01*
X159778809Y-83420000D01*
X159855000Y-83381904D01*
X160045476Y-83381904D01*
X160159761Y-83420000D01*
X160655000Y-83800952D02*
X160655000Y-84181904D01*
X160388333Y-83381904D02*
X160655000Y-83800952D01*
X160921666Y-83381904D01*
X161150238Y-84143809D02*
X161264523Y-84181904D01*
X161455000Y-84181904D01*
X161531190Y-84143809D01*
X161569285Y-84105714D01*
X161607380Y-84029523D01*
X161607380Y-83953333D01*
X161569285Y-83877142D01*
X161531190Y-83839047D01*
X161455000Y-83800952D01*
X161302619Y-83762857D01*
X161226428Y-83724761D01*
X161188333Y-83686666D01*
X161150238Y-83610476D01*
X161150238Y-83534285D01*
X161188333Y-83458095D01*
X161226428Y-83420000D01*
X161302619Y-83381904D01*
X161493095Y-83381904D01*
X161607380Y-83420000D01*
X151968333Y-84181904D02*
X151968333Y-83381904D01*
X152273095Y-83381904D01*
X152349285Y-83420000D01*
X152387380Y-83458095D01*
X152425476Y-83534285D01*
X152425476Y-83648571D01*
X152387380Y-83724761D01*
X152349285Y-83762857D01*
X152273095Y-83800952D01*
X151968333Y-83800952D01*
X152692142Y-83381904D02*
X152882619Y-84181904D01*
X153035000Y-83610476D01*
X153187380Y-84181904D01*
X153377857Y-83381904D01*
X154139761Y-84181904D02*
X153873095Y-83800952D01*
X153682619Y-84181904D02*
X153682619Y-83381904D01*
X153987380Y-83381904D01*
X154063571Y-83420000D01*
X154101666Y-83458095D01*
X154139761Y-83534285D01*
X154139761Y-83648571D01*
X154101666Y-83724761D01*
X154063571Y-83762857D01*
X153987380Y-83800952D01*
X153682619Y-83800952D01*
M02*
