G04 #@! TF.GenerationSoftware,KiCad,Pcbnew,(5.1.5)-3*
G04 #@! TF.CreationDate,2020-12-17T01:43:45+01:00*
G04 #@! TF.ProjectId,C64 Joykey Faceplate,43363420-4a6f-4796-9b65-792046616365,rev?*
G04 #@! TF.SameCoordinates,Original*
G04 #@! TF.FileFunction,Soldermask,Bot*
G04 #@! TF.FilePolarity,Negative*
%FSLAX46Y46*%
G04 Gerber Fmt 4.6, Leading zero omitted, Abs format (unit mm)*
G04 Created by KiCad (PCBNEW (5.1.5)-3) date 2020-12-17 01:43:45*
%MOMM*%
%LPD*%
G04 APERTURE LIST*
%ADD10C,2.500000*%
%ADD11C,0.100000*%
G04 APERTURE END LIST*
D10*
X161925000Y-85725000D02*
G75*
G03X161925000Y-85725000I-1270000J0D01*
G01*
X154305000Y-85725000D02*
G75*
G03X154305000Y-85725000I-1270000J0D01*
G01*
D11*
G36*
X237987480Y-151803998D02*
G01*
X238233807Y-151852995D01*
X238697878Y-152045220D01*
X239115530Y-152324286D01*
X239470714Y-152679470D01*
X239749780Y-153097122D01*
X239942005Y-153561193D01*
X240040000Y-154053847D01*
X240040000Y-154556153D01*
X239942005Y-155048807D01*
X239749780Y-155512878D01*
X239470714Y-155930530D01*
X239115530Y-156285714D01*
X238697878Y-156564780D01*
X238233807Y-156757005D01*
X237987480Y-156806003D01*
X237741154Y-156855000D01*
X237238846Y-156855000D01*
X236992520Y-156806003D01*
X236746193Y-156757005D01*
X236282122Y-156564780D01*
X235864470Y-156285714D01*
X235509286Y-155930530D01*
X235230220Y-155512878D01*
X235037995Y-155048807D01*
X234940000Y-154556153D01*
X234940000Y-154053847D01*
X235037995Y-153561193D01*
X235230220Y-153097122D01*
X235509286Y-152679470D01*
X235864470Y-152324286D01*
X236282122Y-152045220D01*
X236746193Y-151852995D01*
X236992520Y-151803998D01*
X237238846Y-151755000D01*
X237741154Y-151755000D01*
X237987480Y-151803998D01*
G37*
G36*
X144642480Y-151803998D02*
G01*
X144888807Y-151852995D01*
X145352878Y-152045220D01*
X145770530Y-152324286D01*
X146125714Y-152679470D01*
X146404780Y-153097122D01*
X146597005Y-153561193D01*
X146695000Y-154053847D01*
X146695000Y-154556153D01*
X146597005Y-155048807D01*
X146404780Y-155512878D01*
X146125714Y-155930530D01*
X145770530Y-156285714D01*
X145352878Y-156564780D01*
X144888807Y-156757005D01*
X144642480Y-156806003D01*
X144396154Y-156855000D01*
X143893846Y-156855000D01*
X143647520Y-156806003D01*
X143401193Y-156757005D01*
X142937122Y-156564780D01*
X142519470Y-156285714D01*
X142164286Y-155930530D01*
X141885220Y-155512878D01*
X141692995Y-155048807D01*
X141595000Y-154556153D01*
X141595000Y-154053847D01*
X141692995Y-153561193D01*
X141885220Y-153097122D01*
X142164286Y-152679470D01*
X142519470Y-152324286D01*
X142937122Y-152045220D01*
X143401193Y-151852995D01*
X143647520Y-151803998D01*
X143893846Y-151755000D01*
X144396154Y-151755000D01*
X144642480Y-151803998D01*
G37*
G36*
X237987480Y-83223998D02*
G01*
X238233807Y-83272995D01*
X238697878Y-83465220D01*
X239115530Y-83744286D01*
X239470714Y-84099470D01*
X239749780Y-84517122D01*
X239942005Y-84981193D01*
X240040000Y-85473847D01*
X240040000Y-85976153D01*
X239942005Y-86468807D01*
X239749780Y-86932878D01*
X239470714Y-87350530D01*
X239115530Y-87705714D01*
X238697878Y-87984780D01*
X238233807Y-88177005D01*
X237987480Y-88226002D01*
X237741154Y-88275000D01*
X237238846Y-88275000D01*
X236992520Y-88226003D01*
X236746193Y-88177005D01*
X236282122Y-87984780D01*
X235864470Y-87705714D01*
X235509286Y-87350530D01*
X235230220Y-86932878D01*
X235037995Y-86468807D01*
X234940000Y-85976153D01*
X234940000Y-85473847D01*
X235037995Y-84981193D01*
X235230220Y-84517122D01*
X235509286Y-84099470D01*
X235864470Y-83744286D01*
X236282122Y-83465220D01*
X236746193Y-83272995D01*
X236992520Y-83223998D01*
X237238846Y-83175000D01*
X237741154Y-83175000D01*
X237987480Y-83223998D01*
G37*
G36*
X144642480Y-83223998D02*
G01*
X144888807Y-83272995D01*
X145352878Y-83465220D01*
X145770530Y-83744286D01*
X146125714Y-84099470D01*
X146404780Y-84517122D01*
X146597005Y-84981193D01*
X146695000Y-85473847D01*
X146695000Y-85976153D01*
X146597005Y-86468807D01*
X146404780Y-86932878D01*
X146125714Y-87350530D01*
X145770530Y-87705714D01*
X145352878Y-87984780D01*
X144888807Y-88177005D01*
X144642480Y-88226002D01*
X144396154Y-88275000D01*
X143893846Y-88275000D01*
X143647520Y-88226003D01*
X143401193Y-88177005D01*
X142937122Y-87984780D01*
X142519470Y-87705714D01*
X142164286Y-87350530D01*
X141885220Y-86932878D01*
X141692995Y-86468807D01*
X141595000Y-85976153D01*
X141595000Y-85473847D01*
X141692995Y-84981193D01*
X141885220Y-84517122D01*
X142164286Y-84099470D01*
X142519470Y-83744286D01*
X142937122Y-83465220D01*
X143401193Y-83272995D01*
X143647520Y-83223998D01*
X143893846Y-83175000D01*
X144396154Y-83175000D01*
X144642480Y-83223998D01*
G37*
M02*
