G04 #@! TF.GenerationSoftware,KiCad,Pcbnew,(5.1.5)-3*
G04 #@! TF.CreationDate,2020-12-10T23:53:19+01:00*
G04 #@! TF.ProjectId,SMS Adapter,534d5320-4164-4617-9074-65722e6b6963,rev?*
G04 #@! TF.SameCoordinates,Original*
G04 #@! TF.FileFunction,Copper,L1,Top*
G04 #@! TF.FilePolarity,Positive*
%FSLAX46Y46*%
G04 Gerber Fmt 4.6, Leading zero omitted, Abs format (unit mm)*
G04 Created by KiCad (PCBNEW (5.1.5)-3) date 2020-12-10 23:53:19*
%MOMM*%
%LPD*%
G04 APERTURE LIST*
%ADD10R,1.700000X1.700000*%
%ADD11O,1.700000X1.700000*%
%ADD12O,1.727200X1.727200*%
%ADD13R,1.727200X1.727200*%
%ADD14R,1.700000X6.000000*%
%ADD15C,0.800000*%
%ADD16C,0.250000*%
G04 APERTURE END LIST*
D10*
X154940000Y-85725000D03*
D11*
X154940000Y-88265000D03*
X154940000Y-90805000D03*
D12*
X147320000Y-86995000D03*
X144780000Y-86995000D03*
X142240000Y-86995000D03*
X139700000Y-86995000D03*
X137160000Y-86995000D03*
X147320000Y-89535000D03*
X144780000Y-89535000D03*
X142240000Y-89535000D03*
X139700000Y-89535000D03*
D13*
X137160000Y-89535000D03*
D14*
X136684500Y-78168500D03*
X139454500Y-78168500D03*
X142224500Y-78168500D03*
X144994500Y-78168500D03*
X147764500Y-78168500D03*
D11*
X129540000Y-90805000D03*
X129540000Y-88265000D03*
D10*
X129540000Y-85725000D03*
D15*
X134620000Y-80645000D03*
X146379500Y-82879500D03*
X133350000Y-85725000D03*
D16*
X136684500Y-81418500D02*
X135255000Y-82848000D01*
X136684500Y-78168500D02*
X136684500Y-81418500D01*
X135255000Y-88900000D02*
X135890000Y-89535000D01*
X135255000Y-82848000D02*
X135255000Y-88900000D01*
X135890000Y-89535000D02*
X137160000Y-89535000D01*
X138430000Y-88265000D02*
X139700000Y-89535000D01*
X138430000Y-85725000D02*
X138430000Y-88265000D01*
X139454500Y-84700500D02*
X138430000Y-85725000D01*
X139454500Y-78168500D02*
X139454500Y-84700500D01*
X140970000Y-88265000D02*
X142240000Y-89535000D01*
X140970000Y-85725000D02*
X140970000Y-88265000D01*
X142224500Y-78168500D02*
X142224500Y-84470500D01*
X142224500Y-84470500D02*
X140970000Y-85725000D01*
X144994500Y-78168500D02*
X144994500Y-84669500D01*
X144994500Y-84669500D02*
X146050000Y-85725000D01*
X146050000Y-88265000D02*
X144780000Y-89535000D01*
X146050000Y-85725000D02*
X146050000Y-88265000D01*
X132080000Y-88265000D02*
X129540000Y-88265000D01*
X133985000Y-88265000D02*
X132080000Y-88265000D01*
X134620000Y-80645000D02*
X134620000Y-87630000D01*
X134620000Y-87630000D02*
X133985000Y-88265000D01*
X155575000Y-88265000D02*
X154940000Y-88265000D01*
X147320000Y-83820000D02*
X155575000Y-83820000D01*
X146379500Y-82879500D02*
X147320000Y-83820000D01*
X156210000Y-84455000D02*
X156210000Y-87630000D01*
X155575000Y-83820000D02*
X156210000Y-84455000D01*
X156210000Y-87630000D02*
X155575000Y-88265000D01*
X128905000Y-85725000D02*
X128270000Y-86360000D01*
X129540000Y-85725000D02*
X128905000Y-85725000D01*
X128270000Y-86360000D02*
X128270000Y-92075000D01*
X128270000Y-92075000D02*
X128905000Y-92710000D01*
X133350000Y-85725000D02*
X129540000Y-85725000D01*
X128905000Y-92710000D02*
X154305000Y-92710000D01*
X154305000Y-92710000D02*
X154940000Y-92075000D01*
X154940000Y-92075000D02*
X154940000Y-90805000D01*
X132012081Y-92075000D02*
X142240000Y-92075000D01*
X129540000Y-90805000D02*
X130742081Y-90805000D01*
X130742081Y-90805000D02*
X132012081Y-92075000D01*
X142240000Y-92075000D02*
X142875000Y-92075000D01*
X153670000Y-85725000D02*
X153035000Y-86360000D01*
X154940000Y-85725000D02*
X153670000Y-85725000D01*
X153035000Y-86360000D02*
X153035000Y-91440000D01*
X153035000Y-91440000D02*
X152400000Y-92075000D01*
X147320000Y-92075000D02*
X142875000Y-92075000D01*
X152400000Y-92075000D02*
X147320000Y-92075000D01*
X143510000Y-90805000D02*
X143510000Y-88265000D01*
X143510000Y-88265000D02*
X144780000Y-86995000D01*
X142875000Y-91440000D02*
X143510000Y-90805000D01*
X142875000Y-91440000D02*
X142240000Y-92075000D01*
M02*
