G04 #@! TF.GenerationSoftware,KiCad,Pcbnew,(5.1.8)-1*
G04 #@! TF.CreationDate,2021-01-07T01:45:05+01:00*
G04 #@! TF.ProjectId,SMS Adapter,534d5320-4164-4617-9074-65722e6b6963,rev?*
G04 #@! TF.SameCoordinates,Original*
G04 #@! TF.FileFunction,Legend,Top*
G04 #@! TF.FilePolarity,Positive*
%FSLAX46Y46*%
G04 Gerber Fmt 4.6, Leading zero omitted, Abs format (unit mm)*
G04 Created by KiCad (PCBNEW (5.1.8)-1) date 2021-01-07 01:45:05*
%MOMM*%
%LPD*%
G01*
G04 APERTURE LIST*
%ADD10C,0.100000*%
%ADD11C,0.120000*%
%ADD12C,0.150000*%
G04 APERTURE END LIST*
D10*
X128320952Y-83762857D02*
X128054285Y-83762857D01*
X128054285Y-84181904D02*
X128054285Y-83381904D01*
X128435238Y-83381904D01*
X128740000Y-84181904D02*
X128740000Y-83381904D01*
X129578095Y-84181904D02*
X129311428Y-83800952D01*
X129120952Y-84181904D02*
X129120952Y-83381904D01*
X129425714Y-83381904D01*
X129501904Y-83420000D01*
X129540000Y-83458095D01*
X129578095Y-83534285D01*
X129578095Y-83648571D01*
X129540000Y-83724761D01*
X129501904Y-83762857D01*
X129425714Y-83800952D01*
X129120952Y-83800952D01*
X129920952Y-83762857D02*
X130187619Y-83762857D01*
X130301904Y-84181904D02*
X129920952Y-84181904D01*
X129920952Y-83381904D01*
X130301904Y-83381904D01*
X131063809Y-84181904D02*
X130606666Y-84181904D01*
X130835238Y-84181904D02*
X130835238Y-83381904D01*
X130759047Y-83496190D01*
X130682857Y-83572380D01*
X130606666Y-83610476D01*
X153720952Y-83762857D02*
X153454285Y-83762857D01*
X153454285Y-84181904D02*
X153454285Y-83381904D01*
X153835238Y-83381904D01*
X154140000Y-84181904D02*
X154140000Y-83381904D01*
X154978095Y-84181904D02*
X154711428Y-83800952D01*
X154520952Y-84181904D02*
X154520952Y-83381904D01*
X154825714Y-83381904D01*
X154901904Y-83420000D01*
X154940000Y-83458095D01*
X154978095Y-83534285D01*
X154978095Y-83648571D01*
X154940000Y-83724761D01*
X154901904Y-83762857D01*
X154825714Y-83800952D01*
X154520952Y-83800952D01*
X155320952Y-83762857D02*
X155587619Y-83762857D01*
X155701904Y-84181904D02*
X155320952Y-84181904D01*
X155320952Y-83381904D01*
X155701904Y-83381904D01*
X156006666Y-83458095D02*
X156044761Y-83420000D01*
X156120952Y-83381904D01*
X156311428Y-83381904D01*
X156387619Y-83420000D01*
X156425714Y-83458095D01*
X156463809Y-83534285D01*
X156463809Y-83610476D01*
X156425714Y-83724761D01*
X155968571Y-84181904D01*
X156463809Y-84181904D01*
X135073333Y-82002380D02*
X135073333Y-82716666D01*
X135025714Y-82859523D01*
X134930476Y-82954761D01*
X134787619Y-83002380D01*
X134692380Y-83002380D01*
X135692380Y-83002380D02*
X135597142Y-82954761D01*
X135549523Y-82907142D01*
X135501904Y-82811904D01*
X135501904Y-82526190D01*
X135549523Y-82430952D01*
X135597142Y-82383333D01*
X135692380Y-82335714D01*
X135835238Y-82335714D01*
X135930476Y-82383333D01*
X135978095Y-82430952D01*
X136025714Y-82526190D01*
X136025714Y-82811904D01*
X135978095Y-82907142D01*
X135930476Y-82954761D01*
X135835238Y-83002380D01*
X135692380Y-83002380D01*
X136359047Y-82335714D02*
X136597142Y-83002380D01*
X136835238Y-82335714D02*
X136597142Y-83002380D01*
X136501904Y-83240476D01*
X136454285Y-83288095D01*
X136359047Y-83335714D01*
X137216190Y-83002380D02*
X137216190Y-82002380D01*
X137787619Y-83002380D02*
X137359047Y-82430952D01*
X137787619Y-82002380D02*
X137216190Y-82573809D01*
X138216190Y-82478571D02*
X138549523Y-82478571D01*
X138692380Y-83002380D02*
X138216190Y-83002380D01*
X138216190Y-82002380D01*
X138692380Y-82002380D01*
X139311428Y-82526190D02*
X139311428Y-83002380D01*
X138978095Y-82002380D02*
X139311428Y-82526190D01*
X139644761Y-82002380D01*
X140692380Y-82954761D02*
X140835238Y-83002380D01*
X141073333Y-83002380D01*
X141168571Y-82954761D01*
X141216190Y-82907142D01*
X141263809Y-82811904D01*
X141263809Y-82716666D01*
X141216190Y-82621428D01*
X141168571Y-82573809D01*
X141073333Y-82526190D01*
X140882857Y-82478571D01*
X140787619Y-82430952D01*
X140740000Y-82383333D01*
X140692380Y-82288095D01*
X140692380Y-82192857D01*
X140740000Y-82097619D01*
X140787619Y-82050000D01*
X140882857Y-82002380D01*
X141120952Y-82002380D01*
X141263809Y-82050000D01*
X141692380Y-83002380D02*
X141692380Y-82002380D01*
X142025714Y-82716666D01*
X142359047Y-82002380D01*
X142359047Y-83002380D01*
X142787619Y-82954761D02*
X142930476Y-83002380D01*
X143168571Y-83002380D01*
X143263809Y-82954761D01*
X143311428Y-82907142D01*
X143359047Y-82811904D01*
X143359047Y-82716666D01*
X143311428Y-82621428D01*
X143263809Y-82573809D01*
X143168571Y-82526190D01*
X142978095Y-82478571D01*
X142882857Y-82430952D01*
X142835238Y-82383333D01*
X142787619Y-82288095D01*
X142787619Y-82192857D01*
X142835238Y-82097619D01*
X142882857Y-82050000D01*
X142978095Y-82002380D01*
X143216190Y-82002380D01*
X143359047Y-82050000D01*
X144501904Y-82716666D02*
X144978095Y-82716666D01*
X144406666Y-83002380D02*
X144740000Y-82002380D01*
X145073333Y-83002380D01*
X145835238Y-83002380D02*
X145835238Y-82002380D01*
X145835238Y-82954761D02*
X145740000Y-83002380D01*
X145549523Y-83002380D01*
X145454285Y-82954761D01*
X145406666Y-82907142D01*
X145359047Y-82811904D01*
X145359047Y-82526190D01*
X145406666Y-82430952D01*
X145454285Y-82383333D01*
X145549523Y-82335714D01*
X145740000Y-82335714D01*
X145835238Y-82383333D01*
X146740000Y-83002380D02*
X146740000Y-82478571D01*
X146692380Y-82383333D01*
X146597142Y-82335714D01*
X146406666Y-82335714D01*
X146311428Y-82383333D01*
X146740000Y-82954761D02*
X146644761Y-83002380D01*
X146406666Y-83002380D01*
X146311428Y-82954761D01*
X146263809Y-82859523D01*
X146263809Y-82764285D01*
X146311428Y-82669047D01*
X146406666Y-82621428D01*
X146644761Y-82621428D01*
X146740000Y-82573809D01*
X147216190Y-82335714D02*
X147216190Y-83335714D01*
X147216190Y-82383333D02*
X147311428Y-82335714D01*
X147501904Y-82335714D01*
X147597142Y-82383333D01*
X147644761Y-82430952D01*
X147692380Y-82526190D01*
X147692380Y-82811904D01*
X147644761Y-82907142D01*
X147597142Y-82954761D01*
X147501904Y-83002380D01*
X147311428Y-83002380D01*
X147216190Y-82954761D01*
X147978095Y-82335714D02*
X148359047Y-82335714D01*
X148120952Y-82002380D02*
X148120952Y-82859523D01*
X148168571Y-82954761D01*
X148263809Y-83002380D01*
X148359047Y-83002380D01*
X149073333Y-82954761D02*
X148978095Y-83002380D01*
X148787619Y-83002380D01*
X148692380Y-82954761D01*
X148644761Y-82859523D01*
X148644761Y-82478571D01*
X148692380Y-82383333D01*
X148787619Y-82335714D01*
X148978095Y-82335714D01*
X149073333Y-82383333D01*
X149120952Y-82478571D01*
X149120952Y-82573809D01*
X148644761Y-82669047D01*
X149549523Y-83002380D02*
X149549523Y-82335714D01*
X149549523Y-82526190D02*
X149597142Y-82430952D01*
X149644761Y-82383333D01*
X149740000Y-82335714D01*
X149835238Y-82335714D01*
D11*
X136965500Y-81768438D02*
X136465500Y-81768438D01*
X136465500Y-81768438D02*
X136715500Y-81335425D01*
X136715500Y-81335425D02*
X136965500Y-81768438D01*
X153610000Y-92135000D02*
X156270000Y-92135000D01*
X153610000Y-86995000D02*
X153610000Y-92135000D01*
X156270000Y-86995000D02*
X156270000Y-92135000D01*
X153610000Y-86995000D02*
X156270000Y-86995000D01*
X153610000Y-85725000D02*
X153610000Y-84395000D01*
X153610000Y-84395000D02*
X154940000Y-84395000D01*
X137473500Y-91420438D02*
X136973500Y-91420438D01*
X136973500Y-91420438D02*
X137223500Y-90987425D01*
X137223500Y-90987425D02*
X137473500Y-91420438D01*
X131560000Y-93190000D02*
X131560000Y-90650000D01*
X131560000Y-93190000D02*
X134100000Y-93190000D01*
X131810000Y-92940000D02*
X131810000Y-83590000D01*
X152670000Y-92940000D02*
X131810000Y-92940000D01*
X152670000Y-83590000D02*
X152670000Y-92940000D01*
X131810000Y-83590000D02*
X152670000Y-83590000D01*
D10*
X152420000Y-92690000D02*
X151860000Y-92140000D01*
X132060000Y-92690000D02*
X132600000Y-92140000D01*
X152420000Y-83840000D02*
X151860000Y-84390000D01*
X132060000Y-83840000D02*
X132600000Y-84390000D01*
X151860000Y-84390000D02*
X151860000Y-92140000D01*
X152420000Y-83840000D02*
X152420000Y-92690000D01*
X132600000Y-84390000D02*
X132600000Y-92140000D01*
X132060000Y-83840000D02*
X132060000Y-92690000D01*
X144490000Y-92140000D02*
X144490000Y-92690000D01*
X139990000Y-92140000D02*
X139990000Y-92690000D01*
X144490000Y-92140000D02*
X151860000Y-92140000D01*
X132600000Y-92140000D02*
X139990000Y-92140000D01*
X132060000Y-92690000D02*
X152420000Y-92690000D01*
X132600000Y-84390000D02*
X151860000Y-84390000D01*
X132060000Y-83840000D02*
X152420000Y-83840000D01*
D11*
X128210000Y-84395000D02*
X129540000Y-84395000D01*
X128210000Y-85725000D02*
X128210000Y-84395000D01*
X128210000Y-86995000D02*
X130870000Y-86995000D01*
X130870000Y-86995000D02*
X130870000Y-92135000D01*
X128210000Y-86995000D02*
X128210000Y-92135000D01*
X128210000Y-92135000D02*
X130870000Y-92135000D01*
D12*
X141906666Y-73112380D02*
X141906666Y-73826666D01*
X141859047Y-73969523D01*
X141763809Y-74064761D01*
X141620952Y-74112380D01*
X141525714Y-74112380D01*
X142335238Y-73207619D02*
X142382857Y-73160000D01*
X142478095Y-73112380D01*
X142716190Y-73112380D01*
X142811428Y-73160000D01*
X142859047Y-73207619D01*
X142906666Y-73302857D01*
X142906666Y-73398095D01*
X142859047Y-73540952D01*
X142287619Y-74112380D01*
X142906666Y-74112380D01*
D10*
X154273333Y-92271904D02*
X154273333Y-92843333D01*
X154235238Y-92957619D01*
X154159047Y-93033809D01*
X154044761Y-93071904D01*
X153968571Y-93071904D01*
X154654285Y-93071904D02*
X154654285Y-92271904D01*
X154959047Y-92271904D01*
X155035238Y-92310000D01*
X155073333Y-92348095D01*
X155111428Y-92424285D01*
X155111428Y-92538571D01*
X155073333Y-92614761D01*
X155035238Y-92652857D01*
X154959047Y-92690952D01*
X154654285Y-92690952D01*
X155416190Y-92348095D02*
X155454285Y-92310000D01*
X155530476Y-92271904D01*
X155720952Y-92271904D01*
X155797142Y-92310000D01*
X155835238Y-92348095D01*
X155873333Y-92424285D01*
X155873333Y-92500476D01*
X155835238Y-92614761D01*
X155378095Y-93071904D01*
X155873333Y-93071904D01*
X152349523Y-93922857D02*
X152082857Y-93922857D01*
X152082857Y-94341904D02*
X152082857Y-93541904D01*
X152463809Y-93541904D01*
X152768571Y-94341904D02*
X152768571Y-93541904D01*
X153606666Y-94341904D02*
X153340000Y-93960952D01*
X153149523Y-94341904D02*
X153149523Y-93541904D01*
X153454285Y-93541904D01*
X153530476Y-93580000D01*
X153568571Y-93618095D01*
X153606666Y-93694285D01*
X153606666Y-93808571D01*
X153568571Y-93884761D01*
X153530476Y-93922857D01*
X153454285Y-93960952D01*
X153149523Y-93960952D01*
X153949523Y-93922857D02*
X154216190Y-93922857D01*
X154330476Y-94341904D02*
X153949523Y-94341904D01*
X153949523Y-93541904D01*
X154330476Y-93541904D01*
X154635238Y-93618095D02*
X154673333Y-93580000D01*
X154749523Y-93541904D01*
X154940000Y-93541904D01*
X155016190Y-93580000D01*
X155054285Y-93618095D01*
X155092380Y-93694285D01*
X155092380Y-93770476D01*
X155054285Y-93884761D01*
X154597142Y-94341904D01*
X155092380Y-94341904D01*
X155244761Y-94418095D02*
X155854285Y-94418095D01*
X156006666Y-94303809D02*
X156120952Y-94341904D01*
X156311428Y-94341904D01*
X156387619Y-94303809D01*
X156425714Y-94265714D01*
X156463809Y-94189523D01*
X156463809Y-94113333D01*
X156425714Y-94037142D01*
X156387619Y-93999047D01*
X156311428Y-93960952D01*
X156159047Y-93922857D01*
X156082857Y-93884761D01*
X156044761Y-93846666D01*
X156006666Y-93770476D01*
X156006666Y-93694285D01*
X156044761Y-93618095D01*
X156082857Y-93580000D01*
X156159047Y-93541904D01*
X156349523Y-93541904D01*
X156463809Y-93580000D01*
X156806666Y-93922857D02*
X157073333Y-93922857D01*
X157187619Y-94341904D02*
X156806666Y-94341904D01*
X156806666Y-93541904D01*
X157187619Y-93541904D01*
X157911428Y-94341904D02*
X157530476Y-94341904D01*
X157530476Y-93541904D01*
X133083333Y-84651904D02*
X133083333Y-85223333D01*
X133045238Y-85337619D01*
X132969047Y-85413809D01*
X132854761Y-85451904D01*
X132778571Y-85451904D01*
X133883333Y-85451904D02*
X133426190Y-85451904D01*
X133654761Y-85451904D02*
X133654761Y-84651904D01*
X133578571Y-84766190D01*
X133502380Y-84842380D01*
X133426190Y-84880476D01*
X128873333Y-92271904D02*
X128873333Y-92843333D01*
X128835238Y-92957619D01*
X128759047Y-93033809D01*
X128644761Y-93071904D01*
X128568571Y-93071904D01*
X129254285Y-93071904D02*
X129254285Y-92271904D01*
X129559047Y-92271904D01*
X129635238Y-92310000D01*
X129673333Y-92348095D01*
X129711428Y-92424285D01*
X129711428Y-92538571D01*
X129673333Y-92614761D01*
X129635238Y-92652857D01*
X129559047Y-92690952D01*
X129254285Y-92690952D01*
X130473333Y-93071904D02*
X130016190Y-93071904D01*
X130244761Y-93071904D02*
X130244761Y-92271904D01*
X130168571Y-92386190D01*
X130092380Y-92462380D01*
X130016190Y-92500476D01*
X126949523Y-93922857D02*
X126682857Y-93922857D01*
X126682857Y-94341904D02*
X126682857Y-93541904D01*
X127063809Y-93541904D01*
X127368571Y-94341904D02*
X127368571Y-93541904D01*
X128206666Y-94341904D02*
X127940000Y-93960952D01*
X127749523Y-94341904D02*
X127749523Y-93541904D01*
X128054285Y-93541904D01*
X128130476Y-93580000D01*
X128168571Y-93618095D01*
X128206666Y-93694285D01*
X128206666Y-93808571D01*
X128168571Y-93884761D01*
X128130476Y-93922857D01*
X128054285Y-93960952D01*
X127749523Y-93960952D01*
X128549523Y-93922857D02*
X128816190Y-93922857D01*
X128930476Y-94341904D02*
X128549523Y-94341904D01*
X128549523Y-93541904D01*
X128930476Y-93541904D01*
X129692380Y-94341904D02*
X129235238Y-94341904D01*
X129463809Y-94341904D02*
X129463809Y-93541904D01*
X129387619Y-93656190D01*
X129311428Y-93732380D01*
X129235238Y-93770476D01*
X129844761Y-94418095D02*
X130454285Y-94418095D01*
X130606666Y-94303809D02*
X130720952Y-94341904D01*
X130911428Y-94341904D01*
X130987619Y-94303809D01*
X131025714Y-94265714D01*
X131063809Y-94189523D01*
X131063809Y-94113333D01*
X131025714Y-94037142D01*
X130987619Y-93999047D01*
X130911428Y-93960952D01*
X130759047Y-93922857D01*
X130682857Y-93884761D01*
X130644761Y-93846666D01*
X130606666Y-93770476D01*
X130606666Y-93694285D01*
X130644761Y-93618095D01*
X130682857Y-93580000D01*
X130759047Y-93541904D01*
X130949523Y-93541904D01*
X131063809Y-93580000D01*
X131406666Y-93922857D02*
X131673333Y-93922857D01*
X131787619Y-94341904D02*
X131406666Y-94341904D01*
X131406666Y-93541904D01*
X131787619Y-93541904D01*
X132511428Y-94341904D02*
X132130476Y-94341904D01*
X132130476Y-93541904D01*
M02*
