M48
; DRILL file {KiCad 8.0.4} date 2024-10-17T01:26:54+0200
; FORMAT={-:-/ absolute / inch / decimal}
; #@! TF.CreationDate,2024-10-17T01:26:54+02:00
; #@! TF.GenerationSoftware,Kicad,Pcbnew,8.0.4
; #@! TF.FileFunction,NonPlated,1,2,NPTH
FMAT,2
INCH
; #@! TA.AperFunction,NonPlated,NPTH,ComponentDrill
T1C0.0669
; #@! TA.AperFunction,NonPlated,NPTH,ComponentDrill
T2C0.1575
%
G90
G05
T1
X5.975Y-3.9
X5.975Y-4.725
X5.975Y-5.55
X6.375Y-3.9
X6.375Y-4.725
X6.375Y-5.55
X7.0Y-5.55
X7.4Y-5.55
X7.825Y-4.725
X7.825Y-5.55
X8.225Y-4.725
X8.225Y-5.55
X8.65Y-5.55
X9.05Y-5.55
T2
X6.175Y-3.9
X6.175Y-4.725
X6.175Y-5.55
X7.2Y-5.55
X8.025Y-4.725
X8.025Y-5.55
X8.85Y-5.55
M30
