M48
INCH,TZ
T1C0.0157
T2C0.0295
T3C0.0315
T4C0.0354
T5C0.0394
T6C0.0400
T7C0.0433
T8C0.0591
T9C0.1200
%
G90
G05
T1
X60750Y-41750
X61439Y-43000
X61750Y-34715
X61750Y-36035
X62250Y-42250
X63750Y-41785
X65250Y-49750
X66000Y-41250
X66000Y-49750
X67250Y-43750
X67250Y-59000
X67500Y-58000
X68250Y-35750
X68661Y-39831
X69000Y-35750
X69000Y-39400
X69000Y-44250
X69400Y-41500
X69400Y-43250
X73000Y-35965
X73000Y-39000
X74465Y-46715
X74750Y-43500
X75500Y-59000
X75750Y-45965
X75750Y-46785
X75750Y-58000
X83250Y-36750
X83750Y-59000
X84000Y-58000
X85750Y-40000
X85750Y-43750
X86245Y-41535
X86250Y-45500
X86250Y-46750
X86750Y-40785
X86750Y-45500
X86750Y-47500
X87500Y-46285
X87750Y-41000
X87750Y-45500
X88250Y-41000
X88250Y-50750
X88750Y-39785
X88750Y-41000
X89250Y-40000
X89250Y-41000
X91500Y-35000
X93000Y-37750
X93000Y-40000
T2
X81500Y-42500
X82000Y-42500
X82500Y-42500
T3
X58000Y-35750
X58000Y-39750
X56500Y-35750
X56500Y-39750
X75750Y-41000
X79750Y-41000
X70750Y-47250
X73750Y-47250
X76500Y-45250
X76500Y-49250
X76500Y-53500
X76500Y-57500
X58000Y-45250
X58000Y-49250
X75750Y-39500
X79750Y-39500
X66750Y-47250
X69750Y-47250
X58000Y-53500
X58000Y-57500
X56500Y-45250
X56500Y-49250
X75750Y-42500
X79750Y-42500
X68250Y-53500
X68250Y-57500
X84750Y-53500
X84750Y-57500
T4
X61250Y-57500
X62250Y-57500
X79750Y-49250
X80750Y-49250
X60250Y-33250
X60250Y-34250
X61250Y-41000
X62250Y-41000
X71500Y-57500
X72500Y-57500
X79750Y-57500
X80750Y-57500
X88000Y-57500
X89000Y-57500
X63250Y-33250
X63250Y-34250
X61250Y-49250
X62250Y-49250
T5
X91750Y-46000
X91750Y-47000
X91750Y-48000
X91750Y-38000
X91750Y-39000
X91750Y-40000
X91750Y-50000
X91750Y-51000
X71500Y-49000
X71500Y-50000
X66750Y-34250
X66750Y-35250
X66750Y-36250
X66750Y-37250
X66750Y-38250
X66750Y-39250
X66750Y-40250
X66750Y-41250
X66750Y-42250
X66750Y-43250
X66750Y-44250
X66750Y-45250
X67750Y-34250
X67750Y-35250
X67750Y-36250
X67750Y-37250
X67750Y-38250
X67750Y-39250
X67750Y-40250
X67750Y-41250
X67750Y-42250
X67750Y-43250
X67750Y-44250
X67750Y-45250
X73750Y-34250
X73750Y-35250
X73750Y-36250
X73750Y-37250
X73750Y-38250
X73750Y-39250
X73750Y-40250
X73750Y-41250
X73750Y-42250
X73750Y-43250
X73750Y-44250
X73750Y-45250
X91750Y-42000
X91750Y-43000
X91750Y-44000
X73000Y-49000
X73000Y-50000
T6
X76750Y-34000
X76750Y-35000
X77750Y-34000
X77750Y-35000
X78750Y-34000
X78750Y-35000
X79750Y-34000
X79750Y-35000
X80750Y-34000
X80750Y-35000
X85750Y-34000
X85750Y-35000
X86750Y-34000
X86750Y-35000
X87750Y-34000
X87750Y-35000
X88750Y-34000
X88750Y-35000
X89750Y-34000
X89750Y-35000
T7
X75750Y-38000
X79750Y-38000
X67000Y-49000
X67000Y-50772
X69559Y-49000
X69559Y-50772
T8
X60250Y-46250
X62750Y-45250
X78750Y-54500
X81250Y-53500
X60250Y-38000
X62750Y-37000
X78750Y-46250
X81250Y-45250
X60250Y-54500
X62750Y-53500
X87000Y-54500
X89500Y-53500
X70500Y-54500
X73000Y-53500
T9
X93500Y-60750
X93500Y-33750
X56750Y-33750
X56750Y-60750
T0
M30
