G04 #@! TF.GenerationSoftware,KiCad,Pcbnew,(5.1.8)-1*
G04 #@! TF.CreationDate,2022-01-28T23:56:08+01:00*
G04 #@! TF.ProjectId,C64 Joykey,43363420-4a6f-4796-9b65-792e6b696361,rev?*
G04 #@! TF.SameCoordinates,Original*
G04 #@! TF.FileFunction,Legend,Bot*
G04 #@! TF.FilePolarity,Positive*
%FSLAX46Y46*%
G04 Gerber Fmt 4.6, Leading zero omitted, Abs format (unit mm)*
G04 Created by KiCad (PCBNEW (5.1.8)-1) date 2022-01-28 23:56:08*
%MOMM*%
%LPD*%
G01*
G04 APERTURE LIST*
%ADD10C,0.100000*%
%ADD11C,0.120000*%
%ADD12C,0.150000*%
G04 APERTURE END LIST*
D10*
X168192190Y-89541333D02*
X167811238Y-89541333D01*
X168268380Y-89769904D02*
X168001714Y-88969904D01*
X167735047Y-89769904D01*
X167011238Y-89769904D02*
X167277904Y-89388952D01*
X167468380Y-89769904D02*
X167468380Y-88969904D01*
X167163619Y-88969904D01*
X167087428Y-89008000D01*
X167049333Y-89046095D01*
X167011238Y-89122285D01*
X167011238Y-89236571D01*
X167049333Y-89312761D01*
X167087428Y-89350857D01*
X167163619Y-89388952D01*
X167468380Y-89388952D01*
X166668380Y-89769904D02*
X166668380Y-88969904D01*
X166477904Y-88969904D01*
X166363619Y-89008000D01*
X166287428Y-89084190D01*
X166249333Y-89160380D01*
X166211238Y-89312761D01*
X166211238Y-89427047D01*
X166249333Y-89579428D01*
X166287428Y-89655619D01*
X166363619Y-89731809D01*
X166477904Y-89769904D01*
X166668380Y-89769904D01*
X166058857Y-89846095D02*
X165449333Y-89846095D01*
X165258857Y-89350857D02*
X164992190Y-89350857D01*
X164877904Y-89769904D02*
X165258857Y-89769904D01*
X165258857Y-88969904D01*
X164877904Y-88969904D01*
X164535047Y-89769904D02*
X164535047Y-88969904D01*
X164077904Y-89769904D01*
X164077904Y-88969904D01*
D11*
X168021000Y-88646000D02*
X164211000Y-88646000D01*
X164211000Y-86995000D02*
X164211000Y-84455000D01*
X168021000Y-82804000D02*
X168021000Y-88646000D01*
X164211000Y-82804000D02*
X168021000Y-82804000D01*
X165481000Y-86995000D02*
X164211000Y-86995000D01*
X164211000Y-84455000D02*
X165481000Y-84455000D01*
X164211000Y-88646000D02*
X164211000Y-87630000D01*
X164211000Y-83820000D02*
X164211000Y-82804000D01*
D10*
X211067380Y-98621904D02*
X210800714Y-99421904D01*
X210534047Y-98621904D01*
X209810238Y-99345714D02*
X209848333Y-99383809D01*
X209962619Y-99421904D01*
X210038809Y-99421904D01*
X210153095Y-99383809D01*
X210229285Y-99307619D01*
X210267380Y-99231428D01*
X210305476Y-99079047D01*
X210305476Y-98964761D01*
X210267380Y-98812380D01*
X210229285Y-98736190D01*
X210153095Y-98660000D01*
X210038809Y-98621904D01*
X209962619Y-98621904D01*
X209848333Y-98660000D01*
X209810238Y-98698095D01*
X209010238Y-99345714D02*
X209048333Y-99383809D01*
X209162619Y-99421904D01*
X209238809Y-99421904D01*
X209353095Y-99383809D01*
X209429285Y-99307619D01*
X209467380Y-99231428D01*
X209505476Y-99079047D01*
X209505476Y-98964761D01*
X209467380Y-98812380D01*
X209429285Y-98736190D01*
X209353095Y-98660000D01*
X209238809Y-98621904D01*
X209162619Y-98621904D01*
X209048333Y-98660000D01*
X209010238Y-98698095D01*
X208857857Y-99498095D02*
X208248333Y-99498095D01*
X208057857Y-99002857D02*
X207791190Y-99002857D01*
X207676904Y-99421904D02*
X208057857Y-99421904D01*
X208057857Y-98621904D01*
X207676904Y-98621904D01*
X207334047Y-99421904D02*
X207334047Y-98621904D01*
X206876904Y-99421904D01*
X206876904Y-98621904D01*
D11*
X205740000Y-98425000D02*
X205740000Y-94615000D01*
X205740000Y-94615000D02*
X207010000Y-94615000D01*
X210820000Y-94615000D02*
X212090000Y-94615000D01*
X210185000Y-94615000D02*
X210185000Y-95885000D01*
X212090000Y-94615000D02*
X212090000Y-98425000D01*
X212090000Y-98425000D02*
X205740000Y-98425000D01*
X207645000Y-95885000D02*
X207645000Y-94615000D01*
X207645000Y-94615000D02*
X210185000Y-94615000D01*
X234950000Y-130810000D02*
X233045000Y-130810000D01*
X234950000Y-125730000D02*
X233045000Y-125730000D01*
D10*
X229812857Y-126250952D02*
X229812857Y-126517619D01*
X230231904Y-126631904D02*
X230231904Y-126250952D01*
X229431904Y-126250952D01*
X229431904Y-126631904D01*
X230231904Y-126974761D02*
X229431904Y-126974761D01*
X230231904Y-127431904D01*
X229431904Y-127431904D01*
X230003333Y-127774761D02*
X230003333Y-128155714D01*
X230231904Y-127698571D02*
X229431904Y-127965238D01*
X230231904Y-128231904D01*
X229812857Y-128765238D02*
X229850952Y-128879523D01*
X229889047Y-128917619D01*
X229965238Y-128955714D01*
X230079523Y-128955714D01*
X230155714Y-128917619D01*
X230193809Y-128879523D01*
X230231904Y-128803333D01*
X230231904Y-128498571D01*
X229431904Y-128498571D01*
X229431904Y-128765238D01*
X229470000Y-128841428D01*
X229508095Y-128879523D01*
X229584285Y-128917619D01*
X229660476Y-128917619D01*
X229736666Y-128879523D01*
X229774761Y-128841428D01*
X229812857Y-128765238D01*
X229812857Y-128498571D01*
X230231904Y-129679523D02*
X230231904Y-129298571D01*
X229431904Y-129298571D01*
X229812857Y-129946190D02*
X229812857Y-130212857D01*
X230231904Y-130327142D02*
X230231904Y-129946190D01*
X229431904Y-129946190D01*
X229431904Y-130327142D01*
X239106904Y-127355714D02*
X238306904Y-127355714D01*
X239106904Y-127812857D02*
X238649761Y-127470000D01*
X238306904Y-127812857D02*
X238764047Y-127355714D01*
X238687857Y-128155714D02*
X238687857Y-128422380D01*
X239106904Y-128536666D02*
X239106904Y-128155714D01*
X238306904Y-128155714D01*
X238306904Y-128536666D01*
X238725952Y-129031904D02*
X239106904Y-129031904D01*
X238306904Y-128765238D02*
X238725952Y-129031904D01*
X238306904Y-129298571D01*
X240406904Y-127755714D02*
X240406904Y-127374761D01*
X239606904Y-127374761D01*
X239987857Y-128022380D02*
X239987857Y-128289047D01*
X240406904Y-128403333D02*
X240406904Y-128022380D01*
X239606904Y-128022380D01*
X239606904Y-128403333D01*
X240406904Y-128746190D02*
X239606904Y-128746190D01*
X239606904Y-128936666D01*
X239645000Y-129050952D01*
X239721190Y-129127142D01*
X239797380Y-129165238D01*
X239949761Y-129203333D01*
X240064047Y-129203333D01*
X240216428Y-129165238D01*
X240292619Y-129127142D01*
X240368809Y-129050952D01*
X240406904Y-128936666D01*
X240406904Y-128746190D01*
D11*
X231140000Y-130810000D02*
X231140000Y-125730000D01*
X231775000Y-130810000D02*
X231140000Y-130810000D01*
X234950000Y-125730000D02*
X234950000Y-130810000D01*
X231140000Y-125730000D02*
X231775000Y-125730000D01*
D12*
X218167976Y-151552142D02*
X218215595Y-151599761D01*
X218358452Y-151647380D01*
X218453690Y-151647380D01*
X218596547Y-151599761D01*
X218691785Y-151504523D01*
X218739404Y-151409285D01*
X218787023Y-151218809D01*
X218787023Y-151075952D01*
X218739404Y-150885476D01*
X218691785Y-150790238D01*
X218596547Y-150695000D01*
X218453690Y-150647380D01*
X218358452Y-150647380D01*
X218215595Y-150695000D01*
X218167976Y-150742619D01*
X217310833Y-150647380D02*
X217501309Y-150647380D01*
X217596547Y-150695000D01*
X217644166Y-150742619D01*
X217739404Y-150885476D01*
X217787023Y-151075952D01*
X217787023Y-151456904D01*
X217739404Y-151552142D01*
X217691785Y-151599761D01*
X217596547Y-151647380D01*
X217406071Y-151647380D01*
X217310833Y-151599761D01*
X217263214Y-151552142D01*
X217215595Y-151456904D01*
X217215595Y-151218809D01*
X217263214Y-151123571D01*
X217310833Y-151075952D01*
X217406071Y-151028333D01*
X217596547Y-151028333D01*
X217691785Y-151075952D01*
X217739404Y-151123571D01*
X217787023Y-151218809D01*
X216358452Y-150980714D02*
X216358452Y-151647380D01*
X216596547Y-150599761D02*
X216834642Y-151314047D01*
X216215595Y-151314047D01*
X215548928Y-152028333D02*
X215596547Y-151980714D01*
X215691785Y-151837857D01*
X215739404Y-151742619D01*
X215787023Y-151599761D01*
X215834642Y-151361666D01*
X215834642Y-151171190D01*
X215787023Y-150933095D01*
X215739404Y-150790238D01*
X215691785Y-150695000D01*
X215596547Y-150552142D01*
X215548928Y-150504523D01*
X214834642Y-151123571D02*
X214691785Y-151171190D01*
X214644166Y-151218809D01*
X214596547Y-151314047D01*
X214596547Y-151456904D01*
X214644166Y-151552142D01*
X214691785Y-151599761D01*
X214787023Y-151647380D01*
X215167976Y-151647380D01*
X215167976Y-150647380D01*
X214834642Y-150647380D01*
X214739404Y-150695000D01*
X214691785Y-150742619D01*
X214644166Y-150837857D01*
X214644166Y-150933095D01*
X214691785Y-151028333D01*
X214739404Y-151075952D01*
X214834642Y-151123571D01*
X215167976Y-151123571D01*
X214263214Y-152028333D02*
X214215595Y-151980714D01*
X214120357Y-151837857D01*
X214072738Y-151742619D01*
X214025119Y-151599761D01*
X213977500Y-151361666D01*
X213977500Y-151171190D01*
X214025119Y-150933095D01*
X214072738Y-150790238D01*
X214120357Y-150695000D01*
X214215595Y-150552142D01*
X214263214Y-150504523D01*
X218739404Y-153297380D02*
X218739404Y-152297380D01*
X218358452Y-152297380D01*
X218263214Y-152345000D01*
X218215595Y-152392619D01*
X218167976Y-152487857D01*
X218167976Y-152630714D01*
X218215595Y-152725952D01*
X218263214Y-152773571D01*
X218358452Y-152821190D01*
X218739404Y-152821190D01*
X217787023Y-152392619D02*
X217739404Y-152345000D01*
X217644166Y-152297380D01*
X217406071Y-152297380D01*
X217310833Y-152345000D01*
X217263214Y-152392619D01*
X217215595Y-152487857D01*
X217215595Y-152583095D01*
X217263214Y-152725952D01*
X217834642Y-153297380D01*
X217215595Y-153297380D01*
X218882261Y-153947380D02*
X218548928Y-154947380D01*
X218215595Y-153947380D01*
X217310833Y-154852142D02*
X217358452Y-154899761D01*
X217501309Y-154947380D01*
X217596547Y-154947380D01*
X217739404Y-154899761D01*
X217834642Y-154804523D01*
X217882261Y-154709285D01*
X217929880Y-154518809D01*
X217929880Y-154375952D01*
X217882261Y-154185476D01*
X217834642Y-154090238D01*
X217739404Y-153995000D01*
X217596547Y-153947380D01*
X217501309Y-153947380D01*
X217358452Y-153995000D01*
X217310833Y-154042619D01*
X216310833Y-154852142D02*
X216358452Y-154899761D01*
X216501309Y-154947380D01*
X216596547Y-154947380D01*
X216739404Y-154899761D01*
X216834642Y-154804523D01*
X216882261Y-154709285D01*
X216929880Y-154518809D01*
X216929880Y-154375952D01*
X216882261Y-154185476D01*
X216834642Y-154090238D01*
X216739404Y-153995000D01*
X216596547Y-153947380D01*
X216501309Y-153947380D01*
X216358452Y-153995000D01*
X216310833Y-154042619D01*
X218882261Y-155597380D02*
X218548928Y-156597380D01*
X218215595Y-155597380D01*
X217310833Y-156502142D02*
X217358452Y-156549761D01*
X217501309Y-156597380D01*
X217596547Y-156597380D01*
X217739404Y-156549761D01*
X217834642Y-156454523D01*
X217882261Y-156359285D01*
X217929880Y-156168809D01*
X217929880Y-156025952D01*
X217882261Y-155835476D01*
X217834642Y-155740238D01*
X217739404Y-155645000D01*
X217596547Y-155597380D01*
X217501309Y-155597380D01*
X217358452Y-155645000D01*
X217310833Y-155692619D01*
X216310833Y-156502142D02*
X216358452Y-156549761D01*
X216501309Y-156597380D01*
X216596547Y-156597380D01*
X216739404Y-156549761D01*
X216834642Y-156454523D01*
X216882261Y-156359285D01*
X216929880Y-156168809D01*
X216929880Y-156025952D01*
X216882261Y-155835476D01*
X216834642Y-155740238D01*
X216739404Y-155645000D01*
X216596547Y-155597380D01*
X216501309Y-155597380D01*
X216358452Y-155645000D01*
X216310833Y-155692619D01*
X185719404Y-150647380D02*
X185719404Y-151456904D01*
X185671785Y-151552142D01*
X185624166Y-151599761D01*
X185528928Y-151647380D01*
X185338452Y-151647380D01*
X185243214Y-151599761D01*
X185195595Y-151552142D01*
X185147976Y-151456904D01*
X185147976Y-150647380D01*
X184719404Y-151599761D02*
X184576547Y-151647380D01*
X184338452Y-151647380D01*
X184243214Y-151599761D01*
X184195595Y-151552142D01*
X184147976Y-151456904D01*
X184147976Y-151361666D01*
X184195595Y-151266428D01*
X184243214Y-151218809D01*
X184338452Y-151171190D01*
X184528928Y-151123571D01*
X184624166Y-151075952D01*
X184671785Y-151028333D01*
X184719404Y-150933095D01*
X184719404Y-150837857D01*
X184671785Y-150742619D01*
X184624166Y-150695000D01*
X184528928Y-150647380D01*
X184290833Y-150647380D01*
X184147976Y-150695000D01*
X183386071Y-151123571D02*
X183243214Y-151171190D01*
X183195595Y-151218809D01*
X183147976Y-151314047D01*
X183147976Y-151456904D01*
X183195595Y-151552142D01*
X183243214Y-151599761D01*
X183338452Y-151647380D01*
X183719404Y-151647380D01*
X183719404Y-150647380D01*
X183386071Y-150647380D01*
X183290833Y-150695000D01*
X183243214Y-150742619D01*
X183195595Y-150837857D01*
X183195595Y-150933095D01*
X183243214Y-151028333D01*
X183290833Y-151075952D01*
X183386071Y-151123571D01*
X183719404Y-151123571D01*
X185719404Y-153297380D02*
X185719404Y-152297380D01*
X185147976Y-153297380D01*
X185147976Y-152297380D01*
X183957500Y-152249761D02*
X184814642Y-153535476D01*
X183052738Y-153202142D02*
X183100357Y-153249761D01*
X183243214Y-153297380D01*
X183338452Y-153297380D01*
X183481309Y-153249761D01*
X183576547Y-153154523D01*
X183624166Y-153059285D01*
X183671785Y-152868809D01*
X183671785Y-152725952D01*
X183624166Y-152535476D01*
X183576547Y-152440238D01*
X183481309Y-152345000D01*
X183338452Y-152297380D01*
X183243214Y-152297380D01*
X183100357Y-152345000D01*
X183052738Y-152392619D01*
X185195595Y-153995000D02*
X185290833Y-153947380D01*
X185433690Y-153947380D01*
X185576547Y-153995000D01*
X185671785Y-154090238D01*
X185719404Y-154185476D01*
X185767023Y-154375952D01*
X185767023Y-154518809D01*
X185719404Y-154709285D01*
X185671785Y-154804523D01*
X185576547Y-154899761D01*
X185433690Y-154947380D01*
X185338452Y-154947380D01*
X185195595Y-154899761D01*
X185147976Y-154852142D01*
X185147976Y-154518809D01*
X185338452Y-154518809D01*
X184719404Y-154947380D02*
X184719404Y-153947380D01*
X184147976Y-154947380D01*
X184147976Y-153947380D01*
X183671785Y-154947380D02*
X183671785Y-153947380D01*
X183433690Y-153947380D01*
X183290833Y-153995000D01*
X183195595Y-154090238D01*
X183147976Y-154185476D01*
X183100357Y-154375952D01*
X183100357Y-154518809D01*
X183147976Y-154709285D01*
X183195595Y-154804523D01*
X183290833Y-154899761D01*
X183433690Y-154947380D01*
X183671785Y-154947380D01*
X185195595Y-155645000D02*
X185290833Y-155597380D01*
X185433690Y-155597380D01*
X185576547Y-155645000D01*
X185671785Y-155740238D01*
X185719404Y-155835476D01*
X185767023Y-156025952D01*
X185767023Y-156168809D01*
X185719404Y-156359285D01*
X185671785Y-156454523D01*
X185576547Y-156549761D01*
X185433690Y-156597380D01*
X185338452Y-156597380D01*
X185195595Y-156549761D01*
X185147976Y-156502142D01*
X185147976Y-156168809D01*
X185338452Y-156168809D01*
X184719404Y-156597380D02*
X184719404Y-155597380D01*
X184147976Y-156597380D01*
X184147976Y-155597380D01*
X183671785Y-156597380D02*
X183671785Y-155597380D01*
X183433690Y-155597380D01*
X183290833Y-155645000D01*
X183195595Y-155740238D01*
X183147976Y-155835476D01*
X183100357Y-156025952D01*
X183100357Y-156168809D01*
X183147976Y-156359285D01*
X183195595Y-156454523D01*
X183290833Y-156549761D01*
X183433690Y-156597380D01*
X183671785Y-156597380D01*
X193974404Y-151647380D02*
X193974404Y-150647380D01*
X193402976Y-151647380D02*
X193831547Y-151075952D01*
X193402976Y-150647380D02*
X193974404Y-151218809D01*
X192593452Y-151599761D02*
X192688690Y-151647380D01*
X192879166Y-151647380D01*
X192974404Y-151599761D01*
X193022023Y-151504523D01*
X193022023Y-151123571D01*
X192974404Y-151028333D01*
X192879166Y-150980714D01*
X192688690Y-150980714D01*
X192593452Y-151028333D01*
X192545833Y-151123571D01*
X192545833Y-151218809D01*
X193022023Y-151314047D01*
X192117261Y-151647380D02*
X192117261Y-150980714D01*
X192117261Y-151075952D02*
X192069642Y-151028333D01*
X191974404Y-150980714D01*
X191831547Y-150980714D01*
X191736309Y-151028333D01*
X191688690Y-151123571D01*
X191688690Y-151647380D01*
X191688690Y-151123571D02*
X191641071Y-151028333D01*
X191545833Y-150980714D01*
X191402976Y-150980714D01*
X191307738Y-151028333D01*
X191260119Y-151123571D01*
X191260119Y-151647380D01*
X190783928Y-150980714D02*
X190783928Y-151980714D01*
X190783928Y-151028333D02*
X190688690Y-150980714D01*
X190498214Y-150980714D01*
X190402976Y-151028333D01*
X190355357Y-151075952D01*
X190307738Y-151171190D01*
X190307738Y-151456904D01*
X190355357Y-151552142D01*
X190402976Y-151599761D01*
X190498214Y-151647380D01*
X190688690Y-151647380D01*
X190783928Y-151599761D01*
X189926785Y-151599761D02*
X189831547Y-151647380D01*
X189641071Y-151647380D01*
X189545833Y-151599761D01*
X189498214Y-151504523D01*
X189498214Y-151456904D01*
X189545833Y-151361666D01*
X189641071Y-151314047D01*
X189783928Y-151314047D01*
X189879166Y-151266428D01*
X189926785Y-151171190D01*
X189926785Y-151123571D01*
X189879166Y-151028333D01*
X189783928Y-150980714D01*
X189641071Y-150980714D01*
X189545833Y-151028333D01*
X189212500Y-150980714D02*
X188831547Y-150980714D01*
X189069642Y-150647380D02*
X189069642Y-151504523D01*
X189022023Y-151599761D01*
X188926785Y-151647380D01*
X188831547Y-151647380D01*
X188355357Y-151647380D02*
X188450595Y-151599761D01*
X188498214Y-151552142D01*
X188545833Y-151456904D01*
X188545833Y-151171190D01*
X188498214Y-151075952D01*
X188450595Y-151028333D01*
X188355357Y-150980714D01*
X188212500Y-150980714D01*
X188117261Y-151028333D01*
X188069642Y-151075952D01*
X188022023Y-151171190D01*
X188022023Y-151456904D01*
X188069642Y-151552142D01*
X188117261Y-151599761D01*
X188212500Y-151647380D01*
X188355357Y-151647380D01*
X187593452Y-150980714D02*
X187593452Y-151647380D01*
X187593452Y-151075952D02*
X187545833Y-151028333D01*
X187450595Y-150980714D01*
X187307738Y-150980714D01*
X187212500Y-151028333D01*
X187164880Y-151123571D01*
X187164880Y-151647380D01*
X193974404Y-153297380D02*
X193974404Y-152297380D01*
X193593452Y-152297380D01*
X193498214Y-152345000D01*
X193450595Y-152392619D01*
X193402976Y-152487857D01*
X193402976Y-152630714D01*
X193450595Y-152725952D01*
X193498214Y-152773571D01*
X193593452Y-152821190D01*
X193974404Y-152821190D01*
X193022023Y-152392619D02*
X192974404Y-152345000D01*
X192879166Y-152297380D01*
X192641071Y-152297380D01*
X192545833Y-152345000D01*
X192498214Y-152392619D01*
X192450595Y-152487857D01*
X192450595Y-152583095D01*
X192498214Y-152725952D01*
X193069642Y-153297380D01*
X192450595Y-153297380D01*
X193450595Y-153995000D02*
X193545833Y-153947380D01*
X193688690Y-153947380D01*
X193831547Y-153995000D01*
X193926785Y-154090238D01*
X193974404Y-154185476D01*
X194022023Y-154375952D01*
X194022023Y-154518809D01*
X193974404Y-154709285D01*
X193926785Y-154804523D01*
X193831547Y-154899761D01*
X193688690Y-154947380D01*
X193593452Y-154947380D01*
X193450595Y-154899761D01*
X193402976Y-154852142D01*
X193402976Y-154518809D01*
X193593452Y-154518809D01*
X192974404Y-154947380D02*
X192974404Y-153947380D01*
X192402976Y-154947380D01*
X192402976Y-153947380D01*
X191926785Y-154947380D02*
X191926785Y-153947380D01*
X191688690Y-153947380D01*
X191545833Y-153995000D01*
X191450595Y-154090238D01*
X191402976Y-154185476D01*
X191355357Y-154375952D01*
X191355357Y-154518809D01*
X191402976Y-154709285D01*
X191450595Y-154804523D01*
X191545833Y-154899761D01*
X191688690Y-154947380D01*
X191926785Y-154947380D01*
X193450595Y-155645000D02*
X193545833Y-155597380D01*
X193688690Y-155597380D01*
X193831547Y-155645000D01*
X193926785Y-155740238D01*
X193974404Y-155835476D01*
X194022023Y-156025952D01*
X194022023Y-156168809D01*
X193974404Y-156359285D01*
X193926785Y-156454523D01*
X193831547Y-156549761D01*
X193688690Y-156597380D01*
X193593452Y-156597380D01*
X193450595Y-156549761D01*
X193402976Y-156502142D01*
X193402976Y-156168809D01*
X193593452Y-156168809D01*
X192974404Y-156597380D02*
X192974404Y-155597380D01*
X192402976Y-156597380D01*
X192402976Y-155597380D01*
X191926785Y-156597380D02*
X191926785Y-155597380D01*
X191688690Y-155597380D01*
X191545833Y-155645000D01*
X191450595Y-155740238D01*
X191402976Y-155835476D01*
X191355357Y-156025952D01*
X191355357Y-156168809D01*
X191402976Y-156359285D01*
X191450595Y-156454523D01*
X191545833Y-156549761D01*
X191688690Y-156597380D01*
X191926785Y-156597380D01*
X201007023Y-151361666D02*
X200530833Y-151361666D01*
X201102261Y-151647380D02*
X200768928Y-150647380D01*
X200435595Y-151647380D01*
X200245119Y-150980714D02*
X199864166Y-150980714D01*
X200102261Y-150647380D02*
X200102261Y-151504523D01*
X200054642Y-151599761D01*
X199959404Y-151647380D01*
X199864166Y-151647380D01*
X199102261Y-151647380D02*
X199102261Y-151123571D01*
X199149880Y-151028333D01*
X199245119Y-150980714D01*
X199435595Y-150980714D01*
X199530833Y-151028333D01*
X199102261Y-151599761D02*
X199197500Y-151647380D01*
X199435595Y-151647380D01*
X199530833Y-151599761D01*
X199578452Y-151504523D01*
X199578452Y-151409285D01*
X199530833Y-151314047D01*
X199435595Y-151266428D01*
X199197500Y-151266428D01*
X199102261Y-151218809D01*
X198626071Y-151647380D02*
X198626071Y-150980714D01*
X198626071Y-151171190D02*
X198578452Y-151075952D01*
X198530833Y-151028333D01*
X198435595Y-150980714D01*
X198340357Y-150980714D01*
X198007023Y-151647380D02*
X198007023Y-150980714D01*
X198007023Y-150647380D02*
X198054642Y-150695000D01*
X198007023Y-150742619D01*
X197959404Y-150695000D01*
X198007023Y-150647380D01*
X198007023Y-150742619D01*
X197768928Y-151742619D02*
X197007023Y-151742619D01*
X196816547Y-151599761D02*
X196673690Y-151647380D01*
X196435595Y-151647380D01*
X196340357Y-151599761D01*
X196292738Y-151552142D01*
X196245119Y-151456904D01*
X196245119Y-151361666D01*
X196292738Y-151266428D01*
X196340357Y-151218809D01*
X196435595Y-151171190D01*
X196626071Y-151123571D01*
X196721309Y-151075952D01*
X196768928Y-151028333D01*
X196816547Y-150933095D01*
X196816547Y-150837857D01*
X196768928Y-150742619D01*
X196721309Y-150695000D01*
X196626071Y-150647380D01*
X196387976Y-150647380D01*
X196245119Y-150695000D01*
X195959404Y-150647380D02*
X195387976Y-150647380D01*
X195673690Y-151647380D02*
X195673690Y-150647380D01*
X200959404Y-153297380D02*
X200959404Y-152297380D01*
X200578452Y-152297380D01*
X200483214Y-152345000D01*
X200435595Y-152392619D01*
X200387976Y-152487857D01*
X200387976Y-152630714D01*
X200435595Y-152725952D01*
X200483214Y-152773571D01*
X200578452Y-152821190D01*
X200959404Y-152821190D01*
X199435595Y-153297380D02*
X200007023Y-153297380D01*
X199721309Y-153297380D02*
X199721309Y-152297380D01*
X199816547Y-152440238D01*
X199911785Y-152535476D01*
X200007023Y-152583095D01*
X200435595Y-153995000D02*
X200530833Y-153947380D01*
X200673690Y-153947380D01*
X200816547Y-153995000D01*
X200911785Y-154090238D01*
X200959404Y-154185476D01*
X201007023Y-154375952D01*
X201007023Y-154518809D01*
X200959404Y-154709285D01*
X200911785Y-154804523D01*
X200816547Y-154899761D01*
X200673690Y-154947380D01*
X200578452Y-154947380D01*
X200435595Y-154899761D01*
X200387976Y-154852142D01*
X200387976Y-154518809D01*
X200578452Y-154518809D01*
X199959404Y-154947380D02*
X199959404Y-153947380D01*
X199387976Y-154947380D01*
X199387976Y-153947380D01*
X198911785Y-154947380D02*
X198911785Y-153947380D01*
X198673690Y-153947380D01*
X198530833Y-153995000D01*
X198435595Y-154090238D01*
X198387976Y-154185476D01*
X198340357Y-154375952D01*
X198340357Y-154518809D01*
X198387976Y-154709285D01*
X198435595Y-154804523D01*
X198530833Y-154899761D01*
X198673690Y-154947380D01*
X198911785Y-154947380D01*
X200435595Y-155645000D02*
X200530833Y-155597380D01*
X200673690Y-155597380D01*
X200816547Y-155645000D01*
X200911785Y-155740238D01*
X200959404Y-155835476D01*
X201007023Y-156025952D01*
X201007023Y-156168809D01*
X200959404Y-156359285D01*
X200911785Y-156454523D01*
X200816547Y-156549761D01*
X200673690Y-156597380D01*
X200578452Y-156597380D01*
X200435595Y-156549761D01*
X200387976Y-156502142D01*
X200387976Y-156168809D01*
X200578452Y-156168809D01*
X199959404Y-156597380D02*
X199959404Y-155597380D01*
X199387976Y-156597380D01*
X199387976Y-155597380D01*
X198911785Y-156597380D02*
X198911785Y-155597380D01*
X198673690Y-155597380D01*
X198530833Y-155645000D01*
X198435595Y-155740238D01*
X198387976Y-155835476D01*
X198340357Y-156025952D01*
X198340357Y-156168809D01*
X198387976Y-156359285D01*
X198435595Y-156454523D01*
X198530833Y-156549761D01*
X198673690Y-156597380D01*
X198911785Y-156597380D01*
X206087023Y-151361666D02*
X205610833Y-151361666D01*
X206182261Y-151647380D02*
X205848928Y-150647380D01*
X205515595Y-151647380D01*
X205325119Y-150980714D02*
X204944166Y-150980714D01*
X205182261Y-150647380D02*
X205182261Y-151504523D01*
X205134642Y-151599761D01*
X205039404Y-151647380D01*
X204944166Y-151647380D01*
X204182261Y-151647380D02*
X204182261Y-151123571D01*
X204229880Y-151028333D01*
X204325119Y-150980714D01*
X204515595Y-150980714D01*
X204610833Y-151028333D01*
X204182261Y-151599761D02*
X204277500Y-151647380D01*
X204515595Y-151647380D01*
X204610833Y-151599761D01*
X204658452Y-151504523D01*
X204658452Y-151409285D01*
X204610833Y-151314047D01*
X204515595Y-151266428D01*
X204277500Y-151266428D01*
X204182261Y-151218809D01*
X203706071Y-151647380D02*
X203706071Y-150980714D01*
X203706071Y-151171190D02*
X203658452Y-151075952D01*
X203610833Y-151028333D01*
X203515595Y-150980714D01*
X203420357Y-150980714D01*
X203087023Y-151647380D02*
X203087023Y-150980714D01*
X203087023Y-150647380D02*
X203134642Y-150695000D01*
X203087023Y-150742619D01*
X203039404Y-150695000D01*
X203087023Y-150647380D01*
X203087023Y-150742619D01*
X206039404Y-153297380D02*
X206039404Y-152297380D01*
X205658452Y-152297380D01*
X205563214Y-152345000D01*
X205515595Y-152392619D01*
X205467976Y-152487857D01*
X205467976Y-152630714D01*
X205515595Y-152725952D01*
X205563214Y-152773571D01*
X205658452Y-152821190D01*
X206039404Y-152821190D01*
X204515595Y-153297380D02*
X205087023Y-153297380D01*
X204801309Y-153297380D02*
X204801309Y-152297380D01*
X204896547Y-152440238D01*
X204991785Y-152535476D01*
X205087023Y-152583095D01*
X205515595Y-153995000D02*
X205610833Y-153947380D01*
X205753690Y-153947380D01*
X205896547Y-153995000D01*
X205991785Y-154090238D01*
X206039404Y-154185476D01*
X206087023Y-154375952D01*
X206087023Y-154518809D01*
X206039404Y-154709285D01*
X205991785Y-154804523D01*
X205896547Y-154899761D01*
X205753690Y-154947380D01*
X205658452Y-154947380D01*
X205515595Y-154899761D01*
X205467976Y-154852142D01*
X205467976Y-154518809D01*
X205658452Y-154518809D01*
X205039404Y-154947380D02*
X205039404Y-153947380D01*
X204467976Y-154947380D01*
X204467976Y-153947380D01*
X203991785Y-154947380D02*
X203991785Y-153947380D01*
X203753690Y-153947380D01*
X203610833Y-153995000D01*
X203515595Y-154090238D01*
X203467976Y-154185476D01*
X203420357Y-154375952D01*
X203420357Y-154518809D01*
X203467976Y-154709285D01*
X203515595Y-154804523D01*
X203610833Y-154899761D01*
X203753690Y-154947380D01*
X203991785Y-154947380D01*
X206039404Y-156597380D02*
X206039404Y-155597380D01*
X205467976Y-156597380D01*
X205467976Y-155597380D01*
X204277500Y-155549761D02*
X205134642Y-156835476D01*
X203372738Y-156502142D02*
X203420357Y-156549761D01*
X203563214Y-156597380D01*
X203658452Y-156597380D01*
X203801309Y-156549761D01*
X203896547Y-156454523D01*
X203944166Y-156359285D01*
X203991785Y-156168809D01*
X203991785Y-156025952D01*
X203944166Y-155835476D01*
X203896547Y-155740238D01*
X203801309Y-155645000D01*
X203658452Y-155597380D01*
X203563214Y-155597380D01*
X203420357Y-155645000D01*
X203372738Y-155692619D01*
X212437023Y-151361666D02*
X211960833Y-151361666D01*
X212532261Y-151647380D02*
X212198928Y-150647380D01*
X211865595Y-151647380D01*
X211532261Y-151647380D02*
X211532261Y-150980714D01*
X211532261Y-151075952D02*
X211484642Y-151028333D01*
X211389404Y-150980714D01*
X211246547Y-150980714D01*
X211151309Y-151028333D01*
X211103690Y-151123571D01*
X211103690Y-151647380D01*
X211103690Y-151123571D02*
X211056071Y-151028333D01*
X210960833Y-150980714D01*
X210817976Y-150980714D01*
X210722738Y-151028333D01*
X210675119Y-151123571D01*
X210675119Y-151647380D01*
X210198928Y-151647380D02*
X210198928Y-150980714D01*
X210198928Y-150647380D02*
X210246547Y-150695000D01*
X210198928Y-150742619D01*
X210151309Y-150695000D01*
X210198928Y-150647380D01*
X210198928Y-150742619D01*
X209294166Y-150980714D02*
X209294166Y-151790238D01*
X209341785Y-151885476D01*
X209389404Y-151933095D01*
X209484642Y-151980714D01*
X209627500Y-151980714D01*
X209722738Y-151933095D01*
X209294166Y-151599761D02*
X209389404Y-151647380D01*
X209579880Y-151647380D01*
X209675119Y-151599761D01*
X209722738Y-151552142D01*
X209770357Y-151456904D01*
X209770357Y-151171190D01*
X209722738Y-151075952D01*
X209675119Y-151028333D01*
X209579880Y-150980714D01*
X209389404Y-150980714D01*
X209294166Y-151028333D01*
X208389404Y-151647380D02*
X208389404Y-151123571D01*
X208437023Y-151028333D01*
X208532261Y-150980714D01*
X208722738Y-150980714D01*
X208817976Y-151028333D01*
X208389404Y-151599761D02*
X208484642Y-151647380D01*
X208722738Y-151647380D01*
X208817976Y-151599761D01*
X208865595Y-151504523D01*
X208865595Y-151409285D01*
X208817976Y-151314047D01*
X208722738Y-151266428D01*
X208484642Y-151266428D01*
X208389404Y-151218809D01*
X212389404Y-153297380D02*
X212389404Y-152297380D01*
X212008452Y-152297380D01*
X211913214Y-152345000D01*
X211865595Y-152392619D01*
X211817976Y-152487857D01*
X211817976Y-152630714D01*
X211865595Y-152725952D01*
X211913214Y-152773571D01*
X212008452Y-152821190D01*
X212389404Y-152821190D01*
X210865595Y-153297380D02*
X211437023Y-153297380D01*
X211151309Y-153297380D02*
X211151309Y-152297380D01*
X211246547Y-152440238D01*
X211341785Y-152535476D01*
X211437023Y-152583095D01*
X209722738Y-152249761D02*
X210579880Y-153535476D01*
X209389404Y-153297380D02*
X209389404Y-152297380D01*
X209008452Y-152297380D01*
X208913214Y-152345000D01*
X208865595Y-152392619D01*
X208817976Y-152487857D01*
X208817976Y-152630714D01*
X208865595Y-152725952D01*
X208913214Y-152773571D01*
X209008452Y-152821190D01*
X209389404Y-152821190D01*
X208437023Y-152392619D02*
X208389404Y-152345000D01*
X208294166Y-152297380D01*
X208056071Y-152297380D01*
X207960833Y-152345000D01*
X207913214Y-152392619D01*
X207865595Y-152487857D01*
X207865595Y-152583095D01*
X207913214Y-152725952D01*
X208484642Y-153297380D01*
X207865595Y-153297380D01*
X211865595Y-153995000D02*
X211960833Y-153947380D01*
X212103690Y-153947380D01*
X212246547Y-153995000D01*
X212341785Y-154090238D01*
X212389404Y-154185476D01*
X212437023Y-154375952D01*
X212437023Y-154518809D01*
X212389404Y-154709285D01*
X212341785Y-154804523D01*
X212246547Y-154899761D01*
X212103690Y-154947380D01*
X212008452Y-154947380D01*
X211865595Y-154899761D01*
X211817976Y-154852142D01*
X211817976Y-154518809D01*
X212008452Y-154518809D01*
X211389404Y-154947380D02*
X211389404Y-153947380D01*
X210817976Y-154947380D01*
X210817976Y-153947380D01*
X210341785Y-154947380D02*
X210341785Y-153947380D01*
X210103690Y-153947380D01*
X209960833Y-153995000D01*
X209865595Y-154090238D01*
X209817976Y-154185476D01*
X209770357Y-154375952D01*
X209770357Y-154518809D01*
X209817976Y-154709285D01*
X209865595Y-154804523D01*
X209960833Y-154899761D01*
X210103690Y-154947380D01*
X210341785Y-154947380D01*
X211865595Y-155645000D02*
X211960833Y-155597380D01*
X212103690Y-155597380D01*
X212246547Y-155645000D01*
X212341785Y-155740238D01*
X212389404Y-155835476D01*
X212437023Y-156025952D01*
X212437023Y-156168809D01*
X212389404Y-156359285D01*
X212341785Y-156454523D01*
X212246547Y-156549761D01*
X212103690Y-156597380D01*
X212008452Y-156597380D01*
X211865595Y-156549761D01*
X211817976Y-156502142D01*
X211817976Y-156168809D01*
X212008452Y-156168809D01*
X211389404Y-156597380D02*
X211389404Y-155597380D01*
X210817976Y-156597380D01*
X210817976Y-155597380D01*
X210341785Y-156597380D02*
X210341785Y-155597380D01*
X210103690Y-155597380D01*
X209960833Y-155645000D01*
X209865595Y-155740238D01*
X209817976Y-155835476D01*
X209770357Y-156025952D01*
X209770357Y-156168809D01*
X209817976Y-156359285D01*
X209865595Y-156454523D01*
X209960833Y-156549761D01*
X210103690Y-156597380D01*
X210341785Y-156597380D01*
X224517976Y-151552142D02*
X224565595Y-151599761D01*
X224708452Y-151647380D01*
X224803690Y-151647380D01*
X224946547Y-151599761D01*
X225041785Y-151504523D01*
X225089404Y-151409285D01*
X225137023Y-151218809D01*
X225137023Y-151075952D01*
X225089404Y-150885476D01*
X225041785Y-150790238D01*
X224946547Y-150695000D01*
X224803690Y-150647380D01*
X224708452Y-150647380D01*
X224565595Y-150695000D01*
X224517976Y-150742619D01*
X223660833Y-150647380D02*
X223851309Y-150647380D01*
X223946547Y-150695000D01*
X223994166Y-150742619D01*
X224089404Y-150885476D01*
X224137023Y-151075952D01*
X224137023Y-151456904D01*
X224089404Y-151552142D01*
X224041785Y-151599761D01*
X223946547Y-151647380D01*
X223756071Y-151647380D01*
X223660833Y-151599761D01*
X223613214Y-151552142D01*
X223565595Y-151456904D01*
X223565595Y-151218809D01*
X223613214Y-151123571D01*
X223660833Y-151075952D01*
X223756071Y-151028333D01*
X223946547Y-151028333D01*
X224041785Y-151075952D01*
X224089404Y-151123571D01*
X224137023Y-151218809D01*
X222708452Y-150980714D02*
X222708452Y-151647380D01*
X222946547Y-150599761D02*
X223184642Y-151314047D01*
X222565595Y-151314047D01*
X221898928Y-152028333D02*
X221946547Y-151980714D01*
X222041785Y-151837857D01*
X222089404Y-151742619D01*
X222137023Y-151599761D01*
X222184642Y-151361666D01*
X222184642Y-151171190D01*
X222137023Y-150933095D01*
X222089404Y-150790238D01*
X222041785Y-150695000D01*
X221946547Y-150552142D01*
X221898928Y-150504523D01*
X221565595Y-151361666D02*
X221089404Y-151361666D01*
X221660833Y-151647380D02*
X221327500Y-150647380D01*
X220994166Y-151647380D01*
X220756071Y-152028333D02*
X220708452Y-151980714D01*
X220613214Y-151837857D01*
X220565595Y-151742619D01*
X220517976Y-151599761D01*
X220470357Y-151361666D01*
X220470357Y-151171190D01*
X220517976Y-150933095D01*
X220565595Y-150790238D01*
X220613214Y-150695000D01*
X220708452Y-150552142D01*
X220756071Y-150504523D01*
X225089404Y-153297380D02*
X225089404Y-152297380D01*
X224708452Y-152297380D01*
X224613214Y-152345000D01*
X224565595Y-152392619D01*
X224517976Y-152487857D01*
X224517976Y-152630714D01*
X224565595Y-152725952D01*
X224613214Y-152773571D01*
X224708452Y-152821190D01*
X225089404Y-152821190D01*
X223565595Y-153297380D02*
X224137023Y-153297380D01*
X223851309Y-153297380D02*
X223851309Y-152297380D01*
X223946547Y-152440238D01*
X224041785Y-152535476D01*
X224137023Y-152583095D01*
X224565595Y-153995000D02*
X224660833Y-153947380D01*
X224803690Y-153947380D01*
X224946547Y-153995000D01*
X225041785Y-154090238D01*
X225089404Y-154185476D01*
X225137023Y-154375952D01*
X225137023Y-154518809D01*
X225089404Y-154709285D01*
X225041785Y-154804523D01*
X224946547Y-154899761D01*
X224803690Y-154947380D01*
X224708452Y-154947380D01*
X224565595Y-154899761D01*
X224517976Y-154852142D01*
X224517976Y-154518809D01*
X224708452Y-154518809D01*
X224089404Y-154947380D02*
X224089404Y-153947380D01*
X223517976Y-154947380D01*
X223517976Y-153947380D01*
X223041785Y-154947380D02*
X223041785Y-153947380D01*
X222803690Y-153947380D01*
X222660833Y-153995000D01*
X222565595Y-154090238D01*
X222517976Y-154185476D01*
X222470357Y-154375952D01*
X222470357Y-154518809D01*
X222517976Y-154709285D01*
X222565595Y-154804523D01*
X222660833Y-154899761D01*
X222803690Y-154947380D01*
X223041785Y-154947380D01*
X225232261Y-155597380D02*
X224898928Y-156597380D01*
X224565595Y-155597380D01*
X223660833Y-156502142D02*
X223708452Y-156549761D01*
X223851309Y-156597380D01*
X223946547Y-156597380D01*
X224089404Y-156549761D01*
X224184642Y-156454523D01*
X224232261Y-156359285D01*
X224279880Y-156168809D01*
X224279880Y-156025952D01*
X224232261Y-155835476D01*
X224184642Y-155740238D01*
X224089404Y-155645000D01*
X223946547Y-155597380D01*
X223851309Y-155597380D01*
X223708452Y-155645000D01*
X223660833Y-155692619D01*
X222660833Y-156502142D02*
X222708452Y-156549761D01*
X222851309Y-156597380D01*
X222946547Y-156597380D01*
X223089404Y-156549761D01*
X223184642Y-156454523D01*
X223232261Y-156359285D01*
X223279880Y-156168809D01*
X223279880Y-156025952D01*
X223232261Y-155835476D01*
X223184642Y-155740238D01*
X223089404Y-155645000D01*
X222946547Y-155597380D01*
X222851309Y-155597380D01*
X222708452Y-155645000D01*
X222660833Y-155692619D01*
D11*
X179705000Y-128905000D02*
X183515000Y-128905000D01*
X179705000Y-127635000D02*
X179705000Y-128905000D01*
X179705000Y-127000000D02*
X180975000Y-127000000D01*
X179705000Y-124460000D02*
X179705000Y-127000000D01*
X179705000Y-124460000D02*
X180975000Y-124460000D01*
X179705000Y-122555000D02*
X179705000Y-123825000D01*
X183515000Y-122555000D02*
X179705000Y-122555000D01*
D12*
X234281071Y-152773571D02*
X234614404Y-152773571D01*
X234614404Y-153297380D02*
X234614404Y-152297380D01*
X234138214Y-152297380D01*
X233757261Y-153297380D02*
X233757261Y-152297380D01*
X232709642Y-153297380D02*
X233042976Y-152821190D01*
X233281071Y-153297380D02*
X233281071Y-152297380D01*
X232900119Y-152297380D01*
X232804880Y-152345000D01*
X232757261Y-152392619D01*
X232709642Y-152487857D01*
X232709642Y-152630714D01*
X232757261Y-152725952D01*
X232804880Y-152773571D01*
X232900119Y-152821190D01*
X233281071Y-152821190D01*
X232281071Y-152773571D02*
X231947738Y-152773571D01*
X231804880Y-153297380D02*
X232281071Y-153297380D01*
X232281071Y-152297380D01*
X231804880Y-152297380D01*
X231471547Y-152297380D02*
X230852500Y-152297380D01*
X231185833Y-152678333D01*
X231042976Y-152678333D01*
X230947738Y-152725952D01*
X230900119Y-152773571D01*
X230852500Y-152868809D01*
X230852500Y-153106904D01*
X230900119Y-153202142D01*
X230947738Y-153249761D01*
X231042976Y-153297380D01*
X231328690Y-153297380D01*
X231423928Y-153249761D01*
X231471547Y-153202142D01*
X230662023Y-153392619D02*
X229900119Y-153392619D01*
X229709642Y-153249761D02*
X229566785Y-153297380D01*
X229328690Y-153297380D01*
X229233452Y-153249761D01*
X229185833Y-153202142D01*
X229138214Y-153106904D01*
X229138214Y-153011666D01*
X229185833Y-152916428D01*
X229233452Y-152868809D01*
X229328690Y-152821190D01*
X229519166Y-152773571D01*
X229614404Y-152725952D01*
X229662023Y-152678333D01*
X229709642Y-152583095D01*
X229709642Y-152487857D01*
X229662023Y-152392619D01*
X229614404Y-152345000D01*
X229519166Y-152297380D01*
X229281071Y-152297380D01*
X229138214Y-152345000D01*
X228709642Y-152773571D02*
X228376309Y-152773571D01*
X228233452Y-153297380D02*
X228709642Y-153297380D01*
X228709642Y-152297380D01*
X228233452Y-152297380D01*
X227328690Y-153297380D02*
X227804880Y-153297380D01*
X227804880Y-152297380D01*
X234281071Y-154423571D02*
X234614404Y-154423571D01*
X234614404Y-154947380D02*
X234614404Y-153947380D01*
X234138214Y-153947380D01*
X233757261Y-154947380D02*
X233757261Y-153947380D01*
X232709642Y-154947380D02*
X233042976Y-154471190D01*
X233281071Y-154947380D02*
X233281071Y-153947380D01*
X232900119Y-153947380D01*
X232804880Y-153995000D01*
X232757261Y-154042619D01*
X232709642Y-154137857D01*
X232709642Y-154280714D01*
X232757261Y-154375952D01*
X232804880Y-154423571D01*
X232900119Y-154471190D01*
X233281071Y-154471190D01*
X232281071Y-154423571D02*
X231947738Y-154423571D01*
X231804880Y-154947380D02*
X232281071Y-154947380D01*
X232281071Y-153947380D01*
X231804880Y-153947380D01*
X231471547Y-153947380D02*
X230852500Y-153947380D01*
X231185833Y-154328333D01*
X231042976Y-154328333D01*
X230947738Y-154375952D01*
X230900119Y-154423571D01*
X230852500Y-154518809D01*
X230852500Y-154756904D01*
X230900119Y-154852142D01*
X230947738Y-154899761D01*
X231042976Y-154947380D01*
X231328690Y-154947380D01*
X231423928Y-154899761D01*
X231471547Y-154852142D01*
X230662023Y-155042619D02*
X229900119Y-155042619D01*
X229662023Y-154947380D02*
X229662023Y-153947380D01*
X229281071Y-153947380D01*
X229185833Y-153995000D01*
X229138214Y-154042619D01*
X229090595Y-154137857D01*
X229090595Y-154280714D01*
X229138214Y-154375952D01*
X229185833Y-154423571D01*
X229281071Y-154471190D01*
X229662023Y-154471190D01*
X228471547Y-153947380D02*
X228281071Y-153947380D01*
X228185833Y-153995000D01*
X228090595Y-154090238D01*
X228042976Y-154280714D01*
X228042976Y-154614047D01*
X228090595Y-154804523D01*
X228185833Y-154899761D01*
X228281071Y-154947380D01*
X228471547Y-154947380D01*
X228566785Y-154899761D01*
X228662023Y-154804523D01*
X228709642Y-154614047D01*
X228709642Y-154280714D01*
X228662023Y-154090238D01*
X228566785Y-153995000D01*
X228471547Y-153947380D01*
X227138214Y-154947380D02*
X227614404Y-154947380D01*
X227614404Y-153947380D01*
X234281071Y-156073571D02*
X234614404Y-156073571D01*
X234614404Y-156597380D02*
X234614404Y-155597380D01*
X234138214Y-155597380D01*
X233757261Y-156597380D02*
X233757261Y-155597380D01*
X232709642Y-156597380D02*
X233042976Y-156121190D01*
X233281071Y-156597380D02*
X233281071Y-155597380D01*
X232900119Y-155597380D01*
X232804880Y-155645000D01*
X232757261Y-155692619D01*
X232709642Y-155787857D01*
X232709642Y-155930714D01*
X232757261Y-156025952D01*
X232804880Y-156073571D01*
X232900119Y-156121190D01*
X233281071Y-156121190D01*
X232281071Y-156073571D02*
X231947738Y-156073571D01*
X231804880Y-156597380D02*
X232281071Y-156597380D01*
X232281071Y-155597380D01*
X231804880Y-155597380D01*
X231423928Y-155692619D02*
X231376309Y-155645000D01*
X231281071Y-155597380D01*
X231042976Y-155597380D01*
X230947738Y-155645000D01*
X230900119Y-155692619D01*
X230852500Y-155787857D01*
X230852500Y-155883095D01*
X230900119Y-156025952D01*
X231471547Y-156597380D01*
X230852500Y-156597380D01*
X230662023Y-156692619D02*
X229900119Y-156692619D01*
X229662023Y-156597380D02*
X229662023Y-155597380D01*
X229281071Y-155597380D01*
X229185833Y-155645000D01*
X229138214Y-155692619D01*
X229090595Y-155787857D01*
X229090595Y-155930714D01*
X229138214Y-156025952D01*
X229185833Y-156073571D01*
X229281071Y-156121190D01*
X229662023Y-156121190D01*
X228471547Y-155597380D02*
X228281071Y-155597380D01*
X228185833Y-155645000D01*
X228090595Y-155740238D01*
X228042976Y-155930714D01*
X228042976Y-156264047D01*
X228090595Y-156454523D01*
X228185833Y-156549761D01*
X228281071Y-156597380D01*
X228471547Y-156597380D01*
X228566785Y-156549761D01*
X228662023Y-156454523D01*
X228709642Y-156264047D01*
X228709642Y-155930714D01*
X228662023Y-155740238D01*
X228566785Y-155645000D01*
X228471547Y-155597380D01*
X227138214Y-156597380D02*
X227614404Y-156597380D01*
X227614404Y-155597380D01*
X176032380Y-86853809D02*
X175032380Y-86853809D01*
X175365714Y-87330000D02*
X176032380Y-87330000D01*
X175460952Y-87330000D02*
X175413333Y-87377619D01*
X175365714Y-87472857D01*
X175365714Y-87615714D01*
X175413333Y-87710952D01*
X175508571Y-87758571D01*
X176032380Y-87758571D01*
X175984761Y-88187142D02*
X176032380Y-88282380D01*
X176032380Y-88472857D01*
X175984761Y-88568095D01*
X175889523Y-88615714D01*
X175841904Y-88615714D01*
X175746666Y-88568095D01*
X175699047Y-88472857D01*
X175699047Y-88330000D01*
X175651428Y-88234761D01*
X175556190Y-88187142D01*
X175508571Y-88187142D01*
X175413333Y-88234761D01*
X175365714Y-88330000D01*
X175365714Y-88472857D01*
X175413333Y-88568095D01*
X175365714Y-88901428D02*
X175365714Y-89282380D01*
X175032380Y-89044285D02*
X175889523Y-89044285D01*
X175984761Y-89091904D01*
X176032380Y-89187142D01*
X176032380Y-89282380D01*
X176032380Y-90044285D02*
X175508571Y-90044285D01*
X175413333Y-89996666D01*
X175365714Y-89901428D01*
X175365714Y-89710952D01*
X175413333Y-89615714D01*
X175984761Y-90044285D02*
X176032380Y-89949047D01*
X176032380Y-89710952D01*
X175984761Y-89615714D01*
X175889523Y-89568095D01*
X175794285Y-89568095D01*
X175699047Y-89615714D01*
X175651428Y-89710952D01*
X175651428Y-89949047D01*
X175603809Y-90044285D01*
X176032380Y-90663333D02*
X175984761Y-90568095D01*
X175889523Y-90520476D01*
X175032380Y-90520476D01*
X176032380Y-91187142D02*
X175984761Y-91091904D01*
X175889523Y-91044285D01*
X175032380Y-91044285D01*
X175746666Y-92282380D02*
X175746666Y-92758571D01*
X176032380Y-92187142D02*
X175032380Y-92520476D01*
X176032380Y-92853809D01*
X176032380Y-93187142D02*
X175365714Y-93187142D01*
X175556190Y-93187142D02*
X175460952Y-93234761D01*
X175413333Y-93282380D01*
X175365714Y-93377619D01*
X175365714Y-93472857D01*
X176032380Y-94234761D02*
X175032380Y-94234761D01*
X175984761Y-94234761D02*
X176032380Y-94139523D01*
X176032380Y-93949047D01*
X175984761Y-93853809D01*
X175937142Y-93806190D01*
X175841904Y-93758571D01*
X175556190Y-93758571D01*
X175460952Y-93806190D01*
X175413333Y-93853809D01*
X175365714Y-93949047D01*
X175365714Y-94139523D01*
X175413333Y-94234761D01*
X175365714Y-95139523D02*
X176032380Y-95139523D01*
X175365714Y-94710952D02*
X175889523Y-94710952D01*
X175984761Y-94758571D01*
X176032380Y-94853809D01*
X176032380Y-94996666D01*
X175984761Y-95091904D01*
X175937142Y-95139523D01*
X176032380Y-95615714D02*
X175365714Y-95615714D01*
X175032380Y-95615714D02*
X175080000Y-95568095D01*
X175127619Y-95615714D01*
X175080000Y-95663333D01*
X175032380Y-95615714D01*
X175127619Y-95615714D01*
X175365714Y-96091904D02*
X176032380Y-96091904D01*
X175460952Y-96091904D02*
X175413333Y-96139523D01*
X175365714Y-96234761D01*
X175365714Y-96377619D01*
X175413333Y-96472857D01*
X175508571Y-96520476D01*
X176032380Y-96520476D01*
X176032380Y-97139523D02*
X175984761Y-97044285D01*
X175937142Y-96996666D01*
X175841904Y-96949047D01*
X175556190Y-96949047D01*
X175460952Y-96996666D01*
X175413333Y-97044285D01*
X175365714Y-97139523D01*
X175365714Y-97282380D01*
X175413333Y-97377619D01*
X175460952Y-97425238D01*
X175556190Y-97472857D01*
X175841904Y-97472857D01*
X175937142Y-97425238D01*
X175984761Y-97377619D01*
X176032380Y-97282380D01*
X176032380Y-97139523D01*
X176032380Y-98663333D02*
X175032380Y-98663333D01*
X175032380Y-99044285D01*
X175080000Y-99139523D01*
X175127619Y-99187142D01*
X175222857Y-99234761D01*
X175365714Y-99234761D01*
X175460952Y-99187142D01*
X175508571Y-99139523D01*
X175556190Y-99044285D01*
X175556190Y-98663333D01*
X176032380Y-99663333D02*
X175365714Y-99663333D01*
X175556190Y-99663333D02*
X175460952Y-99710952D01*
X175413333Y-99758571D01*
X175365714Y-99853809D01*
X175365714Y-99949047D01*
X176032380Y-100425238D02*
X175984761Y-100329999D01*
X175937142Y-100282380D01*
X175841904Y-100234761D01*
X175556190Y-100234761D01*
X175460952Y-100282380D01*
X175413333Y-100329999D01*
X175365714Y-100425238D01*
X175365714Y-100568095D01*
X175413333Y-100663333D01*
X175460952Y-100710952D01*
X175556190Y-100758571D01*
X175841904Y-100758571D01*
X175937142Y-100710952D01*
X175984761Y-100663333D01*
X176032380Y-100568095D01*
X176032380Y-100425238D01*
X176032380Y-101949047D02*
X175032380Y-101949047D01*
X175746666Y-102282380D01*
X175032380Y-102615714D01*
X176032380Y-102615714D01*
X176032380Y-103091904D02*
X175365714Y-103091904D01*
X175032380Y-103091904D02*
X175080000Y-103044285D01*
X175127619Y-103091904D01*
X175080000Y-103139523D01*
X175032380Y-103091904D01*
X175127619Y-103091904D01*
X175984761Y-103996666D02*
X176032380Y-103901428D01*
X176032380Y-103710952D01*
X175984761Y-103615714D01*
X175937142Y-103568095D01*
X175841904Y-103520476D01*
X175556190Y-103520476D01*
X175460952Y-103568095D01*
X175413333Y-103615714D01*
X175365714Y-103710952D01*
X175365714Y-103901428D01*
X175413333Y-103996666D01*
X176032380Y-104425238D02*
X175365714Y-104425238D01*
X175556190Y-104425238D02*
X175460952Y-104472857D01*
X175413333Y-104520476D01*
X175365714Y-104615714D01*
X175365714Y-104710952D01*
X176032380Y-105187142D02*
X175984761Y-105091904D01*
X175937142Y-105044285D01*
X175841904Y-104996666D01*
X175556190Y-104996666D01*
X175460952Y-105044285D01*
X175413333Y-105091904D01*
X175365714Y-105187142D01*
X175365714Y-105329999D01*
X175413333Y-105425238D01*
X175460952Y-105472857D01*
X175556190Y-105520476D01*
X175841904Y-105520476D01*
X175937142Y-105472857D01*
X175984761Y-105425238D01*
X176032380Y-105329999D01*
X176032380Y-105187142D01*
X175984761Y-105996666D02*
X176032380Y-105996666D01*
X176127619Y-105949047D01*
X176175238Y-105901428D01*
X176032380Y-107187142D02*
X175365714Y-107187142D01*
X175032380Y-107187142D02*
X175080000Y-107139523D01*
X175127619Y-107187142D01*
X175080000Y-107234761D01*
X175032380Y-107187142D01*
X175127619Y-107187142D01*
X175365714Y-107520476D02*
X175365714Y-107901428D01*
X176032380Y-107663333D02*
X175175238Y-107663333D01*
X175080000Y-107710952D01*
X175032380Y-107806190D01*
X175032380Y-107901428D01*
X175365714Y-108996666D02*
X176032380Y-108996666D01*
X175460952Y-108996666D02*
X175413333Y-109044285D01*
X175365714Y-109139523D01*
X175365714Y-109282380D01*
X175413333Y-109377619D01*
X175508571Y-109425238D01*
X176032380Y-109425238D01*
X175984761Y-110282380D02*
X176032380Y-110187142D01*
X176032380Y-109996666D01*
X175984761Y-109901428D01*
X175889523Y-109853809D01*
X175508571Y-109853809D01*
X175413333Y-109901428D01*
X175365714Y-109996666D01*
X175365714Y-110187142D01*
X175413333Y-110282380D01*
X175508571Y-110329999D01*
X175603809Y-110329999D01*
X175699047Y-109853809D01*
X175984761Y-111139523D02*
X176032380Y-111044285D01*
X176032380Y-110853809D01*
X175984761Y-110758571D01*
X175889523Y-110710952D01*
X175508571Y-110710952D01*
X175413333Y-110758571D01*
X175365714Y-110853809D01*
X175365714Y-111044285D01*
X175413333Y-111139523D01*
X175508571Y-111187142D01*
X175603809Y-111187142D01*
X175699047Y-110710952D01*
X176032380Y-112044285D02*
X175032380Y-112044285D01*
X175984761Y-112044285D02*
X176032380Y-111949047D01*
X176032380Y-111758571D01*
X175984761Y-111663333D01*
X175937142Y-111615714D01*
X175841904Y-111568095D01*
X175556190Y-111568095D01*
X175460952Y-111615714D01*
X175413333Y-111663333D01*
X175365714Y-111758571D01*
X175365714Y-111949047D01*
X175413333Y-112044285D01*
X175984761Y-112901428D02*
X176032380Y-112806190D01*
X176032380Y-112615714D01*
X175984761Y-112520476D01*
X175889523Y-112472857D01*
X175508571Y-112472857D01*
X175413333Y-112520476D01*
X175365714Y-112615714D01*
X175365714Y-112806190D01*
X175413333Y-112901428D01*
X175508571Y-112949047D01*
X175603809Y-112949047D01*
X175699047Y-112472857D01*
X176032380Y-113806190D02*
X175032380Y-113806190D01*
X175984761Y-113806190D02*
X176032380Y-113710952D01*
X176032380Y-113520476D01*
X175984761Y-113425238D01*
X175937142Y-113377619D01*
X175841904Y-113329999D01*
X175556190Y-113329999D01*
X175460952Y-113377619D01*
X175413333Y-113425238D01*
X175365714Y-113520476D01*
X175365714Y-113710952D01*
X175413333Y-113806190D01*
X177015714Y-86449047D02*
X177015714Y-86830000D01*
X177682380Y-86591904D02*
X176825238Y-86591904D01*
X176730000Y-86639523D01*
X176682380Y-86734761D01*
X176682380Y-86830000D01*
X177682380Y-87306190D02*
X177634761Y-87210952D01*
X177587142Y-87163333D01*
X177491904Y-87115714D01*
X177206190Y-87115714D01*
X177110952Y-87163333D01*
X177063333Y-87210952D01*
X177015714Y-87306190D01*
X177015714Y-87449047D01*
X177063333Y-87544285D01*
X177110952Y-87591904D01*
X177206190Y-87639523D01*
X177491904Y-87639523D01*
X177587142Y-87591904D01*
X177634761Y-87544285D01*
X177682380Y-87449047D01*
X177682380Y-87306190D01*
X177682380Y-88068095D02*
X177015714Y-88068095D01*
X177206190Y-88068095D02*
X177110952Y-88115714D01*
X177063333Y-88163333D01*
X177015714Y-88258571D01*
X177015714Y-88353809D01*
X176682380Y-89449047D02*
X177491904Y-89449047D01*
X177587142Y-89496666D01*
X177634761Y-89544285D01*
X177682380Y-89639523D01*
X177682380Y-89830000D01*
X177634761Y-89925238D01*
X177587142Y-89972857D01*
X177491904Y-90020476D01*
X176682380Y-90020476D01*
X177634761Y-90449047D02*
X177682380Y-90591904D01*
X177682380Y-90830000D01*
X177634761Y-90925238D01*
X177587142Y-90972857D01*
X177491904Y-91020476D01*
X177396666Y-91020476D01*
X177301428Y-90972857D01*
X177253809Y-90925238D01*
X177206190Y-90830000D01*
X177158571Y-90639523D01*
X177110952Y-90544285D01*
X177063333Y-90496666D01*
X176968095Y-90449047D01*
X176872857Y-90449047D01*
X176777619Y-90496666D01*
X176730000Y-90544285D01*
X176682380Y-90639523D01*
X176682380Y-90877619D01*
X176730000Y-91020476D01*
X177158571Y-91782380D02*
X177206190Y-91925238D01*
X177253809Y-91972857D01*
X177349047Y-92020476D01*
X177491904Y-92020476D01*
X177587142Y-91972857D01*
X177634761Y-91925238D01*
X177682380Y-91830000D01*
X177682380Y-91449047D01*
X176682380Y-91449047D01*
X176682380Y-91782380D01*
X176730000Y-91877619D01*
X176777619Y-91925238D01*
X176872857Y-91972857D01*
X176968095Y-91972857D01*
X177063333Y-91925238D01*
X177110952Y-91877619D01*
X177158571Y-91782380D01*
X177158571Y-91449047D01*
X177015714Y-93068095D02*
X177015714Y-93449047D01*
X177682380Y-93210952D02*
X176825238Y-93210952D01*
X176730000Y-93258571D01*
X176682380Y-93353809D01*
X176682380Y-93449047D01*
X177015714Y-94210952D02*
X177682380Y-94210952D01*
X177015714Y-93782380D02*
X177539523Y-93782380D01*
X177634761Y-93830000D01*
X177682380Y-93925238D01*
X177682380Y-94068095D01*
X177634761Y-94163333D01*
X177587142Y-94210952D01*
X177015714Y-94687142D02*
X177682380Y-94687142D01*
X177110952Y-94687142D02*
X177063333Y-94734761D01*
X177015714Y-94830000D01*
X177015714Y-94972857D01*
X177063333Y-95068095D01*
X177158571Y-95115714D01*
X177682380Y-95115714D01*
X177634761Y-96020476D02*
X177682380Y-95925238D01*
X177682380Y-95734761D01*
X177634761Y-95639523D01*
X177587142Y-95591904D01*
X177491904Y-95544285D01*
X177206190Y-95544285D01*
X177110952Y-95591904D01*
X177063333Y-95639523D01*
X177015714Y-95734761D01*
X177015714Y-95925238D01*
X177063333Y-96020476D01*
X177015714Y-96306190D02*
X177015714Y-96687142D01*
X176682380Y-96449047D02*
X177539523Y-96449047D01*
X177634761Y-96496666D01*
X177682380Y-96591904D01*
X177682380Y-96687142D01*
X177682380Y-97020476D02*
X177015714Y-97020476D01*
X176682380Y-97020476D02*
X176730000Y-96972857D01*
X176777619Y-97020476D01*
X176730000Y-97068095D01*
X176682380Y-97020476D01*
X176777619Y-97020476D01*
X177682380Y-97639523D02*
X177634761Y-97544285D01*
X177587142Y-97496666D01*
X177491904Y-97449047D01*
X177206190Y-97449047D01*
X177110952Y-97496666D01*
X177063333Y-97544285D01*
X177015714Y-97639523D01*
X177015714Y-97782380D01*
X177063333Y-97877619D01*
X177110952Y-97925238D01*
X177206190Y-97972857D01*
X177491904Y-97972857D01*
X177587142Y-97925238D01*
X177634761Y-97877619D01*
X177682380Y-97782380D01*
X177682380Y-97639523D01*
X177015714Y-98401428D02*
X177682380Y-98401428D01*
X177110952Y-98401428D02*
X177063333Y-98449047D01*
X177015714Y-98544285D01*
X177015714Y-98687142D01*
X177063333Y-98782380D01*
X177158571Y-98830000D01*
X177682380Y-98830000D01*
X177587142Y-99306190D02*
X177634761Y-99353809D01*
X177682380Y-99306190D01*
X177634761Y-99258571D01*
X177587142Y-99306190D01*
X177682380Y-99306190D01*
X177682380Y-100544285D02*
X176682380Y-100544285D01*
X177158571Y-100544285D02*
X177158571Y-101115714D01*
X177682380Y-101115714D02*
X176682380Y-101115714D01*
X177682380Y-101734761D02*
X177634761Y-101639523D01*
X177587142Y-101591904D01*
X177491904Y-101544285D01*
X177206190Y-101544285D01*
X177110952Y-101591904D01*
X177063333Y-101639523D01*
X177015714Y-101734761D01*
X177015714Y-101877619D01*
X177063333Y-101972857D01*
X177110952Y-102020476D01*
X177206190Y-102068095D01*
X177491904Y-102068095D01*
X177587142Y-102020476D01*
X177634761Y-101972857D01*
X177682380Y-101877619D01*
X177682380Y-101734761D01*
X177682380Y-102639523D02*
X177634761Y-102544285D01*
X177539523Y-102496666D01*
X176682380Y-102496666D01*
X177682380Y-103449047D02*
X176682380Y-103449047D01*
X177634761Y-103449047D02*
X177682380Y-103353809D01*
X177682380Y-103163333D01*
X177634761Y-103068095D01*
X177587142Y-103020476D01*
X177491904Y-102972857D01*
X177206190Y-102972857D01*
X177110952Y-103020476D01*
X177063333Y-103068095D01*
X177015714Y-103163333D01*
X177015714Y-103353809D01*
X177063333Y-103449047D01*
X177682380Y-105115714D02*
X176682380Y-105115714D01*
X177634761Y-105115714D02*
X177682380Y-105020476D01*
X177682380Y-104830000D01*
X177634761Y-104734761D01*
X177587142Y-104687142D01*
X177491904Y-104639523D01*
X177206190Y-104639523D01*
X177110952Y-104687142D01*
X177063333Y-104734761D01*
X177015714Y-104830000D01*
X177015714Y-105020476D01*
X177063333Y-105115714D01*
X177682380Y-105734761D02*
X177634761Y-105639523D01*
X177587142Y-105591904D01*
X177491904Y-105544285D01*
X177206190Y-105544285D01*
X177110952Y-105591904D01*
X177063333Y-105639523D01*
X177015714Y-105734761D01*
X177015714Y-105877619D01*
X177063333Y-105972857D01*
X177110952Y-106020476D01*
X177206190Y-106068095D01*
X177491904Y-106068095D01*
X177587142Y-106020476D01*
X177634761Y-105972857D01*
X177682380Y-105877619D01*
X177682380Y-105734761D01*
X177015714Y-106401428D02*
X177682380Y-106591904D01*
X177206190Y-106782380D01*
X177682380Y-106972857D01*
X177015714Y-107163333D01*
X177015714Y-107544285D02*
X177682380Y-107544285D01*
X177110952Y-107544285D02*
X177063333Y-107591904D01*
X177015714Y-107687142D01*
X177015714Y-107830000D01*
X177063333Y-107925238D01*
X177158571Y-107972857D01*
X177682380Y-107972857D01*
X177682380Y-109687142D02*
X177682380Y-109210952D01*
X176682380Y-109210952D01*
X177158571Y-110020476D02*
X177158571Y-110353809D01*
X177682380Y-110496666D02*
X177682380Y-110020476D01*
X176682380Y-110020476D01*
X176682380Y-110496666D01*
X177158571Y-111258571D02*
X177158571Y-110925238D01*
X177682380Y-110925238D02*
X176682380Y-110925238D01*
X176682380Y-111401428D01*
X176682380Y-111639523D02*
X176682380Y-112210952D01*
X177682380Y-111925238D02*
X176682380Y-111925238D01*
X177301428Y-113306190D02*
X177301428Y-114068095D01*
X177682380Y-113687142D02*
X176920476Y-113687142D01*
X179332380Y-88449047D02*
X178856190Y-88115714D01*
X179332380Y-87877619D02*
X178332380Y-87877619D01*
X178332380Y-88258571D01*
X178380000Y-88353809D01*
X178427619Y-88401428D01*
X178522857Y-88449047D01*
X178665714Y-88449047D01*
X178760952Y-88401428D01*
X178808571Y-88353809D01*
X178856190Y-88258571D01*
X178856190Y-87877619D01*
X179332380Y-88877619D02*
X178332380Y-88877619D01*
X178380000Y-89877619D02*
X178332380Y-89782380D01*
X178332380Y-89639523D01*
X178380000Y-89496666D01*
X178475238Y-89401428D01*
X178570476Y-89353809D01*
X178760952Y-89306190D01*
X178903809Y-89306190D01*
X179094285Y-89353809D01*
X179189523Y-89401428D01*
X179284761Y-89496666D01*
X179332380Y-89639523D01*
X179332380Y-89734761D01*
X179284761Y-89877619D01*
X179237142Y-89925238D01*
X178903809Y-89925238D01*
X178903809Y-89734761D01*
X179332380Y-90353809D02*
X178332380Y-90353809D01*
X178808571Y-90353809D02*
X178808571Y-90925238D01*
X179332380Y-90925238D02*
X178332380Y-90925238D01*
X178332380Y-91258571D02*
X178332380Y-91830000D01*
X179332380Y-91544285D02*
X178332380Y-91544285D01*
X179332380Y-92925238D02*
X178332380Y-92925238D01*
X178951428Y-93020476D02*
X179332380Y-93306190D01*
X178665714Y-93306190D02*
X179046666Y-92925238D01*
X179284761Y-94115714D02*
X179332380Y-94020476D01*
X179332380Y-93830000D01*
X179284761Y-93734761D01*
X179189523Y-93687142D01*
X178808571Y-93687142D01*
X178713333Y-93734761D01*
X178665714Y-93830000D01*
X178665714Y-94020476D01*
X178713333Y-94115714D01*
X178808571Y-94163333D01*
X178903809Y-94163333D01*
X178999047Y-93687142D01*
X178665714Y-94496666D02*
X179332380Y-94734761D01*
X178665714Y-94972857D02*
X179332380Y-94734761D01*
X179570476Y-94639523D01*
X179618095Y-94591904D01*
X179665714Y-94496666D01*
X179332380Y-96258571D02*
X179284761Y-96163333D01*
X179237142Y-96115714D01*
X179141904Y-96068095D01*
X178856190Y-96068095D01*
X178760952Y-96115714D01*
X178713333Y-96163333D01*
X178665714Y-96258571D01*
X178665714Y-96401428D01*
X178713333Y-96496666D01*
X178760952Y-96544285D01*
X178856190Y-96591904D01*
X179141904Y-96591904D01*
X179237142Y-96544285D01*
X179284761Y-96496666D01*
X179332380Y-96401428D01*
X179332380Y-96258571D01*
X178665714Y-97020476D02*
X179332380Y-97020476D01*
X178760952Y-97020476D02*
X178713333Y-97068095D01*
X178665714Y-97163333D01*
X178665714Y-97306190D01*
X178713333Y-97401428D01*
X178808571Y-97449047D01*
X179332380Y-97449047D01*
X178665714Y-98687142D02*
X179665714Y-98687142D01*
X178713333Y-98687142D02*
X178665714Y-98782380D01*
X178665714Y-98972857D01*
X178713333Y-99068095D01*
X178760952Y-99115714D01*
X178856190Y-99163333D01*
X179141904Y-99163333D01*
X179237142Y-99115714D01*
X179284761Y-99068095D01*
X179332380Y-98972857D01*
X179332380Y-98782380D01*
X179284761Y-98687142D01*
X179332380Y-99734761D02*
X179284761Y-99639523D01*
X179237142Y-99591904D01*
X179141904Y-99544285D01*
X178856190Y-99544285D01*
X178760952Y-99591904D01*
X178713333Y-99639523D01*
X178665714Y-99734761D01*
X178665714Y-99877619D01*
X178713333Y-99972857D01*
X178760952Y-100020476D01*
X178856190Y-100068095D01*
X179141904Y-100068095D01*
X179237142Y-100020476D01*
X179284761Y-99972857D01*
X179332380Y-99877619D01*
X179332380Y-99734761D01*
X178665714Y-100401428D02*
X179332380Y-100591904D01*
X178856190Y-100782380D01*
X179332380Y-100972857D01*
X178665714Y-101163333D01*
X179284761Y-101925238D02*
X179332380Y-101830000D01*
X179332380Y-101639523D01*
X179284761Y-101544285D01*
X179189523Y-101496666D01*
X178808571Y-101496666D01*
X178713333Y-101544285D01*
X178665714Y-101639523D01*
X178665714Y-101830000D01*
X178713333Y-101925238D01*
X178808571Y-101972857D01*
X178903809Y-101972857D01*
X178999047Y-101496666D01*
X179332380Y-102401428D02*
X178665714Y-102401428D01*
X178856190Y-102401428D02*
X178760952Y-102449047D01*
X178713333Y-102496666D01*
X178665714Y-102591904D01*
X178665714Y-102687142D01*
X178665714Y-103449047D02*
X179332380Y-103449047D01*
X178665714Y-103020476D02*
X179189523Y-103020476D01*
X179284761Y-103068095D01*
X179332380Y-103163333D01*
X179332380Y-103306190D01*
X179284761Y-103401428D01*
X179237142Y-103449047D01*
X178665714Y-103925238D02*
X179665714Y-103925238D01*
X178713333Y-103925238D02*
X178665714Y-104020476D01*
X178665714Y-104210952D01*
X178713333Y-104306190D01*
X178760952Y-104353809D01*
X178856190Y-104401428D01*
X179141904Y-104401428D01*
X179237142Y-104353809D01*
X179284761Y-104306190D01*
X179332380Y-104210952D01*
X179332380Y-104020476D01*
X179284761Y-103925238D01*
X178665714Y-105449047D02*
X178665714Y-105829999D01*
X178332380Y-105591904D02*
X179189523Y-105591904D01*
X179284761Y-105639523D01*
X179332380Y-105734761D01*
X179332380Y-105829999D01*
X179332380Y-106306190D02*
X179284761Y-106210952D01*
X179237142Y-106163333D01*
X179141904Y-106115714D01*
X178856190Y-106115714D01*
X178760952Y-106163333D01*
X178713333Y-106210952D01*
X178665714Y-106306190D01*
X178665714Y-106449047D01*
X178713333Y-106544285D01*
X178760952Y-106591904D01*
X178856190Y-106639523D01*
X179141904Y-106639523D01*
X179237142Y-106591904D01*
X179284761Y-106544285D01*
X179332380Y-106449047D01*
X179332380Y-106306190D01*
X179284761Y-108210952D02*
X179332380Y-108115714D01*
X179332380Y-107925238D01*
X179284761Y-107830000D01*
X179189523Y-107782380D01*
X178808571Y-107782380D01*
X178713333Y-107830000D01*
X178665714Y-107925238D01*
X178665714Y-108115714D01*
X178713333Y-108210952D01*
X178808571Y-108258571D01*
X178903809Y-108258571D01*
X178999047Y-107782380D01*
X178665714Y-108687142D02*
X179332380Y-108687142D01*
X178760952Y-108687142D02*
X178713333Y-108734761D01*
X178665714Y-108830000D01*
X178665714Y-108972857D01*
X178713333Y-109068095D01*
X178808571Y-109115714D01*
X179332380Y-109115714D01*
X179332380Y-110020476D02*
X178808571Y-110020476D01*
X178713333Y-109972857D01*
X178665714Y-109877619D01*
X178665714Y-109687142D01*
X178713333Y-109591904D01*
X179284761Y-110020476D02*
X179332380Y-109925238D01*
X179332380Y-109687142D01*
X179284761Y-109591904D01*
X179189523Y-109544285D01*
X179094285Y-109544285D01*
X178999047Y-109591904D01*
X178951428Y-109687142D01*
X178951428Y-109925238D01*
X178903809Y-110020476D01*
X179332380Y-110496666D02*
X178332380Y-110496666D01*
X178713333Y-110496666D02*
X178665714Y-110591904D01*
X178665714Y-110782380D01*
X178713333Y-110877619D01*
X178760952Y-110925238D01*
X178856190Y-110972857D01*
X179141904Y-110972857D01*
X179237142Y-110925238D01*
X179284761Y-110877619D01*
X179332380Y-110782380D01*
X179332380Y-110591904D01*
X179284761Y-110496666D01*
X179332380Y-111544285D02*
X179284761Y-111449047D01*
X179189523Y-111401428D01*
X178332380Y-111401428D01*
X179284761Y-112306190D02*
X179332380Y-112210952D01*
X179332380Y-112020476D01*
X179284761Y-111925238D01*
X179189523Y-111877619D01*
X178808571Y-111877619D01*
X178713333Y-111925238D01*
X178665714Y-112020476D01*
X178665714Y-112210952D01*
X178713333Y-112306190D01*
X178808571Y-112353809D01*
X178903809Y-112353809D01*
X178999047Y-111877619D01*
X179237142Y-112782380D02*
X179284761Y-112830000D01*
X179332380Y-112782380D01*
X179284761Y-112734761D01*
X179237142Y-112782380D01*
X179332380Y-112782380D01*
X182108571Y-86377619D02*
X182108571Y-86044285D01*
X182632380Y-86044285D02*
X181632380Y-86044285D01*
X181632380Y-86520476D01*
X182632380Y-86901428D02*
X181632380Y-86901428D01*
X182632380Y-87949047D02*
X182156190Y-87615714D01*
X182632380Y-87377619D02*
X181632380Y-87377619D01*
X181632380Y-87758571D01*
X181680000Y-87853809D01*
X181727619Y-87901428D01*
X181822857Y-87949047D01*
X181965714Y-87949047D01*
X182060952Y-87901428D01*
X182108571Y-87853809D01*
X182156190Y-87758571D01*
X182156190Y-87377619D01*
X182108571Y-88377619D02*
X182108571Y-88710952D01*
X182632380Y-88853809D02*
X182632380Y-88377619D01*
X181632380Y-88377619D01*
X181632380Y-88853809D01*
X181727619Y-89234761D02*
X181680000Y-89282380D01*
X181632380Y-89377619D01*
X181632380Y-89615714D01*
X181680000Y-89710952D01*
X181727619Y-89758571D01*
X181822857Y-89806190D01*
X181918095Y-89806190D01*
X182060952Y-89758571D01*
X182632380Y-89187142D01*
X182632380Y-89806190D01*
X181584761Y-90949047D02*
X182870476Y-90091904D01*
X181632380Y-91187142D02*
X181632380Y-91806190D01*
X182013333Y-91472857D01*
X182013333Y-91615714D01*
X182060952Y-91710952D01*
X182108571Y-91758571D01*
X182203809Y-91806190D01*
X182441904Y-91806190D01*
X182537142Y-91758571D01*
X182584761Y-91710952D01*
X182632380Y-91615714D01*
X182632380Y-91330000D01*
X182584761Y-91234761D01*
X182537142Y-91187142D01*
X181965714Y-92996666D02*
X182965714Y-92996666D01*
X182013333Y-92996666D02*
X181965714Y-93091904D01*
X181965714Y-93282380D01*
X182013333Y-93377619D01*
X182060952Y-93425238D01*
X182156190Y-93472857D01*
X182441904Y-93472857D01*
X182537142Y-93425238D01*
X182584761Y-93377619D01*
X182632380Y-93282380D01*
X182632380Y-93091904D01*
X182584761Y-92996666D01*
X182632380Y-94044285D02*
X182584761Y-93949047D01*
X182537142Y-93901428D01*
X182441904Y-93853809D01*
X182156190Y-93853809D01*
X182060952Y-93901428D01*
X182013333Y-93949047D01*
X181965714Y-94044285D01*
X181965714Y-94187142D01*
X182013333Y-94282380D01*
X182060952Y-94330000D01*
X182156190Y-94377619D01*
X182441904Y-94377619D01*
X182537142Y-94330000D01*
X182584761Y-94282380D01*
X182632380Y-94187142D01*
X182632380Y-94044285D01*
X182632380Y-94949047D02*
X182584761Y-94853809D01*
X182489523Y-94806190D01*
X181632380Y-94806190D01*
X182632380Y-95758571D02*
X182108571Y-95758571D01*
X182013333Y-95710952D01*
X181965714Y-95615714D01*
X181965714Y-95425238D01*
X182013333Y-95330000D01*
X182584761Y-95758571D02*
X182632380Y-95663333D01*
X182632380Y-95425238D01*
X182584761Y-95330000D01*
X182489523Y-95282380D01*
X182394285Y-95282380D01*
X182299047Y-95330000D01*
X182251428Y-95425238D01*
X182251428Y-95663333D01*
X182203809Y-95758571D01*
X182632380Y-96234761D02*
X181965714Y-96234761D01*
X182156190Y-96234761D02*
X182060952Y-96282380D01*
X182013333Y-96329999D01*
X181965714Y-96425238D01*
X181965714Y-96520476D01*
X182632380Y-96853809D02*
X181965714Y-96853809D01*
X181632380Y-96853809D02*
X181680000Y-96806190D01*
X181727619Y-96853809D01*
X181680000Y-96901428D01*
X181632380Y-96853809D01*
X181727619Y-96853809D01*
X181965714Y-97187142D02*
X181965714Y-97568095D01*
X181632380Y-97330000D02*
X182489523Y-97330000D01*
X182584761Y-97377619D01*
X182632380Y-97472857D01*
X182632380Y-97568095D01*
X181965714Y-97806190D02*
X182632380Y-98044285D01*
X181965714Y-98282380D02*
X182632380Y-98044285D01*
X182870476Y-97949047D01*
X182918095Y-97901428D01*
X182965714Y-97806190D01*
X182632380Y-99425238D02*
X181965714Y-99425238D01*
X182060952Y-99425238D02*
X182013333Y-99472857D01*
X181965714Y-99568095D01*
X181965714Y-99710952D01*
X182013333Y-99806190D01*
X182108571Y-99853809D01*
X182632380Y-99853809D01*
X182108571Y-99853809D02*
X182013333Y-99901428D01*
X181965714Y-99996666D01*
X181965714Y-100139523D01*
X182013333Y-100234761D01*
X182108571Y-100282380D01*
X182632380Y-100282380D01*
X181965714Y-101187142D02*
X182632380Y-101187142D01*
X181965714Y-100758571D02*
X182489523Y-100758571D01*
X182584761Y-100806190D01*
X182632380Y-100901428D01*
X182632380Y-101044285D01*
X182584761Y-101139523D01*
X182537142Y-101187142D01*
X182584761Y-101615714D02*
X182632380Y-101710952D01*
X182632380Y-101901428D01*
X182584761Y-101996666D01*
X182489523Y-102044285D01*
X182441904Y-102044285D01*
X182346666Y-101996666D01*
X182299047Y-101901428D01*
X182299047Y-101758571D01*
X182251428Y-101663333D01*
X182156190Y-101615714D01*
X182108571Y-101615714D01*
X182013333Y-101663333D01*
X181965714Y-101758571D01*
X181965714Y-101901428D01*
X182013333Y-101996666D01*
X181965714Y-102329999D02*
X181965714Y-102710952D01*
X181632380Y-102472857D02*
X182489523Y-102472857D01*
X182584761Y-102520476D01*
X182632380Y-102615714D01*
X182632380Y-102710952D01*
X182632380Y-103806190D02*
X181632380Y-103806190D01*
X182013333Y-103806190D02*
X181965714Y-103901428D01*
X181965714Y-104091904D01*
X182013333Y-104187142D01*
X182060952Y-104234761D01*
X182156190Y-104282380D01*
X182441904Y-104282380D01*
X182537142Y-104234761D01*
X182584761Y-104187142D01*
X182632380Y-104091904D01*
X182632380Y-103901428D01*
X182584761Y-103806190D01*
X182584761Y-105091904D02*
X182632380Y-104996666D01*
X182632380Y-104806190D01*
X182584761Y-104710952D01*
X182489523Y-104663333D01*
X182108571Y-104663333D01*
X182013333Y-104710952D01*
X181965714Y-104806190D01*
X181965714Y-104996666D01*
X182013333Y-105091904D01*
X182108571Y-105139523D01*
X182203809Y-105139523D01*
X182299047Y-104663333D01*
X182584761Y-106282380D02*
X182632380Y-106377619D01*
X182632380Y-106568095D01*
X182584761Y-106663333D01*
X182489523Y-106710952D01*
X182441904Y-106710952D01*
X182346666Y-106663333D01*
X182299047Y-106568095D01*
X182299047Y-106425238D01*
X182251428Y-106329999D01*
X182156190Y-106282380D01*
X182108571Y-106282380D01*
X182013333Y-106329999D01*
X181965714Y-106425238D01*
X181965714Y-106568095D01*
X182013333Y-106663333D01*
X182584761Y-107520476D02*
X182632380Y-107425238D01*
X182632380Y-107234761D01*
X182584761Y-107139523D01*
X182489523Y-107091904D01*
X182108571Y-107091904D01*
X182013333Y-107139523D01*
X181965714Y-107234761D01*
X181965714Y-107425238D01*
X182013333Y-107520476D01*
X182108571Y-107568095D01*
X182203809Y-107568095D01*
X182299047Y-107091904D01*
X181965714Y-107853809D02*
X181965714Y-108234761D01*
X181632380Y-107996666D02*
X182489523Y-107996666D01*
X182584761Y-108044285D01*
X182632380Y-108139523D01*
X182632380Y-108234761D01*
X181965714Y-109187142D02*
X181965714Y-109568095D01*
X181632380Y-109329999D02*
X182489523Y-109329999D01*
X182584761Y-109377619D01*
X182632380Y-109472857D01*
X182632380Y-109568095D01*
X182632380Y-110044285D02*
X182584761Y-109949047D01*
X182537142Y-109901428D01*
X182441904Y-109853809D01*
X182156190Y-109853809D01*
X182060952Y-109901428D01*
X182013333Y-109949047D01*
X181965714Y-110044285D01*
X181965714Y-110187142D01*
X182013333Y-110282380D01*
X182060952Y-110329999D01*
X182156190Y-110377619D01*
X182441904Y-110377619D01*
X182537142Y-110329999D01*
X182584761Y-110282380D01*
X182632380Y-110187142D01*
X182632380Y-110044285D01*
X181680000Y-112091904D02*
X181632380Y-111996666D01*
X181632380Y-111853809D01*
X181680000Y-111710952D01*
X181775238Y-111615714D01*
X181870476Y-111568095D01*
X182060952Y-111520476D01*
X182203809Y-111520476D01*
X182394285Y-111568095D01*
X182489523Y-111615714D01*
X182584761Y-111710952D01*
X182632380Y-111853809D01*
X182632380Y-111949047D01*
X182584761Y-112091904D01*
X182537142Y-112139523D01*
X182203809Y-112139523D01*
X182203809Y-111949047D01*
X182632380Y-112568095D02*
X181632380Y-112568095D01*
X182632380Y-113139523D01*
X181632380Y-113139523D01*
X182632380Y-113615714D02*
X181632380Y-113615714D01*
X181632380Y-113853809D01*
X181680000Y-113996666D01*
X181775238Y-114091904D01*
X181870476Y-114139523D01*
X182060952Y-114187142D01*
X182203809Y-114187142D01*
X182394285Y-114139523D01*
X182489523Y-114091904D01*
X182584761Y-113996666D01*
X182632380Y-113853809D01*
X182632380Y-113615714D01*
X182584761Y-114663333D02*
X182632380Y-114663333D01*
X182727619Y-114615714D01*
X182775238Y-114568095D01*
X184282380Y-84210952D02*
X183282380Y-84210952D01*
X183901428Y-84306190D02*
X184282380Y-84591904D01*
X183615714Y-84591904D02*
X183996666Y-84210952D01*
X184234761Y-85401428D02*
X184282380Y-85306190D01*
X184282380Y-85115714D01*
X184234761Y-85020476D01*
X184139523Y-84972857D01*
X183758571Y-84972857D01*
X183663333Y-85020476D01*
X183615714Y-85115714D01*
X183615714Y-85306190D01*
X183663333Y-85401428D01*
X183758571Y-85449047D01*
X183853809Y-85449047D01*
X183949047Y-84972857D01*
X183615714Y-85782380D02*
X184282380Y-86020476D01*
X183615714Y-86258571D02*
X184282380Y-86020476D01*
X184520476Y-85925238D01*
X184568095Y-85877619D01*
X184615714Y-85782380D01*
X184234761Y-86591904D02*
X184282380Y-86687142D01*
X184282380Y-86877619D01*
X184234761Y-86972857D01*
X184139523Y-87020476D01*
X184091904Y-87020476D01*
X183996666Y-86972857D01*
X183949047Y-86877619D01*
X183949047Y-86734761D01*
X183901428Y-86639523D01*
X183806190Y-86591904D01*
X183758571Y-86591904D01*
X183663333Y-86639523D01*
X183615714Y-86734761D01*
X183615714Y-86877619D01*
X183663333Y-86972857D01*
X183615714Y-88115714D02*
X184282380Y-88306190D01*
X183806190Y-88496666D01*
X184282380Y-88687142D01*
X183615714Y-88877619D01*
X184282380Y-89258571D02*
X183615714Y-89258571D01*
X183282380Y-89258571D02*
X183330000Y-89210952D01*
X183377619Y-89258571D01*
X183330000Y-89306190D01*
X183282380Y-89258571D01*
X183377619Y-89258571D01*
X184282380Y-89877619D02*
X184234761Y-89782380D01*
X184139523Y-89734761D01*
X183282380Y-89734761D01*
X184282380Y-90401428D02*
X184234761Y-90306190D01*
X184139523Y-90258571D01*
X183282380Y-90258571D01*
X184282380Y-91544285D02*
X183282380Y-91544285D01*
X183663333Y-91544285D02*
X183615714Y-91639523D01*
X183615714Y-91830000D01*
X183663333Y-91925238D01*
X183710952Y-91972857D01*
X183806190Y-92020476D01*
X184091904Y-92020476D01*
X184187142Y-91972857D01*
X184234761Y-91925238D01*
X184282380Y-91830000D01*
X184282380Y-91639523D01*
X184234761Y-91544285D01*
X184234761Y-92830000D02*
X184282380Y-92734761D01*
X184282380Y-92544285D01*
X184234761Y-92449047D01*
X184139523Y-92401428D01*
X183758571Y-92401428D01*
X183663333Y-92449047D01*
X183615714Y-92544285D01*
X183615714Y-92734761D01*
X183663333Y-92830000D01*
X183758571Y-92877619D01*
X183853809Y-92877619D01*
X183949047Y-92401428D01*
X184282380Y-94496666D02*
X183282380Y-94496666D01*
X184234761Y-94496666D02*
X184282380Y-94401428D01*
X184282380Y-94210952D01*
X184234761Y-94115714D01*
X184187142Y-94068095D01*
X184091904Y-94020476D01*
X183806190Y-94020476D01*
X183710952Y-94068095D01*
X183663333Y-94115714D01*
X183615714Y-94210952D01*
X183615714Y-94401428D01*
X183663333Y-94496666D01*
X184282380Y-94972857D02*
X183615714Y-94972857D01*
X183282380Y-94972857D02*
X183330000Y-94925238D01*
X183377619Y-94972857D01*
X183330000Y-95020476D01*
X183282380Y-94972857D01*
X183377619Y-94972857D01*
X184234761Y-95401428D02*
X184282380Y-95496666D01*
X184282380Y-95687142D01*
X184234761Y-95782380D01*
X184139523Y-95830000D01*
X184091904Y-95830000D01*
X183996666Y-95782380D01*
X183949047Y-95687142D01*
X183949047Y-95544285D01*
X183901428Y-95449047D01*
X183806190Y-95401428D01*
X183758571Y-95401428D01*
X183663333Y-95449047D01*
X183615714Y-95544285D01*
X183615714Y-95687142D01*
X183663333Y-95782380D01*
X184282380Y-96687142D02*
X183758571Y-96687142D01*
X183663333Y-96639523D01*
X183615714Y-96544285D01*
X183615714Y-96353809D01*
X183663333Y-96258571D01*
X184234761Y-96687142D02*
X184282380Y-96591904D01*
X184282380Y-96353809D01*
X184234761Y-96258571D01*
X184139523Y-96210952D01*
X184044285Y-96210952D01*
X183949047Y-96258571D01*
X183901428Y-96353809D01*
X183901428Y-96591904D01*
X183853809Y-96687142D01*
X184282380Y-97163333D02*
X183282380Y-97163333D01*
X183663333Y-97163333D02*
X183615714Y-97258571D01*
X183615714Y-97449047D01*
X183663333Y-97544285D01*
X183710952Y-97591904D01*
X183806190Y-97639523D01*
X184091904Y-97639523D01*
X184187142Y-97591904D01*
X184234761Y-97544285D01*
X184282380Y-97449047D01*
X184282380Y-97258571D01*
X184234761Y-97163333D01*
X184282380Y-98210952D02*
X184234761Y-98115714D01*
X184139523Y-98068095D01*
X183282380Y-98068095D01*
X184234761Y-98972857D02*
X184282380Y-98877619D01*
X184282380Y-98687142D01*
X184234761Y-98591904D01*
X184139523Y-98544285D01*
X183758571Y-98544285D01*
X183663333Y-98591904D01*
X183615714Y-98687142D01*
X183615714Y-98877619D01*
X183663333Y-98972857D01*
X183758571Y-99020476D01*
X183853809Y-99020476D01*
X183949047Y-98544285D01*
X184282380Y-99877619D02*
X183282380Y-99877619D01*
X184234761Y-99877619D02*
X184282380Y-99782380D01*
X184282380Y-99591904D01*
X184234761Y-99496666D01*
X184187142Y-99449047D01*
X184091904Y-99401428D01*
X183806190Y-99401428D01*
X183710952Y-99449047D01*
X183663333Y-99496666D01*
X183615714Y-99591904D01*
X183615714Y-99782380D01*
X183663333Y-99877619D01*
X184282380Y-101115714D02*
X183615714Y-101115714D01*
X183282380Y-101115714D02*
X183330000Y-101068095D01*
X183377619Y-101115714D01*
X183330000Y-101163333D01*
X183282380Y-101115714D01*
X183377619Y-101115714D01*
X183615714Y-101591904D02*
X184282380Y-101591904D01*
X183710952Y-101591904D02*
X183663333Y-101639523D01*
X183615714Y-101734761D01*
X183615714Y-101877619D01*
X183663333Y-101972857D01*
X183758571Y-102020476D01*
X184282380Y-102020476D01*
X183282380Y-103258571D02*
X184091904Y-103258571D01*
X184187142Y-103306190D01*
X184234761Y-103353809D01*
X184282380Y-103449047D01*
X184282380Y-103639523D01*
X184234761Y-103734761D01*
X184187142Y-103782380D01*
X184091904Y-103830000D01*
X183282380Y-103830000D01*
X184234761Y-104258571D02*
X184282380Y-104401428D01*
X184282380Y-104639523D01*
X184234761Y-104734761D01*
X184187142Y-104782380D01*
X184091904Y-104830000D01*
X183996666Y-104830000D01*
X183901428Y-104782380D01*
X183853809Y-104734761D01*
X183806190Y-104639523D01*
X183758571Y-104449047D01*
X183710952Y-104353809D01*
X183663333Y-104306190D01*
X183568095Y-104258571D01*
X183472857Y-104258571D01*
X183377619Y-104306190D01*
X183330000Y-104353809D01*
X183282380Y-104449047D01*
X183282380Y-104687142D01*
X183330000Y-104830000D01*
X183758571Y-105591904D02*
X183806190Y-105734761D01*
X183853809Y-105782380D01*
X183949047Y-105830000D01*
X184091904Y-105830000D01*
X184187142Y-105782380D01*
X184234761Y-105734761D01*
X184282380Y-105639523D01*
X184282380Y-105258571D01*
X183282380Y-105258571D01*
X183282380Y-105591904D01*
X183330000Y-105687142D01*
X183377619Y-105734761D01*
X183472857Y-105782380D01*
X183568095Y-105782380D01*
X183663333Y-105734761D01*
X183710952Y-105687142D01*
X183758571Y-105591904D01*
X183758571Y-105258571D01*
X183901428Y-106258571D02*
X183901428Y-107020476D01*
X184282380Y-107496666D02*
X183615714Y-107496666D01*
X183710952Y-107496666D02*
X183663333Y-107544285D01*
X183615714Y-107639523D01*
X183615714Y-107782380D01*
X183663333Y-107877619D01*
X183758571Y-107925238D01*
X184282380Y-107925238D01*
X183758571Y-107925238D02*
X183663333Y-107972857D01*
X183615714Y-108068095D01*
X183615714Y-108210952D01*
X183663333Y-108306190D01*
X183758571Y-108353809D01*
X184282380Y-108353809D01*
X184282380Y-108972857D02*
X184234761Y-108877619D01*
X184187142Y-108830000D01*
X184091904Y-108782380D01*
X183806190Y-108782380D01*
X183710952Y-108830000D01*
X183663333Y-108877619D01*
X183615714Y-108972857D01*
X183615714Y-109115714D01*
X183663333Y-109210952D01*
X183710952Y-109258571D01*
X183806190Y-109306190D01*
X184091904Y-109306190D01*
X184187142Y-109258571D01*
X184234761Y-109210952D01*
X184282380Y-109115714D01*
X184282380Y-108972857D01*
X184282380Y-110163333D02*
X183282380Y-110163333D01*
X184234761Y-110163333D02*
X184282380Y-110068095D01*
X184282380Y-109877619D01*
X184234761Y-109782380D01*
X184187142Y-109734761D01*
X184091904Y-109687142D01*
X183806190Y-109687142D01*
X183710952Y-109734761D01*
X183663333Y-109782380D01*
X183615714Y-109877619D01*
X183615714Y-110068095D01*
X183663333Y-110163333D01*
X184234761Y-111020476D02*
X184282380Y-110925238D01*
X184282380Y-110734761D01*
X184234761Y-110639523D01*
X184139523Y-110591904D01*
X183758571Y-110591904D01*
X183663333Y-110639523D01*
X183615714Y-110734761D01*
X183615714Y-110925238D01*
X183663333Y-111020476D01*
X183758571Y-111068095D01*
X183853809Y-111068095D01*
X183949047Y-110591904D01*
X184282380Y-112258571D02*
X183615714Y-112258571D01*
X183282380Y-112258571D02*
X183330000Y-112210952D01*
X183377619Y-112258571D01*
X183330000Y-112306190D01*
X183282380Y-112258571D01*
X183377619Y-112258571D01*
X183615714Y-112591904D02*
X183615714Y-112972857D01*
X184282380Y-112734761D02*
X183425238Y-112734761D01*
X183330000Y-112782380D01*
X183282380Y-112877619D01*
X183282380Y-112972857D01*
X183615714Y-114068095D02*
X184282380Y-114068095D01*
X183710952Y-114068095D02*
X183663333Y-114115714D01*
X183615714Y-114210952D01*
X183615714Y-114353809D01*
X183663333Y-114449047D01*
X183758571Y-114496666D01*
X184282380Y-114496666D01*
X184282380Y-115115714D02*
X184234761Y-115020476D01*
X184187142Y-114972857D01*
X184091904Y-114925238D01*
X183806190Y-114925238D01*
X183710952Y-114972857D01*
X183663333Y-115020476D01*
X183615714Y-115115714D01*
X183615714Y-115258571D01*
X183663333Y-115353809D01*
X183710952Y-115401428D01*
X183806190Y-115449047D01*
X184091904Y-115449047D01*
X184187142Y-115401428D01*
X184234761Y-115353809D01*
X184282380Y-115258571D01*
X184282380Y-115115714D01*
X183615714Y-115734761D02*
X183615714Y-116115714D01*
X183282380Y-115877619D02*
X184139523Y-115877619D01*
X184234761Y-115925238D01*
X184282380Y-116020476D01*
X184282380Y-116115714D01*
X184187142Y-116449047D02*
X184234761Y-116496666D01*
X184282380Y-116449047D01*
X184234761Y-116401428D01*
X184187142Y-116449047D01*
X184282380Y-116449047D01*
D11*
X231775000Y-115570000D02*
X231140000Y-115570000D01*
X231140000Y-120650000D02*
X231140000Y-115570000D01*
X231775000Y-120650000D02*
X231140000Y-120650000D01*
X234950000Y-115570000D02*
X233045000Y-115570000D01*
X231140000Y-121285000D02*
X231140000Y-123190000D01*
X231140000Y-123190000D02*
X233680000Y-123190000D01*
X234950000Y-115570000D02*
X234950000Y-117475000D01*
X231775000Y-105410000D02*
X231140000Y-105410000D01*
X231140000Y-110490000D02*
X231140000Y-105410000D01*
X231775000Y-110490000D02*
X231140000Y-110490000D01*
X234950000Y-105410000D02*
X233045000Y-105410000D01*
X231140000Y-111125000D02*
X231140000Y-113030000D01*
X231140000Y-113030000D02*
X233680000Y-113030000D01*
D10*
X229431904Y-106883333D02*
X230231904Y-107150000D01*
X229431904Y-107416666D01*
X230155714Y-108140476D02*
X230193809Y-108102380D01*
X230231904Y-107988095D01*
X230231904Y-107911904D01*
X230193809Y-107797619D01*
X230117619Y-107721428D01*
X230041428Y-107683333D01*
X229889047Y-107645238D01*
X229774761Y-107645238D01*
X229622380Y-107683333D01*
X229546190Y-107721428D01*
X229470000Y-107797619D01*
X229431904Y-107911904D01*
X229431904Y-107988095D01*
X229470000Y-108102380D01*
X229508095Y-108140476D01*
X230155714Y-108940476D02*
X230193809Y-108902380D01*
X230231904Y-108788095D01*
X230231904Y-108711904D01*
X230193809Y-108597619D01*
X230117619Y-108521428D01*
X230041428Y-108483333D01*
X229889047Y-108445238D01*
X229774761Y-108445238D01*
X229622380Y-108483333D01*
X229546190Y-108521428D01*
X229470000Y-108597619D01*
X229431904Y-108711904D01*
X229431904Y-108788095D01*
X229470000Y-108902380D01*
X229508095Y-108940476D01*
D11*
X234950000Y-105410000D02*
X234950000Y-107315000D01*
D10*
X238687857Y-97840952D02*
X238687857Y-97574285D01*
X239106904Y-97574285D02*
X238306904Y-97574285D01*
X238306904Y-97955238D01*
X239106904Y-98260000D02*
X238306904Y-98260000D01*
X239106904Y-99098095D02*
X238725952Y-98831428D01*
X239106904Y-98640952D02*
X238306904Y-98640952D01*
X238306904Y-98945714D01*
X238345000Y-99021904D01*
X238383095Y-99060000D01*
X238459285Y-99098095D01*
X238573571Y-99098095D01*
X238649761Y-99060000D01*
X238687857Y-99021904D01*
X238725952Y-98945714D01*
X238725952Y-98640952D01*
X238687857Y-99440952D02*
X238687857Y-99707619D01*
X239106904Y-99821904D02*
X239106904Y-99440952D01*
X238306904Y-99440952D01*
X238306904Y-99821904D01*
X238306904Y-100088571D02*
X238306904Y-100583809D01*
X238611666Y-100317142D01*
X238611666Y-100431428D01*
X238649761Y-100507619D01*
X238687857Y-100545714D01*
X238764047Y-100583809D01*
X238954523Y-100583809D01*
X239030714Y-100545714D01*
X239068809Y-100507619D01*
X239106904Y-100431428D01*
X239106904Y-100202857D01*
X239068809Y-100126666D01*
X239030714Y-100088571D01*
X240368809Y-97079047D02*
X240406904Y-97193333D01*
X240406904Y-97383809D01*
X240368809Y-97460000D01*
X240330714Y-97498095D01*
X240254523Y-97536190D01*
X240178333Y-97536190D01*
X240102142Y-97498095D01*
X240064047Y-97460000D01*
X240025952Y-97383809D01*
X239987857Y-97231428D01*
X239949761Y-97155238D01*
X239911666Y-97117142D01*
X239835476Y-97079047D01*
X239759285Y-97079047D01*
X239683095Y-97117142D01*
X239645000Y-97155238D01*
X239606904Y-97231428D01*
X239606904Y-97421904D01*
X239645000Y-97536190D01*
X239987857Y-97879047D02*
X239987857Y-98145714D01*
X240406904Y-98260000D02*
X240406904Y-97879047D01*
X239606904Y-97879047D01*
X239606904Y-98260000D01*
X240406904Y-98983809D02*
X240406904Y-98602857D01*
X239606904Y-98602857D01*
X239987857Y-99250476D02*
X239987857Y-99517142D01*
X240406904Y-99631428D02*
X240406904Y-99250476D01*
X239606904Y-99250476D01*
X239606904Y-99631428D01*
X240330714Y-100431428D02*
X240368809Y-100393333D01*
X240406904Y-100279047D01*
X240406904Y-100202857D01*
X240368809Y-100088571D01*
X240292619Y-100012380D01*
X240216428Y-99974285D01*
X240064047Y-99936190D01*
X239949761Y-99936190D01*
X239797380Y-99974285D01*
X239721190Y-100012380D01*
X239645000Y-100088571D01*
X239606904Y-100202857D01*
X239606904Y-100279047D01*
X239645000Y-100393333D01*
X239683095Y-100431428D01*
X239606904Y-100660000D02*
X239606904Y-101117142D01*
X240406904Y-100888571D02*
X239606904Y-100888571D01*
X238687857Y-108000952D02*
X238687857Y-107734285D01*
X239106904Y-107734285D02*
X238306904Y-107734285D01*
X238306904Y-108115238D01*
X239106904Y-108420000D02*
X238306904Y-108420000D01*
X239106904Y-109258095D02*
X238725952Y-108991428D01*
X239106904Y-108800952D02*
X238306904Y-108800952D01*
X238306904Y-109105714D01*
X238345000Y-109181904D01*
X238383095Y-109220000D01*
X238459285Y-109258095D01*
X238573571Y-109258095D01*
X238649761Y-109220000D01*
X238687857Y-109181904D01*
X238725952Y-109105714D01*
X238725952Y-108800952D01*
X238687857Y-109600952D02*
X238687857Y-109867619D01*
X239106904Y-109981904D02*
X239106904Y-109600952D01*
X238306904Y-109600952D01*
X238306904Y-109981904D01*
X238306904Y-110248571D02*
X238306904Y-110743809D01*
X238611666Y-110477142D01*
X238611666Y-110591428D01*
X238649761Y-110667619D01*
X238687857Y-110705714D01*
X238764047Y-110743809D01*
X238954523Y-110743809D01*
X239030714Y-110705714D01*
X239068809Y-110667619D01*
X239106904Y-110591428D01*
X239106904Y-110362857D01*
X239068809Y-110286666D01*
X239030714Y-110248571D01*
X240406904Y-106686666D02*
X239606904Y-106686666D01*
X239606904Y-106991428D01*
X239645000Y-107067619D01*
X239683095Y-107105714D01*
X239759285Y-107143809D01*
X239873571Y-107143809D01*
X239949761Y-107105714D01*
X239987857Y-107067619D01*
X240025952Y-106991428D01*
X240025952Y-106686666D01*
X239606904Y-107639047D02*
X239606904Y-107791428D01*
X239645000Y-107867619D01*
X239721190Y-107943809D01*
X239873571Y-107981904D01*
X240140238Y-107981904D01*
X240292619Y-107943809D01*
X240368809Y-107867619D01*
X240406904Y-107791428D01*
X240406904Y-107639047D01*
X240368809Y-107562857D01*
X240292619Y-107486666D01*
X240140238Y-107448571D01*
X239873571Y-107448571D01*
X239721190Y-107486666D01*
X239645000Y-107562857D01*
X239606904Y-107639047D01*
X240406904Y-108705714D02*
X240406904Y-108324761D01*
X239606904Y-108324761D01*
X240178333Y-108934285D02*
X240178333Y-109315238D01*
X240406904Y-108858095D02*
X239606904Y-109124761D01*
X240406904Y-109391428D01*
X240406904Y-110115238D02*
X240025952Y-109848571D01*
X240406904Y-109658095D02*
X239606904Y-109658095D01*
X239606904Y-109962857D01*
X239645000Y-110039047D01*
X239683095Y-110077142D01*
X239759285Y-110115238D01*
X239873571Y-110115238D01*
X239949761Y-110077142D01*
X239987857Y-110039047D01*
X240025952Y-109962857D01*
X240025952Y-109658095D01*
X240406904Y-110458095D02*
X239606904Y-110458095D01*
X239606904Y-110724761D02*
X239606904Y-111181904D01*
X240406904Y-110953333D02*
X239606904Y-110953333D01*
X240025952Y-111600952D02*
X240406904Y-111600952D01*
X239606904Y-111334285D02*
X240025952Y-111600952D01*
X239606904Y-111867619D01*
D11*
X234950000Y-95250000D02*
X234950000Y-97155000D01*
D12*
X217845000Y-104934285D02*
X217845000Y-105410476D01*
X219212380Y-105172380D02*
X218212380Y-105172380D01*
X217845000Y-105410476D02*
X217845000Y-106553333D01*
X219212380Y-105648571D02*
X218212380Y-105648571D01*
X218926666Y-105981904D01*
X218212380Y-106315238D01*
X219212380Y-106315238D01*
X217845000Y-106553333D02*
X217845000Y-107553333D01*
X219212380Y-106791428D02*
X218212380Y-106791428D01*
X218212380Y-107172380D01*
X218260000Y-107267619D01*
X218307619Y-107315238D01*
X218402857Y-107362857D01*
X218545714Y-107362857D01*
X218640952Y-107315238D01*
X218688571Y-107267619D01*
X218736190Y-107172380D01*
X218736190Y-106791428D01*
X217845000Y-107553333D02*
X217845000Y-108600952D01*
X218212380Y-107981904D02*
X218212380Y-108172380D01*
X218260000Y-108267619D01*
X218355238Y-108362857D01*
X218545714Y-108410476D01*
X218879047Y-108410476D01*
X219069523Y-108362857D01*
X219164761Y-108267619D01*
X219212380Y-108172380D01*
X219212380Y-107981904D01*
X219164761Y-107886666D01*
X219069523Y-107791428D01*
X218879047Y-107743809D01*
X218545714Y-107743809D01*
X218355238Y-107791428D01*
X218260000Y-107886666D01*
X218212380Y-107981904D01*
X217845000Y-108600952D02*
X217845000Y-109600952D01*
X219212380Y-109410476D02*
X218736190Y-109077142D01*
X219212380Y-108839047D02*
X218212380Y-108839047D01*
X218212380Y-109220000D01*
X218260000Y-109315238D01*
X218307619Y-109362857D01*
X218402857Y-109410476D01*
X218545714Y-109410476D01*
X218640952Y-109362857D01*
X218688571Y-109315238D01*
X218736190Y-109220000D01*
X218736190Y-108839047D01*
X217845000Y-109600952D02*
X217845000Y-110362857D01*
X218212380Y-109696190D02*
X218212380Y-110267619D01*
X219212380Y-109981904D02*
X218212380Y-109981904D01*
X217845000Y-110362857D02*
X217845000Y-111220000D01*
X218926666Y-110553333D02*
X218926666Y-111029523D01*
X219212380Y-110458095D02*
X218212380Y-110791428D01*
X219212380Y-111124761D01*
X217845000Y-111220000D02*
X217845000Y-112267619D01*
X219212380Y-111458095D02*
X218212380Y-111458095D01*
X219212380Y-112029523D01*
X218212380Y-112029523D01*
X217845000Y-112267619D02*
X217845000Y-113029523D01*
X218212380Y-112362857D02*
X218212380Y-112934285D01*
X219212380Y-112648571D02*
X218212380Y-112648571D01*
X217845000Y-113029523D02*
X217845000Y-113505714D01*
X219117142Y-113267619D02*
X219164761Y-113315238D01*
X219212380Y-113267619D01*
X219164761Y-113220000D01*
X219117142Y-113267619D01*
X219212380Y-113267619D01*
X218831428Y-113267619D02*
X218260000Y-113220000D01*
X218212380Y-113267619D01*
X218260000Y-113315238D01*
X218831428Y-113267619D01*
X218212380Y-113267619D01*
X220767142Y-94100952D02*
X220814761Y-94053333D01*
X220862380Y-93910476D01*
X220862380Y-93815238D01*
X220814761Y-93672380D01*
X220719523Y-93577142D01*
X220624285Y-93529523D01*
X220433809Y-93481904D01*
X220290952Y-93481904D01*
X220100476Y-93529523D01*
X220005238Y-93577142D01*
X219910000Y-93672380D01*
X219862380Y-93815238D01*
X219862380Y-93910476D01*
X219910000Y-94053333D01*
X219957619Y-94100952D01*
X220862380Y-94672380D02*
X220814761Y-94577142D01*
X220767142Y-94529523D01*
X220671904Y-94481904D01*
X220386190Y-94481904D01*
X220290952Y-94529523D01*
X220243333Y-94577142D01*
X220195714Y-94672380D01*
X220195714Y-94815238D01*
X220243333Y-94910476D01*
X220290952Y-94958095D01*
X220386190Y-95005714D01*
X220671904Y-95005714D01*
X220767142Y-94958095D01*
X220814761Y-94910476D01*
X220862380Y-94815238D01*
X220862380Y-94672380D01*
X220195714Y-95434285D02*
X220862380Y-95434285D01*
X220290952Y-95434285D02*
X220243333Y-95481904D01*
X220195714Y-95577142D01*
X220195714Y-95720000D01*
X220243333Y-95815238D01*
X220338571Y-95862857D01*
X220862380Y-95862857D01*
X220195714Y-96196190D02*
X220195714Y-96577142D01*
X220862380Y-96339047D02*
X220005238Y-96339047D01*
X219910000Y-96386666D01*
X219862380Y-96481904D01*
X219862380Y-96577142D01*
X220862380Y-96910476D02*
X220195714Y-96910476D01*
X219862380Y-96910476D02*
X219910000Y-96862857D01*
X219957619Y-96910476D01*
X219910000Y-96958095D01*
X219862380Y-96910476D01*
X219957619Y-96910476D01*
X220195714Y-97815238D02*
X221005238Y-97815238D01*
X221100476Y-97767619D01*
X221148095Y-97720000D01*
X221195714Y-97624761D01*
X221195714Y-97481904D01*
X221148095Y-97386666D01*
X220814761Y-97815238D02*
X220862380Y-97720000D01*
X220862380Y-97529523D01*
X220814761Y-97434285D01*
X220767142Y-97386666D01*
X220671904Y-97339047D01*
X220386190Y-97339047D01*
X220290952Y-97386666D01*
X220243333Y-97434285D01*
X220195714Y-97529523D01*
X220195714Y-97720000D01*
X220243333Y-97815238D01*
X220195714Y-98720000D02*
X220862380Y-98720000D01*
X220195714Y-98291428D02*
X220719523Y-98291428D01*
X220814761Y-98339047D01*
X220862380Y-98434285D01*
X220862380Y-98577142D01*
X220814761Y-98672380D01*
X220767142Y-98720000D01*
X220862380Y-99196190D02*
X220195714Y-99196190D01*
X220386190Y-99196190D02*
X220290952Y-99243809D01*
X220243333Y-99291428D01*
X220195714Y-99386666D01*
X220195714Y-99481904D01*
X220814761Y-100196190D02*
X220862380Y-100100952D01*
X220862380Y-99910476D01*
X220814761Y-99815238D01*
X220719523Y-99767619D01*
X220338571Y-99767619D01*
X220243333Y-99815238D01*
X220195714Y-99910476D01*
X220195714Y-100100952D01*
X220243333Y-100196190D01*
X220338571Y-100243809D01*
X220433809Y-100243809D01*
X220529047Y-99767619D01*
X220338571Y-101767619D02*
X220338571Y-101434285D01*
X220862380Y-101434285D02*
X219862380Y-101434285D01*
X219862380Y-101910476D01*
X220862380Y-102291428D02*
X219862380Y-102291428D01*
X220862380Y-103339047D02*
X220386190Y-103005714D01*
X220862380Y-102767619D02*
X219862380Y-102767619D01*
X219862380Y-103148571D01*
X219910000Y-103243809D01*
X219957619Y-103291428D01*
X220052857Y-103339047D01*
X220195714Y-103339047D01*
X220290952Y-103291428D01*
X220338571Y-103243809D01*
X220386190Y-103148571D01*
X220386190Y-102767619D01*
X220338571Y-103767619D02*
X220338571Y-104100952D01*
X220862380Y-104243809D02*
X220862380Y-103767619D01*
X219862380Y-103767619D01*
X219862380Y-104243809D01*
X219957619Y-104624761D02*
X219910000Y-104672380D01*
X219862380Y-104767619D01*
X219862380Y-105005714D01*
X219910000Y-105100952D01*
X219957619Y-105148571D01*
X220052857Y-105196190D01*
X220148095Y-105196190D01*
X220290952Y-105148571D01*
X220862380Y-104577142D01*
X220862380Y-105196190D01*
X219814761Y-106339047D02*
X221100476Y-105481904D01*
X220338571Y-107005714D02*
X220338571Y-106672380D01*
X220862380Y-106672380D02*
X219862380Y-106672380D01*
X219862380Y-107148571D01*
X220862380Y-107529523D02*
X219862380Y-107529523D01*
X220862380Y-108577142D02*
X220386190Y-108243809D01*
X220862380Y-108005714D02*
X219862380Y-108005714D01*
X219862380Y-108386666D01*
X219910000Y-108481904D01*
X219957619Y-108529523D01*
X220052857Y-108577142D01*
X220195714Y-108577142D01*
X220290952Y-108529523D01*
X220338571Y-108481904D01*
X220386190Y-108386666D01*
X220386190Y-108005714D01*
X220338571Y-109005714D02*
X220338571Y-109339047D01*
X220862380Y-109481904D02*
X220862380Y-109005714D01*
X219862380Y-109005714D01*
X219862380Y-109481904D01*
X219862380Y-109815238D02*
X219862380Y-110434285D01*
X220243333Y-110100952D01*
X220243333Y-110243809D01*
X220290952Y-110339047D01*
X220338571Y-110386666D01*
X220433809Y-110434285D01*
X220671904Y-110434285D01*
X220767142Y-110386666D01*
X220814761Y-110339047D01*
X220862380Y-110243809D01*
X220862380Y-109958095D01*
X220814761Y-109862857D01*
X220767142Y-109815238D01*
X220195714Y-111624761D02*
X221195714Y-111624761D01*
X220243333Y-111624761D02*
X220195714Y-111720000D01*
X220195714Y-111910476D01*
X220243333Y-112005714D01*
X220290952Y-112053333D01*
X220386190Y-112100952D01*
X220671904Y-112100952D01*
X220767142Y-112053333D01*
X220814761Y-112005714D01*
X220862380Y-111910476D01*
X220862380Y-111720000D01*
X220814761Y-111624761D01*
X220862380Y-112672380D02*
X220814761Y-112577142D01*
X220767142Y-112529523D01*
X220671904Y-112481904D01*
X220386190Y-112481904D01*
X220290952Y-112529523D01*
X220243333Y-112577142D01*
X220195714Y-112672380D01*
X220195714Y-112815238D01*
X220243333Y-112910476D01*
X220290952Y-112958095D01*
X220386190Y-113005714D01*
X220671904Y-113005714D01*
X220767142Y-112958095D01*
X220814761Y-112910476D01*
X220862380Y-112815238D01*
X220862380Y-112672380D01*
X220862380Y-113577142D02*
X220814761Y-113481904D01*
X220719523Y-113434285D01*
X219862380Y-113434285D01*
X220862380Y-114386666D02*
X220338571Y-114386666D01*
X220243333Y-114339047D01*
X220195714Y-114243809D01*
X220195714Y-114053333D01*
X220243333Y-113958095D01*
X220814761Y-114386666D02*
X220862380Y-114291428D01*
X220862380Y-114053333D01*
X220814761Y-113958095D01*
X220719523Y-113910476D01*
X220624285Y-113910476D01*
X220529047Y-113958095D01*
X220481428Y-114053333D01*
X220481428Y-114291428D01*
X220433809Y-114386666D01*
X220862380Y-114862857D02*
X220195714Y-114862857D01*
X220386190Y-114862857D02*
X220290952Y-114910476D01*
X220243333Y-114958095D01*
X220195714Y-115053333D01*
X220195714Y-115148571D01*
X220862380Y-115481904D02*
X220195714Y-115481904D01*
X219862380Y-115481904D02*
X219910000Y-115434285D01*
X219957619Y-115481904D01*
X219910000Y-115529523D01*
X219862380Y-115481904D01*
X219957619Y-115481904D01*
X220195714Y-115815238D02*
X220195714Y-116196190D01*
X219862380Y-115958095D02*
X220719523Y-115958095D01*
X220814761Y-116005714D01*
X220862380Y-116100952D01*
X220862380Y-116196190D01*
X220195714Y-116434285D02*
X220862380Y-116672380D01*
X220195714Y-116910476D02*
X220862380Y-116672380D01*
X221100476Y-116577142D01*
X221148095Y-116529523D01*
X221195714Y-116434285D01*
X220862380Y-118481904D02*
X220338571Y-118481904D01*
X220243333Y-118434285D01*
X220195714Y-118339047D01*
X220195714Y-118148571D01*
X220243333Y-118053333D01*
X220814761Y-118481904D02*
X220862380Y-118386666D01*
X220862380Y-118148571D01*
X220814761Y-118053333D01*
X220719523Y-118005714D01*
X220624285Y-118005714D01*
X220529047Y-118053333D01*
X220481428Y-118148571D01*
X220481428Y-118386666D01*
X220433809Y-118481904D01*
X220814761Y-119386666D02*
X220862380Y-119291428D01*
X220862380Y-119100952D01*
X220814761Y-119005714D01*
X220767142Y-118958095D01*
X220671904Y-118910476D01*
X220386190Y-118910476D01*
X220290952Y-118958095D01*
X220243333Y-119005714D01*
X220195714Y-119100952D01*
X220195714Y-119291428D01*
X220243333Y-119386666D01*
X220814761Y-120243809D02*
X220862380Y-120148571D01*
X220862380Y-119958095D01*
X220814761Y-119862857D01*
X220767142Y-119815238D01*
X220671904Y-119767619D01*
X220386190Y-119767619D01*
X220290952Y-119815238D01*
X220243333Y-119862857D01*
X220195714Y-119958095D01*
X220195714Y-120148571D01*
X220243333Y-120243809D01*
X220862380Y-120815238D02*
X220814761Y-120720000D01*
X220767142Y-120672380D01*
X220671904Y-120624761D01*
X220386190Y-120624761D01*
X220290952Y-120672380D01*
X220243333Y-120720000D01*
X220195714Y-120815238D01*
X220195714Y-120958095D01*
X220243333Y-121053333D01*
X220290952Y-121100952D01*
X220386190Y-121148571D01*
X220671904Y-121148571D01*
X220767142Y-121100952D01*
X220814761Y-121053333D01*
X220862380Y-120958095D01*
X220862380Y-120815238D01*
X220862380Y-121577142D02*
X220195714Y-121577142D01*
X220386190Y-121577142D02*
X220290952Y-121624761D01*
X220243333Y-121672380D01*
X220195714Y-121767619D01*
X220195714Y-121862857D01*
X220862380Y-122624761D02*
X219862380Y-122624761D01*
X220814761Y-122624761D02*
X220862380Y-122529523D01*
X220862380Y-122339047D01*
X220814761Y-122243809D01*
X220767142Y-122196190D01*
X220671904Y-122148571D01*
X220386190Y-122148571D01*
X220290952Y-122196190D01*
X220243333Y-122243809D01*
X220195714Y-122339047D01*
X220195714Y-122529523D01*
X220243333Y-122624761D01*
X220862380Y-123100952D02*
X220195714Y-123100952D01*
X219862380Y-123100952D02*
X219910000Y-123053333D01*
X219957619Y-123100952D01*
X219910000Y-123148571D01*
X219862380Y-123100952D01*
X219957619Y-123100952D01*
X220195714Y-123577142D02*
X220862380Y-123577142D01*
X220290952Y-123577142D02*
X220243333Y-123624761D01*
X220195714Y-123720000D01*
X220195714Y-123862857D01*
X220243333Y-123958095D01*
X220338571Y-124005714D01*
X220862380Y-124005714D01*
X220195714Y-124910476D02*
X221005238Y-124910476D01*
X221100476Y-124862857D01*
X221148095Y-124815238D01*
X221195714Y-124720000D01*
X221195714Y-124577142D01*
X221148095Y-124481904D01*
X220814761Y-124910476D02*
X220862380Y-124815238D01*
X220862380Y-124624761D01*
X220814761Y-124529523D01*
X220767142Y-124481904D01*
X220671904Y-124434285D01*
X220386190Y-124434285D01*
X220290952Y-124481904D01*
X220243333Y-124529523D01*
X220195714Y-124624761D01*
X220195714Y-124815238D01*
X220243333Y-124910476D01*
X221845714Y-92196190D02*
X221845714Y-92577142D01*
X221512380Y-92339047D02*
X222369523Y-92339047D01*
X222464761Y-92386666D01*
X222512380Y-92481904D01*
X222512380Y-92577142D01*
X222512380Y-93053333D02*
X222464761Y-92958095D01*
X222417142Y-92910476D01*
X222321904Y-92862857D01*
X222036190Y-92862857D01*
X221940952Y-92910476D01*
X221893333Y-92958095D01*
X221845714Y-93053333D01*
X221845714Y-93196190D01*
X221893333Y-93291428D01*
X221940952Y-93339047D01*
X222036190Y-93386666D01*
X222321904Y-93386666D01*
X222417142Y-93339047D01*
X222464761Y-93291428D01*
X222512380Y-93196190D01*
X222512380Y-93053333D01*
X221845714Y-95243809D02*
X222512380Y-95434285D01*
X222036190Y-95624761D01*
X222512380Y-95815238D01*
X221845714Y-96005714D01*
X222512380Y-96386666D02*
X221512380Y-96386666D01*
X222512380Y-96815238D02*
X221988571Y-96815238D01*
X221893333Y-96767619D01*
X221845714Y-96672380D01*
X221845714Y-96529523D01*
X221893333Y-96434285D01*
X221940952Y-96386666D01*
X222512380Y-97720000D02*
X221988571Y-97720000D01*
X221893333Y-97672380D01*
X221845714Y-97577142D01*
X221845714Y-97386666D01*
X221893333Y-97291428D01*
X222464761Y-97720000D02*
X222512380Y-97624761D01*
X222512380Y-97386666D01*
X222464761Y-97291428D01*
X222369523Y-97243809D01*
X222274285Y-97243809D01*
X222179047Y-97291428D01*
X222131428Y-97386666D01*
X222131428Y-97624761D01*
X222083809Y-97720000D01*
X221845714Y-98053333D02*
X221845714Y-98434285D01*
X221512380Y-98196190D02*
X222369523Y-98196190D01*
X222464761Y-98243809D01*
X222512380Y-98339047D01*
X222512380Y-98434285D01*
X221845714Y-99386666D02*
X221845714Y-99767619D01*
X221512380Y-99529523D02*
X222369523Y-99529523D01*
X222464761Y-99577142D01*
X222512380Y-99672380D01*
X222512380Y-99767619D01*
X222512380Y-100100952D02*
X221512380Y-100100952D01*
X222512380Y-100529523D02*
X221988571Y-100529523D01*
X221893333Y-100481904D01*
X221845714Y-100386666D01*
X221845714Y-100243809D01*
X221893333Y-100148571D01*
X221940952Y-100100952D01*
X222464761Y-101386666D02*
X222512380Y-101291428D01*
X222512380Y-101100952D01*
X222464761Y-101005714D01*
X222369523Y-100958095D01*
X221988571Y-100958095D01*
X221893333Y-101005714D01*
X221845714Y-101100952D01*
X221845714Y-101291428D01*
X221893333Y-101386666D01*
X221988571Y-101434285D01*
X222083809Y-101434285D01*
X222179047Y-100958095D01*
X222464761Y-102577142D02*
X222512380Y-102672380D01*
X222512380Y-102862857D01*
X222464761Y-102958095D01*
X222369523Y-103005714D01*
X222321904Y-103005714D01*
X222226666Y-102958095D01*
X222179047Y-102862857D01*
X222179047Y-102720000D01*
X222131428Y-102624761D01*
X222036190Y-102577142D01*
X221988571Y-102577142D01*
X221893333Y-102624761D01*
X221845714Y-102720000D01*
X221845714Y-102862857D01*
X221893333Y-102958095D01*
X221845714Y-103339047D02*
X222512380Y-103577142D01*
X221845714Y-103815238D02*
X222512380Y-103577142D01*
X222750476Y-103481904D01*
X222798095Y-103434285D01*
X222845714Y-103339047D01*
X222464761Y-104148571D02*
X222512380Y-104243809D01*
X222512380Y-104434285D01*
X222464761Y-104529523D01*
X222369523Y-104577142D01*
X222321904Y-104577142D01*
X222226666Y-104529523D01*
X222179047Y-104434285D01*
X222179047Y-104291428D01*
X222131428Y-104196190D01*
X222036190Y-104148571D01*
X221988571Y-104148571D01*
X221893333Y-104196190D01*
X221845714Y-104291428D01*
X221845714Y-104434285D01*
X221893333Y-104529523D01*
X221845714Y-104862857D02*
X221845714Y-105243809D01*
X221512380Y-105005714D02*
X222369523Y-105005714D01*
X222464761Y-105053333D01*
X222512380Y-105148571D01*
X222512380Y-105243809D01*
X222464761Y-105958095D02*
X222512380Y-105862857D01*
X222512380Y-105672380D01*
X222464761Y-105577142D01*
X222369523Y-105529523D01*
X221988571Y-105529523D01*
X221893333Y-105577142D01*
X221845714Y-105672380D01*
X221845714Y-105862857D01*
X221893333Y-105958095D01*
X221988571Y-106005714D01*
X222083809Y-106005714D01*
X222179047Y-105529523D01*
X222512380Y-106434285D02*
X221845714Y-106434285D01*
X221940952Y-106434285D02*
X221893333Y-106481904D01*
X221845714Y-106577142D01*
X221845714Y-106720000D01*
X221893333Y-106815238D01*
X221988571Y-106862857D01*
X222512380Y-106862857D01*
X221988571Y-106862857D02*
X221893333Y-106910476D01*
X221845714Y-107005714D01*
X221845714Y-107148571D01*
X221893333Y-107243809D01*
X221988571Y-107291428D01*
X222512380Y-107291428D01*
X222512380Y-108529523D02*
X221845714Y-108529523D01*
X222036190Y-108529523D02*
X221940952Y-108577142D01*
X221893333Y-108624761D01*
X221845714Y-108720000D01*
X221845714Y-108815238D01*
X222464761Y-109529523D02*
X222512380Y-109434285D01*
X222512380Y-109243809D01*
X222464761Y-109148571D01*
X222369523Y-109100952D01*
X221988571Y-109100952D01*
X221893333Y-109148571D01*
X221845714Y-109243809D01*
X221845714Y-109434285D01*
X221893333Y-109529523D01*
X221988571Y-109577142D01*
X222083809Y-109577142D01*
X222179047Y-109100952D01*
X221845714Y-110434285D02*
X222845714Y-110434285D01*
X222464761Y-110434285D02*
X222512380Y-110339047D01*
X222512380Y-110148571D01*
X222464761Y-110053333D01*
X222417142Y-110005714D01*
X222321904Y-109958095D01*
X222036190Y-109958095D01*
X221940952Y-110005714D01*
X221893333Y-110053333D01*
X221845714Y-110148571D01*
X221845714Y-110339047D01*
X221893333Y-110434285D01*
X221845714Y-111339047D02*
X222512380Y-111339047D01*
X221845714Y-110910476D02*
X222369523Y-110910476D01*
X222464761Y-110958095D01*
X222512380Y-111053333D01*
X222512380Y-111196190D01*
X222464761Y-111291428D01*
X222417142Y-111339047D01*
X222512380Y-111815238D02*
X221845714Y-111815238D01*
X221512380Y-111815238D02*
X221560000Y-111767619D01*
X221607619Y-111815238D01*
X221560000Y-111862857D01*
X221512380Y-111815238D01*
X221607619Y-111815238D01*
X222512380Y-112291428D02*
X221845714Y-112291428D01*
X222036190Y-112291428D02*
X221940952Y-112339047D01*
X221893333Y-112386666D01*
X221845714Y-112481904D01*
X221845714Y-112577142D01*
X222464761Y-113291428D02*
X222512380Y-113196190D01*
X222512380Y-113005714D01*
X222464761Y-112910476D01*
X222369523Y-112862857D01*
X221988571Y-112862857D01*
X221893333Y-112910476D01*
X221845714Y-113005714D01*
X221845714Y-113196190D01*
X221893333Y-113291428D01*
X221988571Y-113339047D01*
X222083809Y-113339047D01*
X222179047Y-112862857D01*
X222512380Y-114196190D02*
X221512380Y-114196190D01*
X222464761Y-114196190D02*
X222512380Y-114100952D01*
X222512380Y-113910476D01*
X222464761Y-113815238D01*
X222417142Y-113767619D01*
X222321904Y-113720000D01*
X222036190Y-113720000D01*
X221940952Y-113767619D01*
X221893333Y-113815238D01*
X221845714Y-113910476D01*
X221845714Y-114100952D01*
X221893333Y-114196190D01*
X222512380Y-115434285D02*
X221512380Y-115434285D01*
X221893333Y-115434285D02*
X221845714Y-115529523D01*
X221845714Y-115720000D01*
X221893333Y-115815238D01*
X221940952Y-115862857D01*
X222036190Y-115910476D01*
X222321904Y-115910476D01*
X222417142Y-115862857D01*
X222464761Y-115815238D01*
X222512380Y-115720000D01*
X222512380Y-115529523D01*
X222464761Y-115434285D01*
X221845714Y-116243809D02*
X222512380Y-116481904D01*
X221845714Y-116720000D02*
X222512380Y-116481904D01*
X222750476Y-116386666D01*
X222798095Y-116339047D01*
X222845714Y-116243809D01*
X221845714Y-117720000D02*
X221845714Y-118100952D01*
X221512380Y-117862857D02*
X222369523Y-117862857D01*
X222464761Y-117910476D01*
X222512380Y-118005714D01*
X222512380Y-118100952D01*
X222512380Y-118434285D02*
X221512380Y-118434285D01*
X222512380Y-118862857D02*
X221988571Y-118862857D01*
X221893333Y-118815238D01*
X221845714Y-118720000D01*
X221845714Y-118577142D01*
X221893333Y-118481904D01*
X221940952Y-118434285D01*
X222464761Y-119720000D02*
X222512380Y-119624761D01*
X222512380Y-119434285D01*
X222464761Y-119339047D01*
X222369523Y-119291428D01*
X221988571Y-119291428D01*
X221893333Y-119339047D01*
X221845714Y-119434285D01*
X221845714Y-119624761D01*
X221893333Y-119720000D01*
X221988571Y-119767619D01*
X222083809Y-119767619D01*
X222179047Y-119291428D01*
X222464761Y-120910476D02*
X222512380Y-121005714D01*
X222512380Y-121196190D01*
X222464761Y-121291428D01*
X222369523Y-121339047D01*
X222321904Y-121339047D01*
X222226666Y-121291428D01*
X222179047Y-121196190D01*
X222179047Y-121053333D01*
X222131428Y-120958095D01*
X222036190Y-120910476D01*
X221988571Y-120910476D01*
X221893333Y-120958095D01*
X221845714Y-121053333D01*
X221845714Y-121196190D01*
X221893333Y-121291428D01*
X221845714Y-121672380D02*
X222512380Y-121910476D01*
X221845714Y-122148571D02*
X222512380Y-121910476D01*
X222750476Y-121815238D01*
X222798095Y-121767619D01*
X222845714Y-121672380D01*
X222464761Y-122481904D02*
X222512380Y-122577142D01*
X222512380Y-122767619D01*
X222464761Y-122862857D01*
X222369523Y-122910476D01*
X222321904Y-122910476D01*
X222226666Y-122862857D01*
X222179047Y-122767619D01*
X222179047Y-122624761D01*
X222131428Y-122529523D01*
X222036190Y-122481904D01*
X221988571Y-122481904D01*
X221893333Y-122529523D01*
X221845714Y-122624761D01*
X221845714Y-122767619D01*
X221893333Y-122862857D01*
X221845714Y-123196190D02*
X221845714Y-123577142D01*
X221512380Y-123339047D02*
X222369523Y-123339047D01*
X222464761Y-123386666D01*
X222512380Y-123481904D01*
X222512380Y-123577142D01*
X222464761Y-124291428D02*
X222512380Y-124196190D01*
X222512380Y-124005714D01*
X222464761Y-123910476D01*
X222369523Y-123862857D01*
X221988571Y-123862857D01*
X221893333Y-123910476D01*
X221845714Y-124005714D01*
X221845714Y-124196190D01*
X221893333Y-124291428D01*
X221988571Y-124339047D01*
X222083809Y-124339047D01*
X222179047Y-123862857D01*
X222512380Y-124767619D02*
X221845714Y-124767619D01*
X221940952Y-124767619D02*
X221893333Y-124815238D01*
X221845714Y-124910476D01*
X221845714Y-125053333D01*
X221893333Y-125148571D01*
X221988571Y-125196190D01*
X222512380Y-125196190D01*
X221988571Y-125196190D02*
X221893333Y-125243809D01*
X221845714Y-125339047D01*
X221845714Y-125481904D01*
X221893333Y-125577142D01*
X221988571Y-125624761D01*
X222512380Y-125624761D01*
X222464761Y-126148571D02*
X222512380Y-126148571D01*
X222607619Y-126100952D01*
X222655238Y-126053333D01*
X224162380Y-92410476D02*
X224114761Y-92315238D01*
X224019523Y-92267619D01*
X223162380Y-92267619D01*
X224114761Y-93172380D02*
X224162380Y-93077142D01*
X224162380Y-92886666D01*
X224114761Y-92791428D01*
X224019523Y-92743809D01*
X223638571Y-92743809D01*
X223543333Y-92791428D01*
X223495714Y-92886666D01*
X223495714Y-93077142D01*
X223543333Y-93172380D01*
X223638571Y-93220000D01*
X223733809Y-93220000D01*
X223829047Y-92743809D01*
X224162380Y-94077142D02*
X223638571Y-94077142D01*
X223543333Y-94029523D01*
X223495714Y-93934285D01*
X223495714Y-93743809D01*
X223543333Y-93648571D01*
X224114761Y-94077142D02*
X224162380Y-93981904D01*
X224162380Y-93743809D01*
X224114761Y-93648571D01*
X224019523Y-93600952D01*
X223924285Y-93600952D01*
X223829047Y-93648571D01*
X223781428Y-93743809D01*
X223781428Y-93981904D01*
X223733809Y-94077142D01*
X223495714Y-94458095D02*
X224162380Y-94696190D01*
X223495714Y-94934285D01*
X224114761Y-95696190D02*
X224162380Y-95600952D01*
X224162380Y-95410476D01*
X224114761Y-95315238D01*
X224019523Y-95267619D01*
X223638571Y-95267619D01*
X223543333Y-95315238D01*
X223495714Y-95410476D01*
X223495714Y-95600952D01*
X223543333Y-95696190D01*
X223638571Y-95743809D01*
X223733809Y-95743809D01*
X223829047Y-95267619D01*
X223495714Y-97362857D02*
X224162380Y-97362857D01*
X223495714Y-96934285D02*
X224019523Y-96934285D01*
X224114761Y-96981904D01*
X224162380Y-97077142D01*
X224162380Y-97220000D01*
X224114761Y-97315238D01*
X224067142Y-97362857D01*
X223495714Y-97839047D02*
X224162380Y-97839047D01*
X223590952Y-97839047D02*
X223543333Y-97886666D01*
X223495714Y-97981904D01*
X223495714Y-98124761D01*
X223543333Y-98220000D01*
X223638571Y-98267619D01*
X224162380Y-98267619D01*
X223495714Y-98743809D02*
X224352857Y-98743809D01*
X224448095Y-98696190D01*
X224495714Y-98600952D01*
X224495714Y-98553333D01*
X223162380Y-98743809D02*
X223210000Y-98696190D01*
X223257619Y-98743809D01*
X223210000Y-98791428D01*
X223162380Y-98743809D01*
X223257619Y-98743809D01*
X223495714Y-99648571D02*
X224162380Y-99648571D01*
X223495714Y-99220000D02*
X224019523Y-99220000D01*
X224114761Y-99267619D01*
X224162380Y-99362857D01*
X224162380Y-99505714D01*
X224114761Y-99600952D01*
X224067142Y-99648571D01*
X224162380Y-100124761D02*
X223495714Y-100124761D01*
X223590952Y-100124761D02*
X223543333Y-100172380D01*
X223495714Y-100267619D01*
X223495714Y-100410476D01*
X223543333Y-100505714D01*
X223638571Y-100553333D01*
X224162380Y-100553333D01*
X223638571Y-100553333D02*
X223543333Y-100600952D01*
X223495714Y-100696190D01*
X223495714Y-100839047D01*
X223543333Y-100934285D01*
X223638571Y-100981904D01*
X224162380Y-100981904D01*
X223495714Y-101458095D02*
X224495714Y-101458095D01*
X223543333Y-101458095D02*
X223495714Y-101553333D01*
X223495714Y-101743809D01*
X223543333Y-101839047D01*
X223590952Y-101886666D01*
X223686190Y-101934285D01*
X223971904Y-101934285D01*
X224067142Y-101886666D01*
X224114761Y-101839047D01*
X224162380Y-101743809D01*
X224162380Y-101553333D01*
X224114761Y-101458095D01*
X224114761Y-102743809D02*
X224162380Y-102648571D01*
X224162380Y-102458095D01*
X224114761Y-102362857D01*
X224019523Y-102315238D01*
X223638571Y-102315238D01*
X223543333Y-102362857D01*
X223495714Y-102458095D01*
X223495714Y-102648571D01*
X223543333Y-102743809D01*
X223638571Y-102791428D01*
X223733809Y-102791428D01*
X223829047Y-102315238D01*
X224162380Y-103220000D02*
X223495714Y-103220000D01*
X223686190Y-103220000D02*
X223590952Y-103267619D01*
X223543333Y-103315238D01*
X223495714Y-103410476D01*
X223495714Y-103505714D01*
X224114761Y-104220000D02*
X224162380Y-104124761D01*
X224162380Y-103934285D01*
X224114761Y-103839047D01*
X224019523Y-103791428D01*
X223638571Y-103791428D01*
X223543333Y-103839047D01*
X223495714Y-103934285D01*
X223495714Y-104124761D01*
X223543333Y-104220000D01*
X223638571Y-104267619D01*
X223733809Y-104267619D01*
X223829047Y-103791428D01*
X224162380Y-105124761D02*
X223162380Y-105124761D01*
X224114761Y-105124761D02*
X224162380Y-105029523D01*
X224162380Y-104839047D01*
X224114761Y-104743809D01*
X224067142Y-104696190D01*
X223971904Y-104648571D01*
X223686190Y-104648571D01*
X223590952Y-104696190D01*
X223543333Y-104743809D01*
X223495714Y-104839047D01*
X223495714Y-105029523D01*
X223543333Y-105124761D01*
X224543333Y-106648571D02*
X224495714Y-106600952D01*
X224352857Y-106505714D01*
X224257619Y-106458095D01*
X224114761Y-106410476D01*
X223876666Y-106362857D01*
X223686190Y-106362857D01*
X223448095Y-106410476D01*
X223305238Y-106458095D01*
X223210000Y-106505714D01*
X223067142Y-106600952D01*
X223019523Y-106648571D01*
X224162380Y-107029523D02*
X223162380Y-107029523D01*
X224162380Y-107600952D01*
X223162380Y-107600952D01*
X223114761Y-108791428D02*
X224400476Y-107934285D01*
X224067142Y-109696190D02*
X224114761Y-109648571D01*
X224162380Y-109505714D01*
X224162380Y-109410476D01*
X224114761Y-109267619D01*
X224019523Y-109172380D01*
X223924285Y-109124761D01*
X223733809Y-109077142D01*
X223590952Y-109077142D01*
X223400476Y-109124761D01*
X223305238Y-109172380D01*
X223210000Y-109267619D01*
X223162380Y-109410476D01*
X223162380Y-109505714D01*
X223210000Y-109648571D01*
X223257619Y-109696190D01*
X224543333Y-110029523D02*
X224495714Y-110077142D01*
X224352857Y-110172380D01*
X224257619Y-110220000D01*
X224114761Y-110267619D01*
X223876666Y-110315238D01*
X223686190Y-110315238D01*
X223448095Y-110267619D01*
X223305238Y-110220000D01*
X223210000Y-110172380D01*
X223067142Y-110077142D01*
X223019523Y-110029523D01*
X224162380Y-111553333D02*
X223495714Y-111553333D01*
X223162380Y-111553333D02*
X223210000Y-111505714D01*
X223257619Y-111553333D01*
X223210000Y-111600952D01*
X223162380Y-111553333D01*
X223257619Y-111553333D01*
X223495714Y-111886666D02*
X223495714Y-112267619D01*
X224162380Y-112029523D02*
X223305238Y-112029523D01*
X223210000Y-112077142D01*
X223162380Y-112172380D01*
X223162380Y-112267619D01*
X223495714Y-113267619D02*
X224162380Y-113505714D01*
X223495714Y-113743809D02*
X224162380Y-113505714D01*
X224400476Y-113410476D01*
X224448095Y-113362857D01*
X224495714Y-113267619D01*
X224162380Y-114267619D02*
X224114761Y-114172380D01*
X224067142Y-114124761D01*
X223971904Y-114077142D01*
X223686190Y-114077142D01*
X223590952Y-114124761D01*
X223543333Y-114172380D01*
X223495714Y-114267619D01*
X223495714Y-114410476D01*
X223543333Y-114505714D01*
X223590952Y-114553333D01*
X223686190Y-114600952D01*
X223971904Y-114600952D01*
X224067142Y-114553333D01*
X224114761Y-114505714D01*
X224162380Y-114410476D01*
X224162380Y-114267619D01*
X223495714Y-115458095D02*
X224162380Y-115458095D01*
X223495714Y-115029523D02*
X224019523Y-115029523D01*
X224114761Y-115077142D01*
X224162380Y-115172380D01*
X224162380Y-115315238D01*
X224114761Y-115410476D01*
X224067142Y-115458095D01*
X224162380Y-117124761D02*
X223638571Y-117124761D01*
X223543333Y-117077142D01*
X223495714Y-116981904D01*
X223495714Y-116791428D01*
X223543333Y-116696190D01*
X224114761Y-117124761D02*
X224162380Y-117029523D01*
X224162380Y-116791428D01*
X224114761Y-116696190D01*
X224019523Y-116648571D01*
X223924285Y-116648571D01*
X223829047Y-116696190D01*
X223781428Y-116791428D01*
X223781428Y-117029523D01*
X223733809Y-117124761D01*
X224162380Y-117600952D02*
X223495714Y-117600952D01*
X223686190Y-117600952D02*
X223590952Y-117648571D01*
X223543333Y-117696190D01*
X223495714Y-117791428D01*
X223495714Y-117886666D01*
X224114761Y-118600952D02*
X224162380Y-118505714D01*
X224162380Y-118315238D01*
X224114761Y-118220000D01*
X224019523Y-118172380D01*
X223638571Y-118172380D01*
X223543333Y-118220000D01*
X223495714Y-118315238D01*
X223495714Y-118505714D01*
X223543333Y-118600952D01*
X223638571Y-118648571D01*
X223733809Y-118648571D01*
X223829047Y-118172380D01*
X223495714Y-119839047D02*
X224162380Y-119839047D01*
X223590952Y-119839047D02*
X223543333Y-119886666D01*
X223495714Y-119981904D01*
X223495714Y-120124761D01*
X223543333Y-120220000D01*
X223638571Y-120267619D01*
X224162380Y-120267619D01*
X224162380Y-120886666D02*
X224114761Y-120791428D01*
X224067142Y-120743809D01*
X223971904Y-120696190D01*
X223686190Y-120696190D01*
X223590952Y-120743809D01*
X223543333Y-120791428D01*
X223495714Y-120886666D01*
X223495714Y-121029523D01*
X223543333Y-121124761D01*
X223590952Y-121172380D01*
X223686190Y-121220000D01*
X223971904Y-121220000D01*
X224067142Y-121172380D01*
X224114761Y-121124761D01*
X224162380Y-121029523D01*
X224162380Y-120886666D01*
X223495714Y-121505714D02*
X223495714Y-121886666D01*
X223162380Y-121648571D02*
X224019523Y-121648571D01*
X224114761Y-121696190D01*
X224162380Y-121791428D01*
X224162380Y-121886666D01*
X224114761Y-122934285D02*
X224162380Y-123029523D01*
X224162380Y-123220000D01*
X224114761Y-123315238D01*
X224019523Y-123362857D01*
X223971904Y-123362857D01*
X223876666Y-123315238D01*
X223829047Y-123220000D01*
X223829047Y-123077142D01*
X223781428Y-122981904D01*
X223686190Y-122934285D01*
X223638571Y-122934285D01*
X223543333Y-122981904D01*
X223495714Y-123077142D01*
X223495714Y-123220000D01*
X223543333Y-123315238D01*
X223495714Y-124220000D02*
X224162380Y-124220000D01*
X223495714Y-123791428D02*
X224019523Y-123791428D01*
X224114761Y-123839047D01*
X224162380Y-123934285D01*
X224162380Y-124077142D01*
X224114761Y-124172380D01*
X224067142Y-124220000D01*
X224162380Y-124696190D02*
X223495714Y-124696190D01*
X223686190Y-124696190D02*
X223590952Y-124743809D01*
X223543333Y-124791428D01*
X223495714Y-124886666D01*
X223495714Y-124981904D01*
X224114761Y-125696190D02*
X224162380Y-125600952D01*
X224162380Y-125410476D01*
X224114761Y-125315238D01*
X224019523Y-125267619D01*
X223638571Y-125267619D01*
X223543333Y-125315238D01*
X223495714Y-125410476D01*
X223495714Y-125600952D01*
X223543333Y-125696190D01*
X223638571Y-125743809D01*
X223733809Y-125743809D01*
X223829047Y-125267619D01*
X224067142Y-126172380D02*
X224114761Y-126220000D01*
X224162380Y-126172380D01*
X224114761Y-126124761D01*
X224067142Y-126172380D01*
X224162380Y-126172380D01*
X226986190Y-100624761D02*
X227462380Y-100624761D01*
X226462380Y-100291428D02*
X226986190Y-100624761D01*
X226462380Y-100958095D01*
X227462380Y-101434285D02*
X227414761Y-101339047D01*
X227367142Y-101291428D01*
X227271904Y-101243809D01*
X226986190Y-101243809D01*
X226890952Y-101291428D01*
X226843333Y-101339047D01*
X226795714Y-101434285D01*
X226795714Y-101577142D01*
X226843333Y-101672380D01*
X226890952Y-101720000D01*
X226986190Y-101767619D01*
X227271904Y-101767619D01*
X227367142Y-101720000D01*
X227414761Y-101672380D01*
X227462380Y-101577142D01*
X227462380Y-101434285D01*
X226795714Y-102624761D02*
X227462380Y-102624761D01*
X226795714Y-102196190D02*
X227319523Y-102196190D01*
X227414761Y-102243809D01*
X227462380Y-102339047D01*
X227462380Y-102481904D01*
X227414761Y-102577142D01*
X227367142Y-102624761D01*
X227462380Y-103862857D02*
X226462380Y-103862857D01*
X226843333Y-103862857D02*
X226795714Y-103958095D01*
X226795714Y-104148571D01*
X226843333Y-104243809D01*
X226890952Y-104291428D01*
X226986190Y-104339047D01*
X227271904Y-104339047D01*
X227367142Y-104291428D01*
X227414761Y-104243809D01*
X227462380Y-104148571D01*
X227462380Y-103958095D01*
X227414761Y-103862857D01*
X227462380Y-104767619D02*
X226795714Y-104767619D01*
X226986190Y-104767619D02*
X226890952Y-104815238D01*
X226843333Y-104862857D01*
X226795714Y-104958095D01*
X226795714Y-105053333D01*
X227414761Y-105767619D02*
X227462380Y-105672380D01*
X227462380Y-105481904D01*
X227414761Y-105386666D01*
X227319523Y-105339047D01*
X226938571Y-105339047D01*
X226843333Y-105386666D01*
X226795714Y-105481904D01*
X226795714Y-105672380D01*
X226843333Y-105767619D01*
X226938571Y-105815238D01*
X227033809Y-105815238D01*
X227129047Y-105339047D01*
X227462380Y-106672380D02*
X226938571Y-106672380D01*
X226843333Y-106624761D01*
X226795714Y-106529523D01*
X226795714Y-106339047D01*
X226843333Y-106243809D01*
X227414761Y-106672380D02*
X227462380Y-106577142D01*
X227462380Y-106339047D01*
X227414761Y-106243809D01*
X227319523Y-106196190D01*
X227224285Y-106196190D01*
X227129047Y-106243809D01*
X227081428Y-106339047D01*
X227081428Y-106577142D01*
X227033809Y-106672380D01*
X227462380Y-107148571D02*
X226462380Y-107148571D01*
X227081428Y-107243809D02*
X227462380Y-107529523D01*
X226795714Y-107529523D02*
X227176666Y-107148571D01*
X227462380Y-108720000D02*
X226795714Y-108720000D01*
X226462380Y-108720000D02*
X226510000Y-108672380D01*
X226557619Y-108720000D01*
X226510000Y-108767619D01*
X226462380Y-108720000D01*
X226557619Y-108720000D01*
X226795714Y-109053333D02*
X226795714Y-109434285D01*
X226462380Y-109196190D02*
X227319523Y-109196190D01*
X227414761Y-109243809D01*
X227462380Y-109339047D01*
X227462380Y-109434285D01*
X227414761Y-109815238D02*
X227462380Y-109815238D01*
X227557619Y-109767619D01*
X227605238Y-109720000D01*
X226795714Y-110910476D02*
X227462380Y-111148571D01*
X226795714Y-111386666D02*
X227462380Y-111148571D01*
X227700476Y-111053333D01*
X227748095Y-111005714D01*
X227795714Y-110910476D01*
X227462380Y-111910476D02*
X227414761Y-111815238D01*
X227367142Y-111767619D01*
X227271904Y-111720000D01*
X226986190Y-111720000D01*
X226890952Y-111767619D01*
X226843333Y-111815238D01*
X226795714Y-111910476D01*
X226795714Y-112053333D01*
X226843333Y-112148571D01*
X226890952Y-112196190D01*
X226986190Y-112243809D01*
X227271904Y-112243809D01*
X227367142Y-112196190D01*
X227414761Y-112148571D01*
X227462380Y-112053333D01*
X227462380Y-111910476D01*
X226795714Y-113100952D02*
X227462380Y-113100952D01*
X226795714Y-112672380D02*
X227319523Y-112672380D01*
X227414761Y-112720000D01*
X227462380Y-112815238D01*
X227462380Y-112958095D01*
X227414761Y-113053333D01*
X227367142Y-113100952D01*
X226795714Y-114196190D02*
X226795714Y-114577142D01*
X227462380Y-114339047D02*
X226605238Y-114339047D01*
X226510000Y-114386666D01*
X226462380Y-114481904D01*
X226462380Y-114577142D01*
X227462380Y-114910476D02*
X226795714Y-114910476D01*
X226462380Y-114910476D02*
X226510000Y-114862857D01*
X226557619Y-114910476D01*
X226510000Y-114958095D01*
X226462380Y-114910476D01*
X226557619Y-114910476D01*
X227462380Y-115291428D02*
X226795714Y-115815238D01*
X226795714Y-115291428D02*
X227462380Y-115815238D01*
X227462380Y-116958095D02*
X226795714Y-116958095D01*
X226462380Y-116958095D02*
X226510000Y-116910476D01*
X226557619Y-116958095D01*
X226510000Y-117005714D01*
X226462380Y-116958095D01*
X226557619Y-116958095D01*
X226795714Y-117291428D02*
X226795714Y-117672380D01*
X226462380Y-117434285D02*
X227319523Y-117434285D01*
X227414761Y-117481904D01*
X227462380Y-117577142D01*
X227462380Y-117672380D01*
X227367142Y-118005714D02*
X227414761Y-118053333D01*
X227462380Y-118005714D01*
X227414761Y-117958095D01*
X227367142Y-118005714D01*
X227462380Y-118005714D01*
X227081428Y-118005714D02*
X226510000Y-117958095D01*
X226462380Y-118005714D01*
X226510000Y-118053333D01*
X227081428Y-118005714D01*
X226462380Y-118005714D01*
D11*
X229870000Y-84455000D02*
X229870000Y-90805000D01*
X220345000Y-90805000D02*
X215900000Y-90805000D01*
X229870000Y-90805000D02*
X225425000Y-90805000D01*
X215900000Y-90805000D02*
X215900000Y-84455000D01*
X215900000Y-84455000D02*
X229870000Y-84455000D01*
X207010000Y-90805000D02*
X202565000Y-90805000D01*
X207010000Y-84455000D02*
X207010000Y-90805000D01*
X193040000Y-84455000D02*
X207010000Y-84455000D01*
X193040000Y-90805000D02*
X193040000Y-84455000D01*
X197485000Y-90805000D02*
X193040000Y-90805000D01*
D10*
X224904047Y-91166904D02*
X224904047Y-90366904D01*
X224599285Y-90366904D01*
X224523095Y-90405000D01*
X224485000Y-90443095D01*
X224446904Y-90519285D01*
X224446904Y-90633571D01*
X224485000Y-90709761D01*
X224523095Y-90747857D01*
X224599285Y-90785952D01*
X224904047Y-90785952D01*
X223951666Y-90366904D02*
X223799285Y-90366904D01*
X223723095Y-90405000D01*
X223646904Y-90481190D01*
X223608809Y-90633571D01*
X223608809Y-90900238D01*
X223646904Y-91052619D01*
X223723095Y-91128809D01*
X223799285Y-91166904D01*
X223951666Y-91166904D01*
X224027857Y-91128809D01*
X224104047Y-91052619D01*
X224142142Y-90900238D01*
X224142142Y-90633571D01*
X224104047Y-90481190D01*
X224027857Y-90405000D01*
X223951666Y-90366904D01*
X222808809Y-91166904D02*
X223075476Y-90785952D01*
X223265952Y-91166904D02*
X223265952Y-90366904D01*
X222961190Y-90366904D01*
X222885000Y-90405000D01*
X222846904Y-90443095D01*
X222808809Y-90519285D01*
X222808809Y-90633571D01*
X222846904Y-90709761D01*
X222885000Y-90747857D01*
X222961190Y-90785952D01*
X223265952Y-90785952D01*
X222580238Y-90366904D02*
X222123095Y-90366904D01*
X222351666Y-91166904D02*
X222351666Y-90366904D01*
X221285000Y-90443095D02*
X221246904Y-90405000D01*
X221170714Y-90366904D01*
X220980238Y-90366904D01*
X220904047Y-90405000D01*
X220865952Y-90443095D01*
X220827857Y-90519285D01*
X220827857Y-90595476D01*
X220865952Y-90709761D01*
X221323095Y-91166904D01*
X220827857Y-91166904D01*
X202044047Y-91166904D02*
X202044047Y-90366904D01*
X201739285Y-90366904D01*
X201663095Y-90405000D01*
X201625000Y-90443095D01*
X201586904Y-90519285D01*
X201586904Y-90633571D01*
X201625000Y-90709761D01*
X201663095Y-90747857D01*
X201739285Y-90785952D01*
X202044047Y-90785952D01*
X201091666Y-90366904D02*
X200939285Y-90366904D01*
X200863095Y-90405000D01*
X200786904Y-90481190D01*
X200748809Y-90633571D01*
X200748809Y-90900238D01*
X200786904Y-91052619D01*
X200863095Y-91128809D01*
X200939285Y-91166904D01*
X201091666Y-91166904D01*
X201167857Y-91128809D01*
X201244047Y-91052619D01*
X201282142Y-90900238D01*
X201282142Y-90633571D01*
X201244047Y-90481190D01*
X201167857Y-90405000D01*
X201091666Y-90366904D01*
X199948809Y-91166904D02*
X200215476Y-90785952D01*
X200405952Y-91166904D02*
X200405952Y-90366904D01*
X200101190Y-90366904D01*
X200025000Y-90405000D01*
X199986904Y-90443095D01*
X199948809Y-90519285D01*
X199948809Y-90633571D01*
X199986904Y-90709761D01*
X200025000Y-90747857D01*
X200101190Y-90785952D01*
X200405952Y-90785952D01*
X199720238Y-90366904D02*
X199263095Y-90366904D01*
X199491666Y-91166904D02*
X199491666Y-90366904D01*
X197967857Y-91166904D02*
X198425000Y-91166904D01*
X198196428Y-91166904D02*
X198196428Y-90366904D01*
X198272619Y-90481190D01*
X198348809Y-90557380D01*
X198425000Y-90595476D01*
X186562619Y-129886904D02*
X186562619Y-129086904D01*
X186372142Y-129086904D01*
X186257857Y-129125000D01*
X186181666Y-129201190D01*
X186143571Y-129277380D01*
X186105476Y-129429761D01*
X186105476Y-129544047D01*
X186143571Y-129696428D01*
X186181666Y-129772619D01*
X186257857Y-129848809D01*
X186372142Y-129886904D01*
X186562619Y-129886904D01*
X185457857Y-129848809D02*
X185534047Y-129886904D01*
X185686428Y-129886904D01*
X185762619Y-129848809D01*
X185800714Y-129772619D01*
X185800714Y-129467857D01*
X185762619Y-129391666D01*
X185686428Y-129353571D01*
X185534047Y-129353571D01*
X185457857Y-129391666D01*
X185419761Y-129467857D01*
X185419761Y-129544047D01*
X185800714Y-129620238D01*
X185191190Y-129353571D02*
X184886428Y-129353571D01*
X185076904Y-129886904D02*
X185076904Y-129201190D01*
X185038809Y-129125000D01*
X184962619Y-129086904D01*
X184886428Y-129086904D01*
X184276904Y-129886904D02*
X184276904Y-129467857D01*
X184315000Y-129391666D01*
X184391190Y-129353571D01*
X184543571Y-129353571D01*
X184619761Y-129391666D01*
X184276904Y-129848809D02*
X184353095Y-129886904D01*
X184543571Y-129886904D01*
X184619761Y-129848809D01*
X184657857Y-129772619D01*
X184657857Y-129696428D01*
X184619761Y-129620238D01*
X184543571Y-129582142D01*
X184353095Y-129582142D01*
X184276904Y-129544047D01*
X183553095Y-129353571D02*
X183553095Y-129886904D01*
X183895952Y-129353571D02*
X183895952Y-129772619D01*
X183857857Y-129848809D01*
X183781666Y-129886904D01*
X183667380Y-129886904D01*
X183591190Y-129848809D01*
X183553095Y-129810714D01*
X183057857Y-129886904D02*
X183134047Y-129848809D01*
X183172142Y-129772619D01*
X183172142Y-129086904D01*
X182867380Y-129353571D02*
X182562619Y-129353571D01*
X182753095Y-129086904D02*
X182753095Y-129772619D01*
X182715000Y-129848809D01*
X182638809Y-129886904D01*
X182562619Y-129886904D01*
X181419761Y-129467857D02*
X181686428Y-129467857D01*
X181686428Y-129886904D02*
X181686428Y-129086904D01*
X181305476Y-129086904D01*
X181076904Y-129086904D02*
X180886428Y-129886904D01*
X180734047Y-129315476D01*
X180581666Y-129886904D01*
X180391190Y-129086904D01*
X187400714Y-131491666D02*
X187438809Y-131453571D01*
X187515000Y-131339285D01*
X187553095Y-131263095D01*
X187591190Y-131148809D01*
X187629285Y-130958333D01*
X187629285Y-130805952D01*
X187591190Y-130615476D01*
X187553095Y-130501190D01*
X187515000Y-130425000D01*
X187438809Y-130310714D01*
X187400714Y-130272619D01*
X186829285Y-130767857D02*
X187095952Y-130767857D01*
X187095952Y-131186904D02*
X187095952Y-130386904D01*
X186715000Y-130386904D01*
X186410238Y-131186904D02*
X186410238Y-130386904D01*
X185572142Y-131186904D02*
X185838809Y-130805952D01*
X186029285Y-131186904D02*
X186029285Y-130386904D01*
X185724523Y-130386904D01*
X185648333Y-130425000D01*
X185610238Y-130463095D01*
X185572142Y-130539285D01*
X185572142Y-130653571D01*
X185610238Y-130729761D01*
X185648333Y-130767857D01*
X185724523Y-130805952D01*
X186029285Y-130805952D01*
X185229285Y-130767857D02*
X184962619Y-130767857D01*
X184848333Y-131186904D02*
X185229285Y-131186904D01*
X185229285Y-130386904D01*
X184848333Y-130386904D01*
X184086428Y-131186904D02*
X184543571Y-131186904D01*
X184315000Y-131186904D02*
X184315000Y-130386904D01*
X184391190Y-130501190D01*
X184467380Y-130577380D01*
X184543571Y-130615476D01*
X183172142Y-130348809D02*
X183857857Y-131377380D01*
X182638809Y-130767857D02*
X182905476Y-130767857D01*
X182905476Y-131186904D02*
X182905476Y-130386904D01*
X182524523Y-130386904D01*
X182219761Y-131186904D02*
X182219761Y-130386904D01*
X181381666Y-131186904D02*
X181648333Y-130805952D01*
X181838809Y-131186904D02*
X181838809Y-130386904D01*
X181534047Y-130386904D01*
X181457857Y-130425000D01*
X181419761Y-130463095D01*
X181381666Y-130539285D01*
X181381666Y-130653571D01*
X181419761Y-130729761D01*
X181457857Y-130767857D01*
X181534047Y-130805952D01*
X181838809Y-130805952D01*
X181038809Y-130767857D02*
X180772142Y-130767857D01*
X180657857Y-131186904D02*
X181038809Y-131186904D01*
X181038809Y-130386904D01*
X180657857Y-130386904D01*
X180353095Y-130463095D02*
X180315000Y-130425000D01*
X180238809Y-130386904D01*
X180048333Y-130386904D01*
X179972142Y-130425000D01*
X179934047Y-130463095D01*
X179895952Y-130539285D01*
X179895952Y-130615476D01*
X179934047Y-130729761D01*
X180391190Y-131186904D01*
X179895952Y-131186904D01*
X179629285Y-131491666D02*
X179591190Y-131453571D01*
X179515000Y-131339285D01*
X179476904Y-131263095D01*
X179438809Y-131148809D01*
X179400714Y-130958333D01*
X179400714Y-130805952D01*
X179438809Y-130615476D01*
X179476904Y-130501190D01*
X179515000Y-130425000D01*
X179591190Y-130310714D01*
X179629285Y-130272619D01*
D11*
X187325000Y-127000000D02*
X186055000Y-127000000D01*
X187325000Y-124460000D02*
X187325000Y-127000000D01*
X186055000Y-124460000D02*
X187325000Y-124460000D01*
X183515000Y-128905000D02*
X183515000Y-122555000D01*
X187325000Y-128905000D02*
X183515000Y-128905000D01*
X187325000Y-127635000D02*
X187325000Y-128905000D01*
X187325000Y-122555000D02*
X187325000Y-123825000D01*
X183515000Y-122555000D02*
X187325000Y-122555000D01*
X231140000Y-100965000D02*
X231140000Y-102870000D01*
X234950000Y-95250000D02*
X233045000Y-95250000D01*
X231140000Y-102870000D02*
X233680000Y-102870000D01*
D10*
X236581904Y-97758571D02*
X235781904Y-97758571D01*
X235781904Y-98063333D01*
X235820000Y-98139523D01*
X235858095Y-98177619D01*
X235934285Y-98215714D01*
X236048571Y-98215714D01*
X236124761Y-98177619D01*
X236162857Y-98139523D01*
X236200952Y-98063333D01*
X236200952Y-97758571D01*
X235858095Y-98520476D02*
X235820000Y-98558571D01*
X235781904Y-98634761D01*
X235781904Y-98825238D01*
X235820000Y-98901428D01*
X235858095Y-98939523D01*
X235934285Y-98977619D01*
X236010476Y-98977619D01*
X236124761Y-98939523D01*
X236581904Y-98482380D01*
X236581904Y-98977619D01*
X236162857Y-100196666D02*
X236162857Y-99930000D01*
X236581904Y-99930000D02*
X235781904Y-99930000D01*
X235781904Y-100310952D01*
X236581904Y-100615714D02*
X235781904Y-100615714D01*
X236581904Y-101453809D02*
X236200952Y-101187142D01*
X236581904Y-100996666D02*
X235781904Y-100996666D01*
X235781904Y-101301428D01*
X235820000Y-101377619D01*
X235858095Y-101415714D01*
X235934285Y-101453809D01*
X236048571Y-101453809D01*
X236124761Y-101415714D01*
X236162857Y-101377619D01*
X236200952Y-101301428D01*
X236200952Y-100996666D01*
X236162857Y-101796666D02*
X236162857Y-102063333D01*
X236581904Y-102177619D02*
X236581904Y-101796666D01*
X235781904Y-101796666D01*
X235781904Y-102177619D01*
X235781904Y-102444285D02*
X235781904Y-102939523D01*
X236086666Y-102672857D01*
X236086666Y-102787142D01*
X236124761Y-102863333D01*
X236162857Y-102901428D01*
X236239047Y-102939523D01*
X236429523Y-102939523D01*
X236505714Y-102901428D01*
X236543809Y-102863333D01*
X236581904Y-102787142D01*
X236581904Y-102558571D01*
X236543809Y-102482380D01*
X236505714Y-102444285D01*
D11*
X234950000Y-118110000D02*
X234950000Y-123190000D01*
X234950000Y-118110000D02*
X234315000Y-118110000D01*
X234315000Y-123190000D02*
X234950000Y-123190000D01*
D10*
X230231904Y-95218571D02*
X229431904Y-95218571D01*
X229431904Y-95523333D01*
X229470000Y-95599523D01*
X229508095Y-95637619D01*
X229584285Y-95675714D01*
X229698571Y-95675714D01*
X229774761Y-95637619D01*
X229812857Y-95599523D01*
X229850952Y-95523333D01*
X229850952Y-95218571D01*
X230231904Y-96437619D02*
X230231904Y-95980476D01*
X230231904Y-96209047D02*
X229431904Y-96209047D01*
X229546190Y-96132857D01*
X229622380Y-96056666D01*
X229660476Y-95980476D01*
X229812857Y-97656666D02*
X229812857Y-97390000D01*
X230231904Y-97390000D02*
X229431904Y-97390000D01*
X229431904Y-97770952D01*
X230231904Y-98075714D02*
X229431904Y-98075714D01*
X230231904Y-98913809D02*
X229850952Y-98647142D01*
X230231904Y-98456666D02*
X229431904Y-98456666D01*
X229431904Y-98761428D01*
X229470000Y-98837619D01*
X229508095Y-98875714D01*
X229584285Y-98913809D01*
X229698571Y-98913809D01*
X229774761Y-98875714D01*
X229812857Y-98837619D01*
X229850952Y-98761428D01*
X229850952Y-98456666D01*
X229812857Y-99256666D02*
X229812857Y-99523333D01*
X230231904Y-99637619D02*
X230231904Y-99256666D01*
X229431904Y-99256666D01*
X229431904Y-99637619D01*
X230231904Y-100399523D02*
X230231904Y-99942380D01*
X230231904Y-100170952D02*
X229431904Y-100170952D01*
X229546190Y-100094761D01*
X229622380Y-100018571D01*
X229660476Y-99942380D01*
X235820000Y-120040476D02*
X235781904Y-119964285D01*
X235781904Y-119850000D01*
X235820000Y-119735714D01*
X235896190Y-119659523D01*
X235972380Y-119621428D01*
X236124761Y-119583333D01*
X236239047Y-119583333D01*
X236391428Y-119621428D01*
X236467619Y-119659523D01*
X236543809Y-119735714D01*
X236581904Y-119850000D01*
X236581904Y-119926190D01*
X236543809Y-120040476D01*
X236505714Y-120078571D01*
X236239047Y-120078571D01*
X236239047Y-119926190D01*
X236581904Y-120421428D02*
X235781904Y-120421428D01*
X236581904Y-120878571D01*
X235781904Y-120878571D01*
X236581904Y-121259523D02*
X235781904Y-121259523D01*
X235781904Y-121450000D01*
X235820000Y-121564285D01*
X235896190Y-121640476D01*
X235972380Y-121678571D01*
X236124761Y-121716666D01*
X236239047Y-121716666D01*
X236391428Y-121678571D01*
X236467619Y-121640476D01*
X236543809Y-121564285D01*
X236581904Y-121450000D01*
X236581904Y-121259523D01*
D11*
X234950000Y-97790000D02*
X234950000Y-102870000D01*
X234950000Y-97790000D02*
X234315000Y-97790000D01*
X234315000Y-102870000D02*
X234950000Y-102870000D01*
D10*
X229431904Y-117043333D02*
X230231904Y-117310000D01*
X229431904Y-117576666D01*
X230155714Y-118300476D02*
X230193809Y-118262380D01*
X230231904Y-118148095D01*
X230231904Y-118071904D01*
X230193809Y-117957619D01*
X230117619Y-117881428D01*
X230041428Y-117843333D01*
X229889047Y-117805238D01*
X229774761Y-117805238D01*
X229622380Y-117843333D01*
X229546190Y-117881428D01*
X229470000Y-117957619D01*
X229431904Y-118071904D01*
X229431904Y-118148095D01*
X229470000Y-118262380D01*
X229508095Y-118300476D01*
X230155714Y-119100476D02*
X230193809Y-119062380D01*
X230231904Y-118948095D01*
X230231904Y-118871904D01*
X230193809Y-118757619D01*
X230117619Y-118681428D01*
X230041428Y-118643333D01*
X229889047Y-118605238D01*
X229774761Y-118605238D01*
X229622380Y-118643333D01*
X229546190Y-118681428D01*
X229470000Y-118757619D01*
X229431904Y-118871904D01*
X229431904Y-118948095D01*
X229470000Y-119062380D01*
X229508095Y-119100476D01*
D11*
X231775000Y-95250000D02*
X231140000Y-95250000D01*
X231775000Y-100330000D02*
X231140000Y-100330000D01*
X231140000Y-100330000D02*
X231140000Y-95250000D01*
D10*
X235820000Y-109880476D02*
X235781904Y-109804285D01*
X235781904Y-109690000D01*
X235820000Y-109575714D01*
X235896190Y-109499523D01*
X235972380Y-109461428D01*
X236124761Y-109423333D01*
X236239047Y-109423333D01*
X236391428Y-109461428D01*
X236467619Y-109499523D01*
X236543809Y-109575714D01*
X236581904Y-109690000D01*
X236581904Y-109766190D01*
X236543809Y-109880476D01*
X236505714Y-109918571D01*
X236239047Y-109918571D01*
X236239047Y-109766190D01*
X236581904Y-110261428D02*
X235781904Y-110261428D01*
X236581904Y-110718571D01*
X235781904Y-110718571D01*
X236581904Y-111099523D02*
X235781904Y-111099523D01*
X235781904Y-111290000D01*
X235820000Y-111404285D01*
X235896190Y-111480476D01*
X235972380Y-111518571D01*
X236124761Y-111556666D01*
X236239047Y-111556666D01*
X236391428Y-111518571D01*
X236467619Y-111480476D01*
X236543809Y-111404285D01*
X236581904Y-111290000D01*
X236581904Y-111099523D01*
D11*
X234315000Y-113030000D02*
X234950000Y-113030000D01*
X234950000Y-107950000D02*
X234950000Y-113030000D01*
X234950000Y-107950000D02*
X234315000Y-107950000D01*
D10*
X238687857Y-118160952D02*
X238687857Y-117894285D01*
X239106904Y-117894285D02*
X238306904Y-117894285D01*
X238306904Y-118275238D01*
X239106904Y-118580000D02*
X238306904Y-118580000D01*
X239106904Y-119418095D02*
X238725952Y-119151428D01*
X239106904Y-118960952D02*
X238306904Y-118960952D01*
X238306904Y-119265714D01*
X238345000Y-119341904D01*
X238383095Y-119380000D01*
X238459285Y-119418095D01*
X238573571Y-119418095D01*
X238649761Y-119380000D01*
X238687857Y-119341904D01*
X238725952Y-119265714D01*
X238725952Y-118960952D01*
X238687857Y-119760952D02*
X238687857Y-120027619D01*
X239106904Y-120141904D02*
X239106904Y-119760952D01*
X238306904Y-119760952D01*
X238306904Y-120141904D01*
X238383095Y-120446666D02*
X238345000Y-120484761D01*
X238306904Y-120560952D01*
X238306904Y-120751428D01*
X238345000Y-120827619D01*
X238383095Y-120865714D01*
X238459285Y-120903809D01*
X238535476Y-120903809D01*
X238649761Y-120865714D01*
X239106904Y-120408571D01*
X239106904Y-120903809D01*
X240406904Y-116846666D02*
X239606904Y-116846666D01*
X239606904Y-117151428D01*
X239645000Y-117227619D01*
X239683095Y-117265714D01*
X239759285Y-117303809D01*
X239873571Y-117303809D01*
X239949761Y-117265714D01*
X239987857Y-117227619D01*
X240025952Y-117151428D01*
X240025952Y-116846666D01*
X239606904Y-117799047D02*
X239606904Y-117951428D01*
X239645000Y-118027619D01*
X239721190Y-118103809D01*
X239873571Y-118141904D01*
X240140238Y-118141904D01*
X240292619Y-118103809D01*
X240368809Y-118027619D01*
X240406904Y-117951428D01*
X240406904Y-117799047D01*
X240368809Y-117722857D01*
X240292619Y-117646666D01*
X240140238Y-117608571D01*
X239873571Y-117608571D01*
X239721190Y-117646666D01*
X239645000Y-117722857D01*
X239606904Y-117799047D01*
X240406904Y-118865714D02*
X240406904Y-118484761D01*
X239606904Y-118484761D01*
X240178333Y-119094285D02*
X240178333Y-119475238D01*
X240406904Y-119018095D02*
X239606904Y-119284761D01*
X240406904Y-119551428D01*
X240406904Y-120275238D02*
X240025952Y-120008571D01*
X240406904Y-119818095D02*
X239606904Y-119818095D01*
X239606904Y-120122857D01*
X239645000Y-120199047D01*
X239683095Y-120237142D01*
X239759285Y-120275238D01*
X239873571Y-120275238D01*
X239949761Y-120237142D01*
X239987857Y-120199047D01*
X240025952Y-120122857D01*
X240025952Y-119818095D01*
X240406904Y-120618095D02*
X239606904Y-120618095D01*
X239606904Y-120884761D02*
X239606904Y-121341904D01*
X240406904Y-121113333D02*
X239606904Y-121113333D01*
X240025952Y-121760952D02*
X240406904Y-121760952D01*
X239606904Y-121494285D02*
X240025952Y-121760952D01*
X239606904Y-122027619D01*
M02*
