M48
; DRILL file {KiCad (5.1.5)-3} date 03/12/2020 23:39:54
; FORMAT={2:4/ absolute / inch / suppress leading zeros}
; #@! TF.CreationDate,2020-12-03T23:39:54+01:00
; #@! TF.GenerationSoftware,Kicad,Pcbnew,(5.1.5)-3
FMAT,2
INCH,TZ
T1C0.0157
T2C0.0315
T3C0.0354
T4C0.0394
T5C0.0400
T6C0.0433
T7C0.0591
T8C0.1200
T9C0.0669
T10C0.1575
%
G90
G05
T1
X63000Y-38250
X65250Y-39750
X65409Y-51500
X65591Y-50366
X65750Y-42750
X65750Y-43250
X66000Y-44750
X68465Y-40750
X68500Y-43035
X69215Y-36285
X69215Y-41000
X69700Y-35400
X69700Y-42600
X70000Y-36465
X70285Y-40500
X70750Y-35250
X71250Y-35250
X72000Y-49715
X72000Y-52000
X72500Y-50250
X85750Y-43750
X86500Y-42250
X86500Y-45250
X87250Y-43750
X88000Y-41500
X88250Y-36750
X88500Y-43250
X89750Y-38000
X89750Y-43250
X91000Y-35250
T2
X70750Y-49500
X73750Y-49500
X70750Y-47750
X73750Y-47750
X78750Y-41000
X81750Y-41000
X78750Y-39500
X81750Y-39500
T3
X63250Y-33250
X63250Y-34250
X60250Y-33250
X60250Y-34250
T4
X91750Y-42000
X91750Y-43000
X91750Y-44000
X66750Y-34250
X66750Y-35250
X66750Y-36250
X66750Y-37250
X66750Y-38250
X66750Y-39250
X66750Y-40250
X66750Y-41250
X66750Y-42250
X66750Y-43250
X66750Y-44250
X66750Y-45250
X67750Y-34250
X67750Y-35250
X67750Y-36250
X67750Y-37250
X67750Y-38250
X67750Y-39250
X67750Y-40250
X67750Y-41250
X67750Y-42250
X67750Y-43250
X67750Y-44250
X67750Y-45250
X73750Y-34250
X73750Y-35250
X73750Y-36250
X73750Y-37250
X73750Y-38250
X73750Y-39250
X73750Y-40250
X73750Y-41250
X73750Y-42250
X73750Y-43250
X73750Y-44250
X73750Y-45250
X91750Y-46000
X91750Y-47000
X91750Y-48000
X91750Y-38000
X91750Y-39000
X91750Y-40000
X75250Y-48000
X75250Y-49000
T5
X85750Y-34000
X85750Y-35000
X86750Y-34000
X86750Y-35000
X87750Y-34000
X87750Y-35000
X88750Y-34000
X88750Y-35000
X89750Y-34000
X89750Y-35000
X76750Y-34000
X76750Y-35000
X77750Y-34000
X77750Y-35000
X78750Y-34000
X78750Y-35000
X79750Y-34000
X79750Y-35000
X80750Y-34000
X80750Y-35000
T6
X67000Y-47750
X67000Y-49522
X69559Y-47750
X69559Y-49522
T7
X87000Y-54500
X89500Y-53500
X60250Y-38000
X62750Y-37000
X60250Y-46250
X62750Y-45250
X70500Y-54500
X73000Y-53500
X60250Y-54500
X62750Y-53500
X78750Y-54500
X81250Y-53500
X78750Y-46250
X81250Y-45250
T8
X93500Y-60750
X56750Y-33750
X56750Y-60750
X93500Y-33750
T9
X78250Y-47250
X82250Y-47250
X86500Y-55500
X90500Y-55500
X59750Y-39000
X63750Y-39000
X59750Y-47250
X63750Y-47250
X70000Y-55500
X74000Y-55500
X59750Y-55500
X63750Y-55500
X78250Y-55500
X82250Y-55500
T10
X80250Y-47250
X88500Y-55500
X61750Y-39000
X61750Y-47250
X72000Y-55500
X61750Y-55500
X80250Y-55500
T0
M30
