G04 #@! TF.GenerationSoftware,KiCad,Pcbnew,(5.1.8)-1*
G04 #@! TF.CreationDate,2021-01-08T19:52:48+01:00*
G04 #@! TF.ProjectId,C64 Joykey,43363420-4a6f-4796-9b65-792e6b696361,rev?*
G04 #@! TF.SameCoordinates,Original*
G04 #@! TF.FileFunction,Copper,L1,Top*
G04 #@! TF.FilePolarity,Positive*
%FSLAX46Y46*%
G04 Gerber Fmt 4.6, Leading zero omitted, Abs format (unit mm)*
G04 Created by KiCad (PCBNEW (5.1.8)-1) date 2021-01-08 19:52:48*
%MOMM*%
%LPD*%
G01*
G04 APERTURE LIST*
G04 #@! TA.AperFunction,ComponentPad*
%ADD10C,1.600000*%
G04 #@! TD*
G04 #@! TA.AperFunction,ComponentPad*
%ADD11O,1.600000X1.600000*%
G04 #@! TD*
G04 #@! TA.AperFunction,SMDPad,CuDef*
%ADD12R,2.000000X1.600000*%
G04 #@! TD*
G04 #@! TA.AperFunction,ComponentPad*
%ADD13C,1.700000*%
G04 #@! TD*
G04 #@! TA.AperFunction,ComponentPad*
%ADD14C,2.200000*%
G04 #@! TD*
G04 #@! TA.AperFunction,ComponentPad*
%ADD15C,3.500000*%
G04 #@! TD*
G04 #@! TA.AperFunction,ComponentPad*
%ADD16C,1.800000*%
G04 #@! TD*
G04 #@! TA.AperFunction,ComponentPad*
%ADD17R,1.800000X1.800000*%
G04 #@! TD*
G04 #@! TA.AperFunction,ComponentPad*
%ADD18C,2.000000*%
G04 #@! TD*
G04 #@! TA.AperFunction,ComponentPad*
%ADD19R,1.700000X1.700000*%
G04 #@! TD*
G04 #@! TA.AperFunction,ComponentPad*
%ADD20O,1.700000X1.700000*%
G04 #@! TD*
G04 #@! TA.AperFunction,ComponentPad*
%ADD21R,1.727200X1.727200*%
G04 #@! TD*
G04 #@! TA.AperFunction,ComponentPad*
%ADD22O,1.727200X1.727200*%
G04 #@! TD*
G04 #@! TA.AperFunction,ComponentPad*
%ADD23O,2.200000X2.200000*%
G04 #@! TD*
G04 #@! TA.AperFunction,ComponentPad*
%ADD24R,2.200000X2.200000*%
G04 #@! TD*
G04 #@! TA.AperFunction,ComponentPad*
%ADD25R,1.600000X1.600000*%
G04 #@! TD*
G04 #@! TA.AperFunction,ComponentPad*
%ADD26O,1.050000X1.500000*%
G04 #@! TD*
G04 #@! TA.AperFunction,ComponentPad*
%ADD27R,1.050000X1.500000*%
G04 #@! TD*
G04 #@! TA.AperFunction,ViaPad*
%ADD28C,0.800000*%
G04 #@! TD*
G04 #@! TA.AperFunction,Conductor*
%ADD29C,0.250000*%
G04 #@! TD*
G04 #@! TA.AperFunction,Conductor*
%ADD30C,0.381000*%
G04 #@! TD*
G04 APERTURE END LIST*
D10*
X202565000Y-107950000D03*
D11*
X192405000Y-107950000D03*
D10*
X179705000Y-120015000D03*
D11*
X187325000Y-120015000D03*
D10*
X143510000Y-125095000D03*
D11*
X143510000Y-114935000D03*
X147320000Y-135890000D03*
D10*
X147320000Y-146050000D03*
D11*
X147320000Y-114935000D03*
D10*
X147320000Y-125095000D03*
D12*
X166370000Y-88265000D03*
X166370000Y-86360000D03*
X166370000Y-84455000D03*
D13*
X172085000Y-114935000D03*
X172085000Y-112395000D03*
X172085000Y-109855000D03*
X172085000Y-107315000D03*
X172085000Y-104775000D03*
X172085000Y-102235000D03*
X172085000Y-99695000D03*
X172085000Y-97155000D03*
X172085000Y-94615000D03*
X172085000Y-92075000D03*
X172085000Y-89535000D03*
X172085000Y-86995000D03*
X169545000Y-89535000D03*
X169545000Y-92075000D03*
X169545000Y-94615000D03*
X169545000Y-97155000D03*
X169545000Y-99695000D03*
X169545000Y-102235000D03*
X169545000Y-104775000D03*
X169545000Y-107315000D03*
X169545000Y-109855000D03*
X169545000Y-112395000D03*
X169545000Y-114935000D03*
X187325000Y-114935000D03*
X187325000Y-112395000D03*
X187325000Y-109855000D03*
X187325000Y-107315000D03*
X187325000Y-104775000D03*
X187325000Y-102235000D03*
X187325000Y-99695000D03*
X187325000Y-97155000D03*
X187325000Y-94615000D03*
X187325000Y-92075000D03*
X187325000Y-89535000D03*
X187325000Y-86995000D03*
X169545000Y-86995000D03*
D14*
X159385000Y-135890000D03*
X153035000Y-138430000D03*
X153035000Y-117475000D03*
X159385000Y-114935000D03*
X159385000Y-93980000D03*
X153035000Y-96520000D03*
X200025000Y-117475000D03*
X206375000Y-114935000D03*
X206375000Y-135890000D03*
X200025000Y-138430000D03*
X179070000Y-138430000D03*
X185420000Y-135890000D03*
X227330000Y-135890000D03*
X220980000Y-138430000D03*
D15*
X144145000Y-154305000D03*
X237490000Y-154305000D03*
X237490000Y-85725000D03*
X144145000Y-85725000D03*
D16*
X153035000Y-84455000D03*
D17*
X153035000Y-86995000D03*
X160655000Y-86995000D03*
D16*
X160655000Y-84455000D03*
D18*
X176680000Y-124460000D03*
X176680000Y-128960000D03*
X170180000Y-124460000D03*
X170180000Y-128960000D03*
D19*
X233045000Y-116840000D03*
D20*
X233045000Y-119380000D03*
X233045000Y-121920000D03*
X233045000Y-111760000D03*
X233045000Y-109220000D03*
D19*
X233045000Y-106680000D03*
D20*
X233045000Y-101600000D03*
X233045000Y-99060000D03*
D19*
X233045000Y-96520000D03*
D21*
X194945000Y-88900000D03*
D22*
X197485000Y-88900000D03*
X200025000Y-88900000D03*
X202565000Y-88900000D03*
X205105000Y-88900000D03*
X194945000Y-86360000D03*
X197485000Y-86360000D03*
X200025000Y-86360000D03*
X202565000Y-86360000D03*
X205105000Y-86360000D03*
X227965000Y-86360000D03*
X225425000Y-86360000D03*
X222885000Y-86360000D03*
X220345000Y-86360000D03*
X217805000Y-86360000D03*
X227965000Y-88900000D03*
X225425000Y-88900000D03*
X222885000Y-88900000D03*
X220345000Y-88900000D03*
D21*
X217805000Y-88900000D03*
D23*
X202565000Y-96520000D03*
D24*
X192405000Y-96520000D03*
D11*
X177165000Y-120015000D03*
D25*
X169545000Y-120015000D03*
D16*
X158115000Y-146050000D03*
D17*
X155575000Y-146050000D03*
D16*
X158115000Y-125095000D03*
D17*
X155575000Y-125095000D03*
D16*
X158115000Y-104140000D03*
D17*
X155575000Y-104140000D03*
X202565000Y-125095000D03*
D16*
X205105000Y-125095000D03*
D17*
X202565000Y-146050000D03*
D16*
X205105000Y-146050000D03*
X184150000Y-146050000D03*
D17*
X181610000Y-146050000D03*
X223520000Y-146050000D03*
D16*
X226060000Y-146050000D03*
D10*
X192405000Y-100330000D03*
D11*
X202565000Y-100330000D03*
X202565000Y-104140000D03*
D10*
X192405000Y-104140000D03*
X143510000Y-90805000D03*
D11*
X143510000Y-100965000D03*
X147320000Y-100965000D03*
D10*
X147320000Y-90805000D03*
D11*
X194310000Y-114935000D03*
D10*
X194310000Y-125095000D03*
X194310000Y-146050000D03*
D11*
X194310000Y-135890000D03*
X173355000Y-135890000D03*
D10*
X173355000Y-146050000D03*
X215265000Y-146050000D03*
D11*
X215265000Y-135890000D03*
D26*
X208280000Y-107950000D03*
X207010000Y-107950000D03*
D27*
X209550000Y-107950000D03*
D19*
X233045000Y-127000000D03*
D20*
X233045000Y-129540000D03*
X185420000Y-127000000D03*
D19*
X185420000Y-124460000D03*
X181610000Y-124460000D03*
D20*
X181610000Y-127000000D03*
D28*
X236220000Y-95885000D03*
X224155000Y-104140000D03*
X156845000Y-88175000D03*
X156845000Y-91530000D03*
X189865000Y-110490000D03*
X219063261Y-105500000D03*
X236220000Y-101600000D03*
X232410000Y-88900000D03*
X225425000Y-101055000D03*
X225425000Y-104140000D03*
X189140000Y-118654998D03*
X222250000Y-117565010D03*
X222885000Y-115570000D03*
X222885000Y-104140000D03*
X220345000Y-115570000D03*
X220345000Y-103595000D03*
X220345000Y-120650000D03*
X217805000Y-101600000D03*
X217805000Y-111125006D03*
X226695000Y-101600000D03*
X226695000Y-104140000D03*
X174400000Y-101170000D03*
X175260000Y-100076000D03*
X175260000Y-112395000D03*
X170815000Y-111125000D03*
X167640000Y-126365000D03*
X165735000Y-126365000D03*
X167640000Y-104775000D03*
X211455000Y-93345000D03*
X176276000Y-105410000D03*
X176276000Y-109855000D03*
X161925000Y-106135000D03*
X154305016Y-106045000D03*
X173355000Y-90805000D03*
X175260000Y-90805000D03*
X185420000Y-91350000D03*
X185420000Y-99060000D03*
X156054500Y-109220000D03*
X158115000Y-107315000D03*
X171450000Y-147320000D03*
X192405000Y-147320000D03*
X213360000Y-147320000D03*
X192405000Y-118835000D03*
X192405000Y-116750000D03*
X212725000Y-149860000D03*
X170815000Y-149860000D03*
X191770000Y-149860000D03*
X219075000Y-115570000D03*
X219075000Y-118745000D03*
X224155000Y-128905000D03*
D29*
X229235000Y-83820000D02*
X195580000Y-83820000D01*
X229870000Y-84455000D02*
X229235000Y-83820000D01*
X229870000Y-89535000D02*
X229870000Y-84455000D01*
X230505000Y-90170000D02*
X229870000Y-89535000D01*
X194945000Y-84455000D02*
X194945000Y-86360000D01*
X234950000Y-90170000D02*
X230505000Y-90170000D01*
X195580000Y-83820000D02*
X194945000Y-84455000D01*
X236220000Y-91440000D02*
X234950000Y-90170000D01*
X236220000Y-95885000D02*
X236220000Y-91440000D01*
X201295000Y-114935000D02*
X203200000Y-116840000D01*
X224155000Y-116205000D02*
X224155000Y-104140000D01*
X198755000Y-114935000D02*
X201295000Y-114935000D01*
X196215000Y-117475000D02*
X198755000Y-114935000D01*
X182880000Y-118110000D02*
X183515000Y-117475000D01*
X182880000Y-125730000D02*
X182880000Y-118110000D01*
X181610000Y-127000000D02*
X182880000Y-125730000D01*
X183515000Y-117475000D02*
X196215000Y-117475000D01*
X223520000Y-116840000D02*
X224155000Y-116205000D01*
X203200000Y-116840000D02*
X223520000Y-116840000D01*
D30*
X233045000Y-106680000D02*
X234315000Y-106680000D01*
X234315000Y-106680000D02*
X234950000Y-106045000D01*
X234276000Y-116840000D02*
X233045000Y-116840000D01*
X234950000Y-116166000D02*
X234276000Y-116840000D01*
X234950000Y-106045000D02*
X234950000Y-116166000D01*
X234315000Y-94615000D02*
X227965000Y-94615000D01*
X234950000Y-95250000D02*
X234315000Y-94615000D01*
X234950000Y-106045000D02*
X234950000Y-95250000D01*
X198755000Y-94615000D02*
X196850000Y-94615000D01*
X227965000Y-94615000D02*
X198755000Y-94615000D01*
X187325000Y-94615000D02*
X190500000Y-94615000D01*
X158115000Y-146050000D02*
X158115000Y-147955000D01*
X158115000Y-147955000D02*
X158750000Y-148590000D01*
X184785000Y-148590000D02*
X202565000Y-148590000D01*
X204470000Y-148590000D02*
X202565000Y-148590000D01*
X226060000Y-147955000D02*
X226060000Y-146050000D01*
X225425000Y-148590000D02*
X226060000Y-147955000D01*
X204470000Y-148590000D02*
X205740000Y-148590000D01*
X205740000Y-148590000D02*
X211455000Y-148590000D01*
X211455000Y-148590000D02*
X225425000Y-148590000D01*
X158115000Y-104140000D02*
X160020000Y-102235000D01*
X160020000Y-102235000D02*
X160020000Y-97790000D01*
X160020000Y-97790000D02*
X156845000Y-94615000D01*
X160020000Y-139700000D02*
X160020000Y-144145000D01*
X156845000Y-136525000D02*
X160020000Y-139700000D01*
X156845000Y-128270000D02*
X156845000Y-136525000D01*
X160020000Y-144145000D02*
X158115000Y-146050000D01*
X158115000Y-127000000D02*
X156845000Y-128270000D01*
X158115000Y-125095000D02*
X158115000Y-127000000D01*
X166370000Y-84455000D02*
X168055510Y-84455000D01*
X190500000Y-94615000D02*
X191135000Y-94615000D01*
X184150000Y-147955000D02*
X183515000Y-148590000D01*
X184150000Y-146050000D02*
X184150000Y-147955000D01*
X183515000Y-148590000D02*
X184785000Y-148590000D01*
X158750000Y-148590000D02*
X183515000Y-148590000D01*
X205105000Y-147955000D02*
X204470000Y-148590000D01*
X205105000Y-146050000D02*
X205105000Y-147955000D01*
X192405000Y-96520000D02*
X192405000Y-95885000D01*
X192405000Y-96520000D02*
X192405000Y-94615000D01*
X192405000Y-94615000D02*
X196850000Y-94615000D01*
X191135000Y-94615000D02*
X192405000Y-94615000D01*
X192405000Y-94615000D02*
X191770000Y-93980000D01*
X156845000Y-91530000D02*
X156845000Y-94615000D01*
X160020000Y-123190000D02*
X158115000Y-125095000D01*
X160020000Y-118745000D02*
X160020000Y-123190000D01*
X156845000Y-115570000D02*
X160020000Y-118745000D01*
X156845000Y-106680000D02*
X156845000Y-115570000D01*
X158115000Y-105410000D02*
X156845000Y-106680000D01*
X158115000Y-104140000D02*
X158115000Y-105410000D01*
X207010000Y-143846002D02*
X205105000Y-145751002D01*
X205105000Y-145751002D02*
X205105000Y-146050000D01*
X207010000Y-139700000D02*
X207010000Y-143846002D01*
X203835000Y-136525000D02*
X207010000Y-139700000D01*
X205105000Y-133350000D02*
X203835000Y-134620000D01*
X205105000Y-125095000D02*
X205105000Y-133350000D01*
X203835000Y-134620000D02*
X203835000Y-136525000D01*
X191135000Y-84455000D02*
X191770000Y-85090000D01*
X168055510Y-84455000D02*
X191135000Y-84455000D01*
X191770000Y-93980000D02*
X191770000Y-85090000D01*
X162975510Y-82965510D02*
X164465000Y-84455000D01*
X164465000Y-84455000D02*
X166370000Y-84455000D01*
X158334490Y-82965510D02*
X162975510Y-82965510D01*
X156845000Y-84455000D02*
X158334490Y-82965510D01*
X156845000Y-88175000D02*
X156845000Y-84455000D01*
D29*
X185420000Y-127000000D02*
X186690000Y-127000000D01*
X186690000Y-127000000D02*
X187325000Y-126365000D01*
X187325000Y-126365000D02*
X187325000Y-120015000D01*
X189865000Y-110490000D02*
X190500000Y-109855000D01*
X190500000Y-109855000D02*
X193040000Y-109855000D01*
X193040000Y-109855000D02*
X196850000Y-106045000D01*
X218518261Y-106045000D02*
X218440000Y-106045000D01*
X219063261Y-105500000D02*
X218518261Y-106045000D01*
X196850000Y-106045000D02*
X218440000Y-106045000D01*
X234950000Y-88900000D02*
X232410000Y-88900000D01*
X236982000Y-90932000D02*
X234950000Y-88900000D01*
X236982000Y-100838000D02*
X236982000Y-90932000D01*
X236220000Y-101600000D02*
X236982000Y-100838000D01*
X193675000Y-105410000D02*
X196215000Y-102870000D01*
X189230000Y-105410000D02*
X193675000Y-105410000D01*
X188595000Y-104775000D02*
X189230000Y-105410000D01*
X187325000Y-104775000D02*
X188595000Y-104775000D01*
X219075000Y-101600000D02*
X217805000Y-102870000D01*
X224880000Y-101600000D02*
X219075000Y-101600000D01*
X225425000Y-101055000D02*
X224880000Y-101600000D01*
X196215000Y-102870000D02*
X217805000Y-102870000D01*
X227330000Y-135890000D02*
X225425000Y-133985000D01*
X225425000Y-133985000D02*
X225425000Y-104140000D01*
X198914102Y-115729102D02*
X200977499Y-115729102D01*
X202813407Y-117565010D02*
X222250000Y-117565010D01*
X200977499Y-115729102D02*
X202813407Y-117565010D01*
X196533204Y-118110000D02*
X198914102Y-115729102D01*
X189684998Y-118110000D02*
X196533204Y-118110000D01*
X189140000Y-118654998D02*
X189684998Y-118110000D01*
X188595000Y-135890000D02*
X185420000Y-135890000D01*
X189140000Y-135345000D02*
X188595000Y-135890000D01*
X189140000Y-118654998D02*
X189140000Y-135345000D01*
X222885000Y-115570000D02*
X222885000Y-104140000D01*
X220345000Y-115570000D02*
X220345000Y-104865000D01*
X188595000Y-106680000D02*
X187960000Y-106680000D01*
X194945000Y-106045000D02*
X189230000Y-106045000D01*
X195580000Y-105410000D02*
X194945000Y-106045000D01*
X187960000Y-106680000D02*
X187325000Y-107315000D01*
X203835000Y-105410000D02*
X195580000Y-105410000D01*
X204470000Y-104775000D02*
X203835000Y-105410000D01*
X219165000Y-104775000D02*
X204470000Y-104775000D01*
X189230000Y-106045000D02*
X188595000Y-106680000D01*
X220345000Y-103595000D02*
X219165000Y-104775000D01*
X220345000Y-104865000D02*
X220345000Y-103595000D01*
X206375000Y-133985000D02*
X206375000Y-135890000D01*
X207010000Y-133350000D02*
X206375000Y-133985000D01*
X219710000Y-133350000D02*
X207010000Y-133350000D01*
X220345000Y-132715000D02*
X219710000Y-133350000D01*
X220345000Y-120650000D02*
X220345000Y-132715000D01*
X217170000Y-102235000D02*
X217805000Y-101600000D01*
X187325000Y-102235000D02*
X217170000Y-102235000D01*
X217805000Y-114300000D02*
X217805000Y-111125006D01*
X217170000Y-114935000D02*
X217805000Y-114300000D01*
X206375000Y-114935000D02*
X217170000Y-114935000D01*
X226060000Y-100330000D02*
X226695000Y-100965000D01*
X202565000Y-100330000D02*
X226060000Y-100330000D01*
X226695000Y-100965000D02*
X226695000Y-101600000D01*
X227330000Y-119380000D02*
X233045000Y-119380000D01*
X226695000Y-118745000D02*
X227330000Y-119380000D01*
X226695000Y-104140000D02*
X226695000Y-118745000D01*
X228600000Y-109220000D02*
X233045000Y-109220000D01*
X227965000Y-103505000D02*
X227965000Y-108585000D01*
X218984998Y-103595002D02*
X219710000Y-102870000D01*
X227965000Y-108585000D02*
X228600000Y-109220000D01*
X204379998Y-103595002D02*
X218984998Y-103595002D01*
X219710000Y-102870000D02*
X227330000Y-102870000D01*
X203835000Y-104140000D02*
X204379998Y-103595002D01*
X227330000Y-102870000D02*
X227965000Y-103505000D01*
X202565000Y-104140000D02*
X203835000Y-104140000D01*
X174400000Y-88675000D02*
X174400000Y-100604315D01*
X173990000Y-88265000D02*
X174400000Y-88675000D01*
X174400000Y-100604315D02*
X174400000Y-101170000D01*
X166370000Y-88265000D02*
X173990000Y-88265000D01*
X169545000Y-89535000D02*
X172085000Y-89535000D01*
X169545000Y-86995000D02*
X172085000Y-86995000D01*
X175260000Y-93218000D02*
X175260000Y-92710000D01*
X175895000Y-92075000D02*
X187325000Y-92075000D01*
X175260000Y-92710000D02*
X175895000Y-92075000D01*
X175260000Y-100076000D02*
X175260000Y-93218000D01*
X175260000Y-112395000D02*
X174625000Y-113030000D01*
X176680000Y-124460000D02*
X174625000Y-124460000D01*
X174625000Y-124460000D02*
X173355000Y-124460000D01*
X173355000Y-124460000D02*
X170180000Y-124460000D01*
X173355000Y-121285000D02*
X174625000Y-120015000D01*
X173355000Y-124460000D02*
X173355000Y-121285000D01*
X174625000Y-113030000D02*
X174625000Y-120015000D01*
X144145000Y-90805000D02*
X143510000Y-90805000D01*
X151765000Y-84455000D02*
X151130000Y-85090000D01*
X153035000Y-84455000D02*
X151765000Y-84455000D01*
X151130000Y-85090000D02*
X151130000Y-87630000D01*
X151130000Y-87630000D02*
X150495000Y-88265000D01*
X150495000Y-88265000D02*
X146685000Y-88265000D01*
X146685000Y-88265000D02*
X144145000Y-90805000D01*
X149225000Y-88900000D02*
X147320000Y-90805000D01*
X158115000Y-88900000D02*
X149225000Y-88900000D01*
X158750000Y-88265000D02*
X158115000Y-88900000D01*
X158750000Y-85090000D02*
X158750000Y-88265000D01*
X159385000Y-84455000D02*
X158750000Y-85090000D01*
X160655000Y-84455000D02*
X159385000Y-84455000D01*
X169545000Y-112395000D02*
X172085000Y-112395000D01*
X169545000Y-102235000D02*
X172085000Y-102235000D01*
X168275000Y-102235000D02*
X169545000Y-102235000D01*
X167640000Y-94615000D02*
X167640000Y-101600000D01*
X167640000Y-101600000D02*
X168275000Y-102235000D01*
X167005000Y-93980000D02*
X167640000Y-94615000D01*
X159385000Y-93980000D02*
X167005000Y-93980000D01*
X187960000Y-95885000D02*
X191135000Y-99060000D01*
X176719998Y-95885000D02*
X187960000Y-95885000D01*
X191135000Y-99060000D02*
X233045000Y-99060000D01*
X176084998Y-96520000D02*
X176719998Y-95885000D01*
X176084998Y-100775002D02*
X176084998Y-96520000D01*
X174625000Y-102235000D02*
X176084998Y-100775002D01*
X172085000Y-102235000D02*
X174625000Y-102235000D01*
X169545000Y-97155000D02*
X172085000Y-97155000D01*
X166600000Y-111980000D02*
X166600000Y-127810000D01*
X167455000Y-111125000D02*
X166600000Y-111980000D01*
X170815000Y-111125000D02*
X167455000Y-111125000D01*
X160020000Y-131445000D02*
X159385000Y-132080000D01*
X159385000Y-132080000D02*
X159385000Y-135890000D01*
X166600000Y-130580000D02*
X165735000Y-131445000D01*
X166600000Y-127810000D02*
X166600000Y-130580000D01*
X165735000Y-131445000D02*
X160020000Y-131445000D01*
X183515000Y-130810000D02*
X182880000Y-131445000D01*
X182880000Y-131445000D02*
X165735000Y-131445000D01*
X183515000Y-125646000D02*
X183515000Y-130810000D01*
X185420000Y-124460000D02*
X184701000Y-124460000D01*
X184701000Y-124460000D02*
X183515000Y-125646000D01*
X143510000Y-93345000D02*
X143510000Y-100965000D01*
X150650001Y-92554999D02*
X144300001Y-92554999D01*
X153035000Y-90170000D02*
X150650001Y-92554999D01*
X144300001Y-92554999D02*
X143510000Y-93345000D01*
X161925000Y-90170000D02*
X153035000Y-90170000D01*
X162560000Y-86995000D02*
X162560000Y-89535000D01*
X162560000Y-89535000D02*
X161925000Y-90170000D01*
X163195000Y-86360000D02*
X162560000Y-86995000D01*
X166370000Y-86360000D02*
X163195000Y-86360000D01*
X172085000Y-99695000D02*
X169545000Y-99695000D01*
X181610000Y-124460000D02*
X180510000Y-124460000D01*
X178605000Y-126365000D02*
X167640000Y-126365000D01*
X180510000Y-124460000D02*
X178605000Y-126365000D01*
X165735000Y-126365000D02*
X165100000Y-126365000D01*
X165100000Y-126365000D02*
X164465000Y-125730000D01*
X164465000Y-125730000D02*
X164465000Y-115570000D01*
X163830000Y-114935000D02*
X159385000Y-114935000D01*
X164465000Y-115570000D02*
X163830000Y-114935000D01*
X159385000Y-107315000D02*
X159385000Y-114935000D01*
X161290000Y-105410000D02*
X159385000Y-107315000D01*
X167640000Y-104775000D02*
X167005000Y-105410000D01*
X166370000Y-105410000D02*
X161290000Y-105410000D01*
X167005000Y-105410000D02*
X166370000Y-105410000D01*
X166460000Y-105410000D02*
X166370000Y-105410000D01*
D30*
X220345000Y-85471000D02*
X220345000Y-86360000D01*
X219456000Y-84582000D02*
X220345000Y-85471000D01*
X212471000Y-84582000D02*
X219456000Y-84582000D01*
X211455000Y-85598000D02*
X212471000Y-84582000D01*
X211455000Y-93345000D02*
X211455000Y-85598000D01*
D29*
X169545000Y-104775000D02*
X172085000Y-104775000D01*
X172085000Y-104775000D02*
X175641000Y-104775000D01*
X175641000Y-104775000D02*
X176276000Y-105410000D01*
X173355000Y-120015000D02*
X169545000Y-120015000D01*
X173990000Y-119380000D02*
X173355000Y-120015000D01*
X173990000Y-112395000D02*
X173990000Y-119380000D01*
X176276000Y-110109000D02*
X173990000Y-112395000D01*
X176276000Y-109855000D02*
X176276000Y-110109000D01*
X177165000Y-120015000D02*
X179705000Y-120015000D01*
X169545000Y-109855000D02*
X172085000Y-109855000D01*
X169545000Y-107315000D02*
X172085000Y-107315000D01*
X192405000Y-107950000D02*
X192405000Y-107315000D01*
X189230000Y-107950000D02*
X188595000Y-108585000D01*
X192405000Y-107950000D02*
X189230000Y-107950000D01*
X184785000Y-107315000D02*
X186055000Y-108585000D01*
X172085000Y-107315000D02*
X184785000Y-107315000D01*
X188595000Y-108585000D02*
X186055000Y-108585000D01*
X187325000Y-114935000D02*
X186055000Y-114935000D01*
X186055000Y-114935000D02*
X185420000Y-114300000D01*
X185420000Y-114300000D02*
X185420000Y-109220000D01*
X185420000Y-109220000D02*
X184785000Y-108585000D01*
X184785000Y-108585000D02*
X168275000Y-108585000D01*
X168275000Y-108585000D02*
X165735000Y-106045000D01*
X165645000Y-106135000D02*
X161925000Y-106135000D01*
X165735000Y-106045000D02*
X165645000Y-106135000D01*
X150495000Y-106045000D02*
X154305016Y-106045000D01*
X147955000Y-106045000D02*
X150495000Y-106045000D01*
X147320000Y-105410000D02*
X147955000Y-106045000D01*
X147320000Y-100965000D02*
X147320000Y-105410000D01*
X153035000Y-96520000D02*
X153035000Y-91440000D01*
X153670000Y-90805000D02*
X173355000Y-90805000D01*
X153035000Y-91440000D02*
X153670000Y-90805000D01*
X184875000Y-90805000D02*
X185420000Y-91350000D01*
X175260000Y-90805000D02*
X184875000Y-90805000D01*
X185420000Y-99060000D02*
X185420000Y-102870000D01*
X185420000Y-102870000D02*
X186055000Y-103505000D01*
X191770000Y-103505000D02*
X192405000Y-104140000D01*
X186055000Y-103505000D02*
X191770000Y-103505000D01*
X154305000Y-117475000D02*
X153035000Y-117475000D01*
X156054500Y-115725500D02*
X154305000Y-117475000D01*
X156054500Y-109220000D02*
X156054500Y-115725500D01*
X161925000Y-103505000D02*
X158115000Y-107315000D01*
X174625000Y-103505000D02*
X161925000Y-103505000D01*
X187325000Y-97155000D02*
X180975000Y-97155000D01*
X177165000Y-100965000D02*
X177165000Y-97790000D01*
X177165000Y-100965000D02*
X174625000Y-103505000D01*
X177800000Y-97155000D02*
X180975000Y-97155000D01*
X177165000Y-97790000D02*
X177800000Y-97155000D01*
X191135000Y-100330000D02*
X192405000Y-100330000D01*
X187960000Y-97155000D02*
X191135000Y-100330000D01*
X187325000Y-97155000D02*
X187960000Y-97155000D01*
X147320000Y-146050000D02*
X155575000Y-146050000D01*
X147320000Y-125095000D02*
X155575000Y-125095000D01*
X143510000Y-118110000D02*
X143510000Y-125095000D01*
X147955000Y-116840000D02*
X144780000Y-116840000D01*
X144780000Y-116840000D02*
X143510000Y-118110000D01*
X149225000Y-115570000D02*
X147955000Y-116840000D01*
X154940000Y-114300000D02*
X153670000Y-115570000D01*
X154940000Y-106680000D02*
X154940000Y-114300000D01*
X155575000Y-106045000D02*
X154940000Y-106680000D01*
X153670000Y-115570000D02*
X149225000Y-115570000D01*
X155575000Y-104140000D02*
X155575000Y-106045000D01*
X194310000Y-125095000D02*
X202565000Y-125095000D01*
X194310000Y-146050000D02*
X202565000Y-146050000D01*
X173355000Y-146050000D02*
X181610000Y-146050000D01*
X215265000Y-146050000D02*
X223520000Y-146050000D01*
X208280000Y-107315000D02*
X208280000Y-107950000D01*
X207645000Y-106680000D02*
X208280000Y-107315000D01*
X202565000Y-107315000D02*
X203200000Y-106680000D01*
X202565000Y-107950000D02*
X202565000Y-107315000D01*
X203200000Y-106680000D02*
X207645000Y-106680000D01*
D30*
X143510000Y-114935000D02*
X147320000Y-114935000D01*
X147320000Y-135890000D02*
X142240000Y-135890000D01*
X173355000Y-135890000D02*
X172085000Y-135890000D01*
X171450000Y-136525000D02*
X171450000Y-147320000D01*
X172085000Y-135890000D02*
X171450000Y-136525000D01*
X194310000Y-135890000D02*
X193040000Y-135890000D01*
X192405000Y-136525000D02*
X192405000Y-147320000D01*
X193040000Y-135890000D02*
X192405000Y-136525000D01*
X215265000Y-135890000D02*
X213995000Y-135890000D01*
X213360000Y-136525000D02*
X213360000Y-147320000D01*
X213995000Y-135890000D02*
X213360000Y-136525000D01*
X142240000Y-135890000D02*
X141605000Y-136525000D01*
X141605000Y-136525000D02*
X141605000Y-115570000D01*
X141605000Y-115570000D02*
X142240000Y-114935000D01*
X142240000Y-114935000D02*
X143510000Y-114935000D01*
X192405000Y-136525000D02*
X192405000Y-118835000D01*
X192405000Y-116750000D02*
X192405000Y-115570000D01*
X193040000Y-114935000D02*
X194310000Y-114935000D01*
X192405000Y-115570000D02*
X193040000Y-114935000D01*
X141605000Y-136525000D02*
X141605000Y-148590000D01*
X212725000Y-149860000D02*
X191770000Y-149860000D01*
X141605000Y-148590000D02*
X142875000Y-149860000D01*
X142875000Y-149860000D02*
X191770000Y-149860000D01*
X212725000Y-149860000D02*
X234315000Y-149860000D01*
X234315000Y-149860000D02*
X234950000Y-149225000D01*
X234950000Y-149225000D02*
X234950000Y-127635000D01*
X234315000Y-127000000D02*
X233045000Y-127000000D01*
X234950000Y-127635000D02*
X234315000Y-127000000D01*
X207010000Y-107950000D02*
X207010000Y-109220000D01*
X219075000Y-111125000D02*
X219075000Y-115570000D01*
X217805000Y-109855000D02*
X219075000Y-111125000D01*
X207645000Y-109855000D02*
X217805000Y-109855000D01*
X207010000Y-109220000D02*
X207645000Y-109855000D01*
X224155000Y-120015000D02*
X224155000Y-128905000D01*
X223520000Y-119380000D02*
X224155000Y-120015000D01*
X219710000Y-119380000D02*
X223520000Y-119380000D01*
X219075000Y-118745000D02*
X219710000Y-119380000D01*
M02*
