M48
; DRILL file {KiCad (5.1.5)-3} date 07/12/2020 02:19:49
; FORMAT={2:4/ absolute / inch / suppress leading zeros}
; #@! TF.CreationDate,2020-12-07T02:19:49+01:00
; #@! TF.GenerationSoftware,Kicad,Pcbnew,(5.1.5)-3
FMAT,2
INCH,TZ
T1C0.0157
T2C0.0315
T3C0.0354
T4C0.0394
T5C0.0400
T6C0.0433
T7C0.0591
T8C0.1200
T9C0.0669
T10C0.1575
%
G90
G05
T1
X59750Y-42250
X60750Y-42250
X65250Y-41250
X65250Y-49750
X65750Y-42750
X65750Y-43250
X66000Y-49750
X67250Y-43750
X68661Y-39831
X69000Y-39400
X69016Y-43287
X69400Y-41500
X69400Y-43600
X74750Y-42750
X85750Y-43750
X86250Y-42500
X86750Y-42250
X86750Y-45250
X87250Y-44250
X88000Y-43750
X88750Y-41750
X89250Y-40750
X89250Y-41750
X91000Y-35000
X93000Y-38000
X93000Y-40250
T2
X56750Y-35750
X56750Y-39750
X56750Y-41000
X56750Y-45000
X78250Y-41250
X82250Y-41250
X70750Y-47250
X73750Y-47250
X78250Y-39750
X82250Y-39750
T3
X63250Y-33250
X63250Y-34250
X60250Y-33250
X60250Y-34250
T4
X91750Y-46000
X91750Y-47000
X91750Y-48000
X66750Y-34250
X66750Y-35250
X66750Y-36250
X66750Y-37250
X66750Y-38250
X66750Y-39250
X66750Y-40250
X66750Y-41250
X66750Y-42250
X66750Y-43250
X66750Y-44250
X66750Y-45250
X67750Y-34250
X67750Y-35250
X67750Y-36250
X67750Y-37250
X67750Y-38250
X67750Y-39250
X67750Y-40250
X67750Y-41250
X67750Y-42250
X67750Y-43250
X67750Y-44250
X67750Y-45250
X73750Y-34250
X73750Y-35250
X73750Y-36250
X73750Y-37250
X73750Y-38250
X73750Y-39250
X73750Y-40250
X73750Y-41250
X73750Y-42250
X73750Y-43250
X73750Y-44250
X73750Y-45250
X71500Y-49000
X71500Y-50000
X73000Y-49000
X73000Y-50000
X91750Y-38250
X91750Y-39250
X91750Y-40250
X91750Y-42000
X91750Y-43000
X91750Y-44000
T5
X85750Y-34000
X85750Y-35000
X86750Y-34000
X86750Y-35000
X87750Y-34000
X87750Y-35000
X88750Y-34000
X88750Y-35000
X89750Y-34000
X89750Y-35000
X76750Y-34000
X76750Y-35000
X77750Y-34000
X77750Y-35000
X78750Y-34000
X78750Y-35000
X79750Y-34000
X79750Y-35000
X80750Y-34000
X80750Y-35000
T6
X78250Y-38000
X82250Y-38000
X67000Y-49000
X67000Y-50772
X69559Y-49000
X69559Y-50772
T7
X60250Y-46250
X62750Y-45250
X78750Y-54500
X81250Y-53500
X78750Y-46250
X81250Y-45250
X60250Y-54500
X62750Y-53500
X87000Y-54500
X89500Y-53500
X70500Y-54500
X73000Y-53500
X60250Y-38000
X62750Y-37000
T8
X56750Y-33750
X56750Y-60750
X93500Y-33750
X93500Y-60750
T9
X86500Y-55500
X90500Y-55500
X70000Y-55500
X74000Y-55500
X59750Y-39000
X63750Y-39000
X59750Y-47250
X63750Y-47250
X78250Y-55500
X82250Y-55500
X78250Y-47250
X82250Y-47250
X59750Y-55500
X63750Y-55500
T10
X72000Y-55500
X61750Y-47250
X80250Y-55500
X80250Y-47250
X61750Y-55500
X88500Y-55500
X61750Y-39000
T0
M30
