M48
INCH,TZ
T1C0.0157
T2C0.0315
T3C0.0354
T4C0.0390
T5C0.0394
T6C0.0400
T7C0.0433
T8C0.0512
T9C0.0591
T10C0.1200
%
G90
G05
T1
X58400Y-43800
X58400Y-50000
X58689Y-37000
X58689Y-43000
X59311Y-37000
X59311Y-40000
X59311Y-42750
X59400Y-49800
X59750Y-40750
X59750Y-42215
X65250Y-52214
X65429Y-41429
X65429Y-43035
X65500Y-43750
X65500Y-44250
X65715Y-41035
X68500Y-59000
X68679Y-43100
X68965Y-43785
X69000Y-38750
X69250Y-44250
X69400Y-61515
X71900Y-61215
X72250Y-49250
X72700Y-37100
X73000Y-39250
X73750Y-48965
X75500Y-59000
X75600Y-43700
X75600Y-44600
X75750Y-58000
X77223Y-43623
X77250Y-45535
X79800Y-33200
X81800Y-33215
X83750Y-36939
X84500Y-59000
X85465Y-40715
X85707Y-44785
X86100Y-43900
X86100Y-44800
X86250Y-41350
X86465Y-45900
X86750Y-45500
X87035Y-41500
X87939Y-50250
X88035Y-41000
X88250Y-50750
X88750Y-41000
X89250Y-40215
X89500Y-41000
X89500Y-50250
X89577Y-51923
X89785Y-51000
X93200Y-39750
X93600Y-38000
T2
X58000Y-53500
X58000Y-57500
X78250Y-51750
X82250Y-51750
X76500Y-45250
X76500Y-49250
X58000Y-45250
X58000Y-49250
X56500Y-45250
X56500Y-49250
X81250Y-42500
X82250Y-42500
X83250Y-42500
X92250Y-53500
X92250Y-57500
X66875Y-53500
X66875Y-57500
X59750Y-43500
X63750Y-43500
X56500Y-35750
X56500Y-39750
X65500Y-47000
X65500Y-51000
X84000Y-45250
X84000Y-49250
X68250Y-53500
X68250Y-57500
X58000Y-35750
X58000Y-39750
X75750Y-41000
X79750Y-41000
X75750Y-39500
X79750Y-39500
X84750Y-53500
X84750Y-57500
X75750Y-42500
X79750Y-42500
X65500Y-53500
X65500Y-57500
X75000Y-47000
X75000Y-51000
X76500Y-53500
X76500Y-57500
X70000Y-47000
X73000Y-47000
X59750Y-51750
X63750Y-51750
T3
X88000Y-53500
X89000Y-53500
X79750Y-53500
X80750Y-53500
X71500Y-53500
X72500Y-53500
X61250Y-53500
X62250Y-53500
X61250Y-45250
X62250Y-45250
X61250Y-37000
X62250Y-37000
X79750Y-45250
X80750Y-45250
X63250Y-33250
X63250Y-34250
X60250Y-33250
X60250Y-34250
T4
X59428Y-60900
X61200Y-60900
X89061Y-60900
X90833Y-60900
X68877Y-60900
X70649Y-60900
X64153Y-60900
X65924Y-60900
T5
X91750Y-42000
X91750Y-43000
X91750Y-44000
X91750Y-38000
X91750Y-39000
X91750Y-40000
X65385Y-33250
X65385Y-34250
X81750Y-38000
X82750Y-38000
X66750Y-34250
X66750Y-35250
X66750Y-36250
X66750Y-37250
X66750Y-38250
X66750Y-39250
X66750Y-40250
X66750Y-41250
X66750Y-42250
X66750Y-43250
X66750Y-44250
X66750Y-45250
X67750Y-34250
X67750Y-35250
X67750Y-36250
X67750Y-37250
X67750Y-38250
X67750Y-39250
X67750Y-40250
X67750Y-41250
X67750Y-42250
X67750Y-43250
X67750Y-44250
X67750Y-45250
X73750Y-34250
X73750Y-35250
X73750Y-36250
X73750Y-37250
X73750Y-38250
X73750Y-39250
X73750Y-40250
X73750Y-41250
X73750Y-42250
X73750Y-43250
X73750Y-44250
X73750Y-45250
X91750Y-46000
X91750Y-47000
X91750Y-48000
X91750Y-50000
X91750Y-51000
T6
X85750Y-34000
X85750Y-35000
X86750Y-34000
X86750Y-35000
X87750Y-34000
X87750Y-35000
X88750Y-34000
X88750Y-35000
X89750Y-34000
X89750Y-35000
X76750Y-34000
X76750Y-35000
X77750Y-34000
X77750Y-35000
X78750Y-34000
X78750Y-35000
X79750Y-34000
X79750Y-35000
X80750Y-34000
X80750Y-35000
T7
X75750Y-38000
X79750Y-38000
X67000Y-49000
X67000Y-50772
X69559Y-49000
X69559Y-50772
T8
X58932Y-59920
X61692Y-59920
X88565Y-59920
X91325Y-59920
X68381Y-59920
X71141Y-59920
X63657Y-59920
X66417Y-59920
T9
X79250Y-49250
X81750Y-48250
X60750Y-49250
X63250Y-48250
X71000Y-57500
X73500Y-56500
X79250Y-57500
X81750Y-56500
X60750Y-57500
X63250Y-56500
X60750Y-41000
X63250Y-40000
X87500Y-57500
X90000Y-56500
T10
X93500Y-60750
X56750Y-60750
X56750Y-33750
X93500Y-33750
T0
M30
