G04 #@! TF.GenerationSoftware,KiCad,Pcbnew,(5.1.5)-3*
G04 #@! TF.CreationDate,2020-12-05T01:37:11+01:00*
G04 #@! TF.ProjectId,C64 Joykey,43363420-4a6f-4796-9b65-792e6b696361,rev?*
G04 #@! TF.SameCoordinates,Original*
G04 #@! TF.FileFunction,Legend,Bot*
G04 #@! TF.FilePolarity,Positive*
%FSLAX46Y46*%
G04 Gerber Fmt 4.6, Leading zero omitted, Abs format (unit mm)*
G04 Created by KiCad (PCBNEW (5.1.5)-3) date 2020-12-05 01:37:11*
%MOMM*%
%LPD*%
G04 APERTURE LIST*
%ADD10C,0.120000*%
%ADD11C,0.150000*%
%ADD12C,0.100000*%
G04 APERTURE END LIST*
D10*
X179705000Y-125730000D02*
X183515000Y-125730000D01*
X179705000Y-124460000D02*
X179705000Y-125730000D01*
X179705000Y-123825000D02*
X180975000Y-123825000D01*
X179705000Y-121285000D02*
X179705000Y-123825000D01*
X179705000Y-121285000D02*
X180975000Y-121285000D01*
X179705000Y-119380000D02*
X179705000Y-120650000D01*
X183515000Y-119380000D02*
X179705000Y-119380000D01*
D11*
X210484404Y-153107380D02*
X210484404Y-152107380D01*
X210103452Y-152107380D01*
X210008214Y-152155000D01*
X209960595Y-152202619D01*
X209912976Y-152297857D01*
X209912976Y-152440714D01*
X209960595Y-152535952D01*
X210008214Y-152583571D01*
X210103452Y-152631190D01*
X210484404Y-152631190D01*
X209293928Y-152107380D02*
X209103452Y-152107380D01*
X209008214Y-152155000D01*
X208912976Y-152250238D01*
X208865357Y-152440714D01*
X208865357Y-152774047D01*
X208912976Y-152964523D01*
X209008214Y-153059761D01*
X209103452Y-153107380D01*
X209293928Y-153107380D01*
X209389166Y-153059761D01*
X209484404Y-152964523D01*
X209532023Y-152774047D01*
X209532023Y-152440714D01*
X209484404Y-152250238D01*
X209389166Y-152155000D01*
X209293928Y-152107380D01*
X207960595Y-153107380D02*
X208436785Y-153107380D01*
X208436785Y-152107380D01*
X207674880Y-152821666D02*
X207198690Y-152821666D01*
X207770119Y-153107380D02*
X207436785Y-152107380D01*
X207103452Y-153107380D01*
X206198690Y-153107380D02*
X206532023Y-152631190D01*
X206770119Y-153107380D02*
X206770119Y-152107380D01*
X206389166Y-152107380D01*
X206293928Y-152155000D01*
X206246309Y-152202619D01*
X206198690Y-152297857D01*
X206198690Y-152440714D01*
X206246309Y-152535952D01*
X206293928Y-152583571D01*
X206389166Y-152631190D01*
X206770119Y-152631190D01*
X205770119Y-153107380D02*
X205770119Y-152107380D01*
X205436785Y-152107380D02*
X204865357Y-152107380D01*
X205151071Y-153107380D02*
X205151071Y-152107380D01*
X204341547Y-152631190D02*
X204341547Y-153107380D01*
X204674880Y-152107380D02*
X204341547Y-152631190D01*
X204008214Y-152107380D01*
X201579642Y-153012142D02*
X201627261Y-153059761D01*
X201770119Y-153107380D01*
X201865357Y-153107380D01*
X202008214Y-153059761D01*
X202103452Y-152964523D01*
X202151071Y-152869285D01*
X202198690Y-152678809D01*
X202198690Y-152535952D01*
X202151071Y-152345476D01*
X202103452Y-152250238D01*
X202008214Y-152155000D01*
X201865357Y-152107380D01*
X201770119Y-152107380D01*
X201627261Y-152155000D01*
X201579642Y-152202619D01*
X200722500Y-152107380D02*
X200912976Y-152107380D01*
X201008214Y-152155000D01*
X201055833Y-152202619D01*
X201151071Y-152345476D01*
X201198690Y-152535952D01*
X201198690Y-152916904D01*
X201151071Y-153012142D01*
X201103452Y-153059761D01*
X201008214Y-153107380D01*
X200817738Y-153107380D01*
X200722500Y-153059761D01*
X200674880Y-153012142D01*
X200627261Y-152916904D01*
X200627261Y-152678809D01*
X200674880Y-152583571D01*
X200722500Y-152535952D01*
X200817738Y-152488333D01*
X201008214Y-152488333D01*
X201103452Y-152535952D01*
X201151071Y-152583571D01*
X201198690Y-152678809D01*
X199770119Y-152440714D02*
X199770119Y-153107380D01*
X200008214Y-152059761D02*
X200246309Y-152774047D01*
X199627261Y-152774047D01*
X198532023Y-152821666D02*
X198055833Y-152821666D01*
X198627261Y-153107380D02*
X198293928Y-152107380D01*
X197960595Y-153107380D01*
X197627261Y-153107380D02*
X197627261Y-152440714D01*
X197627261Y-152535952D02*
X197579642Y-152488333D01*
X197484404Y-152440714D01*
X197341547Y-152440714D01*
X197246309Y-152488333D01*
X197198690Y-152583571D01*
X197198690Y-153107380D01*
X197198690Y-152583571D02*
X197151071Y-152488333D01*
X197055833Y-152440714D01*
X196912976Y-152440714D01*
X196817738Y-152488333D01*
X196770119Y-152583571D01*
X196770119Y-153107380D01*
X196293928Y-153107380D02*
X196293928Y-152440714D01*
X196293928Y-152107380D02*
X196341547Y-152155000D01*
X196293928Y-152202619D01*
X196246309Y-152155000D01*
X196293928Y-152107380D01*
X196293928Y-152202619D01*
X195389166Y-152440714D02*
X195389166Y-153250238D01*
X195436785Y-153345476D01*
X195484404Y-153393095D01*
X195579642Y-153440714D01*
X195722500Y-153440714D01*
X195817738Y-153393095D01*
X195389166Y-153059761D02*
X195484404Y-153107380D01*
X195674880Y-153107380D01*
X195770119Y-153059761D01*
X195817738Y-153012142D01*
X195865357Y-152916904D01*
X195865357Y-152631190D01*
X195817738Y-152535952D01*
X195770119Y-152488333D01*
X195674880Y-152440714D01*
X195484404Y-152440714D01*
X195389166Y-152488333D01*
X194484404Y-153107380D02*
X194484404Y-152583571D01*
X194532023Y-152488333D01*
X194627261Y-152440714D01*
X194817738Y-152440714D01*
X194912976Y-152488333D01*
X194484404Y-153059761D02*
X194579642Y-153107380D01*
X194817738Y-153107380D01*
X194912976Y-153059761D01*
X194960595Y-152964523D01*
X194960595Y-152869285D01*
X194912976Y-152774047D01*
X194817738Y-152726428D01*
X194579642Y-152726428D01*
X194484404Y-152678809D01*
X193293928Y-152821666D02*
X192817738Y-152821666D01*
X193389166Y-153107380D02*
X193055833Y-152107380D01*
X192722500Y-153107380D01*
X192532023Y-152440714D02*
X192151071Y-152440714D01*
X192389166Y-152107380D02*
X192389166Y-152964523D01*
X192341547Y-153059761D01*
X192246309Y-153107380D01*
X192151071Y-153107380D01*
X191389166Y-153107380D02*
X191389166Y-152583571D01*
X191436785Y-152488333D01*
X191532023Y-152440714D01*
X191722500Y-152440714D01*
X191817738Y-152488333D01*
X191389166Y-153059761D02*
X191484404Y-153107380D01*
X191722500Y-153107380D01*
X191817738Y-153059761D01*
X191865357Y-152964523D01*
X191865357Y-152869285D01*
X191817738Y-152774047D01*
X191722500Y-152726428D01*
X191484404Y-152726428D01*
X191389166Y-152678809D01*
X190912976Y-153107380D02*
X190912976Y-152440714D01*
X190912976Y-152631190D02*
X190865357Y-152535952D01*
X190817738Y-152488333D01*
X190722500Y-152440714D01*
X190627261Y-152440714D01*
X190293928Y-153107380D02*
X190293928Y-152440714D01*
X190293928Y-152107380D02*
X190341547Y-152155000D01*
X190293928Y-152202619D01*
X190246309Y-152155000D01*
X190293928Y-152107380D01*
X190293928Y-152202619D01*
X189103452Y-152821666D02*
X188627261Y-152821666D01*
X189198690Y-153107380D02*
X188865357Y-152107380D01*
X188532023Y-153107380D01*
X188341547Y-152440714D02*
X187960595Y-152440714D01*
X188198690Y-152107380D02*
X188198690Y-152964523D01*
X188151071Y-153059761D01*
X188055833Y-153107380D01*
X187960595Y-153107380D01*
X187198690Y-153107380D02*
X187198690Y-152583571D01*
X187246309Y-152488333D01*
X187341547Y-152440714D01*
X187532023Y-152440714D01*
X187627261Y-152488333D01*
X187198690Y-153059761D02*
X187293928Y-153107380D01*
X187532023Y-153107380D01*
X187627261Y-153059761D01*
X187674880Y-152964523D01*
X187674880Y-152869285D01*
X187627261Y-152774047D01*
X187532023Y-152726428D01*
X187293928Y-152726428D01*
X187198690Y-152678809D01*
X186722500Y-153107380D02*
X186722500Y-152440714D01*
X186722500Y-152631190D02*
X186674880Y-152535952D01*
X186627261Y-152488333D01*
X186532023Y-152440714D01*
X186436785Y-152440714D01*
X186103452Y-153107380D02*
X186103452Y-152440714D01*
X186103452Y-152107380D02*
X186151071Y-152155000D01*
X186103452Y-152202619D01*
X186055833Y-152155000D01*
X186103452Y-152107380D01*
X186103452Y-152202619D01*
X185865357Y-153202619D02*
X185103452Y-153202619D01*
X184912976Y-153059761D02*
X184770119Y-153107380D01*
X184532023Y-153107380D01*
X184436785Y-153059761D01*
X184389166Y-153012142D01*
X184341547Y-152916904D01*
X184341547Y-152821666D01*
X184389166Y-152726428D01*
X184436785Y-152678809D01*
X184532023Y-152631190D01*
X184722500Y-152583571D01*
X184817738Y-152535952D01*
X184865357Y-152488333D01*
X184912976Y-152393095D01*
X184912976Y-152297857D01*
X184865357Y-152202619D01*
X184817738Y-152155000D01*
X184722500Y-152107380D01*
X184484404Y-152107380D01*
X184341547Y-152155000D01*
X184055833Y-152107380D02*
X183484404Y-152107380D01*
X183770119Y-153107380D02*
X183770119Y-152107380D01*
X182436785Y-153059761D02*
X182293928Y-153107380D01*
X182055833Y-153107380D01*
X181960595Y-153059761D01*
X181912976Y-153012142D01*
X181865357Y-152916904D01*
X181865357Y-152821666D01*
X181912976Y-152726428D01*
X181960595Y-152678809D01*
X182055833Y-152631190D01*
X182246309Y-152583571D01*
X182341547Y-152535952D01*
X182389166Y-152488333D01*
X182436785Y-152393095D01*
X182436785Y-152297857D01*
X182389166Y-152202619D01*
X182341547Y-152155000D01*
X182246309Y-152107380D01*
X182008214Y-152107380D01*
X181865357Y-152155000D01*
X181436785Y-153107380D02*
X181436785Y-152107380D01*
X181103452Y-152821666D01*
X180770119Y-152107380D01*
X180770119Y-153107380D01*
X180341547Y-153059761D02*
X180198690Y-153107380D01*
X179960595Y-153107380D01*
X179865357Y-153059761D01*
X179817738Y-153012142D01*
X179770119Y-152916904D01*
X179770119Y-152821666D01*
X179817738Y-152726428D01*
X179865357Y-152678809D01*
X179960595Y-152631190D01*
X180151071Y-152583571D01*
X180246309Y-152535952D01*
X180293928Y-152488333D01*
X180341547Y-152393095D01*
X180341547Y-152297857D01*
X180293928Y-152202619D01*
X180246309Y-152155000D01*
X180151071Y-152107380D01*
X179912976Y-152107380D01*
X179770119Y-152155000D01*
X178579642Y-153107380D02*
X178579642Y-152107380D01*
X178008214Y-153107380D02*
X178436785Y-152535952D01*
X178008214Y-152107380D02*
X178579642Y-152678809D01*
X177198690Y-153059761D02*
X177293928Y-153107380D01*
X177484404Y-153107380D01*
X177579642Y-153059761D01*
X177627261Y-152964523D01*
X177627261Y-152583571D01*
X177579642Y-152488333D01*
X177484404Y-152440714D01*
X177293928Y-152440714D01*
X177198690Y-152488333D01*
X177151071Y-152583571D01*
X177151071Y-152678809D01*
X177627261Y-152774047D01*
X176722500Y-153107380D02*
X176722500Y-152440714D01*
X176722500Y-152535952D02*
X176674880Y-152488333D01*
X176579642Y-152440714D01*
X176436785Y-152440714D01*
X176341547Y-152488333D01*
X176293928Y-152583571D01*
X176293928Y-153107380D01*
X176293928Y-152583571D02*
X176246309Y-152488333D01*
X176151071Y-152440714D01*
X176008214Y-152440714D01*
X175912976Y-152488333D01*
X175865357Y-152583571D01*
X175865357Y-153107380D01*
X175389166Y-152440714D02*
X175389166Y-153440714D01*
X175389166Y-152488333D02*
X175293928Y-152440714D01*
X175103452Y-152440714D01*
X175008214Y-152488333D01*
X174960595Y-152535952D01*
X174912976Y-152631190D01*
X174912976Y-152916904D01*
X174960595Y-153012142D01*
X175008214Y-153059761D01*
X175103452Y-153107380D01*
X175293928Y-153107380D01*
X175389166Y-153059761D01*
X174532023Y-153059761D02*
X174436785Y-153107380D01*
X174246309Y-153107380D01*
X174151071Y-153059761D01*
X174103452Y-152964523D01*
X174103452Y-152916904D01*
X174151071Y-152821666D01*
X174246309Y-152774047D01*
X174389166Y-152774047D01*
X174484404Y-152726428D01*
X174532023Y-152631190D01*
X174532023Y-152583571D01*
X174484404Y-152488333D01*
X174389166Y-152440714D01*
X174246309Y-152440714D01*
X174151071Y-152488333D01*
X173817738Y-152440714D02*
X173436785Y-152440714D01*
X173674880Y-152107380D02*
X173674880Y-152964523D01*
X173627261Y-153059761D01*
X173532023Y-153107380D01*
X173436785Y-153107380D01*
X172960595Y-153107380D02*
X173055833Y-153059761D01*
X173103452Y-153012142D01*
X173151071Y-152916904D01*
X173151071Y-152631190D01*
X173103452Y-152535952D01*
X173055833Y-152488333D01*
X172960595Y-152440714D01*
X172817738Y-152440714D01*
X172722500Y-152488333D01*
X172674880Y-152535952D01*
X172627261Y-152631190D01*
X172627261Y-152916904D01*
X172674880Y-153012142D01*
X172722500Y-153059761D01*
X172817738Y-153107380D01*
X172960595Y-153107380D01*
X172198690Y-152440714D02*
X172198690Y-153107380D01*
X172198690Y-152535952D02*
X172151071Y-152488333D01*
X172055833Y-152440714D01*
X171912976Y-152440714D01*
X171817738Y-152488333D01*
X171770119Y-152583571D01*
X171770119Y-153107380D01*
X210484404Y-154757380D02*
X210484404Y-153757380D01*
X210103452Y-153757380D01*
X210008214Y-153805000D01*
X209960595Y-153852619D01*
X209912976Y-153947857D01*
X209912976Y-154090714D01*
X209960595Y-154185952D01*
X210008214Y-154233571D01*
X210103452Y-154281190D01*
X210484404Y-154281190D01*
X209532023Y-153852619D02*
X209484404Y-153805000D01*
X209389166Y-153757380D01*
X209151071Y-153757380D01*
X209055833Y-153805000D01*
X209008214Y-153852619D01*
X208960595Y-153947857D01*
X208960595Y-154043095D01*
X209008214Y-154185952D01*
X209579642Y-154757380D01*
X208960595Y-154757380D01*
X207436785Y-154233571D02*
X207770119Y-154233571D01*
X207770119Y-154757380D02*
X207770119Y-153757380D01*
X207293928Y-153757380D01*
X206912976Y-154757380D02*
X206912976Y-153757380D01*
X205865357Y-154757380D02*
X206198690Y-154281190D01*
X206436785Y-154757380D02*
X206436785Y-153757380D01*
X206055833Y-153757380D01*
X205960595Y-153805000D01*
X205912976Y-153852619D01*
X205865357Y-153947857D01*
X205865357Y-154090714D01*
X205912976Y-154185952D01*
X205960595Y-154233571D01*
X206055833Y-154281190D01*
X206436785Y-154281190D01*
X205436785Y-154233571D02*
X205103452Y-154233571D01*
X204960595Y-154757380D02*
X205436785Y-154757380D01*
X205436785Y-153757380D01*
X204960595Y-153757380D01*
X204579642Y-153852619D02*
X204532023Y-153805000D01*
X204436785Y-153757380D01*
X204198690Y-153757380D01*
X204103452Y-153805000D01*
X204055833Y-153852619D01*
X204008214Y-153947857D01*
X204008214Y-154043095D01*
X204055833Y-154185952D01*
X204627261Y-154757380D01*
X204008214Y-154757380D01*
X202198690Y-153757380D02*
X201865357Y-154757380D01*
X201532023Y-153757380D01*
X200627261Y-154662142D02*
X200674880Y-154709761D01*
X200817738Y-154757380D01*
X200912976Y-154757380D01*
X201055833Y-154709761D01*
X201151071Y-154614523D01*
X201198690Y-154519285D01*
X201246309Y-154328809D01*
X201246309Y-154185952D01*
X201198690Y-153995476D01*
X201151071Y-153900238D01*
X201055833Y-153805000D01*
X200912976Y-153757380D01*
X200817738Y-153757380D01*
X200674880Y-153805000D01*
X200627261Y-153852619D01*
X199627261Y-154662142D02*
X199674880Y-154709761D01*
X199817738Y-154757380D01*
X199912976Y-154757380D01*
X200055833Y-154709761D01*
X200151071Y-154614523D01*
X200198690Y-154519285D01*
X200246309Y-154328809D01*
X200246309Y-154185952D01*
X200198690Y-153995476D01*
X200151071Y-153900238D01*
X200055833Y-153805000D01*
X199912976Y-153757380D01*
X199817738Y-153757380D01*
X199674880Y-153805000D01*
X199627261Y-153852619D01*
X197912976Y-153805000D02*
X198008214Y-153757380D01*
X198151071Y-153757380D01*
X198293928Y-153805000D01*
X198389166Y-153900238D01*
X198436785Y-153995476D01*
X198484404Y-154185952D01*
X198484404Y-154328809D01*
X198436785Y-154519285D01*
X198389166Y-154614523D01*
X198293928Y-154709761D01*
X198151071Y-154757380D01*
X198055833Y-154757380D01*
X197912976Y-154709761D01*
X197865357Y-154662142D01*
X197865357Y-154328809D01*
X198055833Y-154328809D01*
X197436785Y-154757380D02*
X197436785Y-153757380D01*
X196865357Y-154757380D01*
X196865357Y-153757380D01*
X196389166Y-154757380D02*
X196389166Y-153757380D01*
X196151071Y-153757380D01*
X196008214Y-153805000D01*
X195912976Y-153900238D01*
X195865357Y-153995476D01*
X195817738Y-154185952D01*
X195817738Y-154328809D01*
X195865357Y-154519285D01*
X195912976Y-154614523D01*
X196008214Y-154709761D01*
X196151071Y-154757380D01*
X196389166Y-154757380D01*
X193103452Y-154757380D02*
X193103452Y-153757380D01*
X192532023Y-154757380D01*
X192532023Y-153757380D01*
X191341547Y-153709761D02*
X192198690Y-154995476D01*
X190436785Y-154662142D02*
X190484404Y-154709761D01*
X190627261Y-154757380D01*
X190722500Y-154757380D01*
X190865357Y-154709761D01*
X190960595Y-154614523D01*
X191008214Y-154519285D01*
X191055833Y-154328809D01*
X191055833Y-154185952D01*
X191008214Y-153995476D01*
X190960595Y-153900238D01*
X190865357Y-153805000D01*
X190722500Y-153757380D01*
X190627261Y-153757380D01*
X190484404Y-153805000D01*
X190436785Y-153852619D01*
X188722500Y-153805000D02*
X188817738Y-153757380D01*
X188960595Y-153757380D01*
X189103452Y-153805000D01*
X189198690Y-153900238D01*
X189246309Y-153995476D01*
X189293928Y-154185952D01*
X189293928Y-154328809D01*
X189246309Y-154519285D01*
X189198690Y-154614523D01*
X189103452Y-154709761D01*
X188960595Y-154757380D01*
X188865357Y-154757380D01*
X188722500Y-154709761D01*
X188674880Y-154662142D01*
X188674880Y-154328809D01*
X188865357Y-154328809D01*
X188246309Y-154757380D02*
X188246309Y-153757380D01*
X187674880Y-154757380D01*
X187674880Y-153757380D01*
X187198690Y-154757380D02*
X187198690Y-153757380D01*
X186960595Y-153757380D01*
X186817738Y-153805000D01*
X186722500Y-153900238D01*
X186674880Y-153995476D01*
X186627261Y-154185952D01*
X186627261Y-154328809D01*
X186674880Y-154519285D01*
X186722500Y-154614523D01*
X186817738Y-154709761D01*
X186960595Y-154757380D01*
X187198690Y-154757380D01*
X181865357Y-153805000D02*
X181960595Y-153757380D01*
X182103452Y-153757380D01*
X182246309Y-153805000D01*
X182341547Y-153900238D01*
X182389166Y-153995476D01*
X182436785Y-154185952D01*
X182436785Y-154328809D01*
X182389166Y-154519285D01*
X182341547Y-154614523D01*
X182246309Y-154709761D01*
X182103452Y-154757380D01*
X182008214Y-154757380D01*
X181865357Y-154709761D01*
X181817738Y-154662142D01*
X181817738Y-154328809D01*
X182008214Y-154328809D01*
X181389166Y-154757380D02*
X181389166Y-153757380D01*
X180817738Y-154757380D01*
X180817738Y-153757380D01*
X180341547Y-154757380D02*
X180341547Y-153757380D01*
X180103452Y-153757380D01*
X179960595Y-153805000D01*
X179865357Y-153900238D01*
X179817738Y-153995476D01*
X179770119Y-154185952D01*
X179770119Y-154328809D01*
X179817738Y-154519285D01*
X179865357Y-154614523D01*
X179960595Y-154709761D01*
X180103452Y-154757380D01*
X180341547Y-154757380D01*
X178055833Y-153805000D02*
X178151071Y-153757380D01*
X178293928Y-153757380D01*
X178436785Y-153805000D01*
X178532023Y-153900238D01*
X178579642Y-153995476D01*
X178627261Y-154185952D01*
X178627261Y-154328809D01*
X178579642Y-154519285D01*
X178532023Y-154614523D01*
X178436785Y-154709761D01*
X178293928Y-154757380D01*
X178198690Y-154757380D01*
X178055833Y-154709761D01*
X178008214Y-154662142D01*
X178008214Y-154328809D01*
X178198690Y-154328809D01*
X177579642Y-154757380D02*
X177579642Y-153757380D01*
X177008214Y-154757380D01*
X177008214Y-153757380D01*
X176532023Y-154757380D02*
X176532023Y-153757380D01*
X176293928Y-153757380D01*
X176151071Y-153805000D01*
X176055833Y-153900238D01*
X176008214Y-153995476D01*
X175960595Y-154185952D01*
X175960595Y-154328809D01*
X176008214Y-154519285D01*
X176055833Y-154614523D01*
X176151071Y-154709761D01*
X176293928Y-154757380D01*
X176532023Y-154757380D01*
X210484404Y-156407380D02*
X210484404Y-155407380D01*
X210103452Y-155407380D01*
X210008214Y-155455000D01*
X209960595Y-155502619D01*
X209912976Y-155597857D01*
X209912976Y-155740714D01*
X209960595Y-155835952D01*
X210008214Y-155883571D01*
X210103452Y-155931190D01*
X210484404Y-155931190D01*
X209532023Y-155502619D02*
X209484404Y-155455000D01*
X209389166Y-155407380D01*
X209151071Y-155407380D01*
X209055833Y-155455000D01*
X209008214Y-155502619D01*
X208960595Y-155597857D01*
X208960595Y-155693095D01*
X209008214Y-155835952D01*
X209579642Y-156407380D01*
X208960595Y-156407380D01*
X207436785Y-155883571D02*
X207770119Y-155883571D01*
X207770119Y-156407380D02*
X207770119Y-155407380D01*
X207293928Y-155407380D01*
X206912976Y-156407380D02*
X206912976Y-155407380D01*
X205865357Y-156407380D02*
X206198690Y-155931190D01*
X206436785Y-156407380D02*
X206436785Y-155407380D01*
X206055833Y-155407380D01*
X205960595Y-155455000D01*
X205912976Y-155502619D01*
X205865357Y-155597857D01*
X205865357Y-155740714D01*
X205912976Y-155835952D01*
X205960595Y-155883571D01*
X206055833Y-155931190D01*
X206436785Y-155931190D01*
X205436785Y-155883571D02*
X205103452Y-155883571D01*
X204960595Y-156407380D02*
X205436785Y-156407380D01*
X205436785Y-155407380D01*
X204960595Y-155407380D01*
X204627261Y-155407380D02*
X204008214Y-155407380D01*
X204341547Y-155788333D01*
X204198690Y-155788333D01*
X204103452Y-155835952D01*
X204055833Y-155883571D01*
X204008214Y-155978809D01*
X204008214Y-156216904D01*
X204055833Y-156312142D01*
X204103452Y-156359761D01*
X204198690Y-156407380D01*
X204484404Y-156407380D01*
X204579642Y-156359761D01*
X204627261Y-156312142D01*
X202198690Y-155407380D02*
X201865357Y-156407380D01*
X201532023Y-155407380D01*
X200627261Y-156312142D02*
X200674880Y-156359761D01*
X200817738Y-156407380D01*
X200912976Y-156407380D01*
X201055833Y-156359761D01*
X201151071Y-156264523D01*
X201198690Y-156169285D01*
X201246309Y-155978809D01*
X201246309Y-155835952D01*
X201198690Y-155645476D01*
X201151071Y-155550238D01*
X201055833Y-155455000D01*
X200912976Y-155407380D01*
X200817738Y-155407380D01*
X200674880Y-155455000D01*
X200627261Y-155502619D01*
X199627261Y-156312142D02*
X199674880Y-156359761D01*
X199817738Y-156407380D01*
X199912976Y-156407380D01*
X200055833Y-156359761D01*
X200151071Y-156264523D01*
X200198690Y-156169285D01*
X200246309Y-155978809D01*
X200246309Y-155835952D01*
X200198690Y-155645476D01*
X200151071Y-155550238D01*
X200055833Y-155455000D01*
X199912976Y-155407380D01*
X199817738Y-155407380D01*
X199674880Y-155455000D01*
X199627261Y-155502619D01*
X197912976Y-155455000D02*
X198008214Y-155407380D01*
X198151071Y-155407380D01*
X198293928Y-155455000D01*
X198389166Y-155550238D01*
X198436785Y-155645476D01*
X198484404Y-155835952D01*
X198484404Y-155978809D01*
X198436785Y-156169285D01*
X198389166Y-156264523D01*
X198293928Y-156359761D01*
X198151071Y-156407380D01*
X198055833Y-156407380D01*
X197912976Y-156359761D01*
X197865357Y-156312142D01*
X197865357Y-155978809D01*
X198055833Y-155978809D01*
X197436785Y-156407380D02*
X197436785Y-155407380D01*
X196865357Y-156407380D01*
X196865357Y-155407380D01*
X196389166Y-156407380D02*
X196389166Y-155407380D01*
X196151071Y-155407380D01*
X196008214Y-155455000D01*
X195912976Y-155550238D01*
X195865357Y-155645476D01*
X195817738Y-155835952D01*
X195817738Y-155978809D01*
X195865357Y-156169285D01*
X195912976Y-156264523D01*
X196008214Y-156359761D01*
X196151071Y-156407380D01*
X196389166Y-156407380D01*
X193103452Y-156407380D02*
X193103452Y-155407380D01*
X192532023Y-156407380D01*
X192532023Y-155407380D01*
X191341547Y-155359761D02*
X192198690Y-156645476D01*
X190436785Y-156312142D02*
X190484404Y-156359761D01*
X190627261Y-156407380D01*
X190722500Y-156407380D01*
X190865357Y-156359761D01*
X190960595Y-156264523D01*
X191008214Y-156169285D01*
X191055833Y-155978809D01*
X191055833Y-155835952D01*
X191008214Y-155645476D01*
X190960595Y-155550238D01*
X190865357Y-155455000D01*
X190722500Y-155407380D01*
X190627261Y-155407380D01*
X190484404Y-155455000D01*
X190436785Y-155502619D01*
X188722500Y-155455000D02*
X188817738Y-155407380D01*
X188960595Y-155407380D01*
X189103452Y-155455000D01*
X189198690Y-155550238D01*
X189246309Y-155645476D01*
X189293928Y-155835952D01*
X189293928Y-155978809D01*
X189246309Y-156169285D01*
X189198690Y-156264523D01*
X189103452Y-156359761D01*
X188960595Y-156407380D01*
X188865357Y-156407380D01*
X188722500Y-156359761D01*
X188674880Y-156312142D01*
X188674880Y-155978809D01*
X188865357Y-155978809D01*
X188246309Y-156407380D02*
X188246309Y-155407380D01*
X187674880Y-156407380D01*
X187674880Y-155407380D01*
X187198690Y-156407380D02*
X187198690Y-155407380D01*
X186960595Y-155407380D01*
X186817738Y-155455000D01*
X186722500Y-155550238D01*
X186674880Y-155645476D01*
X186627261Y-155835952D01*
X186627261Y-155978809D01*
X186674880Y-156169285D01*
X186722500Y-156264523D01*
X186817738Y-156359761D01*
X186960595Y-156407380D01*
X187198690Y-156407380D01*
X182389166Y-156407380D02*
X182389166Y-155407380D01*
X181817738Y-156407380D01*
X181817738Y-155407380D01*
X180627261Y-155359761D02*
X181484404Y-156645476D01*
X179722500Y-156312142D02*
X179770119Y-156359761D01*
X179912976Y-156407380D01*
X180008214Y-156407380D01*
X180151071Y-156359761D01*
X180246309Y-156264523D01*
X180293928Y-156169285D01*
X180341547Y-155978809D01*
X180341547Y-155835952D01*
X180293928Y-155645476D01*
X180246309Y-155550238D01*
X180151071Y-155455000D01*
X180008214Y-155407380D01*
X179912976Y-155407380D01*
X179770119Y-155455000D01*
X179722500Y-155502619D01*
X178008214Y-155455000D02*
X178103452Y-155407380D01*
X178246309Y-155407380D01*
X178389166Y-155455000D01*
X178484404Y-155550238D01*
X178532023Y-155645476D01*
X178579642Y-155835952D01*
X178579642Y-155978809D01*
X178532023Y-156169285D01*
X178484404Y-156264523D01*
X178389166Y-156359761D01*
X178246309Y-156407380D01*
X178151071Y-156407380D01*
X178008214Y-156359761D01*
X177960595Y-156312142D01*
X177960595Y-155978809D01*
X178151071Y-155978809D01*
X177532023Y-156407380D02*
X177532023Y-155407380D01*
X176960595Y-156407380D01*
X176960595Y-155407380D01*
X176484404Y-156407380D02*
X176484404Y-155407380D01*
X176246309Y-155407380D01*
X176103452Y-155455000D01*
X176008214Y-155550238D01*
X175960595Y-155645476D01*
X175912976Y-155835952D01*
X175912976Y-155978809D01*
X175960595Y-156169285D01*
X176008214Y-156264523D01*
X176103452Y-156359761D01*
X176246309Y-156407380D01*
X176484404Y-156407380D01*
X176032380Y-86853809D02*
X175032380Y-86853809D01*
X175365714Y-87330000D02*
X176032380Y-87330000D01*
X175460952Y-87330000D02*
X175413333Y-87377619D01*
X175365714Y-87472857D01*
X175365714Y-87615714D01*
X175413333Y-87710952D01*
X175508571Y-87758571D01*
X176032380Y-87758571D01*
X175984761Y-88187142D02*
X176032380Y-88282380D01*
X176032380Y-88472857D01*
X175984761Y-88568095D01*
X175889523Y-88615714D01*
X175841904Y-88615714D01*
X175746666Y-88568095D01*
X175699047Y-88472857D01*
X175699047Y-88330000D01*
X175651428Y-88234761D01*
X175556190Y-88187142D01*
X175508571Y-88187142D01*
X175413333Y-88234761D01*
X175365714Y-88330000D01*
X175365714Y-88472857D01*
X175413333Y-88568095D01*
X175365714Y-88901428D02*
X175365714Y-89282380D01*
X175032380Y-89044285D02*
X175889523Y-89044285D01*
X175984761Y-89091904D01*
X176032380Y-89187142D01*
X176032380Y-89282380D01*
X176032380Y-90044285D02*
X175508571Y-90044285D01*
X175413333Y-89996666D01*
X175365714Y-89901428D01*
X175365714Y-89710952D01*
X175413333Y-89615714D01*
X175984761Y-90044285D02*
X176032380Y-89949047D01*
X176032380Y-89710952D01*
X175984761Y-89615714D01*
X175889523Y-89568095D01*
X175794285Y-89568095D01*
X175699047Y-89615714D01*
X175651428Y-89710952D01*
X175651428Y-89949047D01*
X175603809Y-90044285D01*
X176032380Y-90663333D02*
X175984761Y-90568095D01*
X175889523Y-90520476D01*
X175032380Y-90520476D01*
X176032380Y-91187142D02*
X175984761Y-91091904D01*
X175889523Y-91044285D01*
X175032380Y-91044285D01*
X175746666Y-92282380D02*
X175746666Y-92758571D01*
X176032380Y-92187142D02*
X175032380Y-92520476D01*
X176032380Y-92853809D01*
X176032380Y-93187142D02*
X175365714Y-93187142D01*
X175556190Y-93187142D02*
X175460952Y-93234761D01*
X175413333Y-93282380D01*
X175365714Y-93377619D01*
X175365714Y-93472857D01*
X176032380Y-94234761D02*
X175032380Y-94234761D01*
X175984761Y-94234761D02*
X176032380Y-94139523D01*
X176032380Y-93949047D01*
X175984761Y-93853809D01*
X175937142Y-93806190D01*
X175841904Y-93758571D01*
X175556190Y-93758571D01*
X175460952Y-93806190D01*
X175413333Y-93853809D01*
X175365714Y-93949047D01*
X175365714Y-94139523D01*
X175413333Y-94234761D01*
X175365714Y-95139523D02*
X176032380Y-95139523D01*
X175365714Y-94710952D02*
X175889523Y-94710952D01*
X175984761Y-94758571D01*
X176032380Y-94853809D01*
X176032380Y-94996666D01*
X175984761Y-95091904D01*
X175937142Y-95139523D01*
X176032380Y-95615714D02*
X175365714Y-95615714D01*
X175032380Y-95615714D02*
X175080000Y-95568095D01*
X175127619Y-95615714D01*
X175080000Y-95663333D01*
X175032380Y-95615714D01*
X175127619Y-95615714D01*
X175365714Y-96091904D02*
X176032380Y-96091904D01*
X175460952Y-96091904D02*
X175413333Y-96139523D01*
X175365714Y-96234761D01*
X175365714Y-96377619D01*
X175413333Y-96472857D01*
X175508571Y-96520476D01*
X176032380Y-96520476D01*
X176032380Y-97139523D02*
X175984761Y-97044285D01*
X175937142Y-96996666D01*
X175841904Y-96949047D01*
X175556190Y-96949047D01*
X175460952Y-96996666D01*
X175413333Y-97044285D01*
X175365714Y-97139523D01*
X175365714Y-97282380D01*
X175413333Y-97377619D01*
X175460952Y-97425238D01*
X175556190Y-97472857D01*
X175841904Y-97472857D01*
X175937142Y-97425238D01*
X175984761Y-97377619D01*
X176032380Y-97282380D01*
X176032380Y-97139523D01*
X176032380Y-98663333D02*
X175032380Y-98663333D01*
X175032380Y-99044285D01*
X175080000Y-99139523D01*
X175127619Y-99187142D01*
X175222857Y-99234761D01*
X175365714Y-99234761D01*
X175460952Y-99187142D01*
X175508571Y-99139523D01*
X175556190Y-99044285D01*
X175556190Y-98663333D01*
X176032380Y-99663333D02*
X175365714Y-99663333D01*
X175556190Y-99663333D02*
X175460952Y-99710952D01*
X175413333Y-99758571D01*
X175365714Y-99853809D01*
X175365714Y-99949047D01*
X176032380Y-100425238D02*
X175984761Y-100329999D01*
X175937142Y-100282380D01*
X175841904Y-100234761D01*
X175556190Y-100234761D01*
X175460952Y-100282380D01*
X175413333Y-100329999D01*
X175365714Y-100425238D01*
X175365714Y-100568095D01*
X175413333Y-100663333D01*
X175460952Y-100710952D01*
X175556190Y-100758571D01*
X175841904Y-100758571D01*
X175937142Y-100710952D01*
X175984761Y-100663333D01*
X176032380Y-100568095D01*
X176032380Y-100425238D01*
X176032380Y-101949047D02*
X175032380Y-101949047D01*
X175746666Y-102282380D01*
X175032380Y-102615714D01*
X176032380Y-102615714D01*
X176032380Y-103091904D02*
X175365714Y-103091904D01*
X175032380Y-103091904D02*
X175080000Y-103044285D01*
X175127619Y-103091904D01*
X175080000Y-103139523D01*
X175032380Y-103091904D01*
X175127619Y-103091904D01*
X175984761Y-103996666D02*
X176032380Y-103901428D01*
X176032380Y-103710952D01*
X175984761Y-103615714D01*
X175937142Y-103568095D01*
X175841904Y-103520476D01*
X175556190Y-103520476D01*
X175460952Y-103568095D01*
X175413333Y-103615714D01*
X175365714Y-103710952D01*
X175365714Y-103901428D01*
X175413333Y-103996666D01*
X176032380Y-104425238D02*
X175365714Y-104425238D01*
X175556190Y-104425238D02*
X175460952Y-104472857D01*
X175413333Y-104520476D01*
X175365714Y-104615714D01*
X175365714Y-104710952D01*
X176032380Y-105187142D02*
X175984761Y-105091904D01*
X175937142Y-105044285D01*
X175841904Y-104996666D01*
X175556190Y-104996666D01*
X175460952Y-105044285D01*
X175413333Y-105091904D01*
X175365714Y-105187142D01*
X175365714Y-105329999D01*
X175413333Y-105425238D01*
X175460952Y-105472857D01*
X175556190Y-105520476D01*
X175841904Y-105520476D01*
X175937142Y-105472857D01*
X175984761Y-105425238D01*
X176032380Y-105329999D01*
X176032380Y-105187142D01*
X175984761Y-105996666D02*
X176032380Y-105996666D01*
X176127619Y-105949047D01*
X176175238Y-105901428D01*
X176032380Y-107187142D02*
X175365714Y-107187142D01*
X175032380Y-107187142D02*
X175080000Y-107139523D01*
X175127619Y-107187142D01*
X175080000Y-107234761D01*
X175032380Y-107187142D01*
X175127619Y-107187142D01*
X175365714Y-107520476D02*
X175365714Y-107901428D01*
X176032380Y-107663333D02*
X175175238Y-107663333D01*
X175080000Y-107710952D01*
X175032380Y-107806190D01*
X175032380Y-107901428D01*
X175365714Y-108996666D02*
X176032380Y-108996666D01*
X175460952Y-108996666D02*
X175413333Y-109044285D01*
X175365714Y-109139523D01*
X175365714Y-109282380D01*
X175413333Y-109377619D01*
X175508571Y-109425238D01*
X176032380Y-109425238D01*
X175984761Y-110282380D02*
X176032380Y-110187142D01*
X176032380Y-109996666D01*
X175984761Y-109901428D01*
X175889523Y-109853809D01*
X175508571Y-109853809D01*
X175413333Y-109901428D01*
X175365714Y-109996666D01*
X175365714Y-110187142D01*
X175413333Y-110282380D01*
X175508571Y-110329999D01*
X175603809Y-110329999D01*
X175699047Y-109853809D01*
X175984761Y-111139523D02*
X176032380Y-111044285D01*
X176032380Y-110853809D01*
X175984761Y-110758571D01*
X175889523Y-110710952D01*
X175508571Y-110710952D01*
X175413333Y-110758571D01*
X175365714Y-110853809D01*
X175365714Y-111044285D01*
X175413333Y-111139523D01*
X175508571Y-111187142D01*
X175603809Y-111187142D01*
X175699047Y-110710952D01*
X176032380Y-112044285D02*
X175032380Y-112044285D01*
X175984761Y-112044285D02*
X176032380Y-111949047D01*
X176032380Y-111758571D01*
X175984761Y-111663333D01*
X175937142Y-111615714D01*
X175841904Y-111568095D01*
X175556190Y-111568095D01*
X175460952Y-111615714D01*
X175413333Y-111663333D01*
X175365714Y-111758571D01*
X175365714Y-111949047D01*
X175413333Y-112044285D01*
X175984761Y-112901428D02*
X176032380Y-112806190D01*
X176032380Y-112615714D01*
X175984761Y-112520476D01*
X175889523Y-112472857D01*
X175508571Y-112472857D01*
X175413333Y-112520476D01*
X175365714Y-112615714D01*
X175365714Y-112806190D01*
X175413333Y-112901428D01*
X175508571Y-112949047D01*
X175603809Y-112949047D01*
X175699047Y-112472857D01*
X176032380Y-113806190D02*
X175032380Y-113806190D01*
X175984761Y-113806190D02*
X176032380Y-113710952D01*
X176032380Y-113520476D01*
X175984761Y-113425238D01*
X175937142Y-113377619D01*
X175841904Y-113329999D01*
X175556190Y-113329999D01*
X175460952Y-113377619D01*
X175413333Y-113425238D01*
X175365714Y-113520476D01*
X175365714Y-113710952D01*
X175413333Y-113806190D01*
X177015714Y-86449047D02*
X177015714Y-86830000D01*
X177682380Y-86591904D02*
X176825238Y-86591904D01*
X176730000Y-86639523D01*
X176682380Y-86734761D01*
X176682380Y-86830000D01*
X177682380Y-87306190D02*
X177634761Y-87210952D01*
X177587142Y-87163333D01*
X177491904Y-87115714D01*
X177206190Y-87115714D01*
X177110952Y-87163333D01*
X177063333Y-87210952D01*
X177015714Y-87306190D01*
X177015714Y-87449047D01*
X177063333Y-87544285D01*
X177110952Y-87591904D01*
X177206190Y-87639523D01*
X177491904Y-87639523D01*
X177587142Y-87591904D01*
X177634761Y-87544285D01*
X177682380Y-87449047D01*
X177682380Y-87306190D01*
X177682380Y-88068095D02*
X177015714Y-88068095D01*
X177206190Y-88068095D02*
X177110952Y-88115714D01*
X177063333Y-88163333D01*
X177015714Y-88258571D01*
X177015714Y-88353809D01*
X176682380Y-89449047D02*
X177491904Y-89449047D01*
X177587142Y-89496666D01*
X177634761Y-89544285D01*
X177682380Y-89639523D01*
X177682380Y-89830000D01*
X177634761Y-89925238D01*
X177587142Y-89972857D01*
X177491904Y-90020476D01*
X176682380Y-90020476D01*
X177634761Y-90449047D02*
X177682380Y-90591904D01*
X177682380Y-90830000D01*
X177634761Y-90925238D01*
X177587142Y-90972857D01*
X177491904Y-91020476D01*
X177396666Y-91020476D01*
X177301428Y-90972857D01*
X177253809Y-90925238D01*
X177206190Y-90830000D01*
X177158571Y-90639523D01*
X177110952Y-90544285D01*
X177063333Y-90496666D01*
X176968095Y-90449047D01*
X176872857Y-90449047D01*
X176777619Y-90496666D01*
X176730000Y-90544285D01*
X176682380Y-90639523D01*
X176682380Y-90877619D01*
X176730000Y-91020476D01*
X177158571Y-91782380D02*
X177206190Y-91925238D01*
X177253809Y-91972857D01*
X177349047Y-92020476D01*
X177491904Y-92020476D01*
X177587142Y-91972857D01*
X177634761Y-91925238D01*
X177682380Y-91830000D01*
X177682380Y-91449047D01*
X176682380Y-91449047D01*
X176682380Y-91782380D01*
X176730000Y-91877619D01*
X176777619Y-91925238D01*
X176872857Y-91972857D01*
X176968095Y-91972857D01*
X177063333Y-91925238D01*
X177110952Y-91877619D01*
X177158571Y-91782380D01*
X177158571Y-91449047D01*
X177015714Y-93068095D02*
X177015714Y-93449047D01*
X177682380Y-93210952D02*
X176825238Y-93210952D01*
X176730000Y-93258571D01*
X176682380Y-93353809D01*
X176682380Y-93449047D01*
X177015714Y-94210952D02*
X177682380Y-94210952D01*
X177015714Y-93782380D02*
X177539523Y-93782380D01*
X177634761Y-93830000D01*
X177682380Y-93925238D01*
X177682380Y-94068095D01*
X177634761Y-94163333D01*
X177587142Y-94210952D01*
X177015714Y-94687142D02*
X177682380Y-94687142D01*
X177110952Y-94687142D02*
X177063333Y-94734761D01*
X177015714Y-94830000D01*
X177015714Y-94972857D01*
X177063333Y-95068095D01*
X177158571Y-95115714D01*
X177682380Y-95115714D01*
X177634761Y-96020476D02*
X177682380Y-95925238D01*
X177682380Y-95734761D01*
X177634761Y-95639523D01*
X177587142Y-95591904D01*
X177491904Y-95544285D01*
X177206190Y-95544285D01*
X177110952Y-95591904D01*
X177063333Y-95639523D01*
X177015714Y-95734761D01*
X177015714Y-95925238D01*
X177063333Y-96020476D01*
X177015714Y-96306190D02*
X177015714Y-96687142D01*
X176682380Y-96449047D02*
X177539523Y-96449047D01*
X177634761Y-96496666D01*
X177682380Y-96591904D01*
X177682380Y-96687142D01*
X177682380Y-97020476D02*
X177015714Y-97020476D01*
X176682380Y-97020476D02*
X176730000Y-96972857D01*
X176777619Y-97020476D01*
X176730000Y-97068095D01*
X176682380Y-97020476D01*
X176777619Y-97020476D01*
X177682380Y-97639523D02*
X177634761Y-97544285D01*
X177587142Y-97496666D01*
X177491904Y-97449047D01*
X177206190Y-97449047D01*
X177110952Y-97496666D01*
X177063333Y-97544285D01*
X177015714Y-97639523D01*
X177015714Y-97782380D01*
X177063333Y-97877619D01*
X177110952Y-97925238D01*
X177206190Y-97972857D01*
X177491904Y-97972857D01*
X177587142Y-97925238D01*
X177634761Y-97877619D01*
X177682380Y-97782380D01*
X177682380Y-97639523D01*
X177015714Y-98401428D02*
X177682380Y-98401428D01*
X177110952Y-98401428D02*
X177063333Y-98449047D01*
X177015714Y-98544285D01*
X177015714Y-98687142D01*
X177063333Y-98782380D01*
X177158571Y-98830000D01*
X177682380Y-98830000D01*
X177587142Y-99306190D02*
X177634761Y-99353809D01*
X177682380Y-99306190D01*
X177634761Y-99258571D01*
X177587142Y-99306190D01*
X177682380Y-99306190D01*
X177682380Y-100544285D02*
X176682380Y-100544285D01*
X177158571Y-100544285D02*
X177158571Y-101115714D01*
X177682380Y-101115714D02*
X176682380Y-101115714D01*
X177682380Y-101734761D02*
X177634761Y-101639523D01*
X177587142Y-101591904D01*
X177491904Y-101544285D01*
X177206190Y-101544285D01*
X177110952Y-101591904D01*
X177063333Y-101639523D01*
X177015714Y-101734761D01*
X177015714Y-101877619D01*
X177063333Y-101972857D01*
X177110952Y-102020476D01*
X177206190Y-102068095D01*
X177491904Y-102068095D01*
X177587142Y-102020476D01*
X177634761Y-101972857D01*
X177682380Y-101877619D01*
X177682380Y-101734761D01*
X177682380Y-102639523D02*
X177634761Y-102544285D01*
X177539523Y-102496666D01*
X176682380Y-102496666D01*
X177682380Y-103449047D02*
X176682380Y-103449047D01*
X177634761Y-103449047D02*
X177682380Y-103353809D01*
X177682380Y-103163333D01*
X177634761Y-103068095D01*
X177587142Y-103020476D01*
X177491904Y-102972857D01*
X177206190Y-102972857D01*
X177110952Y-103020476D01*
X177063333Y-103068095D01*
X177015714Y-103163333D01*
X177015714Y-103353809D01*
X177063333Y-103449047D01*
X177682380Y-105115714D02*
X176682380Y-105115714D01*
X177634761Y-105115714D02*
X177682380Y-105020476D01*
X177682380Y-104830000D01*
X177634761Y-104734761D01*
X177587142Y-104687142D01*
X177491904Y-104639523D01*
X177206190Y-104639523D01*
X177110952Y-104687142D01*
X177063333Y-104734761D01*
X177015714Y-104830000D01*
X177015714Y-105020476D01*
X177063333Y-105115714D01*
X177682380Y-105734761D02*
X177634761Y-105639523D01*
X177587142Y-105591904D01*
X177491904Y-105544285D01*
X177206190Y-105544285D01*
X177110952Y-105591904D01*
X177063333Y-105639523D01*
X177015714Y-105734761D01*
X177015714Y-105877619D01*
X177063333Y-105972857D01*
X177110952Y-106020476D01*
X177206190Y-106068095D01*
X177491904Y-106068095D01*
X177587142Y-106020476D01*
X177634761Y-105972857D01*
X177682380Y-105877619D01*
X177682380Y-105734761D01*
X177015714Y-106401428D02*
X177682380Y-106591904D01*
X177206190Y-106782380D01*
X177682380Y-106972857D01*
X177015714Y-107163333D01*
X177015714Y-107544285D02*
X177682380Y-107544285D01*
X177110952Y-107544285D02*
X177063333Y-107591904D01*
X177015714Y-107687142D01*
X177015714Y-107830000D01*
X177063333Y-107925238D01*
X177158571Y-107972857D01*
X177682380Y-107972857D01*
X177682380Y-109687142D02*
X177682380Y-109210952D01*
X176682380Y-109210952D01*
X177158571Y-110020476D02*
X177158571Y-110353809D01*
X177682380Y-110496666D02*
X177682380Y-110020476D01*
X176682380Y-110020476D01*
X176682380Y-110496666D01*
X177158571Y-111258571D02*
X177158571Y-110925238D01*
X177682380Y-110925238D02*
X176682380Y-110925238D01*
X176682380Y-111401428D01*
X176682380Y-111639523D02*
X176682380Y-112210952D01*
X177682380Y-111925238D02*
X176682380Y-111925238D01*
X177301428Y-113306190D02*
X177301428Y-114068095D01*
X177682380Y-113687142D02*
X176920476Y-113687142D01*
X179332380Y-88449047D02*
X178856190Y-88115714D01*
X179332380Y-87877619D02*
X178332380Y-87877619D01*
X178332380Y-88258571D01*
X178380000Y-88353809D01*
X178427619Y-88401428D01*
X178522857Y-88449047D01*
X178665714Y-88449047D01*
X178760952Y-88401428D01*
X178808571Y-88353809D01*
X178856190Y-88258571D01*
X178856190Y-87877619D01*
X179332380Y-88877619D02*
X178332380Y-88877619D01*
X178380000Y-89877619D02*
X178332380Y-89782380D01*
X178332380Y-89639523D01*
X178380000Y-89496666D01*
X178475238Y-89401428D01*
X178570476Y-89353809D01*
X178760952Y-89306190D01*
X178903809Y-89306190D01*
X179094285Y-89353809D01*
X179189523Y-89401428D01*
X179284761Y-89496666D01*
X179332380Y-89639523D01*
X179332380Y-89734761D01*
X179284761Y-89877619D01*
X179237142Y-89925238D01*
X178903809Y-89925238D01*
X178903809Y-89734761D01*
X179332380Y-90353809D02*
X178332380Y-90353809D01*
X178808571Y-90353809D02*
X178808571Y-90925238D01*
X179332380Y-90925238D02*
X178332380Y-90925238D01*
X178332380Y-91258571D02*
X178332380Y-91830000D01*
X179332380Y-91544285D02*
X178332380Y-91544285D01*
X179332380Y-92925238D02*
X178332380Y-92925238D01*
X178951428Y-93020476D02*
X179332380Y-93306190D01*
X178665714Y-93306190D02*
X179046666Y-92925238D01*
X179284761Y-94115714D02*
X179332380Y-94020476D01*
X179332380Y-93830000D01*
X179284761Y-93734761D01*
X179189523Y-93687142D01*
X178808571Y-93687142D01*
X178713333Y-93734761D01*
X178665714Y-93830000D01*
X178665714Y-94020476D01*
X178713333Y-94115714D01*
X178808571Y-94163333D01*
X178903809Y-94163333D01*
X178999047Y-93687142D01*
X178665714Y-94496666D02*
X179332380Y-94734761D01*
X178665714Y-94972857D02*
X179332380Y-94734761D01*
X179570476Y-94639523D01*
X179618095Y-94591904D01*
X179665714Y-94496666D01*
X179332380Y-96258571D02*
X179284761Y-96163333D01*
X179237142Y-96115714D01*
X179141904Y-96068095D01*
X178856190Y-96068095D01*
X178760952Y-96115714D01*
X178713333Y-96163333D01*
X178665714Y-96258571D01*
X178665714Y-96401428D01*
X178713333Y-96496666D01*
X178760952Y-96544285D01*
X178856190Y-96591904D01*
X179141904Y-96591904D01*
X179237142Y-96544285D01*
X179284761Y-96496666D01*
X179332380Y-96401428D01*
X179332380Y-96258571D01*
X178665714Y-97020476D02*
X179332380Y-97020476D01*
X178760952Y-97020476D02*
X178713333Y-97068095D01*
X178665714Y-97163333D01*
X178665714Y-97306190D01*
X178713333Y-97401428D01*
X178808571Y-97449047D01*
X179332380Y-97449047D01*
X178665714Y-98687142D02*
X179665714Y-98687142D01*
X178713333Y-98687142D02*
X178665714Y-98782380D01*
X178665714Y-98972857D01*
X178713333Y-99068095D01*
X178760952Y-99115714D01*
X178856190Y-99163333D01*
X179141904Y-99163333D01*
X179237142Y-99115714D01*
X179284761Y-99068095D01*
X179332380Y-98972857D01*
X179332380Y-98782380D01*
X179284761Y-98687142D01*
X179332380Y-99734761D02*
X179284761Y-99639523D01*
X179237142Y-99591904D01*
X179141904Y-99544285D01*
X178856190Y-99544285D01*
X178760952Y-99591904D01*
X178713333Y-99639523D01*
X178665714Y-99734761D01*
X178665714Y-99877619D01*
X178713333Y-99972857D01*
X178760952Y-100020476D01*
X178856190Y-100068095D01*
X179141904Y-100068095D01*
X179237142Y-100020476D01*
X179284761Y-99972857D01*
X179332380Y-99877619D01*
X179332380Y-99734761D01*
X178665714Y-100401428D02*
X179332380Y-100591904D01*
X178856190Y-100782380D01*
X179332380Y-100972857D01*
X178665714Y-101163333D01*
X179284761Y-101925238D02*
X179332380Y-101830000D01*
X179332380Y-101639523D01*
X179284761Y-101544285D01*
X179189523Y-101496666D01*
X178808571Y-101496666D01*
X178713333Y-101544285D01*
X178665714Y-101639523D01*
X178665714Y-101830000D01*
X178713333Y-101925238D01*
X178808571Y-101972857D01*
X178903809Y-101972857D01*
X178999047Y-101496666D01*
X179332380Y-102401428D02*
X178665714Y-102401428D01*
X178856190Y-102401428D02*
X178760952Y-102449047D01*
X178713333Y-102496666D01*
X178665714Y-102591904D01*
X178665714Y-102687142D01*
X178665714Y-103449047D02*
X179332380Y-103449047D01*
X178665714Y-103020476D02*
X179189523Y-103020476D01*
X179284761Y-103068095D01*
X179332380Y-103163333D01*
X179332380Y-103306190D01*
X179284761Y-103401428D01*
X179237142Y-103449047D01*
X178665714Y-103925238D02*
X179665714Y-103925238D01*
X178713333Y-103925238D02*
X178665714Y-104020476D01*
X178665714Y-104210952D01*
X178713333Y-104306190D01*
X178760952Y-104353809D01*
X178856190Y-104401428D01*
X179141904Y-104401428D01*
X179237142Y-104353809D01*
X179284761Y-104306190D01*
X179332380Y-104210952D01*
X179332380Y-104020476D01*
X179284761Y-103925238D01*
X178665714Y-105449047D02*
X178665714Y-105829999D01*
X178332380Y-105591904D02*
X179189523Y-105591904D01*
X179284761Y-105639523D01*
X179332380Y-105734761D01*
X179332380Y-105829999D01*
X179332380Y-106306190D02*
X179284761Y-106210952D01*
X179237142Y-106163333D01*
X179141904Y-106115714D01*
X178856190Y-106115714D01*
X178760952Y-106163333D01*
X178713333Y-106210952D01*
X178665714Y-106306190D01*
X178665714Y-106449047D01*
X178713333Y-106544285D01*
X178760952Y-106591904D01*
X178856190Y-106639523D01*
X179141904Y-106639523D01*
X179237142Y-106591904D01*
X179284761Y-106544285D01*
X179332380Y-106449047D01*
X179332380Y-106306190D01*
X179284761Y-108210952D02*
X179332380Y-108115714D01*
X179332380Y-107925238D01*
X179284761Y-107830000D01*
X179189523Y-107782380D01*
X178808571Y-107782380D01*
X178713333Y-107830000D01*
X178665714Y-107925238D01*
X178665714Y-108115714D01*
X178713333Y-108210952D01*
X178808571Y-108258571D01*
X178903809Y-108258571D01*
X178999047Y-107782380D01*
X178665714Y-108687142D02*
X179332380Y-108687142D01*
X178760952Y-108687142D02*
X178713333Y-108734761D01*
X178665714Y-108830000D01*
X178665714Y-108972857D01*
X178713333Y-109068095D01*
X178808571Y-109115714D01*
X179332380Y-109115714D01*
X179332380Y-110020476D02*
X178808571Y-110020476D01*
X178713333Y-109972857D01*
X178665714Y-109877619D01*
X178665714Y-109687142D01*
X178713333Y-109591904D01*
X179284761Y-110020476D02*
X179332380Y-109925238D01*
X179332380Y-109687142D01*
X179284761Y-109591904D01*
X179189523Y-109544285D01*
X179094285Y-109544285D01*
X178999047Y-109591904D01*
X178951428Y-109687142D01*
X178951428Y-109925238D01*
X178903809Y-110020476D01*
X179332380Y-110496666D02*
X178332380Y-110496666D01*
X178713333Y-110496666D02*
X178665714Y-110591904D01*
X178665714Y-110782380D01*
X178713333Y-110877619D01*
X178760952Y-110925238D01*
X178856190Y-110972857D01*
X179141904Y-110972857D01*
X179237142Y-110925238D01*
X179284761Y-110877619D01*
X179332380Y-110782380D01*
X179332380Y-110591904D01*
X179284761Y-110496666D01*
X179332380Y-111544285D02*
X179284761Y-111449047D01*
X179189523Y-111401428D01*
X178332380Y-111401428D01*
X179284761Y-112306190D02*
X179332380Y-112210952D01*
X179332380Y-112020476D01*
X179284761Y-111925238D01*
X179189523Y-111877619D01*
X178808571Y-111877619D01*
X178713333Y-111925238D01*
X178665714Y-112020476D01*
X178665714Y-112210952D01*
X178713333Y-112306190D01*
X178808571Y-112353809D01*
X178903809Y-112353809D01*
X178999047Y-111877619D01*
X179237142Y-112782380D02*
X179284761Y-112830000D01*
X179332380Y-112782380D01*
X179284761Y-112734761D01*
X179237142Y-112782380D01*
X179332380Y-112782380D01*
X182108571Y-86377619D02*
X182108571Y-86044285D01*
X182632380Y-86044285D02*
X181632380Y-86044285D01*
X181632380Y-86520476D01*
X182632380Y-86901428D02*
X181632380Y-86901428D01*
X182632380Y-87949047D02*
X182156190Y-87615714D01*
X182632380Y-87377619D02*
X181632380Y-87377619D01*
X181632380Y-87758571D01*
X181680000Y-87853809D01*
X181727619Y-87901428D01*
X181822857Y-87949047D01*
X181965714Y-87949047D01*
X182060952Y-87901428D01*
X182108571Y-87853809D01*
X182156190Y-87758571D01*
X182156190Y-87377619D01*
X182108571Y-88377619D02*
X182108571Y-88710952D01*
X182632380Y-88853809D02*
X182632380Y-88377619D01*
X181632380Y-88377619D01*
X181632380Y-88853809D01*
X181727619Y-89234761D02*
X181680000Y-89282380D01*
X181632380Y-89377619D01*
X181632380Y-89615714D01*
X181680000Y-89710952D01*
X181727619Y-89758571D01*
X181822857Y-89806190D01*
X181918095Y-89806190D01*
X182060952Y-89758571D01*
X182632380Y-89187142D01*
X182632380Y-89806190D01*
X181584761Y-90949047D02*
X182870476Y-90091904D01*
X181632380Y-91187142D02*
X181632380Y-91806190D01*
X182013333Y-91472857D01*
X182013333Y-91615714D01*
X182060952Y-91710952D01*
X182108571Y-91758571D01*
X182203809Y-91806190D01*
X182441904Y-91806190D01*
X182537142Y-91758571D01*
X182584761Y-91710952D01*
X182632380Y-91615714D01*
X182632380Y-91330000D01*
X182584761Y-91234761D01*
X182537142Y-91187142D01*
X181965714Y-92996666D02*
X182965714Y-92996666D01*
X182013333Y-92996666D02*
X181965714Y-93091904D01*
X181965714Y-93282380D01*
X182013333Y-93377619D01*
X182060952Y-93425238D01*
X182156190Y-93472857D01*
X182441904Y-93472857D01*
X182537142Y-93425238D01*
X182584761Y-93377619D01*
X182632380Y-93282380D01*
X182632380Y-93091904D01*
X182584761Y-92996666D01*
X182632380Y-94044285D02*
X182584761Y-93949047D01*
X182537142Y-93901428D01*
X182441904Y-93853809D01*
X182156190Y-93853809D01*
X182060952Y-93901428D01*
X182013333Y-93949047D01*
X181965714Y-94044285D01*
X181965714Y-94187142D01*
X182013333Y-94282380D01*
X182060952Y-94330000D01*
X182156190Y-94377619D01*
X182441904Y-94377619D01*
X182537142Y-94330000D01*
X182584761Y-94282380D01*
X182632380Y-94187142D01*
X182632380Y-94044285D01*
X182632380Y-94949047D02*
X182584761Y-94853809D01*
X182489523Y-94806190D01*
X181632380Y-94806190D01*
X182632380Y-95758571D02*
X182108571Y-95758571D01*
X182013333Y-95710952D01*
X181965714Y-95615714D01*
X181965714Y-95425238D01*
X182013333Y-95330000D01*
X182584761Y-95758571D02*
X182632380Y-95663333D01*
X182632380Y-95425238D01*
X182584761Y-95330000D01*
X182489523Y-95282380D01*
X182394285Y-95282380D01*
X182299047Y-95330000D01*
X182251428Y-95425238D01*
X182251428Y-95663333D01*
X182203809Y-95758571D01*
X182632380Y-96234761D02*
X181965714Y-96234761D01*
X182156190Y-96234761D02*
X182060952Y-96282380D01*
X182013333Y-96329999D01*
X181965714Y-96425238D01*
X181965714Y-96520476D01*
X182632380Y-96853809D02*
X181965714Y-96853809D01*
X181632380Y-96853809D02*
X181680000Y-96806190D01*
X181727619Y-96853809D01*
X181680000Y-96901428D01*
X181632380Y-96853809D01*
X181727619Y-96853809D01*
X181965714Y-97187142D02*
X181965714Y-97568095D01*
X181632380Y-97330000D02*
X182489523Y-97330000D01*
X182584761Y-97377619D01*
X182632380Y-97472857D01*
X182632380Y-97568095D01*
X181965714Y-97806190D02*
X182632380Y-98044285D01*
X181965714Y-98282380D02*
X182632380Y-98044285D01*
X182870476Y-97949047D01*
X182918095Y-97901428D01*
X182965714Y-97806190D01*
X182632380Y-99425238D02*
X181965714Y-99425238D01*
X182060952Y-99425238D02*
X182013333Y-99472857D01*
X181965714Y-99568095D01*
X181965714Y-99710952D01*
X182013333Y-99806190D01*
X182108571Y-99853809D01*
X182632380Y-99853809D01*
X182108571Y-99853809D02*
X182013333Y-99901428D01*
X181965714Y-99996666D01*
X181965714Y-100139523D01*
X182013333Y-100234761D01*
X182108571Y-100282380D01*
X182632380Y-100282380D01*
X181965714Y-101187142D02*
X182632380Y-101187142D01*
X181965714Y-100758571D02*
X182489523Y-100758571D01*
X182584761Y-100806190D01*
X182632380Y-100901428D01*
X182632380Y-101044285D01*
X182584761Y-101139523D01*
X182537142Y-101187142D01*
X182584761Y-101615714D02*
X182632380Y-101710952D01*
X182632380Y-101901428D01*
X182584761Y-101996666D01*
X182489523Y-102044285D01*
X182441904Y-102044285D01*
X182346666Y-101996666D01*
X182299047Y-101901428D01*
X182299047Y-101758571D01*
X182251428Y-101663333D01*
X182156190Y-101615714D01*
X182108571Y-101615714D01*
X182013333Y-101663333D01*
X181965714Y-101758571D01*
X181965714Y-101901428D01*
X182013333Y-101996666D01*
X181965714Y-102329999D02*
X181965714Y-102710952D01*
X181632380Y-102472857D02*
X182489523Y-102472857D01*
X182584761Y-102520476D01*
X182632380Y-102615714D01*
X182632380Y-102710952D01*
X182632380Y-103806190D02*
X181632380Y-103806190D01*
X182013333Y-103806190D02*
X181965714Y-103901428D01*
X181965714Y-104091904D01*
X182013333Y-104187142D01*
X182060952Y-104234761D01*
X182156190Y-104282380D01*
X182441904Y-104282380D01*
X182537142Y-104234761D01*
X182584761Y-104187142D01*
X182632380Y-104091904D01*
X182632380Y-103901428D01*
X182584761Y-103806190D01*
X182584761Y-105091904D02*
X182632380Y-104996666D01*
X182632380Y-104806190D01*
X182584761Y-104710952D01*
X182489523Y-104663333D01*
X182108571Y-104663333D01*
X182013333Y-104710952D01*
X181965714Y-104806190D01*
X181965714Y-104996666D01*
X182013333Y-105091904D01*
X182108571Y-105139523D01*
X182203809Y-105139523D01*
X182299047Y-104663333D01*
X182584761Y-106282380D02*
X182632380Y-106377619D01*
X182632380Y-106568095D01*
X182584761Y-106663333D01*
X182489523Y-106710952D01*
X182441904Y-106710952D01*
X182346666Y-106663333D01*
X182299047Y-106568095D01*
X182299047Y-106425238D01*
X182251428Y-106329999D01*
X182156190Y-106282380D01*
X182108571Y-106282380D01*
X182013333Y-106329999D01*
X181965714Y-106425238D01*
X181965714Y-106568095D01*
X182013333Y-106663333D01*
X182584761Y-107520476D02*
X182632380Y-107425238D01*
X182632380Y-107234761D01*
X182584761Y-107139523D01*
X182489523Y-107091904D01*
X182108571Y-107091904D01*
X182013333Y-107139523D01*
X181965714Y-107234761D01*
X181965714Y-107425238D01*
X182013333Y-107520476D01*
X182108571Y-107568095D01*
X182203809Y-107568095D01*
X182299047Y-107091904D01*
X181965714Y-107853809D02*
X181965714Y-108234761D01*
X181632380Y-107996666D02*
X182489523Y-107996666D01*
X182584761Y-108044285D01*
X182632380Y-108139523D01*
X182632380Y-108234761D01*
X181965714Y-109187142D02*
X181965714Y-109568095D01*
X181632380Y-109329999D02*
X182489523Y-109329999D01*
X182584761Y-109377619D01*
X182632380Y-109472857D01*
X182632380Y-109568095D01*
X182632380Y-110044285D02*
X182584761Y-109949047D01*
X182537142Y-109901428D01*
X182441904Y-109853809D01*
X182156190Y-109853809D01*
X182060952Y-109901428D01*
X182013333Y-109949047D01*
X181965714Y-110044285D01*
X181965714Y-110187142D01*
X182013333Y-110282380D01*
X182060952Y-110329999D01*
X182156190Y-110377619D01*
X182441904Y-110377619D01*
X182537142Y-110329999D01*
X182584761Y-110282380D01*
X182632380Y-110187142D01*
X182632380Y-110044285D01*
X181680000Y-112091904D02*
X181632380Y-111996666D01*
X181632380Y-111853809D01*
X181680000Y-111710952D01*
X181775238Y-111615714D01*
X181870476Y-111568095D01*
X182060952Y-111520476D01*
X182203809Y-111520476D01*
X182394285Y-111568095D01*
X182489523Y-111615714D01*
X182584761Y-111710952D01*
X182632380Y-111853809D01*
X182632380Y-111949047D01*
X182584761Y-112091904D01*
X182537142Y-112139523D01*
X182203809Y-112139523D01*
X182203809Y-111949047D01*
X182632380Y-112568095D02*
X181632380Y-112568095D01*
X182632380Y-113139523D01*
X181632380Y-113139523D01*
X182632380Y-113615714D02*
X181632380Y-113615714D01*
X181632380Y-113853809D01*
X181680000Y-113996666D01*
X181775238Y-114091904D01*
X181870476Y-114139523D01*
X182060952Y-114187142D01*
X182203809Y-114187142D01*
X182394285Y-114139523D01*
X182489523Y-114091904D01*
X182584761Y-113996666D01*
X182632380Y-113853809D01*
X182632380Y-113615714D01*
X182584761Y-114663333D02*
X182632380Y-114663333D01*
X182727619Y-114615714D01*
X182775238Y-114568095D01*
X184282380Y-85282380D02*
X183282380Y-85282380D01*
X183901428Y-85377619D02*
X184282380Y-85663333D01*
X183615714Y-85663333D02*
X183996666Y-85282380D01*
X184234761Y-86472857D02*
X184282380Y-86377619D01*
X184282380Y-86187142D01*
X184234761Y-86091904D01*
X184139523Y-86044285D01*
X183758571Y-86044285D01*
X183663333Y-86091904D01*
X183615714Y-86187142D01*
X183615714Y-86377619D01*
X183663333Y-86472857D01*
X183758571Y-86520476D01*
X183853809Y-86520476D01*
X183949047Y-86044285D01*
X183615714Y-86853809D02*
X184282380Y-87091904D01*
X183615714Y-87330000D02*
X184282380Y-87091904D01*
X184520476Y-86996666D01*
X184568095Y-86949047D01*
X184615714Y-86853809D01*
X184234761Y-87663333D02*
X184282380Y-87758571D01*
X184282380Y-87949047D01*
X184234761Y-88044285D01*
X184139523Y-88091904D01*
X184091904Y-88091904D01*
X183996666Y-88044285D01*
X183949047Y-87949047D01*
X183949047Y-87806190D01*
X183901428Y-87710952D01*
X183806190Y-87663333D01*
X183758571Y-87663333D01*
X183663333Y-87710952D01*
X183615714Y-87806190D01*
X183615714Y-87949047D01*
X183663333Y-88044285D01*
X183615714Y-89187142D02*
X184282380Y-89377619D01*
X183806190Y-89568095D01*
X184282380Y-89758571D01*
X183615714Y-89949047D01*
X184282380Y-90330000D02*
X183615714Y-90330000D01*
X183282380Y-90330000D02*
X183330000Y-90282380D01*
X183377619Y-90330000D01*
X183330000Y-90377619D01*
X183282380Y-90330000D01*
X183377619Y-90330000D01*
X184282380Y-90949047D02*
X184234761Y-90853809D01*
X184139523Y-90806190D01*
X183282380Y-90806190D01*
X184282380Y-91472857D02*
X184234761Y-91377619D01*
X184139523Y-91330000D01*
X183282380Y-91330000D01*
X184282380Y-92615714D02*
X183282380Y-92615714D01*
X183663333Y-92615714D02*
X183615714Y-92710952D01*
X183615714Y-92901428D01*
X183663333Y-92996666D01*
X183710952Y-93044285D01*
X183806190Y-93091904D01*
X184091904Y-93091904D01*
X184187142Y-93044285D01*
X184234761Y-92996666D01*
X184282380Y-92901428D01*
X184282380Y-92710952D01*
X184234761Y-92615714D01*
X184234761Y-93901428D02*
X184282380Y-93806190D01*
X184282380Y-93615714D01*
X184234761Y-93520476D01*
X184139523Y-93472857D01*
X183758571Y-93472857D01*
X183663333Y-93520476D01*
X183615714Y-93615714D01*
X183615714Y-93806190D01*
X183663333Y-93901428D01*
X183758571Y-93949047D01*
X183853809Y-93949047D01*
X183949047Y-93472857D01*
X184282380Y-95568095D02*
X183282380Y-95568095D01*
X184234761Y-95568095D02*
X184282380Y-95472857D01*
X184282380Y-95282380D01*
X184234761Y-95187142D01*
X184187142Y-95139523D01*
X184091904Y-95091904D01*
X183806190Y-95091904D01*
X183710952Y-95139523D01*
X183663333Y-95187142D01*
X183615714Y-95282380D01*
X183615714Y-95472857D01*
X183663333Y-95568095D01*
X184282380Y-96044285D02*
X183615714Y-96044285D01*
X183282380Y-96044285D02*
X183330000Y-95996666D01*
X183377619Y-96044285D01*
X183330000Y-96091904D01*
X183282380Y-96044285D01*
X183377619Y-96044285D01*
X184234761Y-96472857D02*
X184282380Y-96568095D01*
X184282380Y-96758571D01*
X184234761Y-96853809D01*
X184139523Y-96901428D01*
X184091904Y-96901428D01*
X183996666Y-96853809D01*
X183949047Y-96758571D01*
X183949047Y-96615714D01*
X183901428Y-96520476D01*
X183806190Y-96472857D01*
X183758571Y-96472857D01*
X183663333Y-96520476D01*
X183615714Y-96615714D01*
X183615714Y-96758571D01*
X183663333Y-96853809D01*
X184282380Y-97758571D02*
X183758571Y-97758571D01*
X183663333Y-97710952D01*
X183615714Y-97615714D01*
X183615714Y-97425238D01*
X183663333Y-97330000D01*
X184234761Y-97758571D02*
X184282380Y-97663333D01*
X184282380Y-97425238D01*
X184234761Y-97330000D01*
X184139523Y-97282380D01*
X184044285Y-97282380D01*
X183949047Y-97330000D01*
X183901428Y-97425238D01*
X183901428Y-97663333D01*
X183853809Y-97758571D01*
X184282380Y-98234761D02*
X183282380Y-98234761D01*
X183663333Y-98234761D02*
X183615714Y-98330000D01*
X183615714Y-98520476D01*
X183663333Y-98615714D01*
X183710952Y-98663333D01*
X183806190Y-98710952D01*
X184091904Y-98710952D01*
X184187142Y-98663333D01*
X184234761Y-98615714D01*
X184282380Y-98520476D01*
X184282380Y-98330000D01*
X184234761Y-98234761D01*
X184282380Y-99282380D02*
X184234761Y-99187142D01*
X184139523Y-99139523D01*
X183282380Y-99139523D01*
X184234761Y-100044285D02*
X184282380Y-99949047D01*
X184282380Y-99758571D01*
X184234761Y-99663333D01*
X184139523Y-99615714D01*
X183758571Y-99615714D01*
X183663333Y-99663333D01*
X183615714Y-99758571D01*
X183615714Y-99949047D01*
X183663333Y-100044285D01*
X183758571Y-100091904D01*
X183853809Y-100091904D01*
X183949047Y-99615714D01*
X184282380Y-100949047D02*
X183282380Y-100949047D01*
X184234761Y-100949047D02*
X184282380Y-100853809D01*
X184282380Y-100663333D01*
X184234761Y-100568095D01*
X184187142Y-100520476D01*
X184091904Y-100472857D01*
X183806190Y-100472857D01*
X183710952Y-100520476D01*
X183663333Y-100568095D01*
X183615714Y-100663333D01*
X183615714Y-100853809D01*
X183663333Y-100949047D01*
X183282380Y-102187142D02*
X184091904Y-102187142D01*
X184187142Y-102234761D01*
X184234761Y-102282380D01*
X184282380Y-102377619D01*
X184282380Y-102568095D01*
X184234761Y-102663333D01*
X184187142Y-102710952D01*
X184091904Y-102758571D01*
X183282380Y-102758571D01*
X184234761Y-103187142D02*
X184282380Y-103330000D01*
X184282380Y-103568095D01*
X184234761Y-103663333D01*
X184187142Y-103710952D01*
X184091904Y-103758571D01*
X183996666Y-103758571D01*
X183901428Y-103710952D01*
X183853809Y-103663333D01*
X183806190Y-103568095D01*
X183758571Y-103377619D01*
X183710952Y-103282380D01*
X183663333Y-103234761D01*
X183568095Y-103187142D01*
X183472857Y-103187142D01*
X183377619Y-103234761D01*
X183330000Y-103282380D01*
X183282380Y-103377619D01*
X183282380Y-103615714D01*
X183330000Y-103758571D01*
X183758571Y-104520476D02*
X183806190Y-104663333D01*
X183853809Y-104710952D01*
X183949047Y-104758571D01*
X184091904Y-104758571D01*
X184187142Y-104710952D01*
X184234761Y-104663333D01*
X184282380Y-104568095D01*
X184282380Y-104187142D01*
X183282380Y-104187142D01*
X183282380Y-104520476D01*
X183330000Y-104615714D01*
X183377619Y-104663333D01*
X183472857Y-104710952D01*
X183568095Y-104710952D01*
X183663333Y-104663333D01*
X183710952Y-104615714D01*
X183758571Y-104520476D01*
X183758571Y-104187142D01*
X183901428Y-105187142D02*
X183901428Y-105949047D01*
X184282380Y-106425238D02*
X183615714Y-106425238D01*
X183710952Y-106425238D02*
X183663333Y-106472857D01*
X183615714Y-106568095D01*
X183615714Y-106710952D01*
X183663333Y-106806190D01*
X183758571Y-106853809D01*
X184282380Y-106853809D01*
X183758571Y-106853809D02*
X183663333Y-106901428D01*
X183615714Y-106996666D01*
X183615714Y-107139523D01*
X183663333Y-107234761D01*
X183758571Y-107282380D01*
X184282380Y-107282380D01*
X184282380Y-107901428D02*
X184234761Y-107806190D01*
X184187142Y-107758571D01*
X184091904Y-107710952D01*
X183806190Y-107710952D01*
X183710952Y-107758571D01*
X183663333Y-107806190D01*
X183615714Y-107901428D01*
X183615714Y-108044285D01*
X183663333Y-108139523D01*
X183710952Y-108187142D01*
X183806190Y-108234761D01*
X184091904Y-108234761D01*
X184187142Y-108187142D01*
X184234761Y-108139523D01*
X184282380Y-108044285D01*
X184282380Y-107901428D01*
X184282380Y-109091904D02*
X183282380Y-109091904D01*
X184234761Y-109091904D02*
X184282380Y-108996666D01*
X184282380Y-108806190D01*
X184234761Y-108710952D01*
X184187142Y-108663333D01*
X184091904Y-108615714D01*
X183806190Y-108615714D01*
X183710952Y-108663333D01*
X183663333Y-108710952D01*
X183615714Y-108806190D01*
X183615714Y-108996666D01*
X183663333Y-109091904D01*
X184234761Y-109949047D02*
X184282380Y-109853809D01*
X184282380Y-109663333D01*
X184234761Y-109568095D01*
X184139523Y-109520476D01*
X183758571Y-109520476D01*
X183663333Y-109568095D01*
X183615714Y-109663333D01*
X183615714Y-109853809D01*
X183663333Y-109949047D01*
X183758571Y-109996666D01*
X183853809Y-109996666D01*
X183949047Y-109520476D01*
X184282380Y-111187142D02*
X183615714Y-111187142D01*
X183282380Y-111187142D02*
X183330000Y-111139523D01*
X183377619Y-111187142D01*
X183330000Y-111234761D01*
X183282380Y-111187142D01*
X183377619Y-111187142D01*
X183615714Y-111520476D02*
X183615714Y-111901428D01*
X184282380Y-111663333D02*
X183425238Y-111663333D01*
X183330000Y-111710952D01*
X183282380Y-111806190D01*
X183282380Y-111901428D01*
X183615714Y-112996666D02*
X184282380Y-112996666D01*
X183710952Y-112996666D02*
X183663333Y-113044285D01*
X183615714Y-113139523D01*
X183615714Y-113282380D01*
X183663333Y-113377619D01*
X183758571Y-113425238D01*
X184282380Y-113425238D01*
X184282380Y-114044285D02*
X184234761Y-113949047D01*
X184187142Y-113901428D01*
X184091904Y-113853809D01*
X183806190Y-113853809D01*
X183710952Y-113901428D01*
X183663333Y-113949047D01*
X183615714Y-114044285D01*
X183615714Y-114187142D01*
X183663333Y-114282380D01*
X183710952Y-114330000D01*
X183806190Y-114377619D01*
X184091904Y-114377619D01*
X184187142Y-114330000D01*
X184234761Y-114282380D01*
X184282380Y-114187142D01*
X184282380Y-114044285D01*
X183615714Y-114663333D02*
X183615714Y-115044285D01*
X183282380Y-114806190D02*
X184139523Y-114806190D01*
X184234761Y-114853809D01*
X184282380Y-114949047D01*
X184282380Y-115044285D01*
X184187142Y-115377619D02*
X184234761Y-115425238D01*
X184282380Y-115377619D01*
X184234761Y-115330000D01*
X184187142Y-115377619D01*
X184282380Y-115377619D01*
D10*
X231775000Y-115570000D02*
X231140000Y-115570000D01*
X231140000Y-120650000D02*
X231140000Y-115570000D01*
X231775000Y-120650000D02*
X231140000Y-120650000D01*
X234950000Y-115570000D02*
X233045000Y-115570000D01*
X231140000Y-121285000D02*
X231140000Y-123190000D01*
X231140000Y-123190000D02*
X233680000Y-123190000D01*
X234950000Y-115570000D02*
X234950000Y-117475000D01*
X231775000Y-105410000D02*
X231140000Y-105410000D01*
X231140000Y-110490000D02*
X231140000Y-105410000D01*
X231775000Y-110490000D02*
X231140000Y-110490000D01*
X234950000Y-105410000D02*
X233045000Y-105410000D01*
X231140000Y-111125000D02*
X231140000Y-113030000D01*
X231140000Y-113030000D02*
X233680000Y-113030000D01*
D12*
X229431904Y-106883333D02*
X230231904Y-107150000D01*
X229431904Y-107416666D01*
X230155714Y-108140476D02*
X230193809Y-108102380D01*
X230231904Y-107988095D01*
X230231904Y-107911904D01*
X230193809Y-107797619D01*
X230117619Y-107721428D01*
X230041428Y-107683333D01*
X229889047Y-107645238D01*
X229774761Y-107645238D01*
X229622380Y-107683333D01*
X229546190Y-107721428D01*
X229470000Y-107797619D01*
X229431904Y-107911904D01*
X229431904Y-107988095D01*
X229470000Y-108102380D01*
X229508095Y-108140476D01*
X230155714Y-108940476D02*
X230193809Y-108902380D01*
X230231904Y-108788095D01*
X230231904Y-108711904D01*
X230193809Y-108597619D01*
X230117619Y-108521428D01*
X230041428Y-108483333D01*
X229889047Y-108445238D01*
X229774761Y-108445238D01*
X229622380Y-108483333D01*
X229546190Y-108521428D01*
X229470000Y-108597619D01*
X229431904Y-108711904D01*
X229431904Y-108788095D01*
X229470000Y-108902380D01*
X229508095Y-108940476D01*
D10*
X234950000Y-105410000D02*
X234950000Y-107315000D01*
D12*
X238687857Y-118160952D02*
X238687857Y-117894285D01*
X239106904Y-117894285D02*
X238306904Y-117894285D01*
X238306904Y-118275238D01*
X239106904Y-118580000D02*
X238306904Y-118580000D01*
X239106904Y-119418095D02*
X238725952Y-119151428D01*
X239106904Y-118960952D02*
X238306904Y-118960952D01*
X238306904Y-119265714D01*
X238345000Y-119341904D01*
X238383095Y-119380000D01*
X238459285Y-119418095D01*
X238573571Y-119418095D01*
X238649761Y-119380000D01*
X238687857Y-119341904D01*
X238725952Y-119265714D01*
X238725952Y-118960952D01*
X238687857Y-119760952D02*
X238687857Y-120027619D01*
X239106904Y-120141904D02*
X239106904Y-119760952D01*
X238306904Y-119760952D01*
X238306904Y-120141904D01*
X238306904Y-120408571D02*
X238306904Y-120903809D01*
X238611666Y-120637142D01*
X238611666Y-120751428D01*
X238649761Y-120827619D01*
X238687857Y-120865714D01*
X238764047Y-120903809D01*
X238954523Y-120903809D01*
X239030714Y-120865714D01*
X239068809Y-120827619D01*
X239106904Y-120751428D01*
X239106904Y-120522857D01*
X239068809Y-120446666D01*
X239030714Y-120408571D01*
X239606904Y-117456190D02*
X239606904Y-117608571D01*
X239645000Y-117684761D01*
X239721190Y-117760952D01*
X239873571Y-117799047D01*
X240140238Y-117799047D01*
X240292619Y-117760952D01*
X240368809Y-117684761D01*
X240406904Y-117608571D01*
X240406904Y-117456190D01*
X240368809Y-117380000D01*
X240292619Y-117303809D01*
X240140238Y-117265714D01*
X239873571Y-117265714D01*
X239721190Y-117303809D01*
X239645000Y-117380000D01*
X239606904Y-117456190D01*
X239606904Y-118141904D02*
X240254523Y-118141904D01*
X240330714Y-118180000D01*
X240368809Y-118218095D01*
X240406904Y-118294285D01*
X240406904Y-118446666D01*
X240368809Y-118522857D01*
X240330714Y-118560952D01*
X240254523Y-118599047D01*
X239606904Y-118599047D01*
X239606904Y-118865714D02*
X239606904Y-119322857D01*
X240406904Y-119094285D02*
X239606904Y-119094285D01*
X240406904Y-119589523D02*
X239606904Y-119589523D01*
X239606904Y-119894285D01*
X239645000Y-119970476D01*
X239683095Y-120008571D01*
X239759285Y-120046666D01*
X239873571Y-120046666D01*
X239949761Y-120008571D01*
X239987857Y-119970476D01*
X240025952Y-119894285D01*
X240025952Y-119589523D01*
X239606904Y-120389523D02*
X240254523Y-120389523D01*
X240330714Y-120427619D01*
X240368809Y-120465714D01*
X240406904Y-120541904D01*
X240406904Y-120694285D01*
X240368809Y-120770476D01*
X240330714Y-120808571D01*
X240254523Y-120846666D01*
X239606904Y-120846666D01*
X239606904Y-121113333D02*
X239606904Y-121570476D01*
X240406904Y-121341904D02*
X239606904Y-121341904D01*
X238687857Y-108000952D02*
X238687857Y-107734285D01*
X239106904Y-107734285D02*
X238306904Y-107734285D01*
X238306904Y-108115238D01*
X239106904Y-108420000D02*
X238306904Y-108420000D01*
X239106904Y-109258095D02*
X238725952Y-108991428D01*
X239106904Y-108800952D02*
X238306904Y-108800952D01*
X238306904Y-109105714D01*
X238345000Y-109181904D01*
X238383095Y-109220000D01*
X238459285Y-109258095D01*
X238573571Y-109258095D01*
X238649761Y-109220000D01*
X238687857Y-109181904D01*
X238725952Y-109105714D01*
X238725952Y-108800952D01*
X238687857Y-109600952D02*
X238687857Y-109867619D01*
X239106904Y-109981904D02*
X239106904Y-109600952D01*
X238306904Y-109600952D01*
X238306904Y-109981904D01*
X238306904Y-110248571D02*
X238306904Y-110743809D01*
X238611666Y-110477142D01*
X238611666Y-110591428D01*
X238649761Y-110667619D01*
X238687857Y-110705714D01*
X238764047Y-110743809D01*
X238954523Y-110743809D01*
X239030714Y-110705714D01*
X239068809Y-110667619D01*
X239106904Y-110591428D01*
X239106904Y-110362857D01*
X239068809Y-110286666D01*
X239030714Y-110248571D01*
X240406904Y-106686666D02*
X239606904Y-106686666D01*
X239606904Y-106991428D01*
X239645000Y-107067619D01*
X239683095Y-107105714D01*
X239759285Y-107143809D01*
X239873571Y-107143809D01*
X239949761Y-107105714D01*
X239987857Y-107067619D01*
X240025952Y-106991428D01*
X240025952Y-106686666D01*
X239606904Y-107639047D02*
X239606904Y-107791428D01*
X239645000Y-107867619D01*
X239721190Y-107943809D01*
X239873571Y-107981904D01*
X240140238Y-107981904D01*
X240292619Y-107943809D01*
X240368809Y-107867619D01*
X240406904Y-107791428D01*
X240406904Y-107639047D01*
X240368809Y-107562857D01*
X240292619Y-107486666D01*
X240140238Y-107448571D01*
X239873571Y-107448571D01*
X239721190Y-107486666D01*
X239645000Y-107562857D01*
X239606904Y-107639047D01*
X240406904Y-108705714D02*
X240406904Y-108324761D01*
X239606904Y-108324761D01*
X240178333Y-108934285D02*
X240178333Y-109315238D01*
X240406904Y-108858095D02*
X239606904Y-109124761D01*
X240406904Y-109391428D01*
X240406904Y-110115238D02*
X240025952Y-109848571D01*
X240406904Y-109658095D02*
X239606904Y-109658095D01*
X239606904Y-109962857D01*
X239645000Y-110039047D01*
X239683095Y-110077142D01*
X239759285Y-110115238D01*
X239873571Y-110115238D01*
X239949761Y-110077142D01*
X239987857Y-110039047D01*
X240025952Y-109962857D01*
X240025952Y-109658095D01*
X240406904Y-110458095D02*
X239606904Y-110458095D01*
X239606904Y-110724761D02*
X239606904Y-111181904D01*
X240406904Y-110953333D02*
X239606904Y-110953333D01*
X240025952Y-111600952D02*
X240406904Y-111600952D01*
X239606904Y-111334285D02*
X240025952Y-111600952D01*
X239606904Y-111867619D01*
D10*
X234950000Y-95250000D02*
X234950000Y-97155000D01*
D12*
X166636666Y-87953904D02*
X166141428Y-87953904D01*
X166408095Y-88258666D01*
X166293809Y-88258666D01*
X166217619Y-88296761D01*
X166179523Y-88334857D01*
X166141428Y-88411047D01*
X166141428Y-88601523D01*
X166179523Y-88677714D01*
X166217619Y-88715809D01*
X166293809Y-88753904D01*
X166522380Y-88753904D01*
X166598571Y-88715809D01*
X166636666Y-88677714D01*
X166598571Y-85998095D02*
X166560476Y-85960000D01*
X166484285Y-85921904D01*
X166293809Y-85921904D01*
X166217619Y-85960000D01*
X166179523Y-85998095D01*
X166141428Y-86074285D01*
X166141428Y-86150476D01*
X166179523Y-86264761D01*
X166636666Y-86721904D01*
X166141428Y-86721904D01*
X166141428Y-84689904D02*
X166598571Y-84689904D01*
X166370000Y-84689904D02*
X166370000Y-83889904D01*
X166446190Y-84004190D01*
X166522380Y-84080380D01*
X166598571Y-84118476D01*
X167384523Y-91009904D02*
X167384523Y-90209904D01*
X167079761Y-90209904D01*
X167003571Y-90248000D01*
X166965476Y-90286095D01*
X166927380Y-90362285D01*
X166927380Y-90476571D01*
X166965476Y-90552761D01*
X167003571Y-90590857D01*
X167079761Y-90628952D01*
X167384523Y-90628952D01*
X166660714Y-90209904D02*
X166470238Y-91009904D01*
X166317857Y-90438476D01*
X166165476Y-91009904D01*
X165975000Y-90209904D01*
X165213095Y-91009904D02*
X165479761Y-90628952D01*
X165670238Y-91009904D02*
X165670238Y-90209904D01*
X165365476Y-90209904D01*
X165289285Y-90248000D01*
X165251190Y-90286095D01*
X165213095Y-90362285D01*
X165213095Y-90476571D01*
X165251190Y-90552761D01*
X165289285Y-90590857D01*
X165365476Y-90628952D01*
X165670238Y-90628952D01*
X164298809Y-90971809D02*
X164184523Y-91009904D01*
X163994047Y-91009904D01*
X163917857Y-90971809D01*
X163879761Y-90933714D01*
X163841666Y-90857523D01*
X163841666Y-90781333D01*
X163879761Y-90705142D01*
X163917857Y-90667047D01*
X163994047Y-90628952D01*
X164146428Y-90590857D01*
X164222619Y-90552761D01*
X164260714Y-90514666D01*
X164298809Y-90438476D01*
X164298809Y-90362285D01*
X164260714Y-90286095D01*
X164222619Y-90248000D01*
X164146428Y-90209904D01*
X163955952Y-90209904D01*
X163841666Y-90248000D01*
X163498809Y-90590857D02*
X163232142Y-90590857D01*
X163117857Y-91009904D02*
X163498809Y-91009904D01*
X163498809Y-90209904D01*
X163117857Y-90209904D01*
X162394047Y-91009904D02*
X162775000Y-91009904D01*
X162775000Y-90209904D01*
X162127380Y-90590857D02*
X161860714Y-90590857D01*
X161746428Y-91009904D02*
X162127380Y-91009904D01*
X162127380Y-90209904D01*
X161746428Y-90209904D01*
X160946428Y-90933714D02*
X160984523Y-90971809D01*
X161098809Y-91009904D01*
X161175000Y-91009904D01*
X161289285Y-90971809D01*
X161365476Y-90895619D01*
X161403571Y-90819428D01*
X161441666Y-90667047D01*
X161441666Y-90552761D01*
X161403571Y-90400380D01*
X161365476Y-90324190D01*
X161289285Y-90248000D01*
X161175000Y-90209904D01*
X161098809Y-90209904D01*
X160984523Y-90248000D01*
X160946428Y-90286095D01*
X160717857Y-90209904D02*
X160260714Y-90209904D01*
X160489285Y-91009904D02*
X160489285Y-90209904D01*
X167155952Y-92614666D02*
X167194047Y-92576571D01*
X167270238Y-92462285D01*
X167308333Y-92386095D01*
X167346428Y-92271809D01*
X167384523Y-92081333D01*
X167384523Y-91928952D01*
X167346428Y-91738476D01*
X167308333Y-91624190D01*
X167270238Y-91548000D01*
X167194047Y-91433714D01*
X167155952Y-91395619D01*
X166889285Y-91586095D02*
X166851190Y-91548000D01*
X166775000Y-91509904D01*
X166584523Y-91509904D01*
X166508333Y-91548000D01*
X166470238Y-91586095D01*
X166432142Y-91662285D01*
X166432142Y-91738476D01*
X166470238Y-91852761D01*
X166927380Y-92309904D01*
X166432142Y-92309904D01*
X166089285Y-92005142D02*
X165479761Y-92005142D01*
X165175000Y-91509904D02*
X164679761Y-91509904D01*
X164946428Y-91814666D01*
X164832142Y-91814666D01*
X164755952Y-91852761D01*
X164717857Y-91890857D01*
X164679761Y-91967047D01*
X164679761Y-92157523D01*
X164717857Y-92233714D01*
X164755952Y-92271809D01*
X164832142Y-92309904D01*
X165060714Y-92309904D01*
X165136904Y-92271809D01*
X165175000Y-92233714D01*
X163841666Y-91776571D02*
X163536904Y-91776571D01*
X163727380Y-92309904D02*
X163727380Y-91624190D01*
X163689285Y-91548000D01*
X163613095Y-91509904D01*
X163536904Y-91509904D01*
X163155952Y-92309904D02*
X163232142Y-92271809D01*
X163270238Y-92233714D01*
X163308333Y-92157523D01*
X163308333Y-91928952D01*
X163270238Y-91852761D01*
X163232142Y-91814666D01*
X163155952Y-91776571D01*
X163041666Y-91776571D01*
X162965476Y-91814666D01*
X162927380Y-91852761D01*
X162889285Y-91928952D01*
X162889285Y-92157523D01*
X162927380Y-92233714D01*
X162965476Y-92271809D01*
X163041666Y-92309904D01*
X163155952Y-92309904D01*
X162546428Y-92309904D02*
X162546428Y-91776571D01*
X162546428Y-91928952D02*
X162508333Y-91852761D01*
X162470238Y-91814666D01*
X162394047Y-91776571D01*
X162317857Y-91776571D01*
X167422619Y-93381333D02*
X167041666Y-93381333D01*
X167498809Y-93609904D02*
X167232142Y-92809904D01*
X166965476Y-93609904D01*
X166698809Y-93609904D02*
X166698809Y-93076571D01*
X166698809Y-93228952D02*
X166660714Y-93152761D01*
X166622619Y-93114666D01*
X166546428Y-93076571D01*
X166470238Y-93076571D01*
X165860714Y-93609904D02*
X165860714Y-92809904D01*
X165860714Y-93571809D02*
X165936904Y-93609904D01*
X166089285Y-93609904D01*
X166165476Y-93571809D01*
X166203571Y-93533714D01*
X166241666Y-93457523D01*
X166241666Y-93228952D01*
X166203571Y-93152761D01*
X166165476Y-93114666D01*
X166089285Y-93076571D01*
X165936904Y-93076571D01*
X165860714Y-93114666D01*
X165136904Y-93076571D02*
X165136904Y-93609904D01*
X165479761Y-93076571D02*
X165479761Y-93495619D01*
X165441666Y-93571809D01*
X165365476Y-93609904D01*
X165251190Y-93609904D01*
X165175000Y-93571809D01*
X165136904Y-93533714D01*
X164755952Y-93609904D02*
X164755952Y-93076571D01*
X164755952Y-92809904D02*
X164794047Y-92848000D01*
X164755952Y-92886095D01*
X164717857Y-92848000D01*
X164755952Y-92809904D01*
X164755952Y-92886095D01*
X164375000Y-93076571D02*
X164375000Y-93609904D01*
X164375000Y-93152761D02*
X164336904Y-93114666D01*
X164260714Y-93076571D01*
X164146428Y-93076571D01*
X164070238Y-93114666D01*
X164032142Y-93190857D01*
X164032142Y-93609904D01*
X163536904Y-93609904D02*
X163613095Y-93571809D01*
X163651190Y-93533714D01*
X163689285Y-93457523D01*
X163689285Y-93228952D01*
X163651190Y-93152761D01*
X163613095Y-93114666D01*
X163536904Y-93076571D01*
X163422619Y-93076571D01*
X163346428Y-93114666D01*
X163308333Y-93152761D01*
X163270238Y-93228952D01*
X163270238Y-93457523D01*
X163308333Y-93533714D01*
X163346428Y-93571809D01*
X163422619Y-93609904D01*
X163536904Y-93609904D01*
X163003571Y-93914666D02*
X162965476Y-93876571D01*
X162889285Y-93762285D01*
X162851190Y-93686095D01*
X162813095Y-93571809D01*
X162775000Y-93381333D01*
X162775000Y-93228952D01*
X162813095Y-93038476D01*
X162851190Y-92924190D01*
X162889285Y-92848000D01*
X162965476Y-92733714D01*
X163003571Y-92695619D01*
D10*
X164592000Y-89662000D02*
X167894000Y-89662000D01*
X164592000Y-86614000D02*
X164592000Y-89662000D01*
X164592000Y-83058000D02*
X164592000Y-84074000D01*
X164592000Y-86360000D02*
X165100000Y-86360000D01*
X164592000Y-84328000D02*
X164592000Y-86360000D01*
X165100000Y-84328000D02*
X164592000Y-84328000D01*
X167894000Y-89662000D02*
X167894000Y-83058000D01*
X164592000Y-83058000D02*
X167894000Y-83058000D01*
D11*
X197960714Y-143295000D02*
X197484523Y-143295000D01*
X197722619Y-144662380D02*
X197722619Y-143662380D01*
X197484523Y-143295000D02*
X196341666Y-143295000D01*
X197246428Y-144662380D02*
X197246428Y-143662380D01*
X196913095Y-144376666D01*
X196579761Y-143662380D01*
X196579761Y-144662380D01*
X196341666Y-143295000D02*
X195341666Y-143295000D01*
X196103571Y-144662380D02*
X196103571Y-143662380D01*
X195722619Y-143662380D01*
X195627380Y-143710000D01*
X195579761Y-143757619D01*
X195532142Y-143852857D01*
X195532142Y-143995714D01*
X195579761Y-144090952D01*
X195627380Y-144138571D01*
X195722619Y-144186190D01*
X196103571Y-144186190D01*
X195341666Y-143295000D02*
X194294047Y-143295000D01*
X194913095Y-143662380D02*
X194722619Y-143662380D01*
X194627380Y-143710000D01*
X194532142Y-143805238D01*
X194484523Y-143995714D01*
X194484523Y-144329047D01*
X194532142Y-144519523D01*
X194627380Y-144614761D01*
X194722619Y-144662380D01*
X194913095Y-144662380D01*
X195008333Y-144614761D01*
X195103571Y-144519523D01*
X195151190Y-144329047D01*
X195151190Y-143995714D01*
X195103571Y-143805238D01*
X195008333Y-143710000D01*
X194913095Y-143662380D01*
X194294047Y-143295000D02*
X193294047Y-143295000D01*
X193484523Y-144662380D02*
X193817857Y-144186190D01*
X194055952Y-144662380D02*
X194055952Y-143662380D01*
X193675000Y-143662380D01*
X193579761Y-143710000D01*
X193532142Y-143757619D01*
X193484523Y-143852857D01*
X193484523Y-143995714D01*
X193532142Y-144090952D01*
X193579761Y-144138571D01*
X193675000Y-144186190D01*
X194055952Y-144186190D01*
X193294047Y-143295000D02*
X192532142Y-143295000D01*
X193198809Y-143662380D02*
X192627380Y-143662380D01*
X192913095Y-144662380D02*
X192913095Y-143662380D01*
X192532142Y-143295000D02*
X191675000Y-143295000D01*
X192341666Y-144376666D02*
X191865476Y-144376666D01*
X192436904Y-144662380D02*
X192103571Y-143662380D01*
X191770238Y-144662380D01*
X191675000Y-143295000D02*
X190627380Y-143295000D01*
X191436904Y-144662380D02*
X191436904Y-143662380D01*
X190865476Y-144662380D01*
X190865476Y-143662380D01*
X190627380Y-143295000D02*
X189865476Y-143295000D01*
X190532142Y-143662380D02*
X189960714Y-143662380D01*
X190246428Y-144662380D02*
X190246428Y-143662380D01*
X189865476Y-143295000D02*
X189389285Y-143295000D01*
X189627380Y-144567142D02*
X189579761Y-144614761D01*
X189627380Y-144662380D01*
X189675000Y-144614761D01*
X189627380Y-144567142D01*
X189627380Y-144662380D01*
X189627380Y-144281428D02*
X189675000Y-143710000D01*
X189627380Y-143662380D01*
X189579761Y-143710000D01*
X189627380Y-144281428D01*
X189627380Y-143662380D01*
X213555952Y-146217142D02*
X213603571Y-146264761D01*
X213746428Y-146312380D01*
X213841666Y-146312380D01*
X213984523Y-146264761D01*
X214079761Y-146169523D01*
X214127380Y-146074285D01*
X214175000Y-145883809D01*
X214175000Y-145740952D01*
X214127380Y-145550476D01*
X214079761Y-145455238D01*
X213984523Y-145360000D01*
X213841666Y-145312380D01*
X213746428Y-145312380D01*
X213603571Y-145360000D01*
X213555952Y-145407619D01*
X212984523Y-146312380D02*
X213079761Y-146264761D01*
X213127380Y-146217142D01*
X213175000Y-146121904D01*
X213175000Y-145836190D01*
X213127380Y-145740952D01*
X213079761Y-145693333D01*
X212984523Y-145645714D01*
X212841666Y-145645714D01*
X212746428Y-145693333D01*
X212698809Y-145740952D01*
X212651190Y-145836190D01*
X212651190Y-146121904D01*
X212698809Y-146217142D01*
X212746428Y-146264761D01*
X212841666Y-146312380D01*
X212984523Y-146312380D01*
X212222619Y-145645714D02*
X212222619Y-146312380D01*
X212222619Y-145740952D02*
X212175000Y-145693333D01*
X212079761Y-145645714D01*
X211936904Y-145645714D01*
X211841666Y-145693333D01*
X211794047Y-145788571D01*
X211794047Y-146312380D01*
X211460714Y-145645714D02*
X211079761Y-145645714D01*
X211317857Y-146312380D02*
X211317857Y-145455238D01*
X211270238Y-145360000D01*
X211175000Y-145312380D01*
X211079761Y-145312380D01*
X210746428Y-146312380D02*
X210746428Y-145645714D01*
X210746428Y-145312380D02*
X210794047Y-145360000D01*
X210746428Y-145407619D01*
X210698809Y-145360000D01*
X210746428Y-145312380D01*
X210746428Y-145407619D01*
X209841666Y-145645714D02*
X209841666Y-146455238D01*
X209889285Y-146550476D01*
X209936904Y-146598095D01*
X210032142Y-146645714D01*
X210175000Y-146645714D01*
X210270238Y-146598095D01*
X209841666Y-146264761D02*
X209936904Y-146312380D01*
X210127380Y-146312380D01*
X210222619Y-146264761D01*
X210270238Y-146217142D01*
X210317857Y-146121904D01*
X210317857Y-145836190D01*
X210270238Y-145740952D01*
X210222619Y-145693333D01*
X210127380Y-145645714D01*
X209936904Y-145645714D01*
X209841666Y-145693333D01*
X208936904Y-145645714D02*
X208936904Y-146312380D01*
X209365476Y-145645714D02*
X209365476Y-146169523D01*
X209317857Y-146264761D01*
X209222619Y-146312380D01*
X209079761Y-146312380D01*
X208984523Y-146264761D01*
X208936904Y-146217142D01*
X208460714Y-146312380D02*
X208460714Y-145645714D01*
X208460714Y-145836190D02*
X208413095Y-145740952D01*
X208365476Y-145693333D01*
X208270238Y-145645714D01*
X208175000Y-145645714D01*
X207460714Y-146264761D02*
X207555952Y-146312380D01*
X207746428Y-146312380D01*
X207841666Y-146264761D01*
X207889285Y-146169523D01*
X207889285Y-145788571D01*
X207841666Y-145693333D01*
X207746428Y-145645714D01*
X207555952Y-145645714D01*
X207460714Y-145693333D01*
X207413095Y-145788571D01*
X207413095Y-145883809D01*
X207889285Y-145979047D01*
X205889285Y-145788571D02*
X206222619Y-145788571D01*
X206222619Y-146312380D02*
X206222619Y-145312380D01*
X205746428Y-145312380D01*
X205365476Y-146312380D02*
X205365476Y-145312380D01*
X204317857Y-146312380D02*
X204651190Y-145836190D01*
X204889285Y-146312380D02*
X204889285Y-145312380D01*
X204508333Y-145312380D01*
X204413095Y-145360000D01*
X204365476Y-145407619D01*
X204317857Y-145502857D01*
X204317857Y-145645714D01*
X204365476Y-145740952D01*
X204413095Y-145788571D01*
X204508333Y-145836190D01*
X204889285Y-145836190D01*
X203889285Y-145788571D02*
X203555952Y-145788571D01*
X203413095Y-146312380D02*
X203889285Y-146312380D01*
X203889285Y-145312380D01*
X203413095Y-145312380D01*
X203032142Y-145407619D02*
X202984523Y-145360000D01*
X202889285Y-145312380D01*
X202651190Y-145312380D01*
X202555952Y-145360000D01*
X202508333Y-145407619D01*
X202460714Y-145502857D01*
X202460714Y-145598095D01*
X202508333Y-145740952D01*
X203079761Y-146312380D01*
X202460714Y-146312380D01*
X201317857Y-145264761D02*
X202175000Y-146550476D01*
X200651190Y-145788571D02*
X200984523Y-145788571D01*
X200984523Y-146312380D02*
X200984523Y-145312380D01*
X200508333Y-145312380D01*
X200127380Y-146312380D02*
X200127380Y-145312380D01*
X199079761Y-146312380D02*
X199413095Y-145836190D01*
X199651190Y-146312380D02*
X199651190Y-145312380D01*
X199270238Y-145312380D01*
X199175000Y-145360000D01*
X199127380Y-145407619D01*
X199079761Y-145502857D01*
X199079761Y-145645714D01*
X199127380Y-145740952D01*
X199175000Y-145788571D01*
X199270238Y-145836190D01*
X199651190Y-145836190D01*
X198651190Y-145788571D02*
X198317857Y-145788571D01*
X198175000Y-146312380D02*
X198651190Y-146312380D01*
X198651190Y-145312380D01*
X198175000Y-145312380D01*
X197841666Y-145312380D02*
X197222619Y-145312380D01*
X197555952Y-145693333D01*
X197413095Y-145693333D01*
X197317857Y-145740952D01*
X197270238Y-145788571D01*
X197222619Y-145883809D01*
X197222619Y-146121904D01*
X197270238Y-146217142D01*
X197317857Y-146264761D01*
X197413095Y-146312380D01*
X197698809Y-146312380D01*
X197794047Y-146264761D01*
X197841666Y-146217142D01*
X196032142Y-145645714D02*
X196032142Y-146645714D01*
X196032142Y-145693333D02*
X195936904Y-145645714D01*
X195746428Y-145645714D01*
X195651190Y-145693333D01*
X195603571Y-145740952D01*
X195555952Y-145836190D01*
X195555952Y-146121904D01*
X195603571Y-146217142D01*
X195651190Y-146264761D01*
X195746428Y-146312380D01*
X195936904Y-146312380D01*
X196032142Y-146264761D01*
X194984523Y-146312380D02*
X195079761Y-146264761D01*
X195127380Y-146217142D01*
X195175000Y-146121904D01*
X195175000Y-145836190D01*
X195127380Y-145740952D01*
X195079761Y-145693333D01*
X194984523Y-145645714D01*
X194841666Y-145645714D01*
X194746428Y-145693333D01*
X194698809Y-145740952D01*
X194651190Y-145836190D01*
X194651190Y-146121904D01*
X194698809Y-146217142D01*
X194746428Y-146264761D01*
X194841666Y-146312380D01*
X194984523Y-146312380D01*
X194079761Y-146312380D02*
X194175000Y-146264761D01*
X194222619Y-146169523D01*
X194222619Y-145312380D01*
X193270238Y-146312380D02*
X193270238Y-145788571D01*
X193317857Y-145693333D01*
X193413095Y-145645714D01*
X193603571Y-145645714D01*
X193698809Y-145693333D01*
X193270238Y-146264761D02*
X193365476Y-146312380D01*
X193603571Y-146312380D01*
X193698809Y-146264761D01*
X193746428Y-146169523D01*
X193746428Y-146074285D01*
X193698809Y-145979047D01*
X193603571Y-145931428D01*
X193365476Y-145931428D01*
X193270238Y-145883809D01*
X192794047Y-146312380D02*
X192794047Y-145645714D01*
X192794047Y-145836190D02*
X192746428Y-145740952D01*
X192698809Y-145693333D01*
X192603571Y-145645714D01*
X192508333Y-145645714D01*
X192175000Y-146312380D02*
X192175000Y-145645714D01*
X192175000Y-145312380D02*
X192222619Y-145360000D01*
X192175000Y-145407619D01*
X192127380Y-145360000D01*
X192175000Y-145312380D01*
X192175000Y-145407619D01*
X191841666Y-145645714D02*
X191460714Y-145645714D01*
X191698809Y-145312380D02*
X191698809Y-146169523D01*
X191651190Y-146264761D01*
X191555952Y-146312380D01*
X191460714Y-146312380D01*
X191222619Y-145645714D02*
X190984523Y-146312380D01*
X190746428Y-145645714D02*
X190984523Y-146312380D01*
X191079761Y-146550476D01*
X191127380Y-146598095D01*
X191222619Y-146645714D01*
X189175000Y-146312380D02*
X189175000Y-145788571D01*
X189222619Y-145693333D01*
X189317857Y-145645714D01*
X189508333Y-145645714D01*
X189603571Y-145693333D01*
X189175000Y-146264761D02*
X189270238Y-146312380D01*
X189508333Y-146312380D01*
X189603571Y-146264761D01*
X189651190Y-146169523D01*
X189651190Y-146074285D01*
X189603571Y-145979047D01*
X189508333Y-145931428D01*
X189270238Y-145931428D01*
X189175000Y-145883809D01*
X188270238Y-146264761D02*
X188365476Y-146312380D01*
X188555952Y-146312380D01*
X188651190Y-146264761D01*
X188698809Y-146217142D01*
X188746428Y-146121904D01*
X188746428Y-145836190D01*
X188698809Y-145740952D01*
X188651190Y-145693333D01*
X188555952Y-145645714D01*
X188365476Y-145645714D01*
X188270238Y-145693333D01*
X187413095Y-146264761D02*
X187508333Y-146312380D01*
X187698809Y-146312380D01*
X187794047Y-146264761D01*
X187841666Y-146217142D01*
X187889285Y-146121904D01*
X187889285Y-145836190D01*
X187841666Y-145740952D01*
X187794047Y-145693333D01*
X187698809Y-145645714D01*
X187508333Y-145645714D01*
X187413095Y-145693333D01*
X186841666Y-146312380D02*
X186936904Y-146264761D01*
X186984523Y-146217142D01*
X187032142Y-146121904D01*
X187032142Y-145836190D01*
X186984523Y-145740952D01*
X186936904Y-145693333D01*
X186841666Y-145645714D01*
X186698809Y-145645714D01*
X186603571Y-145693333D01*
X186555952Y-145740952D01*
X186508333Y-145836190D01*
X186508333Y-146121904D01*
X186555952Y-146217142D01*
X186603571Y-146264761D01*
X186698809Y-146312380D01*
X186841666Y-146312380D01*
X186079761Y-146312380D02*
X186079761Y-145645714D01*
X186079761Y-145836190D02*
X186032142Y-145740952D01*
X185984523Y-145693333D01*
X185889285Y-145645714D01*
X185794047Y-145645714D01*
X185032142Y-146312380D02*
X185032142Y-145312380D01*
X185032142Y-146264761D02*
X185127380Y-146312380D01*
X185317857Y-146312380D01*
X185413095Y-146264761D01*
X185460714Y-146217142D01*
X185508333Y-146121904D01*
X185508333Y-145836190D01*
X185460714Y-145740952D01*
X185413095Y-145693333D01*
X185317857Y-145645714D01*
X185127380Y-145645714D01*
X185032142Y-145693333D01*
X184555952Y-146312380D02*
X184555952Y-145645714D01*
X184555952Y-145312380D02*
X184603571Y-145360000D01*
X184555952Y-145407619D01*
X184508333Y-145360000D01*
X184555952Y-145312380D01*
X184555952Y-145407619D01*
X184079761Y-145645714D02*
X184079761Y-146312380D01*
X184079761Y-145740952D02*
X184032142Y-145693333D01*
X183936904Y-145645714D01*
X183794047Y-145645714D01*
X183698809Y-145693333D01*
X183651190Y-145788571D01*
X183651190Y-146312380D01*
X182746428Y-145645714D02*
X182746428Y-146455238D01*
X182794047Y-146550476D01*
X182841666Y-146598095D01*
X182936904Y-146645714D01*
X183079761Y-146645714D01*
X183175000Y-146598095D01*
X182746428Y-146264761D02*
X182841666Y-146312380D01*
X183032142Y-146312380D01*
X183127380Y-146264761D01*
X183175000Y-146217142D01*
X183222619Y-146121904D01*
X183222619Y-145836190D01*
X183175000Y-145740952D01*
X183127380Y-145693333D01*
X183032142Y-145645714D01*
X182841666Y-145645714D01*
X182746428Y-145693333D01*
X181651190Y-145645714D02*
X181270238Y-145645714D01*
X181508333Y-145312380D02*
X181508333Y-146169523D01*
X181460714Y-146264761D01*
X181365476Y-146312380D01*
X181270238Y-146312380D01*
X180794047Y-146312380D02*
X180889285Y-146264761D01*
X180936904Y-146217142D01*
X180984523Y-146121904D01*
X180984523Y-145836190D01*
X180936904Y-145740952D01*
X180889285Y-145693333D01*
X180794047Y-145645714D01*
X180651190Y-145645714D01*
X180555952Y-145693333D01*
X180508333Y-145740952D01*
X180460714Y-145836190D01*
X180460714Y-146121904D01*
X180508333Y-146217142D01*
X180555952Y-146264761D01*
X180651190Y-146312380D01*
X180794047Y-146312380D01*
X179365476Y-145645714D02*
X179175000Y-146312380D01*
X178984523Y-145836190D01*
X178794047Y-146312380D01*
X178603571Y-145645714D01*
X178222619Y-146312380D02*
X178222619Y-145312380D01*
X177794047Y-146312380D02*
X177794047Y-145788571D01*
X177841666Y-145693333D01*
X177936904Y-145645714D01*
X178079761Y-145645714D01*
X178175000Y-145693333D01*
X178222619Y-145740952D01*
X176889285Y-146312380D02*
X176889285Y-145788571D01*
X176936904Y-145693333D01*
X177032142Y-145645714D01*
X177222619Y-145645714D01*
X177317857Y-145693333D01*
X176889285Y-146264761D02*
X176984523Y-146312380D01*
X177222619Y-146312380D01*
X177317857Y-146264761D01*
X177365476Y-146169523D01*
X177365476Y-146074285D01*
X177317857Y-145979047D01*
X177222619Y-145931428D01*
X176984523Y-145931428D01*
X176889285Y-145883809D01*
X176555952Y-145645714D02*
X176175000Y-145645714D01*
X176413095Y-145312380D02*
X176413095Y-146169523D01*
X176365476Y-146264761D01*
X176270238Y-146312380D01*
X176175000Y-146312380D01*
X175222619Y-145645714D02*
X174841666Y-145645714D01*
X175079761Y-145312380D02*
X175079761Y-146169523D01*
X175032142Y-146264761D01*
X174936904Y-146312380D01*
X174841666Y-146312380D01*
X174508333Y-146312380D02*
X174508333Y-145312380D01*
X174079761Y-146312380D02*
X174079761Y-145788571D01*
X174127380Y-145693333D01*
X174222619Y-145645714D01*
X174365476Y-145645714D01*
X174460714Y-145693333D01*
X174508333Y-145740952D01*
X173222619Y-146264761D02*
X173317857Y-146312380D01*
X173508333Y-146312380D01*
X173603571Y-146264761D01*
X173651190Y-146169523D01*
X173651190Y-145788571D01*
X173603571Y-145693333D01*
X173508333Y-145645714D01*
X173317857Y-145645714D01*
X173222619Y-145693333D01*
X173175000Y-145788571D01*
X173175000Y-145883809D01*
X173651190Y-145979047D01*
X216317857Y-147914761D02*
X216222619Y-147962380D01*
X216032142Y-147962380D01*
X215936904Y-147914761D01*
X215889285Y-147819523D01*
X215889285Y-147771904D01*
X215936904Y-147676666D01*
X216032142Y-147629047D01*
X216175000Y-147629047D01*
X216270238Y-147581428D01*
X216317857Y-147486190D01*
X216317857Y-147438571D01*
X216270238Y-147343333D01*
X216175000Y-147295714D01*
X216032142Y-147295714D01*
X215936904Y-147343333D01*
X215555952Y-147295714D02*
X215317857Y-147962380D01*
X215079761Y-147295714D02*
X215317857Y-147962380D01*
X215413095Y-148200476D01*
X215460714Y-148248095D01*
X215555952Y-148295714D01*
X214746428Y-147914761D02*
X214651190Y-147962380D01*
X214460714Y-147962380D01*
X214365476Y-147914761D01*
X214317857Y-147819523D01*
X214317857Y-147771904D01*
X214365476Y-147676666D01*
X214460714Y-147629047D01*
X214603571Y-147629047D01*
X214698809Y-147581428D01*
X214746428Y-147486190D01*
X214746428Y-147438571D01*
X214698809Y-147343333D01*
X214603571Y-147295714D01*
X214460714Y-147295714D01*
X214365476Y-147343333D01*
X214032142Y-147295714D02*
X213651190Y-147295714D01*
X213889285Y-146962380D02*
X213889285Y-147819523D01*
X213841666Y-147914761D01*
X213746428Y-147962380D01*
X213651190Y-147962380D01*
X212936904Y-147914761D02*
X213032142Y-147962380D01*
X213222619Y-147962380D01*
X213317857Y-147914761D01*
X213365476Y-147819523D01*
X213365476Y-147438571D01*
X213317857Y-147343333D01*
X213222619Y-147295714D01*
X213032142Y-147295714D01*
X212936904Y-147343333D01*
X212889285Y-147438571D01*
X212889285Y-147533809D01*
X213365476Y-147629047D01*
X212460714Y-147962380D02*
X212460714Y-147295714D01*
X212460714Y-147390952D02*
X212413095Y-147343333D01*
X212317857Y-147295714D01*
X212175000Y-147295714D01*
X212079761Y-147343333D01*
X212032142Y-147438571D01*
X212032142Y-147962380D01*
X212032142Y-147438571D02*
X211984523Y-147343333D01*
X211889285Y-147295714D01*
X211746428Y-147295714D01*
X211651190Y-147343333D01*
X211603571Y-147438571D01*
X211603571Y-147962380D01*
X210413095Y-147914761D02*
X210317857Y-147962380D01*
X210127380Y-147962380D01*
X210032142Y-147914761D01*
X209984523Y-147819523D01*
X209984523Y-147771904D01*
X210032142Y-147676666D01*
X210127380Y-147629047D01*
X210270238Y-147629047D01*
X210365476Y-147581428D01*
X210413095Y-147486190D01*
X210413095Y-147438571D01*
X210365476Y-147343333D01*
X210270238Y-147295714D01*
X210127380Y-147295714D01*
X210032142Y-147343333D01*
X209127380Y-147295714D02*
X209127380Y-147962380D01*
X209555952Y-147295714D02*
X209555952Y-147819523D01*
X209508333Y-147914761D01*
X209413095Y-147962380D01*
X209270238Y-147962380D01*
X209175000Y-147914761D01*
X209127380Y-147867142D01*
X208651190Y-147295714D02*
X208651190Y-148295714D01*
X208651190Y-147343333D02*
X208555952Y-147295714D01*
X208365476Y-147295714D01*
X208270238Y-147343333D01*
X208222619Y-147390952D01*
X208175000Y-147486190D01*
X208175000Y-147771904D01*
X208222619Y-147867142D01*
X208270238Y-147914761D01*
X208365476Y-147962380D01*
X208555952Y-147962380D01*
X208651190Y-147914761D01*
X207746428Y-147295714D02*
X207746428Y-148295714D01*
X207746428Y-147343333D02*
X207651190Y-147295714D01*
X207460714Y-147295714D01*
X207365476Y-147343333D01*
X207317857Y-147390952D01*
X207270238Y-147486190D01*
X207270238Y-147771904D01*
X207317857Y-147867142D01*
X207365476Y-147914761D01*
X207460714Y-147962380D01*
X207651190Y-147962380D01*
X207746428Y-147914761D01*
X206698809Y-147962380D02*
X206794047Y-147914761D01*
X206841666Y-147867142D01*
X206889285Y-147771904D01*
X206889285Y-147486190D01*
X206841666Y-147390952D01*
X206794047Y-147343333D01*
X206698809Y-147295714D01*
X206555952Y-147295714D01*
X206460714Y-147343333D01*
X206413095Y-147390952D01*
X206365476Y-147486190D01*
X206365476Y-147771904D01*
X206413095Y-147867142D01*
X206460714Y-147914761D01*
X206555952Y-147962380D01*
X206698809Y-147962380D01*
X205936904Y-147962380D02*
X205936904Y-147295714D01*
X205936904Y-147486190D02*
X205889285Y-147390952D01*
X205841666Y-147343333D01*
X205746428Y-147295714D01*
X205651190Y-147295714D01*
X205460714Y-147295714D02*
X205079761Y-147295714D01*
X205317857Y-146962380D02*
X205317857Y-147819523D01*
X205270238Y-147914761D01*
X205175000Y-147962380D01*
X205079761Y-147962380D01*
X204794047Y-147914761D02*
X204698809Y-147962380D01*
X204508333Y-147962380D01*
X204413095Y-147914761D01*
X204365476Y-147819523D01*
X204365476Y-147771904D01*
X204413095Y-147676666D01*
X204508333Y-147629047D01*
X204651190Y-147629047D01*
X204746428Y-147581428D01*
X204794047Y-147486190D01*
X204794047Y-147438571D01*
X204746428Y-147343333D01*
X204651190Y-147295714D01*
X204508333Y-147295714D01*
X204413095Y-147343333D01*
X203889285Y-147914761D02*
X203889285Y-147962380D01*
X203936904Y-148057619D01*
X203984523Y-148105238D01*
X202555952Y-147962380D02*
X202651190Y-147914761D01*
X202698809Y-147867142D01*
X202746428Y-147771904D01*
X202746428Y-147486190D01*
X202698809Y-147390952D01*
X202651190Y-147343333D01*
X202555952Y-147295714D01*
X202413095Y-147295714D01*
X202317857Y-147343333D01*
X202270238Y-147390952D01*
X202222619Y-147486190D01*
X202222619Y-147771904D01*
X202270238Y-147867142D01*
X202317857Y-147914761D01*
X202413095Y-147962380D01*
X202555952Y-147962380D01*
X201794047Y-147962380D02*
X201794047Y-147295714D01*
X201794047Y-147486190D02*
X201746428Y-147390952D01*
X201698809Y-147343333D01*
X201603571Y-147295714D01*
X201508333Y-147295714D01*
X200270238Y-147962380D02*
X200365476Y-147914761D01*
X200413095Y-147819523D01*
X200413095Y-146962380D01*
X199508333Y-147914761D02*
X199603571Y-147962380D01*
X199794047Y-147962380D01*
X199889285Y-147914761D01*
X199936904Y-147819523D01*
X199936904Y-147438571D01*
X199889285Y-147343333D01*
X199794047Y-147295714D01*
X199603571Y-147295714D01*
X199508333Y-147343333D01*
X199460714Y-147438571D01*
X199460714Y-147533809D01*
X199936904Y-147629047D01*
X199175000Y-147295714D02*
X198794047Y-147295714D01*
X199032142Y-147962380D02*
X199032142Y-147105238D01*
X198984523Y-147010000D01*
X198889285Y-146962380D01*
X198794047Y-146962380D01*
X198603571Y-147295714D02*
X198222619Y-147295714D01*
X198460714Y-146962380D02*
X198460714Y-147819523D01*
X198413095Y-147914761D01*
X198317857Y-147962380D01*
X198222619Y-147962380D01*
X196698809Y-147295714D02*
X196698809Y-147962380D01*
X197127380Y-147295714D02*
X197127380Y-147819523D01*
X197079761Y-147914761D01*
X196984523Y-147962380D01*
X196841666Y-147962380D01*
X196746428Y-147914761D01*
X196698809Y-147867142D01*
X196222619Y-147295714D02*
X196222619Y-147962380D01*
X196222619Y-147390952D02*
X196175000Y-147343333D01*
X196079761Y-147295714D01*
X195936904Y-147295714D01*
X195841666Y-147343333D01*
X195794047Y-147438571D01*
X195794047Y-147962380D01*
X195317857Y-147295714D02*
X195317857Y-148152857D01*
X195365476Y-148248095D01*
X195460714Y-148295714D01*
X195508333Y-148295714D01*
X195317857Y-146962380D02*
X195365476Y-147010000D01*
X195317857Y-147057619D01*
X195270238Y-147010000D01*
X195317857Y-146962380D01*
X195317857Y-147057619D01*
X194413095Y-147295714D02*
X194413095Y-147962380D01*
X194841666Y-147295714D02*
X194841666Y-147819523D01*
X194794047Y-147914761D01*
X194698809Y-147962380D01*
X194555952Y-147962380D01*
X194460714Y-147914761D01*
X194413095Y-147867142D01*
X193936904Y-147962380D02*
X193936904Y-147295714D01*
X193936904Y-147390952D02*
X193889285Y-147343333D01*
X193794047Y-147295714D01*
X193651190Y-147295714D01*
X193555952Y-147343333D01*
X193508333Y-147438571D01*
X193508333Y-147962380D01*
X193508333Y-147438571D02*
X193460714Y-147343333D01*
X193365476Y-147295714D01*
X193222619Y-147295714D01*
X193127380Y-147343333D01*
X193079761Y-147438571D01*
X193079761Y-147962380D01*
X192603571Y-147295714D02*
X192603571Y-148295714D01*
X192603571Y-147343333D02*
X192508333Y-147295714D01*
X192317857Y-147295714D01*
X192222619Y-147343333D01*
X192175000Y-147390952D01*
X192127380Y-147486190D01*
X192127380Y-147771904D01*
X192175000Y-147867142D01*
X192222619Y-147914761D01*
X192317857Y-147962380D01*
X192508333Y-147962380D01*
X192603571Y-147914761D01*
X191317857Y-147914761D02*
X191413095Y-147962380D01*
X191603571Y-147962380D01*
X191698809Y-147914761D01*
X191746428Y-147819523D01*
X191746428Y-147438571D01*
X191698809Y-147343333D01*
X191603571Y-147295714D01*
X191413095Y-147295714D01*
X191317857Y-147343333D01*
X191270238Y-147438571D01*
X191270238Y-147533809D01*
X191746428Y-147629047D01*
X190841666Y-147962380D02*
X190841666Y-147295714D01*
X190841666Y-147486190D02*
X190794047Y-147390952D01*
X190746428Y-147343333D01*
X190651190Y-147295714D01*
X190555952Y-147295714D01*
X189841666Y-147914761D02*
X189936904Y-147962380D01*
X190127380Y-147962380D01*
X190222619Y-147914761D01*
X190270238Y-147819523D01*
X190270238Y-147438571D01*
X190222619Y-147343333D01*
X190127380Y-147295714D01*
X189936904Y-147295714D01*
X189841666Y-147343333D01*
X189794047Y-147438571D01*
X189794047Y-147533809D01*
X190270238Y-147629047D01*
X188936904Y-147962380D02*
X188936904Y-146962380D01*
X188936904Y-147914761D02*
X189032142Y-147962380D01*
X189222619Y-147962380D01*
X189317857Y-147914761D01*
X189365476Y-147867142D01*
X189413095Y-147771904D01*
X189413095Y-147486190D01*
X189365476Y-147390952D01*
X189317857Y-147343333D01*
X189222619Y-147295714D01*
X189032142Y-147295714D01*
X188936904Y-147343333D01*
X187413095Y-148343333D02*
X187460714Y-148295714D01*
X187555952Y-148152857D01*
X187603571Y-148057619D01*
X187651190Y-147914761D01*
X187698809Y-147676666D01*
X187698809Y-147486190D01*
X187651190Y-147248095D01*
X187603571Y-147105238D01*
X187555952Y-147010000D01*
X187460714Y-146867142D01*
X187413095Y-146819523D01*
X187032142Y-147962380D02*
X187032142Y-146962380D01*
X186460714Y-147962380D01*
X186460714Y-146962380D01*
X185270238Y-146914761D02*
X186127380Y-148200476D01*
X184365476Y-147867142D02*
X184413095Y-147914761D01*
X184555952Y-147962380D01*
X184651190Y-147962380D01*
X184794047Y-147914761D01*
X184889285Y-147819523D01*
X184936904Y-147724285D01*
X184984523Y-147533809D01*
X184984523Y-147390952D01*
X184936904Y-147200476D01*
X184889285Y-147105238D01*
X184794047Y-147010000D01*
X184651190Y-146962380D01*
X184555952Y-146962380D01*
X184413095Y-147010000D01*
X184365476Y-147057619D01*
X184032142Y-148343333D02*
X183984523Y-148295714D01*
X183889285Y-148152857D01*
X183841666Y-148057619D01*
X183794047Y-147914761D01*
X183746428Y-147676666D01*
X183746428Y-147486190D01*
X183794047Y-147248095D01*
X183841666Y-147105238D01*
X183889285Y-147010000D01*
X183984523Y-146867142D01*
X184032142Y-146819523D01*
X182508333Y-147295714D02*
X182508333Y-148152857D01*
X182555952Y-148248095D01*
X182651190Y-148295714D01*
X182698809Y-148295714D01*
X182508333Y-146962380D02*
X182555952Y-147010000D01*
X182508333Y-147057619D01*
X182460714Y-147010000D01*
X182508333Y-146962380D01*
X182508333Y-147057619D01*
X181603571Y-147295714D02*
X181603571Y-147962380D01*
X182032142Y-147295714D02*
X182032142Y-147819523D01*
X181984523Y-147914761D01*
X181889285Y-147962380D01*
X181746428Y-147962380D01*
X181651190Y-147914761D01*
X181603571Y-147867142D01*
X181175000Y-147914761D02*
X181079761Y-147962380D01*
X180889285Y-147962380D01*
X180794047Y-147914761D01*
X180746428Y-147819523D01*
X180746428Y-147771904D01*
X180794047Y-147676666D01*
X180889285Y-147629047D01*
X181032142Y-147629047D01*
X181127380Y-147581428D01*
X181175000Y-147486190D01*
X181175000Y-147438571D01*
X181127380Y-147343333D01*
X181032142Y-147295714D01*
X180889285Y-147295714D01*
X180794047Y-147343333D01*
X180460714Y-147295714D02*
X180079761Y-147295714D01*
X180317857Y-146962380D02*
X180317857Y-147819523D01*
X180270238Y-147914761D01*
X180175000Y-147962380D01*
X180079761Y-147962380D01*
X179127380Y-147295714D02*
X178746428Y-147295714D01*
X178984523Y-146962380D02*
X178984523Y-147819523D01*
X178936904Y-147914761D01*
X178841666Y-147962380D01*
X178746428Y-147962380D01*
X178270238Y-147962380D02*
X178365476Y-147914761D01*
X178413095Y-147867142D01*
X178460714Y-147771904D01*
X178460714Y-147486190D01*
X178413095Y-147390952D01*
X178365476Y-147343333D01*
X178270238Y-147295714D01*
X178127380Y-147295714D01*
X178032142Y-147343333D01*
X177984523Y-147390952D01*
X177936904Y-147486190D01*
X177936904Y-147771904D01*
X177984523Y-147867142D01*
X178032142Y-147914761D01*
X178127380Y-147962380D01*
X178270238Y-147962380D01*
X176746428Y-147962380D02*
X176746428Y-146962380D01*
X176746428Y-147343333D02*
X176651190Y-147295714D01*
X176460714Y-147295714D01*
X176365476Y-147343333D01*
X176317857Y-147390952D01*
X176270238Y-147486190D01*
X176270238Y-147771904D01*
X176317857Y-147867142D01*
X176365476Y-147914761D01*
X176460714Y-147962380D01*
X176651190Y-147962380D01*
X176746428Y-147914761D01*
X175460714Y-147914761D02*
X175555952Y-147962380D01*
X175746428Y-147962380D01*
X175841666Y-147914761D01*
X175889285Y-147819523D01*
X175889285Y-147438571D01*
X175841666Y-147343333D01*
X175746428Y-147295714D01*
X175555952Y-147295714D01*
X175460714Y-147343333D01*
X175413095Y-147438571D01*
X175413095Y-147533809D01*
X175889285Y-147629047D01*
X174270238Y-147914761D02*
X174175000Y-147962380D01*
X173984523Y-147962380D01*
X173889285Y-147914761D01*
X173841666Y-147819523D01*
X173841666Y-147771904D01*
X173889285Y-147676666D01*
X173984523Y-147629047D01*
X174127380Y-147629047D01*
X174222619Y-147581428D01*
X174270238Y-147486190D01*
X174270238Y-147438571D01*
X174222619Y-147343333D01*
X174127380Y-147295714D01*
X173984523Y-147295714D01*
X173889285Y-147343333D01*
X172984523Y-147962380D02*
X172984523Y-147438571D01*
X173032142Y-147343333D01*
X173127380Y-147295714D01*
X173317857Y-147295714D01*
X173413095Y-147343333D01*
X172984523Y-147914761D02*
X173079761Y-147962380D01*
X173317857Y-147962380D01*
X173413095Y-147914761D01*
X173460714Y-147819523D01*
X173460714Y-147724285D01*
X173413095Y-147629047D01*
X173317857Y-147581428D01*
X173079761Y-147581428D01*
X172984523Y-147533809D01*
X172651190Y-147295714D02*
X172270238Y-147295714D01*
X172508333Y-147962380D02*
X172508333Y-147105238D01*
X172460714Y-147010000D01*
X172365476Y-146962380D01*
X172270238Y-146962380D01*
X171555952Y-147914761D02*
X171651190Y-147962380D01*
X171841666Y-147962380D01*
X171936904Y-147914761D01*
X171984523Y-147819523D01*
X171984523Y-147438571D01*
X171936904Y-147343333D01*
X171841666Y-147295714D01*
X171651190Y-147295714D01*
X171555952Y-147343333D01*
X171508333Y-147438571D01*
X171508333Y-147533809D01*
X171984523Y-147629047D01*
X171079761Y-147867142D02*
X171032142Y-147914761D01*
X171079761Y-147962380D01*
X171127380Y-147914761D01*
X171079761Y-147867142D01*
X171079761Y-147962380D01*
X212389285Y-149612380D02*
X212722619Y-149136190D01*
X212960714Y-149612380D02*
X212960714Y-148612380D01*
X212579761Y-148612380D01*
X212484523Y-148660000D01*
X212436904Y-148707619D01*
X212389285Y-148802857D01*
X212389285Y-148945714D01*
X212436904Y-149040952D01*
X212484523Y-149088571D01*
X212579761Y-149136190D01*
X212960714Y-149136190D01*
X211960714Y-149612380D02*
X211960714Y-148945714D01*
X211960714Y-148612380D02*
X212008333Y-148660000D01*
X211960714Y-148707619D01*
X211913095Y-148660000D01*
X211960714Y-148612380D01*
X211960714Y-148707619D01*
X211532142Y-149564761D02*
X211436904Y-149612380D01*
X211246428Y-149612380D01*
X211151190Y-149564761D01*
X211103571Y-149469523D01*
X211103571Y-149421904D01*
X211151190Y-149326666D01*
X211246428Y-149279047D01*
X211389285Y-149279047D01*
X211484523Y-149231428D01*
X211532142Y-149136190D01*
X211532142Y-149088571D01*
X211484523Y-148993333D01*
X211389285Y-148945714D01*
X211246428Y-148945714D01*
X211151190Y-148993333D01*
X210675000Y-149612380D02*
X210675000Y-148612380D01*
X210579761Y-149231428D02*
X210294047Y-149612380D01*
X210294047Y-148945714D02*
X210675000Y-149326666D01*
X208960714Y-149612380D02*
X209055952Y-149564761D01*
X209103571Y-149517142D01*
X209151190Y-149421904D01*
X209151190Y-149136190D01*
X209103571Y-149040952D01*
X209055952Y-148993333D01*
X208960714Y-148945714D01*
X208817857Y-148945714D01*
X208722619Y-148993333D01*
X208675000Y-149040952D01*
X208627380Y-149136190D01*
X208627380Y-149421904D01*
X208675000Y-149517142D01*
X208722619Y-149564761D01*
X208817857Y-149612380D01*
X208960714Y-149612380D01*
X208341666Y-148945714D02*
X207960714Y-148945714D01*
X208198809Y-149612380D02*
X208198809Y-148755238D01*
X208151190Y-148660000D01*
X208055952Y-148612380D01*
X207960714Y-148612380D01*
X206865476Y-149612380D02*
X206865476Y-148612380D01*
X206436904Y-149612380D02*
X206436904Y-149088571D01*
X206484523Y-148993333D01*
X206579761Y-148945714D01*
X206722619Y-148945714D01*
X206817857Y-148993333D01*
X206865476Y-149040952D01*
X205532142Y-149612380D02*
X205532142Y-149088571D01*
X205579761Y-148993333D01*
X205675000Y-148945714D01*
X205865476Y-148945714D01*
X205960714Y-148993333D01*
X205532142Y-149564761D02*
X205627380Y-149612380D01*
X205865476Y-149612380D01*
X205960714Y-149564761D01*
X206008333Y-149469523D01*
X206008333Y-149374285D01*
X205960714Y-149279047D01*
X205865476Y-149231428D01*
X205627380Y-149231428D01*
X205532142Y-149183809D01*
X205055952Y-149612380D02*
X205055952Y-148945714D01*
X205055952Y-149136190D02*
X205008333Y-149040952D01*
X204960714Y-148993333D01*
X204865476Y-148945714D01*
X204770238Y-148945714D01*
X204436904Y-149612380D02*
X204436904Y-148945714D01*
X204436904Y-149040952D02*
X204389285Y-148993333D01*
X204294047Y-148945714D01*
X204151190Y-148945714D01*
X204055952Y-148993333D01*
X204008333Y-149088571D01*
X204008333Y-149612380D01*
X204008333Y-149088571D02*
X203960714Y-148993333D01*
X203865476Y-148945714D01*
X203722619Y-148945714D01*
X203627380Y-148993333D01*
X203579761Y-149088571D01*
X203579761Y-149612380D01*
X202484523Y-148945714D02*
X202103571Y-148945714D01*
X202341666Y-148612380D02*
X202341666Y-149469523D01*
X202294047Y-149564761D01*
X202198809Y-149612380D01*
X202103571Y-149612380D01*
X201627380Y-149612380D02*
X201722619Y-149564761D01*
X201770238Y-149517142D01*
X201817857Y-149421904D01*
X201817857Y-149136190D01*
X201770238Y-149040952D01*
X201722619Y-148993333D01*
X201627380Y-148945714D01*
X201484523Y-148945714D01*
X201389285Y-148993333D01*
X201341666Y-149040952D01*
X201294047Y-149136190D01*
X201294047Y-149421904D01*
X201341666Y-149517142D01*
X201389285Y-149564761D01*
X201484523Y-149612380D01*
X201627380Y-149612380D01*
X200198809Y-148945714D02*
X199960714Y-149612380D01*
X199722619Y-148945714D02*
X199960714Y-149612380D01*
X200055952Y-149850476D01*
X200103571Y-149898095D01*
X200198809Y-149945714D01*
X199198809Y-149612380D02*
X199294047Y-149564761D01*
X199341666Y-149517142D01*
X199389285Y-149421904D01*
X199389285Y-149136190D01*
X199341666Y-149040952D01*
X199294047Y-148993333D01*
X199198809Y-148945714D01*
X199055952Y-148945714D01*
X198960714Y-148993333D01*
X198913095Y-149040952D01*
X198865476Y-149136190D01*
X198865476Y-149421904D01*
X198913095Y-149517142D01*
X198960714Y-149564761D01*
X199055952Y-149612380D01*
X199198809Y-149612380D01*
X198008333Y-148945714D02*
X198008333Y-149612380D01*
X198436904Y-148945714D02*
X198436904Y-149469523D01*
X198389285Y-149564761D01*
X198294047Y-149612380D01*
X198151190Y-149612380D01*
X198055952Y-149564761D01*
X198008333Y-149517142D01*
X197532142Y-149612380D02*
X197532142Y-148945714D01*
X197532142Y-149136190D02*
X197484523Y-149040952D01*
X197436904Y-148993333D01*
X197341666Y-148945714D01*
X197246428Y-148945714D01*
X196198809Y-149564761D02*
X196103571Y-149612380D01*
X195913095Y-149612380D01*
X195817857Y-149564761D01*
X195770238Y-149469523D01*
X195770238Y-149421904D01*
X195817857Y-149326666D01*
X195913095Y-149279047D01*
X196055952Y-149279047D01*
X196151190Y-149231428D01*
X196198809Y-149136190D01*
X196198809Y-149088571D01*
X196151190Y-148993333D01*
X196055952Y-148945714D01*
X195913095Y-148945714D01*
X195817857Y-148993333D01*
X195436904Y-148945714D02*
X195198809Y-149612380D01*
X194960714Y-148945714D02*
X195198809Y-149612380D01*
X195294047Y-149850476D01*
X195341666Y-149898095D01*
X195436904Y-149945714D01*
X194627380Y-149564761D02*
X194532142Y-149612380D01*
X194341666Y-149612380D01*
X194246428Y-149564761D01*
X194198809Y-149469523D01*
X194198809Y-149421904D01*
X194246428Y-149326666D01*
X194341666Y-149279047D01*
X194484523Y-149279047D01*
X194579761Y-149231428D01*
X194627380Y-149136190D01*
X194627380Y-149088571D01*
X194579761Y-148993333D01*
X194484523Y-148945714D01*
X194341666Y-148945714D01*
X194246428Y-148993333D01*
X193913095Y-148945714D02*
X193532142Y-148945714D01*
X193770238Y-148612380D02*
X193770238Y-149469523D01*
X193722619Y-149564761D01*
X193627380Y-149612380D01*
X193532142Y-149612380D01*
X192817857Y-149564761D02*
X192913095Y-149612380D01*
X193103571Y-149612380D01*
X193198809Y-149564761D01*
X193246428Y-149469523D01*
X193246428Y-149088571D01*
X193198809Y-148993333D01*
X193103571Y-148945714D01*
X192913095Y-148945714D01*
X192817857Y-148993333D01*
X192770238Y-149088571D01*
X192770238Y-149183809D01*
X193246428Y-149279047D01*
X192341666Y-149612380D02*
X192341666Y-148945714D01*
X192341666Y-149040952D02*
X192294047Y-148993333D01*
X192198809Y-148945714D01*
X192055952Y-148945714D01*
X191960714Y-148993333D01*
X191913095Y-149088571D01*
X191913095Y-149612380D01*
X191913095Y-149088571D02*
X191865476Y-148993333D01*
X191770238Y-148945714D01*
X191627380Y-148945714D01*
X191532142Y-148993333D01*
X191484523Y-149088571D01*
X191484523Y-149612380D01*
X190246428Y-149612380D02*
X190246428Y-148945714D01*
X190246428Y-148612380D02*
X190294047Y-148660000D01*
X190246428Y-148707619D01*
X190198809Y-148660000D01*
X190246428Y-148612380D01*
X190246428Y-148707619D01*
X189913095Y-148945714D02*
X189532142Y-148945714D01*
X189770238Y-149612380D02*
X189770238Y-148755238D01*
X189722619Y-148660000D01*
X189627380Y-148612380D01*
X189532142Y-148612380D01*
X188436904Y-148945714D02*
X188436904Y-149612380D01*
X188436904Y-149040952D02*
X188389285Y-148993333D01*
X188294047Y-148945714D01*
X188151190Y-148945714D01*
X188055952Y-148993333D01*
X188008333Y-149088571D01*
X188008333Y-149612380D01*
X187389285Y-149612380D02*
X187484523Y-149564761D01*
X187532142Y-149517142D01*
X187579761Y-149421904D01*
X187579761Y-149136190D01*
X187532142Y-149040952D01*
X187484523Y-148993333D01*
X187389285Y-148945714D01*
X187246428Y-148945714D01*
X187151190Y-148993333D01*
X187103571Y-149040952D01*
X187055952Y-149136190D01*
X187055952Y-149421904D01*
X187103571Y-149517142D01*
X187151190Y-149564761D01*
X187246428Y-149612380D01*
X187389285Y-149612380D01*
X186770238Y-148945714D02*
X186389285Y-148945714D01*
X186627380Y-148612380D02*
X186627380Y-149469523D01*
X186579761Y-149564761D01*
X186484523Y-149612380D01*
X186389285Y-149612380D01*
X184865476Y-149612380D02*
X184865476Y-148612380D01*
X184865476Y-149564761D02*
X184960714Y-149612380D01*
X185151190Y-149612380D01*
X185246428Y-149564761D01*
X185294047Y-149517142D01*
X185341666Y-149421904D01*
X185341666Y-149136190D01*
X185294047Y-149040952D01*
X185246428Y-148993333D01*
X185151190Y-148945714D01*
X184960714Y-148945714D01*
X184865476Y-148993333D01*
X184246428Y-149612380D02*
X184341666Y-149564761D01*
X184389285Y-149517142D01*
X184436904Y-149421904D01*
X184436904Y-149136190D01*
X184389285Y-149040952D01*
X184341666Y-148993333D01*
X184246428Y-148945714D01*
X184103571Y-148945714D01*
X184008333Y-148993333D01*
X183960714Y-149040952D01*
X183913095Y-149136190D01*
X183913095Y-149421904D01*
X183960714Y-149517142D01*
X184008333Y-149564761D01*
X184103571Y-149612380D01*
X184246428Y-149612380D01*
X183484523Y-148945714D02*
X183484523Y-149612380D01*
X183484523Y-149040952D02*
X183436904Y-148993333D01*
X183341666Y-148945714D01*
X183198809Y-148945714D01*
X183103571Y-148993333D01*
X183055952Y-149088571D01*
X183055952Y-149612380D01*
X182198809Y-149564761D02*
X182294047Y-149612380D01*
X182484523Y-149612380D01*
X182579761Y-149564761D01*
X182627380Y-149469523D01*
X182627380Y-149088571D01*
X182579761Y-148993333D01*
X182484523Y-148945714D01*
X182294047Y-148945714D01*
X182198809Y-148993333D01*
X182151190Y-149088571D01*
X182151190Y-149183809D01*
X182627380Y-149279047D01*
X180532142Y-149564761D02*
X180627380Y-149612380D01*
X180817857Y-149612380D01*
X180913095Y-149564761D01*
X180960714Y-149517142D01*
X181008333Y-149421904D01*
X181008333Y-149136190D01*
X180960714Y-149040952D01*
X180913095Y-148993333D01*
X180817857Y-148945714D01*
X180627380Y-148945714D01*
X180532142Y-148993333D01*
X179960714Y-149612380D02*
X180055952Y-149564761D01*
X180103571Y-149517142D01*
X180151190Y-149421904D01*
X180151190Y-149136190D01*
X180103571Y-149040952D01*
X180055952Y-148993333D01*
X179960714Y-148945714D01*
X179817857Y-148945714D01*
X179722619Y-148993333D01*
X179675000Y-149040952D01*
X179627380Y-149136190D01*
X179627380Y-149421904D01*
X179675000Y-149517142D01*
X179722619Y-149564761D01*
X179817857Y-149612380D01*
X179960714Y-149612380D01*
X179198809Y-149612380D02*
X179198809Y-148945714D01*
X179198809Y-149136190D02*
X179151190Y-149040952D01*
X179103571Y-148993333D01*
X179008333Y-148945714D01*
X178913095Y-148945714D01*
X178579761Y-149612380D02*
X178579761Y-148945714D01*
X178579761Y-149136190D02*
X178532142Y-149040952D01*
X178484523Y-148993333D01*
X178389285Y-148945714D01*
X178294047Y-148945714D01*
X177579761Y-149564761D02*
X177675000Y-149612380D01*
X177865476Y-149612380D01*
X177960714Y-149564761D01*
X178008333Y-149469523D01*
X178008333Y-149088571D01*
X177960714Y-148993333D01*
X177865476Y-148945714D01*
X177675000Y-148945714D01*
X177579761Y-148993333D01*
X177532142Y-149088571D01*
X177532142Y-149183809D01*
X178008333Y-149279047D01*
X176675000Y-149564761D02*
X176770238Y-149612380D01*
X176960714Y-149612380D01*
X177055952Y-149564761D01*
X177103571Y-149517142D01*
X177151190Y-149421904D01*
X177151190Y-149136190D01*
X177103571Y-149040952D01*
X177055952Y-148993333D01*
X176960714Y-148945714D01*
X176770238Y-148945714D01*
X176675000Y-148993333D01*
X176389285Y-148945714D02*
X176008333Y-148945714D01*
X176246428Y-148612380D02*
X176246428Y-149469523D01*
X176198809Y-149564761D01*
X176103571Y-149612380D01*
X176008333Y-149612380D01*
X175532142Y-149612380D02*
X175627380Y-149564761D01*
X175675000Y-149469523D01*
X175675000Y-148612380D01*
X175246428Y-148945714D02*
X175008333Y-149612380D01*
X174770238Y-148945714D02*
X175008333Y-149612380D01*
X175103571Y-149850476D01*
X175151190Y-149898095D01*
X175246428Y-149945714D01*
X174389285Y-149517142D02*
X174341666Y-149564761D01*
X174389285Y-149612380D01*
X174436904Y-149564761D01*
X174389285Y-149517142D01*
X174389285Y-149612380D01*
D12*
X161607380Y-89223809D02*
X161493095Y-89261904D01*
X161302619Y-89261904D01*
X161226428Y-89223809D01*
X161188333Y-89185714D01*
X161150238Y-89109523D01*
X161150238Y-89033333D01*
X161188333Y-88957142D01*
X161226428Y-88919047D01*
X161302619Y-88880952D01*
X161455000Y-88842857D01*
X161531190Y-88804761D01*
X161569285Y-88766666D01*
X161607380Y-88690476D01*
X161607380Y-88614285D01*
X161569285Y-88538095D01*
X161531190Y-88500000D01*
X161455000Y-88461904D01*
X161264523Y-88461904D01*
X161150238Y-88500000D01*
X160655000Y-88880952D02*
X160655000Y-89261904D01*
X160921666Y-88461904D02*
X160655000Y-88880952D01*
X160388333Y-88461904D01*
X160159761Y-89223809D02*
X160045476Y-89261904D01*
X159855000Y-89261904D01*
X159778809Y-89223809D01*
X159740714Y-89185714D01*
X159702619Y-89109523D01*
X159702619Y-89033333D01*
X159740714Y-88957142D01*
X159778809Y-88919047D01*
X159855000Y-88880952D01*
X160007380Y-88842857D01*
X160083571Y-88804761D01*
X160121666Y-88766666D01*
X160159761Y-88690476D01*
X160159761Y-88614285D01*
X160121666Y-88538095D01*
X160083571Y-88500000D01*
X160007380Y-88461904D01*
X159816904Y-88461904D01*
X159702619Y-88500000D01*
X154101666Y-89261904D02*
X154101666Y-88461904D01*
X153796904Y-88461904D01*
X153720714Y-88500000D01*
X153682619Y-88538095D01*
X153644523Y-88614285D01*
X153644523Y-88728571D01*
X153682619Y-88804761D01*
X153720714Y-88842857D01*
X153796904Y-88880952D01*
X154101666Y-88880952D01*
X153377857Y-88461904D02*
X153187380Y-89261904D01*
X153035000Y-88690476D01*
X152882619Y-89261904D01*
X152692142Y-88461904D01*
X151930238Y-89261904D02*
X152196904Y-88880952D01*
X152387380Y-89261904D02*
X152387380Y-88461904D01*
X152082619Y-88461904D01*
X152006428Y-88500000D01*
X151968333Y-88538095D01*
X151930238Y-88614285D01*
X151930238Y-88728571D01*
X151968333Y-88804761D01*
X152006428Y-88842857D01*
X152082619Y-88880952D01*
X152387380Y-88880952D01*
D10*
X229870000Y-84455000D02*
X229870000Y-90805000D01*
X220345000Y-90805000D02*
X215900000Y-90805000D01*
X229870000Y-90805000D02*
X225425000Y-90805000D01*
X215900000Y-90805000D02*
X215900000Y-84455000D01*
X215900000Y-84455000D02*
X229870000Y-84455000D01*
X207010000Y-90805000D02*
X202565000Y-90805000D01*
X207010000Y-84455000D02*
X207010000Y-90805000D01*
X193040000Y-84455000D02*
X207010000Y-84455000D01*
X193040000Y-90805000D02*
X193040000Y-84455000D01*
X197485000Y-90805000D02*
X193040000Y-90805000D01*
D12*
X224904047Y-91166904D02*
X224904047Y-90366904D01*
X224599285Y-90366904D01*
X224523095Y-90405000D01*
X224485000Y-90443095D01*
X224446904Y-90519285D01*
X224446904Y-90633571D01*
X224485000Y-90709761D01*
X224523095Y-90747857D01*
X224599285Y-90785952D01*
X224904047Y-90785952D01*
X223951666Y-90366904D02*
X223799285Y-90366904D01*
X223723095Y-90405000D01*
X223646904Y-90481190D01*
X223608809Y-90633571D01*
X223608809Y-90900238D01*
X223646904Y-91052619D01*
X223723095Y-91128809D01*
X223799285Y-91166904D01*
X223951666Y-91166904D01*
X224027857Y-91128809D01*
X224104047Y-91052619D01*
X224142142Y-90900238D01*
X224142142Y-90633571D01*
X224104047Y-90481190D01*
X224027857Y-90405000D01*
X223951666Y-90366904D01*
X222808809Y-91166904D02*
X223075476Y-90785952D01*
X223265952Y-91166904D02*
X223265952Y-90366904D01*
X222961190Y-90366904D01*
X222885000Y-90405000D01*
X222846904Y-90443095D01*
X222808809Y-90519285D01*
X222808809Y-90633571D01*
X222846904Y-90709761D01*
X222885000Y-90747857D01*
X222961190Y-90785952D01*
X223265952Y-90785952D01*
X222580238Y-90366904D02*
X222123095Y-90366904D01*
X222351666Y-91166904D02*
X222351666Y-90366904D01*
X221285000Y-90443095D02*
X221246904Y-90405000D01*
X221170714Y-90366904D01*
X220980238Y-90366904D01*
X220904047Y-90405000D01*
X220865952Y-90443095D01*
X220827857Y-90519285D01*
X220827857Y-90595476D01*
X220865952Y-90709761D01*
X221323095Y-91166904D01*
X220827857Y-91166904D01*
X202044047Y-91166904D02*
X202044047Y-90366904D01*
X201739285Y-90366904D01*
X201663095Y-90405000D01*
X201625000Y-90443095D01*
X201586904Y-90519285D01*
X201586904Y-90633571D01*
X201625000Y-90709761D01*
X201663095Y-90747857D01*
X201739285Y-90785952D01*
X202044047Y-90785952D01*
X201091666Y-90366904D02*
X200939285Y-90366904D01*
X200863095Y-90405000D01*
X200786904Y-90481190D01*
X200748809Y-90633571D01*
X200748809Y-90900238D01*
X200786904Y-91052619D01*
X200863095Y-91128809D01*
X200939285Y-91166904D01*
X201091666Y-91166904D01*
X201167857Y-91128809D01*
X201244047Y-91052619D01*
X201282142Y-90900238D01*
X201282142Y-90633571D01*
X201244047Y-90481190D01*
X201167857Y-90405000D01*
X201091666Y-90366904D01*
X199948809Y-91166904D02*
X200215476Y-90785952D01*
X200405952Y-91166904D02*
X200405952Y-90366904D01*
X200101190Y-90366904D01*
X200025000Y-90405000D01*
X199986904Y-90443095D01*
X199948809Y-90519285D01*
X199948809Y-90633571D01*
X199986904Y-90709761D01*
X200025000Y-90747857D01*
X200101190Y-90785952D01*
X200405952Y-90785952D01*
X199720238Y-90366904D02*
X199263095Y-90366904D01*
X199491666Y-91166904D02*
X199491666Y-90366904D01*
X197967857Y-91166904D02*
X198425000Y-91166904D01*
X198196428Y-91166904D02*
X198196428Y-90366904D01*
X198272619Y-90481190D01*
X198348809Y-90557380D01*
X198425000Y-90595476D01*
X188926904Y-120142380D02*
X188126904Y-120142380D01*
X188126904Y-120332857D01*
X188165000Y-120447142D01*
X188241190Y-120523333D01*
X188317380Y-120561428D01*
X188469761Y-120599523D01*
X188584047Y-120599523D01*
X188736428Y-120561428D01*
X188812619Y-120523333D01*
X188888809Y-120447142D01*
X188926904Y-120332857D01*
X188926904Y-120142380D01*
X188888809Y-121247142D02*
X188926904Y-121170952D01*
X188926904Y-121018571D01*
X188888809Y-120942380D01*
X188812619Y-120904285D01*
X188507857Y-120904285D01*
X188431666Y-120942380D01*
X188393571Y-121018571D01*
X188393571Y-121170952D01*
X188431666Y-121247142D01*
X188507857Y-121285238D01*
X188584047Y-121285238D01*
X188660238Y-120904285D01*
X188393571Y-121513809D02*
X188393571Y-121818571D01*
X188926904Y-121628095D02*
X188241190Y-121628095D01*
X188165000Y-121666190D01*
X188126904Y-121742380D01*
X188126904Y-121818571D01*
X188926904Y-122428095D02*
X188507857Y-122428095D01*
X188431666Y-122390000D01*
X188393571Y-122313809D01*
X188393571Y-122161428D01*
X188431666Y-122085238D01*
X188888809Y-122428095D02*
X188926904Y-122351904D01*
X188926904Y-122161428D01*
X188888809Y-122085238D01*
X188812619Y-122047142D01*
X188736428Y-122047142D01*
X188660238Y-122085238D01*
X188622142Y-122161428D01*
X188622142Y-122351904D01*
X188584047Y-122428095D01*
X188393571Y-123151904D02*
X188926904Y-123151904D01*
X188393571Y-122809047D02*
X188812619Y-122809047D01*
X188888809Y-122847142D01*
X188926904Y-122923333D01*
X188926904Y-123037619D01*
X188888809Y-123113809D01*
X188850714Y-123151904D01*
X188926904Y-123647142D02*
X188888809Y-123570952D01*
X188812619Y-123532857D01*
X188126904Y-123532857D01*
X188393571Y-123837619D02*
X188393571Y-124142380D01*
X188126904Y-123951904D02*
X188812619Y-123951904D01*
X188888809Y-123990000D01*
X188926904Y-124066190D01*
X188926904Y-124142380D01*
X188507857Y-125285238D02*
X188507857Y-125018571D01*
X188926904Y-125018571D02*
X188126904Y-125018571D01*
X188126904Y-125399523D01*
X188126904Y-125628095D02*
X188926904Y-125818571D01*
X188355476Y-125970952D01*
X188926904Y-126123333D01*
X188126904Y-126313809D01*
X190531666Y-119570952D02*
X190493571Y-119532857D01*
X190379285Y-119456666D01*
X190303095Y-119418571D01*
X190188809Y-119380476D01*
X189998333Y-119342380D01*
X189845952Y-119342380D01*
X189655476Y-119380476D01*
X189541190Y-119418571D01*
X189465000Y-119456666D01*
X189350714Y-119532857D01*
X189312619Y-119570952D01*
X189807857Y-120142380D02*
X189807857Y-119875714D01*
X190226904Y-119875714D02*
X189426904Y-119875714D01*
X189426904Y-120256666D01*
X190226904Y-120561428D02*
X189426904Y-120561428D01*
X190226904Y-121399523D02*
X189845952Y-121132857D01*
X190226904Y-120942380D02*
X189426904Y-120942380D01*
X189426904Y-121247142D01*
X189465000Y-121323333D01*
X189503095Y-121361428D01*
X189579285Y-121399523D01*
X189693571Y-121399523D01*
X189769761Y-121361428D01*
X189807857Y-121323333D01*
X189845952Y-121247142D01*
X189845952Y-120942380D01*
X189807857Y-121742380D02*
X189807857Y-122009047D01*
X190226904Y-122123333D02*
X190226904Y-121742380D01*
X189426904Y-121742380D01*
X189426904Y-122123333D01*
X190226904Y-122885238D02*
X190226904Y-122428095D01*
X190226904Y-122656666D02*
X189426904Y-122656666D01*
X189541190Y-122580476D01*
X189617380Y-122504285D01*
X189655476Y-122428095D01*
X189388809Y-123799523D02*
X190417380Y-123113809D01*
X189807857Y-124332857D02*
X189807857Y-124066190D01*
X190226904Y-124066190D02*
X189426904Y-124066190D01*
X189426904Y-124447142D01*
X190226904Y-124751904D02*
X189426904Y-124751904D01*
X190226904Y-125589999D02*
X189845952Y-125323333D01*
X190226904Y-125132857D02*
X189426904Y-125132857D01*
X189426904Y-125437619D01*
X189465000Y-125513809D01*
X189503095Y-125551904D01*
X189579285Y-125589999D01*
X189693571Y-125589999D01*
X189769761Y-125551904D01*
X189807857Y-125513809D01*
X189845952Y-125437619D01*
X189845952Y-125132857D01*
X189807857Y-125932857D02*
X189807857Y-126199523D01*
X190226904Y-126313809D02*
X190226904Y-125932857D01*
X189426904Y-125932857D01*
X189426904Y-126313809D01*
X189503095Y-126618571D02*
X189465000Y-126656666D01*
X189426904Y-126732857D01*
X189426904Y-126923333D01*
X189465000Y-126999523D01*
X189503095Y-127037619D01*
X189579285Y-127075714D01*
X189655476Y-127075714D01*
X189769761Y-127037619D01*
X190226904Y-126580476D01*
X190226904Y-127075714D01*
X190993571Y-118942380D02*
X191526904Y-119094761D01*
X191145952Y-119247142D01*
X191526904Y-119399523D01*
X190993571Y-119551904D01*
X191526904Y-119856666D02*
X190993571Y-119856666D01*
X190726904Y-119856666D02*
X190765000Y-119818571D01*
X190803095Y-119856666D01*
X190765000Y-119894761D01*
X190726904Y-119856666D01*
X190803095Y-119856666D01*
X191526904Y-120237619D02*
X190993571Y-120237619D01*
X191145952Y-120237619D02*
X191069761Y-120275714D01*
X191031666Y-120313809D01*
X190993571Y-120390000D01*
X190993571Y-120466190D01*
X191488809Y-121037619D02*
X191526904Y-120961428D01*
X191526904Y-120809047D01*
X191488809Y-120732857D01*
X191412619Y-120694761D01*
X191107857Y-120694761D01*
X191031666Y-120732857D01*
X190993571Y-120809047D01*
X190993571Y-120961428D01*
X191031666Y-121037619D01*
X191107857Y-121075714D01*
X191184047Y-121075714D01*
X191260238Y-120694761D01*
X191526904Y-121761428D02*
X190726904Y-121761428D01*
X191488809Y-121761428D02*
X191526904Y-121685238D01*
X191526904Y-121532857D01*
X191488809Y-121456666D01*
X191450714Y-121418571D01*
X191374523Y-121380476D01*
X191145952Y-121380476D01*
X191069761Y-121418571D01*
X191031666Y-121456666D01*
X190993571Y-121532857D01*
X190993571Y-121685238D01*
X191031666Y-121761428D01*
X191526904Y-123094761D02*
X190726904Y-123094761D01*
X191488809Y-123094761D02*
X191526904Y-123018571D01*
X191526904Y-122866190D01*
X191488809Y-122790000D01*
X191450714Y-122751904D01*
X191374523Y-122713809D01*
X191145952Y-122713809D01*
X191069761Y-122751904D01*
X191031666Y-122790000D01*
X190993571Y-122866190D01*
X190993571Y-123018571D01*
X191031666Y-123094761D01*
X191526904Y-123475714D02*
X190993571Y-123475714D01*
X190726904Y-123475714D02*
X190765000Y-123437619D01*
X190803095Y-123475714D01*
X190765000Y-123513809D01*
X190726904Y-123475714D01*
X190803095Y-123475714D01*
X191526904Y-123856666D02*
X190993571Y-123856666D01*
X191145952Y-123856666D02*
X191069761Y-123894761D01*
X191031666Y-123932857D01*
X190993571Y-124009047D01*
X190993571Y-124085238D01*
X191488809Y-124656666D02*
X191526904Y-124580476D01*
X191526904Y-124428095D01*
X191488809Y-124351904D01*
X191412619Y-124313809D01*
X191107857Y-124313809D01*
X191031666Y-124351904D01*
X190993571Y-124428095D01*
X190993571Y-124580476D01*
X191031666Y-124656666D01*
X191107857Y-124694761D01*
X191184047Y-124694761D01*
X191260238Y-124313809D01*
X191488809Y-125380476D02*
X191526904Y-125304285D01*
X191526904Y-125151904D01*
X191488809Y-125075714D01*
X191450714Y-125037619D01*
X191374523Y-124999523D01*
X191145952Y-124999523D01*
X191069761Y-125037619D01*
X191031666Y-125075714D01*
X190993571Y-125151904D01*
X190993571Y-125304285D01*
X191031666Y-125380476D01*
X190993571Y-125609047D02*
X190993571Y-125913809D01*
X190726904Y-125723333D02*
X191412619Y-125723333D01*
X191488809Y-125761428D01*
X191526904Y-125837619D01*
X191526904Y-125913809D01*
X191526904Y-126294761D02*
X191488809Y-126218571D01*
X191412619Y-126180476D01*
X190726904Y-126180476D01*
X190993571Y-126523333D02*
X191526904Y-126713809D01*
X190993571Y-126904285D02*
X191526904Y-126713809D01*
X191717380Y-126637619D01*
X191755476Y-126599523D01*
X191793571Y-126523333D01*
X191831666Y-127132857D02*
X191793571Y-127170952D01*
X191679285Y-127247142D01*
X191603095Y-127285238D01*
X191488809Y-127323333D01*
X191298333Y-127361428D01*
X191145952Y-127361428D01*
X190955476Y-127323333D01*
X190841190Y-127285238D01*
X190765000Y-127247142D01*
X190650714Y-127170952D01*
X190612619Y-127132857D01*
D10*
X187325000Y-123825000D02*
X186055000Y-123825000D01*
X187325000Y-121285000D02*
X187325000Y-123825000D01*
X186055000Y-121285000D02*
X187325000Y-121285000D01*
X183515000Y-125730000D02*
X183515000Y-119380000D01*
X187325000Y-125730000D02*
X183515000Y-125730000D01*
X187325000Y-124460000D02*
X187325000Y-125730000D01*
X187325000Y-119380000D02*
X187325000Y-120650000D01*
X183515000Y-119380000D02*
X187325000Y-119380000D01*
X231140000Y-100965000D02*
X231140000Y-102870000D01*
X234950000Y-95250000D02*
X233045000Y-95250000D01*
X231140000Y-102870000D02*
X233680000Y-102870000D01*
D12*
X236581904Y-118078571D02*
X235781904Y-118078571D01*
X235781904Y-118383333D01*
X235820000Y-118459523D01*
X235858095Y-118497619D01*
X235934285Y-118535714D01*
X236048571Y-118535714D01*
X236124761Y-118497619D01*
X236162857Y-118459523D01*
X236200952Y-118383333D01*
X236200952Y-118078571D01*
X235858095Y-118840476D02*
X235820000Y-118878571D01*
X235781904Y-118954761D01*
X235781904Y-119145238D01*
X235820000Y-119221428D01*
X235858095Y-119259523D01*
X235934285Y-119297619D01*
X236010476Y-119297619D01*
X236124761Y-119259523D01*
X236581904Y-118802380D01*
X236581904Y-119297619D01*
X236162857Y-120516666D02*
X236162857Y-120250000D01*
X236581904Y-120250000D02*
X235781904Y-120250000D01*
X235781904Y-120630952D01*
X236581904Y-120935714D02*
X235781904Y-120935714D01*
X236581904Y-121773809D02*
X236200952Y-121507142D01*
X236581904Y-121316666D02*
X235781904Y-121316666D01*
X235781904Y-121621428D01*
X235820000Y-121697619D01*
X235858095Y-121735714D01*
X235934285Y-121773809D01*
X236048571Y-121773809D01*
X236124761Y-121735714D01*
X236162857Y-121697619D01*
X236200952Y-121621428D01*
X236200952Y-121316666D01*
X236162857Y-122116666D02*
X236162857Y-122383333D01*
X236581904Y-122497619D02*
X236581904Y-122116666D01*
X235781904Y-122116666D01*
X235781904Y-122497619D01*
X235781904Y-122764285D02*
X235781904Y-123259523D01*
X236086666Y-122992857D01*
X236086666Y-123107142D01*
X236124761Y-123183333D01*
X236162857Y-123221428D01*
X236239047Y-123259523D01*
X236429523Y-123259523D01*
X236505714Y-123221428D01*
X236543809Y-123183333D01*
X236581904Y-123107142D01*
X236581904Y-122878571D01*
X236543809Y-122802380D01*
X236505714Y-122764285D01*
D10*
X234950000Y-118110000D02*
X234950000Y-123190000D01*
X234950000Y-118110000D02*
X234315000Y-118110000D01*
X234315000Y-123190000D02*
X234950000Y-123190000D01*
D12*
X230231904Y-115538571D02*
X229431904Y-115538571D01*
X229431904Y-115843333D01*
X229470000Y-115919523D01*
X229508095Y-115957619D01*
X229584285Y-115995714D01*
X229698571Y-115995714D01*
X229774761Y-115957619D01*
X229812857Y-115919523D01*
X229850952Y-115843333D01*
X229850952Y-115538571D01*
X230231904Y-116757619D02*
X230231904Y-116300476D01*
X230231904Y-116529047D02*
X229431904Y-116529047D01*
X229546190Y-116452857D01*
X229622380Y-116376666D01*
X229660476Y-116300476D01*
X229812857Y-117976666D02*
X229812857Y-117710000D01*
X230231904Y-117710000D02*
X229431904Y-117710000D01*
X229431904Y-118090952D01*
X230231904Y-118395714D02*
X229431904Y-118395714D01*
X230231904Y-119233809D02*
X229850952Y-118967142D01*
X230231904Y-118776666D02*
X229431904Y-118776666D01*
X229431904Y-119081428D01*
X229470000Y-119157619D01*
X229508095Y-119195714D01*
X229584285Y-119233809D01*
X229698571Y-119233809D01*
X229774761Y-119195714D01*
X229812857Y-119157619D01*
X229850952Y-119081428D01*
X229850952Y-118776666D01*
X229812857Y-119576666D02*
X229812857Y-119843333D01*
X230231904Y-119957619D02*
X230231904Y-119576666D01*
X229431904Y-119576666D01*
X229431904Y-119957619D01*
X230231904Y-120719523D02*
X230231904Y-120262380D01*
X230231904Y-120490952D02*
X229431904Y-120490952D01*
X229546190Y-120414761D01*
X229622380Y-120338571D01*
X229660476Y-120262380D01*
X235820000Y-99720476D02*
X235781904Y-99644285D01*
X235781904Y-99530000D01*
X235820000Y-99415714D01*
X235896190Y-99339523D01*
X235972380Y-99301428D01*
X236124761Y-99263333D01*
X236239047Y-99263333D01*
X236391428Y-99301428D01*
X236467619Y-99339523D01*
X236543809Y-99415714D01*
X236581904Y-99530000D01*
X236581904Y-99606190D01*
X236543809Y-99720476D01*
X236505714Y-99758571D01*
X236239047Y-99758571D01*
X236239047Y-99606190D01*
X236581904Y-100101428D02*
X235781904Y-100101428D01*
X236581904Y-100558571D01*
X235781904Y-100558571D01*
X236581904Y-100939523D02*
X235781904Y-100939523D01*
X235781904Y-101130000D01*
X235820000Y-101244285D01*
X235896190Y-101320476D01*
X235972380Y-101358571D01*
X236124761Y-101396666D01*
X236239047Y-101396666D01*
X236391428Y-101358571D01*
X236467619Y-101320476D01*
X236543809Y-101244285D01*
X236581904Y-101130000D01*
X236581904Y-100939523D01*
D10*
X234950000Y-97790000D02*
X234950000Y-102870000D01*
X234950000Y-97790000D02*
X234315000Y-97790000D01*
X234315000Y-102870000D02*
X234950000Y-102870000D01*
D12*
X229431904Y-96723333D02*
X230231904Y-96990000D01*
X229431904Y-97256666D01*
X230155714Y-97980476D02*
X230193809Y-97942380D01*
X230231904Y-97828095D01*
X230231904Y-97751904D01*
X230193809Y-97637619D01*
X230117619Y-97561428D01*
X230041428Y-97523333D01*
X229889047Y-97485238D01*
X229774761Y-97485238D01*
X229622380Y-97523333D01*
X229546190Y-97561428D01*
X229470000Y-97637619D01*
X229431904Y-97751904D01*
X229431904Y-97828095D01*
X229470000Y-97942380D01*
X229508095Y-97980476D01*
X230155714Y-98780476D02*
X230193809Y-98742380D01*
X230231904Y-98628095D01*
X230231904Y-98551904D01*
X230193809Y-98437619D01*
X230117619Y-98361428D01*
X230041428Y-98323333D01*
X229889047Y-98285238D01*
X229774761Y-98285238D01*
X229622380Y-98323333D01*
X229546190Y-98361428D01*
X229470000Y-98437619D01*
X229431904Y-98551904D01*
X229431904Y-98628095D01*
X229470000Y-98742380D01*
X229508095Y-98780476D01*
D10*
X231775000Y-95250000D02*
X231140000Y-95250000D01*
X231775000Y-100330000D02*
X231140000Y-100330000D01*
X231140000Y-100330000D02*
X231140000Y-95250000D01*
D12*
X235820000Y-109880476D02*
X235781904Y-109804285D01*
X235781904Y-109690000D01*
X235820000Y-109575714D01*
X235896190Y-109499523D01*
X235972380Y-109461428D01*
X236124761Y-109423333D01*
X236239047Y-109423333D01*
X236391428Y-109461428D01*
X236467619Y-109499523D01*
X236543809Y-109575714D01*
X236581904Y-109690000D01*
X236581904Y-109766190D01*
X236543809Y-109880476D01*
X236505714Y-109918571D01*
X236239047Y-109918571D01*
X236239047Y-109766190D01*
X236581904Y-110261428D02*
X235781904Y-110261428D01*
X236581904Y-110718571D01*
X235781904Y-110718571D01*
X236581904Y-111099523D02*
X235781904Y-111099523D01*
X235781904Y-111290000D01*
X235820000Y-111404285D01*
X235896190Y-111480476D01*
X235972380Y-111518571D01*
X236124761Y-111556666D01*
X236239047Y-111556666D01*
X236391428Y-111518571D01*
X236467619Y-111480476D01*
X236543809Y-111404285D01*
X236581904Y-111290000D01*
X236581904Y-111099523D01*
D10*
X234315000Y-113030000D02*
X234950000Y-113030000D01*
X234950000Y-107950000D02*
X234950000Y-113030000D01*
X234950000Y-107950000D02*
X234315000Y-107950000D01*
D12*
X238687857Y-97840952D02*
X238687857Y-97574285D01*
X239106904Y-97574285D02*
X238306904Y-97574285D01*
X238306904Y-97955238D01*
X239106904Y-98260000D02*
X238306904Y-98260000D01*
X239106904Y-99098095D02*
X238725952Y-98831428D01*
X239106904Y-98640952D02*
X238306904Y-98640952D01*
X238306904Y-98945714D01*
X238345000Y-99021904D01*
X238383095Y-99060000D01*
X238459285Y-99098095D01*
X238573571Y-99098095D01*
X238649761Y-99060000D01*
X238687857Y-99021904D01*
X238725952Y-98945714D01*
X238725952Y-98640952D01*
X238687857Y-99440952D02*
X238687857Y-99707619D01*
X239106904Y-99821904D02*
X239106904Y-99440952D01*
X238306904Y-99440952D01*
X238306904Y-99821904D01*
X238383095Y-100126666D02*
X238345000Y-100164761D01*
X238306904Y-100240952D01*
X238306904Y-100431428D01*
X238345000Y-100507619D01*
X238383095Y-100545714D01*
X238459285Y-100583809D01*
X238535476Y-100583809D01*
X238649761Y-100545714D01*
X239106904Y-100088571D01*
X239106904Y-100583809D01*
X240406904Y-96526666D02*
X239606904Y-96526666D01*
X239606904Y-96831428D01*
X239645000Y-96907619D01*
X239683095Y-96945714D01*
X239759285Y-96983809D01*
X239873571Y-96983809D01*
X239949761Y-96945714D01*
X239987857Y-96907619D01*
X240025952Y-96831428D01*
X240025952Y-96526666D01*
X239606904Y-97479047D02*
X239606904Y-97631428D01*
X239645000Y-97707619D01*
X239721190Y-97783809D01*
X239873571Y-97821904D01*
X240140238Y-97821904D01*
X240292619Y-97783809D01*
X240368809Y-97707619D01*
X240406904Y-97631428D01*
X240406904Y-97479047D01*
X240368809Y-97402857D01*
X240292619Y-97326666D01*
X240140238Y-97288571D01*
X239873571Y-97288571D01*
X239721190Y-97326666D01*
X239645000Y-97402857D01*
X239606904Y-97479047D01*
X240406904Y-98545714D02*
X240406904Y-98164761D01*
X239606904Y-98164761D01*
X240178333Y-98774285D02*
X240178333Y-99155238D01*
X240406904Y-98698095D02*
X239606904Y-98964761D01*
X240406904Y-99231428D01*
X240406904Y-99955238D02*
X240025952Y-99688571D01*
X240406904Y-99498095D02*
X239606904Y-99498095D01*
X239606904Y-99802857D01*
X239645000Y-99879047D01*
X239683095Y-99917142D01*
X239759285Y-99955238D01*
X239873571Y-99955238D01*
X239949761Y-99917142D01*
X239987857Y-99879047D01*
X240025952Y-99802857D01*
X240025952Y-99498095D01*
X240406904Y-100298095D02*
X239606904Y-100298095D01*
X239606904Y-100564761D02*
X239606904Y-101021904D01*
X240406904Y-100793333D02*
X239606904Y-100793333D01*
X240025952Y-101440952D02*
X240406904Y-101440952D01*
X239606904Y-101174285D02*
X240025952Y-101440952D01*
X239606904Y-101707619D01*
M02*
