G04 #@! TF.GenerationSoftware,KiCad,Pcbnew,(5.1.5)-3*
G04 #@! TF.CreationDate,2020-12-17T00:53:37+01:00*
G04 #@! TF.ProjectId,C64 Joykey,43363420-4a6f-4796-9b65-792e6b696361,rev?*
G04 #@! TF.SameCoordinates,Original*
G04 #@! TF.FileFunction,Copper,L1,Top*
G04 #@! TF.FilePolarity,Positive*
%FSLAX46Y46*%
G04 Gerber Fmt 4.6, Leading zero omitted, Abs format (unit mm)*
G04 Created by KiCad (PCBNEW (5.1.5)-3) date 2020-12-17 00:53:37*
%MOMM*%
%LPD*%
G04 APERTURE LIST*
%ADD10R,2.000000X1.600000*%
%ADD11O,1.700000X1.700000*%
%ADD12R,1.700000X1.700000*%
%ADD13C,1.700000*%
%ADD14C,2.200000*%
%ADD15C,3.500000*%
%ADD16C,1.800000*%
%ADD17R,1.800000X1.800000*%
%ADD18C,2.000000*%
%ADD19R,1.727200X1.727200*%
%ADD20O,1.727200X1.727200*%
%ADD21C,1.600000*%
%ADD22O,1.600000X1.600000*%
%ADD23O,2.200000X2.200000*%
%ADD24R,2.200000X2.200000*%
%ADD25R,1.600000X1.600000*%
%ADD26C,0.800000*%
%ADD27C,0.250000*%
%ADD28C,0.381000*%
G04 APERTURE END LIST*
D10*
X166370000Y-88265000D03*
X166370000Y-86360000D03*
X166370000Y-84455000D03*
D11*
X181610000Y-127000000D03*
D12*
X181610000Y-124460000D03*
D13*
X172085000Y-114935000D03*
X172085000Y-112395000D03*
X172085000Y-109855000D03*
X172085000Y-107315000D03*
X172085000Y-104775000D03*
X172085000Y-102235000D03*
X172085000Y-99695000D03*
X172085000Y-97155000D03*
X172085000Y-94615000D03*
X172085000Y-92075000D03*
X172085000Y-89535000D03*
X172085000Y-86995000D03*
X169545000Y-89535000D03*
X169545000Y-92075000D03*
X169545000Y-94615000D03*
X169545000Y-97155000D03*
X169545000Y-99695000D03*
X169545000Y-102235000D03*
X169545000Y-104775000D03*
X169545000Y-107315000D03*
X169545000Y-109855000D03*
X169545000Y-112395000D03*
X169545000Y-114935000D03*
X187325000Y-114935000D03*
X187325000Y-112395000D03*
X187325000Y-109855000D03*
X187325000Y-107315000D03*
X187325000Y-104775000D03*
X187325000Y-102235000D03*
X187325000Y-99695000D03*
X187325000Y-97155000D03*
X187325000Y-94615000D03*
X187325000Y-92075000D03*
X187325000Y-89535000D03*
X187325000Y-86995000D03*
X169545000Y-86995000D03*
D14*
X159385000Y-135890000D03*
X153035000Y-138430000D03*
X153035000Y-117475000D03*
X159385000Y-114935000D03*
X159385000Y-93980000D03*
X153035000Y-96520000D03*
X200025000Y-117475000D03*
X206375000Y-114935000D03*
X206375000Y-135890000D03*
X200025000Y-138430000D03*
X179070000Y-138430000D03*
X185420000Y-135890000D03*
X227330000Y-135890000D03*
X220980000Y-138430000D03*
D15*
X144145000Y-154305000D03*
X237490000Y-154305000D03*
X237490000Y-85725000D03*
X144145000Y-85725000D03*
D16*
X153035000Y-84455000D03*
D17*
X153035000Y-86995000D03*
X160655000Y-86995000D03*
D16*
X160655000Y-84455000D03*
D18*
X176680000Y-124460000D03*
X176680000Y-128960000D03*
X170180000Y-124460000D03*
X170180000Y-128960000D03*
D12*
X233045000Y-116840000D03*
D11*
X233045000Y-119380000D03*
X233045000Y-121920000D03*
X233045000Y-111760000D03*
X233045000Y-109220000D03*
D12*
X233045000Y-106680000D03*
D11*
X233045000Y-101600000D03*
X233045000Y-99060000D03*
D12*
X233045000Y-96520000D03*
D19*
X194945000Y-88900000D03*
D20*
X197485000Y-88900000D03*
X200025000Y-88900000D03*
X202565000Y-88900000D03*
X205105000Y-88900000D03*
X194945000Y-86360000D03*
X197485000Y-86360000D03*
X200025000Y-86360000D03*
X202565000Y-86360000D03*
X205105000Y-86360000D03*
X227965000Y-86360000D03*
X225425000Y-86360000D03*
X222885000Y-86360000D03*
X220345000Y-86360000D03*
X217805000Y-86360000D03*
X227965000Y-88900000D03*
X225425000Y-88900000D03*
X222885000Y-88900000D03*
X220345000Y-88900000D03*
D19*
X217805000Y-88900000D03*
D11*
X185420000Y-127000000D03*
D12*
X185420000Y-124460000D03*
D21*
X198755000Y-100965000D03*
D22*
X208915000Y-100965000D03*
X208915000Y-104775000D03*
D21*
X198755000Y-104775000D03*
X144145000Y-90805000D03*
D22*
X144145000Y-100965000D03*
X144145000Y-114300000D03*
D21*
X144145000Y-104140000D03*
D23*
X208915000Y-96520000D03*
D24*
X198755000Y-96520000D03*
D22*
X177165000Y-120015000D03*
D25*
X169545000Y-120015000D03*
D22*
X187325000Y-120015000D03*
D21*
X179705000Y-120015000D03*
D26*
X236220000Y-95885000D03*
X223520030Y-111125000D03*
X189865000Y-108585000D03*
X219075000Y-107950000D03*
X231140000Y-88900000D03*
X236220000Y-101600000D03*
X225425000Y-106045000D03*
X221615000Y-112395000D03*
X220345000Y-107315000D03*
X220345020Y-114935000D03*
X217805000Y-111124982D03*
X226695000Y-103505000D03*
X226695000Y-106045000D03*
X174400000Y-101170000D03*
X154305000Y-107315000D03*
X151765000Y-107315000D03*
X175260000Y-100076000D03*
X175260000Y-112395000D03*
X167005000Y-109855000D03*
X165735000Y-104775000D03*
X170815000Y-111125000D03*
X167005000Y-108585000D03*
X167640000Y-126365000D03*
X165735000Y-126365000D03*
X176276000Y-105410000D03*
X176276000Y-109855000D03*
D27*
X235585000Y-90170000D02*
X230505000Y-90170000D01*
X229235000Y-83820000D02*
X195580000Y-83820000D01*
X229870000Y-89535000D02*
X229870000Y-84455000D01*
X230505000Y-90170000D02*
X229870000Y-89535000D01*
X229870000Y-84455000D02*
X229235000Y-83820000D01*
X236220000Y-90805000D02*
X235585000Y-90170000D01*
X195580000Y-83820000D02*
X194945000Y-84455000D01*
X194945000Y-84455000D02*
X194945000Y-86360000D01*
X236220000Y-95885000D02*
X236220000Y-90805000D01*
X201930000Y-113665000D02*
X205105000Y-116840000D01*
X182880000Y-114300000D02*
X183515000Y-113665000D01*
X205105000Y-116840000D02*
X215900000Y-116840000D01*
X221615000Y-111125000D02*
X222954345Y-111125000D01*
X181610000Y-127000000D02*
X182880000Y-125730000D01*
X183515000Y-113665000D02*
X201930000Y-113665000D01*
X182880000Y-125730000D02*
X182880000Y-114300000D01*
X215900000Y-116840000D02*
X221615000Y-111125000D01*
X222954345Y-111125000D02*
X223520030Y-111125000D01*
D28*
X166370000Y-84455000D02*
X179705000Y-84455000D01*
X233045000Y-106680000D02*
X234315000Y-106680000D01*
X234315000Y-106680000D02*
X234950000Y-106045000D01*
X234950000Y-106045000D02*
X234950000Y-97155000D01*
X234950000Y-95250000D02*
X234950000Y-97155000D01*
X234315000Y-94615000D02*
X234950000Y-95250000D01*
X227965000Y-94615000D02*
X234315000Y-94615000D01*
X192405000Y-94615000D02*
X198331000Y-94615000D01*
X198755000Y-96520000D02*
X198755000Y-94615000D01*
X198331000Y-94615000D02*
X198755000Y-94615000D01*
X198755000Y-94615000D02*
X227965000Y-94615000D01*
X179705000Y-84455000D02*
X189357000Y-84455000D01*
X190373000Y-85471000D02*
X189357000Y-84455000D01*
X190373000Y-94615000D02*
X190373000Y-85471000D01*
X187325000Y-94615000D02*
X190373000Y-94615000D01*
X190373000Y-94615000D02*
X192405000Y-94615000D01*
X234276000Y-116840000D02*
X233045000Y-116840000D01*
X234950000Y-116166000D02*
X234276000Y-116840000D01*
X234950000Y-106045000D02*
X234950000Y-116166000D01*
D27*
X185420000Y-127000000D02*
X186690000Y-127000000D01*
X186690000Y-127000000D02*
X187325000Y-126365000D01*
X189865000Y-108585000D02*
X218440000Y-108585000D01*
X218440000Y-108585000D02*
X219075000Y-107950000D01*
X187325000Y-126365000D02*
X187325000Y-120015000D01*
X236855000Y-88900000D02*
X231140000Y-88900000D01*
X237490000Y-89535000D02*
X236855000Y-88900000D01*
X237490000Y-100965000D02*
X237490000Y-89535000D01*
X236220000Y-101600000D02*
X236855000Y-101600000D01*
X236855000Y-101600000D02*
X237490000Y-100965000D01*
X187325000Y-109855000D02*
X224789994Y-109855000D01*
X224789994Y-109855000D02*
X224790000Y-109855006D01*
X227330000Y-135890000D02*
X225425000Y-133985000D01*
X224790000Y-109855000D02*
X225425000Y-110490000D01*
X224789994Y-109855000D02*
X224790000Y-109855000D01*
X225425000Y-133985000D02*
X225425000Y-110490000D01*
X225425000Y-110490000D02*
X225425000Y-106045000D01*
X204151795Y-117475000D02*
X216535000Y-117475000D01*
X221215001Y-112794999D02*
X221615000Y-112395000D01*
X201611795Y-114935000D02*
X204151795Y-117475000D01*
X216535000Y-117475000D02*
X221215001Y-112794999D01*
X191770000Y-114935000D02*
X201611795Y-114935000D01*
X187325000Y-114935000D02*
X190500000Y-114935000D01*
X190500000Y-114935000D02*
X191770000Y-114935000D01*
X187960000Y-135890000D02*
X188595000Y-135255000D01*
X185420000Y-135890000D02*
X187960000Y-135890000D01*
X188595000Y-135255000D02*
X188595000Y-115570000D01*
X188595000Y-115570000D02*
X189230000Y-114935000D01*
X189230000Y-114935000D02*
X191770000Y-114935000D01*
X184785000Y-106680000D02*
X185420000Y-106045000D01*
X184785000Y-111760000D02*
X184785000Y-106680000D01*
X187325000Y-112395000D02*
X185420000Y-112395000D01*
X185420000Y-112395000D02*
X184785000Y-111760000D01*
X219945001Y-106915001D02*
X220345000Y-107315000D01*
X188595000Y-106045000D02*
X189230000Y-106680000D01*
X185420000Y-106045000D02*
X188595000Y-106045000D01*
X189230000Y-106680000D02*
X219710000Y-106680000D01*
X219710000Y-106680000D02*
X219945001Y-106915001D01*
X206375000Y-128905020D02*
X219945021Y-115334999D01*
X219945021Y-115334999D02*
X220345020Y-114935000D01*
X206375000Y-135890000D02*
X206375000Y-128905020D01*
X207010000Y-112395000D02*
X206375000Y-113030000D01*
X206375000Y-113030000D02*
X206375000Y-114935000D01*
X189865000Y-112395000D02*
X207010000Y-112395000D01*
X186122919Y-107315000D02*
X185487919Y-107950000D01*
X187325000Y-107315000D02*
X186122919Y-107315000D01*
X188595000Y-111125000D02*
X189865000Y-112395000D01*
X185487919Y-107950000D02*
X185487919Y-110557919D01*
X185487919Y-110557919D02*
X186055000Y-111125000D01*
X186055000Y-111125000D02*
X188595000Y-111125000D01*
X207010000Y-112395000D02*
X216535000Y-112395000D01*
X217805000Y-111125000D02*
X217805000Y-111124982D01*
X216535000Y-112395000D02*
X217805000Y-111125000D01*
X226060000Y-100965000D02*
X226695000Y-101600000D01*
X208915000Y-100965000D02*
X226060000Y-100965000D01*
X226695000Y-101600000D02*
X226695000Y-103505000D01*
X226695000Y-106045000D02*
X226695000Y-118745000D01*
X227330000Y-119380000D02*
X233045000Y-119380000D01*
X226695000Y-118745000D02*
X227330000Y-119380000D01*
X229870000Y-108585000D02*
X230505000Y-109220000D01*
X230505000Y-109220000D02*
X233045000Y-109220000D01*
X229235000Y-104775000D02*
X229870000Y-105410000D01*
X229870000Y-105410000D02*
X229870000Y-108585000D01*
X208915000Y-104775000D02*
X229235000Y-104775000D01*
X174400000Y-88675000D02*
X174400000Y-100604315D01*
X173990000Y-88265000D02*
X174400000Y-88675000D01*
X174400000Y-100604315D02*
X174400000Y-101170000D01*
X166370000Y-88265000D02*
X173990000Y-88265000D01*
X169545000Y-89535000D02*
X172085000Y-89535000D01*
X169545000Y-86995000D02*
X172085000Y-86995000D01*
X151765000Y-107315000D02*
X144780000Y-107315000D01*
X144145000Y-107950000D02*
X144145000Y-114300000D01*
X144780000Y-107315000D02*
X144145000Y-107950000D01*
X179705000Y-102235000D02*
X187325000Y-102235000D01*
X178562000Y-103378000D02*
X179705000Y-102235000D01*
X178562000Y-105918000D02*
X178562000Y-103378000D01*
X176784000Y-107696000D02*
X178562000Y-105918000D01*
X154305000Y-107315000D02*
X167005000Y-107315000D01*
X168275000Y-108585000D02*
X173990000Y-108585000D01*
X173990000Y-108585000D02*
X174879000Y-107696000D01*
X167005000Y-107315000D02*
X168275000Y-108585000D01*
X174879000Y-107696000D02*
X176784000Y-107696000D01*
X176680000Y-124460000D02*
X170180000Y-124460000D01*
X175260000Y-93218000D02*
X175260000Y-92710000D01*
X175895000Y-92075000D02*
X187325000Y-92075000D01*
X175260000Y-92710000D02*
X175895000Y-92075000D01*
X175260000Y-100076000D02*
X175260000Y-93218000D01*
X175260000Y-123040000D02*
X175260000Y-112395000D01*
X176680000Y-124460000D02*
X175260000Y-123040000D01*
X151130000Y-84455000D02*
X153035000Y-84455000D01*
X150495000Y-85090000D02*
X151130000Y-84455000D01*
X144145000Y-89535000D02*
X144780000Y-88900000D01*
X144145000Y-90805000D02*
X144145000Y-89535000D01*
X149860000Y-88900000D02*
X150495000Y-88265000D01*
X144780000Y-88900000D02*
X149860000Y-88900000D01*
X150495000Y-88265000D02*
X150495000Y-85090000D01*
X158750000Y-84455000D02*
X160655000Y-84455000D01*
X158115000Y-85090000D02*
X158750000Y-84455000D01*
X144145000Y-104140000D02*
X142875000Y-104140000D01*
X146685000Y-90170000D02*
X157480000Y-90170000D01*
X158115000Y-89535000D02*
X158115000Y-85090000D01*
X142240000Y-103505000D02*
X142240000Y-99060000D01*
X142240000Y-99060000D02*
X142875000Y-98425000D01*
X142875000Y-104140000D02*
X142240000Y-103505000D01*
X157480000Y-90170000D02*
X158115000Y-89535000D01*
X145415000Y-98425000D02*
X146050000Y-97790000D01*
X142875000Y-98425000D02*
X145415000Y-98425000D01*
X146050000Y-97790000D02*
X146050000Y-90805000D01*
X146050000Y-90805000D02*
X146685000Y-90170000D01*
X169545000Y-112395000D02*
X172085000Y-112395000D01*
X169545000Y-109855000D02*
X172085000Y-109855000D01*
X169545000Y-109855000D02*
X167005000Y-109855000D01*
X153035000Y-96520000D02*
X153035000Y-97155000D01*
X153035000Y-97155000D02*
X153670000Y-97790000D01*
X153670000Y-97790000D02*
X153670000Y-103505000D01*
X153670000Y-103505000D02*
X154305000Y-104140000D01*
X165100000Y-104140000D02*
X165735000Y-104775000D01*
X154305000Y-104140000D02*
X165100000Y-104140000D01*
X173990000Y-109855000D02*
X172085000Y-109855000D01*
X175133000Y-108712000D02*
X173990000Y-109855000D01*
X176784000Y-108712000D02*
X175133000Y-108712000D01*
X179324000Y-104521000D02*
X179324000Y-106172000D01*
X197485000Y-103505000D02*
X180340000Y-103505000D01*
X198755000Y-104775000D02*
X197485000Y-103505000D01*
X180340000Y-103505000D02*
X179324000Y-104521000D01*
X179324000Y-106172000D02*
X176784000Y-108712000D01*
X169545000Y-107315000D02*
X172085000Y-107315000D01*
X153670000Y-106045000D02*
X168275000Y-106045000D01*
X168275000Y-106045000D02*
X169545000Y-107315000D01*
X153035000Y-117475000D02*
X153035000Y-106680000D01*
X153035000Y-106680000D02*
X153670000Y-106045000D01*
X179959000Y-100965000D02*
X195580000Y-100965000D01*
X177800000Y-103124000D02*
X179959000Y-100965000D01*
X173990000Y-107315000D02*
X174625000Y-106680000D01*
X172085000Y-107315000D02*
X173990000Y-107315000D01*
X195580000Y-100965000D02*
X198755000Y-100965000D01*
X174625000Y-106680000D02*
X176657000Y-106680000D01*
X176657000Y-106680000D02*
X177800000Y-105537000D01*
X177800000Y-105537000D02*
X177800000Y-103124000D01*
X169545000Y-102235000D02*
X172085000Y-102235000D01*
X159385000Y-95250000D02*
X159385000Y-93980000D01*
X160020000Y-95885000D02*
X159385000Y-95250000D01*
X167005000Y-95885000D02*
X167640000Y-96520000D01*
X167005000Y-95885000D02*
X160020000Y-95885000D01*
X167640000Y-96520000D02*
X167640000Y-101600000D01*
X167640000Y-101600000D02*
X168275000Y-102235000D01*
X168275000Y-102235000D02*
X169545000Y-102235000D01*
X178435000Y-98425000D02*
X232410000Y-98425000D01*
X172085000Y-102235000D02*
X174625000Y-102235000D01*
X232410000Y-98425000D02*
X233045000Y-99060000D01*
X174625000Y-102235000D02*
X178435000Y-98425000D01*
X169545000Y-97155000D02*
X172085000Y-97155000D01*
X166600000Y-111980000D02*
X166600000Y-127810000D01*
X167455000Y-111125000D02*
X166600000Y-111980000D01*
X170815000Y-111125000D02*
X167455000Y-111125000D01*
X160020000Y-131445000D02*
X159385000Y-132080000D01*
X159385000Y-132080000D02*
X159385000Y-135890000D01*
X166600000Y-130580000D02*
X165735000Y-131445000D01*
X166600000Y-127810000D02*
X166600000Y-130580000D01*
X165735000Y-131445000D02*
X160020000Y-131445000D01*
X183515000Y-130810000D02*
X182880000Y-131445000D01*
X182880000Y-131445000D02*
X165735000Y-131445000D01*
X183515000Y-125646000D02*
X183515000Y-130810000D01*
X185420000Y-124460000D02*
X184701000Y-124460000D01*
X184701000Y-124460000D02*
X183515000Y-125646000D01*
X146685000Y-100330000D02*
X146050000Y-100965000D01*
X147320000Y-90805000D02*
X146685000Y-91440000D01*
X163830000Y-90170000D02*
X163195000Y-90805000D01*
X146050000Y-100965000D02*
X144145000Y-100965000D01*
X164465000Y-86360000D02*
X163830000Y-86995000D01*
X166370000Y-86360000D02*
X164465000Y-86360000D01*
X163830000Y-86995000D02*
X163830000Y-90170000D01*
X146685000Y-91440000D02*
X146685000Y-100330000D01*
X163195000Y-90805000D02*
X147320000Y-90805000D01*
X172085000Y-99695000D02*
X169545000Y-99695000D01*
X159385000Y-114935000D02*
X159385000Y-109855000D01*
X160020000Y-109220000D02*
X166370000Y-109220000D01*
X159385000Y-109855000D02*
X160020000Y-109220000D01*
X167005000Y-108585000D02*
X166370000Y-109220000D01*
X181610000Y-124460000D02*
X180510000Y-124460000D01*
X178605000Y-126365000D02*
X167640000Y-126365000D01*
X180510000Y-124460000D02*
X178605000Y-126365000D01*
X165735000Y-126365000D02*
X160020000Y-126365000D01*
X159385000Y-125730000D02*
X159385000Y-121285000D01*
X160020000Y-126365000D02*
X159385000Y-125730000D01*
X159385000Y-121285000D02*
X159385000Y-114935000D01*
X169545000Y-104775000D02*
X172085000Y-104775000D01*
X172085000Y-104775000D02*
X175641000Y-104775000D01*
X175641000Y-104775000D02*
X176276000Y-105410000D01*
X173990000Y-112395000D02*
X173990000Y-118745000D01*
X176276000Y-109855000D02*
X176276000Y-110109000D01*
X176276000Y-110109000D02*
X173990000Y-112395000D01*
X169545000Y-120015000D02*
X173355000Y-120015000D01*
X173990000Y-119380000D02*
X173990000Y-118745000D01*
X173355000Y-120015000D02*
X173990000Y-119380000D01*
X177165000Y-120015000D02*
X179705000Y-120015000D01*
M02*
