G04 #@! TF.GenerationSoftware,KiCad,Pcbnew,(5.1.8)-1*
G04 #@! TF.CreationDate,2021-02-12T22:25:53+01:00*
G04 #@! TF.ProjectId,C64 Joykey,43363420-4a6f-4796-9b65-792e6b696361,rev?*
G04 #@! TF.SameCoordinates,Original*
G04 #@! TF.FileFunction,Legend,Top*
G04 #@! TF.FilePolarity,Positive*
%FSLAX46Y46*%
G04 Gerber Fmt 4.6, Leading zero omitted, Abs format (unit mm)*
G04 Created by KiCad (PCBNEW (5.1.8)-1) date 2021-02-12 22:25:53*
%MOMM*%
%LPD*%
G01*
G04 APERTURE LIST*
%ADD10C,0.150000*%
%ADD11C,0.120000*%
%ADD12C,0.100000*%
G04 APERTURE END LIST*
D10*
X215345000Y-106942380D02*
X214868809Y-106942380D01*
X214868809Y-105942380D01*
X215678333Y-106942380D02*
X215678333Y-106275714D01*
X215678333Y-105942380D02*
X215630714Y-105990000D01*
X215678333Y-106037619D01*
X215725952Y-105990000D01*
X215678333Y-105942380D01*
X215678333Y-106037619D01*
X216583095Y-106894761D02*
X216487857Y-106942380D01*
X216297380Y-106942380D01*
X216202142Y-106894761D01*
X216154523Y-106847142D01*
X216106904Y-106751904D01*
X216106904Y-106466190D01*
X216154523Y-106370952D01*
X216202142Y-106323333D01*
X216297380Y-106275714D01*
X216487857Y-106275714D01*
X216583095Y-106323333D01*
X217392619Y-106894761D02*
X217297380Y-106942380D01*
X217106904Y-106942380D01*
X217011666Y-106894761D01*
X216964047Y-106799523D01*
X216964047Y-106418571D01*
X217011666Y-106323333D01*
X217106904Y-106275714D01*
X217297380Y-106275714D01*
X217392619Y-106323333D01*
X217440238Y-106418571D01*
X217440238Y-106513809D01*
X216964047Y-106609047D01*
X217868809Y-106275714D02*
X217868809Y-106942380D01*
X217868809Y-106370952D02*
X217916428Y-106323333D01*
X218011666Y-106275714D01*
X218154523Y-106275714D01*
X218249761Y-106323333D01*
X218297380Y-106418571D01*
X218297380Y-106942380D01*
X218725952Y-106894761D02*
X218821190Y-106942380D01*
X219011666Y-106942380D01*
X219106904Y-106894761D01*
X219154523Y-106799523D01*
X219154523Y-106751904D01*
X219106904Y-106656666D01*
X219011666Y-106609047D01*
X218868809Y-106609047D01*
X218773571Y-106561428D01*
X218725952Y-106466190D01*
X218725952Y-106418571D01*
X218773571Y-106323333D01*
X218868809Y-106275714D01*
X219011666Y-106275714D01*
X219106904Y-106323333D01*
X219964047Y-106894761D02*
X219868809Y-106942380D01*
X219678333Y-106942380D01*
X219583095Y-106894761D01*
X219535476Y-106799523D01*
X219535476Y-106418571D01*
X219583095Y-106323333D01*
X219678333Y-106275714D01*
X219868809Y-106275714D01*
X219964047Y-106323333D01*
X220011666Y-106418571D01*
X220011666Y-106513809D01*
X219535476Y-106609047D01*
X220868809Y-106942380D02*
X220868809Y-105942380D01*
X220868809Y-106894761D02*
X220773571Y-106942380D01*
X220583095Y-106942380D01*
X220487857Y-106894761D01*
X220440238Y-106847142D01*
X220392619Y-106751904D01*
X220392619Y-106466190D01*
X220440238Y-106370952D01*
X220487857Y-106323333D01*
X220583095Y-106275714D01*
X220773571Y-106275714D01*
X220868809Y-106323333D01*
X222535476Y-106275714D02*
X222535476Y-106942380D01*
X222106904Y-106275714D02*
X222106904Y-106799523D01*
X222154523Y-106894761D01*
X222249761Y-106942380D01*
X222392619Y-106942380D01*
X222487857Y-106894761D01*
X222535476Y-106847142D01*
X223011666Y-106275714D02*
X223011666Y-106942380D01*
X223011666Y-106370952D02*
X223059285Y-106323333D01*
X223154523Y-106275714D01*
X223297380Y-106275714D01*
X223392619Y-106323333D01*
X223440238Y-106418571D01*
X223440238Y-106942380D01*
X224345000Y-106942380D02*
X224345000Y-105942380D01*
X224345000Y-106894761D02*
X224249761Y-106942380D01*
X224059285Y-106942380D01*
X223964047Y-106894761D01*
X223916428Y-106847142D01*
X223868809Y-106751904D01*
X223868809Y-106466190D01*
X223916428Y-106370952D01*
X223964047Y-106323333D01*
X224059285Y-106275714D01*
X224249761Y-106275714D01*
X224345000Y-106323333D01*
X225202142Y-106894761D02*
X225106904Y-106942380D01*
X224916428Y-106942380D01*
X224821190Y-106894761D01*
X224773571Y-106799523D01*
X224773571Y-106418571D01*
X224821190Y-106323333D01*
X224916428Y-106275714D01*
X225106904Y-106275714D01*
X225202142Y-106323333D01*
X225249761Y-106418571D01*
X225249761Y-106513809D01*
X224773571Y-106609047D01*
X225678333Y-106942380D02*
X225678333Y-106275714D01*
X225678333Y-106466190D02*
X225725952Y-106370952D01*
X225773571Y-106323333D01*
X225868809Y-106275714D01*
X225964047Y-106275714D01*
X215392619Y-108497142D02*
X215345000Y-108544761D01*
X215202142Y-108592380D01*
X215106904Y-108592380D01*
X214964047Y-108544761D01*
X214868809Y-108449523D01*
X214821190Y-108354285D01*
X214773571Y-108163809D01*
X214773571Y-108020952D01*
X214821190Y-107830476D01*
X214868809Y-107735238D01*
X214964047Y-107640000D01*
X215106904Y-107592380D01*
X215202142Y-107592380D01*
X215345000Y-107640000D01*
X215392619Y-107687619D01*
X215821190Y-108068571D02*
X216154523Y-108068571D01*
X216297380Y-108592380D02*
X215821190Y-108592380D01*
X215821190Y-107592380D01*
X216297380Y-107592380D01*
X217297380Y-108592380D02*
X216964047Y-108116190D01*
X216725952Y-108592380D02*
X216725952Y-107592380D01*
X217106904Y-107592380D01*
X217202142Y-107640000D01*
X217249761Y-107687619D01*
X217297380Y-107782857D01*
X217297380Y-107925714D01*
X217249761Y-108020952D01*
X217202142Y-108068571D01*
X217106904Y-108116190D01*
X216725952Y-108116190D01*
X217725952Y-108592380D02*
X217725952Y-107592380D01*
X218297380Y-108592380D01*
X218297380Y-107592380D01*
X219725952Y-107592380D02*
X219916428Y-107592380D01*
X220011666Y-107640000D01*
X220106904Y-107735238D01*
X220154523Y-107925714D01*
X220154523Y-108259047D01*
X220106904Y-108449523D01*
X220011666Y-108544761D01*
X219916428Y-108592380D01*
X219725952Y-108592380D01*
X219630714Y-108544761D01*
X219535476Y-108449523D01*
X219487857Y-108259047D01*
X219487857Y-107925714D01*
X219535476Y-107735238D01*
X219630714Y-107640000D01*
X219725952Y-107592380D01*
X220583095Y-108592380D02*
X220583095Y-107592380D01*
X220583095Y-108068571D02*
X221154523Y-108068571D01*
X221154523Y-108592380D02*
X221154523Y-107592380D01*
X222106904Y-108592380D02*
X221630714Y-108592380D01*
X221630714Y-107592380D01*
X223106904Y-107925714D02*
X223345000Y-108592380D01*
X223583095Y-107925714D01*
X224487857Y-108592380D02*
X223916428Y-108592380D01*
X224202142Y-108592380D02*
X224202142Y-107592380D01*
X224106904Y-107735238D01*
X224011666Y-107830476D01*
X223916428Y-107878095D01*
X224916428Y-108497142D02*
X224964047Y-108544761D01*
X224916428Y-108592380D01*
X224868809Y-108544761D01*
X224916428Y-108497142D01*
X224916428Y-108592380D01*
X225344999Y-107687619D02*
X225392619Y-107640000D01*
X225487857Y-107592380D01*
X225725952Y-107592380D01*
X225821190Y-107640000D01*
X225868809Y-107687619D01*
X225916428Y-107782857D01*
X225916428Y-107878095D01*
X225868809Y-108020952D01*
X225297380Y-108592380D01*
X225916428Y-108592380D01*
D11*
X167640000Y-117475000D02*
X164465000Y-117475000D01*
X189230000Y-117475000D02*
X192405000Y-117475000D01*
D12*
X180467380Y-129901904D02*
X180467380Y-129101904D01*
X180657857Y-129101904D01*
X180772142Y-129140000D01*
X180848333Y-129216190D01*
X180886428Y-129292380D01*
X180924523Y-129444761D01*
X180924523Y-129559047D01*
X180886428Y-129711428D01*
X180848333Y-129787619D01*
X180772142Y-129863809D01*
X180657857Y-129901904D01*
X180467380Y-129901904D01*
X181572142Y-129863809D02*
X181495952Y-129901904D01*
X181343571Y-129901904D01*
X181267380Y-129863809D01*
X181229285Y-129787619D01*
X181229285Y-129482857D01*
X181267380Y-129406666D01*
X181343571Y-129368571D01*
X181495952Y-129368571D01*
X181572142Y-129406666D01*
X181610238Y-129482857D01*
X181610238Y-129559047D01*
X181229285Y-129635238D01*
X181838809Y-129368571D02*
X182143571Y-129368571D01*
X181953095Y-129901904D02*
X181953095Y-129216190D01*
X181991190Y-129140000D01*
X182067380Y-129101904D01*
X182143571Y-129101904D01*
X182753095Y-129901904D02*
X182753095Y-129482857D01*
X182715000Y-129406666D01*
X182638809Y-129368571D01*
X182486428Y-129368571D01*
X182410238Y-129406666D01*
X182753095Y-129863809D02*
X182676904Y-129901904D01*
X182486428Y-129901904D01*
X182410238Y-129863809D01*
X182372142Y-129787619D01*
X182372142Y-129711428D01*
X182410238Y-129635238D01*
X182486428Y-129597142D01*
X182676904Y-129597142D01*
X182753095Y-129559047D01*
X183476904Y-129368571D02*
X183476904Y-129901904D01*
X183134047Y-129368571D02*
X183134047Y-129787619D01*
X183172142Y-129863809D01*
X183248333Y-129901904D01*
X183362619Y-129901904D01*
X183438809Y-129863809D01*
X183476904Y-129825714D01*
X183972142Y-129901904D02*
X183895952Y-129863809D01*
X183857857Y-129787619D01*
X183857857Y-129101904D01*
X184162619Y-129368571D02*
X184467380Y-129368571D01*
X184276904Y-129101904D02*
X184276904Y-129787619D01*
X184315000Y-129863809D01*
X184391190Y-129901904D01*
X184467380Y-129901904D01*
X185610238Y-129482857D02*
X185343571Y-129482857D01*
X185343571Y-129901904D02*
X185343571Y-129101904D01*
X185724523Y-129101904D01*
X185953095Y-129101904D02*
X186143571Y-129901904D01*
X186295952Y-129330476D01*
X186448333Y-129901904D01*
X186638809Y-129101904D01*
X220865952Y-93706904D02*
X220865952Y-92906904D01*
X221170714Y-92906904D01*
X221246904Y-92945000D01*
X221285000Y-92983095D01*
X221323095Y-93059285D01*
X221323095Y-93173571D01*
X221285000Y-93249761D01*
X221246904Y-93287857D01*
X221170714Y-93325952D01*
X220865952Y-93325952D01*
X221818333Y-92906904D02*
X221970714Y-92906904D01*
X222046904Y-92945000D01*
X222123095Y-93021190D01*
X222161190Y-93173571D01*
X222161190Y-93440238D01*
X222123095Y-93592619D01*
X222046904Y-93668809D01*
X221970714Y-93706904D01*
X221818333Y-93706904D01*
X221742142Y-93668809D01*
X221665952Y-93592619D01*
X221627857Y-93440238D01*
X221627857Y-93173571D01*
X221665952Y-93021190D01*
X221742142Y-92945000D01*
X221818333Y-92906904D01*
X222961190Y-93706904D02*
X222694523Y-93325952D01*
X222504047Y-93706904D02*
X222504047Y-92906904D01*
X222808809Y-92906904D01*
X222885000Y-92945000D01*
X222923095Y-92983095D01*
X222961190Y-93059285D01*
X222961190Y-93173571D01*
X222923095Y-93249761D01*
X222885000Y-93287857D01*
X222808809Y-93325952D01*
X222504047Y-93325952D01*
X223189761Y-92906904D02*
X223646904Y-92906904D01*
X223418333Y-93706904D02*
X223418333Y-92906904D01*
X224485000Y-92983095D02*
X224523095Y-92945000D01*
X224599285Y-92906904D01*
X224789761Y-92906904D01*
X224865952Y-92945000D01*
X224904047Y-92983095D01*
X224942142Y-93059285D01*
X224942142Y-93135476D01*
X224904047Y-93249761D01*
X224446904Y-93706904D01*
X224942142Y-93706904D01*
X198005952Y-93706904D02*
X198005952Y-92906904D01*
X198310714Y-92906904D01*
X198386904Y-92945000D01*
X198425000Y-92983095D01*
X198463095Y-93059285D01*
X198463095Y-93173571D01*
X198425000Y-93249761D01*
X198386904Y-93287857D01*
X198310714Y-93325952D01*
X198005952Y-93325952D01*
X198958333Y-92906904D02*
X199110714Y-92906904D01*
X199186904Y-92945000D01*
X199263095Y-93021190D01*
X199301190Y-93173571D01*
X199301190Y-93440238D01*
X199263095Y-93592619D01*
X199186904Y-93668809D01*
X199110714Y-93706904D01*
X198958333Y-93706904D01*
X198882142Y-93668809D01*
X198805952Y-93592619D01*
X198767857Y-93440238D01*
X198767857Y-93173571D01*
X198805952Y-93021190D01*
X198882142Y-92945000D01*
X198958333Y-92906904D01*
X200101190Y-93706904D02*
X199834523Y-93325952D01*
X199644047Y-93706904D02*
X199644047Y-92906904D01*
X199948809Y-92906904D01*
X200025000Y-92945000D01*
X200063095Y-92983095D01*
X200101190Y-93059285D01*
X200101190Y-93173571D01*
X200063095Y-93249761D01*
X200025000Y-93287857D01*
X199948809Y-93325952D01*
X199644047Y-93325952D01*
X200329761Y-92906904D02*
X200786904Y-92906904D01*
X200558333Y-93706904D02*
X200558333Y-92906904D01*
X202082142Y-93706904D02*
X201625000Y-93706904D01*
X201853571Y-93706904D02*
X201853571Y-92906904D01*
X201777380Y-93021190D01*
X201701190Y-93097380D01*
X201625000Y-93135476D01*
X142586904Y-112355476D02*
X142586904Y-112812619D01*
X142586904Y-112584047D02*
X141786904Y-112584047D01*
X141901190Y-112660238D01*
X141977380Y-112736428D01*
X142015476Y-112812619D01*
X142282142Y-112012619D02*
X142282142Y-111403095D01*
X141863095Y-111060238D02*
X141825000Y-111022142D01*
X141786904Y-110945952D01*
X141786904Y-110755476D01*
X141825000Y-110679285D01*
X141863095Y-110641190D01*
X141939285Y-110603095D01*
X142015476Y-110603095D01*
X142129761Y-110641190D01*
X142586904Y-111098333D01*
X142586904Y-110603095D01*
X142358333Y-109688809D02*
X142358333Y-109307857D01*
X142586904Y-109765000D02*
X141786904Y-109498333D01*
X142586904Y-109231666D01*
X142586904Y-108850714D02*
X142548809Y-108926904D01*
X142472619Y-108965000D01*
X141786904Y-108965000D01*
X142053571Y-108622142D02*
X142586904Y-108469761D01*
X142205952Y-108317380D01*
X142586904Y-108165000D01*
X142053571Y-108012619D01*
X142586904Y-107365000D02*
X142167857Y-107365000D01*
X142091666Y-107403095D01*
X142053571Y-107479285D01*
X142053571Y-107631666D01*
X142091666Y-107707857D01*
X142548809Y-107365000D02*
X142586904Y-107441190D01*
X142586904Y-107631666D01*
X142548809Y-107707857D01*
X142472619Y-107745952D01*
X142396428Y-107745952D01*
X142320238Y-107707857D01*
X142282142Y-107631666D01*
X142282142Y-107441190D01*
X142244047Y-107365000D01*
X142053571Y-107060238D02*
X142586904Y-106869761D01*
X142053571Y-106679285D02*
X142586904Y-106869761D01*
X142777380Y-106945952D01*
X142815476Y-106984047D01*
X142853571Y-107060238D01*
X142548809Y-106412619D02*
X142586904Y-106336428D01*
X142586904Y-106184047D01*
X142548809Y-106107857D01*
X142472619Y-106069761D01*
X142434523Y-106069761D01*
X142358333Y-106107857D01*
X142320238Y-106184047D01*
X142320238Y-106298333D01*
X142282142Y-106374523D01*
X142205952Y-106412619D01*
X142167857Y-106412619D01*
X142091666Y-106374523D01*
X142053571Y-106298333D01*
X142053571Y-106184047D01*
X142091666Y-106107857D01*
X141786904Y-104965000D02*
X141786904Y-104812619D01*
X141825000Y-104736428D01*
X141901190Y-104660238D01*
X142053571Y-104622142D01*
X142320238Y-104622142D01*
X142472619Y-104660238D01*
X142548809Y-104736428D01*
X142586904Y-104812619D01*
X142586904Y-104965000D01*
X142548809Y-105041190D01*
X142472619Y-105117380D01*
X142320238Y-105155476D01*
X142053571Y-105155476D01*
X141901190Y-105117380D01*
X141825000Y-105041190D01*
X141786904Y-104965000D01*
X142586904Y-104279285D02*
X141786904Y-104279285D01*
X142586904Y-103822142D01*
X141786904Y-103822142D01*
X143163095Y-112812619D02*
X143125000Y-112774523D01*
X143086904Y-112698333D01*
X143086904Y-112507857D01*
X143125000Y-112431666D01*
X143163095Y-112393571D01*
X143239285Y-112355476D01*
X143315476Y-112355476D01*
X143429761Y-112393571D01*
X143886904Y-112850714D01*
X143886904Y-112355476D01*
X143582142Y-112012619D02*
X143582142Y-111403095D01*
X143086904Y-111098333D02*
X143086904Y-110603095D01*
X143391666Y-110869761D01*
X143391666Y-110755476D01*
X143429761Y-110679285D01*
X143467857Y-110641190D01*
X143544047Y-110603095D01*
X143734523Y-110603095D01*
X143810714Y-110641190D01*
X143848809Y-110679285D01*
X143886904Y-110755476D01*
X143886904Y-110984047D01*
X143848809Y-111060238D01*
X143810714Y-111098333D01*
X143658333Y-109688809D02*
X143658333Y-109307857D01*
X143886904Y-109765000D02*
X143086904Y-109498333D01*
X143886904Y-109231666D01*
X143886904Y-108965000D02*
X143353571Y-108965000D01*
X143505952Y-108965000D02*
X143429761Y-108926904D01*
X143391666Y-108888809D01*
X143353571Y-108812619D01*
X143353571Y-108736428D01*
X143886904Y-108126904D02*
X143086904Y-108126904D01*
X143848809Y-108126904D02*
X143886904Y-108203095D01*
X143886904Y-108355476D01*
X143848809Y-108431666D01*
X143810714Y-108469761D01*
X143734523Y-108507857D01*
X143505952Y-108507857D01*
X143429761Y-108469761D01*
X143391666Y-108431666D01*
X143353571Y-108355476D01*
X143353571Y-108203095D01*
X143391666Y-108126904D01*
X143353571Y-107403095D02*
X143886904Y-107403095D01*
X143353571Y-107745952D02*
X143772619Y-107745952D01*
X143848809Y-107707857D01*
X143886904Y-107631666D01*
X143886904Y-107517380D01*
X143848809Y-107441190D01*
X143810714Y-107403095D01*
X143886904Y-107022142D02*
X143353571Y-107022142D01*
X143086904Y-107022142D02*
X143125000Y-107060238D01*
X143163095Y-107022142D01*
X143125000Y-106984047D01*
X143086904Y-107022142D01*
X143163095Y-107022142D01*
X143353571Y-106641190D02*
X143886904Y-106641190D01*
X143429761Y-106641190D02*
X143391666Y-106603095D01*
X143353571Y-106526904D01*
X143353571Y-106412619D01*
X143391666Y-106336428D01*
X143467857Y-106298333D01*
X143886904Y-106298333D01*
X143886904Y-105803095D02*
X143848809Y-105879285D01*
X143810714Y-105917380D01*
X143734523Y-105955476D01*
X143505952Y-105955476D01*
X143429761Y-105917380D01*
X143391666Y-105879285D01*
X143353571Y-105803095D01*
X143353571Y-105688809D01*
X143391666Y-105612619D01*
X143429761Y-105574523D01*
X143505952Y-105536428D01*
X143734523Y-105536428D01*
X143810714Y-105574523D01*
X143848809Y-105612619D01*
X143886904Y-105688809D01*
X143886904Y-105803095D01*
D10*
X212805238Y-101132142D02*
X212757619Y-101179761D01*
X212614761Y-101227380D01*
X212519523Y-101227380D01*
X212376666Y-101179761D01*
X212281428Y-101084523D01*
X212233809Y-100989285D01*
X212186190Y-100798809D01*
X212186190Y-100655952D01*
X212233809Y-100465476D01*
X212281428Y-100370238D01*
X212376666Y-100275000D01*
X212519523Y-100227380D01*
X212614761Y-100227380D01*
X212757619Y-100275000D01*
X212805238Y-100322619D01*
X213662380Y-100227380D02*
X213471904Y-100227380D01*
X213376666Y-100275000D01*
X213329047Y-100322619D01*
X213233809Y-100465476D01*
X213186190Y-100655952D01*
X213186190Y-101036904D01*
X213233809Y-101132142D01*
X213281428Y-101179761D01*
X213376666Y-101227380D01*
X213567142Y-101227380D01*
X213662380Y-101179761D01*
X213710000Y-101132142D01*
X213757619Y-101036904D01*
X213757619Y-100798809D01*
X213710000Y-100703571D01*
X213662380Y-100655952D01*
X213567142Y-100608333D01*
X213376666Y-100608333D01*
X213281428Y-100655952D01*
X213233809Y-100703571D01*
X213186190Y-100798809D01*
X214614761Y-100560714D02*
X214614761Y-101227380D01*
X214376666Y-100179761D02*
X214138571Y-100894047D01*
X214757619Y-100894047D01*
X216186190Y-100227380D02*
X216186190Y-100941666D01*
X216138571Y-101084523D01*
X216043333Y-101179761D01*
X215900476Y-101227380D01*
X215805238Y-101227380D01*
X216805238Y-101227380D02*
X216710000Y-101179761D01*
X216662380Y-101132142D01*
X216614761Y-101036904D01*
X216614761Y-100751190D01*
X216662380Y-100655952D01*
X216710000Y-100608333D01*
X216805238Y-100560714D01*
X216948095Y-100560714D01*
X217043333Y-100608333D01*
X217090952Y-100655952D01*
X217138571Y-100751190D01*
X217138571Y-101036904D01*
X217090952Y-101132142D01*
X217043333Y-101179761D01*
X216948095Y-101227380D01*
X216805238Y-101227380D01*
X217471904Y-100560714D02*
X217710000Y-101227380D01*
X217948095Y-100560714D02*
X217710000Y-101227380D01*
X217614761Y-101465476D01*
X217567142Y-101513095D01*
X217471904Y-101560714D01*
X218329047Y-101227380D02*
X218329047Y-100227380D01*
X218900476Y-101227380D02*
X218471904Y-100655952D01*
X218900476Y-100227380D02*
X218329047Y-100798809D01*
X219329047Y-100703571D02*
X219662380Y-100703571D01*
X219805238Y-101227380D02*
X219329047Y-101227380D01*
X219329047Y-100227380D01*
X219805238Y-100227380D01*
X220424285Y-100751190D02*
X220424285Y-101227380D01*
X220090952Y-100227380D02*
X220424285Y-100751190D01*
X220757619Y-100227380D01*
X222138571Y-101608333D02*
X222090952Y-101560714D01*
X221995714Y-101417857D01*
X221948095Y-101322619D01*
X221900476Y-101179761D01*
X221852857Y-100941666D01*
X221852857Y-100751190D01*
X221900476Y-100513095D01*
X221948095Y-100370238D01*
X221995714Y-100275000D01*
X222090952Y-100132142D01*
X222138571Y-100084523D01*
X222519523Y-101227380D02*
X222519523Y-100560714D01*
X222519523Y-100751190D02*
X222567142Y-100655952D01*
X222614761Y-100608333D01*
X222710000Y-100560714D01*
X222805238Y-100560714D01*
X223519523Y-101179761D02*
X223424285Y-101227380D01*
X223233809Y-101227380D01*
X223138571Y-101179761D01*
X223090952Y-101084523D01*
X223090952Y-100703571D01*
X223138571Y-100608333D01*
X223233809Y-100560714D01*
X223424285Y-100560714D01*
X223519523Y-100608333D01*
X223567142Y-100703571D01*
X223567142Y-100798809D01*
X223090952Y-100894047D01*
X223900476Y-100560714D02*
X224138571Y-101227380D01*
X224376666Y-100560714D01*
X224757619Y-101132142D02*
X224805238Y-101179761D01*
X224757619Y-101227380D01*
X224710000Y-101179761D01*
X224757619Y-101132142D01*
X224757619Y-101227380D01*
X225995714Y-101227380D02*
X225995714Y-100227380D01*
X226233809Y-100227380D01*
X226376666Y-100275000D01*
X226471904Y-100370238D01*
X226519523Y-100465476D01*
X226567142Y-100655952D01*
X226567142Y-100798809D01*
X226519523Y-100989285D01*
X226471904Y-101084523D01*
X226376666Y-101179761D01*
X226233809Y-101227380D01*
X225995714Y-101227380D01*
X226900476Y-101608333D02*
X226948095Y-101560714D01*
X227043333Y-101417857D01*
X227090952Y-101322619D01*
X227138571Y-101179761D01*
X227186190Y-100941666D01*
X227186190Y-100751190D01*
X227138571Y-100513095D01*
X227090952Y-100370238D01*
X227043333Y-100275000D01*
X226948095Y-100132142D01*
X226900476Y-100084523D01*
X214305238Y-102210714D02*
X214305238Y-103020238D01*
X214257619Y-103115476D01*
X214210000Y-103163095D01*
X214114761Y-103210714D01*
X213971904Y-103210714D01*
X213876666Y-103163095D01*
X214305238Y-102829761D02*
X214210000Y-102877380D01*
X214019523Y-102877380D01*
X213924285Y-102829761D01*
X213876666Y-102782142D01*
X213829047Y-102686904D01*
X213829047Y-102401190D01*
X213876666Y-102305952D01*
X213924285Y-102258333D01*
X214019523Y-102210714D01*
X214210000Y-102210714D01*
X214305238Y-102258333D01*
X214781428Y-102877380D02*
X214781428Y-102210714D01*
X214781428Y-101877380D02*
X214733809Y-101925000D01*
X214781428Y-101972619D01*
X214829047Y-101925000D01*
X214781428Y-101877380D01*
X214781428Y-101972619D01*
X215114761Y-102210714D02*
X215495714Y-102210714D01*
X215257619Y-101877380D02*
X215257619Y-102734523D01*
X215305238Y-102829761D01*
X215400476Y-102877380D01*
X215495714Y-102877380D01*
X215829047Y-102877380D02*
X215829047Y-101877380D01*
X216257619Y-102877380D02*
X216257619Y-102353571D01*
X216210000Y-102258333D01*
X216114761Y-102210714D01*
X215971904Y-102210714D01*
X215876666Y-102258333D01*
X215829047Y-102305952D01*
X217162380Y-102210714D02*
X217162380Y-102877380D01*
X216733809Y-102210714D02*
X216733809Y-102734523D01*
X216781428Y-102829761D01*
X216876666Y-102877380D01*
X217019523Y-102877380D01*
X217114761Y-102829761D01*
X217162380Y-102782142D01*
X217638571Y-102877380D02*
X217638571Y-101877380D01*
X217638571Y-102258333D02*
X217733809Y-102210714D01*
X217924285Y-102210714D01*
X218019523Y-102258333D01*
X218067142Y-102305952D01*
X218114761Y-102401190D01*
X218114761Y-102686904D01*
X218067142Y-102782142D01*
X218019523Y-102829761D01*
X217924285Y-102877380D01*
X217733809Y-102877380D01*
X217638571Y-102829761D01*
X218543333Y-102782142D02*
X218590952Y-102829761D01*
X218543333Y-102877380D01*
X218495714Y-102829761D01*
X218543333Y-102782142D01*
X218543333Y-102877380D01*
X219448095Y-102829761D02*
X219352857Y-102877380D01*
X219162380Y-102877380D01*
X219067142Y-102829761D01*
X219019523Y-102782142D01*
X218971904Y-102686904D01*
X218971904Y-102401190D01*
X219019523Y-102305952D01*
X219067142Y-102258333D01*
X219162380Y-102210714D01*
X219352857Y-102210714D01*
X219448095Y-102258333D01*
X220019523Y-102877380D02*
X219924285Y-102829761D01*
X219876666Y-102782142D01*
X219829047Y-102686904D01*
X219829047Y-102401190D01*
X219876666Y-102305952D01*
X219924285Y-102258333D01*
X220019523Y-102210714D01*
X220162380Y-102210714D01*
X220257619Y-102258333D01*
X220305238Y-102305952D01*
X220352857Y-102401190D01*
X220352857Y-102686904D01*
X220305238Y-102782142D01*
X220257619Y-102829761D01*
X220162380Y-102877380D01*
X220019523Y-102877380D01*
X220781428Y-102877380D02*
X220781428Y-102210714D01*
X220781428Y-102305952D02*
X220829047Y-102258333D01*
X220924285Y-102210714D01*
X221067142Y-102210714D01*
X221162380Y-102258333D01*
X221210000Y-102353571D01*
X221210000Y-102877380D01*
X221210000Y-102353571D02*
X221257619Y-102258333D01*
X221352857Y-102210714D01*
X221495714Y-102210714D01*
X221590952Y-102258333D01*
X221638571Y-102353571D01*
X221638571Y-102877380D01*
X222829047Y-101829761D02*
X221971904Y-103115476D01*
X223019523Y-102210714D02*
X223400476Y-102210714D01*
X223162380Y-101877380D02*
X223162380Y-102734523D01*
X223210000Y-102829761D01*
X223305238Y-102877380D01*
X223400476Y-102877380D01*
X224114761Y-102829761D02*
X224019523Y-102877380D01*
X223829047Y-102877380D01*
X223733809Y-102829761D01*
X223686190Y-102734523D01*
X223686190Y-102353571D01*
X223733809Y-102258333D01*
X223829047Y-102210714D01*
X224019523Y-102210714D01*
X224114761Y-102258333D01*
X224162380Y-102353571D01*
X224162380Y-102448809D01*
X223686190Y-102544047D01*
X224590952Y-102877380D02*
X224590952Y-101877380D01*
X224590952Y-102258333D02*
X224686190Y-102210714D01*
X224876666Y-102210714D01*
X224971904Y-102258333D01*
X225019523Y-102305952D01*
X225067142Y-102401190D01*
X225067142Y-102686904D01*
X225019523Y-102782142D01*
X224971904Y-102829761D01*
X224876666Y-102877380D01*
X224686190Y-102877380D01*
X224590952Y-102829761D01*
X225638571Y-102877380D02*
X225543333Y-102829761D01*
X225495714Y-102734523D01*
X225495714Y-101877380D01*
D11*
X192405000Y-117475000D02*
X192405000Y-130810000D01*
X192405000Y-130810000D02*
X164465000Y-130810000D01*
X164465000Y-117475000D02*
X164465000Y-130810000D01*
X179070000Y-113030000D02*
X180340000Y-114300000D01*
X179070000Y-114300000D02*
X179070000Y-113030000D01*
X180340000Y-113030000D02*
X179070000Y-114300000D01*
X167740000Y-121190000D02*
X165000000Y-121190000D01*
X165000000Y-121190000D02*
X165000000Y-127730000D01*
X165000000Y-127730000D02*
X167740000Y-127730000D01*
X167740000Y-127730000D02*
X167740000Y-121190000D01*
X166370000Y-120420000D02*
X166370000Y-121190000D01*
X166370000Y-128500000D02*
X166370000Y-127730000D01*
X179490000Y-118260000D02*
X179490000Y-120500000D01*
X179490000Y-120500000D02*
X183730000Y-120500000D01*
X183730000Y-120500000D02*
X183730000Y-118260000D01*
X183730000Y-118260000D02*
X179490000Y-118260000D01*
X178840000Y-119380000D02*
X179490000Y-119380000D01*
X184380000Y-119380000D02*
X183730000Y-119380000D01*
X180210000Y-118260000D02*
X180210000Y-120500000D01*
X180330000Y-118260000D02*
X180330000Y-120500000D01*
X180090000Y-118260000D02*
X180090000Y-120500000D01*
X156655000Y-92920000D02*
X157386000Y-92920000D01*
X156655000Y-95040000D02*
X157386000Y-95040000D01*
X148690000Y-137700000D02*
X145950000Y-137700000D01*
X145950000Y-137700000D02*
X145950000Y-144240000D01*
X145950000Y-144240000D02*
X148690000Y-144240000D01*
X148690000Y-144240000D02*
X148690000Y-137700000D01*
X147320000Y-136930000D02*
X147320000Y-137700000D01*
X147320000Y-145010000D02*
X147320000Y-144240000D01*
X163830000Y-147955000D02*
X149860000Y-147955000D01*
X149860000Y-147955000D02*
X149860000Y-133985000D01*
X149860000Y-133985000D02*
X163830000Y-133985000D01*
X163830000Y-133985000D02*
X163830000Y-147955000D01*
D10*
X144780000Y-109474000D02*
X144526000Y-109474000D01*
X147574000Y-111760000D02*
X147574000Y-105410000D01*
X147574000Y-105410000D02*
X144526000Y-105410000D01*
X144780000Y-105918000D02*
X144526000Y-105918000D01*
X144526000Y-105918000D02*
X144526000Y-109474000D01*
X144526000Y-109982000D02*
X144526000Y-111760000D01*
X144526000Y-111760000D02*
X147574000Y-111760000D01*
D11*
X212725000Y-107569000D02*
X212344000Y-107950000D01*
X212725000Y-108331000D02*
X212725000Y-107569000D01*
X212344000Y-107950000D02*
X212725000Y-108331000D01*
X207010000Y-104140000D02*
X207010000Y-98933000D01*
X210820000Y-104140000D02*
X210820000Y-98933000D01*
X210947000Y-106426000D02*
X210185000Y-104140000D01*
X208915000Y-106426000D02*
X208915000Y-104140000D01*
X206883000Y-106426000D02*
X207645000Y-104140000D01*
X211315000Y-104140000D02*
X206515000Y-104140000D01*
X206515000Y-104140000D02*
X206515000Y-98950000D01*
X206515000Y-98950000D02*
X211315000Y-98950000D01*
X211315000Y-98950000D02*
X211315000Y-104140000D01*
X193445000Y-107950000D02*
X194215000Y-107950000D01*
X201525000Y-107950000D02*
X200755000Y-107950000D01*
X194215000Y-109320000D02*
X200755000Y-109320000D01*
X194215000Y-106580000D02*
X194215000Y-109320000D01*
X200755000Y-106580000D02*
X194215000Y-106580000D01*
X200755000Y-109320000D02*
X200755000Y-106580000D01*
X143510000Y-124055000D02*
X143510000Y-123285000D01*
X143510000Y-115975000D02*
X143510000Y-116745000D01*
X144880000Y-123285000D02*
X144880000Y-116745000D01*
X142140000Y-123285000D02*
X144880000Y-123285000D01*
X142140000Y-116745000D02*
X142140000Y-123285000D01*
X144880000Y-116745000D02*
X142140000Y-116745000D01*
X148690000Y-116745000D02*
X145950000Y-116745000D01*
X145950000Y-116745000D02*
X145950000Y-123285000D01*
X145950000Y-123285000D02*
X148690000Y-123285000D01*
X148690000Y-123285000D02*
X148690000Y-116745000D01*
X147320000Y-115975000D02*
X147320000Y-116745000D01*
X147320000Y-124055000D02*
X147320000Y-123285000D01*
D10*
X170815000Y-116205000D02*
X170815000Y-117475000D01*
X170815000Y-113665000D02*
X170815000Y-114935000D01*
X170815000Y-111125000D02*
X170815000Y-112395000D01*
X170815000Y-108585000D02*
X170815000Y-109855000D01*
X170815000Y-106045000D02*
X170815000Y-107315000D01*
X170815000Y-103505000D02*
X170815000Y-104775000D01*
X170815000Y-100965000D02*
X170815000Y-102235000D01*
X170815000Y-98425000D02*
X170815000Y-99695000D01*
X170815000Y-95885000D02*
X170815000Y-97155000D01*
X170815000Y-93345000D02*
X170815000Y-94615000D01*
X170815000Y-90805000D02*
X170815000Y-92075000D01*
X170815000Y-88265000D02*
X170815000Y-89535000D01*
X170815000Y-85725000D02*
X170815000Y-86995000D01*
X170815000Y-83185000D02*
X170815000Y-84455000D01*
X179070000Y-114300000D02*
X180340000Y-114300000D01*
X180340000Y-114300000D02*
X180340000Y-113030000D01*
X180340000Y-113030000D02*
X179070000Y-113030000D01*
X179070000Y-113030000D02*
X179070000Y-114300000D01*
X180340000Y-114935000D02*
X179070000Y-114935000D01*
X179070000Y-114935000D02*
X179070000Y-116205000D01*
X179070000Y-116205000D02*
X180340000Y-116205000D01*
X180340000Y-116205000D02*
X180340000Y-114935000D01*
X182245000Y-81915000D02*
X182245000Y-83185000D01*
X182245000Y-83185000D02*
X188595000Y-83185000D01*
X168275000Y-83185000D02*
X174625000Y-83185000D01*
X174625000Y-83185000D02*
X174625000Y-81915000D01*
X174625000Y-81915000D02*
X182245000Y-81915000D01*
X188595000Y-117475000D02*
X188595000Y-83185000D01*
X168275000Y-83185000D02*
X168275000Y-117475000D01*
X168275000Y-117475000D02*
X188595000Y-117475000D01*
D11*
X163830000Y-113030000D02*
X163830000Y-127000000D01*
X149860000Y-113030000D02*
X163830000Y-113030000D01*
X149860000Y-127000000D02*
X149860000Y-113030000D01*
X163830000Y-127000000D02*
X149860000Y-127000000D01*
X163830000Y-106045000D02*
X149860000Y-106045000D01*
X149860000Y-106045000D02*
X149860000Y-92075000D01*
X149860000Y-92075000D02*
X163830000Y-92075000D01*
X163830000Y-92075000D02*
X163830000Y-106045000D01*
X210820000Y-113030000D02*
X210820000Y-127000000D01*
X196850000Y-113030000D02*
X210820000Y-113030000D01*
X196850000Y-127000000D02*
X196850000Y-113030000D01*
X210820000Y-127000000D02*
X196850000Y-127000000D01*
X210820000Y-147955000D02*
X196850000Y-147955000D01*
X196850000Y-147955000D02*
X196850000Y-133985000D01*
X196850000Y-133985000D02*
X210820000Y-133985000D01*
X210820000Y-133985000D02*
X210820000Y-147955000D01*
X189865000Y-133985000D02*
X189865000Y-147955000D01*
X175895000Y-133985000D02*
X189865000Y-133985000D01*
X175895000Y-147955000D02*
X175895000Y-133985000D01*
X189865000Y-147955000D02*
X175895000Y-147955000D01*
X231775000Y-147955000D02*
X217805000Y-147955000D01*
X217805000Y-147955000D02*
X217805000Y-133985000D01*
X217805000Y-133985000D02*
X231775000Y-133985000D01*
X231775000Y-133985000D02*
X231775000Y-147955000D01*
X151490000Y-88285000D02*
X154580000Y-88285000D01*
X155535000Y-85725000D02*
G75*
G03*
X155535000Y-85725000I-2500000J0D01*
G01*
X153034538Y-82735000D02*
G75*
G02*
X154579830Y-88285000I462J-2990000D01*
G01*
X153035462Y-82735000D02*
G75*
G03*
X151490170Y-88285000I-462J-2990000D01*
G01*
X163155000Y-85725000D02*
G75*
G03*
X163155000Y-85725000I-2500000J0D01*
G01*
X159110000Y-88285000D02*
X162200000Y-88285000D01*
X160655462Y-82735000D02*
G75*
G03*
X159110170Y-88285000I-462J-2990000D01*
G01*
X160654538Y-82735000D02*
G75*
G02*
X162199830Y-88285000I462J-2990000D01*
G01*
X176930000Y-127460000D02*
X176930000Y-125960000D01*
X175680000Y-123460000D02*
X171180000Y-123460000D01*
X169930000Y-125960000D02*
X169930000Y-127460000D01*
X171180000Y-129960000D02*
X175680000Y-129960000D01*
X234485000Y-115510000D02*
X234485000Y-123250000D01*
X234485000Y-123250000D02*
X237145000Y-123250000D01*
X237145000Y-123250000D02*
X237145000Y-115510000D01*
X237145000Y-115510000D02*
X234485000Y-115510000D01*
X237145000Y-116460000D02*
X243145000Y-116460000D01*
X243145000Y-116460000D02*
X243145000Y-117220000D01*
X243145000Y-117220000D02*
X237145000Y-117220000D01*
X237145000Y-116520000D02*
X243145000Y-116520000D01*
X237145000Y-116640000D02*
X243145000Y-116640000D01*
X237145000Y-116760000D02*
X243145000Y-116760000D01*
X237145000Y-116880000D02*
X243145000Y-116880000D01*
X237145000Y-117000000D02*
X243145000Y-117000000D01*
X237145000Y-117120000D02*
X243145000Y-117120000D01*
X234155000Y-116460000D02*
X234485000Y-116460000D01*
X234155000Y-117220000D02*
X234485000Y-117220000D01*
X234485000Y-118110000D02*
X237145000Y-118110000D01*
X237145000Y-119000000D02*
X243145000Y-119000000D01*
X243145000Y-119000000D02*
X243145000Y-119760000D01*
X243145000Y-119760000D02*
X237145000Y-119760000D01*
X234087929Y-119000000D02*
X234485000Y-119000000D01*
X234087929Y-119760000D02*
X234485000Y-119760000D01*
X234485000Y-120650000D02*
X237145000Y-120650000D01*
X237145000Y-121540000D02*
X243145000Y-121540000D01*
X243145000Y-121540000D02*
X243145000Y-122300000D01*
X243145000Y-122300000D02*
X237145000Y-122300000D01*
X234087929Y-121540000D02*
X234485000Y-121540000D01*
X234087929Y-122300000D02*
X234485000Y-122300000D01*
X231775000Y-116840000D02*
X231775000Y-115570000D01*
X231775000Y-115570000D02*
X233045000Y-115570000D01*
X231775000Y-105410000D02*
X233045000Y-105410000D01*
X231775000Y-106680000D02*
X231775000Y-105410000D01*
X234087929Y-112140000D02*
X234485000Y-112140000D01*
X234087929Y-111380000D02*
X234485000Y-111380000D01*
X243145000Y-112140000D02*
X237145000Y-112140000D01*
X243145000Y-111380000D02*
X243145000Y-112140000D01*
X237145000Y-111380000D02*
X243145000Y-111380000D01*
X234485000Y-110490000D02*
X237145000Y-110490000D01*
X234087929Y-109600000D02*
X234485000Y-109600000D01*
X234087929Y-108840000D02*
X234485000Y-108840000D01*
X243145000Y-109600000D02*
X237145000Y-109600000D01*
X243145000Y-108840000D02*
X243145000Y-109600000D01*
X237145000Y-108840000D02*
X243145000Y-108840000D01*
X234485000Y-107950000D02*
X237145000Y-107950000D01*
X234155000Y-107060000D02*
X234485000Y-107060000D01*
X234155000Y-106300000D02*
X234485000Y-106300000D01*
X237145000Y-106960000D02*
X243145000Y-106960000D01*
X237145000Y-106840000D02*
X243145000Y-106840000D01*
X237145000Y-106720000D02*
X243145000Y-106720000D01*
X237145000Y-106600000D02*
X243145000Y-106600000D01*
X237145000Y-106480000D02*
X243145000Y-106480000D01*
X237145000Y-106360000D02*
X243145000Y-106360000D01*
X243145000Y-107060000D02*
X237145000Y-107060000D01*
X243145000Y-106300000D02*
X243145000Y-107060000D01*
X237145000Y-106300000D02*
X243145000Y-106300000D01*
X237145000Y-105350000D02*
X234485000Y-105350000D01*
X237145000Y-113090000D02*
X237145000Y-105350000D01*
X234485000Y-113090000D02*
X237145000Y-113090000D01*
X234485000Y-105350000D02*
X234485000Y-113090000D01*
X231775000Y-95250000D02*
X233045000Y-95250000D01*
X231775000Y-96520000D02*
X231775000Y-95250000D01*
X234087929Y-101980000D02*
X234485000Y-101980000D01*
X234087929Y-101220000D02*
X234485000Y-101220000D01*
X243145000Y-101980000D02*
X237145000Y-101980000D01*
X243145000Y-101220000D02*
X243145000Y-101980000D01*
X237145000Y-101220000D02*
X243145000Y-101220000D01*
X234485000Y-100330000D02*
X237145000Y-100330000D01*
X234087929Y-99440000D02*
X234485000Y-99440000D01*
X234087929Y-98680000D02*
X234485000Y-98680000D01*
X243145000Y-99440000D02*
X237145000Y-99440000D01*
X243145000Y-98680000D02*
X243145000Y-99440000D01*
X237145000Y-98680000D02*
X243145000Y-98680000D01*
X234485000Y-97790000D02*
X237145000Y-97790000D01*
X234155000Y-96900000D02*
X234485000Y-96900000D01*
X234155000Y-96140000D02*
X234485000Y-96140000D01*
X237145000Y-96800000D02*
X243145000Y-96800000D01*
X237145000Y-96680000D02*
X243145000Y-96680000D01*
X237145000Y-96560000D02*
X243145000Y-96560000D01*
X237145000Y-96440000D02*
X243145000Y-96440000D01*
X237145000Y-96320000D02*
X243145000Y-96320000D01*
X237145000Y-96200000D02*
X243145000Y-96200000D01*
X243145000Y-96900000D02*
X237145000Y-96900000D01*
X243145000Y-96140000D02*
X243145000Y-96900000D01*
X237145000Y-96140000D02*
X243145000Y-96140000D01*
X237145000Y-95190000D02*
X234485000Y-95190000D01*
X237145000Y-102930000D02*
X237145000Y-95190000D01*
X234485000Y-102930000D02*
X237145000Y-102930000D01*
X234485000Y-95190000D02*
X234485000Y-102930000D01*
X189595000Y-82955000D02*
X210455000Y-82955000D01*
X210455000Y-82955000D02*
X210455000Y-92305000D01*
X210455000Y-92305000D02*
X189595000Y-92305000D01*
X189595000Y-92305000D02*
X189595000Y-82955000D01*
X189345000Y-92555000D02*
X191885000Y-92555000D01*
X189345000Y-92555000D02*
X189345000Y-90015000D01*
X212205000Y-92555000D02*
X212205000Y-90015000D01*
X212205000Y-92555000D02*
X214745000Y-92555000D01*
X212455000Y-92305000D02*
X212455000Y-82955000D01*
X233315000Y-92305000D02*
X212455000Y-92305000D01*
X233315000Y-82955000D02*
X233315000Y-92305000D01*
X212455000Y-82955000D02*
X233315000Y-82955000D01*
X195665000Y-95110000D02*
X195665000Y-97930000D01*
X201285000Y-96520000D02*
X200145000Y-96520000D01*
X193685000Y-96520000D02*
X194825000Y-96520000D01*
X200145000Y-95110000D02*
X194825000Y-95110000D01*
X200145000Y-97930000D02*
X200145000Y-95110000D01*
X194825000Y-97930000D02*
X200145000Y-97930000D01*
X194825000Y-95110000D02*
X194825000Y-97930000D01*
X156655000Y-134830000D02*
X157386000Y-134830000D01*
X156655000Y-136950000D02*
X157386000Y-136950000D01*
X156655000Y-113875000D02*
X157386000Y-113875000D01*
X156655000Y-115995000D02*
X157386000Y-115995000D01*
X203645000Y-115995000D02*
X204376000Y-115995000D01*
X203645000Y-113875000D02*
X204376000Y-113875000D01*
X203645000Y-136950000D02*
X204376000Y-136950000D01*
X203645000Y-134830000D02*
X204376000Y-134830000D01*
X182690000Y-134830000D02*
X183421000Y-134830000D01*
X182690000Y-136950000D02*
X183421000Y-136950000D01*
X224600000Y-136950000D02*
X225331000Y-136950000D01*
X224600000Y-134830000D02*
X225331000Y-134830000D01*
X201525000Y-100330000D02*
X200755000Y-100330000D01*
X193445000Y-100330000D02*
X194215000Y-100330000D01*
X200755000Y-98960000D02*
X194215000Y-98960000D01*
X200755000Y-101700000D02*
X200755000Y-98960000D01*
X194215000Y-101700000D02*
X200755000Y-101700000D01*
X194215000Y-98960000D02*
X194215000Y-101700000D01*
X194215000Y-102770000D02*
X194215000Y-105510000D01*
X194215000Y-105510000D02*
X200755000Y-105510000D01*
X200755000Y-105510000D02*
X200755000Y-102770000D01*
X200755000Y-102770000D02*
X194215000Y-102770000D01*
X193445000Y-104140000D02*
X194215000Y-104140000D01*
X201525000Y-104140000D02*
X200755000Y-104140000D01*
X143510000Y-99925000D02*
X143510000Y-99155000D01*
X143510000Y-91845000D02*
X143510000Y-92615000D01*
X144880000Y-99155000D02*
X144880000Y-92615000D01*
X142140000Y-99155000D02*
X144880000Y-99155000D01*
X142140000Y-92615000D02*
X142140000Y-99155000D01*
X144880000Y-92615000D02*
X142140000Y-92615000D01*
X148690000Y-92615000D02*
X145950000Y-92615000D01*
X145950000Y-92615000D02*
X145950000Y-99155000D01*
X145950000Y-99155000D02*
X148690000Y-99155000D01*
X148690000Y-99155000D02*
X148690000Y-92615000D01*
X147320000Y-91845000D02*
X147320000Y-92615000D01*
X147320000Y-99925000D02*
X147320000Y-99155000D01*
X195680000Y-116745000D02*
X192940000Y-116745000D01*
X192940000Y-116745000D02*
X192940000Y-123285000D01*
X192940000Y-123285000D02*
X195680000Y-123285000D01*
X195680000Y-123285000D02*
X195680000Y-116745000D01*
X194310000Y-115975000D02*
X194310000Y-116745000D01*
X194310000Y-124055000D02*
X194310000Y-123285000D01*
X194310000Y-145010000D02*
X194310000Y-144240000D01*
X194310000Y-136930000D02*
X194310000Y-137700000D01*
X195680000Y-144240000D02*
X195680000Y-137700000D01*
X192940000Y-144240000D02*
X195680000Y-144240000D01*
X192940000Y-137700000D02*
X192940000Y-144240000D01*
X195680000Y-137700000D02*
X192940000Y-137700000D01*
X174725000Y-137700000D02*
X171985000Y-137700000D01*
X171985000Y-137700000D02*
X171985000Y-144240000D01*
X171985000Y-144240000D02*
X174725000Y-144240000D01*
X174725000Y-144240000D02*
X174725000Y-137700000D01*
X173355000Y-136930000D02*
X173355000Y-137700000D01*
X173355000Y-145010000D02*
X173355000Y-144240000D01*
X215265000Y-145010000D02*
X215265000Y-144240000D01*
X215265000Y-136930000D02*
X215265000Y-137700000D01*
X216635000Y-144240000D02*
X216635000Y-137700000D01*
X213895000Y-144240000D02*
X216635000Y-144240000D01*
X213895000Y-137700000D02*
X213895000Y-144240000D01*
X216635000Y-137700000D02*
X213895000Y-137700000D01*
X234485000Y-125670000D02*
X234485000Y-130870000D01*
X234485000Y-130870000D02*
X237145000Y-130870000D01*
X237145000Y-130870000D02*
X237145000Y-125670000D01*
X237145000Y-125670000D02*
X234485000Y-125670000D01*
X237145000Y-126620000D02*
X243145000Y-126620000D01*
X243145000Y-126620000D02*
X243145000Y-127380000D01*
X243145000Y-127380000D02*
X237145000Y-127380000D01*
X237145000Y-126680000D02*
X243145000Y-126680000D01*
X237145000Y-126800000D02*
X243145000Y-126800000D01*
X237145000Y-126920000D02*
X243145000Y-126920000D01*
X237145000Y-127040000D02*
X243145000Y-127040000D01*
X237145000Y-127160000D02*
X243145000Y-127160000D01*
X237145000Y-127280000D02*
X243145000Y-127280000D01*
X234155000Y-126620000D02*
X234485000Y-126620000D01*
X234155000Y-127380000D02*
X234485000Y-127380000D01*
X234485000Y-128270000D02*
X237145000Y-128270000D01*
X237145000Y-129160000D02*
X243145000Y-129160000D01*
X243145000Y-129160000D02*
X243145000Y-129920000D01*
X243145000Y-129920000D02*
X237145000Y-129920000D01*
X234087929Y-129160000D02*
X234485000Y-129160000D01*
X234087929Y-129920000D02*
X234485000Y-129920000D01*
X231775000Y-127000000D02*
X231775000Y-125730000D01*
X231775000Y-125730000D02*
X233045000Y-125730000D01*
X186750000Y-128330000D02*
X185420000Y-128330000D01*
X186750000Y-127000000D02*
X186750000Y-128330000D01*
X186750000Y-125730000D02*
X184090000Y-125730000D01*
X184090000Y-125730000D02*
X184090000Y-123130000D01*
X186750000Y-125730000D02*
X186750000Y-123130000D01*
X186750000Y-123130000D02*
X184090000Y-123130000D01*
X180280000Y-128330000D02*
X182940000Y-128330000D01*
X180280000Y-125730000D02*
X180280000Y-128330000D01*
X182940000Y-125730000D02*
X182940000Y-128330000D01*
X180280000Y-125730000D02*
X182940000Y-125730000D01*
X180280000Y-124460000D02*
X180280000Y-123130000D01*
X180280000Y-123130000D02*
X181610000Y-123130000D01*
X190500000Y-128500000D02*
X190500000Y-127730000D01*
X190500000Y-120420000D02*
X190500000Y-121190000D01*
X191870000Y-127730000D02*
X191870000Y-121190000D01*
X189130000Y-127730000D02*
X191870000Y-127730000D01*
X189130000Y-121190000D02*
X189130000Y-127730000D01*
X191870000Y-121190000D02*
X189130000Y-121190000D01*
X206315000Y-95190000D02*
X206315000Y-97850000D01*
X208915000Y-95190000D02*
X206315000Y-95190000D01*
X208915000Y-97850000D02*
X206315000Y-97850000D01*
X208915000Y-95190000D02*
X208915000Y-97850000D01*
X210185000Y-95190000D02*
X211515000Y-95190000D01*
X211515000Y-95190000D02*
X211515000Y-96520000D01*
X167407900Y-88325000D02*
X166077900Y-88325000D01*
X167407900Y-86995000D02*
X167407900Y-88325000D01*
X167407900Y-85725000D02*
X164747900Y-85725000D01*
X164747900Y-85725000D02*
X164747900Y-83125000D01*
X167407900Y-85725000D02*
X167407900Y-83125000D01*
X167407900Y-83125000D02*
X164747900Y-83125000D01*
X160115000Y-111860000D02*
X160115000Y-109120000D01*
X160115000Y-109120000D02*
X153575000Y-109120000D01*
X153575000Y-109120000D02*
X153575000Y-111860000D01*
X153575000Y-111860000D02*
X160115000Y-111860000D01*
X160885000Y-110490000D02*
X160115000Y-110490000D01*
X152805000Y-110490000D02*
X153575000Y-110490000D01*
X160115000Y-132815000D02*
X160115000Y-130075000D01*
X160115000Y-130075000D02*
X153575000Y-130075000D01*
X153575000Y-130075000D02*
X153575000Y-132815000D01*
X153575000Y-132815000D02*
X160115000Y-132815000D01*
X160885000Y-131445000D02*
X160115000Y-131445000D01*
X152805000Y-131445000D02*
X153575000Y-131445000D01*
X166370000Y-145010000D02*
X166370000Y-144240000D01*
X166370000Y-136930000D02*
X166370000Y-137700000D01*
X167740000Y-144240000D02*
X167740000Y-137700000D01*
X165000000Y-144240000D02*
X167740000Y-144240000D01*
X165000000Y-137700000D02*
X165000000Y-144240000D01*
X167740000Y-137700000D02*
X165000000Y-137700000D01*
X213360000Y-115975000D02*
X213360000Y-116745000D01*
X213360000Y-124055000D02*
X213360000Y-123285000D01*
X211990000Y-116745000D02*
X211990000Y-123285000D01*
X214730000Y-116745000D02*
X211990000Y-116745000D01*
X214730000Y-123285000D02*
X214730000Y-116745000D01*
X211990000Y-123285000D02*
X214730000Y-123285000D01*
X232945000Y-144240000D02*
X235685000Y-144240000D01*
X235685000Y-144240000D02*
X235685000Y-137700000D01*
X235685000Y-137700000D02*
X232945000Y-137700000D01*
X232945000Y-137700000D02*
X232945000Y-144240000D01*
X234315000Y-145010000D02*
X234315000Y-144240000D01*
X234315000Y-136930000D02*
X234315000Y-137700000D01*
X199795000Y-131445000D02*
X200565000Y-131445000D01*
X207875000Y-131445000D02*
X207105000Y-131445000D01*
X200565000Y-132815000D02*
X207105000Y-132815000D01*
X200565000Y-130075000D02*
X200565000Y-132815000D01*
X207105000Y-130075000D02*
X200565000Y-130075000D01*
X207105000Y-132815000D02*
X207105000Y-130075000D01*
X168492500Y-144240000D02*
X171232500Y-144240000D01*
X171232500Y-144240000D02*
X171232500Y-137700000D01*
X171232500Y-137700000D02*
X168492500Y-137700000D01*
X168492500Y-137700000D02*
X168492500Y-144240000D01*
X169862500Y-145010000D02*
X169862500Y-144240000D01*
X169862500Y-136930000D02*
X169862500Y-137700000D01*
D12*
X165855714Y-122916904D02*
X165589047Y-122535952D01*
X165398571Y-122916904D02*
X165398571Y-122116904D01*
X165703333Y-122116904D01*
X165779523Y-122155000D01*
X165817619Y-122193095D01*
X165855714Y-122269285D01*
X165855714Y-122383571D01*
X165817619Y-122459761D01*
X165779523Y-122497857D01*
X165703333Y-122535952D01*
X165398571Y-122535952D01*
X166617619Y-122916904D02*
X166160476Y-122916904D01*
X166389047Y-122916904D02*
X166389047Y-122116904D01*
X166312857Y-122231190D01*
X166236666Y-122307380D01*
X166160476Y-122345476D01*
X167303333Y-122383571D02*
X167303333Y-122916904D01*
X167112857Y-122078809D02*
X166922380Y-122650238D01*
X167417619Y-122650238D01*
D10*
X166822380Y-126325238D02*
X166822380Y-126896666D01*
X166822380Y-126610952D02*
X165822380Y-126610952D01*
X165965238Y-126706190D01*
X166060476Y-126801428D01*
X166108095Y-126896666D01*
X165822380Y-125706190D02*
X165822380Y-125610952D01*
X165870000Y-125515714D01*
X165917619Y-125468095D01*
X166012857Y-125420476D01*
X166203333Y-125372857D01*
X166441428Y-125372857D01*
X166631904Y-125420476D01*
X166727142Y-125468095D01*
X166774761Y-125515714D01*
X166822380Y-125610952D01*
X166822380Y-125706190D01*
X166774761Y-125801428D01*
X166727142Y-125849047D01*
X166631904Y-125896666D01*
X166441428Y-125944285D01*
X166203333Y-125944285D01*
X166012857Y-125896666D01*
X165917619Y-125849047D01*
X165870000Y-125801428D01*
X165822380Y-125706190D01*
X166822380Y-124944285D02*
X165822380Y-124944285D01*
X166441428Y-124849047D02*
X166822380Y-124563333D01*
X166155714Y-124563333D02*
X166536666Y-124944285D01*
D12*
X181400523Y-119741904D02*
X181400523Y-118941904D01*
X181591000Y-118941904D01*
X181705285Y-118980000D01*
X181781476Y-119056190D01*
X181819571Y-119132380D01*
X181857666Y-119284761D01*
X181857666Y-119399047D01*
X181819571Y-119551428D01*
X181781476Y-119627619D01*
X181705285Y-119703809D01*
X181591000Y-119741904D01*
X181400523Y-119741904D01*
X182543380Y-119208571D02*
X182543380Y-119741904D01*
X182352904Y-118903809D02*
X182162428Y-119475238D01*
X182657666Y-119475238D01*
D10*
X154122380Y-94718095D02*
X153122380Y-94718095D01*
X153122380Y-94480000D01*
X153170000Y-94337142D01*
X153265238Y-94241904D01*
X153360476Y-94194285D01*
X153550952Y-94146666D01*
X153693809Y-94146666D01*
X153884285Y-94194285D01*
X153979523Y-94241904D01*
X154074761Y-94337142D01*
X154122380Y-94480000D01*
X154122380Y-94718095D01*
X153122380Y-93813333D02*
X153122380Y-93146666D01*
X154122380Y-93575238D01*
D12*
X147186666Y-139426904D02*
X146920000Y-139045952D01*
X146729523Y-139426904D02*
X146729523Y-138626904D01*
X147034285Y-138626904D01*
X147110476Y-138665000D01*
X147148571Y-138703095D01*
X147186666Y-138779285D01*
X147186666Y-138893571D01*
X147148571Y-138969761D01*
X147110476Y-139007857D01*
X147034285Y-139045952D01*
X146729523Y-139045952D01*
X147872380Y-138626904D02*
X147720000Y-138626904D01*
X147643809Y-138665000D01*
X147605714Y-138703095D01*
X147529523Y-138817380D01*
X147491428Y-138969761D01*
X147491428Y-139274523D01*
X147529523Y-139350714D01*
X147567619Y-139388809D01*
X147643809Y-139426904D01*
X147796190Y-139426904D01*
X147872380Y-139388809D01*
X147910476Y-139350714D01*
X147948571Y-139274523D01*
X147948571Y-139084047D01*
X147910476Y-139007857D01*
X147872380Y-138969761D01*
X147796190Y-138931666D01*
X147643809Y-138931666D01*
X147567619Y-138969761D01*
X147529523Y-139007857D01*
X147491428Y-139084047D01*
D10*
X146772380Y-143525714D02*
X146772380Y-142906666D01*
X147153333Y-143240000D01*
X147153333Y-143097142D01*
X147200952Y-143001904D01*
X147248571Y-142954285D01*
X147343809Y-142906666D01*
X147581904Y-142906666D01*
X147677142Y-142954285D01*
X147724761Y-143001904D01*
X147772380Y-143097142D01*
X147772380Y-143382857D01*
X147724761Y-143478095D01*
X147677142Y-143525714D01*
X146772380Y-142573333D02*
X146772380Y-141954285D01*
X147153333Y-142287619D01*
X147153333Y-142144761D01*
X147200952Y-142049523D01*
X147248571Y-142001904D01*
X147343809Y-141954285D01*
X147581904Y-141954285D01*
X147677142Y-142001904D01*
X147724761Y-142049523D01*
X147772380Y-142144761D01*
X147772380Y-142430476D01*
X147724761Y-142525714D01*
X147677142Y-142573333D01*
X146772380Y-141335238D02*
X146772380Y-141240000D01*
X146820000Y-141144761D01*
X146867619Y-141097142D01*
X146962857Y-141049523D01*
X147153333Y-141001904D01*
X147391428Y-141001904D01*
X147581904Y-141049523D01*
X147677142Y-141097142D01*
X147724761Y-141144761D01*
X147772380Y-141240000D01*
X147772380Y-141335238D01*
X147724761Y-141430476D01*
X147677142Y-141478095D01*
X147581904Y-141525714D01*
X147391428Y-141573333D01*
X147153333Y-141573333D01*
X146962857Y-141525714D01*
X146867619Y-141478095D01*
X146820000Y-141430476D01*
X146772380Y-141335238D01*
X155511666Y-144549761D02*
X155654523Y-144597380D01*
X155892619Y-144597380D01*
X155987857Y-144549761D01*
X156035476Y-144502142D01*
X156083095Y-144406904D01*
X156083095Y-144311666D01*
X156035476Y-144216428D01*
X155987857Y-144168809D01*
X155892619Y-144121190D01*
X155702142Y-144073571D01*
X155606904Y-144025952D01*
X155559285Y-143978333D01*
X155511666Y-143883095D01*
X155511666Y-143787857D01*
X155559285Y-143692619D01*
X155606904Y-143645000D01*
X155702142Y-143597380D01*
X155940238Y-143597380D01*
X156083095Y-143645000D01*
X156416428Y-143597380D02*
X156654523Y-144597380D01*
X156845000Y-143883095D01*
X157035476Y-144597380D01*
X157273571Y-143597380D01*
X158178333Y-144597380D02*
X157606904Y-144597380D01*
X157892619Y-144597380D02*
X157892619Y-143597380D01*
X157797380Y-143740238D01*
X157702142Y-143835476D01*
X157606904Y-143883095D01*
X155321190Y-149153571D02*
X154987857Y-149153571D01*
X154987857Y-149677380D02*
X154987857Y-148677380D01*
X155464047Y-148677380D01*
X155845000Y-149677380D02*
X155845000Y-148677380D01*
X156892619Y-149677380D02*
X156559285Y-149201190D01*
X156321190Y-149677380D02*
X156321190Y-148677380D01*
X156702142Y-148677380D01*
X156797380Y-148725000D01*
X156845000Y-148772619D01*
X156892619Y-148867857D01*
X156892619Y-149010714D01*
X156845000Y-149105952D01*
X156797380Y-149153571D01*
X156702142Y-149201190D01*
X156321190Y-149201190D01*
X157321190Y-149153571D02*
X157654523Y-149153571D01*
X157797380Y-149677380D02*
X157321190Y-149677380D01*
X157321190Y-148677380D01*
X157797380Y-148677380D01*
X158749761Y-149677380D02*
X158178333Y-149677380D01*
X158464047Y-149677380D02*
X158464047Y-148677380D01*
X158368809Y-148820238D01*
X158273571Y-148915476D01*
X158178333Y-148963095D01*
D12*
X144799285Y-112756904D02*
X144418333Y-112756904D01*
X144418333Y-111956904D01*
X145065952Y-112337857D02*
X145332619Y-112337857D01*
X145446904Y-112756904D02*
X145065952Y-112756904D01*
X145065952Y-111956904D01*
X145446904Y-111956904D01*
X145789761Y-112756904D02*
X145789761Y-111956904D01*
X145980238Y-111956904D01*
X146094523Y-111995000D01*
X146170714Y-112071190D01*
X146208809Y-112147380D01*
X146246904Y-112299761D01*
X146246904Y-112414047D01*
X146208809Y-112566428D01*
X146170714Y-112642619D01*
X146094523Y-112718809D01*
X145980238Y-112756904D01*
X145789761Y-112756904D01*
X146399285Y-112833095D02*
X147008809Y-112833095D01*
X147161190Y-112718809D02*
X147275476Y-112756904D01*
X147465952Y-112756904D01*
X147542142Y-112718809D01*
X147580238Y-112680714D01*
X147618333Y-112604523D01*
X147618333Y-112528333D01*
X147580238Y-112452142D01*
X147542142Y-112414047D01*
X147465952Y-112375952D01*
X147313571Y-112337857D01*
X147237380Y-112299761D01*
X147199285Y-112261666D01*
X147161190Y-112185476D01*
X147161190Y-112109285D01*
X147199285Y-112033095D01*
X147237380Y-111995000D01*
X147313571Y-111956904D01*
X147504047Y-111956904D01*
X147618333Y-111995000D01*
X147961190Y-112337857D02*
X148227857Y-112337857D01*
X148342142Y-112756904D02*
X147961190Y-112756904D01*
X147961190Y-111956904D01*
X148342142Y-111956904D01*
X149065952Y-112756904D02*
X148685000Y-112756904D01*
X148685000Y-111956904D01*
X145383333Y-103701904D02*
X145383333Y-104273333D01*
X145345238Y-104387619D01*
X145269047Y-104463809D01*
X145154761Y-104501904D01*
X145078571Y-104501904D01*
X145764285Y-104501904D02*
X145764285Y-103701904D01*
X146069047Y-103701904D01*
X146145238Y-103740000D01*
X146183333Y-103778095D01*
X146221428Y-103854285D01*
X146221428Y-103968571D01*
X146183333Y-104044761D01*
X146145238Y-104082857D01*
X146069047Y-104120952D01*
X145764285Y-104120952D01*
X146945238Y-103701904D02*
X146564285Y-103701904D01*
X146526190Y-104082857D01*
X146564285Y-104044761D01*
X146640476Y-104006666D01*
X146830952Y-104006666D01*
X146907142Y-104044761D01*
X146945238Y-104082857D01*
X146983333Y-104159047D01*
X146983333Y-104349523D01*
X146945238Y-104425714D01*
X146907142Y-104463809D01*
X146830952Y-104501904D01*
X146640476Y-104501904D01*
X146564285Y-104463809D01*
X146526190Y-104425714D01*
X208838809Y-100133095D02*
X208762619Y-100095000D01*
X208686428Y-100018809D01*
X208572142Y-99904523D01*
X208495952Y-99866428D01*
X208419761Y-99866428D01*
X208457857Y-100056904D02*
X208381666Y-100018809D01*
X208305476Y-99942619D01*
X208267380Y-99790238D01*
X208267380Y-99523571D01*
X208305476Y-99371190D01*
X208381666Y-99295000D01*
X208457857Y-99256904D01*
X208610238Y-99256904D01*
X208686428Y-99295000D01*
X208762619Y-99371190D01*
X208800714Y-99523571D01*
X208800714Y-99790238D01*
X208762619Y-99942619D01*
X208686428Y-100018809D01*
X208610238Y-100056904D01*
X208457857Y-100056904D01*
X209562619Y-100056904D02*
X209105476Y-100056904D01*
X209334047Y-100056904D02*
X209334047Y-99256904D01*
X209257857Y-99371190D01*
X209181666Y-99447380D01*
X209105476Y-99485476D01*
X207505476Y-102939904D02*
X208000714Y-102939904D01*
X207734047Y-103244666D01*
X207848333Y-103244666D01*
X207924523Y-103282761D01*
X207962619Y-103320857D01*
X208000714Y-103397047D01*
X208000714Y-103587523D01*
X207962619Y-103663714D01*
X207924523Y-103701809D01*
X207848333Y-103739904D01*
X207619761Y-103739904D01*
X207543571Y-103701809D01*
X207505476Y-103663714D01*
X208381666Y-103739904D02*
X208534047Y-103739904D01*
X208610238Y-103701809D01*
X208648333Y-103663714D01*
X208724523Y-103549428D01*
X208762619Y-103397047D01*
X208762619Y-103092285D01*
X208724523Y-103016095D01*
X208686428Y-102978000D01*
X208610238Y-102939904D01*
X208457857Y-102939904D01*
X208381666Y-102978000D01*
X208343571Y-103016095D01*
X208305476Y-103092285D01*
X208305476Y-103282761D01*
X208343571Y-103358952D01*
X208381666Y-103397047D01*
X208457857Y-103435142D01*
X208610238Y-103435142D01*
X208686428Y-103397047D01*
X208724523Y-103358952D01*
X208762619Y-103282761D01*
X209257857Y-102939904D02*
X209334047Y-102939904D01*
X209410238Y-102978000D01*
X209448333Y-103016095D01*
X209486428Y-103092285D01*
X209524523Y-103244666D01*
X209524523Y-103435142D01*
X209486428Y-103587523D01*
X209448333Y-103663714D01*
X209410238Y-103701809D01*
X209334047Y-103739904D01*
X209257857Y-103739904D01*
X209181666Y-103701809D01*
X209143571Y-103663714D01*
X209105476Y-103587523D01*
X209067380Y-103435142D01*
X209067380Y-103244666D01*
X209105476Y-103092285D01*
X209143571Y-103016095D01*
X209181666Y-102978000D01*
X209257857Y-102939904D01*
X210210238Y-103206571D02*
X210210238Y-103739904D01*
X210019761Y-102901809D02*
X209829285Y-103473238D01*
X210324523Y-103473238D01*
X208267380Y-101746095D02*
X208305476Y-101708000D01*
X208381666Y-101669904D01*
X208572142Y-101669904D01*
X208648333Y-101708000D01*
X208686428Y-101746095D01*
X208724523Y-101822285D01*
X208724523Y-101898476D01*
X208686428Y-102012761D01*
X208229285Y-102469904D01*
X208724523Y-102469904D01*
X209067380Y-102469904D02*
X209067380Y-101669904D01*
X209524523Y-102469904D01*
X209524523Y-101669904D01*
X195941904Y-108464285D02*
X195560952Y-108730952D01*
X195941904Y-108921428D02*
X195141904Y-108921428D01*
X195141904Y-108616666D01*
X195180000Y-108540476D01*
X195218095Y-108502380D01*
X195294285Y-108464285D01*
X195408571Y-108464285D01*
X195484761Y-108502380D01*
X195522857Y-108540476D01*
X195560952Y-108616666D01*
X195560952Y-108921428D01*
X195941904Y-107702380D02*
X195941904Y-108159523D01*
X195941904Y-107930952D02*
X195141904Y-107930952D01*
X195256190Y-108007142D01*
X195332380Y-108083333D01*
X195370476Y-108159523D01*
X195141904Y-107435714D02*
X195141904Y-106940476D01*
X195446666Y-107207142D01*
X195446666Y-107092857D01*
X195484761Y-107016666D01*
X195522857Y-106978571D01*
X195599047Y-106940476D01*
X195789523Y-106940476D01*
X195865714Y-106978571D01*
X195903809Y-107016666D01*
X195941904Y-107092857D01*
X195941904Y-107321428D01*
X195903809Y-107397619D01*
X195865714Y-107435714D01*
D10*
X199270952Y-108402380D02*
X198699523Y-108402380D01*
X198985238Y-108402380D02*
X198985238Y-107402380D01*
X198890000Y-107545238D01*
X198794761Y-107640476D01*
X198699523Y-107688095D01*
X199699523Y-108402380D02*
X199699523Y-107402380D01*
X199794761Y-108021428D02*
X200080476Y-108402380D01*
X200080476Y-107735714D02*
X199699523Y-108116666D01*
D12*
X143376666Y-118471904D02*
X143110000Y-118090952D01*
X142919523Y-118471904D02*
X142919523Y-117671904D01*
X143224285Y-117671904D01*
X143300476Y-117710000D01*
X143338571Y-117748095D01*
X143376666Y-117824285D01*
X143376666Y-117938571D01*
X143338571Y-118014761D01*
X143300476Y-118052857D01*
X143224285Y-118090952D01*
X142919523Y-118090952D01*
X143833809Y-118014761D02*
X143757619Y-117976666D01*
X143719523Y-117938571D01*
X143681428Y-117862380D01*
X143681428Y-117824285D01*
X143719523Y-117748095D01*
X143757619Y-117710000D01*
X143833809Y-117671904D01*
X143986190Y-117671904D01*
X144062380Y-117710000D01*
X144100476Y-117748095D01*
X144138571Y-117824285D01*
X144138571Y-117862380D01*
X144100476Y-117938571D01*
X144062380Y-117976666D01*
X143986190Y-118014761D01*
X143833809Y-118014761D01*
X143757619Y-118052857D01*
X143719523Y-118090952D01*
X143681428Y-118167142D01*
X143681428Y-118319523D01*
X143719523Y-118395714D01*
X143757619Y-118433809D01*
X143833809Y-118471904D01*
X143986190Y-118471904D01*
X144062380Y-118433809D01*
X144100476Y-118395714D01*
X144138571Y-118319523D01*
X144138571Y-118167142D01*
X144100476Y-118090952D01*
X144062380Y-118052857D01*
X143986190Y-118014761D01*
D10*
X142962380Y-122570714D02*
X142962380Y-121951666D01*
X143343333Y-122285000D01*
X143343333Y-122142142D01*
X143390952Y-122046904D01*
X143438571Y-121999285D01*
X143533809Y-121951666D01*
X143771904Y-121951666D01*
X143867142Y-121999285D01*
X143914761Y-122046904D01*
X143962380Y-122142142D01*
X143962380Y-122427857D01*
X143914761Y-122523095D01*
X143867142Y-122570714D01*
X142962380Y-121618333D02*
X142962380Y-120999285D01*
X143343333Y-121332619D01*
X143343333Y-121189761D01*
X143390952Y-121094523D01*
X143438571Y-121046904D01*
X143533809Y-120999285D01*
X143771904Y-120999285D01*
X143867142Y-121046904D01*
X143914761Y-121094523D01*
X143962380Y-121189761D01*
X143962380Y-121475476D01*
X143914761Y-121570714D01*
X143867142Y-121618333D01*
X142962380Y-120380238D02*
X142962380Y-120285000D01*
X143010000Y-120189761D01*
X143057619Y-120142142D01*
X143152857Y-120094523D01*
X143343333Y-120046904D01*
X143581428Y-120046904D01*
X143771904Y-120094523D01*
X143867142Y-120142142D01*
X143914761Y-120189761D01*
X143962380Y-120285000D01*
X143962380Y-120380238D01*
X143914761Y-120475476D01*
X143867142Y-120523095D01*
X143771904Y-120570714D01*
X143581428Y-120618333D01*
X143343333Y-120618333D01*
X143152857Y-120570714D01*
X143057619Y-120523095D01*
X143010000Y-120475476D01*
X142962380Y-120380238D01*
D12*
X147186666Y-118471904D02*
X146920000Y-118090952D01*
X146729523Y-118471904D02*
X146729523Y-117671904D01*
X147034285Y-117671904D01*
X147110476Y-117710000D01*
X147148571Y-117748095D01*
X147186666Y-117824285D01*
X147186666Y-117938571D01*
X147148571Y-118014761D01*
X147110476Y-118052857D01*
X147034285Y-118090952D01*
X146729523Y-118090952D01*
X147453333Y-117671904D02*
X147986666Y-117671904D01*
X147643809Y-118471904D01*
D10*
X146772380Y-122570714D02*
X146772380Y-121951666D01*
X147153333Y-122285000D01*
X147153333Y-122142142D01*
X147200952Y-122046904D01*
X147248571Y-121999285D01*
X147343809Y-121951666D01*
X147581904Y-121951666D01*
X147677142Y-121999285D01*
X147724761Y-122046904D01*
X147772380Y-122142142D01*
X147772380Y-122427857D01*
X147724761Y-122523095D01*
X147677142Y-122570714D01*
X146772380Y-121618333D02*
X146772380Y-120999285D01*
X147153333Y-121332619D01*
X147153333Y-121189761D01*
X147200952Y-121094523D01*
X147248571Y-121046904D01*
X147343809Y-120999285D01*
X147581904Y-120999285D01*
X147677142Y-121046904D01*
X147724761Y-121094523D01*
X147772380Y-121189761D01*
X147772380Y-121475476D01*
X147724761Y-121570714D01*
X147677142Y-121618333D01*
X146772380Y-120380238D02*
X146772380Y-120285000D01*
X146820000Y-120189761D01*
X146867619Y-120142142D01*
X146962857Y-120094523D01*
X147153333Y-120046904D01*
X147391428Y-120046904D01*
X147581904Y-120094523D01*
X147677142Y-120142142D01*
X147724761Y-120189761D01*
X147772380Y-120285000D01*
X147772380Y-120380238D01*
X147724761Y-120475476D01*
X147677142Y-120523095D01*
X147581904Y-120570714D01*
X147391428Y-120618333D01*
X147153333Y-120618333D01*
X146962857Y-120570714D01*
X146867619Y-120523095D01*
X146820000Y-120475476D01*
X146772380Y-120380238D01*
X179871666Y-101679285D02*
X179871666Y-101203095D01*
X180157380Y-101774523D02*
X179157380Y-101441190D01*
X180157380Y-101107857D01*
X180157380Y-100250714D02*
X180157380Y-100822142D01*
X180157380Y-100536428D02*
X179157380Y-100536428D01*
X179300238Y-100631666D01*
X179395476Y-100726904D01*
X179443095Y-100822142D01*
X177331666Y-107584047D02*
X177331666Y-107107857D01*
X177617380Y-107679285D02*
X176617380Y-107345952D01*
X177617380Y-107012619D01*
X177617380Y-106679285D02*
X176950714Y-106679285D01*
X177141190Y-106679285D02*
X177045952Y-106631666D01*
X176998333Y-106584047D01*
X176950714Y-106488809D01*
X176950714Y-106393571D01*
X177617380Y-105631666D02*
X176617380Y-105631666D01*
X177569761Y-105631666D02*
X177617380Y-105726904D01*
X177617380Y-105917380D01*
X177569761Y-106012619D01*
X177522142Y-106060238D01*
X177426904Y-106107857D01*
X177141190Y-106107857D01*
X177045952Y-106060238D01*
X176998333Y-106012619D01*
X176950714Y-105917380D01*
X176950714Y-105726904D01*
X176998333Y-105631666D01*
X176950714Y-104726904D02*
X177617380Y-104726904D01*
X176950714Y-105155476D02*
X177474523Y-105155476D01*
X177569761Y-105107857D01*
X177617380Y-105012619D01*
X177617380Y-104869761D01*
X177569761Y-104774523D01*
X177522142Y-104726904D01*
X177617380Y-104250714D02*
X176950714Y-104250714D01*
X176617380Y-104250714D02*
X176665000Y-104298333D01*
X176712619Y-104250714D01*
X176665000Y-104203095D01*
X176617380Y-104250714D01*
X176712619Y-104250714D01*
X176950714Y-103774523D02*
X177617380Y-103774523D01*
X177045952Y-103774523D02*
X176998333Y-103726904D01*
X176950714Y-103631666D01*
X176950714Y-103488809D01*
X176998333Y-103393571D01*
X177093571Y-103345952D01*
X177617380Y-103345952D01*
X177617380Y-102726904D02*
X177569761Y-102822142D01*
X177522142Y-102869761D01*
X177426904Y-102917380D01*
X177141190Y-102917380D01*
X177045952Y-102869761D01*
X176998333Y-102822142D01*
X176950714Y-102726904D01*
X176950714Y-102584047D01*
X176998333Y-102488809D01*
X177045952Y-102441190D01*
X177141190Y-102393571D01*
X177426904Y-102393571D01*
X177522142Y-102441190D01*
X177569761Y-102488809D01*
X177617380Y-102584047D01*
X177617380Y-102726904D01*
X177712619Y-102203095D02*
X177712619Y-101441190D01*
X177617380Y-101203095D02*
X176617380Y-101203095D01*
X176617380Y-100822142D01*
X176665000Y-100726904D01*
X176712619Y-100679285D01*
X176807857Y-100631666D01*
X176950714Y-100631666D01*
X177045952Y-100679285D01*
X177093571Y-100726904D01*
X177141190Y-100822142D01*
X177141190Y-101203095D01*
X177617380Y-100203095D02*
X176950714Y-100203095D01*
X177141190Y-100203095D02*
X177045952Y-100155476D01*
X176998333Y-100107857D01*
X176950714Y-100012619D01*
X176950714Y-99917380D01*
X177617380Y-99441190D02*
X177569761Y-99536428D01*
X177522142Y-99584047D01*
X177426904Y-99631666D01*
X177141190Y-99631666D01*
X177045952Y-99584047D01*
X176998333Y-99536428D01*
X176950714Y-99441190D01*
X176950714Y-99298333D01*
X176998333Y-99203095D01*
X177045952Y-99155476D01*
X177141190Y-99107857D01*
X177426904Y-99107857D01*
X177522142Y-99155476D01*
X177569761Y-99203095D01*
X177617380Y-99298333D01*
X177617380Y-99441190D01*
X177712619Y-98917380D02*
X177712619Y-98155476D01*
X177617380Y-97917380D02*
X176617380Y-97917380D01*
X177331666Y-97584047D01*
X176617380Y-97250714D01*
X177617380Y-97250714D01*
X177617380Y-96774523D02*
X176950714Y-96774523D01*
X176617380Y-96774523D02*
X176665000Y-96822142D01*
X176712619Y-96774523D01*
X176665000Y-96726904D01*
X176617380Y-96774523D01*
X176712619Y-96774523D01*
X177569761Y-95869761D02*
X177617380Y-95965000D01*
X177617380Y-96155476D01*
X177569761Y-96250714D01*
X177522142Y-96298333D01*
X177426904Y-96345952D01*
X177141190Y-96345952D01*
X177045952Y-96298333D01*
X176998333Y-96250714D01*
X176950714Y-96155476D01*
X176950714Y-95965000D01*
X176998333Y-95869761D01*
X177617380Y-95441190D02*
X176950714Y-95441190D01*
X177141190Y-95441190D02*
X177045952Y-95393571D01*
X176998333Y-95345952D01*
X176950714Y-95250714D01*
X176950714Y-95155476D01*
X177617380Y-94679285D02*
X177569761Y-94774523D01*
X177522142Y-94822142D01*
X177426904Y-94869761D01*
X177141190Y-94869761D01*
X177045952Y-94822142D01*
X176998333Y-94774523D01*
X176950714Y-94679285D01*
X176950714Y-94536428D01*
X176998333Y-94441190D01*
X177045952Y-94393571D01*
X177141190Y-94345952D01*
X177426904Y-94345952D01*
X177522142Y-94393571D01*
X177569761Y-94441190D01*
X177617380Y-94536428D01*
X177617380Y-94679285D01*
X175101428Y-115022380D02*
X175720476Y-115022380D01*
X175387142Y-115403333D01*
X175530000Y-115403333D01*
X175625238Y-115450952D01*
X175672857Y-115498571D01*
X175720476Y-115593809D01*
X175720476Y-115831904D01*
X175672857Y-115927142D01*
X175625238Y-115974761D01*
X175530000Y-116022380D01*
X175244285Y-116022380D01*
X175149047Y-115974761D01*
X175101428Y-115927142D01*
X176149047Y-115927142D02*
X176196666Y-115974761D01*
X176149047Y-116022380D01*
X176101428Y-115974761D01*
X176149047Y-115927142D01*
X176149047Y-116022380D01*
X176530000Y-115022380D02*
X177149047Y-115022380D01*
X176815714Y-115403333D01*
X176958571Y-115403333D01*
X177053809Y-115450952D01*
X177101428Y-115498571D01*
X177149047Y-115593809D01*
X177149047Y-115831904D01*
X177101428Y-115927142D01*
X177053809Y-115974761D01*
X176958571Y-116022380D01*
X176672857Y-116022380D01*
X176577619Y-115974761D01*
X176530000Y-115927142D01*
X177482380Y-115355714D02*
X177720476Y-116022380D01*
X177958571Y-115355714D01*
X177022142Y-113117380D02*
X176545952Y-113117380D01*
X176498333Y-113593571D01*
X176545952Y-113545952D01*
X176641190Y-113498333D01*
X176879285Y-113498333D01*
X176974523Y-113545952D01*
X177022142Y-113593571D01*
X177069761Y-113688809D01*
X177069761Y-113926904D01*
X177022142Y-114022142D01*
X176974523Y-114069761D01*
X176879285Y-114117380D01*
X176641190Y-114117380D01*
X176545952Y-114069761D01*
X176498333Y-114022142D01*
X177403095Y-113450714D02*
X177641190Y-114117380D01*
X177879285Y-113450714D01*
X155511666Y-123594761D02*
X155654523Y-123642380D01*
X155892619Y-123642380D01*
X155987857Y-123594761D01*
X156035476Y-123547142D01*
X156083095Y-123451904D01*
X156083095Y-123356666D01*
X156035476Y-123261428D01*
X155987857Y-123213809D01*
X155892619Y-123166190D01*
X155702142Y-123118571D01*
X155606904Y-123070952D01*
X155559285Y-123023333D01*
X155511666Y-122928095D01*
X155511666Y-122832857D01*
X155559285Y-122737619D01*
X155606904Y-122690000D01*
X155702142Y-122642380D01*
X155940238Y-122642380D01*
X156083095Y-122690000D01*
X156416428Y-122642380D02*
X156654523Y-123642380D01*
X156845000Y-122928095D01*
X157035476Y-123642380D01*
X157273571Y-122642380D01*
X157606904Y-122737619D02*
X157654523Y-122690000D01*
X157749761Y-122642380D01*
X157987857Y-122642380D01*
X158083095Y-122690000D01*
X158130714Y-122737619D01*
X158178333Y-122832857D01*
X158178333Y-122928095D01*
X158130714Y-123070952D01*
X157559285Y-123642380D01*
X158178333Y-123642380D01*
X155321190Y-128198571D02*
X154987857Y-128198571D01*
X154987857Y-128722380D02*
X154987857Y-127722380D01*
X155464047Y-127722380D01*
X155845000Y-128722380D02*
X155845000Y-127722380D01*
X156892619Y-128722380D02*
X156559285Y-128246190D01*
X156321190Y-128722380D02*
X156321190Y-127722380D01*
X156702142Y-127722380D01*
X156797380Y-127770000D01*
X156845000Y-127817619D01*
X156892619Y-127912857D01*
X156892619Y-128055714D01*
X156845000Y-128150952D01*
X156797380Y-128198571D01*
X156702142Y-128246190D01*
X156321190Y-128246190D01*
X157321190Y-128198571D02*
X157654523Y-128198571D01*
X157797380Y-128722380D02*
X157321190Y-128722380D01*
X157321190Y-127722380D01*
X157797380Y-127722380D01*
X158178333Y-127817619D02*
X158225952Y-127770000D01*
X158321190Y-127722380D01*
X158559285Y-127722380D01*
X158654523Y-127770000D01*
X158702142Y-127817619D01*
X158749761Y-127912857D01*
X158749761Y-128008095D01*
X158702142Y-128150952D01*
X158130714Y-128722380D01*
X158749761Y-128722380D01*
X155511666Y-102639761D02*
X155654523Y-102687380D01*
X155892619Y-102687380D01*
X155987857Y-102639761D01*
X156035476Y-102592142D01*
X156083095Y-102496904D01*
X156083095Y-102401666D01*
X156035476Y-102306428D01*
X155987857Y-102258809D01*
X155892619Y-102211190D01*
X155702142Y-102163571D01*
X155606904Y-102115952D01*
X155559285Y-102068333D01*
X155511666Y-101973095D01*
X155511666Y-101877857D01*
X155559285Y-101782619D01*
X155606904Y-101735000D01*
X155702142Y-101687380D01*
X155940238Y-101687380D01*
X156083095Y-101735000D01*
X156416428Y-101687380D02*
X156654523Y-102687380D01*
X156845000Y-101973095D01*
X157035476Y-102687380D01*
X157273571Y-101687380D01*
X157559285Y-101687380D02*
X158178333Y-101687380D01*
X157845000Y-102068333D01*
X157987857Y-102068333D01*
X158083095Y-102115952D01*
X158130714Y-102163571D01*
X158178333Y-102258809D01*
X158178333Y-102496904D01*
X158130714Y-102592142D01*
X158083095Y-102639761D01*
X157987857Y-102687380D01*
X157702142Y-102687380D01*
X157606904Y-102639761D01*
X157559285Y-102592142D01*
X155321190Y-107243571D02*
X154987857Y-107243571D01*
X154987857Y-107767380D02*
X154987857Y-106767380D01*
X155464047Y-106767380D01*
X155845000Y-107767380D02*
X155845000Y-106767380D01*
X156892619Y-107767380D02*
X156559285Y-107291190D01*
X156321190Y-107767380D02*
X156321190Y-106767380D01*
X156702142Y-106767380D01*
X156797380Y-106815000D01*
X156845000Y-106862619D01*
X156892619Y-106957857D01*
X156892619Y-107100714D01*
X156845000Y-107195952D01*
X156797380Y-107243571D01*
X156702142Y-107291190D01*
X156321190Y-107291190D01*
X157321190Y-107243571D02*
X157654523Y-107243571D01*
X157797380Y-107767380D02*
X157321190Y-107767380D01*
X157321190Y-106767380D01*
X157797380Y-106767380D01*
X158130714Y-106767380D02*
X158749761Y-106767380D01*
X158416428Y-107148333D01*
X158559285Y-107148333D01*
X158654523Y-107195952D01*
X158702142Y-107243571D01*
X158749761Y-107338809D01*
X158749761Y-107576904D01*
X158702142Y-107672142D01*
X158654523Y-107719761D01*
X158559285Y-107767380D01*
X158273571Y-107767380D01*
X158178333Y-107719761D01*
X158130714Y-107672142D01*
X202501666Y-123594761D02*
X202644523Y-123642380D01*
X202882619Y-123642380D01*
X202977857Y-123594761D01*
X203025476Y-123547142D01*
X203073095Y-123451904D01*
X203073095Y-123356666D01*
X203025476Y-123261428D01*
X202977857Y-123213809D01*
X202882619Y-123166190D01*
X202692142Y-123118571D01*
X202596904Y-123070952D01*
X202549285Y-123023333D01*
X202501666Y-122928095D01*
X202501666Y-122832857D01*
X202549285Y-122737619D01*
X202596904Y-122690000D01*
X202692142Y-122642380D01*
X202930238Y-122642380D01*
X203073095Y-122690000D01*
X203406428Y-122642380D02*
X203644523Y-123642380D01*
X203835000Y-122928095D01*
X204025476Y-123642380D01*
X204263571Y-122642380D01*
X205073095Y-122975714D02*
X205073095Y-123642380D01*
X204835000Y-122594761D02*
X204596904Y-123309047D01*
X205215952Y-123309047D01*
X203049285Y-127722380D02*
X203049285Y-128531904D01*
X203096904Y-128627142D01*
X203144523Y-128674761D01*
X203239761Y-128722380D01*
X203430238Y-128722380D01*
X203525476Y-128674761D01*
X203573095Y-128627142D01*
X203620714Y-128531904D01*
X203620714Y-127722380D01*
X204096904Y-128722380D02*
X204096904Y-127722380D01*
X204477857Y-127722380D01*
X204573095Y-127770000D01*
X204620714Y-127817619D01*
X204668333Y-127912857D01*
X204668333Y-128055714D01*
X204620714Y-128150952D01*
X204573095Y-128198571D01*
X204477857Y-128246190D01*
X204096904Y-128246190D01*
X202501666Y-144549761D02*
X202644523Y-144597380D01*
X202882619Y-144597380D01*
X202977857Y-144549761D01*
X203025476Y-144502142D01*
X203073095Y-144406904D01*
X203073095Y-144311666D01*
X203025476Y-144216428D01*
X202977857Y-144168809D01*
X202882619Y-144121190D01*
X202692142Y-144073571D01*
X202596904Y-144025952D01*
X202549285Y-143978333D01*
X202501666Y-143883095D01*
X202501666Y-143787857D01*
X202549285Y-143692619D01*
X202596904Y-143645000D01*
X202692142Y-143597380D01*
X202930238Y-143597380D01*
X203073095Y-143645000D01*
X203406428Y-143597380D02*
X203644523Y-144597380D01*
X203835000Y-143883095D01*
X204025476Y-144597380D01*
X204263571Y-143597380D01*
X205120714Y-143597380D02*
X204644523Y-143597380D01*
X204596904Y-144073571D01*
X204644523Y-144025952D01*
X204739761Y-143978333D01*
X204977857Y-143978333D01*
X205073095Y-144025952D01*
X205120714Y-144073571D01*
X205168333Y-144168809D01*
X205168333Y-144406904D01*
X205120714Y-144502142D01*
X205073095Y-144549761D01*
X204977857Y-144597380D01*
X204739761Y-144597380D01*
X204644523Y-144549761D01*
X204596904Y-144502142D01*
X201954047Y-149677380D02*
X201954047Y-148677380D01*
X202192142Y-148677380D01*
X202335000Y-148725000D01*
X202430238Y-148820238D01*
X202477857Y-148915476D01*
X202525476Y-149105952D01*
X202525476Y-149248809D01*
X202477857Y-149439285D01*
X202430238Y-149534523D01*
X202335000Y-149629761D01*
X202192142Y-149677380D01*
X201954047Y-149677380D01*
X203144523Y-148677380D02*
X203335000Y-148677380D01*
X203430238Y-148725000D01*
X203525476Y-148820238D01*
X203573095Y-149010714D01*
X203573095Y-149344047D01*
X203525476Y-149534523D01*
X203430238Y-149629761D01*
X203335000Y-149677380D01*
X203144523Y-149677380D01*
X203049285Y-149629761D01*
X202954047Y-149534523D01*
X202906428Y-149344047D01*
X202906428Y-149010714D01*
X202954047Y-148820238D01*
X203049285Y-148725000D01*
X203144523Y-148677380D01*
X203906428Y-148677380D02*
X204144523Y-149677380D01*
X204335000Y-148963095D01*
X204525476Y-149677380D01*
X204763571Y-148677380D01*
X205144523Y-149677380D02*
X205144523Y-148677380D01*
X205715952Y-149677380D01*
X205715952Y-148677380D01*
X181546666Y-144549761D02*
X181689523Y-144597380D01*
X181927619Y-144597380D01*
X182022857Y-144549761D01*
X182070476Y-144502142D01*
X182118095Y-144406904D01*
X182118095Y-144311666D01*
X182070476Y-144216428D01*
X182022857Y-144168809D01*
X181927619Y-144121190D01*
X181737142Y-144073571D01*
X181641904Y-144025952D01*
X181594285Y-143978333D01*
X181546666Y-143883095D01*
X181546666Y-143787857D01*
X181594285Y-143692619D01*
X181641904Y-143645000D01*
X181737142Y-143597380D01*
X181975238Y-143597380D01*
X182118095Y-143645000D01*
X182451428Y-143597380D02*
X182689523Y-144597380D01*
X182880000Y-143883095D01*
X183070476Y-144597380D01*
X183308571Y-143597380D01*
X184118095Y-143597380D02*
X183927619Y-143597380D01*
X183832380Y-143645000D01*
X183784761Y-143692619D01*
X183689523Y-143835476D01*
X183641904Y-144025952D01*
X183641904Y-144406904D01*
X183689523Y-144502142D01*
X183737142Y-144549761D01*
X183832380Y-144597380D01*
X184022857Y-144597380D01*
X184118095Y-144549761D01*
X184165714Y-144502142D01*
X184213333Y-144406904D01*
X184213333Y-144168809D01*
X184165714Y-144073571D01*
X184118095Y-144025952D01*
X184022857Y-143978333D01*
X183832380Y-143978333D01*
X183737142Y-144025952D01*
X183689523Y-144073571D01*
X183641904Y-144168809D01*
X181927619Y-149677380D02*
X181451428Y-149677380D01*
X181451428Y-148677380D01*
X182260952Y-149153571D02*
X182594285Y-149153571D01*
X182737142Y-149677380D02*
X182260952Y-149677380D01*
X182260952Y-148677380D01*
X182737142Y-148677380D01*
X183499047Y-149153571D02*
X183165714Y-149153571D01*
X183165714Y-149677380D02*
X183165714Y-148677380D01*
X183641904Y-148677380D01*
X183880000Y-148677380D02*
X184451428Y-148677380D01*
X184165714Y-149677380D02*
X184165714Y-148677380D01*
X223456666Y-144549761D02*
X223599523Y-144597380D01*
X223837619Y-144597380D01*
X223932857Y-144549761D01*
X223980476Y-144502142D01*
X224028095Y-144406904D01*
X224028095Y-144311666D01*
X223980476Y-144216428D01*
X223932857Y-144168809D01*
X223837619Y-144121190D01*
X223647142Y-144073571D01*
X223551904Y-144025952D01*
X223504285Y-143978333D01*
X223456666Y-143883095D01*
X223456666Y-143787857D01*
X223504285Y-143692619D01*
X223551904Y-143645000D01*
X223647142Y-143597380D01*
X223885238Y-143597380D01*
X224028095Y-143645000D01*
X224361428Y-143597380D02*
X224599523Y-144597380D01*
X224790000Y-143883095D01*
X224980476Y-144597380D01*
X225218571Y-143597380D01*
X225504285Y-143597380D02*
X226170952Y-143597380D01*
X225742380Y-144597380D01*
X223456666Y-149677380D02*
X223123333Y-149201190D01*
X222885238Y-149677380D02*
X222885238Y-148677380D01*
X223266190Y-148677380D01*
X223361428Y-148725000D01*
X223409047Y-148772619D01*
X223456666Y-148867857D01*
X223456666Y-149010714D01*
X223409047Y-149105952D01*
X223361428Y-149153571D01*
X223266190Y-149201190D01*
X222885238Y-149201190D01*
X223885238Y-149677380D02*
X223885238Y-148677380D01*
X224885238Y-148725000D02*
X224790000Y-148677380D01*
X224647142Y-148677380D01*
X224504285Y-148725000D01*
X224409047Y-148820238D01*
X224361428Y-148915476D01*
X224313809Y-149105952D01*
X224313809Y-149248809D01*
X224361428Y-149439285D01*
X224409047Y-149534523D01*
X224504285Y-149629761D01*
X224647142Y-149677380D01*
X224742380Y-149677380D01*
X224885238Y-149629761D01*
X224932857Y-149582142D01*
X224932857Y-149248809D01*
X224742380Y-149248809D01*
X225361428Y-149677380D02*
X225361428Y-148677380D01*
X225361428Y-149153571D02*
X225932857Y-149153571D01*
X225932857Y-149677380D02*
X225932857Y-148677380D01*
X226266190Y-148677380D02*
X226837619Y-148677380D01*
X226551904Y-149677380D02*
X226551904Y-148677380D01*
X152296904Y-81732380D02*
X152296904Y-80732380D01*
X152535000Y-80732380D01*
X152677857Y-80780000D01*
X152773095Y-80875238D01*
X152820714Y-80970476D01*
X152868333Y-81160952D01*
X152868333Y-81303809D01*
X152820714Y-81494285D01*
X152773095Y-81589523D01*
X152677857Y-81684761D01*
X152535000Y-81732380D01*
X152296904Y-81732380D01*
X153820714Y-81732380D02*
X153249285Y-81732380D01*
X153535000Y-81732380D02*
X153535000Y-80732380D01*
X153439761Y-80875238D01*
X153344523Y-80970476D01*
X153249285Y-81018095D01*
D12*
X151968333Y-89261904D02*
X151968333Y-88461904D01*
X152273095Y-88461904D01*
X152349285Y-88500000D01*
X152387380Y-88538095D01*
X152425476Y-88614285D01*
X152425476Y-88728571D01*
X152387380Y-88804761D01*
X152349285Y-88842857D01*
X152273095Y-88880952D01*
X151968333Y-88880952D01*
X152692142Y-88461904D02*
X152882619Y-89261904D01*
X153035000Y-88690476D01*
X153187380Y-89261904D01*
X153377857Y-88461904D01*
X154139761Y-89261904D02*
X153873095Y-88880952D01*
X153682619Y-89261904D02*
X153682619Y-88461904D01*
X153987380Y-88461904D01*
X154063571Y-88500000D01*
X154101666Y-88538095D01*
X154139761Y-88614285D01*
X154139761Y-88728571D01*
X154101666Y-88804761D01*
X154063571Y-88842857D01*
X153987380Y-88880952D01*
X153682619Y-88880952D01*
D10*
X159916904Y-81732380D02*
X159916904Y-80732380D01*
X160155000Y-80732380D01*
X160297857Y-80780000D01*
X160393095Y-80875238D01*
X160440714Y-80970476D01*
X160488333Y-81160952D01*
X160488333Y-81303809D01*
X160440714Y-81494285D01*
X160393095Y-81589523D01*
X160297857Y-81684761D01*
X160155000Y-81732380D01*
X159916904Y-81732380D01*
X160869285Y-80827619D02*
X160916904Y-80780000D01*
X161012142Y-80732380D01*
X161250238Y-80732380D01*
X161345476Y-80780000D01*
X161393095Y-80827619D01*
X161440714Y-80922857D01*
X161440714Y-81018095D01*
X161393095Y-81160952D01*
X160821666Y-81732380D01*
X161440714Y-81732380D01*
D12*
X159702619Y-89223809D02*
X159816904Y-89261904D01*
X160007380Y-89261904D01*
X160083571Y-89223809D01*
X160121666Y-89185714D01*
X160159761Y-89109523D01*
X160159761Y-89033333D01*
X160121666Y-88957142D01*
X160083571Y-88919047D01*
X160007380Y-88880952D01*
X159855000Y-88842857D01*
X159778809Y-88804761D01*
X159740714Y-88766666D01*
X159702619Y-88690476D01*
X159702619Y-88614285D01*
X159740714Y-88538095D01*
X159778809Y-88500000D01*
X159855000Y-88461904D01*
X160045476Y-88461904D01*
X160159761Y-88500000D01*
X160655000Y-88880952D02*
X160655000Y-89261904D01*
X160388333Y-88461904D02*
X160655000Y-88880952D01*
X160921666Y-88461904D01*
X161150238Y-89223809D02*
X161264523Y-89261904D01*
X161455000Y-89261904D01*
X161531190Y-89223809D01*
X161569285Y-89185714D01*
X161607380Y-89109523D01*
X161607380Y-89033333D01*
X161569285Y-88957142D01*
X161531190Y-88919047D01*
X161455000Y-88880952D01*
X161302619Y-88842857D01*
X161226428Y-88804761D01*
X161188333Y-88766666D01*
X161150238Y-88690476D01*
X161150238Y-88614285D01*
X161188333Y-88538095D01*
X161226428Y-88500000D01*
X161302619Y-88461904D01*
X161493095Y-88461904D01*
X161607380Y-88500000D01*
D10*
X172096666Y-126769761D02*
X172239523Y-126817380D01*
X172477619Y-126817380D01*
X172572857Y-126769761D01*
X172620476Y-126722142D01*
X172668095Y-126626904D01*
X172668095Y-126531666D01*
X172620476Y-126436428D01*
X172572857Y-126388809D01*
X172477619Y-126341190D01*
X172287142Y-126293571D01*
X172191904Y-126245952D01*
X172144285Y-126198333D01*
X172096666Y-126103095D01*
X172096666Y-126007857D01*
X172144285Y-125912619D01*
X172191904Y-125865000D01*
X172287142Y-125817380D01*
X172525238Y-125817380D01*
X172668095Y-125865000D01*
X173001428Y-125817380D02*
X173239523Y-126817380D01*
X173430000Y-126103095D01*
X173620476Y-126817380D01*
X173858571Y-125817380D01*
X174382380Y-126245952D02*
X174287142Y-126198333D01*
X174239523Y-126150714D01*
X174191904Y-126055476D01*
X174191904Y-126007857D01*
X174239523Y-125912619D01*
X174287142Y-125865000D01*
X174382380Y-125817380D01*
X174572857Y-125817380D01*
X174668095Y-125865000D01*
X174715714Y-125912619D01*
X174763333Y-126007857D01*
X174763333Y-126055476D01*
X174715714Y-126150714D01*
X174668095Y-126198333D01*
X174572857Y-126245952D01*
X174382380Y-126245952D01*
X174287142Y-126293571D01*
X174239523Y-126341190D01*
X174191904Y-126436428D01*
X174191904Y-126626904D01*
X174239523Y-126722142D01*
X174287142Y-126769761D01*
X174382380Y-126817380D01*
X174572857Y-126817380D01*
X174668095Y-126769761D01*
X174715714Y-126722142D01*
X174763333Y-126626904D01*
X174763333Y-126436428D01*
X174715714Y-126341190D01*
X174668095Y-126293571D01*
X174572857Y-126245952D01*
D12*
X172066095Y-122535904D02*
X171799428Y-122154952D01*
X171608952Y-122535904D02*
X171608952Y-121735904D01*
X171913714Y-121735904D01*
X171989904Y-121774000D01*
X172028000Y-121812095D01*
X172066095Y-121888285D01*
X172066095Y-122002571D01*
X172028000Y-122078761D01*
X171989904Y-122116857D01*
X171913714Y-122154952D01*
X171608952Y-122154952D01*
X172408952Y-122116857D02*
X172675619Y-122116857D01*
X172789904Y-122535904D02*
X172408952Y-122535904D01*
X172408952Y-121735904D01*
X172789904Y-121735904D01*
X173094666Y-122497809D02*
X173208952Y-122535904D01*
X173399428Y-122535904D01*
X173475619Y-122497809D01*
X173513714Y-122459714D01*
X173551809Y-122383523D01*
X173551809Y-122307333D01*
X173513714Y-122231142D01*
X173475619Y-122193047D01*
X173399428Y-122154952D01*
X173247047Y-122116857D01*
X173170857Y-122078761D01*
X173132761Y-122040666D01*
X173094666Y-121964476D01*
X173094666Y-121888285D01*
X173132761Y-121812095D01*
X173170857Y-121774000D01*
X173247047Y-121735904D01*
X173437523Y-121735904D01*
X173551809Y-121774000D01*
X173894666Y-122116857D02*
X174161333Y-122116857D01*
X174275619Y-122535904D02*
X173894666Y-122535904D01*
X173894666Y-121735904D01*
X174275619Y-121735904D01*
X174504190Y-121735904D02*
X174961333Y-121735904D01*
X174732761Y-122535904D02*
X174732761Y-121735904D01*
X235172333Y-116401904D02*
X235172333Y-116973333D01*
X235134238Y-117087619D01*
X235058047Y-117163809D01*
X234943761Y-117201904D01*
X234867571Y-117201904D01*
X235553285Y-117201904D02*
X235553285Y-116401904D01*
X235858047Y-116401904D01*
X235934238Y-116440000D01*
X235972333Y-116478095D01*
X236010428Y-116554285D01*
X236010428Y-116668571D01*
X235972333Y-116744761D01*
X235934238Y-116782857D01*
X235858047Y-116820952D01*
X235553285Y-116820952D01*
X236772333Y-117201904D02*
X236315190Y-117201904D01*
X236543761Y-117201904D02*
X236543761Y-116401904D01*
X236467571Y-116516190D01*
X236391380Y-116592380D01*
X236315190Y-116630476D01*
X230447857Y-121094285D02*
X230447857Y-121360952D01*
X230866904Y-121360952D02*
X230066904Y-121360952D01*
X230066904Y-120980000D01*
X230143095Y-120713333D02*
X230105000Y-120675238D01*
X230066904Y-120599047D01*
X230066904Y-120408571D01*
X230105000Y-120332380D01*
X230143095Y-120294285D01*
X230219285Y-120256190D01*
X230295476Y-120256190D01*
X230409761Y-120294285D01*
X230866904Y-120751428D01*
X230866904Y-120256190D01*
X230943095Y-120103809D02*
X230943095Y-119494285D01*
X230866904Y-119303809D02*
X230066904Y-119303809D01*
X230066904Y-118999047D01*
X230105000Y-118922857D01*
X230143095Y-118884761D01*
X230219285Y-118846666D01*
X230333571Y-118846666D01*
X230409761Y-118884761D01*
X230447857Y-118922857D01*
X230485952Y-118999047D01*
X230485952Y-119303809D01*
X230066904Y-118351428D02*
X230066904Y-118199047D01*
X230105000Y-118122857D01*
X230181190Y-118046666D01*
X230333571Y-118008571D01*
X230600238Y-118008571D01*
X230752619Y-118046666D01*
X230828809Y-118122857D01*
X230866904Y-118199047D01*
X230866904Y-118351428D01*
X230828809Y-118427619D01*
X230752619Y-118503809D01*
X230600238Y-118541904D01*
X230333571Y-118541904D01*
X230181190Y-118503809D01*
X230105000Y-118427619D01*
X230066904Y-118351428D01*
X230866904Y-117284761D02*
X230866904Y-117665714D01*
X230066904Y-117665714D01*
X235172333Y-106241904D02*
X235172333Y-106813333D01*
X235134238Y-106927619D01*
X235058047Y-107003809D01*
X234943761Y-107041904D01*
X234867571Y-107041904D01*
X235553285Y-107041904D02*
X235553285Y-106241904D01*
X235858047Y-106241904D01*
X235934238Y-106280000D01*
X235972333Y-106318095D01*
X236010428Y-106394285D01*
X236010428Y-106508571D01*
X235972333Y-106584761D01*
X235934238Y-106622857D01*
X235858047Y-106660952D01*
X235553285Y-106660952D01*
X236315190Y-106318095D02*
X236353285Y-106280000D01*
X236429476Y-106241904D01*
X236619952Y-106241904D01*
X236696142Y-106280000D01*
X236734238Y-106318095D01*
X236772333Y-106394285D01*
X236772333Y-106470476D01*
X236734238Y-106584761D01*
X236277095Y-107041904D01*
X236772333Y-107041904D01*
X230447857Y-110934285D02*
X230447857Y-111200952D01*
X230866904Y-111200952D02*
X230066904Y-111200952D01*
X230066904Y-110820000D01*
X230066904Y-110591428D02*
X230066904Y-110096190D01*
X230371666Y-110362857D01*
X230371666Y-110248571D01*
X230409761Y-110172380D01*
X230447857Y-110134285D01*
X230524047Y-110096190D01*
X230714523Y-110096190D01*
X230790714Y-110134285D01*
X230828809Y-110172380D01*
X230866904Y-110248571D01*
X230866904Y-110477142D01*
X230828809Y-110553333D01*
X230790714Y-110591428D01*
X230943095Y-109943809D02*
X230943095Y-109334285D01*
X230866904Y-109143809D02*
X230066904Y-109143809D01*
X230066904Y-108839047D01*
X230105000Y-108762857D01*
X230143095Y-108724761D01*
X230219285Y-108686666D01*
X230333571Y-108686666D01*
X230409761Y-108724761D01*
X230447857Y-108762857D01*
X230485952Y-108839047D01*
X230485952Y-109143809D01*
X230066904Y-108191428D02*
X230066904Y-108039047D01*
X230105000Y-107962857D01*
X230181190Y-107886666D01*
X230333571Y-107848571D01*
X230600238Y-107848571D01*
X230752619Y-107886666D01*
X230828809Y-107962857D01*
X230866904Y-108039047D01*
X230866904Y-108191428D01*
X230828809Y-108267619D01*
X230752619Y-108343809D01*
X230600238Y-108381904D01*
X230333571Y-108381904D01*
X230181190Y-108343809D01*
X230105000Y-108267619D01*
X230066904Y-108191428D01*
X230866904Y-107124761D02*
X230866904Y-107505714D01*
X230066904Y-107505714D01*
X235172333Y-96081904D02*
X235172333Y-96653333D01*
X235134238Y-96767619D01*
X235058047Y-96843809D01*
X234943761Y-96881904D01*
X234867571Y-96881904D01*
X235553285Y-96881904D02*
X235553285Y-96081904D01*
X235858047Y-96081904D01*
X235934238Y-96120000D01*
X235972333Y-96158095D01*
X236010428Y-96234285D01*
X236010428Y-96348571D01*
X235972333Y-96424761D01*
X235934238Y-96462857D01*
X235858047Y-96500952D01*
X235553285Y-96500952D01*
X236277095Y-96081904D02*
X236772333Y-96081904D01*
X236505666Y-96386666D01*
X236619952Y-96386666D01*
X236696142Y-96424761D01*
X236734238Y-96462857D01*
X236772333Y-96539047D01*
X236772333Y-96729523D01*
X236734238Y-96805714D01*
X236696142Y-96843809D01*
X236619952Y-96881904D01*
X236391380Y-96881904D01*
X236315190Y-96843809D01*
X236277095Y-96805714D01*
X230447857Y-101650476D02*
X230447857Y-101917142D01*
X230866904Y-101917142D02*
X230066904Y-101917142D01*
X230066904Y-101536190D01*
X230866904Y-101231428D02*
X230066904Y-101231428D01*
X230866904Y-100393333D02*
X230485952Y-100660000D01*
X230866904Y-100850476D02*
X230066904Y-100850476D01*
X230066904Y-100545714D01*
X230105000Y-100469523D01*
X230143095Y-100431428D01*
X230219285Y-100393333D01*
X230333571Y-100393333D01*
X230409761Y-100431428D01*
X230447857Y-100469523D01*
X230485952Y-100545714D01*
X230485952Y-100850476D01*
X230447857Y-100050476D02*
X230447857Y-99783809D01*
X230866904Y-99669523D02*
X230866904Y-100050476D01*
X230066904Y-100050476D01*
X230066904Y-99669523D01*
X230066904Y-99402857D02*
X230066904Y-98907619D01*
X230371666Y-99174285D01*
X230371666Y-99060000D01*
X230409761Y-98983809D01*
X230447857Y-98945714D01*
X230524047Y-98907619D01*
X230714523Y-98907619D01*
X230790714Y-98945714D01*
X230828809Y-98983809D01*
X230866904Y-99060000D01*
X230866904Y-99288571D01*
X230828809Y-99364761D01*
X230790714Y-99402857D01*
X230943095Y-98755238D02*
X230943095Y-98145714D01*
X230828809Y-97993333D02*
X230866904Y-97879047D01*
X230866904Y-97688571D01*
X230828809Y-97612380D01*
X230790714Y-97574285D01*
X230714523Y-97536190D01*
X230638333Y-97536190D01*
X230562142Y-97574285D01*
X230524047Y-97612380D01*
X230485952Y-97688571D01*
X230447857Y-97840952D01*
X230409761Y-97917142D01*
X230371666Y-97955238D01*
X230295476Y-97993333D01*
X230219285Y-97993333D01*
X230143095Y-97955238D01*
X230105000Y-97917142D01*
X230066904Y-97840952D01*
X230066904Y-97650476D01*
X230105000Y-97536190D01*
X230447857Y-97193333D02*
X230447857Y-96926666D01*
X230866904Y-96812380D02*
X230866904Y-97193333D01*
X230066904Y-97193333D01*
X230066904Y-96812380D01*
X230866904Y-96088571D02*
X230866904Y-96469523D01*
X230066904Y-96469523D01*
D10*
X190801666Y-83907380D02*
X190801666Y-84621666D01*
X190754047Y-84764523D01*
X190658809Y-84859761D01*
X190515952Y-84907380D01*
X190420714Y-84907380D01*
X191801666Y-84907380D02*
X191230238Y-84907380D01*
X191515952Y-84907380D02*
X191515952Y-83907380D01*
X191420714Y-84050238D01*
X191325476Y-84145476D01*
X191230238Y-84193095D01*
X213661666Y-83907380D02*
X213661666Y-84621666D01*
X213614047Y-84764523D01*
X213518809Y-84859761D01*
X213375952Y-84907380D01*
X213280714Y-84907380D01*
X214090238Y-84002619D02*
X214137857Y-83955000D01*
X214233095Y-83907380D01*
X214471190Y-83907380D01*
X214566428Y-83955000D01*
X214614047Y-84002619D01*
X214661666Y-84097857D01*
X214661666Y-84193095D01*
X214614047Y-84335952D01*
X214042619Y-84907380D01*
X214661666Y-84907380D01*
D12*
X196894523Y-96246904D02*
X196894523Y-95446904D01*
X197085000Y-95446904D01*
X197199285Y-95485000D01*
X197275476Y-95561190D01*
X197313571Y-95637380D01*
X197351666Y-95789761D01*
X197351666Y-95904047D01*
X197313571Y-96056428D01*
X197275476Y-96132619D01*
X197199285Y-96208809D01*
X197085000Y-96246904D01*
X196894523Y-96246904D01*
X197618333Y-95446904D02*
X198113571Y-95446904D01*
X197846904Y-95751666D01*
X197961190Y-95751666D01*
X198037380Y-95789761D01*
X198075476Y-95827857D01*
X198113571Y-95904047D01*
X198113571Y-96094523D01*
X198075476Y-96170714D01*
X198037380Y-96208809D01*
X197961190Y-96246904D01*
X197732619Y-96246904D01*
X197656428Y-96208809D01*
X197618333Y-96170714D01*
X196208857Y-97516904D02*
X195751714Y-97516904D01*
X195980285Y-97516904D02*
X195980285Y-96716904D01*
X195904095Y-96831190D01*
X195827904Y-96907380D01*
X195751714Y-96945476D01*
X196551714Y-96983571D02*
X196551714Y-97516904D01*
X196551714Y-97059761D02*
X196589809Y-97021666D01*
X196666000Y-96983571D01*
X196780285Y-96983571D01*
X196856476Y-97021666D01*
X196894571Y-97097857D01*
X196894571Y-97516904D01*
X197618380Y-96983571D02*
X197618380Y-97516904D01*
X197427904Y-96678809D02*
X197237428Y-97250238D01*
X197732666Y-97250238D01*
X198189809Y-96716904D02*
X198266000Y-96716904D01*
X198342190Y-96755000D01*
X198380285Y-96793095D01*
X198418380Y-96869285D01*
X198456476Y-97021666D01*
X198456476Y-97212142D01*
X198418380Y-97364523D01*
X198380285Y-97440714D01*
X198342190Y-97478809D01*
X198266000Y-97516904D01*
X198189809Y-97516904D01*
X198113619Y-97478809D01*
X198075523Y-97440714D01*
X198037428Y-97364523D01*
X197999333Y-97212142D01*
X197999333Y-97021666D01*
X198037428Y-96869285D01*
X198075523Y-96793095D01*
X198113619Y-96755000D01*
X198189809Y-96716904D01*
X198951714Y-96716904D02*
X199027904Y-96716904D01*
X199104095Y-96755000D01*
X199142190Y-96793095D01*
X199180285Y-96869285D01*
X199218380Y-97021666D01*
X199218380Y-97212142D01*
X199180285Y-97364523D01*
X199142190Y-97440714D01*
X199104095Y-97478809D01*
X199027904Y-97516904D01*
X198951714Y-97516904D01*
X198875523Y-97478809D01*
X198837428Y-97440714D01*
X198799333Y-97364523D01*
X198761238Y-97212142D01*
X198761238Y-97021666D01*
X198799333Y-96869285D01*
X198837428Y-96793095D01*
X198875523Y-96755000D01*
X198951714Y-96716904D01*
X199980285Y-97516904D02*
X199523142Y-97516904D01*
X199751714Y-97516904D02*
X199751714Y-96716904D01*
X199675523Y-96831190D01*
X199599333Y-96907380D01*
X199523142Y-96945476D01*
D10*
X154122380Y-136628095D02*
X153122380Y-136628095D01*
X153122380Y-136390000D01*
X153170000Y-136247142D01*
X153265238Y-136151904D01*
X153360476Y-136104285D01*
X153550952Y-136056666D01*
X153693809Y-136056666D01*
X153884285Y-136104285D01*
X153979523Y-136151904D01*
X154074761Y-136247142D01*
X154122380Y-136390000D01*
X154122380Y-136628095D01*
X153122380Y-135151904D02*
X153122380Y-135628095D01*
X153598571Y-135675714D01*
X153550952Y-135628095D01*
X153503333Y-135532857D01*
X153503333Y-135294761D01*
X153550952Y-135199523D01*
X153598571Y-135151904D01*
X153693809Y-135104285D01*
X153931904Y-135104285D01*
X154027142Y-135151904D01*
X154074761Y-135199523D01*
X154122380Y-135294761D01*
X154122380Y-135532857D01*
X154074761Y-135628095D01*
X154027142Y-135675714D01*
X154122380Y-115673095D02*
X153122380Y-115673095D01*
X153122380Y-115435000D01*
X153170000Y-115292142D01*
X153265238Y-115196904D01*
X153360476Y-115149285D01*
X153550952Y-115101666D01*
X153693809Y-115101666D01*
X153884285Y-115149285D01*
X153979523Y-115196904D01*
X154074761Y-115292142D01*
X154122380Y-115435000D01*
X154122380Y-115673095D01*
X153122380Y-114244523D02*
X153122380Y-114435000D01*
X153170000Y-114530238D01*
X153217619Y-114577857D01*
X153360476Y-114673095D01*
X153550952Y-114720714D01*
X153931904Y-114720714D01*
X154027142Y-114673095D01*
X154074761Y-114625476D01*
X154122380Y-114530238D01*
X154122380Y-114339761D01*
X154074761Y-114244523D01*
X154027142Y-114196904D01*
X153931904Y-114149285D01*
X153693809Y-114149285D01*
X153598571Y-114196904D01*
X153550952Y-114244523D01*
X153503333Y-114339761D01*
X153503333Y-114530238D01*
X153550952Y-114625476D01*
X153598571Y-114673095D01*
X153693809Y-114720714D01*
X201112380Y-115673095D02*
X200112380Y-115673095D01*
X200112380Y-115435000D01*
X200160000Y-115292142D01*
X200255238Y-115196904D01*
X200350476Y-115149285D01*
X200540952Y-115101666D01*
X200683809Y-115101666D01*
X200874285Y-115149285D01*
X200969523Y-115196904D01*
X201064761Y-115292142D01*
X201112380Y-115435000D01*
X201112380Y-115673095D01*
X200540952Y-114530238D02*
X200493333Y-114625476D01*
X200445714Y-114673095D01*
X200350476Y-114720714D01*
X200302857Y-114720714D01*
X200207619Y-114673095D01*
X200160000Y-114625476D01*
X200112380Y-114530238D01*
X200112380Y-114339761D01*
X200160000Y-114244523D01*
X200207619Y-114196904D01*
X200302857Y-114149285D01*
X200350476Y-114149285D01*
X200445714Y-114196904D01*
X200493333Y-114244523D01*
X200540952Y-114339761D01*
X200540952Y-114530238D01*
X200588571Y-114625476D01*
X200636190Y-114673095D01*
X200731428Y-114720714D01*
X200921904Y-114720714D01*
X201017142Y-114673095D01*
X201064761Y-114625476D01*
X201112380Y-114530238D01*
X201112380Y-114339761D01*
X201064761Y-114244523D01*
X201017142Y-114196904D01*
X200921904Y-114149285D01*
X200731428Y-114149285D01*
X200636190Y-114196904D01*
X200588571Y-114244523D01*
X200540952Y-114339761D01*
X201112380Y-136628095D02*
X200112380Y-136628095D01*
X200112380Y-136390000D01*
X200160000Y-136247142D01*
X200255238Y-136151904D01*
X200350476Y-136104285D01*
X200540952Y-136056666D01*
X200683809Y-136056666D01*
X200874285Y-136104285D01*
X200969523Y-136151904D01*
X201064761Y-136247142D01*
X201112380Y-136390000D01*
X201112380Y-136628095D01*
X201112380Y-135580476D02*
X201112380Y-135390000D01*
X201064761Y-135294761D01*
X201017142Y-135247142D01*
X200874285Y-135151904D01*
X200683809Y-135104285D01*
X200302857Y-135104285D01*
X200207619Y-135151904D01*
X200160000Y-135199523D01*
X200112380Y-135294761D01*
X200112380Y-135485238D01*
X200160000Y-135580476D01*
X200207619Y-135628095D01*
X200302857Y-135675714D01*
X200540952Y-135675714D01*
X200636190Y-135628095D01*
X200683809Y-135580476D01*
X200731428Y-135485238D01*
X200731428Y-135294761D01*
X200683809Y-135199523D01*
X200636190Y-135151904D01*
X200540952Y-135104285D01*
X180157380Y-137104285D02*
X179157380Y-137104285D01*
X179157380Y-136866190D01*
X179205000Y-136723333D01*
X179300238Y-136628095D01*
X179395476Y-136580476D01*
X179585952Y-136532857D01*
X179728809Y-136532857D01*
X179919285Y-136580476D01*
X180014523Y-136628095D01*
X180109761Y-136723333D01*
X180157380Y-136866190D01*
X180157380Y-137104285D01*
X180157380Y-135580476D02*
X180157380Y-136151904D01*
X180157380Y-135866190D02*
X179157380Y-135866190D01*
X179300238Y-135961428D01*
X179395476Y-136056666D01*
X179443095Y-136151904D01*
X179157380Y-134961428D02*
X179157380Y-134866190D01*
X179205000Y-134770952D01*
X179252619Y-134723333D01*
X179347857Y-134675714D01*
X179538333Y-134628095D01*
X179776428Y-134628095D01*
X179966904Y-134675714D01*
X180062142Y-134723333D01*
X180109761Y-134770952D01*
X180157380Y-134866190D01*
X180157380Y-134961428D01*
X180109761Y-135056666D01*
X180062142Y-135104285D01*
X179966904Y-135151904D01*
X179776428Y-135199523D01*
X179538333Y-135199523D01*
X179347857Y-135151904D01*
X179252619Y-135104285D01*
X179205000Y-135056666D01*
X179157380Y-134961428D01*
X222067380Y-137104285D02*
X221067380Y-137104285D01*
X221067380Y-136866190D01*
X221115000Y-136723333D01*
X221210238Y-136628095D01*
X221305476Y-136580476D01*
X221495952Y-136532857D01*
X221638809Y-136532857D01*
X221829285Y-136580476D01*
X221924523Y-136628095D01*
X222019761Y-136723333D01*
X222067380Y-136866190D01*
X222067380Y-137104285D01*
X222067380Y-135580476D02*
X222067380Y-136151904D01*
X222067380Y-135866190D02*
X221067380Y-135866190D01*
X221210238Y-135961428D01*
X221305476Y-136056666D01*
X221353095Y-136151904D01*
X222067380Y-134628095D02*
X222067380Y-135199523D01*
X222067380Y-134913809D02*
X221067380Y-134913809D01*
X221210238Y-135009047D01*
X221305476Y-135104285D01*
X221353095Y-135199523D01*
D12*
X195941904Y-100463333D02*
X195560952Y-100730000D01*
X195941904Y-100920476D02*
X195141904Y-100920476D01*
X195141904Y-100615714D01*
X195180000Y-100539523D01*
X195218095Y-100501428D01*
X195294285Y-100463333D01*
X195408571Y-100463333D01*
X195484761Y-100501428D01*
X195522857Y-100539523D01*
X195560952Y-100615714D01*
X195560952Y-100920476D01*
X195941904Y-99701428D02*
X195941904Y-100158571D01*
X195941904Y-99930000D02*
X195141904Y-99930000D01*
X195256190Y-100006190D01*
X195332380Y-100082380D01*
X195370476Y-100158571D01*
D10*
X197516904Y-99877619D02*
X197564523Y-99830000D01*
X197659761Y-99782380D01*
X197897857Y-99782380D01*
X197993095Y-99830000D01*
X198040714Y-99877619D01*
X198088333Y-99972857D01*
X198088333Y-100068095D01*
X198040714Y-100210952D01*
X197469285Y-100782380D01*
X198088333Y-100782380D01*
X198421666Y-99782380D02*
X199088333Y-99782380D01*
X198659761Y-100782380D01*
X199659761Y-99782380D02*
X199755000Y-99782380D01*
X199850238Y-99830000D01*
X199897857Y-99877619D01*
X199945476Y-99972857D01*
X199993095Y-100163333D01*
X199993095Y-100401428D01*
X199945476Y-100591904D01*
X199897857Y-100687142D01*
X199850238Y-100734761D01*
X199755000Y-100782380D01*
X199659761Y-100782380D01*
X199564523Y-100734761D01*
X199516904Y-100687142D01*
X199469285Y-100591904D01*
X199421666Y-100401428D01*
X199421666Y-100163333D01*
X199469285Y-99972857D01*
X199516904Y-99877619D01*
X199564523Y-99830000D01*
X199659761Y-99782380D01*
D12*
X195941904Y-104273333D02*
X195560952Y-104540000D01*
X195941904Y-104730476D02*
X195141904Y-104730476D01*
X195141904Y-104425714D01*
X195180000Y-104349523D01*
X195218095Y-104311428D01*
X195294285Y-104273333D01*
X195408571Y-104273333D01*
X195484761Y-104311428D01*
X195522857Y-104349523D01*
X195560952Y-104425714D01*
X195560952Y-104730476D01*
X195218095Y-103968571D02*
X195180000Y-103930476D01*
X195141904Y-103854285D01*
X195141904Y-103663809D01*
X195180000Y-103587619D01*
X195218095Y-103549523D01*
X195294285Y-103511428D01*
X195370476Y-103511428D01*
X195484761Y-103549523D01*
X195941904Y-104006666D01*
X195941904Y-103511428D01*
D10*
X197516904Y-103687619D02*
X197564523Y-103640000D01*
X197659761Y-103592380D01*
X197897857Y-103592380D01*
X197993095Y-103640000D01*
X198040714Y-103687619D01*
X198088333Y-103782857D01*
X198088333Y-103878095D01*
X198040714Y-104020952D01*
X197469285Y-104592380D01*
X198088333Y-104592380D01*
X198421666Y-103592380D02*
X199088333Y-103592380D01*
X198659761Y-104592380D01*
X199659761Y-103592380D02*
X199755000Y-103592380D01*
X199850238Y-103640000D01*
X199897857Y-103687619D01*
X199945476Y-103782857D01*
X199993095Y-103973333D01*
X199993095Y-104211428D01*
X199945476Y-104401904D01*
X199897857Y-104497142D01*
X199850238Y-104544761D01*
X199755000Y-104592380D01*
X199659761Y-104592380D01*
X199564523Y-104544761D01*
X199516904Y-104497142D01*
X199469285Y-104401904D01*
X199421666Y-104211428D01*
X199421666Y-103973333D01*
X199469285Y-103782857D01*
X199516904Y-103687619D01*
X199564523Y-103640000D01*
X199659761Y-103592380D01*
D12*
X143376666Y-94341904D02*
X143110000Y-93960952D01*
X142919523Y-94341904D02*
X142919523Y-93541904D01*
X143224285Y-93541904D01*
X143300476Y-93580000D01*
X143338571Y-93618095D01*
X143376666Y-93694285D01*
X143376666Y-93808571D01*
X143338571Y-93884761D01*
X143300476Y-93922857D01*
X143224285Y-93960952D01*
X142919523Y-93960952D01*
X143643333Y-93541904D02*
X144138571Y-93541904D01*
X143871904Y-93846666D01*
X143986190Y-93846666D01*
X144062380Y-93884761D01*
X144100476Y-93922857D01*
X144138571Y-93999047D01*
X144138571Y-94189523D01*
X144100476Y-94265714D01*
X144062380Y-94303809D01*
X143986190Y-94341904D01*
X143757619Y-94341904D01*
X143681428Y-94303809D01*
X143643333Y-94265714D01*
D10*
X142962380Y-98440714D02*
X142962380Y-97821666D01*
X143343333Y-98155000D01*
X143343333Y-98012142D01*
X143390952Y-97916904D01*
X143438571Y-97869285D01*
X143533809Y-97821666D01*
X143771904Y-97821666D01*
X143867142Y-97869285D01*
X143914761Y-97916904D01*
X143962380Y-98012142D01*
X143962380Y-98297857D01*
X143914761Y-98393095D01*
X143867142Y-98440714D01*
X142962380Y-97488333D02*
X142962380Y-96869285D01*
X143343333Y-97202619D01*
X143343333Y-97059761D01*
X143390952Y-96964523D01*
X143438571Y-96916904D01*
X143533809Y-96869285D01*
X143771904Y-96869285D01*
X143867142Y-96916904D01*
X143914761Y-96964523D01*
X143962380Y-97059761D01*
X143962380Y-97345476D01*
X143914761Y-97440714D01*
X143867142Y-97488333D01*
X142962380Y-96250238D02*
X142962380Y-96155000D01*
X143010000Y-96059761D01*
X143057619Y-96012142D01*
X143152857Y-95964523D01*
X143343333Y-95916904D01*
X143581428Y-95916904D01*
X143771904Y-95964523D01*
X143867142Y-96012142D01*
X143914761Y-96059761D01*
X143962380Y-96155000D01*
X143962380Y-96250238D01*
X143914761Y-96345476D01*
X143867142Y-96393095D01*
X143771904Y-96440714D01*
X143581428Y-96488333D01*
X143343333Y-96488333D01*
X143152857Y-96440714D01*
X143057619Y-96393095D01*
X143010000Y-96345476D01*
X142962380Y-96250238D01*
D12*
X147186666Y-94341904D02*
X146920000Y-93960952D01*
X146729523Y-94341904D02*
X146729523Y-93541904D01*
X147034285Y-93541904D01*
X147110476Y-93580000D01*
X147148571Y-93618095D01*
X147186666Y-93694285D01*
X147186666Y-93808571D01*
X147148571Y-93884761D01*
X147110476Y-93922857D01*
X147034285Y-93960952D01*
X146729523Y-93960952D01*
X147872380Y-93808571D02*
X147872380Y-94341904D01*
X147681904Y-93503809D02*
X147491428Y-94075238D01*
X147986666Y-94075238D01*
D10*
X146772380Y-98440714D02*
X146772380Y-97821666D01*
X147153333Y-98155000D01*
X147153333Y-98012142D01*
X147200952Y-97916904D01*
X147248571Y-97869285D01*
X147343809Y-97821666D01*
X147581904Y-97821666D01*
X147677142Y-97869285D01*
X147724761Y-97916904D01*
X147772380Y-98012142D01*
X147772380Y-98297857D01*
X147724761Y-98393095D01*
X147677142Y-98440714D01*
X146772380Y-97488333D02*
X146772380Y-96869285D01*
X147153333Y-97202619D01*
X147153333Y-97059761D01*
X147200952Y-96964523D01*
X147248571Y-96916904D01*
X147343809Y-96869285D01*
X147581904Y-96869285D01*
X147677142Y-96916904D01*
X147724761Y-96964523D01*
X147772380Y-97059761D01*
X147772380Y-97345476D01*
X147724761Y-97440714D01*
X147677142Y-97488333D01*
X146772380Y-96250238D02*
X146772380Y-96155000D01*
X146820000Y-96059761D01*
X146867619Y-96012142D01*
X146962857Y-95964523D01*
X147153333Y-95916904D01*
X147391428Y-95916904D01*
X147581904Y-95964523D01*
X147677142Y-96012142D01*
X147724761Y-96059761D01*
X147772380Y-96155000D01*
X147772380Y-96250238D01*
X147724761Y-96345476D01*
X147677142Y-96393095D01*
X147581904Y-96440714D01*
X147391428Y-96488333D01*
X147153333Y-96488333D01*
X146962857Y-96440714D01*
X146867619Y-96393095D01*
X146820000Y-96345476D01*
X146772380Y-96250238D01*
D12*
X194176666Y-118471904D02*
X193910000Y-118090952D01*
X193719523Y-118471904D02*
X193719523Y-117671904D01*
X194024285Y-117671904D01*
X194100476Y-117710000D01*
X194138571Y-117748095D01*
X194176666Y-117824285D01*
X194176666Y-117938571D01*
X194138571Y-118014761D01*
X194100476Y-118052857D01*
X194024285Y-118090952D01*
X193719523Y-118090952D01*
X194557619Y-118471904D02*
X194710000Y-118471904D01*
X194786190Y-118433809D01*
X194824285Y-118395714D01*
X194900476Y-118281428D01*
X194938571Y-118129047D01*
X194938571Y-117824285D01*
X194900476Y-117748095D01*
X194862380Y-117710000D01*
X194786190Y-117671904D01*
X194633809Y-117671904D01*
X194557619Y-117710000D01*
X194519523Y-117748095D01*
X194481428Y-117824285D01*
X194481428Y-118014761D01*
X194519523Y-118090952D01*
X194557619Y-118129047D01*
X194633809Y-118167142D01*
X194786190Y-118167142D01*
X194862380Y-118129047D01*
X194900476Y-118090952D01*
X194938571Y-118014761D01*
D10*
X193762380Y-122570714D02*
X193762380Y-121951666D01*
X194143333Y-122285000D01*
X194143333Y-122142142D01*
X194190952Y-122046904D01*
X194238571Y-121999285D01*
X194333809Y-121951666D01*
X194571904Y-121951666D01*
X194667142Y-121999285D01*
X194714761Y-122046904D01*
X194762380Y-122142142D01*
X194762380Y-122427857D01*
X194714761Y-122523095D01*
X194667142Y-122570714D01*
X193762380Y-121618333D02*
X193762380Y-120999285D01*
X194143333Y-121332619D01*
X194143333Y-121189761D01*
X194190952Y-121094523D01*
X194238571Y-121046904D01*
X194333809Y-120999285D01*
X194571904Y-120999285D01*
X194667142Y-121046904D01*
X194714761Y-121094523D01*
X194762380Y-121189761D01*
X194762380Y-121475476D01*
X194714761Y-121570714D01*
X194667142Y-121618333D01*
X193762380Y-120380238D02*
X193762380Y-120285000D01*
X193810000Y-120189761D01*
X193857619Y-120142142D01*
X193952857Y-120094523D01*
X194143333Y-120046904D01*
X194381428Y-120046904D01*
X194571904Y-120094523D01*
X194667142Y-120142142D01*
X194714761Y-120189761D01*
X194762380Y-120285000D01*
X194762380Y-120380238D01*
X194714761Y-120475476D01*
X194667142Y-120523095D01*
X194571904Y-120570714D01*
X194381428Y-120618333D01*
X194143333Y-120618333D01*
X193952857Y-120570714D01*
X193857619Y-120523095D01*
X193810000Y-120475476D01*
X193762380Y-120380238D01*
D12*
X193795714Y-139426904D02*
X193529047Y-139045952D01*
X193338571Y-139426904D02*
X193338571Y-138626904D01*
X193643333Y-138626904D01*
X193719523Y-138665000D01*
X193757619Y-138703095D01*
X193795714Y-138779285D01*
X193795714Y-138893571D01*
X193757619Y-138969761D01*
X193719523Y-139007857D01*
X193643333Y-139045952D01*
X193338571Y-139045952D01*
X194557619Y-139426904D02*
X194100476Y-139426904D01*
X194329047Y-139426904D02*
X194329047Y-138626904D01*
X194252857Y-138741190D01*
X194176666Y-138817380D01*
X194100476Y-138855476D01*
X195052857Y-138626904D02*
X195129047Y-138626904D01*
X195205238Y-138665000D01*
X195243333Y-138703095D01*
X195281428Y-138779285D01*
X195319523Y-138931666D01*
X195319523Y-139122142D01*
X195281428Y-139274523D01*
X195243333Y-139350714D01*
X195205238Y-139388809D01*
X195129047Y-139426904D01*
X195052857Y-139426904D01*
X194976666Y-139388809D01*
X194938571Y-139350714D01*
X194900476Y-139274523D01*
X194862380Y-139122142D01*
X194862380Y-138931666D01*
X194900476Y-138779285D01*
X194938571Y-138703095D01*
X194976666Y-138665000D01*
X195052857Y-138626904D01*
D10*
X193762380Y-143525714D02*
X193762380Y-142906666D01*
X194143333Y-143240000D01*
X194143333Y-143097142D01*
X194190952Y-143001904D01*
X194238571Y-142954285D01*
X194333809Y-142906666D01*
X194571904Y-142906666D01*
X194667142Y-142954285D01*
X194714761Y-143001904D01*
X194762380Y-143097142D01*
X194762380Y-143382857D01*
X194714761Y-143478095D01*
X194667142Y-143525714D01*
X193762380Y-142573333D02*
X193762380Y-141954285D01*
X194143333Y-142287619D01*
X194143333Y-142144761D01*
X194190952Y-142049523D01*
X194238571Y-142001904D01*
X194333809Y-141954285D01*
X194571904Y-141954285D01*
X194667142Y-142001904D01*
X194714761Y-142049523D01*
X194762380Y-142144761D01*
X194762380Y-142430476D01*
X194714761Y-142525714D01*
X194667142Y-142573333D01*
X193762380Y-141335238D02*
X193762380Y-141240000D01*
X193810000Y-141144761D01*
X193857619Y-141097142D01*
X193952857Y-141049523D01*
X194143333Y-141001904D01*
X194381428Y-141001904D01*
X194571904Y-141049523D01*
X194667142Y-141097142D01*
X194714761Y-141144761D01*
X194762380Y-141240000D01*
X194762380Y-141335238D01*
X194714761Y-141430476D01*
X194667142Y-141478095D01*
X194571904Y-141525714D01*
X194381428Y-141573333D01*
X194143333Y-141573333D01*
X193952857Y-141525714D01*
X193857619Y-141478095D01*
X193810000Y-141430476D01*
X193762380Y-141335238D01*
D12*
X172840714Y-139426904D02*
X172574047Y-139045952D01*
X172383571Y-139426904D02*
X172383571Y-138626904D01*
X172688333Y-138626904D01*
X172764523Y-138665000D01*
X172802619Y-138703095D01*
X172840714Y-138779285D01*
X172840714Y-138893571D01*
X172802619Y-138969761D01*
X172764523Y-139007857D01*
X172688333Y-139045952D01*
X172383571Y-139045952D01*
X173602619Y-139426904D02*
X173145476Y-139426904D01*
X173374047Y-139426904D02*
X173374047Y-138626904D01*
X173297857Y-138741190D01*
X173221666Y-138817380D01*
X173145476Y-138855476D01*
X174364523Y-139426904D02*
X173907380Y-139426904D01*
X174135952Y-139426904D02*
X174135952Y-138626904D01*
X174059761Y-138741190D01*
X173983571Y-138817380D01*
X173907380Y-138855476D01*
D10*
X172807380Y-143525714D02*
X172807380Y-142906666D01*
X173188333Y-143240000D01*
X173188333Y-143097142D01*
X173235952Y-143001904D01*
X173283571Y-142954285D01*
X173378809Y-142906666D01*
X173616904Y-142906666D01*
X173712142Y-142954285D01*
X173759761Y-143001904D01*
X173807380Y-143097142D01*
X173807380Y-143382857D01*
X173759761Y-143478095D01*
X173712142Y-143525714D01*
X172807380Y-142573333D02*
X172807380Y-141954285D01*
X173188333Y-142287619D01*
X173188333Y-142144761D01*
X173235952Y-142049523D01*
X173283571Y-142001904D01*
X173378809Y-141954285D01*
X173616904Y-141954285D01*
X173712142Y-142001904D01*
X173759761Y-142049523D01*
X173807380Y-142144761D01*
X173807380Y-142430476D01*
X173759761Y-142525714D01*
X173712142Y-142573333D01*
X172807380Y-141335238D02*
X172807380Y-141240000D01*
X172855000Y-141144761D01*
X172902619Y-141097142D01*
X172997857Y-141049523D01*
X173188333Y-141001904D01*
X173426428Y-141001904D01*
X173616904Y-141049523D01*
X173712142Y-141097142D01*
X173759761Y-141144761D01*
X173807380Y-141240000D01*
X173807380Y-141335238D01*
X173759761Y-141430476D01*
X173712142Y-141478095D01*
X173616904Y-141525714D01*
X173426428Y-141573333D01*
X173188333Y-141573333D01*
X172997857Y-141525714D01*
X172902619Y-141478095D01*
X172855000Y-141430476D01*
X172807380Y-141335238D01*
D12*
X214750714Y-139426904D02*
X214484047Y-139045952D01*
X214293571Y-139426904D02*
X214293571Y-138626904D01*
X214598333Y-138626904D01*
X214674523Y-138665000D01*
X214712619Y-138703095D01*
X214750714Y-138779285D01*
X214750714Y-138893571D01*
X214712619Y-138969761D01*
X214674523Y-139007857D01*
X214598333Y-139045952D01*
X214293571Y-139045952D01*
X215512619Y-139426904D02*
X215055476Y-139426904D01*
X215284047Y-139426904D02*
X215284047Y-138626904D01*
X215207857Y-138741190D01*
X215131666Y-138817380D01*
X215055476Y-138855476D01*
X215817380Y-138703095D02*
X215855476Y-138665000D01*
X215931666Y-138626904D01*
X216122142Y-138626904D01*
X216198333Y-138665000D01*
X216236428Y-138703095D01*
X216274523Y-138779285D01*
X216274523Y-138855476D01*
X216236428Y-138969761D01*
X215779285Y-139426904D01*
X216274523Y-139426904D01*
D10*
X214717380Y-143525714D02*
X214717380Y-142906666D01*
X215098333Y-143240000D01*
X215098333Y-143097142D01*
X215145952Y-143001904D01*
X215193571Y-142954285D01*
X215288809Y-142906666D01*
X215526904Y-142906666D01*
X215622142Y-142954285D01*
X215669761Y-143001904D01*
X215717380Y-143097142D01*
X215717380Y-143382857D01*
X215669761Y-143478095D01*
X215622142Y-143525714D01*
X214717380Y-142573333D02*
X214717380Y-141954285D01*
X215098333Y-142287619D01*
X215098333Y-142144761D01*
X215145952Y-142049523D01*
X215193571Y-142001904D01*
X215288809Y-141954285D01*
X215526904Y-141954285D01*
X215622142Y-142001904D01*
X215669761Y-142049523D01*
X215717380Y-142144761D01*
X215717380Y-142430476D01*
X215669761Y-142525714D01*
X215622142Y-142573333D01*
X214717380Y-141335238D02*
X214717380Y-141240000D01*
X214765000Y-141144761D01*
X214812619Y-141097142D01*
X214907857Y-141049523D01*
X215098333Y-141001904D01*
X215336428Y-141001904D01*
X215526904Y-141049523D01*
X215622142Y-141097142D01*
X215669761Y-141144761D01*
X215717380Y-141240000D01*
X215717380Y-141335238D01*
X215669761Y-141430476D01*
X215622142Y-141478095D01*
X215526904Y-141525714D01*
X215336428Y-141573333D01*
X215098333Y-141573333D01*
X214907857Y-141525714D01*
X214812619Y-141478095D01*
X214765000Y-141430476D01*
X214717380Y-141335238D01*
D12*
X235172333Y-126561904D02*
X235172333Y-127133333D01*
X235134238Y-127247619D01*
X235058047Y-127323809D01*
X234943761Y-127361904D01*
X234867571Y-127361904D01*
X235553285Y-127361904D02*
X235553285Y-126561904D01*
X235858047Y-126561904D01*
X235934238Y-126600000D01*
X235972333Y-126638095D01*
X236010428Y-126714285D01*
X236010428Y-126828571D01*
X235972333Y-126904761D01*
X235934238Y-126942857D01*
X235858047Y-126980952D01*
X235553285Y-126980952D01*
X236277095Y-126561904D02*
X236810428Y-126561904D01*
X236467571Y-127361904D01*
X230866904Y-130574761D02*
X230066904Y-130574761D01*
X230866904Y-130117619D02*
X230409761Y-130460476D01*
X230066904Y-130117619D02*
X230524047Y-130574761D01*
X230447857Y-129774761D02*
X230447857Y-129508095D01*
X230866904Y-129393809D02*
X230866904Y-129774761D01*
X230066904Y-129774761D01*
X230066904Y-129393809D01*
X230485952Y-128898571D02*
X230866904Y-128898571D01*
X230066904Y-129165238D02*
X230485952Y-128898571D01*
X230066904Y-128631904D01*
X230943095Y-128555714D02*
X230943095Y-127946190D01*
X230866904Y-127374761D02*
X230866904Y-127755714D01*
X230066904Y-127755714D01*
X230447857Y-127108095D02*
X230447857Y-126841428D01*
X230866904Y-126727142D02*
X230866904Y-127108095D01*
X230066904Y-127108095D01*
X230066904Y-126727142D01*
X230866904Y-126384285D02*
X230066904Y-126384285D01*
X230066904Y-126193809D01*
X230105000Y-126079523D01*
X230181190Y-126003333D01*
X230257380Y-125965238D01*
X230409761Y-125927142D01*
X230524047Y-125927142D01*
X230676428Y-125965238D01*
X230752619Y-126003333D01*
X230828809Y-126079523D01*
X230866904Y-126193809D01*
X230866904Y-126384285D01*
X184753333Y-121735904D02*
X184753333Y-122307333D01*
X184715238Y-122421619D01*
X184639047Y-122497809D01*
X184524761Y-122535904D01*
X184448571Y-122535904D01*
X185134285Y-122535904D02*
X185134285Y-121735904D01*
X185439047Y-121735904D01*
X185515238Y-121774000D01*
X185553333Y-121812095D01*
X185591428Y-121888285D01*
X185591428Y-122002571D01*
X185553333Y-122078761D01*
X185515238Y-122116857D01*
X185439047Y-122154952D01*
X185134285Y-122154952D01*
X186277142Y-122002571D02*
X186277142Y-122535904D01*
X186086666Y-121697809D02*
X185896190Y-122269238D01*
X186391428Y-122269238D01*
X180943333Y-121735904D02*
X180943333Y-122307333D01*
X180905238Y-122421619D01*
X180829047Y-122497809D01*
X180714761Y-122535904D01*
X180638571Y-122535904D01*
X181324285Y-122535904D02*
X181324285Y-121735904D01*
X181629047Y-121735904D01*
X181705238Y-121774000D01*
X181743333Y-121812095D01*
X181781428Y-121888285D01*
X181781428Y-122002571D01*
X181743333Y-122078761D01*
X181705238Y-122116857D01*
X181629047Y-122154952D01*
X181324285Y-122154952D01*
X182467142Y-121735904D02*
X182314761Y-121735904D01*
X182238571Y-121774000D01*
X182200476Y-121812095D01*
X182124285Y-121926380D01*
X182086190Y-122078761D01*
X182086190Y-122383523D01*
X182124285Y-122459714D01*
X182162380Y-122497809D01*
X182238571Y-122535904D01*
X182390952Y-122535904D01*
X182467142Y-122497809D01*
X182505238Y-122459714D01*
X182543333Y-122383523D01*
X182543333Y-122193047D01*
X182505238Y-122116857D01*
X182467142Y-122078761D01*
X182390952Y-122040666D01*
X182238571Y-122040666D01*
X182162380Y-122078761D01*
X182124285Y-122116857D01*
X182086190Y-122193047D01*
X190366666Y-122916904D02*
X190100000Y-122535952D01*
X189909523Y-122916904D02*
X189909523Y-122116904D01*
X190214285Y-122116904D01*
X190290476Y-122155000D01*
X190328571Y-122193095D01*
X190366666Y-122269285D01*
X190366666Y-122383571D01*
X190328571Y-122459761D01*
X190290476Y-122497857D01*
X190214285Y-122535952D01*
X189909523Y-122535952D01*
X191090476Y-122116904D02*
X190709523Y-122116904D01*
X190671428Y-122497857D01*
X190709523Y-122459761D01*
X190785714Y-122421666D01*
X190976190Y-122421666D01*
X191052380Y-122459761D01*
X191090476Y-122497857D01*
X191128571Y-122574047D01*
X191128571Y-122764523D01*
X191090476Y-122840714D01*
X191052380Y-122878809D01*
X190976190Y-122916904D01*
X190785714Y-122916904D01*
X190709523Y-122878809D01*
X190671428Y-122840714D01*
D10*
X190952380Y-126325238D02*
X190952380Y-126896666D01*
X190952380Y-126610952D02*
X189952380Y-126610952D01*
X190095238Y-126706190D01*
X190190476Y-126801428D01*
X190238095Y-126896666D01*
X189952380Y-125706190D02*
X189952380Y-125610952D01*
X190000000Y-125515714D01*
X190047619Y-125468095D01*
X190142857Y-125420476D01*
X190333333Y-125372857D01*
X190571428Y-125372857D01*
X190761904Y-125420476D01*
X190857142Y-125468095D01*
X190904761Y-125515714D01*
X190952380Y-125610952D01*
X190952380Y-125706190D01*
X190904761Y-125801428D01*
X190857142Y-125849047D01*
X190761904Y-125896666D01*
X190571428Y-125944285D01*
X190333333Y-125944285D01*
X190142857Y-125896666D01*
X190047619Y-125849047D01*
X190000000Y-125801428D01*
X189952380Y-125706190D01*
X190952380Y-124944285D02*
X189952380Y-124944285D01*
X190571428Y-124849047D02*
X190952380Y-124563333D01*
X190285714Y-124563333D02*
X190666666Y-124944285D01*
D12*
X204666904Y-97186666D02*
X205238333Y-97186666D01*
X205352619Y-97224761D01*
X205428809Y-97300952D01*
X205466904Y-97415238D01*
X205466904Y-97491428D01*
X205466904Y-96805714D02*
X204666904Y-96805714D01*
X204666904Y-96500952D01*
X204705000Y-96424761D01*
X204743095Y-96386666D01*
X204819285Y-96348571D01*
X204933571Y-96348571D01*
X205009761Y-96386666D01*
X205047857Y-96424761D01*
X205085952Y-96500952D01*
X205085952Y-96805714D01*
X205009761Y-95891428D02*
X204971666Y-95967619D01*
X204933571Y-96005714D01*
X204857380Y-96043809D01*
X204819285Y-96043809D01*
X204743095Y-96005714D01*
X204705000Y-95967619D01*
X204666904Y-95891428D01*
X204666904Y-95739047D01*
X204705000Y-95662857D01*
X204743095Y-95624761D01*
X204819285Y-95586666D01*
X204857380Y-95586666D01*
X204933571Y-95624761D01*
X204971666Y-95662857D01*
X205009761Y-95739047D01*
X205009761Y-95891428D01*
X205047857Y-95967619D01*
X205085952Y-96005714D01*
X205162142Y-96043809D01*
X205314523Y-96043809D01*
X205390714Y-96005714D01*
X205428809Y-95967619D01*
X205466904Y-95891428D01*
X205466904Y-95739047D01*
X205428809Y-95662857D01*
X205390714Y-95624761D01*
X205314523Y-95586666D01*
X205162142Y-95586666D01*
X205085952Y-95624761D01*
X205047857Y-95662857D01*
X205009761Y-95739047D01*
X206762619Y-94049904D02*
X207029285Y-94849904D01*
X207295952Y-94049904D01*
X208019761Y-94773714D02*
X207981666Y-94811809D01*
X207867380Y-94849904D01*
X207791190Y-94849904D01*
X207676904Y-94811809D01*
X207600714Y-94735619D01*
X207562619Y-94659428D01*
X207524523Y-94507047D01*
X207524523Y-94392761D01*
X207562619Y-94240380D01*
X207600714Y-94164190D01*
X207676904Y-94088000D01*
X207791190Y-94049904D01*
X207867380Y-94049904D01*
X207981666Y-94088000D01*
X208019761Y-94126095D01*
X208819761Y-94773714D02*
X208781666Y-94811809D01*
X208667380Y-94849904D01*
X208591190Y-94849904D01*
X208476904Y-94811809D01*
X208400714Y-94735619D01*
X208362619Y-94659428D01*
X208324523Y-94507047D01*
X208324523Y-94392761D01*
X208362619Y-94240380D01*
X208400714Y-94164190D01*
X208476904Y-94088000D01*
X208591190Y-94049904D01*
X208667380Y-94049904D01*
X208781666Y-94088000D01*
X208819761Y-94126095D01*
X208972142Y-94926095D02*
X209581666Y-94926095D01*
X209772142Y-94430857D02*
X210038809Y-94430857D01*
X210153095Y-94849904D02*
X209772142Y-94849904D01*
X209772142Y-94049904D01*
X210153095Y-94049904D01*
X210495952Y-94849904D02*
X210495952Y-94049904D01*
X210953095Y-94849904D01*
X210953095Y-94049904D01*
X163772904Y-87661666D02*
X164344333Y-87661666D01*
X164458619Y-87699761D01*
X164534809Y-87775952D01*
X164572904Y-87890238D01*
X164572904Y-87966428D01*
X164572904Y-87280714D02*
X163772904Y-87280714D01*
X163772904Y-86975952D01*
X163811000Y-86899761D01*
X163849095Y-86861666D01*
X163925285Y-86823571D01*
X164039571Y-86823571D01*
X164115761Y-86861666D01*
X164153857Y-86899761D01*
X164191952Y-86975952D01*
X164191952Y-87280714D01*
X164572904Y-86442619D02*
X164572904Y-86290238D01*
X164534809Y-86214047D01*
X164496714Y-86175952D01*
X164382428Y-86099761D01*
X164230047Y-86061666D01*
X163925285Y-86061666D01*
X163849095Y-86099761D01*
X163811000Y-86137857D01*
X163772904Y-86214047D01*
X163772904Y-86366428D01*
X163811000Y-86442619D01*
X163849095Y-86480714D01*
X163925285Y-86518809D01*
X164115761Y-86518809D01*
X164191952Y-86480714D01*
X164230047Y-86442619D01*
X164268142Y-86366428D01*
X164268142Y-86214047D01*
X164230047Y-86137857D01*
X164191952Y-86099761D01*
X164115761Y-86061666D01*
X163912809Y-89541333D02*
X164293761Y-89541333D01*
X163836619Y-89769904D02*
X164103285Y-88969904D01*
X164369952Y-89769904D01*
X165093761Y-89769904D02*
X164827095Y-89388952D01*
X164636619Y-89769904D02*
X164636619Y-88969904D01*
X164941380Y-88969904D01*
X165017571Y-89008000D01*
X165055666Y-89046095D01*
X165093761Y-89122285D01*
X165093761Y-89236571D01*
X165055666Y-89312761D01*
X165017571Y-89350857D01*
X164941380Y-89388952D01*
X164636619Y-89388952D01*
X165436619Y-89769904D02*
X165436619Y-88969904D01*
X165627095Y-88969904D01*
X165741380Y-89008000D01*
X165817571Y-89084190D01*
X165855666Y-89160380D01*
X165893761Y-89312761D01*
X165893761Y-89427047D01*
X165855666Y-89579428D01*
X165817571Y-89655619D01*
X165741380Y-89731809D01*
X165627095Y-89769904D01*
X165436619Y-89769904D01*
X166046142Y-89846095D02*
X166655666Y-89846095D01*
X166846142Y-89350857D02*
X167112809Y-89350857D01*
X167227095Y-89769904D02*
X166846142Y-89769904D01*
X166846142Y-88969904D01*
X167227095Y-88969904D01*
X167569952Y-89769904D02*
X167569952Y-88969904D01*
X168027095Y-89769904D01*
X168027095Y-88969904D01*
X155301904Y-111004285D02*
X154920952Y-111270952D01*
X155301904Y-111461428D02*
X154501904Y-111461428D01*
X154501904Y-111156666D01*
X154540000Y-111080476D01*
X154578095Y-111042380D01*
X154654285Y-111004285D01*
X154768571Y-111004285D01*
X154844761Y-111042380D01*
X154882857Y-111080476D01*
X154920952Y-111156666D01*
X154920952Y-111461428D01*
X155301904Y-110242380D02*
X155301904Y-110699523D01*
X155301904Y-110470952D02*
X154501904Y-110470952D01*
X154616190Y-110547142D01*
X154692380Y-110623333D01*
X154730476Y-110699523D01*
X154501904Y-109518571D02*
X154501904Y-109899523D01*
X154882857Y-109937619D01*
X154844761Y-109899523D01*
X154806666Y-109823333D01*
X154806666Y-109632857D01*
X154844761Y-109556666D01*
X154882857Y-109518571D01*
X154959047Y-109480476D01*
X155149523Y-109480476D01*
X155225714Y-109518571D01*
X155263809Y-109556666D01*
X155301904Y-109632857D01*
X155301904Y-109823333D01*
X155263809Y-109899523D01*
X155225714Y-109937619D01*
D10*
X157519761Y-110942380D02*
X156948333Y-110942380D01*
X157234047Y-110942380D02*
X157234047Y-109942380D01*
X157138809Y-110085238D01*
X157043571Y-110180476D01*
X156948333Y-110228095D01*
X158138809Y-109942380D02*
X158234047Y-109942380D01*
X158329285Y-109990000D01*
X158376904Y-110037619D01*
X158424523Y-110132857D01*
X158472142Y-110323333D01*
X158472142Y-110561428D01*
X158424523Y-110751904D01*
X158376904Y-110847142D01*
X158329285Y-110894761D01*
X158234047Y-110942380D01*
X158138809Y-110942380D01*
X158043571Y-110894761D01*
X157995952Y-110847142D01*
X157948333Y-110751904D01*
X157900714Y-110561428D01*
X157900714Y-110323333D01*
X157948333Y-110132857D01*
X157995952Y-110037619D01*
X158043571Y-109990000D01*
X158138809Y-109942380D01*
X158900714Y-110942380D02*
X158900714Y-109942380D01*
X158995952Y-110561428D02*
X159281666Y-110942380D01*
X159281666Y-110275714D02*
X158900714Y-110656666D01*
D12*
X155301904Y-131959285D02*
X154920952Y-132225952D01*
X155301904Y-132416428D02*
X154501904Y-132416428D01*
X154501904Y-132111666D01*
X154540000Y-132035476D01*
X154578095Y-131997380D01*
X154654285Y-131959285D01*
X154768571Y-131959285D01*
X154844761Y-131997380D01*
X154882857Y-132035476D01*
X154920952Y-132111666D01*
X154920952Y-132416428D01*
X155301904Y-131197380D02*
X155301904Y-131654523D01*
X155301904Y-131425952D02*
X154501904Y-131425952D01*
X154616190Y-131502142D01*
X154692380Y-131578333D01*
X154730476Y-131654523D01*
X154501904Y-130511666D02*
X154501904Y-130664047D01*
X154540000Y-130740238D01*
X154578095Y-130778333D01*
X154692380Y-130854523D01*
X154844761Y-130892619D01*
X155149523Y-130892619D01*
X155225714Y-130854523D01*
X155263809Y-130816428D01*
X155301904Y-130740238D01*
X155301904Y-130587857D01*
X155263809Y-130511666D01*
X155225714Y-130473571D01*
X155149523Y-130435476D01*
X154959047Y-130435476D01*
X154882857Y-130473571D01*
X154844761Y-130511666D01*
X154806666Y-130587857D01*
X154806666Y-130740238D01*
X154844761Y-130816428D01*
X154882857Y-130854523D01*
X154959047Y-130892619D01*
D10*
X157519761Y-131897380D02*
X156948333Y-131897380D01*
X157234047Y-131897380D02*
X157234047Y-130897380D01*
X157138809Y-131040238D01*
X157043571Y-131135476D01*
X156948333Y-131183095D01*
X158138809Y-130897380D02*
X158234047Y-130897380D01*
X158329285Y-130945000D01*
X158376904Y-130992619D01*
X158424523Y-131087857D01*
X158472142Y-131278333D01*
X158472142Y-131516428D01*
X158424523Y-131706904D01*
X158376904Y-131802142D01*
X158329285Y-131849761D01*
X158234047Y-131897380D01*
X158138809Y-131897380D01*
X158043571Y-131849761D01*
X157995952Y-131802142D01*
X157948333Y-131706904D01*
X157900714Y-131516428D01*
X157900714Y-131278333D01*
X157948333Y-131087857D01*
X157995952Y-130992619D01*
X158043571Y-130945000D01*
X158138809Y-130897380D01*
X158900714Y-131897380D02*
X158900714Y-130897380D01*
X158995952Y-131516428D02*
X159281666Y-131897380D01*
X159281666Y-131230714D02*
X158900714Y-131611666D01*
D12*
X165855714Y-139426904D02*
X165589047Y-139045952D01*
X165398571Y-139426904D02*
X165398571Y-138626904D01*
X165703333Y-138626904D01*
X165779523Y-138665000D01*
X165817619Y-138703095D01*
X165855714Y-138779285D01*
X165855714Y-138893571D01*
X165817619Y-138969761D01*
X165779523Y-139007857D01*
X165703333Y-139045952D01*
X165398571Y-139045952D01*
X166617619Y-139426904D02*
X166160476Y-139426904D01*
X166389047Y-139426904D02*
X166389047Y-138626904D01*
X166312857Y-138741190D01*
X166236666Y-138817380D01*
X166160476Y-138855476D01*
X166884285Y-138626904D02*
X167417619Y-138626904D01*
X167074761Y-139426904D01*
D10*
X166822380Y-142835238D02*
X166822380Y-143406666D01*
X166822380Y-143120952D02*
X165822380Y-143120952D01*
X165965238Y-143216190D01*
X166060476Y-143311428D01*
X166108095Y-143406666D01*
X165822380Y-142216190D02*
X165822380Y-142120952D01*
X165870000Y-142025714D01*
X165917619Y-141978095D01*
X166012857Y-141930476D01*
X166203333Y-141882857D01*
X166441428Y-141882857D01*
X166631904Y-141930476D01*
X166727142Y-141978095D01*
X166774761Y-142025714D01*
X166822380Y-142120952D01*
X166822380Y-142216190D01*
X166774761Y-142311428D01*
X166727142Y-142359047D01*
X166631904Y-142406666D01*
X166441428Y-142454285D01*
X166203333Y-142454285D01*
X166012857Y-142406666D01*
X165917619Y-142359047D01*
X165870000Y-142311428D01*
X165822380Y-142216190D01*
X166822380Y-141454285D02*
X165822380Y-141454285D01*
X166441428Y-141359047D02*
X166822380Y-141073333D01*
X166155714Y-141073333D02*
X166536666Y-141454285D01*
D12*
X212845714Y-118471904D02*
X212579047Y-118090952D01*
X212388571Y-118471904D02*
X212388571Y-117671904D01*
X212693333Y-117671904D01*
X212769523Y-117710000D01*
X212807619Y-117748095D01*
X212845714Y-117824285D01*
X212845714Y-117938571D01*
X212807619Y-118014761D01*
X212769523Y-118052857D01*
X212693333Y-118090952D01*
X212388571Y-118090952D01*
X213607619Y-118471904D02*
X213150476Y-118471904D01*
X213379047Y-118471904D02*
X213379047Y-117671904D01*
X213302857Y-117786190D01*
X213226666Y-117862380D01*
X213150476Y-117900476D01*
X214064761Y-118014761D02*
X213988571Y-117976666D01*
X213950476Y-117938571D01*
X213912380Y-117862380D01*
X213912380Y-117824285D01*
X213950476Y-117748095D01*
X213988571Y-117710000D01*
X214064761Y-117671904D01*
X214217142Y-117671904D01*
X214293333Y-117710000D01*
X214331428Y-117748095D01*
X214369523Y-117824285D01*
X214369523Y-117862380D01*
X214331428Y-117938571D01*
X214293333Y-117976666D01*
X214217142Y-118014761D01*
X214064761Y-118014761D01*
X213988571Y-118052857D01*
X213950476Y-118090952D01*
X213912380Y-118167142D01*
X213912380Y-118319523D01*
X213950476Y-118395714D01*
X213988571Y-118433809D01*
X214064761Y-118471904D01*
X214217142Y-118471904D01*
X214293333Y-118433809D01*
X214331428Y-118395714D01*
X214369523Y-118319523D01*
X214369523Y-118167142D01*
X214331428Y-118090952D01*
X214293333Y-118052857D01*
X214217142Y-118014761D01*
D10*
X213812380Y-121880238D02*
X213812380Y-122451666D01*
X213812380Y-122165952D02*
X212812380Y-122165952D01*
X212955238Y-122261190D01*
X213050476Y-122356428D01*
X213098095Y-122451666D01*
X212812380Y-121261190D02*
X212812380Y-121165952D01*
X212860000Y-121070714D01*
X212907619Y-121023095D01*
X213002857Y-120975476D01*
X213193333Y-120927857D01*
X213431428Y-120927857D01*
X213621904Y-120975476D01*
X213717142Y-121023095D01*
X213764761Y-121070714D01*
X213812380Y-121165952D01*
X213812380Y-121261190D01*
X213764761Y-121356428D01*
X213717142Y-121404047D01*
X213621904Y-121451666D01*
X213431428Y-121499285D01*
X213193333Y-121499285D01*
X213002857Y-121451666D01*
X212907619Y-121404047D01*
X212860000Y-121356428D01*
X212812380Y-121261190D01*
X213812380Y-120499285D02*
X212812380Y-120499285D01*
X213431428Y-120404047D02*
X213812380Y-120118333D01*
X213145714Y-120118333D02*
X213526666Y-120499285D01*
D12*
X233800714Y-139426904D02*
X233534047Y-139045952D01*
X233343571Y-139426904D02*
X233343571Y-138626904D01*
X233648333Y-138626904D01*
X233724523Y-138665000D01*
X233762619Y-138703095D01*
X233800714Y-138779285D01*
X233800714Y-138893571D01*
X233762619Y-138969761D01*
X233724523Y-139007857D01*
X233648333Y-139045952D01*
X233343571Y-139045952D01*
X234562619Y-139426904D02*
X234105476Y-139426904D01*
X234334047Y-139426904D02*
X234334047Y-138626904D01*
X234257857Y-138741190D01*
X234181666Y-138817380D01*
X234105476Y-138855476D01*
X234943571Y-139426904D02*
X235095952Y-139426904D01*
X235172142Y-139388809D01*
X235210238Y-139350714D01*
X235286428Y-139236428D01*
X235324523Y-139084047D01*
X235324523Y-138779285D01*
X235286428Y-138703095D01*
X235248333Y-138665000D01*
X235172142Y-138626904D01*
X235019761Y-138626904D01*
X234943571Y-138665000D01*
X234905476Y-138703095D01*
X234867380Y-138779285D01*
X234867380Y-138969761D01*
X234905476Y-139045952D01*
X234943571Y-139084047D01*
X235019761Y-139122142D01*
X235172142Y-139122142D01*
X235248333Y-139084047D01*
X235286428Y-139045952D01*
X235324523Y-138969761D01*
D10*
X234767380Y-142835238D02*
X234767380Y-143406666D01*
X234767380Y-143120952D02*
X233767380Y-143120952D01*
X233910238Y-143216190D01*
X234005476Y-143311428D01*
X234053095Y-143406666D01*
X233767380Y-142216190D02*
X233767380Y-142120952D01*
X233815000Y-142025714D01*
X233862619Y-141978095D01*
X233957857Y-141930476D01*
X234148333Y-141882857D01*
X234386428Y-141882857D01*
X234576904Y-141930476D01*
X234672142Y-141978095D01*
X234719761Y-142025714D01*
X234767380Y-142120952D01*
X234767380Y-142216190D01*
X234719761Y-142311428D01*
X234672142Y-142359047D01*
X234576904Y-142406666D01*
X234386428Y-142454285D01*
X234148333Y-142454285D01*
X233957857Y-142406666D01*
X233862619Y-142359047D01*
X233815000Y-142311428D01*
X233767380Y-142216190D01*
X234767380Y-141454285D02*
X233767380Y-141454285D01*
X234386428Y-141359047D02*
X234767380Y-141073333D01*
X234100714Y-141073333D02*
X234481666Y-141454285D01*
D12*
X202291904Y-131959285D02*
X201910952Y-132225952D01*
X202291904Y-132416428D02*
X201491904Y-132416428D01*
X201491904Y-132111666D01*
X201530000Y-132035476D01*
X201568095Y-131997380D01*
X201644285Y-131959285D01*
X201758571Y-131959285D01*
X201834761Y-131997380D01*
X201872857Y-132035476D01*
X201910952Y-132111666D01*
X201910952Y-132416428D01*
X201568095Y-131654523D02*
X201530000Y-131616428D01*
X201491904Y-131540238D01*
X201491904Y-131349761D01*
X201530000Y-131273571D01*
X201568095Y-131235476D01*
X201644285Y-131197380D01*
X201720476Y-131197380D01*
X201834761Y-131235476D01*
X202291904Y-131692619D01*
X202291904Y-131197380D01*
X201491904Y-130702142D02*
X201491904Y-130625952D01*
X201530000Y-130549761D01*
X201568095Y-130511666D01*
X201644285Y-130473571D01*
X201796666Y-130435476D01*
X201987142Y-130435476D01*
X202139523Y-130473571D01*
X202215714Y-130511666D01*
X202253809Y-130549761D01*
X202291904Y-130625952D01*
X202291904Y-130702142D01*
X202253809Y-130778333D01*
X202215714Y-130816428D01*
X202139523Y-130854523D01*
X201987142Y-130892619D01*
X201796666Y-130892619D01*
X201644285Y-130854523D01*
X201568095Y-130816428D01*
X201530000Y-130778333D01*
X201491904Y-130702142D01*
D10*
X204509761Y-131897380D02*
X203938333Y-131897380D01*
X204224047Y-131897380D02*
X204224047Y-130897380D01*
X204128809Y-131040238D01*
X204033571Y-131135476D01*
X203938333Y-131183095D01*
X205128809Y-130897380D02*
X205224047Y-130897380D01*
X205319285Y-130945000D01*
X205366904Y-130992619D01*
X205414523Y-131087857D01*
X205462142Y-131278333D01*
X205462142Y-131516428D01*
X205414523Y-131706904D01*
X205366904Y-131802142D01*
X205319285Y-131849761D01*
X205224047Y-131897380D01*
X205128809Y-131897380D01*
X205033571Y-131849761D01*
X204985952Y-131802142D01*
X204938333Y-131706904D01*
X204890714Y-131516428D01*
X204890714Y-131278333D01*
X204938333Y-131087857D01*
X204985952Y-130992619D01*
X205033571Y-130945000D01*
X205128809Y-130897380D01*
X205890714Y-131897380D02*
X205890714Y-130897380D01*
X205985952Y-131516428D02*
X206271666Y-131897380D01*
X206271666Y-131230714D02*
X205890714Y-131611666D01*
D12*
X169411714Y-139426904D02*
X169145047Y-139045952D01*
X168954571Y-139426904D02*
X168954571Y-138626904D01*
X169259333Y-138626904D01*
X169335523Y-138665000D01*
X169373619Y-138703095D01*
X169411714Y-138779285D01*
X169411714Y-138893571D01*
X169373619Y-138969761D01*
X169335523Y-139007857D01*
X169259333Y-139045952D01*
X168954571Y-139045952D01*
X169716476Y-138703095D02*
X169754571Y-138665000D01*
X169830761Y-138626904D01*
X170021238Y-138626904D01*
X170097428Y-138665000D01*
X170135523Y-138703095D01*
X170173619Y-138779285D01*
X170173619Y-138855476D01*
X170135523Y-138969761D01*
X169678380Y-139426904D01*
X170173619Y-139426904D01*
X170935523Y-139426904D02*
X170478380Y-139426904D01*
X170706952Y-139426904D02*
X170706952Y-138626904D01*
X170630761Y-138741190D01*
X170554571Y-138817380D01*
X170478380Y-138855476D01*
D10*
X170378380Y-142835238D02*
X170378380Y-143406666D01*
X170378380Y-143120952D02*
X169378380Y-143120952D01*
X169521238Y-143216190D01*
X169616476Y-143311428D01*
X169664095Y-143406666D01*
X169378380Y-142216190D02*
X169378380Y-142120952D01*
X169426000Y-142025714D01*
X169473619Y-141978095D01*
X169568857Y-141930476D01*
X169759333Y-141882857D01*
X169997428Y-141882857D01*
X170187904Y-141930476D01*
X170283142Y-141978095D01*
X170330761Y-142025714D01*
X170378380Y-142120952D01*
X170378380Y-142216190D01*
X170330761Y-142311428D01*
X170283142Y-142359047D01*
X170187904Y-142406666D01*
X169997428Y-142454285D01*
X169759333Y-142454285D01*
X169568857Y-142406666D01*
X169473619Y-142359047D01*
X169426000Y-142311428D01*
X169378380Y-142216190D01*
X170378380Y-141454285D02*
X169378380Y-141454285D01*
X169997428Y-141359047D02*
X170378380Y-141073333D01*
X169711714Y-141073333D02*
X170092666Y-141454285D01*
M02*
