G04 #@! TF.GenerationSoftware,KiCad,Pcbnew,(5.1.5)-3*
G04 #@! TF.CreationDate,2020-12-03T23:39:52+01:00*
G04 #@! TF.ProjectId,C64 Joykey,43363420-4a6f-4796-9b65-792e6b696361,rev?*
G04 #@! TF.SameCoordinates,Original*
G04 #@! TF.FileFunction,OtherDrawing,Comment*
%FSLAX46Y46*%
G04 Gerber Fmt 4.6, Leading zero omitted, Abs format (unit mm)*
G04 Created by KiCad (PCBNEW (5.1.5)-3) date 2020-12-03 23:39:52*
%MOMM*%
%LPD*%
G04 APERTURE LIST*
%ADD10C,0.050000*%
%ADD11C,0.150000*%
G04 APERTURE END LIST*
D10*
X167005000Y-89535000D02*
X167005000Y-150495000D01*
X189230000Y-92075000D02*
X189230000Y-83185000D01*
X189865000Y-92710000D02*
X233045000Y-92710000D01*
X233680000Y-92075000D02*
X233680000Y-83185000D01*
X233680000Y-83185000D02*
G75*
G02X234315000Y-82550000I635000J0D01*
G01*
X188595000Y-82550000D02*
G75*
G02X189230000Y-83185000I0J-635000D01*
G01*
X233680000Y-92075000D02*
G75*
G02X233045000Y-92710000I-635000J0D01*
G01*
X189865000Y-92710000D02*
G75*
G02X189230000Y-92075000I0J635000D01*
G01*
X146685000Y-89535000D02*
X146685000Y-150495000D01*
X166370000Y-88900000D02*
X147320000Y-88900000D01*
X147320000Y-151130000D02*
X166370000Y-151130000D01*
X172720000Y-150495000D02*
X172720000Y-131445000D01*
X234315000Y-151130000D02*
X173355000Y-151130000D01*
X234950000Y-131445000D02*
X234950000Y-150495000D01*
X214630000Y-130810000D02*
X234315000Y-130810000D01*
X213995000Y-110490000D02*
X213995000Y-130175000D01*
X194310000Y-109855000D02*
X213360000Y-109855000D01*
X193675000Y-130175000D02*
X193675000Y-110490000D01*
X173355000Y-130810000D02*
X193040000Y-130810000D01*
X172720000Y-131445000D02*
G75*
G02X173355000Y-130810000I635000J0D01*
G01*
X214630000Y-130810000D02*
G75*
G02X213995000Y-130175000I0J635000D01*
G01*
X193675000Y-130175000D02*
G75*
G02X193040000Y-130810000I-635000J0D01*
G01*
X193675000Y-110490000D02*
G75*
G02X194310000Y-109855000I635000J0D01*
G01*
X213360000Y-109855000D02*
G75*
G02X213995000Y-110490000I0J-635000D01*
G01*
X234315000Y-130810000D02*
G75*
G02X234950000Y-131445000I0J-635000D01*
G01*
X173355000Y-151130000D02*
G75*
G02X172720000Y-150495000I0J635000D01*
G01*
X166370000Y-88900000D02*
G75*
G02X167005000Y-89535000I0J-635000D01*
G01*
X146685000Y-89535000D02*
G75*
G02X147320000Y-88900000I635000J0D01*
G01*
X234950000Y-150495000D02*
G75*
G02X234315000Y-151130000I-635000J0D01*
G01*
X167005000Y-150495000D02*
G75*
G02X166370000Y-151130000I-635000J0D01*
G01*
X147320000Y-151130000D02*
G75*
G02X146685000Y-150495000I0J635000D01*
G01*
D11*
X147320000Y-131445000D02*
X166370000Y-131445000D01*
X166370000Y-131445000D02*
X166370000Y-150495000D01*
X166370000Y-150495000D02*
X147320000Y-150495000D01*
X147320000Y-150495000D02*
X147320000Y-131445000D01*
X147320000Y-129540000D02*
X147320000Y-110490000D01*
X166370000Y-129540000D02*
X147320000Y-129540000D01*
X166370000Y-110490000D02*
X166370000Y-129540000D01*
X147320000Y-110490000D02*
X166370000Y-110490000D01*
X147320000Y-89535000D02*
X166370000Y-89535000D01*
X166370000Y-89535000D02*
X166370000Y-108585000D01*
X166370000Y-108585000D02*
X147320000Y-108585000D01*
X147320000Y-108585000D02*
X147320000Y-89535000D01*
X194310000Y-129540000D02*
X194310000Y-110490000D01*
X213360000Y-129540000D02*
X194310000Y-129540000D01*
X213360000Y-110490000D02*
X213360000Y-129540000D01*
X194310000Y-110490000D02*
X213360000Y-110490000D01*
X194310000Y-131445000D02*
X213360000Y-131445000D01*
X213360000Y-131445000D02*
X213360000Y-150495000D01*
X213360000Y-150495000D02*
X194310000Y-150495000D01*
X194310000Y-150495000D02*
X194310000Y-131445000D01*
X173355000Y-150495000D02*
X173355000Y-131445000D01*
X192405000Y-150495000D02*
X173355000Y-150495000D01*
X192405000Y-131445000D02*
X192405000Y-150495000D01*
X173355000Y-131445000D02*
X192405000Y-131445000D01*
X215265000Y-131445000D02*
X234315000Y-131445000D01*
X234315000Y-131445000D02*
X234315000Y-150495000D01*
X234315000Y-150495000D02*
X215265000Y-150495000D01*
X215265000Y-150495000D02*
X215265000Y-131445000D01*
M02*
