M48
INCH,TZ
T1C0.0157
T2C0.0315
T3C0.0354
T4C0.0394
T5C0.0400
T6C0.0433
T7C0.0591
T8C0.1200
%
G90
G05
T1
X58689Y-37000
X58689Y-43250
X59311Y-37000
X59311Y-40000
X59311Y-43250
X65500Y-43750
X65500Y-44250
X65715Y-41035
X68500Y-59000
X68700Y-43100
X68973Y-44423
X69000Y-39400
X69300Y-43100
X72535Y-48350
X73000Y-35965
X73000Y-39000
X75400Y-43965
X75400Y-44800
X75500Y-59000
X75750Y-44535
X75750Y-58000
X83250Y-36750
X85000Y-59000
X85750Y-40000
X86100Y-43900
X86100Y-44800
X86250Y-41350
X86300Y-41900
X86465Y-43400
X86465Y-45900
X86750Y-40785
X86750Y-43750
X86750Y-45500
X87500Y-44535
X87750Y-41000
X87750Y-43800
X88250Y-41000
X88250Y-50750
X88750Y-39785
X88750Y-41000
X89250Y-40000
X89250Y-41000
X91500Y-35000
X92189Y-58500
X92811Y-58250
X93000Y-37750
X93000Y-40000
T2
X56500Y-35750
X56500Y-39750
X84750Y-53500
X84750Y-57500
X81250Y-42500
X82250Y-42500
X83250Y-42500
X75750Y-39500
X79750Y-39500
X58000Y-35750
X58000Y-39750
X75750Y-41000
X79750Y-41000
X65500Y-47000
X65500Y-51000
X75000Y-47000
X75000Y-51000
X76500Y-53500
X76500Y-57500
X58000Y-53500
X58000Y-57500
X58000Y-45250
X58000Y-49250
X76500Y-45250
X76500Y-49250
X75750Y-42500
X79750Y-42500
X70750Y-47000
X73750Y-47000
X66750Y-47000
X69750Y-47000
X68250Y-53500
X68250Y-57500
X56500Y-45250
X56500Y-49250
T3
X79750Y-45250
X80750Y-45250
X63250Y-33250
X63250Y-34250
X79750Y-53500
X80750Y-53500
X61250Y-45250
X62250Y-45250
X71500Y-53500
X72500Y-53500
X61250Y-53500
X62250Y-53500
X61250Y-37000
X62250Y-37000
X60250Y-33250
X60250Y-34250
X88000Y-53500
X89000Y-53500
T4
X91750Y-42000
X91750Y-43000
X91750Y-44000
X91750Y-46000
X91750Y-47000
X91750Y-48000
X73000Y-49000
X73000Y-50000
X66750Y-34250
X66750Y-35250
X66750Y-36250
X66750Y-37250
X66750Y-38250
X66750Y-39250
X66750Y-40250
X66750Y-41250
X66750Y-42250
X66750Y-43250
X66750Y-44250
X66750Y-45250
X67750Y-34250
X67750Y-35250
X67750Y-36250
X67750Y-37250
X67750Y-38250
X67750Y-39250
X67750Y-40250
X67750Y-41250
X67750Y-42250
X67750Y-43250
X67750Y-44250
X67750Y-45250
X73750Y-34250
X73750Y-35250
X73750Y-36250
X73750Y-37250
X73750Y-38250
X73750Y-39250
X73750Y-40250
X73750Y-41250
X73750Y-42250
X73750Y-43250
X73750Y-44250
X73750Y-45250
X71500Y-49000
X71500Y-50000
X91750Y-50000
X91750Y-51000
X91750Y-38000
X91750Y-39000
X91750Y-40000
T5
X76750Y-34000
X76750Y-35000
X77750Y-34000
X77750Y-35000
X78750Y-34000
X78750Y-35000
X79750Y-34000
X79750Y-35000
X80750Y-34000
X80750Y-35000
X85750Y-34000
X85750Y-35000
X86750Y-34000
X86750Y-35000
X87750Y-34000
X87750Y-35000
X88750Y-34000
X88750Y-35000
X89750Y-34000
X89750Y-35000
T6
X75750Y-38000
X79750Y-38000
X67000Y-49000
X67000Y-50772
X69559Y-49000
X69559Y-50772
T7
X87500Y-57500
X90000Y-56500
X60750Y-41000
X63250Y-40000
X79250Y-57500
X81750Y-56500
X60750Y-57500
X63250Y-56500
X79250Y-49250
X81750Y-48250
X60750Y-49250
X63250Y-48250
X71000Y-57500
X73500Y-56500
T8
X56750Y-60750
X93500Y-60750
X56750Y-33750
X93500Y-33750
T0
M30
