G04 #@! TF.GenerationSoftware,KiCad,Pcbnew,8.0.4*
G04 #@! TF.CreationDate,2024-10-17T01:26:52+02:00*
G04 #@! TF.ProjectId,C64 Joykey,43363420-4a6f-4796-9b65-792e6b696361,rev?*
G04 #@! TF.SameCoordinates,Original*
G04 #@! TF.FileFunction,Copper,L1,Top*
G04 #@! TF.FilePolarity,Positive*
%FSLAX46Y46*%
G04 Gerber Fmt 4.6, Leading zero omitted, Abs format (unit mm)*
G04 Created by KiCad (PCBNEW 8.0.4) date 2024-10-17 01:26:52*
%MOMM*%
%LPD*%
G01*
G04 APERTURE LIST*
G04 #@! TA.AperFunction,ComponentPad*
%ADD10C,2.200000*%
G04 #@! TD*
G04 #@! TA.AperFunction,ComponentPad*
%ADD11C,3.500000*%
G04 #@! TD*
G04 #@! TA.AperFunction,ComponentPad*
%ADD12R,1.800000X1.800000*%
G04 #@! TD*
G04 #@! TA.AperFunction,ComponentPad*
%ADD13C,1.800000*%
G04 #@! TD*
G04 #@! TA.AperFunction,ComponentPad*
%ADD14C,2.000000*%
G04 #@! TD*
G04 #@! TA.AperFunction,ComponentPad*
%ADD15C,1.700000*%
G04 #@! TD*
G04 #@! TA.AperFunction,ComponentPad*
%ADD16R,1.700000X1.700000*%
G04 #@! TD*
G04 #@! TA.AperFunction,ComponentPad*
%ADD17O,1.700000X1.700000*%
G04 #@! TD*
G04 #@! TA.AperFunction,ComponentPad*
%ADD18R,1.727200X1.727200*%
G04 #@! TD*
G04 #@! TA.AperFunction,ComponentPad*
%ADD19O,1.727200X1.727200*%
G04 #@! TD*
G04 #@! TA.AperFunction,ComponentPad*
%ADD20R,2.200000X2.200000*%
G04 #@! TD*
G04 #@! TA.AperFunction,ComponentPad*
%ADD21O,2.200000X2.200000*%
G04 #@! TD*
G04 #@! TA.AperFunction,ComponentPad*
%ADD22C,1.600000*%
G04 #@! TD*
G04 #@! TA.AperFunction,ComponentPad*
%ADD23O,1.600000X1.600000*%
G04 #@! TD*
G04 #@! TA.AperFunction,ComponentPad*
%ADD24R,1.500000X1.500000*%
G04 #@! TD*
G04 #@! TA.AperFunction,ComponentPad*
%ADD25O,1.500000X1.500000*%
G04 #@! TD*
G04 #@! TA.AperFunction,SMDPad,CuDef*
%ADD26R,2.000000X1.500000*%
G04 #@! TD*
G04 #@! TA.AperFunction,SMDPad,CuDef*
%ADD27O,2.000000X1.500000*%
G04 #@! TD*
G04 #@! TA.AperFunction,ComponentPad*
%ADD28R,1.600000X1.600000*%
G04 #@! TD*
G04 #@! TA.AperFunction,ComponentPad*
%ADD29C,2.100000*%
G04 #@! TD*
G04 #@! TA.AperFunction,ComponentPad*
%ADD30C,1.750000*%
G04 #@! TD*
G04 #@! TA.AperFunction,ViaPad*
%ADD31C,0.800000*%
G04 #@! TD*
G04 #@! TA.AperFunction,Conductor*
%ADD32C,0.250000*%
G04 #@! TD*
G04 #@! TA.AperFunction,Conductor*
%ADD33C,0.381000*%
G04 #@! TD*
G04 APERTURE END LIST*
D10*
X201295000Y-125095000D03*
X207645000Y-122555000D03*
X201295000Y-146050000D03*
X207645000Y-143510000D03*
X180340000Y-146050000D03*
X186690000Y-143510000D03*
X222250000Y-146050000D03*
X228600000Y-143510000D03*
D11*
X144145000Y-154305000D03*
X237490000Y-154305000D03*
X237490000Y-85725000D03*
X144145000Y-85725000D03*
D12*
X160655000Y-86995000D03*
D13*
X160655000Y-84455000D03*
D14*
X170180000Y-124460000D03*
X176680000Y-124460000D03*
X170180000Y-128960000D03*
X176680000Y-128960000D03*
D15*
X169545000Y-86995000D03*
X172085000Y-86995000D03*
X169545000Y-89535000D03*
X172085000Y-89535000D03*
X169545000Y-92075000D03*
X172085000Y-92075000D03*
X169545000Y-94615000D03*
X172085000Y-94615000D03*
X169545000Y-97155000D03*
X172085000Y-97155000D03*
X169545000Y-99695000D03*
X172085000Y-99695000D03*
X169545000Y-102235000D03*
X172085000Y-102235000D03*
X169545000Y-104775000D03*
X172085000Y-104775000D03*
X169545000Y-107315000D03*
X172085000Y-107315000D03*
X169545000Y-109855000D03*
X172085000Y-109855000D03*
X169545000Y-112395000D03*
X172085000Y-112395000D03*
X169545000Y-114935000D03*
X172085000Y-114935000D03*
X187325000Y-114935000D03*
X187325000Y-112395000D03*
X187325000Y-109855000D03*
X187325000Y-107315000D03*
X187325000Y-104775000D03*
X187325000Y-102235000D03*
X187325000Y-99695000D03*
X187325000Y-97155000D03*
X187325000Y-94615000D03*
X187325000Y-92075000D03*
X187325000Y-89535000D03*
X187325000Y-86995000D03*
D16*
X233045000Y-106680000D03*
D17*
X233045000Y-109220000D03*
X233045000Y-111760000D03*
D16*
X233045000Y-96520000D03*
D17*
X233045000Y-99060000D03*
X233045000Y-101600000D03*
D18*
X217805000Y-88900000D03*
D19*
X220345000Y-88900000D03*
X222885000Y-88900000D03*
X225425000Y-88900000D03*
X227965000Y-88900000D03*
X217805000Y-86360000D03*
X220345000Y-86360000D03*
X222885000Y-86360000D03*
X225425000Y-86360000D03*
X227965000Y-86360000D03*
D18*
X194945000Y-88900000D03*
D19*
X197485000Y-88900000D03*
X200025000Y-88900000D03*
X202565000Y-88900000D03*
X205105000Y-88900000D03*
X194945000Y-86360000D03*
X197485000Y-86360000D03*
X200025000Y-86360000D03*
X202565000Y-86360000D03*
X205105000Y-86360000D03*
D12*
X153035000Y-86995000D03*
D13*
X153035000Y-84455000D03*
D20*
X192405000Y-96520000D03*
D21*
X202565000Y-96520000D03*
D12*
X155575000Y-135890000D03*
D13*
X158115000Y-135890000D03*
D12*
X155575000Y-93980000D03*
D13*
X158115000Y-93980000D03*
D12*
X202565000Y-114935000D03*
D13*
X205105000Y-114935000D03*
D12*
X202565000Y-135890000D03*
D13*
X205105000Y-135890000D03*
D12*
X181610000Y-135890000D03*
D13*
X184150000Y-135890000D03*
D12*
X223520000Y-135890000D03*
D13*
X226060000Y-135890000D03*
D22*
X143510000Y-90805000D03*
D23*
X143510000Y-100965000D03*
D22*
X147320000Y-90805000D03*
D23*
X147320000Y-100965000D03*
D22*
X147320000Y-135890000D03*
D23*
X147320000Y-146050000D03*
D22*
X147320000Y-114935000D03*
D23*
X147320000Y-125095000D03*
D22*
X194310000Y-114935000D03*
D23*
X194310000Y-125095000D03*
D22*
X194310000Y-135890000D03*
D23*
X194310000Y-146050000D03*
D22*
X173355000Y-135890000D03*
D23*
X173355000Y-146050000D03*
D22*
X215265000Y-135890000D03*
D23*
X215265000Y-146050000D03*
D12*
X155575000Y-114935000D03*
D13*
X158115000Y-114935000D03*
D22*
X143510000Y-114935000D03*
D23*
X143510000Y-125095000D03*
D22*
X192405000Y-104140000D03*
D23*
X202565000Y-104140000D03*
D22*
X192405000Y-100330000D03*
D23*
X202565000Y-100330000D03*
D22*
X202565000Y-107950000D03*
D23*
X192405000Y-107950000D03*
D16*
X233045000Y-127000000D03*
D17*
X233045000Y-129540000D03*
D16*
X233045000Y-116840000D03*
D17*
X233045000Y-119380000D03*
X233045000Y-121920000D03*
D24*
X211455000Y-107950000D03*
D25*
X208915000Y-107950000D03*
X206375000Y-107950000D03*
D10*
X154305000Y-125095000D03*
X160655000Y-122555000D03*
X154305000Y-146050000D03*
X160655000Y-143510000D03*
X154305000Y-104140000D03*
X160655000Y-101600000D03*
D22*
X190500000Y-119380000D03*
D23*
X190500000Y-129540000D03*
D16*
X210185000Y-96520000D03*
D17*
X207645000Y-96520000D03*
D16*
X166077900Y-86995000D03*
D17*
X166077900Y-84455000D03*
D22*
X161925000Y-110490000D03*
D23*
X151765000Y-110490000D03*
D22*
X161925000Y-131445000D03*
D23*
X151765000Y-131445000D03*
D22*
X213360000Y-125095000D03*
D23*
X213360000Y-114935000D03*
D22*
X234315000Y-146050000D03*
D23*
X234315000Y-135890000D03*
D22*
X208915000Y-131445000D03*
D23*
X198755000Y-131445000D03*
D26*
X146050000Y-106680000D03*
D27*
X146050000Y-108585000D03*
X146050000Y-110490000D03*
D22*
X169862500Y-146050000D03*
D23*
X169862500Y-135890000D03*
D22*
X166370000Y-135890000D03*
D23*
X166370000Y-146050000D03*
D22*
X166370000Y-119380000D03*
D23*
X166370000Y-129540000D03*
D28*
X177800000Y-119380000D03*
D23*
X185420000Y-119380000D03*
D29*
X180698000Y-152196000D03*
X173688000Y-152196000D03*
D30*
X179448000Y-154686000D03*
X174948000Y-154686000D03*
D29*
X231965500Y-152196000D03*
X224955500Y-152196000D03*
D30*
X230715500Y-154686000D03*
X226215500Y-154686000D03*
D29*
X156698000Y-152196000D03*
X149688000Y-152196000D03*
D30*
X155448000Y-154686000D03*
X150948000Y-154686000D03*
D29*
X168698000Y-152196000D03*
X161688000Y-152196000D03*
D30*
X167448000Y-154686000D03*
X162948000Y-154686000D03*
D26*
X185420000Y-127000000D03*
X185420000Y-125095000D03*
X181610000Y-127000000D03*
X181610000Y-125095000D03*
D31*
X237744000Y-96520000D03*
X182626002Y-155484990D03*
X223610000Y-104140000D03*
X183515000Y-125095000D03*
X187325000Y-124370000D03*
X227525153Y-131884847D03*
X219075000Y-105029000D03*
X236728000Y-100965000D03*
X225425000Y-104140000D03*
X221070000Y-105410000D03*
X220345000Y-115570000D03*
X219620000Y-116586000D03*
X175260000Y-98425000D03*
X175895000Y-112395000D03*
X196146847Y-110802847D03*
X196215000Y-115660000D03*
X192024000Y-113284000D03*
X192024000Y-110998000D03*
X166189990Y-109310000D03*
X166189990Y-105229990D03*
X165735000Y-132623590D03*
X175170000Y-111215032D03*
X166370000Y-112395022D03*
X217694683Y-113755000D03*
X217080000Y-103415000D03*
X174444990Y-109474000D03*
X185420000Y-99695000D03*
X148336000Y-111252000D03*
X184658000Y-94234000D03*
X151765000Y-103505000D03*
X148336000Y-127000000D03*
X150876000Y-126492000D03*
X166914990Y-104229983D03*
X166370000Y-111125000D03*
X223364500Y-127635000D03*
X173990000Y-149860000D03*
X192405000Y-147320000D03*
X227330000Y-127635000D03*
X214630000Y-149860000D03*
X191770000Y-149860000D03*
X149069500Y-109219978D03*
X150650500Y-108585000D03*
X150650500Y-101600000D03*
X150650500Y-93980000D03*
X149069500Y-93980000D03*
X207772000Y-84365000D03*
X176276000Y-156247000D03*
X202692000Y-84328000D03*
X212725000Y-93824500D03*
X226695000Y-102145000D03*
X227330000Y-104140000D03*
X151765000Y-107225000D03*
X218694000Y-111506000D03*
X224155000Y-128905000D03*
X218694000Y-113792000D03*
X228055010Y-129540000D03*
D32*
X229235000Y-85090000D02*
X229616000Y-85471000D01*
X237744000Y-94869000D02*
X237744000Y-96520000D01*
X238252000Y-147826590D02*
X238252000Y-97028000D01*
X237488590Y-148590000D02*
X238252000Y-147826590D01*
X182626002Y-155484990D02*
X210910010Y-155484990D01*
X229616000Y-86741000D02*
X237744000Y-94869000D01*
X210910010Y-155484990D02*
X217805000Y-148590000D01*
X229616000Y-85471000D02*
X229616000Y-86741000D01*
X196215000Y-85090000D02*
X229235000Y-85090000D01*
X217805000Y-148590000D02*
X237488590Y-148590000D01*
X238252000Y-97028000D02*
X237744000Y-96520000D01*
X194945000Y-86360000D02*
X196215000Y-85090000D01*
X191135000Y-113030000D02*
X191135000Y-114935000D01*
X191135000Y-114935000D02*
X188595000Y-117475000D01*
X219710000Y-112395000D02*
X191770000Y-112395000D01*
X220980000Y-104140000D02*
X220345000Y-104775000D01*
X191770000Y-112395000D02*
X191135000Y-113030000D01*
X181610000Y-125095000D02*
X183515000Y-125095000D01*
X187325000Y-124370000D02*
X188595000Y-123100000D01*
X168910000Y-127000000D02*
X177165000Y-127000000D01*
X166370000Y-129540000D02*
X168910000Y-127000000D01*
X177165000Y-127000000D02*
X179070000Y-125095000D01*
X223610000Y-104140000D02*
X220980000Y-104140000D01*
X188595000Y-117475000D02*
X188595000Y-123100000D01*
X220345000Y-111760000D02*
X219710000Y-112395000D01*
X220345000Y-104775000D02*
X220345000Y-111760000D01*
X179070000Y-125095000D02*
X181610000Y-125095000D01*
D33*
X158115000Y-114935000D02*
X158115000Y-116205000D01*
X150495000Y-116840000D02*
X157480000Y-116840000D01*
X158115000Y-116205000D02*
X157480000Y-116840000D01*
X233045000Y-106680000D02*
X234638998Y-106680000D01*
X196850000Y-147955000D02*
X196215000Y-148590000D01*
X183515000Y-137795000D02*
X184150000Y-137160000D01*
X192405000Y-94615000D02*
X191135000Y-94615000D01*
X150405000Y-89625000D02*
X163105000Y-89625000D01*
X200660000Y-127635000D02*
X200660000Y-136525000D01*
X149860000Y-116205000D02*
X149860000Y-137160000D01*
X167640000Y-148590000D02*
X168275000Y-147955000D01*
X200660000Y-118110000D02*
X200660000Y-122404529D01*
X192405000Y-96520000D02*
X192405000Y-94615000D01*
X199390000Y-123674529D02*
X199390000Y-126365000D01*
X158115000Y-137160000D02*
X157480000Y-137795000D01*
X150495000Y-137795000D02*
X149860000Y-137160000D01*
X150495000Y-116840000D02*
X149860000Y-116205000D01*
X157480000Y-95885000D02*
X158115000Y-95250000D01*
X200660000Y-136525000D02*
X199390000Y-137795000D01*
X205105000Y-137160000D02*
X205105000Y-135890000D01*
X233045000Y-116840000D02*
X234638998Y-116840000D01*
X149225000Y-106680000D02*
X149860000Y-106045000D01*
X227965000Y-86360000D02*
X226695000Y-87630000D01*
X149860000Y-137160000D02*
X149860000Y-147955000D01*
X168275000Y-147955000D02*
X168275000Y-138430000D01*
X218440000Y-137795000D02*
X217170000Y-139065000D01*
X158115000Y-135890000D02*
X158115000Y-137160000D01*
X167640000Y-148590000D02*
X196215000Y-148590000D01*
X234950000Y-94615000D02*
X226060000Y-94615000D01*
X199390000Y-137795000D02*
X204470000Y-137795000D01*
X168275000Y-138430000D02*
X168910000Y-137795000D01*
X157480000Y-137795000D02*
X150495000Y-137795000D01*
X196850000Y-138430000D02*
X197485000Y-137795000D01*
X149860000Y-95250000D02*
X150495000Y-95885000D01*
X207010000Y-93345000D02*
X205740000Y-94615000D01*
X164465000Y-84455000D02*
X163830000Y-85090000D01*
X226695000Y-87630000D02*
X226695000Y-93980000D01*
X189230000Y-84455000D02*
X166077900Y-84455000D01*
X166077900Y-84455000D02*
X164465000Y-84455000D01*
X217170000Y-147320000D02*
X215900000Y-148590000D01*
X205740000Y-94615000D02*
X226060000Y-94615000D01*
X168910000Y-137795000D02*
X183515000Y-137795000D01*
X200660000Y-122404529D02*
X199390000Y-123674529D01*
X204470000Y-116840000D02*
X201930000Y-116840000D01*
X149860000Y-106045000D02*
X149860000Y-95250000D01*
X184150000Y-137160000D02*
X184150000Y-135890000D01*
X235429499Y-129695501D02*
X235429499Y-116049499D01*
X207010000Y-87630000D02*
X207010000Y-93345000D01*
X235429499Y-105889499D02*
X235429499Y-95094499D01*
X163830000Y-85090000D02*
X163830000Y-88900000D01*
X234638998Y-106680000D02*
X235429499Y-105889499D01*
X149860000Y-95250000D02*
X149860000Y-90170000D01*
X227525153Y-131884847D02*
X227965000Y-131445000D01*
X197485000Y-137795000D02*
X199390000Y-137795000D01*
X191135000Y-94615000D02*
X190500000Y-93980000D01*
X226695000Y-93980000D02*
X226060000Y-94615000D01*
X150495000Y-148590000D02*
X167640000Y-148590000D01*
X225425000Y-137795000D02*
X218440000Y-137795000D01*
X226060000Y-137160000D02*
X225425000Y-137795000D01*
X217170000Y-139065000D02*
X217170000Y-147320000D01*
X199390000Y-126365000D02*
X200660000Y-127635000D01*
X205105000Y-116205000D02*
X204470000Y-116840000D01*
X150495000Y-95885000D02*
X157480000Y-95885000D01*
X196215000Y-148590000D02*
X215900000Y-148590000D01*
X205105000Y-114935000D02*
X205105000Y-116205000D01*
X190500000Y-85725000D02*
X189230000Y-84455000D01*
X201930000Y-116840000D02*
X200660000Y-118110000D01*
X234638998Y-116840000D02*
X235429499Y-116049499D01*
X196850000Y-147955000D02*
X196850000Y-138430000D01*
X163830000Y-88900000D02*
X163105000Y-89625000D01*
X235429499Y-116049499D02*
X235429499Y-105889499D01*
X149860000Y-147955000D02*
X150495000Y-148590000D01*
X204470000Y-137795000D02*
X205105000Y-137160000D01*
X158115000Y-95250000D02*
X158115000Y-93980000D01*
X235429499Y-95094499D02*
X234950000Y-94615000D01*
X190500000Y-93980000D02*
X190500000Y-85725000D01*
X149860000Y-106045000D02*
X149860000Y-116205000D01*
X226060000Y-135890000D02*
X226060000Y-137160000D01*
X146050000Y-106680000D02*
X149225000Y-106680000D01*
X149860000Y-90170000D02*
X150405000Y-89625000D01*
X227965000Y-131445000D02*
X233680000Y-131445000D01*
X233680000Y-131445000D02*
X235429499Y-129695501D01*
X192405000Y-94615000D02*
X205740000Y-94615000D01*
X205740000Y-86360000D02*
X207010000Y-87630000D01*
D32*
X190817500Y-111760000D02*
X199644000Y-111760000D01*
X187960000Y-120650000D02*
X187960000Y-116840000D01*
X200596500Y-110807500D02*
X200596500Y-107378500D01*
X185420000Y-125095000D02*
X189865000Y-125095000D01*
X190246000Y-114554000D02*
X190246000Y-112331500D01*
X187960000Y-116840000D02*
X190246000Y-114554000D01*
X185420000Y-123190000D02*
X187960000Y-120650000D01*
X189865000Y-125095000D02*
X190500000Y-125730000D01*
X190500000Y-125730000D02*
X190500000Y-129540000D01*
X218440000Y-105664000D02*
X219075000Y-105029000D01*
X201549000Y-106426000D02*
X204978000Y-106426000D01*
X204978000Y-106426000D02*
X205740000Y-105664000D01*
X205740000Y-105664000D02*
X218440000Y-105664000D01*
X185420000Y-123190000D02*
X185420000Y-125095000D01*
X200596500Y-107378500D02*
X201549000Y-106426000D01*
X199644000Y-111760000D02*
X200596500Y-110807500D01*
X190246000Y-112331500D02*
X190817500Y-111760000D01*
X230505000Y-88900000D02*
X236728000Y-95123000D01*
X236728000Y-95123000D02*
X236728000Y-100965000D01*
X227965000Y-88900000D02*
X230505000Y-88900000D01*
X231775000Y-138430000D02*
X225425000Y-132080000D01*
X234315000Y-146050000D02*
X230505000Y-146050000D01*
X230505000Y-146050000D02*
X231775000Y-144780000D01*
X222250000Y-146050000D02*
X230505000Y-146050000D01*
X231775000Y-144780000D02*
X231775000Y-138430000D01*
X225425000Y-132080000D02*
X225425000Y-104140000D01*
X191008000Y-146050000D02*
X180340000Y-146050000D01*
X179070000Y-144780000D02*
X180340000Y-146050000D01*
X220980000Y-105500000D02*
X220980000Y-112395000D01*
X170497500Y-144780000D02*
X179070000Y-144780000D01*
X169862500Y-145415000D02*
X170497500Y-144780000D01*
X191770000Y-134620000D02*
X191770000Y-145288000D01*
X191770000Y-145288000D02*
X191008000Y-146050000D01*
X192786000Y-113792000D02*
X192786000Y-133604000D01*
X220980000Y-105500000D02*
X221070000Y-105410000D01*
X220345000Y-113030000D02*
X193548000Y-113030000D01*
X193548000Y-113030000D02*
X192786000Y-113792000D01*
X192786000Y-133604000D02*
X191770000Y-134620000D01*
X220980000Y-112395000D02*
X220345000Y-113030000D01*
X210820000Y-131445000D02*
X220345000Y-121920000D01*
X210185000Y-146050000D02*
X210820000Y-145415000D01*
X210820000Y-145415000D02*
X210820000Y-131445000D01*
X201295000Y-146050000D02*
X210185000Y-146050000D01*
X208915000Y-131445000D02*
X210820000Y-131445000D01*
X220345000Y-121920000D02*
X220345000Y-115570000D01*
X219620000Y-121375000D02*
X219620000Y-116586000D01*
X215900000Y-125095000D02*
X219620000Y-121375000D01*
X201295000Y-125095000D02*
X213360000Y-125095000D01*
X213360000Y-125095000D02*
X215900000Y-125095000D01*
X187325000Y-92710000D02*
X184785000Y-95250000D01*
X174625000Y-124460000D02*
X174625000Y-123190000D01*
X175260000Y-95885000D02*
X175260000Y-98425000D01*
X175895000Y-95250000D02*
X175260000Y-95885000D01*
X184785000Y-95250000D02*
X175895000Y-95250000D01*
X174625000Y-124460000D02*
X176680000Y-124460000D01*
X175895000Y-121920000D02*
X175895000Y-112395000D01*
X174625000Y-123190000D02*
X175895000Y-121920000D01*
X170180000Y-124460000D02*
X174625000Y-124460000D01*
X196146847Y-106992847D02*
X195580000Y-106426000D01*
X187325000Y-107315000D02*
X189357000Y-107315000D01*
X196215000Y-115660000D02*
X196215000Y-130810000D01*
X196215000Y-130810000D02*
X196850000Y-131445000D01*
X195580000Y-106426000D02*
X190246000Y-106426000D01*
X189357000Y-107315000D02*
X190246000Y-106426000D01*
X196146847Y-110802847D02*
X196146847Y-106992847D01*
X196850000Y-131445000D02*
X198755000Y-131445000D01*
X192024000Y-131826000D02*
X192024000Y-113284000D01*
X169862500Y-133667500D02*
X170815000Y-132715000D01*
X170815000Y-132715000D02*
X191135000Y-132715000D01*
X190881000Y-109855000D02*
X192024000Y-110998000D01*
X187325000Y-109855000D02*
X190881000Y-109855000D01*
X169862500Y-135890000D02*
X169862500Y-133667500D01*
X191135000Y-132715000D02*
X192024000Y-131826000D01*
D33*
X188595000Y-90805000D02*
X167005000Y-90805000D01*
X187325000Y-94615000D02*
X188595000Y-94615000D01*
X188595000Y-94615000D02*
X189230000Y-93980000D01*
X189230000Y-91440000D02*
X188595000Y-90805000D01*
X166077900Y-89877900D02*
X166077900Y-86995000D01*
X189230000Y-93980000D02*
X189230000Y-91440000D01*
X167005000Y-90805000D02*
X166077900Y-89877900D01*
D32*
X166189990Y-103050010D02*
X166189990Y-105229990D01*
X161925000Y-110490000D02*
X165009990Y-110490000D01*
X165009990Y-110490000D02*
X166189990Y-109310000D01*
X169545000Y-102235000D02*
X172085000Y-102235000D01*
X169545000Y-102235000D02*
X167005000Y-102235000D01*
X167005000Y-102235000D02*
X166189990Y-103050010D01*
X169545000Y-97155000D02*
X172085000Y-97155000D01*
X164465000Y-128905000D02*
X164465000Y-131353590D01*
X175170000Y-111215032D02*
X175170000Y-121375000D01*
X168910000Y-122555000D02*
X167640000Y-123825000D01*
X173990000Y-122555000D02*
X168910000Y-122555000D01*
X167640000Y-123825000D02*
X167640000Y-125730000D01*
X167640000Y-125730000D02*
X164465000Y-128905000D01*
X164465000Y-131353590D02*
X165735000Y-132623590D01*
X175170000Y-121375000D02*
X173990000Y-122555000D01*
X161925000Y-128905000D02*
X164465000Y-126365000D01*
X164465011Y-114300011D02*
X166370000Y-112395022D01*
X172085000Y-99695000D02*
X169545000Y-99695000D01*
X161925000Y-131445000D02*
X161925000Y-128905000D01*
X164465011Y-114300011D02*
X164465011Y-126364989D01*
X164465011Y-126364989D02*
X164465000Y-126365000D01*
X216535000Y-102235000D02*
X187325000Y-102235000D01*
X217080000Y-102780000D02*
X216535000Y-102235000D01*
X213360000Y-114935000D02*
X216514683Y-114935000D01*
X217080000Y-103415000D02*
X217080000Y-102780000D01*
X216514683Y-114935000D02*
X217694683Y-113755000D01*
X177800000Y-111125000D02*
X177038000Y-110363000D01*
X177038000Y-110363000D02*
X175333990Y-110363000D01*
X169545000Y-104775000D02*
X172085000Y-104775000D01*
X177800000Y-119380000D02*
X177800000Y-111125000D01*
X175333990Y-110363000D02*
X174444990Y-109474000D01*
X186055000Y-103505000D02*
X185420000Y-102870000D01*
X174244000Y-156972000D02*
X174948000Y-156268000D01*
X160655000Y-101600000D02*
X153670000Y-101600000D01*
X173990000Y-98425000D02*
X168275000Y-98425000D01*
X174534999Y-95159999D02*
X174534999Y-97880001D01*
X153670000Y-101600000D02*
X151765000Y-103505000D01*
X148336000Y-156972000D02*
X174244000Y-156972000D01*
X145288000Y-114300000D02*
X145288000Y-150876000D01*
X148336000Y-111252000D02*
X145288000Y-114300000D01*
X184658000Y-94234000D02*
X175460998Y-94234000D01*
X185420000Y-102870000D02*
X185420000Y-99695000D01*
X147320000Y-152908000D02*
X147320000Y-155956000D01*
X174534999Y-97880001D02*
X173990000Y-98425000D01*
X192405000Y-104140000D02*
X190500000Y-104140000D01*
X174948000Y-156268000D02*
X174948000Y-154686000D01*
X165100000Y-101600000D02*
X160655000Y-101600000D01*
X145288000Y-150876000D02*
X147320000Y-152908000D01*
X189865000Y-103505000D02*
X186055000Y-103505000D01*
X175460998Y-94234000D02*
X174534999Y-95159999D01*
X147320000Y-155956000D02*
X148336000Y-156972000D01*
X185420000Y-99695000D02*
X187325000Y-99695000D01*
X190500000Y-104140000D02*
X189865000Y-103505000D01*
X168275000Y-98425000D02*
X165100000Y-101600000D01*
X160655000Y-122555000D02*
X151765000Y-122555000D01*
X166370000Y-111125000D02*
X163830000Y-113665000D01*
X151765000Y-122555000D02*
X150876000Y-123444000D01*
X150876000Y-126492000D02*
X150876000Y-123444000D01*
X162948000Y-156076000D02*
X162560000Y-156464000D01*
X145796000Y-150368000D02*
X147828000Y-152400000D01*
X176784000Y-100076000D02*
X176784000Y-97758250D01*
X177387250Y-97155000D02*
X187325000Y-97155000D01*
X145796000Y-150368000D02*
X145796000Y-127508000D01*
X147828000Y-155448000D02*
X147828000Y-152400000D01*
X166914990Y-104229983D02*
X167639973Y-103505000D01*
X176784000Y-97758250D02*
X177387250Y-97155000D01*
X191135000Y-100330000D02*
X192405000Y-100330000D01*
X187960000Y-97155000D02*
X191135000Y-100330000D01*
X162948000Y-154686000D02*
X162948000Y-156076000D01*
X173355000Y-103505000D02*
X176784000Y-100076000D01*
X163195000Y-122555000D02*
X163830000Y-121920000D01*
X145796000Y-127508000D02*
X146304000Y-127000000D01*
X146304000Y-127000000D02*
X148336000Y-127000000D01*
X148844000Y-156464000D02*
X147828000Y-155448000D01*
X162560000Y-156464000D02*
X148844000Y-156464000D01*
X160655000Y-122555000D02*
X163195000Y-122555000D01*
X167639973Y-103505000D02*
X173355000Y-103505000D01*
X163830000Y-113665000D02*
X163830000Y-121920000D01*
X205675795Y-104775000D02*
X218255998Y-104775000D01*
X226604999Y-131989999D02*
X230505000Y-135890000D01*
X190246000Y-105664000D02*
X204786795Y-105664000D01*
X189357000Y-104775000D02*
X190246000Y-105664000D01*
X219615999Y-103414999D02*
X225969999Y-103414999D01*
X230505000Y-135890000D02*
X234315000Y-135890000D01*
X225969999Y-103414999D02*
X226604999Y-104049999D01*
X218255998Y-104775000D02*
X219615999Y-103414999D01*
X187325000Y-104775000D02*
X189357000Y-104775000D01*
X204786795Y-105664000D02*
X205675795Y-104775000D01*
X226604999Y-104049999D02*
X226604999Y-131989999D01*
X151130000Y-85090000D02*
X151130000Y-87630000D01*
X150495000Y-88265000D02*
X146685000Y-88265000D01*
X146685000Y-88265000D02*
X144145000Y-90805000D01*
X153035000Y-84455000D02*
X151765000Y-84455000D01*
X151130000Y-87630000D02*
X150495000Y-88265000D01*
X151765000Y-84455000D02*
X151130000Y-85090000D01*
X159385000Y-84455000D02*
X158750000Y-85090000D01*
X158115000Y-88900000D02*
X149225000Y-88900000D01*
X149225000Y-88900000D02*
X147320000Y-90805000D01*
X158750000Y-85090000D02*
X158750000Y-88265000D01*
X158750000Y-88265000D02*
X158115000Y-88900000D01*
X160655000Y-84455000D02*
X159385000Y-84455000D01*
D33*
X202565000Y-96520000D02*
X207645000Y-96520000D01*
X149225000Y-146685000D02*
X149225000Y-125730000D01*
X223364500Y-127635000D02*
X217649500Y-133350000D01*
X149225000Y-148590000D02*
X150495000Y-149860000D01*
X193040000Y-146050000D02*
X192405000Y-146685000D01*
X148590000Y-125095000D02*
X147320000Y-125095000D01*
X213995000Y-144780000D02*
X215265000Y-146050000D01*
X148590000Y-146050000D02*
X149225000Y-146685000D01*
X217649500Y-133350000D02*
X214630000Y-133350000D01*
X191770000Y-149860000D02*
X214630000Y-149860000D01*
X194310000Y-133350000D02*
X192405000Y-135255000D01*
X147320000Y-146050000D02*
X148590000Y-146050000D01*
X149225000Y-125730000D02*
X148590000Y-125095000D01*
X192405000Y-135255000D02*
X192405000Y-146685000D01*
X214630000Y-133350000D02*
X213995000Y-133985000D01*
X194310000Y-146050000D02*
X193040000Y-146050000D01*
X233045000Y-127000000D02*
X230505000Y-127000000D01*
X173990000Y-149860000D02*
X191770000Y-149860000D01*
X149225000Y-146685000D02*
X149225000Y-148590000D01*
X213995000Y-133985000D02*
X213995000Y-144780000D01*
X150495000Y-149860000D02*
X173990000Y-149860000D01*
X194310000Y-125095000D02*
X194310000Y-133350000D01*
X227330000Y-127635000D02*
X229870000Y-127635000D01*
X192405000Y-146685000D02*
X192405000Y-147320000D01*
X229870000Y-127635000D02*
X230505000Y-127000000D01*
X173990000Y-111125000D02*
X172720000Y-109855000D01*
X173990000Y-115570000D02*
X173990000Y-111125000D01*
X172085000Y-109855000D02*
X169545000Y-109855000D01*
X166370000Y-119380000D02*
X170180000Y-119380000D01*
X170180000Y-119380000D02*
X173990000Y-115570000D01*
D32*
X146050000Y-110490000D02*
X147799478Y-110490000D01*
X167005000Y-108585000D02*
X150650500Y-108585000D01*
X167640000Y-113030000D02*
X167640000Y-109220000D01*
X169545000Y-114935000D02*
X172085000Y-114935000D01*
X169545000Y-114935000D02*
X167640000Y-113030000D01*
X167640000Y-109220000D02*
X167005000Y-108585000D01*
X147799478Y-110490000D02*
X149069500Y-109219978D01*
X192405000Y-107950000D02*
X190246000Y-107950000D01*
X169545000Y-107315000D02*
X172085000Y-107315000D01*
X190246000Y-107950000D02*
X189611000Y-108585000D01*
X172085000Y-107315000D02*
X175260000Y-107315000D01*
X189611000Y-108585000D02*
X176530000Y-108585000D01*
X176530000Y-108585000D02*
X175260000Y-107315000D01*
X176276000Y-109601000D02*
X175260000Y-108585000D01*
X150650500Y-107470500D02*
X150650500Y-101600000D01*
X187325000Y-114935000D02*
X182753000Y-114935000D01*
X182753000Y-114935000D02*
X177419000Y-109601000D01*
X168275000Y-108585000D02*
X167640000Y-107950000D01*
X177419000Y-109601000D02*
X176276000Y-109601000D01*
X175260000Y-108585000D02*
X168275000Y-108585000D01*
X151130000Y-107950000D02*
X150650500Y-107470500D01*
X167640000Y-107950000D02*
X151130000Y-107950000D01*
D33*
X142240000Y-93980000D02*
X149069500Y-93980000D01*
X142240000Y-114935000D02*
X141605000Y-114300000D01*
X141605000Y-94615000D02*
X142240000Y-93980000D01*
X143510000Y-114935000D02*
X142240000Y-114935000D01*
X141605000Y-114300000D02*
X141605000Y-94615000D01*
X150650500Y-93980000D02*
X155575000Y-93980000D01*
D32*
X194310000Y-114935000D02*
X202565000Y-114935000D01*
X173355000Y-135890000D02*
X181610000Y-135890000D01*
X215265000Y-135890000D02*
X223520000Y-135890000D01*
X166370000Y-139065000D02*
X168275000Y-137160000D01*
X154305000Y-146050000D02*
X166370000Y-146050000D01*
X184785000Y-132080000D02*
X185420000Y-131445000D01*
X166370000Y-146050000D02*
X166370000Y-139065000D01*
X168910000Y-132080000D02*
X184785000Y-132080000D01*
X168275000Y-132715000D02*
X168910000Y-132080000D01*
X168275000Y-137160000D02*
X168275000Y-132715000D01*
X185420000Y-127000000D02*
X185420000Y-131445000D01*
X151765000Y-131445000D02*
X151765000Y-125730000D01*
X181610000Y-130810000D02*
X180975000Y-131445000D01*
X180975000Y-131445000D02*
X168275000Y-131445000D01*
X152400000Y-125095000D02*
X154305000Y-125095000D01*
X151765000Y-125730000D02*
X152400000Y-125095000D01*
X166371410Y-133348590D02*
X152398590Y-133348590D01*
X168275000Y-131445000D02*
X166371410Y-133348590D01*
X152398590Y-133348590D02*
X151765000Y-132715000D01*
X181610000Y-127000000D02*
X181610000Y-130810000D01*
X151765000Y-132715000D02*
X151765000Y-131445000D01*
X218440000Y-149225000D02*
X211328988Y-156336012D01*
X230505000Y-85217000D02*
X230505000Y-86487000D01*
X229653000Y-84365000D02*
X230505000Y-85217000D01*
X230505000Y-86487000D02*
X238760000Y-94742000D01*
X237680500Y-149225000D02*
X218440000Y-149225000D01*
X238760000Y-94742000D02*
X238760000Y-148145500D01*
X181098012Y-156336012D02*
X179448000Y-154686000D01*
X211328988Y-156336012D02*
X181098012Y-156336012D01*
X207772000Y-84365000D02*
X229653000Y-84365000D01*
X238760000Y-148145500D02*
X237680500Y-149225000D01*
X203517500Y-83502500D02*
X230060500Y-83502500D01*
X237807500Y-149860000D02*
X219075000Y-149860000D01*
X230060500Y-83502500D02*
X231394000Y-84836000D01*
X202692000Y-84328000D02*
X203517500Y-83502500D01*
X219075000Y-149860000D02*
X212090000Y-156845000D01*
X239268000Y-148399500D02*
X237807500Y-149860000D01*
X176874000Y-156845000D02*
X176276000Y-156247000D01*
X231394000Y-85979000D02*
X239268000Y-93853000D01*
X239268000Y-93853000D02*
X239268000Y-148399500D01*
X212090000Y-156845000D02*
X176874000Y-156845000D01*
X231394000Y-84836000D02*
X231394000Y-85979000D01*
X238125000Y-150495000D02*
X230505000Y-150495000D01*
X239776000Y-93091000D02*
X239776000Y-148844000D01*
X231007490Y-83052490D02*
X232410000Y-84455000D01*
X193807510Y-83052490D02*
X231007490Y-83052490D01*
X193040000Y-83820000D02*
X193807510Y-83052490D01*
X194945000Y-88900000D02*
X193675000Y-88900000D01*
X230124000Y-150876000D02*
X230124000Y-152908000D01*
X230715500Y-154686000D02*
X230715500Y-153499500D01*
X193675000Y-88900000D02*
X193040000Y-88265000D01*
X239776000Y-148844000D02*
X238125000Y-150495000D01*
X193040000Y-88265000D02*
X193040000Y-83820000D01*
X232410000Y-85725000D02*
X239776000Y-93091000D01*
X232410000Y-84455000D02*
X232410000Y-85725000D01*
X230505000Y-150495000D02*
X230124000Y-150876000D01*
X230715500Y-153499500D02*
X230124000Y-152908000D01*
D33*
X221615000Y-87630000D02*
X221615000Y-92710000D01*
X220345000Y-86360000D02*
X221615000Y-87630000D01*
X220500500Y-93824500D02*
X212725000Y-93824500D01*
X220500500Y-93824500D02*
X221615000Y-92710000D01*
D32*
X233045000Y-119380000D02*
X227965000Y-119380000D01*
X203835000Y-101600000D02*
X202565000Y-100330000D01*
X217715000Y-102145000D02*
X217170000Y-101600000D01*
X226695000Y-102145000D02*
X217715000Y-102145000D01*
X227965000Y-119380000D02*
X227330000Y-118745000D01*
X227330000Y-118745000D02*
X227330000Y-104140000D01*
X217170000Y-101600000D02*
X203835000Y-101600000D01*
X228055001Y-108675001D02*
X228600000Y-109220000D01*
X227330000Y-102870000D02*
X228055001Y-103595001D01*
X217678000Y-104140000D02*
X218948000Y-102870000D01*
X218948000Y-102870000D02*
X227330000Y-102870000D01*
X228600000Y-109220000D02*
X233045000Y-109220000D01*
X202565000Y-104140000D02*
X217678000Y-104140000D01*
X228055001Y-103595001D02*
X228055001Y-108675001D01*
X203835000Y-99060000D02*
X233045000Y-99060000D01*
X187960000Y-95885000D02*
X190500000Y-98425000D01*
X151765000Y-107225000D02*
X151765000Y-104775000D01*
X176530000Y-95885000D02*
X187960000Y-95885000D01*
X190500000Y-98425000D02*
X203200000Y-98425000D01*
X167005000Y-100965000D02*
X174399501Y-100965000D01*
X151765000Y-104775000D02*
X152400000Y-104140000D01*
X174399501Y-100965000D02*
X175985001Y-99379500D01*
X175985001Y-99379500D02*
X175985001Y-96429999D01*
X175985001Y-96429999D02*
X176530000Y-95885000D01*
X163830000Y-104140000D02*
X167005000Y-100965000D01*
X154305000Y-104140000D02*
X163830000Y-104140000D01*
X152400000Y-104140000D02*
X154305000Y-104140000D01*
X203200000Y-98425000D02*
X203835000Y-99060000D01*
X144145000Y-108585000D02*
X143510000Y-107950000D01*
X146050000Y-108585000D02*
X144145000Y-108585000D01*
X143510000Y-100965000D02*
X143510000Y-107950000D01*
D33*
X217551000Y-106553000D02*
X207137000Y-106553000D01*
X224155000Y-115506500D02*
X223202500Y-114554000D01*
X218694000Y-111506000D02*
X218694000Y-107696000D01*
X224155000Y-128905000D02*
X224155000Y-115506500D01*
X219456000Y-114554000D02*
X218694000Y-113792000D01*
X206375000Y-107315000D02*
X207137000Y-106553000D01*
X223202500Y-114554000D02*
X219456000Y-114554000D01*
X206375000Y-107950000D02*
X206375000Y-107315000D01*
X218694000Y-107696000D02*
X217551000Y-106553000D01*
X233045000Y-129540000D02*
X228055010Y-129540000D01*
X203327000Y-109347000D02*
X202565000Y-108585000D01*
X208915000Y-107950000D02*
X208915000Y-108585000D01*
X208915000Y-108585000D02*
X208153000Y-109347000D01*
X208153000Y-109347000D02*
X203327000Y-109347000D01*
X202565000Y-108585000D02*
X202565000Y-107950000D01*
M02*
