M48
INCH,TZ
T1C0.0669
T2C0.1575
%
G90
G05
T1
X59750Y-39000
X63750Y-39000
X70000Y-55500
X74000Y-55500
X86500Y-55500
X90500Y-55500
X78250Y-55500
X82250Y-55500
X59750Y-47250
X63750Y-47250
X78250Y-47250
X82250Y-47250
X59750Y-55500
X63750Y-55500
T2
X61750Y-39000
X72000Y-55500
X88500Y-55500
X80250Y-55500
X61750Y-47250
X80250Y-47250
X61750Y-55500
T0
M30
