M48
; DRILL file {KiCad 8.0.4} date 2024-10-17T01:57:14+0200
; FORMAT={-:-/ absolute / inch / decimal}
; #@! TF.CreationDate,2024-10-17T01:57:14+02:00
; #@! TF.GenerationSoftware,Kicad,Pcbnew,8.0.4
; #@! TF.FileFunction,Plated,1,2,PTH
FMAT,2
INCH
; #@! TA.AperFunction,Plated,PTH,ViaDrill
T1C0.0157
; #@! TA.AperFunction,Plated,PTH,ComponentDrill
T2C0.0315
; #@! TA.AperFunction,Plated,PTH,ComponentDrill
T3C0.0354
; #@! TA.AperFunction,Plated,PTH,ComponentDrill
T4C0.0390
; #@! TA.AperFunction,Plated,PTH,ComponentDrill
T5C0.0394
; #@! TA.AperFunction,Plated,PTH,ComponentDrill
T6C0.0400
; #@! TA.AperFunction,Plated,PTH,ComponentDrill
T7C0.0433
; #@! TA.AperFunction,Plated,PTH,ComponentDrill
T8C0.0512
; #@! TA.AperFunction,Plated,PTH,ComponentDrill
T9C0.0591
; #@! TA.AperFunction,Plated,PTH,ComponentDrill
T10C0.1200
%
G90
G05
T1
X5.84Y-4.38
X5.84Y-5.0
X5.8689Y-3.7
X5.8689Y-4.3
X5.9311Y-3.7
X5.9311Y-4.0
X5.9311Y-4.275
X5.94Y-4.98
X5.975Y-4.075
X5.975Y-4.2215
X6.525Y-5.2214
X6.5429Y-4.1429
X6.5429Y-4.3035
X6.55Y-4.375
X6.55Y-4.425
X6.5715Y-4.1035
X6.85Y-5.9
X6.8679Y-4.31
X6.8965Y-4.3785
X6.9Y-3.875
X6.925Y-4.425
X6.94Y-6.1515
X7.19Y-6.1215
X7.225Y-4.925
X7.27Y-3.71
X7.3Y-3.925
X7.375Y-4.8965
X7.55Y-5.9
X7.56Y-4.37
X7.56Y-4.46
X7.575Y-5.8
X7.7223Y-4.3623
X7.725Y-4.5535
X7.98Y-3.32
X8.18Y-3.3215
X8.375Y-3.6939
X8.45Y-5.9
X8.5465Y-4.0715
X8.5707Y-4.4785
X8.61Y-4.39
X8.61Y-4.48
X8.625Y-4.135
X8.6465Y-4.59
X8.675Y-4.55
X8.7035Y-4.15
X8.7939Y-5.025
X8.8035Y-4.1
X8.825Y-5.075
X8.875Y-4.1
X8.925Y-4.0215
X8.95Y-4.1
X8.95Y-5.025
X8.9577Y-5.1923
X8.9785Y-5.1
X9.32Y-3.975
X9.36Y-3.8
T2
X5.65Y-3.575
X5.65Y-3.975
X5.65Y-4.525
X5.65Y-4.925
X5.8Y-3.575
X5.8Y-3.975
X5.8Y-4.525
X5.8Y-4.925
X5.8Y-5.35
X5.8Y-5.75
X5.975Y-4.35
X5.975Y-5.175
X6.375Y-4.35
X6.375Y-5.175
X6.55Y-4.7
X6.55Y-5.1
X6.55Y-5.35
X6.55Y-5.75
X6.6875Y-5.35
X6.6875Y-5.75
X6.825Y-5.35
X6.825Y-5.75
X7.0Y-4.7
X7.3Y-4.7
X7.5Y-4.7
X7.5Y-5.1
X7.575Y-3.95
X7.575Y-4.1
X7.575Y-4.25
X7.65Y-4.525
X7.65Y-4.925
X7.65Y-5.35
X7.65Y-5.75
X7.825Y-5.175
X7.975Y-3.95
X7.975Y-4.1
X7.975Y-4.25
X8.125Y-4.25
X8.225Y-4.25
X8.225Y-5.175
X8.325Y-4.25
X8.4Y-4.525
X8.4Y-4.925
X8.475Y-5.35
X8.475Y-5.75
X9.225Y-5.35
X9.225Y-5.75
T3
X6.025Y-3.325
X6.025Y-3.425
X6.125Y-3.7
X6.125Y-4.525
X6.125Y-5.35
X6.225Y-3.7
X6.225Y-4.525
X6.225Y-5.35
X6.325Y-3.325
X6.325Y-3.425
X7.15Y-5.35
X7.25Y-5.35
X7.975Y-4.525
X7.975Y-5.35
X8.075Y-4.525
X8.075Y-5.35
X8.8Y-5.35
X8.9Y-5.35
T4
X5.9428Y-6.09
X6.12Y-6.09
X6.4153Y-6.09
X6.5924Y-6.09
X6.8877Y-6.09
X7.0649Y-6.09
X8.9061Y-6.09
X9.0833Y-6.09
T5
X6.5385Y-3.325
X6.5385Y-3.425
X6.675Y-3.425
X6.675Y-3.525
X6.675Y-3.625
X6.675Y-3.725
X6.675Y-3.825
X6.675Y-3.925
X6.675Y-4.025
X6.675Y-4.125
X6.675Y-4.225
X6.675Y-4.325
X6.675Y-4.425
X6.675Y-4.525
X6.775Y-3.425
X6.775Y-3.525
X6.775Y-3.625
X6.775Y-3.725
X6.775Y-3.825
X6.775Y-3.925
X6.775Y-4.025
X6.775Y-4.125
X6.775Y-4.225
X6.775Y-4.325
X6.775Y-4.425
X6.775Y-4.525
X7.375Y-3.425
X7.375Y-3.525
X7.375Y-3.625
X7.375Y-3.725
X7.375Y-3.825
X7.375Y-3.925
X7.375Y-4.025
X7.375Y-4.125
X7.375Y-4.225
X7.375Y-4.325
X7.375Y-4.425
X7.375Y-4.525
X8.175Y-3.8
X8.275Y-3.8
X9.175Y-3.8
X9.175Y-3.9
X9.175Y-4.0
X9.175Y-4.2
X9.175Y-4.3
X9.175Y-4.4
X9.175Y-4.6
X9.175Y-4.7
X9.175Y-4.8
X9.175Y-5.0
X9.175Y-5.1
T6
X7.675Y-3.4
X7.675Y-3.5
X7.775Y-3.4
X7.775Y-3.5
X7.875Y-3.4
X7.875Y-3.5
X7.975Y-3.4
X7.975Y-3.5
X8.075Y-3.4
X8.075Y-3.5
X8.575Y-3.4
X8.575Y-3.5
X8.675Y-3.4
X8.675Y-3.5
X8.775Y-3.4
X8.775Y-3.5
X8.875Y-3.4
X8.875Y-3.5
X8.975Y-3.4
X8.975Y-3.5
T7
X6.7Y-4.9
X6.7Y-5.0772
X6.9559Y-4.9
X6.9559Y-5.0772
X7.575Y-3.8
X7.975Y-3.8
T8
X5.8932Y-5.992
X6.1692Y-5.992
X6.3657Y-5.992
X6.6417Y-5.992
X6.8381Y-5.992
X7.1141Y-5.992
X8.8565Y-5.992
X9.1325Y-5.992
T9
X6.075Y-4.1
X6.075Y-4.925
X6.075Y-5.75
X6.325Y-4.0
X6.325Y-4.825
X6.325Y-5.65
X7.1Y-5.75
X7.35Y-5.65
X7.925Y-4.925
X7.925Y-5.75
X8.175Y-4.825
X8.175Y-5.65
X8.75Y-5.75
X9.0Y-5.65
T10
X5.675Y-3.375
X5.675Y-6.075
X9.35Y-3.375
X9.35Y-6.075
M30
