G04 #@! TF.GenerationSoftware,KiCad,Pcbnew,(5.1.5)-3*
G04 #@! TF.CreationDate,2020-12-06T23:32:07+01:00*
G04 #@! TF.ProjectId,C64 Joykey,43363420-4a6f-4796-9b65-792e6b696361,rev?*
G04 #@! TF.SameCoordinates,Original*
G04 #@! TF.FileFunction,Legend,Top*
G04 #@! TF.FilePolarity,Positive*
%FSLAX46Y46*%
G04 Gerber Fmt 4.6, Leading zero omitted, Abs format (unit mm)*
G04 Created by KiCad (PCBNEW (5.1.5)-3) date 2020-12-06 23:32:07*
%MOMM*%
%LPD*%
G04 APERTURE LIST*
%ADD10C,0.100000*%
%ADD11C,0.150000*%
%ADD12C,0.120000*%
G04 APERTURE END LIST*
D10*
X220865952Y-93706904D02*
X220865952Y-92906904D01*
X221170714Y-92906904D01*
X221246904Y-92945000D01*
X221285000Y-92983095D01*
X221323095Y-93059285D01*
X221323095Y-93173571D01*
X221285000Y-93249761D01*
X221246904Y-93287857D01*
X221170714Y-93325952D01*
X220865952Y-93325952D01*
X221818333Y-92906904D02*
X221970714Y-92906904D01*
X222046904Y-92945000D01*
X222123095Y-93021190D01*
X222161190Y-93173571D01*
X222161190Y-93440238D01*
X222123095Y-93592619D01*
X222046904Y-93668809D01*
X221970714Y-93706904D01*
X221818333Y-93706904D01*
X221742142Y-93668809D01*
X221665952Y-93592619D01*
X221627857Y-93440238D01*
X221627857Y-93173571D01*
X221665952Y-93021190D01*
X221742142Y-92945000D01*
X221818333Y-92906904D01*
X222961190Y-93706904D02*
X222694523Y-93325952D01*
X222504047Y-93706904D02*
X222504047Y-92906904D01*
X222808809Y-92906904D01*
X222885000Y-92945000D01*
X222923095Y-92983095D01*
X222961190Y-93059285D01*
X222961190Y-93173571D01*
X222923095Y-93249761D01*
X222885000Y-93287857D01*
X222808809Y-93325952D01*
X222504047Y-93325952D01*
X223189761Y-92906904D02*
X223646904Y-92906904D01*
X223418333Y-93706904D02*
X223418333Y-92906904D01*
X224485000Y-92983095D02*
X224523095Y-92945000D01*
X224599285Y-92906904D01*
X224789761Y-92906904D01*
X224865952Y-92945000D01*
X224904047Y-92983095D01*
X224942142Y-93059285D01*
X224942142Y-93135476D01*
X224904047Y-93249761D01*
X224446904Y-93706904D01*
X224942142Y-93706904D01*
X198005952Y-93706904D02*
X198005952Y-92906904D01*
X198310714Y-92906904D01*
X198386904Y-92945000D01*
X198425000Y-92983095D01*
X198463095Y-93059285D01*
X198463095Y-93173571D01*
X198425000Y-93249761D01*
X198386904Y-93287857D01*
X198310714Y-93325952D01*
X198005952Y-93325952D01*
X198958333Y-92906904D02*
X199110714Y-92906904D01*
X199186904Y-92945000D01*
X199263095Y-93021190D01*
X199301190Y-93173571D01*
X199301190Y-93440238D01*
X199263095Y-93592619D01*
X199186904Y-93668809D01*
X199110714Y-93706904D01*
X198958333Y-93706904D01*
X198882142Y-93668809D01*
X198805952Y-93592619D01*
X198767857Y-93440238D01*
X198767857Y-93173571D01*
X198805952Y-93021190D01*
X198882142Y-92945000D01*
X198958333Y-92906904D01*
X200101190Y-93706904D02*
X199834523Y-93325952D01*
X199644047Y-93706904D02*
X199644047Y-92906904D01*
X199948809Y-92906904D01*
X200025000Y-92945000D01*
X200063095Y-92983095D01*
X200101190Y-93059285D01*
X200101190Y-93173571D01*
X200063095Y-93249761D01*
X200025000Y-93287857D01*
X199948809Y-93325952D01*
X199644047Y-93325952D01*
X200329761Y-92906904D02*
X200786904Y-92906904D01*
X200558333Y-93706904D02*
X200558333Y-92906904D01*
X202082142Y-93706904D02*
X201625000Y-93706904D01*
X201853571Y-93706904D02*
X201853571Y-92906904D01*
X201777380Y-93021190D01*
X201701190Y-93097380D01*
X201625000Y-93135476D01*
D11*
X215345000Y-103767380D02*
X214868809Y-103767380D01*
X214868809Y-102767380D01*
X215678333Y-103767380D02*
X215678333Y-103100714D01*
X215678333Y-102767380D02*
X215630714Y-102815000D01*
X215678333Y-102862619D01*
X215725952Y-102815000D01*
X215678333Y-102767380D01*
X215678333Y-102862619D01*
X216583095Y-103719761D02*
X216487857Y-103767380D01*
X216297380Y-103767380D01*
X216202142Y-103719761D01*
X216154523Y-103672142D01*
X216106904Y-103576904D01*
X216106904Y-103291190D01*
X216154523Y-103195952D01*
X216202142Y-103148333D01*
X216297380Y-103100714D01*
X216487857Y-103100714D01*
X216583095Y-103148333D01*
X217392619Y-103719761D02*
X217297380Y-103767380D01*
X217106904Y-103767380D01*
X217011666Y-103719761D01*
X216964047Y-103624523D01*
X216964047Y-103243571D01*
X217011666Y-103148333D01*
X217106904Y-103100714D01*
X217297380Y-103100714D01*
X217392619Y-103148333D01*
X217440238Y-103243571D01*
X217440238Y-103338809D01*
X216964047Y-103434047D01*
X217868809Y-103100714D02*
X217868809Y-103767380D01*
X217868809Y-103195952D02*
X217916428Y-103148333D01*
X218011666Y-103100714D01*
X218154523Y-103100714D01*
X218249761Y-103148333D01*
X218297380Y-103243571D01*
X218297380Y-103767380D01*
X218725952Y-103719761D02*
X218821190Y-103767380D01*
X219011666Y-103767380D01*
X219106904Y-103719761D01*
X219154523Y-103624523D01*
X219154523Y-103576904D01*
X219106904Y-103481666D01*
X219011666Y-103434047D01*
X218868809Y-103434047D01*
X218773571Y-103386428D01*
X218725952Y-103291190D01*
X218725952Y-103243571D01*
X218773571Y-103148333D01*
X218868809Y-103100714D01*
X219011666Y-103100714D01*
X219106904Y-103148333D01*
X219964047Y-103719761D02*
X219868809Y-103767380D01*
X219678333Y-103767380D01*
X219583095Y-103719761D01*
X219535476Y-103624523D01*
X219535476Y-103243571D01*
X219583095Y-103148333D01*
X219678333Y-103100714D01*
X219868809Y-103100714D01*
X219964047Y-103148333D01*
X220011666Y-103243571D01*
X220011666Y-103338809D01*
X219535476Y-103434047D01*
X220868809Y-103767380D02*
X220868809Y-102767380D01*
X220868809Y-103719761D02*
X220773571Y-103767380D01*
X220583095Y-103767380D01*
X220487857Y-103719761D01*
X220440238Y-103672142D01*
X220392619Y-103576904D01*
X220392619Y-103291190D01*
X220440238Y-103195952D01*
X220487857Y-103148333D01*
X220583095Y-103100714D01*
X220773571Y-103100714D01*
X220868809Y-103148333D01*
X222535476Y-103100714D02*
X222535476Y-103767380D01*
X222106904Y-103100714D02*
X222106904Y-103624523D01*
X222154523Y-103719761D01*
X222249761Y-103767380D01*
X222392619Y-103767380D01*
X222487857Y-103719761D01*
X222535476Y-103672142D01*
X223011666Y-103100714D02*
X223011666Y-103767380D01*
X223011666Y-103195952D02*
X223059285Y-103148333D01*
X223154523Y-103100714D01*
X223297380Y-103100714D01*
X223392619Y-103148333D01*
X223440238Y-103243571D01*
X223440238Y-103767380D01*
X224345000Y-103767380D02*
X224345000Y-102767380D01*
X224345000Y-103719761D02*
X224249761Y-103767380D01*
X224059285Y-103767380D01*
X223964047Y-103719761D01*
X223916428Y-103672142D01*
X223868809Y-103576904D01*
X223868809Y-103291190D01*
X223916428Y-103195952D01*
X223964047Y-103148333D01*
X224059285Y-103100714D01*
X224249761Y-103100714D01*
X224345000Y-103148333D01*
X225202142Y-103719761D02*
X225106904Y-103767380D01*
X224916428Y-103767380D01*
X224821190Y-103719761D01*
X224773571Y-103624523D01*
X224773571Y-103243571D01*
X224821190Y-103148333D01*
X224916428Y-103100714D01*
X225106904Y-103100714D01*
X225202142Y-103148333D01*
X225249761Y-103243571D01*
X225249761Y-103338809D01*
X224773571Y-103434047D01*
X225678333Y-103767380D02*
X225678333Y-103100714D01*
X225678333Y-103291190D02*
X225725952Y-103195952D01*
X225773571Y-103148333D01*
X225868809Y-103100714D01*
X225964047Y-103100714D01*
X215392619Y-105322142D02*
X215345000Y-105369761D01*
X215202142Y-105417380D01*
X215106904Y-105417380D01*
X214964047Y-105369761D01*
X214868809Y-105274523D01*
X214821190Y-105179285D01*
X214773571Y-104988809D01*
X214773571Y-104845952D01*
X214821190Y-104655476D01*
X214868809Y-104560238D01*
X214964047Y-104465000D01*
X215106904Y-104417380D01*
X215202142Y-104417380D01*
X215345000Y-104465000D01*
X215392619Y-104512619D01*
X215821190Y-104893571D02*
X216154523Y-104893571D01*
X216297380Y-105417380D02*
X215821190Y-105417380D01*
X215821190Y-104417380D01*
X216297380Y-104417380D01*
X217297380Y-105417380D02*
X216964047Y-104941190D01*
X216725952Y-105417380D02*
X216725952Y-104417380D01*
X217106904Y-104417380D01*
X217202142Y-104465000D01*
X217249761Y-104512619D01*
X217297380Y-104607857D01*
X217297380Y-104750714D01*
X217249761Y-104845952D01*
X217202142Y-104893571D01*
X217106904Y-104941190D01*
X216725952Y-104941190D01*
X217725952Y-105417380D02*
X217725952Y-104417380D01*
X218297380Y-105417380D01*
X218297380Y-104417380D01*
X219725952Y-104417380D02*
X219916428Y-104417380D01*
X220011666Y-104465000D01*
X220106904Y-104560238D01*
X220154523Y-104750714D01*
X220154523Y-105084047D01*
X220106904Y-105274523D01*
X220011666Y-105369761D01*
X219916428Y-105417380D01*
X219725952Y-105417380D01*
X219630714Y-105369761D01*
X219535476Y-105274523D01*
X219487857Y-105084047D01*
X219487857Y-104750714D01*
X219535476Y-104560238D01*
X219630714Y-104465000D01*
X219725952Y-104417380D01*
X220583095Y-105417380D02*
X220583095Y-104417380D01*
X220583095Y-104893571D02*
X221154523Y-104893571D01*
X221154523Y-105417380D02*
X221154523Y-104417380D01*
X222106904Y-105417380D02*
X221630714Y-105417380D01*
X221630714Y-104417380D01*
X223106904Y-104750714D02*
X223345000Y-105417380D01*
X223583095Y-104750714D01*
X224487857Y-105417380D02*
X223916428Y-105417380D01*
X224202142Y-105417380D02*
X224202142Y-104417380D01*
X224106904Y-104560238D01*
X224011666Y-104655476D01*
X223916428Y-104703095D01*
X224916428Y-105322142D02*
X224964047Y-105369761D01*
X224916428Y-105417380D01*
X224868809Y-105369761D01*
X224916428Y-105322142D01*
X224916428Y-105417380D01*
X225344999Y-104512619D02*
X225392619Y-104465000D01*
X225487857Y-104417380D01*
X225725952Y-104417380D01*
X225821190Y-104465000D01*
X225868809Y-104512619D01*
X225916428Y-104607857D01*
X225916428Y-104703095D01*
X225868809Y-104845952D01*
X225297380Y-105417380D01*
X225916428Y-105417380D01*
X212805238Y-98592142D02*
X212757619Y-98639761D01*
X212614761Y-98687380D01*
X212519523Y-98687380D01*
X212376666Y-98639761D01*
X212281428Y-98544523D01*
X212233809Y-98449285D01*
X212186190Y-98258809D01*
X212186190Y-98115952D01*
X212233809Y-97925476D01*
X212281428Y-97830238D01*
X212376666Y-97735000D01*
X212519523Y-97687380D01*
X212614761Y-97687380D01*
X212757619Y-97735000D01*
X212805238Y-97782619D01*
X213662380Y-97687380D02*
X213471904Y-97687380D01*
X213376666Y-97735000D01*
X213329047Y-97782619D01*
X213233809Y-97925476D01*
X213186190Y-98115952D01*
X213186190Y-98496904D01*
X213233809Y-98592142D01*
X213281428Y-98639761D01*
X213376666Y-98687380D01*
X213567142Y-98687380D01*
X213662380Y-98639761D01*
X213710000Y-98592142D01*
X213757619Y-98496904D01*
X213757619Y-98258809D01*
X213710000Y-98163571D01*
X213662380Y-98115952D01*
X213567142Y-98068333D01*
X213376666Y-98068333D01*
X213281428Y-98115952D01*
X213233809Y-98163571D01*
X213186190Y-98258809D01*
X214614761Y-98020714D02*
X214614761Y-98687380D01*
X214376666Y-97639761D02*
X214138571Y-98354047D01*
X214757619Y-98354047D01*
X216186190Y-97687380D02*
X216186190Y-98401666D01*
X216138571Y-98544523D01*
X216043333Y-98639761D01*
X215900476Y-98687380D01*
X215805238Y-98687380D01*
X216805238Y-98687380D02*
X216710000Y-98639761D01*
X216662380Y-98592142D01*
X216614761Y-98496904D01*
X216614761Y-98211190D01*
X216662380Y-98115952D01*
X216710000Y-98068333D01*
X216805238Y-98020714D01*
X216948095Y-98020714D01*
X217043333Y-98068333D01*
X217090952Y-98115952D01*
X217138571Y-98211190D01*
X217138571Y-98496904D01*
X217090952Y-98592142D01*
X217043333Y-98639761D01*
X216948095Y-98687380D01*
X216805238Y-98687380D01*
X217471904Y-98020714D02*
X217710000Y-98687380D01*
X217948095Y-98020714D02*
X217710000Y-98687380D01*
X217614761Y-98925476D01*
X217567142Y-98973095D01*
X217471904Y-99020714D01*
X218329047Y-98687380D02*
X218329047Y-97687380D01*
X218900476Y-98687380D02*
X218471904Y-98115952D01*
X218900476Y-97687380D02*
X218329047Y-98258809D01*
X219329047Y-98163571D02*
X219662380Y-98163571D01*
X219805238Y-98687380D02*
X219329047Y-98687380D01*
X219329047Y-97687380D01*
X219805238Y-97687380D01*
X220424285Y-98211190D02*
X220424285Y-98687380D01*
X220090952Y-97687380D02*
X220424285Y-98211190D01*
X220757619Y-97687380D01*
X222138571Y-99068333D02*
X222090952Y-99020714D01*
X221995714Y-98877857D01*
X221948095Y-98782619D01*
X221900476Y-98639761D01*
X221852857Y-98401666D01*
X221852857Y-98211190D01*
X221900476Y-97973095D01*
X221948095Y-97830238D01*
X221995714Y-97735000D01*
X222090952Y-97592142D01*
X222138571Y-97544523D01*
X222519523Y-98687380D02*
X222519523Y-98020714D01*
X222519523Y-98211190D02*
X222567142Y-98115952D01*
X222614761Y-98068333D01*
X222710000Y-98020714D01*
X222805238Y-98020714D01*
X223519523Y-98639761D02*
X223424285Y-98687380D01*
X223233809Y-98687380D01*
X223138571Y-98639761D01*
X223090952Y-98544523D01*
X223090952Y-98163571D01*
X223138571Y-98068333D01*
X223233809Y-98020714D01*
X223424285Y-98020714D01*
X223519523Y-98068333D01*
X223567142Y-98163571D01*
X223567142Y-98258809D01*
X223090952Y-98354047D01*
X223900476Y-98020714D02*
X224138571Y-98687380D01*
X224376666Y-98020714D01*
X224757619Y-98592142D02*
X224805238Y-98639761D01*
X224757619Y-98687380D01*
X224710000Y-98639761D01*
X224757619Y-98592142D01*
X224757619Y-98687380D01*
X226329047Y-98163571D02*
X226471904Y-98211190D01*
X226519523Y-98258809D01*
X226567142Y-98354047D01*
X226567142Y-98496904D01*
X226519523Y-98592142D01*
X226471904Y-98639761D01*
X226376666Y-98687380D01*
X225995714Y-98687380D01*
X225995714Y-97687380D01*
X226329047Y-97687380D01*
X226424285Y-97735000D01*
X226471904Y-97782619D01*
X226519523Y-97877857D01*
X226519523Y-97973095D01*
X226471904Y-98068333D01*
X226424285Y-98115952D01*
X226329047Y-98163571D01*
X225995714Y-98163571D01*
X226900476Y-99068333D02*
X226948095Y-99020714D01*
X227043333Y-98877857D01*
X227090952Y-98782619D01*
X227138571Y-98639761D01*
X227186190Y-98401666D01*
X227186190Y-98211190D01*
X227138571Y-97973095D01*
X227090952Y-97830238D01*
X227043333Y-97735000D01*
X226948095Y-97592142D01*
X226900476Y-97544523D01*
X214305238Y-99670714D02*
X214305238Y-100480238D01*
X214257619Y-100575476D01*
X214210000Y-100623095D01*
X214114761Y-100670714D01*
X213971904Y-100670714D01*
X213876666Y-100623095D01*
X214305238Y-100289761D02*
X214210000Y-100337380D01*
X214019523Y-100337380D01*
X213924285Y-100289761D01*
X213876666Y-100242142D01*
X213829047Y-100146904D01*
X213829047Y-99861190D01*
X213876666Y-99765952D01*
X213924285Y-99718333D01*
X214019523Y-99670714D01*
X214210000Y-99670714D01*
X214305238Y-99718333D01*
X214781428Y-100337380D02*
X214781428Y-99670714D01*
X214781428Y-99337380D02*
X214733809Y-99385000D01*
X214781428Y-99432619D01*
X214829047Y-99385000D01*
X214781428Y-99337380D01*
X214781428Y-99432619D01*
X215114761Y-99670714D02*
X215495714Y-99670714D01*
X215257619Y-99337380D02*
X215257619Y-100194523D01*
X215305238Y-100289761D01*
X215400476Y-100337380D01*
X215495714Y-100337380D01*
X215829047Y-100337380D02*
X215829047Y-99337380D01*
X216257619Y-100337380D02*
X216257619Y-99813571D01*
X216210000Y-99718333D01*
X216114761Y-99670714D01*
X215971904Y-99670714D01*
X215876666Y-99718333D01*
X215829047Y-99765952D01*
X217162380Y-99670714D02*
X217162380Y-100337380D01*
X216733809Y-99670714D02*
X216733809Y-100194523D01*
X216781428Y-100289761D01*
X216876666Y-100337380D01*
X217019523Y-100337380D01*
X217114761Y-100289761D01*
X217162380Y-100242142D01*
X217638571Y-100337380D02*
X217638571Y-99337380D01*
X217638571Y-99718333D02*
X217733809Y-99670714D01*
X217924285Y-99670714D01*
X218019523Y-99718333D01*
X218067142Y-99765952D01*
X218114761Y-99861190D01*
X218114761Y-100146904D01*
X218067142Y-100242142D01*
X218019523Y-100289761D01*
X217924285Y-100337380D01*
X217733809Y-100337380D01*
X217638571Y-100289761D01*
X218543333Y-100242142D02*
X218590952Y-100289761D01*
X218543333Y-100337380D01*
X218495714Y-100289761D01*
X218543333Y-100242142D01*
X218543333Y-100337380D01*
X219448095Y-100289761D02*
X219352857Y-100337380D01*
X219162380Y-100337380D01*
X219067142Y-100289761D01*
X219019523Y-100242142D01*
X218971904Y-100146904D01*
X218971904Y-99861190D01*
X219019523Y-99765952D01*
X219067142Y-99718333D01*
X219162380Y-99670714D01*
X219352857Y-99670714D01*
X219448095Y-99718333D01*
X220019523Y-100337380D02*
X219924285Y-100289761D01*
X219876666Y-100242142D01*
X219829047Y-100146904D01*
X219829047Y-99861190D01*
X219876666Y-99765952D01*
X219924285Y-99718333D01*
X220019523Y-99670714D01*
X220162380Y-99670714D01*
X220257619Y-99718333D01*
X220305238Y-99765952D01*
X220352857Y-99861190D01*
X220352857Y-100146904D01*
X220305238Y-100242142D01*
X220257619Y-100289761D01*
X220162380Y-100337380D01*
X220019523Y-100337380D01*
X220781428Y-100337380D02*
X220781428Y-99670714D01*
X220781428Y-99765952D02*
X220829047Y-99718333D01*
X220924285Y-99670714D01*
X221067142Y-99670714D01*
X221162380Y-99718333D01*
X221210000Y-99813571D01*
X221210000Y-100337380D01*
X221210000Y-99813571D02*
X221257619Y-99718333D01*
X221352857Y-99670714D01*
X221495714Y-99670714D01*
X221590952Y-99718333D01*
X221638571Y-99813571D01*
X221638571Y-100337380D01*
X222829047Y-99289761D02*
X221971904Y-100575476D01*
X223019523Y-99670714D02*
X223400476Y-99670714D01*
X223162380Y-99337380D02*
X223162380Y-100194523D01*
X223210000Y-100289761D01*
X223305238Y-100337380D01*
X223400476Y-100337380D01*
X224114761Y-100289761D02*
X224019523Y-100337380D01*
X223829047Y-100337380D01*
X223733809Y-100289761D01*
X223686190Y-100194523D01*
X223686190Y-99813571D01*
X223733809Y-99718333D01*
X223829047Y-99670714D01*
X224019523Y-99670714D01*
X224114761Y-99718333D01*
X224162380Y-99813571D01*
X224162380Y-99908809D01*
X223686190Y-100004047D01*
X224590952Y-100337380D02*
X224590952Y-99337380D01*
X224590952Y-99718333D02*
X224686190Y-99670714D01*
X224876666Y-99670714D01*
X224971904Y-99718333D01*
X225019523Y-99765952D01*
X225067142Y-99861190D01*
X225067142Y-100146904D01*
X225019523Y-100242142D01*
X224971904Y-100289761D01*
X224876666Y-100337380D01*
X224686190Y-100337380D01*
X224590952Y-100289761D01*
X225638571Y-100337380D02*
X225543333Y-100289761D01*
X225495714Y-100194523D01*
X225495714Y-99337380D01*
D12*
X188595000Y-118110000D02*
X188595000Y-130175000D01*
X188595000Y-130810000D02*
X168275000Y-130810000D01*
X168275000Y-118110000D02*
X168275000Y-130175000D01*
X179070000Y-113030000D02*
X180340000Y-114300000D01*
X179070000Y-114300000D02*
X179070000Y-113030000D01*
X180340000Y-113030000D02*
X179070000Y-114300000D01*
X180280000Y-123130000D02*
X181610000Y-123130000D01*
X180280000Y-124460000D02*
X180280000Y-123130000D01*
X180280000Y-125730000D02*
X182940000Y-125730000D01*
X182940000Y-125730000D02*
X182940000Y-128330000D01*
X180280000Y-125730000D02*
X180280000Y-128330000D01*
X180280000Y-128330000D02*
X182940000Y-128330000D01*
D11*
X164846000Y-89535000D02*
X167894000Y-89535000D01*
X164846000Y-87757000D02*
X164846000Y-89535000D01*
X164846000Y-83693000D02*
X164846000Y-87249000D01*
X165100000Y-83693000D02*
X164846000Y-83693000D01*
X167894000Y-83185000D02*
X164846000Y-83185000D01*
X167894000Y-89535000D02*
X167894000Y-83185000D01*
X165100000Y-87249000D02*
X164846000Y-87249000D01*
X170815000Y-116205000D02*
X170815000Y-117475000D01*
X170815000Y-113665000D02*
X170815000Y-114935000D01*
X170815000Y-111125000D02*
X170815000Y-112395000D01*
X170815000Y-108585000D02*
X170815000Y-109855000D01*
X170815000Y-106045000D02*
X170815000Y-107315000D01*
X170815000Y-103505000D02*
X170815000Y-104775000D01*
X170815000Y-100965000D02*
X170815000Y-102235000D01*
X170815000Y-98425000D02*
X170815000Y-99695000D01*
X170815000Y-95885000D02*
X170815000Y-97155000D01*
X170815000Y-93345000D02*
X170815000Y-94615000D01*
X170815000Y-90805000D02*
X170815000Y-92075000D01*
X170815000Y-88265000D02*
X170815000Y-89535000D01*
X170815000Y-85725000D02*
X170815000Y-86995000D01*
X170815000Y-83185000D02*
X170815000Y-84455000D01*
X179070000Y-114300000D02*
X180340000Y-114300000D01*
X180340000Y-114300000D02*
X180340000Y-113030000D01*
X180340000Y-113030000D02*
X179070000Y-113030000D01*
X179070000Y-113030000D02*
X179070000Y-114300000D01*
X180340000Y-114935000D02*
X179070000Y-114935000D01*
X179070000Y-114935000D02*
X179070000Y-116205000D01*
X179070000Y-116205000D02*
X180340000Y-116205000D01*
X180340000Y-116205000D02*
X180340000Y-114935000D01*
X182245000Y-81915000D02*
X182245000Y-83185000D01*
X182245000Y-83185000D02*
X188595000Y-83185000D01*
X168275000Y-83185000D02*
X174625000Y-83185000D01*
X174625000Y-83185000D02*
X174625000Y-81915000D01*
X174625000Y-81915000D02*
X182245000Y-81915000D01*
X188595000Y-117475000D02*
X188595000Y-83185000D01*
X168275000Y-83185000D02*
X168275000Y-117475000D01*
X168275000Y-117475000D02*
X188595000Y-117475000D01*
D12*
X149860000Y-133985000D02*
X163830000Y-133985000D01*
X163830000Y-133985000D02*
X163830000Y-147955000D01*
X163830000Y-147955000D02*
X149860000Y-147955000D01*
X149860000Y-147955000D02*
X149860000Y-133985000D01*
X149860000Y-127000000D02*
X149860000Y-113030000D01*
X163830000Y-127000000D02*
X149860000Y-127000000D01*
X163830000Y-113030000D02*
X163830000Y-127000000D01*
X149860000Y-113030000D02*
X163830000Y-113030000D01*
X149860000Y-92075000D02*
X163830000Y-92075000D01*
X163830000Y-92075000D02*
X163830000Y-106045000D01*
X163830000Y-106045000D02*
X149860000Y-106045000D01*
X149860000Y-106045000D02*
X149860000Y-92075000D01*
X196850000Y-127000000D02*
X196850000Y-113030000D01*
X210820000Y-127000000D02*
X196850000Y-127000000D01*
X210820000Y-113030000D02*
X210820000Y-127000000D01*
X196850000Y-113030000D02*
X210820000Y-113030000D01*
X196850000Y-133985000D02*
X210820000Y-133985000D01*
X210820000Y-133985000D02*
X210820000Y-147955000D01*
X210820000Y-147955000D02*
X196850000Y-147955000D01*
X196850000Y-147955000D02*
X196850000Y-133985000D01*
X175895000Y-147955000D02*
X175895000Y-133985000D01*
X189865000Y-147955000D02*
X175895000Y-147955000D01*
X189865000Y-133985000D02*
X189865000Y-147955000D01*
X175895000Y-133985000D02*
X189865000Y-133985000D01*
X217805000Y-133985000D02*
X231775000Y-133985000D01*
X231775000Y-133985000D02*
X231775000Y-147955000D01*
X231775000Y-147955000D02*
X217805000Y-147955000D01*
X217805000Y-147955000D02*
X217805000Y-133985000D01*
X151490000Y-88285000D02*
X154580000Y-88285000D01*
X155535000Y-85725000D02*
G75*
G03X155535000Y-85725000I-2500000J0D01*
G01*
X153034538Y-82735000D02*
G75*
G02X154579830Y-88285000I462J-2990000D01*
G01*
X153035462Y-82735000D02*
G75*
G03X151490170Y-88285000I-462J-2990000D01*
G01*
X160655462Y-82735000D02*
G75*
G03X159110170Y-88285000I-462J-2990000D01*
G01*
X160654538Y-82735000D02*
G75*
G02X162199830Y-88285000I462J-2990000D01*
G01*
X163155000Y-85725000D02*
G75*
G03X163155000Y-85725000I-2500000J0D01*
G01*
X159110000Y-88285000D02*
X162200000Y-88285000D01*
X176930000Y-127460000D02*
X176930000Y-125960000D01*
X175680000Y-123460000D02*
X171180000Y-123460000D01*
X169930000Y-125960000D02*
X169930000Y-127460000D01*
X171180000Y-129960000D02*
X175680000Y-129960000D01*
X231775000Y-95250000D02*
X233045000Y-95250000D01*
X231775000Y-96520000D02*
X231775000Y-95250000D01*
X234087929Y-101980000D02*
X234485000Y-101980000D01*
X234087929Y-101220000D02*
X234485000Y-101220000D01*
X243145000Y-101980000D02*
X237145000Y-101980000D01*
X243145000Y-101220000D02*
X243145000Y-101980000D01*
X237145000Y-101220000D02*
X243145000Y-101220000D01*
X234485000Y-100330000D02*
X237145000Y-100330000D01*
X234087929Y-99440000D02*
X234485000Y-99440000D01*
X234087929Y-98680000D02*
X234485000Y-98680000D01*
X243145000Y-99440000D02*
X237145000Y-99440000D01*
X243145000Y-98680000D02*
X243145000Y-99440000D01*
X237145000Y-98680000D02*
X243145000Y-98680000D01*
X234485000Y-97790000D02*
X237145000Y-97790000D01*
X234155000Y-96900000D02*
X234485000Y-96900000D01*
X234155000Y-96140000D02*
X234485000Y-96140000D01*
X237145000Y-96800000D02*
X243145000Y-96800000D01*
X237145000Y-96680000D02*
X243145000Y-96680000D01*
X237145000Y-96560000D02*
X243145000Y-96560000D01*
X237145000Y-96440000D02*
X243145000Y-96440000D01*
X237145000Y-96320000D02*
X243145000Y-96320000D01*
X237145000Y-96200000D02*
X243145000Y-96200000D01*
X243145000Y-96900000D02*
X237145000Y-96900000D01*
X243145000Y-96140000D02*
X243145000Y-96900000D01*
X237145000Y-96140000D02*
X243145000Y-96140000D01*
X237145000Y-95190000D02*
X234485000Y-95190000D01*
X237145000Y-102930000D02*
X237145000Y-95190000D01*
X234485000Y-102930000D02*
X237145000Y-102930000D01*
X234485000Y-95190000D02*
X234485000Y-102930000D01*
X231775000Y-105410000D02*
X233045000Y-105410000D01*
X231775000Y-106680000D02*
X231775000Y-105410000D01*
X234087929Y-112140000D02*
X234485000Y-112140000D01*
X234087929Y-111380000D02*
X234485000Y-111380000D01*
X243145000Y-112140000D02*
X237145000Y-112140000D01*
X243145000Y-111380000D02*
X243145000Y-112140000D01*
X237145000Y-111380000D02*
X243145000Y-111380000D01*
X234485000Y-110490000D02*
X237145000Y-110490000D01*
X234087929Y-109600000D02*
X234485000Y-109600000D01*
X234087929Y-108840000D02*
X234485000Y-108840000D01*
X243145000Y-109600000D02*
X237145000Y-109600000D01*
X243145000Y-108840000D02*
X243145000Y-109600000D01*
X237145000Y-108840000D02*
X243145000Y-108840000D01*
X234485000Y-107950000D02*
X237145000Y-107950000D01*
X234155000Y-107060000D02*
X234485000Y-107060000D01*
X234155000Y-106300000D02*
X234485000Y-106300000D01*
X237145000Y-106960000D02*
X243145000Y-106960000D01*
X237145000Y-106840000D02*
X243145000Y-106840000D01*
X237145000Y-106720000D02*
X243145000Y-106720000D01*
X237145000Y-106600000D02*
X243145000Y-106600000D01*
X237145000Y-106480000D02*
X243145000Y-106480000D01*
X237145000Y-106360000D02*
X243145000Y-106360000D01*
X243145000Y-107060000D02*
X237145000Y-107060000D01*
X243145000Y-106300000D02*
X243145000Y-107060000D01*
X237145000Y-106300000D02*
X243145000Y-106300000D01*
X237145000Y-105350000D02*
X234485000Y-105350000D01*
X237145000Y-113090000D02*
X237145000Y-105350000D01*
X234485000Y-113090000D02*
X237145000Y-113090000D01*
X234485000Y-105350000D02*
X234485000Y-113090000D01*
X234485000Y-115510000D02*
X234485000Y-123250000D01*
X234485000Y-123250000D02*
X237145000Y-123250000D01*
X237145000Y-123250000D02*
X237145000Y-115510000D01*
X237145000Y-115510000D02*
X234485000Y-115510000D01*
X237145000Y-116460000D02*
X243145000Y-116460000D01*
X243145000Y-116460000D02*
X243145000Y-117220000D01*
X243145000Y-117220000D02*
X237145000Y-117220000D01*
X237145000Y-116520000D02*
X243145000Y-116520000D01*
X237145000Y-116640000D02*
X243145000Y-116640000D01*
X237145000Y-116760000D02*
X243145000Y-116760000D01*
X237145000Y-116880000D02*
X243145000Y-116880000D01*
X237145000Y-117000000D02*
X243145000Y-117000000D01*
X237145000Y-117120000D02*
X243145000Y-117120000D01*
X234155000Y-116460000D02*
X234485000Y-116460000D01*
X234155000Y-117220000D02*
X234485000Y-117220000D01*
X234485000Y-118110000D02*
X237145000Y-118110000D01*
X237145000Y-119000000D02*
X243145000Y-119000000D01*
X243145000Y-119000000D02*
X243145000Y-119760000D01*
X243145000Y-119760000D02*
X237145000Y-119760000D01*
X234087929Y-119000000D02*
X234485000Y-119000000D01*
X234087929Y-119760000D02*
X234485000Y-119760000D01*
X234485000Y-120650000D02*
X237145000Y-120650000D01*
X237145000Y-121540000D02*
X243145000Y-121540000D01*
X243145000Y-121540000D02*
X243145000Y-122300000D01*
X243145000Y-122300000D02*
X237145000Y-122300000D01*
X234087929Y-121540000D02*
X234485000Y-121540000D01*
X234087929Y-122300000D02*
X234485000Y-122300000D01*
X231775000Y-116840000D02*
X231775000Y-115570000D01*
X231775000Y-115570000D02*
X233045000Y-115570000D01*
X189595000Y-82955000D02*
X210455000Y-82955000D01*
X210455000Y-82955000D02*
X210455000Y-92305000D01*
X210455000Y-92305000D02*
X189595000Y-92305000D01*
X189595000Y-92305000D02*
X189595000Y-82955000D01*
X189345000Y-92555000D02*
X191885000Y-92555000D01*
X189345000Y-92555000D02*
X189345000Y-90015000D01*
X212205000Y-92555000D02*
X212205000Y-90015000D01*
X212205000Y-92555000D02*
X214745000Y-92555000D01*
X212455000Y-92305000D02*
X212455000Y-82955000D01*
X233315000Y-92305000D02*
X212455000Y-92305000D01*
X233315000Y-82955000D02*
X233315000Y-92305000D01*
X212455000Y-82955000D02*
X233315000Y-82955000D01*
X184090000Y-123130000D02*
X185420000Y-123130000D01*
X184090000Y-124460000D02*
X184090000Y-123130000D01*
X184090000Y-125730000D02*
X186750000Y-125730000D01*
X186750000Y-125730000D02*
X186750000Y-128330000D01*
X184090000Y-125730000D02*
X184090000Y-128330000D01*
X184090000Y-128330000D02*
X186750000Y-128330000D01*
X200625000Y-99655000D02*
X200625000Y-102275000D01*
X200625000Y-102275000D02*
X207045000Y-102275000D01*
X207045000Y-102275000D02*
X207045000Y-99655000D01*
X207045000Y-99655000D02*
X200625000Y-99655000D01*
X199735000Y-100965000D02*
X200625000Y-100965000D01*
X207935000Y-100965000D02*
X207045000Y-100965000D01*
X207935000Y-104775000D02*
X207045000Y-104775000D01*
X199735000Y-104775000D02*
X200625000Y-104775000D01*
X207045000Y-103465000D02*
X200625000Y-103465000D01*
X207045000Y-106085000D02*
X207045000Y-103465000D01*
X200625000Y-106085000D02*
X207045000Y-106085000D01*
X200625000Y-103465000D02*
X200625000Y-106085000D01*
X145455000Y-92675000D02*
X142835000Y-92675000D01*
X142835000Y-92675000D02*
X142835000Y-99095000D01*
X142835000Y-99095000D02*
X145455000Y-99095000D01*
X145455000Y-99095000D02*
X145455000Y-92675000D01*
X144145000Y-91785000D02*
X144145000Y-92675000D01*
X144145000Y-99985000D02*
X144145000Y-99095000D01*
X144145000Y-113320000D02*
X144145000Y-112430000D01*
X144145000Y-105120000D02*
X144145000Y-106010000D01*
X145455000Y-112430000D02*
X145455000Y-106010000D01*
X142835000Y-112430000D02*
X145455000Y-112430000D01*
X142835000Y-106010000D02*
X142835000Y-112430000D01*
X145455000Y-106010000D02*
X142835000Y-106010000D01*
X202015000Y-95110000D02*
X202015000Y-97930000D01*
X207635000Y-96520000D02*
X206495000Y-96520000D01*
X200035000Y-96520000D02*
X201175000Y-96520000D01*
X206495000Y-95110000D02*
X201175000Y-95110000D01*
X206495000Y-97930000D02*
X206495000Y-95110000D01*
X201175000Y-97930000D02*
X206495000Y-97930000D01*
X201175000Y-95110000D02*
X201175000Y-97930000D01*
X182115000Y-118955000D02*
X182115000Y-121075000D01*
X186345000Y-120015000D02*
X185575000Y-120015000D01*
X180685000Y-120015000D02*
X181455000Y-120015000D01*
X185575000Y-118955000D02*
X181455000Y-118955000D01*
X185575000Y-121075000D02*
X185575000Y-118955000D01*
X181455000Y-121075000D02*
X185575000Y-121075000D01*
X181455000Y-118955000D02*
X181455000Y-121075000D01*
D10*
X180943333Y-129101904D02*
X180943333Y-129673333D01*
X180905238Y-129787619D01*
X180829047Y-129863809D01*
X180714761Y-129901904D01*
X180638571Y-129901904D01*
X181324285Y-129901904D02*
X181324285Y-129101904D01*
X181629047Y-129101904D01*
X181705238Y-129140000D01*
X181743333Y-129178095D01*
X181781428Y-129254285D01*
X181781428Y-129368571D01*
X181743333Y-129444761D01*
X181705238Y-129482857D01*
X181629047Y-129520952D01*
X181324285Y-129520952D01*
X182467142Y-129101904D02*
X182314761Y-129101904D01*
X182238571Y-129140000D01*
X182200476Y-129178095D01*
X182124285Y-129292380D01*
X182086190Y-129444761D01*
X182086190Y-129749523D01*
X182124285Y-129825714D01*
X182162380Y-129863809D01*
X182238571Y-129901904D01*
X182390952Y-129901904D01*
X182467142Y-129863809D01*
X182505238Y-129825714D01*
X182543333Y-129749523D01*
X182543333Y-129559047D01*
X182505238Y-129482857D01*
X182467142Y-129444761D01*
X182390952Y-129406666D01*
X182238571Y-129406666D01*
X182162380Y-129444761D01*
X182124285Y-129482857D01*
X182086190Y-129559047D01*
X163849285Y-91166904D02*
X163468333Y-91166904D01*
X163468333Y-90366904D01*
X164115952Y-90747857D02*
X164382619Y-90747857D01*
X164496904Y-91166904D02*
X164115952Y-91166904D01*
X164115952Y-90366904D01*
X164496904Y-90366904D01*
X164839761Y-91166904D02*
X164839761Y-90366904D01*
X165030238Y-90366904D01*
X165144523Y-90405000D01*
X165220714Y-90481190D01*
X165258809Y-90557380D01*
X165296904Y-90709761D01*
X165296904Y-90824047D01*
X165258809Y-90976428D01*
X165220714Y-91052619D01*
X165144523Y-91128809D01*
X165030238Y-91166904D01*
X164839761Y-91166904D01*
X165449285Y-91243095D02*
X166058809Y-91243095D01*
X166211190Y-91128809D02*
X166325476Y-91166904D01*
X166515952Y-91166904D01*
X166592142Y-91128809D01*
X166630238Y-91090714D01*
X166668333Y-91014523D01*
X166668333Y-90938333D01*
X166630238Y-90862142D01*
X166592142Y-90824047D01*
X166515952Y-90785952D01*
X166363571Y-90747857D01*
X166287380Y-90709761D01*
X166249285Y-90671666D01*
X166211190Y-90595476D01*
X166211190Y-90519285D01*
X166249285Y-90443095D01*
X166287380Y-90405000D01*
X166363571Y-90366904D01*
X166554047Y-90366904D01*
X166668333Y-90405000D01*
X167011190Y-90747857D02*
X167277857Y-90747857D01*
X167392142Y-91166904D02*
X167011190Y-91166904D01*
X167011190Y-90366904D01*
X167392142Y-90366904D01*
X168115952Y-91166904D02*
X167735000Y-91166904D01*
X167735000Y-90366904D01*
X162528333Y-89096904D02*
X162528333Y-89668333D01*
X162490238Y-89782619D01*
X162414047Y-89858809D01*
X162299761Y-89896904D01*
X162223571Y-89896904D01*
X162909285Y-89896904D02*
X162909285Y-89096904D01*
X163214047Y-89096904D01*
X163290238Y-89135000D01*
X163328333Y-89173095D01*
X163366428Y-89249285D01*
X163366428Y-89363571D01*
X163328333Y-89439761D01*
X163290238Y-89477857D01*
X163214047Y-89515952D01*
X162909285Y-89515952D01*
X164090238Y-89096904D02*
X163709285Y-89096904D01*
X163671190Y-89477857D01*
X163709285Y-89439761D01*
X163785476Y-89401666D01*
X163975952Y-89401666D01*
X164052142Y-89439761D01*
X164090238Y-89477857D01*
X164128333Y-89554047D01*
X164128333Y-89744523D01*
X164090238Y-89820714D01*
X164052142Y-89858809D01*
X163975952Y-89896904D01*
X163785476Y-89896904D01*
X163709285Y-89858809D01*
X163671190Y-89820714D01*
D11*
X179871666Y-101679285D02*
X179871666Y-101203095D01*
X180157380Y-101774523D02*
X179157380Y-101441190D01*
X180157380Y-101107857D01*
X180157380Y-100250714D02*
X180157380Y-100822142D01*
X180157380Y-100536428D02*
X179157380Y-100536428D01*
X179300238Y-100631666D01*
X179395476Y-100726904D01*
X179443095Y-100822142D01*
X177331666Y-107584047D02*
X177331666Y-107107857D01*
X177617380Y-107679285D02*
X176617380Y-107345952D01*
X177617380Y-107012619D01*
X177617380Y-106679285D02*
X176950714Y-106679285D01*
X177141190Y-106679285D02*
X177045952Y-106631666D01*
X176998333Y-106584047D01*
X176950714Y-106488809D01*
X176950714Y-106393571D01*
X177617380Y-105631666D02*
X176617380Y-105631666D01*
X177569761Y-105631666D02*
X177617380Y-105726904D01*
X177617380Y-105917380D01*
X177569761Y-106012619D01*
X177522142Y-106060238D01*
X177426904Y-106107857D01*
X177141190Y-106107857D01*
X177045952Y-106060238D01*
X176998333Y-106012619D01*
X176950714Y-105917380D01*
X176950714Y-105726904D01*
X176998333Y-105631666D01*
X176950714Y-104726904D02*
X177617380Y-104726904D01*
X176950714Y-105155476D02*
X177474523Y-105155476D01*
X177569761Y-105107857D01*
X177617380Y-105012619D01*
X177617380Y-104869761D01*
X177569761Y-104774523D01*
X177522142Y-104726904D01*
X177617380Y-104250714D02*
X176950714Y-104250714D01*
X176617380Y-104250714D02*
X176665000Y-104298333D01*
X176712619Y-104250714D01*
X176665000Y-104203095D01*
X176617380Y-104250714D01*
X176712619Y-104250714D01*
X176950714Y-103774523D02*
X177617380Y-103774523D01*
X177045952Y-103774523D02*
X176998333Y-103726904D01*
X176950714Y-103631666D01*
X176950714Y-103488809D01*
X176998333Y-103393571D01*
X177093571Y-103345952D01*
X177617380Y-103345952D01*
X177617380Y-102726904D02*
X177569761Y-102822142D01*
X177522142Y-102869761D01*
X177426904Y-102917380D01*
X177141190Y-102917380D01*
X177045952Y-102869761D01*
X176998333Y-102822142D01*
X176950714Y-102726904D01*
X176950714Y-102584047D01*
X176998333Y-102488809D01*
X177045952Y-102441190D01*
X177141190Y-102393571D01*
X177426904Y-102393571D01*
X177522142Y-102441190D01*
X177569761Y-102488809D01*
X177617380Y-102584047D01*
X177617380Y-102726904D01*
X177712619Y-102203095D02*
X177712619Y-101441190D01*
X177617380Y-101203095D02*
X176617380Y-101203095D01*
X176617380Y-100822142D01*
X176665000Y-100726904D01*
X176712619Y-100679285D01*
X176807857Y-100631666D01*
X176950714Y-100631666D01*
X177045952Y-100679285D01*
X177093571Y-100726904D01*
X177141190Y-100822142D01*
X177141190Y-101203095D01*
X177617380Y-100203095D02*
X176950714Y-100203095D01*
X177141190Y-100203095D02*
X177045952Y-100155476D01*
X176998333Y-100107857D01*
X176950714Y-100012619D01*
X176950714Y-99917380D01*
X177617380Y-99441190D02*
X177569761Y-99536428D01*
X177522142Y-99584047D01*
X177426904Y-99631666D01*
X177141190Y-99631666D01*
X177045952Y-99584047D01*
X176998333Y-99536428D01*
X176950714Y-99441190D01*
X176950714Y-99298333D01*
X176998333Y-99203095D01*
X177045952Y-99155476D01*
X177141190Y-99107857D01*
X177426904Y-99107857D01*
X177522142Y-99155476D01*
X177569761Y-99203095D01*
X177617380Y-99298333D01*
X177617380Y-99441190D01*
X177712619Y-98917380D02*
X177712619Y-98155476D01*
X177617380Y-97917380D02*
X176617380Y-97917380D01*
X177331666Y-97584047D01*
X176617380Y-97250714D01*
X177617380Y-97250714D01*
X177617380Y-96774523D02*
X176950714Y-96774523D01*
X176617380Y-96774523D02*
X176665000Y-96822142D01*
X176712619Y-96774523D01*
X176665000Y-96726904D01*
X176617380Y-96774523D01*
X176712619Y-96774523D01*
X177569761Y-95869761D02*
X177617380Y-95965000D01*
X177617380Y-96155476D01*
X177569761Y-96250714D01*
X177522142Y-96298333D01*
X177426904Y-96345952D01*
X177141190Y-96345952D01*
X177045952Y-96298333D01*
X176998333Y-96250714D01*
X176950714Y-96155476D01*
X176950714Y-95965000D01*
X176998333Y-95869761D01*
X177617380Y-95441190D02*
X176950714Y-95441190D01*
X177141190Y-95441190D02*
X177045952Y-95393571D01*
X176998333Y-95345952D01*
X176950714Y-95250714D01*
X176950714Y-95155476D01*
X177617380Y-94679285D02*
X177569761Y-94774523D01*
X177522142Y-94822142D01*
X177426904Y-94869761D01*
X177141190Y-94869761D01*
X177045952Y-94822142D01*
X176998333Y-94774523D01*
X176950714Y-94679285D01*
X176950714Y-94536428D01*
X176998333Y-94441190D01*
X177045952Y-94393571D01*
X177141190Y-94345952D01*
X177426904Y-94345952D01*
X177522142Y-94393571D01*
X177569761Y-94441190D01*
X177617380Y-94536428D01*
X177617380Y-94679285D01*
X175101428Y-115022380D02*
X175720476Y-115022380D01*
X175387142Y-115403333D01*
X175530000Y-115403333D01*
X175625238Y-115450952D01*
X175672857Y-115498571D01*
X175720476Y-115593809D01*
X175720476Y-115831904D01*
X175672857Y-115927142D01*
X175625238Y-115974761D01*
X175530000Y-116022380D01*
X175244285Y-116022380D01*
X175149047Y-115974761D01*
X175101428Y-115927142D01*
X176149047Y-115927142D02*
X176196666Y-115974761D01*
X176149047Y-116022380D01*
X176101428Y-115974761D01*
X176149047Y-115927142D01*
X176149047Y-116022380D01*
X176530000Y-115022380D02*
X177149047Y-115022380D01*
X176815714Y-115403333D01*
X176958571Y-115403333D01*
X177053809Y-115450952D01*
X177101428Y-115498571D01*
X177149047Y-115593809D01*
X177149047Y-115831904D01*
X177101428Y-115927142D01*
X177053809Y-115974761D01*
X176958571Y-116022380D01*
X176672857Y-116022380D01*
X176577619Y-115974761D01*
X176530000Y-115927142D01*
X177482380Y-115355714D02*
X177720476Y-116022380D01*
X177958571Y-115355714D01*
X177022142Y-113117380D02*
X176545952Y-113117380D01*
X176498333Y-113593571D01*
X176545952Y-113545952D01*
X176641190Y-113498333D01*
X176879285Y-113498333D01*
X176974523Y-113545952D01*
X177022142Y-113593571D01*
X177069761Y-113688809D01*
X177069761Y-113926904D01*
X177022142Y-114022142D01*
X176974523Y-114069761D01*
X176879285Y-114117380D01*
X176641190Y-114117380D01*
X176545952Y-114069761D01*
X176498333Y-114022142D01*
X177403095Y-113450714D02*
X177641190Y-114117380D01*
X177879285Y-113450714D01*
X155511666Y-138199761D02*
X155654523Y-138247380D01*
X155892619Y-138247380D01*
X155987857Y-138199761D01*
X156035476Y-138152142D01*
X156083095Y-138056904D01*
X156083095Y-137961666D01*
X156035476Y-137866428D01*
X155987857Y-137818809D01*
X155892619Y-137771190D01*
X155702142Y-137723571D01*
X155606904Y-137675952D01*
X155559285Y-137628333D01*
X155511666Y-137533095D01*
X155511666Y-137437857D01*
X155559285Y-137342619D01*
X155606904Y-137295000D01*
X155702142Y-137247380D01*
X155940238Y-137247380D01*
X156083095Y-137295000D01*
X156416428Y-137247380D02*
X156654523Y-138247380D01*
X156845000Y-137533095D01*
X157035476Y-138247380D01*
X157273571Y-137247380D01*
X158178333Y-138247380D02*
X157606904Y-138247380D01*
X157892619Y-138247380D02*
X157892619Y-137247380D01*
X157797380Y-137390238D01*
X157702142Y-137485476D01*
X157606904Y-137533095D01*
X155321190Y-148772571D02*
X154987857Y-148772571D01*
X154987857Y-149296380D02*
X154987857Y-148296380D01*
X155464047Y-148296380D01*
X155845000Y-149296380D02*
X155845000Y-148296380D01*
X156892619Y-149296380D02*
X156559285Y-148820190D01*
X156321190Y-149296380D02*
X156321190Y-148296380D01*
X156702142Y-148296380D01*
X156797380Y-148344000D01*
X156845000Y-148391619D01*
X156892619Y-148486857D01*
X156892619Y-148629714D01*
X156845000Y-148724952D01*
X156797380Y-148772571D01*
X156702142Y-148820190D01*
X156321190Y-148820190D01*
X157321190Y-148772571D02*
X157654523Y-148772571D01*
X157797380Y-149296380D02*
X157321190Y-149296380D01*
X157321190Y-148296380D01*
X157797380Y-148296380D01*
X158749761Y-149296380D02*
X158178333Y-149296380D01*
X158464047Y-149296380D02*
X158464047Y-148296380D01*
X158368809Y-148439238D01*
X158273571Y-148534476D01*
X158178333Y-148582095D01*
X155511666Y-117244761D02*
X155654523Y-117292380D01*
X155892619Y-117292380D01*
X155987857Y-117244761D01*
X156035476Y-117197142D01*
X156083095Y-117101904D01*
X156083095Y-117006666D01*
X156035476Y-116911428D01*
X155987857Y-116863809D01*
X155892619Y-116816190D01*
X155702142Y-116768571D01*
X155606904Y-116720952D01*
X155559285Y-116673333D01*
X155511666Y-116578095D01*
X155511666Y-116482857D01*
X155559285Y-116387619D01*
X155606904Y-116340000D01*
X155702142Y-116292380D01*
X155940238Y-116292380D01*
X156083095Y-116340000D01*
X156416428Y-116292380D02*
X156654523Y-117292380D01*
X156845000Y-116578095D01*
X157035476Y-117292380D01*
X157273571Y-116292380D01*
X157606904Y-116387619D02*
X157654523Y-116340000D01*
X157749761Y-116292380D01*
X157987857Y-116292380D01*
X158083095Y-116340000D01*
X158130714Y-116387619D01*
X158178333Y-116482857D01*
X158178333Y-116578095D01*
X158130714Y-116720952D01*
X157559285Y-117292380D01*
X158178333Y-117292380D01*
X155321190Y-127817571D02*
X154987857Y-127817571D01*
X154987857Y-128341380D02*
X154987857Y-127341380D01*
X155464047Y-127341380D01*
X155845000Y-128341380D02*
X155845000Y-127341380D01*
X156892619Y-128341380D02*
X156559285Y-127865190D01*
X156321190Y-128341380D02*
X156321190Y-127341380D01*
X156702142Y-127341380D01*
X156797380Y-127389000D01*
X156845000Y-127436619D01*
X156892619Y-127531857D01*
X156892619Y-127674714D01*
X156845000Y-127769952D01*
X156797380Y-127817571D01*
X156702142Y-127865190D01*
X156321190Y-127865190D01*
X157321190Y-127817571D02*
X157654523Y-127817571D01*
X157797380Y-128341380D02*
X157321190Y-128341380D01*
X157321190Y-127341380D01*
X157797380Y-127341380D01*
X158178333Y-127436619D02*
X158225952Y-127389000D01*
X158321190Y-127341380D01*
X158559285Y-127341380D01*
X158654523Y-127389000D01*
X158702142Y-127436619D01*
X158749761Y-127531857D01*
X158749761Y-127627095D01*
X158702142Y-127769952D01*
X158130714Y-128341380D01*
X158749761Y-128341380D01*
X155511666Y-96289761D02*
X155654523Y-96337380D01*
X155892619Y-96337380D01*
X155987857Y-96289761D01*
X156035476Y-96242142D01*
X156083095Y-96146904D01*
X156083095Y-96051666D01*
X156035476Y-95956428D01*
X155987857Y-95908809D01*
X155892619Y-95861190D01*
X155702142Y-95813571D01*
X155606904Y-95765952D01*
X155559285Y-95718333D01*
X155511666Y-95623095D01*
X155511666Y-95527857D01*
X155559285Y-95432619D01*
X155606904Y-95385000D01*
X155702142Y-95337380D01*
X155940238Y-95337380D01*
X156083095Y-95385000D01*
X156416428Y-95337380D02*
X156654523Y-96337380D01*
X156845000Y-95623095D01*
X157035476Y-96337380D01*
X157273571Y-95337380D01*
X157559285Y-95337380D02*
X158178333Y-95337380D01*
X157845000Y-95718333D01*
X157987857Y-95718333D01*
X158083095Y-95765952D01*
X158130714Y-95813571D01*
X158178333Y-95908809D01*
X158178333Y-96146904D01*
X158130714Y-96242142D01*
X158083095Y-96289761D01*
X157987857Y-96337380D01*
X157702142Y-96337380D01*
X157606904Y-96289761D01*
X157559285Y-96242142D01*
X155321190Y-106862571D02*
X154987857Y-106862571D01*
X154987857Y-107386380D02*
X154987857Y-106386380D01*
X155464047Y-106386380D01*
X155845000Y-107386380D02*
X155845000Y-106386380D01*
X156892619Y-107386380D02*
X156559285Y-106910190D01*
X156321190Y-107386380D02*
X156321190Y-106386380D01*
X156702142Y-106386380D01*
X156797380Y-106434000D01*
X156845000Y-106481619D01*
X156892619Y-106576857D01*
X156892619Y-106719714D01*
X156845000Y-106814952D01*
X156797380Y-106862571D01*
X156702142Y-106910190D01*
X156321190Y-106910190D01*
X157321190Y-106862571D02*
X157654523Y-106862571D01*
X157797380Y-107386380D02*
X157321190Y-107386380D01*
X157321190Y-106386380D01*
X157797380Y-106386380D01*
X158130714Y-106386380D02*
X158749761Y-106386380D01*
X158416428Y-106767333D01*
X158559285Y-106767333D01*
X158654523Y-106814952D01*
X158702142Y-106862571D01*
X158749761Y-106957809D01*
X158749761Y-107195904D01*
X158702142Y-107291142D01*
X158654523Y-107338761D01*
X158559285Y-107386380D01*
X158273571Y-107386380D01*
X158178333Y-107338761D01*
X158130714Y-107291142D01*
X202501666Y-117244761D02*
X202644523Y-117292380D01*
X202882619Y-117292380D01*
X202977857Y-117244761D01*
X203025476Y-117197142D01*
X203073095Y-117101904D01*
X203073095Y-117006666D01*
X203025476Y-116911428D01*
X202977857Y-116863809D01*
X202882619Y-116816190D01*
X202692142Y-116768571D01*
X202596904Y-116720952D01*
X202549285Y-116673333D01*
X202501666Y-116578095D01*
X202501666Y-116482857D01*
X202549285Y-116387619D01*
X202596904Y-116340000D01*
X202692142Y-116292380D01*
X202930238Y-116292380D01*
X203073095Y-116340000D01*
X203406428Y-116292380D02*
X203644523Y-117292380D01*
X203835000Y-116578095D01*
X204025476Y-117292380D01*
X204263571Y-116292380D01*
X205073095Y-116625714D02*
X205073095Y-117292380D01*
X204835000Y-116244761D02*
X204596904Y-116959047D01*
X205215952Y-116959047D01*
X203049285Y-127341380D02*
X203049285Y-128150904D01*
X203096904Y-128246142D01*
X203144523Y-128293761D01*
X203239761Y-128341380D01*
X203430238Y-128341380D01*
X203525476Y-128293761D01*
X203573095Y-128246142D01*
X203620714Y-128150904D01*
X203620714Y-127341380D01*
X204096904Y-128341380D02*
X204096904Y-127341380D01*
X204477857Y-127341380D01*
X204573095Y-127389000D01*
X204620714Y-127436619D01*
X204668333Y-127531857D01*
X204668333Y-127674714D01*
X204620714Y-127769952D01*
X204573095Y-127817571D01*
X204477857Y-127865190D01*
X204096904Y-127865190D01*
X202501666Y-138199761D02*
X202644523Y-138247380D01*
X202882619Y-138247380D01*
X202977857Y-138199761D01*
X203025476Y-138152142D01*
X203073095Y-138056904D01*
X203073095Y-137961666D01*
X203025476Y-137866428D01*
X202977857Y-137818809D01*
X202882619Y-137771190D01*
X202692142Y-137723571D01*
X202596904Y-137675952D01*
X202549285Y-137628333D01*
X202501666Y-137533095D01*
X202501666Y-137437857D01*
X202549285Y-137342619D01*
X202596904Y-137295000D01*
X202692142Y-137247380D01*
X202930238Y-137247380D01*
X203073095Y-137295000D01*
X203406428Y-137247380D02*
X203644523Y-138247380D01*
X203835000Y-137533095D01*
X204025476Y-138247380D01*
X204263571Y-137247380D01*
X205120714Y-137247380D02*
X204644523Y-137247380D01*
X204596904Y-137723571D01*
X204644523Y-137675952D01*
X204739761Y-137628333D01*
X204977857Y-137628333D01*
X205073095Y-137675952D01*
X205120714Y-137723571D01*
X205168333Y-137818809D01*
X205168333Y-138056904D01*
X205120714Y-138152142D01*
X205073095Y-138199761D01*
X204977857Y-138247380D01*
X204739761Y-138247380D01*
X204644523Y-138199761D01*
X204596904Y-138152142D01*
X201954047Y-149296380D02*
X201954047Y-148296380D01*
X202192142Y-148296380D01*
X202335000Y-148344000D01*
X202430238Y-148439238D01*
X202477857Y-148534476D01*
X202525476Y-148724952D01*
X202525476Y-148867809D01*
X202477857Y-149058285D01*
X202430238Y-149153523D01*
X202335000Y-149248761D01*
X202192142Y-149296380D01*
X201954047Y-149296380D01*
X203144523Y-148296380D02*
X203335000Y-148296380D01*
X203430238Y-148344000D01*
X203525476Y-148439238D01*
X203573095Y-148629714D01*
X203573095Y-148963047D01*
X203525476Y-149153523D01*
X203430238Y-149248761D01*
X203335000Y-149296380D01*
X203144523Y-149296380D01*
X203049285Y-149248761D01*
X202954047Y-149153523D01*
X202906428Y-148963047D01*
X202906428Y-148629714D01*
X202954047Y-148439238D01*
X203049285Y-148344000D01*
X203144523Y-148296380D01*
X203906428Y-148296380D02*
X204144523Y-149296380D01*
X204335000Y-148582095D01*
X204525476Y-149296380D01*
X204763571Y-148296380D01*
X205144523Y-149296380D02*
X205144523Y-148296380D01*
X205715952Y-149296380D01*
X205715952Y-148296380D01*
X181546666Y-138199761D02*
X181689523Y-138247380D01*
X181927619Y-138247380D01*
X182022857Y-138199761D01*
X182070476Y-138152142D01*
X182118095Y-138056904D01*
X182118095Y-137961666D01*
X182070476Y-137866428D01*
X182022857Y-137818809D01*
X181927619Y-137771190D01*
X181737142Y-137723571D01*
X181641904Y-137675952D01*
X181594285Y-137628333D01*
X181546666Y-137533095D01*
X181546666Y-137437857D01*
X181594285Y-137342619D01*
X181641904Y-137295000D01*
X181737142Y-137247380D01*
X181975238Y-137247380D01*
X182118095Y-137295000D01*
X182451428Y-137247380D02*
X182689523Y-138247380D01*
X182880000Y-137533095D01*
X183070476Y-138247380D01*
X183308571Y-137247380D01*
X184118095Y-137247380D02*
X183927619Y-137247380D01*
X183832380Y-137295000D01*
X183784761Y-137342619D01*
X183689523Y-137485476D01*
X183641904Y-137675952D01*
X183641904Y-138056904D01*
X183689523Y-138152142D01*
X183737142Y-138199761D01*
X183832380Y-138247380D01*
X184022857Y-138247380D01*
X184118095Y-138199761D01*
X184165714Y-138152142D01*
X184213333Y-138056904D01*
X184213333Y-137818809D01*
X184165714Y-137723571D01*
X184118095Y-137675952D01*
X184022857Y-137628333D01*
X183832380Y-137628333D01*
X183737142Y-137675952D01*
X183689523Y-137723571D01*
X183641904Y-137818809D01*
X181927619Y-149296380D02*
X181451428Y-149296380D01*
X181451428Y-148296380D01*
X182260952Y-148772571D02*
X182594285Y-148772571D01*
X182737142Y-149296380D02*
X182260952Y-149296380D01*
X182260952Y-148296380D01*
X182737142Y-148296380D01*
X183499047Y-148772571D02*
X183165714Y-148772571D01*
X183165714Y-149296380D02*
X183165714Y-148296380D01*
X183641904Y-148296380D01*
X183880000Y-148296380D02*
X184451428Y-148296380D01*
X184165714Y-149296380D02*
X184165714Y-148296380D01*
X223456666Y-138199761D02*
X223599523Y-138247380D01*
X223837619Y-138247380D01*
X223932857Y-138199761D01*
X223980476Y-138152142D01*
X224028095Y-138056904D01*
X224028095Y-137961666D01*
X223980476Y-137866428D01*
X223932857Y-137818809D01*
X223837619Y-137771190D01*
X223647142Y-137723571D01*
X223551904Y-137675952D01*
X223504285Y-137628333D01*
X223456666Y-137533095D01*
X223456666Y-137437857D01*
X223504285Y-137342619D01*
X223551904Y-137295000D01*
X223647142Y-137247380D01*
X223885238Y-137247380D01*
X224028095Y-137295000D01*
X224361428Y-137247380D02*
X224599523Y-138247380D01*
X224790000Y-137533095D01*
X224980476Y-138247380D01*
X225218571Y-137247380D01*
X225504285Y-137247380D02*
X226170952Y-137247380D01*
X225742380Y-138247380D01*
X223456666Y-149296380D02*
X223123333Y-148820190D01*
X222885238Y-149296380D02*
X222885238Y-148296380D01*
X223266190Y-148296380D01*
X223361428Y-148344000D01*
X223409047Y-148391619D01*
X223456666Y-148486857D01*
X223456666Y-148629714D01*
X223409047Y-148724952D01*
X223361428Y-148772571D01*
X223266190Y-148820190D01*
X222885238Y-148820190D01*
X223885238Y-149296380D02*
X223885238Y-148296380D01*
X224885238Y-148344000D02*
X224790000Y-148296380D01*
X224647142Y-148296380D01*
X224504285Y-148344000D01*
X224409047Y-148439238D01*
X224361428Y-148534476D01*
X224313809Y-148724952D01*
X224313809Y-148867809D01*
X224361428Y-149058285D01*
X224409047Y-149153523D01*
X224504285Y-149248761D01*
X224647142Y-149296380D01*
X224742380Y-149296380D01*
X224885238Y-149248761D01*
X224932857Y-149201142D01*
X224932857Y-148867809D01*
X224742380Y-148867809D01*
X225361428Y-149296380D02*
X225361428Y-148296380D01*
X225361428Y-148772571D02*
X225932857Y-148772571D01*
X225932857Y-149296380D02*
X225932857Y-148296380D01*
X226266190Y-148296380D02*
X226837619Y-148296380D01*
X226551904Y-149296380D02*
X226551904Y-148296380D01*
X152296904Y-81732380D02*
X152296904Y-80732380D01*
X152535000Y-80732380D01*
X152677857Y-80780000D01*
X152773095Y-80875238D01*
X152820714Y-80970476D01*
X152868333Y-81160952D01*
X152868333Y-81303809D01*
X152820714Y-81494285D01*
X152773095Y-81589523D01*
X152677857Y-81684761D01*
X152535000Y-81732380D01*
X152296904Y-81732380D01*
X153820714Y-81732380D02*
X153249285Y-81732380D01*
X153535000Y-81732380D02*
X153535000Y-80732380D01*
X153439761Y-80875238D01*
X153344523Y-80970476D01*
X153249285Y-81018095D01*
D10*
X151968333Y-89261904D02*
X151968333Y-88461904D01*
X152273095Y-88461904D01*
X152349285Y-88500000D01*
X152387380Y-88538095D01*
X152425476Y-88614285D01*
X152425476Y-88728571D01*
X152387380Y-88804761D01*
X152349285Y-88842857D01*
X152273095Y-88880952D01*
X151968333Y-88880952D01*
X152692142Y-88461904D02*
X152882619Y-89261904D01*
X153035000Y-88690476D01*
X153187380Y-89261904D01*
X153377857Y-88461904D01*
X154139761Y-89261904D02*
X153873095Y-88880952D01*
X153682619Y-89261904D02*
X153682619Y-88461904D01*
X153987380Y-88461904D01*
X154063571Y-88500000D01*
X154101666Y-88538095D01*
X154139761Y-88614285D01*
X154139761Y-88728571D01*
X154101666Y-88804761D01*
X154063571Y-88842857D01*
X153987380Y-88880952D01*
X153682619Y-88880952D01*
D11*
X159916904Y-81732380D02*
X159916904Y-80732380D01*
X160155000Y-80732380D01*
X160297857Y-80780000D01*
X160393095Y-80875238D01*
X160440714Y-80970476D01*
X160488333Y-81160952D01*
X160488333Y-81303809D01*
X160440714Y-81494285D01*
X160393095Y-81589523D01*
X160297857Y-81684761D01*
X160155000Y-81732380D01*
X159916904Y-81732380D01*
X160869285Y-80827619D02*
X160916904Y-80780000D01*
X161012142Y-80732380D01*
X161250238Y-80732380D01*
X161345476Y-80780000D01*
X161393095Y-80827619D01*
X161440714Y-80922857D01*
X161440714Y-81018095D01*
X161393095Y-81160952D01*
X160821666Y-81732380D01*
X161440714Y-81732380D01*
D10*
X159702619Y-89223809D02*
X159816904Y-89261904D01*
X160007380Y-89261904D01*
X160083571Y-89223809D01*
X160121666Y-89185714D01*
X160159761Y-89109523D01*
X160159761Y-89033333D01*
X160121666Y-88957142D01*
X160083571Y-88919047D01*
X160007380Y-88880952D01*
X159855000Y-88842857D01*
X159778809Y-88804761D01*
X159740714Y-88766666D01*
X159702619Y-88690476D01*
X159702619Y-88614285D01*
X159740714Y-88538095D01*
X159778809Y-88500000D01*
X159855000Y-88461904D01*
X160045476Y-88461904D01*
X160159761Y-88500000D01*
X160655000Y-88880952D02*
X160655000Y-89261904D01*
X160388333Y-88461904D02*
X160655000Y-88880952D01*
X160921666Y-88461904D01*
X161150238Y-89223809D02*
X161264523Y-89261904D01*
X161455000Y-89261904D01*
X161531190Y-89223809D01*
X161569285Y-89185714D01*
X161607380Y-89109523D01*
X161607380Y-89033333D01*
X161569285Y-88957142D01*
X161531190Y-88919047D01*
X161455000Y-88880952D01*
X161302619Y-88842857D01*
X161226428Y-88804761D01*
X161188333Y-88766666D01*
X161150238Y-88690476D01*
X161150238Y-88614285D01*
X161188333Y-88538095D01*
X161226428Y-88500000D01*
X161302619Y-88461904D01*
X161493095Y-88461904D01*
X161607380Y-88500000D01*
D11*
X172096666Y-126769761D02*
X172239523Y-126817380D01*
X172477619Y-126817380D01*
X172572857Y-126769761D01*
X172620476Y-126722142D01*
X172668095Y-126626904D01*
X172668095Y-126531666D01*
X172620476Y-126436428D01*
X172572857Y-126388809D01*
X172477619Y-126341190D01*
X172287142Y-126293571D01*
X172191904Y-126245952D01*
X172144285Y-126198333D01*
X172096666Y-126103095D01*
X172096666Y-126007857D01*
X172144285Y-125912619D01*
X172191904Y-125865000D01*
X172287142Y-125817380D01*
X172525238Y-125817380D01*
X172668095Y-125865000D01*
X173001428Y-125817380D02*
X173239523Y-126817380D01*
X173430000Y-126103095D01*
X173620476Y-126817380D01*
X173858571Y-125817380D01*
X174382380Y-126245952D02*
X174287142Y-126198333D01*
X174239523Y-126150714D01*
X174191904Y-126055476D01*
X174191904Y-126007857D01*
X174239523Y-125912619D01*
X174287142Y-125865000D01*
X174382380Y-125817380D01*
X174572857Y-125817380D01*
X174668095Y-125865000D01*
X174715714Y-125912619D01*
X174763333Y-126007857D01*
X174763333Y-126055476D01*
X174715714Y-126150714D01*
X174668095Y-126198333D01*
X174572857Y-126245952D01*
X174382380Y-126245952D01*
X174287142Y-126293571D01*
X174239523Y-126341190D01*
X174191904Y-126436428D01*
X174191904Y-126626904D01*
X174239523Y-126722142D01*
X174287142Y-126769761D01*
X174382380Y-126817380D01*
X174572857Y-126817380D01*
X174668095Y-126769761D01*
X174715714Y-126722142D01*
X174763333Y-126626904D01*
X174763333Y-126436428D01*
X174715714Y-126341190D01*
X174668095Y-126293571D01*
X174572857Y-126245952D01*
D10*
X172193095Y-122281904D02*
X171926428Y-121900952D01*
X171735952Y-122281904D02*
X171735952Y-121481904D01*
X172040714Y-121481904D01*
X172116904Y-121520000D01*
X172155000Y-121558095D01*
X172193095Y-121634285D01*
X172193095Y-121748571D01*
X172155000Y-121824761D01*
X172116904Y-121862857D01*
X172040714Y-121900952D01*
X171735952Y-121900952D01*
X172535952Y-121862857D02*
X172802619Y-121862857D01*
X172916904Y-122281904D02*
X172535952Y-122281904D01*
X172535952Y-121481904D01*
X172916904Y-121481904D01*
X173221666Y-122243809D02*
X173335952Y-122281904D01*
X173526428Y-122281904D01*
X173602619Y-122243809D01*
X173640714Y-122205714D01*
X173678809Y-122129523D01*
X173678809Y-122053333D01*
X173640714Y-121977142D01*
X173602619Y-121939047D01*
X173526428Y-121900952D01*
X173374047Y-121862857D01*
X173297857Y-121824761D01*
X173259761Y-121786666D01*
X173221666Y-121710476D01*
X173221666Y-121634285D01*
X173259761Y-121558095D01*
X173297857Y-121520000D01*
X173374047Y-121481904D01*
X173564523Y-121481904D01*
X173678809Y-121520000D01*
X174021666Y-121862857D02*
X174288333Y-121862857D01*
X174402619Y-122281904D02*
X174021666Y-122281904D01*
X174021666Y-121481904D01*
X174402619Y-121481904D01*
X174631190Y-121481904D02*
X175088333Y-121481904D01*
X174859761Y-122281904D02*
X174859761Y-121481904D01*
X235172333Y-96081904D02*
X235172333Y-96653333D01*
X235134238Y-96767619D01*
X235058047Y-96843809D01*
X234943761Y-96881904D01*
X234867571Y-96881904D01*
X235553285Y-96881904D02*
X235553285Y-96081904D01*
X235858047Y-96081904D01*
X235934238Y-96120000D01*
X235972333Y-96158095D01*
X236010428Y-96234285D01*
X236010428Y-96348571D01*
X235972333Y-96424761D01*
X235934238Y-96462857D01*
X235858047Y-96500952D01*
X235553285Y-96500952D01*
X236772333Y-96881904D02*
X236315190Y-96881904D01*
X236543761Y-96881904D02*
X236543761Y-96081904D01*
X236467571Y-96196190D01*
X236391380Y-96272380D01*
X236315190Y-96310476D01*
X230447857Y-100774285D02*
X230447857Y-101040952D01*
X230866904Y-101040952D02*
X230066904Y-101040952D01*
X230066904Y-100660000D01*
X230143095Y-100393333D02*
X230105000Y-100355238D01*
X230066904Y-100279047D01*
X230066904Y-100088571D01*
X230105000Y-100012380D01*
X230143095Y-99974285D01*
X230219285Y-99936190D01*
X230295476Y-99936190D01*
X230409761Y-99974285D01*
X230866904Y-100431428D01*
X230866904Y-99936190D01*
X230943095Y-99783809D02*
X230943095Y-99174285D01*
X230866904Y-98983809D02*
X230066904Y-98983809D01*
X230066904Y-98679047D01*
X230105000Y-98602857D01*
X230143095Y-98564761D01*
X230219285Y-98526666D01*
X230333571Y-98526666D01*
X230409761Y-98564761D01*
X230447857Y-98602857D01*
X230485952Y-98679047D01*
X230485952Y-98983809D01*
X230066904Y-98031428D02*
X230066904Y-97879047D01*
X230105000Y-97802857D01*
X230181190Y-97726666D01*
X230333571Y-97688571D01*
X230600238Y-97688571D01*
X230752619Y-97726666D01*
X230828809Y-97802857D01*
X230866904Y-97879047D01*
X230866904Y-98031428D01*
X230828809Y-98107619D01*
X230752619Y-98183809D01*
X230600238Y-98221904D01*
X230333571Y-98221904D01*
X230181190Y-98183809D01*
X230105000Y-98107619D01*
X230066904Y-98031428D01*
X230866904Y-96964761D02*
X230866904Y-97345714D01*
X230066904Y-97345714D01*
X235172333Y-106241904D02*
X235172333Y-106813333D01*
X235134238Y-106927619D01*
X235058047Y-107003809D01*
X234943761Y-107041904D01*
X234867571Y-107041904D01*
X235553285Y-107041904D02*
X235553285Y-106241904D01*
X235858047Y-106241904D01*
X235934238Y-106280000D01*
X235972333Y-106318095D01*
X236010428Y-106394285D01*
X236010428Y-106508571D01*
X235972333Y-106584761D01*
X235934238Y-106622857D01*
X235858047Y-106660952D01*
X235553285Y-106660952D01*
X236315190Y-106318095D02*
X236353285Y-106280000D01*
X236429476Y-106241904D01*
X236619952Y-106241904D01*
X236696142Y-106280000D01*
X236734238Y-106318095D01*
X236772333Y-106394285D01*
X236772333Y-106470476D01*
X236734238Y-106584761D01*
X236277095Y-107041904D01*
X236772333Y-107041904D01*
X230447857Y-110934285D02*
X230447857Y-111200952D01*
X230866904Y-111200952D02*
X230066904Y-111200952D01*
X230066904Y-110820000D01*
X230066904Y-110591428D02*
X230066904Y-110096190D01*
X230371666Y-110362857D01*
X230371666Y-110248571D01*
X230409761Y-110172380D01*
X230447857Y-110134285D01*
X230524047Y-110096190D01*
X230714523Y-110096190D01*
X230790714Y-110134285D01*
X230828809Y-110172380D01*
X230866904Y-110248571D01*
X230866904Y-110477142D01*
X230828809Y-110553333D01*
X230790714Y-110591428D01*
X230943095Y-109943809D02*
X230943095Y-109334285D01*
X230866904Y-109143809D02*
X230066904Y-109143809D01*
X230066904Y-108839047D01*
X230105000Y-108762857D01*
X230143095Y-108724761D01*
X230219285Y-108686666D01*
X230333571Y-108686666D01*
X230409761Y-108724761D01*
X230447857Y-108762857D01*
X230485952Y-108839047D01*
X230485952Y-109143809D01*
X230066904Y-108191428D02*
X230066904Y-108039047D01*
X230105000Y-107962857D01*
X230181190Y-107886666D01*
X230333571Y-107848571D01*
X230600238Y-107848571D01*
X230752619Y-107886666D01*
X230828809Y-107962857D01*
X230866904Y-108039047D01*
X230866904Y-108191428D01*
X230828809Y-108267619D01*
X230752619Y-108343809D01*
X230600238Y-108381904D01*
X230333571Y-108381904D01*
X230181190Y-108343809D01*
X230105000Y-108267619D01*
X230066904Y-108191428D01*
X230866904Y-107124761D02*
X230866904Y-107505714D01*
X230066904Y-107505714D01*
X235172333Y-116401904D02*
X235172333Y-116973333D01*
X235134238Y-117087619D01*
X235058047Y-117163809D01*
X234943761Y-117201904D01*
X234867571Y-117201904D01*
X235553285Y-117201904D02*
X235553285Y-116401904D01*
X235858047Y-116401904D01*
X235934238Y-116440000D01*
X235972333Y-116478095D01*
X236010428Y-116554285D01*
X236010428Y-116668571D01*
X235972333Y-116744761D01*
X235934238Y-116782857D01*
X235858047Y-116820952D01*
X235553285Y-116820952D01*
X236277095Y-116401904D02*
X236772333Y-116401904D01*
X236505666Y-116706666D01*
X236619952Y-116706666D01*
X236696142Y-116744761D01*
X236734238Y-116782857D01*
X236772333Y-116859047D01*
X236772333Y-117049523D01*
X236734238Y-117125714D01*
X236696142Y-117163809D01*
X236619952Y-117201904D01*
X236391380Y-117201904D01*
X236315190Y-117163809D01*
X236277095Y-117125714D01*
X230447857Y-121970476D02*
X230447857Y-122237142D01*
X230866904Y-122237142D02*
X230066904Y-122237142D01*
X230066904Y-121856190D01*
X230866904Y-121551428D02*
X230066904Y-121551428D01*
X230866904Y-120713333D02*
X230485952Y-120980000D01*
X230866904Y-121170476D02*
X230066904Y-121170476D01*
X230066904Y-120865714D01*
X230105000Y-120789523D01*
X230143095Y-120751428D01*
X230219285Y-120713333D01*
X230333571Y-120713333D01*
X230409761Y-120751428D01*
X230447857Y-120789523D01*
X230485952Y-120865714D01*
X230485952Y-121170476D01*
X230447857Y-120370476D02*
X230447857Y-120103809D01*
X230866904Y-119989523D02*
X230866904Y-120370476D01*
X230066904Y-120370476D01*
X230066904Y-119989523D01*
X230066904Y-119722857D02*
X230066904Y-119227619D01*
X230371666Y-119494285D01*
X230371666Y-119380000D01*
X230409761Y-119303809D01*
X230447857Y-119265714D01*
X230524047Y-119227619D01*
X230714523Y-119227619D01*
X230790714Y-119265714D01*
X230828809Y-119303809D01*
X230866904Y-119380000D01*
X230866904Y-119608571D01*
X230828809Y-119684761D01*
X230790714Y-119722857D01*
X230943095Y-119075238D02*
X230943095Y-118465714D01*
X230828809Y-118313333D02*
X230866904Y-118199047D01*
X230866904Y-118008571D01*
X230828809Y-117932380D01*
X230790714Y-117894285D01*
X230714523Y-117856190D01*
X230638333Y-117856190D01*
X230562142Y-117894285D01*
X230524047Y-117932380D01*
X230485952Y-118008571D01*
X230447857Y-118160952D01*
X230409761Y-118237142D01*
X230371666Y-118275238D01*
X230295476Y-118313333D01*
X230219285Y-118313333D01*
X230143095Y-118275238D01*
X230105000Y-118237142D01*
X230066904Y-118160952D01*
X230066904Y-117970476D01*
X230105000Y-117856190D01*
X230447857Y-117513333D02*
X230447857Y-117246666D01*
X230866904Y-117132380D02*
X230866904Y-117513333D01*
X230066904Y-117513333D01*
X230066904Y-117132380D01*
X230866904Y-116408571D02*
X230866904Y-116789523D01*
X230066904Y-116789523D01*
D11*
X190801666Y-83907380D02*
X190801666Y-84621666D01*
X190754047Y-84764523D01*
X190658809Y-84859761D01*
X190515952Y-84907380D01*
X190420714Y-84907380D01*
X191801666Y-84907380D02*
X191230238Y-84907380D01*
X191515952Y-84907380D02*
X191515952Y-83907380D01*
X191420714Y-84050238D01*
X191325476Y-84145476D01*
X191230238Y-84193095D01*
X205478333Y-84907380D02*
X205478333Y-83907380D01*
X205859285Y-83907380D01*
X205954523Y-83955000D01*
X206002142Y-84002619D01*
X206049761Y-84097857D01*
X206049761Y-84240714D01*
X206002142Y-84335952D01*
X205954523Y-84383571D01*
X205859285Y-84431190D01*
X205478333Y-84431190D01*
X206621190Y-84907380D02*
X206525952Y-84859761D01*
X206478333Y-84812142D01*
X206430714Y-84716904D01*
X206430714Y-84431190D01*
X206478333Y-84335952D01*
X206525952Y-84288333D01*
X206621190Y-84240714D01*
X206764047Y-84240714D01*
X206859285Y-84288333D01*
X206906904Y-84335952D01*
X206954523Y-84431190D01*
X206954523Y-84716904D01*
X206906904Y-84812142D01*
X206859285Y-84859761D01*
X206764047Y-84907380D01*
X206621190Y-84907380D01*
X207383095Y-84907380D02*
X207383095Y-84240714D01*
X207383095Y-84431190D02*
X207430714Y-84335952D01*
X207478333Y-84288333D01*
X207573571Y-84240714D01*
X207668809Y-84240714D01*
X207859285Y-84240714D02*
X208240238Y-84240714D01*
X208002142Y-83907380D02*
X208002142Y-84764523D01*
X208049761Y-84859761D01*
X208145000Y-84907380D01*
X208240238Y-84907380D01*
X208335476Y-85002619D02*
X209097380Y-85002619D01*
X209859285Y-84907380D02*
X209287857Y-84907380D01*
X209573571Y-84907380D02*
X209573571Y-83907380D01*
X209478333Y-84050238D01*
X209383095Y-84145476D01*
X209287857Y-84193095D01*
X213661666Y-83907380D02*
X213661666Y-84621666D01*
X213614047Y-84764523D01*
X213518809Y-84859761D01*
X213375952Y-84907380D01*
X213280714Y-84907380D01*
X214090238Y-84002619D02*
X214137857Y-83955000D01*
X214233095Y-83907380D01*
X214471190Y-83907380D01*
X214566428Y-83955000D01*
X214614047Y-84002619D01*
X214661666Y-84097857D01*
X214661666Y-84193095D01*
X214614047Y-84335952D01*
X214042619Y-84907380D01*
X214661666Y-84907380D01*
X227703333Y-84907380D02*
X227703333Y-83907380D01*
X228084285Y-83907380D01*
X228179523Y-83955000D01*
X228227142Y-84002619D01*
X228274761Y-84097857D01*
X228274761Y-84240714D01*
X228227142Y-84335952D01*
X228179523Y-84383571D01*
X228084285Y-84431190D01*
X227703333Y-84431190D01*
X228846190Y-84907380D02*
X228750952Y-84859761D01*
X228703333Y-84812142D01*
X228655714Y-84716904D01*
X228655714Y-84431190D01*
X228703333Y-84335952D01*
X228750952Y-84288333D01*
X228846190Y-84240714D01*
X228989047Y-84240714D01*
X229084285Y-84288333D01*
X229131904Y-84335952D01*
X229179523Y-84431190D01*
X229179523Y-84716904D01*
X229131904Y-84812142D01*
X229084285Y-84859761D01*
X228989047Y-84907380D01*
X228846190Y-84907380D01*
X229608095Y-84907380D02*
X229608095Y-84240714D01*
X229608095Y-84431190D02*
X229655714Y-84335952D01*
X229703333Y-84288333D01*
X229798571Y-84240714D01*
X229893809Y-84240714D01*
X230084285Y-84240714D02*
X230465238Y-84240714D01*
X230227142Y-83907380D02*
X230227142Y-84764523D01*
X230274761Y-84859761D01*
X230370000Y-84907380D01*
X230465238Y-84907380D01*
X230560476Y-85002619D02*
X231322380Y-85002619D01*
X231512857Y-84002619D02*
X231560476Y-83955000D01*
X231655714Y-83907380D01*
X231893809Y-83907380D01*
X231989047Y-83955000D01*
X232036666Y-84002619D01*
X232084285Y-84097857D01*
X232084285Y-84193095D01*
X232036666Y-84335952D01*
X231465238Y-84907380D01*
X232084285Y-84907380D01*
D10*
X184753333Y-129101904D02*
X184753333Y-129673333D01*
X184715238Y-129787619D01*
X184639047Y-129863809D01*
X184524761Y-129901904D01*
X184448571Y-129901904D01*
X185134285Y-129901904D02*
X185134285Y-129101904D01*
X185439047Y-129101904D01*
X185515238Y-129140000D01*
X185553333Y-129178095D01*
X185591428Y-129254285D01*
X185591428Y-129368571D01*
X185553333Y-129444761D01*
X185515238Y-129482857D01*
X185439047Y-129520952D01*
X185134285Y-129520952D01*
X186277142Y-129368571D02*
X186277142Y-129901904D01*
X186086666Y-129063809D02*
X185896190Y-129635238D01*
X186391428Y-129635238D01*
X180105476Y-122281904D02*
X180105476Y-121481904D01*
X180295952Y-121481904D01*
X180410238Y-121520000D01*
X180486428Y-121596190D01*
X180524523Y-121672380D01*
X180562619Y-121824761D01*
X180562619Y-121939047D01*
X180524523Y-122091428D01*
X180486428Y-122167619D01*
X180410238Y-122243809D01*
X180295952Y-122281904D01*
X180105476Y-122281904D01*
X180905476Y-121862857D02*
X181172142Y-121862857D01*
X181286428Y-122281904D02*
X180905476Y-122281904D01*
X180905476Y-121481904D01*
X181286428Y-121481904D01*
X181895952Y-121862857D02*
X181629285Y-121862857D01*
X181629285Y-122281904D02*
X181629285Y-121481904D01*
X182010238Y-121481904D01*
X182276904Y-122053333D02*
X182657857Y-122053333D01*
X182200714Y-122281904D02*
X182467380Y-121481904D01*
X182734047Y-122281904D01*
X183000714Y-121481904D02*
X183000714Y-122129523D01*
X183038809Y-122205714D01*
X183076904Y-122243809D01*
X183153095Y-122281904D01*
X183305476Y-122281904D01*
X183381666Y-122243809D01*
X183419761Y-122205714D01*
X183457857Y-122129523D01*
X183457857Y-121481904D01*
X184219761Y-122281904D02*
X183838809Y-122281904D01*
X183838809Y-121481904D01*
X184372142Y-121481904D02*
X184829285Y-121481904D01*
X184600714Y-122281904D02*
X184600714Y-121481904D01*
X184905476Y-122358095D02*
X185515000Y-122358095D01*
X185972142Y-121862857D02*
X185705476Y-121862857D01*
X185705476Y-122281904D02*
X185705476Y-121481904D01*
X186086428Y-121481904D01*
X186315000Y-121481904D02*
X186505476Y-122281904D01*
X186657857Y-121710476D01*
X186810238Y-122281904D01*
X187000714Y-121481904D01*
D11*
X201763333Y-101417380D02*
X201430000Y-100941190D01*
X201191904Y-101417380D02*
X201191904Y-100417380D01*
X201572857Y-100417380D01*
X201668095Y-100465000D01*
X201715714Y-100512619D01*
X201763333Y-100607857D01*
X201763333Y-100750714D01*
X201715714Y-100845952D01*
X201668095Y-100893571D01*
X201572857Y-100941190D01*
X201191904Y-100941190D01*
X202715714Y-101417380D02*
X202144285Y-101417380D01*
X202430000Y-101417380D02*
X202430000Y-100417380D01*
X202334761Y-100560238D01*
X202239523Y-100655476D01*
X202144285Y-100703095D01*
X203866904Y-100512619D02*
X203914523Y-100465000D01*
X204009761Y-100417380D01*
X204247857Y-100417380D01*
X204343095Y-100465000D01*
X204390714Y-100512619D01*
X204438333Y-100607857D01*
X204438333Y-100703095D01*
X204390714Y-100845952D01*
X203819285Y-101417380D01*
X204438333Y-101417380D01*
X204771666Y-100417380D02*
X205438333Y-100417380D01*
X205009761Y-101417380D01*
X206009761Y-100417380D02*
X206105000Y-100417380D01*
X206200238Y-100465000D01*
X206247857Y-100512619D01*
X206295476Y-100607857D01*
X206343095Y-100798333D01*
X206343095Y-101036428D01*
X206295476Y-101226904D01*
X206247857Y-101322142D01*
X206200238Y-101369761D01*
X206105000Y-101417380D01*
X206009761Y-101417380D01*
X205914523Y-101369761D01*
X205866904Y-101322142D01*
X205819285Y-101226904D01*
X205771666Y-101036428D01*
X205771666Y-100798333D01*
X205819285Y-100607857D01*
X205866904Y-100512619D01*
X205914523Y-100465000D01*
X206009761Y-100417380D01*
X201763333Y-105227380D02*
X201430000Y-104751190D01*
X201191904Y-105227380D02*
X201191904Y-104227380D01*
X201572857Y-104227380D01*
X201668095Y-104275000D01*
X201715714Y-104322619D01*
X201763333Y-104417857D01*
X201763333Y-104560714D01*
X201715714Y-104655952D01*
X201668095Y-104703571D01*
X201572857Y-104751190D01*
X201191904Y-104751190D01*
X202144285Y-104322619D02*
X202191904Y-104275000D01*
X202287142Y-104227380D01*
X202525238Y-104227380D01*
X202620476Y-104275000D01*
X202668095Y-104322619D01*
X202715714Y-104417857D01*
X202715714Y-104513095D01*
X202668095Y-104655952D01*
X202096666Y-105227380D01*
X202715714Y-105227380D01*
X203866904Y-104322619D02*
X203914523Y-104275000D01*
X204009761Y-104227380D01*
X204247857Y-104227380D01*
X204343095Y-104275000D01*
X204390714Y-104322619D01*
X204438333Y-104417857D01*
X204438333Y-104513095D01*
X204390714Y-104655952D01*
X203819285Y-105227380D01*
X204438333Y-105227380D01*
X204771666Y-104227380D02*
X205438333Y-104227380D01*
X205009761Y-105227380D01*
X206009761Y-104227380D02*
X206105000Y-104227380D01*
X206200238Y-104275000D01*
X206247857Y-104322619D01*
X206295476Y-104417857D01*
X206343095Y-104608333D01*
X206343095Y-104846428D01*
X206295476Y-105036904D01*
X206247857Y-105132142D01*
X206200238Y-105179761D01*
X206105000Y-105227380D01*
X206009761Y-105227380D01*
X205914523Y-105179761D01*
X205866904Y-105132142D01*
X205819285Y-105036904D01*
X205771666Y-104846428D01*
X205771666Y-104608333D01*
X205819285Y-104417857D01*
X205866904Y-104322619D01*
X205914523Y-104275000D01*
X206009761Y-104227380D01*
X143978333Y-94432380D02*
X143645000Y-93956190D01*
X143406904Y-94432380D02*
X143406904Y-93432380D01*
X143787857Y-93432380D01*
X143883095Y-93480000D01*
X143930714Y-93527619D01*
X143978333Y-93622857D01*
X143978333Y-93765714D01*
X143930714Y-93860952D01*
X143883095Y-93908571D01*
X143787857Y-93956190D01*
X143406904Y-93956190D01*
X144311666Y-93432380D02*
X144930714Y-93432380D01*
X144597380Y-93813333D01*
X144740238Y-93813333D01*
X144835476Y-93860952D01*
X144883095Y-93908571D01*
X144930714Y-94003809D01*
X144930714Y-94241904D01*
X144883095Y-94337142D01*
X144835476Y-94384761D01*
X144740238Y-94432380D01*
X144454523Y-94432380D01*
X144359285Y-94384761D01*
X144311666Y-94337142D01*
X143692619Y-98393095D02*
X143645000Y-98345476D01*
X143597380Y-98250238D01*
X143597380Y-98012142D01*
X143645000Y-97916904D01*
X143692619Y-97869285D01*
X143787857Y-97821666D01*
X143883095Y-97821666D01*
X144025952Y-97869285D01*
X144597380Y-98440714D01*
X144597380Y-97821666D01*
X143692619Y-97440714D02*
X143645000Y-97393095D01*
X143597380Y-97297857D01*
X143597380Y-97059761D01*
X143645000Y-96964523D01*
X143692619Y-96916904D01*
X143787857Y-96869285D01*
X143883095Y-96869285D01*
X144025952Y-96916904D01*
X144597380Y-97488333D01*
X144597380Y-96869285D01*
X143597380Y-96250238D02*
X143597380Y-96155000D01*
X143645000Y-96059761D01*
X143692619Y-96012142D01*
X143787857Y-95964523D01*
X143978333Y-95916904D01*
X144216428Y-95916904D01*
X144406904Y-95964523D01*
X144502142Y-96012142D01*
X144549761Y-96059761D01*
X144597380Y-96155000D01*
X144597380Y-96250238D01*
X144549761Y-96345476D01*
X144502142Y-96393095D01*
X144406904Y-96440714D01*
X144216428Y-96488333D01*
X143978333Y-96488333D01*
X143787857Y-96440714D01*
X143692619Y-96393095D01*
X143645000Y-96345476D01*
X143597380Y-96250238D01*
X143978333Y-107767380D02*
X143645000Y-107291190D01*
X143406904Y-107767380D02*
X143406904Y-106767380D01*
X143787857Y-106767380D01*
X143883095Y-106815000D01*
X143930714Y-106862619D01*
X143978333Y-106957857D01*
X143978333Y-107100714D01*
X143930714Y-107195952D01*
X143883095Y-107243571D01*
X143787857Y-107291190D01*
X143406904Y-107291190D01*
X144835476Y-107100714D02*
X144835476Y-107767380D01*
X144597380Y-106719761D02*
X144359285Y-107434047D01*
X144978333Y-107434047D01*
X143692619Y-111728095D02*
X143645000Y-111680476D01*
X143597380Y-111585238D01*
X143597380Y-111347142D01*
X143645000Y-111251904D01*
X143692619Y-111204285D01*
X143787857Y-111156666D01*
X143883095Y-111156666D01*
X144025952Y-111204285D01*
X144597380Y-111775714D01*
X144597380Y-111156666D01*
X143692619Y-110775714D02*
X143645000Y-110728095D01*
X143597380Y-110632857D01*
X143597380Y-110394761D01*
X143645000Y-110299523D01*
X143692619Y-110251904D01*
X143787857Y-110204285D01*
X143883095Y-110204285D01*
X144025952Y-110251904D01*
X144597380Y-110823333D01*
X144597380Y-110204285D01*
X143597380Y-109585238D02*
X143597380Y-109490000D01*
X143645000Y-109394761D01*
X143692619Y-109347142D01*
X143787857Y-109299523D01*
X143978333Y-109251904D01*
X144216428Y-109251904D01*
X144406904Y-109299523D01*
X144502142Y-109347142D01*
X144549761Y-109394761D01*
X144597380Y-109490000D01*
X144597380Y-109585238D01*
X144549761Y-109680476D01*
X144502142Y-109728095D01*
X144406904Y-109775714D01*
X144216428Y-109823333D01*
X143978333Y-109823333D01*
X143787857Y-109775714D01*
X143692619Y-109728095D01*
X143645000Y-109680476D01*
X143597380Y-109585238D01*
D10*
X203244523Y-96246904D02*
X203244523Y-95446904D01*
X203435000Y-95446904D01*
X203549285Y-95485000D01*
X203625476Y-95561190D01*
X203663571Y-95637380D01*
X203701666Y-95789761D01*
X203701666Y-95904047D01*
X203663571Y-96056428D01*
X203625476Y-96132619D01*
X203549285Y-96208809D01*
X203435000Y-96246904D01*
X203244523Y-96246904D01*
X203968333Y-95446904D02*
X204463571Y-95446904D01*
X204196904Y-95751666D01*
X204311190Y-95751666D01*
X204387380Y-95789761D01*
X204425476Y-95827857D01*
X204463571Y-95904047D01*
X204463571Y-96094523D01*
X204425476Y-96170714D01*
X204387380Y-96208809D01*
X204311190Y-96246904D01*
X204082619Y-96246904D01*
X204006428Y-96208809D01*
X203968333Y-96170714D01*
X202558857Y-97516904D02*
X202101714Y-97516904D01*
X202330285Y-97516904D02*
X202330285Y-96716904D01*
X202254095Y-96831190D01*
X202177904Y-96907380D01*
X202101714Y-96945476D01*
X202901714Y-96983571D02*
X202901714Y-97516904D01*
X202901714Y-97059761D02*
X202939809Y-97021666D01*
X203016000Y-96983571D01*
X203130285Y-96983571D01*
X203206476Y-97021666D01*
X203244571Y-97097857D01*
X203244571Y-97516904D01*
X203968380Y-96983571D02*
X203968380Y-97516904D01*
X203777904Y-96678809D02*
X203587428Y-97250238D01*
X204082666Y-97250238D01*
X204539809Y-96716904D02*
X204616000Y-96716904D01*
X204692190Y-96755000D01*
X204730285Y-96793095D01*
X204768380Y-96869285D01*
X204806476Y-97021666D01*
X204806476Y-97212142D01*
X204768380Y-97364523D01*
X204730285Y-97440714D01*
X204692190Y-97478809D01*
X204616000Y-97516904D01*
X204539809Y-97516904D01*
X204463619Y-97478809D01*
X204425523Y-97440714D01*
X204387428Y-97364523D01*
X204349333Y-97212142D01*
X204349333Y-97021666D01*
X204387428Y-96869285D01*
X204425523Y-96793095D01*
X204463619Y-96755000D01*
X204539809Y-96716904D01*
X205301714Y-96716904D02*
X205377904Y-96716904D01*
X205454095Y-96755000D01*
X205492190Y-96793095D01*
X205530285Y-96869285D01*
X205568380Y-97021666D01*
X205568380Y-97212142D01*
X205530285Y-97364523D01*
X205492190Y-97440714D01*
X205454095Y-97478809D01*
X205377904Y-97516904D01*
X205301714Y-97516904D01*
X205225523Y-97478809D01*
X205187428Y-97440714D01*
X205149333Y-97364523D01*
X205111238Y-97212142D01*
X205111238Y-97021666D01*
X205149333Y-96869285D01*
X205187428Y-96793095D01*
X205225523Y-96755000D01*
X205301714Y-96716904D01*
X206330285Y-97516904D02*
X205873142Y-97516904D01*
X206101714Y-97516904D02*
X206101714Y-96716904D01*
X206025523Y-96831190D01*
X205949333Y-96907380D01*
X205873142Y-96945476D01*
X182924523Y-120376904D02*
X182924523Y-119576904D01*
X183115000Y-119576904D01*
X183229285Y-119615000D01*
X183305476Y-119691190D01*
X183343571Y-119767380D01*
X183381666Y-119919761D01*
X183381666Y-120034047D01*
X183343571Y-120186428D01*
X183305476Y-120262619D01*
X183229285Y-120338809D01*
X183115000Y-120376904D01*
X182924523Y-120376904D01*
X184067380Y-119843571D02*
X184067380Y-120376904D01*
X183876904Y-119538809D02*
X183686428Y-120110238D01*
X184181666Y-120110238D01*
X181857857Y-118471904D02*
X181400714Y-118471904D01*
X181629285Y-118471904D02*
X181629285Y-117671904D01*
X181553095Y-117786190D01*
X181476904Y-117862380D01*
X181400714Y-117900476D01*
X182200714Y-117938571D02*
X182200714Y-118471904D01*
X182200714Y-118014761D02*
X182238809Y-117976666D01*
X182315000Y-117938571D01*
X182429285Y-117938571D01*
X182505476Y-117976666D01*
X182543571Y-118052857D01*
X182543571Y-118471904D01*
X183267380Y-117938571D02*
X183267380Y-118471904D01*
X183076904Y-117633809D02*
X182886428Y-118205238D01*
X183381666Y-118205238D01*
X184105476Y-118471904D02*
X183648333Y-118471904D01*
X183876904Y-118471904D02*
X183876904Y-117671904D01*
X183800714Y-117786190D01*
X183724523Y-117862380D01*
X183648333Y-117900476D01*
X184791190Y-117938571D02*
X184791190Y-118471904D01*
X184600714Y-117633809D02*
X184410238Y-118205238D01*
X184905476Y-118205238D01*
X185324523Y-118014761D02*
X185248333Y-117976666D01*
X185210238Y-117938571D01*
X185172142Y-117862380D01*
X185172142Y-117824285D01*
X185210238Y-117748095D01*
X185248333Y-117710000D01*
X185324523Y-117671904D01*
X185476904Y-117671904D01*
X185553095Y-117710000D01*
X185591190Y-117748095D01*
X185629285Y-117824285D01*
X185629285Y-117862380D01*
X185591190Y-117938571D01*
X185553095Y-117976666D01*
X185476904Y-118014761D01*
X185324523Y-118014761D01*
X185248333Y-118052857D01*
X185210238Y-118090952D01*
X185172142Y-118167142D01*
X185172142Y-118319523D01*
X185210238Y-118395714D01*
X185248333Y-118433809D01*
X185324523Y-118471904D01*
X185476904Y-118471904D01*
X185553095Y-118433809D01*
X185591190Y-118395714D01*
X185629285Y-118319523D01*
X185629285Y-118167142D01*
X185591190Y-118090952D01*
X185553095Y-118052857D01*
X185476904Y-118014761D01*
M02*
