G04 #@! TF.GenerationSoftware,KiCad,Pcbnew,(5.1.8)-1*
G04 #@! TF.CreationDate,2022-02-20T21:38:46+01:00*
G04 #@! TF.ProjectId,NES,4e45532e-6b69-4636-9164-5f7063625858,rev?*
G04 #@! TF.SameCoordinates,Original*
G04 #@! TF.FileFunction,Legend,Bot*
G04 #@! TF.FilePolarity,Positive*
%FSLAX46Y46*%
G04 Gerber Fmt 4.6, Leading zero omitted, Abs format (unit mm)*
G04 Created by KiCad (PCBNEW (5.1.8)-1) date 2022-02-20 21:38:46*
%MOMM*%
%LPD*%
G01*
G04 APERTURE LIST*
%ADD10C,0.100000*%
%ADD11C,0.120000*%
%ADD12C,0.010000*%
G04 APERTURE END LIST*
D10*
X172281904Y-93955000D02*
X172853333Y-93955000D01*
X172967619Y-93916904D01*
X173043809Y-93840714D01*
X173081904Y-93726428D01*
X173081904Y-93650238D01*
X173081904Y-94335952D02*
X172281904Y-94335952D01*
X172281904Y-94640714D01*
X172320000Y-94716904D01*
X172358095Y-94755000D01*
X172434285Y-94793095D01*
X172548571Y-94793095D01*
X172624761Y-94755000D01*
X172662857Y-94716904D01*
X172700952Y-94640714D01*
X172700952Y-94335952D01*
X173081904Y-95555000D02*
X173081904Y-95097857D01*
X173081904Y-95326428D02*
X172281904Y-95326428D01*
X172396190Y-95250238D01*
X172472380Y-95174047D01*
X172510476Y-95097857D01*
X172281904Y-96393095D02*
X173081904Y-96659761D01*
X172281904Y-96926428D01*
X173005714Y-97650238D02*
X173043809Y-97612142D01*
X173081904Y-97497857D01*
X173081904Y-97421666D01*
X173043809Y-97307380D01*
X172967619Y-97231190D01*
X172891428Y-97193095D01*
X172739047Y-97155000D01*
X172624761Y-97155000D01*
X172472380Y-97193095D01*
X172396190Y-97231190D01*
X172320000Y-97307380D01*
X172281904Y-97421666D01*
X172281904Y-97497857D01*
X172320000Y-97612142D01*
X172358095Y-97650238D01*
X173005714Y-98450238D02*
X173043809Y-98412142D01*
X173081904Y-98297857D01*
X173081904Y-98221666D01*
X173043809Y-98107380D01*
X172967619Y-98031190D01*
X172891428Y-97993095D01*
X172739047Y-97955000D01*
X172624761Y-97955000D01*
X172472380Y-97993095D01*
X172396190Y-98031190D01*
X172320000Y-98107380D01*
X172281904Y-98221666D01*
X172281904Y-98297857D01*
X172320000Y-98412142D01*
X172358095Y-98450238D01*
X173158095Y-98602619D02*
X173158095Y-99212142D01*
X172662857Y-99402619D02*
X172662857Y-99669285D01*
X173081904Y-99783571D02*
X173081904Y-99402619D01*
X172281904Y-99402619D01*
X172281904Y-99783571D01*
X173081904Y-100126428D02*
X172281904Y-100126428D01*
X173081904Y-100583571D01*
X172281904Y-100583571D01*
D11*
X168910000Y-99695000D02*
X168910000Y-94615000D01*
X171450000Y-99695000D02*
X168910000Y-99695000D01*
X171450000Y-94615000D02*
X171450000Y-99695000D01*
X168910000Y-94615000D02*
X171450000Y-94615000D01*
D10*
X148145000Y-106391904D02*
X148525952Y-106391904D01*
X148525952Y-105591904D01*
X147878333Y-106391904D02*
X147878333Y-105858571D01*
X147878333Y-105591904D02*
X147916428Y-105630000D01*
X147878333Y-105668095D01*
X147840238Y-105630000D01*
X147878333Y-105591904D01*
X147878333Y-105668095D01*
X147154523Y-106353809D02*
X147230714Y-106391904D01*
X147383095Y-106391904D01*
X147459285Y-106353809D01*
X147497380Y-106315714D01*
X147535476Y-106239523D01*
X147535476Y-106010952D01*
X147497380Y-105934761D01*
X147459285Y-105896666D01*
X147383095Y-105858571D01*
X147230714Y-105858571D01*
X147154523Y-105896666D01*
X146506904Y-106353809D02*
X146583095Y-106391904D01*
X146735476Y-106391904D01*
X146811666Y-106353809D01*
X146849761Y-106277619D01*
X146849761Y-105972857D01*
X146811666Y-105896666D01*
X146735476Y-105858571D01*
X146583095Y-105858571D01*
X146506904Y-105896666D01*
X146468809Y-105972857D01*
X146468809Y-106049047D01*
X146849761Y-106125238D01*
X146125952Y-105858571D02*
X146125952Y-106391904D01*
X146125952Y-105934761D02*
X146087857Y-105896666D01*
X146011666Y-105858571D01*
X145897380Y-105858571D01*
X145821190Y-105896666D01*
X145783095Y-105972857D01*
X145783095Y-106391904D01*
X145440238Y-106353809D02*
X145364047Y-106391904D01*
X145211666Y-106391904D01*
X145135476Y-106353809D01*
X145097380Y-106277619D01*
X145097380Y-106239523D01*
X145135476Y-106163333D01*
X145211666Y-106125238D01*
X145325952Y-106125238D01*
X145402142Y-106087142D01*
X145440238Y-106010952D01*
X145440238Y-105972857D01*
X145402142Y-105896666D01*
X145325952Y-105858571D01*
X145211666Y-105858571D01*
X145135476Y-105896666D01*
X144449761Y-106353809D02*
X144525952Y-106391904D01*
X144678333Y-106391904D01*
X144754523Y-106353809D01*
X144792619Y-106277619D01*
X144792619Y-105972857D01*
X144754523Y-105896666D01*
X144678333Y-105858571D01*
X144525952Y-105858571D01*
X144449761Y-105896666D01*
X144411666Y-105972857D01*
X144411666Y-106049047D01*
X144792619Y-106125238D01*
X143725952Y-106391904D02*
X143725952Y-105591904D01*
X143725952Y-106353809D02*
X143802142Y-106391904D01*
X143954523Y-106391904D01*
X144030714Y-106353809D01*
X144068809Y-106315714D01*
X144106904Y-106239523D01*
X144106904Y-106010952D01*
X144068809Y-105934761D01*
X144030714Y-105896666D01*
X143954523Y-105858571D01*
X143802142Y-105858571D01*
X143725952Y-105896666D01*
X142392619Y-105858571D02*
X142392619Y-106391904D01*
X142735476Y-105858571D02*
X142735476Y-106277619D01*
X142697380Y-106353809D01*
X142621190Y-106391904D01*
X142506904Y-106391904D01*
X142430714Y-106353809D01*
X142392619Y-106315714D01*
X142011666Y-105858571D02*
X142011666Y-106391904D01*
X142011666Y-105934761D02*
X141973571Y-105896666D01*
X141897380Y-105858571D01*
X141783095Y-105858571D01*
X141706904Y-105896666D01*
X141668809Y-105972857D01*
X141668809Y-106391904D01*
X140945000Y-106391904D02*
X140945000Y-105591904D01*
X140945000Y-106353809D02*
X141021190Y-106391904D01*
X141173571Y-106391904D01*
X141249761Y-106353809D01*
X141287857Y-106315714D01*
X141325952Y-106239523D01*
X141325952Y-106010952D01*
X141287857Y-105934761D01*
X141249761Y-105896666D01*
X141173571Y-105858571D01*
X141021190Y-105858571D01*
X140945000Y-105896666D01*
X140259285Y-106353809D02*
X140335476Y-106391904D01*
X140487857Y-106391904D01*
X140564047Y-106353809D01*
X140602142Y-106277619D01*
X140602142Y-105972857D01*
X140564047Y-105896666D01*
X140487857Y-105858571D01*
X140335476Y-105858571D01*
X140259285Y-105896666D01*
X140221190Y-105972857D01*
X140221190Y-106049047D01*
X140602142Y-106125238D01*
X139878333Y-106391904D02*
X139878333Y-105858571D01*
X139878333Y-106010952D02*
X139840238Y-105934761D01*
X139802142Y-105896666D01*
X139725952Y-105858571D01*
X139649761Y-105858571D01*
X148106904Y-107615714D02*
X148145000Y-107653809D01*
X148259285Y-107691904D01*
X148335476Y-107691904D01*
X148449761Y-107653809D01*
X148525952Y-107577619D01*
X148564047Y-107501428D01*
X148602142Y-107349047D01*
X148602142Y-107234761D01*
X148564047Y-107082380D01*
X148525952Y-107006190D01*
X148449761Y-106930000D01*
X148335476Y-106891904D01*
X148259285Y-106891904D01*
X148145000Y-106930000D01*
X148106904Y-106968095D01*
X147764047Y-107272857D02*
X147497380Y-107272857D01*
X147383095Y-107691904D02*
X147764047Y-107691904D01*
X147764047Y-106891904D01*
X147383095Y-106891904D01*
X146583095Y-107691904D02*
X146849761Y-107310952D01*
X147040238Y-107691904D02*
X147040238Y-106891904D01*
X146735476Y-106891904D01*
X146659285Y-106930000D01*
X146621190Y-106968095D01*
X146583095Y-107044285D01*
X146583095Y-107158571D01*
X146621190Y-107234761D01*
X146659285Y-107272857D01*
X146735476Y-107310952D01*
X147040238Y-107310952D01*
X146240238Y-107691904D02*
X146240238Y-106891904D01*
X145783095Y-107691904D01*
X145783095Y-106891904D01*
X144640238Y-106891904D02*
X144487857Y-106891904D01*
X144411666Y-106930000D01*
X144335476Y-107006190D01*
X144297380Y-107158571D01*
X144297380Y-107425238D01*
X144335476Y-107577619D01*
X144411666Y-107653809D01*
X144487857Y-107691904D01*
X144640238Y-107691904D01*
X144716428Y-107653809D01*
X144792619Y-107577619D01*
X144830714Y-107425238D01*
X144830714Y-107158571D01*
X144792619Y-107006190D01*
X144716428Y-106930000D01*
X144640238Y-106891904D01*
X143954523Y-107691904D02*
X143954523Y-106891904D01*
X143954523Y-107272857D02*
X143497380Y-107272857D01*
X143497380Y-107691904D02*
X143497380Y-106891904D01*
X142735476Y-107691904D02*
X143116428Y-107691904D01*
X143116428Y-106891904D01*
X141935476Y-107158571D02*
X141745000Y-107691904D01*
X141554523Y-107158571D01*
X140830714Y-107691904D02*
X141287857Y-107691904D01*
X141059285Y-107691904D02*
X141059285Y-106891904D01*
X141135476Y-107006190D01*
X141211666Y-107082380D01*
X141287857Y-107120476D01*
X140487857Y-107615714D02*
X140449761Y-107653809D01*
X140487857Y-107691904D01*
X140525952Y-107653809D01*
X140487857Y-107615714D01*
X140487857Y-107691904D01*
X140145000Y-106968095D02*
X140106904Y-106930000D01*
X140030714Y-106891904D01*
X139840238Y-106891904D01*
X139764047Y-106930000D01*
X139725952Y-106968095D01*
X139687857Y-107044285D01*
X139687857Y-107120476D01*
X139725952Y-107234761D01*
X140183095Y-107691904D01*
X139687857Y-107691904D01*
X134931095Y-95510142D02*
X134359666Y-95510142D01*
X134245380Y-95548238D01*
X134169190Y-95624428D01*
X134131095Y-95738714D01*
X134131095Y-95814904D01*
X134131095Y-95014904D02*
X134169190Y-95091095D01*
X134207285Y-95129190D01*
X134283476Y-95167285D01*
X134512047Y-95167285D01*
X134588238Y-95129190D01*
X134626333Y-95091095D01*
X134664428Y-95014904D01*
X134664428Y-94900619D01*
X134626333Y-94824428D01*
X134588238Y-94786333D01*
X134512047Y-94748238D01*
X134283476Y-94748238D01*
X134207285Y-94786333D01*
X134169190Y-94824428D01*
X134131095Y-94900619D01*
X134131095Y-95014904D01*
X134664428Y-94481571D02*
X134131095Y-94291095D01*
X134664428Y-94100619D02*
X134131095Y-94291095D01*
X133940619Y-94367285D01*
X133902523Y-94405380D01*
X133864428Y-94481571D01*
X134131095Y-93795857D02*
X134931095Y-93795857D01*
X134131095Y-93338714D02*
X134588238Y-93681571D01*
X134931095Y-93338714D02*
X134473952Y-93795857D01*
X134550142Y-92995857D02*
X134550142Y-92729190D01*
X134131095Y-92614904D02*
X134131095Y-92995857D01*
X134931095Y-92995857D01*
X134931095Y-92614904D01*
X134512047Y-92119666D02*
X134131095Y-92119666D01*
X134931095Y-92386333D02*
X134512047Y-92119666D01*
X134931095Y-91853000D01*
X132700857Y-92495857D02*
X132967523Y-92495857D01*
X132967523Y-92914904D02*
X132967523Y-92114904D01*
X132586571Y-92114904D01*
X132281809Y-92914904D02*
X132281809Y-92114904D01*
X131443714Y-92914904D02*
X131710380Y-92533952D01*
X131900857Y-92914904D02*
X131900857Y-92114904D01*
X131596095Y-92114904D01*
X131519904Y-92153000D01*
X131481809Y-92191095D01*
X131443714Y-92267285D01*
X131443714Y-92381571D01*
X131481809Y-92457761D01*
X131519904Y-92495857D01*
X131596095Y-92533952D01*
X131900857Y-92533952D01*
X131100857Y-92495857D02*
X130834190Y-92495857D01*
X130719904Y-92914904D02*
X131100857Y-92914904D01*
X131100857Y-92114904D01*
X130719904Y-92114904D01*
X130453238Y-92114904D02*
X129958000Y-92114904D01*
X130224666Y-92419666D01*
X130110380Y-92419666D01*
X130034190Y-92457761D01*
X129996095Y-92495857D01*
X129958000Y-92572047D01*
X129958000Y-92762523D01*
X129996095Y-92838714D01*
X130034190Y-92876809D01*
X130110380Y-92914904D01*
X130338952Y-92914904D01*
X130415142Y-92876809D01*
X130453238Y-92838714D01*
X129805619Y-92991095D02*
X129196095Y-92991095D01*
X129043714Y-92876809D02*
X128929428Y-92914904D01*
X128738952Y-92914904D01*
X128662761Y-92876809D01*
X128624666Y-92838714D01*
X128586571Y-92762523D01*
X128586571Y-92686333D01*
X128624666Y-92610142D01*
X128662761Y-92572047D01*
X128738952Y-92533952D01*
X128891333Y-92495857D01*
X128967523Y-92457761D01*
X129005619Y-92419666D01*
X129043714Y-92343476D01*
X129043714Y-92267285D01*
X129005619Y-92191095D01*
X128967523Y-92153000D01*
X128891333Y-92114904D01*
X128700857Y-92114904D01*
X128586571Y-92153000D01*
X128243714Y-92495857D02*
X127977047Y-92495857D01*
X127862761Y-92914904D02*
X128243714Y-92914904D01*
X128243714Y-92114904D01*
X127862761Y-92114904D01*
X127138952Y-92914904D02*
X127519904Y-92914904D01*
X127519904Y-92114904D01*
X126262761Y-92914904D02*
X126262761Y-92114904D01*
X125958000Y-92114904D01*
X125881809Y-92153000D01*
X125843714Y-92191095D01*
X125805619Y-92267285D01*
X125805619Y-92381571D01*
X125843714Y-92457761D01*
X125881809Y-92495857D01*
X125958000Y-92533952D01*
X126262761Y-92533952D01*
X125500857Y-92191095D02*
X125462761Y-92153000D01*
X125386571Y-92114904D01*
X125196095Y-92114904D01*
X125119904Y-92153000D01*
X125081809Y-92191095D01*
X125043714Y-92267285D01*
X125043714Y-92343476D01*
X125081809Y-92457761D01*
X125538952Y-92914904D01*
X125043714Y-92914904D01*
X132700857Y-93795857D02*
X132967523Y-93795857D01*
X132967523Y-94214904D02*
X132967523Y-93414904D01*
X132586571Y-93414904D01*
X132281809Y-94214904D02*
X132281809Y-93414904D01*
X131443714Y-94214904D02*
X131710380Y-93833952D01*
X131900857Y-94214904D02*
X131900857Y-93414904D01*
X131596095Y-93414904D01*
X131519904Y-93453000D01*
X131481809Y-93491095D01*
X131443714Y-93567285D01*
X131443714Y-93681571D01*
X131481809Y-93757761D01*
X131519904Y-93795857D01*
X131596095Y-93833952D01*
X131900857Y-93833952D01*
X131100857Y-93795857D02*
X130834190Y-93795857D01*
X130719904Y-94214904D02*
X131100857Y-94214904D01*
X131100857Y-93414904D01*
X130719904Y-93414904D01*
X130453238Y-93414904D02*
X129958000Y-93414904D01*
X130224666Y-93719666D01*
X130110380Y-93719666D01*
X130034190Y-93757761D01*
X129996095Y-93795857D01*
X129958000Y-93872047D01*
X129958000Y-94062523D01*
X129996095Y-94138714D01*
X130034190Y-94176809D01*
X130110380Y-94214904D01*
X130338952Y-94214904D01*
X130415142Y-94176809D01*
X130453238Y-94138714D01*
X129805619Y-94291095D02*
X129196095Y-94291095D01*
X129005619Y-94214904D02*
X129005619Y-93414904D01*
X128700857Y-93414904D01*
X128624666Y-93453000D01*
X128586571Y-93491095D01*
X128548476Y-93567285D01*
X128548476Y-93681571D01*
X128586571Y-93757761D01*
X128624666Y-93795857D01*
X128700857Y-93833952D01*
X129005619Y-93833952D01*
X128053238Y-93414904D02*
X127900857Y-93414904D01*
X127824666Y-93453000D01*
X127748476Y-93529190D01*
X127710380Y-93681571D01*
X127710380Y-93948238D01*
X127748476Y-94100619D01*
X127824666Y-94176809D01*
X127900857Y-94214904D01*
X128053238Y-94214904D01*
X128129428Y-94176809D01*
X128205619Y-94100619D01*
X128243714Y-93948238D01*
X128243714Y-93681571D01*
X128205619Y-93529190D01*
X128129428Y-93453000D01*
X128053238Y-93414904D01*
X126986571Y-94214904D02*
X127367523Y-94214904D01*
X127367523Y-93414904D01*
X125691333Y-93453000D02*
X125767523Y-93414904D01*
X125881809Y-93414904D01*
X125996095Y-93453000D01*
X126072285Y-93529190D01*
X126110380Y-93605380D01*
X126148476Y-93757761D01*
X126148476Y-93872047D01*
X126110380Y-94024428D01*
X126072285Y-94100619D01*
X125996095Y-94176809D01*
X125881809Y-94214904D01*
X125805619Y-94214904D01*
X125691333Y-94176809D01*
X125653238Y-94138714D01*
X125653238Y-93872047D01*
X125805619Y-93872047D01*
X125310380Y-94214904D02*
X125310380Y-93414904D01*
X124853238Y-94214904D01*
X124853238Y-93414904D01*
X124472285Y-94214904D02*
X124472285Y-93414904D01*
X124281809Y-93414904D01*
X124167523Y-93453000D01*
X124091333Y-93529190D01*
X124053238Y-93605380D01*
X124015142Y-93757761D01*
X124015142Y-93872047D01*
X124053238Y-94024428D01*
X124091333Y-94100619D01*
X124167523Y-94176809D01*
X124281809Y-94214904D01*
X124472285Y-94214904D01*
X132700857Y-95095857D02*
X132967523Y-95095857D01*
X132967523Y-95514904D02*
X132967523Y-94714904D01*
X132586571Y-94714904D01*
X132281809Y-95514904D02*
X132281809Y-94714904D01*
X131443714Y-95514904D02*
X131710380Y-95133952D01*
X131900857Y-95514904D02*
X131900857Y-94714904D01*
X131596095Y-94714904D01*
X131519904Y-94753000D01*
X131481809Y-94791095D01*
X131443714Y-94867285D01*
X131443714Y-94981571D01*
X131481809Y-95057761D01*
X131519904Y-95095857D01*
X131596095Y-95133952D01*
X131900857Y-95133952D01*
X131100857Y-95095857D02*
X130834190Y-95095857D01*
X130719904Y-95514904D02*
X131100857Y-95514904D01*
X131100857Y-94714904D01*
X130719904Y-94714904D01*
X130415142Y-94791095D02*
X130377047Y-94753000D01*
X130300857Y-94714904D01*
X130110380Y-94714904D01*
X130034190Y-94753000D01*
X129996095Y-94791095D01*
X129958000Y-94867285D01*
X129958000Y-94943476D01*
X129996095Y-95057761D01*
X130453238Y-95514904D01*
X129958000Y-95514904D01*
X129805619Y-95591095D02*
X129196095Y-95591095D01*
X129005619Y-95514904D02*
X129005619Y-94714904D01*
X128700857Y-94714904D01*
X128624666Y-94753000D01*
X128586571Y-94791095D01*
X128548476Y-94867285D01*
X128548476Y-94981571D01*
X128586571Y-95057761D01*
X128624666Y-95095857D01*
X128700857Y-95133952D01*
X129005619Y-95133952D01*
X128053238Y-94714904D02*
X127900857Y-94714904D01*
X127824666Y-94753000D01*
X127748476Y-94829190D01*
X127710380Y-94981571D01*
X127710380Y-95248238D01*
X127748476Y-95400619D01*
X127824666Y-95476809D01*
X127900857Y-95514904D01*
X128053238Y-95514904D01*
X128129428Y-95476809D01*
X128205619Y-95400619D01*
X128243714Y-95248238D01*
X128243714Y-94981571D01*
X128205619Y-94829190D01*
X128129428Y-94753000D01*
X128053238Y-94714904D01*
X126986571Y-95514904D02*
X127367523Y-95514904D01*
X127367523Y-94714904D01*
X125691333Y-94753000D02*
X125767523Y-94714904D01*
X125881809Y-94714904D01*
X125996095Y-94753000D01*
X126072285Y-94829190D01*
X126110380Y-94905380D01*
X126148476Y-95057761D01*
X126148476Y-95172047D01*
X126110380Y-95324428D01*
X126072285Y-95400619D01*
X125996095Y-95476809D01*
X125881809Y-95514904D01*
X125805619Y-95514904D01*
X125691333Y-95476809D01*
X125653238Y-95438714D01*
X125653238Y-95172047D01*
X125805619Y-95172047D01*
X125310380Y-95514904D02*
X125310380Y-94714904D01*
X124853238Y-95514904D01*
X124853238Y-94714904D01*
X124472285Y-95514904D02*
X124472285Y-94714904D01*
X124281809Y-94714904D01*
X124167523Y-94753000D01*
X124091333Y-94829190D01*
X124053238Y-94905380D01*
X124015142Y-95057761D01*
X124015142Y-95172047D01*
X124053238Y-95324428D01*
X124091333Y-95400619D01*
X124167523Y-95476809D01*
X124281809Y-95514904D01*
X124472285Y-95514904D01*
D12*
G36*
X145619802Y-85270012D02*
G01*
X144806189Y-85270012D01*
X144806189Y-84049592D01*
X143992575Y-84049592D01*
X143992575Y-85676819D01*
X144399382Y-85676819D01*
X144399382Y-86083626D01*
X144806189Y-86083626D01*
X144806189Y-86490433D01*
X146433416Y-86490433D01*
X146433416Y-86083626D01*
X145212995Y-86083626D01*
X145212995Y-85676819D01*
X146026609Y-85676819D01*
X146026609Y-85270012D01*
X146433416Y-85270012D01*
X146433416Y-84049592D01*
X145619802Y-84049592D01*
X145619802Y-85270012D01*
G37*
X145619802Y-85270012D02*
X144806189Y-85270012D01*
X144806189Y-84049592D01*
X143992575Y-84049592D01*
X143992575Y-85676819D01*
X144399382Y-85676819D01*
X144399382Y-86083626D01*
X144806189Y-86083626D01*
X144806189Y-86490433D01*
X146433416Y-86490433D01*
X146433416Y-86083626D01*
X145212995Y-86083626D01*
X145212995Y-85676819D01*
X146026609Y-85676819D01*
X146026609Y-85270012D01*
X146433416Y-85270012D01*
X146433416Y-84049592D01*
X145619802Y-84049592D01*
X145619802Y-85270012D01*
G36*
X149687870Y-83642785D02*
G01*
X150094677Y-83642785D01*
X150094677Y-85676819D01*
X150501484Y-85676819D01*
X150501484Y-86083626D01*
X151721904Y-86083626D01*
X151721904Y-85676819D01*
X152128711Y-85676819D01*
X152128711Y-85270012D01*
X151315097Y-85270012D01*
X151315097Y-85676819D01*
X150908291Y-85676819D01*
X150908291Y-83642785D01*
X151315097Y-83642785D01*
X151315097Y-83235978D01*
X149687870Y-83235978D01*
X149687870Y-83642785D01*
G37*
X149687870Y-83642785D02*
X150094677Y-83642785D01*
X150094677Y-85676819D01*
X150501484Y-85676819D01*
X150501484Y-86083626D01*
X151721904Y-86083626D01*
X151721904Y-85676819D01*
X152128711Y-85676819D01*
X152128711Y-85270012D01*
X151315097Y-85270012D01*
X151315097Y-85676819D01*
X150908291Y-85676819D01*
X150908291Y-83642785D01*
X151315097Y-83642785D01*
X151315097Y-83235978D01*
X149687870Y-83235978D01*
X149687870Y-83642785D01*
G36*
X147247029Y-84456399D02*
G01*
X146840223Y-84456399D01*
X146840223Y-85676819D01*
X147247029Y-85676819D01*
X147247029Y-86083626D01*
X148874257Y-86083626D01*
X148874257Y-85676819D01*
X149281063Y-85676819D01*
X149281063Y-84456399D01*
X148874257Y-84456399D01*
X148467450Y-84456399D01*
X148467450Y-85676819D01*
X147653836Y-85676819D01*
X147653836Y-84456399D01*
X148467450Y-84456399D01*
X148874257Y-84456399D01*
X148874257Y-84049592D01*
X147247029Y-84049592D01*
X147247029Y-84456399D01*
G37*
X147247029Y-84456399D02*
X146840223Y-84456399D01*
X146840223Y-85676819D01*
X147247029Y-85676819D01*
X147247029Y-86083626D01*
X148874257Y-86083626D01*
X148874257Y-85676819D01*
X149281063Y-85676819D01*
X149281063Y-84456399D01*
X148874257Y-84456399D01*
X148467450Y-84456399D01*
X148467450Y-85676819D01*
X147653836Y-85676819D01*
X147653836Y-84456399D01*
X148467450Y-84456399D01*
X148874257Y-84456399D01*
X148874257Y-84049592D01*
X147247029Y-84049592D01*
X147247029Y-84456399D01*
G36*
X142772154Y-84049592D02*
G01*
X142365348Y-84049592D01*
X142365348Y-83642785D01*
X141958541Y-83642785D01*
X141958541Y-83235978D01*
X141144927Y-83235978D01*
X141144927Y-83642785D01*
X141551734Y-83642785D01*
X141551734Y-84049592D01*
X141958541Y-84049592D01*
X141958541Y-84456399D01*
X142365348Y-84456399D01*
X142365348Y-84863206D01*
X141958541Y-84863206D01*
X141958541Y-85270012D01*
X141551734Y-85270012D01*
X141551734Y-85676819D01*
X141144927Y-85676819D01*
X141144927Y-86083626D01*
X141958541Y-86083626D01*
X141958541Y-85676819D01*
X142365348Y-85676819D01*
X142365348Y-85270012D01*
X142772154Y-85270012D01*
X142772154Y-86083626D01*
X143585768Y-86083626D01*
X143585768Y-83235978D01*
X142772154Y-83235978D01*
X142772154Y-84049592D01*
G37*
X142772154Y-84049592D02*
X142365348Y-84049592D01*
X142365348Y-83642785D01*
X141958541Y-83642785D01*
X141958541Y-83235978D01*
X141144927Y-83235978D01*
X141144927Y-83642785D01*
X141551734Y-83642785D01*
X141551734Y-84049592D01*
X141958541Y-84049592D01*
X141958541Y-84456399D01*
X142365348Y-84456399D01*
X142365348Y-84863206D01*
X141958541Y-84863206D01*
X141958541Y-85270012D01*
X141551734Y-85270012D01*
X141551734Y-85676819D01*
X141144927Y-85676819D01*
X141144927Y-86083626D01*
X141958541Y-86083626D01*
X141958541Y-85676819D01*
X142365348Y-85676819D01*
X142365348Y-85270012D01*
X142772154Y-85270012D01*
X142772154Y-86083626D01*
X143585768Y-86083626D01*
X143585768Y-83235978D01*
X142772154Y-83235978D01*
X142772154Y-84049592D01*
G36*
X138297280Y-83642785D02*
G01*
X139924507Y-83642785D01*
X139924507Y-84456399D01*
X139110893Y-84456399D01*
X139110893Y-84863206D01*
X139924507Y-84863206D01*
X139924507Y-85676819D01*
X138297280Y-85676819D01*
X138297280Y-86083626D01*
X140738120Y-86083626D01*
X140738120Y-83235978D01*
X138297280Y-83235978D01*
X138297280Y-83642785D01*
G37*
X138297280Y-83642785D02*
X139924507Y-83642785D01*
X139924507Y-84456399D01*
X139110893Y-84456399D01*
X139110893Y-84863206D01*
X139924507Y-84863206D01*
X139924507Y-85676819D01*
X138297280Y-85676819D01*
X138297280Y-86083626D01*
X140738120Y-86083626D01*
X140738120Y-83235978D01*
X138297280Y-83235978D01*
X138297280Y-83642785D01*
G36*
X137076859Y-84456399D02*
G01*
X136263246Y-84456399D01*
X136263246Y-83235978D01*
X135449632Y-83235978D01*
X135449632Y-84456399D01*
X135856439Y-84456399D01*
X135856439Y-84863206D01*
X136263246Y-84863206D01*
X136263246Y-86083626D01*
X137076859Y-86083626D01*
X137076859Y-84863206D01*
X137483666Y-84863206D01*
X137483666Y-84456399D01*
X137890473Y-84456399D01*
X137890473Y-83235978D01*
X137076859Y-83235978D01*
X137076859Y-84456399D01*
G37*
X137076859Y-84456399D02*
X136263246Y-84456399D01*
X136263246Y-83235978D01*
X135449632Y-83235978D01*
X135449632Y-84456399D01*
X135856439Y-84456399D01*
X135856439Y-84863206D01*
X136263246Y-84863206D01*
X136263246Y-86083626D01*
X137076859Y-86083626D01*
X137076859Y-84863206D01*
X137483666Y-84863206D01*
X137483666Y-84456399D01*
X137890473Y-84456399D01*
X137890473Y-83235978D01*
X137076859Y-83235978D01*
X137076859Y-84456399D01*
G36*
X146026609Y-80388331D02*
G01*
X145619802Y-80388331D01*
X145619802Y-80795137D01*
X146433416Y-80795137D01*
X146433416Y-80388331D01*
X147247029Y-80388331D01*
X147247029Y-82422365D01*
X146433416Y-82422365D01*
X146433416Y-82015558D01*
X145619802Y-82015558D01*
X145619802Y-82422365D01*
X146026609Y-82422365D01*
X146026609Y-82829171D01*
X147653836Y-82829171D01*
X147653836Y-82422365D01*
X148060643Y-82422365D01*
X148060643Y-80388331D01*
X147653836Y-80388331D01*
X147653836Y-79981524D01*
X146026609Y-79981524D01*
X146026609Y-80388331D01*
G37*
X146026609Y-80388331D02*
X145619802Y-80388331D01*
X145619802Y-80795137D01*
X146433416Y-80795137D01*
X146433416Y-80388331D01*
X147247029Y-80388331D01*
X147247029Y-82422365D01*
X146433416Y-82422365D01*
X146433416Y-82015558D01*
X145619802Y-82015558D01*
X145619802Y-82422365D01*
X146026609Y-82422365D01*
X146026609Y-82829171D01*
X147653836Y-82829171D01*
X147653836Y-82422365D01*
X148060643Y-82422365D01*
X148060643Y-80388331D01*
X147653836Y-80388331D01*
X147653836Y-79981524D01*
X146026609Y-79981524D01*
X146026609Y-80388331D01*
G36*
X143178961Y-80388331D02*
G01*
X142772154Y-80388331D01*
X142772154Y-80795137D01*
X143585768Y-80795137D01*
X143585768Y-80388331D01*
X144399382Y-80388331D01*
X144399382Y-81201944D01*
X143178961Y-81201944D01*
X143178961Y-81608751D01*
X142772154Y-81608751D01*
X142772154Y-82422365D01*
X143178961Y-82422365D01*
X143178961Y-82829171D01*
X144806189Y-82829171D01*
X144806189Y-82422365D01*
X145212995Y-82422365D01*
X145212995Y-81608751D01*
X144399382Y-81608751D01*
X144399382Y-82422365D01*
X143585768Y-82422365D01*
X143585768Y-81608751D01*
X144399382Y-81608751D01*
X145212995Y-81608751D01*
X145212995Y-80388331D01*
X144806189Y-80388331D01*
X144806189Y-79981524D01*
X143178961Y-79981524D01*
X143178961Y-80388331D01*
G37*
X143178961Y-80388331D02*
X142772154Y-80388331D01*
X142772154Y-80795137D01*
X143585768Y-80795137D01*
X143585768Y-80388331D01*
X144399382Y-80388331D01*
X144399382Y-81201944D01*
X143178961Y-81201944D01*
X143178961Y-81608751D01*
X142772154Y-81608751D01*
X142772154Y-82422365D01*
X143178961Y-82422365D01*
X143178961Y-82829171D01*
X144806189Y-82829171D01*
X144806189Y-82422365D01*
X145212995Y-82422365D01*
X145212995Y-81608751D01*
X144399382Y-81608751D01*
X144399382Y-82422365D01*
X143585768Y-82422365D01*
X143585768Y-81608751D01*
X144399382Y-81608751D01*
X145212995Y-81608751D01*
X145212995Y-80388331D01*
X144806189Y-80388331D01*
X144806189Y-79981524D01*
X143178961Y-79981524D01*
X143178961Y-80388331D01*
G36*
X139924507Y-81608751D02*
G01*
X139517700Y-81608751D01*
X139517700Y-82015558D01*
X139924507Y-82015558D01*
X139924507Y-82829171D01*
X140738120Y-82829171D01*
X140738120Y-82015558D01*
X142365348Y-82015558D01*
X142365348Y-81201944D01*
X141551734Y-81201944D01*
X141551734Y-81608751D01*
X140738120Y-81608751D01*
X140738120Y-81201944D01*
X141551734Y-81201944D01*
X141551734Y-80795137D01*
X141144927Y-80795137D01*
X141144927Y-80388331D01*
X140738120Y-80388331D01*
X140738120Y-79981524D01*
X139924507Y-79981524D01*
X139924507Y-81608751D01*
G37*
X139924507Y-81608751D02*
X139517700Y-81608751D01*
X139517700Y-82015558D01*
X139924507Y-82015558D01*
X139924507Y-82829171D01*
X140738120Y-82829171D01*
X140738120Y-82015558D01*
X142365348Y-82015558D01*
X142365348Y-81201944D01*
X141551734Y-81201944D01*
X141551734Y-81608751D01*
X140738120Y-81608751D01*
X140738120Y-81201944D01*
X141551734Y-81201944D01*
X141551734Y-80795137D01*
X141144927Y-80795137D01*
X141144927Y-80388331D01*
X140738120Y-80388331D01*
X140738120Y-79981524D01*
X139924507Y-79981524D01*
X139924507Y-81608751D01*
M02*
