G04 #@! TF.GenerationSoftware,KiCad,Pcbnew,(5.1.8)-1*
G04 #@! TF.CreationDate,2022-02-20T21:38:46+01:00*
G04 #@! TF.ProjectId,NES,4e45532e-6b69-4636-9164-5f7063625858,rev?*
G04 #@! TF.SameCoordinates,Original*
G04 #@! TF.FileFunction,Legend,Top*
G04 #@! TF.FilePolarity,Positive*
%FSLAX46Y46*%
G04 Gerber Fmt 4.6, Leading zero omitted, Abs format (unit mm)*
G04 Created by KiCad (PCBNEW (5.1.8)-1) date 2022-02-20 21:38:46*
%MOMM*%
%LPD*%
G01*
G04 APERTURE LIST*
%ADD10C,0.100000*%
%ADD11C,0.120000*%
%ADD12C,0.150000*%
G04 APERTURE END LIST*
D10*
X134703714Y-81977904D02*
X134703714Y-81177904D01*
X135160857Y-81977904D01*
X135160857Y-81177904D01*
X135541809Y-81977904D02*
X135541809Y-81444571D01*
X135541809Y-81177904D02*
X135503714Y-81216000D01*
X135541809Y-81254095D01*
X135579904Y-81216000D01*
X135541809Y-81177904D01*
X135541809Y-81254095D01*
X135922761Y-81444571D02*
X135922761Y-81977904D01*
X135922761Y-81520761D02*
X135960857Y-81482666D01*
X136037047Y-81444571D01*
X136151333Y-81444571D01*
X136227523Y-81482666D01*
X136265619Y-81558857D01*
X136265619Y-81977904D01*
X136532285Y-81444571D02*
X136837047Y-81444571D01*
X136646571Y-81177904D02*
X136646571Y-81863619D01*
X136684666Y-81939809D01*
X136760857Y-81977904D01*
X136837047Y-81977904D01*
X137408476Y-81939809D02*
X137332285Y-81977904D01*
X137179904Y-81977904D01*
X137103714Y-81939809D01*
X137065619Y-81863619D01*
X137065619Y-81558857D01*
X137103714Y-81482666D01*
X137179904Y-81444571D01*
X137332285Y-81444571D01*
X137408476Y-81482666D01*
X137446571Y-81558857D01*
X137446571Y-81635047D01*
X137065619Y-81711238D01*
X137789428Y-81444571D02*
X137789428Y-81977904D01*
X137789428Y-81520761D02*
X137827523Y-81482666D01*
X137903714Y-81444571D01*
X138018000Y-81444571D01*
X138094190Y-81482666D01*
X138132285Y-81558857D01*
X138132285Y-81977904D01*
X138856095Y-81977904D02*
X138856095Y-81177904D01*
X138856095Y-81939809D02*
X138779904Y-81977904D01*
X138627523Y-81977904D01*
X138551333Y-81939809D01*
X138513238Y-81901714D01*
X138475142Y-81825523D01*
X138475142Y-81596952D01*
X138513238Y-81520761D01*
X138551333Y-81482666D01*
X138627523Y-81444571D01*
X138779904Y-81444571D01*
X138856095Y-81482666D01*
X139351333Y-81977904D02*
X139275142Y-81939809D01*
X139237047Y-81901714D01*
X139198952Y-81825523D01*
X139198952Y-81596952D01*
X139237047Y-81520761D01*
X139275142Y-81482666D01*
X139351333Y-81444571D01*
X139465619Y-81444571D01*
X139541809Y-81482666D01*
X139579904Y-81520761D01*
X139618000Y-81596952D01*
X139618000Y-81825523D01*
X139579904Y-81901714D01*
X139541809Y-81939809D01*
X139465619Y-81977904D01*
X139351333Y-81977904D01*
X140570380Y-81558857D02*
X140837047Y-81558857D01*
X140951333Y-81977904D02*
X140570380Y-81977904D01*
X140570380Y-81177904D01*
X140951333Y-81177904D01*
X141294190Y-81444571D02*
X141294190Y-81977904D01*
X141294190Y-81520761D02*
X141332285Y-81482666D01*
X141408476Y-81444571D01*
X141522761Y-81444571D01*
X141598952Y-81482666D01*
X141637047Y-81558857D01*
X141637047Y-81977904D01*
X141903714Y-81444571D02*
X142208476Y-81444571D01*
X142018000Y-81177904D02*
X142018000Y-81863619D01*
X142056095Y-81939809D01*
X142132285Y-81977904D01*
X142208476Y-81977904D01*
X142779904Y-81939809D02*
X142703714Y-81977904D01*
X142551333Y-81977904D01*
X142475142Y-81939809D01*
X142437047Y-81863619D01*
X142437047Y-81558857D01*
X142475142Y-81482666D01*
X142551333Y-81444571D01*
X142703714Y-81444571D01*
X142779904Y-81482666D01*
X142818000Y-81558857D01*
X142818000Y-81635047D01*
X142437047Y-81711238D01*
X143160857Y-81977904D02*
X143160857Y-81444571D01*
X143160857Y-81596952D02*
X143198952Y-81520761D01*
X143237047Y-81482666D01*
X143313238Y-81444571D01*
X143389428Y-81444571D01*
X143541809Y-81444571D02*
X143846571Y-81444571D01*
X143656095Y-81177904D02*
X143656095Y-81863619D01*
X143694190Y-81939809D01*
X143770380Y-81977904D01*
X143846571Y-81977904D01*
X144456095Y-81977904D02*
X144456095Y-81558857D01*
X144418000Y-81482666D01*
X144341809Y-81444571D01*
X144189428Y-81444571D01*
X144113238Y-81482666D01*
X144456095Y-81939809D02*
X144379904Y-81977904D01*
X144189428Y-81977904D01*
X144113238Y-81939809D01*
X144075142Y-81863619D01*
X144075142Y-81787428D01*
X144113238Y-81711238D01*
X144189428Y-81673142D01*
X144379904Y-81673142D01*
X144456095Y-81635047D01*
X144837047Y-81977904D02*
X144837047Y-81444571D01*
X144837047Y-81177904D02*
X144798952Y-81216000D01*
X144837047Y-81254095D01*
X144875142Y-81216000D01*
X144837047Y-81177904D01*
X144837047Y-81254095D01*
X145218000Y-81444571D02*
X145218000Y-81977904D01*
X145218000Y-81520761D02*
X145256095Y-81482666D01*
X145332285Y-81444571D01*
X145446571Y-81444571D01*
X145522761Y-81482666D01*
X145560857Y-81558857D01*
X145560857Y-81977904D01*
X145941809Y-81977904D02*
X145941809Y-81444571D01*
X145941809Y-81520761D02*
X145979904Y-81482666D01*
X146056095Y-81444571D01*
X146170380Y-81444571D01*
X146246571Y-81482666D01*
X146284666Y-81558857D01*
X146284666Y-81977904D01*
X146284666Y-81558857D02*
X146322761Y-81482666D01*
X146398952Y-81444571D01*
X146513238Y-81444571D01*
X146589428Y-81482666D01*
X146627523Y-81558857D01*
X146627523Y-81977904D01*
X147313238Y-81939809D02*
X147237047Y-81977904D01*
X147084666Y-81977904D01*
X147008476Y-81939809D01*
X146970380Y-81863619D01*
X146970380Y-81558857D01*
X147008476Y-81482666D01*
X147084666Y-81444571D01*
X147237047Y-81444571D01*
X147313238Y-81482666D01*
X147351333Y-81558857D01*
X147351333Y-81635047D01*
X146970380Y-81711238D01*
X147694190Y-81444571D02*
X147694190Y-81977904D01*
X147694190Y-81520761D02*
X147732285Y-81482666D01*
X147808476Y-81444571D01*
X147922761Y-81444571D01*
X147998952Y-81482666D01*
X148037047Y-81558857D01*
X148037047Y-81977904D01*
X148303714Y-81444571D02*
X148608476Y-81444571D01*
X148418000Y-81177904D02*
X148418000Y-81863619D01*
X148456095Y-81939809D01*
X148532285Y-81977904D01*
X148608476Y-81977904D01*
X149446571Y-81939809D02*
X149560857Y-81977904D01*
X149751333Y-81977904D01*
X149827523Y-81939809D01*
X149865619Y-81901714D01*
X149903714Y-81825523D01*
X149903714Y-81749333D01*
X149865619Y-81673142D01*
X149827523Y-81635047D01*
X149751333Y-81596952D01*
X149598952Y-81558857D01*
X149522761Y-81520761D01*
X149484666Y-81482666D01*
X149446571Y-81406476D01*
X149446571Y-81330285D01*
X149484666Y-81254095D01*
X149522761Y-81216000D01*
X149598952Y-81177904D01*
X149789428Y-81177904D01*
X149903714Y-81216000D01*
X150170380Y-81444571D02*
X150360857Y-81977904D01*
X150551333Y-81444571D02*
X150360857Y-81977904D01*
X150284666Y-82168380D01*
X150246571Y-82206476D01*
X150170380Y-82244571D01*
X150818000Y-81939809D02*
X150894190Y-81977904D01*
X151046571Y-81977904D01*
X151122761Y-81939809D01*
X151160857Y-81863619D01*
X151160857Y-81825523D01*
X151122761Y-81749333D01*
X151046571Y-81711238D01*
X150932285Y-81711238D01*
X150856095Y-81673142D01*
X150818000Y-81596952D01*
X150818000Y-81558857D01*
X150856095Y-81482666D01*
X150932285Y-81444571D01*
X151046571Y-81444571D01*
X151122761Y-81482666D01*
X151389428Y-81444571D02*
X151694190Y-81444571D01*
X151503714Y-81177904D02*
X151503714Y-81863619D01*
X151541809Y-81939809D01*
X151618000Y-81977904D01*
X151694190Y-81977904D01*
X152265619Y-81939809D02*
X152189428Y-81977904D01*
X152037047Y-81977904D01*
X151960857Y-81939809D01*
X151922761Y-81863619D01*
X151922761Y-81558857D01*
X151960857Y-81482666D01*
X152037047Y-81444571D01*
X152189428Y-81444571D01*
X152265619Y-81482666D01*
X152303714Y-81558857D01*
X152303714Y-81635047D01*
X151922761Y-81711238D01*
X152646571Y-81977904D02*
X152646571Y-81444571D01*
X152646571Y-81520761D02*
X152684666Y-81482666D01*
X152760857Y-81444571D01*
X152875142Y-81444571D01*
X152951333Y-81482666D01*
X152989428Y-81558857D01*
X152989428Y-81977904D01*
X152989428Y-81558857D02*
X153027523Y-81482666D01*
X153103714Y-81444571D01*
X153218000Y-81444571D01*
X153294190Y-81482666D01*
X153332285Y-81558857D01*
X153332285Y-81977904D01*
X137808476Y-83582666D02*
X137770380Y-83544571D01*
X137694190Y-83430285D01*
X137656095Y-83354095D01*
X137618000Y-83239809D01*
X137579904Y-83049333D01*
X137579904Y-82896952D01*
X137618000Y-82706476D01*
X137656095Y-82592190D01*
X137694190Y-82516000D01*
X137770380Y-82401714D01*
X137808476Y-82363619D01*
X138570380Y-83201714D02*
X138532285Y-83239809D01*
X138418000Y-83277904D01*
X138341809Y-83277904D01*
X138227523Y-83239809D01*
X138151333Y-83163619D01*
X138113238Y-83087428D01*
X138075142Y-82935047D01*
X138075142Y-82820761D01*
X138113238Y-82668380D01*
X138151333Y-82592190D01*
X138227523Y-82516000D01*
X138341809Y-82477904D01*
X138418000Y-82477904D01*
X138532285Y-82516000D01*
X138570380Y-82554095D01*
X139256095Y-82477904D02*
X139103714Y-82477904D01*
X139027523Y-82516000D01*
X138989428Y-82554095D01*
X138913238Y-82668380D01*
X138875142Y-82820761D01*
X138875142Y-83125523D01*
X138913238Y-83201714D01*
X138951333Y-83239809D01*
X139027523Y-83277904D01*
X139179904Y-83277904D01*
X139256095Y-83239809D01*
X139294190Y-83201714D01*
X139332285Y-83125523D01*
X139332285Y-82935047D01*
X139294190Y-82858857D01*
X139256095Y-82820761D01*
X139179904Y-82782666D01*
X139027523Y-82782666D01*
X138951333Y-82820761D01*
X138913238Y-82858857D01*
X138875142Y-82935047D01*
X140018000Y-82744571D02*
X140018000Y-83277904D01*
X139827523Y-82439809D02*
X139637047Y-83011238D01*
X140132285Y-83011238D01*
X141275142Y-82477904D02*
X141275142Y-83049333D01*
X141237047Y-83163619D01*
X141160857Y-83239809D01*
X141046571Y-83277904D01*
X140970380Y-83277904D01*
X141770380Y-83277904D02*
X141694190Y-83239809D01*
X141656095Y-83201714D01*
X141618000Y-83125523D01*
X141618000Y-82896952D01*
X141656095Y-82820761D01*
X141694190Y-82782666D01*
X141770380Y-82744571D01*
X141884666Y-82744571D01*
X141960857Y-82782666D01*
X141998952Y-82820761D01*
X142037047Y-82896952D01*
X142037047Y-83125523D01*
X141998952Y-83201714D01*
X141960857Y-83239809D01*
X141884666Y-83277904D01*
X141770380Y-83277904D01*
X142303714Y-82744571D02*
X142494190Y-83277904D01*
X142684666Y-82744571D02*
X142494190Y-83277904D01*
X142418000Y-83468380D01*
X142379904Y-83506476D01*
X142303714Y-83544571D01*
X142989428Y-83277904D02*
X142989428Y-82477904D01*
X143446571Y-83277904D02*
X143103714Y-82820761D01*
X143446571Y-82477904D02*
X142989428Y-82935047D01*
X143789428Y-82858857D02*
X144056095Y-82858857D01*
X144170380Y-83277904D02*
X143789428Y-83277904D01*
X143789428Y-82477904D01*
X144170380Y-82477904D01*
X144665619Y-82896952D02*
X144665619Y-83277904D01*
X144398952Y-82477904D02*
X144665619Y-82896952D01*
X144932285Y-82477904D01*
X145770380Y-83049333D02*
X146151333Y-83049333D01*
X145694190Y-83277904D02*
X145960857Y-82477904D01*
X146227523Y-83277904D01*
X146837047Y-83277904D02*
X146837047Y-82477904D01*
X146837047Y-83239809D02*
X146760857Y-83277904D01*
X146608476Y-83277904D01*
X146532285Y-83239809D01*
X146494190Y-83201714D01*
X146456095Y-83125523D01*
X146456095Y-82896952D01*
X146494190Y-82820761D01*
X146532285Y-82782666D01*
X146608476Y-82744571D01*
X146760857Y-82744571D01*
X146837047Y-82782666D01*
X147560857Y-83277904D02*
X147560857Y-82858857D01*
X147522761Y-82782666D01*
X147446571Y-82744571D01*
X147294190Y-82744571D01*
X147218000Y-82782666D01*
X147560857Y-83239809D02*
X147484666Y-83277904D01*
X147294190Y-83277904D01*
X147218000Y-83239809D01*
X147179904Y-83163619D01*
X147179904Y-83087428D01*
X147218000Y-83011238D01*
X147294190Y-82973142D01*
X147484666Y-82973142D01*
X147560857Y-82935047D01*
X147941809Y-82744571D02*
X147941809Y-83544571D01*
X147941809Y-82782666D02*
X148018000Y-82744571D01*
X148170380Y-82744571D01*
X148246571Y-82782666D01*
X148284666Y-82820761D01*
X148322761Y-82896952D01*
X148322761Y-83125523D01*
X148284666Y-83201714D01*
X148246571Y-83239809D01*
X148170380Y-83277904D01*
X148018000Y-83277904D01*
X147941809Y-83239809D01*
X148551333Y-82744571D02*
X148856095Y-82744571D01*
X148665619Y-82477904D02*
X148665619Y-83163619D01*
X148703714Y-83239809D01*
X148779904Y-83277904D01*
X148856095Y-83277904D01*
X149427523Y-83239809D02*
X149351333Y-83277904D01*
X149198952Y-83277904D01*
X149122761Y-83239809D01*
X149084666Y-83163619D01*
X149084666Y-82858857D01*
X149122761Y-82782666D01*
X149198952Y-82744571D01*
X149351333Y-82744571D01*
X149427523Y-82782666D01*
X149465619Y-82858857D01*
X149465619Y-82935047D01*
X149084666Y-83011238D01*
X149808476Y-83277904D02*
X149808476Y-82744571D01*
X149808476Y-82896952D02*
X149846571Y-82820761D01*
X149884666Y-82782666D01*
X149960857Y-82744571D01*
X150037047Y-82744571D01*
X150227523Y-83582666D02*
X150265619Y-83544571D01*
X150341809Y-83430285D01*
X150379904Y-83354095D01*
X150418000Y-83239809D01*
X150456095Y-83049333D01*
X150456095Y-82896952D01*
X150418000Y-82706476D01*
X150379904Y-82592190D01*
X150341809Y-82516000D01*
X150265619Y-82401714D01*
X150227523Y-82363619D01*
X139694190Y-85344571D02*
X139694190Y-85992190D01*
X139656095Y-86068380D01*
X139618000Y-86106476D01*
X139541809Y-86144571D01*
X139427523Y-86144571D01*
X139351333Y-86106476D01*
X139694190Y-85839809D02*
X139618000Y-85877904D01*
X139465619Y-85877904D01*
X139389428Y-85839809D01*
X139351333Y-85801714D01*
X139313238Y-85725523D01*
X139313238Y-85496952D01*
X139351333Y-85420761D01*
X139389428Y-85382666D01*
X139465619Y-85344571D01*
X139618000Y-85344571D01*
X139694190Y-85382666D01*
X140075142Y-85877904D02*
X140075142Y-85344571D01*
X140075142Y-85077904D02*
X140037047Y-85116000D01*
X140075142Y-85154095D01*
X140113238Y-85116000D01*
X140075142Y-85077904D01*
X140075142Y-85154095D01*
X140341809Y-85344571D02*
X140646571Y-85344571D01*
X140456095Y-85077904D02*
X140456095Y-85763619D01*
X140494190Y-85839809D01*
X140570380Y-85877904D01*
X140646571Y-85877904D01*
X140913238Y-85877904D02*
X140913238Y-85077904D01*
X141256095Y-85877904D02*
X141256095Y-85458857D01*
X141218000Y-85382666D01*
X141141809Y-85344571D01*
X141027523Y-85344571D01*
X140951333Y-85382666D01*
X140913238Y-85420761D01*
X141979904Y-85344571D02*
X141979904Y-85877904D01*
X141637047Y-85344571D02*
X141637047Y-85763619D01*
X141675142Y-85839809D01*
X141751333Y-85877904D01*
X141865619Y-85877904D01*
X141941809Y-85839809D01*
X141979904Y-85801714D01*
X142360857Y-85877904D02*
X142360857Y-85077904D01*
X142360857Y-85382666D02*
X142437047Y-85344571D01*
X142589428Y-85344571D01*
X142665619Y-85382666D01*
X142703714Y-85420761D01*
X142741809Y-85496952D01*
X142741809Y-85725523D01*
X142703714Y-85801714D01*
X142665619Y-85839809D01*
X142589428Y-85877904D01*
X142437047Y-85877904D01*
X142360857Y-85839809D01*
X143084666Y-85801714D02*
X143122761Y-85839809D01*
X143084666Y-85877904D01*
X143046571Y-85839809D01*
X143084666Y-85801714D01*
X143084666Y-85877904D01*
X143808476Y-85839809D02*
X143732285Y-85877904D01*
X143579904Y-85877904D01*
X143503714Y-85839809D01*
X143465619Y-85801714D01*
X143427523Y-85725523D01*
X143427523Y-85496952D01*
X143465619Y-85420761D01*
X143503714Y-85382666D01*
X143579904Y-85344571D01*
X143732285Y-85344571D01*
X143808476Y-85382666D01*
X144265619Y-85877904D02*
X144189428Y-85839809D01*
X144151333Y-85801714D01*
X144113238Y-85725523D01*
X144113238Y-85496952D01*
X144151333Y-85420761D01*
X144189428Y-85382666D01*
X144265619Y-85344571D01*
X144379904Y-85344571D01*
X144456095Y-85382666D01*
X144494190Y-85420761D01*
X144532285Y-85496952D01*
X144532285Y-85725523D01*
X144494190Y-85801714D01*
X144456095Y-85839809D01*
X144379904Y-85877904D01*
X144265619Y-85877904D01*
X144875142Y-85877904D02*
X144875142Y-85344571D01*
X144875142Y-85420761D02*
X144913238Y-85382666D01*
X144989428Y-85344571D01*
X145103714Y-85344571D01*
X145179904Y-85382666D01*
X145218000Y-85458857D01*
X145218000Y-85877904D01*
X145218000Y-85458857D02*
X145256095Y-85382666D01*
X145332285Y-85344571D01*
X145446571Y-85344571D01*
X145522761Y-85382666D01*
X145560857Y-85458857D01*
X145560857Y-85877904D01*
X146513238Y-85039809D02*
X145827523Y-86068380D01*
X146665619Y-85344571D02*
X146970380Y-85344571D01*
X146779904Y-85077904D02*
X146779904Y-85763619D01*
X146818000Y-85839809D01*
X146894190Y-85877904D01*
X146970380Y-85877904D01*
X147541809Y-85839809D02*
X147465619Y-85877904D01*
X147313238Y-85877904D01*
X147237047Y-85839809D01*
X147198952Y-85763619D01*
X147198952Y-85458857D01*
X147237047Y-85382666D01*
X147313238Y-85344571D01*
X147465619Y-85344571D01*
X147541809Y-85382666D01*
X147579904Y-85458857D01*
X147579904Y-85535047D01*
X147198952Y-85611238D01*
X147922761Y-85877904D02*
X147922761Y-85077904D01*
X147922761Y-85382666D02*
X147998952Y-85344571D01*
X148151333Y-85344571D01*
X148227523Y-85382666D01*
X148265619Y-85420761D01*
X148303714Y-85496952D01*
X148303714Y-85725523D01*
X148265619Y-85801714D01*
X148227523Y-85839809D01*
X148151333Y-85877904D01*
X147998952Y-85877904D01*
X147922761Y-85839809D01*
X148760857Y-85877904D02*
X148684666Y-85839809D01*
X148646571Y-85763619D01*
X148646571Y-85077904D01*
D11*
X150808500Y-109835438D02*
X150308500Y-109835438D01*
X150308500Y-109835438D02*
X150558500Y-109402425D01*
X150558500Y-109402425D02*
X150808500Y-109835438D01*
X144895000Y-111605000D02*
X144895000Y-109065000D01*
X144895000Y-111605000D02*
X147435000Y-111605000D01*
X145145000Y-111355000D02*
X145145000Y-102005000D01*
X166005000Y-111355000D02*
X145145000Y-111355000D01*
X166005000Y-102005000D02*
X166005000Y-111355000D01*
X145145000Y-102005000D02*
X166005000Y-102005000D01*
D10*
X165755000Y-111105000D02*
X165195000Y-110555000D01*
X145395000Y-111105000D02*
X145935000Y-110555000D01*
X165755000Y-102255000D02*
X165195000Y-102805000D01*
X145395000Y-102255000D02*
X145935000Y-102805000D01*
X165195000Y-102805000D02*
X165195000Y-110555000D01*
X165755000Y-102255000D02*
X165755000Y-111105000D01*
X145935000Y-102805000D02*
X145935000Y-110555000D01*
X145395000Y-102255000D02*
X145395000Y-111105000D01*
X157825000Y-110555000D02*
X157825000Y-111105000D01*
X153325000Y-110555000D02*
X153325000Y-111105000D01*
X157825000Y-110555000D02*
X165195000Y-110555000D01*
X145935000Y-110555000D02*
X153325000Y-110555000D01*
X145395000Y-111105000D02*
X165755000Y-111105000D01*
X145935000Y-102805000D02*
X165195000Y-102805000D01*
X145395000Y-102255000D02*
X165755000Y-102255000D01*
D11*
X158860000Y-75780000D02*
X158860000Y-75465000D01*
X158860000Y-78205000D02*
X158860000Y-77890000D01*
X163800000Y-75780000D02*
X163800000Y-75465000D01*
X163800000Y-78205000D02*
X163800000Y-77890000D01*
X163800000Y-75465000D02*
X158860000Y-75465000D01*
X163800000Y-78205000D02*
X158860000Y-78205000D01*
X127948500Y-109835438D02*
X127448500Y-109835438D01*
X127448500Y-109835438D02*
X127698500Y-109402425D01*
X127698500Y-109402425D02*
X127948500Y-109835438D01*
X122035000Y-111605000D02*
X122035000Y-109065000D01*
X122035000Y-111605000D02*
X124575000Y-111605000D01*
X122285000Y-111355000D02*
X122285000Y-102005000D01*
X143145000Y-111355000D02*
X122285000Y-111355000D01*
X143145000Y-102005000D02*
X143145000Y-111355000D01*
X122285000Y-102005000D02*
X143145000Y-102005000D01*
D10*
X142895000Y-111105000D02*
X142335000Y-110555000D01*
X122535000Y-111105000D02*
X123075000Y-110555000D01*
X142895000Y-102255000D02*
X142335000Y-102805000D01*
X122535000Y-102255000D02*
X123075000Y-102805000D01*
X142335000Y-102805000D02*
X142335000Y-110555000D01*
X142895000Y-102255000D02*
X142895000Y-111105000D01*
X123075000Y-102805000D02*
X123075000Y-110555000D01*
X122535000Y-102255000D02*
X122535000Y-111105000D01*
X134965000Y-110555000D02*
X134965000Y-111105000D01*
X130465000Y-110555000D02*
X130465000Y-111105000D01*
X134965000Y-110555000D02*
X142335000Y-110555000D01*
X123075000Y-110555000D02*
X130465000Y-110555000D01*
X122535000Y-111105000D02*
X142895000Y-111105000D01*
X123075000Y-102805000D02*
X142335000Y-102805000D01*
X122535000Y-102255000D02*
X142895000Y-102255000D01*
D11*
X141895000Y-95960000D02*
X146395000Y-95960000D01*
X140645000Y-91960000D02*
X140645000Y-93460000D01*
X146395000Y-89460000D02*
X141895000Y-89460000D01*
X147645000Y-93460000D02*
X147645000Y-91960000D01*
X171510000Y-94555000D02*
X168850000Y-94555000D01*
X171510000Y-97155000D02*
X171510000Y-94555000D01*
X168850000Y-97155000D02*
X168850000Y-94555000D01*
X171510000Y-97155000D02*
X168850000Y-97155000D01*
X171510000Y-98425000D02*
X171510000Y-99755000D01*
X171510000Y-99755000D02*
X170180000Y-99755000D01*
X135990000Y-90710000D02*
X133250000Y-90710000D01*
X133250000Y-90710000D02*
X133250000Y-97250000D01*
X133250000Y-97250000D02*
X135990000Y-97250000D01*
X135990000Y-97250000D02*
X135990000Y-90710000D01*
X134620000Y-89940000D02*
X134620000Y-90710000D01*
X134620000Y-98020000D02*
X134620000Y-97250000D01*
X150495000Y-98020000D02*
X150495000Y-97250000D01*
X150495000Y-89940000D02*
X150495000Y-90710000D01*
X151865000Y-97250000D02*
X151865000Y-90710000D01*
X149125000Y-97250000D02*
X151865000Y-97250000D01*
X149125000Y-90710000D02*
X149125000Y-97250000D01*
X151865000Y-90710000D02*
X149125000Y-90710000D01*
X139165000Y-90710000D02*
X136425000Y-90710000D01*
X136425000Y-90710000D02*
X136425000Y-97250000D01*
X136425000Y-97250000D02*
X139165000Y-97250000D01*
X139165000Y-97250000D02*
X139165000Y-90710000D01*
X137795000Y-89940000D02*
X137795000Y-90710000D01*
X137795000Y-98020000D02*
X137795000Y-97250000D01*
X153670000Y-98020000D02*
X153670000Y-97250000D01*
X153670000Y-89940000D02*
X153670000Y-90710000D01*
X155040000Y-97250000D02*
X155040000Y-90710000D01*
X152300000Y-97250000D02*
X155040000Y-97250000D01*
X152300000Y-90710000D02*
X152300000Y-97250000D01*
X155040000Y-90710000D02*
X152300000Y-90710000D01*
X129640000Y-90710000D02*
X126900000Y-90710000D01*
X126900000Y-90710000D02*
X126900000Y-97250000D01*
X126900000Y-97250000D02*
X129640000Y-97250000D01*
X129640000Y-97250000D02*
X129640000Y-90710000D01*
X128270000Y-89940000D02*
X128270000Y-90710000D01*
X128270000Y-98020000D02*
X128270000Y-97250000D01*
X125095000Y-98020000D02*
X125095000Y-97250000D01*
X125095000Y-89940000D02*
X125095000Y-90710000D01*
X126465000Y-97250000D02*
X126465000Y-90710000D01*
X123725000Y-97250000D02*
X126465000Y-97250000D01*
X123725000Y-90710000D02*
X123725000Y-97250000D01*
X126465000Y-90710000D02*
X123725000Y-90710000D01*
X132815000Y-90710000D02*
X130075000Y-90710000D01*
X130075000Y-90710000D02*
X130075000Y-97250000D01*
X130075000Y-97250000D02*
X132815000Y-97250000D01*
X132815000Y-97250000D02*
X132815000Y-90710000D01*
X131445000Y-89940000D02*
X131445000Y-90710000D01*
X131445000Y-98020000D02*
X131445000Y-97250000D01*
X121920000Y-98020000D02*
X121920000Y-97250000D01*
X121920000Y-89940000D02*
X121920000Y-90710000D01*
X123290000Y-97250000D02*
X123290000Y-90710000D01*
X120550000Y-97250000D02*
X123290000Y-97250000D01*
X120550000Y-90710000D02*
X120550000Y-97250000D01*
X123290000Y-90710000D02*
X120550000Y-90710000D01*
X166540000Y-79255000D02*
X156040000Y-79255000D01*
X166540000Y-99815000D02*
X166540000Y-79255000D01*
X156040000Y-99815000D02*
X166540000Y-99815000D01*
X156040000Y-79255000D02*
X156040000Y-99815000D01*
X163540000Y-79315000D02*
X162290000Y-79315000D01*
X163540000Y-99755000D02*
X163540000Y-79315000D01*
X159040000Y-99755000D02*
X163540000Y-99755000D01*
X159040000Y-79315000D02*
X159040000Y-99755000D01*
X160290000Y-79315000D02*
X159040000Y-79315000D01*
X162290000Y-79315000D02*
G75*
G02*
X160290000Y-79315000I-1000000J0D01*
G01*
X135195000Y-78292000D02*
X135195000Y-76962000D01*
X136525000Y-78292000D02*
X135195000Y-78292000D01*
X137795000Y-78292000D02*
X137795000Y-75632000D01*
X137795000Y-75632000D02*
X153095000Y-75632000D01*
X137795000Y-78292000D02*
X153095000Y-78292000D01*
X153095000Y-78292000D02*
X153095000Y-75632000D01*
D10*
X146418333Y-103066904D02*
X146418333Y-103638333D01*
X146380238Y-103752619D01*
X146304047Y-103828809D01*
X146189761Y-103866904D01*
X146113571Y-103866904D01*
X146761190Y-103143095D02*
X146799285Y-103105000D01*
X146875476Y-103066904D01*
X147065952Y-103066904D01*
X147142142Y-103105000D01*
X147180238Y-103143095D01*
X147218333Y-103219285D01*
X147218333Y-103295476D01*
X147180238Y-103409761D01*
X146723095Y-103866904D01*
X147218333Y-103866904D01*
D12*
X145153333Y-101417380D02*
X145153333Y-100417380D01*
X145534285Y-100417380D01*
X145629523Y-100465000D01*
X145677142Y-100512619D01*
X145724761Y-100607857D01*
X145724761Y-100750714D01*
X145677142Y-100845952D01*
X145629523Y-100893571D01*
X145534285Y-100941190D01*
X145153333Y-100941190D01*
X146296190Y-101417380D02*
X146200952Y-101369761D01*
X146153333Y-101322142D01*
X146105714Y-101226904D01*
X146105714Y-100941190D01*
X146153333Y-100845952D01*
X146200952Y-100798333D01*
X146296190Y-100750714D01*
X146439047Y-100750714D01*
X146534285Y-100798333D01*
X146581904Y-100845952D01*
X146629523Y-100941190D01*
X146629523Y-101226904D01*
X146581904Y-101322142D01*
X146534285Y-101369761D01*
X146439047Y-101417380D01*
X146296190Y-101417380D01*
X147058095Y-101417380D02*
X147058095Y-100750714D01*
X147058095Y-100941190D02*
X147105714Y-100845952D01*
X147153333Y-100798333D01*
X147248571Y-100750714D01*
X147343809Y-100750714D01*
X147534285Y-100750714D02*
X147915238Y-100750714D01*
X147677142Y-100417380D02*
X147677142Y-101274523D01*
X147724761Y-101369761D01*
X147820000Y-101417380D01*
X147915238Y-101417380D01*
X148962857Y-100512619D02*
X149010476Y-100465000D01*
X149105714Y-100417380D01*
X149343809Y-100417380D01*
X149439047Y-100465000D01*
X149486666Y-100512619D01*
X149534285Y-100607857D01*
X149534285Y-100703095D01*
X149486666Y-100845952D01*
X148915238Y-101417380D01*
X149534285Y-101417380D01*
X161123333Y-77192142D02*
X161075714Y-77239761D01*
X160932857Y-77287380D01*
X160837619Y-77287380D01*
X160694761Y-77239761D01*
X160599523Y-77144523D01*
X160551904Y-77049285D01*
X160504285Y-76858809D01*
X160504285Y-76715952D01*
X160551904Y-76525476D01*
X160599523Y-76430238D01*
X160694761Y-76335000D01*
X160837619Y-76287380D01*
X160932857Y-76287380D01*
X161075714Y-76335000D01*
X161123333Y-76382619D01*
X162075714Y-77287380D02*
X161504285Y-77287380D01*
X161790000Y-77287380D02*
X161790000Y-76287380D01*
X161694761Y-76430238D01*
X161599523Y-76525476D01*
X161504285Y-76573095D01*
D10*
X123558333Y-103066904D02*
X123558333Y-103638333D01*
X123520238Y-103752619D01*
X123444047Y-103828809D01*
X123329761Y-103866904D01*
X123253571Y-103866904D01*
X124358333Y-103866904D02*
X123901190Y-103866904D01*
X124129761Y-103866904D02*
X124129761Y-103066904D01*
X124053571Y-103181190D01*
X123977380Y-103257380D01*
X123901190Y-103295476D01*
D12*
X122293333Y-101417380D02*
X122293333Y-100417380D01*
X122674285Y-100417380D01*
X122769523Y-100465000D01*
X122817142Y-100512619D01*
X122864761Y-100607857D01*
X122864761Y-100750714D01*
X122817142Y-100845952D01*
X122769523Y-100893571D01*
X122674285Y-100941190D01*
X122293333Y-100941190D01*
X123436190Y-101417380D02*
X123340952Y-101369761D01*
X123293333Y-101322142D01*
X123245714Y-101226904D01*
X123245714Y-100941190D01*
X123293333Y-100845952D01*
X123340952Y-100798333D01*
X123436190Y-100750714D01*
X123579047Y-100750714D01*
X123674285Y-100798333D01*
X123721904Y-100845952D01*
X123769523Y-100941190D01*
X123769523Y-101226904D01*
X123721904Y-101322142D01*
X123674285Y-101369761D01*
X123579047Y-101417380D01*
X123436190Y-101417380D01*
X124198095Y-101417380D02*
X124198095Y-100750714D01*
X124198095Y-100941190D02*
X124245714Y-100845952D01*
X124293333Y-100798333D01*
X124388571Y-100750714D01*
X124483809Y-100750714D01*
X124674285Y-100750714D02*
X125055238Y-100750714D01*
X124817142Y-100417380D02*
X124817142Y-101274523D01*
X124864761Y-101369761D01*
X124960000Y-101417380D01*
X125055238Y-101417380D01*
X126674285Y-101417380D02*
X126102857Y-101417380D01*
X126388571Y-101417380D02*
X126388571Y-100417380D01*
X126293333Y-100560238D01*
X126198095Y-100655476D01*
X126102857Y-100703095D01*
X142168809Y-97564761D02*
X142311666Y-97612380D01*
X142549761Y-97612380D01*
X142645000Y-97564761D01*
X142692619Y-97517142D01*
X142740238Y-97421904D01*
X142740238Y-97326666D01*
X142692619Y-97231428D01*
X142645000Y-97183809D01*
X142549761Y-97136190D01*
X142359285Y-97088571D01*
X142264047Y-97040952D01*
X142216428Y-96993333D01*
X142168809Y-96898095D01*
X142168809Y-96802857D01*
X142216428Y-96707619D01*
X142264047Y-96660000D01*
X142359285Y-96612380D01*
X142597380Y-96612380D01*
X142740238Y-96660000D01*
X143025952Y-96612380D02*
X143597380Y-96612380D01*
X143311666Y-97612380D02*
X143311666Y-96612380D01*
X143883095Y-97326666D02*
X144359285Y-97326666D01*
X143787857Y-97612380D02*
X144121190Y-96612380D01*
X144454523Y-97612380D01*
X145359285Y-97612380D02*
X145025952Y-97136190D01*
X144787857Y-97612380D02*
X144787857Y-96612380D01*
X145168809Y-96612380D01*
X145264047Y-96660000D01*
X145311666Y-96707619D01*
X145359285Y-96802857D01*
X145359285Y-96945714D01*
X145311666Y-97040952D01*
X145264047Y-97088571D01*
X145168809Y-97136190D01*
X144787857Y-97136190D01*
X145645000Y-96612380D02*
X146216428Y-96612380D01*
X145930714Y-97612380D02*
X145930714Y-96612380D01*
D10*
X143078333Y-93033809D02*
X143192619Y-93071904D01*
X143383095Y-93071904D01*
X143459285Y-93033809D01*
X143497380Y-92995714D01*
X143535476Y-92919523D01*
X143535476Y-92843333D01*
X143497380Y-92767142D01*
X143459285Y-92729047D01*
X143383095Y-92690952D01*
X143230714Y-92652857D01*
X143154523Y-92614761D01*
X143116428Y-92576666D01*
X143078333Y-92500476D01*
X143078333Y-92424285D01*
X143116428Y-92348095D01*
X143154523Y-92310000D01*
X143230714Y-92271904D01*
X143421190Y-92271904D01*
X143535476Y-92310000D01*
X143802142Y-92271904D02*
X143992619Y-93071904D01*
X144145000Y-92500476D01*
X144297380Y-93071904D01*
X144487857Y-92271904D01*
X145211666Y-93071904D02*
X144754523Y-93071904D01*
X144983095Y-93071904D02*
X144983095Y-92271904D01*
X144906904Y-92386190D01*
X144830714Y-92462380D01*
X144754523Y-92500476D01*
D12*
X167489523Y-92797380D02*
X167822857Y-93797380D01*
X168156190Y-92797380D01*
X169060952Y-93702142D02*
X169013333Y-93749761D01*
X168870476Y-93797380D01*
X168775238Y-93797380D01*
X168632380Y-93749761D01*
X168537142Y-93654523D01*
X168489523Y-93559285D01*
X168441904Y-93368809D01*
X168441904Y-93225952D01*
X168489523Y-93035476D01*
X168537142Y-92940238D01*
X168632380Y-92845000D01*
X168775238Y-92797380D01*
X168870476Y-92797380D01*
X169013333Y-92845000D01*
X169060952Y-92892619D01*
X170060952Y-93702142D02*
X170013333Y-93749761D01*
X169870476Y-93797380D01*
X169775238Y-93797380D01*
X169632380Y-93749761D01*
X169537142Y-93654523D01*
X169489523Y-93559285D01*
X169441904Y-93368809D01*
X169441904Y-93225952D01*
X169489523Y-93035476D01*
X169537142Y-92940238D01*
X169632380Y-92845000D01*
X169775238Y-92797380D01*
X169870476Y-92797380D01*
X170013333Y-92845000D01*
X170060952Y-92892619D01*
X170251428Y-93892619D02*
X171013333Y-93892619D01*
X171251428Y-93273571D02*
X171584761Y-93273571D01*
X171727619Y-93797380D02*
X171251428Y-93797380D01*
X171251428Y-92797380D01*
X171727619Y-92797380D01*
X172156190Y-93797380D02*
X172156190Y-92797380D01*
X172727619Y-93797380D01*
X172727619Y-92797380D01*
X134453333Y-92527380D02*
X134120000Y-92051190D01*
X133881904Y-92527380D02*
X133881904Y-91527380D01*
X134262857Y-91527380D01*
X134358095Y-91575000D01*
X134405714Y-91622619D01*
X134453333Y-91717857D01*
X134453333Y-91860714D01*
X134405714Y-91955952D01*
X134358095Y-92003571D01*
X134262857Y-92051190D01*
X133881904Y-92051190D01*
X135405714Y-92527380D02*
X134834285Y-92527380D01*
X135120000Y-92527380D02*
X135120000Y-91527380D01*
X135024761Y-91670238D01*
X134929523Y-91765476D01*
X134834285Y-91813095D01*
X135072380Y-95369047D02*
X135072380Y-95940476D01*
X135072380Y-95654761D02*
X134072380Y-95654761D01*
X134215238Y-95750000D01*
X134310476Y-95845238D01*
X134358095Y-95940476D01*
X135072380Y-94940476D02*
X134072380Y-94940476D01*
X134691428Y-94845238D02*
X135072380Y-94559523D01*
X134405714Y-94559523D02*
X134786666Y-94940476D01*
X150328333Y-92527380D02*
X149995000Y-92051190D01*
X149756904Y-92527380D02*
X149756904Y-91527380D01*
X150137857Y-91527380D01*
X150233095Y-91575000D01*
X150280714Y-91622619D01*
X150328333Y-91717857D01*
X150328333Y-91860714D01*
X150280714Y-91955952D01*
X150233095Y-92003571D01*
X150137857Y-92051190D01*
X149756904Y-92051190D01*
X150709285Y-91622619D02*
X150756904Y-91575000D01*
X150852142Y-91527380D01*
X151090238Y-91527380D01*
X151185476Y-91575000D01*
X151233095Y-91622619D01*
X151280714Y-91717857D01*
X151280714Y-91813095D01*
X151233095Y-91955952D01*
X150661666Y-92527380D01*
X151280714Y-92527380D01*
X150947380Y-95369047D02*
X150947380Y-95940476D01*
X150947380Y-95654761D02*
X149947380Y-95654761D01*
X150090238Y-95750000D01*
X150185476Y-95845238D01*
X150233095Y-95940476D01*
X150947380Y-94940476D02*
X149947380Y-94940476D01*
X150566428Y-94845238D02*
X150947380Y-94559523D01*
X150280714Y-94559523D02*
X150661666Y-94940476D01*
X137628333Y-92527380D02*
X137295000Y-92051190D01*
X137056904Y-92527380D02*
X137056904Y-91527380D01*
X137437857Y-91527380D01*
X137533095Y-91575000D01*
X137580714Y-91622619D01*
X137628333Y-91717857D01*
X137628333Y-91860714D01*
X137580714Y-91955952D01*
X137533095Y-92003571D01*
X137437857Y-92051190D01*
X137056904Y-92051190D01*
X137961666Y-91527380D02*
X138580714Y-91527380D01*
X138247380Y-91908333D01*
X138390238Y-91908333D01*
X138485476Y-91955952D01*
X138533095Y-92003571D01*
X138580714Y-92098809D01*
X138580714Y-92336904D01*
X138533095Y-92432142D01*
X138485476Y-92479761D01*
X138390238Y-92527380D01*
X138104523Y-92527380D01*
X138009285Y-92479761D01*
X137961666Y-92432142D01*
X138247380Y-95369047D02*
X138247380Y-95940476D01*
X138247380Y-95654761D02*
X137247380Y-95654761D01*
X137390238Y-95750000D01*
X137485476Y-95845238D01*
X137533095Y-95940476D01*
X138247380Y-94940476D02*
X137247380Y-94940476D01*
X137866428Y-94845238D02*
X138247380Y-94559523D01*
X137580714Y-94559523D02*
X137961666Y-94940476D01*
X153503333Y-92527380D02*
X153170000Y-92051190D01*
X152931904Y-92527380D02*
X152931904Y-91527380D01*
X153312857Y-91527380D01*
X153408095Y-91575000D01*
X153455714Y-91622619D01*
X153503333Y-91717857D01*
X153503333Y-91860714D01*
X153455714Y-91955952D01*
X153408095Y-92003571D01*
X153312857Y-92051190D01*
X152931904Y-92051190D01*
X154360476Y-91860714D02*
X154360476Y-92527380D01*
X154122380Y-91479761D02*
X153884285Y-92194047D01*
X154503333Y-92194047D01*
X154122380Y-95369047D02*
X154122380Y-95940476D01*
X154122380Y-95654761D02*
X153122380Y-95654761D01*
X153265238Y-95750000D01*
X153360476Y-95845238D01*
X153408095Y-95940476D01*
X154122380Y-94940476D02*
X153122380Y-94940476D01*
X153741428Y-94845238D02*
X154122380Y-94559523D01*
X153455714Y-94559523D02*
X153836666Y-94940476D01*
X128103333Y-92527380D02*
X127770000Y-92051190D01*
X127531904Y-92527380D02*
X127531904Y-91527380D01*
X127912857Y-91527380D01*
X128008095Y-91575000D01*
X128055714Y-91622619D01*
X128103333Y-91717857D01*
X128103333Y-91860714D01*
X128055714Y-91955952D01*
X128008095Y-92003571D01*
X127912857Y-92051190D01*
X127531904Y-92051190D01*
X129008095Y-91527380D02*
X128531904Y-91527380D01*
X128484285Y-92003571D01*
X128531904Y-91955952D01*
X128627142Y-91908333D01*
X128865238Y-91908333D01*
X128960476Y-91955952D01*
X129008095Y-92003571D01*
X129055714Y-92098809D01*
X129055714Y-92336904D01*
X129008095Y-92432142D01*
X128960476Y-92479761D01*
X128865238Y-92527380D01*
X128627142Y-92527380D01*
X128531904Y-92479761D01*
X128484285Y-92432142D01*
X128722380Y-95369047D02*
X128722380Y-95940476D01*
X128722380Y-95654761D02*
X127722380Y-95654761D01*
X127865238Y-95750000D01*
X127960476Y-95845238D01*
X128008095Y-95940476D01*
X128722380Y-94940476D02*
X127722380Y-94940476D01*
X128341428Y-94845238D02*
X128722380Y-94559523D01*
X128055714Y-94559523D02*
X128436666Y-94940476D01*
X124928333Y-92527380D02*
X124595000Y-92051190D01*
X124356904Y-92527380D02*
X124356904Y-91527380D01*
X124737857Y-91527380D01*
X124833095Y-91575000D01*
X124880714Y-91622619D01*
X124928333Y-91717857D01*
X124928333Y-91860714D01*
X124880714Y-91955952D01*
X124833095Y-92003571D01*
X124737857Y-92051190D01*
X124356904Y-92051190D01*
X125785476Y-91527380D02*
X125595000Y-91527380D01*
X125499761Y-91575000D01*
X125452142Y-91622619D01*
X125356904Y-91765476D01*
X125309285Y-91955952D01*
X125309285Y-92336904D01*
X125356904Y-92432142D01*
X125404523Y-92479761D01*
X125499761Y-92527380D01*
X125690238Y-92527380D01*
X125785476Y-92479761D01*
X125833095Y-92432142D01*
X125880714Y-92336904D01*
X125880714Y-92098809D01*
X125833095Y-92003571D01*
X125785476Y-91955952D01*
X125690238Y-91908333D01*
X125499761Y-91908333D01*
X125404523Y-91955952D01*
X125356904Y-92003571D01*
X125309285Y-92098809D01*
X125547380Y-95369047D02*
X125547380Y-95940476D01*
X125547380Y-95654761D02*
X124547380Y-95654761D01*
X124690238Y-95750000D01*
X124785476Y-95845238D01*
X124833095Y-95940476D01*
X125547380Y-94940476D02*
X124547380Y-94940476D01*
X125166428Y-94845238D02*
X125547380Y-94559523D01*
X124880714Y-94559523D02*
X125261666Y-94940476D01*
X131278333Y-92527380D02*
X130945000Y-92051190D01*
X130706904Y-92527380D02*
X130706904Y-91527380D01*
X131087857Y-91527380D01*
X131183095Y-91575000D01*
X131230714Y-91622619D01*
X131278333Y-91717857D01*
X131278333Y-91860714D01*
X131230714Y-91955952D01*
X131183095Y-92003571D01*
X131087857Y-92051190D01*
X130706904Y-92051190D01*
X131611666Y-91527380D02*
X132278333Y-91527380D01*
X131849761Y-92527380D01*
X131897380Y-95369047D02*
X131897380Y-95940476D01*
X131897380Y-95654761D02*
X130897380Y-95654761D01*
X131040238Y-95750000D01*
X131135476Y-95845238D01*
X131183095Y-95940476D01*
X131897380Y-94940476D02*
X130897380Y-94940476D01*
X131516428Y-94845238D02*
X131897380Y-94559523D01*
X131230714Y-94559523D02*
X131611666Y-94940476D01*
X121753333Y-92527380D02*
X121420000Y-92051190D01*
X121181904Y-92527380D02*
X121181904Y-91527380D01*
X121562857Y-91527380D01*
X121658095Y-91575000D01*
X121705714Y-91622619D01*
X121753333Y-91717857D01*
X121753333Y-91860714D01*
X121705714Y-91955952D01*
X121658095Y-92003571D01*
X121562857Y-92051190D01*
X121181904Y-92051190D01*
X122324761Y-91955952D02*
X122229523Y-91908333D01*
X122181904Y-91860714D01*
X122134285Y-91765476D01*
X122134285Y-91717857D01*
X122181904Y-91622619D01*
X122229523Y-91575000D01*
X122324761Y-91527380D01*
X122515238Y-91527380D01*
X122610476Y-91575000D01*
X122658095Y-91622619D01*
X122705714Y-91717857D01*
X122705714Y-91765476D01*
X122658095Y-91860714D01*
X122610476Y-91908333D01*
X122515238Y-91955952D01*
X122324761Y-91955952D01*
X122229523Y-92003571D01*
X122181904Y-92051190D01*
X122134285Y-92146428D01*
X122134285Y-92336904D01*
X122181904Y-92432142D01*
X122229523Y-92479761D01*
X122324761Y-92527380D01*
X122515238Y-92527380D01*
X122610476Y-92479761D01*
X122658095Y-92432142D01*
X122705714Y-92336904D01*
X122705714Y-92146428D01*
X122658095Y-92051190D01*
X122610476Y-92003571D01*
X122515238Y-91955952D01*
X122372380Y-95369047D02*
X122372380Y-95940476D01*
X122372380Y-95654761D02*
X121372380Y-95654761D01*
X121515238Y-95750000D01*
X121610476Y-95845238D01*
X121658095Y-95940476D01*
X122372380Y-94940476D02*
X121372380Y-94940476D01*
X121991428Y-94845238D02*
X122372380Y-94559523D01*
X121705714Y-94559523D02*
X122086666Y-94940476D01*
X160528095Y-82637380D02*
X160528095Y-83446904D01*
X160575714Y-83542142D01*
X160623333Y-83589761D01*
X160718571Y-83637380D01*
X160909047Y-83637380D01*
X161004285Y-83589761D01*
X161051904Y-83542142D01*
X161099523Y-83446904D01*
X161099523Y-82637380D01*
X162099523Y-83637380D02*
X161528095Y-83637380D01*
X161813809Y-83637380D02*
X161813809Y-82637380D01*
X161718571Y-82780238D01*
X161623333Y-82875476D01*
X161528095Y-82923095D01*
X161647142Y-91630238D02*
X161694761Y-91677857D01*
X161742380Y-91820714D01*
X161742380Y-91915952D01*
X161694761Y-92058809D01*
X161599523Y-92154047D01*
X161504285Y-92201666D01*
X161313809Y-92249285D01*
X161170952Y-92249285D01*
X160980476Y-92201666D01*
X160885238Y-92154047D01*
X160790000Y-92058809D01*
X160742380Y-91915952D01*
X160742380Y-91820714D01*
X160790000Y-91677857D01*
X160837619Y-91630238D01*
X161742380Y-91201666D02*
X160742380Y-91201666D01*
X160742380Y-90963571D01*
X160790000Y-90820714D01*
X160885238Y-90725476D01*
X160980476Y-90677857D01*
X161170952Y-90630238D01*
X161313809Y-90630238D01*
X161504285Y-90677857D01*
X161599523Y-90725476D01*
X161694761Y-90820714D01*
X161742380Y-90963571D01*
X161742380Y-91201666D01*
X161075714Y-89773095D02*
X161742380Y-89773095D01*
X160694761Y-90011190D02*
X161409047Y-90249285D01*
X161409047Y-89630238D01*
X160742380Y-89058809D02*
X160742380Y-88963571D01*
X160790000Y-88868333D01*
X160837619Y-88820714D01*
X160932857Y-88773095D01*
X161123333Y-88725476D01*
X161361428Y-88725476D01*
X161551904Y-88773095D01*
X161647142Y-88820714D01*
X161694761Y-88868333D01*
X161742380Y-88963571D01*
X161742380Y-89058809D01*
X161694761Y-89154047D01*
X161647142Y-89201666D01*
X161551904Y-89249285D01*
X161361428Y-89296904D01*
X161123333Y-89296904D01*
X160932857Y-89249285D01*
X160837619Y-89201666D01*
X160790000Y-89154047D01*
X160742380Y-89058809D01*
X160837619Y-88344523D02*
X160790000Y-88296904D01*
X160742380Y-88201666D01*
X160742380Y-87963571D01*
X160790000Y-87868333D01*
X160837619Y-87820714D01*
X160932857Y-87773095D01*
X161028095Y-87773095D01*
X161170952Y-87820714D01*
X161742380Y-88392142D01*
X161742380Y-87773095D01*
X161742380Y-86820714D02*
X161742380Y-87392142D01*
X161742380Y-87106428D02*
X160742380Y-87106428D01*
X160885238Y-87201666D01*
X160980476Y-87296904D01*
X161028095Y-87392142D01*
X160528095Y-82637380D02*
X160528095Y-83446904D01*
X160575714Y-83542142D01*
X160623333Y-83589761D01*
X160718571Y-83637380D01*
X160909047Y-83637380D01*
X161004285Y-83589761D01*
X161051904Y-83542142D01*
X161099523Y-83446904D01*
X161099523Y-82637380D01*
X162099523Y-83637380D02*
X161528095Y-83637380D01*
X161813809Y-83637380D02*
X161813809Y-82637380D01*
X161718571Y-82780238D01*
X161623333Y-82875476D01*
X161528095Y-82923095D01*
X133647380Y-77295333D02*
X134361666Y-77295333D01*
X134504523Y-77342952D01*
X134599761Y-77438190D01*
X134647380Y-77581047D01*
X134647380Y-77676285D01*
X133647380Y-76914380D02*
X133647380Y-76295333D01*
X134028333Y-76628666D01*
X134028333Y-76485809D01*
X134075952Y-76390571D01*
X134123571Y-76342952D01*
X134218809Y-76295333D01*
X134456904Y-76295333D01*
X134552142Y-76342952D01*
X134599761Y-76390571D01*
X134647380Y-76485809D01*
X134647380Y-76771523D01*
X134599761Y-76866761D01*
X134552142Y-76914380D01*
M02*
