M48
INCH,TZ
T1C0.0157
T2C0.0315
T3C0.0394
T4C0.0400
T5C0.0433
T6C0.0472
T7C0.1200
%
G90
G05
T1
X57000Y-31535
X62250Y-40400
X63179Y-34000
X63465Y-33250
X63465Y-35500
T2
X54250Y-35000
X54250Y-39000
X62531Y-30250
X64500Y-30250
X49250Y-35000
X49250Y-39000
X48000Y-35000
X48000Y-39000
X59250Y-35000
X59250Y-39000
X51750Y-35000
X51750Y-39000
X53000Y-35000
X53000Y-39000
X50500Y-35000
X50500Y-39000
X62000Y-31750
X62000Y-32750
X62000Y-33750
X62000Y-34750
X62000Y-35750
X62000Y-36750
X62000Y-37750
X62000Y-38750
X65000Y-31750
X65000Y-32750
X65000Y-33750
X65000Y-34750
X65000Y-35750
X65000Y-36750
X65000Y-37750
X65000Y-38750
X60500Y-35000
X60500Y-39000
T3
X67000Y-37750
X67000Y-38750
T4
X50250Y-41500
X50250Y-42500
X51250Y-41500
X51250Y-42500
X52250Y-41500
X52250Y-42500
X53250Y-41500
X53250Y-42500
X54250Y-41500
X54250Y-42500
X59250Y-41500
X59250Y-42500
X60250Y-41500
X60250Y-42500
X61250Y-41500
X61250Y-42500
X62250Y-41500
X62250Y-42500
X63250Y-41500
X63250Y-42500
T5
X55470Y-35614
X55470Y-37386
X58030Y-35614
X58030Y-37386
T7
X66750Y-30500
X46750Y-30494
X66750Y-42500
X46750Y-42500
T6
G00X53750Y-30359
M15
G01X53750Y-30241
M16
G05
G00X54750Y-30359
M15
G01X54750Y-30241
M16
G05
G00X55750Y-30359
M15
G01X55750Y-30241
M16
G05
G00X56750Y-30359
M15
G01X56750Y-30241
M16
G05
G00X57750Y-30359
M15
G01X57750Y-30241
M16
G05
G00X58750Y-30359
M15
G01X58750Y-30241
M16
G05
G00X59750Y-30359
M15
G01X59750Y-30241
M16
G05
T0
M30
