G04 #@! TF.GenerationSoftware,KiCad,Pcbnew,(5.1.8)-1*
G04 #@! TF.CreationDate,2022-03-05T16:35:52+01:00*
G04 #@! TF.ProjectId,NES,4e45532e-6b69-4636-9164-5f7063625858,rev?*
G04 #@! TF.SameCoordinates,Original*
G04 #@! TF.FileFunction,Legend,Top*
G04 #@! TF.FilePolarity,Positive*
%FSLAX46Y46*%
G04 Gerber Fmt 4.6, Leading zero omitted, Abs format (unit mm)*
G04 Created by KiCad (PCBNEW (5.1.8)-1) date 2022-03-05 16:35:52*
%MOMM*%
%LPD*%
G01*
G04 APERTURE LIST*
%ADD10C,0.100000*%
%ADD11C,0.120000*%
%ADD12C,0.150000*%
G04 APERTURE END LIST*
D10*
X116288714Y-81977904D02*
X116288714Y-81177904D01*
X116745857Y-81977904D01*
X116745857Y-81177904D01*
X117126809Y-81977904D02*
X117126809Y-81444571D01*
X117126809Y-81177904D02*
X117088714Y-81216000D01*
X117126809Y-81254095D01*
X117164904Y-81216000D01*
X117126809Y-81177904D01*
X117126809Y-81254095D01*
X117507761Y-81444571D02*
X117507761Y-81977904D01*
X117507761Y-81520761D02*
X117545857Y-81482666D01*
X117622047Y-81444571D01*
X117736333Y-81444571D01*
X117812523Y-81482666D01*
X117850619Y-81558857D01*
X117850619Y-81977904D01*
X118117285Y-81444571D02*
X118422047Y-81444571D01*
X118231571Y-81177904D02*
X118231571Y-81863619D01*
X118269666Y-81939809D01*
X118345857Y-81977904D01*
X118422047Y-81977904D01*
X118993476Y-81939809D02*
X118917285Y-81977904D01*
X118764904Y-81977904D01*
X118688714Y-81939809D01*
X118650619Y-81863619D01*
X118650619Y-81558857D01*
X118688714Y-81482666D01*
X118764904Y-81444571D01*
X118917285Y-81444571D01*
X118993476Y-81482666D01*
X119031571Y-81558857D01*
X119031571Y-81635047D01*
X118650619Y-81711238D01*
X119374428Y-81444571D02*
X119374428Y-81977904D01*
X119374428Y-81520761D02*
X119412523Y-81482666D01*
X119488714Y-81444571D01*
X119603000Y-81444571D01*
X119679190Y-81482666D01*
X119717285Y-81558857D01*
X119717285Y-81977904D01*
X120441095Y-81977904D02*
X120441095Y-81177904D01*
X120441095Y-81939809D02*
X120364904Y-81977904D01*
X120212523Y-81977904D01*
X120136333Y-81939809D01*
X120098238Y-81901714D01*
X120060142Y-81825523D01*
X120060142Y-81596952D01*
X120098238Y-81520761D01*
X120136333Y-81482666D01*
X120212523Y-81444571D01*
X120364904Y-81444571D01*
X120441095Y-81482666D01*
X120936333Y-81977904D02*
X120860142Y-81939809D01*
X120822047Y-81901714D01*
X120783952Y-81825523D01*
X120783952Y-81596952D01*
X120822047Y-81520761D01*
X120860142Y-81482666D01*
X120936333Y-81444571D01*
X121050619Y-81444571D01*
X121126809Y-81482666D01*
X121164904Y-81520761D01*
X121203000Y-81596952D01*
X121203000Y-81825523D01*
X121164904Y-81901714D01*
X121126809Y-81939809D01*
X121050619Y-81977904D01*
X120936333Y-81977904D01*
X122155380Y-81558857D02*
X122422047Y-81558857D01*
X122536333Y-81977904D02*
X122155380Y-81977904D01*
X122155380Y-81177904D01*
X122536333Y-81177904D01*
X122879190Y-81444571D02*
X122879190Y-81977904D01*
X122879190Y-81520761D02*
X122917285Y-81482666D01*
X122993476Y-81444571D01*
X123107761Y-81444571D01*
X123183952Y-81482666D01*
X123222047Y-81558857D01*
X123222047Y-81977904D01*
X123488714Y-81444571D02*
X123793476Y-81444571D01*
X123603000Y-81177904D02*
X123603000Y-81863619D01*
X123641095Y-81939809D01*
X123717285Y-81977904D01*
X123793476Y-81977904D01*
X124364904Y-81939809D02*
X124288714Y-81977904D01*
X124136333Y-81977904D01*
X124060142Y-81939809D01*
X124022047Y-81863619D01*
X124022047Y-81558857D01*
X124060142Y-81482666D01*
X124136333Y-81444571D01*
X124288714Y-81444571D01*
X124364904Y-81482666D01*
X124403000Y-81558857D01*
X124403000Y-81635047D01*
X124022047Y-81711238D01*
X124745857Y-81977904D02*
X124745857Y-81444571D01*
X124745857Y-81596952D02*
X124783952Y-81520761D01*
X124822047Y-81482666D01*
X124898238Y-81444571D01*
X124974428Y-81444571D01*
X125126809Y-81444571D02*
X125431571Y-81444571D01*
X125241095Y-81177904D02*
X125241095Y-81863619D01*
X125279190Y-81939809D01*
X125355380Y-81977904D01*
X125431571Y-81977904D01*
X126041095Y-81977904D02*
X126041095Y-81558857D01*
X126003000Y-81482666D01*
X125926809Y-81444571D01*
X125774428Y-81444571D01*
X125698238Y-81482666D01*
X126041095Y-81939809D02*
X125964904Y-81977904D01*
X125774428Y-81977904D01*
X125698238Y-81939809D01*
X125660142Y-81863619D01*
X125660142Y-81787428D01*
X125698238Y-81711238D01*
X125774428Y-81673142D01*
X125964904Y-81673142D01*
X126041095Y-81635047D01*
X126422047Y-81977904D02*
X126422047Y-81444571D01*
X126422047Y-81177904D02*
X126383952Y-81216000D01*
X126422047Y-81254095D01*
X126460142Y-81216000D01*
X126422047Y-81177904D01*
X126422047Y-81254095D01*
X126803000Y-81444571D02*
X126803000Y-81977904D01*
X126803000Y-81520761D02*
X126841095Y-81482666D01*
X126917285Y-81444571D01*
X127031571Y-81444571D01*
X127107761Y-81482666D01*
X127145857Y-81558857D01*
X127145857Y-81977904D01*
X127526809Y-81977904D02*
X127526809Y-81444571D01*
X127526809Y-81520761D02*
X127564904Y-81482666D01*
X127641095Y-81444571D01*
X127755380Y-81444571D01*
X127831571Y-81482666D01*
X127869666Y-81558857D01*
X127869666Y-81977904D01*
X127869666Y-81558857D02*
X127907761Y-81482666D01*
X127983952Y-81444571D01*
X128098238Y-81444571D01*
X128174428Y-81482666D01*
X128212523Y-81558857D01*
X128212523Y-81977904D01*
X128898238Y-81939809D02*
X128822047Y-81977904D01*
X128669666Y-81977904D01*
X128593476Y-81939809D01*
X128555380Y-81863619D01*
X128555380Y-81558857D01*
X128593476Y-81482666D01*
X128669666Y-81444571D01*
X128822047Y-81444571D01*
X128898238Y-81482666D01*
X128936333Y-81558857D01*
X128936333Y-81635047D01*
X128555380Y-81711238D01*
X129279190Y-81444571D02*
X129279190Y-81977904D01*
X129279190Y-81520761D02*
X129317285Y-81482666D01*
X129393476Y-81444571D01*
X129507761Y-81444571D01*
X129583952Y-81482666D01*
X129622047Y-81558857D01*
X129622047Y-81977904D01*
X129888714Y-81444571D02*
X130193476Y-81444571D01*
X130003000Y-81177904D02*
X130003000Y-81863619D01*
X130041095Y-81939809D01*
X130117285Y-81977904D01*
X130193476Y-81977904D01*
X131031571Y-81939809D02*
X131145857Y-81977904D01*
X131336333Y-81977904D01*
X131412523Y-81939809D01*
X131450619Y-81901714D01*
X131488714Y-81825523D01*
X131488714Y-81749333D01*
X131450619Y-81673142D01*
X131412523Y-81635047D01*
X131336333Y-81596952D01*
X131183952Y-81558857D01*
X131107761Y-81520761D01*
X131069666Y-81482666D01*
X131031571Y-81406476D01*
X131031571Y-81330285D01*
X131069666Y-81254095D01*
X131107761Y-81216000D01*
X131183952Y-81177904D01*
X131374428Y-81177904D01*
X131488714Y-81216000D01*
X131755380Y-81444571D02*
X131945857Y-81977904D01*
X132136333Y-81444571D02*
X131945857Y-81977904D01*
X131869666Y-82168380D01*
X131831571Y-82206476D01*
X131755380Y-82244571D01*
X132402999Y-81939809D02*
X132479190Y-81977904D01*
X132631571Y-81977904D01*
X132707761Y-81939809D01*
X132745857Y-81863619D01*
X132745857Y-81825523D01*
X132707761Y-81749333D01*
X132631571Y-81711238D01*
X132517285Y-81711238D01*
X132441095Y-81673142D01*
X132402999Y-81596952D01*
X132402999Y-81558857D01*
X132441095Y-81482666D01*
X132517285Y-81444571D01*
X132631571Y-81444571D01*
X132707761Y-81482666D01*
X132974428Y-81444571D02*
X133279190Y-81444571D01*
X133088714Y-81177904D02*
X133088714Y-81863619D01*
X133126809Y-81939809D01*
X133202999Y-81977904D01*
X133279190Y-81977904D01*
X133850619Y-81939809D02*
X133774428Y-81977904D01*
X133622047Y-81977904D01*
X133545857Y-81939809D01*
X133507761Y-81863619D01*
X133507761Y-81558857D01*
X133545857Y-81482666D01*
X133622047Y-81444571D01*
X133774428Y-81444571D01*
X133850619Y-81482666D01*
X133888714Y-81558857D01*
X133888714Y-81635047D01*
X133507761Y-81711238D01*
X134231571Y-81977904D02*
X134231571Y-81444571D01*
X134231571Y-81520761D02*
X134269666Y-81482666D01*
X134345857Y-81444571D01*
X134460142Y-81444571D01*
X134536333Y-81482666D01*
X134574428Y-81558857D01*
X134574428Y-81977904D01*
X134574428Y-81558857D02*
X134612523Y-81482666D01*
X134688714Y-81444571D01*
X134803000Y-81444571D01*
X134879190Y-81482666D01*
X134917285Y-81558857D01*
X134917285Y-81977904D01*
X119393476Y-83582666D02*
X119355380Y-83544571D01*
X119279190Y-83430285D01*
X119241095Y-83354095D01*
X119203000Y-83239809D01*
X119164904Y-83049333D01*
X119164904Y-82896952D01*
X119203000Y-82706476D01*
X119241095Y-82592190D01*
X119279190Y-82516000D01*
X119355380Y-82401714D01*
X119393476Y-82363619D01*
X120155380Y-83201714D02*
X120117285Y-83239809D01*
X120003000Y-83277904D01*
X119926809Y-83277904D01*
X119812523Y-83239809D01*
X119736333Y-83163619D01*
X119698238Y-83087428D01*
X119660142Y-82935047D01*
X119660142Y-82820761D01*
X119698238Y-82668380D01*
X119736333Y-82592190D01*
X119812523Y-82516000D01*
X119926809Y-82477904D01*
X120003000Y-82477904D01*
X120117285Y-82516000D01*
X120155380Y-82554095D01*
X120841095Y-82477904D02*
X120688714Y-82477904D01*
X120612523Y-82516000D01*
X120574428Y-82554095D01*
X120498238Y-82668380D01*
X120460142Y-82820761D01*
X120460142Y-83125523D01*
X120498238Y-83201714D01*
X120536333Y-83239809D01*
X120612523Y-83277904D01*
X120764904Y-83277904D01*
X120841095Y-83239809D01*
X120879190Y-83201714D01*
X120917285Y-83125523D01*
X120917285Y-82935047D01*
X120879190Y-82858857D01*
X120841095Y-82820761D01*
X120764904Y-82782666D01*
X120612523Y-82782666D01*
X120536333Y-82820761D01*
X120498238Y-82858857D01*
X120460142Y-82935047D01*
X121603000Y-82744571D02*
X121603000Y-83277904D01*
X121412523Y-82439809D02*
X121222047Y-83011238D01*
X121717285Y-83011238D01*
X122860142Y-82477904D02*
X122860142Y-83049333D01*
X122822047Y-83163619D01*
X122745857Y-83239809D01*
X122631571Y-83277904D01*
X122555380Y-83277904D01*
X123355380Y-83277904D02*
X123279190Y-83239809D01*
X123241095Y-83201714D01*
X123203000Y-83125523D01*
X123203000Y-82896952D01*
X123241095Y-82820761D01*
X123279190Y-82782666D01*
X123355380Y-82744571D01*
X123469666Y-82744571D01*
X123545857Y-82782666D01*
X123583952Y-82820761D01*
X123622047Y-82896952D01*
X123622047Y-83125523D01*
X123583952Y-83201714D01*
X123545857Y-83239809D01*
X123469666Y-83277904D01*
X123355380Y-83277904D01*
X123888714Y-82744571D02*
X124079190Y-83277904D01*
X124269666Y-82744571D02*
X124079190Y-83277904D01*
X124003000Y-83468380D01*
X123964904Y-83506476D01*
X123888714Y-83544571D01*
X124574428Y-83277904D02*
X124574428Y-82477904D01*
X125031571Y-83277904D02*
X124688714Y-82820761D01*
X125031571Y-82477904D02*
X124574428Y-82935047D01*
X125374428Y-82858857D02*
X125641095Y-82858857D01*
X125755380Y-83277904D02*
X125374428Y-83277904D01*
X125374428Y-82477904D01*
X125755380Y-82477904D01*
X126250619Y-82896952D02*
X126250619Y-83277904D01*
X125983952Y-82477904D02*
X126250619Y-82896952D01*
X126517285Y-82477904D01*
X127355380Y-83049333D02*
X127736333Y-83049333D01*
X127279190Y-83277904D02*
X127545857Y-82477904D01*
X127812523Y-83277904D01*
X128422047Y-83277904D02*
X128422047Y-82477904D01*
X128422047Y-83239809D02*
X128345857Y-83277904D01*
X128193476Y-83277904D01*
X128117285Y-83239809D01*
X128079190Y-83201714D01*
X128041095Y-83125523D01*
X128041095Y-82896952D01*
X128079190Y-82820761D01*
X128117285Y-82782666D01*
X128193476Y-82744571D01*
X128345857Y-82744571D01*
X128422047Y-82782666D01*
X129145857Y-83277904D02*
X129145857Y-82858857D01*
X129107761Y-82782666D01*
X129031571Y-82744571D01*
X128879190Y-82744571D01*
X128803000Y-82782666D01*
X129145857Y-83239809D02*
X129069666Y-83277904D01*
X128879190Y-83277904D01*
X128803000Y-83239809D01*
X128764904Y-83163619D01*
X128764904Y-83087428D01*
X128803000Y-83011238D01*
X128879190Y-82973142D01*
X129069666Y-82973142D01*
X129145857Y-82935047D01*
X129526809Y-82744571D02*
X129526809Y-83544571D01*
X129526809Y-82782666D02*
X129603000Y-82744571D01*
X129755380Y-82744571D01*
X129831571Y-82782666D01*
X129869666Y-82820761D01*
X129907761Y-82896952D01*
X129907761Y-83125523D01*
X129869666Y-83201714D01*
X129831571Y-83239809D01*
X129755380Y-83277904D01*
X129603000Y-83277904D01*
X129526809Y-83239809D01*
X130136333Y-82744571D02*
X130441095Y-82744571D01*
X130250619Y-82477904D02*
X130250619Y-83163619D01*
X130288714Y-83239809D01*
X130364904Y-83277904D01*
X130441095Y-83277904D01*
X131012523Y-83239809D02*
X130936333Y-83277904D01*
X130783952Y-83277904D01*
X130707761Y-83239809D01*
X130669666Y-83163619D01*
X130669666Y-82858857D01*
X130707761Y-82782666D01*
X130783952Y-82744571D01*
X130936333Y-82744571D01*
X131012523Y-82782666D01*
X131050619Y-82858857D01*
X131050619Y-82935047D01*
X130669666Y-83011238D01*
X131393476Y-83277904D02*
X131393476Y-82744571D01*
X131393476Y-82896952D02*
X131431571Y-82820761D01*
X131469666Y-82782666D01*
X131545857Y-82744571D01*
X131622047Y-82744571D01*
X131812523Y-83582666D02*
X131850619Y-83544571D01*
X131926809Y-83430285D01*
X131964904Y-83354095D01*
X132003000Y-83239809D01*
X132041095Y-83049333D01*
X132041095Y-82896952D01*
X132003000Y-82706476D01*
X131964904Y-82592190D01*
X131926809Y-82516000D01*
X131850619Y-82401714D01*
X131812523Y-82363619D01*
X121279190Y-85344571D02*
X121279190Y-85992190D01*
X121241095Y-86068380D01*
X121203000Y-86106476D01*
X121126809Y-86144571D01*
X121012523Y-86144571D01*
X120936333Y-86106476D01*
X121279190Y-85839809D02*
X121203000Y-85877904D01*
X121050619Y-85877904D01*
X120974428Y-85839809D01*
X120936333Y-85801714D01*
X120898238Y-85725523D01*
X120898238Y-85496952D01*
X120936333Y-85420761D01*
X120974428Y-85382666D01*
X121050619Y-85344571D01*
X121203000Y-85344571D01*
X121279190Y-85382666D01*
X121660142Y-85877904D02*
X121660142Y-85344571D01*
X121660142Y-85077904D02*
X121622047Y-85116000D01*
X121660142Y-85154095D01*
X121698238Y-85116000D01*
X121660142Y-85077904D01*
X121660142Y-85154095D01*
X121926809Y-85344571D02*
X122231571Y-85344571D01*
X122041095Y-85077904D02*
X122041095Y-85763619D01*
X122079190Y-85839809D01*
X122155380Y-85877904D01*
X122231571Y-85877904D01*
X122498238Y-85877904D02*
X122498238Y-85077904D01*
X122841095Y-85877904D02*
X122841095Y-85458857D01*
X122803000Y-85382666D01*
X122726809Y-85344571D01*
X122612523Y-85344571D01*
X122536333Y-85382666D01*
X122498238Y-85420761D01*
X123564904Y-85344571D02*
X123564904Y-85877904D01*
X123222047Y-85344571D02*
X123222047Y-85763619D01*
X123260142Y-85839809D01*
X123336333Y-85877904D01*
X123450619Y-85877904D01*
X123526809Y-85839809D01*
X123564904Y-85801714D01*
X123945857Y-85877904D02*
X123945857Y-85077904D01*
X123945857Y-85382666D02*
X124022047Y-85344571D01*
X124174428Y-85344571D01*
X124250619Y-85382666D01*
X124288714Y-85420761D01*
X124326809Y-85496952D01*
X124326809Y-85725523D01*
X124288714Y-85801714D01*
X124250619Y-85839809D01*
X124174428Y-85877904D01*
X124022047Y-85877904D01*
X123945857Y-85839809D01*
X124669666Y-85801714D02*
X124707761Y-85839809D01*
X124669666Y-85877904D01*
X124631571Y-85839809D01*
X124669666Y-85801714D01*
X124669666Y-85877904D01*
X125393476Y-85839809D02*
X125317285Y-85877904D01*
X125164904Y-85877904D01*
X125088714Y-85839809D01*
X125050619Y-85801714D01*
X125012523Y-85725523D01*
X125012523Y-85496952D01*
X125050619Y-85420761D01*
X125088714Y-85382666D01*
X125164904Y-85344571D01*
X125317285Y-85344571D01*
X125393476Y-85382666D01*
X125850619Y-85877904D02*
X125774428Y-85839809D01*
X125736333Y-85801714D01*
X125698238Y-85725523D01*
X125698238Y-85496952D01*
X125736333Y-85420761D01*
X125774428Y-85382666D01*
X125850619Y-85344571D01*
X125964904Y-85344571D01*
X126041095Y-85382666D01*
X126079190Y-85420761D01*
X126117285Y-85496952D01*
X126117285Y-85725523D01*
X126079190Y-85801714D01*
X126041095Y-85839809D01*
X125964904Y-85877904D01*
X125850619Y-85877904D01*
X126460142Y-85877904D02*
X126460142Y-85344571D01*
X126460142Y-85420761D02*
X126498238Y-85382666D01*
X126574428Y-85344571D01*
X126688714Y-85344571D01*
X126764904Y-85382666D01*
X126803000Y-85458857D01*
X126803000Y-85877904D01*
X126803000Y-85458857D02*
X126841095Y-85382666D01*
X126917285Y-85344571D01*
X127031571Y-85344571D01*
X127107761Y-85382666D01*
X127145857Y-85458857D01*
X127145857Y-85877904D01*
X128098238Y-85039809D02*
X127412523Y-86068380D01*
X128250619Y-85344571D02*
X128555380Y-85344571D01*
X128364904Y-85077904D02*
X128364904Y-85763619D01*
X128403000Y-85839809D01*
X128479190Y-85877904D01*
X128555380Y-85877904D01*
X129126809Y-85839809D02*
X129050619Y-85877904D01*
X128898238Y-85877904D01*
X128822047Y-85839809D01*
X128783952Y-85763619D01*
X128783952Y-85458857D01*
X128822047Y-85382666D01*
X128898238Y-85344571D01*
X129050619Y-85344571D01*
X129126809Y-85382666D01*
X129164904Y-85458857D01*
X129164904Y-85535047D01*
X128783952Y-85611238D01*
X129507761Y-85877904D02*
X129507761Y-85077904D01*
X129507761Y-85382666D02*
X129583952Y-85344571D01*
X129736333Y-85344571D01*
X129812523Y-85382666D01*
X129850619Y-85420761D01*
X129888714Y-85496952D01*
X129888714Y-85725523D01*
X129850619Y-85801714D01*
X129812523Y-85839809D01*
X129736333Y-85877904D01*
X129583952Y-85877904D01*
X129507761Y-85839809D01*
X130345857Y-85877904D02*
X130269666Y-85839809D01*
X130231571Y-85763619D01*
X130231571Y-85077904D01*
D11*
X153095000Y-85785000D02*
X153095000Y-83125000D01*
X137795000Y-85785000D02*
X153095000Y-85785000D01*
X137795000Y-83125000D02*
X153095000Y-83125000D01*
X137795000Y-85785000D02*
X137795000Y-83125000D01*
X136525000Y-85785000D02*
X135195000Y-85785000D01*
X135195000Y-85785000D02*
X135195000Y-84455000D01*
X150808500Y-109835438D02*
X150308500Y-109835438D01*
X150308500Y-109835438D02*
X150558500Y-109402425D01*
X150558500Y-109402425D02*
X150808500Y-109835438D01*
X144895000Y-111605000D02*
X144895000Y-109065000D01*
X144895000Y-111605000D02*
X147435000Y-111605000D01*
X145145000Y-111355000D02*
X145145000Y-102005000D01*
X166005000Y-111355000D02*
X145145000Y-111355000D01*
X166005000Y-102005000D02*
X166005000Y-111355000D01*
X145145000Y-102005000D02*
X166005000Y-102005000D01*
D10*
X165755000Y-111105000D02*
X165195000Y-110555000D01*
X145395000Y-111105000D02*
X145935000Y-110555000D01*
X165755000Y-102255000D02*
X165195000Y-102805000D01*
X145395000Y-102255000D02*
X145935000Y-102805000D01*
X165195000Y-102805000D02*
X165195000Y-110555000D01*
X165755000Y-102255000D02*
X165755000Y-111105000D01*
X145935000Y-102805000D02*
X145935000Y-110555000D01*
X145395000Y-102255000D02*
X145395000Y-111105000D01*
X157825000Y-110555000D02*
X157825000Y-111105000D01*
X153325000Y-110555000D02*
X153325000Y-111105000D01*
X157825000Y-110555000D02*
X165195000Y-110555000D01*
X145935000Y-110555000D02*
X153325000Y-110555000D01*
X145395000Y-111105000D02*
X165755000Y-111105000D01*
X145935000Y-102805000D02*
X165195000Y-102805000D01*
X145395000Y-102255000D02*
X165755000Y-102255000D01*
D11*
X158860000Y-75780000D02*
X158860000Y-75465000D01*
X158860000Y-78205000D02*
X158860000Y-77890000D01*
X163800000Y-75780000D02*
X163800000Y-75465000D01*
X163800000Y-78205000D02*
X163800000Y-77890000D01*
X163800000Y-75465000D02*
X158860000Y-75465000D01*
X163800000Y-78205000D02*
X158860000Y-78205000D01*
X127948500Y-109835438D02*
X127448500Y-109835438D01*
X127448500Y-109835438D02*
X127698500Y-109402425D01*
X127698500Y-109402425D02*
X127948500Y-109835438D01*
X122035000Y-111605000D02*
X122035000Y-109065000D01*
X122035000Y-111605000D02*
X124575000Y-111605000D01*
X122285000Y-111355000D02*
X122285000Y-102005000D01*
X143145000Y-111355000D02*
X122285000Y-111355000D01*
X143145000Y-102005000D02*
X143145000Y-111355000D01*
X122285000Y-102005000D02*
X143145000Y-102005000D01*
D10*
X142895000Y-111105000D02*
X142335000Y-110555000D01*
X122535000Y-111105000D02*
X123075000Y-110555000D01*
X142895000Y-102255000D02*
X142335000Y-102805000D01*
X122535000Y-102255000D02*
X123075000Y-102805000D01*
X142335000Y-102805000D02*
X142335000Y-110555000D01*
X142895000Y-102255000D02*
X142895000Y-111105000D01*
X123075000Y-102805000D02*
X123075000Y-110555000D01*
X122535000Y-102255000D02*
X122535000Y-111105000D01*
X134965000Y-110555000D02*
X134965000Y-111105000D01*
X130465000Y-110555000D02*
X130465000Y-111105000D01*
X134965000Y-110555000D02*
X142335000Y-110555000D01*
X123075000Y-110555000D02*
X130465000Y-110555000D01*
X122535000Y-111105000D02*
X142895000Y-111105000D01*
X123075000Y-102805000D02*
X142335000Y-102805000D01*
X122535000Y-102255000D02*
X142895000Y-102255000D01*
D11*
X141895000Y-95960000D02*
X146395000Y-95960000D01*
X140645000Y-91960000D02*
X140645000Y-93460000D01*
X146395000Y-89460000D02*
X141895000Y-89460000D01*
X147645000Y-93460000D02*
X147645000Y-91960000D01*
X171510000Y-94555000D02*
X168850000Y-94555000D01*
X171510000Y-97155000D02*
X171510000Y-94555000D01*
X168850000Y-97155000D02*
X168850000Y-94555000D01*
X171510000Y-97155000D02*
X168850000Y-97155000D01*
X171510000Y-98425000D02*
X171510000Y-99755000D01*
X171510000Y-99755000D02*
X170180000Y-99755000D01*
X135990000Y-90710000D02*
X133250000Y-90710000D01*
X133250000Y-90710000D02*
X133250000Y-97250000D01*
X133250000Y-97250000D02*
X135990000Y-97250000D01*
X135990000Y-97250000D02*
X135990000Y-90710000D01*
X134620000Y-89940000D02*
X134620000Y-90710000D01*
X134620000Y-98020000D02*
X134620000Y-97250000D01*
X150495000Y-98020000D02*
X150495000Y-97250000D01*
X150495000Y-89940000D02*
X150495000Y-90710000D01*
X151865000Y-97250000D02*
X151865000Y-90710000D01*
X149125000Y-97250000D02*
X151865000Y-97250000D01*
X149125000Y-90710000D02*
X149125000Y-97250000D01*
X151865000Y-90710000D02*
X149125000Y-90710000D01*
X139165000Y-90710000D02*
X136425000Y-90710000D01*
X136425000Y-90710000D02*
X136425000Y-97250000D01*
X136425000Y-97250000D02*
X139165000Y-97250000D01*
X139165000Y-97250000D02*
X139165000Y-90710000D01*
X137795000Y-89940000D02*
X137795000Y-90710000D01*
X137795000Y-98020000D02*
X137795000Y-97250000D01*
X153670000Y-98020000D02*
X153670000Y-97250000D01*
X153670000Y-89940000D02*
X153670000Y-90710000D01*
X155040000Y-97250000D02*
X155040000Y-90710000D01*
X152300000Y-97250000D02*
X155040000Y-97250000D01*
X152300000Y-90710000D02*
X152300000Y-97250000D01*
X155040000Y-90710000D02*
X152300000Y-90710000D01*
X129640000Y-90710000D02*
X126900000Y-90710000D01*
X126900000Y-90710000D02*
X126900000Y-97250000D01*
X126900000Y-97250000D02*
X129640000Y-97250000D01*
X129640000Y-97250000D02*
X129640000Y-90710000D01*
X128270000Y-89940000D02*
X128270000Y-90710000D01*
X128270000Y-98020000D02*
X128270000Y-97250000D01*
X125095000Y-98020000D02*
X125095000Y-97250000D01*
X125095000Y-89940000D02*
X125095000Y-90710000D01*
X126465000Y-97250000D02*
X126465000Y-90710000D01*
X123725000Y-97250000D02*
X126465000Y-97250000D01*
X123725000Y-90710000D02*
X123725000Y-97250000D01*
X126465000Y-90710000D02*
X123725000Y-90710000D01*
X132815000Y-90710000D02*
X130075000Y-90710000D01*
X130075000Y-90710000D02*
X130075000Y-97250000D01*
X130075000Y-97250000D02*
X132815000Y-97250000D01*
X132815000Y-97250000D02*
X132815000Y-90710000D01*
X131445000Y-89940000D02*
X131445000Y-90710000D01*
X131445000Y-98020000D02*
X131445000Y-97250000D01*
X121920000Y-98020000D02*
X121920000Y-97250000D01*
X121920000Y-89940000D02*
X121920000Y-90710000D01*
X123290000Y-97250000D02*
X123290000Y-90710000D01*
X120550000Y-97250000D02*
X123290000Y-97250000D01*
X120550000Y-90710000D02*
X120550000Y-97250000D01*
X123290000Y-90710000D02*
X120550000Y-90710000D01*
X166540000Y-79255000D02*
X156040000Y-79255000D01*
X166540000Y-99815000D02*
X166540000Y-79255000D01*
X156040000Y-99815000D02*
X166540000Y-99815000D01*
X156040000Y-79255000D02*
X156040000Y-99815000D01*
X163540000Y-79315000D02*
X162290000Y-79315000D01*
X163540000Y-99755000D02*
X163540000Y-79315000D01*
X159040000Y-99755000D02*
X163540000Y-99755000D01*
X159040000Y-79315000D02*
X159040000Y-99755000D01*
X160290000Y-79315000D02*
X159040000Y-79315000D01*
X162290000Y-79315000D02*
G75*
G02*
X160290000Y-79315000I-1000000J0D01*
G01*
D12*
X133647380Y-84788333D02*
X134361666Y-84788333D01*
X134504523Y-84835952D01*
X134599761Y-84931190D01*
X134647380Y-85074047D01*
X134647380Y-85169285D01*
X133647380Y-84407380D02*
X133647380Y-83788333D01*
X134028333Y-84121666D01*
X134028333Y-83978809D01*
X134075952Y-83883571D01*
X134123571Y-83835952D01*
X134218809Y-83788333D01*
X134456904Y-83788333D01*
X134552142Y-83835952D01*
X134599761Y-83883571D01*
X134647380Y-83978809D01*
X134647380Y-84264523D01*
X134599761Y-84359761D01*
X134552142Y-84407380D01*
D10*
X146418333Y-103066904D02*
X146418333Y-103638333D01*
X146380238Y-103752619D01*
X146304047Y-103828809D01*
X146189761Y-103866904D01*
X146113571Y-103866904D01*
X146761190Y-103143095D02*
X146799285Y-103105000D01*
X146875476Y-103066904D01*
X147065952Y-103066904D01*
X147142142Y-103105000D01*
X147180238Y-103143095D01*
X147218333Y-103219285D01*
X147218333Y-103295476D01*
X147180238Y-103409761D01*
X146723095Y-103866904D01*
X147218333Y-103866904D01*
D12*
X145153333Y-101417380D02*
X145153333Y-100417380D01*
X145534285Y-100417380D01*
X145629523Y-100465000D01*
X145677142Y-100512619D01*
X145724761Y-100607857D01*
X145724761Y-100750714D01*
X145677142Y-100845952D01*
X145629523Y-100893571D01*
X145534285Y-100941190D01*
X145153333Y-100941190D01*
X146296190Y-101417380D02*
X146200952Y-101369761D01*
X146153333Y-101322142D01*
X146105714Y-101226904D01*
X146105714Y-100941190D01*
X146153333Y-100845952D01*
X146200952Y-100798333D01*
X146296190Y-100750714D01*
X146439047Y-100750714D01*
X146534285Y-100798333D01*
X146581904Y-100845952D01*
X146629523Y-100941190D01*
X146629523Y-101226904D01*
X146581904Y-101322142D01*
X146534285Y-101369761D01*
X146439047Y-101417380D01*
X146296190Y-101417380D01*
X147058095Y-101417380D02*
X147058095Y-100750714D01*
X147058095Y-100941190D02*
X147105714Y-100845952D01*
X147153333Y-100798333D01*
X147248571Y-100750714D01*
X147343809Y-100750714D01*
X147534285Y-100750714D02*
X147915238Y-100750714D01*
X147677142Y-100417380D02*
X147677142Y-101274523D01*
X147724761Y-101369761D01*
X147820000Y-101417380D01*
X147915238Y-101417380D01*
X148962857Y-100512619D02*
X149010476Y-100465000D01*
X149105714Y-100417380D01*
X149343809Y-100417380D01*
X149439047Y-100465000D01*
X149486666Y-100512619D01*
X149534285Y-100607857D01*
X149534285Y-100703095D01*
X149486666Y-100845952D01*
X148915238Y-101417380D01*
X149534285Y-101417380D01*
X161123333Y-77192142D02*
X161075714Y-77239761D01*
X160932857Y-77287380D01*
X160837619Y-77287380D01*
X160694761Y-77239761D01*
X160599523Y-77144523D01*
X160551904Y-77049285D01*
X160504285Y-76858809D01*
X160504285Y-76715952D01*
X160551904Y-76525476D01*
X160599523Y-76430238D01*
X160694761Y-76335000D01*
X160837619Y-76287380D01*
X160932857Y-76287380D01*
X161075714Y-76335000D01*
X161123333Y-76382619D01*
X162075714Y-77287380D02*
X161504285Y-77287380D01*
X161790000Y-77287380D02*
X161790000Y-76287380D01*
X161694761Y-76430238D01*
X161599523Y-76525476D01*
X161504285Y-76573095D01*
D10*
X123558333Y-103066904D02*
X123558333Y-103638333D01*
X123520238Y-103752619D01*
X123444047Y-103828809D01*
X123329761Y-103866904D01*
X123253571Y-103866904D01*
X124358333Y-103866904D02*
X123901190Y-103866904D01*
X124129761Y-103866904D02*
X124129761Y-103066904D01*
X124053571Y-103181190D01*
X123977380Y-103257380D01*
X123901190Y-103295476D01*
D12*
X122293333Y-101417380D02*
X122293333Y-100417380D01*
X122674285Y-100417380D01*
X122769523Y-100465000D01*
X122817142Y-100512619D01*
X122864761Y-100607857D01*
X122864761Y-100750714D01*
X122817142Y-100845952D01*
X122769523Y-100893571D01*
X122674285Y-100941190D01*
X122293333Y-100941190D01*
X123436190Y-101417380D02*
X123340952Y-101369761D01*
X123293333Y-101322142D01*
X123245714Y-101226904D01*
X123245714Y-100941190D01*
X123293333Y-100845952D01*
X123340952Y-100798333D01*
X123436190Y-100750714D01*
X123579047Y-100750714D01*
X123674285Y-100798333D01*
X123721904Y-100845952D01*
X123769523Y-100941190D01*
X123769523Y-101226904D01*
X123721904Y-101322142D01*
X123674285Y-101369761D01*
X123579047Y-101417380D01*
X123436190Y-101417380D01*
X124198095Y-101417380D02*
X124198095Y-100750714D01*
X124198095Y-100941190D02*
X124245714Y-100845952D01*
X124293333Y-100798333D01*
X124388571Y-100750714D01*
X124483809Y-100750714D01*
X124674285Y-100750714D02*
X125055238Y-100750714D01*
X124817142Y-100417380D02*
X124817142Y-101274523D01*
X124864761Y-101369761D01*
X124960000Y-101417380D01*
X125055238Y-101417380D01*
X126674285Y-101417380D02*
X126102857Y-101417380D01*
X126388571Y-101417380D02*
X126388571Y-100417380D01*
X126293333Y-100560238D01*
X126198095Y-100655476D01*
X126102857Y-100703095D01*
X142168809Y-97564761D02*
X142311666Y-97612380D01*
X142549761Y-97612380D01*
X142645000Y-97564761D01*
X142692619Y-97517142D01*
X142740238Y-97421904D01*
X142740238Y-97326666D01*
X142692619Y-97231428D01*
X142645000Y-97183809D01*
X142549761Y-97136190D01*
X142359285Y-97088571D01*
X142264047Y-97040952D01*
X142216428Y-96993333D01*
X142168809Y-96898095D01*
X142168809Y-96802857D01*
X142216428Y-96707619D01*
X142264047Y-96660000D01*
X142359285Y-96612380D01*
X142597380Y-96612380D01*
X142740238Y-96660000D01*
X143025952Y-96612380D02*
X143597380Y-96612380D01*
X143311666Y-97612380D02*
X143311666Y-96612380D01*
X143883095Y-97326666D02*
X144359285Y-97326666D01*
X143787857Y-97612380D02*
X144121190Y-96612380D01*
X144454523Y-97612380D01*
X145359285Y-97612380D02*
X145025952Y-97136190D01*
X144787857Y-97612380D02*
X144787857Y-96612380D01*
X145168809Y-96612380D01*
X145264047Y-96660000D01*
X145311666Y-96707619D01*
X145359285Y-96802857D01*
X145359285Y-96945714D01*
X145311666Y-97040952D01*
X145264047Y-97088571D01*
X145168809Y-97136190D01*
X144787857Y-97136190D01*
X145645000Y-96612380D02*
X146216428Y-96612380D01*
X145930714Y-97612380D02*
X145930714Y-96612380D01*
D10*
X143078333Y-93033809D02*
X143192619Y-93071904D01*
X143383095Y-93071904D01*
X143459285Y-93033809D01*
X143497380Y-92995714D01*
X143535476Y-92919523D01*
X143535476Y-92843333D01*
X143497380Y-92767142D01*
X143459285Y-92729047D01*
X143383095Y-92690952D01*
X143230714Y-92652857D01*
X143154523Y-92614761D01*
X143116428Y-92576666D01*
X143078333Y-92500476D01*
X143078333Y-92424285D01*
X143116428Y-92348095D01*
X143154523Y-92310000D01*
X143230714Y-92271904D01*
X143421190Y-92271904D01*
X143535476Y-92310000D01*
X143802142Y-92271904D02*
X143992619Y-93071904D01*
X144145000Y-92500476D01*
X144297380Y-93071904D01*
X144487857Y-92271904D01*
X145211666Y-93071904D02*
X144754523Y-93071904D01*
X144983095Y-93071904D02*
X144983095Y-92271904D01*
X144906904Y-92386190D01*
X144830714Y-92462380D01*
X144754523Y-92500476D01*
D12*
X167489523Y-92797380D02*
X167822857Y-93797380D01*
X168156190Y-92797380D01*
X169060952Y-93702142D02*
X169013333Y-93749761D01*
X168870476Y-93797380D01*
X168775238Y-93797380D01*
X168632380Y-93749761D01*
X168537142Y-93654523D01*
X168489523Y-93559285D01*
X168441904Y-93368809D01*
X168441904Y-93225952D01*
X168489523Y-93035476D01*
X168537142Y-92940238D01*
X168632380Y-92845000D01*
X168775238Y-92797380D01*
X168870476Y-92797380D01*
X169013333Y-92845000D01*
X169060952Y-92892619D01*
X170060952Y-93702142D02*
X170013333Y-93749761D01*
X169870476Y-93797380D01*
X169775238Y-93797380D01*
X169632380Y-93749761D01*
X169537142Y-93654523D01*
X169489523Y-93559285D01*
X169441904Y-93368809D01*
X169441904Y-93225952D01*
X169489523Y-93035476D01*
X169537142Y-92940238D01*
X169632380Y-92845000D01*
X169775238Y-92797380D01*
X169870476Y-92797380D01*
X170013333Y-92845000D01*
X170060952Y-92892619D01*
X170251428Y-93892619D02*
X171013333Y-93892619D01*
X171251428Y-93273571D02*
X171584761Y-93273571D01*
X171727619Y-93797380D02*
X171251428Y-93797380D01*
X171251428Y-92797380D01*
X171727619Y-92797380D01*
X172156190Y-93797380D02*
X172156190Y-92797380D01*
X172727619Y-93797380D01*
X172727619Y-92797380D01*
X134453333Y-92527380D02*
X134120000Y-92051190D01*
X133881904Y-92527380D02*
X133881904Y-91527380D01*
X134262857Y-91527380D01*
X134358095Y-91575000D01*
X134405714Y-91622619D01*
X134453333Y-91717857D01*
X134453333Y-91860714D01*
X134405714Y-91955952D01*
X134358095Y-92003571D01*
X134262857Y-92051190D01*
X133881904Y-92051190D01*
X135405714Y-92527380D02*
X134834285Y-92527380D01*
X135120000Y-92527380D02*
X135120000Y-91527380D01*
X135024761Y-91670238D01*
X134929523Y-91765476D01*
X134834285Y-91813095D01*
X135072380Y-95369047D02*
X135072380Y-95940476D01*
X135072380Y-95654761D02*
X134072380Y-95654761D01*
X134215238Y-95750000D01*
X134310476Y-95845238D01*
X134358095Y-95940476D01*
X135072380Y-94940476D02*
X134072380Y-94940476D01*
X134691428Y-94845238D02*
X135072380Y-94559523D01*
X134405714Y-94559523D02*
X134786666Y-94940476D01*
X150328333Y-92527380D02*
X149995000Y-92051190D01*
X149756904Y-92527380D02*
X149756904Y-91527380D01*
X150137857Y-91527380D01*
X150233095Y-91575000D01*
X150280714Y-91622619D01*
X150328333Y-91717857D01*
X150328333Y-91860714D01*
X150280714Y-91955952D01*
X150233095Y-92003571D01*
X150137857Y-92051190D01*
X149756904Y-92051190D01*
X150709285Y-91622619D02*
X150756904Y-91575000D01*
X150852142Y-91527380D01*
X151090238Y-91527380D01*
X151185476Y-91575000D01*
X151233095Y-91622619D01*
X151280714Y-91717857D01*
X151280714Y-91813095D01*
X151233095Y-91955952D01*
X150661666Y-92527380D01*
X151280714Y-92527380D01*
X150947380Y-95369047D02*
X150947380Y-95940476D01*
X150947380Y-95654761D02*
X149947380Y-95654761D01*
X150090238Y-95750000D01*
X150185476Y-95845238D01*
X150233095Y-95940476D01*
X150947380Y-94940476D02*
X149947380Y-94940476D01*
X150566428Y-94845238D02*
X150947380Y-94559523D01*
X150280714Y-94559523D02*
X150661666Y-94940476D01*
X137628333Y-92527380D02*
X137295000Y-92051190D01*
X137056904Y-92527380D02*
X137056904Y-91527380D01*
X137437857Y-91527380D01*
X137533095Y-91575000D01*
X137580714Y-91622619D01*
X137628333Y-91717857D01*
X137628333Y-91860714D01*
X137580714Y-91955952D01*
X137533095Y-92003571D01*
X137437857Y-92051190D01*
X137056904Y-92051190D01*
X137961666Y-91527380D02*
X138580714Y-91527380D01*
X138247380Y-91908333D01*
X138390238Y-91908333D01*
X138485476Y-91955952D01*
X138533095Y-92003571D01*
X138580714Y-92098809D01*
X138580714Y-92336904D01*
X138533095Y-92432142D01*
X138485476Y-92479761D01*
X138390238Y-92527380D01*
X138104523Y-92527380D01*
X138009285Y-92479761D01*
X137961666Y-92432142D01*
X138247380Y-95369047D02*
X138247380Y-95940476D01*
X138247380Y-95654761D02*
X137247380Y-95654761D01*
X137390238Y-95750000D01*
X137485476Y-95845238D01*
X137533095Y-95940476D01*
X138247380Y-94940476D02*
X137247380Y-94940476D01*
X137866428Y-94845238D02*
X138247380Y-94559523D01*
X137580714Y-94559523D02*
X137961666Y-94940476D01*
X153503333Y-92527380D02*
X153170000Y-92051190D01*
X152931904Y-92527380D02*
X152931904Y-91527380D01*
X153312857Y-91527380D01*
X153408095Y-91575000D01*
X153455714Y-91622619D01*
X153503333Y-91717857D01*
X153503333Y-91860714D01*
X153455714Y-91955952D01*
X153408095Y-92003571D01*
X153312857Y-92051190D01*
X152931904Y-92051190D01*
X154360476Y-91860714D02*
X154360476Y-92527380D01*
X154122380Y-91479761D02*
X153884285Y-92194047D01*
X154503333Y-92194047D01*
X154122380Y-95369047D02*
X154122380Y-95940476D01*
X154122380Y-95654761D02*
X153122380Y-95654761D01*
X153265238Y-95750000D01*
X153360476Y-95845238D01*
X153408095Y-95940476D01*
X154122380Y-94940476D02*
X153122380Y-94940476D01*
X153741428Y-94845238D02*
X154122380Y-94559523D01*
X153455714Y-94559523D02*
X153836666Y-94940476D01*
X128103333Y-92527380D02*
X127770000Y-92051190D01*
X127531904Y-92527380D02*
X127531904Y-91527380D01*
X127912857Y-91527380D01*
X128008095Y-91575000D01*
X128055714Y-91622619D01*
X128103333Y-91717857D01*
X128103333Y-91860714D01*
X128055714Y-91955952D01*
X128008095Y-92003571D01*
X127912857Y-92051190D01*
X127531904Y-92051190D01*
X129008095Y-91527380D02*
X128531904Y-91527380D01*
X128484285Y-92003571D01*
X128531904Y-91955952D01*
X128627142Y-91908333D01*
X128865238Y-91908333D01*
X128960476Y-91955952D01*
X129008095Y-92003571D01*
X129055714Y-92098809D01*
X129055714Y-92336904D01*
X129008095Y-92432142D01*
X128960476Y-92479761D01*
X128865238Y-92527380D01*
X128627142Y-92527380D01*
X128531904Y-92479761D01*
X128484285Y-92432142D01*
X128722380Y-95369047D02*
X128722380Y-95940476D01*
X128722380Y-95654761D02*
X127722380Y-95654761D01*
X127865238Y-95750000D01*
X127960476Y-95845238D01*
X128008095Y-95940476D01*
X128722380Y-94940476D02*
X127722380Y-94940476D01*
X128341428Y-94845238D02*
X128722380Y-94559523D01*
X128055714Y-94559523D02*
X128436666Y-94940476D01*
X124928333Y-92527380D02*
X124595000Y-92051190D01*
X124356904Y-92527380D02*
X124356904Y-91527380D01*
X124737857Y-91527380D01*
X124833095Y-91575000D01*
X124880714Y-91622619D01*
X124928333Y-91717857D01*
X124928333Y-91860714D01*
X124880714Y-91955952D01*
X124833095Y-92003571D01*
X124737857Y-92051190D01*
X124356904Y-92051190D01*
X125785476Y-91527380D02*
X125595000Y-91527380D01*
X125499761Y-91575000D01*
X125452142Y-91622619D01*
X125356904Y-91765476D01*
X125309285Y-91955952D01*
X125309285Y-92336904D01*
X125356904Y-92432142D01*
X125404523Y-92479761D01*
X125499761Y-92527380D01*
X125690238Y-92527380D01*
X125785476Y-92479761D01*
X125833095Y-92432142D01*
X125880714Y-92336904D01*
X125880714Y-92098809D01*
X125833095Y-92003571D01*
X125785476Y-91955952D01*
X125690238Y-91908333D01*
X125499761Y-91908333D01*
X125404523Y-91955952D01*
X125356904Y-92003571D01*
X125309285Y-92098809D01*
X125547380Y-95369047D02*
X125547380Y-95940476D01*
X125547380Y-95654761D02*
X124547380Y-95654761D01*
X124690238Y-95750000D01*
X124785476Y-95845238D01*
X124833095Y-95940476D01*
X125547380Y-94940476D02*
X124547380Y-94940476D01*
X125166428Y-94845238D02*
X125547380Y-94559523D01*
X124880714Y-94559523D02*
X125261666Y-94940476D01*
X131278333Y-92527380D02*
X130945000Y-92051190D01*
X130706904Y-92527380D02*
X130706904Y-91527380D01*
X131087857Y-91527380D01*
X131183095Y-91575000D01*
X131230714Y-91622619D01*
X131278333Y-91717857D01*
X131278333Y-91860714D01*
X131230714Y-91955952D01*
X131183095Y-92003571D01*
X131087857Y-92051190D01*
X130706904Y-92051190D01*
X131611666Y-91527380D02*
X132278333Y-91527380D01*
X131849761Y-92527380D01*
X131897380Y-95369047D02*
X131897380Y-95940476D01*
X131897380Y-95654761D02*
X130897380Y-95654761D01*
X131040238Y-95750000D01*
X131135476Y-95845238D01*
X131183095Y-95940476D01*
X131897380Y-94940476D02*
X130897380Y-94940476D01*
X131516428Y-94845238D02*
X131897380Y-94559523D01*
X131230714Y-94559523D02*
X131611666Y-94940476D01*
X121753333Y-92527380D02*
X121420000Y-92051190D01*
X121181904Y-92527380D02*
X121181904Y-91527380D01*
X121562857Y-91527380D01*
X121658095Y-91575000D01*
X121705714Y-91622619D01*
X121753333Y-91717857D01*
X121753333Y-91860714D01*
X121705714Y-91955952D01*
X121658095Y-92003571D01*
X121562857Y-92051190D01*
X121181904Y-92051190D01*
X122324761Y-91955952D02*
X122229523Y-91908333D01*
X122181904Y-91860714D01*
X122134285Y-91765476D01*
X122134285Y-91717857D01*
X122181904Y-91622619D01*
X122229523Y-91575000D01*
X122324761Y-91527380D01*
X122515238Y-91527380D01*
X122610476Y-91575000D01*
X122658095Y-91622619D01*
X122705714Y-91717857D01*
X122705714Y-91765476D01*
X122658095Y-91860714D01*
X122610476Y-91908333D01*
X122515238Y-91955952D01*
X122324761Y-91955952D01*
X122229523Y-92003571D01*
X122181904Y-92051190D01*
X122134285Y-92146428D01*
X122134285Y-92336904D01*
X122181904Y-92432142D01*
X122229523Y-92479761D01*
X122324761Y-92527380D01*
X122515238Y-92527380D01*
X122610476Y-92479761D01*
X122658095Y-92432142D01*
X122705714Y-92336904D01*
X122705714Y-92146428D01*
X122658095Y-92051190D01*
X122610476Y-92003571D01*
X122515238Y-91955952D01*
X122372380Y-95369047D02*
X122372380Y-95940476D01*
X122372380Y-95654761D02*
X121372380Y-95654761D01*
X121515238Y-95750000D01*
X121610476Y-95845238D01*
X121658095Y-95940476D01*
X122372380Y-94940476D02*
X121372380Y-94940476D01*
X121991428Y-94845238D02*
X122372380Y-94559523D01*
X121705714Y-94559523D02*
X122086666Y-94940476D01*
X160528095Y-82637380D02*
X160528095Y-83446904D01*
X160575714Y-83542142D01*
X160623333Y-83589761D01*
X160718571Y-83637380D01*
X160909047Y-83637380D01*
X161004285Y-83589761D01*
X161051904Y-83542142D01*
X161099523Y-83446904D01*
X161099523Y-82637380D01*
X162099523Y-83637380D02*
X161528095Y-83637380D01*
X161813809Y-83637380D02*
X161813809Y-82637380D01*
X161718571Y-82780238D01*
X161623333Y-82875476D01*
X161528095Y-82923095D01*
X161647142Y-91630238D02*
X161694761Y-91677857D01*
X161742380Y-91820714D01*
X161742380Y-91915952D01*
X161694761Y-92058809D01*
X161599523Y-92154047D01*
X161504285Y-92201666D01*
X161313809Y-92249285D01*
X161170952Y-92249285D01*
X160980476Y-92201666D01*
X160885238Y-92154047D01*
X160790000Y-92058809D01*
X160742380Y-91915952D01*
X160742380Y-91820714D01*
X160790000Y-91677857D01*
X160837619Y-91630238D01*
X161742380Y-91201666D02*
X160742380Y-91201666D01*
X160742380Y-90963571D01*
X160790000Y-90820714D01*
X160885238Y-90725476D01*
X160980476Y-90677857D01*
X161170952Y-90630238D01*
X161313809Y-90630238D01*
X161504285Y-90677857D01*
X161599523Y-90725476D01*
X161694761Y-90820714D01*
X161742380Y-90963571D01*
X161742380Y-91201666D01*
X161075714Y-89773095D02*
X161742380Y-89773095D01*
X160694761Y-90011190D02*
X161409047Y-90249285D01*
X161409047Y-89630238D01*
X160742380Y-89058809D02*
X160742380Y-88963571D01*
X160790000Y-88868333D01*
X160837619Y-88820714D01*
X160932857Y-88773095D01*
X161123333Y-88725476D01*
X161361428Y-88725476D01*
X161551904Y-88773095D01*
X161647142Y-88820714D01*
X161694761Y-88868333D01*
X161742380Y-88963571D01*
X161742380Y-89058809D01*
X161694761Y-89154047D01*
X161647142Y-89201666D01*
X161551904Y-89249285D01*
X161361428Y-89296904D01*
X161123333Y-89296904D01*
X160932857Y-89249285D01*
X160837619Y-89201666D01*
X160790000Y-89154047D01*
X160742380Y-89058809D01*
X160837619Y-88344523D02*
X160790000Y-88296904D01*
X160742380Y-88201666D01*
X160742380Y-87963571D01*
X160790000Y-87868333D01*
X160837619Y-87820714D01*
X160932857Y-87773095D01*
X161028095Y-87773095D01*
X161170952Y-87820714D01*
X161742380Y-88392142D01*
X161742380Y-87773095D01*
X161742380Y-86820714D02*
X161742380Y-87392142D01*
X161742380Y-87106428D02*
X160742380Y-87106428D01*
X160885238Y-87201666D01*
X160980476Y-87296904D01*
X161028095Y-87392142D01*
X160528095Y-82637380D02*
X160528095Y-83446904D01*
X160575714Y-83542142D01*
X160623333Y-83589761D01*
X160718571Y-83637380D01*
X160909047Y-83637380D01*
X161004285Y-83589761D01*
X161051904Y-83542142D01*
X161099523Y-83446904D01*
X161099523Y-82637380D01*
X162099523Y-83637380D02*
X161528095Y-83637380D01*
X161813809Y-83637380D02*
X161813809Y-82637380D01*
X161718571Y-82780238D01*
X161623333Y-82875476D01*
X161528095Y-82923095D01*
M02*
