G04 #@! TF.GenerationSoftware,KiCad,Pcbnew,(5.1.8)-1*
G04 #@! TF.CreationDate,2022-03-05T16:35:52+01:00*
G04 #@! TF.ProjectId,NES,4e45532e-6b69-4636-9164-5f7063625858,rev?*
G04 #@! TF.SameCoordinates,Original*
G04 #@! TF.FileFunction,Soldermask,Top*
G04 #@! TF.FilePolarity,Negative*
%FSLAX46Y46*%
G04 Gerber Fmt 4.6, Leading zero omitted, Abs format (unit mm)*
G04 Created by KiCad (PCBNEW (5.1.8)-1) date 2022-03-05 16:35:52*
%MOMM*%
%LPD*%
G01*
G04 APERTURE LIST*
%ADD10O,3.000000X5.000000*%
%ADD11O,1.800000X2.500000*%
%ADD12R,1.800000X2.500000*%
%ADD13O,1.727200X1.727200*%
%ADD14R,1.727200X1.727200*%
%ADD15C,1.600000*%
%ADD16C,2.000000*%
%ADD17C,5.100000*%
%ADD18R,1.700000X1.700000*%
%ADD19O,1.700000X1.700000*%
%ADD20O,1.600000X1.600000*%
%ADD21R,2.400000X1.600000*%
%ADD22O,2.400000X1.600000*%
G04 APERTURE END LIST*
D10*
X147955000Y-77597000D03*
X140335000Y-77597000D03*
D11*
X151765000Y-84455000D03*
X149225000Y-84455000D03*
X146685000Y-84455000D03*
X144145000Y-84455000D03*
X141605000Y-84455000D03*
X139065000Y-84455000D03*
D12*
X136525000Y-84455000D03*
D13*
X160655000Y-105410000D03*
X158115000Y-105410000D03*
X155575000Y-105410000D03*
X153035000Y-105410000D03*
X150495000Y-105410000D03*
X160655000Y-107950000D03*
X158115000Y-107950000D03*
X155575000Y-107950000D03*
X153035000Y-107950000D03*
D14*
X150495000Y-107950000D03*
D15*
X163830000Y-76835000D03*
X158830000Y-76835000D03*
D14*
X127635000Y-107950000D03*
D13*
X130175000Y-107950000D03*
X132715000Y-107950000D03*
X135255000Y-107950000D03*
X137795000Y-107950000D03*
X127635000Y-105410000D03*
X130175000Y-105410000D03*
X132715000Y-105410000D03*
X135255000Y-105410000D03*
X137795000Y-105410000D03*
D16*
X140895000Y-94960000D03*
X140895000Y-90460000D03*
X147395000Y-94960000D03*
X147395000Y-90460000D03*
D17*
X118745000Y-107950000D03*
X169545000Y-107950000D03*
X169545000Y-77470000D03*
X118745000Y-77455001D03*
D18*
X170180000Y-98425000D03*
D19*
X170180000Y-95885000D03*
D20*
X134620000Y-99060000D03*
D15*
X134620000Y-88900000D03*
X150495000Y-88900000D03*
D20*
X150495000Y-99060000D03*
X137795000Y-99060000D03*
D15*
X137795000Y-88900000D03*
X153670000Y-88900000D03*
D20*
X153670000Y-99060000D03*
X128270000Y-99060000D03*
D15*
X128270000Y-88900000D03*
X125095000Y-88900000D03*
D20*
X125095000Y-99060000D03*
X131445000Y-99060000D03*
D15*
X131445000Y-88900000D03*
X121920000Y-88900000D03*
D20*
X121920000Y-99060000D03*
D21*
X157480000Y-80645000D03*
D22*
X165100000Y-98425000D03*
X157480000Y-83185000D03*
X165100000Y-95885000D03*
X157480000Y-85725000D03*
X165100000Y-93345000D03*
X157480000Y-88265000D03*
X165100000Y-90805000D03*
X157480000Y-90805000D03*
X165100000Y-88265000D03*
X157480000Y-93345000D03*
X165100000Y-85725000D03*
X157480000Y-95885000D03*
X165100000Y-83185000D03*
X157480000Y-98425000D03*
X165100000Y-80645000D03*
M02*
