G04 #@! TF.GenerationSoftware,KiCad,Pcbnew,(5.1.8)-1*
G04 #@! TF.CreationDate,2021-01-30T00:00:37+01:00*
G04 #@! TF.ProjectId,C64 Arcade,43363420-4172-4636-9164-652e6b696361,rev?*
G04 #@! TF.SameCoordinates,Original*
G04 #@! TF.FileFunction,Copper,L1,Top*
G04 #@! TF.FilePolarity,Positive*
%FSLAX46Y46*%
G04 Gerber Fmt 4.6, Leading zero omitted, Abs format (unit mm)*
G04 Created by KiCad (PCBNEW (5.1.8)-1) date 2021-01-30 00:00:37*
%MOMM*%
%LPD*%
G01*
G04 APERTURE LIST*
G04 #@! TA.AperFunction,ComponentPad*
%ADD10R,1.700000X1.700000*%
G04 #@! TD*
G04 #@! TA.AperFunction,ComponentPad*
%ADD11O,1.700000X1.700000*%
G04 #@! TD*
G04 #@! TA.AperFunction,ComponentPad*
%ADD12C,1.600000*%
G04 #@! TD*
G04 #@! TA.AperFunction,ComponentPad*
%ADD13O,1.600000X1.600000*%
G04 #@! TD*
G04 #@! TA.AperFunction,ComponentPad*
%ADD14R,1.600000X1.600000*%
G04 #@! TD*
G04 #@! TA.AperFunction,ComponentPad*
%ADD15R,1.500000X1.500000*%
G04 #@! TD*
G04 #@! TA.AperFunction,ComponentPad*
%ADD16O,1.500000X1.500000*%
G04 #@! TD*
G04 #@! TA.AperFunction,ComponentPad*
%ADD17C,1.700000*%
G04 #@! TD*
G04 #@! TA.AperFunction,ComponentPad*
%ADD18C,3.500000*%
G04 #@! TD*
G04 #@! TA.AperFunction,ComponentPad*
%ADD19C,2.000000*%
G04 #@! TD*
G04 #@! TA.AperFunction,ComponentPad*
%ADD20R,1.727200X1.727200*%
G04 #@! TD*
G04 #@! TA.AperFunction,ComponentPad*
%ADD21O,1.727200X1.727200*%
G04 #@! TD*
G04 #@! TA.AperFunction,ComponentPad*
%ADD22O,2.200000X2.200000*%
G04 #@! TD*
G04 #@! TA.AperFunction,ComponentPad*
%ADD23R,2.200000X2.200000*%
G04 #@! TD*
G04 #@! TA.AperFunction,ComponentPad*
%ADD24O,2.000000X1.700000*%
G04 #@! TD*
G04 #@! TA.AperFunction,ComponentPad*
%ADD25O,1.700000X1.950000*%
G04 #@! TD*
G04 #@! TA.AperFunction,ViaPad*
%ADD26C,0.800000*%
G04 #@! TD*
G04 #@! TA.AperFunction,Conductor*
%ADD27C,0.250000*%
G04 #@! TD*
G04 #@! TA.AperFunction,Conductor*
%ADD28C,0.381000*%
G04 #@! TD*
G04 APERTURE END LIST*
D10*
X233045000Y-127000000D03*
D11*
X233045000Y-129540000D03*
D12*
X142875000Y-104775000D03*
D13*
X153035000Y-104775000D03*
X165735000Y-107950000D03*
D12*
X155575000Y-107950000D03*
X155575000Y-104775000D03*
D13*
X165735000Y-104775000D03*
D12*
X142875000Y-107950000D03*
D13*
X153035000Y-107950000D03*
D12*
X166370000Y-119380000D03*
D13*
X166370000Y-129540000D03*
D14*
X179705000Y-119380000D03*
D13*
X187325000Y-119380000D03*
D15*
X210820000Y-107950000D03*
D16*
X205740000Y-107950000D03*
X208280000Y-107950000D03*
D12*
X202565000Y-107950000D03*
D13*
X192405000Y-107950000D03*
D17*
X172085000Y-114935000D03*
X172085000Y-112395000D03*
X172085000Y-109855000D03*
X172085000Y-107315000D03*
X172085000Y-104775000D03*
X172085000Y-102235000D03*
X172085000Y-99695000D03*
X172085000Y-97155000D03*
X172085000Y-94615000D03*
X172085000Y-92075000D03*
X172085000Y-89535000D03*
X172085000Y-86995000D03*
X169545000Y-89535000D03*
X169545000Y-92075000D03*
X169545000Y-94615000D03*
X169545000Y-97155000D03*
X169545000Y-99695000D03*
X169545000Y-102235000D03*
X169545000Y-104775000D03*
X169545000Y-107315000D03*
X169545000Y-109855000D03*
X169545000Y-112395000D03*
X169545000Y-114935000D03*
X187325000Y-114935000D03*
X187325000Y-112395000D03*
X187325000Y-109855000D03*
X187325000Y-107315000D03*
X187325000Y-104775000D03*
X187325000Y-102235000D03*
X187325000Y-99695000D03*
X187325000Y-97155000D03*
X187325000Y-94615000D03*
X187325000Y-92075000D03*
X187325000Y-89535000D03*
X187325000Y-86995000D03*
X169545000Y-86995000D03*
D18*
X144145000Y-134620000D03*
X237490000Y-134620000D03*
X237490000Y-85725000D03*
X144145000Y-85725000D03*
D19*
X176680000Y-124460000D03*
X176680000Y-128960000D03*
X170180000Y-124460000D03*
X170180000Y-128960000D03*
D10*
X233045000Y-116840000D03*
D11*
X233045000Y-119380000D03*
X233045000Y-121920000D03*
X233045000Y-111760000D03*
X233045000Y-109220000D03*
D10*
X233045000Y-106680000D03*
D11*
X233045000Y-101600000D03*
X233045000Y-99060000D03*
D10*
X233045000Y-96520000D03*
D20*
X194945000Y-88900000D03*
D21*
X197485000Y-88900000D03*
X200025000Y-88900000D03*
X202565000Y-88900000D03*
X205105000Y-88900000D03*
X194945000Y-86360000D03*
X197485000Y-86360000D03*
X200025000Y-86360000D03*
X202565000Y-86360000D03*
X205105000Y-86360000D03*
X227965000Y-86360000D03*
X225425000Y-86360000D03*
X222885000Y-86360000D03*
X220345000Y-86360000D03*
X217805000Y-86360000D03*
X227965000Y-88900000D03*
X225425000Y-88900000D03*
X222885000Y-88900000D03*
X220345000Y-88900000D03*
D20*
X217805000Y-88900000D03*
D22*
X202565000Y-96520000D03*
D23*
X192405000Y-96520000D03*
D12*
X192405000Y-100330000D03*
D13*
X202565000Y-100330000D03*
X202565000Y-104140000D03*
D12*
X192405000Y-104140000D03*
X142875000Y-101600000D03*
D13*
X153035000Y-101600000D03*
X155575000Y-101600000D03*
D12*
X165735000Y-101600000D03*
D11*
X185420000Y-124460000D03*
D10*
X185420000Y-127000000D03*
X181610000Y-127000000D03*
D11*
X181610000Y-124460000D03*
D13*
X169545000Y-119380000D03*
D14*
X177165000Y-119380000D03*
D13*
X190500000Y-129540000D03*
D12*
X190500000Y-119380000D03*
D24*
X157480000Y-85725000D03*
G04 #@! TA.AperFunction,ComponentPad*
G36*
G01*
X158230000Y-89075000D02*
X156730000Y-89075000D01*
G75*
G02*
X156480000Y-88825000I0J250000D01*
G01*
X156480000Y-87625000D01*
G75*
G02*
X156730000Y-87375000I250000J0D01*
G01*
X158230000Y-87375000D01*
G75*
G02*
X158480000Y-87625000I0J-250000D01*
G01*
X158480000Y-88825000D01*
G75*
G02*
X158230000Y-89075000I-250000J0D01*
G01*
G37*
G04 #@! TD.AperFunction*
G04 #@! TA.AperFunction,ComponentPad*
G36*
G01*
X164580000Y-89075000D02*
X163080000Y-89075000D01*
G75*
G02*
X162830000Y-88825000I0J250000D01*
G01*
X162830000Y-87625000D01*
G75*
G02*
X163080000Y-87375000I250000J0D01*
G01*
X164580000Y-87375000D01*
G75*
G02*
X164830000Y-87625000I0J-250000D01*
G01*
X164830000Y-88825000D01*
G75*
G02*
X164580000Y-89075000I-250000J0D01*
G01*
G37*
G04 #@! TD.AperFunction*
X163830000Y-85725000D03*
G04 #@! TA.AperFunction,ComponentPad*
G36*
G01*
X158230000Y-97330000D02*
X156730000Y-97330000D01*
G75*
G02*
X156480000Y-97080000I0J250000D01*
G01*
X156480000Y-95880000D01*
G75*
G02*
X156730000Y-95630000I250000J0D01*
G01*
X158230000Y-95630000D01*
G75*
G02*
X158480000Y-95880000I0J-250000D01*
G01*
X158480000Y-97080000D01*
G75*
G02*
X158230000Y-97330000I-250000J0D01*
G01*
G37*
G04 #@! TD.AperFunction*
X157480000Y-93980000D03*
X144780000Y-93980000D03*
G04 #@! TA.AperFunction,ComponentPad*
G36*
G01*
X145530000Y-97330000D02*
X144030000Y-97330000D01*
G75*
G02*
X143780000Y-97080000I0J250000D01*
G01*
X143780000Y-95880000D01*
G75*
G02*
X144030000Y-95630000I250000J0D01*
G01*
X145530000Y-95630000D01*
G75*
G02*
X145780000Y-95880000I0J-250000D01*
G01*
X145780000Y-97080000D01*
G75*
G02*
X145530000Y-97330000I-250000J0D01*
G01*
G37*
G04 #@! TD.AperFunction*
X151130000Y-93980000D03*
G04 #@! TA.AperFunction,ComponentPad*
G36*
G01*
X151880000Y-97330000D02*
X150380000Y-97330000D01*
G75*
G02*
X150130000Y-97080000I0J250000D01*
G01*
X150130000Y-95880000D01*
G75*
G02*
X150380000Y-95630000I250000J0D01*
G01*
X151880000Y-95630000D01*
G75*
G02*
X152130000Y-95880000I0J-250000D01*
G01*
X152130000Y-97080000D01*
G75*
G02*
X151880000Y-97330000I-250000J0D01*
G01*
G37*
G04 #@! TD.AperFunction*
X163830000Y-93980000D03*
G04 #@! TA.AperFunction,ComponentPad*
G36*
G01*
X164580000Y-97330000D02*
X163080000Y-97330000D01*
G75*
G02*
X162830000Y-97080000I0J250000D01*
G01*
X162830000Y-95880000D01*
G75*
G02*
X163080000Y-95630000I250000J0D01*
G01*
X164580000Y-95630000D01*
G75*
G02*
X164830000Y-95880000I0J-250000D01*
G01*
X164830000Y-97080000D01*
G75*
G02*
X164580000Y-97330000I-250000J0D01*
G01*
G37*
G04 #@! TD.AperFunction*
G04 #@! TA.AperFunction,ComponentPad*
G36*
G01*
X211670000Y-116115000D02*
X211670000Y-117565000D01*
G75*
G02*
X211420000Y-117815000I-250000J0D01*
G01*
X210220000Y-117815000D01*
G75*
G02*
X209970000Y-117565000I0J250000D01*
G01*
X209970000Y-116115000D01*
G75*
G02*
X210220000Y-115865000I250000J0D01*
G01*
X211420000Y-115865000D01*
G75*
G02*
X211670000Y-116115000I0J-250000D01*
G01*
G37*
G04 #@! TD.AperFunction*
D25*
X208320000Y-116840000D03*
X205820000Y-116840000D03*
X203320000Y-116840000D03*
X200820000Y-116840000D03*
D24*
X221615000Y-125770000D03*
G04 #@! TA.AperFunction,ComponentPad*
G36*
G01*
X222365000Y-129120000D02*
X220865000Y-129120000D01*
G75*
G02*
X220615000Y-128870000I0J250000D01*
G01*
X220615000Y-127670000D01*
G75*
G02*
X220865000Y-127420000I250000J0D01*
G01*
X222365000Y-127420000D01*
G75*
G02*
X222615000Y-127670000I0J-250000D01*
G01*
X222615000Y-128870000D01*
G75*
G02*
X222365000Y-129120000I-250000J0D01*
G01*
G37*
G04 #@! TD.AperFunction*
X214630000Y-125770000D03*
G04 #@! TA.AperFunction,ComponentPad*
G36*
G01*
X215380000Y-129120000D02*
X213880000Y-129120000D01*
G75*
G02*
X213630000Y-128870000I0J250000D01*
G01*
X213630000Y-127670000D01*
G75*
G02*
X213880000Y-127420000I250000J0D01*
G01*
X215380000Y-127420000D01*
G75*
G02*
X215630000Y-127670000I0J-250000D01*
G01*
X215630000Y-128870000D01*
G75*
G02*
X215380000Y-129120000I-250000J0D01*
G01*
G37*
G04 #@! TD.AperFunction*
G04 #@! TA.AperFunction,ComponentPad*
G36*
G01*
X208395000Y-129120000D02*
X206895000Y-129120000D01*
G75*
G02*
X206645000Y-128870000I0J250000D01*
G01*
X206645000Y-127670000D01*
G75*
G02*
X206895000Y-127420000I250000J0D01*
G01*
X208395000Y-127420000D01*
G75*
G02*
X208645000Y-127670000I0J-250000D01*
G01*
X208645000Y-128870000D01*
G75*
G02*
X208395000Y-129120000I-250000J0D01*
G01*
G37*
G04 #@! TD.AperFunction*
X207645000Y-125770000D03*
G04 #@! TA.AperFunction,ComponentPad*
G36*
G01*
X201410000Y-129120000D02*
X199910000Y-129120000D01*
G75*
G02*
X199660000Y-128870000I0J250000D01*
G01*
X199660000Y-127670000D01*
G75*
G02*
X199910000Y-127420000I250000J0D01*
G01*
X201410000Y-127420000D01*
G75*
G02*
X201660000Y-127670000I0J-250000D01*
G01*
X201660000Y-128870000D01*
G75*
G02*
X201410000Y-129120000I-250000J0D01*
G01*
G37*
G04 #@! TD.AperFunction*
X200660000Y-125770000D03*
X144780000Y-125770000D03*
G04 #@! TA.AperFunction,ComponentPad*
G36*
G01*
X145530000Y-129120000D02*
X144030000Y-129120000D01*
G75*
G02*
X143780000Y-128870000I0J250000D01*
G01*
X143780000Y-127670000D01*
G75*
G02*
X144030000Y-127420000I250000J0D01*
G01*
X145530000Y-127420000D01*
G75*
G02*
X145780000Y-127670000I0J-250000D01*
G01*
X145780000Y-128870000D01*
G75*
G02*
X145530000Y-129120000I-250000J0D01*
G01*
G37*
G04 #@! TD.AperFunction*
G04 #@! TA.AperFunction,ComponentPad*
G36*
G01*
X151880000Y-129120000D02*
X150380000Y-129120000D01*
G75*
G02*
X150130000Y-128870000I0J250000D01*
G01*
X150130000Y-127670000D01*
G75*
G02*
X150380000Y-127420000I250000J0D01*
G01*
X151880000Y-127420000D01*
G75*
G02*
X152130000Y-127670000I0J-250000D01*
G01*
X152130000Y-128870000D01*
G75*
G02*
X151880000Y-129120000I-250000J0D01*
G01*
G37*
G04 #@! TD.AperFunction*
X151130000Y-125770000D03*
G04 #@! TA.AperFunction,ComponentPad*
G36*
G01*
X158230000Y-129120000D02*
X156730000Y-129120000D01*
G75*
G02*
X156480000Y-128870000I0J250000D01*
G01*
X156480000Y-127670000D01*
G75*
G02*
X156730000Y-127420000I250000J0D01*
G01*
X158230000Y-127420000D01*
G75*
G02*
X158480000Y-127670000I0J-250000D01*
G01*
X158480000Y-128870000D01*
G75*
G02*
X158230000Y-129120000I-250000J0D01*
G01*
G37*
G04 #@! TD.AperFunction*
X157480000Y-125770000D03*
X144780000Y-113070000D03*
G04 #@! TA.AperFunction,ComponentPad*
G36*
G01*
X145530000Y-116420000D02*
X144030000Y-116420000D01*
G75*
G02*
X143780000Y-116170000I0J250000D01*
G01*
X143780000Y-114970000D01*
G75*
G02*
X144030000Y-114720000I250000J0D01*
G01*
X145530000Y-114720000D01*
G75*
G02*
X145780000Y-114970000I0J-250000D01*
G01*
X145780000Y-116170000D01*
G75*
G02*
X145530000Y-116420000I-250000J0D01*
G01*
G37*
G04 #@! TD.AperFunction*
G04 #@! TA.AperFunction,ComponentPad*
G36*
G01*
X151880000Y-116420000D02*
X150380000Y-116420000D01*
G75*
G02*
X150130000Y-116170000I0J250000D01*
G01*
X150130000Y-114970000D01*
G75*
G02*
X150380000Y-114720000I250000J0D01*
G01*
X151880000Y-114720000D01*
G75*
G02*
X152130000Y-114970000I0J-250000D01*
G01*
X152130000Y-116170000D01*
G75*
G02*
X151880000Y-116420000I-250000J0D01*
G01*
G37*
G04 #@! TD.AperFunction*
X151130000Y-113070000D03*
X157480000Y-113070000D03*
G04 #@! TA.AperFunction,ComponentPad*
G36*
G01*
X158230000Y-116420000D02*
X156730000Y-116420000D01*
G75*
G02*
X156480000Y-116170000I0J250000D01*
G01*
X156480000Y-114970000D01*
G75*
G02*
X156730000Y-114720000I250000J0D01*
G01*
X158230000Y-114720000D01*
G75*
G02*
X158480000Y-114970000I0J-250000D01*
G01*
X158480000Y-116170000D01*
G75*
G02*
X158230000Y-116420000I-250000J0D01*
G01*
G37*
G04 #@! TD.AperFunction*
X151130000Y-85765000D03*
G04 #@! TA.AperFunction,ComponentPad*
G36*
G01*
X151880000Y-89115000D02*
X150380000Y-89115000D01*
G75*
G02*
X150130000Y-88865000I0J250000D01*
G01*
X150130000Y-87665000D01*
G75*
G02*
X150380000Y-87415000I250000J0D01*
G01*
X151880000Y-87415000D01*
G75*
G02*
X152130000Y-87665000I0J-250000D01*
G01*
X152130000Y-88865000D01*
G75*
G02*
X151880000Y-89115000I-250000J0D01*
G01*
G37*
G04 #@! TD.AperFunction*
D10*
X209550000Y-96520000D03*
D11*
X207010000Y-96520000D03*
D26*
X210340500Y-87630000D03*
X141605000Y-111125014D03*
X207489500Y-86839484D03*
X227075995Y-90931995D03*
X227076000Y-108077000D03*
X227076000Y-103251000D03*
X167005000Y-95885000D03*
X226187000Y-91567000D03*
X226187000Y-107060996D03*
X226187000Y-102552500D03*
X225438755Y-108070775D03*
X211899500Y-114681002D03*
X208320000Y-114665815D03*
X225425000Y-103251000D03*
X224716011Y-107091773D03*
X212571910Y-113940805D03*
X203327000Y-113919000D03*
X224683105Y-102540355D03*
X205820000Y-113030000D03*
X223988744Y-108013500D03*
X211899500Y-113030000D03*
X223941163Y-103227663D03*
X223202500Y-107124500D03*
X223194617Y-102545485D03*
X184023000Y-94996000D03*
X184023004Y-116078004D03*
X201549000Y-102425500D03*
X191770000Y-102425500D03*
X199199500Y-102425500D03*
X167168990Y-102870000D03*
X160782004Y-116712996D03*
X186272010Y-103505000D03*
X181848000Y-100965000D03*
X183022997Y-114390000D03*
X184785000Y-122555000D03*
X162179000Y-116459006D03*
X166370000Y-110400000D03*
X183298000Y-108040000D03*
X183298000Y-100965000D03*
X165354000Y-110363000D03*
X160655000Y-114300000D03*
X182573000Y-104230000D03*
X183261000Y-99441000D03*
X186055000Y-90805000D03*
X164465000Y-111850000D03*
X159250010Y-111894990D03*
X184785000Y-111850000D03*
X173990000Y-114390000D03*
X174748836Y-115041284D03*
X163285000Y-111125000D03*
X186055000Y-93345000D03*
X185547000Y-111125000D03*
D27*
X212252798Y-87630000D02*
X210340500Y-87630000D01*
X232410000Y-87630000D02*
X212252798Y-87630000D01*
X233045000Y-88265000D02*
X232410000Y-87630000D01*
X233045000Y-96520000D02*
X233045000Y-88265000D01*
X141605000Y-89535000D02*
X141605000Y-111125014D01*
X142240000Y-88900000D02*
X141605000Y-89535000D01*
X146050000Y-88900000D02*
X142240000Y-88900000D01*
X147320000Y-87630000D02*
X146050000Y-88900000D01*
X194310000Y-83185000D02*
X147955000Y-83185000D01*
X194945000Y-83820000D02*
X194310000Y-83185000D01*
X147320000Y-83820000D02*
X147320000Y-87630000D01*
X147955000Y-83185000D02*
X147320000Y-83820000D01*
X194945000Y-86360000D02*
X194945000Y-83820000D01*
X207089501Y-86439485D02*
X207489500Y-86839484D01*
X207089501Y-83899501D02*
X207089501Y-86439485D01*
X206375000Y-83185000D02*
X207089501Y-83899501D01*
X194310000Y-83185000D02*
X206375000Y-83185000D01*
X181610000Y-124460000D02*
X180975000Y-124460000D01*
X227075995Y-90931995D02*
X227075995Y-103250995D01*
X227075995Y-103250995D02*
X227076000Y-103251000D01*
X187579000Y-132080000D02*
X226060000Y-132080000D01*
X227076000Y-131064000D02*
X227076000Y-108077000D01*
X187198000Y-131699000D02*
X187579000Y-132080000D01*
X187198000Y-126238000D02*
X187198000Y-131699000D01*
X186690000Y-125730000D02*
X187198000Y-126238000D01*
X184150000Y-125730000D02*
X186690000Y-125730000D01*
X226060000Y-132080000D02*
X227076000Y-131064000D01*
X182880000Y-124460000D02*
X184150000Y-125730000D01*
X181610000Y-124460000D02*
X182880000Y-124460000D01*
X177546000Y-125984000D02*
X179070000Y-124460000D01*
X167132000Y-125984000D02*
X177546000Y-125984000D01*
X166370000Y-126746000D02*
X167132000Y-125984000D01*
X179070000Y-124460000D02*
X181610000Y-124460000D01*
X166370000Y-129540000D02*
X166370000Y-126746000D01*
D28*
X192405000Y-96520000D02*
X192405000Y-95885000D01*
X144780000Y-93980000D02*
X151130000Y-93980000D01*
X157480000Y-93980000D02*
X163830000Y-93980000D01*
X233045000Y-116840000D02*
X234315000Y-116840000D01*
X234315000Y-116840000D02*
X234950000Y-116205000D01*
X234950000Y-116205000D02*
X234950000Y-107315000D01*
X234315000Y-106680000D02*
X233045000Y-106680000D01*
X234315000Y-106680000D02*
X234950000Y-106045000D01*
X234950000Y-106045000D02*
X234950000Y-107315000D01*
X151130000Y-85765000D02*
X152440000Y-85765000D01*
X152440000Y-85765000D02*
X153035000Y-86360000D01*
X153035000Y-93345000D02*
X153670000Y-93980000D01*
X153035000Y-86360000D02*
X153035000Y-93345000D01*
X153670000Y-93980000D02*
X157480000Y-93980000D01*
X151130000Y-93980000D02*
X153670000Y-93980000D01*
X189230000Y-96520000D02*
X188595000Y-95885000D01*
X192405000Y-96520000D02*
X189230000Y-96520000D01*
X187325000Y-94615000D02*
X187325000Y-95885000D01*
X187325000Y-95885000D02*
X167005000Y-95885000D01*
X188595000Y-95885000D02*
X187325000Y-95885000D01*
X199390000Y-96520000D02*
X192405000Y-96520000D01*
X201295000Y-94615000D02*
X199390000Y-96520000D01*
X207645000Y-94615000D02*
X201295000Y-94615000D01*
X208280000Y-93980000D02*
X207645000Y-94615000D01*
X208280000Y-84455000D02*
X208280000Y-93980000D01*
X208915000Y-83820000D02*
X208280000Y-84455000D01*
X230505000Y-83820000D02*
X208915000Y-83820000D01*
X234950000Y-88265000D02*
X230505000Y-83820000D01*
X234950000Y-106045000D02*
X234950000Y-88265000D01*
D27*
X185420000Y-124460000D02*
X184701000Y-124460000D01*
X189230000Y-124460000D02*
X190500000Y-125730000D01*
X185420000Y-124460000D02*
X189230000Y-124460000D01*
X190500000Y-129540000D02*
X190500000Y-125730000D01*
X192532000Y-131572000D02*
X225552000Y-131572000D01*
X225552000Y-131572000D02*
X226187000Y-130937000D01*
X190500000Y-129540000D02*
X192532000Y-131572000D01*
X226187000Y-130937000D02*
X226187000Y-107060996D01*
X226187000Y-91567000D02*
X226187000Y-102552500D01*
X233045000Y-101600000D02*
X228600000Y-101600000D01*
X227965000Y-100965000D02*
X227965000Y-88900000D01*
X228600000Y-101600000D02*
X227965000Y-100965000D01*
X208320000Y-119380000D02*
X208320000Y-116840000D01*
X208915000Y-124460000D02*
X208320000Y-123865000D01*
X208320000Y-123865000D02*
X208320000Y-119380000D01*
X213995000Y-124460000D02*
X208915000Y-124460000D01*
X214630000Y-125095000D02*
X213995000Y-124460000D01*
X214630000Y-125770000D02*
X214630000Y-125095000D01*
X208320000Y-116840000D02*
X208320000Y-114665815D01*
X222630998Y-114681002D02*
X211899500Y-114681002D01*
X225438755Y-111873245D02*
X222630998Y-114681002D01*
X225438755Y-108070775D02*
X225438755Y-111873245D01*
X225425000Y-88900000D02*
X225425000Y-103251000D01*
X188595000Y-104775000D02*
X187325000Y-104775000D01*
X190246000Y-106426000D02*
X188595000Y-104775000D01*
X193421000Y-106426000D02*
X190246000Y-106426000D01*
X196215000Y-109220000D02*
X193421000Y-106426000D01*
X196215000Y-110490000D02*
X196215000Y-109220000D01*
X196850000Y-111125000D02*
X196215000Y-110490000D01*
X207645000Y-111125000D02*
X196850000Y-111125000D01*
X208320000Y-111800000D02*
X207645000Y-111125000D01*
X208320000Y-114665815D02*
X208320000Y-111800000D01*
X203320000Y-123110000D02*
X200660000Y-125770000D01*
X203320000Y-119380000D02*
X203320000Y-123110000D01*
X203320000Y-119380000D02*
X203320000Y-116840000D01*
X203320000Y-113926000D02*
X203327000Y-113919000D01*
X203320000Y-116840000D02*
X203320000Y-113926000D01*
X222545695Y-113940805D02*
X212571910Y-113940805D01*
X224713745Y-111772755D02*
X222545695Y-113940805D01*
X224713745Y-107094039D02*
X224713745Y-111772755D01*
X224716011Y-107091773D02*
X224713745Y-107094039D01*
X222885000Y-88900000D02*
X224683105Y-90698105D01*
X224683105Y-90698105D02*
X224683105Y-102540355D01*
X203327000Y-113157000D02*
X203327000Y-113919000D01*
X202565000Y-112395000D02*
X203327000Y-113157000D01*
X194945000Y-111760000D02*
X195580000Y-112395000D01*
X194945000Y-110490000D02*
X194945000Y-111760000D01*
X194310000Y-109855000D02*
X194945000Y-110490000D01*
X195580000Y-112395000D02*
X202565000Y-112395000D01*
X187325000Y-109855000D02*
X194310000Y-109855000D01*
X205820000Y-123945000D02*
X207645000Y-125770000D01*
X205820000Y-119380000D02*
X205820000Y-123945000D01*
X205820000Y-119380000D02*
X205820000Y-116840000D01*
X220345000Y-88900000D02*
X220345000Y-89535000D01*
X205820000Y-116840000D02*
X205820000Y-113030000D01*
X223988744Y-111608756D02*
X222567500Y-113030000D01*
X222567500Y-113030000D02*
X211899500Y-113030000D01*
X223988744Y-108013500D02*
X223988744Y-111608756D01*
X223941163Y-92496163D02*
X223941163Y-103227663D01*
X220345000Y-88900000D02*
X223941163Y-92496163D01*
X194945000Y-109220000D02*
X189230000Y-109220000D01*
X195580000Y-109855000D02*
X194945000Y-109220000D01*
X189230000Y-109220000D02*
X187325000Y-107315000D01*
X195580000Y-111125000D02*
X195580000Y-109855000D01*
X196215000Y-111760000D02*
X195580000Y-111125000D01*
X205145000Y-111760000D02*
X196215000Y-111760000D01*
X205820000Y-112435000D02*
X205145000Y-111760000D01*
X205820000Y-113030000D02*
X205820000Y-112435000D01*
X221615000Y-124460000D02*
X221615000Y-125770000D01*
X220980000Y-123825000D02*
X221615000Y-124460000D01*
X211455000Y-123825000D02*
X220980000Y-123825000D01*
X210820000Y-123190000D02*
X211455000Y-123825000D01*
X210820000Y-119380000D02*
X210820000Y-123190000D01*
X210820000Y-119380000D02*
X210820000Y-116840000D01*
X223194617Y-94289617D02*
X223194617Y-102545485D01*
X217805000Y-88900000D02*
X223194617Y-94289617D01*
X210820000Y-116840000D02*
X210820000Y-112268000D01*
X190754000Y-105664000D02*
X187325000Y-102235000D01*
X196850000Y-108585000D02*
X193929000Y-105664000D01*
X197485000Y-110490000D02*
X196850000Y-109855000D01*
X196850000Y-109855000D02*
X196850000Y-108585000D01*
X210185000Y-110490000D02*
X197485000Y-110490000D01*
X210820000Y-111125000D02*
X210185000Y-110490000D01*
X193929000Y-105664000D02*
X190754000Y-105664000D01*
X210820000Y-112198004D02*
X210820000Y-111125000D01*
X210854998Y-112233002D02*
X210820000Y-112198004D01*
X222475498Y-112233002D02*
X210854998Y-112233002D01*
X223202500Y-111506000D02*
X222475498Y-112233002D01*
X223202500Y-107124500D02*
X223202500Y-111506000D01*
X230505000Y-106045000D02*
X230505000Y-118745000D01*
X200660000Y-100965000D02*
X200660000Y-104775000D01*
X201295000Y-100330000D02*
X200660000Y-100965000D01*
X202565000Y-100330000D02*
X201295000Y-100330000D01*
X200660000Y-104775000D02*
X201414490Y-105529490D01*
X201414490Y-105529490D02*
X229989490Y-105529490D01*
X229989490Y-105529490D02*
X230505000Y-106045000D01*
X230505000Y-118745000D02*
X231140000Y-119380000D01*
X231140000Y-119380000D02*
X233045000Y-119380000D01*
X231775000Y-109220000D02*
X233045000Y-109220000D01*
X231140000Y-108585000D02*
X231775000Y-109220000D01*
X231140000Y-105410000D02*
X231140000Y-108585000D01*
X230505000Y-104775000D02*
X231140000Y-105410000D01*
X203200000Y-104775000D02*
X230505000Y-104775000D01*
X202565000Y-104140000D02*
X203200000Y-104775000D01*
X169545000Y-89535000D02*
X172085000Y-89535000D01*
X169545000Y-86995000D02*
X172085000Y-86995000D01*
X174625000Y-124460000D02*
X173355000Y-124460000D01*
X173355000Y-124460000D02*
X170180000Y-124460000D01*
X175260000Y-124460000D02*
X174625000Y-124460000D01*
X176680000Y-124460000D02*
X175260000Y-124460000D01*
X184023000Y-94174919D02*
X184023000Y-94996000D01*
X186122919Y-92075000D02*
X184023000Y-94174919D01*
X187325000Y-92075000D02*
X186122919Y-92075000D01*
X176680000Y-124460000D02*
X178204000Y-122936000D01*
X178204000Y-122936000D02*
X183515000Y-122936000D01*
X183515000Y-122936000D02*
X184023004Y-122427996D01*
X184023004Y-122427996D02*
X184023004Y-116078004D01*
X143510000Y-91440000D02*
X142875000Y-92075000D01*
X149225000Y-90805000D02*
X148590000Y-91440000D01*
X149225000Y-85090000D02*
X149225000Y-90805000D01*
X149860000Y-84455000D02*
X149225000Y-85090000D01*
X157162500Y-84455000D02*
X149860000Y-84455000D01*
X142875000Y-92075000D02*
X142875000Y-101600000D01*
X157480000Y-84772500D02*
X157162500Y-84455000D01*
X148590000Y-91440000D02*
X143510000Y-91440000D01*
X157480000Y-85725000D02*
X157480000Y-84772500D01*
X165100000Y-85725000D02*
X163830000Y-85725000D01*
X165735000Y-86360000D02*
X165100000Y-85725000D01*
X165735000Y-100965000D02*
X165735000Y-86360000D01*
X166370000Y-101600000D02*
X165735000Y-100965000D01*
X169545000Y-102235000D02*
X172085000Y-102235000D01*
X233426000Y-104140000D02*
X221107000Y-104140000D01*
X234220001Y-103345999D02*
X233426000Y-104140000D01*
X234220001Y-100235001D02*
X234220001Y-103345999D01*
X233045000Y-99060000D02*
X234220001Y-100235001D01*
X221107000Y-104140000D02*
X204914500Y-104140000D01*
X203200000Y-102425500D02*
X201549000Y-102425500D01*
X204914500Y-104140000D02*
X203200000Y-102425500D01*
X191770000Y-102425500D02*
X199199500Y-102425500D01*
X169545000Y-102235000D02*
X167803990Y-102235000D01*
X167803990Y-102235000D02*
X167168990Y-102870000D01*
X157480000Y-125770000D02*
X157480000Y-120015000D01*
X157480000Y-120015000D02*
X160782004Y-116712996D01*
X185002010Y-102235000D02*
X186272010Y-103505000D01*
X172085000Y-102235000D02*
X185002010Y-102235000D01*
X169545000Y-97155000D02*
X172085000Y-97155000D01*
X168725010Y-131895010D02*
X147770010Y-131895010D01*
X168910000Y-132080000D02*
X168725010Y-131895010D01*
X146685000Y-130810000D02*
X146685000Y-126365000D01*
X147770010Y-131895010D02*
X146685000Y-130810000D01*
X184785000Y-132080000D02*
X168910000Y-132080000D01*
X146090000Y-125770000D02*
X144780000Y-125770000D01*
X185420000Y-131445000D02*
X184785000Y-132080000D01*
X146685000Y-126365000D02*
X146090000Y-125770000D01*
X185420000Y-127000000D02*
X185420000Y-131445000D01*
X181848000Y-98028000D02*
X181848000Y-100965000D01*
X180975000Y-97155000D02*
X181848000Y-98028000D01*
X172085000Y-97155000D02*
X180975000Y-97155000D01*
X183022997Y-114390000D02*
X183515000Y-114882003D01*
X183515000Y-114882003D02*
X184097003Y-114882003D01*
X184785000Y-122555000D02*
X184785000Y-115570000D01*
X184097003Y-114882003D02*
X184785000Y-115570000D01*
X172085000Y-99695000D02*
X169545000Y-99695000D01*
X152440000Y-125770000D02*
X151130000Y-125770000D01*
X153035000Y-126365000D02*
X152440000Y-125770000D01*
X153670000Y-130175000D02*
X153035000Y-129540000D01*
X158750000Y-130175000D02*
X153670000Y-130175000D01*
X153035000Y-129540000D02*
X153035000Y-126365000D01*
X159385000Y-130175000D02*
X158750000Y-130175000D01*
X180975000Y-131445000D02*
X160655000Y-131445000D01*
X181610000Y-130810000D02*
X180975000Y-131445000D01*
X181610000Y-127000000D02*
X181610000Y-130810000D01*
X160020000Y-130810000D02*
X159385000Y-130175000D01*
X160655000Y-131445000D02*
X160020000Y-130810000D01*
X160020000Y-130810000D02*
X162179000Y-128651000D01*
X162179000Y-128651000D02*
X162179000Y-116459006D01*
D28*
X202565000Y-96520000D02*
X207010000Y-96520000D01*
X187325000Y-119380000D02*
X190500000Y-119380000D01*
D27*
X156210000Y-128270000D02*
X157480000Y-128270000D01*
X155575000Y-127635000D02*
X156210000Y-128270000D01*
X155575000Y-116205000D02*
X155575000Y-127635000D01*
X156210000Y-115570000D02*
X155575000Y-116205000D01*
X157480000Y-115570000D02*
X156210000Y-115570000D01*
X191770000Y-104140000D02*
X192405000Y-104140000D01*
X187325000Y-99695000D02*
X191770000Y-104140000D01*
X184150000Y-99695000D02*
X187325000Y-99695000D01*
X183298000Y-100547000D02*
X184150000Y-99695000D01*
X183298000Y-100965000D02*
X183298000Y-100547000D01*
X182880000Y-108458000D02*
X183298000Y-108040000D01*
X168230000Y-108585000D02*
X182753000Y-108585000D01*
X166415000Y-110400000D02*
X168230000Y-108585000D01*
X182753000Y-108585000D02*
X182880000Y-108458000D01*
X166370000Y-110400000D02*
X166415000Y-110400000D01*
X149860000Y-115570000D02*
X151130000Y-115570000D01*
X149225000Y-116205000D02*
X149860000Y-115570000D01*
X149225000Y-127690010D02*
X149225000Y-116205000D01*
X149804990Y-128270000D02*
X149225000Y-127690010D01*
X151130000Y-128270000D02*
X149804990Y-128270000D01*
X188277500Y-97155000D02*
X187325000Y-97155000D01*
X191452500Y-100330000D02*
X188277500Y-97155000D01*
X192405000Y-100330000D02*
X191452500Y-100330000D01*
X152400000Y-114300000D02*
X160655000Y-114300000D01*
X151130000Y-115570000D02*
X152400000Y-114300000D01*
X187325000Y-97155000D02*
X185547000Y-97155000D01*
X185547000Y-97155000D02*
X183261000Y-99441000D01*
X181864000Y-106045000D02*
X182573000Y-105336000D01*
X167640000Y-106680000D02*
X168275000Y-106045000D01*
X168275000Y-106045000D02*
X181864000Y-106045000D01*
X167640000Y-108077000D02*
X167640000Y-106680000D01*
X182573000Y-105336000D02*
X182573000Y-104230000D01*
X165354000Y-110363000D02*
X167640000Y-108077000D01*
X163830000Y-107950000D02*
X165735000Y-107950000D01*
X163195000Y-107315000D02*
X163830000Y-107950000D01*
X162520000Y-97750000D02*
X163195000Y-98425000D01*
X163195000Y-98425000D02*
X163195000Y-107315000D01*
X158750000Y-97750000D02*
X162520000Y-97750000D01*
X157480000Y-96480000D02*
X158750000Y-97750000D01*
X146050000Y-97750000D02*
X144780000Y-96480000D01*
X146050000Y-104140000D02*
X146050000Y-97750000D01*
X145415000Y-104775000D02*
X146050000Y-104140000D01*
X142875000Y-104775000D02*
X145415000Y-104775000D01*
X142875000Y-107950000D02*
X146050000Y-107950000D01*
X146050000Y-107950000D02*
X146685000Y-107315000D01*
X146685000Y-107315000D02*
X146685000Y-97790000D01*
X147995000Y-96480000D02*
X151130000Y-96480000D01*
X146685000Y-97790000D02*
X147995000Y-96480000D01*
X163830000Y-104140000D02*
X164465000Y-104775000D01*
X163830000Y-96480000D02*
X163830000Y-104140000D01*
X166370000Y-104775000D02*
X164465000Y-104775000D01*
D28*
X202565000Y-107950000D02*
X202565000Y-109220000D01*
X202565000Y-109220000D02*
X203200000Y-109855000D01*
X203200000Y-109855000D02*
X207645000Y-109855000D01*
X208280000Y-109220000D02*
X208280000Y-107950000D01*
X207645000Y-109855000D02*
X208280000Y-109220000D01*
X206375000Y-106045000D02*
X229235000Y-106045000D01*
X205740000Y-106680000D02*
X206375000Y-106045000D01*
X205740000Y-107950000D02*
X205740000Y-106680000D01*
X229235000Y-106045000D02*
X229870000Y-106680000D01*
X229870000Y-106680000D02*
X229870000Y-126365000D01*
X229870000Y-126365000D02*
X230505000Y-127000000D01*
X230505000Y-127000000D02*
X233045000Y-127000000D01*
X153035000Y-104775000D02*
X153035000Y-107950000D01*
X153035000Y-109220000D02*
X153035000Y-107950000D01*
X152400000Y-109855000D02*
X153035000Y-109220000D01*
X155575000Y-109220000D02*
X154940000Y-109855000D01*
X155575000Y-107950000D02*
X155575000Y-109220000D01*
X152400000Y-109855000D02*
X154940000Y-109855000D01*
X155575000Y-107950000D02*
X155575000Y-104775000D01*
X144780000Y-109855000D02*
X152400000Y-109855000D01*
X142240000Y-112395000D02*
X144780000Y-109855000D01*
X142240000Y-129540000D02*
X142240000Y-112395000D01*
X142875000Y-130175000D02*
X142240000Y-129540000D01*
X144685959Y-130175000D02*
X142875000Y-130175000D01*
X147225959Y-132715000D02*
X144685959Y-130175000D01*
X226695000Y-132715000D02*
X147225959Y-132715000D01*
X229870000Y-129540000D02*
X226695000Y-132715000D01*
X233045000Y-129540000D02*
X229870000Y-129540000D01*
X166370000Y-119380000D02*
X169545000Y-119380000D01*
D27*
X167005000Y-113665000D02*
X168275000Y-114935000D01*
X168275000Y-114935000D02*
X169545000Y-114935000D01*
X163195000Y-113665000D02*
X167005000Y-113665000D01*
X161925000Y-112395000D02*
X163195000Y-113665000D01*
X161290000Y-102870000D02*
X161925000Y-103505000D01*
X161925000Y-103505000D02*
X161925000Y-112395000D01*
X153670000Y-102870000D02*
X161290000Y-102870000D01*
X153035000Y-102235000D02*
X153670000Y-102870000D01*
X153035000Y-101600000D02*
X153035000Y-102235000D01*
X161925000Y-101600000D02*
X155575000Y-101600000D01*
X162560000Y-102235000D02*
X161925000Y-101600000D01*
X187325000Y-114935000D02*
X186055000Y-113665000D01*
X167185001Y-112575001D02*
X168275000Y-113665000D01*
X163375001Y-112575001D02*
X167185001Y-112575001D01*
X162560000Y-111760000D02*
X163375001Y-112575001D01*
X186055000Y-113665000D02*
X168275000Y-113665000D01*
X162560000Y-111760000D02*
X162560000Y-102235000D01*
X169545000Y-112395000D02*
X172085000Y-112395000D01*
X200660000Y-90805000D02*
X186055000Y-90805000D01*
X201295000Y-90170000D02*
X200660000Y-90805000D01*
X167730000Y-111850000D02*
X164465000Y-111850000D01*
X168275000Y-112395000D02*
X167730000Y-111850000D01*
X169545000Y-112395000D02*
X168275000Y-112395000D01*
X152305010Y-111894990D02*
X159250010Y-111894990D01*
X151130000Y-113070000D02*
X152305010Y-111894990D01*
X201295000Y-87630000D02*
X202565000Y-86360000D01*
X201295000Y-90170000D02*
X201295000Y-87630000D01*
X172085000Y-112395000D02*
X183896000Y-112395000D01*
X184240000Y-112395000D02*
X183896000Y-112395000D01*
X184785000Y-111850000D02*
X184240000Y-112395000D01*
X169545000Y-109855000D02*
X172085000Y-109855000D01*
X177165000Y-119380000D02*
X177165000Y-118745000D01*
X177165000Y-118745000D02*
X176530000Y-118110000D01*
X174625000Y-118110000D02*
X173990000Y-117475000D01*
X176530000Y-118110000D02*
X174625000Y-118110000D01*
X173990000Y-117475000D02*
X173990000Y-114390000D01*
X169545000Y-107315000D02*
X172085000Y-107315000D01*
X192405000Y-107950000D02*
X192405000Y-107315000D01*
X192405000Y-107950000D02*
X190500000Y-107950000D01*
X190500000Y-107950000D02*
X188595000Y-106045000D01*
X184785000Y-107315000D02*
X186055000Y-106045000D01*
X172085000Y-107315000D02*
X184785000Y-107315000D01*
X188595000Y-106045000D02*
X186055000Y-106045000D01*
X169545000Y-104775000D02*
X172085000Y-104775000D01*
X179705000Y-119380000D02*
X179705000Y-118110000D01*
X179705000Y-118110000D02*
X179070000Y-117475000D01*
X179070000Y-117475000D02*
X175260000Y-117475000D01*
X174748836Y-116963836D02*
X174748836Y-115041284D01*
X175260000Y-117475000D02*
X174748836Y-116963836D01*
X187325000Y-112395000D02*
X186690000Y-112395000D01*
X186055000Y-93345000D02*
X204470000Y-93345000D01*
X205105000Y-92710000D02*
X205105000Y-88900000D01*
X204470000Y-93345000D02*
X205105000Y-92710000D01*
X163285000Y-111125000D02*
X185547000Y-111125000D01*
D28*
X209550000Y-96520000D02*
X209550000Y-85090000D01*
X209550000Y-85090000D02*
X210185000Y-84455000D01*
X210185000Y-84455000D02*
X219710000Y-84455000D01*
X220345000Y-85090000D02*
X220345000Y-86360000D01*
X219710000Y-84455000D02*
X220345000Y-85090000D01*
M02*
