M48
INCH,TZ
T1C0.0157
T2C0.0315
T3C0.0374
T4C0.0394
T5C0.0400
T6C0.0433
T7C0.1200
%
G90
G05
T1
X55750Y-43750
X57900Y-43115
X57900Y-44292
X58250Y-44035
X58535Y-43115
X62600Y-43900
X63250Y-45000
X63300Y-45950
X64000Y-41400
X64000Y-43100
X64443Y-43400
X64700Y-43750
X65073Y-43115
X65465Y-43035
X65750Y-39750
X65815Y-40250
X68500Y-45035
X68799Y-45292
X69100Y-44035
X71879Y-40371
X72150Y-39150
X72165Y-39750
X72165Y-41415
X72450Y-45700
X72465Y-36750
X72750Y-43500
X73040Y-45535
X73050Y-42450
X73250Y-35750
X73250Y-36750
X79750Y-45250
X80500Y-44250
X81689Y-34189
X82811Y-34500
X85500Y-40641
X85500Y-44500
X85785Y-42535
X85843Y-40448
X86800Y-41400
X87900Y-41200
X88458Y-40370
X88471Y-42000
X88750Y-40650
X88750Y-41250
X89050Y-36050
X89050Y-40375
X89055Y-41750
X89400Y-35800
X89400Y-40650
X89409Y-41500
T2
X75000Y-47000
X75000Y-51000
X64750Y-38250
X64750Y-42250
X88500Y-43000
X88500Y-47000
X56250Y-36750
X60250Y-36750
X76500Y-47000
X76500Y-51000
X75000Y-41500
X75000Y-45500
X65750Y-47000
X69750Y-47000
X87000Y-43000
X87000Y-47000
X60500Y-38250
X60500Y-42250
X76500Y-41500
X76500Y-45500
X61500Y-36750
X65500Y-36750
X63500Y-38250
X63500Y-42250
X62000Y-38250
X62000Y-42250
X75750Y-39750
X79750Y-39750
X70750Y-47000
X73750Y-47000
X59250Y-38250
X59250Y-42250
T3
X79063Y-43250
X80047Y-43250
X81031Y-43250
X82016Y-43250
X83000Y-43250
X79063Y-46000
X80047Y-46000
X81031Y-46000
X82016Y-46000
X83000Y-46000
T4
X91750Y-46000
X91750Y-47000
X91750Y-48000
X85000Y-45400
X85000Y-46400
X57000Y-44516
X57000Y-45500
X91750Y-38000
X91750Y-39000
X91750Y-40000
X73000Y-49000
X73000Y-50000
X57000Y-49516
X57000Y-50500
X91750Y-42000
X91750Y-43000
X91750Y-44000
X59766Y-34500
X60750Y-34500
X66750Y-34250
X66750Y-35250
X66750Y-36250
X66750Y-37250
X66750Y-38250
X66750Y-39250
X66750Y-40250
X66750Y-41250
X66750Y-42250
X66750Y-43250
X66750Y-44250
X66750Y-45250
X67750Y-34250
X67750Y-35250
X67750Y-36250
X67750Y-37250
X67750Y-38250
X67750Y-39250
X67750Y-40250
X67750Y-41250
X67750Y-42250
X67750Y-43250
X67750Y-44250
X67750Y-45250
X73750Y-34250
X73750Y-35250
X73750Y-36250
X73750Y-37250
X73750Y-38250
X73750Y-39250
X73750Y-40250
X73750Y-41250
X73750Y-42250
X73750Y-43250
X73750Y-44250
X73750Y-45250
X62000Y-44516
X62000Y-45500
X92316Y-50500
X93300Y-50500
X81500Y-39500
X82500Y-39500
X81750Y-49516
X81750Y-50500
X71500Y-49000
X71500Y-50000
X79000Y-49516
X79000Y-50500
X84500Y-49516
X84500Y-50500
X87250Y-49516
X87250Y-50500
X59500Y-49516
X59500Y-50500
X81500Y-38000
X82500Y-38000
X57000Y-39766
X57000Y-40750
X62000Y-49516
X62000Y-50500
X59500Y-44516
X59500Y-45500
X63516Y-34500
X64500Y-34500
T5
X76750Y-34000
X76750Y-35000
X77750Y-34000
X77750Y-35000
X78750Y-34000
X78750Y-35000
X79750Y-34000
X79750Y-35000
X80750Y-34000
X80750Y-35000
X85750Y-34000
X85750Y-35000
X86750Y-34000
X86750Y-35000
X87750Y-34000
X87750Y-35000
X88750Y-34000
X88750Y-35000
X89750Y-34000
X89750Y-35000
T6
X67000Y-49000
X67000Y-50772
X69559Y-49000
X69559Y-50772
X75700Y-38000
X79700Y-38000
T7
X56750Y-53000
X56750Y-33750
X93500Y-33750
X93500Y-53000
T0
M30
