M48
INCH,TZ
T1C0.0157
T2C0.0315
T3C0.0374
T4C0.0394
T5C0.0400
T6C0.0433
T7C0.1200
%
G90
G05
T1
X55750Y-43750
X62697Y-44053
X63250Y-45000
X63300Y-45950
X63850Y-45850
X64285Y-43750
X64750Y-44035
X65100Y-43450
X65500Y-43465
X65750Y-37750
X65815Y-40500
X68500Y-45035
X68799Y-45292
X71594Y-39750
X71879Y-41035
X72056Y-45035
X72150Y-39150
X72165Y-39750
X72165Y-42535
X72450Y-37400
X72450Y-45700
X72750Y-44035
X72750Y-48250
X73050Y-43750
X73250Y-35750
X73250Y-36750
X73335Y-40750
X75500Y-40325
X78425Y-40325
X79350Y-40325
X80050Y-44850
X81031Y-44500
X81689Y-34189
X82016Y-45144
X82811Y-34500
X83425Y-44500
X83425Y-45150
X83690Y-44859
X87872Y-40372
X87875Y-42175
X88166Y-40641
X88185Y-42525
X88458Y-40370
X88471Y-42162
X88750Y-40650
X88755Y-42548
X89050Y-36050
X89050Y-40375
X89050Y-42150
X89400Y-35800
X89400Y-40650
X89400Y-42550
T2
X66750Y-47000
X69750Y-47000
X65500Y-47000
X65500Y-51000
X56250Y-40000
X60250Y-40000
X81000Y-42500
X82000Y-42500
X83000Y-42500
X61250Y-42500
X65250Y-42500
X61250Y-40000
X65250Y-40000
X75750Y-41000
X79750Y-41000
X56250Y-41250
X60250Y-41250
X56250Y-42500
X60250Y-42500
X75750Y-39500
X79750Y-39500
X75000Y-47000
X75000Y-51000
X75750Y-42500
X79750Y-42500
X61250Y-41250
X65250Y-41250
X70750Y-47000
X73750Y-47000
T3
X79063Y-46000
X80047Y-46000
X81031Y-46000
X82016Y-46000
X83000Y-46000
T4
X59500Y-44516
X59500Y-45500
X62000Y-33750
X62000Y-34734
X59500Y-49516
X59500Y-50500
X62000Y-49516
X62000Y-50500
X64500Y-37000
X64500Y-37984
X84500Y-49516
X84500Y-50500
X59500Y-33766
X59500Y-34750
X57000Y-37000
X57000Y-37984
X91750Y-42000
X91750Y-43000
X91750Y-44000
X91750Y-38000
X91750Y-39000
X91750Y-40000
X81500Y-38000
X82500Y-38000
X62000Y-37000
X62000Y-37984
X91750Y-50000
X91750Y-51000
X91750Y-46000
X91750Y-47000
X91750Y-48000
X81750Y-49516
X81750Y-50500
X62000Y-44516
X62000Y-45500
X71500Y-49000
X71500Y-50000
X57000Y-49516
X57000Y-50500
X59500Y-37000
X59500Y-37984
X73000Y-49000
X73000Y-50000
X66750Y-34250
X66750Y-35250
X66750Y-36250
X66750Y-37250
X66750Y-38250
X66750Y-39250
X66750Y-40250
X66750Y-41250
X66750Y-42250
X66750Y-43250
X66750Y-44250
X66750Y-45250
X67750Y-34250
X67750Y-35250
X67750Y-36250
X67750Y-37250
X67750Y-38250
X67750Y-39250
X67750Y-40250
X67750Y-41250
X67750Y-42250
X67750Y-43250
X67750Y-44250
X67750Y-45250
X73750Y-34250
X73750Y-35250
X73750Y-36250
X73750Y-37250
X73750Y-38250
X73750Y-39250
X73750Y-40250
X73750Y-41250
X73750Y-42250
X73750Y-43250
X73750Y-44250
X73750Y-45250
X79000Y-49516
X79000Y-50500
X57000Y-44516
X57000Y-45500
X87250Y-49516
X87250Y-50500
X64500Y-33750
X64500Y-34734
T5
X85750Y-34000
X85750Y-35000
X86750Y-34000
X86750Y-35000
X87750Y-34000
X87750Y-35000
X88750Y-34000
X88750Y-35000
X89750Y-34000
X89750Y-35000
X76750Y-34000
X76750Y-35000
X77750Y-34000
X77750Y-35000
X78750Y-34000
X78750Y-35000
X79750Y-34000
X79750Y-35000
X80750Y-34000
X80750Y-35000
T6
X67000Y-49000
X67000Y-50772
X69559Y-49000
X69559Y-50772
X75750Y-38000
X79750Y-38000
T7
X56750Y-33750
X93500Y-33750
X93500Y-53000
X56750Y-53000
T0
M30
