M48
INCH,TZ
T1C0.0157
T2C0.0236
T3C0.0315
T4C0.0394
T5C0.0400
T6C0.0472
T7C0.1200
%
G90
G05
T1
X57850Y-33600
X58530Y-33256
X60250Y-36000
X60750Y-35500
X61000Y-34750
X63000Y-33535
X63285Y-36250
T2
X50963Y-30250
X51750Y-30250
T3
X55500Y-35000
X55500Y-39000
X54250Y-35000
X54250Y-39000
X56750Y-35000
X56750Y-39000
X56500Y-33500
X60500Y-33500
X62531Y-30250
X64500Y-30250
X51250Y-32000
X55250Y-32000
X49250Y-35000
X49250Y-39000
X51750Y-35000
X51750Y-39000
X62000Y-31750
X62000Y-32750
X62000Y-33750
X62000Y-34750
X62000Y-35750
X62000Y-36750
X62000Y-37750
X62000Y-38750
X65000Y-31750
X65000Y-32750
X65000Y-33750
X65000Y-34750
X65000Y-35750
X65000Y-36750
X65000Y-37750
X65000Y-38750
X51250Y-33500
X55250Y-33500
X59250Y-35000
X59250Y-39000
X56500Y-32000
X60500Y-32000
X48000Y-35000
X48000Y-39000
X50500Y-35000
X50500Y-39000
X58000Y-35000
X58000Y-39000
X53000Y-35000
X53000Y-39000
T4
X67000Y-37750
X67000Y-38750
T5
X50250Y-41500
X50250Y-42500
X51250Y-41500
X51250Y-42500
X52250Y-41500
X52250Y-42500
X53250Y-41500
X53250Y-42500
X54250Y-41500
X54250Y-42500
X59250Y-41500
X59250Y-42500
X60250Y-41500
X60250Y-42500
X61250Y-41500
X61250Y-42500
X62250Y-41500
X62250Y-42500
X63250Y-41500
X63250Y-42500
T7
X46750Y-42500
X66750Y-42500
X46750Y-30494
X66750Y-30500
T6
G00X53250Y-30309
M15
G01X53250Y-30191
M16
G05
G00X54250Y-30309
M15
G01X54250Y-30191
M16
G05
G00X55250Y-30309
M15
G01X55250Y-30191
M16
G05
G00X56250Y-30309
M15
G01X56250Y-30191
M16
G05
G00X57250Y-30309
M15
G01X57250Y-30191
M16
G05
G00X58250Y-30309
M15
G01X58250Y-30191
M16
G05
G00X59250Y-30309
M15
G01X59250Y-30191
M16
G05
G00X60250Y-30309
M15
G01X60250Y-30191
M16
G05
T0
M30
