G04 #@! TF.GenerationSoftware,KiCad,Pcbnew,(5.1.8)-1*
G04 #@! TF.CreationDate,2022-02-21T22:55:28+01:00*
G04 #@! TF.ProjectId,NEC PC Engine,4e454320-5043-4204-956e-67696e652e6b,rev?*
G04 #@! TF.SameCoordinates,Original*
G04 #@! TF.FileFunction,Legend,Bot*
G04 #@! TF.FilePolarity,Positive*
%FSLAX46Y46*%
G04 Gerber Fmt 4.6, Leading zero omitted, Abs format (unit mm)*
G04 Created by KiCad (PCBNEW (5.1.8)-1) date 2022-02-21 22:55:28*
%MOMM*%
%LPD*%
G01*
G04 APERTURE LIST*
%ADD10C,0.100000*%
%ADD11C,0.120000*%
%ADD12C,0.010000*%
G04 APERTURE END LIST*
D10*
X172281904Y-93955000D02*
X172853333Y-93955000D01*
X172967619Y-93916904D01*
X173043809Y-93840714D01*
X173081904Y-93726428D01*
X173081904Y-93650238D01*
X173081904Y-94335952D02*
X172281904Y-94335952D01*
X172281904Y-94640714D01*
X172320000Y-94716904D01*
X172358095Y-94755000D01*
X172434285Y-94793095D01*
X172548571Y-94793095D01*
X172624761Y-94755000D01*
X172662857Y-94716904D01*
X172700952Y-94640714D01*
X172700952Y-94335952D01*
X173081904Y-95555000D02*
X173081904Y-95097857D01*
X173081904Y-95326428D02*
X172281904Y-95326428D01*
X172396190Y-95250238D01*
X172472380Y-95174047D01*
X172510476Y-95097857D01*
X172281904Y-96393095D02*
X173081904Y-96659761D01*
X172281904Y-96926428D01*
X173005714Y-97650238D02*
X173043809Y-97612142D01*
X173081904Y-97497857D01*
X173081904Y-97421666D01*
X173043809Y-97307380D01*
X172967619Y-97231190D01*
X172891428Y-97193095D01*
X172739047Y-97155000D01*
X172624761Y-97155000D01*
X172472380Y-97193095D01*
X172396190Y-97231190D01*
X172320000Y-97307380D01*
X172281904Y-97421666D01*
X172281904Y-97497857D01*
X172320000Y-97612142D01*
X172358095Y-97650238D01*
X173005714Y-98450238D02*
X173043809Y-98412142D01*
X173081904Y-98297857D01*
X173081904Y-98221666D01*
X173043809Y-98107380D01*
X172967619Y-98031190D01*
X172891428Y-97993095D01*
X172739047Y-97955000D01*
X172624761Y-97955000D01*
X172472380Y-97993095D01*
X172396190Y-98031190D01*
X172320000Y-98107380D01*
X172281904Y-98221666D01*
X172281904Y-98297857D01*
X172320000Y-98412142D01*
X172358095Y-98450238D01*
X173158095Y-98602619D02*
X173158095Y-99212142D01*
X172662857Y-99402619D02*
X172662857Y-99669285D01*
X173081904Y-99783571D02*
X173081904Y-99402619D01*
X172281904Y-99402619D01*
X172281904Y-99783571D01*
X173081904Y-100126428D02*
X172281904Y-100126428D01*
X173081904Y-100583571D01*
X172281904Y-100583571D01*
D11*
X168910000Y-99695000D02*
X168910000Y-94615000D01*
X171450000Y-99695000D02*
X168910000Y-99695000D01*
X171450000Y-94615000D02*
X171450000Y-99695000D01*
X168910000Y-94615000D02*
X171450000Y-94615000D01*
D10*
X148145000Y-106391904D02*
X148525952Y-106391904D01*
X148525952Y-105591904D01*
X147878333Y-106391904D02*
X147878333Y-105858571D01*
X147878333Y-105591904D02*
X147916428Y-105630000D01*
X147878333Y-105668095D01*
X147840238Y-105630000D01*
X147878333Y-105591904D01*
X147878333Y-105668095D01*
X147154523Y-106353809D02*
X147230714Y-106391904D01*
X147383095Y-106391904D01*
X147459285Y-106353809D01*
X147497380Y-106315714D01*
X147535476Y-106239523D01*
X147535476Y-106010952D01*
X147497380Y-105934761D01*
X147459285Y-105896666D01*
X147383095Y-105858571D01*
X147230714Y-105858571D01*
X147154523Y-105896666D01*
X146506904Y-106353809D02*
X146583095Y-106391904D01*
X146735476Y-106391904D01*
X146811666Y-106353809D01*
X146849761Y-106277619D01*
X146849761Y-105972857D01*
X146811666Y-105896666D01*
X146735476Y-105858571D01*
X146583095Y-105858571D01*
X146506904Y-105896666D01*
X146468809Y-105972857D01*
X146468809Y-106049047D01*
X146849761Y-106125238D01*
X146125952Y-105858571D02*
X146125952Y-106391904D01*
X146125952Y-105934761D02*
X146087857Y-105896666D01*
X146011666Y-105858571D01*
X145897380Y-105858571D01*
X145821190Y-105896666D01*
X145783095Y-105972857D01*
X145783095Y-106391904D01*
X145440238Y-106353809D02*
X145364047Y-106391904D01*
X145211666Y-106391904D01*
X145135476Y-106353809D01*
X145097380Y-106277619D01*
X145097380Y-106239523D01*
X145135476Y-106163333D01*
X145211666Y-106125238D01*
X145325952Y-106125238D01*
X145402142Y-106087142D01*
X145440238Y-106010952D01*
X145440238Y-105972857D01*
X145402142Y-105896666D01*
X145325952Y-105858571D01*
X145211666Y-105858571D01*
X145135476Y-105896666D01*
X144449761Y-106353809D02*
X144525952Y-106391904D01*
X144678333Y-106391904D01*
X144754523Y-106353809D01*
X144792619Y-106277619D01*
X144792619Y-105972857D01*
X144754523Y-105896666D01*
X144678333Y-105858571D01*
X144525952Y-105858571D01*
X144449761Y-105896666D01*
X144411666Y-105972857D01*
X144411666Y-106049047D01*
X144792619Y-106125238D01*
X143725952Y-106391904D02*
X143725952Y-105591904D01*
X143725952Y-106353809D02*
X143802142Y-106391904D01*
X143954523Y-106391904D01*
X144030714Y-106353809D01*
X144068809Y-106315714D01*
X144106904Y-106239523D01*
X144106904Y-106010952D01*
X144068809Y-105934761D01*
X144030714Y-105896666D01*
X143954523Y-105858571D01*
X143802142Y-105858571D01*
X143725952Y-105896666D01*
X142392619Y-105858571D02*
X142392619Y-106391904D01*
X142735476Y-105858571D02*
X142735476Y-106277619D01*
X142697380Y-106353809D01*
X142621190Y-106391904D01*
X142506904Y-106391904D01*
X142430714Y-106353809D01*
X142392619Y-106315714D01*
X142011666Y-105858571D02*
X142011666Y-106391904D01*
X142011666Y-105934761D02*
X141973571Y-105896666D01*
X141897380Y-105858571D01*
X141783095Y-105858571D01*
X141706904Y-105896666D01*
X141668809Y-105972857D01*
X141668809Y-106391904D01*
X140945000Y-106391904D02*
X140945000Y-105591904D01*
X140945000Y-106353809D02*
X141021190Y-106391904D01*
X141173571Y-106391904D01*
X141249761Y-106353809D01*
X141287857Y-106315714D01*
X141325952Y-106239523D01*
X141325952Y-106010952D01*
X141287857Y-105934761D01*
X141249761Y-105896666D01*
X141173571Y-105858571D01*
X141021190Y-105858571D01*
X140945000Y-105896666D01*
X140259285Y-106353809D02*
X140335476Y-106391904D01*
X140487857Y-106391904D01*
X140564047Y-106353809D01*
X140602142Y-106277619D01*
X140602142Y-105972857D01*
X140564047Y-105896666D01*
X140487857Y-105858571D01*
X140335476Y-105858571D01*
X140259285Y-105896666D01*
X140221190Y-105972857D01*
X140221190Y-106049047D01*
X140602142Y-106125238D01*
X139878333Y-106391904D02*
X139878333Y-105858571D01*
X139878333Y-106010952D02*
X139840238Y-105934761D01*
X139802142Y-105896666D01*
X139725952Y-105858571D01*
X139649761Y-105858571D01*
X148106904Y-107615714D02*
X148145000Y-107653809D01*
X148259285Y-107691904D01*
X148335476Y-107691904D01*
X148449761Y-107653809D01*
X148525952Y-107577619D01*
X148564047Y-107501428D01*
X148602142Y-107349047D01*
X148602142Y-107234761D01*
X148564047Y-107082380D01*
X148525952Y-107006190D01*
X148449761Y-106930000D01*
X148335476Y-106891904D01*
X148259285Y-106891904D01*
X148145000Y-106930000D01*
X148106904Y-106968095D01*
X147764047Y-107272857D02*
X147497380Y-107272857D01*
X147383095Y-107691904D02*
X147764047Y-107691904D01*
X147764047Y-106891904D01*
X147383095Y-106891904D01*
X146583095Y-107691904D02*
X146849761Y-107310952D01*
X147040238Y-107691904D02*
X147040238Y-106891904D01*
X146735476Y-106891904D01*
X146659285Y-106930000D01*
X146621190Y-106968095D01*
X146583095Y-107044285D01*
X146583095Y-107158571D01*
X146621190Y-107234761D01*
X146659285Y-107272857D01*
X146735476Y-107310952D01*
X147040238Y-107310952D01*
X146240238Y-107691904D02*
X146240238Y-106891904D01*
X145783095Y-107691904D01*
X145783095Y-106891904D01*
X144640238Y-106891904D02*
X144487857Y-106891904D01*
X144411666Y-106930000D01*
X144335476Y-107006190D01*
X144297380Y-107158571D01*
X144297380Y-107425238D01*
X144335476Y-107577619D01*
X144411666Y-107653809D01*
X144487857Y-107691904D01*
X144640238Y-107691904D01*
X144716428Y-107653809D01*
X144792619Y-107577619D01*
X144830714Y-107425238D01*
X144830714Y-107158571D01*
X144792619Y-107006190D01*
X144716428Y-106930000D01*
X144640238Y-106891904D01*
X143954523Y-107691904D02*
X143954523Y-106891904D01*
X143954523Y-107272857D02*
X143497380Y-107272857D01*
X143497380Y-107691904D02*
X143497380Y-106891904D01*
X142735476Y-107691904D02*
X143116428Y-107691904D01*
X143116428Y-106891904D01*
X141935476Y-107158571D02*
X141745000Y-107691904D01*
X141554523Y-107158571D01*
X140830714Y-107691904D02*
X141287857Y-107691904D01*
X141059285Y-107691904D02*
X141059285Y-106891904D01*
X141135476Y-107006190D01*
X141211666Y-107082380D01*
X141287857Y-107120476D01*
X140487857Y-107615714D02*
X140449761Y-107653809D01*
X140487857Y-107691904D01*
X140525952Y-107653809D01*
X140487857Y-107615714D01*
X140487857Y-107691904D01*
X140145000Y-106968095D02*
X140106904Y-106930000D01*
X140030714Y-106891904D01*
X139840238Y-106891904D01*
X139764047Y-106930000D01*
X139725952Y-106968095D01*
X139687857Y-107044285D01*
X139687857Y-107120476D01*
X139725952Y-107234761D01*
X140183095Y-107691904D01*
X139687857Y-107691904D01*
X133153095Y-95637142D02*
X132581666Y-95637142D01*
X132467380Y-95675238D01*
X132391190Y-95751428D01*
X132353095Y-95865714D01*
X132353095Y-95941904D01*
X132353095Y-95141904D02*
X132391190Y-95218095D01*
X132429285Y-95256190D01*
X132505476Y-95294285D01*
X132734047Y-95294285D01*
X132810238Y-95256190D01*
X132848333Y-95218095D01*
X132886428Y-95141904D01*
X132886428Y-95027619D01*
X132848333Y-94951428D01*
X132810238Y-94913333D01*
X132734047Y-94875238D01*
X132505476Y-94875238D01*
X132429285Y-94913333D01*
X132391190Y-94951428D01*
X132353095Y-95027619D01*
X132353095Y-95141904D01*
X132886428Y-94608571D02*
X132353095Y-94418095D01*
X132886428Y-94227619D02*
X132353095Y-94418095D01*
X132162619Y-94494285D01*
X132124523Y-94532380D01*
X132086428Y-94608571D01*
X132353095Y-93922857D02*
X133153095Y-93922857D01*
X132353095Y-93465714D02*
X132810238Y-93808571D01*
X133153095Y-93465714D02*
X132695952Y-93922857D01*
X132772142Y-93122857D02*
X132772142Y-92856190D01*
X132353095Y-92741904D02*
X132353095Y-93122857D01*
X133153095Y-93122857D01*
X133153095Y-92741904D01*
X132734047Y-92246666D02*
X132353095Y-92246666D01*
X133153095Y-92513333D02*
X132734047Y-92246666D01*
X133153095Y-91980000D01*
X131303857Y-92749857D02*
X131570523Y-92749857D01*
X131570523Y-93168904D02*
X131570523Y-92368904D01*
X131189571Y-92368904D01*
X130884809Y-93168904D02*
X130884809Y-92368904D01*
X130046714Y-93168904D02*
X130313380Y-92787952D01*
X130503857Y-93168904D02*
X130503857Y-92368904D01*
X130199095Y-92368904D01*
X130122904Y-92407000D01*
X130084809Y-92445095D01*
X130046714Y-92521285D01*
X130046714Y-92635571D01*
X130084809Y-92711761D01*
X130122904Y-92749857D01*
X130199095Y-92787952D01*
X130503857Y-92787952D01*
X129703857Y-92749857D02*
X129437190Y-92749857D01*
X129322904Y-93168904D02*
X129703857Y-93168904D01*
X129703857Y-92368904D01*
X129322904Y-92368904D01*
X129056238Y-92368904D02*
X128561000Y-92368904D01*
X128827666Y-92673666D01*
X128713380Y-92673666D01*
X128637190Y-92711761D01*
X128599095Y-92749857D01*
X128561000Y-92826047D01*
X128561000Y-93016523D01*
X128599095Y-93092714D01*
X128637190Y-93130809D01*
X128713380Y-93168904D01*
X128941952Y-93168904D01*
X129018142Y-93130809D01*
X129056238Y-93092714D01*
X128408619Y-93245095D02*
X127799095Y-93245095D01*
X127646714Y-93130809D02*
X127532428Y-93168904D01*
X127341952Y-93168904D01*
X127265761Y-93130809D01*
X127227666Y-93092714D01*
X127189571Y-93016523D01*
X127189571Y-92940333D01*
X127227666Y-92864142D01*
X127265761Y-92826047D01*
X127341952Y-92787952D01*
X127494333Y-92749857D01*
X127570523Y-92711761D01*
X127608619Y-92673666D01*
X127646714Y-92597476D01*
X127646714Y-92521285D01*
X127608619Y-92445095D01*
X127570523Y-92407000D01*
X127494333Y-92368904D01*
X127303857Y-92368904D01*
X127189571Y-92407000D01*
X126846714Y-92749857D02*
X126580047Y-92749857D01*
X126465761Y-93168904D02*
X126846714Y-93168904D01*
X126846714Y-92368904D01*
X126465761Y-92368904D01*
X125741952Y-93168904D02*
X126122904Y-93168904D01*
X126122904Y-92368904D01*
X124865761Y-93168904D02*
X124865761Y-92368904D01*
X124561000Y-92368904D01*
X124484809Y-92407000D01*
X124446714Y-92445095D01*
X124408619Y-92521285D01*
X124408619Y-92635571D01*
X124446714Y-92711761D01*
X124484809Y-92749857D01*
X124561000Y-92787952D01*
X124865761Y-92787952D01*
X124103857Y-92445095D02*
X124065761Y-92407000D01*
X123989571Y-92368904D01*
X123799095Y-92368904D01*
X123722904Y-92407000D01*
X123684809Y-92445095D01*
X123646714Y-92521285D01*
X123646714Y-92597476D01*
X123684809Y-92711761D01*
X124141952Y-93168904D01*
X123646714Y-93168904D01*
X131303857Y-94049857D02*
X131570523Y-94049857D01*
X131570523Y-94468904D02*
X131570523Y-93668904D01*
X131189571Y-93668904D01*
X130884809Y-94468904D02*
X130884809Y-93668904D01*
X130046714Y-94468904D02*
X130313380Y-94087952D01*
X130503857Y-94468904D02*
X130503857Y-93668904D01*
X130199095Y-93668904D01*
X130122904Y-93707000D01*
X130084809Y-93745095D01*
X130046714Y-93821285D01*
X130046714Y-93935571D01*
X130084809Y-94011761D01*
X130122904Y-94049857D01*
X130199095Y-94087952D01*
X130503857Y-94087952D01*
X129703857Y-94049857D02*
X129437190Y-94049857D01*
X129322904Y-94468904D02*
X129703857Y-94468904D01*
X129703857Y-93668904D01*
X129322904Y-93668904D01*
X129056238Y-93668904D02*
X128561000Y-93668904D01*
X128827666Y-93973666D01*
X128713380Y-93973666D01*
X128637190Y-94011761D01*
X128599095Y-94049857D01*
X128561000Y-94126047D01*
X128561000Y-94316523D01*
X128599095Y-94392714D01*
X128637190Y-94430809D01*
X128713380Y-94468904D01*
X128941952Y-94468904D01*
X129018142Y-94430809D01*
X129056238Y-94392714D01*
X128408619Y-94545095D02*
X127799095Y-94545095D01*
X127608619Y-94468904D02*
X127608619Y-93668904D01*
X127303857Y-93668904D01*
X127227666Y-93707000D01*
X127189571Y-93745095D01*
X127151476Y-93821285D01*
X127151476Y-93935571D01*
X127189571Y-94011761D01*
X127227666Y-94049857D01*
X127303857Y-94087952D01*
X127608619Y-94087952D01*
X126656238Y-93668904D02*
X126503857Y-93668904D01*
X126427666Y-93707000D01*
X126351476Y-93783190D01*
X126313380Y-93935571D01*
X126313380Y-94202238D01*
X126351476Y-94354619D01*
X126427666Y-94430809D01*
X126503857Y-94468904D01*
X126656238Y-94468904D01*
X126732428Y-94430809D01*
X126808619Y-94354619D01*
X126846714Y-94202238D01*
X126846714Y-93935571D01*
X126808619Y-93783190D01*
X126732428Y-93707000D01*
X126656238Y-93668904D01*
X125589571Y-94468904D02*
X125970523Y-94468904D01*
X125970523Y-93668904D01*
X124294333Y-93707000D02*
X124370523Y-93668904D01*
X124484809Y-93668904D01*
X124599095Y-93707000D01*
X124675285Y-93783190D01*
X124713380Y-93859380D01*
X124751476Y-94011761D01*
X124751476Y-94126047D01*
X124713380Y-94278428D01*
X124675285Y-94354619D01*
X124599095Y-94430809D01*
X124484809Y-94468904D01*
X124408619Y-94468904D01*
X124294333Y-94430809D01*
X124256238Y-94392714D01*
X124256238Y-94126047D01*
X124408619Y-94126047D01*
X123913380Y-94468904D02*
X123913380Y-93668904D01*
X123456238Y-94468904D01*
X123456238Y-93668904D01*
X123075285Y-94468904D02*
X123075285Y-93668904D01*
X122884809Y-93668904D01*
X122770523Y-93707000D01*
X122694333Y-93783190D01*
X122656238Y-93859380D01*
X122618142Y-94011761D01*
X122618142Y-94126047D01*
X122656238Y-94278428D01*
X122694333Y-94354619D01*
X122770523Y-94430809D01*
X122884809Y-94468904D01*
X123075285Y-94468904D01*
X131303857Y-95349857D02*
X131570523Y-95349857D01*
X131570523Y-95768904D02*
X131570523Y-94968904D01*
X131189571Y-94968904D01*
X130884809Y-95768904D02*
X130884809Y-94968904D01*
X130046714Y-95768904D02*
X130313380Y-95387952D01*
X130503857Y-95768904D02*
X130503857Y-94968904D01*
X130199095Y-94968904D01*
X130122904Y-95007000D01*
X130084809Y-95045095D01*
X130046714Y-95121285D01*
X130046714Y-95235571D01*
X130084809Y-95311761D01*
X130122904Y-95349857D01*
X130199095Y-95387952D01*
X130503857Y-95387952D01*
X129703857Y-95349857D02*
X129437190Y-95349857D01*
X129322904Y-95768904D02*
X129703857Y-95768904D01*
X129703857Y-94968904D01*
X129322904Y-94968904D01*
X129018142Y-95045095D02*
X128980047Y-95007000D01*
X128903857Y-94968904D01*
X128713380Y-94968904D01*
X128637190Y-95007000D01*
X128599095Y-95045095D01*
X128561000Y-95121285D01*
X128561000Y-95197476D01*
X128599095Y-95311761D01*
X129056238Y-95768904D01*
X128561000Y-95768904D01*
X128408619Y-95845095D02*
X127799095Y-95845095D01*
X127608619Y-95768904D02*
X127608619Y-94968904D01*
X127303857Y-94968904D01*
X127227666Y-95007000D01*
X127189571Y-95045095D01*
X127151476Y-95121285D01*
X127151476Y-95235571D01*
X127189571Y-95311761D01*
X127227666Y-95349857D01*
X127303857Y-95387952D01*
X127608619Y-95387952D01*
X126656238Y-94968904D02*
X126503857Y-94968904D01*
X126427666Y-95007000D01*
X126351476Y-95083190D01*
X126313380Y-95235571D01*
X126313380Y-95502238D01*
X126351476Y-95654619D01*
X126427666Y-95730809D01*
X126503857Y-95768904D01*
X126656238Y-95768904D01*
X126732428Y-95730809D01*
X126808619Y-95654619D01*
X126846714Y-95502238D01*
X126846714Y-95235571D01*
X126808619Y-95083190D01*
X126732428Y-95007000D01*
X126656238Y-94968904D01*
X125589571Y-95768904D02*
X125970523Y-95768904D01*
X125970523Y-94968904D01*
X124294333Y-95007000D02*
X124370523Y-94968904D01*
X124484809Y-94968904D01*
X124599095Y-95007000D01*
X124675285Y-95083190D01*
X124713380Y-95159380D01*
X124751476Y-95311761D01*
X124751476Y-95426047D01*
X124713380Y-95578428D01*
X124675285Y-95654619D01*
X124599095Y-95730809D01*
X124484809Y-95768904D01*
X124408619Y-95768904D01*
X124294333Y-95730809D01*
X124256238Y-95692714D01*
X124256238Y-95426047D01*
X124408619Y-95426047D01*
X123913380Y-95768904D02*
X123913380Y-94968904D01*
X123456238Y-95768904D01*
X123456238Y-94968904D01*
X123075285Y-95768904D02*
X123075285Y-94968904D01*
X122884809Y-94968904D01*
X122770523Y-95007000D01*
X122694333Y-95083190D01*
X122656238Y-95159380D01*
X122618142Y-95311761D01*
X122618142Y-95426047D01*
X122656238Y-95578428D01*
X122694333Y-95654619D01*
X122770523Y-95730809D01*
X122884809Y-95768904D01*
X123075285Y-95768904D01*
D12*
G36*
X145746802Y-96192012D02*
G01*
X144933189Y-96192012D01*
X144933189Y-94971592D01*
X144119575Y-94971592D01*
X144119575Y-96598819D01*
X144526382Y-96598819D01*
X144526382Y-97005626D01*
X144933189Y-97005626D01*
X144933189Y-97412433D01*
X146560416Y-97412433D01*
X146560416Y-97005626D01*
X145339995Y-97005626D01*
X145339995Y-96598819D01*
X146153609Y-96598819D01*
X146153609Y-96192012D01*
X146560416Y-96192012D01*
X146560416Y-94971592D01*
X145746802Y-94971592D01*
X145746802Y-96192012D01*
G37*
X145746802Y-96192012D02*
X144933189Y-96192012D01*
X144933189Y-94971592D01*
X144119575Y-94971592D01*
X144119575Y-96598819D01*
X144526382Y-96598819D01*
X144526382Y-97005626D01*
X144933189Y-97005626D01*
X144933189Y-97412433D01*
X146560416Y-97412433D01*
X146560416Y-97005626D01*
X145339995Y-97005626D01*
X145339995Y-96598819D01*
X146153609Y-96598819D01*
X146153609Y-96192012D01*
X146560416Y-96192012D01*
X146560416Y-94971592D01*
X145746802Y-94971592D01*
X145746802Y-96192012D01*
G36*
X149814870Y-94564785D02*
G01*
X150221677Y-94564785D01*
X150221677Y-96598819D01*
X150628484Y-96598819D01*
X150628484Y-97005626D01*
X151848904Y-97005626D01*
X151848904Y-96598819D01*
X152255711Y-96598819D01*
X152255711Y-96192012D01*
X151442097Y-96192012D01*
X151442097Y-96598819D01*
X151035291Y-96598819D01*
X151035291Y-94564785D01*
X151442097Y-94564785D01*
X151442097Y-94157978D01*
X149814870Y-94157978D01*
X149814870Y-94564785D01*
G37*
X149814870Y-94564785D02*
X150221677Y-94564785D01*
X150221677Y-96598819D01*
X150628484Y-96598819D01*
X150628484Y-97005626D01*
X151848904Y-97005626D01*
X151848904Y-96598819D01*
X152255711Y-96598819D01*
X152255711Y-96192012D01*
X151442097Y-96192012D01*
X151442097Y-96598819D01*
X151035291Y-96598819D01*
X151035291Y-94564785D01*
X151442097Y-94564785D01*
X151442097Y-94157978D01*
X149814870Y-94157978D01*
X149814870Y-94564785D01*
G36*
X147374029Y-95378399D02*
G01*
X146967223Y-95378399D01*
X146967223Y-96598819D01*
X147374029Y-96598819D01*
X147374029Y-97005626D01*
X149001257Y-97005626D01*
X149001257Y-96598819D01*
X149408063Y-96598819D01*
X149408063Y-95378399D01*
X149001257Y-95378399D01*
X148594450Y-95378399D01*
X148594450Y-96598819D01*
X147780836Y-96598819D01*
X147780836Y-95378399D01*
X148594450Y-95378399D01*
X149001257Y-95378399D01*
X149001257Y-94971592D01*
X147374029Y-94971592D01*
X147374029Y-95378399D01*
G37*
X147374029Y-95378399D02*
X146967223Y-95378399D01*
X146967223Y-96598819D01*
X147374029Y-96598819D01*
X147374029Y-97005626D01*
X149001257Y-97005626D01*
X149001257Y-96598819D01*
X149408063Y-96598819D01*
X149408063Y-95378399D01*
X149001257Y-95378399D01*
X148594450Y-95378399D01*
X148594450Y-96598819D01*
X147780836Y-96598819D01*
X147780836Y-95378399D01*
X148594450Y-95378399D01*
X149001257Y-95378399D01*
X149001257Y-94971592D01*
X147374029Y-94971592D01*
X147374029Y-95378399D01*
G36*
X142899154Y-94971592D02*
G01*
X142492348Y-94971592D01*
X142492348Y-94564785D01*
X142085541Y-94564785D01*
X142085541Y-94157978D01*
X141271927Y-94157978D01*
X141271927Y-94564785D01*
X141678734Y-94564785D01*
X141678734Y-94971592D01*
X142085541Y-94971592D01*
X142085541Y-95378399D01*
X142492348Y-95378399D01*
X142492348Y-95785206D01*
X142085541Y-95785206D01*
X142085541Y-96192012D01*
X141678734Y-96192012D01*
X141678734Y-96598819D01*
X141271927Y-96598819D01*
X141271927Y-97005626D01*
X142085541Y-97005626D01*
X142085541Y-96598819D01*
X142492348Y-96598819D01*
X142492348Y-96192012D01*
X142899154Y-96192012D01*
X142899154Y-97005626D01*
X143712768Y-97005626D01*
X143712768Y-94157978D01*
X142899154Y-94157978D01*
X142899154Y-94971592D01*
G37*
X142899154Y-94971592D02*
X142492348Y-94971592D01*
X142492348Y-94564785D01*
X142085541Y-94564785D01*
X142085541Y-94157978D01*
X141271927Y-94157978D01*
X141271927Y-94564785D01*
X141678734Y-94564785D01*
X141678734Y-94971592D01*
X142085541Y-94971592D01*
X142085541Y-95378399D01*
X142492348Y-95378399D01*
X142492348Y-95785206D01*
X142085541Y-95785206D01*
X142085541Y-96192012D01*
X141678734Y-96192012D01*
X141678734Y-96598819D01*
X141271927Y-96598819D01*
X141271927Y-97005626D01*
X142085541Y-97005626D01*
X142085541Y-96598819D01*
X142492348Y-96598819D01*
X142492348Y-96192012D01*
X142899154Y-96192012D01*
X142899154Y-97005626D01*
X143712768Y-97005626D01*
X143712768Y-94157978D01*
X142899154Y-94157978D01*
X142899154Y-94971592D01*
G36*
X138424280Y-94564785D02*
G01*
X140051507Y-94564785D01*
X140051507Y-95378399D01*
X139237893Y-95378399D01*
X139237893Y-95785206D01*
X140051507Y-95785206D01*
X140051507Y-96598819D01*
X138424280Y-96598819D01*
X138424280Y-97005626D01*
X140865120Y-97005626D01*
X140865120Y-94157978D01*
X138424280Y-94157978D01*
X138424280Y-94564785D01*
G37*
X138424280Y-94564785D02*
X140051507Y-94564785D01*
X140051507Y-95378399D01*
X139237893Y-95378399D01*
X139237893Y-95785206D01*
X140051507Y-95785206D01*
X140051507Y-96598819D01*
X138424280Y-96598819D01*
X138424280Y-97005626D01*
X140865120Y-97005626D01*
X140865120Y-94157978D01*
X138424280Y-94157978D01*
X138424280Y-94564785D01*
G36*
X137203859Y-95378399D02*
G01*
X136390246Y-95378399D01*
X136390246Y-94157978D01*
X135576632Y-94157978D01*
X135576632Y-95378399D01*
X135983439Y-95378399D01*
X135983439Y-95785206D01*
X136390246Y-95785206D01*
X136390246Y-97005626D01*
X137203859Y-97005626D01*
X137203859Y-95785206D01*
X137610666Y-95785206D01*
X137610666Y-95378399D01*
X138017473Y-95378399D01*
X138017473Y-94157978D01*
X137203859Y-94157978D01*
X137203859Y-95378399D01*
G37*
X137203859Y-95378399D02*
X136390246Y-95378399D01*
X136390246Y-94157978D01*
X135576632Y-94157978D01*
X135576632Y-95378399D01*
X135983439Y-95378399D01*
X135983439Y-95785206D01*
X136390246Y-95785206D01*
X136390246Y-97005626D01*
X137203859Y-97005626D01*
X137203859Y-95785206D01*
X137610666Y-95785206D01*
X137610666Y-95378399D01*
X138017473Y-95378399D01*
X138017473Y-94157978D01*
X137203859Y-94157978D01*
X137203859Y-95378399D01*
G36*
X146153609Y-91310331D02*
G01*
X145746802Y-91310331D01*
X145746802Y-91717137D01*
X146560416Y-91717137D01*
X146560416Y-91310331D01*
X147374029Y-91310331D01*
X147374029Y-93344365D01*
X146560416Y-93344365D01*
X146560416Y-92937558D01*
X145746802Y-92937558D01*
X145746802Y-93344365D01*
X146153609Y-93344365D01*
X146153609Y-93751171D01*
X147780836Y-93751171D01*
X147780836Y-93344365D01*
X148187643Y-93344365D01*
X148187643Y-91310331D01*
X147780836Y-91310331D01*
X147780836Y-90903524D01*
X146153609Y-90903524D01*
X146153609Y-91310331D01*
G37*
X146153609Y-91310331D02*
X145746802Y-91310331D01*
X145746802Y-91717137D01*
X146560416Y-91717137D01*
X146560416Y-91310331D01*
X147374029Y-91310331D01*
X147374029Y-93344365D01*
X146560416Y-93344365D01*
X146560416Y-92937558D01*
X145746802Y-92937558D01*
X145746802Y-93344365D01*
X146153609Y-93344365D01*
X146153609Y-93751171D01*
X147780836Y-93751171D01*
X147780836Y-93344365D01*
X148187643Y-93344365D01*
X148187643Y-91310331D01*
X147780836Y-91310331D01*
X147780836Y-90903524D01*
X146153609Y-90903524D01*
X146153609Y-91310331D01*
G36*
X143305961Y-91310331D02*
G01*
X142899154Y-91310331D01*
X142899154Y-91717137D01*
X143712768Y-91717137D01*
X143712768Y-91310331D01*
X144526382Y-91310331D01*
X144526382Y-92123944D01*
X143305961Y-92123944D01*
X143305961Y-92530751D01*
X142899154Y-92530751D01*
X142899154Y-93344365D01*
X143305961Y-93344365D01*
X143305961Y-93751171D01*
X144933189Y-93751171D01*
X144933189Y-93344365D01*
X145339995Y-93344365D01*
X145339995Y-92530751D01*
X144526382Y-92530751D01*
X144526382Y-93344365D01*
X143712768Y-93344365D01*
X143712768Y-92530751D01*
X144526382Y-92530751D01*
X145339995Y-92530751D01*
X145339995Y-91310331D01*
X144933189Y-91310331D01*
X144933189Y-90903524D01*
X143305961Y-90903524D01*
X143305961Y-91310331D01*
G37*
X143305961Y-91310331D02*
X142899154Y-91310331D01*
X142899154Y-91717137D01*
X143712768Y-91717137D01*
X143712768Y-91310331D01*
X144526382Y-91310331D01*
X144526382Y-92123944D01*
X143305961Y-92123944D01*
X143305961Y-92530751D01*
X142899154Y-92530751D01*
X142899154Y-93344365D01*
X143305961Y-93344365D01*
X143305961Y-93751171D01*
X144933189Y-93751171D01*
X144933189Y-93344365D01*
X145339995Y-93344365D01*
X145339995Y-92530751D01*
X144526382Y-92530751D01*
X144526382Y-93344365D01*
X143712768Y-93344365D01*
X143712768Y-92530751D01*
X144526382Y-92530751D01*
X145339995Y-92530751D01*
X145339995Y-91310331D01*
X144933189Y-91310331D01*
X144933189Y-90903524D01*
X143305961Y-90903524D01*
X143305961Y-91310331D01*
G36*
X140051507Y-92530751D02*
G01*
X139644700Y-92530751D01*
X139644700Y-92937558D01*
X140051507Y-92937558D01*
X140051507Y-93751171D01*
X140865120Y-93751171D01*
X140865120Y-92937558D01*
X142492348Y-92937558D01*
X142492348Y-92123944D01*
X141678734Y-92123944D01*
X141678734Y-92530751D01*
X140865120Y-92530751D01*
X140865120Y-92123944D01*
X141678734Y-92123944D01*
X141678734Y-91717137D01*
X141271927Y-91717137D01*
X141271927Y-91310331D01*
X140865120Y-91310331D01*
X140865120Y-90903524D01*
X140051507Y-90903524D01*
X140051507Y-92530751D01*
G37*
X140051507Y-92530751D02*
X139644700Y-92530751D01*
X139644700Y-92937558D01*
X140051507Y-92937558D01*
X140051507Y-93751171D01*
X140865120Y-93751171D01*
X140865120Y-92937558D01*
X142492348Y-92937558D01*
X142492348Y-92123944D01*
X141678734Y-92123944D01*
X141678734Y-92530751D01*
X140865120Y-92530751D01*
X140865120Y-92123944D01*
X141678734Y-92123944D01*
X141678734Y-91717137D01*
X141271927Y-91717137D01*
X141271927Y-91310331D01*
X140865120Y-91310331D01*
X140865120Y-90903524D01*
X140051507Y-90903524D01*
X140051507Y-92530751D01*
M02*
