G04 #@! TF.GenerationSoftware,KiCad,Pcbnew,(5.1.8)-1*
G04 #@! TF.CreationDate,2022-02-21T22:55:28+01:00*
G04 #@! TF.ProjectId,NEC PC Engine,4e454320-5043-4204-956e-67696e652e6b,rev?*
G04 #@! TF.SameCoordinates,Original*
G04 #@! TF.FileFunction,Copper,L2,Bot*
G04 #@! TF.FilePolarity,Positive*
%FSLAX46Y46*%
G04 Gerber Fmt 4.6, Leading zero omitted, Abs format (unit mm)*
G04 Created by KiCad (PCBNEW (5.1.8)-1) date 2022-02-21 22:55:28*
%MOMM*%
%LPD*%
G01*
G04 APERTURE LIST*
G04 #@! TA.AperFunction,ComponentPad*
%ADD10O,1.800000X2.500000*%
G04 #@! TD*
G04 #@! TA.AperFunction,ComponentPad*
%ADD11R,1.800000X2.500000*%
G04 #@! TD*
G04 #@! TA.AperFunction,ComponentPad*
%ADD12C,1.600000*%
G04 #@! TD*
G04 #@! TA.AperFunction,ComponentPad*
%ADD13O,1.600000X1.600000*%
G04 #@! TD*
G04 #@! TA.AperFunction,ComponentPad*
%ADD14O,1.727200X1.727200*%
G04 #@! TD*
G04 #@! TA.AperFunction,ComponentPad*
%ADD15R,1.727200X1.727200*%
G04 #@! TD*
G04 #@! TA.AperFunction,ComponentPad*
%ADD16C,3.500000*%
G04 #@! TD*
G04 #@! TA.AperFunction,ComponentPad*
%ADD17R,1.700000X1.700000*%
G04 #@! TD*
G04 #@! TA.AperFunction,ComponentPad*
%ADD18O,1.700000X1.700000*%
G04 #@! TD*
G04 #@! TA.AperFunction,ComponentPad*
%ADD19R,1.200000X1.200000*%
G04 #@! TD*
G04 #@! TA.AperFunction,ComponentPad*
%ADD20C,1.200000*%
G04 #@! TD*
G04 #@! TA.AperFunction,ComponentPad*
%ADD21R,2.400000X1.600000*%
G04 #@! TD*
G04 #@! TA.AperFunction,ComponentPad*
%ADD22O,2.400000X1.600000*%
G04 #@! TD*
G04 #@! TA.AperFunction,ViaPad*
%ADD23C,0.800000*%
G04 #@! TD*
G04 #@! TA.AperFunction,Conductor*
%ADD24C,0.381000*%
G04 #@! TD*
G04 #@! TA.AperFunction,Conductor*
%ADD25C,0.250000*%
G04 #@! TD*
G04 #@! TA.AperFunction,Conductor*
%ADD26C,0.254000*%
G04 #@! TD*
G04 #@! TA.AperFunction,Conductor*
%ADD27C,0.100000*%
G04 #@! TD*
G04 APERTURE END LIST*
D10*
X153035000Y-76835000D03*
X150495000Y-76835000D03*
X147955000Y-76835000D03*
X145415000Y-76835000D03*
X142875000Y-76835000D03*
X140335000Y-76835000D03*
X137795000Y-76835000D03*
D11*
X135255000Y-76835000D03*
D12*
X131445000Y-88900000D03*
D13*
X131445000Y-99060000D03*
D14*
X160655000Y-105410000D03*
X158115000Y-105410000D03*
X155575000Y-105410000D03*
X153035000Y-105410000D03*
X150495000Y-105410000D03*
X160655000Y-107950000D03*
X158115000Y-107950000D03*
X155575000Y-107950000D03*
X153035000Y-107950000D03*
D15*
X150495000Y-107950000D03*
D12*
X163830000Y-76835000D03*
X158830000Y-76835000D03*
D15*
X127635000Y-107950000D03*
D14*
X130175000Y-107950000D03*
X132715000Y-107950000D03*
X135255000Y-107950000D03*
X137795000Y-107950000D03*
X127635000Y-105410000D03*
X130175000Y-105410000D03*
X132715000Y-105410000D03*
X135255000Y-105410000D03*
X137795000Y-105410000D03*
D16*
X118745000Y-107950000D03*
X169545000Y-107950000D03*
X169545000Y-77470000D03*
X118745000Y-77455001D03*
D17*
X170180000Y-98425000D03*
D18*
X170180000Y-95885000D03*
D13*
X128270000Y-99060000D03*
D12*
X128270000Y-88900000D03*
X140970000Y-88900000D03*
D13*
X140970000Y-99060000D03*
X144145000Y-99060000D03*
D12*
X144145000Y-88900000D03*
D13*
X121920000Y-99060000D03*
D12*
X121920000Y-88900000D03*
X137795000Y-88900000D03*
D13*
X137795000Y-99060000D03*
X125095000Y-99060000D03*
D12*
X125095000Y-88900000D03*
X134620000Y-88900000D03*
D13*
X134620000Y-99060000D03*
D19*
X131445000Y-76835000D03*
D20*
X129445000Y-76835000D03*
D13*
X147320000Y-99060000D03*
D12*
X147320000Y-88900000D03*
X150495000Y-88900000D03*
D13*
X150495000Y-99060000D03*
X140335000Y-81280000D03*
D12*
X130175000Y-81280000D03*
X130175000Y-85090000D03*
D13*
X140335000Y-85090000D03*
X143510000Y-81280000D03*
D12*
X153670000Y-81280000D03*
X153670000Y-85090000D03*
D13*
X143510000Y-85090000D03*
D21*
X157480000Y-80645000D03*
D22*
X165100000Y-98425000D03*
X157480000Y-83185000D03*
X165100000Y-95885000D03*
X157480000Y-85725000D03*
X165100000Y-93345000D03*
X157480000Y-88265000D03*
X165100000Y-90805000D03*
X157480000Y-90805000D03*
X165100000Y-88265000D03*
X157480000Y-93345000D03*
X165100000Y-85725000D03*
X157480000Y-95885000D03*
X165100000Y-83185000D03*
X157480000Y-98425000D03*
X165100000Y-80645000D03*
D23*
X160745000Y-92075000D03*
X153035000Y-91440000D03*
X154940020Y-88265000D03*
X154305000Y-90170000D03*
X160020000Y-85180000D03*
X146938990Y-85344000D03*
X148665932Y-84470186D03*
D24*
X170180000Y-99695000D02*
X170180000Y-98425000D01*
X166370000Y-110490000D02*
X166370000Y-103505000D01*
X166370000Y-103505000D02*
X170180000Y-99695000D01*
X165735000Y-111125000D02*
X166370000Y-110490000D01*
X149225000Y-111125000D02*
X165735000Y-111125000D01*
X148590000Y-110490000D02*
X149225000Y-111125000D01*
X148590000Y-104140000D02*
X148590000Y-110490000D01*
X149225000Y-103505000D02*
X148590000Y-104140000D01*
X152400000Y-103505000D02*
X149225000Y-103505000D01*
X153035000Y-104140000D02*
X152400000Y-103505000D01*
X153035000Y-105410000D02*
X153035000Y-104140000D01*
D25*
X160745000Y-92075000D02*
X153670000Y-92075000D01*
X153670000Y-92075000D02*
X153035000Y-91440000D01*
X167640000Y-88900000D02*
X167005000Y-88265000D01*
X167005000Y-88265000D02*
X165100000Y-88265000D01*
X167640000Y-100965000D02*
X167640000Y-88900000D01*
X165735000Y-109855000D02*
X165735000Y-102870000D01*
X165100000Y-110490000D02*
X165735000Y-109855000D01*
X156210000Y-110490000D02*
X165100000Y-110490000D01*
X155575000Y-109855000D02*
X156210000Y-110490000D01*
X165735000Y-102870000D02*
X167640000Y-100965000D01*
X155575000Y-107950000D02*
X155575000Y-109855000D01*
X167005000Y-100330000D02*
X167005000Y-96520000D01*
X166370000Y-95885000D02*
X165100000Y-95885000D01*
X165100000Y-102235000D02*
X167005000Y-100330000D01*
X167005000Y-96520000D02*
X166370000Y-95885000D01*
X164465000Y-109855000D02*
X165100000Y-109220000D01*
X156845000Y-109220000D02*
X157480000Y-109855000D01*
X156845000Y-107315000D02*
X156845000Y-109220000D01*
X156210000Y-106680000D02*
X156845000Y-107315000D01*
X157480000Y-109855000D02*
X164465000Y-109855000D01*
X153670000Y-106680000D02*
X156210000Y-106680000D01*
X153035000Y-107315000D02*
X153670000Y-106680000D01*
X165100000Y-109220000D02*
X165100000Y-102235000D01*
X153035000Y-107950000D02*
X153035000Y-107315000D01*
X157480000Y-85725000D02*
X154940020Y-88264980D01*
X154940020Y-88264980D02*
X154940020Y-88265000D01*
X161290000Y-89535000D02*
X154940000Y-89535000D01*
X154940000Y-89535000D02*
X154305000Y-90170000D01*
X165100000Y-85725000D02*
X161290000Y-89535000D01*
X160020000Y-85180000D02*
X160020000Y-83820000D01*
X159385000Y-83185000D02*
X157480000Y-83185000D01*
X160020000Y-83820000D02*
X159385000Y-83185000D01*
X145903989Y-86379001D02*
X146938990Y-85344000D01*
X145903989Y-93833989D02*
X145903989Y-86379001D01*
X147320000Y-95250000D02*
X145903989Y-93833989D01*
X147320000Y-99060000D02*
X147320000Y-95250000D01*
X148665932Y-93420932D02*
X148665932Y-84470186D01*
X150495000Y-95250000D02*
X148665932Y-93420932D01*
X150495000Y-99060000D02*
X150495000Y-95250000D01*
D26*
X170156222Y-74383096D02*
X170744164Y-74560606D01*
X171286436Y-74848937D01*
X171762364Y-75237094D01*
X172153845Y-75710314D01*
X172445951Y-76250552D01*
X172627563Y-76837244D01*
X172695001Y-77478888D01*
X172695000Y-107917721D01*
X172631904Y-108561221D01*
X172454394Y-109149164D01*
X172166063Y-109691436D01*
X171777906Y-110167364D01*
X171304686Y-110558845D01*
X170764449Y-110850950D01*
X170177756Y-111032563D01*
X169536130Y-111100000D01*
X166927956Y-111100000D01*
X166956541Y-111076541D01*
X166982389Y-111045045D01*
X166982392Y-111045042D01*
X167059699Y-110950843D01*
X167136353Y-110807434D01*
X167162131Y-110722454D01*
X167183556Y-110651826D01*
X167195500Y-110530553D01*
X167195500Y-110530551D01*
X167199494Y-110490000D01*
X167195500Y-110449450D01*
X167195500Y-108363373D01*
X167251654Y-108645679D01*
X167431440Y-109079721D01*
X167692450Y-109470349D01*
X168024651Y-109802550D01*
X168415279Y-110063560D01*
X168849321Y-110243346D01*
X169310098Y-110335000D01*
X169779902Y-110335000D01*
X170240679Y-110243346D01*
X170674721Y-110063560D01*
X171065349Y-109802550D01*
X171397550Y-109470349D01*
X171658560Y-109079721D01*
X171838346Y-108645679D01*
X171930000Y-108184902D01*
X171930000Y-107715098D01*
X171838346Y-107254321D01*
X171658560Y-106820279D01*
X171397550Y-106429651D01*
X171065349Y-106097450D01*
X170674721Y-105836440D01*
X170240679Y-105656654D01*
X169779902Y-105565000D01*
X169310098Y-105565000D01*
X168849321Y-105656654D01*
X168415279Y-105836440D01*
X168024651Y-106097450D01*
X167692450Y-106429651D01*
X167431440Y-106820279D01*
X167251654Y-107254321D01*
X167195500Y-107536627D01*
X167195500Y-103846932D01*
X170735046Y-100307388D01*
X170766541Y-100281541D01*
X170792389Y-100250045D01*
X170792392Y-100250042D01*
X170869699Y-100155843D01*
X170946353Y-100012434D01*
X170946353Y-100012433D01*
X170976494Y-99913072D01*
X171030000Y-99913072D01*
X171154482Y-99900812D01*
X171274180Y-99864502D01*
X171384494Y-99805537D01*
X171481185Y-99726185D01*
X171560537Y-99629494D01*
X171619502Y-99519180D01*
X171655812Y-99399482D01*
X171668072Y-99275000D01*
X171668072Y-97575000D01*
X171655812Y-97450518D01*
X171619502Y-97330820D01*
X171560537Y-97220506D01*
X171481185Y-97123815D01*
X171384494Y-97044463D01*
X171274180Y-96985498D01*
X171201620Y-96963487D01*
X171333475Y-96831632D01*
X171495990Y-96588411D01*
X171607932Y-96318158D01*
X171665000Y-96031260D01*
X171665000Y-95738740D01*
X171607932Y-95451842D01*
X171495990Y-95181589D01*
X171333475Y-94938368D01*
X171126632Y-94731525D01*
X170883411Y-94569010D01*
X170613158Y-94457068D01*
X170326260Y-94400000D01*
X170033740Y-94400000D01*
X169746842Y-94457068D01*
X169476589Y-94569010D01*
X169233368Y-94731525D01*
X169026525Y-94938368D01*
X168864010Y-95181589D01*
X168752068Y-95451842D01*
X168695000Y-95738740D01*
X168695000Y-96031260D01*
X168752068Y-96318158D01*
X168864010Y-96588411D01*
X169026525Y-96831632D01*
X169158380Y-96963487D01*
X169085820Y-96985498D01*
X168975506Y-97044463D01*
X168878815Y-97123815D01*
X168799463Y-97220506D01*
X168740498Y-97330820D01*
X168704188Y-97450518D01*
X168691928Y-97575000D01*
X168691928Y-99275000D01*
X168704188Y-99399482D01*
X168740498Y-99519180D01*
X168799463Y-99629494D01*
X168878815Y-99726185D01*
X168935149Y-99772417D01*
X168400000Y-100307567D01*
X168400000Y-88937333D01*
X168403677Y-88900000D01*
X168389003Y-88751014D01*
X168345546Y-88607753D01*
X168274974Y-88475724D01*
X168203799Y-88388997D01*
X168180001Y-88359999D01*
X168151002Y-88336200D01*
X167568803Y-87754002D01*
X167545001Y-87724999D01*
X167429276Y-87630026D01*
X167297247Y-87559454D01*
X167153986Y-87515997D01*
X167042333Y-87505000D01*
X167042322Y-87505000D01*
X167005000Y-87501324D01*
X166967678Y-87505000D01*
X166720901Y-87505000D01*
X166698932Y-87463899D01*
X166519608Y-87245392D01*
X166301101Y-87066068D01*
X166168142Y-86995000D01*
X166301101Y-86923932D01*
X166519608Y-86744608D01*
X166698932Y-86526101D01*
X166832182Y-86276808D01*
X166914236Y-86006309D01*
X166941943Y-85725000D01*
X166914236Y-85443691D01*
X166832182Y-85173192D01*
X166698932Y-84923899D01*
X166519608Y-84705392D01*
X166301101Y-84526068D01*
X166168142Y-84455000D01*
X166301101Y-84383932D01*
X166519608Y-84204608D01*
X166698932Y-83986101D01*
X166832182Y-83736808D01*
X166914236Y-83466309D01*
X166941943Y-83185000D01*
X166914236Y-82903691D01*
X166832182Y-82633192D01*
X166698932Y-82383899D01*
X166519608Y-82165392D01*
X166301101Y-81986068D01*
X166168142Y-81915000D01*
X166301101Y-81843932D01*
X166519608Y-81664608D01*
X166698932Y-81446101D01*
X166832182Y-81196808D01*
X166914236Y-80926309D01*
X166941943Y-80645000D01*
X166914236Y-80363691D01*
X166832182Y-80093192D01*
X166698932Y-79843899D01*
X166519608Y-79625392D01*
X166301101Y-79446068D01*
X166051808Y-79312818D01*
X165781309Y-79230764D01*
X165570492Y-79210000D01*
X164629508Y-79210000D01*
X164418691Y-79230764D01*
X164148192Y-79312818D01*
X163898899Y-79446068D01*
X163680392Y-79625392D01*
X163501068Y-79843899D01*
X163367818Y-80093192D01*
X163285764Y-80363691D01*
X163258057Y-80645000D01*
X163285764Y-80926309D01*
X163367818Y-81196808D01*
X163501068Y-81446101D01*
X163680392Y-81664608D01*
X163898899Y-81843932D01*
X164031858Y-81915000D01*
X163898899Y-81986068D01*
X163680392Y-82165392D01*
X163501068Y-82383899D01*
X163367818Y-82633192D01*
X163285764Y-82903691D01*
X163258057Y-83185000D01*
X163285764Y-83466309D01*
X163367818Y-83736808D01*
X163501068Y-83986101D01*
X163680392Y-84204608D01*
X163898899Y-84383932D01*
X164031858Y-84455000D01*
X163898899Y-84526068D01*
X163680392Y-84705392D01*
X163501068Y-84923899D01*
X163367818Y-85173192D01*
X163285764Y-85443691D01*
X163258057Y-85725000D01*
X163285764Y-86006309D01*
X163367818Y-86276808D01*
X163404592Y-86345607D01*
X160975199Y-88775000D01*
X159224864Y-88775000D01*
X159294236Y-88546309D01*
X159321943Y-88265000D01*
X159294236Y-87983691D01*
X159212182Y-87713192D01*
X159078932Y-87463899D01*
X158899608Y-87245392D01*
X158681101Y-87066068D01*
X158548142Y-86995000D01*
X158681101Y-86923932D01*
X158899608Y-86744608D01*
X159078932Y-86526101D01*
X159212182Y-86276808D01*
X159294236Y-86006309D01*
X159302159Y-85925870D01*
X159360226Y-85983937D01*
X159529744Y-86097205D01*
X159718102Y-86175226D01*
X159918061Y-86215000D01*
X160121939Y-86215000D01*
X160321898Y-86175226D01*
X160510256Y-86097205D01*
X160679774Y-85983937D01*
X160823937Y-85839774D01*
X160937205Y-85670256D01*
X161015226Y-85481898D01*
X161055000Y-85281939D01*
X161055000Y-85078061D01*
X161015226Y-84878102D01*
X160937205Y-84689744D01*
X160823937Y-84520226D01*
X160780000Y-84476289D01*
X160780000Y-83857333D01*
X160783677Y-83820000D01*
X160769003Y-83671014D01*
X160725546Y-83527753D01*
X160654974Y-83395724D01*
X160583799Y-83308997D01*
X160560001Y-83279999D01*
X160531002Y-83256200D01*
X159948803Y-82674002D01*
X159925001Y-82644999D01*
X159809276Y-82550026D01*
X159677247Y-82479454D01*
X159533986Y-82435997D01*
X159422333Y-82425000D01*
X159422322Y-82425000D01*
X159385000Y-82421324D01*
X159347678Y-82425000D01*
X159100901Y-82425000D01*
X159078932Y-82383899D01*
X158899608Y-82165392D01*
X158786518Y-82072581D01*
X158804482Y-82070812D01*
X158924180Y-82034502D01*
X159034494Y-81975537D01*
X159131185Y-81896185D01*
X159210537Y-81799494D01*
X159269502Y-81689180D01*
X159305812Y-81569482D01*
X159318072Y-81445000D01*
X159318072Y-79845000D01*
X159305812Y-79720518D01*
X159269502Y-79600820D01*
X159210537Y-79490506D01*
X159131185Y-79393815D01*
X159034494Y-79314463D01*
X158924180Y-79255498D01*
X158804482Y-79219188D01*
X158680000Y-79206928D01*
X156280000Y-79206928D01*
X156155518Y-79219188D01*
X156035820Y-79255498D01*
X155925506Y-79314463D01*
X155828815Y-79393815D01*
X155749463Y-79490506D01*
X155690498Y-79600820D01*
X155654188Y-79720518D01*
X155641928Y-79845000D01*
X155641928Y-81445000D01*
X155654188Y-81569482D01*
X155690498Y-81689180D01*
X155749463Y-81799494D01*
X155828815Y-81896185D01*
X155925506Y-81975537D01*
X156035820Y-82034502D01*
X156155518Y-82070812D01*
X156173482Y-82072581D01*
X156060392Y-82165392D01*
X155881068Y-82383899D01*
X155747818Y-82633192D01*
X155665764Y-82903691D01*
X155638057Y-83185000D01*
X155665764Y-83466309D01*
X155747818Y-83736808D01*
X155881068Y-83986101D01*
X156060392Y-84204608D01*
X156278899Y-84383932D01*
X156411858Y-84455000D01*
X156278899Y-84526068D01*
X156060392Y-84705392D01*
X155881068Y-84923899D01*
X155747818Y-85173192D01*
X155665764Y-85443691D01*
X155638057Y-85725000D01*
X155665764Y-86006309D01*
X155747818Y-86276808D01*
X155784592Y-86345607D01*
X154900199Y-87230000D01*
X154838081Y-87230000D01*
X154638122Y-87269774D01*
X154449764Y-87347795D01*
X154280246Y-87461063D01*
X154136083Y-87605226D01*
X154022815Y-87774744D01*
X153944794Y-87963102D01*
X153905020Y-88163061D01*
X153905020Y-88366939D01*
X153944794Y-88566898D01*
X154022815Y-88755256D01*
X154136083Y-88924774D01*
X154280246Y-89068937D01*
X154310827Y-89089371D01*
X154265198Y-89135000D01*
X154203061Y-89135000D01*
X154003102Y-89174774D01*
X153814744Y-89252795D01*
X153645226Y-89366063D01*
X153501063Y-89510226D01*
X153387795Y-89679744D01*
X153309774Y-89868102D01*
X153270000Y-90068061D01*
X153270000Y-90271939D01*
X153303039Y-90438039D01*
X153136939Y-90405000D01*
X152933061Y-90405000D01*
X152733102Y-90444774D01*
X152544744Y-90522795D01*
X152375226Y-90636063D01*
X152231063Y-90780226D01*
X152117795Y-90949744D01*
X152039774Y-91138102D01*
X152000000Y-91338061D01*
X152000000Y-91541939D01*
X152039774Y-91741898D01*
X152117795Y-91930256D01*
X152231063Y-92099774D01*
X152375226Y-92243937D01*
X152544744Y-92357205D01*
X152733102Y-92435226D01*
X152933061Y-92475000D01*
X152995198Y-92475000D01*
X153106200Y-92586002D01*
X153129999Y-92615001D01*
X153158997Y-92638799D01*
X153245724Y-92709974D01*
X153377753Y-92780546D01*
X153521014Y-92824003D01*
X153670000Y-92838677D01*
X153707333Y-92835000D01*
X155735136Y-92835000D01*
X155665764Y-93063691D01*
X155638057Y-93345000D01*
X155665764Y-93626309D01*
X155747818Y-93896808D01*
X155881068Y-94146101D01*
X156060392Y-94364608D01*
X156278899Y-94543932D01*
X156411858Y-94615000D01*
X156278899Y-94686068D01*
X156060392Y-94865392D01*
X155881068Y-95083899D01*
X155747818Y-95333192D01*
X155665764Y-95603691D01*
X155638057Y-95885000D01*
X155665764Y-96166309D01*
X155747818Y-96436808D01*
X155881068Y-96686101D01*
X156060392Y-96904608D01*
X156278899Y-97083932D01*
X156406741Y-97152265D01*
X156177161Y-97302399D01*
X155975500Y-97500105D01*
X155816285Y-97733354D01*
X155705633Y-97993182D01*
X155688096Y-98075961D01*
X155810085Y-98298000D01*
X157353000Y-98298000D01*
X157353000Y-98278000D01*
X157607000Y-98278000D01*
X157607000Y-98298000D01*
X159149915Y-98298000D01*
X159271904Y-98075961D01*
X159254367Y-97993182D01*
X159143715Y-97733354D01*
X158984500Y-97500105D01*
X158782839Y-97302399D01*
X158553259Y-97152265D01*
X158681101Y-97083932D01*
X158899608Y-96904608D01*
X159078932Y-96686101D01*
X159212182Y-96436808D01*
X159294236Y-96166309D01*
X159321943Y-95885000D01*
X159294236Y-95603691D01*
X159212182Y-95333192D01*
X159078932Y-95083899D01*
X158899608Y-94865392D01*
X158681101Y-94686068D01*
X158548142Y-94615000D01*
X158681101Y-94543932D01*
X158899608Y-94364608D01*
X159078932Y-94146101D01*
X159212182Y-93896808D01*
X159294236Y-93626309D01*
X159321943Y-93345000D01*
X159294236Y-93063691D01*
X159224864Y-92835000D01*
X160041289Y-92835000D01*
X160085226Y-92878937D01*
X160254744Y-92992205D01*
X160443102Y-93070226D01*
X160643061Y-93110000D01*
X160846939Y-93110000D01*
X161046898Y-93070226D01*
X161235256Y-92992205D01*
X161404774Y-92878937D01*
X161548937Y-92734774D01*
X161662205Y-92565256D01*
X161740226Y-92376898D01*
X161780000Y-92176939D01*
X161780000Y-91973061D01*
X161740226Y-91773102D01*
X161662205Y-91584744D01*
X161548937Y-91415226D01*
X161404774Y-91271063D01*
X161235256Y-91157795D01*
X161046898Y-91079774D01*
X160846939Y-91040000D01*
X160643061Y-91040000D01*
X160443102Y-91079774D01*
X160254744Y-91157795D01*
X160085226Y-91271063D01*
X160041289Y-91315000D01*
X159224864Y-91315000D01*
X159294236Y-91086309D01*
X159321943Y-90805000D01*
X159294236Y-90523691D01*
X159224864Y-90295000D01*
X161252678Y-90295000D01*
X161290000Y-90298676D01*
X161327322Y-90295000D01*
X161327333Y-90295000D01*
X161438986Y-90284003D01*
X161582247Y-90240546D01*
X161714276Y-90169974D01*
X161830001Y-90075001D01*
X161853804Y-90045997D01*
X163301527Y-88598274D01*
X163367818Y-88816808D01*
X163501068Y-89066101D01*
X163680392Y-89284608D01*
X163898899Y-89463932D01*
X164031858Y-89535000D01*
X163898899Y-89606068D01*
X163680392Y-89785392D01*
X163501068Y-90003899D01*
X163367818Y-90253192D01*
X163285764Y-90523691D01*
X163258057Y-90805000D01*
X163285764Y-91086309D01*
X163367818Y-91356808D01*
X163501068Y-91606101D01*
X163680392Y-91824608D01*
X163898899Y-92003932D01*
X164031858Y-92075000D01*
X163898899Y-92146068D01*
X163680392Y-92325392D01*
X163501068Y-92543899D01*
X163367818Y-92793192D01*
X163285764Y-93063691D01*
X163258057Y-93345000D01*
X163285764Y-93626309D01*
X163367818Y-93896808D01*
X163501068Y-94146101D01*
X163680392Y-94364608D01*
X163898899Y-94543932D01*
X164031858Y-94615000D01*
X163898899Y-94686068D01*
X163680392Y-94865392D01*
X163501068Y-95083899D01*
X163367818Y-95333192D01*
X163285764Y-95603691D01*
X163258057Y-95885000D01*
X163285764Y-96166309D01*
X163367818Y-96436808D01*
X163501068Y-96686101D01*
X163680392Y-96904608D01*
X163898899Y-97083932D01*
X164031858Y-97155000D01*
X163898899Y-97226068D01*
X163680392Y-97405392D01*
X163501068Y-97623899D01*
X163367818Y-97873192D01*
X163285764Y-98143691D01*
X163258057Y-98425000D01*
X163285764Y-98706309D01*
X163367818Y-98976808D01*
X163501068Y-99226101D01*
X163680392Y-99444608D01*
X163898899Y-99623932D01*
X164148192Y-99757182D01*
X164418691Y-99839236D01*
X164629508Y-99860000D01*
X165570492Y-99860000D01*
X165781309Y-99839236D01*
X166051808Y-99757182D01*
X166245000Y-99653919D01*
X166245000Y-100015198D01*
X164588998Y-101671201D01*
X164560000Y-101694999D01*
X164536202Y-101723997D01*
X164536201Y-101723998D01*
X164465026Y-101810724D01*
X164394454Y-101942754D01*
X164364180Y-102042558D01*
X164350998Y-102086014D01*
X164343272Y-102164454D01*
X164336324Y-102235000D01*
X164340001Y-102272332D01*
X164340000Y-108905198D01*
X164150199Y-109095000D01*
X161629341Y-109095000D01*
X161819039Y-108905302D01*
X161983042Y-108659853D01*
X162096010Y-108387125D01*
X162153600Y-108097599D01*
X162153600Y-107802401D01*
X162096010Y-107512875D01*
X161983042Y-107240147D01*
X161819039Y-106994698D01*
X161610302Y-106785961D01*
X161451719Y-106680000D01*
X161610302Y-106574039D01*
X161819039Y-106365302D01*
X161983042Y-106119853D01*
X162096010Y-105847125D01*
X162153600Y-105557599D01*
X162153600Y-105262401D01*
X162096010Y-104972875D01*
X161983042Y-104700147D01*
X161819039Y-104454698D01*
X161610302Y-104245961D01*
X161364853Y-104081958D01*
X161092125Y-103968990D01*
X160802599Y-103911400D01*
X160507401Y-103911400D01*
X160217875Y-103968990D01*
X159945147Y-104081958D01*
X159699698Y-104245961D01*
X159490961Y-104454698D01*
X159385000Y-104613281D01*
X159279039Y-104454698D01*
X159070302Y-104245961D01*
X158824853Y-104081958D01*
X158552125Y-103968990D01*
X158262599Y-103911400D01*
X157967401Y-103911400D01*
X157677875Y-103968990D01*
X157405147Y-104081958D01*
X157159698Y-104245961D01*
X156950961Y-104454698D01*
X156840441Y-104620103D01*
X156781817Y-104521512D01*
X156585293Y-104303146D01*
X156349944Y-104127316D01*
X156084814Y-104000778D01*
X155934026Y-103955042D01*
X155702000Y-104076183D01*
X155702000Y-105283000D01*
X155722000Y-105283000D01*
X155722000Y-105537000D01*
X155702000Y-105537000D01*
X155702000Y-105557000D01*
X155448000Y-105557000D01*
X155448000Y-105537000D01*
X155428000Y-105537000D01*
X155428000Y-105283000D01*
X155448000Y-105283000D01*
X155448000Y-104076183D01*
X155215974Y-103955042D01*
X155065186Y-104000778D01*
X154800056Y-104127316D01*
X154564707Y-104303146D01*
X154368183Y-104521512D01*
X154309559Y-104620103D01*
X154199039Y-104454698D01*
X153990302Y-104245961D01*
X153862470Y-104160547D01*
X153864494Y-104140000D01*
X153859721Y-104091540D01*
X153848556Y-103978174D01*
X153801353Y-103822566D01*
X153724700Y-103679159D01*
X153724699Y-103679157D01*
X153647392Y-103584958D01*
X153647389Y-103584955D01*
X153621541Y-103553459D01*
X153590044Y-103527610D01*
X153012397Y-102949965D01*
X152986541Y-102918459D01*
X152860842Y-102815301D01*
X152717434Y-102738647D01*
X152561826Y-102691444D01*
X152440553Y-102679500D01*
X152440550Y-102679500D01*
X152400000Y-102675506D01*
X152359450Y-102679500D01*
X149265550Y-102679500D01*
X149225000Y-102675506D01*
X149184449Y-102679500D01*
X149184447Y-102679500D01*
X149063174Y-102691444D01*
X148907566Y-102738647D01*
X148764157Y-102815301D01*
X148669958Y-102892608D01*
X148669957Y-102892609D01*
X148638459Y-102918459D01*
X148612610Y-102949956D01*
X148034965Y-103527603D01*
X148003459Y-103553459D01*
X147934214Y-103637835D01*
X147900301Y-103679158D01*
X147823719Y-103822433D01*
X147823647Y-103822567D01*
X147776444Y-103978175D01*
X147766223Y-104081958D01*
X147760506Y-104140000D01*
X147764500Y-104180551D01*
X147764501Y-110449440D01*
X147760506Y-110490000D01*
X147776445Y-110651826D01*
X147823647Y-110807433D01*
X147900301Y-110950842D01*
X147961078Y-111024898D01*
X148003460Y-111076541D01*
X148032045Y-111100000D01*
X118777279Y-111100000D01*
X118133779Y-111036904D01*
X117545836Y-110859394D01*
X117003564Y-110571063D01*
X116527636Y-110182906D01*
X116136155Y-109709686D01*
X115844050Y-109169449D01*
X115662437Y-108582756D01*
X115595000Y-107941130D01*
X115595000Y-107715098D01*
X116360000Y-107715098D01*
X116360000Y-108184902D01*
X116451654Y-108645679D01*
X116631440Y-109079721D01*
X116892450Y-109470349D01*
X117224651Y-109802550D01*
X117615279Y-110063560D01*
X118049321Y-110243346D01*
X118510098Y-110335000D01*
X118979902Y-110335000D01*
X119440679Y-110243346D01*
X119874721Y-110063560D01*
X120265349Y-109802550D01*
X120597550Y-109470349D01*
X120858560Y-109079721D01*
X121038346Y-108645679D01*
X121130000Y-108184902D01*
X121130000Y-107715098D01*
X121038346Y-107254321D01*
X120968791Y-107086400D01*
X126133328Y-107086400D01*
X126133328Y-108813600D01*
X126145588Y-108938082D01*
X126181898Y-109057780D01*
X126240863Y-109168094D01*
X126320215Y-109264785D01*
X126416906Y-109344137D01*
X126527220Y-109403102D01*
X126646918Y-109439412D01*
X126771400Y-109451672D01*
X128498600Y-109451672D01*
X128623082Y-109439412D01*
X128742780Y-109403102D01*
X128853094Y-109344137D01*
X128949785Y-109264785D01*
X129029137Y-109168094D01*
X129088102Y-109057780D01*
X129105636Y-108999977D01*
X129219698Y-109114039D01*
X129465147Y-109278042D01*
X129737875Y-109391010D01*
X130027401Y-109448600D01*
X130322599Y-109448600D01*
X130612125Y-109391010D01*
X130884853Y-109278042D01*
X131130302Y-109114039D01*
X131339039Y-108905302D01*
X131445000Y-108746719D01*
X131550961Y-108905302D01*
X131759698Y-109114039D01*
X132005147Y-109278042D01*
X132277875Y-109391010D01*
X132567401Y-109448600D01*
X132862599Y-109448600D01*
X133152125Y-109391010D01*
X133424853Y-109278042D01*
X133670302Y-109114039D01*
X133879039Y-108905302D01*
X133985000Y-108746719D01*
X134090961Y-108905302D01*
X134299698Y-109114039D01*
X134545147Y-109278042D01*
X134817875Y-109391010D01*
X135107401Y-109448600D01*
X135402599Y-109448600D01*
X135692125Y-109391010D01*
X135964853Y-109278042D01*
X136210302Y-109114039D01*
X136419039Y-108905302D01*
X136525000Y-108746719D01*
X136630961Y-108905302D01*
X136839698Y-109114039D01*
X137085147Y-109278042D01*
X137357875Y-109391010D01*
X137647401Y-109448600D01*
X137942599Y-109448600D01*
X138232125Y-109391010D01*
X138504853Y-109278042D01*
X138750302Y-109114039D01*
X138959039Y-108905302D01*
X139123042Y-108659853D01*
X139236010Y-108387125D01*
X139293600Y-108097599D01*
X139293600Y-107802401D01*
X139236010Y-107512875D01*
X139123042Y-107240147D01*
X138959039Y-106994698D01*
X138750302Y-106785961D01*
X138591719Y-106680000D01*
X138750302Y-106574039D01*
X138959039Y-106365302D01*
X139123042Y-106119853D01*
X139236010Y-105847125D01*
X139293600Y-105557599D01*
X139293600Y-105262401D01*
X139236010Y-104972875D01*
X139123042Y-104700147D01*
X138959039Y-104454698D01*
X138750302Y-104245961D01*
X138504853Y-104081958D01*
X138232125Y-103968990D01*
X137942599Y-103911400D01*
X137647401Y-103911400D01*
X137357875Y-103968990D01*
X137085147Y-104081958D01*
X136839698Y-104245961D01*
X136630961Y-104454698D01*
X136525000Y-104613281D01*
X136419039Y-104454698D01*
X136210302Y-104245961D01*
X135964853Y-104081958D01*
X135692125Y-103968990D01*
X135402599Y-103911400D01*
X135107401Y-103911400D01*
X134817875Y-103968990D01*
X134545147Y-104081958D01*
X134299698Y-104245961D01*
X134090961Y-104454698D01*
X133980441Y-104620103D01*
X133921817Y-104521512D01*
X133725293Y-104303146D01*
X133489944Y-104127316D01*
X133224814Y-104000778D01*
X133074026Y-103955042D01*
X132842000Y-104076183D01*
X132842000Y-105283000D01*
X132862000Y-105283000D01*
X132862000Y-105537000D01*
X132842000Y-105537000D01*
X132842000Y-105557000D01*
X132588000Y-105557000D01*
X132588000Y-105537000D01*
X132568000Y-105537000D01*
X132568000Y-105283000D01*
X132588000Y-105283000D01*
X132588000Y-104076183D01*
X132355974Y-103955042D01*
X132205186Y-104000778D01*
X131940056Y-104127316D01*
X131704707Y-104303146D01*
X131508183Y-104521512D01*
X131449559Y-104620103D01*
X131339039Y-104454698D01*
X131130302Y-104245961D01*
X130884853Y-104081958D01*
X130612125Y-103968990D01*
X130322599Y-103911400D01*
X130027401Y-103911400D01*
X129737875Y-103968990D01*
X129465147Y-104081958D01*
X129219698Y-104245961D01*
X129010961Y-104454698D01*
X128905000Y-104613281D01*
X128799039Y-104454698D01*
X128590302Y-104245961D01*
X128344853Y-104081958D01*
X128072125Y-103968990D01*
X127782599Y-103911400D01*
X127487401Y-103911400D01*
X127197875Y-103968990D01*
X126925147Y-104081958D01*
X126679698Y-104245961D01*
X126470961Y-104454698D01*
X126306958Y-104700147D01*
X126193990Y-104972875D01*
X126136400Y-105262401D01*
X126136400Y-105557599D01*
X126193990Y-105847125D01*
X126306958Y-106119853D01*
X126470961Y-106365302D01*
X126585023Y-106479364D01*
X126527220Y-106496898D01*
X126416906Y-106555863D01*
X126320215Y-106635215D01*
X126240863Y-106731906D01*
X126181898Y-106842220D01*
X126145588Y-106961918D01*
X126133328Y-107086400D01*
X120968791Y-107086400D01*
X120858560Y-106820279D01*
X120597550Y-106429651D01*
X120265349Y-106097450D01*
X119874721Y-105836440D01*
X119440679Y-105656654D01*
X118979902Y-105565000D01*
X118510098Y-105565000D01*
X118049321Y-105656654D01*
X117615279Y-105836440D01*
X117224651Y-106097450D01*
X116892450Y-106429651D01*
X116631440Y-106820279D01*
X116451654Y-107254321D01*
X116360000Y-107715098D01*
X115595000Y-107715098D01*
X115595000Y-98918665D01*
X120485000Y-98918665D01*
X120485000Y-99201335D01*
X120540147Y-99478574D01*
X120648320Y-99739727D01*
X120805363Y-99974759D01*
X121005241Y-100174637D01*
X121240273Y-100331680D01*
X121501426Y-100439853D01*
X121778665Y-100495000D01*
X122061335Y-100495000D01*
X122338574Y-100439853D01*
X122599727Y-100331680D01*
X122834759Y-100174637D01*
X123034637Y-99974759D01*
X123191680Y-99739727D01*
X123299853Y-99478574D01*
X123355000Y-99201335D01*
X123355000Y-98918665D01*
X123660000Y-98918665D01*
X123660000Y-99201335D01*
X123715147Y-99478574D01*
X123823320Y-99739727D01*
X123980363Y-99974759D01*
X124180241Y-100174637D01*
X124415273Y-100331680D01*
X124676426Y-100439853D01*
X124953665Y-100495000D01*
X125236335Y-100495000D01*
X125513574Y-100439853D01*
X125774727Y-100331680D01*
X126009759Y-100174637D01*
X126209637Y-99974759D01*
X126366680Y-99739727D01*
X126474853Y-99478574D01*
X126530000Y-99201335D01*
X126530000Y-98918665D01*
X126835000Y-98918665D01*
X126835000Y-99201335D01*
X126890147Y-99478574D01*
X126998320Y-99739727D01*
X127155363Y-99974759D01*
X127355241Y-100174637D01*
X127590273Y-100331680D01*
X127851426Y-100439853D01*
X128128665Y-100495000D01*
X128411335Y-100495000D01*
X128688574Y-100439853D01*
X128949727Y-100331680D01*
X129184759Y-100174637D01*
X129384637Y-99974759D01*
X129541680Y-99739727D01*
X129649853Y-99478574D01*
X129705000Y-99201335D01*
X129705000Y-98918665D01*
X130010000Y-98918665D01*
X130010000Y-99201335D01*
X130065147Y-99478574D01*
X130173320Y-99739727D01*
X130330363Y-99974759D01*
X130530241Y-100174637D01*
X130765273Y-100331680D01*
X131026426Y-100439853D01*
X131303665Y-100495000D01*
X131586335Y-100495000D01*
X131863574Y-100439853D01*
X132124727Y-100331680D01*
X132359759Y-100174637D01*
X132559637Y-99974759D01*
X132716680Y-99739727D01*
X132824853Y-99478574D01*
X132880000Y-99201335D01*
X132880000Y-98918665D01*
X133185000Y-98918665D01*
X133185000Y-99201335D01*
X133240147Y-99478574D01*
X133348320Y-99739727D01*
X133505363Y-99974759D01*
X133705241Y-100174637D01*
X133940273Y-100331680D01*
X134201426Y-100439853D01*
X134478665Y-100495000D01*
X134761335Y-100495000D01*
X135038574Y-100439853D01*
X135299727Y-100331680D01*
X135534759Y-100174637D01*
X135734637Y-99974759D01*
X135891680Y-99739727D01*
X135999853Y-99478574D01*
X136055000Y-99201335D01*
X136055000Y-98918665D01*
X136360000Y-98918665D01*
X136360000Y-99201335D01*
X136415147Y-99478574D01*
X136523320Y-99739727D01*
X136680363Y-99974759D01*
X136880241Y-100174637D01*
X137115273Y-100331680D01*
X137376426Y-100439853D01*
X137653665Y-100495000D01*
X137936335Y-100495000D01*
X138213574Y-100439853D01*
X138474727Y-100331680D01*
X138709759Y-100174637D01*
X138909637Y-99974759D01*
X139066680Y-99739727D01*
X139174853Y-99478574D01*
X139230000Y-99201335D01*
X139230000Y-98918665D01*
X139535000Y-98918665D01*
X139535000Y-99201335D01*
X139590147Y-99478574D01*
X139698320Y-99739727D01*
X139855363Y-99974759D01*
X140055241Y-100174637D01*
X140290273Y-100331680D01*
X140551426Y-100439853D01*
X140828665Y-100495000D01*
X141111335Y-100495000D01*
X141388574Y-100439853D01*
X141649727Y-100331680D01*
X141884759Y-100174637D01*
X142084637Y-99974759D01*
X142241680Y-99739727D01*
X142349853Y-99478574D01*
X142405000Y-99201335D01*
X142405000Y-98918665D01*
X142710000Y-98918665D01*
X142710000Y-99201335D01*
X142765147Y-99478574D01*
X142873320Y-99739727D01*
X143030363Y-99974759D01*
X143230241Y-100174637D01*
X143465273Y-100331680D01*
X143726426Y-100439853D01*
X144003665Y-100495000D01*
X144286335Y-100495000D01*
X144563574Y-100439853D01*
X144824727Y-100331680D01*
X145059759Y-100174637D01*
X145259637Y-99974759D01*
X145416680Y-99739727D01*
X145524853Y-99478574D01*
X145580000Y-99201335D01*
X145580000Y-98918665D01*
X145524853Y-98641426D01*
X145416680Y-98380273D01*
X145259637Y-98145241D01*
X145059759Y-97945363D01*
X144824727Y-97788320D01*
X144563574Y-97680147D01*
X144286335Y-97625000D01*
X144003665Y-97625000D01*
X143726426Y-97680147D01*
X143465273Y-97788320D01*
X143230241Y-97945363D01*
X143030363Y-98145241D01*
X142873320Y-98380273D01*
X142765147Y-98641426D01*
X142710000Y-98918665D01*
X142405000Y-98918665D01*
X142349853Y-98641426D01*
X142241680Y-98380273D01*
X142084637Y-98145241D01*
X141884759Y-97945363D01*
X141649727Y-97788320D01*
X141388574Y-97680147D01*
X141111335Y-97625000D01*
X140828665Y-97625000D01*
X140551426Y-97680147D01*
X140290273Y-97788320D01*
X140055241Y-97945363D01*
X139855363Y-98145241D01*
X139698320Y-98380273D01*
X139590147Y-98641426D01*
X139535000Y-98918665D01*
X139230000Y-98918665D01*
X139174853Y-98641426D01*
X139066680Y-98380273D01*
X138909637Y-98145241D01*
X138709759Y-97945363D01*
X138474727Y-97788320D01*
X138213574Y-97680147D01*
X137936335Y-97625000D01*
X137653665Y-97625000D01*
X137376426Y-97680147D01*
X137115273Y-97788320D01*
X136880241Y-97945363D01*
X136680363Y-98145241D01*
X136523320Y-98380273D01*
X136415147Y-98641426D01*
X136360000Y-98918665D01*
X136055000Y-98918665D01*
X135999853Y-98641426D01*
X135891680Y-98380273D01*
X135734637Y-98145241D01*
X135534759Y-97945363D01*
X135299727Y-97788320D01*
X135038574Y-97680147D01*
X134761335Y-97625000D01*
X134478665Y-97625000D01*
X134201426Y-97680147D01*
X133940273Y-97788320D01*
X133705241Y-97945363D01*
X133505363Y-98145241D01*
X133348320Y-98380273D01*
X133240147Y-98641426D01*
X133185000Y-98918665D01*
X132880000Y-98918665D01*
X132824853Y-98641426D01*
X132716680Y-98380273D01*
X132559637Y-98145241D01*
X132359759Y-97945363D01*
X132124727Y-97788320D01*
X131863574Y-97680147D01*
X131586335Y-97625000D01*
X131303665Y-97625000D01*
X131026426Y-97680147D01*
X130765273Y-97788320D01*
X130530241Y-97945363D01*
X130330363Y-98145241D01*
X130173320Y-98380273D01*
X130065147Y-98641426D01*
X130010000Y-98918665D01*
X129705000Y-98918665D01*
X129649853Y-98641426D01*
X129541680Y-98380273D01*
X129384637Y-98145241D01*
X129184759Y-97945363D01*
X128949727Y-97788320D01*
X128688574Y-97680147D01*
X128411335Y-97625000D01*
X128128665Y-97625000D01*
X127851426Y-97680147D01*
X127590273Y-97788320D01*
X127355241Y-97945363D01*
X127155363Y-98145241D01*
X126998320Y-98380273D01*
X126890147Y-98641426D01*
X126835000Y-98918665D01*
X126530000Y-98918665D01*
X126474853Y-98641426D01*
X126366680Y-98380273D01*
X126209637Y-98145241D01*
X126009759Y-97945363D01*
X125774727Y-97788320D01*
X125513574Y-97680147D01*
X125236335Y-97625000D01*
X124953665Y-97625000D01*
X124676426Y-97680147D01*
X124415273Y-97788320D01*
X124180241Y-97945363D01*
X123980363Y-98145241D01*
X123823320Y-98380273D01*
X123715147Y-98641426D01*
X123660000Y-98918665D01*
X123355000Y-98918665D01*
X123299853Y-98641426D01*
X123191680Y-98380273D01*
X123034637Y-98145241D01*
X122834759Y-97945363D01*
X122599727Y-97788320D01*
X122338574Y-97680147D01*
X122061335Y-97625000D01*
X121778665Y-97625000D01*
X121501426Y-97680147D01*
X121240273Y-97788320D01*
X121005241Y-97945363D01*
X120805363Y-98145241D01*
X120648320Y-98380273D01*
X120540147Y-98641426D01*
X120485000Y-98918665D01*
X115595000Y-98918665D01*
X115595000Y-88758665D01*
X120485000Y-88758665D01*
X120485000Y-89041335D01*
X120540147Y-89318574D01*
X120648320Y-89579727D01*
X120805363Y-89814759D01*
X121005241Y-90014637D01*
X121240273Y-90171680D01*
X121501426Y-90279853D01*
X121778665Y-90335000D01*
X122061335Y-90335000D01*
X122338574Y-90279853D01*
X122599727Y-90171680D01*
X122834759Y-90014637D01*
X123034637Y-89814759D01*
X123191680Y-89579727D01*
X123299853Y-89318574D01*
X123355000Y-89041335D01*
X123355000Y-88758665D01*
X123660000Y-88758665D01*
X123660000Y-89041335D01*
X123715147Y-89318574D01*
X123823320Y-89579727D01*
X123980363Y-89814759D01*
X124180241Y-90014637D01*
X124415273Y-90171680D01*
X124676426Y-90279853D01*
X124953665Y-90335000D01*
X125236335Y-90335000D01*
X125513574Y-90279853D01*
X125774727Y-90171680D01*
X126009759Y-90014637D01*
X126209637Y-89814759D01*
X126366680Y-89579727D01*
X126474853Y-89318574D01*
X126530000Y-89041335D01*
X126530000Y-88758665D01*
X126835000Y-88758665D01*
X126835000Y-89041335D01*
X126890147Y-89318574D01*
X126998320Y-89579727D01*
X127155363Y-89814759D01*
X127355241Y-90014637D01*
X127590273Y-90171680D01*
X127851426Y-90279853D01*
X128128665Y-90335000D01*
X128411335Y-90335000D01*
X128688574Y-90279853D01*
X128949727Y-90171680D01*
X129184759Y-90014637D01*
X129384637Y-89814759D01*
X129541680Y-89579727D01*
X129649853Y-89318574D01*
X129705000Y-89041335D01*
X129705000Y-88758665D01*
X130010000Y-88758665D01*
X130010000Y-89041335D01*
X130065147Y-89318574D01*
X130173320Y-89579727D01*
X130330363Y-89814759D01*
X130530241Y-90014637D01*
X130765273Y-90171680D01*
X131026426Y-90279853D01*
X131303665Y-90335000D01*
X131586335Y-90335000D01*
X131863574Y-90279853D01*
X132124727Y-90171680D01*
X132359759Y-90014637D01*
X132559637Y-89814759D01*
X132716680Y-89579727D01*
X132824853Y-89318574D01*
X132880000Y-89041335D01*
X132880000Y-88758665D01*
X133185000Y-88758665D01*
X133185000Y-89041335D01*
X133240147Y-89318574D01*
X133348320Y-89579727D01*
X133505363Y-89814759D01*
X133705241Y-90014637D01*
X133940273Y-90171680D01*
X134201426Y-90279853D01*
X134478665Y-90335000D01*
X134761335Y-90335000D01*
X135038574Y-90279853D01*
X135299727Y-90171680D01*
X135534759Y-90014637D01*
X135734637Y-89814759D01*
X135891680Y-89579727D01*
X135999853Y-89318574D01*
X136055000Y-89041335D01*
X136055000Y-88758665D01*
X136360000Y-88758665D01*
X136360000Y-89041335D01*
X136415147Y-89318574D01*
X136523320Y-89579727D01*
X136680363Y-89814759D01*
X136880241Y-90014637D01*
X137115273Y-90171680D01*
X137376426Y-90279853D01*
X137653665Y-90335000D01*
X137936335Y-90335000D01*
X138213574Y-90279853D01*
X138474727Y-90171680D01*
X138709759Y-90014637D01*
X138909637Y-89814759D01*
X139066680Y-89579727D01*
X139174853Y-89318574D01*
X139230000Y-89041335D01*
X139230000Y-88758665D01*
X139535000Y-88758665D01*
X139535000Y-89041335D01*
X139590147Y-89318574D01*
X139698320Y-89579727D01*
X139855363Y-89814759D01*
X140055241Y-90014637D01*
X140290273Y-90171680D01*
X140551426Y-90279853D01*
X140828665Y-90335000D01*
X141111335Y-90335000D01*
X141388574Y-90279853D01*
X141649727Y-90171680D01*
X141884759Y-90014637D01*
X142084637Y-89814759D01*
X142241680Y-89579727D01*
X142349853Y-89318574D01*
X142405000Y-89041335D01*
X142405000Y-88758665D01*
X142710000Y-88758665D01*
X142710000Y-89041335D01*
X142765147Y-89318574D01*
X142873320Y-89579727D01*
X143030363Y-89814759D01*
X143230241Y-90014637D01*
X143465273Y-90171680D01*
X143726426Y-90279853D01*
X144003665Y-90335000D01*
X144286335Y-90335000D01*
X144563574Y-90279853D01*
X144824727Y-90171680D01*
X145059759Y-90014637D01*
X145143990Y-89930406D01*
X145143989Y-93796667D01*
X145140313Y-93833989D01*
X145143989Y-93871311D01*
X145143989Y-93871321D01*
X145154986Y-93982974D01*
X145198443Y-94126235D01*
X145269015Y-94258265D01*
X145308860Y-94306815D01*
X145363988Y-94373990D01*
X145392992Y-94397793D01*
X146560001Y-95564803D01*
X146560000Y-97841956D01*
X146405241Y-97945363D01*
X146205363Y-98145241D01*
X146048320Y-98380273D01*
X145940147Y-98641426D01*
X145885000Y-98918665D01*
X145885000Y-99201335D01*
X145940147Y-99478574D01*
X146048320Y-99739727D01*
X146205363Y-99974759D01*
X146405241Y-100174637D01*
X146640273Y-100331680D01*
X146901426Y-100439853D01*
X147178665Y-100495000D01*
X147461335Y-100495000D01*
X147738574Y-100439853D01*
X147999727Y-100331680D01*
X148234759Y-100174637D01*
X148434637Y-99974759D01*
X148591680Y-99739727D01*
X148699853Y-99478574D01*
X148755000Y-99201335D01*
X148755000Y-98918665D01*
X148699853Y-98641426D01*
X148591680Y-98380273D01*
X148434637Y-98145241D01*
X148234759Y-97945363D01*
X148080000Y-97841957D01*
X148080000Y-95287323D01*
X148083676Y-95250000D01*
X148080000Y-95212677D01*
X148080000Y-95212667D01*
X148069003Y-95101014D01*
X148025546Y-94957753D01*
X148015184Y-94938368D01*
X147954974Y-94825723D01*
X147883799Y-94738997D01*
X147860001Y-94709999D01*
X147831003Y-94686201D01*
X146663989Y-93519188D01*
X146663989Y-90181503D01*
X146901426Y-90279853D01*
X147178665Y-90335000D01*
X147461335Y-90335000D01*
X147738574Y-90279853D01*
X147905932Y-90210531D01*
X147905932Y-93383610D01*
X147902256Y-93420932D01*
X147905932Y-93458254D01*
X147905932Y-93458264D01*
X147916929Y-93569917D01*
X147951840Y-93685004D01*
X147960386Y-93713178D01*
X148030958Y-93845208D01*
X148070803Y-93893758D01*
X148125931Y-93960933D01*
X148154935Y-93984736D01*
X149735001Y-95564803D01*
X149735000Y-97841956D01*
X149580241Y-97945363D01*
X149380363Y-98145241D01*
X149223320Y-98380273D01*
X149115147Y-98641426D01*
X149060000Y-98918665D01*
X149060000Y-99201335D01*
X149115147Y-99478574D01*
X149223320Y-99739727D01*
X149380363Y-99974759D01*
X149580241Y-100174637D01*
X149815273Y-100331680D01*
X150076426Y-100439853D01*
X150353665Y-100495000D01*
X150636335Y-100495000D01*
X150913574Y-100439853D01*
X151174727Y-100331680D01*
X151409759Y-100174637D01*
X151609637Y-99974759D01*
X151766680Y-99739727D01*
X151874853Y-99478574D01*
X151930000Y-99201335D01*
X151930000Y-98918665D01*
X151901232Y-98774039D01*
X155688096Y-98774039D01*
X155705633Y-98856818D01*
X155816285Y-99116646D01*
X155975500Y-99349895D01*
X156177161Y-99547601D01*
X156413517Y-99702166D01*
X156675486Y-99807650D01*
X156953000Y-99860000D01*
X157353000Y-99860000D01*
X157353000Y-98552000D01*
X157607000Y-98552000D01*
X157607000Y-99860000D01*
X158007000Y-99860000D01*
X158284514Y-99807650D01*
X158546483Y-99702166D01*
X158782839Y-99547601D01*
X158984500Y-99349895D01*
X159143715Y-99116646D01*
X159254367Y-98856818D01*
X159271904Y-98774039D01*
X159149915Y-98552000D01*
X157607000Y-98552000D01*
X157353000Y-98552000D01*
X155810085Y-98552000D01*
X155688096Y-98774039D01*
X151901232Y-98774039D01*
X151874853Y-98641426D01*
X151766680Y-98380273D01*
X151609637Y-98145241D01*
X151409759Y-97945363D01*
X151255000Y-97841957D01*
X151255000Y-95287325D01*
X151258676Y-95250000D01*
X151255000Y-95212675D01*
X151255000Y-95212667D01*
X151244003Y-95101014D01*
X151200546Y-94957753D01*
X151129974Y-94825724D01*
X151035001Y-94709999D01*
X151006003Y-94686201D01*
X149425932Y-93106131D01*
X149425932Y-89860328D01*
X149580241Y-90014637D01*
X149815273Y-90171680D01*
X150076426Y-90279853D01*
X150353665Y-90335000D01*
X150636335Y-90335000D01*
X150913574Y-90279853D01*
X151174727Y-90171680D01*
X151409759Y-90014637D01*
X151609637Y-89814759D01*
X151766680Y-89579727D01*
X151874853Y-89318574D01*
X151930000Y-89041335D01*
X151930000Y-88758665D01*
X151874853Y-88481426D01*
X151766680Y-88220273D01*
X151609637Y-87985241D01*
X151409759Y-87785363D01*
X151174727Y-87628320D01*
X150913574Y-87520147D01*
X150636335Y-87465000D01*
X150353665Y-87465000D01*
X150076426Y-87520147D01*
X149815273Y-87628320D01*
X149580241Y-87785363D01*
X149425932Y-87939672D01*
X149425932Y-85173897D01*
X149469869Y-85129960D01*
X149583137Y-84960442D01*
X149588015Y-84948665D01*
X152235000Y-84948665D01*
X152235000Y-85231335D01*
X152290147Y-85508574D01*
X152398320Y-85769727D01*
X152555363Y-86004759D01*
X152755241Y-86204637D01*
X152990273Y-86361680D01*
X153251426Y-86469853D01*
X153528665Y-86525000D01*
X153811335Y-86525000D01*
X154088574Y-86469853D01*
X154349727Y-86361680D01*
X154584759Y-86204637D01*
X154784637Y-86004759D01*
X154941680Y-85769727D01*
X155049853Y-85508574D01*
X155105000Y-85231335D01*
X155105000Y-84948665D01*
X155049853Y-84671426D01*
X154941680Y-84410273D01*
X154784637Y-84175241D01*
X154584759Y-83975363D01*
X154349727Y-83818320D01*
X154088574Y-83710147D01*
X153811335Y-83655000D01*
X153528665Y-83655000D01*
X153251426Y-83710147D01*
X152990273Y-83818320D01*
X152755241Y-83975363D01*
X152555363Y-84175241D01*
X152398320Y-84410273D01*
X152290147Y-84671426D01*
X152235000Y-84948665D01*
X149588015Y-84948665D01*
X149661158Y-84772084D01*
X149700932Y-84572125D01*
X149700932Y-84368247D01*
X149661158Y-84168288D01*
X149583137Y-83979930D01*
X149469869Y-83810412D01*
X149325706Y-83666249D01*
X149156188Y-83552981D01*
X148967830Y-83474960D01*
X148767871Y-83435186D01*
X148563993Y-83435186D01*
X148364034Y-83474960D01*
X148175676Y-83552981D01*
X148006158Y-83666249D01*
X147861995Y-83810412D01*
X147748727Y-83979930D01*
X147670706Y-84168288D01*
X147630932Y-84368247D01*
X147630932Y-84572125D01*
X147630958Y-84572257D01*
X147598764Y-84540063D01*
X147429246Y-84426795D01*
X147240888Y-84348774D01*
X147040929Y-84309000D01*
X146837051Y-84309000D01*
X146637092Y-84348774D01*
X146448734Y-84426795D01*
X146279216Y-84540063D01*
X146135053Y-84684226D01*
X146021785Y-84853744D01*
X145943764Y-85042102D01*
X145903990Y-85242061D01*
X145903990Y-85304198D01*
X145392987Y-85815202D01*
X145363989Y-85839000D01*
X145340191Y-85867998D01*
X145340190Y-85867999D01*
X145269015Y-85954725D01*
X145198443Y-86086755D01*
X145154987Y-86230016D01*
X145140313Y-86379001D01*
X145143990Y-86416333D01*
X145143990Y-87869594D01*
X145059759Y-87785363D01*
X144824727Y-87628320D01*
X144563574Y-87520147D01*
X144286335Y-87465000D01*
X144003665Y-87465000D01*
X143726426Y-87520147D01*
X143465273Y-87628320D01*
X143230241Y-87785363D01*
X143030363Y-87985241D01*
X142873320Y-88220273D01*
X142765147Y-88481426D01*
X142710000Y-88758665D01*
X142405000Y-88758665D01*
X142349853Y-88481426D01*
X142241680Y-88220273D01*
X142084637Y-87985241D01*
X141884759Y-87785363D01*
X141649727Y-87628320D01*
X141388574Y-87520147D01*
X141111335Y-87465000D01*
X140828665Y-87465000D01*
X140551426Y-87520147D01*
X140290273Y-87628320D01*
X140055241Y-87785363D01*
X139855363Y-87985241D01*
X139698320Y-88220273D01*
X139590147Y-88481426D01*
X139535000Y-88758665D01*
X139230000Y-88758665D01*
X139174853Y-88481426D01*
X139066680Y-88220273D01*
X138909637Y-87985241D01*
X138709759Y-87785363D01*
X138474727Y-87628320D01*
X138213574Y-87520147D01*
X137936335Y-87465000D01*
X137653665Y-87465000D01*
X137376426Y-87520147D01*
X137115273Y-87628320D01*
X136880241Y-87785363D01*
X136680363Y-87985241D01*
X136523320Y-88220273D01*
X136415147Y-88481426D01*
X136360000Y-88758665D01*
X136055000Y-88758665D01*
X135999853Y-88481426D01*
X135891680Y-88220273D01*
X135734637Y-87985241D01*
X135534759Y-87785363D01*
X135299727Y-87628320D01*
X135038574Y-87520147D01*
X134761335Y-87465000D01*
X134478665Y-87465000D01*
X134201426Y-87520147D01*
X133940273Y-87628320D01*
X133705241Y-87785363D01*
X133505363Y-87985241D01*
X133348320Y-88220273D01*
X133240147Y-88481426D01*
X133185000Y-88758665D01*
X132880000Y-88758665D01*
X132824853Y-88481426D01*
X132716680Y-88220273D01*
X132559637Y-87985241D01*
X132359759Y-87785363D01*
X132124727Y-87628320D01*
X131863574Y-87520147D01*
X131586335Y-87465000D01*
X131303665Y-87465000D01*
X131026426Y-87520147D01*
X130765273Y-87628320D01*
X130530241Y-87785363D01*
X130330363Y-87985241D01*
X130173320Y-88220273D01*
X130065147Y-88481426D01*
X130010000Y-88758665D01*
X129705000Y-88758665D01*
X129649853Y-88481426D01*
X129541680Y-88220273D01*
X129384637Y-87985241D01*
X129184759Y-87785363D01*
X128949727Y-87628320D01*
X128688574Y-87520147D01*
X128411335Y-87465000D01*
X128128665Y-87465000D01*
X127851426Y-87520147D01*
X127590273Y-87628320D01*
X127355241Y-87785363D01*
X127155363Y-87985241D01*
X126998320Y-88220273D01*
X126890147Y-88481426D01*
X126835000Y-88758665D01*
X126530000Y-88758665D01*
X126474853Y-88481426D01*
X126366680Y-88220273D01*
X126209637Y-87985241D01*
X126009759Y-87785363D01*
X125774727Y-87628320D01*
X125513574Y-87520147D01*
X125236335Y-87465000D01*
X124953665Y-87465000D01*
X124676426Y-87520147D01*
X124415273Y-87628320D01*
X124180241Y-87785363D01*
X123980363Y-87985241D01*
X123823320Y-88220273D01*
X123715147Y-88481426D01*
X123660000Y-88758665D01*
X123355000Y-88758665D01*
X123299853Y-88481426D01*
X123191680Y-88220273D01*
X123034637Y-87985241D01*
X122834759Y-87785363D01*
X122599727Y-87628320D01*
X122338574Y-87520147D01*
X122061335Y-87465000D01*
X121778665Y-87465000D01*
X121501426Y-87520147D01*
X121240273Y-87628320D01*
X121005241Y-87785363D01*
X120805363Y-87985241D01*
X120648320Y-88220273D01*
X120540147Y-88481426D01*
X120485000Y-88758665D01*
X115595000Y-88758665D01*
X115595000Y-84948665D01*
X128740000Y-84948665D01*
X128740000Y-85231335D01*
X128795147Y-85508574D01*
X128903320Y-85769727D01*
X129060363Y-86004759D01*
X129260241Y-86204637D01*
X129495273Y-86361680D01*
X129756426Y-86469853D01*
X130033665Y-86525000D01*
X130316335Y-86525000D01*
X130593574Y-86469853D01*
X130854727Y-86361680D01*
X131089759Y-86204637D01*
X131289637Y-86004759D01*
X131446680Y-85769727D01*
X131554853Y-85508574D01*
X131610000Y-85231335D01*
X131610000Y-84948665D01*
X138900000Y-84948665D01*
X138900000Y-85231335D01*
X138955147Y-85508574D01*
X139063320Y-85769727D01*
X139220363Y-86004759D01*
X139420241Y-86204637D01*
X139655273Y-86361680D01*
X139916426Y-86469853D01*
X140193665Y-86525000D01*
X140476335Y-86525000D01*
X140753574Y-86469853D01*
X141014727Y-86361680D01*
X141249759Y-86204637D01*
X141449637Y-86004759D01*
X141606680Y-85769727D01*
X141714853Y-85508574D01*
X141770000Y-85231335D01*
X141770000Y-84948665D01*
X142075000Y-84948665D01*
X142075000Y-85231335D01*
X142130147Y-85508574D01*
X142238320Y-85769727D01*
X142395363Y-86004759D01*
X142595241Y-86204637D01*
X142830273Y-86361680D01*
X143091426Y-86469853D01*
X143368665Y-86525000D01*
X143651335Y-86525000D01*
X143928574Y-86469853D01*
X144189727Y-86361680D01*
X144424759Y-86204637D01*
X144624637Y-86004759D01*
X144781680Y-85769727D01*
X144889853Y-85508574D01*
X144945000Y-85231335D01*
X144945000Y-84948665D01*
X144889853Y-84671426D01*
X144781680Y-84410273D01*
X144624637Y-84175241D01*
X144424759Y-83975363D01*
X144189727Y-83818320D01*
X143928574Y-83710147D01*
X143651335Y-83655000D01*
X143368665Y-83655000D01*
X143091426Y-83710147D01*
X142830273Y-83818320D01*
X142595241Y-83975363D01*
X142395363Y-84175241D01*
X142238320Y-84410273D01*
X142130147Y-84671426D01*
X142075000Y-84948665D01*
X141770000Y-84948665D01*
X141714853Y-84671426D01*
X141606680Y-84410273D01*
X141449637Y-84175241D01*
X141249759Y-83975363D01*
X141014727Y-83818320D01*
X140753574Y-83710147D01*
X140476335Y-83655000D01*
X140193665Y-83655000D01*
X139916426Y-83710147D01*
X139655273Y-83818320D01*
X139420241Y-83975363D01*
X139220363Y-84175241D01*
X139063320Y-84410273D01*
X138955147Y-84671426D01*
X138900000Y-84948665D01*
X131610000Y-84948665D01*
X131554853Y-84671426D01*
X131446680Y-84410273D01*
X131289637Y-84175241D01*
X131089759Y-83975363D01*
X130854727Y-83818320D01*
X130593574Y-83710147D01*
X130316335Y-83655000D01*
X130033665Y-83655000D01*
X129756426Y-83710147D01*
X129495273Y-83818320D01*
X129260241Y-83975363D01*
X129060363Y-84175241D01*
X128903320Y-84410273D01*
X128795147Y-84671426D01*
X128740000Y-84948665D01*
X115595000Y-84948665D01*
X115595000Y-81138665D01*
X128740000Y-81138665D01*
X128740000Y-81421335D01*
X128795147Y-81698574D01*
X128903320Y-81959727D01*
X129060363Y-82194759D01*
X129260241Y-82394637D01*
X129495273Y-82551680D01*
X129756426Y-82659853D01*
X130033665Y-82715000D01*
X130316335Y-82715000D01*
X130593574Y-82659853D01*
X130854727Y-82551680D01*
X131089759Y-82394637D01*
X131289637Y-82194759D01*
X131446680Y-81959727D01*
X131554853Y-81698574D01*
X131610000Y-81421335D01*
X131610000Y-81138665D01*
X138900000Y-81138665D01*
X138900000Y-81421335D01*
X138955147Y-81698574D01*
X139063320Y-81959727D01*
X139220363Y-82194759D01*
X139420241Y-82394637D01*
X139655273Y-82551680D01*
X139916426Y-82659853D01*
X140193665Y-82715000D01*
X140476335Y-82715000D01*
X140753574Y-82659853D01*
X141014727Y-82551680D01*
X141249759Y-82394637D01*
X141449637Y-82194759D01*
X141606680Y-81959727D01*
X141714853Y-81698574D01*
X141770000Y-81421335D01*
X141770000Y-81138665D01*
X142075000Y-81138665D01*
X142075000Y-81421335D01*
X142130147Y-81698574D01*
X142238320Y-81959727D01*
X142395363Y-82194759D01*
X142595241Y-82394637D01*
X142830273Y-82551680D01*
X143091426Y-82659853D01*
X143368665Y-82715000D01*
X143651335Y-82715000D01*
X143928574Y-82659853D01*
X144189727Y-82551680D01*
X144424759Y-82394637D01*
X144624637Y-82194759D01*
X144781680Y-81959727D01*
X144889853Y-81698574D01*
X144945000Y-81421335D01*
X144945000Y-81138665D01*
X152235000Y-81138665D01*
X152235000Y-81421335D01*
X152290147Y-81698574D01*
X152398320Y-81959727D01*
X152555363Y-82194759D01*
X152755241Y-82394637D01*
X152990273Y-82551680D01*
X153251426Y-82659853D01*
X153528665Y-82715000D01*
X153811335Y-82715000D01*
X154088574Y-82659853D01*
X154349727Y-82551680D01*
X154584759Y-82394637D01*
X154784637Y-82194759D01*
X154941680Y-81959727D01*
X155049853Y-81698574D01*
X155105000Y-81421335D01*
X155105000Y-81138665D01*
X155049853Y-80861426D01*
X154941680Y-80600273D01*
X154784637Y-80365241D01*
X154584759Y-80165363D01*
X154349727Y-80008320D01*
X154088574Y-79900147D01*
X153811335Y-79845000D01*
X153528665Y-79845000D01*
X153251426Y-79900147D01*
X152990273Y-80008320D01*
X152755241Y-80165363D01*
X152555363Y-80365241D01*
X152398320Y-80600273D01*
X152290147Y-80861426D01*
X152235000Y-81138665D01*
X144945000Y-81138665D01*
X144889853Y-80861426D01*
X144781680Y-80600273D01*
X144624637Y-80365241D01*
X144424759Y-80165363D01*
X144189727Y-80008320D01*
X143928574Y-79900147D01*
X143651335Y-79845000D01*
X143368665Y-79845000D01*
X143091426Y-79900147D01*
X142830273Y-80008320D01*
X142595241Y-80165363D01*
X142395363Y-80365241D01*
X142238320Y-80600273D01*
X142130147Y-80861426D01*
X142075000Y-81138665D01*
X141770000Y-81138665D01*
X141714853Y-80861426D01*
X141606680Y-80600273D01*
X141449637Y-80365241D01*
X141249759Y-80165363D01*
X141014727Y-80008320D01*
X140753574Y-79900147D01*
X140476335Y-79845000D01*
X140193665Y-79845000D01*
X139916426Y-79900147D01*
X139655273Y-80008320D01*
X139420241Y-80165363D01*
X139220363Y-80365241D01*
X139063320Y-80600273D01*
X138955147Y-80861426D01*
X138900000Y-81138665D01*
X131610000Y-81138665D01*
X131554853Y-80861426D01*
X131446680Y-80600273D01*
X131289637Y-80365241D01*
X131089759Y-80165363D01*
X130854727Y-80008320D01*
X130593574Y-79900147D01*
X130316335Y-79845000D01*
X130033665Y-79845000D01*
X129756426Y-79900147D01*
X129495273Y-80008320D01*
X129260241Y-80165363D01*
X129060363Y-80365241D01*
X128903320Y-80600273D01*
X128795147Y-80861426D01*
X128740000Y-81138665D01*
X115595000Y-81138665D01*
X115595000Y-77502279D01*
X115622668Y-77220099D01*
X116360000Y-77220099D01*
X116360000Y-77689903D01*
X116451654Y-78150680D01*
X116631440Y-78584722D01*
X116892450Y-78975350D01*
X117224651Y-79307551D01*
X117615279Y-79568561D01*
X118049321Y-79748347D01*
X118510098Y-79840001D01*
X118979902Y-79840001D01*
X119440679Y-79748347D01*
X119874721Y-79568561D01*
X120265349Y-79307551D01*
X120597550Y-78975350D01*
X120858560Y-78584722D01*
X121038346Y-78150680D01*
X121130000Y-77689903D01*
X121130000Y-77220099D01*
X121069002Y-76913438D01*
X128206505Y-76913438D01*
X128245605Y-77153549D01*
X128330798Y-77381418D01*
X128371652Y-77457852D01*
X128595236Y-77505159D01*
X129265395Y-76835000D01*
X128595236Y-76164841D01*
X128371652Y-76212148D01*
X128270763Y-76433516D01*
X128215000Y-76670313D01*
X128206505Y-76913438D01*
X121069002Y-76913438D01*
X121038346Y-76759322D01*
X120858560Y-76325280D01*
X120631350Y-75985236D01*
X128774841Y-75985236D01*
X129445000Y-76655395D01*
X129459143Y-76641253D01*
X129638748Y-76820858D01*
X129624605Y-76835000D01*
X129638748Y-76849143D01*
X129459143Y-77028748D01*
X129445000Y-77014605D01*
X128774841Y-77684764D01*
X128822148Y-77908348D01*
X129043516Y-78009237D01*
X129280313Y-78065000D01*
X129523438Y-78073495D01*
X129763549Y-78034395D01*
X129991418Y-77949202D01*
X130067852Y-77908348D01*
X130115158Y-77684766D01*
X130232264Y-77801872D01*
X130290142Y-77743994D01*
X130314463Y-77789494D01*
X130393815Y-77886185D01*
X130490506Y-77965537D01*
X130600820Y-78024502D01*
X130720518Y-78060812D01*
X130845000Y-78073072D01*
X132045000Y-78073072D01*
X132169482Y-78060812D01*
X132289180Y-78024502D01*
X132399494Y-77965537D01*
X132496185Y-77886185D01*
X132575537Y-77789494D01*
X132634502Y-77679180D01*
X132670812Y-77559482D01*
X132683072Y-77435000D01*
X132683072Y-76235000D01*
X132670812Y-76110518D01*
X132634502Y-75990820D01*
X132575537Y-75880506D01*
X132496185Y-75783815D01*
X132399494Y-75704463D01*
X132289180Y-75645498D01*
X132169482Y-75609188D01*
X132045000Y-75596928D01*
X130845000Y-75596928D01*
X130720518Y-75609188D01*
X130600820Y-75645498D01*
X130490506Y-75704463D01*
X130393815Y-75783815D01*
X130314463Y-75880506D01*
X130290142Y-75926006D01*
X130232264Y-75868128D01*
X130115158Y-75985234D01*
X130067852Y-75761652D01*
X129846484Y-75660763D01*
X129609687Y-75605000D01*
X129366562Y-75596505D01*
X129126451Y-75635605D01*
X128898582Y-75720798D01*
X128822148Y-75761652D01*
X128774841Y-75985236D01*
X120631350Y-75985236D01*
X120597550Y-75934652D01*
X120265349Y-75602451D01*
X120239232Y-75585000D01*
X133716928Y-75585000D01*
X133716928Y-78085000D01*
X133729188Y-78209482D01*
X133765498Y-78329180D01*
X133824463Y-78439494D01*
X133903815Y-78536185D01*
X134000506Y-78615537D01*
X134110820Y-78674502D01*
X134230518Y-78710812D01*
X134355000Y-78723072D01*
X136155000Y-78723072D01*
X136279482Y-78710812D01*
X136399180Y-78674502D01*
X136509494Y-78615537D01*
X136606185Y-78536185D01*
X136685537Y-78439494D01*
X136744502Y-78329180D01*
X136749495Y-78312720D01*
X136938074Y-78467481D01*
X137204740Y-78610017D01*
X137494088Y-78697790D01*
X137795000Y-78727427D01*
X138095913Y-78697790D01*
X138385261Y-78610017D01*
X138651927Y-78467481D01*
X138885661Y-78275661D01*
X139065000Y-78057135D01*
X139244339Y-78275661D01*
X139478074Y-78467481D01*
X139744740Y-78610017D01*
X140034088Y-78697790D01*
X140335000Y-78727427D01*
X140635913Y-78697790D01*
X140925261Y-78610017D01*
X141191927Y-78467481D01*
X141425661Y-78275661D01*
X141605000Y-78057135D01*
X141784339Y-78275661D01*
X142018074Y-78467481D01*
X142284740Y-78610017D01*
X142574088Y-78697790D01*
X142875000Y-78727427D01*
X143175913Y-78697790D01*
X143465261Y-78610017D01*
X143731927Y-78467481D01*
X143965661Y-78275661D01*
X144145000Y-78057135D01*
X144324339Y-78275661D01*
X144558074Y-78467481D01*
X144824740Y-78610017D01*
X145114088Y-78697790D01*
X145415000Y-78727427D01*
X145715913Y-78697790D01*
X146005261Y-78610017D01*
X146271927Y-78467481D01*
X146505661Y-78275661D01*
X146685000Y-78057135D01*
X146864339Y-78275661D01*
X147098074Y-78467481D01*
X147364740Y-78610017D01*
X147654088Y-78697790D01*
X147955000Y-78727427D01*
X148255913Y-78697790D01*
X148545261Y-78610017D01*
X148811927Y-78467481D01*
X149045661Y-78275661D01*
X149225000Y-78057135D01*
X149404339Y-78275661D01*
X149638074Y-78467481D01*
X149904740Y-78610017D01*
X150194088Y-78697790D01*
X150495000Y-78727427D01*
X150795913Y-78697790D01*
X151085261Y-78610017D01*
X151351927Y-78467481D01*
X151585661Y-78275661D01*
X151769781Y-78051309D01*
X151829252Y-78143396D01*
X152039394Y-78360210D01*
X152287796Y-78531862D01*
X152564913Y-78651755D01*
X152670260Y-78676036D01*
X152908000Y-78555378D01*
X152908000Y-76962000D01*
X153162000Y-76962000D01*
X153162000Y-78555378D01*
X153399740Y-78676036D01*
X153505087Y-78651755D01*
X153782204Y-78531862D01*
X154030606Y-78360210D01*
X154240748Y-78143396D01*
X154404554Y-77889751D01*
X154429126Y-77827702D01*
X158016903Y-77827702D01*
X158088486Y-78071671D01*
X158343996Y-78192571D01*
X158618184Y-78261300D01*
X158900512Y-78275217D01*
X159180130Y-78233787D01*
X159446292Y-78138603D01*
X159571514Y-78071671D01*
X159643097Y-77827702D01*
X158830000Y-77014605D01*
X158016903Y-77827702D01*
X154429126Y-77827702D01*
X154515729Y-77609023D01*
X154570000Y-77312000D01*
X154570000Y-76962000D01*
X153162000Y-76962000D01*
X152908000Y-76962000D01*
X152888000Y-76962000D01*
X152888000Y-76905512D01*
X157389783Y-76905512D01*
X157431213Y-77185130D01*
X157526397Y-77451292D01*
X157593329Y-77576514D01*
X157837298Y-77648097D01*
X158650395Y-76835000D01*
X159009605Y-76835000D01*
X159822702Y-77648097D01*
X160066671Y-77576514D01*
X160187571Y-77321004D01*
X160256300Y-77046816D01*
X160270217Y-76764488D01*
X160259724Y-76693665D01*
X162395000Y-76693665D01*
X162395000Y-76976335D01*
X162450147Y-77253574D01*
X162558320Y-77514727D01*
X162715363Y-77749759D01*
X162915241Y-77949637D01*
X163150273Y-78106680D01*
X163411426Y-78214853D01*
X163688665Y-78270000D01*
X163971335Y-78270000D01*
X164248574Y-78214853D01*
X164509727Y-78106680D01*
X164744759Y-77949637D01*
X164944637Y-77749759D01*
X165101680Y-77514727D01*
X165209853Y-77253574D01*
X165213528Y-77235098D01*
X167160000Y-77235098D01*
X167160000Y-77704902D01*
X167251654Y-78165679D01*
X167431440Y-78599721D01*
X167692450Y-78990349D01*
X168024651Y-79322550D01*
X168415279Y-79583560D01*
X168849321Y-79763346D01*
X169310098Y-79855000D01*
X169779902Y-79855000D01*
X170240679Y-79763346D01*
X170674721Y-79583560D01*
X171065349Y-79322550D01*
X171397550Y-78990349D01*
X171658560Y-78599721D01*
X171838346Y-78165679D01*
X171930000Y-77704902D01*
X171930000Y-77235098D01*
X171838346Y-76774321D01*
X171658560Y-76340279D01*
X171397550Y-75949651D01*
X171065349Y-75617450D01*
X170674721Y-75356440D01*
X170240679Y-75176654D01*
X169779902Y-75085000D01*
X169310098Y-75085000D01*
X168849321Y-75176654D01*
X168415279Y-75356440D01*
X168024651Y-75617450D01*
X167692450Y-75949651D01*
X167431440Y-76340279D01*
X167251654Y-76774321D01*
X167160000Y-77235098D01*
X165213528Y-77235098D01*
X165265000Y-76976335D01*
X165265000Y-76693665D01*
X165209853Y-76416426D01*
X165101680Y-76155273D01*
X164944637Y-75920241D01*
X164744759Y-75720363D01*
X164509727Y-75563320D01*
X164248574Y-75455147D01*
X163971335Y-75400000D01*
X163688665Y-75400000D01*
X163411426Y-75455147D01*
X163150273Y-75563320D01*
X162915241Y-75720363D01*
X162715363Y-75920241D01*
X162558320Y-76155273D01*
X162450147Y-76416426D01*
X162395000Y-76693665D01*
X160259724Y-76693665D01*
X160228787Y-76484870D01*
X160133603Y-76218708D01*
X160066671Y-76093486D01*
X159822702Y-76021903D01*
X159009605Y-76835000D01*
X158650395Y-76835000D01*
X157837298Y-76021903D01*
X157593329Y-76093486D01*
X157472429Y-76348996D01*
X157403700Y-76623184D01*
X157389783Y-76905512D01*
X152888000Y-76905512D01*
X152888000Y-76708000D01*
X152908000Y-76708000D01*
X152908000Y-75114622D01*
X153162000Y-75114622D01*
X153162000Y-76708000D01*
X154570000Y-76708000D01*
X154570000Y-76358000D01*
X154515729Y-76060977D01*
X154429127Y-75842298D01*
X158016903Y-75842298D01*
X158830000Y-76655395D01*
X159643097Y-75842298D01*
X159571514Y-75598329D01*
X159316004Y-75477429D01*
X159041816Y-75408700D01*
X158759488Y-75394783D01*
X158479870Y-75436213D01*
X158213708Y-75531397D01*
X158088486Y-75598329D01*
X158016903Y-75842298D01*
X154429127Y-75842298D01*
X154404554Y-75780249D01*
X154240748Y-75526604D01*
X154030606Y-75309790D01*
X153782204Y-75138138D01*
X153505087Y-75018245D01*
X153399740Y-74993964D01*
X153162000Y-75114622D01*
X152908000Y-75114622D01*
X152670260Y-74993964D01*
X152564913Y-75018245D01*
X152287796Y-75138138D01*
X152039394Y-75309790D01*
X151829252Y-75526604D01*
X151769781Y-75618691D01*
X151585661Y-75394339D01*
X151351926Y-75202519D01*
X151085260Y-75059983D01*
X150795912Y-74972210D01*
X150495000Y-74942573D01*
X150194087Y-74972210D01*
X149904739Y-75059983D01*
X149638073Y-75202519D01*
X149404339Y-75394339D01*
X149225000Y-75612865D01*
X149045661Y-75394339D01*
X148811926Y-75202519D01*
X148545260Y-75059983D01*
X148255912Y-74972210D01*
X147955000Y-74942573D01*
X147654087Y-74972210D01*
X147364739Y-75059983D01*
X147098073Y-75202519D01*
X146864339Y-75394339D01*
X146685000Y-75612865D01*
X146505661Y-75394339D01*
X146271926Y-75202519D01*
X146005260Y-75059983D01*
X145715912Y-74972210D01*
X145415000Y-74942573D01*
X145114087Y-74972210D01*
X144824739Y-75059983D01*
X144558073Y-75202519D01*
X144324339Y-75394339D01*
X144145000Y-75612865D01*
X143965661Y-75394339D01*
X143731926Y-75202519D01*
X143465260Y-75059983D01*
X143175912Y-74972210D01*
X142875000Y-74942573D01*
X142574087Y-74972210D01*
X142284739Y-75059983D01*
X142018073Y-75202519D01*
X141784339Y-75394339D01*
X141605000Y-75612865D01*
X141425661Y-75394339D01*
X141191926Y-75202519D01*
X140925260Y-75059983D01*
X140635912Y-74972210D01*
X140335000Y-74942573D01*
X140034087Y-74972210D01*
X139744739Y-75059983D01*
X139478073Y-75202519D01*
X139244339Y-75394339D01*
X139065000Y-75612865D01*
X138885661Y-75394339D01*
X138651926Y-75202519D01*
X138385260Y-75059983D01*
X138095912Y-74972210D01*
X137795000Y-74942573D01*
X137494087Y-74972210D01*
X137204739Y-75059983D01*
X136938073Y-75202519D01*
X136749495Y-75357280D01*
X136744502Y-75340820D01*
X136685537Y-75230506D01*
X136606185Y-75133815D01*
X136509494Y-75054463D01*
X136399180Y-74995498D01*
X136279482Y-74959188D01*
X136155000Y-74946928D01*
X134355000Y-74946928D01*
X134230518Y-74959188D01*
X134110820Y-74995498D01*
X134000506Y-75054463D01*
X133903815Y-75133815D01*
X133824463Y-75230506D01*
X133765498Y-75340820D01*
X133729188Y-75460518D01*
X133716928Y-75585000D01*
X120239232Y-75585000D01*
X119874721Y-75341441D01*
X119440679Y-75161655D01*
X118979902Y-75070001D01*
X118510098Y-75070001D01*
X118049321Y-75161655D01*
X117615279Y-75341441D01*
X117224651Y-75602451D01*
X116892450Y-75934652D01*
X116631440Y-76325280D01*
X116451654Y-76759322D01*
X116360000Y-77220099D01*
X115622668Y-77220099D01*
X115658096Y-76858778D01*
X115835606Y-76270836D01*
X116123937Y-75728564D01*
X116512094Y-75252636D01*
X116985314Y-74861155D01*
X117525552Y-74569049D01*
X118112244Y-74387437D01*
X118753879Y-74320000D01*
X169512721Y-74320000D01*
X170156222Y-74383096D01*
G04 #@! TA.AperFunction,Conductor*
D27*
G36*
X170156222Y-74383096D02*
G01*
X170744164Y-74560606D01*
X171286436Y-74848937D01*
X171762364Y-75237094D01*
X172153845Y-75710314D01*
X172445951Y-76250552D01*
X172627563Y-76837244D01*
X172695001Y-77478888D01*
X172695000Y-107917721D01*
X172631904Y-108561221D01*
X172454394Y-109149164D01*
X172166063Y-109691436D01*
X171777906Y-110167364D01*
X171304686Y-110558845D01*
X170764449Y-110850950D01*
X170177756Y-111032563D01*
X169536130Y-111100000D01*
X166927956Y-111100000D01*
X166956541Y-111076541D01*
X166982389Y-111045045D01*
X166982392Y-111045042D01*
X167059699Y-110950843D01*
X167136353Y-110807434D01*
X167162131Y-110722454D01*
X167183556Y-110651826D01*
X167195500Y-110530553D01*
X167195500Y-110530551D01*
X167199494Y-110490000D01*
X167195500Y-110449450D01*
X167195500Y-108363373D01*
X167251654Y-108645679D01*
X167431440Y-109079721D01*
X167692450Y-109470349D01*
X168024651Y-109802550D01*
X168415279Y-110063560D01*
X168849321Y-110243346D01*
X169310098Y-110335000D01*
X169779902Y-110335000D01*
X170240679Y-110243346D01*
X170674721Y-110063560D01*
X171065349Y-109802550D01*
X171397550Y-109470349D01*
X171658560Y-109079721D01*
X171838346Y-108645679D01*
X171930000Y-108184902D01*
X171930000Y-107715098D01*
X171838346Y-107254321D01*
X171658560Y-106820279D01*
X171397550Y-106429651D01*
X171065349Y-106097450D01*
X170674721Y-105836440D01*
X170240679Y-105656654D01*
X169779902Y-105565000D01*
X169310098Y-105565000D01*
X168849321Y-105656654D01*
X168415279Y-105836440D01*
X168024651Y-106097450D01*
X167692450Y-106429651D01*
X167431440Y-106820279D01*
X167251654Y-107254321D01*
X167195500Y-107536627D01*
X167195500Y-103846932D01*
X170735046Y-100307388D01*
X170766541Y-100281541D01*
X170792389Y-100250045D01*
X170792392Y-100250042D01*
X170869699Y-100155843D01*
X170946353Y-100012434D01*
X170946353Y-100012433D01*
X170976494Y-99913072D01*
X171030000Y-99913072D01*
X171154482Y-99900812D01*
X171274180Y-99864502D01*
X171384494Y-99805537D01*
X171481185Y-99726185D01*
X171560537Y-99629494D01*
X171619502Y-99519180D01*
X171655812Y-99399482D01*
X171668072Y-99275000D01*
X171668072Y-97575000D01*
X171655812Y-97450518D01*
X171619502Y-97330820D01*
X171560537Y-97220506D01*
X171481185Y-97123815D01*
X171384494Y-97044463D01*
X171274180Y-96985498D01*
X171201620Y-96963487D01*
X171333475Y-96831632D01*
X171495990Y-96588411D01*
X171607932Y-96318158D01*
X171665000Y-96031260D01*
X171665000Y-95738740D01*
X171607932Y-95451842D01*
X171495990Y-95181589D01*
X171333475Y-94938368D01*
X171126632Y-94731525D01*
X170883411Y-94569010D01*
X170613158Y-94457068D01*
X170326260Y-94400000D01*
X170033740Y-94400000D01*
X169746842Y-94457068D01*
X169476589Y-94569010D01*
X169233368Y-94731525D01*
X169026525Y-94938368D01*
X168864010Y-95181589D01*
X168752068Y-95451842D01*
X168695000Y-95738740D01*
X168695000Y-96031260D01*
X168752068Y-96318158D01*
X168864010Y-96588411D01*
X169026525Y-96831632D01*
X169158380Y-96963487D01*
X169085820Y-96985498D01*
X168975506Y-97044463D01*
X168878815Y-97123815D01*
X168799463Y-97220506D01*
X168740498Y-97330820D01*
X168704188Y-97450518D01*
X168691928Y-97575000D01*
X168691928Y-99275000D01*
X168704188Y-99399482D01*
X168740498Y-99519180D01*
X168799463Y-99629494D01*
X168878815Y-99726185D01*
X168935149Y-99772417D01*
X168400000Y-100307567D01*
X168400000Y-88937333D01*
X168403677Y-88900000D01*
X168389003Y-88751014D01*
X168345546Y-88607753D01*
X168274974Y-88475724D01*
X168203799Y-88388997D01*
X168180001Y-88359999D01*
X168151002Y-88336200D01*
X167568803Y-87754002D01*
X167545001Y-87724999D01*
X167429276Y-87630026D01*
X167297247Y-87559454D01*
X167153986Y-87515997D01*
X167042333Y-87505000D01*
X167042322Y-87505000D01*
X167005000Y-87501324D01*
X166967678Y-87505000D01*
X166720901Y-87505000D01*
X166698932Y-87463899D01*
X166519608Y-87245392D01*
X166301101Y-87066068D01*
X166168142Y-86995000D01*
X166301101Y-86923932D01*
X166519608Y-86744608D01*
X166698932Y-86526101D01*
X166832182Y-86276808D01*
X166914236Y-86006309D01*
X166941943Y-85725000D01*
X166914236Y-85443691D01*
X166832182Y-85173192D01*
X166698932Y-84923899D01*
X166519608Y-84705392D01*
X166301101Y-84526068D01*
X166168142Y-84455000D01*
X166301101Y-84383932D01*
X166519608Y-84204608D01*
X166698932Y-83986101D01*
X166832182Y-83736808D01*
X166914236Y-83466309D01*
X166941943Y-83185000D01*
X166914236Y-82903691D01*
X166832182Y-82633192D01*
X166698932Y-82383899D01*
X166519608Y-82165392D01*
X166301101Y-81986068D01*
X166168142Y-81915000D01*
X166301101Y-81843932D01*
X166519608Y-81664608D01*
X166698932Y-81446101D01*
X166832182Y-81196808D01*
X166914236Y-80926309D01*
X166941943Y-80645000D01*
X166914236Y-80363691D01*
X166832182Y-80093192D01*
X166698932Y-79843899D01*
X166519608Y-79625392D01*
X166301101Y-79446068D01*
X166051808Y-79312818D01*
X165781309Y-79230764D01*
X165570492Y-79210000D01*
X164629508Y-79210000D01*
X164418691Y-79230764D01*
X164148192Y-79312818D01*
X163898899Y-79446068D01*
X163680392Y-79625392D01*
X163501068Y-79843899D01*
X163367818Y-80093192D01*
X163285764Y-80363691D01*
X163258057Y-80645000D01*
X163285764Y-80926309D01*
X163367818Y-81196808D01*
X163501068Y-81446101D01*
X163680392Y-81664608D01*
X163898899Y-81843932D01*
X164031858Y-81915000D01*
X163898899Y-81986068D01*
X163680392Y-82165392D01*
X163501068Y-82383899D01*
X163367818Y-82633192D01*
X163285764Y-82903691D01*
X163258057Y-83185000D01*
X163285764Y-83466309D01*
X163367818Y-83736808D01*
X163501068Y-83986101D01*
X163680392Y-84204608D01*
X163898899Y-84383932D01*
X164031858Y-84455000D01*
X163898899Y-84526068D01*
X163680392Y-84705392D01*
X163501068Y-84923899D01*
X163367818Y-85173192D01*
X163285764Y-85443691D01*
X163258057Y-85725000D01*
X163285764Y-86006309D01*
X163367818Y-86276808D01*
X163404592Y-86345607D01*
X160975199Y-88775000D01*
X159224864Y-88775000D01*
X159294236Y-88546309D01*
X159321943Y-88265000D01*
X159294236Y-87983691D01*
X159212182Y-87713192D01*
X159078932Y-87463899D01*
X158899608Y-87245392D01*
X158681101Y-87066068D01*
X158548142Y-86995000D01*
X158681101Y-86923932D01*
X158899608Y-86744608D01*
X159078932Y-86526101D01*
X159212182Y-86276808D01*
X159294236Y-86006309D01*
X159302159Y-85925870D01*
X159360226Y-85983937D01*
X159529744Y-86097205D01*
X159718102Y-86175226D01*
X159918061Y-86215000D01*
X160121939Y-86215000D01*
X160321898Y-86175226D01*
X160510256Y-86097205D01*
X160679774Y-85983937D01*
X160823937Y-85839774D01*
X160937205Y-85670256D01*
X161015226Y-85481898D01*
X161055000Y-85281939D01*
X161055000Y-85078061D01*
X161015226Y-84878102D01*
X160937205Y-84689744D01*
X160823937Y-84520226D01*
X160780000Y-84476289D01*
X160780000Y-83857333D01*
X160783677Y-83820000D01*
X160769003Y-83671014D01*
X160725546Y-83527753D01*
X160654974Y-83395724D01*
X160583799Y-83308997D01*
X160560001Y-83279999D01*
X160531002Y-83256200D01*
X159948803Y-82674002D01*
X159925001Y-82644999D01*
X159809276Y-82550026D01*
X159677247Y-82479454D01*
X159533986Y-82435997D01*
X159422333Y-82425000D01*
X159422322Y-82425000D01*
X159385000Y-82421324D01*
X159347678Y-82425000D01*
X159100901Y-82425000D01*
X159078932Y-82383899D01*
X158899608Y-82165392D01*
X158786518Y-82072581D01*
X158804482Y-82070812D01*
X158924180Y-82034502D01*
X159034494Y-81975537D01*
X159131185Y-81896185D01*
X159210537Y-81799494D01*
X159269502Y-81689180D01*
X159305812Y-81569482D01*
X159318072Y-81445000D01*
X159318072Y-79845000D01*
X159305812Y-79720518D01*
X159269502Y-79600820D01*
X159210537Y-79490506D01*
X159131185Y-79393815D01*
X159034494Y-79314463D01*
X158924180Y-79255498D01*
X158804482Y-79219188D01*
X158680000Y-79206928D01*
X156280000Y-79206928D01*
X156155518Y-79219188D01*
X156035820Y-79255498D01*
X155925506Y-79314463D01*
X155828815Y-79393815D01*
X155749463Y-79490506D01*
X155690498Y-79600820D01*
X155654188Y-79720518D01*
X155641928Y-79845000D01*
X155641928Y-81445000D01*
X155654188Y-81569482D01*
X155690498Y-81689180D01*
X155749463Y-81799494D01*
X155828815Y-81896185D01*
X155925506Y-81975537D01*
X156035820Y-82034502D01*
X156155518Y-82070812D01*
X156173482Y-82072581D01*
X156060392Y-82165392D01*
X155881068Y-82383899D01*
X155747818Y-82633192D01*
X155665764Y-82903691D01*
X155638057Y-83185000D01*
X155665764Y-83466309D01*
X155747818Y-83736808D01*
X155881068Y-83986101D01*
X156060392Y-84204608D01*
X156278899Y-84383932D01*
X156411858Y-84455000D01*
X156278899Y-84526068D01*
X156060392Y-84705392D01*
X155881068Y-84923899D01*
X155747818Y-85173192D01*
X155665764Y-85443691D01*
X155638057Y-85725000D01*
X155665764Y-86006309D01*
X155747818Y-86276808D01*
X155784592Y-86345607D01*
X154900199Y-87230000D01*
X154838081Y-87230000D01*
X154638122Y-87269774D01*
X154449764Y-87347795D01*
X154280246Y-87461063D01*
X154136083Y-87605226D01*
X154022815Y-87774744D01*
X153944794Y-87963102D01*
X153905020Y-88163061D01*
X153905020Y-88366939D01*
X153944794Y-88566898D01*
X154022815Y-88755256D01*
X154136083Y-88924774D01*
X154280246Y-89068937D01*
X154310827Y-89089371D01*
X154265198Y-89135000D01*
X154203061Y-89135000D01*
X154003102Y-89174774D01*
X153814744Y-89252795D01*
X153645226Y-89366063D01*
X153501063Y-89510226D01*
X153387795Y-89679744D01*
X153309774Y-89868102D01*
X153270000Y-90068061D01*
X153270000Y-90271939D01*
X153303039Y-90438039D01*
X153136939Y-90405000D01*
X152933061Y-90405000D01*
X152733102Y-90444774D01*
X152544744Y-90522795D01*
X152375226Y-90636063D01*
X152231063Y-90780226D01*
X152117795Y-90949744D01*
X152039774Y-91138102D01*
X152000000Y-91338061D01*
X152000000Y-91541939D01*
X152039774Y-91741898D01*
X152117795Y-91930256D01*
X152231063Y-92099774D01*
X152375226Y-92243937D01*
X152544744Y-92357205D01*
X152733102Y-92435226D01*
X152933061Y-92475000D01*
X152995198Y-92475000D01*
X153106200Y-92586002D01*
X153129999Y-92615001D01*
X153158997Y-92638799D01*
X153245724Y-92709974D01*
X153377753Y-92780546D01*
X153521014Y-92824003D01*
X153670000Y-92838677D01*
X153707333Y-92835000D01*
X155735136Y-92835000D01*
X155665764Y-93063691D01*
X155638057Y-93345000D01*
X155665764Y-93626309D01*
X155747818Y-93896808D01*
X155881068Y-94146101D01*
X156060392Y-94364608D01*
X156278899Y-94543932D01*
X156411858Y-94615000D01*
X156278899Y-94686068D01*
X156060392Y-94865392D01*
X155881068Y-95083899D01*
X155747818Y-95333192D01*
X155665764Y-95603691D01*
X155638057Y-95885000D01*
X155665764Y-96166309D01*
X155747818Y-96436808D01*
X155881068Y-96686101D01*
X156060392Y-96904608D01*
X156278899Y-97083932D01*
X156406741Y-97152265D01*
X156177161Y-97302399D01*
X155975500Y-97500105D01*
X155816285Y-97733354D01*
X155705633Y-97993182D01*
X155688096Y-98075961D01*
X155810085Y-98298000D01*
X157353000Y-98298000D01*
X157353000Y-98278000D01*
X157607000Y-98278000D01*
X157607000Y-98298000D01*
X159149915Y-98298000D01*
X159271904Y-98075961D01*
X159254367Y-97993182D01*
X159143715Y-97733354D01*
X158984500Y-97500105D01*
X158782839Y-97302399D01*
X158553259Y-97152265D01*
X158681101Y-97083932D01*
X158899608Y-96904608D01*
X159078932Y-96686101D01*
X159212182Y-96436808D01*
X159294236Y-96166309D01*
X159321943Y-95885000D01*
X159294236Y-95603691D01*
X159212182Y-95333192D01*
X159078932Y-95083899D01*
X158899608Y-94865392D01*
X158681101Y-94686068D01*
X158548142Y-94615000D01*
X158681101Y-94543932D01*
X158899608Y-94364608D01*
X159078932Y-94146101D01*
X159212182Y-93896808D01*
X159294236Y-93626309D01*
X159321943Y-93345000D01*
X159294236Y-93063691D01*
X159224864Y-92835000D01*
X160041289Y-92835000D01*
X160085226Y-92878937D01*
X160254744Y-92992205D01*
X160443102Y-93070226D01*
X160643061Y-93110000D01*
X160846939Y-93110000D01*
X161046898Y-93070226D01*
X161235256Y-92992205D01*
X161404774Y-92878937D01*
X161548937Y-92734774D01*
X161662205Y-92565256D01*
X161740226Y-92376898D01*
X161780000Y-92176939D01*
X161780000Y-91973061D01*
X161740226Y-91773102D01*
X161662205Y-91584744D01*
X161548937Y-91415226D01*
X161404774Y-91271063D01*
X161235256Y-91157795D01*
X161046898Y-91079774D01*
X160846939Y-91040000D01*
X160643061Y-91040000D01*
X160443102Y-91079774D01*
X160254744Y-91157795D01*
X160085226Y-91271063D01*
X160041289Y-91315000D01*
X159224864Y-91315000D01*
X159294236Y-91086309D01*
X159321943Y-90805000D01*
X159294236Y-90523691D01*
X159224864Y-90295000D01*
X161252678Y-90295000D01*
X161290000Y-90298676D01*
X161327322Y-90295000D01*
X161327333Y-90295000D01*
X161438986Y-90284003D01*
X161582247Y-90240546D01*
X161714276Y-90169974D01*
X161830001Y-90075001D01*
X161853804Y-90045997D01*
X163301527Y-88598274D01*
X163367818Y-88816808D01*
X163501068Y-89066101D01*
X163680392Y-89284608D01*
X163898899Y-89463932D01*
X164031858Y-89535000D01*
X163898899Y-89606068D01*
X163680392Y-89785392D01*
X163501068Y-90003899D01*
X163367818Y-90253192D01*
X163285764Y-90523691D01*
X163258057Y-90805000D01*
X163285764Y-91086309D01*
X163367818Y-91356808D01*
X163501068Y-91606101D01*
X163680392Y-91824608D01*
X163898899Y-92003932D01*
X164031858Y-92075000D01*
X163898899Y-92146068D01*
X163680392Y-92325392D01*
X163501068Y-92543899D01*
X163367818Y-92793192D01*
X163285764Y-93063691D01*
X163258057Y-93345000D01*
X163285764Y-93626309D01*
X163367818Y-93896808D01*
X163501068Y-94146101D01*
X163680392Y-94364608D01*
X163898899Y-94543932D01*
X164031858Y-94615000D01*
X163898899Y-94686068D01*
X163680392Y-94865392D01*
X163501068Y-95083899D01*
X163367818Y-95333192D01*
X163285764Y-95603691D01*
X163258057Y-95885000D01*
X163285764Y-96166309D01*
X163367818Y-96436808D01*
X163501068Y-96686101D01*
X163680392Y-96904608D01*
X163898899Y-97083932D01*
X164031858Y-97155000D01*
X163898899Y-97226068D01*
X163680392Y-97405392D01*
X163501068Y-97623899D01*
X163367818Y-97873192D01*
X163285764Y-98143691D01*
X163258057Y-98425000D01*
X163285764Y-98706309D01*
X163367818Y-98976808D01*
X163501068Y-99226101D01*
X163680392Y-99444608D01*
X163898899Y-99623932D01*
X164148192Y-99757182D01*
X164418691Y-99839236D01*
X164629508Y-99860000D01*
X165570492Y-99860000D01*
X165781309Y-99839236D01*
X166051808Y-99757182D01*
X166245000Y-99653919D01*
X166245000Y-100015198D01*
X164588998Y-101671201D01*
X164560000Y-101694999D01*
X164536202Y-101723997D01*
X164536201Y-101723998D01*
X164465026Y-101810724D01*
X164394454Y-101942754D01*
X164364180Y-102042558D01*
X164350998Y-102086014D01*
X164343272Y-102164454D01*
X164336324Y-102235000D01*
X164340001Y-102272332D01*
X164340000Y-108905198D01*
X164150199Y-109095000D01*
X161629341Y-109095000D01*
X161819039Y-108905302D01*
X161983042Y-108659853D01*
X162096010Y-108387125D01*
X162153600Y-108097599D01*
X162153600Y-107802401D01*
X162096010Y-107512875D01*
X161983042Y-107240147D01*
X161819039Y-106994698D01*
X161610302Y-106785961D01*
X161451719Y-106680000D01*
X161610302Y-106574039D01*
X161819039Y-106365302D01*
X161983042Y-106119853D01*
X162096010Y-105847125D01*
X162153600Y-105557599D01*
X162153600Y-105262401D01*
X162096010Y-104972875D01*
X161983042Y-104700147D01*
X161819039Y-104454698D01*
X161610302Y-104245961D01*
X161364853Y-104081958D01*
X161092125Y-103968990D01*
X160802599Y-103911400D01*
X160507401Y-103911400D01*
X160217875Y-103968990D01*
X159945147Y-104081958D01*
X159699698Y-104245961D01*
X159490961Y-104454698D01*
X159385000Y-104613281D01*
X159279039Y-104454698D01*
X159070302Y-104245961D01*
X158824853Y-104081958D01*
X158552125Y-103968990D01*
X158262599Y-103911400D01*
X157967401Y-103911400D01*
X157677875Y-103968990D01*
X157405147Y-104081958D01*
X157159698Y-104245961D01*
X156950961Y-104454698D01*
X156840441Y-104620103D01*
X156781817Y-104521512D01*
X156585293Y-104303146D01*
X156349944Y-104127316D01*
X156084814Y-104000778D01*
X155934026Y-103955042D01*
X155702000Y-104076183D01*
X155702000Y-105283000D01*
X155722000Y-105283000D01*
X155722000Y-105537000D01*
X155702000Y-105537000D01*
X155702000Y-105557000D01*
X155448000Y-105557000D01*
X155448000Y-105537000D01*
X155428000Y-105537000D01*
X155428000Y-105283000D01*
X155448000Y-105283000D01*
X155448000Y-104076183D01*
X155215974Y-103955042D01*
X155065186Y-104000778D01*
X154800056Y-104127316D01*
X154564707Y-104303146D01*
X154368183Y-104521512D01*
X154309559Y-104620103D01*
X154199039Y-104454698D01*
X153990302Y-104245961D01*
X153862470Y-104160547D01*
X153864494Y-104140000D01*
X153859721Y-104091540D01*
X153848556Y-103978174D01*
X153801353Y-103822566D01*
X153724700Y-103679159D01*
X153724699Y-103679157D01*
X153647392Y-103584958D01*
X153647389Y-103584955D01*
X153621541Y-103553459D01*
X153590044Y-103527610D01*
X153012397Y-102949965D01*
X152986541Y-102918459D01*
X152860842Y-102815301D01*
X152717434Y-102738647D01*
X152561826Y-102691444D01*
X152440553Y-102679500D01*
X152440550Y-102679500D01*
X152400000Y-102675506D01*
X152359450Y-102679500D01*
X149265550Y-102679500D01*
X149225000Y-102675506D01*
X149184449Y-102679500D01*
X149184447Y-102679500D01*
X149063174Y-102691444D01*
X148907566Y-102738647D01*
X148764157Y-102815301D01*
X148669958Y-102892608D01*
X148669957Y-102892609D01*
X148638459Y-102918459D01*
X148612610Y-102949956D01*
X148034965Y-103527603D01*
X148003459Y-103553459D01*
X147934214Y-103637835D01*
X147900301Y-103679158D01*
X147823719Y-103822433D01*
X147823647Y-103822567D01*
X147776444Y-103978175D01*
X147766223Y-104081958D01*
X147760506Y-104140000D01*
X147764500Y-104180551D01*
X147764501Y-110449440D01*
X147760506Y-110490000D01*
X147776445Y-110651826D01*
X147823647Y-110807433D01*
X147900301Y-110950842D01*
X147961078Y-111024898D01*
X148003460Y-111076541D01*
X148032045Y-111100000D01*
X118777279Y-111100000D01*
X118133779Y-111036904D01*
X117545836Y-110859394D01*
X117003564Y-110571063D01*
X116527636Y-110182906D01*
X116136155Y-109709686D01*
X115844050Y-109169449D01*
X115662437Y-108582756D01*
X115595000Y-107941130D01*
X115595000Y-107715098D01*
X116360000Y-107715098D01*
X116360000Y-108184902D01*
X116451654Y-108645679D01*
X116631440Y-109079721D01*
X116892450Y-109470349D01*
X117224651Y-109802550D01*
X117615279Y-110063560D01*
X118049321Y-110243346D01*
X118510098Y-110335000D01*
X118979902Y-110335000D01*
X119440679Y-110243346D01*
X119874721Y-110063560D01*
X120265349Y-109802550D01*
X120597550Y-109470349D01*
X120858560Y-109079721D01*
X121038346Y-108645679D01*
X121130000Y-108184902D01*
X121130000Y-107715098D01*
X121038346Y-107254321D01*
X120968791Y-107086400D01*
X126133328Y-107086400D01*
X126133328Y-108813600D01*
X126145588Y-108938082D01*
X126181898Y-109057780D01*
X126240863Y-109168094D01*
X126320215Y-109264785D01*
X126416906Y-109344137D01*
X126527220Y-109403102D01*
X126646918Y-109439412D01*
X126771400Y-109451672D01*
X128498600Y-109451672D01*
X128623082Y-109439412D01*
X128742780Y-109403102D01*
X128853094Y-109344137D01*
X128949785Y-109264785D01*
X129029137Y-109168094D01*
X129088102Y-109057780D01*
X129105636Y-108999977D01*
X129219698Y-109114039D01*
X129465147Y-109278042D01*
X129737875Y-109391010D01*
X130027401Y-109448600D01*
X130322599Y-109448600D01*
X130612125Y-109391010D01*
X130884853Y-109278042D01*
X131130302Y-109114039D01*
X131339039Y-108905302D01*
X131445000Y-108746719D01*
X131550961Y-108905302D01*
X131759698Y-109114039D01*
X132005147Y-109278042D01*
X132277875Y-109391010D01*
X132567401Y-109448600D01*
X132862599Y-109448600D01*
X133152125Y-109391010D01*
X133424853Y-109278042D01*
X133670302Y-109114039D01*
X133879039Y-108905302D01*
X133985000Y-108746719D01*
X134090961Y-108905302D01*
X134299698Y-109114039D01*
X134545147Y-109278042D01*
X134817875Y-109391010D01*
X135107401Y-109448600D01*
X135402599Y-109448600D01*
X135692125Y-109391010D01*
X135964853Y-109278042D01*
X136210302Y-109114039D01*
X136419039Y-108905302D01*
X136525000Y-108746719D01*
X136630961Y-108905302D01*
X136839698Y-109114039D01*
X137085147Y-109278042D01*
X137357875Y-109391010D01*
X137647401Y-109448600D01*
X137942599Y-109448600D01*
X138232125Y-109391010D01*
X138504853Y-109278042D01*
X138750302Y-109114039D01*
X138959039Y-108905302D01*
X139123042Y-108659853D01*
X139236010Y-108387125D01*
X139293600Y-108097599D01*
X139293600Y-107802401D01*
X139236010Y-107512875D01*
X139123042Y-107240147D01*
X138959039Y-106994698D01*
X138750302Y-106785961D01*
X138591719Y-106680000D01*
X138750302Y-106574039D01*
X138959039Y-106365302D01*
X139123042Y-106119853D01*
X139236010Y-105847125D01*
X139293600Y-105557599D01*
X139293600Y-105262401D01*
X139236010Y-104972875D01*
X139123042Y-104700147D01*
X138959039Y-104454698D01*
X138750302Y-104245961D01*
X138504853Y-104081958D01*
X138232125Y-103968990D01*
X137942599Y-103911400D01*
X137647401Y-103911400D01*
X137357875Y-103968990D01*
X137085147Y-104081958D01*
X136839698Y-104245961D01*
X136630961Y-104454698D01*
X136525000Y-104613281D01*
X136419039Y-104454698D01*
X136210302Y-104245961D01*
X135964853Y-104081958D01*
X135692125Y-103968990D01*
X135402599Y-103911400D01*
X135107401Y-103911400D01*
X134817875Y-103968990D01*
X134545147Y-104081958D01*
X134299698Y-104245961D01*
X134090961Y-104454698D01*
X133980441Y-104620103D01*
X133921817Y-104521512D01*
X133725293Y-104303146D01*
X133489944Y-104127316D01*
X133224814Y-104000778D01*
X133074026Y-103955042D01*
X132842000Y-104076183D01*
X132842000Y-105283000D01*
X132862000Y-105283000D01*
X132862000Y-105537000D01*
X132842000Y-105537000D01*
X132842000Y-105557000D01*
X132588000Y-105557000D01*
X132588000Y-105537000D01*
X132568000Y-105537000D01*
X132568000Y-105283000D01*
X132588000Y-105283000D01*
X132588000Y-104076183D01*
X132355974Y-103955042D01*
X132205186Y-104000778D01*
X131940056Y-104127316D01*
X131704707Y-104303146D01*
X131508183Y-104521512D01*
X131449559Y-104620103D01*
X131339039Y-104454698D01*
X131130302Y-104245961D01*
X130884853Y-104081958D01*
X130612125Y-103968990D01*
X130322599Y-103911400D01*
X130027401Y-103911400D01*
X129737875Y-103968990D01*
X129465147Y-104081958D01*
X129219698Y-104245961D01*
X129010961Y-104454698D01*
X128905000Y-104613281D01*
X128799039Y-104454698D01*
X128590302Y-104245961D01*
X128344853Y-104081958D01*
X128072125Y-103968990D01*
X127782599Y-103911400D01*
X127487401Y-103911400D01*
X127197875Y-103968990D01*
X126925147Y-104081958D01*
X126679698Y-104245961D01*
X126470961Y-104454698D01*
X126306958Y-104700147D01*
X126193990Y-104972875D01*
X126136400Y-105262401D01*
X126136400Y-105557599D01*
X126193990Y-105847125D01*
X126306958Y-106119853D01*
X126470961Y-106365302D01*
X126585023Y-106479364D01*
X126527220Y-106496898D01*
X126416906Y-106555863D01*
X126320215Y-106635215D01*
X126240863Y-106731906D01*
X126181898Y-106842220D01*
X126145588Y-106961918D01*
X126133328Y-107086400D01*
X120968791Y-107086400D01*
X120858560Y-106820279D01*
X120597550Y-106429651D01*
X120265349Y-106097450D01*
X119874721Y-105836440D01*
X119440679Y-105656654D01*
X118979902Y-105565000D01*
X118510098Y-105565000D01*
X118049321Y-105656654D01*
X117615279Y-105836440D01*
X117224651Y-106097450D01*
X116892450Y-106429651D01*
X116631440Y-106820279D01*
X116451654Y-107254321D01*
X116360000Y-107715098D01*
X115595000Y-107715098D01*
X115595000Y-98918665D01*
X120485000Y-98918665D01*
X120485000Y-99201335D01*
X120540147Y-99478574D01*
X120648320Y-99739727D01*
X120805363Y-99974759D01*
X121005241Y-100174637D01*
X121240273Y-100331680D01*
X121501426Y-100439853D01*
X121778665Y-100495000D01*
X122061335Y-100495000D01*
X122338574Y-100439853D01*
X122599727Y-100331680D01*
X122834759Y-100174637D01*
X123034637Y-99974759D01*
X123191680Y-99739727D01*
X123299853Y-99478574D01*
X123355000Y-99201335D01*
X123355000Y-98918665D01*
X123660000Y-98918665D01*
X123660000Y-99201335D01*
X123715147Y-99478574D01*
X123823320Y-99739727D01*
X123980363Y-99974759D01*
X124180241Y-100174637D01*
X124415273Y-100331680D01*
X124676426Y-100439853D01*
X124953665Y-100495000D01*
X125236335Y-100495000D01*
X125513574Y-100439853D01*
X125774727Y-100331680D01*
X126009759Y-100174637D01*
X126209637Y-99974759D01*
X126366680Y-99739727D01*
X126474853Y-99478574D01*
X126530000Y-99201335D01*
X126530000Y-98918665D01*
X126835000Y-98918665D01*
X126835000Y-99201335D01*
X126890147Y-99478574D01*
X126998320Y-99739727D01*
X127155363Y-99974759D01*
X127355241Y-100174637D01*
X127590273Y-100331680D01*
X127851426Y-100439853D01*
X128128665Y-100495000D01*
X128411335Y-100495000D01*
X128688574Y-100439853D01*
X128949727Y-100331680D01*
X129184759Y-100174637D01*
X129384637Y-99974759D01*
X129541680Y-99739727D01*
X129649853Y-99478574D01*
X129705000Y-99201335D01*
X129705000Y-98918665D01*
X130010000Y-98918665D01*
X130010000Y-99201335D01*
X130065147Y-99478574D01*
X130173320Y-99739727D01*
X130330363Y-99974759D01*
X130530241Y-100174637D01*
X130765273Y-100331680D01*
X131026426Y-100439853D01*
X131303665Y-100495000D01*
X131586335Y-100495000D01*
X131863574Y-100439853D01*
X132124727Y-100331680D01*
X132359759Y-100174637D01*
X132559637Y-99974759D01*
X132716680Y-99739727D01*
X132824853Y-99478574D01*
X132880000Y-99201335D01*
X132880000Y-98918665D01*
X133185000Y-98918665D01*
X133185000Y-99201335D01*
X133240147Y-99478574D01*
X133348320Y-99739727D01*
X133505363Y-99974759D01*
X133705241Y-100174637D01*
X133940273Y-100331680D01*
X134201426Y-100439853D01*
X134478665Y-100495000D01*
X134761335Y-100495000D01*
X135038574Y-100439853D01*
X135299727Y-100331680D01*
X135534759Y-100174637D01*
X135734637Y-99974759D01*
X135891680Y-99739727D01*
X135999853Y-99478574D01*
X136055000Y-99201335D01*
X136055000Y-98918665D01*
X136360000Y-98918665D01*
X136360000Y-99201335D01*
X136415147Y-99478574D01*
X136523320Y-99739727D01*
X136680363Y-99974759D01*
X136880241Y-100174637D01*
X137115273Y-100331680D01*
X137376426Y-100439853D01*
X137653665Y-100495000D01*
X137936335Y-100495000D01*
X138213574Y-100439853D01*
X138474727Y-100331680D01*
X138709759Y-100174637D01*
X138909637Y-99974759D01*
X139066680Y-99739727D01*
X139174853Y-99478574D01*
X139230000Y-99201335D01*
X139230000Y-98918665D01*
X139535000Y-98918665D01*
X139535000Y-99201335D01*
X139590147Y-99478574D01*
X139698320Y-99739727D01*
X139855363Y-99974759D01*
X140055241Y-100174637D01*
X140290273Y-100331680D01*
X140551426Y-100439853D01*
X140828665Y-100495000D01*
X141111335Y-100495000D01*
X141388574Y-100439853D01*
X141649727Y-100331680D01*
X141884759Y-100174637D01*
X142084637Y-99974759D01*
X142241680Y-99739727D01*
X142349853Y-99478574D01*
X142405000Y-99201335D01*
X142405000Y-98918665D01*
X142710000Y-98918665D01*
X142710000Y-99201335D01*
X142765147Y-99478574D01*
X142873320Y-99739727D01*
X143030363Y-99974759D01*
X143230241Y-100174637D01*
X143465273Y-100331680D01*
X143726426Y-100439853D01*
X144003665Y-100495000D01*
X144286335Y-100495000D01*
X144563574Y-100439853D01*
X144824727Y-100331680D01*
X145059759Y-100174637D01*
X145259637Y-99974759D01*
X145416680Y-99739727D01*
X145524853Y-99478574D01*
X145580000Y-99201335D01*
X145580000Y-98918665D01*
X145524853Y-98641426D01*
X145416680Y-98380273D01*
X145259637Y-98145241D01*
X145059759Y-97945363D01*
X144824727Y-97788320D01*
X144563574Y-97680147D01*
X144286335Y-97625000D01*
X144003665Y-97625000D01*
X143726426Y-97680147D01*
X143465273Y-97788320D01*
X143230241Y-97945363D01*
X143030363Y-98145241D01*
X142873320Y-98380273D01*
X142765147Y-98641426D01*
X142710000Y-98918665D01*
X142405000Y-98918665D01*
X142349853Y-98641426D01*
X142241680Y-98380273D01*
X142084637Y-98145241D01*
X141884759Y-97945363D01*
X141649727Y-97788320D01*
X141388574Y-97680147D01*
X141111335Y-97625000D01*
X140828665Y-97625000D01*
X140551426Y-97680147D01*
X140290273Y-97788320D01*
X140055241Y-97945363D01*
X139855363Y-98145241D01*
X139698320Y-98380273D01*
X139590147Y-98641426D01*
X139535000Y-98918665D01*
X139230000Y-98918665D01*
X139174853Y-98641426D01*
X139066680Y-98380273D01*
X138909637Y-98145241D01*
X138709759Y-97945363D01*
X138474727Y-97788320D01*
X138213574Y-97680147D01*
X137936335Y-97625000D01*
X137653665Y-97625000D01*
X137376426Y-97680147D01*
X137115273Y-97788320D01*
X136880241Y-97945363D01*
X136680363Y-98145241D01*
X136523320Y-98380273D01*
X136415147Y-98641426D01*
X136360000Y-98918665D01*
X136055000Y-98918665D01*
X135999853Y-98641426D01*
X135891680Y-98380273D01*
X135734637Y-98145241D01*
X135534759Y-97945363D01*
X135299727Y-97788320D01*
X135038574Y-97680147D01*
X134761335Y-97625000D01*
X134478665Y-97625000D01*
X134201426Y-97680147D01*
X133940273Y-97788320D01*
X133705241Y-97945363D01*
X133505363Y-98145241D01*
X133348320Y-98380273D01*
X133240147Y-98641426D01*
X133185000Y-98918665D01*
X132880000Y-98918665D01*
X132824853Y-98641426D01*
X132716680Y-98380273D01*
X132559637Y-98145241D01*
X132359759Y-97945363D01*
X132124727Y-97788320D01*
X131863574Y-97680147D01*
X131586335Y-97625000D01*
X131303665Y-97625000D01*
X131026426Y-97680147D01*
X130765273Y-97788320D01*
X130530241Y-97945363D01*
X130330363Y-98145241D01*
X130173320Y-98380273D01*
X130065147Y-98641426D01*
X130010000Y-98918665D01*
X129705000Y-98918665D01*
X129649853Y-98641426D01*
X129541680Y-98380273D01*
X129384637Y-98145241D01*
X129184759Y-97945363D01*
X128949727Y-97788320D01*
X128688574Y-97680147D01*
X128411335Y-97625000D01*
X128128665Y-97625000D01*
X127851426Y-97680147D01*
X127590273Y-97788320D01*
X127355241Y-97945363D01*
X127155363Y-98145241D01*
X126998320Y-98380273D01*
X126890147Y-98641426D01*
X126835000Y-98918665D01*
X126530000Y-98918665D01*
X126474853Y-98641426D01*
X126366680Y-98380273D01*
X126209637Y-98145241D01*
X126009759Y-97945363D01*
X125774727Y-97788320D01*
X125513574Y-97680147D01*
X125236335Y-97625000D01*
X124953665Y-97625000D01*
X124676426Y-97680147D01*
X124415273Y-97788320D01*
X124180241Y-97945363D01*
X123980363Y-98145241D01*
X123823320Y-98380273D01*
X123715147Y-98641426D01*
X123660000Y-98918665D01*
X123355000Y-98918665D01*
X123299853Y-98641426D01*
X123191680Y-98380273D01*
X123034637Y-98145241D01*
X122834759Y-97945363D01*
X122599727Y-97788320D01*
X122338574Y-97680147D01*
X122061335Y-97625000D01*
X121778665Y-97625000D01*
X121501426Y-97680147D01*
X121240273Y-97788320D01*
X121005241Y-97945363D01*
X120805363Y-98145241D01*
X120648320Y-98380273D01*
X120540147Y-98641426D01*
X120485000Y-98918665D01*
X115595000Y-98918665D01*
X115595000Y-88758665D01*
X120485000Y-88758665D01*
X120485000Y-89041335D01*
X120540147Y-89318574D01*
X120648320Y-89579727D01*
X120805363Y-89814759D01*
X121005241Y-90014637D01*
X121240273Y-90171680D01*
X121501426Y-90279853D01*
X121778665Y-90335000D01*
X122061335Y-90335000D01*
X122338574Y-90279853D01*
X122599727Y-90171680D01*
X122834759Y-90014637D01*
X123034637Y-89814759D01*
X123191680Y-89579727D01*
X123299853Y-89318574D01*
X123355000Y-89041335D01*
X123355000Y-88758665D01*
X123660000Y-88758665D01*
X123660000Y-89041335D01*
X123715147Y-89318574D01*
X123823320Y-89579727D01*
X123980363Y-89814759D01*
X124180241Y-90014637D01*
X124415273Y-90171680D01*
X124676426Y-90279853D01*
X124953665Y-90335000D01*
X125236335Y-90335000D01*
X125513574Y-90279853D01*
X125774727Y-90171680D01*
X126009759Y-90014637D01*
X126209637Y-89814759D01*
X126366680Y-89579727D01*
X126474853Y-89318574D01*
X126530000Y-89041335D01*
X126530000Y-88758665D01*
X126835000Y-88758665D01*
X126835000Y-89041335D01*
X126890147Y-89318574D01*
X126998320Y-89579727D01*
X127155363Y-89814759D01*
X127355241Y-90014637D01*
X127590273Y-90171680D01*
X127851426Y-90279853D01*
X128128665Y-90335000D01*
X128411335Y-90335000D01*
X128688574Y-90279853D01*
X128949727Y-90171680D01*
X129184759Y-90014637D01*
X129384637Y-89814759D01*
X129541680Y-89579727D01*
X129649853Y-89318574D01*
X129705000Y-89041335D01*
X129705000Y-88758665D01*
X130010000Y-88758665D01*
X130010000Y-89041335D01*
X130065147Y-89318574D01*
X130173320Y-89579727D01*
X130330363Y-89814759D01*
X130530241Y-90014637D01*
X130765273Y-90171680D01*
X131026426Y-90279853D01*
X131303665Y-90335000D01*
X131586335Y-90335000D01*
X131863574Y-90279853D01*
X132124727Y-90171680D01*
X132359759Y-90014637D01*
X132559637Y-89814759D01*
X132716680Y-89579727D01*
X132824853Y-89318574D01*
X132880000Y-89041335D01*
X132880000Y-88758665D01*
X133185000Y-88758665D01*
X133185000Y-89041335D01*
X133240147Y-89318574D01*
X133348320Y-89579727D01*
X133505363Y-89814759D01*
X133705241Y-90014637D01*
X133940273Y-90171680D01*
X134201426Y-90279853D01*
X134478665Y-90335000D01*
X134761335Y-90335000D01*
X135038574Y-90279853D01*
X135299727Y-90171680D01*
X135534759Y-90014637D01*
X135734637Y-89814759D01*
X135891680Y-89579727D01*
X135999853Y-89318574D01*
X136055000Y-89041335D01*
X136055000Y-88758665D01*
X136360000Y-88758665D01*
X136360000Y-89041335D01*
X136415147Y-89318574D01*
X136523320Y-89579727D01*
X136680363Y-89814759D01*
X136880241Y-90014637D01*
X137115273Y-90171680D01*
X137376426Y-90279853D01*
X137653665Y-90335000D01*
X137936335Y-90335000D01*
X138213574Y-90279853D01*
X138474727Y-90171680D01*
X138709759Y-90014637D01*
X138909637Y-89814759D01*
X139066680Y-89579727D01*
X139174853Y-89318574D01*
X139230000Y-89041335D01*
X139230000Y-88758665D01*
X139535000Y-88758665D01*
X139535000Y-89041335D01*
X139590147Y-89318574D01*
X139698320Y-89579727D01*
X139855363Y-89814759D01*
X140055241Y-90014637D01*
X140290273Y-90171680D01*
X140551426Y-90279853D01*
X140828665Y-90335000D01*
X141111335Y-90335000D01*
X141388574Y-90279853D01*
X141649727Y-90171680D01*
X141884759Y-90014637D01*
X142084637Y-89814759D01*
X142241680Y-89579727D01*
X142349853Y-89318574D01*
X142405000Y-89041335D01*
X142405000Y-88758665D01*
X142710000Y-88758665D01*
X142710000Y-89041335D01*
X142765147Y-89318574D01*
X142873320Y-89579727D01*
X143030363Y-89814759D01*
X143230241Y-90014637D01*
X143465273Y-90171680D01*
X143726426Y-90279853D01*
X144003665Y-90335000D01*
X144286335Y-90335000D01*
X144563574Y-90279853D01*
X144824727Y-90171680D01*
X145059759Y-90014637D01*
X145143990Y-89930406D01*
X145143989Y-93796667D01*
X145140313Y-93833989D01*
X145143989Y-93871311D01*
X145143989Y-93871321D01*
X145154986Y-93982974D01*
X145198443Y-94126235D01*
X145269015Y-94258265D01*
X145308860Y-94306815D01*
X145363988Y-94373990D01*
X145392992Y-94397793D01*
X146560001Y-95564803D01*
X146560000Y-97841956D01*
X146405241Y-97945363D01*
X146205363Y-98145241D01*
X146048320Y-98380273D01*
X145940147Y-98641426D01*
X145885000Y-98918665D01*
X145885000Y-99201335D01*
X145940147Y-99478574D01*
X146048320Y-99739727D01*
X146205363Y-99974759D01*
X146405241Y-100174637D01*
X146640273Y-100331680D01*
X146901426Y-100439853D01*
X147178665Y-100495000D01*
X147461335Y-100495000D01*
X147738574Y-100439853D01*
X147999727Y-100331680D01*
X148234759Y-100174637D01*
X148434637Y-99974759D01*
X148591680Y-99739727D01*
X148699853Y-99478574D01*
X148755000Y-99201335D01*
X148755000Y-98918665D01*
X148699853Y-98641426D01*
X148591680Y-98380273D01*
X148434637Y-98145241D01*
X148234759Y-97945363D01*
X148080000Y-97841957D01*
X148080000Y-95287323D01*
X148083676Y-95250000D01*
X148080000Y-95212677D01*
X148080000Y-95212667D01*
X148069003Y-95101014D01*
X148025546Y-94957753D01*
X148015184Y-94938368D01*
X147954974Y-94825723D01*
X147883799Y-94738997D01*
X147860001Y-94709999D01*
X147831003Y-94686201D01*
X146663989Y-93519188D01*
X146663989Y-90181503D01*
X146901426Y-90279853D01*
X147178665Y-90335000D01*
X147461335Y-90335000D01*
X147738574Y-90279853D01*
X147905932Y-90210531D01*
X147905932Y-93383610D01*
X147902256Y-93420932D01*
X147905932Y-93458254D01*
X147905932Y-93458264D01*
X147916929Y-93569917D01*
X147951840Y-93685004D01*
X147960386Y-93713178D01*
X148030958Y-93845208D01*
X148070803Y-93893758D01*
X148125931Y-93960933D01*
X148154935Y-93984736D01*
X149735001Y-95564803D01*
X149735000Y-97841956D01*
X149580241Y-97945363D01*
X149380363Y-98145241D01*
X149223320Y-98380273D01*
X149115147Y-98641426D01*
X149060000Y-98918665D01*
X149060000Y-99201335D01*
X149115147Y-99478574D01*
X149223320Y-99739727D01*
X149380363Y-99974759D01*
X149580241Y-100174637D01*
X149815273Y-100331680D01*
X150076426Y-100439853D01*
X150353665Y-100495000D01*
X150636335Y-100495000D01*
X150913574Y-100439853D01*
X151174727Y-100331680D01*
X151409759Y-100174637D01*
X151609637Y-99974759D01*
X151766680Y-99739727D01*
X151874853Y-99478574D01*
X151930000Y-99201335D01*
X151930000Y-98918665D01*
X151901232Y-98774039D01*
X155688096Y-98774039D01*
X155705633Y-98856818D01*
X155816285Y-99116646D01*
X155975500Y-99349895D01*
X156177161Y-99547601D01*
X156413517Y-99702166D01*
X156675486Y-99807650D01*
X156953000Y-99860000D01*
X157353000Y-99860000D01*
X157353000Y-98552000D01*
X157607000Y-98552000D01*
X157607000Y-99860000D01*
X158007000Y-99860000D01*
X158284514Y-99807650D01*
X158546483Y-99702166D01*
X158782839Y-99547601D01*
X158984500Y-99349895D01*
X159143715Y-99116646D01*
X159254367Y-98856818D01*
X159271904Y-98774039D01*
X159149915Y-98552000D01*
X157607000Y-98552000D01*
X157353000Y-98552000D01*
X155810085Y-98552000D01*
X155688096Y-98774039D01*
X151901232Y-98774039D01*
X151874853Y-98641426D01*
X151766680Y-98380273D01*
X151609637Y-98145241D01*
X151409759Y-97945363D01*
X151255000Y-97841957D01*
X151255000Y-95287325D01*
X151258676Y-95250000D01*
X151255000Y-95212675D01*
X151255000Y-95212667D01*
X151244003Y-95101014D01*
X151200546Y-94957753D01*
X151129974Y-94825724D01*
X151035001Y-94709999D01*
X151006003Y-94686201D01*
X149425932Y-93106131D01*
X149425932Y-89860328D01*
X149580241Y-90014637D01*
X149815273Y-90171680D01*
X150076426Y-90279853D01*
X150353665Y-90335000D01*
X150636335Y-90335000D01*
X150913574Y-90279853D01*
X151174727Y-90171680D01*
X151409759Y-90014637D01*
X151609637Y-89814759D01*
X151766680Y-89579727D01*
X151874853Y-89318574D01*
X151930000Y-89041335D01*
X151930000Y-88758665D01*
X151874853Y-88481426D01*
X151766680Y-88220273D01*
X151609637Y-87985241D01*
X151409759Y-87785363D01*
X151174727Y-87628320D01*
X150913574Y-87520147D01*
X150636335Y-87465000D01*
X150353665Y-87465000D01*
X150076426Y-87520147D01*
X149815273Y-87628320D01*
X149580241Y-87785363D01*
X149425932Y-87939672D01*
X149425932Y-85173897D01*
X149469869Y-85129960D01*
X149583137Y-84960442D01*
X149588015Y-84948665D01*
X152235000Y-84948665D01*
X152235000Y-85231335D01*
X152290147Y-85508574D01*
X152398320Y-85769727D01*
X152555363Y-86004759D01*
X152755241Y-86204637D01*
X152990273Y-86361680D01*
X153251426Y-86469853D01*
X153528665Y-86525000D01*
X153811335Y-86525000D01*
X154088574Y-86469853D01*
X154349727Y-86361680D01*
X154584759Y-86204637D01*
X154784637Y-86004759D01*
X154941680Y-85769727D01*
X155049853Y-85508574D01*
X155105000Y-85231335D01*
X155105000Y-84948665D01*
X155049853Y-84671426D01*
X154941680Y-84410273D01*
X154784637Y-84175241D01*
X154584759Y-83975363D01*
X154349727Y-83818320D01*
X154088574Y-83710147D01*
X153811335Y-83655000D01*
X153528665Y-83655000D01*
X153251426Y-83710147D01*
X152990273Y-83818320D01*
X152755241Y-83975363D01*
X152555363Y-84175241D01*
X152398320Y-84410273D01*
X152290147Y-84671426D01*
X152235000Y-84948665D01*
X149588015Y-84948665D01*
X149661158Y-84772084D01*
X149700932Y-84572125D01*
X149700932Y-84368247D01*
X149661158Y-84168288D01*
X149583137Y-83979930D01*
X149469869Y-83810412D01*
X149325706Y-83666249D01*
X149156188Y-83552981D01*
X148967830Y-83474960D01*
X148767871Y-83435186D01*
X148563993Y-83435186D01*
X148364034Y-83474960D01*
X148175676Y-83552981D01*
X148006158Y-83666249D01*
X147861995Y-83810412D01*
X147748727Y-83979930D01*
X147670706Y-84168288D01*
X147630932Y-84368247D01*
X147630932Y-84572125D01*
X147630958Y-84572257D01*
X147598764Y-84540063D01*
X147429246Y-84426795D01*
X147240888Y-84348774D01*
X147040929Y-84309000D01*
X146837051Y-84309000D01*
X146637092Y-84348774D01*
X146448734Y-84426795D01*
X146279216Y-84540063D01*
X146135053Y-84684226D01*
X146021785Y-84853744D01*
X145943764Y-85042102D01*
X145903990Y-85242061D01*
X145903990Y-85304198D01*
X145392987Y-85815202D01*
X145363989Y-85839000D01*
X145340191Y-85867998D01*
X145340190Y-85867999D01*
X145269015Y-85954725D01*
X145198443Y-86086755D01*
X145154987Y-86230016D01*
X145140313Y-86379001D01*
X145143990Y-86416333D01*
X145143990Y-87869594D01*
X145059759Y-87785363D01*
X144824727Y-87628320D01*
X144563574Y-87520147D01*
X144286335Y-87465000D01*
X144003665Y-87465000D01*
X143726426Y-87520147D01*
X143465273Y-87628320D01*
X143230241Y-87785363D01*
X143030363Y-87985241D01*
X142873320Y-88220273D01*
X142765147Y-88481426D01*
X142710000Y-88758665D01*
X142405000Y-88758665D01*
X142349853Y-88481426D01*
X142241680Y-88220273D01*
X142084637Y-87985241D01*
X141884759Y-87785363D01*
X141649727Y-87628320D01*
X141388574Y-87520147D01*
X141111335Y-87465000D01*
X140828665Y-87465000D01*
X140551426Y-87520147D01*
X140290273Y-87628320D01*
X140055241Y-87785363D01*
X139855363Y-87985241D01*
X139698320Y-88220273D01*
X139590147Y-88481426D01*
X139535000Y-88758665D01*
X139230000Y-88758665D01*
X139174853Y-88481426D01*
X139066680Y-88220273D01*
X138909637Y-87985241D01*
X138709759Y-87785363D01*
X138474727Y-87628320D01*
X138213574Y-87520147D01*
X137936335Y-87465000D01*
X137653665Y-87465000D01*
X137376426Y-87520147D01*
X137115273Y-87628320D01*
X136880241Y-87785363D01*
X136680363Y-87985241D01*
X136523320Y-88220273D01*
X136415147Y-88481426D01*
X136360000Y-88758665D01*
X136055000Y-88758665D01*
X135999853Y-88481426D01*
X135891680Y-88220273D01*
X135734637Y-87985241D01*
X135534759Y-87785363D01*
X135299727Y-87628320D01*
X135038574Y-87520147D01*
X134761335Y-87465000D01*
X134478665Y-87465000D01*
X134201426Y-87520147D01*
X133940273Y-87628320D01*
X133705241Y-87785363D01*
X133505363Y-87985241D01*
X133348320Y-88220273D01*
X133240147Y-88481426D01*
X133185000Y-88758665D01*
X132880000Y-88758665D01*
X132824853Y-88481426D01*
X132716680Y-88220273D01*
X132559637Y-87985241D01*
X132359759Y-87785363D01*
X132124727Y-87628320D01*
X131863574Y-87520147D01*
X131586335Y-87465000D01*
X131303665Y-87465000D01*
X131026426Y-87520147D01*
X130765273Y-87628320D01*
X130530241Y-87785363D01*
X130330363Y-87985241D01*
X130173320Y-88220273D01*
X130065147Y-88481426D01*
X130010000Y-88758665D01*
X129705000Y-88758665D01*
X129649853Y-88481426D01*
X129541680Y-88220273D01*
X129384637Y-87985241D01*
X129184759Y-87785363D01*
X128949727Y-87628320D01*
X128688574Y-87520147D01*
X128411335Y-87465000D01*
X128128665Y-87465000D01*
X127851426Y-87520147D01*
X127590273Y-87628320D01*
X127355241Y-87785363D01*
X127155363Y-87985241D01*
X126998320Y-88220273D01*
X126890147Y-88481426D01*
X126835000Y-88758665D01*
X126530000Y-88758665D01*
X126474853Y-88481426D01*
X126366680Y-88220273D01*
X126209637Y-87985241D01*
X126009759Y-87785363D01*
X125774727Y-87628320D01*
X125513574Y-87520147D01*
X125236335Y-87465000D01*
X124953665Y-87465000D01*
X124676426Y-87520147D01*
X124415273Y-87628320D01*
X124180241Y-87785363D01*
X123980363Y-87985241D01*
X123823320Y-88220273D01*
X123715147Y-88481426D01*
X123660000Y-88758665D01*
X123355000Y-88758665D01*
X123299853Y-88481426D01*
X123191680Y-88220273D01*
X123034637Y-87985241D01*
X122834759Y-87785363D01*
X122599727Y-87628320D01*
X122338574Y-87520147D01*
X122061335Y-87465000D01*
X121778665Y-87465000D01*
X121501426Y-87520147D01*
X121240273Y-87628320D01*
X121005241Y-87785363D01*
X120805363Y-87985241D01*
X120648320Y-88220273D01*
X120540147Y-88481426D01*
X120485000Y-88758665D01*
X115595000Y-88758665D01*
X115595000Y-84948665D01*
X128740000Y-84948665D01*
X128740000Y-85231335D01*
X128795147Y-85508574D01*
X128903320Y-85769727D01*
X129060363Y-86004759D01*
X129260241Y-86204637D01*
X129495273Y-86361680D01*
X129756426Y-86469853D01*
X130033665Y-86525000D01*
X130316335Y-86525000D01*
X130593574Y-86469853D01*
X130854727Y-86361680D01*
X131089759Y-86204637D01*
X131289637Y-86004759D01*
X131446680Y-85769727D01*
X131554853Y-85508574D01*
X131610000Y-85231335D01*
X131610000Y-84948665D01*
X138900000Y-84948665D01*
X138900000Y-85231335D01*
X138955147Y-85508574D01*
X139063320Y-85769727D01*
X139220363Y-86004759D01*
X139420241Y-86204637D01*
X139655273Y-86361680D01*
X139916426Y-86469853D01*
X140193665Y-86525000D01*
X140476335Y-86525000D01*
X140753574Y-86469853D01*
X141014727Y-86361680D01*
X141249759Y-86204637D01*
X141449637Y-86004759D01*
X141606680Y-85769727D01*
X141714853Y-85508574D01*
X141770000Y-85231335D01*
X141770000Y-84948665D01*
X142075000Y-84948665D01*
X142075000Y-85231335D01*
X142130147Y-85508574D01*
X142238320Y-85769727D01*
X142395363Y-86004759D01*
X142595241Y-86204637D01*
X142830273Y-86361680D01*
X143091426Y-86469853D01*
X143368665Y-86525000D01*
X143651335Y-86525000D01*
X143928574Y-86469853D01*
X144189727Y-86361680D01*
X144424759Y-86204637D01*
X144624637Y-86004759D01*
X144781680Y-85769727D01*
X144889853Y-85508574D01*
X144945000Y-85231335D01*
X144945000Y-84948665D01*
X144889853Y-84671426D01*
X144781680Y-84410273D01*
X144624637Y-84175241D01*
X144424759Y-83975363D01*
X144189727Y-83818320D01*
X143928574Y-83710147D01*
X143651335Y-83655000D01*
X143368665Y-83655000D01*
X143091426Y-83710147D01*
X142830273Y-83818320D01*
X142595241Y-83975363D01*
X142395363Y-84175241D01*
X142238320Y-84410273D01*
X142130147Y-84671426D01*
X142075000Y-84948665D01*
X141770000Y-84948665D01*
X141714853Y-84671426D01*
X141606680Y-84410273D01*
X141449637Y-84175241D01*
X141249759Y-83975363D01*
X141014727Y-83818320D01*
X140753574Y-83710147D01*
X140476335Y-83655000D01*
X140193665Y-83655000D01*
X139916426Y-83710147D01*
X139655273Y-83818320D01*
X139420241Y-83975363D01*
X139220363Y-84175241D01*
X139063320Y-84410273D01*
X138955147Y-84671426D01*
X138900000Y-84948665D01*
X131610000Y-84948665D01*
X131554853Y-84671426D01*
X131446680Y-84410273D01*
X131289637Y-84175241D01*
X131089759Y-83975363D01*
X130854727Y-83818320D01*
X130593574Y-83710147D01*
X130316335Y-83655000D01*
X130033665Y-83655000D01*
X129756426Y-83710147D01*
X129495273Y-83818320D01*
X129260241Y-83975363D01*
X129060363Y-84175241D01*
X128903320Y-84410273D01*
X128795147Y-84671426D01*
X128740000Y-84948665D01*
X115595000Y-84948665D01*
X115595000Y-81138665D01*
X128740000Y-81138665D01*
X128740000Y-81421335D01*
X128795147Y-81698574D01*
X128903320Y-81959727D01*
X129060363Y-82194759D01*
X129260241Y-82394637D01*
X129495273Y-82551680D01*
X129756426Y-82659853D01*
X130033665Y-82715000D01*
X130316335Y-82715000D01*
X130593574Y-82659853D01*
X130854727Y-82551680D01*
X131089759Y-82394637D01*
X131289637Y-82194759D01*
X131446680Y-81959727D01*
X131554853Y-81698574D01*
X131610000Y-81421335D01*
X131610000Y-81138665D01*
X138900000Y-81138665D01*
X138900000Y-81421335D01*
X138955147Y-81698574D01*
X139063320Y-81959727D01*
X139220363Y-82194759D01*
X139420241Y-82394637D01*
X139655273Y-82551680D01*
X139916426Y-82659853D01*
X140193665Y-82715000D01*
X140476335Y-82715000D01*
X140753574Y-82659853D01*
X141014727Y-82551680D01*
X141249759Y-82394637D01*
X141449637Y-82194759D01*
X141606680Y-81959727D01*
X141714853Y-81698574D01*
X141770000Y-81421335D01*
X141770000Y-81138665D01*
X142075000Y-81138665D01*
X142075000Y-81421335D01*
X142130147Y-81698574D01*
X142238320Y-81959727D01*
X142395363Y-82194759D01*
X142595241Y-82394637D01*
X142830273Y-82551680D01*
X143091426Y-82659853D01*
X143368665Y-82715000D01*
X143651335Y-82715000D01*
X143928574Y-82659853D01*
X144189727Y-82551680D01*
X144424759Y-82394637D01*
X144624637Y-82194759D01*
X144781680Y-81959727D01*
X144889853Y-81698574D01*
X144945000Y-81421335D01*
X144945000Y-81138665D01*
X152235000Y-81138665D01*
X152235000Y-81421335D01*
X152290147Y-81698574D01*
X152398320Y-81959727D01*
X152555363Y-82194759D01*
X152755241Y-82394637D01*
X152990273Y-82551680D01*
X153251426Y-82659853D01*
X153528665Y-82715000D01*
X153811335Y-82715000D01*
X154088574Y-82659853D01*
X154349727Y-82551680D01*
X154584759Y-82394637D01*
X154784637Y-82194759D01*
X154941680Y-81959727D01*
X155049853Y-81698574D01*
X155105000Y-81421335D01*
X155105000Y-81138665D01*
X155049853Y-80861426D01*
X154941680Y-80600273D01*
X154784637Y-80365241D01*
X154584759Y-80165363D01*
X154349727Y-80008320D01*
X154088574Y-79900147D01*
X153811335Y-79845000D01*
X153528665Y-79845000D01*
X153251426Y-79900147D01*
X152990273Y-80008320D01*
X152755241Y-80165363D01*
X152555363Y-80365241D01*
X152398320Y-80600273D01*
X152290147Y-80861426D01*
X152235000Y-81138665D01*
X144945000Y-81138665D01*
X144889853Y-80861426D01*
X144781680Y-80600273D01*
X144624637Y-80365241D01*
X144424759Y-80165363D01*
X144189727Y-80008320D01*
X143928574Y-79900147D01*
X143651335Y-79845000D01*
X143368665Y-79845000D01*
X143091426Y-79900147D01*
X142830273Y-80008320D01*
X142595241Y-80165363D01*
X142395363Y-80365241D01*
X142238320Y-80600273D01*
X142130147Y-80861426D01*
X142075000Y-81138665D01*
X141770000Y-81138665D01*
X141714853Y-80861426D01*
X141606680Y-80600273D01*
X141449637Y-80365241D01*
X141249759Y-80165363D01*
X141014727Y-80008320D01*
X140753574Y-79900147D01*
X140476335Y-79845000D01*
X140193665Y-79845000D01*
X139916426Y-79900147D01*
X139655273Y-80008320D01*
X139420241Y-80165363D01*
X139220363Y-80365241D01*
X139063320Y-80600273D01*
X138955147Y-80861426D01*
X138900000Y-81138665D01*
X131610000Y-81138665D01*
X131554853Y-80861426D01*
X131446680Y-80600273D01*
X131289637Y-80365241D01*
X131089759Y-80165363D01*
X130854727Y-80008320D01*
X130593574Y-79900147D01*
X130316335Y-79845000D01*
X130033665Y-79845000D01*
X129756426Y-79900147D01*
X129495273Y-80008320D01*
X129260241Y-80165363D01*
X129060363Y-80365241D01*
X128903320Y-80600273D01*
X128795147Y-80861426D01*
X128740000Y-81138665D01*
X115595000Y-81138665D01*
X115595000Y-77502279D01*
X115622668Y-77220099D01*
X116360000Y-77220099D01*
X116360000Y-77689903D01*
X116451654Y-78150680D01*
X116631440Y-78584722D01*
X116892450Y-78975350D01*
X117224651Y-79307551D01*
X117615279Y-79568561D01*
X118049321Y-79748347D01*
X118510098Y-79840001D01*
X118979902Y-79840001D01*
X119440679Y-79748347D01*
X119874721Y-79568561D01*
X120265349Y-79307551D01*
X120597550Y-78975350D01*
X120858560Y-78584722D01*
X121038346Y-78150680D01*
X121130000Y-77689903D01*
X121130000Y-77220099D01*
X121069002Y-76913438D01*
X128206505Y-76913438D01*
X128245605Y-77153549D01*
X128330798Y-77381418D01*
X128371652Y-77457852D01*
X128595236Y-77505159D01*
X129265395Y-76835000D01*
X128595236Y-76164841D01*
X128371652Y-76212148D01*
X128270763Y-76433516D01*
X128215000Y-76670313D01*
X128206505Y-76913438D01*
X121069002Y-76913438D01*
X121038346Y-76759322D01*
X120858560Y-76325280D01*
X120631350Y-75985236D01*
X128774841Y-75985236D01*
X129445000Y-76655395D01*
X129459143Y-76641253D01*
X129638748Y-76820858D01*
X129624605Y-76835000D01*
X129638748Y-76849143D01*
X129459143Y-77028748D01*
X129445000Y-77014605D01*
X128774841Y-77684764D01*
X128822148Y-77908348D01*
X129043516Y-78009237D01*
X129280313Y-78065000D01*
X129523438Y-78073495D01*
X129763549Y-78034395D01*
X129991418Y-77949202D01*
X130067852Y-77908348D01*
X130115158Y-77684766D01*
X130232264Y-77801872D01*
X130290142Y-77743994D01*
X130314463Y-77789494D01*
X130393815Y-77886185D01*
X130490506Y-77965537D01*
X130600820Y-78024502D01*
X130720518Y-78060812D01*
X130845000Y-78073072D01*
X132045000Y-78073072D01*
X132169482Y-78060812D01*
X132289180Y-78024502D01*
X132399494Y-77965537D01*
X132496185Y-77886185D01*
X132575537Y-77789494D01*
X132634502Y-77679180D01*
X132670812Y-77559482D01*
X132683072Y-77435000D01*
X132683072Y-76235000D01*
X132670812Y-76110518D01*
X132634502Y-75990820D01*
X132575537Y-75880506D01*
X132496185Y-75783815D01*
X132399494Y-75704463D01*
X132289180Y-75645498D01*
X132169482Y-75609188D01*
X132045000Y-75596928D01*
X130845000Y-75596928D01*
X130720518Y-75609188D01*
X130600820Y-75645498D01*
X130490506Y-75704463D01*
X130393815Y-75783815D01*
X130314463Y-75880506D01*
X130290142Y-75926006D01*
X130232264Y-75868128D01*
X130115158Y-75985234D01*
X130067852Y-75761652D01*
X129846484Y-75660763D01*
X129609687Y-75605000D01*
X129366562Y-75596505D01*
X129126451Y-75635605D01*
X128898582Y-75720798D01*
X128822148Y-75761652D01*
X128774841Y-75985236D01*
X120631350Y-75985236D01*
X120597550Y-75934652D01*
X120265349Y-75602451D01*
X120239232Y-75585000D01*
X133716928Y-75585000D01*
X133716928Y-78085000D01*
X133729188Y-78209482D01*
X133765498Y-78329180D01*
X133824463Y-78439494D01*
X133903815Y-78536185D01*
X134000506Y-78615537D01*
X134110820Y-78674502D01*
X134230518Y-78710812D01*
X134355000Y-78723072D01*
X136155000Y-78723072D01*
X136279482Y-78710812D01*
X136399180Y-78674502D01*
X136509494Y-78615537D01*
X136606185Y-78536185D01*
X136685537Y-78439494D01*
X136744502Y-78329180D01*
X136749495Y-78312720D01*
X136938074Y-78467481D01*
X137204740Y-78610017D01*
X137494088Y-78697790D01*
X137795000Y-78727427D01*
X138095913Y-78697790D01*
X138385261Y-78610017D01*
X138651927Y-78467481D01*
X138885661Y-78275661D01*
X139065000Y-78057135D01*
X139244339Y-78275661D01*
X139478074Y-78467481D01*
X139744740Y-78610017D01*
X140034088Y-78697790D01*
X140335000Y-78727427D01*
X140635913Y-78697790D01*
X140925261Y-78610017D01*
X141191927Y-78467481D01*
X141425661Y-78275661D01*
X141605000Y-78057135D01*
X141784339Y-78275661D01*
X142018074Y-78467481D01*
X142284740Y-78610017D01*
X142574088Y-78697790D01*
X142875000Y-78727427D01*
X143175913Y-78697790D01*
X143465261Y-78610017D01*
X143731927Y-78467481D01*
X143965661Y-78275661D01*
X144145000Y-78057135D01*
X144324339Y-78275661D01*
X144558074Y-78467481D01*
X144824740Y-78610017D01*
X145114088Y-78697790D01*
X145415000Y-78727427D01*
X145715913Y-78697790D01*
X146005261Y-78610017D01*
X146271927Y-78467481D01*
X146505661Y-78275661D01*
X146685000Y-78057135D01*
X146864339Y-78275661D01*
X147098074Y-78467481D01*
X147364740Y-78610017D01*
X147654088Y-78697790D01*
X147955000Y-78727427D01*
X148255913Y-78697790D01*
X148545261Y-78610017D01*
X148811927Y-78467481D01*
X149045661Y-78275661D01*
X149225000Y-78057135D01*
X149404339Y-78275661D01*
X149638074Y-78467481D01*
X149904740Y-78610017D01*
X150194088Y-78697790D01*
X150495000Y-78727427D01*
X150795913Y-78697790D01*
X151085261Y-78610017D01*
X151351927Y-78467481D01*
X151585661Y-78275661D01*
X151769781Y-78051309D01*
X151829252Y-78143396D01*
X152039394Y-78360210D01*
X152287796Y-78531862D01*
X152564913Y-78651755D01*
X152670260Y-78676036D01*
X152908000Y-78555378D01*
X152908000Y-76962000D01*
X153162000Y-76962000D01*
X153162000Y-78555378D01*
X153399740Y-78676036D01*
X153505087Y-78651755D01*
X153782204Y-78531862D01*
X154030606Y-78360210D01*
X154240748Y-78143396D01*
X154404554Y-77889751D01*
X154429126Y-77827702D01*
X158016903Y-77827702D01*
X158088486Y-78071671D01*
X158343996Y-78192571D01*
X158618184Y-78261300D01*
X158900512Y-78275217D01*
X159180130Y-78233787D01*
X159446292Y-78138603D01*
X159571514Y-78071671D01*
X159643097Y-77827702D01*
X158830000Y-77014605D01*
X158016903Y-77827702D01*
X154429126Y-77827702D01*
X154515729Y-77609023D01*
X154570000Y-77312000D01*
X154570000Y-76962000D01*
X153162000Y-76962000D01*
X152908000Y-76962000D01*
X152888000Y-76962000D01*
X152888000Y-76905512D01*
X157389783Y-76905512D01*
X157431213Y-77185130D01*
X157526397Y-77451292D01*
X157593329Y-77576514D01*
X157837298Y-77648097D01*
X158650395Y-76835000D01*
X159009605Y-76835000D01*
X159822702Y-77648097D01*
X160066671Y-77576514D01*
X160187571Y-77321004D01*
X160256300Y-77046816D01*
X160270217Y-76764488D01*
X160259724Y-76693665D01*
X162395000Y-76693665D01*
X162395000Y-76976335D01*
X162450147Y-77253574D01*
X162558320Y-77514727D01*
X162715363Y-77749759D01*
X162915241Y-77949637D01*
X163150273Y-78106680D01*
X163411426Y-78214853D01*
X163688665Y-78270000D01*
X163971335Y-78270000D01*
X164248574Y-78214853D01*
X164509727Y-78106680D01*
X164744759Y-77949637D01*
X164944637Y-77749759D01*
X165101680Y-77514727D01*
X165209853Y-77253574D01*
X165213528Y-77235098D01*
X167160000Y-77235098D01*
X167160000Y-77704902D01*
X167251654Y-78165679D01*
X167431440Y-78599721D01*
X167692450Y-78990349D01*
X168024651Y-79322550D01*
X168415279Y-79583560D01*
X168849321Y-79763346D01*
X169310098Y-79855000D01*
X169779902Y-79855000D01*
X170240679Y-79763346D01*
X170674721Y-79583560D01*
X171065349Y-79322550D01*
X171397550Y-78990349D01*
X171658560Y-78599721D01*
X171838346Y-78165679D01*
X171930000Y-77704902D01*
X171930000Y-77235098D01*
X171838346Y-76774321D01*
X171658560Y-76340279D01*
X171397550Y-75949651D01*
X171065349Y-75617450D01*
X170674721Y-75356440D01*
X170240679Y-75176654D01*
X169779902Y-75085000D01*
X169310098Y-75085000D01*
X168849321Y-75176654D01*
X168415279Y-75356440D01*
X168024651Y-75617450D01*
X167692450Y-75949651D01*
X167431440Y-76340279D01*
X167251654Y-76774321D01*
X167160000Y-77235098D01*
X165213528Y-77235098D01*
X165265000Y-76976335D01*
X165265000Y-76693665D01*
X165209853Y-76416426D01*
X165101680Y-76155273D01*
X164944637Y-75920241D01*
X164744759Y-75720363D01*
X164509727Y-75563320D01*
X164248574Y-75455147D01*
X163971335Y-75400000D01*
X163688665Y-75400000D01*
X163411426Y-75455147D01*
X163150273Y-75563320D01*
X162915241Y-75720363D01*
X162715363Y-75920241D01*
X162558320Y-76155273D01*
X162450147Y-76416426D01*
X162395000Y-76693665D01*
X160259724Y-76693665D01*
X160228787Y-76484870D01*
X160133603Y-76218708D01*
X160066671Y-76093486D01*
X159822702Y-76021903D01*
X159009605Y-76835000D01*
X158650395Y-76835000D01*
X157837298Y-76021903D01*
X157593329Y-76093486D01*
X157472429Y-76348996D01*
X157403700Y-76623184D01*
X157389783Y-76905512D01*
X152888000Y-76905512D01*
X152888000Y-76708000D01*
X152908000Y-76708000D01*
X152908000Y-75114622D01*
X153162000Y-75114622D01*
X153162000Y-76708000D01*
X154570000Y-76708000D01*
X154570000Y-76358000D01*
X154515729Y-76060977D01*
X154429127Y-75842298D01*
X158016903Y-75842298D01*
X158830000Y-76655395D01*
X159643097Y-75842298D01*
X159571514Y-75598329D01*
X159316004Y-75477429D01*
X159041816Y-75408700D01*
X158759488Y-75394783D01*
X158479870Y-75436213D01*
X158213708Y-75531397D01*
X158088486Y-75598329D01*
X158016903Y-75842298D01*
X154429127Y-75842298D01*
X154404554Y-75780249D01*
X154240748Y-75526604D01*
X154030606Y-75309790D01*
X153782204Y-75138138D01*
X153505087Y-75018245D01*
X153399740Y-74993964D01*
X153162000Y-75114622D01*
X152908000Y-75114622D01*
X152670260Y-74993964D01*
X152564913Y-75018245D01*
X152287796Y-75138138D01*
X152039394Y-75309790D01*
X151829252Y-75526604D01*
X151769781Y-75618691D01*
X151585661Y-75394339D01*
X151351926Y-75202519D01*
X151085260Y-75059983D01*
X150795912Y-74972210D01*
X150495000Y-74942573D01*
X150194087Y-74972210D01*
X149904739Y-75059983D01*
X149638073Y-75202519D01*
X149404339Y-75394339D01*
X149225000Y-75612865D01*
X149045661Y-75394339D01*
X148811926Y-75202519D01*
X148545260Y-75059983D01*
X148255912Y-74972210D01*
X147955000Y-74942573D01*
X147654087Y-74972210D01*
X147364739Y-75059983D01*
X147098073Y-75202519D01*
X146864339Y-75394339D01*
X146685000Y-75612865D01*
X146505661Y-75394339D01*
X146271926Y-75202519D01*
X146005260Y-75059983D01*
X145715912Y-74972210D01*
X145415000Y-74942573D01*
X145114087Y-74972210D01*
X144824739Y-75059983D01*
X144558073Y-75202519D01*
X144324339Y-75394339D01*
X144145000Y-75612865D01*
X143965661Y-75394339D01*
X143731926Y-75202519D01*
X143465260Y-75059983D01*
X143175912Y-74972210D01*
X142875000Y-74942573D01*
X142574087Y-74972210D01*
X142284739Y-75059983D01*
X142018073Y-75202519D01*
X141784339Y-75394339D01*
X141605000Y-75612865D01*
X141425661Y-75394339D01*
X141191926Y-75202519D01*
X140925260Y-75059983D01*
X140635912Y-74972210D01*
X140335000Y-74942573D01*
X140034087Y-74972210D01*
X139744739Y-75059983D01*
X139478073Y-75202519D01*
X139244339Y-75394339D01*
X139065000Y-75612865D01*
X138885661Y-75394339D01*
X138651926Y-75202519D01*
X138385260Y-75059983D01*
X138095912Y-74972210D01*
X137795000Y-74942573D01*
X137494087Y-74972210D01*
X137204739Y-75059983D01*
X136938073Y-75202519D01*
X136749495Y-75357280D01*
X136744502Y-75340820D01*
X136685537Y-75230506D01*
X136606185Y-75133815D01*
X136509494Y-75054463D01*
X136399180Y-74995498D01*
X136279482Y-74959188D01*
X136155000Y-74946928D01*
X134355000Y-74946928D01*
X134230518Y-74959188D01*
X134110820Y-74995498D01*
X134000506Y-75054463D01*
X133903815Y-75133815D01*
X133824463Y-75230506D01*
X133765498Y-75340820D01*
X133729188Y-75460518D01*
X133716928Y-75585000D01*
X120239232Y-75585000D01*
X119874721Y-75341441D01*
X119440679Y-75161655D01*
X118979902Y-75070001D01*
X118510098Y-75070001D01*
X118049321Y-75161655D01*
X117615279Y-75341441D01*
X117224651Y-75602451D01*
X116892450Y-75934652D01*
X116631440Y-76325280D01*
X116451654Y-76759322D01*
X116360000Y-77220099D01*
X115622668Y-77220099D01*
X115658096Y-76858778D01*
X115835606Y-76270836D01*
X116123937Y-75728564D01*
X116512094Y-75252636D01*
X116985314Y-74861155D01*
X117525552Y-74569049D01*
X118112244Y-74387437D01*
X118753879Y-74320000D01*
X169512721Y-74320000D01*
X170156222Y-74383096D01*
G37*
G04 #@! TD.AperFunction*
M02*
