G04 #@! TF.GenerationSoftware,KiCad,Pcbnew,(5.1.8)-1*
G04 #@! TF.CreationDate,2021-01-22T23:51:14+01:00*
G04 #@! TF.ProjectId,IDC to DB9,49444320-746f-4204-9442-392e6b696361,rev?*
G04 #@! TF.SameCoordinates,Original*
G04 #@! TF.FileFunction,Legend,Bot*
G04 #@! TF.FilePolarity,Positive*
%FSLAX46Y46*%
G04 Gerber Fmt 4.6, Leading zero omitted, Abs format (unit mm)*
G04 Created by KiCad (PCBNEW (5.1.8)-1) date 2021-01-22 23:51:14*
%MOMM*%
%LPD*%
G01*
G04 APERTURE LIST*
%ADD10C,0.100000*%
G04 APERTURE END LIST*
D10*
X131895904Y-86303119D02*
X132695904Y-86569785D01*
X131895904Y-86836452D01*
X132619714Y-87560261D02*
X132657809Y-87522166D01*
X132695904Y-87407880D01*
X132695904Y-87331690D01*
X132657809Y-87217404D01*
X132581619Y-87141214D01*
X132505428Y-87103119D01*
X132353047Y-87065023D01*
X132238761Y-87065023D01*
X132086380Y-87103119D01*
X132010190Y-87141214D01*
X131934000Y-87217404D01*
X131895904Y-87331690D01*
X131895904Y-87407880D01*
X131934000Y-87522166D01*
X131972095Y-87560261D01*
X132619714Y-88360261D02*
X132657809Y-88322166D01*
X132695904Y-88207880D01*
X132695904Y-88131690D01*
X132657809Y-88017404D01*
X132581619Y-87941214D01*
X132505428Y-87903119D01*
X132353047Y-87865023D01*
X132238761Y-87865023D01*
X132086380Y-87903119D01*
X132010190Y-87941214D01*
X131934000Y-88017404D01*
X131895904Y-88131690D01*
X131895904Y-88207880D01*
X131934000Y-88322166D01*
X131972095Y-88360261D01*
X132772095Y-88512642D02*
X132772095Y-89122166D01*
X132276857Y-89312642D02*
X132276857Y-89579309D01*
X132695904Y-89693595D02*
X132695904Y-89312642D01*
X131895904Y-89312642D01*
X131895904Y-89693595D01*
X132695904Y-90036452D02*
X131895904Y-90036452D01*
X132695904Y-90493595D01*
X131895904Y-90493595D01*
X145420952Y-92436904D02*
X145420952Y-91636904D01*
X145040000Y-92436904D02*
X145040000Y-91636904D01*
X144849523Y-91636904D01*
X144735238Y-91675000D01*
X144659047Y-91751190D01*
X144620952Y-91827380D01*
X144582857Y-91979761D01*
X144582857Y-92094047D01*
X144620952Y-92246428D01*
X144659047Y-92322619D01*
X144735238Y-92398809D01*
X144849523Y-92436904D01*
X145040000Y-92436904D01*
X143782857Y-92360714D02*
X143820952Y-92398809D01*
X143935238Y-92436904D01*
X144011428Y-92436904D01*
X144125714Y-92398809D01*
X144201904Y-92322619D01*
X144240000Y-92246428D01*
X144278095Y-92094047D01*
X144278095Y-91979761D01*
X144240000Y-91827380D01*
X144201904Y-91751190D01*
X144125714Y-91675000D01*
X144011428Y-91636904D01*
X143935238Y-91636904D01*
X143820952Y-91675000D01*
X143782857Y-91713095D01*
X142944761Y-91903571D02*
X142640000Y-91903571D01*
X142830476Y-91636904D02*
X142830476Y-92322619D01*
X142792380Y-92398809D01*
X142716190Y-92436904D01*
X142640000Y-92436904D01*
X142259047Y-92436904D02*
X142335238Y-92398809D01*
X142373333Y-92360714D01*
X142411428Y-92284523D01*
X142411428Y-92055952D01*
X142373333Y-91979761D01*
X142335238Y-91941666D01*
X142259047Y-91903571D01*
X142144761Y-91903571D01*
X142068571Y-91941666D01*
X142030476Y-91979761D01*
X141992380Y-92055952D01*
X141992380Y-92284523D01*
X142030476Y-92360714D01*
X142068571Y-92398809D01*
X142144761Y-92436904D01*
X142259047Y-92436904D01*
X141040000Y-92436904D02*
X141040000Y-91636904D01*
X140849523Y-91636904D01*
X140735238Y-91675000D01*
X140659047Y-91751190D01*
X140620952Y-91827380D01*
X140582857Y-91979761D01*
X140582857Y-92094047D01*
X140620952Y-92246428D01*
X140659047Y-92322619D01*
X140735238Y-92398809D01*
X140849523Y-92436904D01*
X141040000Y-92436904D01*
X139973333Y-92017857D02*
X139859047Y-92055952D01*
X139820952Y-92094047D01*
X139782857Y-92170238D01*
X139782857Y-92284523D01*
X139820952Y-92360714D01*
X139859047Y-92398809D01*
X139935238Y-92436904D01*
X140240000Y-92436904D01*
X140240000Y-91636904D01*
X139973333Y-91636904D01*
X139897142Y-91675000D01*
X139859047Y-91713095D01*
X139820952Y-91789285D01*
X139820952Y-91865476D01*
X139859047Y-91941666D01*
X139897142Y-91979761D01*
X139973333Y-92017857D01*
X140240000Y-92017857D01*
X139401904Y-92436904D02*
X139249523Y-92436904D01*
X139173333Y-92398809D01*
X139135238Y-92360714D01*
X139059047Y-92246428D01*
X139020952Y-92094047D01*
X139020952Y-91789285D01*
X139059047Y-91713095D01*
X139097142Y-91675000D01*
X139173333Y-91636904D01*
X139325714Y-91636904D01*
X139401904Y-91675000D01*
X139440000Y-91713095D01*
X139478095Y-91789285D01*
X139478095Y-91979761D01*
X139440000Y-92055952D01*
X139401904Y-92094047D01*
X139325714Y-92132142D01*
X139173333Y-92132142D01*
X139097142Y-92094047D01*
X139059047Y-92055952D01*
X139020952Y-91979761D01*
M02*
