G04 #@! TF.GenerationSoftware,KiCad,Pcbnew,(5.1.8)-1*
G04 #@! TF.CreationDate,2021-01-22T23:51:14+01:00*
G04 #@! TF.ProjectId,IDC to DB9,49444320-746f-4204-9442-392e6b696361,rev?*
G04 #@! TF.SameCoordinates,Original*
G04 #@! TF.FileFunction,Legend,Top*
G04 #@! TF.FilePolarity,Positive*
%FSLAX46Y46*%
G04 Gerber Fmt 4.6, Leading zero omitted, Abs format (unit mm)*
G04 Created by KiCad (PCBNEW (5.1.8)-1) date 2021-01-22 23:51:14*
%MOMM*%
%LPD*%
G01*
G04 APERTURE LIST*
%ADD10C,0.100000*%
%ADD11C,0.120000*%
%ADD12C,0.150000*%
G04 APERTURE END LIST*
D10*
X134906666Y-82002380D02*
X134906666Y-82716666D01*
X134859047Y-82859523D01*
X134763809Y-82954761D01*
X134620952Y-83002380D01*
X134525714Y-83002380D01*
X135525714Y-83002380D02*
X135430476Y-82954761D01*
X135382857Y-82907142D01*
X135335238Y-82811904D01*
X135335238Y-82526190D01*
X135382857Y-82430952D01*
X135430476Y-82383333D01*
X135525714Y-82335714D01*
X135668571Y-82335714D01*
X135763809Y-82383333D01*
X135811428Y-82430952D01*
X135859047Y-82526190D01*
X135859047Y-82811904D01*
X135811428Y-82907142D01*
X135763809Y-82954761D01*
X135668571Y-83002380D01*
X135525714Y-83002380D01*
X136192380Y-82335714D02*
X136430476Y-83002380D01*
X136668571Y-82335714D02*
X136430476Y-83002380D01*
X136335238Y-83240476D01*
X136287619Y-83288095D01*
X136192380Y-83335714D01*
X137049523Y-83002380D02*
X137049523Y-82002380D01*
X137620952Y-83002380D02*
X137192380Y-82430952D01*
X137620952Y-82002380D02*
X137049523Y-82573809D01*
X138049523Y-82478571D02*
X138382857Y-82478571D01*
X138525714Y-83002380D02*
X138049523Y-83002380D01*
X138049523Y-82002380D01*
X138525714Y-82002380D01*
X139144761Y-82526190D02*
X139144761Y-83002380D01*
X138811428Y-82002380D02*
X139144761Y-82526190D01*
X139478095Y-82002380D01*
X140859047Y-83383333D02*
X140811428Y-83335714D01*
X140716190Y-83192857D01*
X140668571Y-83097619D01*
X140620952Y-82954761D01*
X140573333Y-82716666D01*
X140573333Y-82526190D01*
X140620952Y-82288095D01*
X140668571Y-82145238D01*
X140716190Y-82050000D01*
X140811428Y-81907142D01*
X140859047Y-81859523D01*
X141240000Y-83002380D02*
X141240000Y-82002380D01*
X141716190Y-83002380D02*
X141716190Y-82002380D01*
X141954285Y-82002380D01*
X142097142Y-82050000D01*
X142192380Y-82145238D01*
X142240000Y-82240476D01*
X142287619Y-82430952D01*
X142287619Y-82573809D01*
X142240000Y-82764285D01*
X142192380Y-82859523D01*
X142097142Y-82954761D01*
X141954285Y-83002380D01*
X141716190Y-83002380D01*
X143287619Y-82907142D02*
X143240000Y-82954761D01*
X143097142Y-83002380D01*
X143001904Y-83002380D01*
X142859047Y-82954761D01*
X142763809Y-82859523D01*
X142716190Y-82764285D01*
X142668571Y-82573809D01*
X142668571Y-82430952D01*
X142716190Y-82240476D01*
X142763809Y-82145238D01*
X142859047Y-82050000D01*
X143001904Y-82002380D01*
X143097142Y-82002380D01*
X143240000Y-82050000D01*
X143287619Y-82097619D01*
X144335238Y-82335714D02*
X144716190Y-82335714D01*
X144478095Y-82002380D02*
X144478095Y-82859523D01*
X144525714Y-82954761D01*
X144620952Y-83002380D01*
X144716190Y-83002380D01*
X145192380Y-83002380D02*
X145097142Y-82954761D01*
X145049523Y-82907142D01*
X145001904Y-82811904D01*
X145001904Y-82526190D01*
X145049523Y-82430952D01*
X145097142Y-82383333D01*
X145192380Y-82335714D01*
X145335238Y-82335714D01*
X145430476Y-82383333D01*
X145478095Y-82430952D01*
X145525714Y-82526190D01*
X145525714Y-82811904D01*
X145478095Y-82907142D01*
X145430476Y-82954761D01*
X145335238Y-83002380D01*
X145192380Y-83002380D01*
X146716190Y-83002380D02*
X146716190Y-82002380D01*
X146954285Y-82002380D01*
X147097142Y-82050000D01*
X147192380Y-82145238D01*
X147240000Y-82240476D01*
X147287619Y-82430952D01*
X147287619Y-82573809D01*
X147240000Y-82764285D01*
X147192380Y-82859523D01*
X147097142Y-82954761D01*
X146954285Y-83002380D01*
X146716190Y-83002380D01*
X148049523Y-82478571D02*
X148192380Y-82526190D01*
X148240000Y-82573809D01*
X148287619Y-82669047D01*
X148287619Y-82811904D01*
X148240000Y-82907142D01*
X148192380Y-82954761D01*
X148097142Y-83002380D01*
X147716190Y-83002380D01*
X147716190Y-82002380D01*
X148049523Y-82002380D01*
X148144761Y-82050000D01*
X148192380Y-82097619D01*
X148240000Y-82192857D01*
X148240000Y-82288095D01*
X148192380Y-82383333D01*
X148144761Y-82430952D01*
X148049523Y-82478571D01*
X147716190Y-82478571D01*
X148763809Y-83002380D02*
X148954285Y-83002380D01*
X149049523Y-82954761D01*
X149097142Y-82907142D01*
X149192380Y-82764285D01*
X149240000Y-82573809D01*
X149240000Y-82192857D01*
X149192380Y-82097619D01*
X149144761Y-82050000D01*
X149049523Y-82002380D01*
X148859047Y-82002380D01*
X148763809Y-82050000D01*
X148716190Y-82097619D01*
X148668571Y-82192857D01*
X148668571Y-82430952D01*
X148716190Y-82526190D01*
X148763809Y-82573809D01*
X148859047Y-82621428D01*
X149049523Y-82621428D01*
X149144761Y-82573809D01*
X149192380Y-82526190D01*
X149240000Y-82430952D01*
X149573333Y-83383333D02*
X149620952Y-83335714D01*
X149716190Y-83192857D01*
X149763809Y-83097619D01*
X149811428Y-82954761D01*
X149859047Y-82716666D01*
X149859047Y-82526190D01*
X149811428Y-82288095D01*
X149763809Y-82145238D01*
X149716190Y-82050000D01*
X149620952Y-81907142D01*
X149573333Y-81859523D01*
D11*
X136965500Y-81768438D02*
X136465500Y-81768438D01*
X136465500Y-81768438D02*
X136715500Y-81335425D01*
X136715500Y-81335425D02*
X136965500Y-81768438D01*
X137473500Y-91420438D02*
X136973500Y-91420438D01*
X136973500Y-91420438D02*
X137223500Y-90987425D01*
X137223500Y-90987425D02*
X137473500Y-91420438D01*
X131560000Y-93190000D02*
X131560000Y-90650000D01*
X131560000Y-93190000D02*
X134100000Y-93190000D01*
X131810000Y-92940000D02*
X131810000Y-83590000D01*
X152670000Y-92940000D02*
X131810000Y-92940000D01*
X152670000Y-83590000D02*
X152670000Y-92940000D01*
X131810000Y-83590000D02*
X152670000Y-83590000D01*
D10*
X152420000Y-92690000D02*
X151860000Y-92140000D01*
X132060000Y-92690000D02*
X132600000Y-92140000D01*
X152420000Y-83840000D02*
X151860000Y-84390000D01*
X132060000Y-83840000D02*
X132600000Y-84390000D01*
X151860000Y-84390000D02*
X151860000Y-92140000D01*
X152420000Y-83840000D02*
X152420000Y-92690000D01*
X132600000Y-84390000D02*
X132600000Y-92140000D01*
X132060000Y-83840000D02*
X132060000Y-92690000D01*
X144490000Y-92140000D02*
X144490000Y-92690000D01*
X139990000Y-92140000D02*
X139990000Y-92690000D01*
X144490000Y-92140000D02*
X151860000Y-92140000D01*
X132600000Y-92140000D02*
X139990000Y-92140000D01*
X132060000Y-92690000D02*
X152420000Y-92690000D01*
X132600000Y-84390000D02*
X151860000Y-84390000D01*
X132060000Y-83840000D02*
X152420000Y-83840000D01*
D12*
X141906666Y-73112380D02*
X141906666Y-73826666D01*
X141859047Y-73969523D01*
X141763809Y-74064761D01*
X141620952Y-74112380D01*
X141525714Y-74112380D01*
X142335238Y-73207619D02*
X142382857Y-73160000D01*
X142478095Y-73112380D01*
X142716190Y-73112380D01*
X142811428Y-73160000D01*
X142859047Y-73207619D01*
X142906666Y-73302857D01*
X142906666Y-73398095D01*
X142859047Y-73540952D01*
X142287619Y-74112380D01*
X142906666Y-74112380D01*
D10*
X133083333Y-84651904D02*
X133083333Y-85223333D01*
X133045238Y-85337619D01*
X132969047Y-85413809D01*
X132854761Y-85451904D01*
X132778571Y-85451904D01*
X133883333Y-85451904D02*
X133426190Y-85451904D01*
X133654761Y-85451904D02*
X133654761Y-84651904D01*
X133578571Y-84766190D01*
X133502380Y-84842380D01*
X133426190Y-84880476D01*
M02*
