G04 #@! TF.GenerationSoftware,KiCad,Pcbnew,(5.1.8)-1*
G04 #@! TF.CreationDate,2021-01-19T01:22:03+01:00*
G04 #@! TF.ProjectId,IDC to DB9,49444320-746f-4204-9442-392e6b696361,rev?*
G04 #@! TF.SameCoordinates,Original*
G04 #@! TF.FileFunction,Copper,L1,Top*
G04 #@! TF.FilePolarity,Positive*
%FSLAX46Y46*%
G04 Gerber Fmt 4.6, Leading zero omitted, Abs format (unit mm)*
G04 Created by KiCad (PCBNEW (5.1.8)-1) date 2021-01-19 01:22:03*
%MOMM*%
%LPD*%
G01*
G04 APERTURE LIST*
G04 #@! TA.AperFunction,SMDPad,CuDef*
%ADD10R,1.700000X6.000000*%
G04 #@! TD*
G04 #@! TA.AperFunction,ComponentPad*
%ADD11O,1.727200X1.727200*%
G04 #@! TD*
G04 #@! TA.AperFunction,ComponentPad*
%ADD12R,1.727200X1.727200*%
G04 #@! TD*
G04 #@! TA.AperFunction,Conductor*
%ADD13C,0.250000*%
G04 #@! TD*
G04 APERTURE END LIST*
D10*
X136684500Y-78168500D03*
X139454500Y-78168500D03*
X142224500Y-78168500D03*
X144994500Y-78168500D03*
X147764500Y-78168500D03*
D11*
X147320000Y-86995000D03*
X144780000Y-86995000D03*
X142240000Y-86995000D03*
X139700000Y-86995000D03*
X137160000Y-86995000D03*
X147320000Y-89535000D03*
X144780000Y-89535000D03*
X142240000Y-89535000D03*
X139700000Y-89535000D03*
D12*
X137160000Y-89535000D03*
D13*
X137160000Y-78644000D02*
X136684500Y-78168500D01*
X137160000Y-84492375D02*
X137160000Y-78644000D01*
X138430000Y-85762375D02*
X137160000Y-84492375D01*
X138430000Y-88265000D02*
X138430000Y-85762375D01*
X137160000Y-89535000D02*
X138430000Y-88265000D01*
X140970000Y-88265000D02*
X139700000Y-89535000D01*
X140970000Y-85725000D02*
X140970000Y-88265000D01*
X139700000Y-84455000D02*
X140970000Y-85725000D01*
X139700000Y-78414000D02*
X139700000Y-84455000D01*
X139454500Y-78168500D02*
X139700000Y-78414000D01*
X143510000Y-88265000D02*
X142240000Y-89535000D01*
X143510000Y-85725000D02*
X143510000Y-88265000D01*
X142224500Y-84439500D02*
X143510000Y-85725000D01*
X142224500Y-78168500D02*
X142224500Y-84439500D01*
X144994500Y-84669500D02*
X144994500Y-78168500D01*
X146050000Y-85725000D02*
X144994500Y-84669500D01*
X146050000Y-88265000D02*
X146050000Y-85725000D01*
X144780000Y-89535000D02*
X146050000Y-88265000D01*
X148590000Y-88265000D02*
X147320000Y-89535000D01*
X148590000Y-85725000D02*
X148590000Y-88265000D01*
X147320000Y-84455000D02*
X148590000Y-85725000D01*
X147320000Y-78613000D02*
X147320000Y-84455000D01*
X147764500Y-78168500D02*
X147320000Y-78613000D01*
M02*
