G04 #@! TF.GenerationSoftware,KiCad,Pcbnew,(5.1.8)-1*
G04 #@! TF.CreationDate,2021-01-22T23:51:14+01:00*
G04 #@! TF.ProjectId,IDC to DB9,49444320-746f-4204-9442-392e6b696361,rev?*
G04 #@! TF.SameCoordinates,Original*
G04 #@! TF.FileFunction,Copper,L2,Bot*
G04 #@! TF.FilePolarity,Positive*
%FSLAX46Y46*%
G04 Gerber Fmt 4.6, Leading zero omitted, Abs format (unit mm)*
G04 Created by KiCad (PCBNEW (5.1.8)-1) date 2021-01-22 23:51:14*
%MOMM*%
%LPD*%
G01*
G04 APERTURE LIST*
G04 #@! TA.AperFunction,SMDPad,CuDef*
%ADD10R,1.700000X6.000000*%
G04 #@! TD*
G04 #@! TA.AperFunction,ComponentPad*
%ADD11O,1.727200X1.727200*%
G04 #@! TD*
G04 #@! TA.AperFunction,ComponentPad*
%ADD12R,1.727200X1.727200*%
G04 #@! TD*
G04 #@! TA.AperFunction,SMDPad,CuDef*
%ADD13R,2.000000X1.600000*%
G04 #@! TD*
G04 #@! TA.AperFunction,ViaPad*
%ADD14C,0.800000*%
G04 #@! TD*
G04 #@! TA.AperFunction,Conductor*
%ADD15C,0.250000*%
G04 #@! TD*
G04 APERTURE END LIST*
D10*
X138069500Y-78168500D03*
X140839500Y-78168500D03*
X143609500Y-78168500D03*
X146379500Y-78168500D03*
D11*
X147320000Y-86995000D03*
X144780000Y-86995000D03*
X142240000Y-86995000D03*
X139700000Y-86995000D03*
X137160000Y-86995000D03*
X147320000Y-89535000D03*
X144780000Y-89535000D03*
X142240000Y-89535000D03*
X139700000Y-89535000D03*
D12*
X137160000Y-89535000D03*
D13*
X134112000Y-89408000D03*
X134112000Y-87503000D03*
D14*
X137160000Y-83185000D03*
D15*
X142240000Y-79538000D02*
X143609500Y-78168500D01*
X142240000Y-86995000D02*
X142240000Y-79538000D01*
X146379500Y-85395500D02*
X146379500Y-78168500D01*
X144780000Y-86995000D02*
X146379500Y-85395500D01*
X140839500Y-81418500D02*
X140839500Y-78168500D01*
X134112000Y-86453000D02*
X136237000Y-84328000D01*
X137930000Y-84328000D02*
X140839500Y-81418500D01*
X134112000Y-87503000D02*
X134112000Y-86453000D01*
X136237000Y-84328000D02*
X137930000Y-84328000D01*
X138069500Y-82275500D02*
X137160000Y-83185000D01*
X138069500Y-78168500D02*
X138069500Y-82275500D01*
X134112000Y-90932000D02*
X134112000Y-89408000D01*
X134620000Y-91440000D02*
X134112000Y-90932000D01*
X137795000Y-91440000D02*
X134620000Y-91440000D01*
X138430000Y-90805000D02*
X137795000Y-91440000D01*
X138430000Y-87630000D02*
X138430000Y-90805000D01*
X139065000Y-86995000D02*
X138430000Y-87630000D01*
X139700000Y-86995000D02*
X139065000Y-86995000D01*
M02*
