G04 #@! TF.GenerationSoftware,KiCad,Pcbnew,(5.1.8)-1*
G04 #@! TF.CreationDate,2021-02-26T23:44:03+01:00*
G04 #@! TF.ProjectId,Sega Mega Drive,53656761-204d-4656-9761-204472697665,rev?*
G04 #@! TF.SameCoordinates,Original*
G04 #@! TF.FileFunction,Copper,L2,Bot*
G04 #@! TF.FilePolarity,Positive*
%FSLAX46Y46*%
G04 Gerber Fmt 4.6, Leading zero omitted, Abs format (unit mm)*
G04 Created by KiCad (PCBNEW (5.1.8)-1) date 2021-02-26 23:44:03*
%MOMM*%
%LPD*%
G01*
G04 APERTURE LIST*
G04 #@! TA.AperFunction,ComponentPad*
%ADD10R,1.700000X1.700000*%
G04 #@! TD*
G04 #@! TA.AperFunction,ComponentPad*
%ADD11O,1.700000X1.700000*%
G04 #@! TD*
G04 #@! TA.AperFunction,ComponentPad*
%ADD12O,1.727200X1.727200*%
G04 #@! TD*
G04 #@! TA.AperFunction,ComponentPad*
%ADD13R,1.727200X1.727200*%
G04 #@! TD*
G04 #@! TA.AperFunction,ComponentPad*
%ADD14C,1.600000*%
G04 #@! TD*
G04 #@! TA.AperFunction,ComponentPad*
%ADD15C,2.000000*%
G04 #@! TD*
G04 #@! TA.AperFunction,ComponentPad*
%ADD16R,2.400000X1.600000*%
G04 #@! TD*
G04 #@! TA.AperFunction,ComponentPad*
%ADD17O,2.400000X1.600000*%
G04 #@! TD*
G04 #@! TA.AperFunction,ComponentPad*
%ADD18C,3.500000*%
G04 #@! TD*
G04 #@! TA.AperFunction,ComponentPad*
%ADD19O,1.600000X1.600000*%
G04 #@! TD*
G04 #@! TA.AperFunction,ViaPad*
%ADD20C,0.800000*%
G04 #@! TD*
G04 #@! TA.AperFunction,Conductor*
%ADD21C,0.381000*%
G04 #@! TD*
G04 #@! TA.AperFunction,Conductor*
%ADD22C,0.250000*%
G04 #@! TD*
G04 #@! TA.AperFunction,Conductor*
%ADD23C,0.254000*%
G04 #@! TD*
G04 #@! TA.AperFunction,Conductor*
%ADD24C,0.100000*%
G04 #@! TD*
G04 APERTURE END LIST*
D10*
X118110000Y-90170000D03*
D11*
X120650000Y-90170000D03*
X118110000Y-92710000D03*
X120650000Y-92710000D03*
X118110000Y-95250000D03*
X120650000Y-95250000D03*
D12*
X149225000Y-77470000D03*
X146685000Y-77470000D03*
X144145000Y-77470000D03*
X141605000Y-77470000D03*
X139065000Y-77470000D03*
X149225000Y-80010000D03*
X146685000Y-80010000D03*
X144145000Y-80010000D03*
X141605000Y-80010000D03*
D13*
X139065000Y-80010000D03*
D12*
X160655000Y-105410000D03*
X158115000Y-105410000D03*
X155575000Y-105410000D03*
X153035000Y-105410000D03*
X150495000Y-105410000D03*
X160655000Y-107950000D03*
X158115000Y-107950000D03*
X155575000Y-107950000D03*
X153035000Y-107950000D03*
D13*
X150495000Y-107950000D03*
D14*
X163830000Y-76835000D03*
X158830000Y-76835000D03*
D13*
X127635000Y-107950000D03*
D12*
X130175000Y-107950000D03*
X132715000Y-107950000D03*
X135255000Y-107950000D03*
X137795000Y-107950000D03*
X127635000Y-105410000D03*
X130175000Y-105410000D03*
X132715000Y-105410000D03*
X135255000Y-105410000D03*
X137795000Y-105410000D03*
D15*
X140895000Y-94960000D03*
X140895000Y-90460000D03*
X147395000Y-94960000D03*
X147395000Y-90460000D03*
D16*
X157480000Y-80645000D03*
D17*
X165100000Y-98425000D03*
X157480000Y-83185000D03*
X165100000Y-95885000D03*
X157480000Y-85725000D03*
X165100000Y-93345000D03*
X157480000Y-88265000D03*
X165100000Y-90805000D03*
X157480000Y-90805000D03*
X165100000Y-88265000D03*
X157480000Y-93345000D03*
X165100000Y-85725000D03*
X157480000Y-95885000D03*
X165100000Y-83185000D03*
X157480000Y-98425000D03*
X165100000Y-80645000D03*
D18*
X118745000Y-107950000D03*
X169545000Y-107950000D03*
X169545000Y-77470000D03*
X118745000Y-77455001D03*
D10*
X170180000Y-95885000D03*
D11*
X170180000Y-98425000D03*
D19*
X134620000Y-99060000D03*
D14*
X134620000Y-88900000D03*
X150495000Y-88900000D03*
D19*
X150495000Y-99060000D03*
X137795000Y-99060000D03*
D14*
X137795000Y-88900000D03*
X153670000Y-88900000D03*
D19*
X153670000Y-99060000D03*
X144145000Y-85725000D03*
D14*
X154305000Y-85725000D03*
X170180000Y-82550000D03*
D19*
X170180000Y-92710000D03*
X131445000Y-99060000D03*
D14*
X131445000Y-88900000D03*
X130810000Y-85725000D03*
D19*
X140970000Y-85725000D03*
D14*
X128270000Y-88900000D03*
D19*
X128270000Y-99060000D03*
D20*
X161924992Y-96520000D03*
X160474991Y-97155000D03*
X161199991Y-94524991D03*
X161199991Y-91350000D03*
X142150000Y-99060000D03*
X145595001Y-100965000D03*
X153670000Y-103415000D03*
X144145000Y-98298000D03*
X146685000Y-99060000D03*
X167767000Y-81534000D03*
X135255000Y-78740000D03*
X162560000Y-78830000D03*
D21*
X150495000Y-88900000D02*
X153670000Y-88900000D01*
D22*
X165100000Y-95885000D02*
X162559992Y-95885000D01*
X162559992Y-95885000D02*
X161924992Y-96520000D01*
X160474991Y-96520009D02*
X160474991Y-97155000D01*
X163650000Y-93345000D02*
X160474991Y-96520009D01*
X165100000Y-93345000D02*
X163650000Y-93345000D01*
X163830000Y-86995000D02*
X165100000Y-88265000D01*
X141605000Y-86995000D02*
X163830000Y-86995000D01*
X140970000Y-86360000D02*
X141605000Y-86995000D01*
X140970000Y-85725000D02*
X140970000Y-86360000D01*
X161199991Y-91440021D02*
X161290012Y-91350000D01*
X161199991Y-94524991D02*
X161199991Y-91440021D01*
X143690001Y-99060000D02*
X145595001Y-100965000D01*
X142150000Y-99060000D02*
X143690001Y-99060000D01*
X155575000Y-107950000D02*
X154305000Y-106680000D01*
X154305000Y-106680000D02*
X154305000Y-104050000D01*
X154305000Y-104050000D02*
X153670000Y-103415000D01*
X144907000Y-99060000D02*
X146685000Y-99060000D01*
X144145000Y-98298000D02*
X144907000Y-99060000D01*
X146685000Y-76835000D02*
X146685000Y-77470000D01*
X147320000Y-76200000D02*
X146685000Y-76835000D01*
X150114000Y-76200000D02*
X147320000Y-76200000D01*
X152019000Y-78105000D02*
X150114000Y-76200000D01*
X167767000Y-79883000D02*
X165989000Y-78105000D01*
X165989000Y-78105000D02*
X152019000Y-78105000D01*
X167767000Y-81534000D02*
X167767000Y-79883000D01*
X135255000Y-78740000D02*
X140335000Y-78740000D01*
X140335000Y-78740000D02*
X141605000Y-77470000D01*
X166370000Y-98425000D02*
X167005000Y-97790000D01*
X167005000Y-97790000D02*
X167005000Y-80168750D01*
X165100000Y-98425000D02*
X166370000Y-98425000D01*
X162560000Y-78830000D02*
X165666250Y-78830000D01*
X165666250Y-78830000D02*
X165973125Y-79136875D01*
X167005000Y-80168750D02*
X165973125Y-79136875D01*
X147395000Y-94960000D02*
X140895000Y-94960000D01*
D23*
X170156222Y-74383096D02*
X170744164Y-74560606D01*
X171286436Y-74848937D01*
X171762364Y-75237094D01*
X172153845Y-75710314D01*
X172445951Y-76250552D01*
X172627563Y-76837244D01*
X172695001Y-77478888D01*
X172695000Y-107917721D01*
X172631904Y-108561221D01*
X172454394Y-109149164D01*
X172166063Y-109691436D01*
X171777906Y-110167364D01*
X171304686Y-110558845D01*
X170764449Y-110850950D01*
X170177756Y-111032563D01*
X169536130Y-111100000D01*
X118777279Y-111100000D01*
X118133779Y-111036904D01*
X117545836Y-110859394D01*
X117003564Y-110571063D01*
X116527636Y-110182906D01*
X116136155Y-109709686D01*
X115844050Y-109169449D01*
X115662437Y-108582756D01*
X115595000Y-107941130D01*
X115595000Y-107715098D01*
X116360000Y-107715098D01*
X116360000Y-108184902D01*
X116451654Y-108645679D01*
X116631440Y-109079721D01*
X116892450Y-109470349D01*
X117224651Y-109802550D01*
X117615279Y-110063560D01*
X118049321Y-110243346D01*
X118510098Y-110335000D01*
X118979902Y-110335000D01*
X119440679Y-110243346D01*
X119874721Y-110063560D01*
X120265349Y-109802550D01*
X120597550Y-109470349D01*
X120858560Y-109079721D01*
X121038346Y-108645679D01*
X121130000Y-108184902D01*
X121130000Y-107715098D01*
X121038346Y-107254321D01*
X120968791Y-107086400D01*
X126133328Y-107086400D01*
X126133328Y-108813600D01*
X126145588Y-108938082D01*
X126181898Y-109057780D01*
X126240863Y-109168094D01*
X126320215Y-109264785D01*
X126416906Y-109344137D01*
X126527220Y-109403102D01*
X126646918Y-109439412D01*
X126771400Y-109451672D01*
X128498600Y-109451672D01*
X128623082Y-109439412D01*
X128742780Y-109403102D01*
X128853094Y-109344137D01*
X128949785Y-109264785D01*
X129029137Y-109168094D01*
X129088102Y-109057780D01*
X129105636Y-108999977D01*
X129219698Y-109114039D01*
X129465147Y-109278042D01*
X129737875Y-109391010D01*
X130027401Y-109448600D01*
X130322599Y-109448600D01*
X130612125Y-109391010D01*
X130884853Y-109278042D01*
X131130302Y-109114039D01*
X131339039Y-108905302D01*
X131445000Y-108746719D01*
X131550961Y-108905302D01*
X131759698Y-109114039D01*
X132005147Y-109278042D01*
X132277875Y-109391010D01*
X132567401Y-109448600D01*
X132862599Y-109448600D01*
X133152125Y-109391010D01*
X133424853Y-109278042D01*
X133670302Y-109114039D01*
X133879039Y-108905302D01*
X133985000Y-108746719D01*
X134090961Y-108905302D01*
X134299698Y-109114039D01*
X134545147Y-109278042D01*
X134817875Y-109391010D01*
X135107401Y-109448600D01*
X135402599Y-109448600D01*
X135692125Y-109391010D01*
X135964853Y-109278042D01*
X136210302Y-109114039D01*
X136419039Y-108905302D01*
X136525000Y-108746719D01*
X136630961Y-108905302D01*
X136839698Y-109114039D01*
X137085147Y-109278042D01*
X137357875Y-109391010D01*
X137647401Y-109448600D01*
X137942599Y-109448600D01*
X138232125Y-109391010D01*
X138504853Y-109278042D01*
X138750302Y-109114039D01*
X138959039Y-108905302D01*
X139123042Y-108659853D01*
X139236010Y-108387125D01*
X139293600Y-108097599D01*
X139293600Y-107802401D01*
X139236010Y-107512875D01*
X139123042Y-107240147D01*
X139020313Y-107086400D01*
X148993328Y-107086400D01*
X148993328Y-108813600D01*
X149005588Y-108938082D01*
X149041898Y-109057780D01*
X149100863Y-109168094D01*
X149180215Y-109264785D01*
X149276906Y-109344137D01*
X149387220Y-109403102D01*
X149506918Y-109439412D01*
X149631400Y-109451672D01*
X151358600Y-109451672D01*
X151483082Y-109439412D01*
X151602780Y-109403102D01*
X151713094Y-109344137D01*
X151809785Y-109264785D01*
X151889137Y-109168094D01*
X151948102Y-109057780D01*
X151965636Y-108999977D01*
X152079698Y-109114039D01*
X152325147Y-109278042D01*
X152597875Y-109391010D01*
X152887401Y-109448600D01*
X153182599Y-109448600D01*
X153472125Y-109391010D01*
X153744853Y-109278042D01*
X153990302Y-109114039D01*
X154199039Y-108905302D01*
X154305000Y-108746719D01*
X154410961Y-108905302D01*
X154619698Y-109114039D01*
X154865147Y-109278042D01*
X155137875Y-109391010D01*
X155427401Y-109448600D01*
X155722599Y-109448600D01*
X156012125Y-109391010D01*
X156284853Y-109278042D01*
X156530302Y-109114039D01*
X156739039Y-108905302D01*
X156845000Y-108746719D01*
X156950961Y-108905302D01*
X157159698Y-109114039D01*
X157405147Y-109278042D01*
X157677875Y-109391010D01*
X157967401Y-109448600D01*
X158262599Y-109448600D01*
X158552125Y-109391010D01*
X158824853Y-109278042D01*
X159070302Y-109114039D01*
X159279039Y-108905302D01*
X159385000Y-108746719D01*
X159490961Y-108905302D01*
X159699698Y-109114039D01*
X159945147Y-109278042D01*
X160217875Y-109391010D01*
X160507401Y-109448600D01*
X160802599Y-109448600D01*
X161092125Y-109391010D01*
X161364853Y-109278042D01*
X161610302Y-109114039D01*
X161819039Y-108905302D01*
X161983042Y-108659853D01*
X162096010Y-108387125D01*
X162153600Y-108097599D01*
X162153600Y-107802401D01*
X162136235Y-107715098D01*
X167160000Y-107715098D01*
X167160000Y-108184902D01*
X167251654Y-108645679D01*
X167431440Y-109079721D01*
X167692450Y-109470349D01*
X168024651Y-109802550D01*
X168415279Y-110063560D01*
X168849321Y-110243346D01*
X169310098Y-110335000D01*
X169779902Y-110335000D01*
X170240679Y-110243346D01*
X170674721Y-110063560D01*
X171065349Y-109802550D01*
X171397550Y-109470349D01*
X171658560Y-109079721D01*
X171838346Y-108645679D01*
X171930000Y-108184902D01*
X171930000Y-107715098D01*
X171838346Y-107254321D01*
X171658560Y-106820279D01*
X171397550Y-106429651D01*
X171065349Y-106097450D01*
X170674721Y-105836440D01*
X170240679Y-105656654D01*
X169779902Y-105565000D01*
X169310098Y-105565000D01*
X168849321Y-105656654D01*
X168415279Y-105836440D01*
X168024651Y-106097450D01*
X167692450Y-106429651D01*
X167431440Y-106820279D01*
X167251654Y-107254321D01*
X167160000Y-107715098D01*
X162136235Y-107715098D01*
X162096010Y-107512875D01*
X161983042Y-107240147D01*
X161819039Y-106994698D01*
X161610302Y-106785961D01*
X161451719Y-106680000D01*
X161610302Y-106574039D01*
X161819039Y-106365302D01*
X161983042Y-106119853D01*
X162096010Y-105847125D01*
X162153600Y-105557599D01*
X162153600Y-105262401D01*
X162096010Y-104972875D01*
X161983042Y-104700147D01*
X161819039Y-104454698D01*
X161610302Y-104245961D01*
X161364853Y-104081958D01*
X161092125Y-103968990D01*
X160802599Y-103911400D01*
X160507401Y-103911400D01*
X160217875Y-103968990D01*
X159945147Y-104081958D01*
X159699698Y-104245961D01*
X159490961Y-104454698D01*
X159385000Y-104613281D01*
X159279039Y-104454698D01*
X159070302Y-104245961D01*
X158824853Y-104081958D01*
X158552125Y-103968990D01*
X158262599Y-103911400D01*
X157967401Y-103911400D01*
X157677875Y-103968990D01*
X157405147Y-104081958D01*
X157159698Y-104245961D01*
X156950961Y-104454698D01*
X156840441Y-104620103D01*
X156781817Y-104521512D01*
X156585293Y-104303146D01*
X156349944Y-104127316D01*
X156084814Y-104000778D01*
X155934026Y-103955042D01*
X155702000Y-104076183D01*
X155702000Y-105283000D01*
X155722000Y-105283000D01*
X155722000Y-105537000D01*
X155702000Y-105537000D01*
X155702000Y-105557000D01*
X155448000Y-105557000D01*
X155448000Y-105537000D01*
X155428000Y-105537000D01*
X155428000Y-105283000D01*
X155448000Y-105283000D01*
X155448000Y-104076183D01*
X155215974Y-103955042D01*
X155065186Y-104000778D01*
X155063890Y-104001397D01*
X155054003Y-103901014D01*
X155010546Y-103757753D01*
X154939974Y-103625724D01*
X154868799Y-103538997D01*
X154845001Y-103509999D01*
X154816002Y-103486200D01*
X154705000Y-103375198D01*
X154705000Y-103313061D01*
X154665226Y-103113102D01*
X154587205Y-102924744D01*
X154473937Y-102755226D01*
X154329774Y-102611063D01*
X154160256Y-102497795D01*
X153971898Y-102419774D01*
X153771939Y-102380000D01*
X153568061Y-102380000D01*
X153368102Y-102419774D01*
X153179744Y-102497795D01*
X153010226Y-102611063D01*
X152866063Y-102755226D01*
X152752795Y-102924744D01*
X152674774Y-103113102D01*
X152635000Y-103313061D01*
X152635000Y-103516939D01*
X152674774Y-103716898D01*
X152752795Y-103905256D01*
X152772210Y-103934313D01*
X152597875Y-103968990D01*
X152325147Y-104081958D01*
X152079698Y-104245961D01*
X151870961Y-104454698D01*
X151765000Y-104613281D01*
X151659039Y-104454698D01*
X151450302Y-104245961D01*
X151204853Y-104081958D01*
X150932125Y-103968990D01*
X150642599Y-103911400D01*
X150347401Y-103911400D01*
X150057875Y-103968990D01*
X149785147Y-104081958D01*
X149539698Y-104245961D01*
X149330961Y-104454698D01*
X149166958Y-104700147D01*
X149053990Y-104972875D01*
X148996400Y-105262401D01*
X148996400Y-105557599D01*
X149053990Y-105847125D01*
X149166958Y-106119853D01*
X149330961Y-106365302D01*
X149445023Y-106479364D01*
X149387220Y-106496898D01*
X149276906Y-106555863D01*
X149180215Y-106635215D01*
X149100863Y-106731906D01*
X149041898Y-106842220D01*
X149005588Y-106961918D01*
X148993328Y-107086400D01*
X139020313Y-107086400D01*
X138959039Y-106994698D01*
X138750302Y-106785961D01*
X138591719Y-106680000D01*
X138750302Y-106574039D01*
X138959039Y-106365302D01*
X139123042Y-106119853D01*
X139236010Y-105847125D01*
X139293600Y-105557599D01*
X139293600Y-105262401D01*
X139236010Y-104972875D01*
X139123042Y-104700147D01*
X138959039Y-104454698D01*
X138750302Y-104245961D01*
X138504853Y-104081958D01*
X138232125Y-103968990D01*
X137942599Y-103911400D01*
X137647401Y-103911400D01*
X137357875Y-103968990D01*
X137085147Y-104081958D01*
X136839698Y-104245961D01*
X136630961Y-104454698D01*
X136525000Y-104613281D01*
X136419039Y-104454698D01*
X136210302Y-104245961D01*
X135964853Y-104081958D01*
X135692125Y-103968990D01*
X135402599Y-103911400D01*
X135107401Y-103911400D01*
X134817875Y-103968990D01*
X134545147Y-104081958D01*
X134299698Y-104245961D01*
X134090961Y-104454698D01*
X133980441Y-104620103D01*
X133921817Y-104521512D01*
X133725293Y-104303146D01*
X133489944Y-104127316D01*
X133224814Y-104000778D01*
X133074026Y-103955042D01*
X132842000Y-104076183D01*
X132842000Y-105283000D01*
X132862000Y-105283000D01*
X132862000Y-105537000D01*
X132842000Y-105537000D01*
X132842000Y-105557000D01*
X132588000Y-105557000D01*
X132588000Y-105537000D01*
X132568000Y-105537000D01*
X132568000Y-105283000D01*
X132588000Y-105283000D01*
X132588000Y-104076183D01*
X132355974Y-103955042D01*
X132205186Y-104000778D01*
X131940056Y-104127316D01*
X131704707Y-104303146D01*
X131508183Y-104521512D01*
X131449559Y-104620103D01*
X131339039Y-104454698D01*
X131130302Y-104245961D01*
X130884853Y-104081958D01*
X130612125Y-103968990D01*
X130322599Y-103911400D01*
X130027401Y-103911400D01*
X129737875Y-103968990D01*
X129465147Y-104081958D01*
X129219698Y-104245961D01*
X129010961Y-104454698D01*
X128905000Y-104613281D01*
X128799039Y-104454698D01*
X128590302Y-104245961D01*
X128344853Y-104081958D01*
X128072125Y-103968990D01*
X127782599Y-103911400D01*
X127487401Y-103911400D01*
X127197875Y-103968990D01*
X126925147Y-104081958D01*
X126679698Y-104245961D01*
X126470961Y-104454698D01*
X126306958Y-104700147D01*
X126193990Y-104972875D01*
X126136400Y-105262401D01*
X126136400Y-105557599D01*
X126193990Y-105847125D01*
X126306958Y-106119853D01*
X126470961Y-106365302D01*
X126585023Y-106479364D01*
X126527220Y-106496898D01*
X126416906Y-106555863D01*
X126320215Y-106635215D01*
X126240863Y-106731906D01*
X126181898Y-106842220D01*
X126145588Y-106961918D01*
X126133328Y-107086400D01*
X120968791Y-107086400D01*
X120858560Y-106820279D01*
X120597550Y-106429651D01*
X120265349Y-106097450D01*
X119874721Y-105836440D01*
X119440679Y-105656654D01*
X118979902Y-105565000D01*
X118510098Y-105565000D01*
X118049321Y-105656654D01*
X117615279Y-105836440D01*
X117224651Y-106097450D01*
X116892450Y-106429651D01*
X116631440Y-106820279D01*
X116451654Y-107254321D01*
X116360000Y-107715098D01*
X115595000Y-107715098D01*
X115595000Y-98918665D01*
X126835000Y-98918665D01*
X126835000Y-99201335D01*
X126890147Y-99478574D01*
X126998320Y-99739727D01*
X127155363Y-99974759D01*
X127355241Y-100174637D01*
X127590273Y-100331680D01*
X127851426Y-100439853D01*
X128128665Y-100495000D01*
X128411335Y-100495000D01*
X128688574Y-100439853D01*
X128949727Y-100331680D01*
X129184759Y-100174637D01*
X129384637Y-99974759D01*
X129541680Y-99739727D01*
X129649853Y-99478574D01*
X129705000Y-99201335D01*
X129705000Y-98918665D01*
X130010000Y-98918665D01*
X130010000Y-99201335D01*
X130065147Y-99478574D01*
X130173320Y-99739727D01*
X130330363Y-99974759D01*
X130530241Y-100174637D01*
X130765273Y-100331680D01*
X131026426Y-100439853D01*
X131303665Y-100495000D01*
X131586335Y-100495000D01*
X131863574Y-100439853D01*
X132124727Y-100331680D01*
X132359759Y-100174637D01*
X132559637Y-99974759D01*
X132716680Y-99739727D01*
X132824853Y-99478574D01*
X132880000Y-99201335D01*
X132880000Y-98918665D01*
X133185000Y-98918665D01*
X133185000Y-99201335D01*
X133240147Y-99478574D01*
X133348320Y-99739727D01*
X133505363Y-99974759D01*
X133705241Y-100174637D01*
X133940273Y-100331680D01*
X134201426Y-100439853D01*
X134478665Y-100495000D01*
X134761335Y-100495000D01*
X135038574Y-100439853D01*
X135299727Y-100331680D01*
X135534759Y-100174637D01*
X135734637Y-99974759D01*
X135891680Y-99739727D01*
X135999853Y-99478574D01*
X136055000Y-99201335D01*
X136055000Y-98918665D01*
X136360000Y-98918665D01*
X136360000Y-99201335D01*
X136415147Y-99478574D01*
X136523320Y-99739727D01*
X136680363Y-99974759D01*
X136880241Y-100174637D01*
X137115273Y-100331680D01*
X137376426Y-100439853D01*
X137653665Y-100495000D01*
X137936335Y-100495000D01*
X138213574Y-100439853D01*
X138474727Y-100331680D01*
X138709759Y-100174637D01*
X138909637Y-99974759D01*
X139066680Y-99739727D01*
X139174853Y-99478574D01*
X139230000Y-99201335D01*
X139230000Y-98958061D01*
X141115000Y-98958061D01*
X141115000Y-99161939D01*
X141154774Y-99361898D01*
X141232795Y-99550256D01*
X141346063Y-99719774D01*
X141490226Y-99863937D01*
X141659744Y-99977205D01*
X141848102Y-100055226D01*
X142048061Y-100095000D01*
X142251939Y-100095000D01*
X142451898Y-100055226D01*
X142640256Y-99977205D01*
X142809774Y-99863937D01*
X142853711Y-99820000D01*
X143375200Y-99820000D01*
X144560001Y-101004802D01*
X144560001Y-101066939D01*
X144599775Y-101266898D01*
X144677796Y-101455256D01*
X144791064Y-101624774D01*
X144935227Y-101768937D01*
X145104745Y-101882205D01*
X145293103Y-101960226D01*
X145493062Y-102000000D01*
X145696940Y-102000000D01*
X145896899Y-101960226D01*
X146085257Y-101882205D01*
X146254775Y-101768937D01*
X146398938Y-101624774D01*
X146512206Y-101455256D01*
X146590227Y-101266898D01*
X146630001Y-101066939D01*
X146630001Y-100863061D01*
X146590227Y-100663102D01*
X146512206Y-100474744D01*
X146398938Y-100305226D01*
X146254775Y-100161063D01*
X146085257Y-100047795D01*
X145896899Y-99969774D01*
X145696940Y-99930000D01*
X145634803Y-99930000D01*
X145524803Y-99820000D01*
X145981289Y-99820000D01*
X146025226Y-99863937D01*
X146194744Y-99977205D01*
X146383102Y-100055226D01*
X146583061Y-100095000D01*
X146786939Y-100095000D01*
X146986898Y-100055226D01*
X147175256Y-99977205D01*
X147344774Y-99863937D01*
X147488937Y-99719774D01*
X147602205Y-99550256D01*
X147680226Y-99361898D01*
X147720000Y-99161939D01*
X147720000Y-98958061D01*
X147712164Y-98918665D01*
X149060000Y-98918665D01*
X149060000Y-99201335D01*
X149115147Y-99478574D01*
X149223320Y-99739727D01*
X149380363Y-99974759D01*
X149580241Y-100174637D01*
X149815273Y-100331680D01*
X150076426Y-100439853D01*
X150353665Y-100495000D01*
X150636335Y-100495000D01*
X150913574Y-100439853D01*
X151174727Y-100331680D01*
X151409759Y-100174637D01*
X151609637Y-99974759D01*
X151766680Y-99739727D01*
X151874853Y-99478574D01*
X151930000Y-99201335D01*
X151930000Y-98918665D01*
X152235000Y-98918665D01*
X152235000Y-99201335D01*
X152290147Y-99478574D01*
X152398320Y-99739727D01*
X152555363Y-99974759D01*
X152755241Y-100174637D01*
X152990273Y-100331680D01*
X153251426Y-100439853D01*
X153528665Y-100495000D01*
X153811335Y-100495000D01*
X154088574Y-100439853D01*
X154349727Y-100331680D01*
X154584759Y-100174637D01*
X154784637Y-99974759D01*
X154941680Y-99739727D01*
X155049853Y-99478574D01*
X155105000Y-99201335D01*
X155105000Y-98918665D01*
X155076232Y-98774039D01*
X155688096Y-98774039D01*
X155705633Y-98856818D01*
X155816285Y-99116646D01*
X155975500Y-99349895D01*
X156177161Y-99547601D01*
X156413517Y-99702166D01*
X156675486Y-99807650D01*
X156953000Y-99860000D01*
X157353000Y-99860000D01*
X157353000Y-98552000D01*
X157607000Y-98552000D01*
X157607000Y-99860000D01*
X158007000Y-99860000D01*
X158284514Y-99807650D01*
X158546483Y-99702166D01*
X158782839Y-99547601D01*
X158984500Y-99349895D01*
X159143715Y-99116646D01*
X159254367Y-98856818D01*
X159271904Y-98774039D01*
X159149915Y-98552000D01*
X157607000Y-98552000D01*
X157353000Y-98552000D01*
X155810085Y-98552000D01*
X155688096Y-98774039D01*
X155076232Y-98774039D01*
X155049853Y-98641426D01*
X154941680Y-98380273D01*
X154784637Y-98145241D01*
X154584759Y-97945363D01*
X154349727Y-97788320D01*
X154088574Y-97680147D01*
X153811335Y-97625000D01*
X153528665Y-97625000D01*
X153251426Y-97680147D01*
X152990273Y-97788320D01*
X152755241Y-97945363D01*
X152555363Y-98145241D01*
X152398320Y-98380273D01*
X152290147Y-98641426D01*
X152235000Y-98918665D01*
X151930000Y-98918665D01*
X151874853Y-98641426D01*
X151766680Y-98380273D01*
X151609637Y-98145241D01*
X151409759Y-97945363D01*
X151174727Y-97788320D01*
X150913574Y-97680147D01*
X150636335Y-97625000D01*
X150353665Y-97625000D01*
X150076426Y-97680147D01*
X149815273Y-97788320D01*
X149580241Y-97945363D01*
X149380363Y-98145241D01*
X149223320Y-98380273D01*
X149115147Y-98641426D01*
X149060000Y-98918665D01*
X147712164Y-98918665D01*
X147680226Y-98758102D01*
X147602205Y-98569744D01*
X147488937Y-98400226D01*
X147344774Y-98256063D01*
X147175256Y-98142795D01*
X146986898Y-98064774D01*
X146786939Y-98025000D01*
X146583061Y-98025000D01*
X146383102Y-98064774D01*
X146194744Y-98142795D01*
X146025226Y-98256063D01*
X145981289Y-98300000D01*
X145221802Y-98300000D01*
X145180000Y-98258198D01*
X145180000Y-98196061D01*
X145140226Y-97996102D01*
X145062205Y-97807744D01*
X144948937Y-97638226D01*
X144804774Y-97494063D01*
X144635256Y-97380795D01*
X144446898Y-97302774D01*
X144246939Y-97263000D01*
X144043061Y-97263000D01*
X143843102Y-97302774D01*
X143654744Y-97380795D01*
X143485226Y-97494063D01*
X143341063Y-97638226D01*
X143227795Y-97807744D01*
X143149774Y-97996102D01*
X143110000Y-98196061D01*
X143110000Y-98300000D01*
X142853711Y-98300000D01*
X142809774Y-98256063D01*
X142640256Y-98142795D01*
X142451898Y-98064774D01*
X142251939Y-98025000D01*
X142048061Y-98025000D01*
X141848102Y-98064774D01*
X141659744Y-98142795D01*
X141490226Y-98256063D01*
X141346063Y-98400226D01*
X141232795Y-98569744D01*
X141154774Y-98758102D01*
X141115000Y-98958061D01*
X139230000Y-98958061D01*
X139230000Y-98918665D01*
X139174853Y-98641426D01*
X139066680Y-98380273D01*
X138909637Y-98145241D01*
X138709759Y-97945363D01*
X138474727Y-97788320D01*
X138213574Y-97680147D01*
X137936335Y-97625000D01*
X137653665Y-97625000D01*
X137376426Y-97680147D01*
X137115273Y-97788320D01*
X136880241Y-97945363D01*
X136680363Y-98145241D01*
X136523320Y-98380273D01*
X136415147Y-98641426D01*
X136360000Y-98918665D01*
X136055000Y-98918665D01*
X135999853Y-98641426D01*
X135891680Y-98380273D01*
X135734637Y-98145241D01*
X135534759Y-97945363D01*
X135299727Y-97788320D01*
X135038574Y-97680147D01*
X134761335Y-97625000D01*
X134478665Y-97625000D01*
X134201426Y-97680147D01*
X133940273Y-97788320D01*
X133705241Y-97945363D01*
X133505363Y-98145241D01*
X133348320Y-98380273D01*
X133240147Y-98641426D01*
X133185000Y-98918665D01*
X132880000Y-98918665D01*
X132824853Y-98641426D01*
X132716680Y-98380273D01*
X132559637Y-98145241D01*
X132359759Y-97945363D01*
X132124727Y-97788320D01*
X131863574Y-97680147D01*
X131586335Y-97625000D01*
X131303665Y-97625000D01*
X131026426Y-97680147D01*
X130765273Y-97788320D01*
X130530241Y-97945363D01*
X130330363Y-98145241D01*
X130173320Y-98380273D01*
X130065147Y-98641426D01*
X130010000Y-98918665D01*
X129705000Y-98918665D01*
X129649853Y-98641426D01*
X129541680Y-98380273D01*
X129384637Y-98145241D01*
X129184759Y-97945363D01*
X128949727Y-97788320D01*
X128688574Y-97680147D01*
X128411335Y-97625000D01*
X128128665Y-97625000D01*
X127851426Y-97680147D01*
X127590273Y-97788320D01*
X127355241Y-97945363D01*
X127155363Y-98145241D01*
X126998320Y-98380273D01*
X126890147Y-98641426D01*
X126835000Y-98918665D01*
X115595000Y-98918665D01*
X115595000Y-89320000D01*
X116621928Y-89320000D01*
X116621928Y-91020000D01*
X116634188Y-91144482D01*
X116670498Y-91264180D01*
X116729463Y-91374494D01*
X116808815Y-91471185D01*
X116905506Y-91550537D01*
X117015820Y-91609502D01*
X117088380Y-91631513D01*
X116956525Y-91763368D01*
X116794010Y-92006589D01*
X116682068Y-92276842D01*
X116625000Y-92563740D01*
X116625000Y-92856260D01*
X116682068Y-93143158D01*
X116794010Y-93413411D01*
X116956525Y-93656632D01*
X117163368Y-93863475D01*
X117337760Y-93980000D01*
X117163368Y-94096525D01*
X116956525Y-94303368D01*
X116794010Y-94546589D01*
X116682068Y-94816842D01*
X116625000Y-95103740D01*
X116625000Y-95396260D01*
X116682068Y-95683158D01*
X116794010Y-95953411D01*
X116956525Y-96196632D01*
X117163368Y-96403475D01*
X117406589Y-96565990D01*
X117676842Y-96677932D01*
X117963740Y-96735000D01*
X118256260Y-96735000D01*
X118543158Y-96677932D01*
X118813411Y-96565990D01*
X119056632Y-96403475D01*
X119263475Y-96196632D01*
X119380000Y-96022240D01*
X119496525Y-96196632D01*
X119703368Y-96403475D01*
X119946589Y-96565990D01*
X120216842Y-96677932D01*
X120503740Y-96735000D01*
X120796260Y-96735000D01*
X121083158Y-96677932D01*
X121353411Y-96565990D01*
X121596632Y-96403475D01*
X121803475Y-96196632D01*
X121965990Y-95953411D01*
X122077932Y-95683158D01*
X122135000Y-95396260D01*
X122135000Y-95103740D01*
X122077932Y-94816842D01*
X122070528Y-94798967D01*
X139260000Y-94798967D01*
X139260000Y-95121033D01*
X139322832Y-95436912D01*
X139446082Y-95734463D01*
X139625013Y-96002252D01*
X139852748Y-96229987D01*
X140120537Y-96408918D01*
X140418088Y-96532168D01*
X140733967Y-96595000D01*
X141056033Y-96595000D01*
X141371912Y-96532168D01*
X141669463Y-96408918D01*
X141937252Y-96229987D01*
X142164987Y-96002252D01*
X142343918Y-95734463D01*
X142349909Y-95720000D01*
X145940091Y-95720000D01*
X145946082Y-95734463D01*
X146125013Y-96002252D01*
X146352748Y-96229987D01*
X146620537Y-96408918D01*
X146918088Y-96532168D01*
X147233967Y-96595000D01*
X147556033Y-96595000D01*
X147871912Y-96532168D01*
X148169463Y-96408918D01*
X148437252Y-96229987D01*
X148664987Y-96002252D01*
X148843918Y-95734463D01*
X148967168Y-95436912D01*
X149030000Y-95121033D01*
X149030000Y-94798967D01*
X148967168Y-94483088D01*
X148843918Y-94185537D01*
X148664987Y-93917748D01*
X148437252Y-93690013D01*
X148169463Y-93511082D01*
X147871912Y-93387832D01*
X147656581Y-93345000D01*
X155638057Y-93345000D01*
X155665764Y-93626309D01*
X155747818Y-93896808D01*
X155881068Y-94146101D01*
X156060392Y-94364608D01*
X156278899Y-94543932D01*
X156411858Y-94615000D01*
X156278899Y-94686068D01*
X156060392Y-94865392D01*
X155881068Y-95083899D01*
X155747818Y-95333192D01*
X155665764Y-95603691D01*
X155638057Y-95885000D01*
X155665764Y-96166309D01*
X155747818Y-96436808D01*
X155881068Y-96686101D01*
X156060392Y-96904608D01*
X156278899Y-97083932D01*
X156406741Y-97152265D01*
X156177161Y-97302399D01*
X155975500Y-97500105D01*
X155816285Y-97733354D01*
X155705633Y-97993182D01*
X155688096Y-98075961D01*
X155810085Y-98298000D01*
X157353000Y-98298000D01*
X157353000Y-98278000D01*
X157607000Y-98278000D01*
X157607000Y-98298000D01*
X159149915Y-98298000D01*
X159271904Y-98075961D01*
X159254367Y-97993182D01*
X159143715Y-97733354D01*
X158984500Y-97500105D01*
X158782839Y-97302399D01*
X158553259Y-97152265D01*
X158681101Y-97083932D01*
X158899608Y-96904608D01*
X159078932Y-96686101D01*
X159212182Y-96436808D01*
X159294236Y-96166309D01*
X159321943Y-95885000D01*
X159294236Y-95603691D01*
X159212182Y-95333192D01*
X159078932Y-95083899D01*
X158899608Y-94865392D01*
X158681101Y-94686068D01*
X158548142Y-94615000D01*
X158681101Y-94543932D01*
X158899608Y-94364608D01*
X159078932Y-94146101D01*
X159212182Y-93896808D01*
X159294236Y-93626309D01*
X159321943Y-93345000D01*
X159294236Y-93063691D01*
X159212182Y-92793192D01*
X159078932Y-92543899D01*
X158899608Y-92325392D01*
X158681101Y-92146068D01*
X158553259Y-92077735D01*
X158782839Y-91927601D01*
X158984500Y-91729895D01*
X159143715Y-91496646D01*
X159254367Y-91236818D01*
X159271904Y-91154039D01*
X159149915Y-90932000D01*
X157607000Y-90932000D01*
X157607000Y-90952000D01*
X157353000Y-90952000D01*
X157353000Y-90932000D01*
X155810085Y-90932000D01*
X155688096Y-91154039D01*
X155705633Y-91236818D01*
X155816285Y-91496646D01*
X155975500Y-91729895D01*
X156177161Y-91927601D01*
X156406741Y-92077735D01*
X156278899Y-92146068D01*
X156060392Y-92325392D01*
X155881068Y-92543899D01*
X155747818Y-92793192D01*
X155665764Y-93063691D01*
X155638057Y-93345000D01*
X147656581Y-93345000D01*
X147556033Y-93325000D01*
X147233967Y-93325000D01*
X146918088Y-93387832D01*
X146620537Y-93511082D01*
X146352748Y-93690013D01*
X146125013Y-93917748D01*
X145946082Y-94185537D01*
X145940091Y-94200000D01*
X142349909Y-94200000D01*
X142343918Y-94185537D01*
X142164987Y-93917748D01*
X141937252Y-93690013D01*
X141669463Y-93511082D01*
X141371912Y-93387832D01*
X141056033Y-93325000D01*
X140733967Y-93325000D01*
X140418088Y-93387832D01*
X140120537Y-93511082D01*
X139852748Y-93690013D01*
X139625013Y-93917748D01*
X139446082Y-94185537D01*
X139322832Y-94483088D01*
X139260000Y-94798967D01*
X122070528Y-94798967D01*
X121965990Y-94546589D01*
X121803475Y-94303368D01*
X121596632Y-94096525D01*
X121422240Y-93980000D01*
X121596632Y-93863475D01*
X121803475Y-93656632D01*
X121965990Y-93413411D01*
X122077932Y-93143158D01*
X122135000Y-92856260D01*
X122135000Y-92563740D01*
X122077932Y-92276842D01*
X121965990Y-92006589D01*
X121803475Y-91763368D01*
X121635520Y-91595413D01*
X139939192Y-91595413D01*
X140034956Y-91859814D01*
X140324571Y-92000704D01*
X140636108Y-92082384D01*
X140957595Y-92101718D01*
X141276675Y-92057961D01*
X141581088Y-91952795D01*
X141755044Y-91859814D01*
X141850808Y-91595413D01*
X146439192Y-91595413D01*
X146534956Y-91859814D01*
X146824571Y-92000704D01*
X147136108Y-92082384D01*
X147457595Y-92101718D01*
X147776675Y-92057961D01*
X148081088Y-91952795D01*
X148255044Y-91859814D01*
X148350808Y-91595413D01*
X147395000Y-90639605D01*
X146439192Y-91595413D01*
X141850808Y-91595413D01*
X140895000Y-90639605D01*
X139939192Y-91595413D01*
X121635520Y-91595413D01*
X121596632Y-91556525D01*
X121422240Y-91440000D01*
X121596632Y-91323475D01*
X121803475Y-91116632D01*
X121965990Y-90873411D01*
X122077932Y-90603158D01*
X122093957Y-90522595D01*
X139253282Y-90522595D01*
X139297039Y-90841675D01*
X139402205Y-91146088D01*
X139495186Y-91320044D01*
X139759587Y-91415808D01*
X140715395Y-90460000D01*
X141074605Y-90460000D01*
X142030413Y-91415808D01*
X142294814Y-91320044D01*
X142435704Y-91030429D01*
X142517384Y-90718892D01*
X142529189Y-90522595D01*
X145753282Y-90522595D01*
X145797039Y-90841675D01*
X145902205Y-91146088D01*
X145995186Y-91320044D01*
X146259587Y-91415808D01*
X147215395Y-90460000D01*
X147574605Y-90460000D01*
X148530413Y-91415808D01*
X148794814Y-91320044D01*
X148935704Y-91030429D01*
X149017384Y-90718892D01*
X149036718Y-90397405D01*
X148992961Y-90078325D01*
X148887795Y-89773912D01*
X148794814Y-89599956D01*
X148530413Y-89504192D01*
X147574605Y-90460000D01*
X147215395Y-90460000D01*
X146259587Y-89504192D01*
X145995186Y-89599956D01*
X145854296Y-89889571D01*
X145772616Y-90201108D01*
X145753282Y-90522595D01*
X142529189Y-90522595D01*
X142536718Y-90397405D01*
X142492961Y-90078325D01*
X142387795Y-89773912D01*
X142294814Y-89599956D01*
X142030413Y-89504192D01*
X141074605Y-90460000D01*
X140715395Y-90460000D01*
X139759587Y-89504192D01*
X139495186Y-89599956D01*
X139354296Y-89889571D01*
X139272616Y-90201108D01*
X139253282Y-90522595D01*
X122093957Y-90522595D01*
X122135000Y-90316260D01*
X122135000Y-90023740D01*
X122077932Y-89736842D01*
X121965990Y-89466589D01*
X121803475Y-89223368D01*
X121596632Y-89016525D01*
X121353411Y-88854010D01*
X121123227Y-88758665D01*
X126835000Y-88758665D01*
X126835000Y-89041335D01*
X126890147Y-89318574D01*
X126998320Y-89579727D01*
X127155363Y-89814759D01*
X127355241Y-90014637D01*
X127590273Y-90171680D01*
X127851426Y-90279853D01*
X128128665Y-90335000D01*
X128411335Y-90335000D01*
X128688574Y-90279853D01*
X128949727Y-90171680D01*
X129184759Y-90014637D01*
X129384637Y-89814759D01*
X129541680Y-89579727D01*
X129649853Y-89318574D01*
X129705000Y-89041335D01*
X129705000Y-88758665D01*
X130010000Y-88758665D01*
X130010000Y-89041335D01*
X130065147Y-89318574D01*
X130173320Y-89579727D01*
X130330363Y-89814759D01*
X130530241Y-90014637D01*
X130765273Y-90171680D01*
X131026426Y-90279853D01*
X131303665Y-90335000D01*
X131586335Y-90335000D01*
X131863574Y-90279853D01*
X132124727Y-90171680D01*
X132359759Y-90014637D01*
X132559637Y-89814759D01*
X132716680Y-89579727D01*
X132824853Y-89318574D01*
X132880000Y-89041335D01*
X132880000Y-88758665D01*
X133185000Y-88758665D01*
X133185000Y-89041335D01*
X133240147Y-89318574D01*
X133348320Y-89579727D01*
X133505363Y-89814759D01*
X133705241Y-90014637D01*
X133940273Y-90171680D01*
X134201426Y-90279853D01*
X134478665Y-90335000D01*
X134761335Y-90335000D01*
X135038574Y-90279853D01*
X135299727Y-90171680D01*
X135534759Y-90014637D01*
X135734637Y-89814759D01*
X135891680Y-89579727D01*
X135999853Y-89318574D01*
X136055000Y-89041335D01*
X136055000Y-88758665D01*
X136360000Y-88758665D01*
X136360000Y-89041335D01*
X136415147Y-89318574D01*
X136523320Y-89579727D01*
X136680363Y-89814759D01*
X136880241Y-90014637D01*
X137115273Y-90171680D01*
X137376426Y-90279853D01*
X137653665Y-90335000D01*
X137936335Y-90335000D01*
X138213574Y-90279853D01*
X138474727Y-90171680D01*
X138709759Y-90014637D01*
X138909637Y-89814759D01*
X139066680Y-89579727D01*
X139172362Y-89324587D01*
X139939192Y-89324587D01*
X140895000Y-90280395D01*
X141850808Y-89324587D01*
X146439192Y-89324587D01*
X147395000Y-90280395D01*
X148350808Y-89324587D01*
X148255044Y-89060186D01*
X147965429Y-88919296D01*
X147653892Y-88837616D01*
X147332405Y-88818282D01*
X147013325Y-88862039D01*
X146708912Y-88967205D01*
X146534956Y-89060186D01*
X146439192Y-89324587D01*
X141850808Y-89324587D01*
X141755044Y-89060186D01*
X141465429Y-88919296D01*
X141153892Y-88837616D01*
X140832405Y-88818282D01*
X140513325Y-88862039D01*
X140208912Y-88967205D01*
X140034956Y-89060186D01*
X139939192Y-89324587D01*
X139172362Y-89324587D01*
X139174853Y-89318574D01*
X139230000Y-89041335D01*
X139230000Y-88758665D01*
X139174853Y-88481426D01*
X139066680Y-88220273D01*
X138909637Y-87985241D01*
X138709759Y-87785363D01*
X138474727Y-87628320D01*
X138213574Y-87520147D01*
X137936335Y-87465000D01*
X137653665Y-87465000D01*
X137376426Y-87520147D01*
X137115273Y-87628320D01*
X136880241Y-87785363D01*
X136680363Y-87985241D01*
X136523320Y-88220273D01*
X136415147Y-88481426D01*
X136360000Y-88758665D01*
X136055000Y-88758665D01*
X135999853Y-88481426D01*
X135891680Y-88220273D01*
X135734637Y-87985241D01*
X135534759Y-87785363D01*
X135299727Y-87628320D01*
X135038574Y-87520147D01*
X134761335Y-87465000D01*
X134478665Y-87465000D01*
X134201426Y-87520147D01*
X133940273Y-87628320D01*
X133705241Y-87785363D01*
X133505363Y-87985241D01*
X133348320Y-88220273D01*
X133240147Y-88481426D01*
X133185000Y-88758665D01*
X132880000Y-88758665D01*
X132824853Y-88481426D01*
X132716680Y-88220273D01*
X132559637Y-87985241D01*
X132359759Y-87785363D01*
X132124727Y-87628320D01*
X131863574Y-87520147D01*
X131586335Y-87465000D01*
X131303665Y-87465000D01*
X131026426Y-87520147D01*
X130765273Y-87628320D01*
X130530241Y-87785363D01*
X130330363Y-87985241D01*
X130173320Y-88220273D01*
X130065147Y-88481426D01*
X130010000Y-88758665D01*
X129705000Y-88758665D01*
X129649853Y-88481426D01*
X129541680Y-88220273D01*
X129384637Y-87985241D01*
X129184759Y-87785363D01*
X128949727Y-87628320D01*
X128688574Y-87520147D01*
X128411335Y-87465000D01*
X128128665Y-87465000D01*
X127851426Y-87520147D01*
X127590273Y-87628320D01*
X127355241Y-87785363D01*
X127155363Y-87985241D01*
X126998320Y-88220273D01*
X126890147Y-88481426D01*
X126835000Y-88758665D01*
X121123227Y-88758665D01*
X121083158Y-88742068D01*
X120796260Y-88685000D01*
X120503740Y-88685000D01*
X120216842Y-88742068D01*
X119946589Y-88854010D01*
X119703368Y-89016525D01*
X119571513Y-89148380D01*
X119549502Y-89075820D01*
X119490537Y-88965506D01*
X119411185Y-88868815D01*
X119314494Y-88789463D01*
X119204180Y-88730498D01*
X119084482Y-88694188D01*
X118960000Y-88681928D01*
X117260000Y-88681928D01*
X117135518Y-88694188D01*
X117015820Y-88730498D01*
X116905506Y-88789463D01*
X116808815Y-88868815D01*
X116729463Y-88965506D01*
X116670498Y-89075820D01*
X116634188Y-89195518D01*
X116621928Y-89320000D01*
X115595000Y-89320000D01*
X115595000Y-85583665D01*
X129375000Y-85583665D01*
X129375000Y-85866335D01*
X129430147Y-86143574D01*
X129538320Y-86404727D01*
X129695363Y-86639759D01*
X129895241Y-86839637D01*
X130130273Y-86996680D01*
X130391426Y-87104853D01*
X130668665Y-87160000D01*
X130951335Y-87160000D01*
X131228574Y-87104853D01*
X131489727Y-86996680D01*
X131724759Y-86839637D01*
X131924637Y-86639759D01*
X132081680Y-86404727D01*
X132189853Y-86143574D01*
X132245000Y-85866335D01*
X132245000Y-85583665D01*
X132189853Y-85306426D01*
X132081680Y-85045273D01*
X131924637Y-84810241D01*
X131724759Y-84610363D01*
X131489727Y-84453320D01*
X131228574Y-84345147D01*
X130951335Y-84290000D01*
X130668665Y-84290000D01*
X130391426Y-84345147D01*
X130130273Y-84453320D01*
X129895241Y-84610363D01*
X129695363Y-84810241D01*
X129538320Y-85045273D01*
X129430147Y-85306426D01*
X129375000Y-85583665D01*
X115595000Y-85583665D01*
X115595000Y-77502279D01*
X115622668Y-77220099D01*
X116360000Y-77220099D01*
X116360000Y-77689903D01*
X116451654Y-78150680D01*
X116631440Y-78584722D01*
X116892450Y-78975350D01*
X117224651Y-79307551D01*
X117615279Y-79568561D01*
X118049321Y-79748347D01*
X118510098Y-79840001D01*
X118979902Y-79840001D01*
X119440679Y-79748347D01*
X119874721Y-79568561D01*
X120265349Y-79307551D01*
X120597550Y-78975350D01*
X120822919Y-78638061D01*
X134220000Y-78638061D01*
X134220000Y-78841939D01*
X134259774Y-79041898D01*
X134337795Y-79230256D01*
X134451063Y-79399774D01*
X134595226Y-79543937D01*
X134764744Y-79657205D01*
X134953102Y-79735226D01*
X135153061Y-79775000D01*
X135356939Y-79775000D01*
X135556898Y-79735226D01*
X135745256Y-79657205D01*
X135914774Y-79543937D01*
X135958711Y-79500000D01*
X137563328Y-79500000D01*
X137563328Y-80873600D01*
X137575588Y-80998082D01*
X137611898Y-81117780D01*
X137670863Y-81228094D01*
X137750215Y-81324785D01*
X137846906Y-81404137D01*
X137957220Y-81463102D01*
X138076918Y-81499412D01*
X138201400Y-81511672D01*
X139928600Y-81511672D01*
X140053082Y-81499412D01*
X140172780Y-81463102D01*
X140283094Y-81404137D01*
X140379785Y-81324785D01*
X140459137Y-81228094D01*
X140518102Y-81117780D01*
X140535636Y-81059977D01*
X140649698Y-81174039D01*
X140895147Y-81338042D01*
X141167875Y-81451010D01*
X141457401Y-81508600D01*
X141752599Y-81508600D01*
X142042125Y-81451010D01*
X142314853Y-81338042D01*
X142560302Y-81174039D01*
X142769039Y-80965302D01*
X142875000Y-80806719D01*
X142980961Y-80965302D01*
X143189698Y-81174039D01*
X143435147Y-81338042D01*
X143707875Y-81451010D01*
X143997401Y-81508600D01*
X144292599Y-81508600D01*
X144582125Y-81451010D01*
X144854853Y-81338042D01*
X145100302Y-81174039D01*
X145309039Y-80965302D01*
X145415000Y-80806719D01*
X145520961Y-80965302D01*
X145729698Y-81174039D01*
X145975147Y-81338042D01*
X146247875Y-81451010D01*
X146537401Y-81508600D01*
X146832599Y-81508600D01*
X147122125Y-81451010D01*
X147394853Y-81338042D01*
X147640302Y-81174039D01*
X147849039Y-80965302D01*
X147955000Y-80806719D01*
X148060961Y-80965302D01*
X148269698Y-81174039D01*
X148515147Y-81338042D01*
X148787875Y-81451010D01*
X149077401Y-81508600D01*
X149372599Y-81508600D01*
X149662125Y-81451010D01*
X149934853Y-81338042D01*
X150180302Y-81174039D01*
X150389039Y-80965302D01*
X150553042Y-80719853D01*
X150666010Y-80447125D01*
X150723600Y-80157599D01*
X150723600Y-79862401D01*
X150720139Y-79845000D01*
X155641928Y-79845000D01*
X155641928Y-81445000D01*
X155654188Y-81569482D01*
X155690498Y-81689180D01*
X155749463Y-81799494D01*
X155828815Y-81896185D01*
X155925506Y-81975537D01*
X156035820Y-82034502D01*
X156155518Y-82070812D01*
X156167387Y-82071981D01*
X155975500Y-82260105D01*
X155816285Y-82493354D01*
X155705633Y-82753182D01*
X155688096Y-82835961D01*
X155810085Y-83058000D01*
X157353000Y-83058000D01*
X157353000Y-83038000D01*
X157607000Y-83038000D01*
X157607000Y-83058000D01*
X159149915Y-83058000D01*
X159271904Y-82835961D01*
X159254367Y-82753182D01*
X159143715Y-82493354D01*
X158984500Y-82260105D01*
X158792613Y-82071981D01*
X158804482Y-82070812D01*
X158924180Y-82034502D01*
X159034494Y-81975537D01*
X159131185Y-81896185D01*
X159210537Y-81799494D01*
X159269502Y-81689180D01*
X159305812Y-81569482D01*
X159318072Y-81445000D01*
X159318072Y-79845000D01*
X159305812Y-79720518D01*
X159269502Y-79600820D01*
X159210537Y-79490506D01*
X159131185Y-79393815D01*
X159034494Y-79314463D01*
X158924180Y-79255498D01*
X158804482Y-79219188D01*
X158680000Y-79206928D01*
X156280000Y-79206928D01*
X156155518Y-79219188D01*
X156035820Y-79255498D01*
X155925506Y-79314463D01*
X155828815Y-79393815D01*
X155749463Y-79490506D01*
X155690498Y-79600820D01*
X155654188Y-79720518D01*
X155641928Y-79845000D01*
X150720139Y-79845000D01*
X150666010Y-79572875D01*
X150553042Y-79300147D01*
X150389039Y-79054698D01*
X150180302Y-78845961D01*
X150021719Y-78740000D01*
X150180302Y-78634039D01*
X150389039Y-78425302D01*
X150553042Y-78179853D01*
X150666010Y-77907125D01*
X150679335Y-77840136D01*
X151455200Y-78616002D01*
X151478999Y-78645001D01*
X151594724Y-78739974D01*
X151726753Y-78810546D01*
X151870014Y-78854003D01*
X151981667Y-78865000D01*
X151981677Y-78865000D01*
X152019000Y-78868676D01*
X152056323Y-78865000D01*
X161525000Y-78865000D01*
X161525000Y-78931939D01*
X161564774Y-79131898D01*
X161642795Y-79320256D01*
X161756063Y-79489774D01*
X161900226Y-79633937D01*
X162069744Y-79747205D01*
X162258102Y-79825226D01*
X162458061Y-79865000D01*
X162661939Y-79865000D01*
X162861898Y-79825226D01*
X163050256Y-79747205D01*
X163219774Y-79633937D01*
X163263711Y-79590000D01*
X163723517Y-79590000D01*
X163680392Y-79625392D01*
X163501068Y-79843899D01*
X163367818Y-80093192D01*
X163285764Y-80363691D01*
X163258057Y-80645000D01*
X163285764Y-80926309D01*
X163367818Y-81196808D01*
X163501068Y-81446101D01*
X163680392Y-81664608D01*
X163898899Y-81843932D01*
X164026741Y-81912265D01*
X163797161Y-82062399D01*
X163595500Y-82260105D01*
X163436285Y-82493354D01*
X163325633Y-82753182D01*
X163308096Y-82835961D01*
X163430085Y-83058000D01*
X164973000Y-83058000D01*
X164973000Y-83038000D01*
X165227000Y-83038000D01*
X165227000Y-83058000D01*
X165247000Y-83058000D01*
X165247000Y-83312000D01*
X165227000Y-83312000D01*
X165227000Y-83332000D01*
X164973000Y-83332000D01*
X164973000Y-83312000D01*
X163430085Y-83312000D01*
X163308096Y-83534039D01*
X163325633Y-83616818D01*
X163436285Y-83876646D01*
X163595500Y-84109895D01*
X163797161Y-84307601D01*
X164026741Y-84457735D01*
X163898899Y-84526068D01*
X163680392Y-84705392D01*
X163501068Y-84923899D01*
X163367818Y-85173192D01*
X163285764Y-85443691D01*
X163258057Y-85725000D01*
X163285764Y-86006309D01*
X163355136Y-86235000D01*
X159224864Y-86235000D01*
X159294236Y-86006309D01*
X159321943Y-85725000D01*
X159294236Y-85443691D01*
X159212182Y-85173192D01*
X159078932Y-84923899D01*
X158899608Y-84705392D01*
X158681101Y-84526068D01*
X158553259Y-84457735D01*
X158782839Y-84307601D01*
X158984500Y-84109895D01*
X159143715Y-83876646D01*
X159254367Y-83616818D01*
X159271904Y-83534039D01*
X159149915Y-83312000D01*
X157607000Y-83312000D01*
X157607000Y-83332000D01*
X157353000Y-83332000D01*
X157353000Y-83312000D01*
X155810085Y-83312000D01*
X155688096Y-83534039D01*
X155705633Y-83616818D01*
X155816285Y-83876646D01*
X155975500Y-84109895D01*
X156177161Y-84307601D01*
X156406741Y-84457735D01*
X156278899Y-84526068D01*
X156060392Y-84705392D01*
X155881068Y-84923899D01*
X155747818Y-85173192D01*
X155693783Y-85351322D01*
X155684853Y-85306426D01*
X155576680Y-85045273D01*
X155419637Y-84810241D01*
X155219759Y-84610363D01*
X154984727Y-84453320D01*
X154723574Y-84345147D01*
X154446335Y-84290000D01*
X154163665Y-84290000D01*
X153886426Y-84345147D01*
X153625273Y-84453320D01*
X153390241Y-84610363D01*
X153190363Y-84810241D01*
X153033320Y-85045273D01*
X152925147Y-85306426D01*
X152870000Y-85583665D01*
X152870000Y-85866335D01*
X152925147Y-86143574D01*
X152963017Y-86235000D01*
X145486983Y-86235000D01*
X145524853Y-86143574D01*
X145580000Y-85866335D01*
X145580000Y-85583665D01*
X145524853Y-85306426D01*
X145416680Y-85045273D01*
X145259637Y-84810241D01*
X145059759Y-84610363D01*
X144824727Y-84453320D01*
X144563574Y-84345147D01*
X144286335Y-84290000D01*
X144003665Y-84290000D01*
X143726426Y-84345147D01*
X143465273Y-84453320D01*
X143230241Y-84610363D01*
X143030363Y-84810241D01*
X142873320Y-85045273D01*
X142765147Y-85306426D01*
X142710000Y-85583665D01*
X142710000Y-85866335D01*
X142765147Y-86143574D01*
X142803017Y-86235000D01*
X142311983Y-86235000D01*
X142349853Y-86143574D01*
X142405000Y-85866335D01*
X142405000Y-85583665D01*
X142349853Y-85306426D01*
X142241680Y-85045273D01*
X142084637Y-84810241D01*
X141884759Y-84610363D01*
X141649727Y-84453320D01*
X141388574Y-84345147D01*
X141111335Y-84290000D01*
X140828665Y-84290000D01*
X140551426Y-84345147D01*
X140290273Y-84453320D01*
X140055241Y-84610363D01*
X139855363Y-84810241D01*
X139698320Y-85045273D01*
X139590147Y-85306426D01*
X139535000Y-85583665D01*
X139535000Y-85866335D01*
X139590147Y-86143574D01*
X139698320Y-86404727D01*
X139855363Y-86639759D01*
X140055241Y-86839637D01*
X140290273Y-86996680D01*
X140551426Y-87104853D01*
X140662058Y-87126859D01*
X141041200Y-87506002D01*
X141064999Y-87535001D01*
X141180724Y-87629974D01*
X141312753Y-87700546D01*
X141456014Y-87744003D01*
X141557484Y-87753997D01*
X141605000Y-87758677D01*
X141642333Y-87755000D01*
X149625683Y-87755000D01*
X149580241Y-87785363D01*
X149380363Y-87985241D01*
X149223320Y-88220273D01*
X149115147Y-88481426D01*
X149060000Y-88758665D01*
X149060000Y-89041335D01*
X149115147Y-89318574D01*
X149223320Y-89579727D01*
X149380363Y-89814759D01*
X149580241Y-90014637D01*
X149815273Y-90171680D01*
X150076426Y-90279853D01*
X150353665Y-90335000D01*
X150636335Y-90335000D01*
X150913574Y-90279853D01*
X151174727Y-90171680D01*
X151409759Y-90014637D01*
X151609637Y-89814759D01*
X151669278Y-89725500D01*
X152495722Y-89725500D01*
X152555363Y-89814759D01*
X152755241Y-90014637D01*
X152990273Y-90171680D01*
X153251426Y-90279853D01*
X153528665Y-90335000D01*
X153811335Y-90335000D01*
X154088574Y-90279853D01*
X154349727Y-90171680D01*
X154584759Y-90014637D01*
X154784637Y-89814759D01*
X154941680Y-89579727D01*
X155049853Y-89318574D01*
X155105000Y-89041335D01*
X155105000Y-88758665D01*
X155049853Y-88481426D01*
X154941680Y-88220273D01*
X154784637Y-87985241D01*
X154584759Y-87785363D01*
X154539317Y-87755000D01*
X155735136Y-87755000D01*
X155665764Y-87983691D01*
X155638057Y-88265000D01*
X155665764Y-88546309D01*
X155747818Y-88816808D01*
X155881068Y-89066101D01*
X156060392Y-89284608D01*
X156278899Y-89463932D01*
X156406741Y-89532265D01*
X156177161Y-89682399D01*
X155975500Y-89880105D01*
X155816285Y-90113354D01*
X155705633Y-90373182D01*
X155688096Y-90455961D01*
X155810085Y-90678000D01*
X157353000Y-90678000D01*
X157353000Y-90658000D01*
X157607000Y-90658000D01*
X157607000Y-90678000D01*
X159149915Y-90678000D01*
X159271904Y-90455961D01*
X159254367Y-90373182D01*
X159143715Y-90113354D01*
X158984500Y-89880105D01*
X158782839Y-89682399D01*
X158553259Y-89532265D01*
X158681101Y-89463932D01*
X158899608Y-89284608D01*
X159078932Y-89066101D01*
X159212182Y-88816808D01*
X159294236Y-88546309D01*
X159321943Y-88265000D01*
X159294236Y-87983691D01*
X159224864Y-87755000D01*
X163355136Y-87755000D01*
X163285764Y-87983691D01*
X163258057Y-88265000D01*
X163285764Y-88546309D01*
X163367818Y-88816808D01*
X163501068Y-89066101D01*
X163680392Y-89284608D01*
X163898899Y-89463932D01*
X164031858Y-89535000D01*
X163898899Y-89606068D01*
X163680392Y-89785392D01*
X163501068Y-90003899D01*
X163367818Y-90253192D01*
X163285764Y-90523691D01*
X163258057Y-90805000D01*
X163285764Y-91086309D01*
X163367818Y-91356808D01*
X163501068Y-91606101D01*
X163680392Y-91824608D01*
X163898899Y-92003932D01*
X164031858Y-92075000D01*
X163898899Y-92146068D01*
X163680392Y-92325392D01*
X163501068Y-92543899D01*
X163467843Y-92606059D01*
X163357753Y-92639454D01*
X163225724Y-92710026D01*
X163109999Y-92804999D01*
X163086201Y-92833997D01*
X162024377Y-93895821D01*
X162003928Y-93865217D01*
X161959991Y-93821280D01*
X161959991Y-92053711D01*
X162003928Y-92009774D01*
X162117196Y-91840256D01*
X162195217Y-91651898D01*
X162234991Y-91451939D01*
X162234991Y-91248061D01*
X162195217Y-91048102D01*
X162117196Y-90859744D01*
X162003928Y-90690226D01*
X161859765Y-90546063D01*
X161690247Y-90432795D01*
X161501889Y-90354774D01*
X161301930Y-90315000D01*
X161098052Y-90315000D01*
X160898093Y-90354774D01*
X160709735Y-90432795D01*
X160540217Y-90546063D01*
X160396054Y-90690226D01*
X160282786Y-90859744D01*
X160204765Y-91048102D01*
X160164991Y-91248061D01*
X160164991Y-91451939D01*
X160204765Y-91651898D01*
X160282786Y-91840256D01*
X160396054Y-92009774D01*
X160439992Y-92053712D01*
X160439991Y-93821280D01*
X160396054Y-93865217D01*
X160282786Y-94034735D01*
X160204765Y-94223093D01*
X160164991Y-94423052D01*
X160164991Y-94626930D01*
X160204765Y-94826889D01*
X160282786Y-95015247D01*
X160396054Y-95184765D01*
X160540217Y-95328928D01*
X160570822Y-95349377D01*
X159963994Y-95956205D01*
X159934990Y-95980008D01*
X159894173Y-96029744D01*
X159840017Y-96095733D01*
X159827046Y-96120000D01*
X159769445Y-96227763D01*
X159725988Y-96371024D01*
X159718420Y-96447860D01*
X159671054Y-96495226D01*
X159557786Y-96664744D01*
X159479765Y-96853102D01*
X159439991Y-97053061D01*
X159439991Y-97256939D01*
X159479765Y-97456898D01*
X159557786Y-97645256D01*
X159671054Y-97814774D01*
X159815217Y-97958937D01*
X159984735Y-98072205D01*
X160173093Y-98150226D01*
X160373052Y-98190000D01*
X160576930Y-98190000D01*
X160776889Y-98150226D01*
X160965247Y-98072205D01*
X161134765Y-97958937D01*
X161278928Y-97814774D01*
X161392196Y-97645256D01*
X161470217Y-97456898D01*
X161471135Y-97452282D01*
X161623094Y-97515226D01*
X161823053Y-97555000D01*
X162026931Y-97555000D01*
X162226890Y-97515226D01*
X162415248Y-97437205D01*
X162584766Y-97323937D01*
X162728929Y-97179774D01*
X162842197Y-97010256D01*
X162920218Y-96821898D01*
X162955405Y-96645000D01*
X163479099Y-96645000D01*
X163501068Y-96686101D01*
X163680392Y-96904608D01*
X163898899Y-97083932D01*
X164031858Y-97155000D01*
X163898899Y-97226068D01*
X163680392Y-97405392D01*
X163501068Y-97623899D01*
X163367818Y-97873192D01*
X163285764Y-98143691D01*
X163258057Y-98425000D01*
X163285764Y-98706309D01*
X163367818Y-98976808D01*
X163501068Y-99226101D01*
X163680392Y-99444608D01*
X163898899Y-99623932D01*
X164148192Y-99757182D01*
X164418691Y-99839236D01*
X164629508Y-99860000D01*
X165570492Y-99860000D01*
X165781309Y-99839236D01*
X166051808Y-99757182D01*
X166301101Y-99623932D01*
X166519608Y-99444608D01*
X166698932Y-99226101D01*
X166785110Y-99064873D01*
X166794276Y-99059974D01*
X166910001Y-98965001D01*
X166933803Y-98935998D01*
X167516004Y-98353798D01*
X167545001Y-98330001D01*
X167639974Y-98214276D01*
X167710546Y-98082247D01*
X167754003Y-97938986D01*
X167765000Y-97827333D01*
X167765000Y-97827332D01*
X167768677Y-97790000D01*
X167765000Y-97752667D01*
X167765000Y-95035000D01*
X168691928Y-95035000D01*
X168691928Y-96735000D01*
X168704188Y-96859482D01*
X168740498Y-96979180D01*
X168799463Y-97089494D01*
X168878815Y-97186185D01*
X168975506Y-97265537D01*
X169085820Y-97324502D01*
X169158380Y-97346513D01*
X169026525Y-97478368D01*
X168864010Y-97721589D01*
X168752068Y-97991842D01*
X168695000Y-98278740D01*
X168695000Y-98571260D01*
X168752068Y-98858158D01*
X168864010Y-99128411D01*
X169026525Y-99371632D01*
X169233368Y-99578475D01*
X169476589Y-99740990D01*
X169746842Y-99852932D01*
X170033740Y-99910000D01*
X170326260Y-99910000D01*
X170613158Y-99852932D01*
X170883411Y-99740990D01*
X171126632Y-99578475D01*
X171333475Y-99371632D01*
X171495990Y-99128411D01*
X171607932Y-98858158D01*
X171665000Y-98571260D01*
X171665000Y-98278740D01*
X171607932Y-97991842D01*
X171495990Y-97721589D01*
X171333475Y-97478368D01*
X171201620Y-97346513D01*
X171274180Y-97324502D01*
X171384494Y-97265537D01*
X171481185Y-97186185D01*
X171560537Y-97089494D01*
X171619502Y-96979180D01*
X171655812Y-96859482D01*
X171668072Y-96735000D01*
X171668072Y-95035000D01*
X171655812Y-94910518D01*
X171619502Y-94790820D01*
X171560537Y-94680506D01*
X171481185Y-94583815D01*
X171384494Y-94504463D01*
X171274180Y-94445498D01*
X171154482Y-94409188D01*
X171030000Y-94396928D01*
X169330000Y-94396928D01*
X169205518Y-94409188D01*
X169085820Y-94445498D01*
X168975506Y-94504463D01*
X168878815Y-94583815D01*
X168799463Y-94680506D01*
X168740498Y-94790820D01*
X168704188Y-94910518D01*
X168691928Y-95035000D01*
X167765000Y-95035000D01*
X167765000Y-92568665D01*
X168745000Y-92568665D01*
X168745000Y-92851335D01*
X168800147Y-93128574D01*
X168908320Y-93389727D01*
X169065363Y-93624759D01*
X169265241Y-93824637D01*
X169500273Y-93981680D01*
X169761426Y-94089853D01*
X170038665Y-94145000D01*
X170321335Y-94145000D01*
X170598574Y-94089853D01*
X170859727Y-93981680D01*
X171094759Y-93824637D01*
X171294637Y-93624759D01*
X171451680Y-93389727D01*
X171559853Y-93128574D01*
X171615000Y-92851335D01*
X171615000Y-92568665D01*
X171559853Y-92291426D01*
X171451680Y-92030273D01*
X171294637Y-91795241D01*
X171094759Y-91595363D01*
X170859727Y-91438320D01*
X170598574Y-91330147D01*
X170321335Y-91275000D01*
X170038665Y-91275000D01*
X169761426Y-91330147D01*
X169500273Y-91438320D01*
X169265241Y-91595363D01*
X169065363Y-91795241D01*
X168908320Y-92030273D01*
X168800147Y-92291426D01*
X168745000Y-92568665D01*
X167765000Y-92568665D01*
X167765000Y-82569000D01*
X167868939Y-82569000D01*
X168068898Y-82529226D01*
X168257256Y-82451205D01*
X168320921Y-82408665D01*
X168745000Y-82408665D01*
X168745000Y-82691335D01*
X168800147Y-82968574D01*
X168908320Y-83229727D01*
X169065363Y-83464759D01*
X169265241Y-83664637D01*
X169500273Y-83821680D01*
X169761426Y-83929853D01*
X170038665Y-83985000D01*
X170321335Y-83985000D01*
X170598574Y-83929853D01*
X170859727Y-83821680D01*
X171094759Y-83664637D01*
X171294637Y-83464759D01*
X171451680Y-83229727D01*
X171559853Y-82968574D01*
X171615000Y-82691335D01*
X171615000Y-82408665D01*
X171559853Y-82131426D01*
X171451680Y-81870273D01*
X171294637Y-81635241D01*
X171094759Y-81435363D01*
X170859727Y-81278320D01*
X170598574Y-81170147D01*
X170321335Y-81115000D01*
X170038665Y-81115000D01*
X169761426Y-81170147D01*
X169500273Y-81278320D01*
X169265241Y-81435363D01*
X169065363Y-81635241D01*
X168908320Y-81870273D01*
X168800147Y-82131426D01*
X168745000Y-82408665D01*
X168320921Y-82408665D01*
X168426774Y-82337937D01*
X168570937Y-82193774D01*
X168684205Y-82024256D01*
X168762226Y-81835898D01*
X168802000Y-81635939D01*
X168802000Y-81432061D01*
X168762226Y-81232102D01*
X168684205Y-81043744D01*
X168570937Y-80874226D01*
X168527000Y-80830289D01*
X168527000Y-79920325D01*
X168530676Y-79883000D01*
X168527000Y-79845675D01*
X168527000Y-79845667D01*
X168516003Y-79734014D01*
X168478280Y-79609656D01*
X168849321Y-79763346D01*
X169310098Y-79855000D01*
X169779902Y-79855000D01*
X170240679Y-79763346D01*
X170674721Y-79583560D01*
X171065349Y-79322550D01*
X171397550Y-78990349D01*
X171658560Y-78599721D01*
X171838346Y-78165679D01*
X171930000Y-77704902D01*
X171930000Y-77235098D01*
X171838346Y-76774321D01*
X171658560Y-76340279D01*
X171397550Y-75949651D01*
X171065349Y-75617450D01*
X170674721Y-75356440D01*
X170240679Y-75176654D01*
X169779902Y-75085000D01*
X169310098Y-75085000D01*
X168849321Y-75176654D01*
X168415279Y-75356440D01*
X168024651Y-75617450D01*
X167692450Y-75949651D01*
X167431440Y-76340279D01*
X167251654Y-76774321D01*
X167160000Y-77235098D01*
X167160000Y-77704902D01*
X167251654Y-78165679D01*
X167341579Y-78382778D01*
X166552804Y-77594003D01*
X166529001Y-77564999D01*
X166413276Y-77470026D01*
X166281247Y-77399454D01*
X166137986Y-77355997D01*
X166026333Y-77345000D01*
X166026322Y-77345000D01*
X165989000Y-77341324D01*
X165951678Y-77345000D01*
X165171983Y-77345000D01*
X165209853Y-77253574D01*
X165265000Y-76976335D01*
X165265000Y-76693665D01*
X165209853Y-76416426D01*
X165101680Y-76155273D01*
X164944637Y-75920241D01*
X164744759Y-75720363D01*
X164509727Y-75563320D01*
X164248574Y-75455147D01*
X163971335Y-75400000D01*
X163688665Y-75400000D01*
X163411426Y-75455147D01*
X163150273Y-75563320D01*
X162915241Y-75720363D01*
X162715363Y-75920241D01*
X162558320Y-76155273D01*
X162450147Y-76416426D01*
X162395000Y-76693665D01*
X162395000Y-76976335D01*
X162450147Y-77253574D01*
X162488017Y-77345000D01*
X160176217Y-77345000D01*
X160187571Y-77321004D01*
X160256300Y-77046816D01*
X160270217Y-76764488D01*
X160228787Y-76484870D01*
X160133603Y-76218708D01*
X160066671Y-76093486D01*
X159822702Y-76021903D01*
X159009605Y-76835000D01*
X159023748Y-76849143D01*
X158844143Y-77028748D01*
X158830000Y-77014605D01*
X158815858Y-77028748D01*
X158636253Y-76849143D01*
X158650395Y-76835000D01*
X157837298Y-76021903D01*
X157593329Y-76093486D01*
X157472429Y-76348996D01*
X157403700Y-76623184D01*
X157389783Y-76905512D01*
X157431213Y-77185130D01*
X157488385Y-77345000D01*
X152333802Y-77345000D01*
X150831100Y-75842298D01*
X158016903Y-75842298D01*
X158830000Y-76655395D01*
X159643097Y-75842298D01*
X159571514Y-75598329D01*
X159316004Y-75477429D01*
X159041816Y-75408700D01*
X158759488Y-75394783D01*
X158479870Y-75436213D01*
X158213708Y-75531397D01*
X158088486Y-75598329D01*
X158016903Y-75842298D01*
X150831100Y-75842298D01*
X150677804Y-75689003D01*
X150654001Y-75659999D01*
X150538276Y-75565026D01*
X150406247Y-75494454D01*
X150262986Y-75450997D01*
X150151333Y-75440000D01*
X150151322Y-75440000D01*
X150114000Y-75436324D01*
X150076678Y-75440000D01*
X147357333Y-75440000D01*
X147320000Y-75436323D01*
X147282667Y-75440000D01*
X147171014Y-75450997D01*
X147027753Y-75494454D01*
X146895724Y-75565026D01*
X146779999Y-75659999D01*
X146756200Y-75688998D01*
X146458006Y-75987193D01*
X146247875Y-76028990D01*
X145975147Y-76141958D01*
X145729698Y-76305961D01*
X145520961Y-76514698D01*
X145410441Y-76680103D01*
X145351817Y-76581512D01*
X145155293Y-76363146D01*
X144919944Y-76187316D01*
X144654814Y-76060778D01*
X144504026Y-76015042D01*
X144272000Y-76136183D01*
X144272000Y-77343000D01*
X144292000Y-77343000D01*
X144292000Y-77597000D01*
X144272000Y-77597000D01*
X144272000Y-77617000D01*
X144018000Y-77617000D01*
X144018000Y-77597000D01*
X143998000Y-77597000D01*
X143998000Y-77343000D01*
X144018000Y-77343000D01*
X144018000Y-76136183D01*
X143785974Y-76015042D01*
X143635186Y-76060778D01*
X143370056Y-76187316D01*
X143134707Y-76363146D01*
X142938183Y-76581512D01*
X142879559Y-76680103D01*
X142769039Y-76514698D01*
X142560302Y-76305961D01*
X142314853Y-76141958D01*
X142042125Y-76028990D01*
X141752599Y-75971400D01*
X141457401Y-75971400D01*
X141167875Y-76028990D01*
X140895147Y-76141958D01*
X140649698Y-76305961D01*
X140440961Y-76514698D01*
X140335000Y-76673281D01*
X140229039Y-76514698D01*
X140020302Y-76305961D01*
X139774853Y-76141958D01*
X139502125Y-76028990D01*
X139212599Y-75971400D01*
X138917401Y-75971400D01*
X138627875Y-76028990D01*
X138355147Y-76141958D01*
X138109698Y-76305961D01*
X137900961Y-76514698D01*
X137736958Y-76760147D01*
X137623990Y-77032875D01*
X137566400Y-77322401D01*
X137566400Y-77617599D01*
X137623990Y-77907125D01*
X137654176Y-77980000D01*
X135958711Y-77980000D01*
X135914774Y-77936063D01*
X135745256Y-77822795D01*
X135556898Y-77744774D01*
X135356939Y-77705000D01*
X135153061Y-77705000D01*
X134953102Y-77744774D01*
X134764744Y-77822795D01*
X134595226Y-77936063D01*
X134451063Y-78080226D01*
X134337795Y-78249744D01*
X134259774Y-78438102D01*
X134220000Y-78638061D01*
X120822919Y-78638061D01*
X120858560Y-78584722D01*
X121038346Y-78150680D01*
X121130000Y-77689903D01*
X121130000Y-77220099D01*
X121038346Y-76759322D01*
X120858560Y-76325280D01*
X120597550Y-75934652D01*
X120265349Y-75602451D01*
X119874721Y-75341441D01*
X119440679Y-75161655D01*
X118979902Y-75070001D01*
X118510098Y-75070001D01*
X118049321Y-75161655D01*
X117615279Y-75341441D01*
X117224651Y-75602451D01*
X116892450Y-75934652D01*
X116631440Y-76325280D01*
X116451654Y-76759322D01*
X116360000Y-77220099D01*
X115622668Y-77220099D01*
X115658096Y-76858778D01*
X115835606Y-76270836D01*
X116123937Y-75728564D01*
X116512094Y-75252636D01*
X116985314Y-74861155D01*
X117525552Y-74569049D01*
X118112244Y-74387437D01*
X118753879Y-74320000D01*
X169512721Y-74320000D01*
X170156222Y-74383096D01*
G04 #@! TA.AperFunction,Conductor*
D24*
G36*
X170156222Y-74383096D02*
G01*
X170744164Y-74560606D01*
X171286436Y-74848937D01*
X171762364Y-75237094D01*
X172153845Y-75710314D01*
X172445951Y-76250552D01*
X172627563Y-76837244D01*
X172695001Y-77478888D01*
X172695000Y-107917721D01*
X172631904Y-108561221D01*
X172454394Y-109149164D01*
X172166063Y-109691436D01*
X171777906Y-110167364D01*
X171304686Y-110558845D01*
X170764449Y-110850950D01*
X170177756Y-111032563D01*
X169536130Y-111100000D01*
X118777279Y-111100000D01*
X118133779Y-111036904D01*
X117545836Y-110859394D01*
X117003564Y-110571063D01*
X116527636Y-110182906D01*
X116136155Y-109709686D01*
X115844050Y-109169449D01*
X115662437Y-108582756D01*
X115595000Y-107941130D01*
X115595000Y-107715098D01*
X116360000Y-107715098D01*
X116360000Y-108184902D01*
X116451654Y-108645679D01*
X116631440Y-109079721D01*
X116892450Y-109470349D01*
X117224651Y-109802550D01*
X117615279Y-110063560D01*
X118049321Y-110243346D01*
X118510098Y-110335000D01*
X118979902Y-110335000D01*
X119440679Y-110243346D01*
X119874721Y-110063560D01*
X120265349Y-109802550D01*
X120597550Y-109470349D01*
X120858560Y-109079721D01*
X121038346Y-108645679D01*
X121130000Y-108184902D01*
X121130000Y-107715098D01*
X121038346Y-107254321D01*
X120968791Y-107086400D01*
X126133328Y-107086400D01*
X126133328Y-108813600D01*
X126145588Y-108938082D01*
X126181898Y-109057780D01*
X126240863Y-109168094D01*
X126320215Y-109264785D01*
X126416906Y-109344137D01*
X126527220Y-109403102D01*
X126646918Y-109439412D01*
X126771400Y-109451672D01*
X128498600Y-109451672D01*
X128623082Y-109439412D01*
X128742780Y-109403102D01*
X128853094Y-109344137D01*
X128949785Y-109264785D01*
X129029137Y-109168094D01*
X129088102Y-109057780D01*
X129105636Y-108999977D01*
X129219698Y-109114039D01*
X129465147Y-109278042D01*
X129737875Y-109391010D01*
X130027401Y-109448600D01*
X130322599Y-109448600D01*
X130612125Y-109391010D01*
X130884853Y-109278042D01*
X131130302Y-109114039D01*
X131339039Y-108905302D01*
X131445000Y-108746719D01*
X131550961Y-108905302D01*
X131759698Y-109114039D01*
X132005147Y-109278042D01*
X132277875Y-109391010D01*
X132567401Y-109448600D01*
X132862599Y-109448600D01*
X133152125Y-109391010D01*
X133424853Y-109278042D01*
X133670302Y-109114039D01*
X133879039Y-108905302D01*
X133985000Y-108746719D01*
X134090961Y-108905302D01*
X134299698Y-109114039D01*
X134545147Y-109278042D01*
X134817875Y-109391010D01*
X135107401Y-109448600D01*
X135402599Y-109448600D01*
X135692125Y-109391010D01*
X135964853Y-109278042D01*
X136210302Y-109114039D01*
X136419039Y-108905302D01*
X136525000Y-108746719D01*
X136630961Y-108905302D01*
X136839698Y-109114039D01*
X137085147Y-109278042D01*
X137357875Y-109391010D01*
X137647401Y-109448600D01*
X137942599Y-109448600D01*
X138232125Y-109391010D01*
X138504853Y-109278042D01*
X138750302Y-109114039D01*
X138959039Y-108905302D01*
X139123042Y-108659853D01*
X139236010Y-108387125D01*
X139293600Y-108097599D01*
X139293600Y-107802401D01*
X139236010Y-107512875D01*
X139123042Y-107240147D01*
X139020313Y-107086400D01*
X148993328Y-107086400D01*
X148993328Y-108813600D01*
X149005588Y-108938082D01*
X149041898Y-109057780D01*
X149100863Y-109168094D01*
X149180215Y-109264785D01*
X149276906Y-109344137D01*
X149387220Y-109403102D01*
X149506918Y-109439412D01*
X149631400Y-109451672D01*
X151358600Y-109451672D01*
X151483082Y-109439412D01*
X151602780Y-109403102D01*
X151713094Y-109344137D01*
X151809785Y-109264785D01*
X151889137Y-109168094D01*
X151948102Y-109057780D01*
X151965636Y-108999977D01*
X152079698Y-109114039D01*
X152325147Y-109278042D01*
X152597875Y-109391010D01*
X152887401Y-109448600D01*
X153182599Y-109448600D01*
X153472125Y-109391010D01*
X153744853Y-109278042D01*
X153990302Y-109114039D01*
X154199039Y-108905302D01*
X154305000Y-108746719D01*
X154410961Y-108905302D01*
X154619698Y-109114039D01*
X154865147Y-109278042D01*
X155137875Y-109391010D01*
X155427401Y-109448600D01*
X155722599Y-109448600D01*
X156012125Y-109391010D01*
X156284853Y-109278042D01*
X156530302Y-109114039D01*
X156739039Y-108905302D01*
X156845000Y-108746719D01*
X156950961Y-108905302D01*
X157159698Y-109114039D01*
X157405147Y-109278042D01*
X157677875Y-109391010D01*
X157967401Y-109448600D01*
X158262599Y-109448600D01*
X158552125Y-109391010D01*
X158824853Y-109278042D01*
X159070302Y-109114039D01*
X159279039Y-108905302D01*
X159385000Y-108746719D01*
X159490961Y-108905302D01*
X159699698Y-109114039D01*
X159945147Y-109278042D01*
X160217875Y-109391010D01*
X160507401Y-109448600D01*
X160802599Y-109448600D01*
X161092125Y-109391010D01*
X161364853Y-109278042D01*
X161610302Y-109114039D01*
X161819039Y-108905302D01*
X161983042Y-108659853D01*
X162096010Y-108387125D01*
X162153600Y-108097599D01*
X162153600Y-107802401D01*
X162136235Y-107715098D01*
X167160000Y-107715098D01*
X167160000Y-108184902D01*
X167251654Y-108645679D01*
X167431440Y-109079721D01*
X167692450Y-109470349D01*
X168024651Y-109802550D01*
X168415279Y-110063560D01*
X168849321Y-110243346D01*
X169310098Y-110335000D01*
X169779902Y-110335000D01*
X170240679Y-110243346D01*
X170674721Y-110063560D01*
X171065349Y-109802550D01*
X171397550Y-109470349D01*
X171658560Y-109079721D01*
X171838346Y-108645679D01*
X171930000Y-108184902D01*
X171930000Y-107715098D01*
X171838346Y-107254321D01*
X171658560Y-106820279D01*
X171397550Y-106429651D01*
X171065349Y-106097450D01*
X170674721Y-105836440D01*
X170240679Y-105656654D01*
X169779902Y-105565000D01*
X169310098Y-105565000D01*
X168849321Y-105656654D01*
X168415279Y-105836440D01*
X168024651Y-106097450D01*
X167692450Y-106429651D01*
X167431440Y-106820279D01*
X167251654Y-107254321D01*
X167160000Y-107715098D01*
X162136235Y-107715098D01*
X162096010Y-107512875D01*
X161983042Y-107240147D01*
X161819039Y-106994698D01*
X161610302Y-106785961D01*
X161451719Y-106680000D01*
X161610302Y-106574039D01*
X161819039Y-106365302D01*
X161983042Y-106119853D01*
X162096010Y-105847125D01*
X162153600Y-105557599D01*
X162153600Y-105262401D01*
X162096010Y-104972875D01*
X161983042Y-104700147D01*
X161819039Y-104454698D01*
X161610302Y-104245961D01*
X161364853Y-104081958D01*
X161092125Y-103968990D01*
X160802599Y-103911400D01*
X160507401Y-103911400D01*
X160217875Y-103968990D01*
X159945147Y-104081958D01*
X159699698Y-104245961D01*
X159490961Y-104454698D01*
X159385000Y-104613281D01*
X159279039Y-104454698D01*
X159070302Y-104245961D01*
X158824853Y-104081958D01*
X158552125Y-103968990D01*
X158262599Y-103911400D01*
X157967401Y-103911400D01*
X157677875Y-103968990D01*
X157405147Y-104081958D01*
X157159698Y-104245961D01*
X156950961Y-104454698D01*
X156840441Y-104620103D01*
X156781817Y-104521512D01*
X156585293Y-104303146D01*
X156349944Y-104127316D01*
X156084814Y-104000778D01*
X155934026Y-103955042D01*
X155702000Y-104076183D01*
X155702000Y-105283000D01*
X155722000Y-105283000D01*
X155722000Y-105537000D01*
X155702000Y-105537000D01*
X155702000Y-105557000D01*
X155448000Y-105557000D01*
X155448000Y-105537000D01*
X155428000Y-105537000D01*
X155428000Y-105283000D01*
X155448000Y-105283000D01*
X155448000Y-104076183D01*
X155215974Y-103955042D01*
X155065186Y-104000778D01*
X155063890Y-104001397D01*
X155054003Y-103901014D01*
X155010546Y-103757753D01*
X154939974Y-103625724D01*
X154868799Y-103538997D01*
X154845001Y-103509999D01*
X154816002Y-103486200D01*
X154705000Y-103375198D01*
X154705000Y-103313061D01*
X154665226Y-103113102D01*
X154587205Y-102924744D01*
X154473937Y-102755226D01*
X154329774Y-102611063D01*
X154160256Y-102497795D01*
X153971898Y-102419774D01*
X153771939Y-102380000D01*
X153568061Y-102380000D01*
X153368102Y-102419774D01*
X153179744Y-102497795D01*
X153010226Y-102611063D01*
X152866063Y-102755226D01*
X152752795Y-102924744D01*
X152674774Y-103113102D01*
X152635000Y-103313061D01*
X152635000Y-103516939D01*
X152674774Y-103716898D01*
X152752795Y-103905256D01*
X152772210Y-103934313D01*
X152597875Y-103968990D01*
X152325147Y-104081958D01*
X152079698Y-104245961D01*
X151870961Y-104454698D01*
X151765000Y-104613281D01*
X151659039Y-104454698D01*
X151450302Y-104245961D01*
X151204853Y-104081958D01*
X150932125Y-103968990D01*
X150642599Y-103911400D01*
X150347401Y-103911400D01*
X150057875Y-103968990D01*
X149785147Y-104081958D01*
X149539698Y-104245961D01*
X149330961Y-104454698D01*
X149166958Y-104700147D01*
X149053990Y-104972875D01*
X148996400Y-105262401D01*
X148996400Y-105557599D01*
X149053990Y-105847125D01*
X149166958Y-106119853D01*
X149330961Y-106365302D01*
X149445023Y-106479364D01*
X149387220Y-106496898D01*
X149276906Y-106555863D01*
X149180215Y-106635215D01*
X149100863Y-106731906D01*
X149041898Y-106842220D01*
X149005588Y-106961918D01*
X148993328Y-107086400D01*
X139020313Y-107086400D01*
X138959039Y-106994698D01*
X138750302Y-106785961D01*
X138591719Y-106680000D01*
X138750302Y-106574039D01*
X138959039Y-106365302D01*
X139123042Y-106119853D01*
X139236010Y-105847125D01*
X139293600Y-105557599D01*
X139293600Y-105262401D01*
X139236010Y-104972875D01*
X139123042Y-104700147D01*
X138959039Y-104454698D01*
X138750302Y-104245961D01*
X138504853Y-104081958D01*
X138232125Y-103968990D01*
X137942599Y-103911400D01*
X137647401Y-103911400D01*
X137357875Y-103968990D01*
X137085147Y-104081958D01*
X136839698Y-104245961D01*
X136630961Y-104454698D01*
X136525000Y-104613281D01*
X136419039Y-104454698D01*
X136210302Y-104245961D01*
X135964853Y-104081958D01*
X135692125Y-103968990D01*
X135402599Y-103911400D01*
X135107401Y-103911400D01*
X134817875Y-103968990D01*
X134545147Y-104081958D01*
X134299698Y-104245961D01*
X134090961Y-104454698D01*
X133980441Y-104620103D01*
X133921817Y-104521512D01*
X133725293Y-104303146D01*
X133489944Y-104127316D01*
X133224814Y-104000778D01*
X133074026Y-103955042D01*
X132842000Y-104076183D01*
X132842000Y-105283000D01*
X132862000Y-105283000D01*
X132862000Y-105537000D01*
X132842000Y-105537000D01*
X132842000Y-105557000D01*
X132588000Y-105557000D01*
X132588000Y-105537000D01*
X132568000Y-105537000D01*
X132568000Y-105283000D01*
X132588000Y-105283000D01*
X132588000Y-104076183D01*
X132355974Y-103955042D01*
X132205186Y-104000778D01*
X131940056Y-104127316D01*
X131704707Y-104303146D01*
X131508183Y-104521512D01*
X131449559Y-104620103D01*
X131339039Y-104454698D01*
X131130302Y-104245961D01*
X130884853Y-104081958D01*
X130612125Y-103968990D01*
X130322599Y-103911400D01*
X130027401Y-103911400D01*
X129737875Y-103968990D01*
X129465147Y-104081958D01*
X129219698Y-104245961D01*
X129010961Y-104454698D01*
X128905000Y-104613281D01*
X128799039Y-104454698D01*
X128590302Y-104245961D01*
X128344853Y-104081958D01*
X128072125Y-103968990D01*
X127782599Y-103911400D01*
X127487401Y-103911400D01*
X127197875Y-103968990D01*
X126925147Y-104081958D01*
X126679698Y-104245961D01*
X126470961Y-104454698D01*
X126306958Y-104700147D01*
X126193990Y-104972875D01*
X126136400Y-105262401D01*
X126136400Y-105557599D01*
X126193990Y-105847125D01*
X126306958Y-106119853D01*
X126470961Y-106365302D01*
X126585023Y-106479364D01*
X126527220Y-106496898D01*
X126416906Y-106555863D01*
X126320215Y-106635215D01*
X126240863Y-106731906D01*
X126181898Y-106842220D01*
X126145588Y-106961918D01*
X126133328Y-107086400D01*
X120968791Y-107086400D01*
X120858560Y-106820279D01*
X120597550Y-106429651D01*
X120265349Y-106097450D01*
X119874721Y-105836440D01*
X119440679Y-105656654D01*
X118979902Y-105565000D01*
X118510098Y-105565000D01*
X118049321Y-105656654D01*
X117615279Y-105836440D01*
X117224651Y-106097450D01*
X116892450Y-106429651D01*
X116631440Y-106820279D01*
X116451654Y-107254321D01*
X116360000Y-107715098D01*
X115595000Y-107715098D01*
X115595000Y-98918665D01*
X126835000Y-98918665D01*
X126835000Y-99201335D01*
X126890147Y-99478574D01*
X126998320Y-99739727D01*
X127155363Y-99974759D01*
X127355241Y-100174637D01*
X127590273Y-100331680D01*
X127851426Y-100439853D01*
X128128665Y-100495000D01*
X128411335Y-100495000D01*
X128688574Y-100439853D01*
X128949727Y-100331680D01*
X129184759Y-100174637D01*
X129384637Y-99974759D01*
X129541680Y-99739727D01*
X129649853Y-99478574D01*
X129705000Y-99201335D01*
X129705000Y-98918665D01*
X130010000Y-98918665D01*
X130010000Y-99201335D01*
X130065147Y-99478574D01*
X130173320Y-99739727D01*
X130330363Y-99974759D01*
X130530241Y-100174637D01*
X130765273Y-100331680D01*
X131026426Y-100439853D01*
X131303665Y-100495000D01*
X131586335Y-100495000D01*
X131863574Y-100439853D01*
X132124727Y-100331680D01*
X132359759Y-100174637D01*
X132559637Y-99974759D01*
X132716680Y-99739727D01*
X132824853Y-99478574D01*
X132880000Y-99201335D01*
X132880000Y-98918665D01*
X133185000Y-98918665D01*
X133185000Y-99201335D01*
X133240147Y-99478574D01*
X133348320Y-99739727D01*
X133505363Y-99974759D01*
X133705241Y-100174637D01*
X133940273Y-100331680D01*
X134201426Y-100439853D01*
X134478665Y-100495000D01*
X134761335Y-100495000D01*
X135038574Y-100439853D01*
X135299727Y-100331680D01*
X135534759Y-100174637D01*
X135734637Y-99974759D01*
X135891680Y-99739727D01*
X135999853Y-99478574D01*
X136055000Y-99201335D01*
X136055000Y-98918665D01*
X136360000Y-98918665D01*
X136360000Y-99201335D01*
X136415147Y-99478574D01*
X136523320Y-99739727D01*
X136680363Y-99974759D01*
X136880241Y-100174637D01*
X137115273Y-100331680D01*
X137376426Y-100439853D01*
X137653665Y-100495000D01*
X137936335Y-100495000D01*
X138213574Y-100439853D01*
X138474727Y-100331680D01*
X138709759Y-100174637D01*
X138909637Y-99974759D01*
X139066680Y-99739727D01*
X139174853Y-99478574D01*
X139230000Y-99201335D01*
X139230000Y-98958061D01*
X141115000Y-98958061D01*
X141115000Y-99161939D01*
X141154774Y-99361898D01*
X141232795Y-99550256D01*
X141346063Y-99719774D01*
X141490226Y-99863937D01*
X141659744Y-99977205D01*
X141848102Y-100055226D01*
X142048061Y-100095000D01*
X142251939Y-100095000D01*
X142451898Y-100055226D01*
X142640256Y-99977205D01*
X142809774Y-99863937D01*
X142853711Y-99820000D01*
X143375200Y-99820000D01*
X144560001Y-101004802D01*
X144560001Y-101066939D01*
X144599775Y-101266898D01*
X144677796Y-101455256D01*
X144791064Y-101624774D01*
X144935227Y-101768937D01*
X145104745Y-101882205D01*
X145293103Y-101960226D01*
X145493062Y-102000000D01*
X145696940Y-102000000D01*
X145896899Y-101960226D01*
X146085257Y-101882205D01*
X146254775Y-101768937D01*
X146398938Y-101624774D01*
X146512206Y-101455256D01*
X146590227Y-101266898D01*
X146630001Y-101066939D01*
X146630001Y-100863061D01*
X146590227Y-100663102D01*
X146512206Y-100474744D01*
X146398938Y-100305226D01*
X146254775Y-100161063D01*
X146085257Y-100047795D01*
X145896899Y-99969774D01*
X145696940Y-99930000D01*
X145634803Y-99930000D01*
X145524803Y-99820000D01*
X145981289Y-99820000D01*
X146025226Y-99863937D01*
X146194744Y-99977205D01*
X146383102Y-100055226D01*
X146583061Y-100095000D01*
X146786939Y-100095000D01*
X146986898Y-100055226D01*
X147175256Y-99977205D01*
X147344774Y-99863937D01*
X147488937Y-99719774D01*
X147602205Y-99550256D01*
X147680226Y-99361898D01*
X147720000Y-99161939D01*
X147720000Y-98958061D01*
X147712164Y-98918665D01*
X149060000Y-98918665D01*
X149060000Y-99201335D01*
X149115147Y-99478574D01*
X149223320Y-99739727D01*
X149380363Y-99974759D01*
X149580241Y-100174637D01*
X149815273Y-100331680D01*
X150076426Y-100439853D01*
X150353665Y-100495000D01*
X150636335Y-100495000D01*
X150913574Y-100439853D01*
X151174727Y-100331680D01*
X151409759Y-100174637D01*
X151609637Y-99974759D01*
X151766680Y-99739727D01*
X151874853Y-99478574D01*
X151930000Y-99201335D01*
X151930000Y-98918665D01*
X152235000Y-98918665D01*
X152235000Y-99201335D01*
X152290147Y-99478574D01*
X152398320Y-99739727D01*
X152555363Y-99974759D01*
X152755241Y-100174637D01*
X152990273Y-100331680D01*
X153251426Y-100439853D01*
X153528665Y-100495000D01*
X153811335Y-100495000D01*
X154088574Y-100439853D01*
X154349727Y-100331680D01*
X154584759Y-100174637D01*
X154784637Y-99974759D01*
X154941680Y-99739727D01*
X155049853Y-99478574D01*
X155105000Y-99201335D01*
X155105000Y-98918665D01*
X155076232Y-98774039D01*
X155688096Y-98774039D01*
X155705633Y-98856818D01*
X155816285Y-99116646D01*
X155975500Y-99349895D01*
X156177161Y-99547601D01*
X156413517Y-99702166D01*
X156675486Y-99807650D01*
X156953000Y-99860000D01*
X157353000Y-99860000D01*
X157353000Y-98552000D01*
X157607000Y-98552000D01*
X157607000Y-99860000D01*
X158007000Y-99860000D01*
X158284514Y-99807650D01*
X158546483Y-99702166D01*
X158782839Y-99547601D01*
X158984500Y-99349895D01*
X159143715Y-99116646D01*
X159254367Y-98856818D01*
X159271904Y-98774039D01*
X159149915Y-98552000D01*
X157607000Y-98552000D01*
X157353000Y-98552000D01*
X155810085Y-98552000D01*
X155688096Y-98774039D01*
X155076232Y-98774039D01*
X155049853Y-98641426D01*
X154941680Y-98380273D01*
X154784637Y-98145241D01*
X154584759Y-97945363D01*
X154349727Y-97788320D01*
X154088574Y-97680147D01*
X153811335Y-97625000D01*
X153528665Y-97625000D01*
X153251426Y-97680147D01*
X152990273Y-97788320D01*
X152755241Y-97945363D01*
X152555363Y-98145241D01*
X152398320Y-98380273D01*
X152290147Y-98641426D01*
X152235000Y-98918665D01*
X151930000Y-98918665D01*
X151874853Y-98641426D01*
X151766680Y-98380273D01*
X151609637Y-98145241D01*
X151409759Y-97945363D01*
X151174727Y-97788320D01*
X150913574Y-97680147D01*
X150636335Y-97625000D01*
X150353665Y-97625000D01*
X150076426Y-97680147D01*
X149815273Y-97788320D01*
X149580241Y-97945363D01*
X149380363Y-98145241D01*
X149223320Y-98380273D01*
X149115147Y-98641426D01*
X149060000Y-98918665D01*
X147712164Y-98918665D01*
X147680226Y-98758102D01*
X147602205Y-98569744D01*
X147488937Y-98400226D01*
X147344774Y-98256063D01*
X147175256Y-98142795D01*
X146986898Y-98064774D01*
X146786939Y-98025000D01*
X146583061Y-98025000D01*
X146383102Y-98064774D01*
X146194744Y-98142795D01*
X146025226Y-98256063D01*
X145981289Y-98300000D01*
X145221802Y-98300000D01*
X145180000Y-98258198D01*
X145180000Y-98196061D01*
X145140226Y-97996102D01*
X145062205Y-97807744D01*
X144948937Y-97638226D01*
X144804774Y-97494063D01*
X144635256Y-97380795D01*
X144446898Y-97302774D01*
X144246939Y-97263000D01*
X144043061Y-97263000D01*
X143843102Y-97302774D01*
X143654744Y-97380795D01*
X143485226Y-97494063D01*
X143341063Y-97638226D01*
X143227795Y-97807744D01*
X143149774Y-97996102D01*
X143110000Y-98196061D01*
X143110000Y-98300000D01*
X142853711Y-98300000D01*
X142809774Y-98256063D01*
X142640256Y-98142795D01*
X142451898Y-98064774D01*
X142251939Y-98025000D01*
X142048061Y-98025000D01*
X141848102Y-98064774D01*
X141659744Y-98142795D01*
X141490226Y-98256063D01*
X141346063Y-98400226D01*
X141232795Y-98569744D01*
X141154774Y-98758102D01*
X141115000Y-98958061D01*
X139230000Y-98958061D01*
X139230000Y-98918665D01*
X139174853Y-98641426D01*
X139066680Y-98380273D01*
X138909637Y-98145241D01*
X138709759Y-97945363D01*
X138474727Y-97788320D01*
X138213574Y-97680147D01*
X137936335Y-97625000D01*
X137653665Y-97625000D01*
X137376426Y-97680147D01*
X137115273Y-97788320D01*
X136880241Y-97945363D01*
X136680363Y-98145241D01*
X136523320Y-98380273D01*
X136415147Y-98641426D01*
X136360000Y-98918665D01*
X136055000Y-98918665D01*
X135999853Y-98641426D01*
X135891680Y-98380273D01*
X135734637Y-98145241D01*
X135534759Y-97945363D01*
X135299727Y-97788320D01*
X135038574Y-97680147D01*
X134761335Y-97625000D01*
X134478665Y-97625000D01*
X134201426Y-97680147D01*
X133940273Y-97788320D01*
X133705241Y-97945363D01*
X133505363Y-98145241D01*
X133348320Y-98380273D01*
X133240147Y-98641426D01*
X133185000Y-98918665D01*
X132880000Y-98918665D01*
X132824853Y-98641426D01*
X132716680Y-98380273D01*
X132559637Y-98145241D01*
X132359759Y-97945363D01*
X132124727Y-97788320D01*
X131863574Y-97680147D01*
X131586335Y-97625000D01*
X131303665Y-97625000D01*
X131026426Y-97680147D01*
X130765273Y-97788320D01*
X130530241Y-97945363D01*
X130330363Y-98145241D01*
X130173320Y-98380273D01*
X130065147Y-98641426D01*
X130010000Y-98918665D01*
X129705000Y-98918665D01*
X129649853Y-98641426D01*
X129541680Y-98380273D01*
X129384637Y-98145241D01*
X129184759Y-97945363D01*
X128949727Y-97788320D01*
X128688574Y-97680147D01*
X128411335Y-97625000D01*
X128128665Y-97625000D01*
X127851426Y-97680147D01*
X127590273Y-97788320D01*
X127355241Y-97945363D01*
X127155363Y-98145241D01*
X126998320Y-98380273D01*
X126890147Y-98641426D01*
X126835000Y-98918665D01*
X115595000Y-98918665D01*
X115595000Y-89320000D01*
X116621928Y-89320000D01*
X116621928Y-91020000D01*
X116634188Y-91144482D01*
X116670498Y-91264180D01*
X116729463Y-91374494D01*
X116808815Y-91471185D01*
X116905506Y-91550537D01*
X117015820Y-91609502D01*
X117088380Y-91631513D01*
X116956525Y-91763368D01*
X116794010Y-92006589D01*
X116682068Y-92276842D01*
X116625000Y-92563740D01*
X116625000Y-92856260D01*
X116682068Y-93143158D01*
X116794010Y-93413411D01*
X116956525Y-93656632D01*
X117163368Y-93863475D01*
X117337760Y-93980000D01*
X117163368Y-94096525D01*
X116956525Y-94303368D01*
X116794010Y-94546589D01*
X116682068Y-94816842D01*
X116625000Y-95103740D01*
X116625000Y-95396260D01*
X116682068Y-95683158D01*
X116794010Y-95953411D01*
X116956525Y-96196632D01*
X117163368Y-96403475D01*
X117406589Y-96565990D01*
X117676842Y-96677932D01*
X117963740Y-96735000D01*
X118256260Y-96735000D01*
X118543158Y-96677932D01*
X118813411Y-96565990D01*
X119056632Y-96403475D01*
X119263475Y-96196632D01*
X119380000Y-96022240D01*
X119496525Y-96196632D01*
X119703368Y-96403475D01*
X119946589Y-96565990D01*
X120216842Y-96677932D01*
X120503740Y-96735000D01*
X120796260Y-96735000D01*
X121083158Y-96677932D01*
X121353411Y-96565990D01*
X121596632Y-96403475D01*
X121803475Y-96196632D01*
X121965990Y-95953411D01*
X122077932Y-95683158D01*
X122135000Y-95396260D01*
X122135000Y-95103740D01*
X122077932Y-94816842D01*
X122070528Y-94798967D01*
X139260000Y-94798967D01*
X139260000Y-95121033D01*
X139322832Y-95436912D01*
X139446082Y-95734463D01*
X139625013Y-96002252D01*
X139852748Y-96229987D01*
X140120537Y-96408918D01*
X140418088Y-96532168D01*
X140733967Y-96595000D01*
X141056033Y-96595000D01*
X141371912Y-96532168D01*
X141669463Y-96408918D01*
X141937252Y-96229987D01*
X142164987Y-96002252D01*
X142343918Y-95734463D01*
X142349909Y-95720000D01*
X145940091Y-95720000D01*
X145946082Y-95734463D01*
X146125013Y-96002252D01*
X146352748Y-96229987D01*
X146620537Y-96408918D01*
X146918088Y-96532168D01*
X147233967Y-96595000D01*
X147556033Y-96595000D01*
X147871912Y-96532168D01*
X148169463Y-96408918D01*
X148437252Y-96229987D01*
X148664987Y-96002252D01*
X148843918Y-95734463D01*
X148967168Y-95436912D01*
X149030000Y-95121033D01*
X149030000Y-94798967D01*
X148967168Y-94483088D01*
X148843918Y-94185537D01*
X148664987Y-93917748D01*
X148437252Y-93690013D01*
X148169463Y-93511082D01*
X147871912Y-93387832D01*
X147656581Y-93345000D01*
X155638057Y-93345000D01*
X155665764Y-93626309D01*
X155747818Y-93896808D01*
X155881068Y-94146101D01*
X156060392Y-94364608D01*
X156278899Y-94543932D01*
X156411858Y-94615000D01*
X156278899Y-94686068D01*
X156060392Y-94865392D01*
X155881068Y-95083899D01*
X155747818Y-95333192D01*
X155665764Y-95603691D01*
X155638057Y-95885000D01*
X155665764Y-96166309D01*
X155747818Y-96436808D01*
X155881068Y-96686101D01*
X156060392Y-96904608D01*
X156278899Y-97083932D01*
X156406741Y-97152265D01*
X156177161Y-97302399D01*
X155975500Y-97500105D01*
X155816285Y-97733354D01*
X155705633Y-97993182D01*
X155688096Y-98075961D01*
X155810085Y-98298000D01*
X157353000Y-98298000D01*
X157353000Y-98278000D01*
X157607000Y-98278000D01*
X157607000Y-98298000D01*
X159149915Y-98298000D01*
X159271904Y-98075961D01*
X159254367Y-97993182D01*
X159143715Y-97733354D01*
X158984500Y-97500105D01*
X158782839Y-97302399D01*
X158553259Y-97152265D01*
X158681101Y-97083932D01*
X158899608Y-96904608D01*
X159078932Y-96686101D01*
X159212182Y-96436808D01*
X159294236Y-96166309D01*
X159321943Y-95885000D01*
X159294236Y-95603691D01*
X159212182Y-95333192D01*
X159078932Y-95083899D01*
X158899608Y-94865392D01*
X158681101Y-94686068D01*
X158548142Y-94615000D01*
X158681101Y-94543932D01*
X158899608Y-94364608D01*
X159078932Y-94146101D01*
X159212182Y-93896808D01*
X159294236Y-93626309D01*
X159321943Y-93345000D01*
X159294236Y-93063691D01*
X159212182Y-92793192D01*
X159078932Y-92543899D01*
X158899608Y-92325392D01*
X158681101Y-92146068D01*
X158553259Y-92077735D01*
X158782839Y-91927601D01*
X158984500Y-91729895D01*
X159143715Y-91496646D01*
X159254367Y-91236818D01*
X159271904Y-91154039D01*
X159149915Y-90932000D01*
X157607000Y-90932000D01*
X157607000Y-90952000D01*
X157353000Y-90952000D01*
X157353000Y-90932000D01*
X155810085Y-90932000D01*
X155688096Y-91154039D01*
X155705633Y-91236818D01*
X155816285Y-91496646D01*
X155975500Y-91729895D01*
X156177161Y-91927601D01*
X156406741Y-92077735D01*
X156278899Y-92146068D01*
X156060392Y-92325392D01*
X155881068Y-92543899D01*
X155747818Y-92793192D01*
X155665764Y-93063691D01*
X155638057Y-93345000D01*
X147656581Y-93345000D01*
X147556033Y-93325000D01*
X147233967Y-93325000D01*
X146918088Y-93387832D01*
X146620537Y-93511082D01*
X146352748Y-93690013D01*
X146125013Y-93917748D01*
X145946082Y-94185537D01*
X145940091Y-94200000D01*
X142349909Y-94200000D01*
X142343918Y-94185537D01*
X142164987Y-93917748D01*
X141937252Y-93690013D01*
X141669463Y-93511082D01*
X141371912Y-93387832D01*
X141056033Y-93325000D01*
X140733967Y-93325000D01*
X140418088Y-93387832D01*
X140120537Y-93511082D01*
X139852748Y-93690013D01*
X139625013Y-93917748D01*
X139446082Y-94185537D01*
X139322832Y-94483088D01*
X139260000Y-94798967D01*
X122070528Y-94798967D01*
X121965990Y-94546589D01*
X121803475Y-94303368D01*
X121596632Y-94096525D01*
X121422240Y-93980000D01*
X121596632Y-93863475D01*
X121803475Y-93656632D01*
X121965990Y-93413411D01*
X122077932Y-93143158D01*
X122135000Y-92856260D01*
X122135000Y-92563740D01*
X122077932Y-92276842D01*
X121965990Y-92006589D01*
X121803475Y-91763368D01*
X121635520Y-91595413D01*
X139939192Y-91595413D01*
X140034956Y-91859814D01*
X140324571Y-92000704D01*
X140636108Y-92082384D01*
X140957595Y-92101718D01*
X141276675Y-92057961D01*
X141581088Y-91952795D01*
X141755044Y-91859814D01*
X141850808Y-91595413D01*
X146439192Y-91595413D01*
X146534956Y-91859814D01*
X146824571Y-92000704D01*
X147136108Y-92082384D01*
X147457595Y-92101718D01*
X147776675Y-92057961D01*
X148081088Y-91952795D01*
X148255044Y-91859814D01*
X148350808Y-91595413D01*
X147395000Y-90639605D01*
X146439192Y-91595413D01*
X141850808Y-91595413D01*
X140895000Y-90639605D01*
X139939192Y-91595413D01*
X121635520Y-91595413D01*
X121596632Y-91556525D01*
X121422240Y-91440000D01*
X121596632Y-91323475D01*
X121803475Y-91116632D01*
X121965990Y-90873411D01*
X122077932Y-90603158D01*
X122093957Y-90522595D01*
X139253282Y-90522595D01*
X139297039Y-90841675D01*
X139402205Y-91146088D01*
X139495186Y-91320044D01*
X139759587Y-91415808D01*
X140715395Y-90460000D01*
X141074605Y-90460000D01*
X142030413Y-91415808D01*
X142294814Y-91320044D01*
X142435704Y-91030429D01*
X142517384Y-90718892D01*
X142529189Y-90522595D01*
X145753282Y-90522595D01*
X145797039Y-90841675D01*
X145902205Y-91146088D01*
X145995186Y-91320044D01*
X146259587Y-91415808D01*
X147215395Y-90460000D01*
X147574605Y-90460000D01*
X148530413Y-91415808D01*
X148794814Y-91320044D01*
X148935704Y-91030429D01*
X149017384Y-90718892D01*
X149036718Y-90397405D01*
X148992961Y-90078325D01*
X148887795Y-89773912D01*
X148794814Y-89599956D01*
X148530413Y-89504192D01*
X147574605Y-90460000D01*
X147215395Y-90460000D01*
X146259587Y-89504192D01*
X145995186Y-89599956D01*
X145854296Y-89889571D01*
X145772616Y-90201108D01*
X145753282Y-90522595D01*
X142529189Y-90522595D01*
X142536718Y-90397405D01*
X142492961Y-90078325D01*
X142387795Y-89773912D01*
X142294814Y-89599956D01*
X142030413Y-89504192D01*
X141074605Y-90460000D01*
X140715395Y-90460000D01*
X139759587Y-89504192D01*
X139495186Y-89599956D01*
X139354296Y-89889571D01*
X139272616Y-90201108D01*
X139253282Y-90522595D01*
X122093957Y-90522595D01*
X122135000Y-90316260D01*
X122135000Y-90023740D01*
X122077932Y-89736842D01*
X121965990Y-89466589D01*
X121803475Y-89223368D01*
X121596632Y-89016525D01*
X121353411Y-88854010D01*
X121123227Y-88758665D01*
X126835000Y-88758665D01*
X126835000Y-89041335D01*
X126890147Y-89318574D01*
X126998320Y-89579727D01*
X127155363Y-89814759D01*
X127355241Y-90014637D01*
X127590273Y-90171680D01*
X127851426Y-90279853D01*
X128128665Y-90335000D01*
X128411335Y-90335000D01*
X128688574Y-90279853D01*
X128949727Y-90171680D01*
X129184759Y-90014637D01*
X129384637Y-89814759D01*
X129541680Y-89579727D01*
X129649853Y-89318574D01*
X129705000Y-89041335D01*
X129705000Y-88758665D01*
X130010000Y-88758665D01*
X130010000Y-89041335D01*
X130065147Y-89318574D01*
X130173320Y-89579727D01*
X130330363Y-89814759D01*
X130530241Y-90014637D01*
X130765273Y-90171680D01*
X131026426Y-90279853D01*
X131303665Y-90335000D01*
X131586335Y-90335000D01*
X131863574Y-90279853D01*
X132124727Y-90171680D01*
X132359759Y-90014637D01*
X132559637Y-89814759D01*
X132716680Y-89579727D01*
X132824853Y-89318574D01*
X132880000Y-89041335D01*
X132880000Y-88758665D01*
X133185000Y-88758665D01*
X133185000Y-89041335D01*
X133240147Y-89318574D01*
X133348320Y-89579727D01*
X133505363Y-89814759D01*
X133705241Y-90014637D01*
X133940273Y-90171680D01*
X134201426Y-90279853D01*
X134478665Y-90335000D01*
X134761335Y-90335000D01*
X135038574Y-90279853D01*
X135299727Y-90171680D01*
X135534759Y-90014637D01*
X135734637Y-89814759D01*
X135891680Y-89579727D01*
X135999853Y-89318574D01*
X136055000Y-89041335D01*
X136055000Y-88758665D01*
X136360000Y-88758665D01*
X136360000Y-89041335D01*
X136415147Y-89318574D01*
X136523320Y-89579727D01*
X136680363Y-89814759D01*
X136880241Y-90014637D01*
X137115273Y-90171680D01*
X137376426Y-90279853D01*
X137653665Y-90335000D01*
X137936335Y-90335000D01*
X138213574Y-90279853D01*
X138474727Y-90171680D01*
X138709759Y-90014637D01*
X138909637Y-89814759D01*
X139066680Y-89579727D01*
X139172362Y-89324587D01*
X139939192Y-89324587D01*
X140895000Y-90280395D01*
X141850808Y-89324587D01*
X146439192Y-89324587D01*
X147395000Y-90280395D01*
X148350808Y-89324587D01*
X148255044Y-89060186D01*
X147965429Y-88919296D01*
X147653892Y-88837616D01*
X147332405Y-88818282D01*
X147013325Y-88862039D01*
X146708912Y-88967205D01*
X146534956Y-89060186D01*
X146439192Y-89324587D01*
X141850808Y-89324587D01*
X141755044Y-89060186D01*
X141465429Y-88919296D01*
X141153892Y-88837616D01*
X140832405Y-88818282D01*
X140513325Y-88862039D01*
X140208912Y-88967205D01*
X140034956Y-89060186D01*
X139939192Y-89324587D01*
X139172362Y-89324587D01*
X139174853Y-89318574D01*
X139230000Y-89041335D01*
X139230000Y-88758665D01*
X139174853Y-88481426D01*
X139066680Y-88220273D01*
X138909637Y-87985241D01*
X138709759Y-87785363D01*
X138474727Y-87628320D01*
X138213574Y-87520147D01*
X137936335Y-87465000D01*
X137653665Y-87465000D01*
X137376426Y-87520147D01*
X137115273Y-87628320D01*
X136880241Y-87785363D01*
X136680363Y-87985241D01*
X136523320Y-88220273D01*
X136415147Y-88481426D01*
X136360000Y-88758665D01*
X136055000Y-88758665D01*
X135999853Y-88481426D01*
X135891680Y-88220273D01*
X135734637Y-87985241D01*
X135534759Y-87785363D01*
X135299727Y-87628320D01*
X135038574Y-87520147D01*
X134761335Y-87465000D01*
X134478665Y-87465000D01*
X134201426Y-87520147D01*
X133940273Y-87628320D01*
X133705241Y-87785363D01*
X133505363Y-87985241D01*
X133348320Y-88220273D01*
X133240147Y-88481426D01*
X133185000Y-88758665D01*
X132880000Y-88758665D01*
X132824853Y-88481426D01*
X132716680Y-88220273D01*
X132559637Y-87985241D01*
X132359759Y-87785363D01*
X132124727Y-87628320D01*
X131863574Y-87520147D01*
X131586335Y-87465000D01*
X131303665Y-87465000D01*
X131026426Y-87520147D01*
X130765273Y-87628320D01*
X130530241Y-87785363D01*
X130330363Y-87985241D01*
X130173320Y-88220273D01*
X130065147Y-88481426D01*
X130010000Y-88758665D01*
X129705000Y-88758665D01*
X129649853Y-88481426D01*
X129541680Y-88220273D01*
X129384637Y-87985241D01*
X129184759Y-87785363D01*
X128949727Y-87628320D01*
X128688574Y-87520147D01*
X128411335Y-87465000D01*
X128128665Y-87465000D01*
X127851426Y-87520147D01*
X127590273Y-87628320D01*
X127355241Y-87785363D01*
X127155363Y-87985241D01*
X126998320Y-88220273D01*
X126890147Y-88481426D01*
X126835000Y-88758665D01*
X121123227Y-88758665D01*
X121083158Y-88742068D01*
X120796260Y-88685000D01*
X120503740Y-88685000D01*
X120216842Y-88742068D01*
X119946589Y-88854010D01*
X119703368Y-89016525D01*
X119571513Y-89148380D01*
X119549502Y-89075820D01*
X119490537Y-88965506D01*
X119411185Y-88868815D01*
X119314494Y-88789463D01*
X119204180Y-88730498D01*
X119084482Y-88694188D01*
X118960000Y-88681928D01*
X117260000Y-88681928D01*
X117135518Y-88694188D01*
X117015820Y-88730498D01*
X116905506Y-88789463D01*
X116808815Y-88868815D01*
X116729463Y-88965506D01*
X116670498Y-89075820D01*
X116634188Y-89195518D01*
X116621928Y-89320000D01*
X115595000Y-89320000D01*
X115595000Y-85583665D01*
X129375000Y-85583665D01*
X129375000Y-85866335D01*
X129430147Y-86143574D01*
X129538320Y-86404727D01*
X129695363Y-86639759D01*
X129895241Y-86839637D01*
X130130273Y-86996680D01*
X130391426Y-87104853D01*
X130668665Y-87160000D01*
X130951335Y-87160000D01*
X131228574Y-87104853D01*
X131489727Y-86996680D01*
X131724759Y-86839637D01*
X131924637Y-86639759D01*
X132081680Y-86404727D01*
X132189853Y-86143574D01*
X132245000Y-85866335D01*
X132245000Y-85583665D01*
X132189853Y-85306426D01*
X132081680Y-85045273D01*
X131924637Y-84810241D01*
X131724759Y-84610363D01*
X131489727Y-84453320D01*
X131228574Y-84345147D01*
X130951335Y-84290000D01*
X130668665Y-84290000D01*
X130391426Y-84345147D01*
X130130273Y-84453320D01*
X129895241Y-84610363D01*
X129695363Y-84810241D01*
X129538320Y-85045273D01*
X129430147Y-85306426D01*
X129375000Y-85583665D01*
X115595000Y-85583665D01*
X115595000Y-77502279D01*
X115622668Y-77220099D01*
X116360000Y-77220099D01*
X116360000Y-77689903D01*
X116451654Y-78150680D01*
X116631440Y-78584722D01*
X116892450Y-78975350D01*
X117224651Y-79307551D01*
X117615279Y-79568561D01*
X118049321Y-79748347D01*
X118510098Y-79840001D01*
X118979902Y-79840001D01*
X119440679Y-79748347D01*
X119874721Y-79568561D01*
X120265349Y-79307551D01*
X120597550Y-78975350D01*
X120822919Y-78638061D01*
X134220000Y-78638061D01*
X134220000Y-78841939D01*
X134259774Y-79041898D01*
X134337795Y-79230256D01*
X134451063Y-79399774D01*
X134595226Y-79543937D01*
X134764744Y-79657205D01*
X134953102Y-79735226D01*
X135153061Y-79775000D01*
X135356939Y-79775000D01*
X135556898Y-79735226D01*
X135745256Y-79657205D01*
X135914774Y-79543937D01*
X135958711Y-79500000D01*
X137563328Y-79500000D01*
X137563328Y-80873600D01*
X137575588Y-80998082D01*
X137611898Y-81117780D01*
X137670863Y-81228094D01*
X137750215Y-81324785D01*
X137846906Y-81404137D01*
X137957220Y-81463102D01*
X138076918Y-81499412D01*
X138201400Y-81511672D01*
X139928600Y-81511672D01*
X140053082Y-81499412D01*
X140172780Y-81463102D01*
X140283094Y-81404137D01*
X140379785Y-81324785D01*
X140459137Y-81228094D01*
X140518102Y-81117780D01*
X140535636Y-81059977D01*
X140649698Y-81174039D01*
X140895147Y-81338042D01*
X141167875Y-81451010D01*
X141457401Y-81508600D01*
X141752599Y-81508600D01*
X142042125Y-81451010D01*
X142314853Y-81338042D01*
X142560302Y-81174039D01*
X142769039Y-80965302D01*
X142875000Y-80806719D01*
X142980961Y-80965302D01*
X143189698Y-81174039D01*
X143435147Y-81338042D01*
X143707875Y-81451010D01*
X143997401Y-81508600D01*
X144292599Y-81508600D01*
X144582125Y-81451010D01*
X144854853Y-81338042D01*
X145100302Y-81174039D01*
X145309039Y-80965302D01*
X145415000Y-80806719D01*
X145520961Y-80965302D01*
X145729698Y-81174039D01*
X145975147Y-81338042D01*
X146247875Y-81451010D01*
X146537401Y-81508600D01*
X146832599Y-81508600D01*
X147122125Y-81451010D01*
X147394853Y-81338042D01*
X147640302Y-81174039D01*
X147849039Y-80965302D01*
X147955000Y-80806719D01*
X148060961Y-80965302D01*
X148269698Y-81174039D01*
X148515147Y-81338042D01*
X148787875Y-81451010D01*
X149077401Y-81508600D01*
X149372599Y-81508600D01*
X149662125Y-81451010D01*
X149934853Y-81338042D01*
X150180302Y-81174039D01*
X150389039Y-80965302D01*
X150553042Y-80719853D01*
X150666010Y-80447125D01*
X150723600Y-80157599D01*
X150723600Y-79862401D01*
X150720139Y-79845000D01*
X155641928Y-79845000D01*
X155641928Y-81445000D01*
X155654188Y-81569482D01*
X155690498Y-81689180D01*
X155749463Y-81799494D01*
X155828815Y-81896185D01*
X155925506Y-81975537D01*
X156035820Y-82034502D01*
X156155518Y-82070812D01*
X156167387Y-82071981D01*
X155975500Y-82260105D01*
X155816285Y-82493354D01*
X155705633Y-82753182D01*
X155688096Y-82835961D01*
X155810085Y-83058000D01*
X157353000Y-83058000D01*
X157353000Y-83038000D01*
X157607000Y-83038000D01*
X157607000Y-83058000D01*
X159149915Y-83058000D01*
X159271904Y-82835961D01*
X159254367Y-82753182D01*
X159143715Y-82493354D01*
X158984500Y-82260105D01*
X158792613Y-82071981D01*
X158804482Y-82070812D01*
X158924180Y-82034502D01*
X159034494Y-81975537D01*
X159131185Y-81896185D01*
X159210537Y-81799494D01*
X159269502Y-81689180D01*
X159305812Y-81569482D01*
X159318072Y-81445000D01*
X159318072Y-79845000D01*
X159305812Y-79720518D01*
X159269502Y-79600820D01*
X159210537Y-79490506D01*
X159131185Y-79393815D01*
X159034494Y-79314463D01*
X158924180Y-79255498D01*
X158804482Y-79219188D01*
X158680000Y-79206928D01*
X156280000Y-79206928D01*
X156155518Y-79219188D01*
X156035820Y-79255498D01*
X155925506Y-79314463D01*
X155828815Y-79393815D01*
X155749463Y-79490506D01*
X155690498Y-79600820D01*
X155654188Y-79720518D01*
X155641928Y-79845000D01*
X150720139Y-79845000D01*
X150666010Y-79572875D01*
X150553042Y-79300147D01*
X150389039Y-79054698D01*
X150180302Y-78845961D01*
X150021719Y-78740000D01*
X150180302Y-78634039D01*
X150389039Y-78425302D01*
X150553042Y-78179853D01*
X150666010Y-77907125D01*
X150679335Y-77840136D01*
X151455200Y-78616002D01*
X151478999Y-78645001D01*
X151594724Y-78739974D01*
X151726753Y-78810546D01*
X151870014Y-78854003D01*
X151981667Y-78865000D01*
X151981677Y-78865000D01*
X152019000Y-78868676D01*
X152056323Y-78865000D01*
X161525000Y-78865000D01*
X161525000Y-78931939D01*
X161564774Y-79131898D01*
X161642795Y-79320256D01*
X161756063Y-79489774D01*
X161900226Y-79633937D01*
X162069744Y-79747205D01*
X162258102Y-79825226D01*
X162458061Y-79865000D01*
X162661939Y-79865000D01*
X162861898Y-79825226D01*
X163050256Y-79747205D01*
X163219774Y-79633937D01*
X163263711Y-79590000D01*
X163723517Y-79590000D01*
X163680392Y-79625392D01*
X163501068Y-79843899D01*
X163367818Y-80093192D01*
X163285764Y-80363691D01*
X163258057Y-80645000D01*
X163285764Y-80926309D01*
X163367818Y-81196808D01*
X163501068Y-81446101D01*
X163680392Y-81664608D01*
X163898899Y-81843932D01*
X164026741Y-81912265D01*
X163797161Y-82062399D01*
X163595500Y-82260105D01*
X163436285Y-82493354D01*
X163325633Y-82753182D01*
X163308096Y-82835961D01*
X163430085Y-83058000D01*
X164973000Y-83058000D01*
X164973000Y-83038000D01*
X165227000Y-83038000D01*
X165227000Y-83058000D01*
X165247000Y-83058000D01*
X165247000Y-83312000D01*
X165227000Y-83312000D01*
X165227000Y-83332000D01*
X164973000Y-83332000D01*
X164973000Y-83312000D01*
X163430085Y-83312000D01*
X163308096Y-83534039D01*
X163325633Y-83616818D01*
X163436285Y-83876646D01*
X163595500Y-84109895D01*
X163797161Y-84307601D01*
X164026741Y-84457735D01*
X163898899Y-84526068D01*
X163680392Y-84705392D01*
X163501068Y-84923899D01*
X163367818Y-85173192D01*
X163285764Y-85443691D01*
X163258057Y-85725000D01*
X163285764Y-86006309D01*
X163355136Y-86235000D01*
X159224864Y-86235000D01*
X159294236Y-86006309D01*
X159321943Y-85725000D01*
X159294236Y-85443691D01*
X159212182Y-85173192D01*
X159078932Y-84923899D01*
X158899608Y-84705392D01*
X158681101Y-84526068D01*
X158553259Y-84457735D01*
X158782839Y-84307601D01*
X158984500Y-84109895D01*
X159143715Y-83876646D01*
X159254367Y-83616818D01*
X159271904Y-83534039D01*
X159149915Y-83312000D01*
X157607000Y-83312000D01*
X157607000Y-83332000D01*
X157353000Y-83332000D01*
X157353000Y-83312000D01*
X155810085Y-83312000D01*
X155688096Y-83534039D01*
X155705633Y-83616818D01*
X155816285Y-83876646D01*
X155975500Y-84109895D01*
X156177161Y-84307601D01*
X156406741Y-84457735D01*
X156278899Y-84526068D01*
X156060392Y-84705392D01*
X155881068Y-84923899D01*
X155747818Y-85173192D01*
X155693783Y-85351322D01*
X155684853Y-85306426D01*
X155576680Y-85045273D01*
X155419637Y-84810241D01*
X155219759Y-84610363D01*
X154984727Y-84453320D01*
X154723574Y-84345147D01*
X154446335Y-84290000D01*
X154163665Y-84290000D01*
X153886426Y-84345147D01*
X153625273Y-84453320D01*
X153390241Y-84610363D01*
X153190363Y-84810241D01*
X153033320Y-85045273D01*
X152925147Y-85306426D01*
X152870000Y-85583665D01*
X152870000Y-85866335D01*
X152925147Y-86143574D01*
X152963017Y-86235000D01*
X145486983Y-86235000D01*
X145524853Y-86143574D01*
X145580000Y-85866335D01*
X145580000Y-85583665D01*
X145524853Y-85306426D01*
X145416680Y-85045273D01*
X145259637Y-84810241D01*
X145059759Y-84610363D01*
X144824727Y-84453320D01*
X144563574Y-84345147D01*
X144286335Y-84290000D01*
X144003665Y-84290000D01*
X143726426Y-84345147D01*
X143465273Y-84453320D01*
X143230241Y-84610363D01*
X143030363Y-84810241D01*
X142873320Y-85045273D01*
X142765147Y-85306426D01*
X142710000Y-85583665D01*
X142710000Y-85866335D01*
X142765147Y-86143574D01*
X142803017Y-86235000D01*
X142311983Y-86235000D01*
X142349853Y-86143574D01*
X142405000Y-85866335D01*
X142405000Y-85583665D01*
X142349853Y-85306426D01*
X142241680Y-85045273D01*
X142084637Y-84810241D01*
X141884759Y-84610363D01*
X141649727Y-84453320D01*
X141388574Y-84345147D01*
X141111335Y-84290000D01*
X140828665Y-84290000D01*
X140551426Y-84345147D01*
X140290273Y-84453320D01*
X140055241Y-84610363D01*
X139855363Y-84810241D01*
X139698320Y-85045273D01*
X139590147Y-85306426D01*
X139535000Y-85583665D01*
X139535000Y-85866335D01*
X139590147Y-86143574D01*
X139698320Y-86404727D01*
X139855363Y-86639759D01*
X140055241Y-86839637D01*
X140290273Y-86996680D01*
X140551426Y-87104853D01*
X140662058Y-87126859D01*
X141041200Y-87506002D01*
X141064999Y-87535001D01*
X141180724Y-87629974D01*
X141312753Y-87700546D01*
X141456014Y-87744003D01*
X141557484Y-87753997D01*
X141605000Y-87758677D01*
X141642333Y-87755000D01*
X149625683Y-87755000D01*
X149580241Y-87785363D01*
X149380363Y-87985241D01*
X149223320Y-88220273D01*
X149115147Y-88481426D01*
X149060000Y-88758665D01*
X149060000Y-89041335D01*
X149115147Y-89318574D01*
X149223320Y-89579727D01*
X149380363Y-89814759D01*
X149580241Y-90014637D01*
X149815273Y-90171680D01*
X150076426Y-90279853D01*
X150353665Y-90335000D01*
X150636335Y-90335000D01*
X150913574Y-90279853D01*
X151174727Y-90171680D01*
X151409759Y-90014637D01*
X151609637Y-89814759D01*
X151669278Y-89725500D01*
X152495722Y-89725500D01*
X152555363Y-89814759D01*
X152755241Y-90014637D01*
X152990273Y-90171680D01*
X153251426Y-90279853D01*
X153528665Y-90335000D01*
X153811335Y-90335000D01*
X154088574Y-90279853D01*
X154349727Y-90171680D01*
X154584759Y-90014637D01*
X154784637Y-89814759D01*
X154941680Y-89579727D01*
X155049853Y-89318574D01*
X155105000Y-89041335D01*
X155105000Y-88758665D01*
X155049853Y-88481426D01*
X154941680Y-88220273D01*
X154784637Y-87985241D01*
X154584759Y-87785363D01*
X154539317Y-87755000D01*
X155735136Y-87755000D01*
X155665764Y-87983691D01*
X155638057Y-88265000D01*
X155665764Y-88546309D01*
X155747818Y-88816808D01*
X155881068Y-89066101D01*
X156060392Y-89284608D01*
X156278899Y-89463932D01*
X156406741Y-89532265D01*
X156177161Y-89682399D01*
X155975500Y-89880105D01*
X155816285Y-90113354D01*
X155705633Y-90373182D01*
X155688096Y-90455961D01*
X155810085Y-90678000D01*
X157353000Y-90678000D01*
X157353000Y-90658000D01*
X157607000Y-90658000D01*
X157607000Y-90678000D01*
X159149915Y-90678000D01*
X159271904Y-90455961D01*
X159254367Y-90373182D01*
X159143715Y-90113354D01*
X158984500Y-89880105D01*
X158782839Y-89682399D01*
X158553259Y-89532265D01*
X158681101Y-89463932D01*
X158899608Y-89284608D01*
X159078932Y-89066101D01*
X159212182Y-88816808D01*
X159294236Y-88546309D01*
X159321943Y-88265000D01*
X159294236Y-87983691D01*
X159224864Y-87755000D01*
X163355136Y-87755000D01*
X163285764Y-87983691D01*
X163258057Y-88265000D01*
X163285764Y-88546309D01*
X163367818Y-88816808D01*
X163501068Y-89066101D01*
X163680392Y-89284608D01*
X163898899Y-89463932D01*
X164031858Y-89535000D01*
X163898899Y-89606068D01*
X163680392Y-89785392D01*
X163501068Y-90003899D01*
X163367818Y-90253192D01*
X163285764Y-90523691D01*
X163258057Y-90805000D01*
X163285764Y-91086309D01*
X163367818Y-91356808D01*
X163501068Y-91606101D01*
X163680392Y-91824608D01*
X163898899Y-92003932D01*
X164031858Y-92075000D01*
X163898899Y-92146068D01*
X163680392Y-92325392D01*
X163501068Y-92543899D01*
X163467843Y-92606059D01*
X163357753Y-92639454D01*
X163225724Y-92710026D01*
X163109999Y-92804999D01*
X163086201Y-92833997D01*
X162024377Y-93895821D01*
X162003928Y-93865217D01*
X161959991Y-93821280D01*
X161959991Y-92053711D01*
X162003928Y-92009774D01*
X162117196Y-91840256D01*
X162195217Y-91651898D01*
X162234991Y-91451939D01*
X162234991Y-91248061D01*
X162195217Y-91048102D01*
X162117196Y-90859744D01*
X162003928Y-90690226D01*
X161859765Y-90546063D01*
X161690247Y-90432795D01*
X161501889Y-90354774D01*
X161301930Y-90315000D01*
X161098052Y-90315000D01*
X160898093Y-90354774D01*
X160709735Y-90432795D01*
X160540217Y-90546063D01*
X160396054Y-90690226D01*
X160282786Y-90859744D01*
X160204765Y-91048102D01*
X160164991Y-91248061D01*
X160164991Y-91451939D01*
X160204765Y-91651898D01*
X160282786Y-91840256D01*
X160396054Y-92009774D01*
X160439992Y-92053712D01*
X160439991Y-93821280D01*
X160396054Y-93865217D01*
X160282786Y-94034735D01*
X160204765Y-94223093D01*
X160164991Y-94423052D01*
X160164991Y-94626930D01*
X160204765Y-94826889D01*
X160282786Y-95015247D01*
X160396054Y-95184765D01*
X160540217Y-95328928D01*
X160570822Y-95349377D01*
X159963994Y-95956205D01*
X159934990Y-95980008D01*
X159894173Y-96029744D01*
X159840017Y-96095733D01*
X159827046Y-96120000D01*
X159769445Y-96227763D01*
X159725988Y-96371024D01*
X159718420Y-96447860D01*
X159671054Y-96495226D01*
X159557786Y-96664744D01*
X159479765Y-96853102D01*
X159439991Y-97053061D01*
X159439991Y-97256939D01*
X159479765Y-97456898D01*
X159557786Y-97645256D01*
X159671054Y-97814774D01*
X159815217Y-97958937D01*
X159984735Y-98072205D01*
X160173093Y-98150226D01*
X160373052Y-98190000D01*
X160576930Y-98190000D01*
X160776889Y-98150226D01*
X160965247Y-98072205D01*
X161134765Y-97958937D01*
X161278928Y-97814774D01*
X161392196Y-97645256D01*
X161470217Y-97456898D01*
X161471135Y-97452282D01*
X161623094Y-97515226D01*
X161823053Y-97555000D01*
X162026931Y-97555000D01*
X162226890Y-97515226D01*
X162415248Y-97437205D01*
X162584766Y-97323937D01*
X162728929Y-97179774D01*
X162842197Y-97010256D01*
X162920218Y-96821898D01*
X162955405Y-96645000D01*
X163479099Y-96645000D01*
X163501068Y-96686101D01*
X163680392Y-96904608D01*
X163898899Y-97083932D01*
X164031858Y-97155000D01*
X163898899Y-97226068D01*
X163680392Y-97405392D01*
X163501068Y-97623899D01*
X163367818Y-97873192D01*
X163285764Y-98143691D01*
X163258057Y-98425000D01*
X163285764Y-98706309D01*
X163367818Y-98976808D01*
X163501068Y-99226101D01*
X163680392Y-99444608D01*
X163898899Y-99623932D01*
X164148192Y-99757182D01*
X164418691Y-99839236D01*
X164629508Y-99860000D01*
X165570492Y-99860000D01*
X165781309Y-99839236D01*
X166051808Y-99757182D01*
X166301101Y-99623932D01*
X166519608Y-99444608D01*
X166698932Y-99226101D01*
X166785110Y-99064873D01*
X166794276Y-99059974D01*
X166910001Y-98965001D01*
X166933803Y-98935998D01*
X167516004Y-98353798D01*
X167545001Y-98330001D01*
X167639974Y-98214276D01*
X167710546Y-98082247D01*
X167754003Y-97938986D01*
X167765000Y-97827333D01*
X167765000Y-97827332D01*
X167768677Y-97790000D01*
X167765000Y-97752667D01*
X167765000Y-95035000D01*
X168691928Y-95035000D01*
X168691928Y-96735000D01*
X168704188Y-96859482D01*
X168740498Y-96979180D01*
X168799463Y-97089494D01*
X168878815Y-97186185D01*
X168975506Y-97265537D01*
X169085820Y-97324502D01*
X169158380Y-97346513D01*
X169026525Y-97478368D01*
X168864010Y-97721589D01*
X168752068Y-97991842D01*
X168695000Y-98278740D01*
X168695000Y-98571260D01*
X168752068Y-98858158D01*
X168864010Y-99128411D01*
X169026525Y-99371632D01*
X169233368Y-99578475D01*
X169476589Y-99740990D01*
X169746842Y-99852932D01*
X170033740Y-99910000D01*
X170326260Y-99910000D01*
X170613158Y-99852932D01*
X170883411Y-99740990D01*
X171126632Y-99578475D01*
X171333475Y-99371632D01*
X171495990Y-99128411D01*
X171607932Y-98858158D01*
X171665000Y-98571260D01*
X171665000Y-98278740D01*
X171607932Y-97991842D01*
X171495990Y-97721589D01*
X171333475Y-97478368D01*
X171201620Y-97346513D01*
X171274180Y-97324502D01*
X171384494Y-97265537D01*
X171481185Y-97186185D01*
X171560537Y-97089494D01*
X171619502Y-96979180D01*
X171655812Y-96859482D01*
X171668072Y-96735000D01*
X171668072Y-95035000D01*
X171655812Y-94910518D01*
X171619502Y-94790820D01*
X171560537Y-94680506D01*
X171481185Y-94583815D01*
X171384494Y-94504463D01*
X171274180Y-94445498D01*
X171154482Y-94409188D01*
X171030000Y-94396928D01*
X169330000Y-94396928D01*
X169205518Y-94409188D01*
X169085820Y-94445498D01*
X168975506Y-94504463D01*
X168878815Y-94583815D01*
X168799463Y-94680506D01*
X168740498Y-94790820D01*
X168704188Y-94910518D01*
X168691928Y-95035000D01*
X167765000Y-95035000D01*
X167765000Y-92568665D01*
X168745000Y-92568665D01*
X168745000Y-92851335D01*
X168800147Y-93128574D01*
X168908320Y-93389727D01*
X169065363Y-93624759D01*
X169265241Y-93824637D01*
X169500273Y-93981680D01*
X169761426Y-94089853D01*
X170038665Y-94145000D01*
X170321335Y-94145000D01*
X170598574Y-94089853D01*
X170859727Y-93981680D01*
X171094759Y-93824637D01*
X171294637Y-93624759D01*
X171451680Y-93389727D01*
X171559853Y-93128574D01*
X171615000Y-92851335D01*
X171615000Y-92568665D01*
X171559853Y-92291426D01*
X171451680Y-92030273D01*
X171294637Y-91795241D01*
X171094759Y-91595363D01*
X170859727Y-91438320D01*
X170598574Y-91330147D01*
X170321335Y-91275000D01*
X170038665Y-91275000D01*
X169761426Y-91330147D01*
X169500273Y-91438320D01*
X169265241Y-91595363D01*
X169065363Y-91795241D01*
X168908320Y-92030273D01*
X168800147Y-92291426D01*
X168745000Y-92568665D01*
X167765000Y-92568665D01*
X167765000Y-82569000D01*
X167868939Y-82569000D01*
X168068898Y-82529226D01*
X168257256Y-82451205D01*
X168320921Y-82408665D01*
X168745000Y-82408665D01*
X168745000Y-82691335D01*
X168800147Y-82968574D01*
X168908320Y-83229727D01*
X169065363Y-83464759D01*
X169265241Y-83664637D01*
X169500273Y-83821680D01*
X169761426Y-83929853D01*
X170038665Y-83985000D01*
X170321335Y-83985000D01*
X170598574Y-83929853D01*
X170859727Y-83821680D01*
X171094759Y-83664637D01*
X171294637Y-83464759D01*
X171451680Y-83229727D01*
X171559853Y-82968574D01*
X171615000Y-82691335D01*
X171615000Y-82408665D01*
X171559853Y-82131426D01*
X171451680Y-81870273D01*
X171294637Y-81635241D01*
X171094759Y-81435363D01*
X170859727Y-81278320D01*
X170598574Y-81170147D01*
X170321335Y-81115000D01*
X170038665Y-81115000D01*
X169761426Y-81170147D01*
X169500273Y-81278320D01*
X169265241Y-81435363D01*
X169065363Y-81635241D01*
X168908320Y-81870273D01*
X168800147Y-82131426D01*
X168745000Y-82408665D01*
X168320921Y-82408665D01*
X168426774Y-82337937D01*
X168570937Y-82193774D01*
X168684205Y-82024256D01*
X168762226Y-81835898D01*
X168802000Y-81635939D01*
X168802000Y-81432061D01*
X168762226Y-81232102D01*
X168684205Y-81043744D01*
X168570937Y-80874226D01*
X168527000Y-80830289D01*
X168527000Y-79920325D01*
X168530676Y-79883000D01*
X168527000Y-79845675D01*
X168527000Y-79845667D01*
X168516003Y-79734014D01*
X168478280Y-79609656D01*
X168849321Y-79763346D01*
X169310098Y-79855000D01*
X169779902Y-79855000D01*
X170240679Y-79763346D01*
X170674721Y-79583560D01*
X171065349Y-79322550D01*
X171397550Y-78990349D01*
X171658560Y-78599721D01*
X171838346Y-78165679D01*
X171930000Y-77704902D01*
X171930000Y-77235098D01*
X171838346Y-76774321D01*
X171658560Y-76340279D01*
X171397550Y-75949651D01*
X171065349Y-75617450D01*
X170674721Y-75356440D01*
X170240679Y-75176654D01*
X169779902Y-75085000D01*
X169310098Y-75085000D01*
X168849321Y-75176654D01*
X168415279Y-75356440D01*
X168024651Y-75617450D01*
X167692450Y-75949651D01*
X167431440Y-76340279D01*
X167251654Y-76774321D01*
X167160000Y-77235098D01*
X167160000Y-77704902D01*
X167251654Y-78165679D01*
X167341579Y-78382778D01*
X166552804Y-77594003D01*
X166529001Y-77564999D01*
X166413276Y-77470026D01*
X166281247Y-77399454D01*
X166137986Y-77355997D01*
X166026333Y-77345000D01*
X166026322Y-77345000D01*
X165989000Y-77341324D01*
X165951678Y-77345000D01*
X165171983Y-77345000D01*
X165209853Y-77253574D01*
X165265000Y-76976335D01*
X165265000Y-76693665D01*
X165209853Y-76416426D01*
X165101680Y-76155273D01*
X164944637Y-75920241D01*
X164744759Y-75720363D01*
X164509727Y-75563320D01*
X164248574Y-75455147D01*
X163971335Y-75400000D01*
X163688665Y-75400000D01*
X163411426Y-75455147D01*
X163150273Y-75563320D01*
X162915241Y-75720363D01*
X162715363Y-75920241D01*
X162558320Y-76155273D01*
X162450147Y-76416426D01*
X162395000Y-76693665D01*
X162395000Y-76976335D01*
X162450147Y-77253574D01*
X162488017Y-77345000D01*
X160176217Y-77345000D01*
X160187571Y-77321004D01*
X160256300Y-77046816D01*
X160270217Y-76764488D01*
X160228787Y-76484870D01*
X160133603Y-76218708D01*
X160066671Y-76093486D01*
X159822702Y-76021903D01*
X159009605Y-76835000D01*
X159023748Y-76849143D01*
X158844143Y-77028748D01*
X158830000Y-77014605D01*
X158815858Y-77028748D01*
X158636253Y-76849143D01*
X158650395Y-76835000D01*
X157837298Y-76021903D01*
X157593329Y-76093486D01*
X157472429Y-76348996D01*
X157403700Y-76623184D01*
X157389783Y-76905512D01*
X157431213Y-77185130D01*
X157488385Y-77345000D01*
X152333802Y-77345000D01*
X150831100Y-75842298D01*
X158016903Y-75842298D01*
X158830000Y-76655395D01*
X159643097Y-75842298D01*
X159571514Y-75598329D01*
X159316004Y-75477429D01*
X159041816Y-75408700D01*
X158759488Y-75394783D01*
X158479870Y-75436213D01*
X158213708Y-75531397D01*
X158088486Y-75598329D01*
X158016903Y-75842298D01*
X150831100Y-75842298D01*
X150677804Y-75689003D01*
X150654001Y-75659999D01*
X150538276Y-75565026D01*
X150406247Y-75494454D01*
X150262986Y-75450997D01*
X150151333Y-75440000D01*
X150151322Y-75440000D01*
X150114000Y-75436324D01*
X150076678Y-75440000D01*
X147357333Y-75440000D01*
X147320000Y-75436323D01*
X147282667Y-75440000D01*
X147171014Y-75450997D01*
X147027753Y-75494454D01*
X146895724Y-75565026D01*
X146779999Y-75659999D01*
X146756200Y-75688998D01*
X146458006Y-75987193D01*
X146247875Y-76028990D01*
X145975147Y-76141958D01*
X145729698Y-76305961D01*
X145520961Y-76514698D01*
X145410441Y-76680103D01*
X145351817Y-76581512D01*
X145155293Y-76363146D01*
X144919944Y-76187316D01*
X144654814Y-76060778D01*
X144504026Y-76015042D01*
X144272000Y-76136183D01*
X144272000Y-77343000D01*
X144292000Y-77343000D01*
X144292000Y-77597000D01*
X144272000Y-77597000D01*
X144272000Y-77617000D01*
X144018000Y-77617000D01*
X144018000Y-77597000D01*
X143998000Y-77597000D01*
X143998000Y-77343000D01*
X144018000Y-77343000D01*
X144018000Y-76136183D01*
X143785974Y-76015042D01*
X143635186Y-76060778D01*
X143370056Y-76187316D01*
X143134707Y-76363146D01*
X142938183Y-76581512D01*
X142879559Y-76680103D01*
X142769039Y-76514698D01*
X142560302Y-76305961D01*
X142314853Y-76141958D01*
X142042125Y-76028990D01*
X141752599Y-75971400D01*
X141457401Y-75971400D01*
X141167875Y-76028990D01*
X140895147Y-76141958D01*
X140649698Y-76305961D01*
X140440961Y-76514698D01*
X140335000Y-76673281D01*
X140229039Y-76514698D01*
X140020302Y-76305961D01*
X139774853Y-76141958D01*
X139502125Y-76028990D01*
X139212599Y-75971400D01*
X138917401Y-75971400D01*
X138627875Y-76028990D01*
X138355147Y-76141958D01*
X138109698Y-76305961D01*
X137900961Y-76514698D01*
X137736958Y-76760147D01*
X137623990Y-77032875D01*
X137566400Y-77322401D01*
X137566400Y-77617599D01*
X137623990Y-77907125D01*
X137654176Y-77980000D01*
X135958711Y-77980000D01*
X135914774Y-77936063D01*
X135745256Y-77822795D01*
X135556898Y-77744774D01*
X135356939Y-77705000D01*
X135153061Y-77705000D01*
X134953102Y-77744774D01*
X134764744Y-77822795D01*
X134595226Y-77936063D01*
X134451063Y-78080226D01*
X134337795Y-78249744D01*
X134259774Y-78438102D01*
X134220000Y-78638061D01*
X120822919Y-78638061D01*
X120858560Y-78584722D01*
X121038346Y-78150680D01*
X121130000Y-77689903D01*
X121130000Y-77220099D01*
X121038346Y-76759322D01*
X120858560Y-76325280D01*
X120597550Y-75934652D01*
X120265349Y-75602451D01*
X119874721Y-75341441D01*
X119440679Y-75161655D01*
X118979902Y-75070001D01*
X118510098Y-75070001D01*
X118049321Y-75161655D01*
X117615279Y-75341441D01*
X117224651Y-75602451D01*
X116892450Y-75934652D01*
X116631440Y-76325280D01*
X116451654Y-76759322D01*
X116360000Y-77220099D01*
X115622668Y-77220099D01*
X115658096Y-76858778D01*
X115835606Y-76270836D01*
X116123937Y-75728564D01*
X116512094Y-75252636D01*
X116985314Y-74861155D01*
X117525552Y-74569049D01*
X118112244Y-74387437D01*
X118753879Y-74320000D01*
X169512721Y-74320000D01*
X170156222Y-74383096D01*
G37*
G04 #@! TD.AperFunction*
M02*
