G04 #@! TF.GenerationSoftware,KiCad,Pcbnew,(5.1.8)-1*
G04 #@! TF.CreationDate,2021-02-26T23:44:02+01:00*
G04 #@! TF.ProjectId,Sega Mega Drive,53656761-204d-4656-9761-204472697665,rev?*
G04 #@! TF.SameCoordinates,Original*
G04 #@! TF.FileFunction,Copper,L1,Top*
G04 #@! TF.FilePolarity,Positive*
%FSLAX46Y46*%
G04 Gerber Fmt 4.6, Leading zero omitted, Abs format (unit mm)*
G04 Created by KiCad (PCBNEW (5.1.8)-1) date 2021-02-26 23:44:02*
%MOMM*%
%LPD*%
G01*
G04 APERTURE LIST*
G04 #@! TA.AperFunction,ComponentPad*
%ADD10R,1.700000X1.700000*%
G04 #@! TD*
G04 #@! TA.AperFunction,ComponentPad*
%ADD11O,1.700000X1.700000*%
G04 #@! TD*
G04 #@! TA.AperFunction,ComponentPad*
%ADD12O,1.727200X1.727200*%
G04 #@! TD*
G04 #@! TA.AperFunction,ComponentPad*
%ADD13R,1.727200X1.727200*%
G04 #@! TD*
G04 #@! TA.AperFunction,ComponentPad*
%ADD14C,1.600000*%
G04 #@! TD*
G04 #@! TA.AperFunction,ComponentPad*
%ADD15C,2.000000*%
G04 #@! TD*
G04 #@! TA.AperFunction,ComponentPad*
%ADD16R,2.400000X1.600000*%
G04 #@! TD*
G04 #@! TA.AperFunction,ComponentPad*
%ADD17O,2.400000X1.600000*%
G04 #@! TD*
G04 #@! TA.AperFunction,ComponentPad*
%ADD18C,3.500000*%
G04 #@! TD*
G04 #@! TA.AperFunction,ComponentPad*
%ADD19O,1.600000X1.600000*%
G04 #@! TD*
G04 #@! TA.AperFunction,ViaPad*
%ADD20C,0.800000*%
G04 #@! TD*
G04 #@! TA.AperFunction,Conductor*
%ADD21C,0.381000*%
G04 #@! TD*
G04 #@! TA.AperFunction,Conductor*
%ADD22C,0.250000*%
G04 #@! TD*
G04 APERTURE END LIST*
D10*
X118110000Y-90170000D03*
D11*
X120650000Y-90170000D03*
X118110000Y-92710000D03*
X120650000Y-92710000D03*
X118110000Y-95250000D03*
X120650000Y-95250000D03*
D12*
X149225000Y-77470000D03*
X146685000Y-77470000D03*
X144145000Y-77470000D03*
X141605000Y-77470000D03*
X139065000Y-77470000D03*
X149225000Y-80010000D03*
X146685000Y-80010000D03*
X144145000Y-80010000D03*
X141605000Y-80010000D03*
D13*
X139065000Y-80010000D03*
D12*
X160655000Y-105410000D03*
X158115000Y-105410000D03*
X155575000Y-105410000D03*
X153035000Y-105410000D03*
X150495000Y-105410000D03*
X160655000Y-107950000D03*
X158115000Y-107950000D03*
X155575000Y-107950000D03*
X153035000Y-107950000D03*
D13*
X150495000Y-107950000D03*
D14*
X163830000Y-76835000D03*
X158830000Y-76835000D03*
D13*
X127635000Y-107950000D03*
D12*
X130175000Y-107950000D03*
X132715000Y-107950000D03*
X135255000Y-107950000D03*
X137795000Y-107950000D03*
X127635000Y-105410000D03*
X130175000Y-105410000D03*
X132715000Y-105410000D03*
X135255000Y-105410000D03*
X137795000Y-105410000D03*
D15*
X140895000Y-94960000D03*
X140895000Y-90460000D03*
X147395000Y-94960000D03*
X147395000Y-90460000D03*
D16*
X157480000Y-80645000D03*
D17*
X165100000Y-98425000D03*
X157480000Y-83185000D03*
X165100000Y-95885000D03*
X157480000Y-85725000D03*
X165100000Y-93345000D03*
X157480000Y-88265000D03*
X165100000Y-90805000D03*
X157480000Y-90805000D03*
X165100000Y-88265000D03*
X157480000Y-93345000D03*
X165100000Y-85725000D03*
X157480000Y-95885000D03*
X165100000Y-83185000D03*
X157480000Y-98425000D03*
X165100000Y-80645000D03*
D18*
X118745000Y-107950000D03*
X169545000Y-107950000D03*
X169545000Y-77470000D03*
X118745000Y-77455001D03*
D10*
X170180000Y-95885000D03*
D11*
X170180000Y-98425000D03*
D19*
X134620000Y-99060000D03*
D14*
X134620000Y-88900000D03*
X150495000Y-88900000D03*
D19*
X150495000Y-99060000D03*
X137795000Y-99060000D03*
D14*
X137795000Y-88900000D03*
X153670000Y-88900000D03*
D19*
X153670000Y-99060000D03*
X144145000Y-85725000D03*
D14*
X154305000Y-85725000D03*
X170180000Y-82550000D03*
D19*
X170180000Y-92710000D03*
X131445000Y-99060000D03*
D14*
X131445000Y-88900000D03*
X130810000Y-85725000D03*
D19*
X140970000Y-85725000D03*
D14*
X128270000Y-88900000D03*
D19*
X128270000Y-99060000D03*
D20*
X161924992Y-96520000D03*
X160474991Y-97155000D03*
X161199991Y-94524991D03*
X161199991Y-91350000D03*
X142150000Y-99060000D03*
X145595001Y-100965000D03*
X153670000Y-103415000D03*
X144145000Y-98298000D03*
X146685000Y-99060000D03*
X167767000Y-81534000D03*
X135255000Y-78740000D03*
X162560000Y-78830000D03*
D21*
X165100000Y-80645000D02*
X161290000Y-80645000D01*
X149225000Y-80010000D02*
X153670000Y-80010000D01*
X153670000Y-80010000D02*
X155575000Y-81915000D01*
X160020000Y-81915000D02*
X161290000Y-80645000D01*
X155575000Y-81915000D02*
X160020000Y-81915000D01*
X170180000Y-82550000D02*
X172085000Y-84455000D01*
X154305000Y-88265000D02*
X153670000Y-88900000D01*
X154305000Y-85725000D02*
X154305000Y-88265000D01*
X134620000Y-88900000D02*
X131445000Y-88900000D01*
X154305000Y-83185000D02*
X155575000Y-81915000D01*
X154305000Y-85725000D02*
X154305000Y-83185000D01*
X170180000Y-81280000D02*
X170180000Y-82550000D01*
X165100000Y-80645000D02*
X169545000Y-80645000D01*
X169545000Y-80645000D02*
X170180000Y-81280000D01*
X165100000Y-78105000D02*
X163830000Y-76835000D01*
X165100000Y-80645000D02*
X165100000Y-78105000D01*
X137795000Y-88900000D02*
X136207500Y-88900000D01*
X136207500Y-88900000D02*
X134620000Y-88900000D01*
X137795000Y-74930000D02*
X161925000Y-74930000D01*
X136207500Y-76517500D02*
X137795000Y-74930000D01*
X161925000Y-74930000D02*
X163830000Y-76835000D01*
X128270000Y-88900000D02*
X131445000Y-88900000D01*
X135255000Y-85725000D02*
X136207500Y-84772500D01*
X136207500Y-84772500D02*
X136207500Y-76517500D01*
X130810000Y-85725000D02*
X135255000Y-85725000D01*
X136207500Y-88900000D02*
X136207500Y-84772500D01*
X170180000Y-95885000D02*
X170815000Y-95885000D01*
X170815000Y-95885000D02*
X172085000Y-94615000D01*
X172085000Y-84455000D02*
X172085000Y-94615000D01*
D22*
X136525000Y-106680000D02*
X137795000Y-107950000D01*
X131445000Y-103505000D02*
X131445000Y-106045000D01*
X130810000Y-102870000D02*
X131445000Y-103505000D01*
X122553589Y-102870000D02*
X130810000Y-102870000D01*
X121920000Y-96520000D02*
X121920000Y-102236411D01*
X120650000Y-95250000D02*
X121920000Y-96520000D01*
X131445000Y-106045000D02*
X132080000Y-106680000D01*
X121920000Y-102236411D02*
X122553589Y-102870000D01*
X132080000Y-106680000D02*
X136525000Y-106680000D01*
X119380000Y-96520000D02*
X119380000Y-91440000D01*
X119380000Y-91440000D02*
X120650000Y-90170000D01*
X121285000Y-98425000D02*
X119380000Y-96520000D01*
X121285000Y-102870000D02*
X121285000Y-98425000D01*
X121920000Y-103505000D02*
X121285000Y-102870000D01*
X127000000Y-103505000D02*
X121920000Y-103505000D01*
X127635000Y-104140000D02*
X127000000Y-103505000D01*
X127635000Y-105410000D02*
X127635000Y-104140000D01*
X134620000Y-102235000D02*
X135255000Y-102870000D01*
X123190000Y-102235000D02*
X134620000Y-102235000D01*
X135255000Y-102870000D02*
X135255000Y-105410000D01*
X122555000Y-101600000D02*
X123190000Y-102235000D01*
X122555000Y-93345000D02*
X122555000Y-101600000D01*
X121920000Y-92710000D02*
X122555000Y-93345000D01*
X120650000Y-92710000D02*
X121920000Y-92710000D01*
X158115000Y-104140000D02*
X158115000Y-105410000D01*
X158750000Y-103505000D02*
X158115000Y-104140000D01*
X161290000Y-103505000D02*
X158750000Y-103505000D01*
X161924992Y-102870008D02*
X161290000Y-103505000D01*
X161924992Y-96520000D02*
X161924992Y-102870008D01*
X167005000Y-95885000D02*
X170180000Y-92710000D01*
X165100000Y-95885000D02*
X167005000Y-95885000D01*
X144870001Y-89625001D02*
X144870001Y-102960001D01*
X144145000Y-88900000D02*
X144870001Y-89625001D01*
X144145000Y-85725000D02*
X144145000Y-88900000D01*
X144870001Y-102960001D02*
X146050000Y-104140000D01*
X150495000Y-105410000D02*
X150495000Y-104140000D01*
X150495000Y-104140000D02*
X146050000Y-104140000D01*
X151130000Y-104140000D02*
X150495000Y-104140000D01*
X154305000Y-104140000D02*
X151130000Y-104140000D01*
X156210000Y-102235000D02*
X154305000Y-104140000D01*
X160020000Y-102235000D02*
X156210000Y-102235000D01*
X160474991Y-101780009D02*
X160020000Y-102235000D01*
X160474991Y-97155000D02*
X160474991Y-101780009D01*
X160655000Y-107950000D02*
X162560000Y-107950000D01*
X162560000Y-107950000D02*
X163195000Y-107315000D01*
X164465000Y-88265000D02*
X163195000Y-89535000D01*
X165100000Y-88265000D02*
X164465000Y-88265000D01*
X163195000Y-107315000D02*
X163195000Y-89535000D01*
X160942002Y-93344996D02*
X160941998Y-93345000D01*
X162560000Y-93980000D02*
X161924996Y-93344996D01*
X162560000Y-96082006D02*
X162560000Y-93980000D01*
X162649993Y-105955007D02*
X162649993Y-96171999D01*
X161924996Y-93344996D02*
X160942002Y-93344996D01*
X161925000Y-106680000D02*
X162649993Y-105955007D01*
X160941998Y-93345000D02*
X157480000Y-93345000D01*
X159385000Y-106680000D02*
X161925000Y-106680000D01*
X162649993Y-96171999D02*
X162560000Y-96082006D01*
X158115000Y-107950000D02*
X159385000Y-106680000D01*
X156210000Y-93345000D02*
X157480000Y-93345000D01*
X153670000Y-95885000D02*
X156210000Y-93345000D01*
X153670000Y-99060000D02*
X153670000Y-95885000D01*
X157480000Y-85725000D02*
X160655000Y-85725000D01*
X161199991Y-86269991D02*
X160655000Y-85725000D01*
X161199991Y-91350000D02*
X161199991Y-86269991D01*
X137795000Y-99060000D02*
X142150000Y-99060000D01*
X145595001Y-102689999D02*
X145595001Y-100965000D01*
X146320002Y-103415000D02*
X145595001Y-102689999D01*
X153670000Y-103415000D02*
X146320002Y-103415000D01*
X156845000Y-103505000D02*
X156845000Y-106680000D01*
X157479295Y-102870705D02*
X156845000Y-103505000D01*
X156845000Y-106680000D02*
X155575000Y-107950000D01*
X160654295Y-102870705D02*
X157479295Y-102870705D01*
X161199991Y-102325009D02*
X160654295Y-102870705D01*
X161199991Y-94524991D02*
X161199991Y-102325009D01*
X150495000Y-99060000D02*
X146685000Y-99060000D01*
X142875000Y-81280000D02*
X141605000Y-80010000D01*
X142875000Y-88900000D02*
X142875000Y-81280000D01*
X144145000Y-90170000D02*
X142875000Y-88900000D01*
X144145000Y-98298000D02*
X144145000Y-90170000D01*
X151765000Y-106680000D02*
X153035000Y-107950000D01*
X144145000Y-103505000D02*
X147320000Y-106680000D01*
X147320000Y-106680000D02*
X151765000Y-106680000D01*
X144145000Y-98298000D02*
X144145000Y-103505000D01*
X134620000Y-99060000D02*
X134620000Y-100330000D01*
X134620000Y-100330000D02*
X135255000Y-100965000D01*
X142240000Y-100965000D02*
X142875000Y-100330000D01*
X135255000Y-100965000D02*
X142240000Y-100965000D01*
X142303500Y-89344500D02*
X142303500Y-83248500D01*
X142303500Y-83248500D02*
X139065000Y-80010000D01*
X142875000Y-89916000D02*
X142303500Y-89344500D01*
X142875000Y-100330000D02*
X142875000Y-89916000D01*
X147320000Y-107950000D02*
X150495000Y-107950000D01*
X142875000Y-103505000D02*
X147320000Y-107950000D01*
X142875000Y-100330000D02*
X142875000Y-103505000D01*
X167767000Y-90043000D02*
X167767000Y-81534000D01*
X167005000Y-90805000D02*
X167767000Y-90043000D01*
X165100000Y-90805000D02*
X167005000Y-90805000D01*
X155575000Y-80645000D02*
X157480000Y-80645000D01*
X151130000Y-76200000D02*
X155575000Y-80645000D01*
X142240000Y-76200000D02*
X151130000Y-76200000D01*
X141605000Y-76835000D02*
X142240000Y-76200000D01*
X141605000Y-77470000D02*
X141605000Y-76835000D01*
X128270000Y-78740000D02*
X135255000Y-78740000D01*
X126365000Y-80645000D02*
X128270000Y-78740000D01*
X126365000Y-98425000D02*
X126365000Y-80645000D01*
X127000000Y-99060000D02*
X126365000Y-98425000D01*
X128270000Y-99060000D02*
X127000000Y-99060000D01*
X139065000Y-77470000D02*
X139065000Y-76200000D01*
X139065000Y-76200000D02*
X139700000Y-75565000D01*
X139700000Y-75565000D02*
X151765000Y-75565000D01*
X155030000Y-78830000D02*
X162560000Y-78830000D01*
X151765000Y-75565000D02*
X155030000Y-78830000D01*
X145542000Y-81153000D02*
X146685000Y-80010000D01*
X146050000Y-100330000D02*
X145542000Y-99822000D01*
X154940000Y-100330000D02*
X146050000Y-100330000D01*
X155575000Y-99695000D02*
X154940000Y-100330000D01*
X145542000Y-99822000D02*
X145542000Y-81153000D01*
X155575000Y-96520000D02*
X155575000Y-99695000D01*
X156210000Y-95885000D02*
X155575000Y-96520000D01*
X157480000Y-95885000D02*
X156210000Y-95885000D01*
X155384500Y-90360500D02*
X157480000Y-88265000D01*
X152908000Y-90360500D02*
X155384500Y-90360500D01*
X152082500Y-89535000D02*
X152908000Y-90360500D01*
X147955000Y-83756500D02*
X152082500Y-87884000D01*
X147955000Y-79375000D02*
X147955000Y-83756500D01*
X152082500Y-87884000D02*
X152082500Y-89535000D01*
X147320000Y-78740000D02*
X147955000Y-79375000D01*
X147320000Y-78740000D02*
X144780000Y-78740000D01*
X144145000Y-79375000D02*
X144145000Y-80010000D01*
X144780000Y-78740000D02*
X144145000Y-79375000D01*
X118110000Y-90170000D02*
X118110000Y-92710000D01*
X118110000Y-92710000D02*
X118110000Y-95250000D01*
X131445000Y-99060000D02*
X131445000Y-95940000D01*
X131445000Y-95940000D02*
X132425000Y-94960000D01*
X140895000Y-94960000D02*
X132425000Y-94960000D01*
X162560000Y-86360000D02*
X163195000Y-85725000D01*
X161638002Y-92165002D02*
X162560000Y-91243004D01*
X160941998Y-92165002D02*
X161638002Y-92165002D01*
X160851996Y-92075000D02*
X160941998Y-92165002D01*
X163195000Y-85725000D02*
X165100000Y-85725000D01*
X162560000Y-91243004D02*
X162560000Y-86360000D01*
X156210000Y-92075000D02*
X160851996Y-92075000D01*
X153325000Y-94960000D02*
X156210000Y-92075000D01*
X147395000Y-94960000D02*
X153325000Y-94960000D01*
X118110000Y-89535000D02*
X118110000Y-90170000D01*
X122555000Y-88900000D02*
X118745000Y-88900000D01*
X123190000Y-89535000D02*
X122555000Y-88900000D01*
X118745000Y-88900000D02*
X118110000Y-89535000D01*
X123190000Y-100330000D02*
X123190000Y-89535000D01*
X123825000Y-100965000D02*
X123190000Y-100330000D01*
X130810000Y-100965000D02*
X123825000Y-100965000D01*
X131445000Y-100330000D02*
X130810000Y-100965000D01*
X131445000Y-99060000D02*
X131445000Y-100330000D01*
D21*
X154305000Y-109220000D02*
X154305000Y-106680000D01*
X154940000Y-109855000D02*
X154305000Y-109220000D01*
X163830000Y-109855000D02*
X154940000Y-109855000D01*
X164465000Y-109220000D02*
X163830000Y-109855000D01*
X164465000Y-104140000D02*
X164465000Y-109220000D01*
X154305000Y-106680000D02*
X153035000Y-105410000D01*
X170180000Y-98425000D02*
X164465000Y-104140000D01*
M02*
