G04 #@! TF.GenerationSoftware,KiCad,Pcbnew,(5.1.8)-1*
G04 #@! TF.CreationDate,2021-02-26T23:44:03+01:00*
G04 #@! TF.ProjectId,Sega Mega Drive,53656761-204d-4656-9761-204472697665,rev?*
G04 #@! TF.SameCoordinates,Original*
G04 #@! TF.FileFunction,Legend,Top*
G04 #@! TF.FilePolarity,Positive*
%FSLAX46Y46*%
G04 Gerber Fmt 4.6, Leading zero omitted, Abs format (unit mm)*
G04 Created by KiCad (PCBNEW (5.1.8)-1) date 2021-02-26 23:44:03*
%MOMM*%
%LPD*%
G01*
G04 APERTURE LIST*
%ADD10C,0.100000*%
%ADD11C,0.120000*%
%ADD12C,0.150000*%
G04 APERTURE END LIST*
D10*
X117056190Y-99726666D02*
X117018095Y-99688571D01*
X116941904Y-99574285D01*
X116903809Y-99498095D01*
X116865714Y-99383809D01*
X116827619Y-99193333D01*
X116827619Y-99040952D01*
X116865714Y-98850476D01*
X116903809Y-98736190D01*
X116941904Y-98660000D01*
X117018095Y-98545714D01*
X117056190Y-98507619D01*
X117360952Y-99421904D02*
X117360952Y-98621904D01*
X117665714Y-98621904D01*
X117741904Y-98660000D01*
X117780000Y-98698095D01*
X117818095Y-98774285D01*
X117818095Y-98888571D01*
X117780000Y-98964761D01*
X117741904Y-99002857D01*
X117665714Y-99040952D01*
X117360952Y-99040952D01*
X118313333Y-98621904D02*
X118465714Y-98621904D01*
X118541904Y-98660000D01*
X118618095Y-98736190D01*
X118656190Y-98888571D01*
X118656190Y-99155238D01*
X118618095Y-99307619D01*
X118541904Y-99383809D01*
X118465714Y-99421904D01*
X118313333Y-99421904D01*
X118237142Y-99383809D01*
X118160952Y-99307619D01*
X118122857Y-99155238D01*
X118122857Y-98888571D01*
X118160952Y-98736190D01*
X118237142Y-98660000D01*
X118313333Y-98621904D01*
X119456190Y-99421904D02*
X119189523Y-99040952D01*
X118999047Y-99421904D02*
X118999047Y-98621904D01*
X119303809Y-98621904D01*
X119380000Y-98660000D01*
X119418095Y-98698095D01*
X119456190Y-98774285D01*
X119456190Y-98888571D01*
X119418095Y-98964761D01*
X119380000Y-99002857D01*
X119303809Y-99040952D01*
X118999047Y-99040952D01*
X119684761Y-98621904D02*
X120141904Y-98621904D01*
X119913333Y-99421904D02*
X119913333Y-98621904D01*
X121437142Y-99421904D02*
X120980000Y-99421904D01*
X121208571Y-99421904D02*
X121208571Y-98621904D01*
X121132380Y-98736190D01*
X121056190Y-98812380D01*
X120980000Y-98850476D01*
X121703809Y-99726666D02*
X121741904Y-99688571D01*
X121818095Y-99574285D01*
X121856190Y-99498095D01*
X121894285Y-99383809D01*
X121932380Y-99193333D01*
X121932380Y-99040952D01*
X121894285Y-98850476D01*
X121856190Y-98736190D01*
X121818095Y-98660000D01*
X121741904Y-98545714D01*
X121703809Y-98507619D01*
X123233808Y-95192857D02*
X122967142Y-95192857D01*
X122967142Y-95611904D02*
X122967142Y-94811904D01*
X123348094Y-94811904D01*
X123652856Y-95611904D02*
X123652856Y-94811904D01*
X124490951Y-95611904D02*
X124224285Y-95230952D01*
X124033808Y-95611904D02*
X124033808Y-94811904D01*
X124338570Y-94811904D01*
X124414761Y-94850000D01*
X124452856Y-94888095D01*
X124490951Y-94964285D01*
X124490951Y-95078571D01*
X124452856Y-95154761D01*
X124414761Y-95192857D01*
X124338570Y-95230952D01*
X124033808Y-95230952D01*
X124833808Y-95192857D02*
X125100475Y-95192857D01*
X125214761Y-95611904D02*
X124833808Y-95611904D01*
X124833808Y-94811904D01*
X125214761Y-94811904D01*
X125481427Y-94811904D02*
X125976666Y-94811904D01*
X125709999Y-95116666D01*
X125824285Y-95116666D01*
X125900475Y-95154761D01*
X125938570Y-95192857D01*
X125976666Y-95269047D01*
X125976666Y-95459523D01*
X125938570Y-95535714D01*
X125900475Y-95573809D01*
X125824285Y-95611904D01*
X125595713Y-95611904D01*
X125519523Y-95573809D01*
X125481427Y-95535714D01*
X123102856Y-92652857D02*
X122836190Y-92652857D01*
X122836190Y-93071904D02*
X122836190Y-92271904D01*
X123217142Y-92271904D01*
X123521904Y-93071904D02*
X123521904Y-92271904D01*
X124359999Y-93071904D02*
X124093333Y-92690952D01*
X123902856Y-93071904D02*
X123902856Y-92271904D01*
X124207618Y-92271904D01*
X124283809Y-92310000D01*
X124321904Y-92348095D01*
X124359999Y-92424285D01*
X124359999Y-92538571D01*
X124321904Y-92614761D01*
X124283809Y-92652857D01*
X124207618Y-92690952D01*
X123902856Y-92690952D01*
X124702856Y-92652857D02*
X124969523Y-92652857D01*
X125083809Y-93071904D02*
X124702856Y-93071904D01*
X124702856Y-92271904D01*
X125083809Y-92271904D01*
X125388571Y-92348095D02*
X125426666Y-92310000D01*
X125502856Y-92271904D01*
X125693333Y-92271904D01*
X125769523Y-92310000D01*
X125807618Y-92348095D01*
X125845714Y-92424285D01*
X125845714Y-92500476D01*
X125807618Y-92614761D01*
X125350475Y-93071904D01*
X125845714Y-93071904D01*
X123077142Y-90112857D02*
X122810476Y-90112857D01*
X122810476Y-90531904D02*
X122810476Y-89731904D01*
X123191428Y-89731904D01*
X123496190Y-90531904D02*
X123496190Y-89731904D01*
X124334285Y-90531904D02*
X124067619Y-90150952D01*
X123877142Y-90531904D02*
X123877142Y-89731904D01*
X124181904Y-89731904D01*
X124258095Y-89770000D01*
X124296190Y-89808095D01*
X124334285Y-89884285D01*
X124334285Y-89998571D01*
X124296190Y-90074761D01*
X124258095Y-90112857D01*
X124181904Y-90150952D01*
X123877142Y-90150952D01*
X124677142Y-90112857D02*
X124943809Y-90112857D01*
X125058095Y-90531904D02*
X124677142Y-90531904D01*
X124677142Y-89731904D01*
X125058095Y-89731904D01*
X125820000Y-90531904D02*
X125362857Y-90531904D01*
X125591428Y-90531904D02*
X125591428Y-89731904D01*
X125515238Y-89846190D01*
X125439047Y-89922380D01*
X125362857Y-89960476D01*
X116205952Y-82193809D02*
X116320238Y-82231904D01*
X116510714Y-82231904D01*
X116586904Y-82193809D01*
X116625000Y-82155714D01*
X116663095Y-82079523D01*
X116663095Y-82003333D01*
X116625000Y-81927142D01*
X116586904Y-81889047D01*
X116510714Y-81850952D01*
X116358333Y-81812857D01*
X116282142Y-81774761D01*
X116244047Y-81736666D01*
X116205952Y-81660476D01*
X116205952Y-81584285D01*
X116244047Y-81508095D01*
X116282142Y-81470000D01*
X116358333Y-81431904D01*
X116548809Y-81431904D01*
X116663095Y-81470000D01*
X117310714Y-82193809D02*
X117234523Y-82231904D01*
X117082142Y-82231904D01*
X117005952Y-82193809D01*
X116967857Y-82117619D01*
X116967857Y-81812857D01*
X117005952Y-81736666D01*
X117082142Y-81698571D01*
X117234523Y-81698571D01*
X117310714Y-81736666D01*
X117348809Y-81812857D01*
X117348809Y-81889047D01*
X116967857Y-81965238D01*
X118034523Y-81698571D02*
X118034523Y-82346190D01*
X117996428Y-82422380D01*
X117958333Y-82460476D01*
X117882142Y-82498571D01*
X117767857Y-82498571D01*
X117691666Y-82460476D01*
X118034523Y-82193809D02*
X117958333Y-82231904D01*
X117805952Y-82231904D01*
X117729761Y-82193809D01*
X117691666Y-82155714D01*
X117653571Y-82079523D01*
X117653571Y-81850952D01*
X117691666Y-81774761D01*
X117729761Y-81736666D01*
X117805952Y-81698571D01*
X117958333Y-81698571D01*
X118034523Y-81736666D01*
X118758333Y-82231904D02*
X118758333Y-81812857D01*
X118720238Y-81736666D01*
X118644047Y-81698571D01*
X118491666Y-81698571D01*
X118415476Y-81736666D01*
X118758333Y-82193809D02*
X118682142Y-82231904D01*
X118491666Y-82231904D01*
X118415476Y-82193809D01*
X118377380Y-82117619D01*
X118377380Y-82041428D01*
X118415476Y-81965238D01*
X118491666Y-81927142D01*
X118682142Y-81927142D01*
X118758333Y-81889047D01*
X119748809Y-82231904D02*
X119748809Y-81431904D01*
X120015476Y-82003333D01*
X120282142Y-81431904D01*
X120282142Y-82231904D01*
X120967857Y-82193809D02*
X120891666Y-82231904D01*
X120739285Y-82231904D01*
X120663095Y-82193809D01*
X120625000Y-82117619D01*
X120625000Y-81812857D01*
X120663095Y-81736666D01*
X120739285Y-81698571D01*
X120891666Y-81698571D01*
X120967857Y-81736666D01*
X121005952Y-81812857D01*
X121005952Y-81889047D01*
X120625000Y-81965238D01*
X121691666Y-81698571D02*
X121691666Y-82346190D01*
X121653571Y-82422380D01*
X121615476Y-82460476D01*
X121539285Y-82498571D01*
X121425000Y-82498571D01*
X121348809Y-82460476D01*
X121691666Y-82193809D02*
X121615476Y-82231904D01*
X121463095Y-82231904D01*
X121386904Y-82193809D01*
X121348809Y-82155714D01*
X121310714Y-82079523D01*
X121310714Y-81850952D01*
X121348809Y-81774761D01*
X121386904Y-81736666D01*
X121463095Y-81698571D01*
X121615476Y-81698571D01*
X121691666Y-81736666D01*
X122415476Y-82231904D02*
X122415476Y-81812857D01*
X122377380Y-81736666D01*
X122301190Y-81698571D01*
X122148809Y-81698571D01*
X122072619Y-81736666D01*
X122415476Y-82193809D02*
X122339285Y-82231904D01*
X122148809Y-82231904D01*
X122072619Y-82193809D01*
X122034523Y-82117619D01*
X122034523Y-82041428D01*
X122072619Y-81965238D01*
X122148809Y-81927142D01*
X122339285Y-81927142D01*
X122415476Y-81889047D01*
X123405952Y-82231904D02*
X123405952Y-81431904D01*
X123596428Y-81431904D01*
X123710714Y-81470000D01*
X123786904Y-81546190D01*
X123825000Y-81622380D01*
X123863095Y-81774761D01*
X123863095Y-81889047D01*
X123825000Y-82041428D01*
X123786904Y-82117619D01*
X123710714Y-82193809D01*
X123596428Y-82231904D01*
X123405952Y-82231904D01*
X124205952Y-82231904D02*
X124205952Y-81698571D01*
X124205952Y-81850952D02*
X124244047Y-81774761D01*
X124282142Y-81736666D01*
X124358333Y-81698571D01*
X124434523Y-81698571D01*
X124701190Y-82231904D02*
X124701190Y-81698571D01*
X124701190Y-81431904D02*
X124663095Y-81470000D01*
X124701190Y-81508095D01*
X124739285Y-81470000D01*
X124701190Y-81431904D01*
X124701190Y-81508095D01*
X125005952Y-81698571D02*
X125196428Y-82231904D01*
X125386904Y-81698571D01*
X125996428Y-82193809D02*
X125920238Y-82231904D01*
X125767857Y-82231904D01*
X125691666Y-82193809D01*
X125653571Y-82117619D01*
X125653571Y-81812857D01*
X125691666Y-81736666D01*
X125767857Y-81698571D01*
X125920238Y-81698571D01*
X125996428Y-81736666D01*
X126034523Y-81812857D01*
X126034523Y-81889047D01*
X125653571Y-81965238D01*
X126948809Y-81393809D02*
X126263095Y-82422380D01*
X127634523Y-81470000D02*
X127558333Y-81431904D01*
X127444047Y-81431904D01*
X127329761Y-81470000D01*
X127253571Y-81546190D01*
X127215476Y-81622380D01*
X127177380Y-81774761D01*
X127177380Y-81889047D01*
X127215476Y-82041428D01*
X127253571Y-82117619D01*
X127329761Y-82193809D01*
X127444047Y-82231904D01*
X127520238Y-82231904D01*
X127634523Y-82193809D01*
X127672619Y-82155714D01*
X127672619Y-81889047D01*
X127520238Y-81889047D01*
X128320238Y-82193809D02*
X128244047Y-82231904D01*
X128091666Y-82231904D01*
X128015476Y-82193809D01*
X127977380Y-82117619D01*
X127977380Y-81812857D01*
X128015476Y-81736666D01*
X128091666Y-81698571D01*
X128244047Y-81698571D01*
X128320238Y-81736666D01*
X128358333Y-81812857D01*
X128358333Y-81889047D01*
X127977380Y-81965238D01*
X128701190Y-81698571D02*
X128701190Y-82231904D01*
X128701190Y-81774761D02*
X128739285Y-81736666D01*
X128815476Y-81698571D01*
X128929761Y-81698571D01*
X129005952Y-81736666D01*
X129044047Y-81812857D01*
X129044047Y-82231904D01*
X129729761Y-82193809D02*
X129653571Y-82231904D01*
X129501190Y-82231904D01*
X129425000Y-82193809D01*
X129386904Y-82117619D01*
X129386904Y-81812857D01*
X129425000Y-81736666D01*
X129501190Y-81698571D01*
X129653571Y-81698571D01*
X129729761Y-81736666D01*
X129767857Y-81812857D01*
X129767857Y-81889047D01*
X129386904Y-81965238D01*
X130072619Y-82193809D02*
X130148809Y-82231904D01*
X130301190Y-82231904D01*
X130377380Y-82193809D01*
X130415476Y-82117619D01*
X130415476Y-82079523D01*
X130377380Y-82003333D01*
X130301190Y-81965238D01*
X130186904Y-81965238D01*
X130110714Y-81927142D01*
X130072619Y-81850952D01*
X130072619Y-81812857D01*
X130110714Y-81736666D01*
X130186904Y-81698571D01*
X130301190Y-81698571D01*
X130377380Y-81736666D01*
X130758333Y-82231904D02*
X130758333Y-81698571D01*
X130758333Y-81431904D02*
X130720238Y-81470000D01*
X130758333Y-81508095D01*
X130796428Y-81470000D01*
X130758333Y-81431904D01*
X130758333Y-81508095D01*
X131101190Y-82193809D02*
X131177380Y-82231904D01*
X131329761Y-82231904D01*
X131405952Y-82193809D01*
X131444047Y-82117619D01*
X131444047Y-82079523D01*
X131405952Y-82003333D01*
X131329761Y-81965238D01*
X131215476Y-81965238D01*
X131139285Y-81927142D01*
X131101190Y-81850952D01*
X131101190Y-81812857D01*
X131139285Y-81736666D01*
X131215476Y-81698571D01*
X131329761Y-81698571D01*
X131405952Y-81736666D01*
X117615476Y-83836666D02*
X117577380Y-83798571D01*
X117501190Y-83684285D01*
X117463095Y-83608095D01*
X117425000Y-83493809D01*
X117386904Y-83303333D01*
X117386904Y-83150952D01*
X117425000Y-82960476D01*
X117463095Y-82846190D01*
X117501190Y-82770000D01*
X117577380Y-82655714D01*
X117615476Y-82617619D01*
X118377380Y-83455714D02*
X118339285Y-83493809D01*
X118225000Y-83531904D01*
X118148809Y-83531904D01*
X118034523Y-83493809D01*
X117958333Y-83417619D01*
X117920238Y-83341428D01*
X117882142Y-83189047D01*
X117882142Y-83074761D01*
X117920238Y-82922380D01*
X117958333Y-82846190D01*
X118034523Y-82770000D01*
X118148809Y-82731904D01*
X118225000Y-82731904D01*
X118339285Y-82770000D01*
X118377380Y-82808095D01*
X119063095Y-82731904D02*
X118910714Y-82731904D01*
X118834523Y-82770000D01*
X118796428Y-82808095D01*
X118720238Y-82922380D01*
X118682142Y-83074761D01*
X118682142Y-83379523D01*
X118720238Y-83455714D01*
X118758333Y-83493809D01*
X118834523Y-83531904D01*
X118986904Y-83531904D01*
X119063095Y-83493809D01*
X119101190Y-83455714D01*
X119139285Y-83379523D01*
X119139285Y-83189047D01*
X119101190Y-83112857D01*
X119063095Y-83074761D01*
X118986904Y-83036666D01*
X118834523Y-83036666D01*
X118758333Y-83074761D01*
X118720238Y-83112857D01*
X118682142Y-83189047D01*
X119825000Y-82998571D02*
X119825000Y-83531904D01*
X119634523Y-82693809D02*
X119444047Y-83265238D01*
X119939285Y-83265238D01*
X121082142Y-82731904D02*
X121082142Y-83303333D01*
X121044047Y-83417619D01*
X120967857Y-83493809D01*
X120853571Y-83531904D01*
X120777380Y-83531904D01*
X121577380Y-83531904D02*
X121501190Y-83493809D01*
X121463095Y-83455714D01*
X121425000Y-83379523D01*
X121425000Y-83150952D01*
X121463095Y-83074761D01*
X121501190Y-83036666D01*
X121577380Y-82998571D01*
X121691666Y-82998571D01*
X121767857Y-83036666D01*
X121805952Y-83074761D01*
X121844047Y-83150952D01*
X121844047Y-83379523D01*
X121805952Y-83455714D01*
X121767857Y-83493809D01*
X121691666Y-83531904D01*
X121577380Y-83531904D01*
X122110714Y-82998571D02*
X122301190Y-83531904D01*
X122491666Y-82998571D02*
X122301190Y-83531904D01*
X122225000Y-83722380D01*
X122186904Y-83760476D01*
X122110714Y-83798571D01*
X122796428Y-83531904D02*
X122796428Y-82731904D01*
X123253571Y-83531904D02*
X122910714Y-83074761D01*
X123253571Y-82731904D02*
X122796428Y-83189047D01*
X123596428Y-83112857D02*
X123863095Y-83112857D01*
X123977380Y-83531904D02*
X123596428Y-83531904D01*
X123596428Y-82731904D01*
X123977380Y-82731904D01*
X124472619Y-83150952D02*
X124472619Y-83531904D01*
X124205952Y-82731904D02*
X124472619Y-83150952D01*
X124739285Y-82731904D01*
X125577380Y-83303333D02*
X125958333Y-83303333D01*
X125501190Y-83531904D02*
X125767857Y-82731904D01*
X126034523Y-83531904D01*
X126644047Y-83531904D02*
X126644047Y-82731904D01*
X126644047Y-83493809D02*
X126567857Y-83531904D01*
X126415476Y-83531904D01*
X126339285Y-83493809D01*
X126301190Y-83455714D01*
X126263095Y-83379523D01*
X126263095Y-83150952D01*
X126301190Y-83074761D01*
X126339285Y-83036666D01*
X126415476Y-82998571D01*
X126567857Y-82998571D01*
X126644047Y-83036666D01*
X127367857Y-83531904D02*
X127367857Y-83112857D01*
X127329761Y-83036666D01*
X127253571Y-82998571D01*
X127101190Y-82998571D01*
X127025000Y-83036666D01*
X127367857Y-83493809D02*
X127291666Y-83531904D01*
X127101190Y-83531904D01*
X127025000Y-83493809D01*
X126986904Y-83417619D01*
X126986904Y-83341428D01*
X127025000Y-83265238D01*
X127101190Y-83227142D01*
X127291666Y-83227142D01*
X127367857Y-83189047D01*
X127748809Y-82998571D02*
X127748809Y-83798571D01*
X127748809Y-83036666D02*
X127825000Y-82998571D01*
X127977380Y-82998571D01*
X128053571Y-83036666D01*
X128091666Y-83074761D01*
X128129761Y-83150952D01*
X128129761Y-83379523D01*
X128091666Y-83455714D01*
X128053571Y-83493809D01*
X127977380Y-83531904D01*
X127825000Y-83531904D01*
X127748809Y-83493809D01*
X128358333Y-82998571D02*
X128663095Y-82998571D01*
X128472619Y-82731904D02*
X128472619Y-83417619D01*
X128510714Y-83493809D01*
X128586904Y-83531904D01*
X128663095Y-83531904D01*
X129234523Y-83493809D02*
X129158333Y-83531904D01*
X129005952Y-83531904D01*
X128929761Y-83493809D01*
X128891666Y-83417619D01*
X128891666Y-83112857D01*
X128929761Y-83036666D01*
X129005952Y-82998571D01*
X129158333Y-82998571D01*
X129234523Y-83036666D01*
X129272619Y-83112857D01*
X129272619Y-83189047D01*
X128891666Y-83265238D01*
X129615476Y-83531904D02*
X129615476Y-82998571D01*
X129615476Y-83150952D02*
X129653571Y-83074761D01*
X129691666Y-83036666D01*
X129767857Y-82998571D01*
X129844047Y-82998571D01*
X130034523Y-83836666D02*
X130072619Y-83798571D01*
X130148809Y-83684285D01*
X130186904Y-83608095D01*
X130225000Y-83493809D01*
X130263095Y-83303333D01*
X130263095Y-83150952D01*
X130225000Y-82960476D01*
X130186904Y-82846190D01*
X130148809Y-82770000D01*
X130072619Y-82655714D01*
X130034523Y-82617619D01*
X119501190Y-85598571D02*
X119501190Y-86246190D01*
X119463095Y-86322380D01*
X119425000Y-86360476D01*
X119348809Y-86398571D01*
X119234523Y-86398571D01*
X119158333Y-86360476D01*
X119501190Y-86093809D02*
X119425000Y-86131904D01*
X119272619Y-86131904D01*
X119196428Y-86093809D01*
X119158333Y-86055714D01*
X119120238Y-85979523D01*
X119120238Y-85750952D01*
X119158333Y-85674761D01*
X119196428Y-85636666D01*
X119272619Y-85598571D01*
X119425000Y-85598571D01*
X119501190Y-85636666D01*
X119882142Y-86131904D02*
X119882142Y-85598571D01*
X119882142Y-85331904D02*
X119844047Y-85370000D01*
X119882142Y-85408095D01*
X119920238Y-85370000D01*
X119882142Y-85331904D01*
X119882142Y-85408095D01*
X120148809Y-85598571D02*
X120453571Y-85598571D01*
X120263095Y-85331904D02*
X120263095Y-86017619D01*
X120301190Y-86093809D01*
X120377380Y-86131904D01*
X120453571Y-86131904D01*
X120720238Y-86131904D02*
X120720238Y-85331904D01*
X121063095Y-86131904D02*
X121063095Y-85712857D01*
X121025000Y-85636666D01*
X120948809Y-85598571D01*
X120834523Y-85598571D01*
X120758333Y-85636666D01*
X120720238Y-85674761D01*
X121786904Y-85598571D02*
X121786904Y-86131904D01*
X121444047Y-85598571D02*
X121444047Y-86017619D01*
X121482142Y-86093809D01*
X121558333Y-86131904D01*
X121672619Y-86131904D01*
X121748809Y-86093809D01*
X121786904Y-86055714D01*
X122167857Y-86131904D02*
X122167857Y-85331904D01*
X122167857Y-85636666D02*
X122244047Y-85598571D01*
X122396428Y-85598571D01*
X122472619Y-85636666D01*
X122510714Y-85674761D01*
X122548809Y-85750952D01*
X122548809Y-85979523D01*
X122510714Y-86055714D01*
X122472619Y-86093809D01*
X122396428Y-86131904D01*
X122244047Y-86131904D01*
X122167857Y-86093809D01*
X122891666Y-86055714D02*
X122929761Y-86093809D01*
X122891666Y-86131904D01*
X122853571Y-86093809D01*
X122891666Y-86055714D01*
X122891666Y-86131904D01*
X123615476Y-86093809D02*
X123539285Y-86131904D01*
X123386904Y-86131904D01*
X123310714Y-86093809D01*
X123272619Y-86055714D01*
X123234523Y-85979523D01*
X123234523Y-85750952D01*
X123272619Y-85674761D01*
X123310714Y-85636666D01*
X123386904Y-85598571D01*
X123539285Y-85598571D01*
X123615476Y-85636666D01*
X124072619Y-86131904D02*
X123996428Y-86093809D01*
X123958333Y-86055714D01*
X123920238Y-85979523D01*
X123920238Y-85750952D01*
X123958333Y-85674761D01*
X123996428Y-85636666D01*
X124072619Y-85598571D01*
X124186904Y-85598571D01*
X124263095Y-85636666D01*
X124301190Y-85674761D01*
X124339285Y-85750952D01*
X124339285Y-85979523D01*
X124301190Y-86055714D01*
X124263095Y-86093809D01*
X124186904Y-86131904D01*
X124072619Y-86131904D01*
X124682142Y-86131904D02*
X124682142Y-85598571D01*
X124682142Y-85674761D02*
X124720238Y-85636666D01*
X124796428Y-85598571D01*
X124910714Y-85598571D01*
X124986904Y-85636666D01*
X125025000Y-85712857D01*
X125025000Y-86131904D01*
X125025000Y-85712857D02*
X125063095Y-85636666D01*
X125139285Y-85598571D01*
X125253571Y-85598571D01*
X125329761Y-85636666D01*
X125367857Y-85712857D01*
X125367857Y-86131904D01*
X126320238Y-85293809D02*
X125634523Y-86322380D01*
X126472619Y-85598571D02*
X126777380Y-85598571D01*
X126586904Y-85331904D02*
X126586904Y-86017619D01*
X126625000Y-86093809D01*
X126701190Y-86131904D01*
X126777380Y-86131904D01*
X127348809Y-86093809D02*
X127272619Y-86131904D01*
X127120238Y-86131904D01*
X127044047Y-86093809D01*
X127005952Y-86017619D01*
X127005952Y-85712857D01*
X127044047Y-85636666D01*
X127120238Y-85598571D01*
X127272619Y-85598571D01*
X127348809Y-85636666D01*
X127386904Y-85712857D01*
X127386904Y-85789047D01*
X127005952Y-85865238D01*
X127729761Y-86131904D02*
X127729761Y-85331904D01*
X127729761Y-85636666D02*
X127805952Y-85598571D01*
X127958333Y-85598571D01*
X128034523Y-85636666D01*
X128072619Y-85674761D01*
X128110714Y-85750952D01*
X128110714Y-85979523D01*
X128072619Y-86055714D01*
X128034523Y-86093809D01*
X127958333Y-86131904D01*
X127805952Y-86131904D01*
X127729761Y-86093809D01*
X128567857Y-86131904D02*
X128491666Y-86093809D01*
X128453571Y-86017619D01*
X128453571Y-85331904D01*
D11*
X116780000Y-96580000D02*
X121980000Y-96580000D01*
X116780000Y-91440000D02*
X116780000Y-96580000D01*
X121980000Y-88840000D02*
X121980000Y-96580000D01*
X116780000Y-91440000D02*
X119380000Y-91440000D01*
X119380000Y-91440000D02*
X119380000Y-88840000D01*
X119380000Y-88840000D02*
X121980000Y-88840000D01*
X116780000Y-90170000D02*
X116780000Y-88840000D01*
X116780000Y-88840000D02*
X118110000Y-88840000D01*
X139378500Y-81895438D02*
X138878500Y-81895438D01*
X138878500Y-81895438D02*
X139128500Y-81462425D01*
X139128500Y-81462425D02*
X139378500Y-81895438D01*
X133465000Y-83665000D02*
X133465000Y-81125000D01*
X133465000Y-83665000D02*
X136005000Y-83665000D01*
X133715000Y-83415000D02*
X133715000Y-74065000D01*
X154575000Y-83415000D02*
X133715000Y-83415000D01*
X154575000Y-74065000D02*
X154575000Y-83415000D01*
X133715000Y-74065000D02*
X154575000Y-74065000D01*
D10*
X154325000Y-83165000D02*
X153765000Y-82615000D01*
X133965000Y-83165000D02*
X134505000Y-82615000D01*
X154325000Y-74315000D02*
X153765000Y-74865000D01*
X133965000Y-74315000D02*
X134505000Y-74865000D01*
X153765000Y-74865000D02*
X153765000Y-82615000D01*
X154325000Y-74315000D02*
X154325000Y-83165000D01*
X134505000Y-74865000D02*
X134505000Y-82615000D01*
X133965000Y-74315000D02*
X133965000Y-83165000D01*
X146395000Y-82615000D02*
X146395000Y-83165000D01*
X141895000Y-82615000D02*
X141895000Y-83165000D01*
X146395000Y-82615000D02*
X153765000Y-82615000D01*
X134505000Y-82615000D02*
X141895000Y-82615000D01*
X133965000Y-83165000D02*
X154325000Y-83165000D01*
X134505000Y-74865000D02*
X153765000Y-74865000D01*
X133965000Y-74315000D02*
X154325000Y-74315000D01*
X145395000Y-102255000D02*
X165755000Y-102255000D01*
X145935000Y-102805000D02*
X165195000Y-102805000D01*
X145395000Y-111105000D02*
X165755000Y-111105000D01*
X145935000Y-110555000D02*
X153325000Y-110555000D01*
X157825000Y-110555000D02*
X165195000Y-110555000D01*
X153325000Y-110555000D02*
X153325000Y-111105000D01*
X157825000Y-110555000D02*
X157825000Y-111105000D01*
X145395000Y-102255000D02*
X145395000Y-111105000D01*
X145935000Y-102805000D02*
X145935000Y-110555000D01*
X165755000Y-102255000D02*
X165755000Y-111105000D01*
X165195000Y-102805000D02*
X165195000Y-110555000D01*
X145395000Y-102255000D02*
X145935000Y-102805000D01*
X165755000Y-102255000D02*
X165195000Y-102805000D01*
X145395000Y-111105000D02*
X145935000Y-110555000D01*
X165755000Y-111105000D02*
X165195000Y-110555000D01*
D11*
X145145000Y-102005000D02*
X166005000Y-102005000D01*
X166005000Y-102005000D02*
X166005000Y-111355000D01*
X166005000Y-111355000D02*
X145145000Y-111355000D01*
X145145000Y-111355000D02*
X145145000Y-102005000D01*
X144895000Y-111605000D02*
X147435000Y-111605000D01*
X144895000Y-111605000D02*
X144895000Y-109065000D01*
X150558500Y-109402425D02*
X150808500Y-109835438D01*
X150308500Y-109835438D02*
X150558500Y-109402425D01*
X150808500Y-109835438D02*
X150308500Y-109835438D01*
X163800000Y-78205000D02*
X158860000Y-78205000D01*
X163800000Y-75465000D02*
X158860000Y-75465000D01*
X163800000Y-78205000D02*
X163800000Y-77890000D01*
X163800000Y-75780000D02*
X163800000Y-75465000D01*
X158860000Y-78205000D02*
X158860000Y-77890000D01*
X158860000Y-75780000D02*
X158860000Y-75465000D01*
D10*
X122535000Y-102255000D02*
X142895000Y-102255000D01*
X123075000Y-102805000D02*
X142335000Y-102805000D01*
X122535000Y-111105000D02*
X142895000Y-111105000D01*
X123075000Y-110555000D02*
X130465000Y-110555000D01*
X134965000Y-110555000D02*
X142335000Y-110555000D01*
X130465000Y-110555000D02*
X130465000Y-111105000D01*
X134965000Y-110555000D02*
X134965000Y-111105000D01*
X122535000Y-102255000D02*
X122535000Y-111105000D01*
X123075000Y-102805000D02*
X123075000Y-110555000D01*
X142895000Y-102255000D02*
X142895000Y-111105000D01*
X142335000Y-102805000D02*
X142335000Y-110555000D01*
X122535000Y-102255000D02*
X123075000Y-102805000D01*
X142895000Y-102255000D02*
X142335000Y-102805000D01*
X122535000Y-111105000D02*
X123075000Y-110555000D01*
X142895000Y-111105000D02*
X142335000Y-110555000D01*
D11*
X122285000Y-102005000D02*
X143145000Y-102005000D01*
X143145000Y-102005000D02*
X143145000Y-111355000D01*
X143145000Y-111355000D02*
X122285000Y-111355000D01*
X122285000Y-111355000D02*
X122285000Y-102005000D01*
X122035000Y-111605000D02*
X124575000Y-111605000D01*
X122035000Y-111605000D02*
X122035000Y-109065000D01*
X127698500Y-109402425D02*
X127948500Y-109835438D01*
X127448500Y-109835438D02*
X127698500Y-109402425D01*
X127948500Y-109835438D02*
X127448500Y-109835438D01*
X147645000Y-93460000D02*
X147645000Y-91960000D01*
X146395000Y-89460000D02*
X141895000Y-89460000D01*
X140645000Y-91960000D02*
X140645000Y-93460000D01*
X141895000Y-95960000D02*
X146395000Y-95960000D01*
X160290000Y-79315000D02*
X159040000Y-79315000D01*
X159040000Y-79315000D02*
X159040000Y-99755000D01*
X159040000Y-99755000D02*
X163540000Y-99755000D01*
X163540000Y-99755000D02*
X163540000Y-79315000D01*
X163540000Y-79315000D02*
X162290000Y-79315000D01*
X156040000Y-79255000D02*
X156040000Y-99815000D01*
X156040000Y-99815000D02*
X166540000Y-99815000D01*
X166540000Y-99815000D02*
X166540000Y-79255000D01*
X166540000Y-79255000D02*
X156040000Y-79255000D01*
X162290000Y-79315000D02*
G75*
G02*
X160290000Y-79315000I-1000000J0D01*
G01*
X168850000Y-94555000D02*
X170180000Y-94555000D01*
X168850000Y-95885000D02*
X168850000Y-94555000D01*
X168850000Y-97155000D02*
X171510000Y-97155000D01*
X171510000Y-97155000D02*
X171510000Y-99755000D01*
X168850000Y-97155000D02*
X168850000Y-99755000D01*
X168850000Y-99755000D02*
X171510000Y-99755000D01*
X134620000Y-98020000D02*
X134620000Y-97250000D01*
X134620000Y-89940000D02*
X134620000Y-90710000D01*
X135990000Y-97250000D02*
X135990000Y-90710000D01*
X133250000Y-97250000D02*
X135990000Y-97250000D01*
X133250000Y-90710000D02*
X133250000Y-97250000D01*
X135990000Y-90710000D02*
X133250000Y-90710000D01*
X151865000Y-90710000D02*
X149125000Y-90710000D01*
X149125000Y-90710000D02*
X149125000Y-97250000D01*
X149125000Y-97250000D02*
X151865000Y-97250000D01*
X151865000Y-97250000D02*
X151865000Y-90710000D01*
X150495000Y-89940000D02*
X150495000Y-90710000D01*
X150495000Y-98020000D02*
X150495000Y-97250000D01*
X137795000Y-98020000D02*
X137795000Y-97250000D01*
X137795000Y-89940000D02*
X137795000Y-90710000D01*
X139165000Y-97250000D02*
X139165000Y-90710000D01*
X136425000Y-97250000D02*
X139165000Y-97250000D01*
X136425000Y-90710000D02*
X136425000Y-97250000D01*
X139165000Y-90710000D02*
X136425000Y-90710000D01*
X155040000Y-90710000D02*
X152300000Y-90710000D01*
X152300000Y-90710000D02*
X152300000Y-97250000D01*
X152300000Y-97250000D02*
X155040000Y-97250000D01*
X155040000Y-97250000D02*
X155040000Y-90710000D01*
X153670000Y-89940000D02*
X153670000Y-90710000D01*
X153670000Y-98020000D02*
X153670000Y-97250000D01*
X145185000Y-85725000D02*
X145955000Y-85725000D01*
X153265000Y-85725000D02*
X152495000Y-85725000D01*
X145955000Y-87095000D02*
X152495000Y-87095000D01*
X145955000Y-84355000D02*
X145955000Y-87095000D01*
X152495000Y-84355000D02*
X145955000Y-84355000D01*
X152495000Y-87095000D02*
X152495000Y-84355000D01*
X171550000Y-84360000D02*
X168810000Y-84360000D01*
X168810000Y-84360000D02*
X168810000Y-90900000D01*
X168810000Y-90900000D02*
X171550000Y-90900000D01*
X171550000Y-90900000D02*
X171550000Y-84360000D01*
X170180000Y-83590000D02*
X170180000Y-84360000D01*
X170180000Y-91670000D02*
X170180000Y-90900000D01*
X131445000Y-98020000D02*
X131445000Y-97250000D01*
X131445000Y-89940000D02*
X131445000Y-90710000D01*
X132815000Y-97250000D02*
X132815000Y-90710000D01*
X130075000Y-97250000D02*
X132815000Y-97250000D01*
X130075000Y-90710000D02*
X130075000Y-97250000D01*
X132815000Y-90710000D02*
X130075000Y-90710000D01*
X132620000Y-84355000D02*
X132620000Y-87095000D01*
X132620000Y-87095000D02*
X139160000Y-87095000D01*
X139160000Y-87095000D02*
X139160000Y-84355000D01*
X139160000Y-84355000D02*
X132620000Y-84355000D01*
X131850000Y-85725000D02*
X132620000Y-85725000D01*
X139930000Y-85725000D02*
X139160000Y-85725000D01*
X129640000Y-90710000D02*
X126900000Y-90710000D01*
X126900000Y-90710000D02*
X126900000Y-97250000D01*
X126900000Y-97250000D02*
X129640000Y-97250000D01*
X129640000Y-97250000D02*
X129640000Y-90710000D01*
X128270000Y-89940000D02*
X128270000Y-90710000D01*
X128270000Y-98020000D02*
X128270000Y-97250000D01*
D12*
X115689523Y-98194761D02*
X115832380Y-98242380D01*
X116070476Y-98242380D01*
X116165714Y-98194761D01*
X116213333Y-98147142D01*
X116260952Y-98051904D01*
X116260952Y-97956666D01*
X116213333Y-97861428D01*
X116165714Y-97813809D01*
X116070476Y-97766190D01*
X115880000Y-97718571D01*
X115784761Y-97670952D01*
X115737142Y-97623333D01*
X115689523Y-97528095D01*
X115689523Y-97432857D01*
X115737142Y-97337619D01*
X115784761Y-97290000D01*
X115880000Y-97242380D01*
X116118095Y-97242380D01*
X116260952Y-97290000D01*
X116546666Y-97242380D02*
X117118095Y-97242380D01*
X116832380Y-98242380D02*
X116832380Y-97242380D01*
X117403809Y-97956666D02*
X117880000Y-97956666D01*
X117308571Y-98242380D02*
X117641904Y-97242380D01*
X117975238Y-98242380D01*
X118880000Y-98242380D02*
X118546666Y-97766190D01*
X118308571Y-98242380D02*
X118308571Y-97242380D01*
X118689523Y-97242380D01*
X118784761Y-97290000D01*
X118832380Y-97337619D01*
X118880000Y-97432857D01*
X118880000Y-97575714D01*
X118832380Y-97670952D01*
X118784761Y-97718571D01*
X118689523Y-97766190D01*
X118308571Y-97766190D01*
X119165714Y-97242380D02*
X119737142Y-97242380D01*
X119451428Y-98242380D02*
X119451428Y-97242380D01*
X119832380Y-98337619D02*
X120594285Y-98337619D01*
X120784761Y-98194761D02*
X120927619Y-98242380D01*
X121165714Y-98242380D01*
X121260952Y-98194761D01*
X121308571Y-98147142D01*
X121356190Y-98051904D01*
X121356190Y-97956666D01*
X121308571Y-97861428D01*
X121260952Y-97813809D01*
X121165714Y-97766190D01*
X120975238Y-97718571D01*
X120880000Y-97670952D01*
X120832380Y-97623333D01*
X120784761Y-97528095D01*
X120784761Y-97432857D01*
X120832380Y-97337619D01*
X120880000Y-97290000D01*
X120975238Y-97242380D01*
X121213333Y-97242380D01*
X121356190Y-97290000D01*
X121784761Y-97718571D02*
X122118095Y-97718571D01*
X122260952Y-98242380D02*
X121784761Y-98242380D01*
X121784761Y-97242380D01*
X122260952Y-97242380D01*
X123165714Y-98242380D02*
X122689523Y-98242380D01*
X122689523Y-97242380D01*
D10*
X134988333Y-75126904D02*
X134988333Y-75698333D01*
X134950238Y-75812619D01*
X134874047Y-75888809D01*
X134759761Y-75926904D01*
X134683571Y-75926904D01*
X135293095Y-75126904D02*
X135788333Y-75126904D01*
X135521666Y-75431666D01*
X135635952Y-75431666D01*
X135712142Y-75469761D01*
X135750238Y-75507857D01*
X135788333Y-75584047D01*
X135788333Y-75774523D01*
X135750238Y-75850714D01*
X135712142Y-75888809D01*
X135635952Y-75926904D01*
X135407380Y-75926904D01*
X135331190Y-75888809D01*
X135293095Y-75850714D01*
X139230714Y-75888809D02*
X139345000Y-75926904D01*
X139535476Y-75926904D01*
X139611666Y-75888809D01*
X139649761Y-75850714D01*
X139687857Y-75774523D01*
X139687857Y-75698333D01*
X139649761Y-75622142D01*
X139611666Y-75584047D01*
X139535476Y-75545952D01*
X139383095Y-75507857D01*
X139306904Y-75469761D01*
X139268809Y-75431666D01*
X139230714Y-75355476D01*
X139230714Y-75279285D01*
X139268809Y-75203095D01*
X139306904Y-75165000D01*
X139383095Y-75126904D01*
X139573571Y-75126904D01*
X139687857Y-75165000D01*
X140335476Y-75888809D02*
X140259285Y-75926904D01*
X140106904Y-75926904D01*
X140030714Y-75888809D01*
X139992619Y-75812619D01*
X139992619Y-75507857D01*
X140030714Y-75431666D01*
X140106904Y-75393571D01*
X140259285Y-75393571D01*
X140335476Y-75431666D01*
X140373571Y-75507857D01*
X140373571Y-75584047D01*
X139992619Y-75660238D01*
X141059285Y-75393571D02*
X141059285Y-76041190D01*
X141021190Y-76117380D01*
X140983095Y-76155476D01*
X140906904Y-76193571D01*
X140792619Y-76193571D01*
X140716428Y-76155476D01*
X141059285Y-75888809D02*
X140983095Y-75926904D01*
X140830714Y-75926904D01*
X140754523Y-75888809D01*
X140716428Y-75850714D01*
X140678333Y-75774523D01*
X140678333Y-75545952D01*
X140716428Y-75469761D01*
X140754523Y-75431666D01*
X140830714Y-75393571D01*
X140983095Y-75393571D01*
X141059285Y-75431666D01*
X141783095Y-75926904D02*
X141783095Y-75507857D01*
X141745000Y-75431666D01*
X141668809Y-75393571D01*
X141516428Y-75393571D01*
X141440238Y-75431666D01*
X141783095Y-75888809D02*
X141706904Y-75926904D01*
X141516428Y-75926904D01*
X141440238Y-75888809D01*
X141402142Y-75812619D01*
X141402142Y-75736428D01*
X141440238Y-75660238D01*
X141516428Y-75622142D01*
X141706904Y-75622142D01*
X141783095Y-75584047D01*
X142773571Y-75926904D02*
X142773571Y-75126904D01*
X143040238Y-75698333D01*
X143306904Y-75126904D01*
X143306904Y-75926904D01*
X143992619Y-75888809D02*
X143916428Y-75926904D01*
X143764047Y-75926904D01*
X143687857Y-75888809D01*
X143649761Y-75812619D01*
X143649761Y-75507857D01*
X143687857Y-75431666D01*
X143764047Y-75393571D01*
X143916428Y-75393571D01*
X143992619Y-75431666D01*
X144030714Y-75507857D01*
X144030714Y-75584047D01*
X143649761Y-75660238D01*
X144716428Y-75393571D02*
X144716428Y-76041190D01*
X144678333Y-76117380D01*
X144640238Y-76155476D01*
X144564047Y-76193571D01*
X144449761Y-76193571D01*
X144373571Y-76155476D01*
X144716428Y-75888809D02*
X144640238Y-75926904D01*
X144487857Y-75926904D01*
X144411666Y-75888809D01*
X144373571Y-75850714D01*
X144335476Y-75774523D01*
X144335476Y-75545952D01*
X144373571Y-75469761D01*
X144411666Y-75431666D01*
X144487857Y-75393571D01*
X144640238Y-75393571D01*
X144716428Y-75431666D01*
X145440238Y-75926904D02*
X145440238Y-75507857D01*
X145402142Y-75431666D01*
X145325952Y-75393571D01*
X145173571Y-75393571D01*
X145097380Y-75431666D01*
X145440238Y-75888809D02*
X145364047Y-75926904D01*
X145173571Y-75926904D01*
X145097380Y-75888809D01*
X145059285Y-75812619D01*
X145059285Y-75736428D01*
X145097380Y-75660238D01*
X145173571Y-75622142D01*
X145364047Y-75622142D01*
X145440238Y-75584047D01*
X146430714Y-75926904D02*
X146430714Y-75126904D01*
X146621190Y-75126904D01*
X146735476Y-75165000D01*
X146811666Y-75241190D01*
X146849761Y-75317380D01*
X146887857Y-75469761D01*
X146887857Y-75584047D01*
X146849761Y-75736428D01*
X146811666Y-75812619D01*
X146735476Y-75888809D01*
X146621190Y-75926904D01*
X146430714Y-75926904D01*
X147230714Y-75926904D02*
X147230714Y-75393571D01*
X147230714Y-75545952D02*
X147268809Y-75469761D01*
X147306904Y-75431666D01*
X147383095Y-75393571D01*
X147459285Y-75393571D01*
X147725952Y-75926904D02*
X147725952Y-75393571D01*
X147725952Y-75126904D02*
X147687857Y-75165000D01*
X147725952Y-75203095D01*
X147764047Y-75165000D01*
X147725952Y-75126904D01*
X147725952Y-75203095D01*
X148030714Y-75393571D02*
X148221190Y-75926904D01*
X148411666Y-75393571D01*
X149021190Y-75888809D02*
X148945000Y-75926904D01*
X148792619Y-75926904D01*
X148716428Y-75888809D01*
X148678333Y-75812619D01*
X148678333Y-75507857D01*
X148716428Y-75431666D01*
X148792619Y-75393571D01*
X148945000Y-75393571D01*
X149021190Y-75431666D01*
X149059285Y-75507857D01*
X149059285Y-75584047D01*
X148678333Y-75660238D01*
X146418333Y-103066904D02*
X146418333Y-103638333D01*
X146380238Y-103752619D01*
X146304047Y-103828809D01*
X146189761Y-103866904D01*
X146113571Y-103866904D01*
X146761190Y-103143095D02*
X146799285Y-103105000D01*
X146875476Y-103066904D01*
X147065952Y-103066904D01*
X147142142Y-103105000D01*
X147180238Y-103143095D01*
X147218333Y-103219285D01*
X147218333Y-103295476D01*
X147180238Y-103409761D01*
X146723095Y-103866904D01*
X147218333Y-103866904D01*
D12*
X145153333Y-101417380D02*
X145153333Y-100417380D01*
X145534285Y-100417380D01*
X145629523Y-100465000D01*
X145677142Y-100512619D01*
X145724761Y-100607857D01*
X145724761Y-100750714D01*
X145677142Y-100845952D01*
X145629523Y-100893571D01*
X145534285Y-100941190D01*
X145153333Y-100941190D01*
X146296190Y-101417380D02*
X146200952Y-101369761D01*
X146153333Y-101322142D01*
X146105714Y-101226904D01*
X146105714Y-100941190D01*
X146153333Y-100845952D01*
X146200952Y-100798333D01*
X146296190Y-100750714D01*
X146439047Y-100750714D01*
X146534285Y-100798333D01*
X146581904Y-100845952D01*
X146629523Y-100941190D01*
X146629523Y-101226904D01*
X146581904Y-101322142D01*
X146534285Y-101369761D01*
X146439047Y-101417380D01*
X146296190Y-101417380D01*
X147058095Y-101417380D02*
X147058095Y-100750714D01*
X147058095Y-100941190D02*
X147105714Y-100845952D01*
X147153333Y-100798333D01*
X147248571Y-100750714D01*
X147343809Y-100750714D01*
X147534285Y-100750714D02*
X147915238Y-100750714D01*
X147677142Y-100417380D02*
X147677142Y-101274523D01*
X147724761Y-101369761D01*
X147820000Y-101417380D01*
X147915238Y-101417380D01*
X148962857Y-100512619D02*
X149010476Y-100465000D01*
X149105714Y-100417380D01*
X149343809Y-100417380D01*
X149439047Y-100465000D01*
X149486666Y-100512619D01*
X149534285Y-100607857D01*
X149534285Y-100703095D01*
X149486666Y-100845952D01*
X148915238Y-101417380D01*
X149534285Y-101417380D01*
X161123333Y-77192142D02*
X161075714Y-77239761D01*
X160932857Y-77287380D01*
X160837619Y-77287380D01*
X160694761Y-77239761D01*
X160599523Y-77144523D01*
X160551904Y-77049285D01*
X160504285Y-76858809D01*
X160504285Y-76715952D01*
X160551904Y-76525476D01*
X160599523Y-76430238D01*
X160694761Y-76335000D01*
X160837619Y-76287380D01*
X160932857Y-76287380D01*
X161075714Y-76335000D01*
X161123333Y-76382619D01*
X162075714Y-77287380D02*
X161504285Y-77287380D01*
X161790000Y-77287380D02*
X161790000Y-76287380D01*
X161694761Y-76430238D01*
X161599523Y-76525476D01*
X161504285Y-76573095D01*
D10*
X123558333Y-103066904D02*
X123558333Y-103638333D01*
X123520238Y-103752619D01*
X123444047Y-103828809D01*
X123329761Y-103866904D01*
X123253571Y-103866904D01*
X124358333Y-103866904D02*
X123901190Y-103866904D01*
X124129761Y-103866904D02*
X124129761Y-103066904D01*
X124053571Y-103181190D01*
X123977380Y-103257380D01*
X123901190Y-103295476D01*
D12*
X122293333Y-101417380D02*
X122293333Y-100417380D01*
X122674285Y-100417380D01*
X122769523Y-100465000D01*
X122817142Y-100512619D01*
X122864761Y-100607857D01*
X122864761Y-100750714D01*
X122817142Y-100845952D01*
X122769523Y-100893571D01*
X122674285Y-100941190D01*
X122293333Y-100941190D01*
X123436190Y-101417380D02*
X123340952Y-101369761D01*
X123293333Y-101322142D01*
X123245714Y-101226904D01*
X123245714Y-100941190D01*
X123293333Y-100845952D01*
X123340952Y-100798333D01*
X123436190Y-100750714D01*
X123579047Y-100750714D01*
X123674285Y-100798333D01*
X123721904Y-100845952D01*
X123769523Y-100941190D01*
X123769523Y-101226904D01*
X123721904Y-101322142D01*
X123674285Y-101369761D01*
X123579047Y-101417380D01*
X123436190Y-101417380D01*
X124198095Y-101417380D02*
X124198095Y-100750714D01*
X124198095Y-100941190D02*
X124245714Y-100845952D01*
X124293333Y-100798333D01*
X124388571Y-100750714D01*
X124483809Y-100750714D01*
X124674285Y-100750714D02*
X125055238Y-100750714D01*
X124817142Y-100417380D02*
X124817142Y-101274523D01*
X124864761Y-101369761D01*
X124960000Y-101417380D01*
X125055238Y-101417380D01*
X126674285Y-101417380D02*
X126102857Y-101417380D01*
X126388571Y-101417380D02*
X126388571Y-100417380D01*
X126293333Y-100560238D01*
X126198095Y-100655476D01*
X126102857Y-100703095D01*
X142168809Y-97564761D02*
X142311666Y-97612380D01*
X142549761Y-97612380D01*
X142645000Y-97564761D01*
X142692619Y-97517142D01*
X142740238Y-97421904D01*
X142740238Y-97326666D01*
X142692619Y-97231428D01*
X142645000Y-97183809D01*
X142549761Y-97136190D01*
X142359285Y-97088571D01*
X142264047Y-97040952D01*
X142216428Y-96993333D01*
X142168809Y-96898095D01*
X142168809Y-96802857D01*
X142216428Y-96707619D01*
X142264047Y-96660000D01*
X142359285Y-96612380D01*
X142597380Y-96612380D01*
X142740238Y-96660000D01*
X143025952Y-96612380D02*
X143597380Y-96612380D01*
X143311666Y-97612380D02*
X143311666Y-96612380D01*
X143883095Y-97326666D02*
X144359285Y-97326666D01*
X143787857Y-97612380D02*
X144121190Y-96612380D01*
X144454523Y-97612380D01*
X145359285Y-97612380D02*
X145025952Y-97136190D01*
X144787857Y-97612380D02*
X144787857Y-96612380D01*
X145168809Y-96612380D01*
X145264047Y-96660000D01*
X145311666Y-96707619D01*
X145359285Y-96802857D01*
X145359285Y-96945714D01*
X145311666Y-97040952D01*
X145264047Y-97088571D01*
X145168809Y-97136190D01*
X144787857Y-97136190D01*
X145645000Y-96612380D02*
X146216428Y-96612380D01*
X145930714Y-97612380D02*
X145930714Y-96612380D01*
D10*
X143078333Y-93033809D02*
X143192619Y-93071904D01*
X143383095Y-93071904D01*
X143459285Y-93033809D01*
X143497380Y-92995714D01*
X143535476Y-92919523D01*
X143535476Y-92843333D01*
X143497380Y-92767142D01*
X143459285Y-92729047D01*
X143383095Y-92690952D01*
X143230714Y-92652857D01*
X143154523Y-92614761D01*
X143116428Y-92576666D01*
X143078333Y-92500476D01*
X143078333Y-92424285D01*
X143116428Y-92348095D01*
X143154523Y-92310000D01*
X143230714Y-92271904D01*
X143421190Y-92271904D01*
X143535476Y-92310000D01*
X143802142Y-92271904D02*
X143992619Y-93071904D01*
X144145000Y-92500476D01*
X144297380Y-93071904D01*
X144487857Y-92271904D01*
X145211666Y-93071904D02*
X144754523Y-93071904D01*
X144983095Y-93071904D02*
X144983095Y-92271904D01*
X144906904Y-92386190D01*
X144830714Y-92462380D01*
X144754523Y-92500476D01*
D12*
X160528095Y-82637380D02*
X160528095Y-83446904D01*
X160575714Y-83542142D01*
X160623333Y-83589761D01*
X160718571Y-83637380D01*
X160909047Y-83637380D01*
X161004285Y-83589761D01*
X161051904Y-83542142D01*
X161099523Y-83446904D01*
X161099523Y-82637380D01*
X162099523Y-83637380D02*
X161528095Y-83637380D01*
X161813809Y-83637380D02*
X161813809Y-82637380D01*
X161718571Y-82780238D01*
X161623333Y-82875476D01*
X161528095Y-82923095D01*
X160742380Y-92654047D02*
X160742380Y-91987380D01*
X161742380Y-92415952D01*
X161075714Y-91177857D02*
X161742380Y-91177857D01*
X160694761Y-91415952D02*
X161409047Y-91654047D01*
X161409047Y-91035000D01*
X161742380Y-90177857D02*
X161742380Y-90654047D01*
X160742380Y-90654047D01*
X161694761Y-89892142D02*
X161742380Y-89749285D01*
X161742380Y-89511190D01*
X161694761Y-89415952D01*
X161647142Y-89368333D01*
X161551904Y-89320714D01*
X161456666Y-89320714D01*
X161361428Y-89368333D01*
X161313809Y-89415952D01*
X161266190Y-89511190D01*
X161218571Y-89701666D01*
X161170952Y-89796904D01*
X161123333Y-89844523D01*
X161028095Y-89892142D01*
X160932857Y-89892142D01*
X160837619Y-89844523D01*
X160790000Y-89796904D01*
X160742380Y-89701666D01*
X160742380Y-89463571D01*
X160790000Y-89320714D01*
X161742380Y-88368333D02*
X161742380Y-88939761D01*
X161742380Y-88654047D02*
X160742380Y-88654047D01*
X160885238Y-88749285D01*
X160980476Y-88844523D01*
X161028095Y-88939761D01*
X160742380Y-87463571D02*
X160742380Y-87939761D01*
X161218571Y-87987380D01*
X161170952Y-87939761D01*
X161123333Y-87844523D01*
X161123333Y-87606428D01*
X161170952Y-87511190D01*
X161218571Y-87463571D01*
X161313809Y-87415952D01*
X161551904Y-87415952D01*
X161647142Y-87463571D01*
X161694761Y-87511190D01*
X161742380Y-87606428D01*
X161742380Y-87844523D01*
X161694761Y-87939761D01*
X161647142Y-87987380D01*
X160742380Y-87082619D02*
X160742380Y-86415952D01*
X161742380Y-86844523D01*
X167489523Y-100417380D02*
X167822857Y-101417380D01*
X168156190Y-100417380D01*
X169060952Y-101322142D02*
X169013333Y-101369761D01*
X168870476Y-101417380D01*
X168775238Y-101417380D01*
X168632380Y-101369761D01*
X168537142Y-101274523D01*
X168489523Y-101179285D01*
X168441904Y-100988809D01*
X168441904Y-100845952D01*
X168489523Y-100655476D01*
X168537142Y-100560238D01*
X168632380Y-100465000D01*
X168775238Y-100417380D01*
X168870476Y-100417380D01*
X169013333Y-100465000D01*
X169060952Y-100512619D01*
X170060952Y-101322142D02*
X170013333Y-101369761D01*
X169870476Y-101417380D01*
X169775238Y-101417380D01*
X169632380Y-101369761D01*
X169537142Y-101274523D01*
X169489523Y-101179285D01*
X169441904Y-100988809D01*
X169441904Y-100845952D01*
X169489523Y-100655476D01*
X169537142Y-100560238D01*
X169632380Y-100465000D01*
X169775238Y-100417380D01*
X169870476Y-100417380D01*
X170013333Y-100465000D01*
X170060952Y-100512619D01*
X170251428Y-101512619D02*
X171013333Y-101512619D01*
X171251428Y-100893571D02*
X171584761Y-100893571D01*
X171727619Y-101417380D02*
X171251428Y-101417380D01*
X171251428Y-100417380D01*
X171727619Y-100417380D01*
X172156190Y-101417380D02*
X172156190Y-100417380D01*
X172727619Y-101417380D01*
X172727619Y-100417380D01*
X134453333Y-92527380D02*
X134120000Y-92051190D01*
X133881904Y-92527380D02*
X133881904Y-91527380D01*
X134262857Y-91527380D01*
X134358095Y-91575000D01*
X134405714Y-91622619D01*
X134453333Y-91717857D01*
X134453333Y-91860714D01*
X134405714Y-91955952D01*
X134358095Y-92003571D01*
X134262857Y-92051190D01*
X133881904Y-92051190D01*
X135405714Y-92527380D02*
X134834285Y-92527380D01*
X135120000Y-92527380D02*
X135120000Y-91527380D01*
X135024761Y-91670238D01*
X134929523Y-91765476D01*
X134834285Y-91813095D01*
X135072380Y-95845238D02*
X135072380Y-96416666D01*
X135072380Y-96130952D02*
X134072380Y-96130952D01*
X134215238Y-96226190D01*
X134310476Y-96321428D01*
X134358095Y-96416666D01*
X134072380Y-95226190D02*
X134072380Y-95130952D01*
X134120000Y-95035714D01*
X134167619Y-94988095D01*
X134262857Y-94940476D01*
X134453333Y-94892857D01*
X134691428Y-94892857D01*
X134881904Y-94940476D01*
X134977142Y-94988095D01*
X135024761Y-95035714D01*
X135072380Y-95130952D01*
X135072380Y-95226190D01*
X135024761Y-95321428D01*
X134977142Y-95369047D01*
X134881904Y-95416666D01*
X134691428Y-95464285D01*
X134453333Y-95464285D01*
X134262857Y-95416666D01*
X134167619Y-95369047D01*
X134120000Y-95321428D01*
X134072380Y-95226190D01*
X135072380Y-94464285D02*
X134072380Y-94464285D01*
X134691428Y-94369047D02*
X135072380Y-94083333D01*
X134405714Y-94083333D02*
X134786666Y-94464285D01*
X150328333Y-92527380D02*
X149995000Y-92051190D01*
X149756904Y-92527380D02*
X149756904Y-91527380D01*
X150137857Y-91527380D01*
X150233095Y-91575000D01*
X150280714Y-91622619D01*
X150328333Y-91717857D01*
X150328333Y-91860714D01*
X150280714Y-91955952D01*
X150233095Y-92003571D01*
X150137857Y-92051190D01*
X149756904Y-92051190D01*
X150709285Y-91622619D02*
X150756904Y-91575000D01*
X150852142Y-91527380D01*
X151090238Y-91527380D01*
X151185476Y-91575000D01*
X151233095Y-91622619D01*
X151280714Y-91717857D01*
X151280714Y-91813095D01*
X151233095Y-91955952D01*
X150661666Y-92527380D01*
X151280714Y-92527380D01*
X150947380Y-95845238D02*
X150947380Y-96416666D01*
X150947380Y-96130952D02*
X149947380Y-96130952D01*
X150090238Y-96226190D01*
X150185476Y-96321428D01*
X150233095Y-96416666D01*
X149947380Y-95226190D02*
X149947380Y-95130952D01*
X149995000Y-95035714D01*
X150042619Y-94988095D01*
X150137857Y-94940476D01*
X150328333Y-94892857D01*
X150566428Y-94892857D01*
X150756904Y-94940476D01*
X150852142Y-94988095D01*
X150899761Y-95035714D01*
X150947380Y-95130952D01*
X150947380Y-95226190D01*
X150899761Y-95321428D01*
X150852142Y-95369047D01*
X150756904Y-95416666D01*
X150566428Y-95464285D01*
X150328333Y-95464285D01*
X150137857Y-95416666D01*
X150042619Y-95369047D01*
X149995000Y-95321428D01*
X149947380Y-95226190D01*
X150947380Y-94464285D02*
X149947380Y-94464285D01*
X150566428Y-94369047D02*
X150947380Y-94083333D01*
X150280714Y-94083333D02*
X150661666Y-94464285D01*
X137628333Y-92527380D02*
X137295000Y-92051190D01*
X137056904Y-92527380D02*
X137056904Y-91527380D01*
X137437857Y-91527380D01*
X137533095Y-91575000D01*
X137580714Y-91622619D01*
X137628333Y-91717857D01*
X137628333Y-91860714D01*
X137580714Y-91955952D01*
X137533095Y-92003571D01*
X137437857Y-92051190D01*
X137056904Y-92051190D01*
X137961666Y-91527380D02*
X138580714Y-91527380D01*
X138247380Y-91908333D01*
X138390238Y-91908333D01*
X138485476Y-91955952D01*
X138533095Y-92003571D01*
X138580714Y-92098809D01*
X138580714Y-92336904D01*
X138533095Y-92432142D01*
X138485476Y-92479761D01*
X138390238Y-92527380D01*
X138104523Y-92527380D01*
X138009285Y-92479761D01*
X137961666Y-92432142D01*
X138247380Y-95845238D02*
X138247380Y-96416666D01*
X138247380Y-96130952D02*
X137247380Y-96130952D01*
X137390238Y-96226190D01*
X137485476Y-96321428D01*
X137533095Y-96416666D01*
X137247380Y-95226190D02*
X137247380Y-95130952D01*
X137295000Y-95035714D01*
X137342619Y-94988095D01*
X137437857Y-94940476D01*
X137628333Y-94892857D01*
X137866428Y-94892857D01*
X138056904Y-94940476D01*
X138152142Y-94988095D01*
X138199761Y-95035714D01*
X138247380Y-95130952D01*
X138247380Y-95226190D01*
X138199761Y-95321428D01*
X138152142Y-95369047D01*
X138056904Y-95416666D01*
X137866428Y-95464285D01*
X137628333Y-95464285D01*
X137437857Y-95416666D01*
X137342619Y-95369047D01*
X137295000Y-95321428D01*
X137247380Y-95226190D01*
X138247380Y-94464285D02*
X137247380Y-94464285D01*
X137866428Y-94369047D02*
X138247380Y-94083333D01*
X137580714Y-94083333D02*
X137961666Y-94464285D01*
X153503333Y-92527380D02*
X153170000Y-92051190D01*
X152931904Y-92527380D02*
X152931904Y-91527380D01*
X153312857Y-91527380D01*
X153408095Y-91575000D01*
X153455714Y-91622619D01*
X153503333Y-91717857D01*
X153503333Y-91860714D01*
X153455714Y-91955952D01*
X153408095Y-92003571D01*
X153312857Y-92051190D01*
X152931904Y-92051190D01*
X154360476Y-91860714D02*
X154360476Y-92527380D01*
X154122380Y-91479761D02*
X153884285Y-92194047D01*
X154503333Y-92194047D01*
X154122380Y-95845238D02*
X154122380Y-96416666D01*
X154122380Y-96130952D02*
X153122380Y-96130952D01*
X153265238Y-96226190D01*
X153360476Y-96321428D01*
X153408095Y-96416666D01*
X153122380Y-95226190D02*
X153122380Y-95130952D01*
X153170000Y-95035714D01*
X153217619Y-94988095D01*
X153312857Y-94940476D01*
X153503333Y-94892857D01*
X153741428Y-94892857D01*
X153931904Y-94940476D01*
X154027142Y-94988095D01*
X154074761Y-95035714D01*
X154122380Y-95130952D01*
X154122380Y-95226190D01*
X154074761Y-95321428D01*
X154027142Y-95369047D01*
X153931904Y-95416666D01*
X153741428Y-95464285D01*
X153503333Y-95464285D01*
X153312857Y-95416666D01*
X153217619Y-95369047D01*
X153170000Y-95321428D01*
X153122380Y-95226190D01*
X154122380Y-94464285D02*
X153122380Y-94464285D01*
X153741428Y-94369047D02*
X154122380Y-94083333D01*
X153455714Y-94083333D02*
X153836666Y-94464285D01*
X147772380Y-85891666D02*
X147296190Y-86225000D01*
X147772380Y-86463095D02*
X146772380Y-86463095D01*
X146772380Y-86082142D01*
X146820000Y-85986904D01*
X146867619Y-85939285D01*
X146962857Y-85891666D01*
X147105714Y-85891666D01*
X147200952Y-85939285D01*
X147248571Y-85986904D01*
X147296190Y-86082142D01*
X147296190Y-86463095D01*
X146772380Y-84986904D02*
X146772380Y-85463095D01*
X147248571Y-85510714D01*
X147200952Y-85463095D01*
X147153333Y-85367857D01*
X147153333Y-85129761D01*
X147200952Y-85034523D01*
X147248571Y-84986904D01*
X147343809Y-84939285D01*
X147581904Y-84939285D01*
X147677142Y-84986904D01*
X147724761Y-85034523D01*
X147772380Y-85129761D01*
X147772380Y-85367857D01*
X147724761Y-85463095D01*
X147677142Y-85510714D01*
X149899761Y-86177380D02*
X149328333Y-86177380D01*
X149614047Y-86177380D02*
X149614047Y-85177380D01*
X149518809Y-85320238D01*
X149423571Y-85415476D01*
X149328333Y-85463095D01*
X150518809Y-85177380D02*
X150614047Y-85177380D01*
X150709285Y-85225000D01*
X150756904Y-85272619D01*
X150804523Y-85367857D01*
X150852142Y-85558333D01*
X150852142Y-85796428D01*
X150804523Y-85986904D01*
X150756904Y-86082142D01*
X150709285Y-86129761D01*
X150614047Y-86177380D01*
X150518809Y-86177380D01*
X150423571Y-86129761D01*
X150375952Y-86082142D01*
X150328333Y-85986904D01*
X150280714Y-85796428D01*
X150280714Y-85558333D01*
X150328333Y-85367857D01*
X150375952Y-85272619D01*
X150423571Y-85225000D01*
X150518809Y-85177380D01*
X151280714Y-86177380D02*
X151280714Y-85177380D01*
X151375952Y-85796428D02*
X151661666Y-86177380D01*
X151661666Y-85510714D02*
X151280714Y-85891666D01*
X170013333Y-86177380D02*
X169680000Y-85701190D01*
X169441904Y-86177380D02*
X169441904Y-85177380D01*
X169822857Y-85177380D01*
X169918095Y-85225000D01*
X169965714Y-85272619D01*
X170013333Y-85367857D01*
X170013333Y-85510714D01*
X169965714Y-85605952D01*
X169918095Y-85653571D01*
X169822857Y-85701190D01*
X169441904Y-85701190D01*
X170870476Y-85177380D02*
X170680000Y-85177380D01*
X170584761Y-85225000D01*
X170537142Y-85272619D01*
X170441904Y-85415476D01*
X170394285Y-85605952D01*
X170394285Y-85986904D01*
X170441904Y-86082142D01*
X170489523Y-86129761D01*
X170584761Y-86177380D01*
X170775238Y-86177380D01*
X170870476Y-86129761D01*
X170918095Y-86082142D01*
X170965714Y-85986904D01*
X170965714Y-85748809D01*
X170918095Y-85653571D01*
X170870476Y-85605952D01*
X170775238Y-85558333D01*
X170584761Y-85558333D01*
X170489523Y-85605952D01*
X170441904Y-85653571D01*
X170394285Y-85748809D01*
X170632380Y-89495238D02*
X170632380Y-90066666D01*
X170632380Y-89780952D02*
X169632380Y-89780952D01*
X169775238Y-89876190D01*
X169870476Y-89971428D01*
X169918095Y-90066666D01*
X169632380Y-88876190D02*
X169632380Y-88780952D01*
X169680000Y-88685714D01*
X169727619Y-88638095D01*
X169822857Y-88590476D01*
X170013333Y-88542857D01*
X170251428Y-88542857D01*
X170441904Y-88590476D01*
X170537142Y-88638095D01*
X170584761Y-88685714D01*
X170632380Y-88780952D01*
X170632380Y-88876190D01*
X170584761Y-88971428D01*
X170537142Y-89019047D01*
X170441904Y-89066666D01*
X170251428Y-89114285D01*
X170013333Y-89114285D01*
X169822857Y-89066666D01*
X169727619Y-89019047D01*
X169680000Y-88971428D01*
X169632380Y-88876190D01*
X170632380Y-88114285D02*
X169632380Y-88114285D01*
X170251428Y-88019047D02*
X170632380Y-87733333D01*
X169965714Y-87733333D02*
X170346666Y-88114285D01*
X131278333Y-92527380D02*
X130945000Y-92051190D01*
X130706904Y-92527380D02*
X130706904Y-91527380D01*
X131087857Y-91527380D01*
X131183095Y-91575000D01*
X131230714Y-91622619D01*
X131278333Y-91717857D01*
X131278333Y-91860714D01*
X131230714Y-91955952D01*
X131183095Y-92003571D01*
X131087857Y-92051190D01*
X130706904Y-92051190D01*
X131611666Y-91527380D02*
X132278333Y-91527380D01*
X131849761Y-92527380D01*
X131897380Y-95845238D02*
X131897380Y-96416666D01*
X131897380Y-96130952D02*
X130897380Y-96130952D01*
X131040238Y-96226190D01*
X131135476Y-96321428D01*
X131183095Y-96416666D01*
X130897380Y-95226190D02*
X130897380Y-95130952D01*
X130945000Y-95035714D01*
X130992619Y-94988095D01*
X131087857Y-94940476D01*
X131278333Y-94892857D01*
X131516428Y-94892857D01*
X131706904Y-94940476D01*
X131802142Y-94988095D01*
X131849761Y-95035714D01*
X131897380Y-95130952D01*
X131897380Y-95226190D01*
X131849761Y-95321428D01*
X131802142Y-95369047D01*
X131706904Y-95416666D01*
X131516428Y-95464285D01*
X131278333Y-95464285D01*
X131087857Y-95416666D01*
X130992619Y-95369047D01*
X130945000Y-95321428D01*
X130897380Y-95226190D01*
X131897380Y-94464285D02*
X130897380Y-94464285D01*
X131516428Y-94369047D02*
X131897380Y-94083333D01*
X131230714Y-94083333D02*
X131611666Y-94464285D01*
X134437380Y-85891666D02*
X133961190Y-86225000D01*
X134437380Y-86463095D02*
X133437380Y-86463095D01*
X133437380Y-86082142D01*
X133485000Y-85986904D01*
X133532619Y-85939285D01*
X133627857Y-85891666D01*
X133770714Y-85891666D01*
X133865952Y-85939285D01*
X133913571Y-85986904D01*
X133961190Y-86082142D01*
X133961190Y-86463095D01*
X133865952Y-85320238D02*
X133818333Y-85415476D01*
X133770714Y-85463095D01*
X133675476Y-85510714D01*
X133627857Y-85510714D01*
X133532619Y-85463095D01*
X133485000Y-85415476D01*
X133437380Y-85320238D01*
X133437380Y-85129761D01*
X133485000Y-85034523D01*
X133532619Y-84986904D01*
X133627857Y-84939285D01*
X133675476Y-84939285D01*
X133770714Y-84986904D01*
X133818333Y-85034523D01*
X133865952Y-85129761D01*
X133865952Y-85320238D01*
X133913571Y-85415476D01*
X133961190Y-85463095D01*
X134056428Y-85510714D01*
X134246904Y-85510714D01*
X134342142Y-85463095D01*
X134389761Y-85415476D01*
X134437380Y-85320238D01*
X134437380Y-85129761D01*
X134389761Y-85034523D01*
X134342142Y-84986904D01*
X134246904Y-84939285D01*
X134056428Y-84939285D01*
X133961190Y-84986904D01*
X133913571Y-85034523D01*
X133865952Y-85129761D01*
X136564761Y-86177380D02*
X135993333Y-86177380D01*
X136279047Y-86177380D02*
X136279047Y-85177380D01*
X136183809Y-85320238D01*
X136088571Y-85415476D01*
X135993333Y-85463095D01*
X137183809Y-85177380D02*
X137279047Y-85177380D01*
X137374285Y-85225000D01*
X137421904Y-85272619D01*
X137469523Y-85367857D01*
X137517142Y-85558333D01*
X137517142Y-85796428D01*
X137469523Y-85986904D01*
X137421904Y-86082142D01*
X137374285Y-86129761D01*
X137279047Y-86177380D01*
X137183809Y-86177380D01*
X137088571Y-86129761D01*
X137040952Y-86082142D01*
X136993333Y-85986904D01*
X136945714Y-85796428D01*
X136945714Y-85558333D01*
X136993333Y-85367857D01*
X137040952Y-85272619D01*
X137088571Y-85225000D01*
X137183809Y-85177380D01*
X137945714Y-86177380D02*
X137945714Y-85177380D01*
X138040952Y-85796428D02*
X138326666Y-86177380D01*
X138326666Y-85510714D02*
X137945714Y-85891666D01*
X128103333Y-92527380D02*
X127770000Y-92051190D01*
X127531904Y-92527380D02*
X127531904Y-91527380D01*
X127912857Y-91527380D01*
X128008095Y-91575000D01*
X128055714Y-91622619D01*
X128103333Y-91717857D01*
X128103333Y-91860714D01*
X128055714Y-91955952D01*
X128008095Y-92003571D01*
X127912857Y-92051190D01*
X127531904Y-92051190D01*
X128579523Y-92527380D02*
X128770000Y-92527380D01*
X128865238Y-92479761D01*
X128912857Y-92432142D01*
X129008095Y-92289285D01*
X129055714Y-92098809D01*
X129055714Y-91717857D01*
X129008095Y-91622619D01*
X128960476Y-91575000D01*
X128865238Y-91527380D01*
X128674761Y-91527380D01*
X128579523Y-91575000D01*
X128531904Y-91622619D01*
X128484285Y-91717857D01*
X128484285Y-91955952D01*
X128531904Y-92051190D01*
X128579523Y-92098809D01*
X128674761Y-92146428D01*
X128865238Y-92146428D01*
X128960476Y-92098809D01*
X129008095Y-92051190D01*
X129055714Y-91955952D01*
X128722380Y-95845238D02*
X128722380Y-96416666D01*
X128722380Y-96130952D02*
X127722380Y-96130952D01*
X127865238Y-96226190D01*
X127960476Y-96321428D01*
X128008095Y-96416666D01*
X127722380Y-95226190D02*
X127722380Y-95130952D01*
X127770000Y-95035714D01*
X127817619Y-94988095D01*
X127912857Y-94940476D01*
X128103333Y-94892857D01*
X128341428Y-94892857D01*
X128531904Y-94940476D01*
X128627142Y-94988095D01*
X128674761Y-95035714D01*
X128722380Y-95130952D01*
X128722380Y-95226190D01*
X128674761Y-95321428D01*
X128627142Y-95369047D01*
X128531904Y-95416666D01*
X128341428Y-95464285D01*
X128103333Y-95464285D01*
X127912857Y-95416666D01*
X127817619Y-95369047D01*
X127770000Y-95321428D01*
X127722380Y-95226190D01*
X128722380Y-94464285D02*
X127722380Y-94464285D01*
X128341428Y-94369047D02*
X128722380Y-94083333D01*
X128055714Y-94083333D02*
X128436666Y-94464285D01*
M02*
