G04 #@! TF.GenerationSoftware,KiCad,Pcbnew,(5.1.8)-1*
G04 #@! TF.CreationDate,2021-02-26T23:44:03+01:00*
G04 #@! TF.ProjectId,Sega Mega Drive,53656761-204d-4656-9761-204472697665,rev?*
G04 #@! TF.SameCoordinates,Original*
G04 #@! TF.FileFunction,Legend,Bot*
G04 #@! TF.FilePolarity,Positive*
%FSLAX46Y46*%
G04 Gerber Fmt 4.6, Leading zero omitted, Abs format (unit mm)*
G04 Created by KiCad (PCBNEW (5.1.8)-1) date 2021-02-26 23:44:03*
%MOMM*%
%LPD*%
G01*
G04 APERTURE LIST*
%ADD10C,0.100000*%
%ADD11C,0.120000*%
G04 APERTURE END LIST*
D10*
X172281904Y-93955000D02*
X172853333Y-93955000D01*
X172967619Y-93916904D01*
X173043809Y-93840714D01*
X173081904Y-93726428D01*
X173081904Y-93650238D01*
X173081904Y-94335952D02*
X172281904Y-94335952D01*
X172281904Y-94640714D01*
X172320000Y-94716904D01*
X172358095Y-94755000D01*
X172434285Y-94793095D01*
X172548571Y-94793095D01*
X172624761Y-94755000D01*
X172662857Y-94716904D01*
X172700952Y-94640714D01*
X172700952Y-94335952D01*
X173081904Y-95555000D02*
X173081904Y-95097857D01*
X173081904Y-95326428D02*
X172281904Y-95326428D01*
X172396190Y-95250238D01*
X172472380Y-95174047D01*
X172510476Y-95097857D01*
X172281904Y-96393095D02*
X173081904Y-96659761D01*
X172281904Y-96926428D01*
X173005714Y-97650238D02*
X173043809Y-97612142D01*
X173081904Y-97497857D01*
X173081904Y-97421666D01*
X173043809Y-97307380D01*
X172967619Y-97231190D01*
X172891428Y-97193095D01*
X172739047Y-97155000D01*
X172624761Y-97155000D01*
X172472380Y-97193095D01*
X172396190Y-97231190D01*
X172320000Y-97307380D01*
X172281904Y-97421666D01*
X172281904Y-97497857D01*
X172320000Y-97612142D01*
X172358095Y-97650238D01*
X173005714Y-98450238D02*
X173043809Y-98412142D01*
X173081904Y-98297857D01*
X173081904Y-98221666D01*
X173043809Y-98107380D01*
X172967619Y-98031190D01*
X172891428Y-97993095D01*
X172739047Y-97955000D01*
X172624761Y-97955000D01*
X172472380Y-97993095D01*
X172396190Y-98031190D01*
X172320000Y-98107380D01*
X172281904Y-98221666D01*
X172281904Y-98297857D01*
X172320000Y-98412142D01*
X172358095Y-98450238D01*
X173158095Y-98602619D02*
X173158095Y-99212142D01*
X172662857Y-99402619D02*
X172662857Y-99669285D01*
X173081904Y-99783571D02*
X173081904Y-99402619D01*
X172281904Y-99402619D01*
X172281904Y-99783571D01*
X173081904Y-100126428D02*
X172281904Y-100126428D01*
X173081904Y-100583571D01*
X172281904Y-100583571D01*
X122751904Y-89033809D02*
X123323333Y-89033809D01*
X123437619Y-88995714D01*
X123513809Y-88919523D01*
X123551904Y-88805238D01*
X123551904Y-88729047D01*
X123018571Y-89757619D02*
X123551904Y-89757619D01*
X122713809Y-89567142D02*
X123285238Y-89376666D01*
X123285238Y-89871904D01*
X123513809Y-90748095D02*
X123551904Y-90862380D01*
X123551904Y-91052857D01*
X123513809Y-91129047D01*
X123475714Y-91167142D01*
X123399523Y-91205238D01*
X123323333Y-91205238D01*
X123247142Y-91167142D01*
X123209047Y-91129047D01*
X123170952Y-91052857D01*
X123132857Y-90900476D01*
X123094761Y-90824285D01*
X123056666Y-90786190D01*
X122980476Y-90748095D01*
X122904285Y-90748095D01*
X122828095Y-90786190D01*
X122790000Y-90824285D01*
X122751904Y-90900476D01*
X122751904Y-91090952D01*
X122790000Y-91205238D01*
X122751904Y-91433809D02*
X122751904Y-91890952D01*
X123551904Y-91662380D02*
X122751904Y-91662380D01*
X123323333Y-92119523D02*
X123323333Y-92500476D01*
X123551904Y-92043333D02*
X122751904Y-92310000D01*
X123551904Y-92576666D01*
X123551904Y-93300476D02*
X123170952Y-93033809D01*
X123551904Y-92843333D02*
X122751904Y-92843333D01*
X122751904Y-93148095D01*
X122790000Y-93224285D01*
X122828095Y-93262380D01*
X122904285Y-93300476D01*
X123018571Y-93300476D01*
X123094761Y-93262380D01*
X123132857Y-93224285D01*
X123170952Y-93148095D01*
X123170952Y-92843333D01*
X122751904Y-93529047D02*
X122751904Y-93986190D01*
X123551904Y-93757619D02*
X122751904Y-93757619D01*
X123628095Y-94062380D02*
X123628095Y-94671904D01*
X123513809Y-94824285D02*
X123551904Y-94938571D01*
X123551904Y-95129047D01*
X123513809Y-95205238D01*
X123475714Y-95243333D01*
X123399523Y-95281428D01*
X123323333Y-95281428D01*
X123247142Y-95243333D01*
X123209047Y-95205238D01*
X123170952Y-95129047D01*
X123132857Y-94976666D01*
X123094761Y-94900476D01*
X123056666Y-94862380D01*
X122980476Y-94824285D01*
X122904285Y-94824285D01*
X122828095Y-94862380D01*
X122790000Y-94900476D01*
X122751904Y-94976666D01*
X122751904Y-95167142D01*
X122790000Y-95281428D01*
X123132857Y-95624285D02*
X123132857Y-95890952D01*
X123551904Y-96005238D02*
X123551904Y-95624285D01*
X122751904Y-95624285D01*
X122751904Y-96005238D01*
X123551904Y-96729047D02*
X123551904Y-96348095D01*
X122751904Y-96348095D01*
X122256190Y-88626904D02*
X122256190Y-87826904D01*
X121951428Y-87826904D01*
X121875238Y-87865000D01*
X121837142Y-87903095D01*
X121799047Y-87979285D01*
X121799047Y-88093571D01*
X121837142Y-88169761D01*
X121875238Y-88207857D01*
X121951428Y-88245952D01*
X122256190Y-88245952D01*
X121037142Y-88626904D02*
X121494285Y-88626904D01*
X121265714Y-88626904D02*
X121265714Y-87826904D01*
X121341904Y-87941190D01*
X121418095Y-88017380D01*
X121494285Y-88055476D01*
X119818095Y-88207857D02*
X120084761Y-88207857D01*
X120084761Y-88626904D02*
X120084761Y-87826904D01*
X119703809Y-87826904D01*
X119399047Y-88626904D02*
X119399047Y-87826904D01*
X118560952Y-88626904D02*
X118827619Y-88245952D01*
X119018095Y-88626904D02*
X119018095Y-87826904D01*
X118713333Y-87826904D01*
X118637142Y-87865000D01*
X118599047Y-87903095D01*
X118560952Y-87979285D01*
X118560952Y-88093571D01*
X118599047Y-88169761D01*
X118637142Y-88207857D01*
X118713333Y-88245952D01*
X119018095Y-88245952D01*
X118218095Y-88207857D02*
X117951428Y-88207857D01*
X117837142Y-88626904D02*
X118218095Y-88626904D01*
X118218095Y-87826904D01*
X117837142Y-87826904D01*
X116465714Y-88626904D02*
X116922857Y-88626904D01*
X116694285Y-88626904D02*
X116694285Y-87826904D01*
X116770476Y-87941190D01*
X116846666Y-88017380D01*
X116922857Y-88055476D01*
D11*
X168910000Y-99695000D02*
X168910000Y-94615000D01*
X171450000Y-99695000D02*
X168910000Y-99695000D01*
X171450000Y-94615000D02*
X171450000Y-99695000D01*
X168910000Y-94615000D02*
X171450000Y-94615000D01*
X121920000Y-88900000D02*
X121285000Y-88900000D01*
X121920000Y-96520000D02*
X121920000Y-88900000D01*
X116840000Y-96520000D02*
X121920000Y-96520000D01*
X116840000Y-88900000D02*
X116840000Y-96520000D01*
X117475000Y-88900000D02*
X116840000Y-88900000D01*
X120650000Y-88900000D02*
X120650000Y-89535000D01*
X118110000Y-88900000D02*
X120650000Y-88900000D01*
X118110000Y-89535000D02*
X118110000Y-88900000D01*
D10*
X148145000Y-106391904D02*
X148525952Y-106391904D01*
X148525952Y-105591904D01*
X147878333Y-106391904D02*
X147878333Y-105858571D01*
X147878333Y-105591904D02*
X147916428Y-105630000D01*
X147878333Y-105668095D01*
X147840238Y-105630000D01*
X147878333Y-105591904D01*
X147878333Y-105668095D01*
X147154523Y-106353809D02*
X147230714Y-106391904D01*
X147383095Y-106391904D01*
X147459285Y-106353809D01*
X147497380Y-106315714D01*
X147535476Y-106239523D01*
X147535476Y-106010952D01*
X147497380Y-105934761D01*
X147459285Y-105896666D01*
X147383095Y-105858571D01*
X147230714Y-105858571D01*
X147154523Y-105896666D01*
X146506904Y-106353809D02*
X146583095Y-106391904D01*
X146735476Y-106391904D01*
X146811666Y-106353809D01*
X146849761Y-106277619D01*
X146849761Y-105972857D01*
X146811666Y-105896666D01*
X146735476Y-105858571D01*
X146583095Y-105858571D01*
X146506904Y-105896666D01*
X146468809Y-105972857D01*
X146468809Y-106049047D01*
X146849761Y-106125238D01*
X146125952Y-105858571D02*
X146125952Y-106391904D01*
X146125952Y-105934761D02*
X146087857Y-105896666D01*
X146011666Y-105858571D01*
X145897380Y-105858571D01*
X145821190Y-105896666D01*
X145783095Y-105972857D01*
X145783095Y-106391904D01*
X145440238Y-106353809D02*
X145364047Y-106391904D01*
X145211666Y-106391904D01*
X145135476Y-106353809D01*
X145097380Y-106277619D01*
X145097380Y-106239523D01*
X145135476Y-106163333D01*
X145211666Y-106125238D01*
X145325952Y-106125238D01*
X145402142Y-106087142D01*
X145440238Y-106010952D01*
X145440238Y-105972857D01*
X145402142Y-105896666D01*
X145325952Y-105858571D01*
X145211666Y-105858571D01*
X145135476Y-105896666D01*
X144449761Y-106353809D02*
X144525952Y-106391904D01*
X144678333Y-106391904D01*
X144754523Y-106353809D01*
X144792619Y-106277619D01*
X144792619Y-105972857D01*
X144754523Y-105896666D01*
X144678333Y-105858571D01*
X144525952Y-105858571D01*
X144449761Y-105896666D01*
X144411666Y-105972857D01*
X144411666Y-106049047D01*
X144792619Y-106125238D01*
X143725952Y-106391904D02*
X143725952Y-105591904D01*
X143725952Y-106353809D02*
X143802142Y-106391904D01*
X143954523Y-106391904D01*
X144030714Y-106353809D01*
X144068809Y-106315714D01*
X144106904Y-106239523D01*
X144106904Y-106010952D01*
X144068809Y-105934761D01*
X144030714Y-105896666D01*
X143954523Y-105858571D01*
X143802142Y-105858571D01*
X143725952Y-105896666D01*
X142392619Y-105858571D02*
X142392619Y-106391904D01*
X142735476Y-105858571D02*
X142735476Y-106277619D01*
X142697380Y-106353809D01*
X142621190Y-106391904D01*
X142506904Y-106391904D01*
X142430714Y-106353809D01*
X142392619Y-106315714D01*
X142011666Y-105858571D02*
X142011666Y-106391904D01*
X142011666Y-105934761D02*
X141973571Y-105896666D01*
X141897380Y-105858571D01*
X141783095Y-105858571D01*
X141706904Y-105896666D01*
X141668809Y-105972857D01*
X141668809Y-106391904D01*
X140945000Y-106391904D02*
X140945000Y-105591904D01*
X140945000Y-106353809D02*
X141021190Y-106391904D01*
X141173571Y-106391904D01*
X141249761Y-106353809D01*
X141287857Y-106315714D01*
X141325952Y-106239523D01*
X141325952Y-106010952D01*
X141287857Y-105934761D01*
X141249761Y-105896666D01*
X141173571Y-105858571D01*
X141021190Y-105858571D01*
X140945000Y-105896666D01*
X140259285Y-106353809D02*
X140335476Y-106391904D01*
X140487857Y-106391904D01*
X140564047Y-106353809D01*
X140602142Y-106277619D01*
X140602142Y-105972857D01*
X140564047Y-105896666D01*
X140487857Y-105858571D01*
X140335476Y-105858571D01*
X140259285Y-105896666D01*
X140221190Y-105972857D01*
X140221190Y-106049047D01*
X140602142Y-106125238D01*
X139878333Y-106391904D02*
X139878333Y-105858571D01*
X139878333Y-106010952D02*
X139840238Y-105934761D01*
X139802142Y-105896666D01*
X139725952Y-105858571D01*
X139649761Y-105858571D01*
X148106904Y-107615714D02*
X148145000Y-107653809D01*
X148259285Y-107691904D01*
X148335476Y-107691904D01*
X148449761Y-107653809D01*
X148525952Y-107577619D01*
X148564047Y-107501428D01*
X148602142Y-107349047D01*
X148602142Y-107234761D01*
X148564047Y-107082380D01*
X148525952Y-107006190D01*
X148449761Y-106930000D01*
X148335476Y-106891904D01*
X148259285Y-106891904D01*
X148145000Y-106930000D01*
X148106904Y-106968095D01*
X147764047Y-107272857D02*
X147497380Y-107272857D01*
X147383095Y-107691904D02*
X147764047Y-107691904D01*
X147764047Y-106891904D01*
X147383095Y-106891904D01*
X146583095Y-107691904D02*
X146849761Y-107310952D01*
X147040238Y-107691904D02*
X147040238Y-106891904D01*
X146735476Y-106891904D01*
X146659285Y-106930000D01*
X146621190Y-106968095D01*
X146583095Y-107044285D01*
X146583095Y-107158571D01*
X146621190Y-107234761D01*
X146659285Y-107272857D01*
X146735476Y-107310952D01*
X147040238Y-107310952D01*
X146240238Y-107691904D02*
X146240238Y-106891904D01*
X145783095Y-107691904D01*
X145783095Y-106891904D01*
X144640238Y-106891904D02*
X144487857Y-106891904D01*
X144411666Y-106930000D01*
X144335476Y-107006190D01*
X144297380Y-107158571D01*
X144297380Y-107425238D01*
X144335476Y-107577619D01*
X144411666Y-107653809D01*
X144487857Y-107691904D01*
X144640238Y-107691904D01*
X144716428Y-107653809D01*
X144792619Y-107577619D01*
X144830714Y-107425238D01*
X144830714Y-107158571D01*
X144792619Y-107006190D01*
X144716428Y-106930000D01*
X144640238Y-106891904D01*
X143954523Y-107691904D02*
X143954523Y-106891904D01*
X143954523Y-107272857D02*
X143497380Y-107272857D01*
X143497380Y-107691904D02*
X143497380Y-106891904D01*
X142735476Y-107691904D02*
X143116428Y-107691904D01*
X143116428Y-106891904D01*
X141935476Y-107158571D02*
X141745000Y-107691904D01*
X141554523Y-107158571D01*
X140830714Y-107691904D02*
X141287857Y-107691904D01*
X141059285Y-107691904D02*
X141059285Y-106891904D01*
X141135476Y-107006190D01*
X141211666Y-107082380D01*
X141287857Y-107120476D01*
X140487857Y-107615714D02*
X140449761Y-107653809D01*
X140487857Y-107691904D01*
X140525952Y-107653809D01*
X140487857Y-107615714D01*
X140487857Y-107691904D01*
X140145000Y-106968095D02*
X140106904Y-106930000D01*
X140030714Y-106891904D01*
X139840238Y-106891904D01*
X139764047Y-106930000D01*
X139725952Y-106968095D01*
X139687857Y-107044285D01*
X139687857Y-107120476D01*
X139725952Y-107234761D01*
X140183095Y-107691904D01*
X139687857Y-107691904D01*
X149663095Y-103892142D02*
X149091666Y-103892142D01*
X148977380Y-103930238D01*
X148901190Y-104006428D01*
X148863095Y-104120714D01*
X148863095Y-104196904D01*
X148863095Y-103396904D02*
X148901190Y-103473095D01*
X148939285Y-103511190D01*
X149015476Y-103549285D01*
X149244047Y-103549285D01*
X149320238Y-103511190D01*
X149358333Y-103473095D01*
X149396428Y-103396904D01*
X149396428Y-103282619D01*
X149358333Y-103206428D01*
X149320238Y-103168333D01*
X149244047Y-103130238D01*
X149015476Y-103130238D01*
X148939285Y-103168333D01*
X148901190Y-103206428D01*
X148863095Y-103282619D01*
X148863095Y-103396904D01*
X149396428Y-102863571D02*
X148863095Y-102673095D01*
X149396428Y-102482619D02*
X148863095Y-102673095D01*
X148672619Y-102749285D01*
X148634523Y-102787380D01*
X148596428Y-102863571D01*
X148863095Y-102177857D02*
X149663095Y-102177857D01*
X148863095Y-101720714D02*
X149320238Y-102063571D01*
X149663095Y-101720714D02*
X149205952Y-102177857D01*
X149282142Y-101377857D02*
X149282142Y-101111190D01*
X148863095Y-100996904D02*
X148863095Y-101377857D01*
X149663095Y-101377857D01*
X149663095Y-100996904D01*
X149244047Y-100501666D02*
X148863095Y-100501666D01*
X149663095Y-100768333D02*
X149244047Y-100501666D01*
X149663095Y-100235000D01*
X147432857Y-100877857D02*
X147699523Y-100877857D01*
X147699523Y-101296904D02*
X147699523Y-100496904D01*
X147318571Y-100496904D01*
X147013809Y-101296904D02*
X147013809Y-100496904D01*
X146175714Y-101296904D02*
X146442380Y-100915952D01*
X146632857Y-101296904D02*
X146632857Y-100496904D01*
X146328095Y-100496904D01*
X146251904Y-100535000D01*
X146213809Y-100573095D01*
X146175714Y-100649285D01*
X146175714Y-100763571D01*
X146213809Y-100839761D01*
X146251904Y-100877857D01*
X146328095Y-100915952D01*
X146632857Y-100915952D01*
X145832857Y-100877857D02*
X145566190Y-100877857D01*
X145451904Y-101296904D02*
X145832857Y-101296904D01*
X145832857Y-100496904D01*
X145451904Y-100496904D01*
X145185238Y-100496904D02*
X144690000Y-100496904D01*
X144956666Y-100801666D01*
X144842380Y-100801666D01*
X144766190Y-100839761D01*
X144728095Y-100877857D01*
X144690000Y-100954047D01*
X144690000Y-101144523D01*
X144728095Y-101220714D01*
X144766190Y-101258809D01*
X144842380Y-101296904D01*
X145070952Y-101296904D01*
X145147142Y-101258809D01*
X145185238Y-101220714D01*
X144537619Y-101373095D02*
X143928095Y-101373095D01*
X143775714Y-101258809D02*
X143661428Y-101296904D01*
X143470952Y-101296904D01*
X143394761Y-101258809D01*
X143356666Y-101220714D01*
X143318571Y-101144523D01*
X143318571Y-101068333D01*
X143356666Y-100992142D01*
X143394761Y-100954047D01*
X143470952Y-100915952D01*
X143623333Y-100877857D01*
X143699523Y-100839761D01*
X143737619Y-100801666D01*
X143775714Y-100725476D01*
X143775714Y-100649285D01*
X143737619Y-100573095D01*
X143699523Y-100535000D01*
X143623333Y-100496904D01*
X143432857Y-100496904D01*
X143318571Y-100535000D01*
X142975714Y-100877857D02*
X142709047Y-100877857D01*
X142594761Y-101296904D02*
X142975714Y-101296904D01*
X142975714Y-100496904D01*
X142594761Y-100496904D01*
X141870952Y-101296904D02*
X142251904Y-101296904D01*
X142251904Y-100496904D01*
X140994761Y-101296904D02*
X140994761Y-100496904D01*
X140690000Y-100496904D01*
X140613809Y-100535000D01*
X140575714Y-100573095D01*
X140537619Y-100649285D01*
X140537619Y-100763571D01*
X140575714Y-100839761D01*
X140613809Y-100877857D01*
X140690000Y-100915952D01*
X140994761Y-100915952D01*
X140232857Y-100573095D02*
X140194761Y-100535000D01*
X140118571Y-100496904D01*
X139928095Y-100496904D01*
X139851904Y-100535000D01*
X139813809Y-100573095D01*
X139775714Y-100649285D01*
X139775714Y-100725476D01*
X139813809Y-100839761D01*
X140270952Y-101296904D01*
X139775714Y-101296904D01*
X147432857Y-102177857D02*
X147699523Y-102177857D01*
X147699523Y-102596904D02*
X147699523Y-101796904D01*
X147318571Y-101796904D01*
X147013809Y-102596904D02*
X147013809Y-101796904D01*
X146175714Y-102596904D02*
X146442380Y-102215952D01*
X146632857Y-102596904D02*
X146632857Y-101796904D01*
X146328095Y-101796904D01*
X146251904Y-101835000D01*
X146213809Y-101873095D01*
X146175714Y-101949285D01*
X146175714Y-102063571D01*
X146213809Y-102139761D01*
X146251904Y-102177857D01*
X146328095Y-102215952D01*
X146632857Y-102215952D01*
X145832857Y-102177857D02*
X145566190Y-102177857D01*
X145451904Y-102596904D02*
X145832857Y-102596904D01*
X145832857Y-101796904D01*
X145451904Y-101796904D01*
X145185238Y-101796904D02*
X144690000Y-101796904D01*
X144956666Y-102101666D01*
X144842380Y-102101666D01*
X144766190Y-102139761D01*
X144728095Y-102177857D01*
X144690000Y-102254047D01*
X144690000Y-102444523D01*
X144728095Y-102520714D01*
X144766190Y-102558809D01*
X144842380Y-102596904D01*
X145070952Y-102596904D01*
X145147142Y-102558809D01*
X145185238Y-102520714D01*
X144537619Y-102673095D02*
X143928095Y-102673095D01*
X143737619Y-102596904D02*
X143737619Y-101796904D01*
X143432857Y-101796904D01*
X143356666Y-101835000D01*
X143318571Y-101873095D01*
X143280476Y-101949285D01*
X143280476Y-102063571D01*
X143318571Y-102139761D01*
X143356666Y-102177857D01*
X143432857Y-102215952D01*
X143737619Y-102215952D01*
X142785238Y-101796904D02*
X142632857Y-101796904D01*
X142556666Y-101835000D01*
X142480476Y-101911190D01*
X142442380Y-102063571D01*
X142442380Y-102330238D01*
X142480476Y-102482619D01*
X142556666Y-102558809D01*
X142632857Y-102596904D01*
X142785238Y-102596904D01*
X142861428Y-102558809D01*
X142937619Y-102482619D01*
X142975714Y-102330238D01*
X142975714Y-102063571D01*
X142937619Y-101911190D01*
X142861428Y-101835000D01*
X142785238Y-101796904D01*
X141718571Y-102596904D02*
X142099523Y-102596904D01*
X142099523Y-101796904D01*
X140423333Y-101835000D02*
X140499523Y-101796904D01*
X140613809Y-101796904D01*
X140728095Y-101835000D01*
X140804285Y-101911190D01*
X140842380Y-101987380D01*
X140880476Y-102139761D01*
X140880476Y-102254047D01*
X140842380Y-102406428D01*
X140804285Y-102482619D01*
X140728095Y-102558809D01*
X140613809Y-102596904D01*
X140537619Y-102596904D01*
X140423333Y-102558809D01*
X140385238Y-102520714D01*
X140385238Y-102254047D01*
X140537619Y-102254047D01*
X140042380Y-102596904D02*
X140042380Y-101796904D01*
X139585238Y-102596904D01*
X139585238Y-101796904D01*
X139204285Y-102596904D02*
X139204285Y-101796904D01*
X139013809Y-101796904D01*
X138899523Y-101835000D01*
X138823333Y-101911190D01*
X138785238Y-101987380D01*
X138747142Y-102139761D01*
X138747142Y-102254047D01*
X138785238Y-102406428D01*
X138823333Y-102482619D01*
X138899523Y-102558809D01*
X139013809Y-102596904D01*
X139204285Y-102596904D01*
X147432857Y-103477857D02*
X147699523Y-103477857D01*
X147699523Y-103896904D02*
X147699523Y-103096904D01*
X147318571Y-103096904D01*
X147013809Y-103896904D02*
X147013809Y-103096904D01*
X146175714Y-103896904D02*
X146442380Y-103515952D01*
X146632857Y-103896904D02*
X146632857Y-103096904D01*
X146328095Y-103096904D01*
X146251904Y-103135000D01*
X146213809Y-103173095D01*
X146175714Y-103249285D01*
X146175714Y-103363571D01*
X146213809Y-103439761D01*
X146251904Y-103477857D01*
X146328095Y-103515952D01*
X146632857Y-103515952D01*
X145832857Y-103477857D02*
X145566190Y-103477857D01*
X145451904Y-103896904D02*
X145832857Y-103896904D01*
X145832857Y-103096904D01*
X145451904Y-103096904D01*
X145147142Y-103173095D02*
X145109047Y-103135000D01*
X145032857Y-103096904D01*
X144842380Y-103096904D01*
X144766190Y-103135000D01*
X144728095Y-103173095D01*
X144690000Y-103249285D01*
X144690000Y-103325476D01*
X144728095Y-103439761D01*
X145185238Y-103896904D01*
X144690000Y-103896904D01*
X144537619Y-103973095D02*
X143928095Y-103973095D01*
X143737619Y-103896904D02*
X143737619Y-103096904D01*
X143432857Y-103096904D01*
X143356666Y-103135000D01*
X143318571Y-103173095D01*
X143280476Y-103249285D01*
X143280476Y-103363571D01*
X143318571Y-103439761D01*
X143356666Y-103477857D01*
X143432857Y-103515952D01*
X143737619Y-103515952D01*
X142785238Y-103096904D02*
X142632857Y-103096904D01*
X142556666Y-103135000D01*
X142480476Y-103211190D01*
X142442380Y-103363571D01*
X142442380Y-103630238D01*
X142480476Y-103782619D01*
X142556666Y-103858809D01*
X142632857Y-103896904D01*
X142785238Y-103896904D01*
X142861428Y-103858809D01*
X142937619Y-103782619D01*
X142975714Y-103630238D01*
X142975714Y-103363571D01*
X142937619Y-103211190D01*
X142861428Y-103135000D01*
X142785238Y-103096904D01*
X141718571Y-103896904D02*
X142099523Y-103896904D01*
X142099523Y-103096904D01*
X140423333Y-103135000D02*
X140499523Y-103096904D01*
X140613809Y-103096904D01*
X140728095Y-103135000D01*
X140804285Y-103211190D01*
X140842380Y-103287380D01*
X140880476Y-103439761D01*
X140880476Y-103554047D01*
X140842380Y-103706428D01*
X140804285Y-103782619D01*
X140728095Y-103858809D01*
X140613809Y-103896904D01*
X140537619Y-103896904D01*
X140423333Y-103858809D01*
X140385238Y-103820714D01*
X140385238Y-103554047D01*
X140537619Y-103554047D01*
X140042380Y-103896904D02*
X140042380Y-103096904D01*
X139585238Y-103896904D01*
X139585238Y-103096904D01*
X139204285Y-103896904D02*
X139204285Y-103096904D01*
X139013809Y-103096904D01*
X138899523Y-103135000D01*
X138823333Y-103211190D01*
X138785238Y-103287380D01*
X138747142Y-103439761D01*
X138747142Y-103554047D01*
X138785238Y-103706428D01*
X138823333Y-103782619D01*
X138899523Y-103858809D01*
X139013809Y-103896904D01*
X139204285Y-103896904D01*
M02*
