G04 #@! TF.GenerationSoftware,KiCad,Pcbnew,(5.1.8)-1*
G04 #@! TF.CreationDate,2021-01-07T01:53:48+01:00*
G04 #@! TF.ProjectId,A7800 Adapter,41373830-3020-4416-9461-707465722e6b,rev?*
G04 #@! TF.SameCoordinates,Original*
G04 #@! TF.FileFunction,Legend,Bot*
G04 #@! TF.FilePolarity,Positive*
%FSLAX46Y46*%
G04 Gerber Fmt 4.6, Leading zero omitted, Abs format (unit mm)*
G04 Created by KiCad (PCBNEW (5.1.8)-1) date 2021-01-07 01:53:48*
%MOMM*%
%LPD*%
G01*
G04 APERTURE LIST*
%ADD10C,0.100000*%
%ADD11C,0.120000*%
G04 APERTURE END LIST*
D10*
X149020952Y-92208333D02*
X148640000Y-92208333D01*
X149097142Y-92436904D02*
X148830476Y-91636904D01*
X148563809Y-92436904D01*
X148411428Y-91903571D02*
X148106666Y-91903571D01*
X148297142Y-91636904D02*
X148297142Y-92322619D01*
X148259047Y-92398809D01*
X148182857Y-92436904D01*
X148106666Y-92436904D01*
X147497142Y-92436904D02*
X147497142Y-92017857D01*
X147535238Y-91941666D01*
X147611428Y-91903571D01*
X147763809Y-91903571D01*
X147840000Y-91941666D01*
X147497142Y-92398809D02*
X147573333Y-92436904D01*
X147763809Y-92436904D01*
X147840000Y-92398809D01*
X147878095Y-92322619D01*
X147878095Y-92246428D01*
X147840000Y-92170238D01*
X147763809Y-92132142D01*
X147573333Y-92132142D01*
X147497142Y-92094047D01*
X147116190Y-92436904D02*
X147116190Y-91903571D01*
X147116190Y-92055952D02*
X147078095Y-91979761D01*
X147040000Y-91941666D01*
X146963809Y-91903571D01*
X146887619Y-91903571D01*
X146620952Y-92436904D02*
X146620952Y-91903571D01*
X146620952Y-91636904D02*
X146659047Y-91675000D01*
X146620952Y-91713095D01*
X146582857Y-91675000D01*
X146620952Y-91636904D01*
X146620952Y-91713095D01*
X145706666Y-91636904D02*
X145173333Y-91636904D01*
X145516190Y-92436904D01*
X144754285Y-91979761D02*
X144830476Y-91941666D01*
X144868571Y-91903571D01*
X144906666Y-91827380D01*
X144906666Y-91789285D01*
X144868571Y-91713095D01*
X144830476Y-91675000D01*
X144754285Y-91636904D01*
X144601904Y-91636904D01*
X144525714Y-91675000D01*
X144487619Y-91713095D01*
X144449523Y-91789285D01*
X144449523Y-91827380D01*
X144487619Y-91903571D01*
X144525714Y-91941666D01*
X144601904Y-91979761D01*
X144754285Y-91979761D01*
X144830476Y-92017857D01*
X144868571Y-92055952D01*
X144906666Y-92132142D01*
X144906666Y-92284523D01*
X144868571Y-92360714D01*
X144830476Y-92398809D01*
X144754285Y-92436904D01*
X144601904Y-92436904D01*
X144525714Y-92398809D01*
X144487619Y-92360714D01*
X144449523Y-92284523D01*
X144449523Y-92132142D01*
X144487619Y-92055952D01*
X144525714Y-92017857D01*
X144601904Y-91979761D01*
X143954285Y-91636904D02*
X143878095Y-91636904D01*
X143801904Y-91675000D01*
X143763809Y-91713095D01*
X143725714Y-91789285D01*
X143687619Y-91941666D01*
X143687619Y-92132142D01*
X143725714Y-92284523D01*
X143763809Y-92360714D01*
X143801904Y-92398809D01*
X143878095Y-92436904D01*
X143954285Y-92436904D01*
X144030476Y-92398809D01*
X144068571Y-92360714D01*
X144106666Y-92284523D01*
X144144761Y-92132142D01*
X144144761Y-91941666D01*
X144106666Y-91789285D01*
X144068571Y-91713095D01*
X144030476Y-91675000D01*
X143954285Y-91636904D01*
X143192380Y-91636904D02*
X143116190Y-91636904D01*
X143040000Y-91675000D01*
X143001904Y-91713095D01*
X142963809Y-91789285D01*
X142925714Y-91941666D01*
X142925714Y-92132142D01*
X142963809Y-92284523D01*
X143001904Y-92360714D01*
X143040000Y-92398809D01*
X143116190Y-92436904D01*
X143192380Y-92436904D01*
X143268571Y-92398809D01*
X143306666Y-92360714D01*
X143344761Y-92284523D01*
X143382857Y-92132142D01*
X143382857Y-91941666D01*
X143344761Y-91789285D01*
X143306666Y-91713095D01*
X143268571Y-91675000D01*
X143192380Y-91636904D01*
X141973333Y-92436904D02*
X141973333Y-91636904D01*
X141668571Y-91636904D01*
X141592380Y-91675000D01*
X141554285Y-91713095D01*
X141516190Y-91789285D01*
X141516190Y-91903571D01*
X141554285Y-91979761D01*
X141592380Y-92017857D01*
X141668571Y-92055952D01*
X141973333Y-92055952D01*
X141173333Y-92436904D02*
X141173333Y-91903571D01*
X141173333Y-92055952D02*
X141135238Y-91979761D01*
X141097142Y-91941666D01*
X141020952Y-91903571D01*
X140944761Y-91903571D01*
X140563809Y-92436904D02*
X140640000Y-92398809D01*
X140678095Y-92360714D01*
X140716190Y-92284523D01*
X140716190Y-92055952D01*
X140678095Y-91979761D01*
X140640000Y-91941666D01*
X140563809Y-91903571D01*
X140449523Y-91903571D01*
X140373333Y-91941666D01*
X140335238Y-91979761D01*
X140297142Y-92055952D01*
X140297142Y-92284523D01*
X140335238Y-92360714D01*
X140373333Y-92398809D01*
X140449523Y-92436904D01*
X140563809Y-92436904D01*
X139382857Y-92398809D02*
X139268571Y-92436904D01*
X139078095Y-92436904D01*
X139001904Y-92398809D01*
X138963809Y-92360714D01*
X138925714Y-92284523D01*
X138925714Y-92208333D01*
X138963809Y-92132142D01*
X139001904Y-92094047D01*
X139078095Y-92055952D01*
X139230476Y-92017857D01*
X139306666Y-91979761D01*
X139344761Y-91941666D01*
X139382857Y-91865476D01*
X139382857Y-91789285D01*
X139344761Y-91713095D01*
X139306666Y-91675000D01*
X139230476Y-91636904D01*
X139040000Y-91636904D01*
X138925714Y-91675000D01*
X138659047Y-91903571D02*
X138468571Y-92436904D01*
X138278095Y-91903571D02*
X138468571Y-92436904D01*
X138544761Y-92627380D01*
X138582857Y-92665476D01*
X138659047Y-92703571D01*
X138011428Y-92398809D02*
X137935238Y-92436904D01*
X137782857Y-92436904D01*
X137706666Y-92398809D01*
X137668571Y-92322619D01*
X137668571Y-92284523D01*
X137706666Y-92208333D01*
X137782857Y-92170238D01*
X137897142Y-92170238D01*
X137973333Y-92132142D01*
X138011428Y-92055952D01*
X138011428Y-92017857D01*
X137973333Y-91941666D01*
X137897142Y-91903571D01*
X137782857Y-91903571D01*
X137706666Y-91941666D01*
X137440000Y-91903571D02*
X137135238Y-91903571D01*
X137325714Y-91636904D02*
X137325714Y-92322619D01*
X137287619Y-92398809D01*
X137211428Y-92436904D01*
X137135238Y-92436904D01*
X136563809Y-92398809D02*
X136640000Y-92436904D01*
X136792380Y-92436904D01*
X136868571Y-92398809D01*
X136906666Y-92322619D01*
X136906666Y-92017857D01*
X136868571Y-91941666D01*
X136792380Y-91903571D01*
X136640000Y-91903571D01*
X136563809Y-91941666D01*
X136525714Y-92017857D01*
X136525714Y-92094047D01*
X136906666Y-92170238D01*
X136182857Y-92436904D02*
X136182857Y-91903571D01*
X136182857Y-91979761D02*
X136144761Y-91941666D01*
X136068571Y-91903571D01*
X135954285Y-91903571D01*
X135878095Y-91941666D01*
X135840000Y-92017857D01*
X135840000Y-92436904D01*
X135840000Y-92017857D02*
X135801904Y-91941666D01*
X135725714Y-91903571D01*
X135611428Y-91903571D01*
X135535238Y-91941666D01*
X135497142Y-92017857D01*
X135497142Y-92436904D01*
D11*
X153035000Y-83185000D02*
X156845000Y-83185000D01*
X131445000Y-83185000D02*
X127635000Y-83185000D01*
D10*
X147758095Y-84842142D02*
X147186666Y-84842142D01*
X147072380Y-84880238D01*
X146996190Y-84956428D01*
X146958095Y-85070714D01*
X146958095Y-85146904D01*
X146958095Y-84346904D02*
X146996190Y-84423095D01*
X147034285Y-84461190D01*
X147110476Y-84499285D01*
X147339047Y-84499285D01*
X147415238Y-84461190D01*
X147453333Y-84423095D01*
X147491428Y-84346904D01*
X147491428Y-84232619D01*
X147453333Y-84156428D01*
X147415238Y-84118333D01*
X147339047Y-84080238D01*
X147110476Y-84080238D01*
X147034285Y-84118333D01*
X146996190Y-84156428D01*
X146958095Y-84232619D01*
X146958095Y-84346904D01*
X147491428Y-83813571D02*
X146958095Y-83623095D01*
X147491428Y-83432619D02*
X146958095Y-83623095D01*
X146767619Y-83699285D01*
X146729523Y-83737380D01*
X146691428Y-83813571D01*
X146958095Y-83127857D02*
X147758095Y-83127857D01*
X146958095Y-82670714D02*
X147415238Y-83013571D01*
X147758095Y-82670714D02*
X147300952Y-83127857D01*
X147377142Y-82327857D02*
X147377142Y-82061190D01*
X146958095Y-81946904D02*
X146958095Y-82327857D01*
X147758095Y-82327857D01*
X147758095Y-81946904D01*
X147339047Y-81451666D02*
X146958095Y-81451666D01*
X147758095Y-81718333D02*
X147339047Y-81451666D01*
X147758095Y-81185000D01*
X145527857Y-81827857D02*
X145794523Y-81827857D01*
X145794523Y-82246904D02*
X145794523Y-81446904D01*
X145413571Y-81446904D01*
X145108809Y-82246904D02*
X145108809Y-81446904D01*
X144270714Y-82246904D02*
X144537380Y-81865952D01*
X144727857Y-82246904D02*
X144727857Y-81446904D01*
X144423095Y-81446904D01*
X144346904Y-81485000D01*
X144308809Y-81523095D01*
X144270714Y-81599285D01*
X144270714Y-81713571D01*
X144308809Y-81789761D01*
X144346904Y-81827857D01*
X144423095Y-81865952D01*
X144727857Y-81865952D01*
X143927857Y-81827857D02*
X143661190Y-81827857D01*
X143546904Y-82246904D02*
X143927857Y-82246904D01*
X143927857Y-81446904D01*
X143546904Y-81446904D01*
X143280238Y-81446904D02*
X142785000Y-81446904D01*
X143051666Y-81751666D01*
X142937380Y-81751666D01*
X142861190Y-81789761D01*
X142823095Y-81827857D01*
X142785000Y-81904047D01*
X142785000Y-82094523D01*
X142823095Y-82170714D01*
X142861190Y-82208809D01*
X142937380Y-82246904D01*
X143165952Y-82246904D01*
X143242142Y-82208809D01*
X143280238Y-82170714D01*
X142632619Y-82323095D02*
X142023095Y-82323095D01*
X141870714Y-82208809D02*
X141756428Y-82246904D01*
X141565952Y-82246904D01*
X141489761Y-82208809D01*
X141451666Y-82170714D01*
X141413571Y-82094523D01*
X141413571Y-82018333D01*
X141451666Y-81942142D01*
X141489761Y-81904047D01*
X141565952Y-81865952D01*
X141718333Y-81827857D01*
X141794523Y-81789761D01*
X141832619Y-81751666D01*
X141870714Y-81675476D01*
X141870714Y-81599285D01*
X141832619Y-81523095D01*
X141794523Y-81485000D01*
X141718333Y-81446904D01*
X141527857Y-81446904D01*
X141413571Y-81485000D01*
X141070714Y-81827857D02*
X140804047Y-81827857D01*
X140689761Y-82246904D02*
X141070714Y-82246904D01*
X141070714Y-81446904D01*
X140689761Y-81446904D01*
X139965952Y-82246904D02*
X140346904Y-82246904D01*
X140346904Y-81446904D01*
X139089761Y-82246904D02*
X139089761Y-81446904D01*
X138632619Y-82246904D01*
X138632619Y-81446904D01*
X137680238Y-81408809D02*
X138365952Y-82437380D01*
X136956428Y-82170714D02*
X136994523Y-82208809D01*
X137108809Y-82246904D01*
X137185000Y-82246904D01*
X137299285Y-82208809D01*
X137375476Y-82132619D01*
X137413571Y-82056428D01*
X137451666Y-81904047D01*
X137451666Y-81789761D01*
X137413571Y-81637380D01*
X137375476Y-81561190D01*
X137299285Y-81485000D01*
X137185000Y-81446904D01*
X137108809Y-81446904D01*
X136994523Y-81485000D01*
X136956428Y-81523095D01*
X145527857Y-83127857D02*
X145794523Y-83127857D01*
X145794523Y-83546904D02*
X145794523Y-82746904D01*
X145413571Y-82746904D01*
X145108809Y-83546904D02*
X145108809Y-82746904D01*
X144270714Y-83546904D02*
X144537380Y-83165952D01*
X144727857Y-83546904D02*
X144727857Y-82746904D01*
X144423095Y-82746904D01*
X144346904Y-82785000D01*
X144308809Y-82823095D01*
X144270714Y-82899285D01*
X144270714Y-83013571D01*
X144308809Y-83089761D01*
X144346904Y-83127857D01*
X144423095Y-83165952D01*
X144727857Y-83165952D01*
X143927857Y-83127857D02*
X143661190Y-83127857D01*
X143546904Y-83546904D02*
X143927857Y-83546904D01*
X143927857Y-82746904D01*
X143546904Y-82746904D01*
X143280238Y-82746904D02*
X142785000Y-82746904D01*
X143051666Y-83051666D01*
X142937380Y-83051666D01*
X142861190Y-83089761D01*
X142823095Y-83127857D01*
X142785000Y-83204047D01*
X142785000Y-83394523D01*
X142823095Y-83470714D01*
X142861190Y-83508809D01*
X142937380Y-83546904D01*
X143165952Y-83546904D01*
X143242142Y-83508809D01*
X143280238Y-83470714D01*
X142632619Y-83623095D02*
X142023095Y-83623095D01*
X141832619Y-83546904D02*
X141832619Y-82746904D01*
X141527857Y-82746904D01*
X141451666Y-82785000D01*
X141413571Y-82823095D01*
X141375476Y-82899285D01*
X141375476Y-83013571D01*
X141413571Y-83089761D01*
X141451666Y-83127857D01*
X141527857Y-83165952D01*
X141832619Y-83165952D01*
X140880238Y-82746904D02*
X140727857Y-82746904D01*
X140651666Y-82785000D01*
X140575476Y-82861190D01*
X140537380Y-83013571D01*
X140537380Y-83280238D01*
X140575476Y-83432619D01*
X140651666Y-83508809D01*
X140727857Y-83546904D01*
X140880238Y-83546904D01*
X140956428Y-83508809D01*
X141032619Y-83432619D01*
X141070714Y-83280238D01*
X141070714Y-83013571D01*
X141032619Y-82861190D01*
X140956428Y-82785000D01*
X140880238Y-82746904D01*
X139813571Y-83546904D02*
X140194523Y-83546904D01*
X140194523Y-82746904D01*
X138937380Y-83546904D02*
X138937380Y-82746904D01*
X138480238Y-83546904D01*
X138480238Y-82746904D01*
X137527857Y-82708809D02*
X138213571Y-83737380D01*
X136804047Y-83470714D02*
X136842142Y-83508809D01*
X136956428Y-83546904D01*
X137032619Y-83546904D01*
X137146904Y-83508809D01*
X137223095Y-83432619D01*
X137261190Y-83356428D01*
X137299285Y-83204047D01*
X137299285Y-83089761D01*
X137261190Y-82937380D01*
X137223095Y-82861190D01*
X137146904Y-82785000D01*
X137032619Y-82746904D01*
X136956428Y-82746904D01*
X136842142Y-82785000D01*
X136804047Y-82823095D01*
X145527857Y-84427857D02*
X145794523Y-84427857D01*
X145794523Y-84846904D02*
X145794523Y-84046904D01*
X145413571Y-84046904D01*
X145108809Y-84846904D02*
X145108809Y-84046904D01*
X144270714Y-84846904D02*
X144537380Y-84465952D01*
X144727857Y-84846904D02*
X144727857Y-84046904D01*
X144423095Y-84046904D01*
X144346904Y-84085000D01*
X144308809Y-84123095D01*
X144270714Y-84199285D01*
X144270714Y-84313571D01*
X144308809Y-84389761D01*
X144346904Y-84427857D01*
X144423095Y-84465952D01*
X144727857Y-84465952D01*
X143927857Y-84427857D02*
X143661190Y-84427857D01*
X143546904Y-84846904D02*
X143927857Y-84846904D01*
X143927857Y-84046904D01*
X143546904Y-84046904D01*
X143242142Y-84123095D02*
X143204047Y-84085000D01*
X143127857Y-84046904D01*
X142937380Y-84046904D01*
X142861190Y-84085000D01*
X142823095Y-84123095D01*
X142785000Y-84199285D01*
X142785000Y-84275476D01*
X142823095Y-84389761D01*
X143280238Y-84846904D01*
X142785000Y-84846904D01*
X142632619Y-84923095D02*
X142023095Y-84923095D01*
X141832619Y-84846904D02*
X141832619Y-84046904D01*
X141527857Y-84046904D01*
X141451666Y-84085000D01*
X141413571Y-84123095D01*
X141375476Y-84199285D01*
X141375476Y-84313571D01*
X141413571Y-84389761D01*
X141451666Y-84427857D01*
X141527857Y-84465952D01*
X141832619Y-84465952D01*
X140880238Y-84046904D02*
X140727857Y-84046904D01*
X140651666Y-84085000D01*
X140575476Y-84161190D01*
X140537380Y-84313571D01*
X140537380Y-84580238D01*
X140575476Y-84732619D01*
X140651666Y-84808809D01*
X140727857Y-84846904D01*
X140880238Y-84846904D01*
X140956428Y-84808809D01*
X141032619Y-84732619D01*
X141070714Y-84580238D01*
X141070714Y-84313571D01*
X141032619Y-84161190D01*
X140956428Y-84085000D01*
X140880238Y-84046904D01*
X139813571Y-84846904D02*
X140194523Y-84846904D01*
X140194523Y-84046904D01*
X138518333Y-84085000D02*
X138594523Y-84046904D01*
X138708809Y-84046904D01*
X138823095Y-84085000D01*
X138899285Y-84161190D01*
X138937380Y-84237380D01*
X138975476Y-84389761D01*
X138975476Y-84504047D01*
X138937380Y-84656428D01*
X138899285Y-84732619D01*
X138823095Y-84808809D01*
X138708809Y-84846904D01*
X138632619Y-84846904D01*
X138518333Y-84808809D01*
X138480238Y-84770714D01*
X138480238Y-84504047D01*
X138632619Y-84504047D01*
X138137380Y-84846904D02*
X138137380Y-84046904D01*
X137680238Y-84846904D01*
X137680238Y-84046904D01*
X137299285Y-84846904D02*
X137299285Y-84046904D01*
X137108809Y-84046904D01*
X136994523Y-84085000D01*
X136918333Y-84161190D01*
X136880238Y-84237380D01*
X136842142Y-84389761D01*
X136842142Y-84504047D01*
X136880238Y-84656428D01*
X136918333Y-84732619D01*
X136994523Y-84808809D01*
X137108809Y-84846904D01*
X137299285Y-84846904D01*
D11*
X153035000Y-93345000D02*
X153035000Y-91440000D01*
D10*
X151707857Y-87668333D02*
X151745952Y-87782619D01*
X151784047Y-87820714D01*
X151860238Y-87858809D01*
X151974523Y-87858809D01*
X152050714Y-87820714D01*
X152088809Y-87782619D01*
X152126904Y-87706428D01*
X152126904Y-87401666D01*
X151326904Y-87401666D01*
X151326904Y-87668333D01*
X151365000Y-87744523D01*
X151403095Y-87782619D01*
X151479285Y-87820714D01*
X151555476Y-87820714D01*
X151631666Y-87782619D01*
X151669761Y-87744523D01*
X151707857Y-87668333D01*
X151707857Y-87401666D01*
X151593571Y-88544523D02*
X152126904Y-88544523D01*
X151593571Y-88201666D02*
X152012619Y-88201666D01*
X152088809Y-88239761D01*
X152126904Y-88315952D01*
X152126904Y-88430238D01*
X152088809Y-88506428D01*
X152050714Y-88544523D01*
X151593571Y-88811190D02*
X151593571Y-89115952D01*
X151326904Y-88925476D02*
X152012619Y-88925476D01*
X152088809Y-88963571D01*
X152126904Y-89039761D01*
X152126904Y-89115952D01*
X151593571Y-89268333D02*
X151593571Y-89573095D01*
X151326904Y-89382619D02*
X152012619Y-89382619D01*
X152088809Y-89420714D01*
X152126904Y-89496904D01*
X152126904Y-89573095D01*
X152126904Y-89954047D02*
X152088809Y-89877857D01*
X152050714Y-89839761D01*
X151974523Y-89801666D01*
X151745952Y-89801666D01*
X151669761Y-89839761D01*
X151631666Y-89877857D01*
X151593571Y-89954047D01*
X151593571Y-90068333D01*
X151631666Y-90144523D01*
X151669761Y-90182619D01*
X151745952Y-90220714D01*
X151974523Y-90220714D01*
X152050714Y-90182619D01*
X152088809Y-90144523D01*
X152126904Y-90068333D01*
X152126904Y-89954047D01*
X151593571Y-90563571D02*
X152126904Y-90563571D01*
X151669761Y-90563571D02*
X151631666Y-90601666D01*
X151593571Y-90677857D01*
X151593571Y-90792142D01*
X151631666Y-90868333D01*
X151707857Y-90906428D01*
X152126904Y-90906428D01*
X151403095Y-91249285D02*
X151365000Y-91287380D01*
X151326904Y-91363571D01*
X151326904Y-91554047D01*
X151365000Y-91630238D01*
X151403095Y-91668333D01*
X151479285Y-91706428D01*
X151555476Y-91706428D01*
X151669761Y-91668333D01*
X152126904Y-91211190D01*
X152126904Y-91706428D01*
X156159047Y-83762857D02*
X156425714Y-83762857D01*
X156425714Y-84181904D02*
X156425714Y-83381904D01*
X156044761Y-83381904D01*
X155740000Y-84181904D02*
X155740000Y-83381904D01*
X154901904Y-84181904D02*
X155168571Y-83800952D01*
X155359047Y-84181904D02*
X155359047Y-83381904D01*
X155054285Y-83381904D01*
X154978095Y-83420000D01*
X154940000Y-83458095D01*
X154901904Y-83534285D01*
X154901904Y-83648571D01*
X154940000Y-83724761D01*
X154978095Y-83762857D01*
X155054285Y-83800952D01*
X155359047Y-83800952D01*
X154559047Y-83762857D02*
X154292380Y-83762857D01*
X154178095Y-84181904D02*
X154559047Y-84181904D01*
X154559047Y-83381904D01*
X154178095Y-83381904D01*
X153873333Y-83458095D02*
X153835238Y-83420000D01*
X153759047Y-83381904D01*
X153568571Y-83381904D01*
X153492380Y-83420000D01*
X153454285Y-83458095D01*
X153416190Y-83534285D01*
X153416190Y-83610476D01*
X153454285Y-83724761D01*
X153911428Y-84181904D01*
X153416190Y-84181904D01*
X130759047Y-83762857D02*
X131025714Y-83762857D01*
X131025714Y-84181904D02*
X131025714Y-83381904D01*
X130644761Y-83381904D01*
X130340000Y-84181904D02*
X130340000Y-83381904D01*
X129501904Y-84181904D02*
X129768571Y-83800952D01*
X129959047Y-84181904D02*
X129959047Y-83381904D01*
X129654285Y-83381904D01*
X129578095Y-83420000D01*
X129540000Y-83458095D01*
X129501904Y-83534285D01*
X129501904Y-83648571D01*
X129540000Y-83724761D01*
X129578095Y-83762857D01*
X129654285Y-83800952D01*
X129959047Y-83800952D01*
X129159047Y-83762857D02*
X128892380Y-83762857D01*
X128778095Y-84181904D02*
X129159047Y-84181904D01*
X129159047Y-83381904D01*
X128778095Y-83381904D01*
X128016190Y-84181904D02*
X128473333Y-84181904D01*
X128244761Y-84181904D02*
X128244761Y-83381904D01*
X128320952Y-83496190D01*
X128397142Y-83572380D01*
X128473333Y-83610476D01*
X132657857Y-87668333D02*
X132695952Y-87782619D01*
X132734047Y-87820714D01*
X132810238Y-87858809D01*
X132924523Y-87858809D01*
X133000714Y-87820714D01*
X133038809Y-87782619D01*
X133076904Y-87706428D01*
X133076904Y-87401666D01*
X132276904Y-87401666D01*
X132276904Y-87668333D01*
X132315000Y-87744523D01*
X132353095Y-87782619D01*
X132429285Y-87820714D01*
X132505476Y-87820714D01*
X132581666Y-87782619D01*
X132619761Y-87744523D01*
X132657857Y-87668333D01*
X132657857Y-87401666D01*
X132543571Y-88544523D02*
X133076904Y-88544523D01*
X132543571Y-88201666D02*
X132962619Y-88201666D01*
X133038809Y-88239761D01*
X133076904Y-88315952D01*
X133076904Y-88430238D01*
X133038809Y-88506428D01*
X133000714Y-88544523D01*
X132543571Y-88811190D02*
X132543571Y-89115952D01*
X132276904Y-88925476D02*
X132962619Y-88925476D01*
X133038809Y-88963571D01*
X133076904Y-89039761D01*
X133076904Y-89115952D01*
X132543571Y-89268333D02*
X132543571Y-89573095D01*
X132276904Y-89382619D02*
X132962619Y-89382619D01*
X133038809Y-89420714D01*
X133076904Y-89496904D01*
X133076904Y-89573095D01*
X133076904Y-89954047D02*
X133038809Y-89877857D01*
X133000714Y-89839761D01*
X132924523Y-89801666D01*
X132695952Y-89801666D01*
X132619761Y-89839761D01*
X132581666Y-89877857D01*
X132543571Y-89954047D01*
X132543571Y-90068333D01*
X132581666Y-90144523D01*
X132619761Y-90182619D01*
X132695952Y-90220714D01*
X132924523Y-90220714D01*
X133000714Y-90182619D01*
X133038809Y-90144523D01*
X133076904Y-90068333D01*
X133076904Y-89954047D01*
X132543571Y-90563571D02*
X133076904Y-90563571D01*
X132619761Y-90563571D02*
X132581666Y-90601666D01*
X132543571Y-90677857D01*
X132543571Y-90792142D01*
X132581666Y-90868333D01*
X132657857Y-90906428D01*
X133076904Y-90906428D01*
X133076904Y-91706428D02*
X133076904Y-91249285D01*
X133076904Y-91477857D02*
X132276904Y-91477857D01*
X132391190Y-91401666D01*
X132467380Y-91325476D01*
X132505476Y-91249285D01*
D11*
X153035000Y-90805000D02*
X154305000Y-90805000D01*
X153035000Y-88265000D02*
X153035000Y-90805000D01*
X153035000Y-88265000D02*
X154305000Y-88265000D01*
X153035000Y-83185000D02*
X153035000Y-87630000D01*
X131445000Y-91440000D02*
X131445000Y-93345000D01*
X131445000Y-90805000D02*
X130175000Y-90805000D01*
X131445000Y-88265000D02*
X131445000Y-90805000D01*
X130175000Y-88265000D02*
X131445000Y-88265000D01*
X131445000Y-83185000D02*
X131445000Y-87630000D01*
M02*
