M48
; DRILL file {KiCad (5.1.5)-3} date 13/12/2020 23:28:06
; FORMAT={2:4/ absolute / inch / suppress leading zeros}
; #@! TF.CreationDate,2020-12-13T23:28:06+01:00
; #@! TF.GenerationSoftware,Kicad,Pcbnew,(5.1.5)-3
FMAT,2
INCH,TZ
T1C0.0157
T2C0.0315
T3C0.0394
T4C0.0400
%
G90
G05
T1
X52700Y-29500
X53250Y-34750
X53500Y-29500
X53999Y-28929
X54250Y-27500
X54400Y-28600
X55500Y-27000
X55500Y-33000
X56600Y-28600
X56600Y-29500
X56750Y-33000
X57100Y-28300
X57250Y-28750
X57500Y-33750
X58750Y-27250
X59600Y-30000
T2
X59000Y-28500
X60000Y-28500
X61000Y-28500
X57000Y-31500
X61000Y-31500
X57000Y-30000
X61000Y-30000
X51000Y-30000
X55000Y-30000
X51000Y-28500
X52000Y-28500
X53000Y-28500
X51000Y-31500
X55000Y-31500
T3
X51000Y-33750
X51000Y-34750
X51000Y-35750
X61000Y-33750
X61000Y-34750
X61000Y-35750
T4
X54000Y-34250
X54000Y-35250
X55000Y-34250
X55000Y-35250
X56000Y-34250
X56000Y-35250
X57000Y-34250
X57000Y-35250
X58000Y-34250
X58000Y-35250
T0
M30
